<?xml version="1.0" encoding="utf-8"?>
<!-- Generator: Adobe Illustrator 27.0.0, SVG Export Plug-In . SVG Version: 6.00 Build 0)  -->
<svg version="1.1" id="圖層_1" xmlns="http://www.w3.org/2000/svg" xmlns:xlink="http://www.w3.org/1999/xlink" x="0px" y="0px"
	 viewBox="0 0 173 103" style="enable-background:new 0 0 173 103;" xml:space="preserve">
<style type="text/css">
	.st0{fill:#E8D0A4;}
	.st1{fill:none;stroke:#571704;stroke-width:0.25;stroke-miterlimit:10;}
	.st2{fill:#834E1A;}
	.st3{fill:#40210F;}
	.st4{fill:none;stroke:#40210F;stroke-width:0.25;stroke-miterlimit:10;}
</style>
<g>
	<rect x="0.1" y="0.3" class="st0" width="172.5" height="102.6"/>
	<line class="st1" x1="16.1" y1="32.1" x2="152.7" y2="32.1"/>
	<g>
		<g>
			<g>
				<path class="st2" d="M21.5,12.9c0,0.1-0.2,0.2-0.5,0.2c-0.6,0.9-1.6,2.1-2.7,3.1c1.5,0,3.4,0,5.4,0c-0.5-0.7-1.1-1.2-1.7-1.7
					l0.1-0.1c3.3,0.4,4.3,1.9,4.3,2.9c0,0.6-0.4,1.1-0.9,1.1c-0.2,0-0.4-0.1-0.6-0.2c-0.2-0.5-0.5-1-0.8-1.5c-1.7,0.4-4,0.8-7.4,1.4
					c-0.1,0.2-0.2,0.2-0.4,0.3l-0.8-2.1l2.1,0c0.6-1.3,1.2-3,1.5-4.2L21.5,12.9z M22.9,19l0.7-1l1.8,1.4c-0.1,0.1-0.3,0.3-0.6,0.3
					v3.9c0,0-0.5,0.4-1.8,0.4v-1h-4.3v0.5c0,0.1-0.2,0.7-1.7,0.7v-5.9l1.8,0.7H22.9z M18.7,22.9H23v-3.6h-4.3V22.9z"/>
				<path class="st2" d="M30.8,14.4l0.2,0c-0.3,1.8-0.8,5.2-0.8,6.1v0.1c0,0.7,0.5,1.2,0.5,2.3c0,1.1-0.7,1.3-1,1.3
					c-0.3,0-0.6-0.2-0.7-0.7c0.1-0.6,0.2-1.2,0.2-1.7c0-1.2-0.2-1.3-0.8-1.4v-0.2c0.4,0,0.5,0,0.5,0v0c0.2,0,0.2,0,0.3-0.3
					c0.1-0.3,0.2-0.4,0.8-2.6c-0.1,0.2-0.4,0.4-0.6,0.4c-0.2,0-0.4-0.1-0.6-0.3c0-0.7-0.2-1.5-0.5-2l0.1-0.1c1.4,0.4,1.8,1,1.9,1.6
					L30.8,14.4z M28.6,12.1c1.5,0.4,2,1,2,1.6c0,0.5-0.4,0.9-0.8,0.9c-0.2,0-0.4-0.1-0.6-0.3C29.2,13.6,28.9,12.7,28.6,12.1
					L28.6,12.1z M38.4,16.6l0.1-0.1c0.8,0.4,1.1,0.9,1.1,1.3c0,0.3-0.2,0.6-0.5,0.6c-0.1,0-0.3-0.1-0.4-0.2
					C38.8,17.7,38.6,17.1,38.4,16.6v2c0,0.1-0.3,0.2-0.8,0.2l1,0.7c-0.1,0.1-0.2,0.2-0.4,0.2v1c0,0-0.2,0.1-0.4,0.2l1.3,1
					c-0.1,0.1-0.2,0.2-0.4,0.2c-0.3,1.7-0.8,2-2.3,2c0-0.8-0.2-1.2-1.6-1.4v-0.2c0.6,0,1.5,0.1,1.8,0.1c0.4,0,0.5,0,0.7-0.9h-4.4
					c-0.1,0.2-0.1,0.5-0.2,0.7c-0.2,0.1-0.3,0.1-0.6,0.1c-0.2,0-0.5-0.1-0.9-0.2c0.3-0.8,0.6-2,0.7-2.7l1.5,0.7h3.3v-1.1h-5.1
					l-0.1-0.2h5.1l0.5-0.7l0.3,0.2v-1.5c-0.2,0.5-0.6,1-0.9,1.4l-0.2-0.1c0.2-0.4,0.3-1.2,0.4-1.8l0.7,0.2v-0.7L37,16.3
					c-0.1,0.2-0.2,0.2-0.3,0.3l-0.4-0.8c-0.1,0-0.2,0.1-0.4,0.1H34c0,0.1,0,0.2-0.1,0.3l1,0.4h0.2l0.3-0.5l1,0.7
					c0,0.1-0.2,0.1-0.3,0.2v1.4c0,0-0.3,0.3-1,0.3V18h-0.4v0.5c0,0.1-0.3,0.3-0.8,0.3h-0.2v-1h0c0,0.3-0.2,0.4-0.4,0.4
					c-0.1,0-0.2-0.1-0.3-0.2c0-0.4-0.1-0.9-0.2-1.2v1.8c0,0.1-0.3,0.2-0.8,0.2h-0.2v-1.4c-0.3,0.5-0.7,1-1.1,1.3l-0.2-0.1
					c0.2-0.5,0.5-1.3,0.7-2.1l0.6,0.2v-0.7l-0.4,0.1c-0.1,0.2-0.2,0.2-0.3,0.3l-0.4-1.1c0.2,0,0.4,0,0.7,0c0.1-0.2,0.2-0.4,0.3-0.6
					c-0.1,0-0.1,0.1-0.2,0.1c-0.1,0-0.2,0-0.3-0.2c0-0.4-0.2-0.9-0.5-1.2l0.1-0.1c0.2,0,0.4,0.1,0.6,0.2c0.2-0.4,0.3-1,0.5-1.6
					l1.3,0.5c-0.1,0.1-0.2,0.2-0.4,0.2c-0.3,0.3-0.7,0.7-1,1c0.2,0.2,0.3,0.4,0.3,0.5c0.2-0.4,0.4-0.8,0.5-1.1l0.8,0.5l0-0.1h1.7
					l0.5-0.7l0.5,0.4l0,0c0.3,0,0.5,0.1,0.7,0.2c0.1-0.4,0.3-1,0.4-1.5l1.3,0.6c0,0.1-0.2,0.2-0.4,0.2c-0.3,0.3-0.6,0.7-1,1
					c0.2,0.2,0.3,0.4,0.3,0.6c0,0.1,0,0.1,0,0.2h0c0.2-0.4,0.4-0.8,0.6-1.1l1.2,0.7c0,0.1-0.1,0.1-0.2,0.1c-0.1,0-0.1,0-0.2,0
					c-0.4,0.4-0.9,0.9-1.5,1.3l1.2,0c-0.1-0.2-0.2-0.4-0.3-0.6l0.1-0.1c0.9,0.3,1.2,0.7,1.2,1c0,0.3-0.2,0.5-0.5,0.5
					c-0.1,0-0.3-0.1-0.4-0.2c0-0.1,0-0.2-0.1-0.4l-0.3,0.1V16.6z M35.5,14.9l0.7,0.5c0.2,0,0.5,0,0.8,0c0.1-0.3,0.3-0.5,0.4-0.8h0
					c-0.1,0.1-0.2,0.2-0.3,0.2c-0.1,0-0.2,0-0.3-0.2c0-0.2-0.2-0.5-0.3-0.7c-0.1,0-0.2,0-0.3,0h-2.4l0.1,0.1c0,0.1-0.1,0.1-0.2,0.1
					c-0.1,0-0.1,0-0.2,0c-0.4,0.4-0.9,0.9-1.4,1.4c0.3,0,0.7,0,1.1,0c-0.1-0.2-0.1-0.4-0.2-0.6l0.1-0.1c0.6,0.2,1,0.5,1,0.8h1.1
					L35.5,14.9z M37.1,21.6l0.4-0.5c-0.3,0.1-0.4,0.1-0.8,0.1v-0.5h-3.6c-0.1,0.2-0.1,0.6-0.2,0.9H37.1z M33.9,17.6v-1.4
					c-0.1,0.1-0.2,0.2-0.3,0.2c-0.1,0-0.3-0.1-0.4-0.2c0-0.1,0-0.2,0-0.3l-0.2,0.1v0.9l0.1-0.1C33.6,16.9,33.9,17.3,33.9,17.6
					L33.9,17.6z M36.5,12.8C36.4,13,36.2,13,35.9,13h-2.1l-0.1-0.2h1.2l0.5-0.7L36.5,12.8z M35.1,14.6l0.5-0.6l0.9,0.7
					c-0.1,0.1-0.2,0.2-0.5,0.2h-2l-0.1-0.2H35.1z M35.2,16.7h-0.4v1.1h0.4V16.7z"/>
				<path class="st2" d="M50.8,12.6l1.6,1.2c-0.1,0.1-0.2,0.2-0.5,0.3v3.5c0,0-0.5,0.4-1.6,0.4v-1h-1.3v0.7c0,0-0.2,0.6-1.6,0.6
					v-2.6c-0.1,0.1-0.2,0.1-0.5,0.1h-1.7c-0.1,0.3-0.1,0.5-0.2,0.8c1.5,0.1,2,0.7,2,1.2c0,0.5-0.4,0.9-0.8,0.9
					c-0.2,0-0.3-0.1-0.5-0.2c-0.1-0.5-0.5-1.1-0.8-1.5c-0.3,0.6-0.7,1-1.4,1.5l1.7,0.7h3.8l0.6-0.9l1.7,1.3
					c-0.1,0.1-0.2,0.2-0.5,0.3v3.9c0,0-0.5,0.4-1.7,0.4v-0.9h-4v0.3c0,0-0.2,0.7-1.7,0.7v-5.7c-0.4,0.3-1,0.5-1.6,0.7l-0.1-0.2
					c1.5-0.9,2-2,2.2-3.2h-2.3l0-0.2h2.3c0.1-0.6,0.1-1.2,0.1-1.8h-0.1c-0.5,0.7-1,1.3-1.6,1.6l-0.1-0.1c0.4-0.7,0.7-2,0.8-3.3
					l1.9,0.6c0,0.2-0.2,0.3-0.5,0.3c-0.1,0.3-0.2,0.5-0.4,0.8H45l0.7-1.1l1.4,1.1c-0.1,0.1-0.3,0.2-0.6,0.2h-1.2
					c0,0.7-0.1,1.3-0.2,1.8h0.2l0.7-1.1l1.2,1v-2.8l1.7,0.7h1.2L50.8,12.6z M48.9,19.3h-4V21h4V19.3z M44.9,23h4v-1.8h-4V23z
					 M48.9,16.8h1.3v-3.2h-1.3V16.8z"/>
				<path class="st2" d="M56.3,21.3c0.1,0.4,0.2,0.8,0.2,1.1c0,1-0.6,1.6-1.3,1.6c-0.5,0-1-0.3-1-0.9c0-0.5,0.4-0.8,0.8-0.9
					c0.5-0.1,1.1-0.4,1.2-0.8H56.3z M55.4,16.7c-0.1,0.2-0.2,0.3-0.3,0.3l-0.7-1.5c0.4,0,1.1,0,2-0.1v-0.7H55l-0.1-0.2h1.4v-0.9
					h-1.7l-0.1-0.2h1.7V12l2,0.2c0,0.2-0.1,0.2-0.4,0.3v0.9h0l0.6-0.8l1.2,0.9l0,0h1.6V12l2,0.2c0,0.2-0.1,0.3-0.4,0.3v0.9h0.4
					l0.6-0.9l1.2,0.9c-0.1,0.2-0.2,0.2-0.5,0.2h-1.7v0.9h0.2l0.6-0.8l1.1,0.8c-0.1,0.2-0.2,0.2-0.5,0.2h-1.4v1h0.6l0.6-0.9l1.2,0.9
					c-0.1,0.2-0.2,0.2-0.5,0.2h-1.9v0.6c0,0,0,0.1-0.1,0.1l1.3,1c-0.1,0.1-0.2,0.2-0.4,0.2v2.5c0,0-0.4,0.5-1.7,0.5v-0.6h-6.7
					l-0.1-0.2h6.7v-1.2h-6.2l-0.1-0.2h6.3v-1.2h-6.6l-0.1-0.2H62l0.3-0.4c-0.4,0.1-0.5,0.1-0.9,0.1v-1h-1.7l-0.1-0.2h1.7v-1h-1.2
					l-0.1-0.2h1.3v-0.9h-1.5l0-0.2c-0.1,0.2-0.2,0.2-0.5,0.2h-1.3v0.9h0l0.6-0.8l1.1,0.8c-0.1,0.2-0.2,0.2-0.5,0.2h-1.2v0.6l1.7-0.1
					l0,0.2c-0.5,0.2-1,0.3-1.7,0.5v0.6c0,0-0.3,0.4-1.6,0.4v-0.6L55.4,16.7z M62.2,21.7l0,0.9c0.5,0.2,0.6,0.3,0.6,0.5
					c0,0.6-0.4,0.9-1.9,0.9h-2c-1.5,0-1.8-0.3-1.8-1.6V21l1.9,0.1c-0.2-0.2-0.3-0.5-0.5-0.6l0.1-0.1c0.2,0,0.3,0,0.5,0
					c1.4,0,1.9,0.5,1.9,1c0,0.5-0.4,0.9-0.9,0.9c-0.2,0-0.4-0.1-0.6-0.2c-0.1-0.3-0.2-0.6-0.4-0.9c0,0.1-0.1,0.2-0.4,0.2v1
					c0,0.2,0,0.2,0.4,0.2h1.8C61.5,22.7,61.6,22.7,62.2,21.7L62.2,21.7z M62.3,21.1c2.3,0.1,3,1,3,1.7c0,0.6-0.4,1-0.9,1
					c-0.2,0-0.4-0.1-0.6-0.3C63.6,22.7,63,21.8,62.3,21.1L62.3,21.1z"/>
			</g>
		</g>
		<g>
			<g>
				<path class="st2" d="M76.4,15.7l1.2,1.2c-0.1,0.1-0.2,0.1-0.4,0.2c-0.3,0.6-0.8,1.3-1.4,1.9c1.4,0.2,1.8,0.8,1.8,1.3
					c0,0.4-0.4,0.8-0.8,0.8c-0.2,0-0.4-0.1-0.6-0.3c-0.1-0.5-0.3-1.1-0.6-1.6v4.3c0,0.1-0.4,0.4-1.1,0.4h-0.3v-3.7
					c-0.4,0.3-0.9,0.6-1.4,0.8l-0.1-0.1c1.3-1,2.4-3,2.9-4.5H73l0-0.2h1.3v-2.3l1.8,0.2c0,0.1-0.1,0.2-0.4,0.2v1.8L76.4,15.7z
					 M80.9,22.2l1.2,1.1c-0.1,0.1-0.2,0.1-0.5,0.1h-5.3l0-0.2h2.2v-5.1H77l0-0.2h1.6v-3.9l1.8,0.2c0,0.1-0.1,0.2-0.4,0.3V18h0.2
					l0.7-1l1.2,1c-0.1,0.1-0.2,0.1-0.5,0.1H80v5.1h0.3L80.9,22.2z"/>
				<path class="st2" d="M91,22l1.3,1c-0.1,0.1-0.2,0.1-0.5,0.1H85v0.4c0,0.1-0.4,0.5-1.1,0.5h-0.3v-9.4l1.5,0.6h4.7l0.7-0.9l1.3,1
					c-0.1,0.1-0.2,0.1-0.5,0.1H85v7.5h5.3L91,22z M88,21.8c0,0.1-0.6,0.3-0.9,0.3h-0.2v-0.4h-0.4v0.3c0,0-0.2,0.4-1.1,0.4v-3.5
					l1.1,0.5h0.3l0.4-0.6l1.1,0.8c0,0.1-0.2,0.1-0.3,0.2V21.8z M90.2,18.5c0,0-0.4,0.3-1.3,0.3v-0.5h-1.3v0.1c0,0-0.2,0.5-1.3,0.5
					v-3.1l1.4,0.6h1.1l0.5-0.7l1.3,1c0,0.1-0.2,0.2-0.3,0.2V18.5z M86.5,21.5h0.4v-1.9h-0.4V21.5z M87.6,18.1h1.3v-1.6h-1.3V18.1z
					 M91.2,21.8c0,0.1-0.6,0.3-1,0.3H90v-0.5h-0.5v0.1c0,0-0.2,0.4-1.1,0.4v-3.3l1.2,0.5h0.4l0.4-0.6l1.1,0.8c0,0.1-0.1,0.1-0.3,0.2
					V21.8z M89.5,21.5H90v-1.9h-0.5V21.5z"/>
				<path class="st2" d="M102.1,21.4v1.3c0.3,0.2,0.4,0.3,0.4,0.4c0,0.5-0.3,0.8-1.1,0.8h-0.5c-1.1,0-1.2-0.3-1.2-1.4v-1.6
					c0,0.1-0.2,0.1-0.4,0.1c-0.3,1.4-1.1,2.5-3.5,3l0-0.1c1.6-0.7,2.1-1.9,2.2-3.2c-0.1,0-0.1,0-0.4,0V19c-0.1,0.1-0.2,0.1-0.4,0.1
					h-1.1c0,0.4,0,0.8-0.1,1.2c1.2,0.2,1.6,0.8,1.6,1.3c0,0.4-0.4,0.8-0.8,0.8c-0.2,0-0.4-0.1-0.6-0.3c0-0.5-0.2-1-0.4-1.4
					c-0.3,1.4-1,2.5-2.4,3.2l-0.1-0.1c1-1.3,1.3-2.9,1.3-4.8h-1.3l0-0.2h1.4v-2.4h-1.1l0-0.2h1.1v-2.2l1.7,0.1
					c0,0.1-0.1,0.2-0.4,0.2v1.7l0.5-0.8l1,0.9c-0.1,0.1-0.2,0.1-0.5,0.1h-1v2.4l0.6-0.9l1,0.9v-4.5l1.4,0.6h1.5l0.6-0.8l1.3,1
					c-0.1,0.1-0.2,0.2-0.4,0.2v4.9c0,0.1-0.3,0.3-0.9,0.3v1.9c0,0.2,0,0.2,0.1,0.2h0.3c0.1,0,0.2,0,0.3-0.2
					C101.7,22.4,101.8,22,102.1,21.4L102.1,21.4z M98.7,20.3c0,0.1-0.1,0.2-0.4,0.3l1.3,0.2v-0.6h-0.9V20.3z M100.4,15.1h-1.7v1.5
					h1.7V15.1z M100.4,18.3v-1.5h-1.7v1.5H100.4z M100.4,18.4h-1.7v1.5h1.7V18.4z"/>
				<path class="st2" d="M110.6,15.5c0,0.1-0.1,0.2-0.3,0.2v5.4c0,0-0.2,0.3-1.2,0.3v-5.4h-0.8v1c0,0.1-0.2,0.2-0.5,0.3l0.7,0.5
					c-0.1,0.1-0.2,0.1-0.4,0.1h-1.4v0.8h0.7l0.6-0.8l1.1,0.8c-0.1,0.1-0.2,0.1-0.4,0.1h-5.1l0-0.2h2.1v-0.8h-1.7l0-0.2h1.7v-0.8
					h-1.4l0-0.2h1.4v-0.8h-2l0-0.2h2.1v-0.8h-1.3l0-0.2h1.4V14l1.5,0.2c0,0.1-0.1,0.2-0.3,0.2V15h0.4l0.4-0.5l1.1,0.8
					c0,0.1-0.1,0.1-0.3,0.1V16h0l0.4-0.6l0.4,0.4v-0.3L110.6,15.5z M109,22.3c-1,0.4-2.5,0.8-4.8,1.4c-0.1,0.1-0.2,0.2-0.3,0.2
					l-0.6-1.5c1,0,3.3-0.1,5.6-0.3L109,22.3z M108.3,21.8c0,0.1-0.6,0.3-1,0.3h-0.2v-0.3H105v0.1c0,0.1-0.3,0.3-0.9,0.3h-0.2v-3
					l1.3,0.5h1.9l0.4-0.6l1.2,0.9c0,0.1-0.1,0.1-0.3,0.2V21.8z M105.5,19.9H105v0.8h0.5V19.9z M105,20.8v0.8h0.5v-0.8H105z
					 M107.1,19.9h-0.6v0.8h0.6V19.9z M106.6,21.6h0.6v-0.8h-0.6V21.6z M106.6,15.1V16h0.5v-0.8H106.6z M107.1,17v-0.8h-0.5V17H107.1
					z M106.6,17.9h0.3l0.3-0.4h-0.2v-0.4h-0.5V17.9z M110.9,14.2l1.6,0.1c0,0.1-0.1,0.2-0.4,0.3v7.6c0,0.9-0.2,1.5-1.6,1.7
					c0-0.9-0.3-1.2-1.1-1.4v-0.1h1.2c0.1,0,0.1-0.1,0.1-0.2V14.2z"/>
				<path class="st2" d="M121.3,14.5l1.3,1c-0.1,0.1-0.2,0.2-0.4,0.2v2.9c0,0-0.4,0.3-1.3,0.3v-0.8h-1.1v0.5c0,0-0.2,0.5-1.3,0.5
					v-2.1c-0.1,0.1-0.2,0.1-0.4,0.1h-1.4c0,0.2-0.1,0.4-0.2,0.6c1.2,0.1,1.6,0.5,1.6,1c0,0.4-0.3,0.7-0.6,0.7
					c-0.1,0-0.3-0.1-0.4-0.2c-0.1-0.4-0.4-0.9-0.7-1.2c-0.2,0.4-0.6,0.8-1.1,1.2l1.3,0.6h3.1l0.5-0.7l1.4,1
					c-0.1,0.1-0.2,0.2-0.4,0.2v3.2c0,0-0.4,0.3-1.4,0.3v-0.7h-3.3v0.3c0,0-0.2,0.6-1.4,0.6v-4.6c-0.4,0.2-0.8,0.4-1.3,0.6l-0.1-0.1
					c1.2-0.7,1.6-1.6,1.8-2.6h-1.8l0-0.2h1.9c0-0.5,0-0.9,0.1-1.5h0c-0.4,0.6-0.8,1-1.3,1.3l-0.1-0.1c0.3-0.6,0.6-1.7,0.7-2.7
					l1.6,0.5c0,0.1-0.1,0.2-0.4,0.2c-0.1,0.2-0.2,0.4-0.3,0.6h1l0.6-0.9l1.1,0.9c-0.1,0.1-0.2,0.1-0.5,0.1h-1c0,0.5,0,1-0.1,1.5h0.1
					l0.6-0.9l1,0.8v-2.3l1.3,0.6h1L121.3,14.5z M119.7,20h-3.3v1.4h3.3V20z M116.5,23h3.3v-1.5h-3.3V23z M119.8,18h1.1v-2.6h-1.1V18
					z"/>
				<path class="st2" d="M126.9,14.6c0,0.1-0.1,0.2-0.4,0.2c-0.3,0.4-0.8,1-1.3,1.6c0.5,0,1.1,0,1.8,0c-0.2-0.3-0.4-0.6-0.6-0.8
					l0.1-0.1c1.7,0.2,2.2,0.9,2.2,1.5c0,0.5-0.3,0.8-0.7,0.8c-0.2,0-0.4-0.1-0.5-0.2c0-0.3-0.1-0.6-0.3-0.9c-0.6,0.3-1.5,0.6-2.6,1
					c0,0,0,0.1-0.1,0.1l1.1,0.5h1l0.5-0.7l1.3,1c-0.1,0.1-0.2,0.2-0.4,0.2v3.6c0,0.9-0.1,1.5-1.5,1.7c0-1.1-0.2-1.3-0.7-1.5v-0.1
					h0.8c0.1,0,0.1,0,0.1-0.1v-1h-1.2v2.2c0,0-0.2,0.5-1.3,0.5v-6.1h0l-0.6-1.5h1c0.1-0.7,0.3-1.6,0.3-2.3L126.9,14.6z M126.7,18.4
					h-1.2v1.3h1.2V18.4z M125.5,21.1h1.2v-1.3h-1.2V21.1z M132.3,17.4c0.4,0.2,0.5,0.3,0.5,0.5c0,0.5-0.4,0.8-1.4,0.8h-1
					c-1.2,0-1.5-0.3-1.5-1.5v-3.2l1.7,0.1c0,0.1-0.1,0.2-0.3,0.2v1.4c0.5-0.4,1.1-0.9,1.4-1.3l1.3,1.1c-0.1,0.1-0.2,0.1-0.3,0.1
					c-0.1,0-0.2,0-0.3-0.1c-0.5,0.1-1.3,0.3-2,0.4v1.1c0,0.2,0,0.3,0.2,0.3h0.9c0.3,0,0.4,0,0.9-1h0.1L132.3,17.4z M132.4,21.6l0,1
					c0.4,0.2,0.5,0.3,0.5,0.5c0,0.5-0.4,0.8-1.4,0.8h-1.1c-1.2,0-1.5-0.3-1.5-1.5V19l1.7,0.1c0,0.1-0.1,0.2-0.3,0.2v1.3
					c0.5-0.4,1.1-1,1.4-1.3l1.4,1.1c-0.1,0.1-0.2,0.1-0.3,0.1c-0.1,0-0.2,0-0.3,0c-0.5,0.2-1.4,0.4-2.1,0.5v1.3c0,0.3,0,0.3,0.2,0.3
					h1c0.2,0,0.3,0,0.4-0.1C132,22.4,132.2,22,132.4,21.6L132.4,21.6z"/>
				<path class="st2" d="M143,16.9c-0.1,0.1-0.2,0.1-0.4,0.1c-0.4,0.3-1,0.6-1.4,0.8l-0.1-0.1c0-0.1,0-0.2,0.1-0.4
					c-0.1,0.1-0.1,0.1-0.3,0.1l-2,0.2V18c0,0.2,0,0.2,0.3,0.2h1.8c0.5,0,0.6,0,1-0.6h0.1l0,0.5c0.5,0.2,0.5,0.2,0.5,0.4
					c0,0.5-0.3,0.7-1.6,0.7h-1.8c-0.6,0-0.9-0.1-1.2-0.2c0,0.1-0.1,0.1-0.3,0.1c-0.1,0.3-0.2,0.6-0.3,0.9h0.1l0.6-0.6l0.9,0.8v-0.8
					l1.3,0.5h0l0.5-0.6l1.1,0.9c0,0.1-0.2,0.1-0.3,0.1v0.8c0,0.1,0,0.1,0.1,0.1h0.2c0.1,0,0.2-0.1,0.4-0.8h0.1l0,0.8
					c0.3,0.1,0.3,0.2,0.3,0.4c0,0.4-0.3,0.7-0.9,0.7h-0.5c-0.9,0-0.9-0.3-0.9-1.2v-0.9h-0.3v0.5c0,0.6-0.2,1.5-1.6,1.9
					c0.4,0.1,0.9,0.1,1.5,0.1c0.7,0,2.3,0,3,0v0.1c-0.4,0.1-0.6,0.6-0.6,1.1H140c-1.2,0-2-0.2-2.5-1c-0.5,0.5-1.2,0.9-2,1.2l0-0.1
					c0.8-0.4,1.3-1.1,1.7-1.8c-0.1-0.3-0.2-0.6-0.3-1c-0.3,0.4-0.6,0.7-1,1l-0.1-0.1c0.5-0.8,0.7-2.1,0.8-3.2l1.4,0.1
					c-0.2-0.3-0.2-0.7-0.2-1.1l-1.6,0.2v0.7c0,1.6-0.1,3.8-2.1,5.2l-0.1-0.1c0.8-1.5,0.9-3.4,0.9-5.1v-2.9l1.6,0.6h1.4v-2.4l1.8,0.2
					c0,0.1-0.1,0.2-0.4,0.2v0.8h1.2l0.7-0.9l1.2,0.9c-0.1,0.1-0.2,0.1-0.5,0.1h-2.6v1h2.1l0.7-0.7L143,16.9z M136,17.9l1.6-0.2v-1.1
					H136V17.9z M137.4,20.2c-0.1,0.2-0.2,0.4-0.4,0.6c0.1,0.3,0.2,0.5,0.3,0.7c0.2-0.4,0.3-0.9,0.3-1.3H137.4z M138.4,22.4
					c0.6-0.5,0.6-1.2,0.6-1.8v-0.1c-0.1,0-0.1,0.1-0.3,0.1c-0.2,0.6-0.4,1.2-0.8,1.7C138.1,22.3,138.3,22.4,138.4,22.4L138.4,22.4z
					 M140.1,16.7l1.1,0.7c0-0.2,0.1-0.5,0.1-0.7h-2.5v0l0.5,0c0,0.1-0.1,0.2-0.3,0.2v0.7l0.7-0.1L140.1,16.7z"/>
				<path class="st2" d="M146.3,20.6c0.4-0.1,0.8-0.1,1.3-0.2l0,0.1c-0.5,0.4-1.4,1.1-2.8,1.9c0,0.1-0.2,0.2-0.3,0.3l-0.6-1.7
					c0.2,0,0.6-0.1,1-0.1v-2.7h-0.8l0-0.2h0.9v-2.7H144l0-0.2h2l0.6-1l1.1,1c-0.1,0.1-0.2,0.1-0.5,0.1h-0.8v2.5l0.4-0.7l0.9,0.9
					c-0.1,0.1-0.2,0.1-0.5,0.1h-0.8V20.6z M152.1,22.4l1.2,1.1c-0.1,0.1-0.2,0.1-0.5,0.1h-6.2l0-0.2h2.9v-2.1h-1.9l0-0.2h2v-2h-0.5
					v0.3c0,0-0.2,0.5-1.3,0.5v-5.7L149,15h2.3l0.5-0.7l1.3,1c-0.1,0.1-0.2,0.2-0.4,0.2v4c0,0-0.3,0.4-1.4,0.4v-0.7h-0.5v2h0.3l0.6-1
					l1.1,1c-0.1,0.1-0.2,0.1-0.5,0.1h-1.6v2.1h0.6L152.1,22.4z M149.5,15.1h-0.5V17h0.5V15.1z M148.9,19h0.5v-1.9h-0.5V19z
					 M151.4,15.1h-0.5V17h0.5V15.1z M150.8,19h0.5v-1.9h-0.5V19z"/>
			</g>
		</g>
	</g>
	<g>
		<g>
			<path class="st3" d="M26.2,58.4V59h-2.7v0.4h3.1v1.8h-0.7v-1.2h-2.4v1.7h-0.7v-1.7h-2.4v1.2h-0.7v-1.9h3.1V59H20v-0.6H26.2z
				 M26.1,61.8v2.5l0.6,0.2c-0.1,0.6-0.2,0.9-0.4,1c-0.2,0.1-0.5,0.2-0.9,0.2h-2.1c-0.2,0-0.4-0.1-0.5-0.2c-0.1-0.1-0.2-0.3-0.2-0.5
				v-0.5h-2.5v-2.6H26.1z M22.4,60.2v0.5h-1.8v-0.5H22.4z M22.4,61v0.5h-1.8V61H22.4z M22.7,62.8v-0.5h-1.8v0.5H22.7z M22.7,63.3
				h-1.8v0.5h1.8V63.3z M23.3,62.8h2v-0.5h-2V62.8z M25.4,63.3h-2v0.5h2V63.3z M23.3,64.8c0,0.1,0.1,0.2,0.3,0.2h1.7
				c0.2,0,0.4,0,0.5-0.1c0.1,0,0.2-0.2,0.2-0.5h-2.7V64.8z M25.6,60.2v0.5h-1.9v-0.5H25.6z M25.6,61v0.5h-1.9V61H25.6z"/>
			<path class="st3" d="M31.1,58.9c-0.4,0.1-0.9,0.1-1.4,0.2v0.5h1.6v0.6h-1.6v0.4h1.5v2.5h-1.5v0.5H31v0.5h-1.4v0.6
				c0.5,0,0.9-0.1,1.4-0.2v0.3c0.5-0.7,0.8-1.5,1-2.3c0.1-0.5,0.2-1.3,0.3-2.2h-0.8v-0.7h0.8c0-0.1,0-0.3,0-0.4v-1.1h0.7v1.1
				c0,0.1,0,0.3,0,0.4h1.4c0,2.8,0,4.4-0.1,4.9c0,0.4-0.1,0.7-0.2,0.8c-0.1,0.2-0.4,0.2-0.8,0.2c-0.2,0-0.4,0-0.6,0l-0.1-0.8
				c0.2,0,0.5,0.1,0.7,0.1c0.2,0,0.3-0.2,0.3-0.5c0-0.4,0.1-1.7,0.1-4h-0.8c0,0.9-0.1,1.8-0.3,2.4c-0.2,0.9-0.6,1.9-1.1,2.8L31,65.1
				v0.1c-0.7,0.1-1.9,0.2-3.6,0.4l-0.1-0.7c0.6,0,1.2,0,1.7-0.1v-0.7h-1.4v-0.5H29v-0.5h-1.4v-2.5H29v-0.4h-1.8v-0.6H29v-0.5
				c-0.4,0-0.9,0-1.4,0l-0.2-0.6c1.3,0,2.4-0.1,3.3-0.2L31.1,58.9z M29,61.7v-0.5h-0.8v0.5H29z M29,62.1h-0.8v0.5H29V62.1z
				 M29.6,61.7h0.9v-0.5h-0.9V61.7z M30.5,62.1h-0.9v0.5h0.9V62.1z"/>
			<path class="st3" d="M38.2,58.8v-0.7H39v0.7H42v0.7H39V60h2.5v3.2H39v0.6h3.1v0.7H39v1.1h-0.8v-1.1h-3.1v-0.7h3.1v-0.6h-2.5V60
				h2.5v-0.5h-3v-0.7H38.2z M38.2,61.3v-0.5h-1.8v0.5H38.2z M38.2,61.9h-1.8v0.7h1.8V61.9z M39,61.3h1.8v-0.5H39V61.3z M40.8,61.9
				H39v0.7h1.8V61.9z"/>
			<path class="st3" d="M43.2,59.9c0-0.4,0-0.8-0.1-1.2c0.3,0,0.5,0,0.8,0c0.3,0,0.5,0,0.8,0c0.4,0,0.8,0,1.2,0c0.3,0,0.6,0,0.7,0
				c0,0.1,0,0.2,0,0.4c0,0.1,0,0.2,0,0.2c0,0.1,0,0.1,0,0.2c-0.2,0-0.4,0-0.6,0c-0.2,0-0.4,0-0.6,0c-0.2,0-0.4,0-0.5,0
				c-0.2,0-0.3,0-0.3,0c0,0.3,0,0.7,0,1c0,0.3,0,0.7,0,1c0.4,0,0.7,0,1.1,0c0.3,0,0.6,0,1,0c0,0.1,0,0.2,0,0.2c0,0.1,0,0.1,0,0.2
				c0,0.1,0,0.1,0,0.2c0,0.1,0,0.1,0,0.2c-0.7-0.1-1.4-0.1-2.1-0.1c0,0.2,0,0.4,0,0.6c0,0.2,0,0.4,0,0.6c0,0.4,0,0.8,0,1.2
				c0.3,0,0.7,0,1,0c0.3,0,0.7-0.1,1-0.1c0,0.1,0,0.1,0,0.2c0,0.1,0,0.1,0,0.2c0,0.1,0,0.2,0,0.2c0,0.1,0,0.1,0,0.1
				c-0.2,0-0.4,0-0.6,0c-0.2,0-0.6,0-1,0c-0.4,0-0.7,0-0.9,0c-0.2,0-0.4,0-0.5,0c-0.1,0-0.2,0-0.3,0c-0.1,0-0.1,0-0.2,0
				c0-0.4,0-0.8,0.1-1.2c0-0.4,0-0.9,0-1.4v-1.3C43.2,60.8,43.2,60.3,43.2,59.9z"/>
			<path class="st3" d="M48.3,63.1c0,0.7-0.1,1.4-0.1,2.1c-0.1,0-0.1,0-0.2,0c-0.1,0-0.1,0-0.2,0c-0.1,0-0.1,0-0.2,0
				c-0.1,0-0.1,0-0.2,0c0.2-1.1,0.4-2.2,0.5-3.3c0.2-1.1,0.3-2.2,0.4-3.3c0.1,0,0.1,0,0.2,0c0.1,0,0.1,0,0.2,0c0.1,0,0.1,0,0.2,0
				c0.1,0,0.1,0,0.2,0c0.2,0.4,0.3,0.8,0.5,1.2c0.2,0.4,0.4,0.8,0.5,1.2c0.2,0.4,0.4,0.8,0.5,1.1c0.2,0.4,0.3,0.7,0.5,1.1
				c0.4-0.7,0.7-1.5,1.1-2.2c0.4-0.8,0.7-1.6,1-2.3c0.2,0,0.3,0,0.4,0c0.1,0,0.2,0,0.4,0c0.1,0.5,0.1,1.1,0.2,1.8
				c0.1,0.6,0.1,1.2,0.2,1.8c0.1,0.6,0.1,1.2,0.2,1.7c0.1,0.5,0.1,0.9,0.2,1.3c-0.1,0-0.2,0-0.4,0c-0.1,0-0.2,0-0.4,0
				c-0.1,0-0.2,0-0.4,0c-0.1,0-0.3,0-0.4,0c0-0.7-0.1-1.4-0.1-2.1c-0.1-0.8-0.1-1.5-0.2-2.3h0c-0.3,0.7-0.7,1.5-1,2.2
				c-0.3,0.7-0.7,1.5-1,2.2c0,0-0.1,0-0.1,0c0,0-0.1,0-0.1,0s-0.1,0-0.1,0c0,0-0.1,0-0.1,0c-0.3-0.7-0.6-1.4-1-2.1
				c-0.3-0.7-0.7-1.4-1-2.2h0C48.4,61.6,48.4,62.4,48.3,63.1z"/>
			<path class="st3" d="M57.4,59.1c-0.3,0-0.5,0.1-0.7,0.3c-0.2,0.2-0.3,0.4-0.3,0.6c0,0.2,0.1,0.4,0.2,0.6s0.3,0.3,0.5,0.4
				c0.2,0.1,0.4,0.2,0.7,0.3c0.2,0.1,0.5,0.2,0.7,0.4c0.2,0.2,0.4,0.4,0.5,0.6c0.1,0.2,0.2,0.5,0.2,0.9c0,0.3-0.1,0.6-0.2,0.9
				c-0.1,0.3-0.3,0.5-0.5,0.7c-0.2,0.2-0.5,0.3-0.8,0.4c-0.3,0.1-0.6,0.1-1,0.1c-0.3,0-0.6,0-0.9-0.1c-0.3-0.1-0.5-0.2-0.6-0.3
				c0.1-0.2,0.1-0.4,0.2-0.6c0-0.2,0.1-0.4,0.1-0.6h0.2c0,0.1,0.1,0.3,0.1,0.4c0.1,0.1,0.2,0.2,0.3,0.3c0.1,0.1,0.2,0.2,0.4,0.2
				c0.1,0.1,0.3,0.1,0.5,0.1c0.4,0,0.6-0.1,0.8-0.3c0.2-0.2,0.3-0.4,0.3-0.7c0-0.2-0.1-0.4-0.2-0.6c-0.1-0.2-0.3-0.3-0.5-0.4
				c-0.2-0.1-0.4-0.2-0.7-0.3c-0.2-0.1-0.5-0.2-0.7-0.4c-0.2-0.2-0.4-0.4-0.5-0.6c-0.1-0.2-0.2-0.5-0.2-0.9c0-0.3,0.1-0.6,0.2-0.9
				c0.1-0.3,0.3-0.5,0.4-0.6c0.2-0.2,0.4-0.3,0.6-0.4c0.2-0.1,0.5-0.1,0.8-0.1c0.3,0,0.6,0,0.9,0.1c0.2,0.1,0.5,0.2,0.6,0.3
				c-0.1,0.1-0.1,0.3-0.1,0.4c0,0.1-0.1,0.3-0.1,0.5h-0.1C58.3,59.4,58,59.1,57.4,59.1z"/>
			<path class="st3" d="M62.4,63.6c-0.5,0.7-1.2,1.3-2,1.8L60,64.7c0.7-0.4,1.4-1,1.9-1.6L62.4,63.6z M66.7,58.9
				c-0.9,0.2-2.1,0.4-3.4,0.4c-0.2,0.4-0.5,0.7-0.9,1.1c0.6,0,1.2-0.1,1.7-0.1c0.3-0.3,0.6-0.6,0.9-0.9l0.7,0.4c-1,1-2,1.9-2.9,2.5
				c1.1,0,2-0.1,2.8-0.2c-0.2-0.3-0.3-0.6-0.5-0.9l0.5-0.4c0.6,0.8,1,1.6,1.3,2.2l-0.7,0.5c-0.1-0.2-0.2-0.5-0.4-0.8
				c-0.5,0.1-1.2,0.1-1.9,0.2v1.9c0,0.3-0.1,0.5-0.2,0.6c-0.1,0.1-0.4,0.2-0.7,0.2h-0.7l-0.2-0.8c0.3,0,0.5,0.1,0.6,0.1
				c0.2,0,0.3-0.1,0.3-0.2v-1.7c-0.8,0-1.7,0.1-2.7,0.1l-0.2-0.7c0.5,0,1,0,1.4,0c0.6-0.4,1.2-0.8,1.8-1.3c-0.8,0.1-1.7,0.1-2.7,0.2
				l-0.1-0.7c0.3,0,0.6,0,0.9,0c0.4-0.3,0.8-0.7,1-1.1c-0.7,0-1.4,0-2.1,0l-0.2-0.7c2.4,0,4.5-0.2,6.2-0.5L66.7,58.9z M66.9,64.7
				l-0.5,0.6c-0.4-0.5-1.1-1.1-1.9-1.7L65,63C65.8,63.6,66.4,64.2,66.9,64.7z"/>
			<path class="st3" d="M69.5,58.4c-0.2,0.8-0.5,1.5-0.8,2c0.2,0,0.4-0.1,0.6-0.1c0.2-0.4,0.3-0.7,0.5-1.2l0.6,0.2
				c-0.5,1.2-1.1,2.3-1.6,3.1c0.4,0,0.7-0.1,1-0.2c-0.1-0.2-0.1-0.5-0.2-0.7l0.6-0.2c0.2,0.5,0.3,1.1,0.5,1.7L70,63.2
				c0-0.1-0.1-0.3-0.1-0.4c-0.5,0.2-1.2,0.3-2.1,0.4l-0.2-0.7c0.2,0,0.3,0,0.5,0c0.3-0.4,0.6-0.9,0.9-1.5c-0.4,0.1-0.8,0.2-1.3,0.3
				l-0.1-0.7c0.1,0,0.3,0,0.4,0c0.3-0.7,0.6-1.5,0.9-2.4L69.5,58.4z M68.4,63.5c0,0.8-0.1,1.5-0.2,2l-0.6-0.2
				c0.1-0.6,0.2-1.2,0.3-1.9L68.4,63.5z M69.5,65.2l-0.6,0.1c0-0.8,0-1.4-0.1-1.8l0.5-0.1C69.4,63.9,69.5,64.5,69.5,65.2z
				 M70.6,64.7L70,64.8c-0.1-0.5-0.2-0.9-0.3-1.4l0.5-0.2C70.3,63.7,70.5,64.1,70.6,64.7z M73,59h1.7v0.6h-2.2
				c-0.1,0.6-0.3,1.1-0.6,1.6c0.7,0,1.3-0.1,1.7-0.2c-0.1-0.2-0.2-0.4-0.3-0.6l0.5-0.4c0.4,0.7,0.7,1.2,1,1.7l-0.6,0.4
				c-0.1-0.2-0.2-0.4-0.3-0.6c-0.2,0-0.3,0.1-0.5,0.1v2.9c0,0.1,0.1,0.2,0.2,0.2h0.3c0.1,0,0.1,0,0.2-0.1c0-0.1,0.1-0.5,0.1-1.3
				l0.6,0.2c0,0.9-0.1,1.5-0.2,1.7c-0.1,0.2-0.3,0.3-0.5,0.3h-0.6c-0.2,0-0.4-0.1-0.5-0.2c-0.1-0.1-0.2-0.3-0.2-0.5v-3
				c-0.2,0-0.3,0-0.5,0.1c0,1-0.2,1.8-0.4,2.3c-0.2,0.6-0.6,1.1-1.2,1.5l-0.4-0.6c0.5-0.4,0.8-0.8,1-1.2c0.2-0.4,0.3-1,0.3-1.9
				C71.3,62,71,62,70.7,62l-0.2-0.7c0.2,0,0.4,0,0.6,0c0.3-0.5,0.5-1.1,0.7-1.6h-1.2V59h1.8c-0.1-0.2-0.2-0.4-0.4-0.7l0.7-0.3
				C72.7,58.4,72.9,58.7,73,59z"/>
			<path class="st3" d="M23.8,74.6c0,0.3,0,0.5,0.1,0.7c0,0.2,0.1,0.4,0.2,0.6c0.1,0.2,0.2,0.3,0.4,0.4c0.2,0.1,0.3,0.1,0.5,0.1
				c0.4,0,0.8-0.1,1.1-0.4l0.1,0.1l-0.2,0.5c-0.2,0.1-0.3,0.2-0.5,0.3C25.3,77,25,77,24.7,77c-0.3,0-0.6,0-0.8-0.1
				c-0.3-0.1-0.5-0.2-0.7-0.4c-0.2-0.2-0.4-0.4-0.5-0.7c-0.1-0.3-0.2-0.7-0.2-1.1c0-0.4,0.1-0.8,0.2-1.1c0.1-0.3,0.3-0.6,0.4-0.8
				c0.2-0.2,0.4-0.4,0.7-0.5c0.3-0.1,0.5-0.2,0.8-0.2c0.6,0,1.1,0.2,1.4,0.6c0.3,0.4,0.5,0.9,0.5,1.6v0.2c0,0.1,0,0.1,0,0.1H23.8z
				 M25.2,74.2c0-0.5-0.1-0.9-0.2-1.1c-0.1-0.3-0.3-0.4-0.5-0.4c-0.1,0-0.2,0-0.3,0.1c-0.1,0.1-0.2,0.2-0.2,0.4
				c-0.1,0.1-0.1,0.3-0.1,0.5c0,0.2,0,0.4,0,0.6H25.2z"/>
			<path class="st3" d="M27.3,71.3c0-0.5,0-1-0.1-1.6c0.1,0,0.2,0,0.3,0c0.1,0,0.2,0,0.4,0c0.1,0,0.3,0,0.4,0c0.1,0,0.2,0,0.3,0
				c0,0.5,0,1.1-0.1,1.6c0,0.5,0,1.1,0,1.7l0,0c0.2-0.3,0.3-0.5,0.6-0.6c0.2-0.1,0.5-0.2,0.8-0.2c0.5,0,0.8,0.1,1,0.4
				c0.2,0.3,0.4,0.7,0.4,1.3c0,0.3,0,0.6,0,0.9c0,0.2,0,0.5,0,0.7c0,0.2,0,0.4,0,0.7c0,0.2,0,0.5,0,0.7c-0.1,0-0.2,0-0.3,0
				c-0.1,0-0.2,0-0.4,0c-0.1,0-0.3,0-0.4,0c-0.1,0-0.2,0-0.3,0c0-0.3,0.1-0.7,0.1-1.2c0-0.4,0-1,0-1.5c0-0.4-0.1-0.7-0.2-0.9
				c-0.1-0.2-0.3-0.3-0.5-0.3c-0.3,0-0.5,0.1-0.6,0.4c-0.1,0.2-0.2,0.6-0.2,1v0.4c0,0.1,0,0.2,0,0.4c0,0.2,0,0.4,0,0.6
				c0,0.2,0,0.4,0,0.6c0,0.2,0,0.4,0,0.5c-0.1,0-0.2,0-0.3,0s-0.2,0-0.4,0c-0.1,0-0.3,0-0.4,0s-0.2,0-0.3,0c0-0.5,0-1,0.1-1.6
				c0-0.5,0-1.1,0-1.7V73C27.3,72.4,27.3,71.8,27.3,71.3z"/>
			<path class="st3" d="M32.1,74.7c0-0.4,0.1-0.8,0.2-1.1c0.1-0.3,0.3-0.6,0.5-0.8c0.2-0.2,0.4-0.4,0.7-0.5c0.3-0.1,0.5-0.2,0.8-0.2
				c0.7,0,1.3,0.2,1.6,0.6c0.4,0.4,0.6,1,0.6,1.7c0,0.4-0.1,0.7-0.2,1c-0.1,0.3-0.3,0.6-0.5,0.8c-0.2,0.2-0.4,0.4-0.7,0.5
				C34.9,77,34.6,77,34.3,77c-0.3,0-0.5,0-0.8-0.1c-0.3-0.1-0.5-0.2-0.7-0.4c-0.2-0.2-0.4-0.4-0.5-0.7
				C32.1,75.5,32.1,75.2,32.1,74.7z M35.2,74.4c0-0.6-0.1-1-0.2-1.3c-0.1-0.3-0.4-0.5-0.7-0.5c-0.3,0-0.5,0.2-0.7,0.5
				c-0.2,0.3-0.2,0.9-0.2,1.6c0,0.3,0,0.5,0,0.7c0,0.2,0.1,0.4,0.1,0.6c0.1,0.2,0.2,0.3,0.3,0.4c0.1,0.1,0.3,0.1,0.4,0.1
				C34.9,76.6,35.2,75.9,35.2,74.4z"/>
			<path class="st3" d="M38.5,73c0.2-0.3,0.4-0.5,0.6-0.6c0.2-0.1,0.5-0.2,0.8-0.2c0.3,0,0.5,0.1,0.7,0.2c0.2,0.2,0.3,0.4,0.5,0.7
				c0.2-0.3,0.4-0.5,0.6-0.7c0.2-0.2,0.5-0.2,0.8-0.2c0.5,0,0.8,0.1,1,0.4c0.2,0.3,0.4,0.7,0.4,1.3c0,0.3,0,0.6,0,0.9
				c0,0.2,0,0.5,0,0.7c0,0.2,0,0.4,0,0.7s0,0.5,0,0.7c-0.1,0-0.2,0-0.3,0c-0.1,0-0.2,0-0.4,0c-0.1,0-0.3,0-0.4,0s-0.2,0-0.3,0
				c0-0.3,0.1-0.7,0.1-1.2c0-0.4,0-1,0-1.5c0-0.4-0.1-0.7-0.2-0.9c-0.1-0.2-0.3-0.3-0.5-0.3c-0.1,0-0.3,0-0.4,0.1
				c-0.1,0.1-0.2,0.2-0.2,0.3c-0.1,0.1-0.1,0.2-0.1,0.4c0,0.1,0,0.2,0,0.4v0.7c0,0.4,0,0.8,0,1.1c0,0.3,0,0.7,0.1,1
				c-0.1,0-0.2,0-0.3,0c-0.1,0-0.2,0-0.4,0c-0.1,0-0.3,0-0.4,0c-0.1,0-0.2,0-0.3,0c0-0.3,0-0.6,0.1-1c0-0.3,0-0.7,0-1.1v-0.6
				c0-0.4,0-0.7-0.1-0.9c-0.1-0.2-0.3-0.3-0.5-0.3c-0.3,0-0.5,0.1-0.6,0.4c-0.1,0.2-0.2,0.6-0.2,1v0.4c0,0.4,0,0.8,0,1.1
				c0,0.3,0,0.7,0.1,1c-0.1,0-0.2,0-0.3,0c-0.1,0-0.2,0-0.4,0c-0.1,0-0.3,0-0.4,0c-0.1,0-0.2,0-0.3,0c0-0.3,0-0.6,0.1-1
				c0-0.3,0-0.7,0-1.1v-0.4c0-0.4,0-0.8,0-1.1c0-0.3,0-0.7-0.1-1c0.1,0,0.2,0,0.3,0c0.1,0,0.2,0,0.3,0c0.1,0,0.2,0,0.3,0
				c0.1,0,0.2,0,0.3,0L38.5,73L38.5,73z"/>
			<path class="st3" d="M46,74.6c0,0.3,0,0.5,0.1,0.7c0,0.2,0.1,0.4,0.2,0.6c0.1,0.2,0.2,0.3,0.4,0.4c0.2,0.1,0.3,0.1,0.5,0.1
				c0.4,0,0.8-0.1,1.1-0.4l0.1,0.1l-0.2,0.5c-0.2,0.1-0.3,0.2-0.5,0.3C47.4,77,47.2,77,46.8,77c-0.3,0-0.6,0-0.8-0.1
				c-0.3-0.1-0.5-0.2-0.7-0.4c-0.2-0.2-0.4-0.4-0.5-0.7c-0.1-0.3-0.2-0.7-0.2-1.1c0-0.4,0.1-0.8,0.2-1.1c0.1-0.3,0.3-0.6,0.4-0.8
				c0.2-0.2,0.4-0.4,0.7-0.5c0.3-0.1,0.5-0.2,0.8-0.2c0.6,0,1.1,0.2,1.4,0.6c0.3,0.4,0.5,0.9,0.5,1.6v0.2c0,0.1,0,0.1,0,0.1H46z
				 M47.4,74.2c0-0.5-0.1-0.9-0.2-1.1c-0.1-0.3-0.3-0.4-0.5-0.4c-0.1,0-0.2,0-0.3,0.1c-0.1,0.1-0.2,0.2-0.2,0.4
				c-0.1,0.1-0.1,0.3-0.1,0.5c0,0.2,0,0.4,0,0.6H47.4z"/>
			<path class="st3" d="M50.1,71.4l-0.6,0.3c-0.1-0.5-0.2-0.9-0.4-1.2l0.5-0.2C49.8,70.6,49.9,71,50.1,71.4z M50.8,69.9v1.9h0.5
				v-1.9H52v1.9h0.9v0.7h-0.6L52,73.4h0.7v0.7h-1.3v0.7h1.3v0.6h-1.3v0.9c0.5-0.1,1-0.1,1.4-0.2v0.6c-0.7,0.2-1.9,0.4-3.5,0.5
				l-0.1-0.8c0.5,0,1,0,1.5-0.1v-0.9h-1.3v-0.6h1.3v-0.7h-1.3v-0.7H50l-0.3-0.9h-0.5v-0.7h1v-1.9H50.8z M51.4,73.4l0.3-0.9h-1.2
				l0.3,0.9H51.4z M53.1,70.4c-0.2,0.5-0.4,0.9-0.6,1.2L52,71.2c0.2-0.3,0.4-0.7,0.6-1.1L53.1,70.4z M54.5,75l-0.7,0.3
				c-0.2-0.7-0.5-1.4-0.8-2l0.7-0.2C54,73.7,54.2,74.4,54.5,75z M54.8,71.6v-1.7h0.8v1.7h0.7v0.7h-0.7v4.2c0,0.3-0.1,0.5-0.2,0.6
				c-0.1,0.1-0.3,0.2-0.7,0.2h-1.1l-0.2-0.8c0.4,0,0.8,0.1,1.1,0.1c0.2,0,0.3-0.1,0.3-0.2v-4.1H53v-0.7H54.8z"/>
			<path class="st3" d="M58.6,70.8h1v0.7h-2.7v-0.7h0.9c0-0.3-0.1-0.6-0.2-0.8l0.7-0.1C58.5,70.1,58.5,70.4,58.6,70.8z M57.8,77.3
				h-0.7v-2.9h2.1v2.7h-0.7v-0.4h-0.7V77.3z M59.2,72v0.6h-2.1V72H59.2z M59.2,73.1v0.6h-2.1v-0.6H59.2z M58.6,75h-0.7v1h0.7V75z
				 M60.5,70.4v-0.5h0.6v0.5h1v-0.5h0.6v0.5h1v0.6h-1v0.4h0.9v0.5h-0.9v0.4h1.2V73H62v0.4h1.6v2.1H64V76h-0.5v0.5
				c0,0.2-0.1,0.4-0.2,0.6c-0.1,0.1-0.2,0.2-0.4,0.2h-0.9l-0.2-0.7l0.8,0c0.1,0,0.2-0.1,0.2-0.3V76h-2.5v1.3h-0.6V76h-0.5v-0.6h0.5
				v-2.1h1.5V73h-1.8v-0.6h1v-0.4h-0.8v-0.5h0.8v-0.4h-0.8v-0.6H60.5z M61.3,74.4v-0.5h-0.9v0.5H61.3z M61.3,75.4v-0.5h-0.9v0.5
				H61.3z M62.1,70.9h-1v0.4h1V70.9z M62.1,72.4v-0.4h-1v0.4H62.1z M62,74.4h0.9v-0.5H62V74.4z M62.9,75.4v-0.5H62v0.5H62.9z"/>
			<path class="st3" d="M65.5,71.4v-1.5h0.7v1.5h0.6v0.7h-0.6v0.4c0.3,0.4,0.6,0.8,0.8,1.2l-0.1,0.2h0.7c0-0.2,0-0.4,0-0.6
				c-0.2,0-0.3,0-0.5,0.1l-0.1-0.6c0.1,0,0.2,0,0.3,0c0.2-0.2,0.3-0.5,0.5-0.9c-0.3,0.1-0.5,0.1-0.8,0.2l-0.1-0.5c0.1,0,0.2,0,0.3,0
				c0.2-0.5,0.4-1,0.6-1.5l0.6,0.1c-0.1,0.5-0.3,1-0.5,1.4c0.1,0,0.2,0,0.3-0.1c0.1-0.2,0.2-0.4,0.3-0.6l0.5,0.2
				c-0.3,0.8-0.7,1.4-1,1.9c0.2,0,0.4,0,0.5,0c0-0.2-0.1-0.3-0.1-0.5l0.4-0.1c0.2,0.4,0.3,0.8,0.4,1.2l-0.5,0.2c0-0.1,0-0.2-0.1-0.4
				c-0.1,0-0.2,0-0.3,0c0,0.2,0,0.5,0,0.7h1c-0.1-0.8-0.2-2.2-0.2-4h0.6c0,1.9,0.1,3.3,0.2,4h0.7c-0.1-0.2-0.1-0.3-0.2-0.5
				c-0.1,0-0.3,0-0.4,0l-0.1-0.6c0.1,0,0.2,0,0.3,0c0.2-0.3,0.3-0.6,0.5-1C70.3,72,70,72,69.7,72.1l-0.1-0.5c0.1,0,0.2,0,0.3,0
				c0.2-0.5,0.4-1,0.5-1.5l0.5,0.1c-0.1,0.5-0.3,1-0.4,1.4c0.1,0,0.2,0,0.3-0.1c0.1-0.2,0.1-0.4,0.2-0.5l0.5,0.2
				c-0.3,0.7-0.6,1.3-0.9,1.8c0.2,0,0.3-0.1,0.5-0.1c0-0.1-0.1-0.3-0.1-0.4l0.4-0.1c0.2,0.4,0.3,0.8,0.4,1.2l-0.5,0.2
				c0-0.1,0-0.2-0.1-0.4c-0.1,0-0.2,0.1-0.4,0.1c0.1,0.2,0.1,0.4,0.2,0.6h0.7v0.6h-1.9c0.1,0.4,0.2,0.7,0.2,0.9
				c0.2-0.2,0.3-0.5,0.5-0.7l0.5,0.3c-0.2,0.4-0.5,0.8-0.8,1.1c0.2,0.4,0.5,0.6,0.6,0.6c0,0,0.1,0,0.1-0.1c0-0.1,0.1-0.4,0.1-1.1
				l0.6,0.4c-0.1,0.6-0.2,1-0.3,1.2c-0.1,0.2-0.3,0.2-0.5,0.2c-0.3,0-0.7-0.3-1.1-0.9c0,0,0,0,0,0c-0.4,0.3-0.8,0.6-1.4,0.8
				l-0.3-0.5c0.6-0.2,1-0.5,1.4-0.8c0,0,0,0,0.1-0.1c-0.2-0.4-0.3-0.8-0.4-1.4h-1.2c0,0.1,0,0.2,0,0.3c0.4,0.3,0.7,0.5,1,0.8
				l-0.4,0.6c-0.3-0.3-0.5-0.6-0.8-0.8c-0.1,0.4-0.2,0.8-0.4,1c-0.2,0.3-0.4,0.6-0.7,0.9l-0.5-0.6c0.3-0.3,0.6-0.6,0.7-0.9
				c0.1-0.2,0.2-0.6,0.3-1.2c0-0.1,0-0.1,0-0.2h-0.8v-0.4l-0.1,0.2c-0.2-0.4-0.3-0.7-0.4-0.9v3.9h-0.7v-3.5c-0.2,0.5-0.4,1-0.6,1.4
				l-0.3-0.8c0.4-0.6,0.7-1.4,0.9-2.2v-0.2h-0.8v-0.7H65.5z"/>
		</g>
	</g>
	<g>
		<path class="st3" d="M24.5,85.5c-0.3-0.3-0.5-0.8-0.6-1.2c-0.2-0.5-0.2-0.9-0.2-1.4c0-0.4,0.1-0.9,0.2-1.4
			c0.1-0.5,0.4-0.9,0.6-1.2h0.4c-0.6,1-0.8,1.8-0.8,2.6c0,0.8,0.3,1.6,0.8,2.6H24.5z"/>
		<path class="st3" d="M26,83.9c0,0.5-0.1,1-0.2,1.4l-0.5-0.2c0.1-0.4,0.2-0.8,0.3-1.2L26,83.9z M26.8,80.3
			c-0.2,0.5-0.4,0.9-0.6,1.3c0.2,0,0.3,0,0.5-0.1c0.1-0.2,0.2-0.5,0.3-0.8l0.4,0.2c-0.4,0.9-0.8,1.6-1.2,2.2c0.3,0,0.5-0.1,0.7-0.1
			c0-0.2-0.1-0.4-0.2-0.6l0.4-0.1c0.1,0.4,0.2,0.8,0.3,1.2l-0.4,0.1c0-0.1,0-0.1,0-0.2c-0.4,0.1-0.9,0.2-1.5,0.2l-0.1-0.5
			c0.1,0,0.2,0,0.3,0c0.2-0.3,0.5-0.7,0.7-1.2c-0.3,0-0.6,0.1-1,0.2l-0.1-0.5c0.1,0,0.2,0,0.3,0c0.2-0.5,0.5-1,0.6-1.5L26.8,80.3z
			 M26.7,85.1l-0.4,0c0-0.5,0-0.9-0.1-1.2l0.4,0C26.6,84.2,26.7,84.6,26.7,85.1z M27.5,84.8l-0.4,0.2c-0.1-0.4-0.1-0.7-0.2-1.1
			l0.4-0.1C27.3,84.1,27.4,84.5,27.5,84.8z M28.7,80.9v-0.7h0.5v0.7h1.1v0.5h-1.1v0.7h1v0.5h-2.4v-0.5h1v-0.7h-1.1v-0.5H28.7z
			 M30.1,85.3h-0.5v-0.3h-1.4v0.3h-0.5V83h2.3V85.3z M29.6,84.6v-1.1h-1.4v1.1H29.6z"/>
		<path class="st3" d="M33.4,80.2c0.3,0.4,0.6,0.7,1,0.9c0.2,0.2,0.6,0.4,1.2,0.6l-0.3,0.5c-0.2-0.1-0.5-0.2-0.7-0.3v0.4h-2.9V82
			c-0.2,0.1-0.5,0.3-0.8,0.4l-0.3-0.5c0.6-0.3,1.1-0.5,1.4-0.8c0.3-0.2,0.5-0.5,0.8-0.9h0.2H33.4z M35,85.3h-0.5V85H32v0.3h-0.5
			v-2.4H35V85.3z M34.5,84.5v-1.1H32v1.1H34.5z M34.4,81.8c-0.4-0.3-0.8-0.6-1.2-1.1c-0.3,0.4-0.6,0.7-0.9,0.9
			c-0.1,0.1-0.2,0.1-0.3,0.2H34.4z"/>
		<path class="st3" d="M37.4,81h0.7v0.5c-0.2,0.4-0.4,0.8-0.6,1.1c0.3,0.2,0.6,0.5,0.9,0.7l-0.3,0.5c-0.2-0.3-0.5-0.5-0.7-0.7v2.2
			h-0.5v-2c-0.2,0.2-0.5,0.4-0.7,0.7l-0.2-0.6c0.4-0.3,0.7-0.5,0.9-0.8c0.2-0.2,0.4-0.6,0.7-1.1h-1.5V81h0.9
			c-0.1-0.3-0.2-0.5-0.3-0.8l0.5-0.1C37.3,80.4,37.3,80.7,37.4,81z M39.3,81.5v-1.3h0.5v1.3h1.1v0.5h-1.1v2.6H41v0.5h-3v-0.5h1.3
			v-2.6h-1v-0.5H39.3z"/>
		<path class="st3" d="M46.1,80.8h-3.9v3.8h3.9v0.5h-3.9v0.2h-0.5v-5h4.4V80.8z M43.9,82.8v1.5h-1.6v-1.5H43.9z M43.5,83.3h-0.7v0.6
			h0.7V83.3z M45.4,81.2v1.3h-2.5v-1.3H45.4z M44.9,81.6h-1.6v0.5h1.6V81.6z M46,82.8v1.5h-1.6v-1.5H46z M45.6,83.3h-0.8v0.6h0.8
			V83.3z"/>
		<path class="st3" d="M51.2,84.7h0.4v0.5h-4.9v-0.5h0.4v-1.4h4V84.7z M49.4,80.8h-0.9v0.3h0.7v1.1h-0.7v0.4h0.9v0.4H47v-2.7h2.4
			V80.8z M48,80.8h-0.6v0.3H48V80.8z M48.7,81.9v-0.3h-1.3v0.3H48.7z M48,82.3h-0.6v0.4H48V82.3z M48.3,84.7v-0.9h-0.7v0.9H48.3z
			 M49.5,84.7v-0.9h-0.7v0.9H49.5z M50.4,80.3c-0.1,0.2-0.1,0.4-0.2,0.6h1.3v0.5H50c-0.1,0.2-0.2,0.4-0.4,0.7l-0.4-0.4
			c0.2-0.2,0.4-0.5,0.5-0.7c0.1-0.2,0.2-0.5,0.3-0.8L50.4,80.3z M50.7,84.7v-0.9h-0.7v0.9H50.7z M51,82.8l-0.4,0.3
			c-0.2-0.3-0.4-0.7-0.6-1.1l0.4-0.2C50.6,82.1,50.9,82.5,51,82.8z"/>
		<path class="st3" d="M52.6,81.2v-1h0.5v1h0.5v0.5h-0.5v1c0.2-0.1,0.3-0.2,0.5-0.3v0.5c-0.2,0.1-0.3,0.2-0.5,0.3v1.5
			c0,0.2,0,0.3-0.1,0.4c-0.1,0.1-0.2,0.1-0.4,0.1h-0.4l-0.1-0.5c0.1,0,0.3,0,0.4,0c0.1,0,0.2,0,0.2-0.1v-1.2
			c-0.2,0.1-0.4,0.2-0.6,0.2L52,83.1c0.2,0,0.4-0.1,0.6-0.2v-1.3H52v-0.5H52.6z M56.6,83.3v0.5h-1.2v0.9h1.4v0.5h-3.3v-0.5h1.4v-0.9
			h-1.2v-0.5H56.6z M55.1,81.5c-0.1,0.4-0.2,0.8-0.4,1c-0.1,0.2-0.4,0.4-0.8,0.6l-0.2-0.4c0.3-0.1,0.6-0.3,0.7-0.5
			c0.1-0.2,0.2-0.4,0.3-0.8L55.1,81.5z M55.5,80.7h1.3v1.1h-0.5v-0.6h-2.1v0.6h-0.5v-1.1H55c-0.1-0.2-0.1-0.3-0.2-0.5l0.5-0.1
			C55.4,80.3,55.5,80.5,55.5,80.7z M55.9,81.5v0.7c0,0.1,0.1,0.2,0.2,0.2h0.8v0.5h-0.9c-0.2,0-0.3,0-0.4-0.1
			c-0.1-0.1-0.1-0.2-0.1-0.4v-0.9H55.9z"/>
		<path class="st3" d="M59.1,83.9c-0.4,0.5-0.8,0.9-1.4,1.2l-0.3-0.5c0.5-0.3,0.9-0.7,1.3-1.1L59.1,83.9z M62,80.7
			c-0.6,0.1-1.4,0.2-2.3,0.3c-0.1,0.2-0.3,0.5-0.6,0.8c0.4,0,0.8,0,1.2-0.1c0.2-0.2,0.4-0.4,0.6-0.6l0.5,0.2c-0.7,0.7-1.4,1.3-2,1.7
			c0.8,0,1.4-0.1,1.9-0.1c-0.1-0.2-0.2-0.4-0.4-0.6l0.4-0.2c0.4,0.6,0.7,1.1,0.9,1.5l-0.5,0.3c-0.1-0.2-0.2-0.3-0.3-0.5
			c-0.4,0.1-0.8,0.1-1.3,0.1v1.3c0,0.2,0,0.4-0.1,0.4c-0.1,0.1-0.2,0.1-0.5,0.1H59l-0.1-0.6c0.2,0,0.3,0,0.4,0c0.1,0,0.2,0,0.2-0.1
			v-1.2c-0.5,0-1.2,0.1-1.8,0.1l-0.1-0.5c0.3,0,0.7,0,1,0c0.4-0.3,0.8-0.6,1.2-0.9c-0.6,0.1-1.2,0.1-1.9,0.1l-0.1-0.5
			c0.2,0,0.4,0,0.6,0c0.3-0.2,0.5-0.5,0.7-0.8c-0.5,0-0.9,0-1.5,0l-0.1-0.5c1.7,0,3.1-0.1,4.3-0.3L62,80.7z M62.2,84.7l-0.4,0.4
			c-0.3-0.4-0.7-0.8-1.3-1.2l0.4-0.4C61.4,83.9,61.8,84.3,62.2,84.7z"/>
		<path class="st3" d="M64,80.3c-0.2,0.5-0.4,1-0.6,1.4c0.1,0,0.3,0,0.4-0.1c0.1-0.2,0.2-0.5,0.3-0.8l0.4,0.2
			c-0.4,0.9-0.7,1.6-1.1,2.1c0.3,0,0.5-0.1,0.7-0.1c0-0.2-0.1-0.3-0.1-0.5l0.4-0.1c0.1,0.3,0.2,0.7,0.3,1.2l-0.4,0.1
			c0-0.1,0-0.2-0.1-0.3c-0.3,0.1-0.8,0.2-1.5,0.3l-0.1-0.5c0.1,0,0.2,0,0.3,0c0.2-0.3,0.4-0.6,0.6-1c-0.3,0.1-0.6,0.1-0.9,0.2
			l-0.1-0.5c0.1,0,0.2,0,0.3,0c0.2-0.5,0.4-1,0.6-1.6L64,80.3z M63.2,83.9c0,0.6-0.1,1-0.2,1.4l-0.4-0.1c0.1-0.4,0.2-0.8,0.2-1.3
			L63.2,83.9z M64,85l-0.4,0c0-0.5,0-0.9-0.1-1.2l0.4,0C63.9,84.1,63.9,84.5,64,85z M64.7,84.7l-0.4,0.1c-0.1-0.3-0.1-0.6-0.2-1
			l0.4-0.1C64.5,84,64.6,84.3,64.7,84.7z M66.4,80.8h1.1v0.4H66c-0.1,0.4-0.2,0.7-0.4,1.1c0.5,0,0.9-0.1,1.2-0.2
			c-0.1-0.1-0.1-0.3-0.2-0.4l0.4-0.2c0.3,0.5,0.5,0.9,0.7,1.2L67.1,83c-0.1-0.1-0.1-0.3-0.2-0.4c-0.1,0-0.2,0-0.3,0.1v2
			c0,0.1,0.1,0.2,0.2,0.2H67c0,0,0.1,0,0.1-0.1c0-0.1,0-0.4,0.1-0.9l0.4,0.1c0,0.6-0.1,1-0.2,1.1c-0.1,0.1-0.2,0.2-0.4,0.2h-0.4
			c-0.1,0-0.3,0-0.3-0.1c-0.1-0.1-0.1-0.2-0.1-0.3v-2c-0.1,0-0.2,0-0.3,0c0,0.7-0.1,1.2-0.3,1.6c-0.2,0.4-0.4,0.7-0.8,1l-0.3-0.4
			c0.3-0.2,0.6-0.5,0.7-0.8c0.1-0.3,0.2-0.7,0.2-1.3c-0.2,0-0.4,0-0.6,0l-0.1-0.5c0.1,0,0.3,0,0.4,0c0.2-0.4,0.4-0.7,0.5-1.1h-0.8
			v-0.4h1.2c-0.1-0.1-0.2-0.3-0.3-0.5l0.5-0.2C66.2,80.3,66.3,80.5,66.4,80.8z"/>
		<path class="st3" d="M70.8,84.2c-0.2,0.5-0.4,0.9-0.6,1.2h-0.4c0.6-1,0.8-1.8,0.8-2.6c0-0.8-0.3-1.6-0.8-2.6h0.4
			c0.2,0.3,0.4,0.8,0.6,1.2c0.1,0.5,0.2,0.9,0.2,1.4C71.1,83.3,71,83.7,70.8,84.2z"/>
	</g>
	<g>
		<path class="st3" d="M24.1,45.2c-0.4,0.7-0.8,1.4-1.2,2c-0.2,0.2-0.3,0.4-0.5,0.6c1,0,2.2-0.1,3.5-0.1c-0.4-0.4-0.8-0.8-1.2-1.2
			l0.9-0.6c1,0.9,1.8,1.8,2.6,2.9l-1,0.8c-0.2-0.3-0.3-0.5-0.5-0.8c-2.2,0.2-4.4,0.4-6.5,0.4l-0.1-1.3c0.3,0,0.5,0,0.7,0
			c0.3-0.2,0.6-0.5,0.8-0.8c0.4-0.5,0.8-1.2,1.2-2L24.1,45.2z M27.4,53.6h-1.2v-0.5H22v0.5h-1.2v-4h6.6V53.6z M26.2,52v-1.3H22V52
			H26.2z"/>
		<path class="st3" d="M31,49.7c-0.1,1.3-0.4,2.5-0.9,3.7L29,53c0.5-1.1,0.8-2.2,1-3.5L31,49.7z M30.8,48.4L30,49
			c-0.2-0.4-0.5-0.8-1-1.3l0.8-0.5C30.2,47.6,30.5,48,30.8,48.4z M30.9,46l-0.8,0.6c-0.2-0.4-0.5-0.8-0.8-1.2L30,45
			C30.3,45.3,30.6,45.6,30.9,46z M31.5,48.5c0,0.3-0.1,0.7-0.2,1l-0.7-0.1c0.1-0.3,0.2-0.6,0.3-1L31.5,48.5z M34.5,45.3h0.6v0.6
			h-2.1c-0.3,0.6-0.7,1.2-1,1.6c0.1,0,0.2,0,0.4-0.1c0-0.1,0-0.1,0-0.2l0.5-0.2c0.1,0.2,0.1,0.4,0.2,0.7h1.7l0-0.2
			c0.1,0,0.2,0,0.3,0c0.3-0.2,0.6-0.5,0.8-0.8c-0.3,0-0.7,0-1,0l0-0.1h-1.8v-0.6h1.9v0h0.2c0.2-0.3,0.4-0.8,0.6-1.3l0.9,0.3
			c-0.2,0.4-0.4,0.8-0.6,1c0.1,0,0.3,0,0.4,0c0.1-0.2,0.2-0.4,0.3-0.6l0.8,0.3c-0.5,0.7-0.9,1.3-1.4,1.7c0.2,0,0.3,0,0.5-0.1
			c0-0.1-0.1-0.2-0.1-0.3l0.6-0.2c0.1,0.3,0.2,0.6,0.4,1.1l-0.4,0.1c0.1,0.3,0.3,0.6,0.4,1l-0.7,0.3c-0.1-0.5-0.2-0.9-0.4-1.2
			l0.3-0.1c0-0.1,0-0.1,0-0.2c-0.6,0.1-1.2,0.2-1.8,0.3v0.8c0.1-0.2,0.1-0.4,0.1-0.7l0.6,0c0,0.3-0.1,0.7-0.2,1.1l-0.7-0.1
			c0,0,0-0.1,0-0.1H33v-0.1l-0.5,0.2c-0.1-0.5-0.2-0.9-0.3-1.2l0.3-0.1c0-0.1,0-0.1,0-0.2c-0.5,0.1-1,0.2-1.6,0.3l-0.1-0.8
			c0.1,0,0.2,0,0.3,0c0.2-0.2,0.4-0.5,0.6-0.7c-0.3,0-0.6,0-0.9,0.1l0-0.7H31c0.2-0.4,0.4-0.8,0.5-1.3l0.9,0.3
			c-0.2,0.5-0.4,0.8-0.6,1.1h0.3c0.1-0.2,0.2-0.4,0.3-0.7l0.5,0.2v-0.4h0.7c0-0.2-0.1-0.3-0.1-0.4l1-0.1
			C34.5,45,34.5,45.1,34.5,45.3z M36.9,49.7v1.6h-4.5l-0.1,0.3h5c-0.1,1-0.2,1.5-0.4,1.7c-0.1,0.1-0.3,0.2-0.6,0.2h-2.4l-0.1-0.9
			c1.1,0,1.8,0.1,2,0.1c0.1,0,0.2-0.1,0.2-0.2c0,0,0-0.1,0-0.2h-5l0.5-1.7h4.4v-0.3h-4.6v-0.7H36.9z M32.3,49.5l-0.7,0
			c0-0.5,0-0.9-0.1-1.2l0.6,0C32.2,48.7,32.3,49.1,32.3,49.5z M33,48.8v-0.7l-0.2,0.1C32.8,48.4,32.9,48.6,33,48.8z M34.9,46.9v0.6
			h-1.9v-0.6H34.9z M34.2,48.3h-0.4v0.6h0.4V48.3z M36.6,49.5l-0.7,0c0-0.5,0-0.9-0.1-1.2l0.6,0C36.5,48.8,36.6,49.1,36.6,49.5z"/>
		<path class="st3" d="M45.7,49.1v3.3h-1.1c0.6,0.1,1.2,0.2,1.9,0.3l-0.2,0.9c-1-0.3-2.1-0.5-3.1-0.6l0.2-0.6h-1.8l0.2,0.6
			c-0.8,0.3-1.8,0.5-3,0.6l-0.3-0.9c0.7,0,1.5-0.1,2.3-0.2h-1.5v-3.3H45.7z M43.3,45.4h3.2v1.3h-0.2V47h-1.3v0.3h1.6v0.6h-1.6v0.4
			h0.5V48h1v0.9h-4V48h1v0.3h0.5v-0.4h-1.6v-0.6h0.5l-0.5-0.5c0.4-0.2,0.6-0.4,0.7-0.7h-3.3v0.3h2.5v0.7H41v0.2h1v0.6h-1v0.3
			c0.4,0,0.7,0,1.1,0l0.1,0.7c-1,0.1-2.2,0.2-3.4,0.2l-0.1-0.8c0.5,0,0.9,0,1.3,0v-0.3h-1.1v-0.6H40v-0.2h-1.2v-0.4h-0.2v-1.3h3.4
			c-0.1-0.2-0.1-0.3-0.2-0.4l1.4-0.1C43.2,45,43.2,45.2,43.3,45.4z M44.6,50v-0.3h-4.1V50H44.6z M44.6,50.9v-0.3h-4.1v0.3H44.6z
			 M44.6,51.4h-4.1v0.3h4.1V51.4z M43.9,47h-0.6c-0.1,0.1-0.2,0.2-0.3,0.3h0.9V47z M45.4,46.4v-0.3h-1.6c0,0.1-0.1,0.2-0.1,0.3H45.4
			z"/>
		<path class="st3" d="M50.7,45.5h1.4v0.9H51v0.6h1.2v2.3h-3.3c0,1.5-0.2,2.9-0.5,4l-0.9-0.7c0.3-0.9,0.4-2.1,0.4-3.6v-3.6h1.7
			c-0.1-0.2-0.2-0.4-0.3-0.6l1.1-0.1C50.6,45,50.7,45.3,50.7,45.5z M49.9,52.2c0.1,0,0.3-0.1,0.4-0.1v0.9c-0.4,0.2-1,0.3-1.5,0.4
			l-0.1-0.9c0.1,0,0.3,0,0.4,0v-2.8h0.8v0.7h0.4v0.9h-0.4V52.2z M49.2,46.4h-0.4v0.6h0.4V46.4z M49.2,48.6v-0.8h-0.4v0.8H49.2z
			 M50.3,46.4h-0.4v0.6h0.4V46.4z M49.9,48.6h0.4v-0.8h-0.4V48.6z M52.1,50.8c-0.3,0.2-0.6,0.3-0.9,0.4v0.9c0,0.2,0,0.2,0.1,0.2h0.1
			c0.1,0,0.1-0.1,0.1-0.3c0,0,0-0.1,0-0.4l0.7,0.2c0,0.2,0,0.4-0.1,0.6c0.3-0.3,0.6-0.6,0.8-1l0.8,0.5c-0.4,0.6-0.8,1.2-1.2,1.6
			L52,53c0,0,0,0,0,0c-0.1,0.1-0.2,0.1-0.4,0.1h-0.5c-0.2,0-0.4-0.1-0.5-0.2c-0.1-0.1-0.1-0.3-0.1-0.6v-2.8h0.8v0.7
			c0.2-0.1,0.4-0.2,0.5-0.4L52.1,50.8z M51,48.6h0.4v-0.8H51V48.6z M52.6,45.7v-0.9h0.9v0.9h1v-0.9h0.9v0.9h0.4v1h-0.4v3.6h0.5v1
			h-3.7v-1h0.4v-3.6h-0.4v-1H52.6z M54.5,47.3v-0.6h-1v0.6H54.5z M54.5,48.7v-0.6h-1v0.6H54.5z M54.5,50.3v-0.7h-1v0.7H54.5z
			 M55.9,52.8l-0.9,0.7c-0.2-0.5-0.6-1-1-1.6l0.8-0.6C55.2,51.8,55.6,52.3,55.9,52.8z"/>
		<path class="st3" d="M59.7,45.5c-0.1,0.5-0.3,1-0.4,1.4h1.5v-2.1h1.2v2.1h2.6V48h-2.6v1.5h2.3v1.1h-2.3v1.6h3v1.1h-7.8v-1.1h3.6
			v-1.6h-2.5v-1.1h2.5V48h-2c-0.3,0.7-0.7,1.3-1.1,1.9L57,48.7c0.7-0.9,1.1-2,1.4-3.5L59.7,45.5z"/>
		<path class="st3" d="M68.7,50c-0.3,1.2-0.8,2.4-1.4,3.5l-1.2-0.7c0.7-1.1,1.2-2.1,1.5-3.2L68.7,50z M68.5,48.3l-0.9,1
			c-0.4-0.5-1-0.9-1.6-1.4l0.8-0.8C67.4,47.4,68,47.9,68.5,48.3z M68.9,46.1L68.1,47c-0.5-0.5-1-0.9-1.6-1.4l0.7-0.8
			C67.8,45.2,68.4,45.6,68.9,46.1z M74,46c-0.6,0.1-1.3,0.2-2,0.3v1.2h2.4v1.1H72v1.2h1.9v3.9h-1.1v-0.5h-2.6v0.5H69v-3.9h1.8v-1.2
			h-2.2v-1.1h2.2v-1c-0.5,0.1-1.1,0.1-1.7,0.2l-0.4-1.2c1.7-0.1,3.3-0.2,4.8-0.4L74,46z M72.7,52.1v-1.4h-2.6v1.4H72.7z"/>
	</g>
	<g>
		<g>
			<path class="st3" d="M97.6,58.5c-0.1,0.1-0.1,0.3-0.2,0.4h2.1v0.6h-1.2c0,0.2,0,0.5-0.1,0.7h1.4v0.7h-1.4c0.5,0.3,1,0.6,1.4,0.9
				L99,62.3c-0.3-0.3-0.7-0.6-1.2-0.9c0,0,0,0,0,0c-0.2,0.3-0.5,0.7-1,1h5.4v3.5h-0.8v-0.4h-4v0.4h-0.8v-3.4
				c-0.2,0.1-0.3,0.2-0.5,0.3l-0.4-0.6c0.7-0.3,1.1-0.6,1.4-0.9c0.1-0.1,0.1-0.2,0.2-0.3h-1.5v-0.7h1.7c0-0.2,0.1-0.4,0.1-0.7h-0.6
				c-0.2,0.2-0.3,0.3-0.6,0.5l-0.5-0.5c0.3-0.2,0.5-0.4,0.7-0.6c0.2-0.2,0.3-0.4,0.4-0.7L97.6,58.5z M101.5,63.6V63h-4v0.6H101.5z
				 M101.5,64.8v-0.6h-4v0.6H101.5z M102.6,58.9v2.9h-2.8v-2.9H102.6z M101.9,59.5h-1.4v1.7h1.4V59.5z"/>
			<path class="st3" d="M105.5,58.8c-0.1,0.4-0.2,0.7-0.3,1h1.6v-1.5h0.8v1.5h2.8v0.7h-2.8v1.7h2.5V63h-2.5v1.9h3v0.7h-7v-0.7h3.2
				V63h-2.4v-0.7h2.4v-1.7h-1.9c0,0,0,0,0,0c-0.2,0.4-0.5,0.9-0.9,1.4l-0.6-0.5c0.4-0.4,0.7-0.9,0.9-1.3c0.2-0.4,0.4-1,0.5-1.6
				L105.5,58.8z"/>
			<path class="st3" d="M112.9,61.4l-0.4,0.8c-0.4-0.4-0.9-0.7-1.3-1l0.4-0.6C112.1,60.8,112.5,61.1,112.9,61.4z M113.3,63
				c-0.4,1.1-0.9,2-1.4,2.8l-0.6-0.7c0.4-0.6,0.9-1.5,1.3-2.6L113.3,63z M113.1,59.2l-0.5,0.8c-0.4-0.4-0.8-0.6-1.2-0.8l0.4-0.6
				C112.3,58.7,112.7,58.9,113.1,59.2z M118.1,59.1c-0.6,0.2-1.2,0.3-2,0.4v1.2h2.2v0.7h-2.2v1.2h1.8v3.3h-0.7v-0.5h-2.9v0.5h-0.7
				v-3.3h1.8v-1.2h-2.2v-0.7h2.2v-1.1c-0.5,0-1.1,0.1-1.7,0.1l-0.2-0.6c1.7,0,3.1-0.2,4.3-0.5L118.1,59.1z M117.2,64.7v-1.4h-2.9
				v1.4H117.2z"/>
			<path class="st3" d="M119.4,61.5c0-0.5,0-1,0-1.4c0-0.4,0-0.8-0.1-1.2c0.1,0,0.2,0,0.3,0c0.1,0,0.3,0,0.4,0c0.2,0,0.4,0,0.7,0
				c0.2,0,0.4,0,0.7,0c0.4,0,0.8,0,1,0.1c0.2,0.1,0.4,0.2,0.6,0.3c0.2,0.2,0.3,0.3,0.4,0.6c0.1,0.2,0.1,0.4,0.1,0.7
				c0,0.4-0.1,0.7-0.2,0.9c-0.1,0.3-0.3,0.5-0.5,0.6c-0.2,0.2-0.5,0.3-0.7,0.4c-0.3,0.1-0.6,0.1-0.9,0.1h-0.5c0,0.5,0,1,0,1.4
				c0,0.5,0,0.9,0.1,1.4c-0.1,0-0.2,0-0.3,0c-0.1,0-0.3,0-0.4,0c-0.2,0-0.3,0-0.4,0c-0.1,0-0.2,0-0.3,0c0-0.4,0-0.8,0.1-1.2
				c0-0.4,0-0.9,0-1.4V61.5z M122.1,60.7c0-0.2,0-0.4-0.1-0.6c-0.1-0.2-0.1-0.3-0.2-0.4c-0.1-0.1-0.2-0.2-0.3-0.2
				c-0.1,0-0.2-0.1-0.4-0.1h-0.2c0,0-0.1,0-0.1,0c0,0-0.1,0-0.1,0c0,0.5,0,0.9,0,1.3c0,0.4,0,0.9,0,1.3c0.2,0,0.3,0,0.5,0
				c0.2,0,0.3-0.1,0.4-0.2c0.1-0.1,0.2-0.2,0.3-0.4C122,61.2,122.1,61,122.1,60.7z"/>
			<path class="st3" d="M125.8,62.4v0.4c0,0.5,0,1,0,1.4c0,0.4,0,0.8,0.1,1.2c-0.1,0-0.2,0-0.3,0c-0.1,0-0.3,0-0.4,0s-0.3,0-0.4,0
				c-0.1,0-0.2,0-0.3,0c0-0.4,0-0.8,0.1-1.2c0-0.4,0-0.9,0-1.4v-1.3c0-0.5,0-1,0-1.4c0-0.4,0-0.8-0.1-1.2c0.1,0,0.2,0,0.3,0
				c0.1,0,0.3,0,0.4,0c0.2,0,0.3,0,0.6,0c0.2,0,0.5,0,0.8,0c0.2,0,0.4,0,0.6,0c0.2,0,0.3,0,0.4,0.1c0.1,0,0.2,0.1,0.3,0.1
				c0.1,0,0.2,0.1,0.2,0.1c0.2,0.1,0.3,0.3,0.4,0.5c0.1,0.2,0.2,0.5,0.2,0.7c0,0.5-0.1,0.8-0.4,1.1c-0.2,0.3-0.6,0.5-1,0.6
				c0.3,0.5,0.6,1.1,0.9,1.6c0.3,0.5,0.7,1.1,1,1.6c-0.1,0-0.3,0-0.4,0c-0.1,0-0.3,0-0.4,0s-0.3,0-0.4,0c-0.1,0-0.3,0-0.4,0
				L125.8,62.4L125.8,62.4z M127.2,60.7c0-0.3,0-0.5-0.1-0.7c-0.1-0.2-0.1-0.3-0.2-0.4c-0.1-0.1-0.3-0.1-0.4-0.2c-0.2,0-0.4,0-0.6,0
				c0,0.9,0,1.7,0,2.6c0,0,0.1,0,0.1,0c0,0,0.1,0,0.1,0c0.4,0,0.7-0.1,0.9-0.3C127.1,61.5,127.2,61.1,127.2,60.7z"/>
			<path class="st3" d="M129.5,62.2c0-0.5,0.1-0.9,0.2-1.3c0.2-0.4,0.4-0.8,0.7-1.1c0.3-0.3,0.7-0.6,1.1-0.7
				c0.4-0.2,0.9-0.3,1.4-0.3c0.5,0,0.9,0.1,1.3,0.2c0.4,0.1,0.8,0.3,1.1,0.6c0.3,0.3,0.6,0.6,0.7,1.1c0.2,0.4,0.3,0.9,0.3,1.5
				c0,0.5-0.1,0.9-0.3,1.3c-0.2,0.4-0.4,0.8-0.7,1.1c-0.3,0.3-0.7,0.5-1.1,0.7c-0.4,0.2-0.9,0.3-1.4,0.3c-0.5,0-0.9-0.1-1.3-0.2
				c-0.4-0.1-0.8-0.3-1.1-0.6c-0.3-0.3-0.6-0.6-0.7-1.1C129.6,63.3,129.5,62.8,129.5,62.2z M134.9,61.9c0-0.4,0-0.8-0.1-1.1
				c-0.1-0.3-0.2-0.6-0.4-0.8c-0.2-0.2-0.4-0.4-0.6-0.5c-0.2-0.1-0.5-0.2-0.8-0.2c-0.3,0-0.6,0.1-0.8,0.2c-0.2,0.2-0.5,0.4-0.6,0.6
				c-0.2,0.3-0.3,0.6-0.4,0.9c-0.1,0.4-0.1,0.7-0.1,1.1c0,0.5,0.1,0.9,0.2,1.3c0.1,0.3,0.2,0.6,0.4,0.8c0.2,0.2,0.4,0.4,0.6,0.5
				c0.2,0.1,0.5,0.1,0.7,0.1c0.3,0,0.5-0.1,0.8-0.2c0.2-0.1,0.5-0.3,0.6-0.6c0.2-0.2,0.3-0.6,0.4-0.9
				C134.9,62.9,134.9,62.5,134.9,61.9z"/>
			<path class="st3" d="M138.4,58.6v1.9h0.7v-2.2h0.7v2.2h0.6v0.7h-1.9c0,0.4,0,0.7,0,1h1.4v3.6h-0.7v-2.9h-0.8c0,0.2,0,0.4-0.1,0.6
				c-0.1,0.8-0.3,1.5-0.6,2.3l-0.6-0.5c0.2-0.6,0.4-1.3,0.5-2c0.1-0.6,0.1-1.5,0.1-2.6v-2H138.4z M144.1,59.4h-2.8v1.3h2.7
				c0,1.3-0.2,2.3-0.6,3c-0.1,0.1-0.1,0.3-0.2,0.4c0.3,0.4,0.6,0.8,1.1,1.1l-0.4,0.7c-0.4-0.4-0.8-0.8-1.1-1.2
				c-0.4,0.4-0.8,0.8-1.3,1.2l-0.4-0.7c0.6-0.4,1-0.7,1.3-1.1c0,0-0.1-0.1-0.1-0.2c-0.3-0.7-0.6-1.5-0.7-2.5h-0.1
				c0,0.7-0.1,1.3-0.1,2c-0.1,0.8-0.3,1.7-0.6,2.5l-0.6-0.6c0.3-0.7,0.4-1.4,0.6-2.1c0.1-0.8,0.1-1.4,0.1-2.1v-2.4h3.5V59.4z
				 M142.7,63.3C142.7,63.3,142.7,63.3,142.7,63.3c0.3-0.6,0.5-1.2,0.6-2h-1.2C142.2,62.1,142.4,62.8,142.7,63.3z"/>
		</g>
	</g>
	<g>
		<g>
			<path class="st3" d="M108.7,45.2c-0.1,0.1-0.1,0.3-0.2,0.4h2.4v0.9h-1.3c0,0.2,0,0.4-0.1,0.6h1.5V48h-1.5c0.7,0.4,1.1,0.7,1.5,1
				l-0.3,0.6h3.2v4.2h-1.1v-0.4h-4.1v0.4h-1.1v-4c-0.1,0.1-0.3,0.1-0.4,0.2l-0.7-0.9c0.8-0.3,1.3-0.6,1.6-1h-1.5v-0.9h0.8l-0.8-0.6
				c0.5-0.6,0.9-1.1,1.1-1.6L108.7,45.2z M108.6,46.5H108c-0.1,0.2-0.3,0.4-0.4,0.6h0.9C108.6,46.9,108.6,46.7,108.6,46.5z
				 M110.2,49.5c-0.4-0.3-0.8-0.6-1.2-0.9c-0.3,0.3-0.6,0.6-1,0.9H110.2z M112.8,51v-0.5h-4.1V51H112.8z M112.8,52.4v-0.6h-4.1v0.6
				H112.8z M114.5,45.6v3.6h-3.2v-3.6H114.5z M113.4,46.6h-1v1.6h1V46.6z"/>
			<path class="st3" d="M118.7,45.7c-0.1,0.5-0.3,1-0.4,1.4h1.5V45h1.2v2.1h2.6v1.1H121v1.5h2.3v1.1H121v1.6h3v1.1h-7.8v-1.1h3.6
				v-1.6h-2.5v-1.1h2.5v-1.5h-2c-0.3,0.7-0.7,1.3-1.1,1.9l-0.7-1.1c0.7-0.9,1.1-2,1.4-3.5L118.7,45.7z"/>
			<path class="st3" d="M127.6,50.2c-0.3,1.2-0.8,2.4-1.4,3.5l-1.2-0.7c0.7-1.1,1.2-2.1,1.5-3.2L127.6,50.2z M127.4,48.5l-0.9,1
				c-0.4-0.5-1-0.9-1.6-1.4l0.8-0.8C126.4,47.7,126.9,48.1,127.4,48.5z M127.9,46.3l-0.8,0.9c-0.5-0.5-1-0.9-1.6-1.4l0.7-0.8
				C126.8,45.4,127.3,45.8,127.9,46.3z M133,46.2c-0.6,0.1-1.3,0.2-2,0.3v1.2h2.4v1.1h-2.4v1.2h1.9v3.9h-1.1v-0.5h-2.6v0.5H128v-3.9
				h1.8v-1.2h-2.2v-1.1h2.2v-1c-0.5,0.1-1.1,0.1-1.7,0.2l-0.4-1.2c1.7-0.1,3.3-0.2,4.8-0.4L133,46.2z M131.7,52.3v-1.4h-2.6v1.4
				H131.7z"/>
		</g>
	</g>
	<polyline class="st4" points="76.4,48.9 79.2,48.9 79.2,91.2 14.7,91.2 14.7,48.9 17.3,48.9 	"/>
	<polyline class="st4" points="136.3,48.9 152,48.9 152,69 87.5,69 87.5,48.9 103,48.9 	"/>
</g>
</svg>
