<?xml version="1.0" encoding="utf-8"?>
<!-- Generator: Adobe Illustrator 27.0.0, SVG Export Plug-In . SVG Version: 6.00 Build 0)  -->
<svg version="1.1" id="圖層_1" xmlns="http://www.w3.org/2000/svg" xmlns:xlink="http://www.w3.org/1999/xlink" x="0px" y="0px"
	 viewBox="0 0 400 16" style="enable-background:new 0 0 400 16;" xml:space="preserve">
<style type="text/css">
	.st0{fill:#D8B167;}
</style>
<path class="st0" d="M96.1,12.1c1.2-0.3,2.7-0.7,4.1-1.1l0,0.2c-1.5,0.7-3.5,1.7-6.4,2.9c-0.1,0.2-0.2,0.4-0.3,0.4l-0.8-1.6
	c0.5-0.1,1.2-0.3,2.1-0.5L94.6,1.8l2,0.1c0,0.2-0.2,0.4-0.7,0.4L96.1,12.1L96.1,12.1z M96.5,15.5c7.2-3.4,7.8-7.7,7.9-13.7l2.1,0.2
	c0,0.2-0.1,0.4-0.7,0.4c-0.1,3.5-0.4,6.5-2.2,8.9c3,1.1,3.9,2.7,3.9,3.6c0,0.5-0.3,0.9-0.7,0.9c-0.2,0-0.4-0.1-0.6-0.2
	c-0.4-1.3-1.7-2.9-2.9-4c-1.3,1.7-3.4,3.1-6.7,4.2L96.5,15.5L96.5,15.5z M98.3,2.8c2.3,1,3.1,2.3,3.1,3.1c0,0.6-0.3,1-0.8,1
	c-0.2,0-0.4-0.1-0.6-0.3c-0.1-1.2-1-2.8-1.9-3.8L98.3,2.8L98.3,2.8z"/>
<path class="st0" d="M121.7,8.5l1.4,1.2c-0.1,0.1-0.3,0.2-0.6,0.2c-0.4,1.2-1.1,2.3-2,3.2c0.9,0.6,2,1.1,3.2,1.4l0,0.2
	c-0.5,0.1-0.9,0.5-1.1,1.1c-1.1-0.5-2.1-1.1-2.9-1.9c-0.9,0.7-2,1.3-3.4,1.8l-0.1-0.3c1.2-0.6,2.1-1.3,2.9-2.2
	c-0.9-1-1.5-2.2-1.9-3.7h-1.4v5.9c0,0.1-0.4,0.3-1,0.3h-0.2v-2.6c-1.1,0.4-2.5,0.8-4.5,1.4c-0.1,0.2-0.2,0.3-0.4,0.4l-0.9-1.5
	c0.4,0,1.1-0.1,1.8-0.2V7.7h-1.6l-0.1-0.4h12.5l0.8-1.1l1.5,1.2c-0.1,0.2-0.3,0.3-0.8,0.3h-7.2v1.5h5.2L121.7,8.5L121.7,8.5z
	 M112.4,5.9v0.3c0,0-0.2,0.5-1.3,0.5V1.3l1.4,0.6h7.3l0.6-0.7l1.6,1.1c-0.1,0.1-0.3,0.3-0.7,0.3v3.6c0,0-0.4,0.4-1.3,0.4V5.9H112.4z
	 M114.5,7.7h-2.7v1.5h2.7V7.7z M111.7,9.6v1.5h2.7V9.6H111.7z M111.7,11.4v1.7c0.8-0.1,1.8-0.2,2.7-0.3v-1.4H111.7z M120,2.2h-7.6
	v1.5h7.6V2.2z M112.4,5.5h7.6V4h-7.6V5.5z M117.4,9.6c0.5,1.2,1.2,2.1,2.2,2.9c0.6-0.9,1.1-1.9,1.3-2.9H117.4z"/>
<path class="st0" d="M130.2,3.9l1.3,1.2c-0.1,0.1-0.3,0.2-0.6,0.2c-0.2,2.1-0.5,4.1-1.4,5.9c1.2,0.8,1.6,1.6,1.6,2.1
	c0,0.4-0.2,0.7-0.5,0.7c-0.1,0-0.3-0.1-0.4-0.1c-0.3-0.5-0.7-1-1.2-1.6c-0.9,1.4-2.1,2.6-4,3.5l-0.1-0.3c1.6-1,2.7-2.4,3.4-3.9
	c-0.6-0.5-1.2-0.9-1.8-1.3l-0.2,0.9c-0.1,0.1-0.4,0.2-0.7,0.2c-0.2,0-0.4,0-0.7-0.1c0.4-1.4,0.9-4,1.4-6.3h-1.4l-0.1-0.3h1.6
	c0.3-1.5,0.5-2.9,0.6-3.8l1.8,0.2c0,0.2-0.2,0.3-0.6,0.4c-0.1,0.7-0.3,1.9-0.6,3.2h1.9L130.2,3.9L130.2,3.9z M127.5,5
	c-0.3,1.7-0.7,3.5-1,5c0.8,0.2,1.5,0.4,2.1,0.7c0.6-1.7,0.9-3.7,1-5.7H127.5L127.5,5z M138.4,6.9l1.5,1.1c-0.1,0.2-0.3,0.3-0.8,0.3
	h-3.4v5.6c0,1-0.2,1.7-1.9,1.9c0-1-0.5-1.2-1.7-1.3v-0.2h2c0.3,0,0.3-0.1,0.3-0.3V8.3h-3.6L130.7,8h3.7V5.3l1.1,0.1
	c0.7-0.8,1.4-2,1.9-2.8h-6l-0.1-0.3h6.2l0.8-0.8l1.3,1.3c-0.1,0.1-0.3,0.1-0.7,0.2c-0.7,0.7-1.9,1.8-2.9,2.5l0.5,0
	c0,0.2-0.1,0.3-0.7,0.4V8h1.9L138.4,6.9L138.4,6.9z"/>
<path class="st0" d="M146,3.2l1.5,1.1c-0.1,0.1-0.4,0.2-0.7,0.3v8.9c0,0-0.4,0.4-1.2,0.4v-1.3h-3v1.4c0,0-0.1,0.5-1.2,0.5V3.3
	l1.3,0.6h0.4c0.2-0.8,0.4-2,0.6-2.9l2,0.4c-0.1,0.2-0.2,0.3-0.6,0.4c-0.3,0.6-0.9,1.5-1.3,2.2h1.7L146,3.2L146,3.2z M145.6,4.3h-3V8
	h3V4.3z M142.6,12.3h3v-4h-3V12.3z M154.2,3.1l1.5,1.2c-0.1,0.1-0.3,0.2-0.7,0.3c-0.1,6.1-0.3,9.7-1.1,10.5c-0.5,0.5-1,0.7-2,0.7
	c0-0.7-0.1-1.1-1.9-1.3l0-0.3c0.7,0,1.8,0.1,2.3,0.1c0.3,0,0.4,0,0.6-0.2c0.6-0.6,0.8-4.2,0.9-9.8h-3.9c-0.7,1.6-1.5,3.1-2.5,4.1
	l-0.2-0.1c0.9-1.7,1.8-4.6,2.3-7.3l1.9,0.5c-0.1,0.2-0.2,0.3-0.6,0.3c-0.2,0.8-0.5,1.5-0.8,2.2h3.6L154.2,3.1L154.2,3.1z M149.1,7.3
	c2.3,0.9,3,2,3,2.8c0,0.5-0.3,0.9-0.7,0.9c-0.2,0-0.4-0.1-0.6-0.3c-0.1-1.1-1-2.5-1.8-3.3L149.1,7.3L149.1,7.3z"/>
<path class="st0" d="M170,8.7l1.7,1.2c-0.1,0.2-0.3,0.3-0.8,0.3h-6.1v3.8c0,1-0.3,1.7-2.1,1.9c0-0.9-0.6-1.2-2.2-1.3v-0.2h2.6
	c0.3,0,0.4-0.1,0.4-0.3v-3.8h-6.7l-0.1-0.4h6.8V6.5h-5.7l-0.1-0.4h5.8V3.1c-1.9,0.2-4,0.4-5.9,0.4l-0.1-0.3c3.9-0.4,8.6-1.4,11-2.2
	l1.4,1.3c-0.1,0.1-0.2,0.1-0.3,0.1c-0.1,0-0.4,0-0.6-0.1c-1,0.2-2.2,0.4-3.5,0.6c0,0.2-0.2,0.3-0.7,0.4v2.9h3.3l0.9-1.1l1.7,1.2
	c-0.1,0.2-0.3,0.3-0.8,0.3h-5v3.3h4.3L170,8.7L170,8.7z"/>
<path class="st0" d="M176.9,2.7h-4.1l-0.1-0.4h4.2V0.9l1.9,0.1c0,0.2-0.1,0.3-0.6,0.4v0.9h3.9V0.9l1.9,0.1c0,0.2-0.1,0.3-0.6,0.4
	v0.9h2l0.8-1l1.5,1c-0.1,0.2-0.3,0.3-0.8,0.3h-3.5v0.7c0,0-0.1,0.1-0.2,0.2l1,0.1c0,0.2-0.1,0.3-0.6,0.3c0,0.4,0,0.8-0.1,1.3h1.1
	l0.5-0.7l1.4,1c-0.1,0.1-0.3,0.2-0.6,0.2c-0.1,1.7,0.1,2.9,0.6,3.4c0,0,0.1,0.1,0.1,0.1c0.1,0,0.5-1,0.6-1.3l0.1,0l-0.2,1.5
	c0.2,0.3,0.3,0.5,0.3,0.7c0,0.1-0.1,0.5-0.6,0.5c-0.3,0-0.6-0.1-0.9-0.3c-1.1-0.9-1.3-2.4-1.4-4.7h-1.2c-0.1,0.6-0.2,1.2-0.4,1.8
	c0.8,0.5,1,1,1,1.3c0,0.3-0.2,0.6-0.5,0.6c-0.1,0-0.2,0-0.4-0.1c-0.1-0.2-0.3-0.5-0.6-0.8c-0.6,1-1.5,1.8-3.1,2.5l-0.2-0.3
	c1.4-0.8,2.2-1.8,2.6-2.9c-0.4-0.3-0.8-0.6-1.3-0.9l0.1-0.2c0.5,0.1,1,0.2,1.4,0.4c0.1-0.4,0.1-0.9,0.2-1.3h-1.9l-0.1-0.4h2
	c0-0.5,0-1,0-1.5H182v-1h-3.9v0.8c0,0.1-0.2,0.2-0.6,0.3c-0.1,0.1-0.2,0.1-0.5,0.2v0.5h0.8l0.6-0.7l1.1,0.7
	c-0.1,0.2-0.3,0.3-0.7,0.3H177v1h1.4l0.6-0.7l1.2,0.8c-0.1,0.2-0.3,0.3-0.7,0.3H178v0.5c0,0.2,0.1,0.2,0.2,0.2h0.7
	c0.2,0,0.4,0,0.6-0.2h0.1l0.1,0.2c0.4,0.2,0.4,0.2,0.4,0.3c0,0.4-0.3,0.5-1.1,0.5h-0.5l1.1,0.7c-0.1,0.2-0.3,0.3-0.7,0.3H177v0.9
	c1-0.1,2-0.1,3.1-0.2l0,0.3c-1.4,0.3-3.3,0.6-6.1,1c-0.1,0.2-0.3,0.3-0.4,0.3L173,9.7c0.6,0,1.6-0.1,2.9-0.1V8.7h-2.1l-0.1-0.3h2.2
	V7.3l1.3,0.1c-0.1-0.2-0.1-0.5-0.1-1.3h-1.2l0.4,0.1c-0.1,0.2-0.2,0.2-0.6,0.2c-0.4,0.8-1.2,1.3-2.6,1.7l-0.2-0.3
	c1-0.3,1.6-1,1.8-1.7H173l-0.1-0.4h3v-1h-2.3l-0.1-0.4h2.4v-1l1,0.1V2.7L176.9,2.7z M186.1,11.5l1.5,1c-0.1,0.2-0.3,0.3-0.8,0.3
	h-7.5c-0.6,0.6-1.4,1.1-2,1.6c1.8,0,4-0.1,6.3-0.1c-0.5-0.3-1.1-0.6-1.8-0.9l0.1-0.3c3.3,0.2,4.4,1.3,4.4,2c0,0.3-0.2,0.6-0.6,0.6
	c-0.1,0-0.2,0-0.3-0.1c-0.2-0.3-0.6-0.7-1.2-1c-2.2,0.3-5.2,0.5-9.3,0.8c-0.1,0.2-0.3,0.3-0.4,0.3l-0.8-1.4c0.7,0,1.6,0,2.8,0
	c0.4-0.5,0.8-1.1,1.1-1.6h-4.8l-0.1-0.4h12.6L186.1,11.5L186.1,11.5z M183.2,11l0.8-0.9l1.4,0.9c-0.1,0.2-0.3,0.3-0.8,0.3h-9.6
	L175,11H183.2z M178.4,7.7c-0.6,0-0.8,0-1-0.1c-0.1,0.1-0.2,0.1-0.4,0.1v0.6h0.9L178.4,7.7L178.4,7.7z"/>
<path class="st0" d="M188.8,11.8c2.3,0.7,3.8,2,3.8,3.1c0,0.5-0.4,0.9-0.8,0.9c-0.3,0-0.6-0.2-0.8-0.5c-0.3-1-1.1-2.3-2.5-3.1
	L188.8,11.8L188.8,11.8z"/>
<path class="st0" d="M209.2,4.4c0.1-0.4,0.3-1,0.4-1.6h-10.8c0,1.1-0.7,1.7-1.4,1.7c-0.4,0-0.7-0.3-0.7-0.6c0-0.3,0.2-0.5,0.5-0.7
	c0.6-0.2,1.1-0.8,1.1-1.6h0.3c0.1,0.3,0.1,0.5,0.2,0.7h4.6V0.8l2.1,0.2c0,0.2-0.2,0.4-0.7,0.4v1.1h4.8l0.7-0.7l1.3,1.3
	c-0.1,0.1-0.3,0.1-0.6,0.2c-0.4,0.4-1,1-1.5,1.3L209.2,4.4L209.2,4.4z M209.4,5.4l0.7-0.8l1.4,0.9c-0.1,0.2-0.3,0.3-0.8,0.3h-2.3
	c0,0.6-0.1,1.2-0.1,1.8c-0.2,0.1-0.4,0.2-0.8,0.2c-0.1,0-0.3,0-0.5,0l0.1-0.4h-6.4l0,0.3c-0.2,0.1-0.4,0.2-0.6,0.2
	c-0.2,0-0.4,0-0.6-0.1c0.1-0.6,0.2-1.2,0.3-1.9h-2.9l-0.1-0.3h3c0.1-0.8,0.2-1.5,0.2-2.1l1.3,0.6h5.8l0.6-0.7l1.4,1.1
	c-0.1,0.1-0.4,0.2-0.7,0.3l0,0.8L209.4,5.4L209.4,5.4z M203.3,14.3c-0.1,0.1-0.2,0.1-0.4,0.1c-0.1,0-0.3,0-0.5-0.1
	c-1.3,0.6-3.4,1.2-5.5,1.4l-0.1-0.2c1.9-0.5,4-1.5,5-2.3L203.3,14.3L203.3,14.3z M209.1,13.3c0,0.1-0.6,0.4-1.1,0.4h-0.2v-0.4h-7.6
	v0.2c0,0-0.2,0.5-1.3,0.5v-6l1.4,0.6h7.3l0.5-0.7l1.4,1c-0.1,0.1-0.3,0.2-0.5,0.3L209.1,13.3L209.1,13.3z M207.8,8.7h-7.6v1.1h7.6
	V8.7z M207.8,11.3v-1.1h-7.6v1.1H207.8z M200.3,12.8h7.6v-1.2h-7.6V12.8z M203.3,7c0.1-0.3,0.1-0.7,0.1-1.2h-2.5
	c0,0.4-0.1,0.8-0.1,1.2H203.3z M203.4,5.5c0-0.4,0.1-0.8,0.1-1.2h-2.4c0,0.3-0.1,0.7-0.1,1.2H203.4z M204.6,5.8
	c0,0.4-0.1,0.8-0.1,1.2h2.7c0-0.4,0.1-0.8,0.1-1.2H204.6z M207.2,5.5c0-0.4,0-0.8,0-1.2h-2.6c0,0.4-0.1,0.8-0.1,1.2H207.2z
	 M205,13.6c4.5,0.2,5.8,1.1,5.8,1.7c0,0.3-0.3,0.5-0.7,0.5c-0.2,0-0.4-0.1-0.6-0.2c-0.9-0.6-2.5-1.3-4.6-1.7L205,13.6L205,13.6z"/>
<path class="st0" d="M218.7,11l0.1,0.2c-1.2,0.5-2.8,1.3-5.2,2.2c-0.1,0.2-0.2,0.3-0.4,0.4l-0.7-1.6c0.5-0.1,1.2-0.2,2.2-0.4V7.3
	h-1.9L212.7,7h2V2.7h-2l-0.1-0.3h3.8l0.8-1.1l1.5,1.1c-0.1,0.2-0.3,0.3-0.8,0.3h-2V7h0.5l0.7-1l1.3,1.1c-0.1,0.2-0.3,0.3-0.8,0.3
	H216v4.3L218.7,11L218.7,11z M222.4,10.9c-0.1,0.2-0.2,0.3-0.6,0.3c-0.6,2-2.1,3.7-5.8,4.6l-0.1-0.3c3.2-1,4.3-2.9,4.6-5L222.4,10.9
	L222.4,10.9z M227.1,12.2l0,2.1c0.5,0.2,0.5,0.2,0.5,0.4c0,0.5-0.4,0.8-1.6,0.8h-1.7c-1.2,0-1.5-0.3-1.5-1.5v-4h-2.6v0.6
	c0,0-0.2,0.5-1.3,0.5V1.4l1.4,0.6h4.6l0.6-0.8l1.6,1.2c-0.1,0.1-0.4,0.3-0.7,0.3v7.7c0,0-0.4,0.4-1.3,0.4V10h-0.5
	c-0.1,0.1-0.2,0.1-0.4,0.1V14c0,0.4,0,0.4,0.3,0.4h1.5c0.2,0,0.3,0,0.4-0.2c0.1-0.2,0.3-1.1,0.6-2H227.1L227.1,12.2z M225.1,2.4
	h-4.8v2.2h4.8V2.4z M225.1,7.1V4.9h-4.8v2.2H225.1z M220.3,9.7h4.8V7.4h-4.8V9.7z"/>
<path class="st0" d="M241.9,6.3l1.6,1.1c-0.1,0.2-0.3,0.3-0.8,0.3h-2.6c-0.5,1.8-1.2,3.3-2.2,4.5c3.5,1,4.6,2.3,4.6,3
	c0,0.3-0.2,0.5-0.6,0.5c-0.1,0-0.3,0-0.4-0.1c-0.9-0.8-2.5-1.8-4.5-2.6c-1.7,1.4-4.2,2.3-8,2.7l-0.1-0.3c3.2-0.6,5.4-1.5,6.9-2.9
	c-1.1-0.4-2.3-0.8-3.5-1.1l-0.4,0.8c-0.1,0.1-0.3,0.1-0.5,0.1c-0.3,0-0.6-0.1-0.9-0.2c0.6-1,1.5-2.8,2.3-4.5h-4.2l-0.1-0.4h4.4
	c0.6-1.2,1.1-2.4,1.3-3.1l1.9,0.4c-0.1,0.2-0.2,0.3-0.7,0.3c-0.2,0.6-0.7,1.4-1.1,2.4h6.6L241.9,6.3L241.9,6.3z M240.7,5.7
	c0.2-0.5,0.5-1.4,0.7-2H231c0,1.3-0.7,2.2-1.6,2.2c-0.5,0-0.7-0.3-0.7-0.6s0.2-0.6,0.5-0.7c0.7-0.3,1.4-1.1,1.3-2.1h0.3
	c0.1,0.3,0.2,0.6,0.2,0.9h4.4V0.9l2,0.2c0,0.2-0.2,0.4-0.7,0.4v1.8h4.6l0.8-0.8l1.4,1.3C243.3,4,243.1,4,242.8,4
	c-0.5,0.6-1.3,1.4-1.9,1.8L240.7,5.7L240.7,5.7z M234.3,7.7c-0.6,1.2-1.2,2.5-1.7,3.5c1.6,0.2,2.9,0.4,4.1,0.6
	c0.9-1.1,1.6-2.5,2-4.2H234.3z"/>
<path class="st0" d="M247,7.3c0.3,0.9,0.4,1.7,0.4,2.4c0,2.1-1.1,3.5-2.1,3.5c-0.5,0-0.6-0.3-0.6-0.6c0-0.3,0.2-0.5,0.4-0.8
	c0.9-0.7,1.8-2.5,1.7-4.6L247,7.3L247,7.3z M248.7,1.5c4.2,0,5.6,1.5,5.6,2.4c0,0.4-0.3,0.7-0.6,0.7c-0.1,0-0.2,0-0.3-0.1
	c-0.6-0.9-2.2-2.1-4.6-2.7L248.7,1.5L248.7,1.5z M249,5.5l1.9,0.2c0,0.2-0.1,0.3-0.6,0.4v7.5c0,0.5,0.1,0.6,0.7,0.6h3.2
	c0.3,0,0.5,0,0.6-0.3c0.1-0.2,0.4-1.2,0.7-2.3h0.1l0,2.5c0.5,0.2,0.6,0.3,0.6,0.5c0,0.5-0.5,0.8-2.1,0.8H251c-1.6,0-1.9-0.3-1.9-1.7
	L249,5.5L249,5.5z M255.9,6.7c2.8,1.6,3.6,3.6,3.6,4.9c0,0.9-0.4,1.6-0.9,1.6c-0.2,0-0.4-0.1-0.6-0.4c0-1.6-0.5-4.3-2.3-6L255.9,6.7
	L255.9,6.7z"/>
<path class="st0" d="M265.9,3.2l1.5,1.1c-0.1,0.1-0.4,0.2-0.7,0.3v8.9c0,0-0.3,0.4-1.2,0.4v-1.3h-3v1.4c0,0-0.1,0.5-1.2,0.5V3.3
	l1.3,0.6h0.4c0.2-0.8,0.5-2,0.6-2.9l2,0.4c0,0.2-0.2,0.3-0.6,0.4c-0.3,0.6-0.9,1.5-1.3,2.2h1.7L265.9,3.2L265.9,3.2z M265.5,4.3h-3
	V8h3V4.3z M262.5,12.3h3v-4h-3V12.3z M274,3.1l1.5,1.2c-0.1,0.1-0.3,0.2-0.7,0.3c-0.1,6.1-0.4,9.7-1.2,10.5c-0.5,0.5-1,0.7-2,0.7
	c0-0.7-0.1-1.1-1.9-1.3l0-0.3c0.7,0,1.8,0.1,2.3,0.1c0.3,0,0.4,0,0.6-0.2c0.6-0.6,0.8-4.2,0.9-9.8h-3.9c-0.7,1.6-1.5,3.1-2.5,4.1
	l-0.2-0.1c0.9-1.7,1.8-4.6,2.3-7.3l1.9,0.5c-0.1,0.2-0.2,0.3-0.6,0.3c-0.2,0.8-0.5,1.5-0.8,2.2h3.6L274,3.1L274,3.1z M268.9,7.3
	c2.3,0.9,3,2,3,2.8c0,0.5-0.3,0.9-0.7,0.9c-0.2,0-0.4-0.1-0.6-0.3c-0.1-1.1-1-2.5-1.8-3.3L268.9,7.3L268.9,7.3z"/>
<path class="st0" d="M276.4,14c0.5-1.3,0.6-3,0.6-4.4V7.5l1.5,0.1c0,0.2-0.1,0.3-0.6,0.4v1.7c0,1.4-0.2,3.3-1.3,4.5L276.4,14
	L276.4,14z M282.7,5.6c-0.1,0.2-0.3,0.3-0.8,0.3h-1.9v9.5c0,0.1-0.4,0.3-1,0.3h-0.2V5.9h-2.4l-0.1-0.3h4l0.8-1L282.7,5.6L282.7,5.6z
	 M282.3,2.2c-0.1,0.2-0.3,0.3-0.8,0.3H277l-0.1-0.3h3.1l0.8-1L282.3,2.2L282.3,2.2z M282.6,7.6c0,0.2-0.1,0.3-0.6,0.3v5
	c0,0-0.2,0.4-1,0.4V7.4L282.6,7.6L282.6,7.6z M290.1,13.9l1.4,1c-0.1,0.2-0.3,0.3-0.8,0.3h-8.9l-0.1-0.4h3.5c-0.2,0-0.4-0.2-0.5-0.4
	c0-0.1,0-0.2,0-0.4c0-0.5-0.1-1.1-0.3-1.5c-0.3,0.1-0.5,0.1-0.9,0.1V8.9l1.3,0.6h4l0.5-0.7l1.4,1c-0.1,0.1-0.2,0.2-0.6,0.3v2.3
	c0,0.1-0.4,0.3-1,0.3H289v-0.5h-4.3c0,0.3,0,0.3-0.1,0.4c1.2,0.5,1.6,1.1,1.6,1.5c0,0.4-0.3,0.7-0.7,0.8h2.1
	c0.2-0.7,0.5-1.6,0.5-2.3l1.8,0.4c0,0.2-0.2,0.3-0.6,0.3c-0.3,0.5-0.9,1.1-1.4,1.6h1.3L290.1,13.9L290.1,13.9z M289.5,7.8l0.6-0.8
	l1.3,0.8c-0.1,0.2-0.3,0.3-0.7,0.3h-7.9l-0.1-0.4L289.5,7.8L289.5,7.8z M284.2,6.5v0.3c0,0.1-0.4,0.4-1,0.4H283V2l1.3,0.6h1V1
	l1.5,0.1c0,0.2-0.1,0.3-0.5,0.3v1.1h1.1V1l1.5,0.1c0,0.2-0.1,0.3-0.6,0.3v1.1h1l0.5-0.7l1.4,1c-0.1,0.1-0.3,0.2-0.6,0.3v3.7
	c0,0.1-0.4,0.3-1,0.3h-0.2V6.6L284.2,6.5L284.2,6.5z M285.3,2.9h-1.1v1.5h1.1V2.9z M285.3,6.2V4.7h-1.1v1.5H285.3z M289,9.9h-4.3v2
	h4.3V9.9z M287.4,2.9h-1.1v1.5h1.1V2.9z M286.3,4.7v1.5h1.1V4.7H286.3z M289.5,2.9h-1.2v1.5h1.2V2.9z M288.4,6.2h1.2V4.7h-1.2V6.2z"
	/>
<path class="st0" d="M296.6,8.2c-0.1,0.1-0.3,0.3-0.8,0.3v4.3c1.1,1.3,2.3,1.4,5.2,1.4c1.9,0,4.5,0,6.4-0.1v0.2
	c-0.6,0.1-0.9,0.5-0.9,1.1H301c-3,0-4.3-0.4-5.4-2.4c-0.6,0.8-1.5,1.8-2.1,2.3c0,0.2-0.1,0.3-0.2,0.4l-0.9-1.5
	c0.5-0.2,1.4-0.7,2.2-1.1V8.2h-2l-0.1-0.4h1.9l0.7-0.9L296.6,8.2L296.6,8.2z M292.9,1.4c2.2,0.6,2.9,1.7,2.9,2.4
	c0,0.5-0.3,0.9-0.7,0.9c-0.2,0-0.4-0.1-0.6-0.3c-0.1-1-1-2.2-1.8-2.9L292.9,1.4L292.9,1.4z M298.5,8.3v4.8c0,0-0.2,0.4-1.2,0.4V7.4
	l1.3,0.6h2.6V6.3h-1.9v0.3c0,0-0.2,0.4-1.2,0.4V1.3l1.3,0.6h4.9l0.5-0.7l1.5,1.1c-0.1,0.1-0.3,0.3-0.7,0.3v4c0,0-0.4,0.4-1.2,0.4
	V6.3h-2v1.6h2.6l0.6-0.7l1.5,1.1c-0.1,0.1-0.4,0.3-0.7,0.3v3.5c0,0.8-0.2,1.3-1.8,1.5c0-0.9-0.6-1-1.6-1.1v-0.2h1.8
	c0.2,0,0.3,0,0.3-0.2V8.3h-2.8v1.8l1.4-0.1c-0.2-0.4-0.4-0.9-0.7-1.1l0.1-0.1c1.5,0.6,1.9,1.4,1.9,2c0,0.4-0.3,0.7-0.6,0.7
	c-0.1,0-0.3-0.1-0.5-0.2c0-0.3-0.1-0.6-0.2-0.9c-1,0.2-2.3,0.5-4.1,0.9c-0.1,0.2-0.2,0.3-0.4,0.4l-0.7-1.4c0.5,0,1.4,0,2.4-0.1V8.3
	L298.5,8.3L298.5,8.3z M301.3,2.2h-1.9v1.7h1.9V2.2z M299.3,6h1.9V4.3h-1.9V6z M304.5,2.2h-2v1.7h2V2.2z M302.5,6h2V4.3h-2V6z"/>
</svg>
