<?xml version="1.0" encoding="utf-8"?>
<!-- Generator: Adobe Illustrator 27.0.0, SVG Export Plug-In . SVG Version: 6.00 Build 0)  -->
<svg version="1.1" id="圖層_1" xmlns="http://www.w3.org/2000/svg" xmlns:xlink="http://www.w3.org/1999/xlink" x="0px" y="0px"
	 viewBox="0 0 400 29" style="enable-background:new 0 0 400 29;" xml:space="preserve">
<style type="text/css">
	.st0{fill:#40220F;}
</style>
<path class="st0" d="M92.2,18.8c0,0.2-1,0.7-1.7,0.7h-0.3v-1h-1.9c1.4,3,4,5.5,6.4,6.7l-0.1,0.3c-0.9,0.2-1.6,1-1.9,2.2
	c-2-1.7-3.6-4.5-4.7-7.9v8.1c0,0.2-0.7,0.7-1.7,0.7H86V18.5h-2.2v9.4c0,0.2-0.7,0.7-1.7,0.7h-0.3v-6.1c-1.2,2.1-2.9,3.9-5,5.4
	l-0.3-0.5c2.3-2.4,3.8-5.5,4.7-8.8h-2.5l-0.2-0.7h3.3v-3.5h-4.4l-0.2-0.7h4.5v-3.4h-3.1l-0.2-0.7h3.3V6.2h-3.5
	c-0.1,0.2-0.3,0.4-0.5,0.5c-0.2,0.1-0.5,0.1-0.8,0.1H68l-0.2-0.7h6.8l1.3-1.8L77.9,6l-0.1-0.5h8.7c0.7-1.6,1.4-3.8,1.8-5.5l3.3,1.2
	c-0.1,0.3-0.3,0.4-0.7,0.4c-0.1,0-0.2,0-0.4,0c-0.8,1.2-2.1,2.8-3.3,4h3l1.3-1.8l2.5,1.9c-0.2,0.4-0.5,0.6-1.3,0.6h-4.7v3.3H90
	l0.8-1.2l2.4,1.8c-0.1,0.2-0.5,0.4-1,0.5v2.6l0.8-1.4l2,1.8c-0.2,0.4-0.5,0.6-1.3,0.6h-1.5L92.2,18.8L92.2,18.8z M74.9,8.4l2.2,1.7
	c-0.2,0.4-0.6,0.6-1.3,0.6h-6.7L69,10.1h4.7L74.9,8.4z M69.2,14.7L69,14.1h4.7l1.2-1.6l2.2,1.7c-0.2,0.4-0.6,0.6-1.3,0.6H69.2z
	 M77.1,2.3c-0.2,0.5-0.6,0.6-1.3,0.6h-6.6L69,2.2h4.5l1.2-1.8L77.1,2.3L77.1,2.3z M77.7,18.8c-0.2,0.2-0.6,0.5-1.2,0.6v7.3
	c0,0.1-0.6,0.7-2.1,0.7v-1.9h-3.4v2.3c0,0-0.3,0.8-2.1,0.8V17l2.2,1.1h2.9l0.9-1.3L77.7,18.8L77.7,18.8z M71.1,24.8h3.4v-6h-3.4
	V24.8z M79.9,0.1c2.8,1.1,3.7,2.6,3.7,3.8c0,0.9-0.6,1.5-1.2,1.5c-0.3,0-0.6-0.2-1-0.5c-0.1-1.5-0.9-3.4-1.7-4.6L79.9,0.1z
	 M83.8,6.2v3.3H86V6.2H83.8z M83.8,10.2v3.4H86v-3.4H83.8z M83.8,17.8H86v-3.5h-2.2V17.8z M90.2,10.2h-2.1v3.4h2.1V10.2z M88.1,17.8
	h2.1v-3.5h-2.1V17.8z"/>
<path class="st0" d="M107.2,4.3l2.4,1.9c-0.2,0.4-0.6,0.6-1.3,0.6H99l-0.2-0.7h7.1L107.2,4.3z M104.9,10l1.2-1.7l2.3,1.7
	c-0.2,0.4-0.6,0.6-1.3,0.6h-6.8L100,10H104.9z M108.4,14.1c-0.2,0.4-0.6,0.6-1.3,0.6h-6.8L100,14h4.9l1.2-1.6L108.4,14.1z
	 M108.4,2.3c-0.2,0.4-0.5,0.6-1.3,0.6h-6.9l-0.2-0.7h4.7l1.2-1.8L108.4,2.3L108.4,2.3z M117.3,19.4c0.5,1.2,1.2,2.3,2.2,3.2
	c1.2-0.9,2.7-2.1,3.4-2.8l2.2,2c-0.1,0.1-0.2,0.2-0.4,0.2c-0.1,0-0.3-0.1-0.5-0.1c-0.9,0.4-2.6,0.9-4.2,1.3c1.5,1.4,3.5,2.4,5.7,2.8
	v0.4c-0.8,0.2-1.5,0.9-1.7,2.1c-3.8-1.6-6.1-4.4-7.3-8.9c-0.7,0.7-1.5,1.4-2.4,2l0.8,0.3c-0.1,0.3-0.4,0.5-0.9,0.6v2.6
	c1.5-0.1,3-0.3,4.6-0.5l0.1,0.5c-1.7,0.6-4.2,1.6-7.7,2.7c-0.1,0.4-0.4,0.6-0.7,0.7l-1.3-2.9c0.7,0,1.7-0.1,3-0.2v-2.5
	c-1.3,0.7-2.7,1.2-4.1,1.7l-0.3-0.5c2.4-1.2,4.6-2.9,6.1-4.7h-5.2l-0.1-0.4c-0.2,0.1-0.5,0.2-0.8,0.3v7.3c0,0.1-0.6,0.7-2.1,0.7
	v-1.9h-3.4v2.2c0,0.1-0.3,0.8-2.1,0.8V17l2.2,1h3l0.9-1.3l2.6,2l-0.1,0.1h4v-2.1h-2.7l-0.2-0.7h2.9v-1.9h-3.5l-0.2-0.7h3.7v-2.3
	l3.1,0.3c0,0.4-0.3,0.6-1,0.6v1.3h3.8v-2.3l3.1,0.3c-0.1,0.4-0.3,0.6-1,0.6v1.4h0.9l1.1-1.5l2.2,1.6c-0.2,0.5-0.5,0.6-1.3,0.6h-2.9
	V16h0.5l1.1-1.5l2.2,1.6c-0.3,0.4-0.6,0.6-1.3,0.6h-2.5v2.1h1.4l1.2-1.6l2.3,1.7c-0.2,0.5-0.5,0.6-1.3,0.6H117.3L117.3,19.4z
	 M102.2,24.7h3.4v-6h-3.4V24.7z M109.2,3.9L109,3.3h6.7V0.1l3.5,0.3c-0.1,0.5-0.3,0.7-1.3,0.8v2h3.5l1.4-1.9l2.6,2
	c-0.2,0.4-0.6,0.6-1.3,0.6L109.2,3.9L109.2,3.9z M116.1,10.2c0,0.2-0.9,0.6-1.5,0.6h-0.3V10h-2.2v0.8c0,0-0.3,0.6-1.8,0.6V5l1.9,0.9
	h1.8l0.8-1.1l2.2,1.7c-0.1,0.2-0.5,0.4-1,0.5L116.1,10.2L116.1,10.2z M112.1,9.3h2.2V6.6h-2.2V9.3z M114.9,14.1V16h3.8v-1.9H114.9z
	 M118.7,16.7h-3.8v2.1h3.8V16.7z M123.9,10.2c0,0.2-1,0.6-1.6,0.6h-0.3V10h-2.4v0.5c0,0-0.3,0.6-1.8,0.6V5l1.9,0.9h2l0.8-1.1
	l2.3,1.7c-0.2,0.2-0.6,0.4-1,0.5V10.2L123.9,10.2z M119.5,9.3h2.4V6.6h-2.4V9.3z"/>
<path class="st0" d="M134.4,18.3c-0.1,0.4-0.3,0.5-0.9,0.6c-0.7,2.8-1.7,5.5-3,7.2l-0.5-0.2c0.7-1.9,1.3-5.1,1.6-8.1L134.4,18.3z
	 M130.2,5.1c0.9,0.2,1.6,0.5,2.2,0.9c0.6-1.7,1.3-4,1.9-6l3.2,1.2c-0.1,0.4-0.4,0.5-1.1,0.5c-1,1.6-2.2,3.4-3.3,4.7
	c0.8,0.7,1.1,1.4,1.1,2c0,0.8-0.5,1.4-1.1,1.4c-0.3,0-0.6-0.1-0.9-0.4c-0.2-1.4-1.3-3.1-2.3-4.1L130.2,5.1L130.2,5.1z M137.3,10.8
	c2.8,1.4,3.6,3,3.6,4.2c0,0.9-0.5,1.6-1.2,1.6c-0.3,0-0.6-0.1-0.9-0.5c0-0.6-0.2-1.3-0.4-2l-1.7,0.4v13.4c0,0.2-0.7,0.7-1.8,0.7
	h-0.3V15c-0.9,0.2-1.9,0.4-2.9,0.6c-0.2,0.4-0.5,0.6-0.7,0.6l-0.9-2.7c0.6,0,1.6,0,2.8,0c1.6-3,3.5-7,4.6-9.8l3.1,1.5
	c-0.1,0.2-0.3,0.3-0.7,0.3c-0.1,0-0.3,0-0.5-0.1c-1.4,2.3-3.6,5.5-5.8,8.1c1.3,0,2.9-0.1,4.5-0.2c-0.3-0.9-0.8-1.7-1.2-2.3
	L137.3,10.8L137.3,10.8z M137.8,17.6c2.3,1.5,3,3.1,3,4.3c0,1-0.6,1.7-1.2,1.7c-0.3,0-0.6-0.2-0.9-0.5c0.1-1.7-0.5-4-1.2-5.4
	L137.8,17.6z M140,23.9c1.2-0.6,4-2.2,6.7-3.9l0.2,0.4c-1.1,1.2-2.7,3-4.8,5.2c0,0.4-0.2,0.7-0.5,0.9L140,23.9L140,23.9z
	 M149.2,12.1c0.4,2.5,1.1,4.4,2,6.1c1-1.6,2.1-3.6,2.6-4.7l2.6,1.7c-0.1,0.2-0.2,0.2-0.5,0.2c-0.1,0-0.2,0-0.4-0.1
	c-0.9,0.9-2.5,2.3-4,3.4c1.4,2.5,3.3,4.2,5.3,5.4l-0.1,0.3c-0.9,0.2-1.6,1-1.9,2.2c-2.9-2.8-4.7-6.2-5.6-12.6h0v11.2
	c0,1.8-0.4,3-2.9,3.3c0-1.8-0.4-2.2-2.3-2.5v-0.4h2.6c0.3,0,0.4-0.1,0.4-0.5V12.1h-6.8l-0.2-0.7h9.8l0.5-3.2h-5.5
	c-0.1,0.5-0.2,1-0.3,1.4c-0.3,0.2-0.7,0.3-1.1,0.3c-0.3,0-0.7-0.1-1.1-0.2c0.6-2.3,1.6-7.5,1.8-9.7l3.2,0.4
	c-0.1,0.4-0.3,0.6-1.1,0.7c-0.1,0.5-0.2,1.3-0.4,2.2h5l1.1-1.2l2.2,2c-0.2,0.2-0.5,0.3-1,0.4l-1,7h1.2l1.3-2l2.4,2.1
	c-0.2,0.4-0.6,0.6-1.4,0.6L149.2,12.1L149.2,12.1z M142,13.9c2.6,1.2,3.5,2.7,3.5,3.7c0,0.9-0.5,1.5-1.1,1.5c-0.3,0-0.6-0.1-0.9-0.5
	c-0.1-1.5-0.8-3.4-1.7-4.6L142,13.9L142,13.9z M145.5,4c-0.2,1.2-0.5,2.4-0.7,3.5h5.5l0.5-3.5H145.5z"/>
<path class="st0" d="M166.6,9.7v10.3c1.4-0.3,3-0.7,4.5-1.1l0.1,0.4c-1.8,1-4.5,2.5-8.2,4.3c-0.1,0.4-0.4,0.7-0.7,0.8l-1.4-3.2
	c0.8-0.1,2-0.4,3.5-0.7V9.7h-3.2L161,9h3.4V0.9l3.5,0.3c0,0.5-0.4,0.7-1.3,0.8V9h1l1.2-2.1l2.3,2.1c-0.2,0.4-0.6,0.6-1.3,0.6H166.6
	L166.6,9.7z M186.4,20.9l-0.1,4.4c1.1,0.4,1.2,0.5,1.2,0.9c0,1.1-0.9,1.5-4.2,1.5h-7.6c-3.1,0-3.9-0.7-3.9-3.7V13.4l-2.9,1.4
	l-0.4-0.5l3.3-1.7V3.1l3.4,0.3c-0.1,0.5-0.3,0.6-1.2,0.8v7.4l3.5-1.7V0.1l3.4,0.3c-0.1,0.5-0.3,0.7-1.2,0.8v7.6l3.3-1.7l1-1.9
	l2.9,1.7c-0.2,0.3-0.7,0.7-1.3,0.8v9.8c0,1.6-0.4,2.8-3,3c0-1.7-0.1-2.1-1.7-2.3v-0.3h2c0.4,0,0.5-0.1,0.5-0.4V7.6l-3.6,1.8V21
	c0,0.1-0.4,0.8-2.2,0.8V10.6l-3.5,1.8v11.8c0,1.2,0.2,1.4,1.6,1.4h7.7c0.6,0,1-0.1,1.3-0.5c0.3-0.4,0.8-2.1,1.3-4.2H186.4
	L186.4,20.9z"/>
<path class="st0" d="M222.4,4.5c-0.2,0.2-0.6,0.5-1.2,0.6v13.3c0,0.1-0.6,0.7-2.1,0.7v-2.4h-3.3v3.4c0,0-0.2,0.9-2,0.9V2.8l2.1,1
	h2.9l0.9-1.3L222.4,4.5L222.4,4.5z M215.8,16.1h3.3V4.5h-3.3V16.1z M236.8,24.7l2.8,2.1c-0.3,0.5-0.6,0.6-1.4,0.6h-17.6l-0.2-0.7
	h14.9L236.8,24.7L236.8,24.7z M235.6,7.9c0.1-0.7,0.4-1.9,0.5-2.9h-11.2c0.1,1.7-0.5,3.4-2.1,3.4c-0.6,0-1.1-0.4-1.1-1
	c0-0.5,0.4-1,0.9-1.3c0.8-0.5,1.5-1.9,1.4-3.2h0.5c0.1,0.5,0.3,1,0.3,1.4h4.1V0l3.4,0.3c0,0.4-0.3,0.6-1.1,0.7v3.2h4.6l1.2-1.3
	l2.2,2.4c-0.2,0.2-0.5,0.3-1.1,0.3c-0.6,0.7-1.6,1.9-2.3,2.5L235.7,8l1.2,0.9c-0.2,0.5-0.5,0.6-1.3,0.6h-12l-0.2-0.7h9.5l1.4-1.8
	L235.6,7.9L235.6,7.9z M236,23.4c0,0.2-1.1,0.7-1.9,0.7h-0.4v-1.5h-7.3v1.2c0,0-0.3,0.9-2.2,0.9V11.6l2.3,1.1h6.9l1-1.3l2.7,2
	c-0.2,0.2-0.6,0.5-1.2,0.6V23.4L236,23.4z M233.8,13.3h-7.3v4h7.3V13.3z M226.5,21.9h7.3v-4h-7.3V21.9z"/>
<path class="st0" d="M253.3,22.4l0.8-1.1l2.4,1.8c-0.1,0.2-0.5,0.4-0.9,0.5v3.9c0,0.1-0.6,0.6-2.1,0.6v-1.2h-4.6v0.9
	c0,0-0.3,0.7-2,0.7v-6.1c-1,0.2-2,0.3-3,0.5l-0.1-0.5c3.2-0.9,7.2-2.5,9.2-3.8l2.2,2c-0.1,0.1-0.3,0.2-0.6,0.2s-0.5-0.1-0.9-0.2
	c-1.4,0.5-3.4,1.1-5.4,1.5l0.8,0.4L253.3,22.4L253.3,22.4z M267.9,6l2.5,1.7c-0.2,0.4-0.6,0.6-1.3,0.6h-10.3
	c-0.5,0.6-1.1,1.3-1.7,1.8h7.1l1-1.3l2.7,2c-0.2,0.2-0.6,0.5-1.2,0.6v7.2c0,0.1-0.6,0.7-2.2,0.7v-0.9h-14.6v0.4
	c0,0.1-0.4,0.9-2.2,0.9V9.1l2.4,1.1h5.8c0.1-0.6,0.3-1.2,0.4-1.8h-12l-0.2-0.7h22.6L267.9,6z M249,5.7v0.5c0,0-0.3,0.7-2,0.7V0.5
	l2.2,1h4.2l0.8-1.2l2.5,1.9c-0.2,0.2-0.6,0.5-1.1,0.5V6c0,0.1-0.6,0.6-2,0.6v-1H249L249,5.7z M248.9,26.2h4.6v-3.1h-4.6V26.2z
	 M253.6,2.2H249V5h4.6V2.2z M264.4,10.9h-14.6v1.8h14.6V10.9z M249.8,13.4v1.9h14.6v-1.9H249.8z M249.8,17.8h14.6v-1.9h-14.6V17.8z
	 M260.6,5.7v0.4c0,0-0.4,0.7-2.1,0.7V0.5l2.2,1h4.4l0.9-1.2l2.6,1.9c-0.2,0.2-0.6,0.5-1.1,0.6v3.1c0,0.1-0.6,0.7-2.1,0.7V5.7H260.6
	L260.6,5.7z M266,21.5c-1.6-0.7-3.6-1.3-6-1.7l0.1-0.5c8,0.2,10.2,2,10.2,3c0,0.5-0.4,0.8-1,0.8c-0.3,0-0.6-0.1-0.9-0.3
	c-0.3-0.2-0.6-0.4-1-0.6l1.3,0.9c-0.1,0.2-0.5,0.5-1,0.5v3.9c0,0.1-0.6,0.7-2.1,0.7v-1.2h-4.8v0.8c0,0-0.3,0.7-2,0.7v-7l2.2,1h4.5
	L266,21.5z M265.4,2.2h-4.8V5h4.8V2.2L265.4,2.2z M260.7,26.3h4.8v-3.1h-4.8V26.3z"/>
<path class="st0" d="M298.4,24l3.1,2.3c-0.3,0.4-0.6,0.6-1.4,0.6h-25l-0.2-0.7h4.4V7.7l3.6,0.4c-0.1,0.5-0.4,0.7-1.3,0.8v17.4h5.8
	V0.1l3.6,0.4c-0.1,0.5-0.4,0.7-1.3,0.8v10.4h5.1l1.6-2.2l3,2.3c-0.2,0.4-0.6,0.6-1.4,0.6h-8.4v13.9h7.1L298.4,24L298.4,24z"/>
<path class="st0" d="M329.6,8.3l2.9,2.2c-0.2,0.4-0.6,0.6-1.4,0.6h-9.6c-0.1,0.2-0.3,0.4-1.1,0.5v7.3c0,1.8-0.4,3-3.3,3.3
	c0-1.8-0.9-2.1-2.9-2.3v-0.5h3.4c0.4,0,0.5-0.1,0.5-0.5V11h-12l-0.2-0.7h4.7V2.5l3.4,0.3c-0.1,0.4-0.3,0.6-1.1,0.7v6.8h5.2V0
	l3.6,0.4c0,0.5-0.3,0.7-1.3,0.8v3.5h5.2l1.5-2l2.8,2.1c-0.2,0.5-0.6,0.6-1.4,0.6h-8.1v5h7.7L329.6,8.3L329.6,8.3z M306.3,20.4
	c2.5-2.1,4.8-5.4,5.9-7.8l3.1,1.7c-0.1,0.2-0.3,0.4-0.7,0.4c-0.1,0-0.3,0-0.4,0c-1.6,2.2-4.5,4.7-7.7,6.2L306.3,20.4L306.3,20.4z
	 M330.2,15.5c-0.1,0.2-0.3,0.4-0.7,0.4c-0.1,0-0.3,0-0.5-0.1c-5.6,9.4-11.8,11.6-20.7,12.8l-0.1-0.5c8-1.8,14.2-4.6,18.9-14.4
	L330.2,15.5L330.2,15.5z"/>
</svg>
