<?xml version="1.0" encoding="utf-8"?>
<!-- Generator: Adobe Illustrator 27.0.0, SVG Export Plug-In . SVG Version: 6.00 Build 0)  -->
<svg version="1.1" id="圖層_1" xmlns="http://www.w3.org/2000/svg" xmlns:xlink="http://www.w3.org/1999/xlink" x="0px" y="0px"
	 viewBox="0 0 400 25" style="enable-background:new 0 0 400 25;" xml:space="preserve">
<style type="text/css">
	.st0{clip-path:url(#SVGID_00000072998211116264742340000002173567799936978844_);}
	.st1{fill:#D8B167;}
	.st2{fill:#FFFFFF;stroke:#FFFFFF;stroke-width:0.11;stroke-miterlimit:10;}
	.st3{fill:#FFFFFF;}
	.st4{fill:url(#SVGID_00000113313353270476963730000009873803246897640894_);}
</style>
<g>
	<defs>
		<rect id="SVGID_1_" x="99.5" width="200.9" height="24"/>
	</defs>
	<clipPath id="SVGID_00000154426421193105284940000006571602858162654137_">
		<use xlink:href="#SVGID_1_"  style="overflow:visible;"/>
	</clipPath>
	<g style="clip-path:url(#SVGID_00000154426421193105284940000006571602858162654137_);">
		<path class="st1" d="M99.6,24L99.6,24C99.5,24,99.5,24,99.6,24z"/>
		<path class="st1" d="M116,22.1v-7.3c3.8,3,3.6,8.2,3.6,8.2c1.1-5-3-8.7-3-8.7c-0.2-0.2-0.4-0.4-0.6-0.5V1.7l-1.4,1.1V13
			c-0.2-0.1-0.3-0.2-0.5-0.3V3.3l-1.4,1v7.9c-0.1,0-0.3-0.1-0.4-0.1V4.7l-1.4,1v6.1c-0.4,0-0.7,0-1,0V4.7l-1.4-1v8.3
			c-0.2,0.1-0.4,0.1-0.6,0.1l0-8.9l-1.3-1v10.5c-0.2,0.1-0.4,0.2-0.5,0.2V1.8l-1.4-1.1v13.1c-4.7,3.4-3.6,9.3-3.6,9.4
			c-0.6,0.2-1.1,0.5-1.7,0.8c0.7-0.4,9-4.1,21.8,0C121.4,24,119.3,22.9,116,22.1z M114.7,13.9v7.9c-0.2,0-0.3-0.1-0.5-0.1v-8.1
			C114.3,13.7,114.5,13.8,114.7,13.9L114.7,13.9z M112.8,13.2v8.4c-0.1,0-0.3,0-0.4,0v-8.4C112.5,13.1,112.6,13.1,112.8,13.2
			L112.8,13.2z M108.6,13.1v8.4c-0.2,0-0.4,0-0.6,0l0-8.3C108.2,13.2,108.4,13.1,108.6,13.1z M106.8,13.7v8c-0.2,0-0.3,0.1-0.5,0.1
			v-7.8C106.4,13.8,106.6,13.8,106.8,13.7L106.8,13.7z M103.9,15.7c0.3-0.3,0.7-0.6,1-0.9V22c-1.2,0.3-2.4,0.7-3.6,1.2
			C101.4,17.9,103.9,15.7,103.9,15.7z M109.9,21.4v-8.5c0.4,0,0.7,0,1,0v8.5C110.6,21.4,110.3,21.4,109.9,21.4L109.9,21.4z"/>
		<path class="st2" d="M128.2,11h-1.6v0.8c0,0.1,0,0.1,0,0.1c0,0-0.1,0.1-0.2,0.2c-0.1,0.1-0.3,0.2-0.5,0.2s-0.3,0.1-0.3,0.1
			s-0.1,0,0-0.1c0-0.4,0.1-0.9,0.1-1.4V4.2c0-0.4,0-0.8,0-1.2c0.7,0.3,1.2,0.6,1.4,0.8h1.2l0.3-0.5c0.1-0.1,0.1-0.1,0.1-0.1
			c0.1,0,0.3,0.1,0.6,0.4s0.5,0.5,0.5,0.6c0,0.1-0.2,0.2-0.5,0.3v5.6l0,1.2v0.2c-0.3,0.2-0.5,0.4-0.7,0.4c-0.2,0.1-0.3,0.1-0.3,0.1
			s-0.1-0.1-0.1-0.2L128.2,11L128.2,11z M126.6,7.3h1.6V4.3h-1.6V7.3z M126.6,10.6h1.6V7.7h-1.6V10.6z M131.6,3.7h1.7l0.3-0.6
			c0.1-0.1,0.1-0.2,0.2-0.2s0.2,0.1,0.4,0.3l0.5,0.4c0.1,0.1,0.2,0.2,0.2,0.3c0,0.1-0.2,0.2-0.6,0.4v8.6c0,0.6,0,1-0.1,1.2
			c-0.1,0.2-0.3,0.4-0.6,0.6c-0.3,0.2-0.6,0.3-0.6,0.3c-0.1,0-0.1-0.1-0.2-0.3s-0.1-0.4-0.2-0.5c-0.1-0.1-0.2-0.2-0.4-0.4
			c-0.2-0.1-0.5-0.3-0.9-0.5l0-0.2c0.7,0.1,1.2,0.2,1.4,0.2s0.3,0,0.4-0.1c0.1-0.1,0.1-0.2,0.1-0.4V10h-2.3c-0.1,1.4-0.4,2.4-1,3.1
			c-0.6,0.7-1.5,1.3-2.8,1.9l-0.1-0.2c0.6-0.5,1.1-0.9,1.4-1.3c0.4-0.4,0.7-0.8,0.9-1.2c0.2-0.4,0.4-0.8,0.5-1.3
			c0.1-0.5,0.2-1.2,0.2-2.2s0.1-1.9,0.1-2.9s0-2-0.1-2.9C130.7,3.2,131.2,3.4,131.6,3.7L131.6,3.7z M133.4,7.1h-2.1
			c0,0.8-0.1,1.6-0.2,2.5h2.3V7.1z M131.3,6.6h2.1V4.1h-2.1c0,0.3,0,0.6,0,1S131.3,6,131.3,6.6z"/>
		<path class="st2" d="M142.2,4.5c0.2,0.3,0.1,0.4-0.1,0.4h-2.5c0.3,0.2,0.5,0.3,0.7,0.4c0.2,0.1,0.3,0.2,0.4,0.4s0.1,0.2,0.1,0.3
			c0,0.1,0,0.2,0,0.4c-0.1,0.2-0.1,0.3-0.2,0.4c-0.1,0.1-0.2,0.2-0.3,0.2c-0.1,0-0.2,0-0.3,0c-0.1,0-0.1-0.1-0.2-0.3
			c-0.1-0.3-0.1-0.6-0.2-0.9c-0.1-0.3-0.2-0.6-0.4-0.8h-0.3c-0.1,0.3-0.3,0.5-0.4,0.7c-0.2,0.2-0.3,0.5-0.5,0.7
			c-0.2,0.2-0.4,0.5-0.6,0.7c-0.2,0.2-0.5,0.5-0.8,0.8l-0.2-0.2c0.3-0.5,0.5-0.9,0.7-1.3c0.2-0.4,0.4-0.8,0.6-1.2
			c0.2-0.4,0.3-0.8,0.5-1.2c0.2-0.4,0.3-0.9,0.5-1.5c0.2,0.1,0.4,0.2,0.6,0.2c0.2,0.1,0.4,0.2,0.5,0.3c0.1,0.1,0.2,0.2,0.2,0.2
			c0,0.1-0.1,0.1-0.2,0.2c0,0-0.1,0-0.1,0c0,0-0.1,0.1-0.1,0.1c0,0.1-0.1,0.1-0.2,0.3s-0.2,0.3-0.3,0.5h1.7l0.5-0.7
			c0-0.1,0.1-0.1,0.1-0.1c0,0,0.1,0,0.2,0.1c0.2,0.1,0.3,0.3,0.4,0.4C142,4.2,142.1,4.4,142.2,4.5L142.2,4.5z M141.3,12l-2.8,1.2
			c-0.4,0.2-0.7,0.3-1,0.5c-0.3,0.2-0.4,0.3-0.5,0.3c-0.1,0.1-0.2,0.1-0.2,0c-0.1-0.2-0.2-0.3-0.3-0.5c-0.1-0.2-0.2-0.4-0.2-0.6
			c0.3-0.1,0.7-0.1,1-0.2c0.3-0.1,0.6-0.1,0.9-0.2V8.3h-0.7c-0.1,0-0.2,0-0.3,0c-0.1,0-0.2,0.1-0.2,0.1l-0.3-0.6c0.1,0,0.2,0,0.3,0
			c0.1,0,0.2,0,0.3,0h2.5l0.4-0.8c0.1-0.1,0.2-0.2,0.3-0.1c0.1,0.2,0.2,0.3,0.3,0.5c0.1,0.2,0.2,0.3,0.3,0.3
			c0.2,0.2,0.2,0.4-0.1,0.4h-1.8v3.9l2-0.5L141.3,12z M144,11.7c0,0.4-0.1,0.6-0.3,0.7c-0.1,0-0.1,0-0.2,0s-0.2-0.2-0.3-0.4
			c-0.1-0.1-0.1-0.2-0.2-0.2c-0.1-0.1-0.1-0.1-0.2-0.2c-0.1,0.5-0.2,0.9-0.3,1.2c-0.1,0.3-0.3,0.6-0.6,0.9c-0.3,0.3-0.6,0.5-1,0.8
			c-0.4,0.2-0.9,0.5-1.5,0.7l-0.1-0.2c0.5-0.3,0.9-0.6,1.3-0.9c0.3-0.3,0.6-0.6,0.8-0.9c0.2-0.3,0.3-0.7,0.4-1
			c0.1-0.4,0.1-0.8,0.2-1.4v0c-0.2-0.1-0.4-0.3-0.5-0.4c-0.2-0.1-0.4-0.3-0.6-0.4l0.1-0.2c0.2,0,0.4,0.1,0.6,0.2
			c0.2,0.1,0.3,0.1,0.5,0.2V9.7c0-0.1,0-0.2,0-0.4c0-0.1,0-0.3,0-0.5c0-0.2,0-0.4,0-0.6c-0.1,0-0.2,0-0.3,0c-0.1,0-0.2,0.1-0.2,0.1
			l-0.3-0.6c0.1,0,0.2,0.1,0.3,0.1c0.1,0,0.2,0,0.3,0h2.4l0.3-0.5c0.1-0.1,0.1-0.2,0.2-0.2c0.1,0,0.1,0,0.2,0.1
			c0.2,0.1,0.3,0.2,0.4,0.3c0.1,0.1,0.3,0.2,0.4,0.3c0.1,0.1,0.2,0.2,0.1,0.3c0,0.1-0.2,0.2-0.5,0.3v4.8c0,0.1,0,0.2,0,0.3
			c0,0.1,0,0.1,0.1,0.2s0.1,0.1,0.1,0.1c0.1,0,0.1,0,0.2,0c0.2,0,0.3,0,0.4-0.1c0.1,0,0.2-0.2,0.2-0.3c0.1-0.2,0.1-0.4,0.1-0.8
			c0-0.3,0.1-0.8,0.1-1.3h0.3c0,0.4,0,0.8,0,1c0,0.3,0,0.5,0.1,0.6c0,0.1,0.1,0.3,0.2,0.4c0.1,0.1,0.1,0.1,0.2,0.2
			c0.1,0,0.1,0.1,0.1,0.1c0,0.1,0,0.1,0,0.3c-0.1,0.1-0.1,0.3-0.2,0.4c-0.1,0.1-0.2,0.2-0.3,0.3c-0.1,0.1-0.3,0.1-0.5,0.2
			s-0.5,0.1-0.9,0c-0.3,0-0.5,0-0.6,0c-0.2,0-0.3-0.1-0.4-0.2s-0.1-0.2-0.2-0.4c0-0.2,0-0.4,0-0.7V8.2H143c0,0.2,0,0.6,0,0.9
			c0,0.4,0,0.8,0,1.2c0.4,0.2,0.7,0.4,0.8,0.6C143.9,11.2,144,11.4,144,11.7L144,11.7z M146.9,4.5c0.1,0.1,0.1,0.2,0.1,0.3
			c0,0.1-0.1,0.1-0.2,0.1h-2.7c0.3,0.1,0.5,0.3,0.7,0.4c0.2,0.1,0.3,0.2,0.4,0.3s0.1,0.2,0.1,0.3c0,0.1,0,0.2,0,0.3
			c0,0.1-0.1,0.2-0.1,0.3s-0.1,0.2-0.2,0.2c-0.1,0.1-0.1,0.1-0.2,0.2C144.6,7,144.6,7,144.5,7s-0.1,0-0.1-0.1c0,0-0.1-0.1-0.1-0.2
			c-0.1-0.3-0.1-0.7-0.2-1s-0.2-0.6-0.4-0.8h-0.5c-0.1,0.3-0.3,0.5-0.4,0.7c-0.1,0.2-0.3,0.4-0.4,0.6c-0.2,0.2-0.3,0.4-0.5,0.6
			c-0.2,0.2-0.4,0.4-0.7,0.7l-0.2-0.2c0.3-0.4,0.5-0.9,0.8-1.2c0.2-0.4,0.4-0.8,0.6-1.2s0.3-0.8,0.4-1.1c0.1-0.4,0.2-0.8,0.3-1.2
			c0.3,0.1,0.5,0.2,0.7,0.3c0.2,0.1,0.4,0.2,0.5,0.3c0.1,0.1,0.2,0.2,0.2,0.3c0,0.1-0.1,0.1-0.3,0.2c0,0-0.1,0-0.1,0
			c0,0-0.1,0.1-0.1,0.1c-0.1,0.1-0.1,0.2-0.2,0.3c-0.1,0.1-0.2,0.3-0.3,0.5h1.9l0.4-0.8c0.1-0.1,0.1-0.1,0.2-0.2
			c0.1,0,0.1,0,0.2,0.1c0.2,0.1,0.3,0.3,0.5,0.4C146.7,4.2,146.8,4.4,146.9,4.5L146.9,4.5z"/>
		<path class="st2" d="M150.3,4.6h-1.6c-0.1,0-0.2,0-0.3,0c-0.1,0-0.2,0-0.2,0.1L148,4.1c0.1,0,0.2,0,0.3,0c0.1,0,0.2,0,0.3,0h1.5
			l0.4-0.6c0.1-0.1,0.1-0.1,0.1-0.1c0,0,0.1,0,0.2,0.1c0.2,0.1,0.3,0.3,0.4,0.4c0.1,0.1,0.2,0.2,0.3,0.3c0.1,0.1,0.1,0.2,0.1,0.4
			c0,0.1-0.2,0.2-0.5,0.3l-1.4,2.8h0.8l0.3-0.4c0-0.1,0.1-0.1,0.1-0.1c0,0,0.1,0,0.1,0.1c0.1,0.1,0.3,0.2,0.4,0.3
			c0.1,0.1,0.3,0.2,0.4,0.3c0.2,0.2,0.2,0.3-0.1,0.4c-0.1,0-0.2,0.1-0.2,0.2c0,0.1-0.1,0.2-0.1,0.4c-0.1,0.7-0.2,1.3-0.4,1.8
			c-0.1,0.6-0.3,1-0.5,1.4c0.3,0.2,0.5,0.4,0.8,0.6c0.3,0.2,0.6,0.3,0.9,0.4c0.3,0.1,0.7,0.2,1.1,0.3c0.4,0.1,0.9,0.1,1.4,0.1
			c0.5,0,1.1,0,1.8,0s1.5-0.1,2.4-0.2v0.3c-0.2,0.1-0.5,0.1-0.6,0.2c-0.2,0.1-0.3,0.1-0.4,0.2s-0.2,0.2-0.3,0.3
			c-0.1,0.1-0.1,0.2-0.2,0.4c0,0.1-0.1,0.1-0.1,0.1c0,0-0.1,0-0.2,0c-0.8-0.1-1.4-0.1-2-0.1s-1.1-0.1-1.5-0.2s-0.8-0.1-1.2-0.2
			c-0.3-0.1-0.6-0.2-0.9-0.3s-0.5-0.3-0.7-0.4s-0.4-0.4-0.7-0.6c-0.1,0.2-0.3,0.4-0.4,0.6c-0.1,0.2-0.3,0.4-0.5,0.5
			c-0.2,0.2-0.4,0.3-0.6,0.5c-0.2,0.2-0.5,0.4-0.9,0.6l-0.1-0.2c0.3-0.3,0.5-0.5,0.7-0.7c0.2-0.2,0.4-0.4,0.6-0.6s0.3-0.4,0.4-0.6
			c0.1-0.2,0.2-0.5,0.4-0.7c-0.2-0.3-0.4-0.8-0.6-1.2c-0.2-0.5-0.3-1.1-0.4-1.8l0.2-0.1c0.1,0.3,0.2,0.6,0.3,0.8
			c0.1,0.2,0.2,0.4,0.3,0.6c0.1,0.2,0.2,0.3,0.2,0.5s0.2,0.2,0.2,0.3c0.2-0.5,0.3-1,0.4-1.5c0.1-0.5,0.2-1.1,0.2-1.8h-1.1l-0.1,0.3
			c0,0.1-0.1,0.1-0.1,0.1s-0.1,0.1-0.1,0.1c-0.2,0-0.3,0-0.3,0c-0.1,0-0.2,0-0.3,0c-0.1,0-0.2-0.1-0.1-0.2c0.1-0.2,0.3-0.4,0.4-0.7
			s0.3-0.5,0.4-0.8L150.3,4.6L150.3,4.6z M158.8,5.8c0.1,0.2,0.2,0.3,0.2,0.3c0,0.1-0.1,0.1-0.2,0.1h-1.5v0.7c0,0.2,0,0.3,0,0.4
			c0,0.1,0,0.2,0,0.3c0,0.1,0,0.1,0,0.2c0,0.1,0,0.2,0,0.2c0,0,0,0.1-0.1,0.1c-0.1,0.1-0.2,0.1-0.3,0.2c-0.1,0.1-0.2,0.1-0.4,0.1
			c-0.1,0-0.2,0-0.2,0c0,0-0.1-0.1-0.1-0.3h-1.3v1.2h1.1l0.3-0.6c0.1-0.1,0.2-0.1,0.3,0c0.1,0.1,0.3,0.2,0.4,0.3
			c0.1,0.1,0.2,0.2,0.3,0.3c0.2,0.2,0.2,0.4-0.1,0.4h-2.4v1.2h1.9l0.3-0.6c0.1-0.1,0.2-0.2,0.2-0.2c0,0,0.1,0,0.2,0.1
			c0.1,0.1,0.3,0.2,0.4,0.4c0.1,0.1,0.2,0.2,0.3,0.3c0.1,0.2,0.2,0.3,0.2,0.3c0,0.1-0.1,0.1-0.3,0.1h-3.2c0,0.2,0,0.5,0,0.8
			s0,0.6,0,0.8c0,0.1,0,0.2,0,0.2c0,0,0,0.1-0.1,0.1c-0.1,0.1-0.2,0.1-0.4,0.2c-0.1,0-0.2,0.1-0.4,0.1c-0.1,0-0.1,0-0.1-0.2
			c0-0.3,0-0.7,0-1.1c0-0.4,0-0.7,0-1h-1.9c-0.1,0-0.2,0-0.3,0c-0.1,0-0.2,0-0.2,0.1l-0.2-0.6c0.1,0,0.2,0.1,0.3,0.1
			c0.1,0,0.2,0,0.3,0h2V9.6h-1.4c-0.1,0-0.2,0-0.3,0c-0.1,0-0.2,0-0.2,0.1L152,9.1c0.1,0,0.2,0.1,0.3,0.1c0.1,0,0.2,0,0.3,0h1.5V7.9
			H153c-0.1,0-0.2,0-0.3,0c-0.1,0-0.2,0-0.2,0.1l-0.2-0.6c0.1,0,0.2,0,0.3,0.1c0.1,0,0.2,0,0.3,0h1.3V6.2H152c-0.1,0-0.2,0-0.3,0
			c-0.1,0-0.2,0-0.2,0.1l-0.2-0.6c0.1,0,0.2,0,0.3,0s0.2,0,0.3,0h2.2V4.6h-1.2c-0.1,0-0.2,0-0.3,0c-0.1,0-0.2,0-0.2,0.1l-0.2-0.6
			c0.1,0,0.2,0,0.3,0c0.1,0,0.2,0,0.3,0h1.3V3.4c0-0.2,0-0.4,0-0.5c0-0.1,0-0.3,0-0.4c0-0.1,0-0.2,0-0.3c0.2,0.1,0.4,0.1,0.6,0.2
			c0.2,0,0.4,0.1,0.6,0.2c0.1,0,0.2,0.1,0.1,0.2c0,0.1-0.1,0.2-0.4,0.3v1.2h1.2l0.2-0.5c0-0.1,0.1-0.1,0.1-0.1c0,0,0.1,0,0.2,0.1
			c0.1,0.1,0.3,0.2,0.4,0.3c0.1,0.1,0.2,0.2,0.3,0.3c0.1,0.1,0.1,0.2,0.1,0.2c0,0.1-0.1,0.2-0.4,0.3v0.9h0.3l0.3-0.8
			c0.1-0.1,0.1-0.2,0.1-0.2c0,0,0.1,0,0.2,0.1c0.2,0.2,0.3,0.3,0.4,0.4C158.7,5.6,158.8,5.7,158.8,5.8L158.8,5.8z M156.3,4.7h-1.3
			v1.2h1.3V4.7z M156.3,6.2h-1.3v1.3h1.3V6.2z"/>
		<path class="st2" d="M170.2,9.4c-0.1,0.1-0.2,0.2-0.3,0.3c-0.1,0.1-0.2,0.1-0.3,0.2s-0.2,0.1-0.3,0.1c-0.1,0-0.3,0-0.5,0
			c-0.3,0-0.6,0-0.8,0s-0.3-0.1-0.4-0.1c-0.1-0.1-0.2-0.2-0.2-0.3c0-0.1,0-0.3,0-0.5v-2h-0.8c0,0.2,0,0.5-0.1,0.6
			c0,0.2-0.1,0.4-0.2,0.6c0.2,0.1,0.3,0.2,0.4,0.2c0.1,0.1,0.2,0.1,0.2,0.2c0.1,0.2,0.1,0.3,0.1,0.5c0,0.1-0.1,0.2-0.3,0.3
			c-0.2,0.1-0.4,0-0.6-0.3c0,0-0.1-0.1-0.1-0.1c0-0.1-0.1-0.1-0.1-0.1c-0.1,0.2-0.2,0.3-0.5,0.5c-0.2,0.2-0.5,0.4-0.8,0.5
			c0.2,0.1,0.3,0.1,0.4,0.1c0.1,0,0.2,0.1,0.4,0.1c0.2,0,0.2,0.1,0.2,0.2c0,0.1-0.1,0.1-0.2,0.3v0.5h2.9l0.4-0.7
			c0.1-0.1,0.1-0.2,0.2-0.2c0.1,0,0.1,0,0.2,0.1c0.1,0.1,0.3,0.2,0.4,0.4c0.1,0.1,0.2,0.2,0.3,0.4c0.1,0.1,0.2,0.2,0.2,0.3
			c0,0.1-0.1,0.1-0.3,0.1h-3.8c0.3,0.4,0.6,0.7,0.9,0.9c0.3,0.2,0.6,0.4,0.9,0.6c0.3,0.1,0.7,0.3,1.1,0.4c0.4,0.1,0.9,0.2,1.5,0.3
			v0.3c-0.2,0-0.4,0-0.5,0.1c-0.1,0-0.2,0.1-0.3,0.1c-0.1,0-0.1,0.1-0.2,0.2c0,0.1-0.1,0.2-0.1,0.3c0,0.1-0.1,0.1-0.1,0.1
			c0,0-0.1,0-0.2,0c-0.4-0.1-0.7-0.2-1-0.4c-0.3-0.1-0.6-0.3-0.8-0.6c-0.2-0.2-0.5-0.5-0.7-0.9s-0.5-0.8-0.7-1.2h-0.2V13
			c0,0.3,0,0.6,0,0.8c0,0.2,0,0.5,0,0.7c0,0.1,0,0.2-0.1,0.2c-0.1,0.1-0.3,0.2-0.4,0.2c-0.1,0.1-0.3,0.1-0.4,0.1
			c-0.1,0-0.1,0-0.1-0.1c0-0.2,0-0.4,0-0.5c0-0.2,0-0.3,0-0.4c0-0.1,0-0.3,0-0.4v-2c-0.3,0.4-0.7,0.8-1,1.1s-0.6,0.5-0.9,0.8
			s-0.7,0.4-1.2,0.6c-0.4,0.2-1,0.4-1.6,0.6l-0.1-0.2c0.6-0.3,1-0.6,1.4-0.8c0.4-0.2,0.7-0.4,1-0.7c0.3-0.2,0.5-0.5,0.8-0.8
			c0.2-0.3,0.5-0.6,0.8-1h-3c-0.1,0-0.2,0-0.3,0.1c-0.1,0-0.2,0.1-0.2,0.1l-0.2-0.6c0.1,0,0.2,0,0.3,0.1c0.1,0,0.2,0,0.3,0h3.9
			c0-0.1,0-0.3,0-0.5c0-0.2,0-0.4,0-0.5c-0.3,0.2-0.8,0.4-1.2,0.5l-0.1-0.2c0.3-0.1,0.6-0.3,0.8-0.5s0.5-0.3,0.7-0.5
			c0.2-0.2,0.4-0.4,0.5-0.5c0.1-0.2,0.2-0.3,0.3-0.5c-0.1-0.1-0.3-0.2-0.4-0.3c-0.1-0.1-0.3-0.2-0.5-0.3l0-0.2c0.2,0,0.4,0,0.6,0.1
			c0.1,0,0.3,0.1,0.4,0.1c0-0.2,0.1-0.3,0.1-0.4c0-0.1,0-0.3,0-0.5h-0.1c-0.2,0-0.3,0-0.4,0c-0.1,0-0.2,0-0.3,0.1l-0.4-0.5
			c0.2,0,0.3,0,0.4,0s0.2,0,0.4,0h1.8l0.3-0.3c0,0-0.1-0.1-0.1-0.1c0-0.1,0-0.2-0.1-0.3c0-0.1-0.1-0.2-0.1-0.3
			c-0.1-0.1-0.1-0.2-0.2-0.3c-0.1-0.1-0.1-0.2-0.2-0.4h-0.6c-0.2,0.3-0.5,0.6-0.7,0.8s-0.5,0.5-0.7,0.7l-0.2-0.2
			c0.2-0.3,0.4-0.7,0.6-0.9c0.2-0.3,0.3-0.6,0.4-0.8c0.1-0.3,0.2-0.5,0.4-0.8c0.1-0.3,0.2-0.6,0.3-1c0.1,0.1,0.2,0.1,0.3,0.2
			c0.1,0,0.2,0.1,0.2,0.1c0.1,0,0.1,0.1,0.2,0.1c0.1,0,0.1,0.1,0.2,0.1c0.2,0.1,0.2,0.3,0,0.3c0,0-0.1,0-0.1,0.1s-0.1,0.1-0.1,0.2
			c-0.1,0.1-0.1,0.2-0.2,0.3c-0.1,0.1-0.2,0.3-0.3,0.5h2l0.4-0.8c0.1-0.1,0.1-0.2,0.2-0.2c0,0,0.1,0,0.2,0.1
			c0.2,0.2,0.3,0.3,0.4,0.4c0.1,0.1,0.2,0.3,0.4,0.4c0.1,0.1,0.1,0.2,0.1,0.2c0,0.1-0.1,0.1-0.2,0.1h-2.7c0.4,0.1,0.6,0.2,0.7,0.3
			c0.1,0.1,0.2,0.2,0.2,0.3s0,0.3-0.1,0.4C168.1,5.9,168,6,168,6.1l0.6,0.4c0.1,0.1,0.1,0.2,0,0.3l-0.3,0.2v1.6c0,0.2,0,0.4,0.1,0.4
			c0,0.1,0.2,0.1,0.4,0.1c0.1,0,0.3,0,0.4-0.1c0.1,0,0.2-0.1,0.2-0.2c0.1-0.1,0.1-0.3,0.1-0.5c0-0.2,0.1-0.5,0.1-0.9h0.2
			c0,0.3,0,0.6,0,0.7c0,0.2,0,0.3,0.1,0.5c0,0.1,0.1,0.2,0.1,0.3C170,9,170,9,170.1,9.1C170.3,9.1,170.3,9.2,170.2,9.4L170.2,9.4z
			 M165.2,4.4c0.1,0.1,0.1,0.2,0.1,0.2c0,0.1-0.1,0.1-0.2,0.1h-2.2c0.4,0.1,0.6,0.3,0.7,0.5c0.1,0.2,0.1,0.3,0.1,0.5
			c-0.1,0.2-0.1,0.3-0.2,0.3c-0.1,0.1-0.2,0.1-0.3,0.1c0,0-0.1,0-0.1,0c0,0,0-0.1-0.1-0.2c-0.1-0.2-0.1-0.4-0.2-0.6
			c-0.1-0.2-0.2-0.4-0.3-0.6h-0.5c-0.1,0.2-0.3,0.4-0.4,0.6s-0.3,0.4-0.4,0.6s-0.3,0.4-0.5,0.5c-0.2,0.2-0.4,0.4-0.6,0.5L160,6.7
			c0.2-0.3,0.4-0.6,0.6-0.9c0.2-0.3,0.3-0.6,0.5-0.9c0.2-0.3,0.3-0.7,0.5-1.1c0.2-0.4,0.3-0.9,0.5-1.4c0.2,0.1,0.4,0.2,0.5,0.3
			c0.1,0.1,0.3,0.2,0.4,0.3c0.1,0.1,0.2,0.1,0.2,0.2c0,0.1-0.1,0.1-0.3,0.1c-0.1,0-0.1,0.1-0.2,0.2c-0.1,0.1-0.2,0.4-0.4,0.7h1.6
			l0.4-0.6c0.1-0.1,0.1-0.2,0.2-0.2s0.1,0,0.2,0.1c0.2,0.1,0.3,0.3,0.4,0.4C165.1,4.1,165.2,4.3,165.2,4.4L165.2,4.4z M164.6,6.6
			c0.1,0.1,0.1,0.2,0.1,0.2c0,0-0.1,0.1-0.2,0.1h-1.3v2l1.3-0.2l0.1,0.3l-2.7,1c-0.2,0.1-0.3,0.1-0.5,0.2c-0.1,0.1-0.3,0.1-0.4,0.2
			c-0.1,0-0.1,0.1-0.1,0c0,0-0.1-0.1-0.1-0.1c-0.1-0.2-0.1-0.3-0.2-0.5c-0.1-0.1-0.1-0.3-0.2-0.6c0.2,0,0.3,0,0.5-0.1
			c0.1,0,0.3,0,0.4-0.1c0.1,0,0.3,0,0.5-0.1c0.2,0,0.3-0.1,0.5-0.1V6.8h-0.8c-0.1,0-0.2,0-0.3,0c-0.1,0-0.2,0-0.2,0.1l-0.2-0.6
			c0.1,0,0.2,0,0.3,0.1c0.1,0,0.2,0,0.3,0h2.1l0.2-0.5c0-0.1,0.1-0.1,0.1-0.1c0,0,0.1,0.1,0.2,0.1c0.1,0.1,0.2,0.2,0.3,0.3
			C164.5,6.4,164.5,6.5,164.6,6.6z"/>
		<path class="st2" d="M173.4,3.4h6.8l0.3-0.6c0-0.1,0.1-0.1,0.1-0.1c0.1,0,0.2,0.1,0.4,0.3l0.5,0.4c0.1,0.1,0.2,0.2,0.2,0.3
			c0,0.1-0.1,0.2-0.4,0.4v9.3c0,0.4,0,0.7,0,0.8v0.4c0,0.1,0,0.1,0,0.1c0,0-0.1,0.1-0.2,0.2c-0.1,0.1-0.3,0.2-0.4,0.2
			c-0.1,0.1-0.2,0.1-0.3,0.1s-0.1-0.1-0.1-0.2v-0.8h-6.9v0.2c0,0.1,0,0.2,0,0.2c0,0-0.1,0.1-0.2,0.1c-0.1,0.1-0.2,0.1-0.4,0.2
			c-0.2,0.1-0.3,0.1-0.3,0.1c0,0-0.1-0.1-0.1-0.2c0-0.4,0.1-0.8,0.1-1.3V4c0-0.4,0-0.8,0-1.1C172.8,3.1,173.2,3.3,173.4,3.4
			L173.4,3.4z M180.3,10.9v-7h-7v6.9c0.1,0,0.3,0.1,0.5,0.1h3.7c0-0.3,0-0.6,0-0.9c0.7,0.1,1.1,0.3,1.1,0.4c0,0.1-0.1,0.1-0.1,0.2
			v0.3h0.5l0.4-0.5c0.1-0.1,0.1-0.1,0.2-0.1s0.2,0.1,0.3,0.3C180.1,10.6,180.2,10.7,180.3,10.9L180.3,10.9z M180.3,13.9v-2.8h-1.8
			v1.6c0,0.2-0.1,0.4-0.2,0.6c-0.1,0.1-0.3,0.3-0.5,0.3s-0.4,0.1-0.4,0.1s-0.1-0.1-0.1-0.2c0-0.2-0.1-0.3-0.3-0.4
			c-0.1-0.1-0.4-0.2-0.8-0.4v-0.2c0.4,0.1,0.8,0.1,0.9,0.1c0.2,0,0.3,0,0.3-0.1c0.1,0,0.1-0.1,0.1-0.2v-1.4H174
			c-0.2,0-0.4,0-0.5,0.1l-0.2-0.4v3.1L180.3,13.9L180.3,13.9z M175.1,6.2h1.2V5.4h-2.1c-0.2,0-0.4,0-0.5,0.1L173.5,5
			c0.2,0.1,0.4,0.1,0.6,0.1h2.2c0-0.6,0-1,0-1.1c0.2,0,0.4,0.1,0.7,0.2c0.3,0.1,0.4,0.2,0.4,0.3s-0.1,0.2-0.2,0.2V5h1.4l0.3-0.5
			c0.1-0.1,0.1-0.1,0.2-0.1c0.1,0,0.2,0.1,0.5,0.4c0.3,0.3,0.4,0.4,0.4,0.5s-0.1,0.1-0.2,0.1h-2.7v0.8h1.3l0.2-0.3
			c0-0.1,0.1-0.1,0.1-0.1c0.1,0,0.2,0.1,0.5,0.3c0.3,0.2,0.4,0.3,0.4,0.4c0,0.1-0.1,0.2-0.3,0.3v0.7c0,0.2,0,0.3,0,0.5l0,0.3
			c0,0.1,0,0.1-0.1,0.2c-0.1,0.1-0.2,0.1-0.4,0.2c-0.2,0.1-0.3,0.1-0.4,0.1s-0.1,0-0.1-0.1h-1.3v0.8l1.1-0.1
			c-0.2-0.2-0.3-0.4-0.4-0.5l0-0.2c0.6,0.3,1,0.5,1.2,0.6c0.2,0.2,0.3,0.3,0.3,0.5c0,0.2,0,0.3-0.1,0.4c0,0.1-0.1,0.2-0.2,0.2
			c-0.1,0-0.2-0.1-0.2-0.2c-0.2-0.3-0.3-0.5-0.4-0.6l-2.2,0.4c-0.8,0.2-1.3,0.3-1.5,0.4c0,0-0.1,0-0.1,0s-0.1,0-0.1-0.1
			s-0.1-0.1-0.2-0.3c-0.1-0.2-0.2-0.4-0.3-0.6c0.9,0,1.6,0,2.3,0V8.5H175c0,0.1,0,0.2-0.1,0.2s-0.2,0.1-0.3,0.2
			c-0.2,0.1-0.3,0.1-0.4,0.1c-0.1,0-0.1,0-0.1-0.2l0-1V6.8c0-0.3,0-0.7,0-1C174.5,5.8,174.9,6,175.1,6.2L175.1,6.2z M174.6,11.1
			c0.9,0.4,1.4,0.8,1.4,1.2c0,0.2,0,0.4-0.1,0.6c-0.1,0.1-0.2,0.2-0.3,0.2c-0.1,0-0.1-0.1-0.2-0.3c-0.2-0.5-0.5-1-0.8-1.4
			L174.6,11.1L174.6,11.1z M176.3,6.5H175v0.7h1.3V6.5z M175,7.5v0.6h1.3V7.5H175z M178.5,7.2V6.5h-1.3v0.7H178.5z M178.5,8.1V7.5
			h-1.3v0.6H178.5z"/>
		<path class="st2" d="M184.8,3.6h0.9l0.3-0.4c0.1-0.1,0.1-0.1,0.2-0.1c0,0,0.2,0.1,0.6,0.4s0.5,0.4,0.5,0.5s-0.1,0.1-0.2,0.2
			s-0.2,0.1-0.3,0.1c-0.1,0-0.1,0.2-0.2,0.3l-1.2,2.6c0.5,0.5,0.9,0.9,1.2,1.4c0.3,0.4,0.4,0.9,0.4,1.5c0,0.7-0.2,1.3-0.6,1.6
			c-0.4,0.3-0.7,0.5-0.9,0.5c-0.1,0-0.1-0.1-0.1-0.3c0-0.4-0.2-0.7-0.7-0.9v-0.3c0.3,0.1,0.6,0.1,0.7,0.1c0.4,0,0.7-0.2,0.7-0.7
			c0-0.2-0.1-0.6-0.2-1.2c-0.1-0.5-0.4-1.1-0.9-1.6c0.3-1.1,0.6-2.2,0.8-3.3h-1.1v10.6c0,0.1,0,0.2-0.1,0.2s-0.2,0.1-0.4,0.2
			c-0.2,0.1-0.4,0.1-0.4,0.1c0,0,0,0,0-0.1l0-0.5c0-0.2,0-0.7,0-1.4V4.3c0-0.7,0-1.1-0.1-1.4C184.1,3.1,184.5,3.3,184.8,3.6z
			 M190.2,5.4c0.5-1.1,0.8-2.1,1-3.1c0.3,0.1,0.6,0.2,0.8,0.3c0.2,0.1,0.4,0.2,0.4,0.2c0.1,0,0.1,0.1,0.1,0.1s-0.1,0.1-0.2,0.1
			c-0.1,0-0.2,0.1-0.3,0.2c-0.1,0.1-0.3,0.3-0.6,0.7l-0.9,1.3h1.6l0.4-0.7c0.1-0.1,0.1-0.2,0.2-0.2s0.3,0.2,0.6,0.5
			c0.3,0.3,0.5,0.6,0.5,0.7s-0.1,0.1-0.2,0.1h-2.9c0.2,0.2,0.4,0.3,0.4,0.3c0,0.1-0.1,0.1-0.2,0.1c0,0-0.1,0-0.1,0
			c-0.1,0-0.2,0.1-0.4,0.2c-0.2,0.1-0.4,0.3-0.7,0.5c-0.3,0.2-0.5,0.4-0.6,0.5c0.5,0.4,0.9,0.8,1.3,1.4c0.7-0.8,1.4-1.7,2-2.6
			c0.7,0.7,1,1.1,1,1.2c0,0.1,0,0.1-0.1,0.1s-0.1,0-0.2,0c-0.1,0-0.1,0-0.1,0c-0.1,0-0.2,0.1-0.4,0.2s-0.5,0.3-1,0.6
			c0.2,1.3,0.5,2.4,0.9,3.1c0.4,0.8,0.9,1.4,1.6,1.9l-0.1,0.2c-0.2-0.1-0.4-0.1-0.6-0.1c-0.4,0-0.6,0.1-0.8,0.3
			c-0.1,0.1-0.1,0.1-0.1,0.1c-0.1,0-0.3-0.4-0.6-1.2c-0.3-0.8-0.5-2.2-0.6-4.1c-0.4,0.3-0.7,0.4-0.8,0.5c0.4,0.7,0.6,1.6,0.6,2.6
			c0,0.7-0.1,1.4-0.2,1.9c-0.2,0.5-0.4,0.9-0.8,1.2c-0.4,0.3-0.7,0.4-0.8,0.4c-0.1,0-0.1-0.1-0.1-0.3c0-0.2-0.1-0.5-0.2-0.6
			c-0.1-0.2-0.5-0.3-1-0.6v-0.2c0.5,0.1,0.9,0.2,1.2,0.2s0.5-0.1,0.6-0.2c0.1-0.1,0.3-0.4,0.4-0.9c0.1-0.5,0.1-0.8,0.1-1.1
			s0-0.5,0-0.6c-0.8,0.9-1.5,1.5-2.2,2c-0.7,0.5-1.5,0.9-2.5,1.2l-0.1-0.2c1.9-1.2,3.4-2.6,4.5-4.3c0-0.2-0.1-0.4-0.2-0.6
			c-0.4,0.5-0.8,0.9-1.1,1.2c-0.3,0.3-0.8,0.6-1.3,0.9l-0.1-0.2c0.8-0.9,1.5-1.8,2-2.8c-0.1-0.1-0.2-0.2-0.3-0.4
			c-0.5,0.3-1.1,0.6-1.9,1l-0.1-0.2c1.1-0.8,1.9-1.7,2.6-2.5h-2.3c-0.2,0-0.4,0-0.5,0.1l-0.2-0.6c0.2,0.1,0.4,0.1,0.6,0.1L190.2,5.4
			L190.2,5.4z M187.7,2.5c0.6,0.3,1.1,0.5,1.4,0.8c0.3,0.3,0.5,0.6,0.5,0.9c0,0.3-0.1,0.6-0.2,0.8c-0.1,0.2-0.3,0.4-0.5,0.4
			c-0.1,0-0.2,0-0.2-0.1c0,0-0.1-0.2-0.1-0.6c-0.1-0.3-0.2-0.7-0.3-1s-0.4-0.6-0.7-1L187.7,2.5L187.7,2.5z"/>
		<path class="st3" d="M129,22.3L129,22.3h-0.6l-0.5-3.2l-1.6,3.2l-1.4-3l-0.3,3h-0.3l0.3-2.9c0-0.4,0.2-1.5-0.5-1.6v0
			c0.8,0,1.1,0.9,1.3,1.3l1.1,2.2l1.8-3.6L129,22.3L129,22.3z"/>
		<path class="st3" d="M132.4,20.8c0,1.1-0.6,1.6-1.4,1.6s-1.4-0.5-1.4-1.6s0.6-1.6,1.4-1.6C131.8,19.2,132.4,19.7,132.4,20.8z
			 M131.8,20.8c0-1-0.2-1.5-0.7-1.5s-0.7,0.5-0.7,1.5s0.2,1.5,0.7,1.5C131.5,22.3,131.8,21.8,131.8,20.8z"/>
		<path class="st3" d="M135.1,19.2v0.4c-0.4,0-0.9-0.1-1,0.9v1.9h-0.6v-2.5c0-0.3-0.2-0.6-0.5-0.6v0h1.1V20
			C134.2,19.3,134.6,19.2,135.1,19.2z"/>
		<path class="st3" d="M136.2,20.7v0.1c0,1.2,1,2.1,1.8,0.9l0.1,0.1c0,0.1-0.4,0.6-1.2,0.6c-0.9,0-1.4-0.7-1.4-1.6s0.5-1.6,1.4-1.6
			c1.1,0,1.2,0.9,1.2,1.2v0.2H136.2z M136.3,20.4h1.2c0-0.7-0.1-1-0.5-1C136.6,19.4,136.3,19.6,136.3,20.4z"/>
		<path class="st3" d="M144.5,20c0,2.4-2.3,2.3-2.3,2.3h-1.3v-4c0-0.3-0.2-0.6-0.5-0.6v0h1.8C142.2,17.7,144.5,17.5,144.5,20z
			 M143.8,20c0-2.1-1.3-2.1-1.6-2.1h-0.7v4.2h0.7C142.4,22.1,143.8,22.1,143.8,20z"/>
		<path class="st3" d="M147.2,19.2v0.4c-0.4,0-0.9-0.1-1,0.9v1.9h-0.6v-2.5c0-0.3-0.2-0.6-0.5-0.6v0h1.1V20
			C146.4,19.3,146.8,19.2,147.2,19.2z"/>
		<path class="st3" d="M148.4,20.7v0.1c0,1.2,1,2.1,1.9,0.9l0.1,0.1c0,0.1-0.4,0.6-1.2,0.6c-0.9,0-1.4-0.7-1.4-1.6s0.5-1.6,1.4-1.6
			c1.1,0,1.2,0.9,1.2,1.2v0.2H148.4z M148.5,20.4h1.2c0-0.7-0.1-1-0.5-1C148.8,19.4,148.5,19.6,148.5,20.4z"/>
		<path class="st3" d="M153.5,20.1v2.2h-0.6v-0.5c-0.3,0.5-1.8,1.1-1.8-0.3c0-1.1,1-1,1.8-1.3v-0.3c0-0.4-0.1-0.6-0.5-0.6
			c-0.2,0-0.6,0-0.9,0.5l-0.2,0c0.2-0.5,0.7-0.6,1.1-0.6C153.2,19.1,153.5,19.5,153.5,20.1L153.5,20.1z M152.9,21.7v-1.3
			c-0.6,0.2-1.2,0.2-1.2,1.1C151.7,22.4,152.4,22.4,152.9,21.7z"/>
		<path class="st3" d="M158.9,20.2v2.1h-0.6v-2.1c0-0.6-0.3-0.9-0.6-0.9c-0.4,0-0.6,0.2-0.7,0.4v2.6h-0.6v-2.1
			c0-0.6-0.3-0.9-0.6-0.9c-0.3,0-0.6,0.2-0.7,0.4v2.6h-0.6v-2.5c0-0.3-0.2-0.6-0.5-0.6v0h1.1v0.3c0.2-0.2,0.4-0.3,0.7-0.3
			c0.5,0,0.8,0.2,1,0.5c0.2-0.3,0.5-0.5,0.9-0.5C158.6,19.1,158.9,19.7,158.9,20.2L158.9,20.2z"/>
		<path class="st3" d="M161,22.4l1.9-4.7l1.9,4.7h-0.7l-0.4-0.9h-2.1l-0.4,0.9H161z M161.8,21.2h1.9l-1-2.3L161.8,21.2z"/>
		<path class="st3" d="M167.1,19.2v0.4c-0.4,0-0.9-0.1-1,0.9v1.9h-0.6v-2.5c0-0.3-0.2-0.6-0.5-0.6v0h1.1V20
			C166.2,19.3,166.6,19.2,167.1,19.2z"/>
		<path class="st3" d="M170,21.8c-0.1,0.2-0.5,0.7-1,0.7c-0.8,0-1.3-0.7-1.3-1.6s0.5-1.6,1.3-1.6c0.6,0,0.9,0.4,1,0.7l-0.1,0.1
			c-0.6-1.1-1.6-0.6-1.6,0.9s1,1.9,1.6,0.9L170,21.8L170,21.8z"/>
		<path class="st3" d="M173.5,20.2v2.1h-0.6v-2.1c0-0.6-0.3-0.9-0.6-0.9c-0.3,0-0.6,0.2-0.7,0.4v2.6H171v-4c0-0.3-0.2-0.6-0.5-0.6v0
			h1.1v1.8c0.2-0.2,0.4-0.3,0.7-0.3C173.1,19.2,173.5,19.7,173.5,20.2z"/>
		<path class="st3" d="M174.8,19.1v3.2h-0.6v-2.6c0-0.3-0.2-0.6-0.5-0.6v0H174.8z M174.6,17.8c-0.2,0-0.4,0.2-0.4,0.4
			c0,0.2,0.2,0.4,0.4,0.4c0.2,0,0.4-0.2,0.4-0.4C174.9,18,174.8,17.8,174.6,17.8z"/>
		<path class="st3" d="M177.4,22c-0.1,0.2-0.3,0.4-0.8,0.4c-0.5,0-0.6-0.3-0.6-0.6v-2.4h-0.5v-0.2h0.5V19c0-0.3-0.2-0.6-0.5-0.6v0
			h1.1v0.8h0.6v0.2h-0.6v2.3c0,0.2,0,0.4,0.2,0.5c0.1,0,0.4,0,0.5-0.3L177.4,22L177.4,22z"/>
		<path class="st3" d="M178.3,20.7v0.1c0,1.2,1,2.1,1.9,0.9l0.1,0.1c0,0.1-0.4,0.6-1.2,0.6c-0.9,0-1.4-0.7-1.4-1.6s0.5-1.6,1.4-1.6
			c1,0,1.2,0.9,1.2,1.2v0.2H178.3z M178.3,20.4h1.2c0-0.7-0.1-1-0.5-1S178.4,19.6,178.3,20.4z"/>
		<path class="st3" d="M183.4,21.8c-0.1,0.2-0.5,0.7-1,0.7c-0.8,0-1.3-0.7-1.3-1.6s0.5-1.6,1.3-1.6c0.6,0,0.9,0.4,1,0.7l-0.1,0.1
			c-0.6-1.1-1.6-0.6-1.6,0.9s1,1.9,1.6,0.9L183.4,21.8L183.4,21.8z"/>
		<path class="st3" d="M185.5,22c-0.1,0.2-0.3,0.4-0.8,0.4c-0.5,0-0.6-0.3-0.6-0.6v-2.4h-0.5v-0.2h0.5V19c0-0.3-0.2-0.6-0.5-0.6v0
			h1.1v0.8h0.6v0.2h-0.6v2.3c0,0.2,0,0.4,0.2,0.5c0.1,0,0.4,0,0.5-0.3L185.5,22L185.5,22z"/>
		<path class="st3" d="M188.8,19.2v3.2h-0.6v-0.2c-0.2,0.2-0.4,0.3-0.7,0.3c-0.8,0-1.1-0.5-1.1-1v-1.6c0-0.3-0.2-0.6-0.5-0.6v0h1.1
			v2.2c0,0.6,0.3,0.8,0.6,0.8c0.3,0,0.6-0.1,0.7-0.3v-2.7L188.8,19.2L188.8,19.2z"/>
		<path class="st3" d="M191.6,19.2v0.4c-0.4,0-0.9-0.1-1,0.9v1.9H190v-2.5c0-0.3-0.2-0.6-0.5-0.6v0h1.1V20
			C190.8,19.3,191.1,19.2,191.6,19.2z"/>
		<path class="st3" d="M192.8,20.7v0.1c0,1.2,1,2.1,1.8,0.9l0.1,0.1c0,0.1-0.4,0.6-1.2,0.6c-0.9,0-1.4-0.7-1.4-1.6s0.5-1.6,1.4-1.6
			c1.1,0,1.2,0.9,1.2,1.2v0.2H192.8z M192.8,20.4h1.2c0-0.7-0.1-1-0.5-1C193.2,19.4,192.9,19.6,192.8,20.4z"/>
		<path class="st1" d="M99.6,24L99.6,24C99.5,24,99.5,24,99.6,24z"/>
		<path class="st1" d="M116,22.1v-7.3c3.8,3,3.6,8.2,3.6,8.2c1.1-5-3-8.7-3-8.7c-0.2-0.2-0.4-0.4-0.6-0.5V1.7l-1.4,1.1V13
			c-0.2-0.1-0.3-0.2-0.5-0.3V3.3l-1.4,1v7.9c-0.1,0-0.3-0.1-0.4-0.1V4.7l-1.4,1v6.1c-0.4,0-0.7,0-1,0V4.7l-1.4-1v8.3
			c-0.2,0.1-0.4,0.1-0.6,0.1l0-8.9l-1.3-1v10.5c-0.2,0.1-0.4,0.2-0.5,0.2V1.8l-1.4-1.1v13.1c-4.7,3.4-3.6,9.3-3.6,9.4
			c-0.6,0.2-1.1,0.5-1.7,0.8c0.7-0.4,9-4.1,21.8,0C121.4,24,119.3,22.9,116,22.1z M114.7,13.9v7.9c-0.2,0-0.3-0.1-0.5-0.1v-8.1
			C114.3,13.7,114.5,13.8,114.7,13.9L114.7,13.9z M112.8,13.2v8.4c-0.1,0-0.3,0-0.4,0v-8.4C112.5,13.1,112.6,13.1,112.8,13.2
			L112.8,13.2z M108.6,13.1v8.4c-0.2,0-0.4,0-0.6,0l0-8.3C108.2,13.2,108.4,13.1,108.6,13.1z M106.8,13.7v8c-0.2,0-0.3,0.1-0.5,0.1
			v-7.8C106.4,13.8,106.6,13.8,106.8,13.7L106.8,13.7z M103.9,15.7c0.3-0.3,0.7-0.6,1-0.9V22c-1.2,0.3-2.4,0.7-3.6,1.2
			C101.4,17.9,103.9,15.7,103.9,15.7z M109.9,21.4v-8.5c0.4,0,0.7,0,1,0v8.5C110.6,21.4,110.3,21.4,109.9,21.4L109.9,21.4z"/>
		<path class="st2" d="M128.2,11h-1.6v0.8c0,0.1,0,0.1,0,0.1c0,0-0.1,0.1-0.2,0.2c-0.1,0.1-0.3,0.2-0.5,0.2s-0.3,0.1-0.3,0.1
			s-0.1,0,0-0.1c0-0.4,0.1-0.9,0.1-1.4V4.2c0-0.4,0-0.8,0-1.2c0.7,0.3,1.2,0.6,1.4,0.8h1.2l0.3-0.5c0.1-0.1,0.1-0.1,0.1-0.1
			c0.1,0,0.3,0.1,0.6,0.4s0.5,0.5,0.5,0.6c0,0.1-0.2,0.2-0.5,0.3v5.6l0,1.2v0.2c-0.3,0.2-0.5,0.4-0.7,0.4c-0.2,0.1-0.3,0.1-0.3,0.1
			s-0.1-0.1-0.1-0.2L128.2,11L128.2,11z M126.6,7.3h1.6V4.3h-1.6V7.3z M126.6,10.6h1.6V7.7h-1.6V10.6z M131.6,3.7h1.7l0.3-0.6
			c0.1-0.1,0.1-0.2,0.2-0.2s0.2,0.1,0.4,0.3l0.5,0.4c0.1,0.1,0.2,0.2,0.2,0.3c0,0.1-0.2,0.2-0.6,0.4v8.6c0,0.6,0,1-0.1,1.2
			c-0.1,0.2-0.3,0.4-0.6,0.6c-0.3,0.2-0.6,0.3-0.6,0.3c-0.1,0-0.1-0.1-0.2-0.3s-0.1-0.4-0.2-0.5c-0.1-0.1-0.2-0.2-0.4-0.4
			c-0.2-0.1-0.5-0.3-0.9-0.5l0-0.2c0.7,0.1,1.2,0.2,1.4,0.2s0.3,0,0.4-0.1c0.1-0.1,0.1-0.2,0.1-0.4V10h-2.3c-0.1,1.4-0.4,2.4-1,3.1
			c-0.6,0.7-1.5,1.3-2.8,1.9l-0.1-0.2c0.6-0.5,1.1-0.9,1.4-1.3c0.4-0.4,0.7-0.8,0.9-1.2c0.2-0.4,0.4-0.8,0.5-1.3
			c0.1-0.5,0.2-1.2,0.2-2.2s0.1-1.9,0.1-2.9s0-2-0.1-2.9C130.7,3.2,131.2,3.4,131.6,3.7L131.6,3.7z M133.4,7.1h-2.1
			c0,0.8-0.1,1.6-0.2,2.5h2.3V7.1z M131.3,6.6h2.1V4.1h-2.1c0,0.3,0,0.6,0,1S131.3,6,131.3,6.6z"/>
		<path class="st2" d="M142.2,4.5c0.2,0.3,0.1,0.4-0.1,0.4h-2.5c0.3,0.2,0.5,0.3,0.7,0.4c0.2,0.1,0.3,0.2,0.4,0.4s0.1,0.2,0.1,0.3
			c0,0.1,0,0.2,0,0.4c-0.1,0.2-0.1,0.3-0.2,0.4c-0.1,0.1-0.2,0.2-0.3,0.2c-0.1,0-0.2,0-0.3,0c-0.1,0-0.1-0.1-0.2-0.3
			c-0.1-0.3-0.1-0.6-0.2-0.9c-0.1-0.3-0.2-0.6-0.4-0.8h-0.3c-0.1,0.3-0.3,0.5-0.4,0.7c-0.2,0.2-0.3,0.5-0.5,0.7
			c-0.2,0.2-0.4,0.5-0.6,0.7c-0.2,0.2-0.5,0.5-0.8,0.8l-0.2-0.2c0.3-0.5,0.5-0.9,0.7-1.3c0.2-0.4,0.4-0.8,0.6-1.2
			c0.2-0.4,0.3-0.8,0.5-1.2c0.2-0.4,0.3-0.9,0.5-1.5c0.2,0.1,0.4,0.2,0.6,0.2c0.2,0.1,0.4,0.2,0.5,0.3c0.1,0.1,0.2,0.2,0.2,0.2
			c0,0.1-0.1,0.1-0.2,0.2c0,0-0.1,0-0.1,0c0,0-0.1,0.1-0.1,0.1c0,0.1-0.1,0.1-0.2,0.3s-0.2,0.3-0.3,0.5h1.7l0.5-0.7
			c0-0.1,0.1-0.1,0.1-0.1c0,0,0.1,0,0.2,0.1c0.2,0.1,0.3,0.3,0.4,0.4C142,4.2,142.1,4.4,142.2,4.5L142.2,4.5z M141.3,12l-2.8,1.2
			c-0.4,0.2-0.7,0.3-1,0.5c-0.3,0.2-0.4,0.3-0.5,0.3c-0.1,0.1-0.2,0.1-0.2,0c-0.1-0.2-0.2-0.3-0.3-0.5c-0.1-0.2-0.2-0.4-0.2-0.6
			c0.3-0.1,0.7-0.1,1-0.2c0.3-0.1,0.6-0.1,0.9-0.2V8.3h-0.7c-0.1,0-0.2,0-0.3,0c-0.1,0-0.2,0.1-0.2,0.1l-0.3-0.6c0.1,0,0.2,0,0.3,0
			c0.1,0,0.2,0,0.3,0h2.5l0.4-0.8c0.1-0.1,0.2-0.2,0.3-0.1c0.1,0.2,0.2,0.3,0.3,0.5c0.1,0.2,0.2,0.3,0.3,0.3
			c0.2,0.2,0.2,0.4-0.1,0.4h-1.8v3.9l2-0.5L141.3,12z M144,11.7c0,0.4-0.1,0.6-0.3,0.7c-0.1,0-0.1,0-0.2,0s-0.2-0.2-0.3-0.4
			c-0.1-0.1-0.1-0.2-0.2-0.2c-0.1-0.1-0.1-0.1-0.2-0.2c-0.1,0.5-0.2,0.9-0.3,1.2c-0.1,0.3-0.3,0.6-0.6,0.9c-0.3,0.3-0.6,0.5-1,0.8
			c-0.4,0.2-0.9,0.5-1.5,0.7l-0.1-0.2c0.5-0.3,0.9-0.6,1.3-0.9c0.3-0.3,0.6-0.6,0.8-0.9c0.2-0.3,0.3-0.7,0.4-1
			c0.1-0.4,0.1-0.8,0.2-1.4v0c-0.2-0.1-0.4-0.3-0.5-0.4c-0.2-0.1-0.4-0.3-0.6-0.4l0.1-0.2c0.2,0,0.4,0.1,0.6,0.2
			c0.2,0.1,0.3,0.1,0.5,0.2V9.7c0-0.1,0-0.2,0-0.4c0-0.1,0-0.3,0-0.5c0-0.2,0-0.4,0-0.6c-0.1,0-0.2,0-0.3,0c-0.1,0-0.2,0.1-0.2,0.1
			l-0.3-0.6c0.1,0,0.2,0.1,0.3,0.1c0.1,0,0.2,0,0.3,0h2.4l0.3-0.5c0.1-0.1,0.1-0.2,0.2-0.2c0.1,0,0.1,0,0.2,0.1
			c0.2,0.1,0.3,0.2,0.4,0.3c0.1,0.1,0.3,0.2,0.4,0.3c0.1,0.1,0.2,0.2,0.1,0.3c0,0.1-0.2,0.2-0.5,0.3v4.8c0,0.1,0,0.2,0,0.3
			c0,0.1,0,0.1,0.1,0.2s0.1,0.1,0.1,0.1c0.1,0,0.1,0,0.2,0c0.2,0,0.3,0,0.4-0.1c0.1,0,0.2-0.2,0.2-0.3c0.1-0.2,0.1-0.4,0.1-0.8
			c0-0.3,0.1-0.8,0.1-1.3h0.3c0,0.4,0,0.8,0,1c0,0.3,0,0.5,0.1,0.6c0,0.1,0.1,0.3,0.2,0.4c0.1,0.1,0.1,0.1,0.2,0.2
			c0.1,0,0.1,0.1,0.1,0.1c0,0.1,0,0.1,0,0.3c-0.1,0.1-0.1,0.3-0.2,0.4c-0.1,0.1-0.2,0.2-0.3,0.3c-0.1,0.1-0.3,0.1-0.5,0.2
			s-0.5,0.1-0.9,0c-0.3,0-0.5,0-0.6,0c-0.2,0-0.3-0.1-0.4-0.2s-0.1-0.2-0.2-0.4c0-0.2,0-0.4,0-0.7V8.2H143c0,0.2,0,0.6,0,0.9
			c0,0.4,0,0.8,0,1.2c0.4,0.2,0.7,0.4,0.8,0.6C143.9,11.2,144,11.4,144,11.7L144,11.7z M146.9,4.5c0.1,0.1,0.1,0.2,0.1,0.3
			c0,0.1-0.1,0.1-0.2,0.1h-2.7c0.3,0.1,0.5,0.3,0.7,0.4c0.2,0.1,0.3,0.2,0.4,0.3s0.1,0.2,0.1,0.3c0,0.1,0,0.2,0,0.3
			c0,0.1-0.1,0.2-0.1,0.3s-0.1,0.2-0.2,0.2c-0.1,0.1-0.1,0.1-0.2,0.2C144.6,7,144.6,7,144.5,7s-0.1,0-0.1-0.1c0,0-0.1-0.1-0.1-0.2
			c-0.1-0.3-0.1-0.7-0.2-1s-0.2-0.6-0.4-0.8h-0.5c-0.1,0.3-0.3,0.5-0.4,0.7c-0.1,0.2-0.3,0.4-0.4,0.6c-0.2,0.2-0.3,0.4-0.5,0.6
			c-0.2,0.2-0.4,0.4-0.7,0.7l-0.2-0.2c0.3-0.4,0.5-0.9,0.8-1.2c0.2-0.4,0.4-0.8,0.6-1.2s0.3-0.8,0.4-1.1c0.1-0.4,0.2-0.8,0.3-1.2
			c0.3,0.1,0.5,0.2,0.7,0.3c0.2,0.1,0.4,0.2,0.5,0.3c0.1,0.1,0.2,0.2,0.2,0.3c0,0.1-0.1,0.1-0.3,0.2c0,0-0.1,0-0.1,0
			c0,0-0.1,0.1-0.1,0.1c-0.1,0.1-0.1,0.2-0.2,0.3c-0.1,0.1-0.2,0.3-0.3,0.5h1.9l0.4-0.8c0.1-0.1,0.1-0.1,0.2-0.2
			c0.1,0,0.1,0,0.2,0.1c0.2,0.1,0.3,0.3,0.5,0.4C146.7,4.2,146.8,4.4,146.9,4.5L146.9,4.5z"/>
		<path class="st2" d="M150.3,4.6h-1.6c-0.1,0-0.2,0-0.3,0c-0.1,0-0.2,0-0.2,0.1L148,4.1c0.1,0,0.2,0,0.3,0c0.1,0,0.2,0,0.3,0h1.5
			l0.4-0.6c0.1-0.1,0.1-0.1,0.1-0.1c0,0,0.1,0,0.2,0.1c0.2,0.1,0.3,0.3,0.4,0.4c0.1,0.1,0.2,0.2,0.3,0.3c0.1,0.1,0.1,0.2,0.1,0.4
			c0,0.1-0.2,0.2-0.5,0.3l-1.4,2.8h0.8l0.3-0.4c0-0.1,0.1-0.1,0.1-0.1c0,0,0.1,0,0.1,0.1c0.1,0.1,0.3,0.2,0.4,0.3
			c0.1,0.1,0.3,0.2,0.4,0.3c0.2,0.2,0.2,0.3-0.1,0.4c-0.1,0-0.2,0.1-0.2,0.2c0,0.1-0.1,0.2-0.1,0.4c-0.1,0.7-0.2,1.3-0.4,1.8
			c-0.1,0.6-0.3,1-0.5,1.4c0.3,0.2,0.5,0.4,0.8,0.6c0.3,0.2,0.6,0.3,0.9,0.4c0.3,0.1,0.7,0.2,1.1,0.3c0.4,0.1,0.9,0.1,1.4,0.1
			c0.5,0,1.1,0,1.8,0s1.5-0.1,2.4-0.2v0.3c-0.2,0.1-0.5,0.1-0.6,0.2c-0.2,0.1-0.3,0.1-0.4,0.2s-0.2,0.2-0.3,0.3
			c-0.1,0.1-0.1,0.2-0.2,0.4c0,0.1-0.1,0.1-0.1,0.1c0,0-0.1,0-0.2,0c-0.8-0.1-1.4-0.1-2-0.1s-1.1-0.1-1.5-0.2s-0.8-0.1-1.2-0.2
			c-0.3-0.1-0.6-0.2-0.9-0.3s-0.5-0.3-0.7-0.4s-0.4-0.4-0.7-0.6c-0.1,0.2-0.3,0.4-0.4,0.6c-0.1,0.2-0.3,0.4-0.5,0.5
			c-0.2,0.2-0.4,0.3-0.6,0.5c-0.2,0.2-0.5,0.4-0.9,0.6l-0.1-0.2c0.3-0.3,0.5-0.5,0.7-0.7c0.2-0.2,0.4-0.4,0.6-0.6s0.3-0.4,0.4-0.6
			c0.1-0.2,0.2-0.5,0.4-0.7c-0.2-0.3-0.4-0.8-0.6-1.2c-0.2-0.5-0.3-1.1-0.4-1.8l0.2-0.1c0.1,0.3,0.2,0.6,0.3,0.8
			c0.1,0.2,0.2,0.4,0.3,0.6c0.1,0.2,0.2,0.3,0.2,0.5s0.2,0.2,0.2,0.3c0.2-0.5,0.3-1,0.4-1.5c0.1-0.5,0.2-1.1,0.2-1.8h-1.1l-0.1,0.3
			c0,0.1-0.1,0.1-0.1,0.1s-0.1,0.1-0.1,0.1c-0.2,0-0.3,0-0.3,0c-0.1,0-0.2,0-0.3,0c-0.1,0-0.2-0.1-0.1-0.2c0.1-0.2,0.3-0.4,0.4-0.7
			s0.3-0.5,0.4-0.8L150.3,4.6L150.3,4.6z M158.8,5.8c0.1,0.2,0.2,0.3,0.2,0.3c0,0.1-0.1,0.1-0.2,0.1h-1.5v0.7c0,0.2,0,0.3,0,0.4
			c0,0.1,0,0.2,0,0.3c0,0.1,0,0.1,0,0.2c0,0.1,0,0.2,0,0.2c0,0,0,0.1-0.1,0.1c-0.1,0.1-0.2,0.1-0.3,0.2c-0.1,0.1-0.2,0.1-0.4,0.1
			c-0.1,0-0.2,0-0.2,0c0,0-0.1-0.1-0.1-0.3h-1.3v1.2h1.1l0.3-0.6c0.1-0.1,0.2-0.1,0.3,0c0.1,0.1,0.3,0.2,0.4,0.3
			c0.1,0.1,0.2,0.2,0.3,0.3c0.2,0.2,0.2,0.4-0.1,0.4h-2.4v1.2h1.9l0.3-0.6c0.1-0.1,0.2-0.2,0.2-0.2c0,0,0.1,0,0.2,0.1
			c0.1,0.1,0.3,0.2,0.4,0.4c0.1,0.1,0.2,0.2,0.3,0.3c0.1,0.2,0.2,0.3,0.2,0.3c0,0.1-0.1,0.1-0.3,0.1h-3.2c0,0.2,0,0.5,0,0.8
			s0,0.6,0,0.8c0,0.1,0,0.2,0,0.2c0,0,0,0.1-0.1,0.1c-0.1,0.1-0.2,0.1-0.4,0.2c-0.1,0-0.2,0.1-0.4,0.1c-0.1,0-0.1,0-0.1-0.2
			c0-0.3,0-0.7,0-1.1c0-0.4,0-0.7,0-1h-1.9c-0.1,0-0.2,0-0.3,0c-0.1,0-0.2,0-0.2,0.1l-0.2-0.6c0.1,0,0.2,0.1,0.3,0.1
			c0.1,0,0.2,0,0.3,0h2V9.6h-1.4c-0.1,0-0.2,0-0.3,0c-0.1,0-0.2,0-0.2,0.1L152,9.1c0.1,0,0.2,0.1,0.3,0.1c0.1,0,0.2,0,0.3,0h1.5V7.9
			H153c-0.1,0-0.2,0-0.3,0c-0.1,0-0.2,0-0.2,0.1l-0.2-0.6c0.1,0,0.2,0,0.3,0.1c0.1,0,0.2,0,0.3,0h1.3V6.2H152c-0.1,0-0.2,0-0.3,0
			c-0.1,0-0.2,0-0.2,0.1l-0.2-0.6c0.1,0,0.2,0,0.3,0s0.2,0,0.3,0h2.2V4.6h-1.2c-0.1,0-0.2,0-0.3,0c-0.1,0-0.2,0-0.2,0.1l-0.2-0.6
			c0.1,0,0.2,0,0.3,0c0.1,0,0.2,0,0.3,0h1.3V3.4c0-0.2,0-0.4,0-0.5c0-0.1,0-0.3,0-0.4c0-0.1,0-0.2,0-0.3c0.2,0.1,0.4,0.1,0.6,0.2
			c0.2,0,0.4,0.1,0.6,0.2c0.1,0,0.2,0.1,0.1,0.2c0,0.1-0.1,0.2-0.4,0.3v1.2h1.2l0.2-0.5c0-0.1,0.1-0.1,0.1-0.1c0,0,0.1,0,0.2,0.1
			c0.1,0.1,0.3,0.2,0.4,0.3c0.1,0.1,0.2,0.2,0.3,0.3c0.1,0.1,0.1,0.2,0.1,0.2c0,0.1-0.1,0.2-0.4,0.3v0.9h0.3l0.3-0.8
			c0.1-0.1,0.1-0.2,0.1-0.2c0,0,0.1,0,0.2,0.1c0.2,0.2,0.3,0.3,0.4,0.4C158.7,5.6,158.8,5.7,158.8,5.8L158.8,5.8z M156.3,4.7h-1.3
			v1.2h1.3V4.7z M156.3,6.2h-1.3v1.3h1.3V6.2z"/>
		<path class="st2" d="M170.2,9.4c-0.1,0.1-0.2,0.2-0.3,0.3c-0.1,0.1-0.2,0.1-0.3,0.2s-0.2,0.1-0.3,0.1c-0.1,0-0.3,0-0.5,0
			c-0.3,0-0.6,0-0.8,0s-0.3-0.1-0.4-0.1c-0.1-0.1-0.2-0.2-0.2-0.3c0-0.1,0-0.3,0-0.5v-2h-0.8c0,0.2,0,0.5-0.1,0.6
			c0,0.2-0.1,0.4-0.2,0.6c0.2,0.1,0.3,0.2,0.4,0.2c0.1,0.1,0.2,0.1,0.2,0.2c0.1,0.2,0.1,0.3,0.1,0.5c0,0.1-0.1,0.2-0.3,0.3
			c-0.2,0.1-0.4,0-0.6-0.3c0,0-0.1-0.1-0.1-0.1c0-0.1-0.1-0.1-0.1-0.1c-0.1,0.2-0.2,0.3-0.5,0.5c-0.2,0.2-0.5,0.4-0.8,0.5
			c0.2,0.1,0.3,0.1,0.4,0.1c0.1,0,0.2,0.1,0.4,0.1c0.2,0,0.2,0.1,0.2,0.2c0,0.1-0.1,0.1-0.2,0.3v0.5h2.9l0.4-0.7
			c0.1-0.1,0.1-0.2,0.2-0.2c0.1,0,0.1,0,0.2,0.1c0.1,0.1,0.3,0.2,0.4,0.4c0.1,0.1,0.2,0.2,0.3,0.4c0.1,0.1,0.2,0.2,0.2,0.3
			c0,0.1-0.1,0.1-0.3,0.1h-3.8c0.3,0.4,0.6,0.7,0.9,0.9c0.3,0.2,0.6,0.4,0.9,0.6c0.3,0.1,0.7,0.3,1.1,0.4c0.4,0.1,0.9,0.2,1.5,0.3
			v0.3c-0.2,0-0.4,0-0.5,0.1c-0.1,0-0.2,0.1-0.3,0.1c-0.1,0-0.1,0.1-0.2,0.2c0,0.1-0.1,0.2-0.1,0.3c0,0.1-0.1,0.1-0.1,0.1
			c0,0-0.1,0-0.2,0c-0.4-0.1-0.7-0.2-1-0.4c-0.3-0.1-0.6-0.3-0.8-0.6c-0.2-0.2-0.5-0.5-0.7-0.9s-0.5-0.8-0.7-1.2h-0.2V13
			c0,0.3,0,0.6,0,0.8c0,0.2,0,0.5,0,0.7c0,0.1,0,0.2-0.1,0.2c-0.1,0.1-0.3,0.2-0.4,0.2c-0.1,0.1-0.3,0.1-0.4,0.1
			c-0.1,0-0.1,0-0.1-0.1c0-0.2,0-0.4,0-0.5c0-0.2,0-0.3,0-0.4c0-0.1,0-0.3,0-0.4v-2c-0.3,0.4-0.7,0.8-1,1.1s-0.6,0.5-0.9,0.8
			s-0.7,0.4-1.2,0.6c-0.4,0.2-1,0.4-1.6,0.6l-0.1-0.2c0.6-0.3,1-0.6,1.4-0.8c0.4-0.2,0.7-0.4,1-0.7c0.3-0.2,0.5-0.5,0.8-0.8
			c0.2-0.3,0.5-0.6,0.8-1h-3c-0.1,0-0.2,0-0.3,0.1c-0.1,0-0.2,0.1-0.2,0.1l-0.2-0.6c0.1,0,0.2,0,0.3,0.1c0.1,0,0.2,0,0.3,0h3.9
			c0-0.1,0-0.3,0-0.5c0-0.2,0-0.4,0-0.5c-0.3,0.2-0.8,0.4-1.2,0.5l-0.1-0.2c0.3-0.1,0.6-0.3,0.8-0.5s0.5-0.3,0.7-0.5
			c0.2-0.2,0.4-0.4,0.5-0.5c0.1-0.2,0.2-0.3,0.3-0.5c-0.1-0.1-0.3-0.2-0.4-0.3c-0.1-0.1-0.3-0.2-0.5-0.3l0-0.2c0.2,0,0.4,0,0.6,0.1
			c0.1,0,0.3,0.1,0.4,0.1c0-0.2,0.1-0.3,0.1-0.4c0-0.1,0-0.3,0-0.5h-0.1c-0.2,0-0.3,0-0.4,0c-0.1,0-0.2,0-0.3,0.1l-0.4-0.5
			c0.2,0,0.3,0,0.4,0s0.2,0,0.4,0h1.8l0.3-0.3c0,0-0.1-0.1-0.1-0.1c0-0.1,0-0.2-0.1-0.3c0-0.1-0.1-0.2-0.1-0.3
			c-0.1-0.1-0.1-0.2-0.2-0.3c-0.1-0.1-0.1-0.2-0.2-0.4h-0.6c-0.2,0.3-0.5,0.6-0.7,0.8s-0.5,0.5-0.7,0.7l-0.2-0.2
			c0.2-0.3,0.4-0.7,0.6-0.9c0.2-0.3,0.3-0.6,0.4-0.8c0.1-0.3,0.2-0.5,0.4-0.8c0.1-0.3,0.2-0.6,0.3-1c0.1,0.1,0.2,0.1,0.3,0.2
			c0.1,0,0.2,0.1,0.2,0.1c0.1,0,0.1,0.1,0.2,0.1c0.1,0,0.1,0.1,0.2,0.1c0.2,0.1,0.2,0.3,0,0.3c0,0-0.1,0-0.1,0.1s-0.1,0.1-0.1,0.2
			c-0.1,0.1-0.1,0.2-0.2,0.3c-0.1,0.1-0.2,0.3-0.3,0.5h2l0.4-0.8c0.1-0.1,0.1-0.2,0.2-0.2c0,0,0.1,0,0.2,0.1
			c0.2,0.2,0.3,0.3,0.4,0.4c0.1,0.1,0.2,0.3,0.4,0.4c0.1,0.1,0.1,0.2,0.1,0.2c0,0.1-0.1,0.1-0.2,0.1h-2.7c0.4,0.1,0.6,0.2,0.7,0.3
			c0.1,0.1,0.2,0.2,0.2,0.3s0,0.3-0.1,0.4C168.1,5.9,168,6,168,6.1l0.6,0.4c0.1,0.1,0.1,0.2,0,0.3l-0.3,0.2v1.6c0,0.2,0,0.4,0.1,0.4
			c0,0.1,0.2,0.1,0.4,0.1c0.1,0,0.3,0,0.4-0.1c0.1,0,0.2-0.1,0.2-0.2c0.1-0.1,0.1-0.3,0.1-0.5c0-0.2,0.1-0.5,0.1-0.9h0.2
			c0,0.3,0,0.6,0,0.7c0,0.2,0,0.3,0.1,0.5c0,0.1,0.1,0.2,0.1,0.3C170,9,170,9,170.1,9.1C170.3,9.1,170.3,9.2,170.2,9.4L170.2,9.4z
			 M165.2,4.4c0.1,0.1,0.1,0.2,0.1,0.2c0,0.1-0.1,0.1-0.2,0.1h-2.2c0.4,0.1,0.6,0.3,0.7,0.5c0.1,0.2,0.1,0.3,0.1,0.5
			c-0.1,0.2-0.1,0.3-0.2,0.3c-0.1,0.1-0.2,0.1-0.3,0.1c0,0-0.1,0-0.1,0c0,0,0-0.1-0.1-0.2c-0.1-0.2-0.1-0.4-0.2-0.6
			c-0.1-0.2-0.2-0.4-0.3-0.6h-0.5c-0.1,0.2-0.3,0.4-0.4,0.6s-0.3,0.4-0.4,0.6s-0.3,0.4-0.5,0.5c-0.2,0.2-0.4,0.4-0.6,0.5L160,6.7
			c0.2-0.3,0.4-0.6,0.6-0.9c0.2-0.3,0.3-0.6,0.5-0.9c0.2-0.3,0.3-0.7,0.5-1.1c0.2-0.4,0.3-0.9,0.5-1.4c0.2,0.1,0.4,0.2,0.5,0.3
			c0.1,0.1,0.3,0.2,0.4,0.3c0.1,0.1,0.2,0.1,0.2,0.2c0,0.1-0.1,0.1-0.3,0.1c-0.1,0-0.1,0.1-0.2,0.2c-0.1,0.1-0.2,0.4-0.4,0.7h1.6
			l0.4-0.6c0.1-0.1,0.1-0.2,0.2-0.2s0.1,0,0.2,0.1c0.2,0.1,0.3,0.3,0.4,0.4C165.1,4.1,165.2,4.3,165.2,4.4L165.2,4.4z M164.6,6.6
			c0.1,0.1,0.1,0.2,0.1,0.2c0,0-0.1,0.1-0.2,0.1h-1.3v2l1.3-0.2l0.1,0.3l-2.7,1c-0.2,0.1-0.3,0.1-0.5,0.2c-0.1,0.1-0.3,0.1-0.4,0.2
			c-0.1,0-0.1,0.1-0.1,0c0,0-0.1-0.1-0.1-0.1c-0.1-0.2-0.1-0.3-0.2-0.5c-0.1-0.1-0.1-0.3-0.2-0.6c0.2,0,0.3,0,0.5-0.1
			c0.1,0,0.3,0,0.4-0.1c0.1,0,0.3,0,0.5-0.1c0.2,0,0.3-0.1,0.5-0.1V6.8h-0.8c-0.1,0-0.2,0-0.3,0c-0.1,0-0.2,0-0.2,0.1l-0.2-0.6
			c0.1,0,0.2,0,0.3,0.1c0.1,0,0.2,0,0.3,0h2.1l0.2-0.5c0-0.1,0.1-0.1,0.1-0.1c0,0,0.1,0.1,0.2,0.1c0.1,0.1,0.2,0.2,0.3,0.3
			C164.5,6.4,164.5,6.5,164.6,6.6z"/>
		<path class="st2" d="M173.4,3.4h6.8l0.3-0.6c0-0.1,0.1-0.1,0.1-0.1c0.1,0,0.2,0.1,0.4,0.3l0.5,0.4c0.1,0.1,0.2,0.2,0.2,0.3
			c0,0.1-0.1,0.2-0.4,0.4v9.3c0,0.4,0,0.7,0,0.8v0.4c0,0.1,0,0.1,0,0.1c0,0-0.1,0.1-0.2,0.2c-0.1,0.1-0.3,0.2-0.4,0.2
			c-0.1,0.1-0.2,0.1-0.3,0.1s-0.1-0.1-0.1-0.2v-0.8h-6.9v0.2c0,0.1,0,0.2,0,0.2c0,0-0.1,0.1-0.2,0.1c-0.1,0.1-0.2,0.1-0.4,0.2
			c-0.2,0.1-0.3,0.1-0.3,0.1c0,0-0.1-0.1-0.1-0.2c0-0.4,0.1-0.8,0.1-1.3V4c0-0.4,0-0.8,0-1.1C172.8,3.1,173.2,3.3,173.4,3.4
			L173.4,3.4z M180.3,10.9v-7h-7v6.9c0.1,0,0.3,0.1,0.5,0.1h3.7c0-0.3,0-0.6,0-0.9c0.7,0.1,1.1,0.3,1.1,0.4c0,0.1-0.1,0.1-0.1,0.2
			v0.3h0.5l0.4-0.5c0.1-0.1,0.1-0.1,0.2-0.1s0.2,0.1,0.3,0.3C180.1,10.6,180.2,10.7,180.3,10.9L180.3,10.9z M180.3,13.9v-2.8h-1.8
			v1.6c0,0.2-0.1,0.4-0.2,0.6c-0.1,0.1-0.3,0.3-0.5,0.3s-0.4,0.1-0.4,0.1s-0.1-0.1-0.1-0.2c0-0.2-0.1-0.3-0.3-0.4
			c-0.1-0.1-0.4-0.2-0.8-0.4v-0.2c0.4,0.1,0.8,0.1,0.9,0.1c0.2,0,0.3,0,0.3-0.1c0.1,0,0.1-0.1,0.1-0.2v-1.4H174
			c-0.2,0-0.4,0-0.5,0.1l-0.2-0.4v3.1L180.3,13.9L180.3,13.9z M175.1,6.2h1.2V5.4h-2.1c-0.2,0-0.4,0-0.5,0.1L173.5,5
			c0.2,0.1,0.4,0.1,0.6,0.1h2.2c0-0.6,0-1,0-1.1c0.2,0,0.4,0.1,0.7,0.2c0.3,0.1,0.4,0.2,0.4,0.3s-0.1,0.2-0.2,0.2V5h1.4l0.3-0.5
			c0.1-0.1,0.1-0.1,0.2-0.1c0.1,0,0.2,0.1,0.5,0.4c0.3,0.3,0.4,0.4,0.4,0.5s-0.1,0.1-0.2,0.1h-2.7v0.8h1.3l0.2-0.3
			c0-0.1,0.1-0.1,0.1-0.1c0.1,0,0.2,0.1,0.5,0.3c0.3,0.2,0.4,0.3,0.4,0.4c0,0.1-0.1,0.2-0.3,0.3v0.7c0,0.2,0,0.3,0,0.5l0,0.3
			c0,0.1,0,0.1-0.1,0.2c-0.1,0.1-0.2,0.1-0.4,0.2c-0.2,0.1-0.3,0.1-0.4,0.1s-0.1,0-0.1-0.1h-1.3v0.8l1.1-0.1
			c-0.2-0.2-0.3-0.4-0.4-0.5l0-0.2c0.6,0.3,1,0.5,1.2,0.6c0.2,0.2,0.3,0.3,0.3,0.5c0,0.2,0,0.3-0.1,0.4c0,0.1-0.1,0.2-0.2,0.2
			c-0.1,0-0.2-0.1-0.2-0.2c-0.2-0.3-0.3-0.5-0.4-0.6l-2.2,0.4c-0.8,0.2-1.3,0.3-1.5,0.4c0,0-0.1,0-0.1,0s-0.1,0-0.1-0.1
			s-0.1-0.1-0.2-0.3c-0.1-0.2-0.2-0.4-0.3-0.6c0.9,0,1.6,0,2.3,0V8.5H175c0,0.1,0,0.2-0.1,0.2s-0.2,0.1-0.3,0.2
			c-0.2,0.1-0.3,0.1-0.4,0.1c-0.1,0-0.1,0-0.1-0.2l0-1V6.8c0-0.3,0-0.7,0-1C174.5,5.8,174.9,6,175.1,6.2L175.1,6.2z M174.6,11.1
			c0.9,0.4,1.4,0.8,1.4,1.2c0,0.2,0,0.4-0.1,0.6c-0.1,0.1-0.2,0.2-0.3,0.2c-0.1,0-0.1-0.1-0.2-0.3c-0.2-0.5-0.5-1-0.8-1.4
			L174.6,11.1L174.6,11.1z M176.3,6.5H175v0.7h1.3V6.5z M175,7.5v0.6h1.3V7.5H175z M178.5,7.2V6.5h-1.3v0.7H178.5z M178.5,8.1V7.5
			h-1.3v0.6H178.5z"/>
		<path class="st2" d="M184.8,3.6h0.9l0.3-0.4c0.1-0.1,0.1-0.1,0.2-0.1c0,0,0.2,0.1,0.6,0.4s0.5,0.4,0.5,0.5s-0.1,0.1-0.2,0.2
			s-0.2,0.1-0.3,0.1c-0.1,0-0.1,0.2-0.2,0.3l-1.2,2.6c0.5,0.5,0.9,0.9,1.2,1.4c0.3,0.4,0.4,0.9,0.4,1.5c0,0.7-0.2,1.3-0.6,1.6
			c-0.4,0.3-0.7,0.5-0.9,0.5c-0.1,0-0.1-0.1-0.1-0.3c0-0.4-0.2-0.7-0.7-0.9v-0.3c0.3,0.1,0.6,0.1,0.7,0.1c0.4,0,0.7-0.2,0.7-0.7
			c0-0.2-0.1-0.6-0.2-1.2c-0.1-0.5-0.4-1.1-0.9-1.6c0.3-1.1,0.6-2.2,0.8-3.3h-1.1v10.6c0,0.1,0,0.2-0.1,0.2s-0.2,0.1-0.4,0.2
			c-0.2,0.1-0.4,0.1-0.4,0.1c0,0,0,0,0-0.1l0-0.5c0-0.2,0-0.7,0-1.4V4.3c0-0.7,0-1.1-0.1-1.4C184.1,3.1,184.5,3.3,184.8,3.6z
			 M190.2,5.4c0.5-1.1,0.8-2.1,1-3.1c0.3,0.1,0.6,0.2,0.8,0.3c0.2,0.1,0.4,0.2,0.4,0.2c0.1,0,0.1,0.1,0.1,0.1s-0.1,0.1-0.2,0.1
			c-0.1,0-0.2,0.1-0.3,0.2c-0.1,0.1-0.3,0.3-0.6,0.7l-0.9,1.3h1.6l0.4-0.7c0.1-0.1,0.1-0.2,0.2-0.2s0.3,0.2,0.6,0.5
			c0.3,0.3,0.5,0.6,0.5,0.7s-0.1,0.1-0.2,0.1h-2.9c0.2,0.2,0.4,0.3,0.4,0.3c0,0.1-0.1,0.1-0.2,0.1c0,0-0.1,0-0.1,0
			c-0.1,0-0.2,0.1-0.4,0.2c-0.2,0.1-0.4,0.3-0.7,0.5c-0.3,0.2-0.5,0.4-0.6,0.5c0.5,0.4,0.9,0.8,1.3,1.4c0.7-0.8,1.4-1.7,2-2.6
			c0.7,0.7,1,1.1,1,1.2c0,0.1,0,0.1-0.1,0.1s-0.1,0-0.2,0c-0.1,0-0.1,0-0.1,0c-0.1,0-0.2,0.1-0.4,0.2s-0.5,0.3-1,0.6
			c0.2,1.3,0.5,2.4,0.9,3.1c0.4,0.8,0.9,1.4,1.6,1.9l-0.1,0.2c-0.2-0.1-0.4-0.1-0.6-0.1c-0.4,0-0.6,0.1-0.8,0.3
			c-0.1,0.1-0.1,0.1-0.1,0.1c-0.1,0-0.3-0.4-0.6-1.2c-0.3-0.8-0.5-2.2-0.6-4.1c-0.4,0.3-0.7,0.4-0.8,0.5c0.4,0.7,0.6,1.6,0.6,2.6
			c0,0.7-0.1,1.4-0.2,1.9c-0.2,0.5-0.4,0.9-0.8,1.2c-0.4,0.3-0.7,0.4-0.8,0.4c-0.1,0-0.1-0.1-0.1-0.3c0-0.2-0.1-0.5-0.2-0.6
			c-0.1-0.2-0.5-0.3-1-0.6v-0.2c0.5,0.1,0.9,0.2,1.2,0.2s0.5-0.1,0.6-0.2c0.1-0.1,0.3-0.4,0.4-0.9c0.1-0.5,0.1-0.8,0.1-1.1
			s0-0.5,0-0.6c-0.8,0.9-1.5,1.5-2.2,2c-0.7,0.5-1.5,0.9-2.5,1.2l-0.1-0.2c1.9-1.2,3.4-2.6,4.5-4.3c0-0.2-0.1-0.4-0.2-0.6
			c-0.4,0.5-0.8,0.9-1.1,1.2c-0.3,0.3-0.8,0.6-1.3,0.9l-0.1-0.2c0.8-0.9,1.5-1.8,2-2.8c-0.1-0.1-0.2-0.2-0.3-0.4
			c-0.5,0.3-1.1,0.6-1.9,1l-0.1-0.2c1.1-0.8,1.9-1.7,2.6-2.5h-2.3c-0.2,0-0.4,0-0.5,0.1l-0.2-0.6c0.2,0.1,0.4,0.1,0.6,0.1L190.2,5.4
			L190.2,5.4z M187.7,2.5c0.6,0.3,1.1,0.5,1.4,0.8c0.3,0.3,0.5,0.6,0.5,0.9c0,0.3-0.1,0.6-0.2,0.8c-0.1,0.2-0.3,0.4-0.5,0.4
			c-0.1,0-0.2,0-0.2-0.1c0,0-0.1-0.2-0.1-0.6c-0.1-0.3-0.2-0.7-0.3-1s-0.4-0.6-0.7-1L187.7,2.5L187.7,2.5z"/>
		<path class="st3" d="M129,22.3L129,22.3h-0.6l-0.5-3.2l-1.6,3.2l-1.4-3l-0.3,3h-0.3l0.3-2.9c0-0.4,0.2-1.5-0.5-1.6v0
			c0.8,0,1.1,0.9,1.3,1.3l1.1,2.2l1.8-3.6L129,22.3L129,22.3z"/>
		<path class="st3" d="M132.4,20.8c0,1.1-0.6,1.6-1.4,1.6s-1.4-0.5-1.4-1.6s0.6-1.6,1.4-1.6C131.8,19.2,132.4,19.7,132.4,20.8z
			 M131.8,20.8c0-1-0.2-1.5-0.7-1.5s-0.7,0.5-0.7,1.5s0.2,1.5,0.7,1.5C131.5,22.3,131.8,21.8,131.8,20.8z"/>
		<path class="st3" d="M135.1,19.2v0.4c-0.4,0-0.9-0.1-1,0.9v1.9h-0.6v-2.5c0-0.3-0.2-0.6-0.5-0.6v0h1.1V20
			C134.2,19.3,134.6,19.2,135.1,19.2z"/>
		<path class="st3" d="M136.2,20.7v0.1c0,1.2,1,2.1,1.8,0.9l0.1,0.1c0,0.1-0.4,0.6-1.2,0.6c-0.9,0-1.4-0.7-1.4-1.6s0.5-1.6,1.4-1.6
			c1.1,0,1.2,0.9,1.2,1.2v0.2H136.2z M136.3,20.4h1.2c0-0.7-0.1-1-0.5-1C136.6,19.4,136.3,19.6,136.3,20.4z"/>
		<path class="st3" d="M144.5,20c0,2.4-2.3,2.3-2.3,2.3h-1.3v-4c0-0.3-0.2-0.6-0.5-0.6v0h1.8C142.2,17.7,144.5,17.5,144.5,20z
			 M143.8,20c0-2.1-1.3-2.1-1.6-2.1h-0.7v4.2h0.7C142.4,22.1,143.8,22.1,143.8,20z"/>
		<path class="st3" d="M147.2,19.2v0.4c-0.4,0-0.9-0.1-1,0.9v1.9h-0.6v-2.5c0-0.3-0.2-0.6-0.5-0.6v0h1.1V20
			C146.4,19.3,146.8,19.2,147.2,19.2z"/>
		<path class="st3" d="M148.4,20.7v0.1c0,1.2,1,2.1,1.9,0.9l0.1,0.1c0,0.1-0.4,0.6-1.2,0.6c-0.9,0-1.4-0.7-1.4-1.6s0.5-1.6,1.4-1.6
			c1.1,0,1.2,0.9,1.2,1.2v0.2H148.4z M148.5,20.4h1.2c0-0.7-0.1-1-0.5-1C148.8,19.4,148.5,19.6,148.5,20.4z"/>
		<path class="st3" d="M153.5,20.1v2.2h-0.6v-0.5c-0.3,0.5-1.8,1.1-1.8-0.3c0-1.1,1-1,1.8-1.3v-0.3c0-0.4-0.1-0.6-0.5-0.6
			c-0.2,0-0.6,0-0.9,0.5l-0.2,0c0.2-0.5,0.7-0.6,1.1-0.6C153.2,19.1,153.5,19.5,153.5,20.1L153.5,20.1z M152.9,21.7v-1.3
			c-0.6,0.2-1.2,0.2-1.2,1.1C151.7,22.4,152.4,22.4,152.9,21.7z"/>
		<path class="st3" d="M158.9,20.2v2.1h-0.6v-2.1c0-0.6-0.3-0.9-0.6-0.9c-0.4,0-0.6,0.2-0.7,0.4v2.6h-0.6v-2.1
			c0-0.6-0.3-0.9-0.6-0.9c-0.3,0-0.6,0.2-0.7,0.4v2.6h-0.6v-2.5c0-0.3-0.2-0.6-0.5-0.6v0h1.1v0.3c0.2-0.2,0.4-0.3,0.7-0.3
			c0.5,0,0.8,0.2,1,0.5c0.2-0.3,0.5-0.5,0.9-0.5C158.6,19.1,158.9,19.7,158.9,20.2L158.9,20.2z"/>
		<path class="st3" d="M161,22.4l1.9-4.7l1.9,4.7h-0.7l-0.4-0.9h-2.1l-0.4,0.9H161z M161.8,21.2h1.9l-1-2.3L161.8,21.2z"/>
		<path class="st3" d="M167.1,19.2v0.4c-0.4,0-0.9-0.1-1,0.9v1.9h-0.6v-2.5c0-0.3-0.2-0.6-0.5-0.6v0h1.1V20
			C166.2,19.3,166.6,19.2,167.1,19.2z"/>
		<path class="st3" d="M170,21.8c-0.1,0.2-0.5,0.7-1,0.7c-0.8,0-1.3-0.7-1.3-1.6s0.5-1.6,1.3-1.6c0.6,0,0.9,0.4,1,0.7l-0.1,0.1
			c-0.6-1.1-1.6-0.6-1.6,0.9s1,1.9,1.6,0.9L170,21.8L170,21.8z"/>
		<path class="st3" d="M173.5,20.2v2.1h-0.6v-2.1c0-0.6-0.3-0.9-0.6-0.9c-0.3,0-0.6,0.2-0.7,0.4v2.6H171v-4c0-0.3-0.2-0.6-0.5-0.6v0
			h1.1v1.8c0.2-0.2,0.4-0.3,0.7-0.3C173.1,19.2,173.5,19.7,173.5,20.2z"/>
		<path class="st3" d="M174.8,19.1v3.2h-0.6v-2.6c0-0.3-0.2-0.6-0.5-0.6v0H174.8z M174.6,17.8c-0.2,0-0.4,0.2-0.4,0.4
			c0,0.2,0.2,0.4,0.4,0.4c0.2,0,0.4-0.2,0.4-0.4C174.9,18,174.8,17.8,174.6,17.8z"/>
		<path class="st3" d="M177.4,22c-0.1,0.2-0.3,0.4-0.8,0.4c-0.5,0-0.6-0.3-0.6-0.6v-2.4h-0.5v-0.2h0.5V19c0-0.3-0.2-0.6-0.5-0.6v0
			h1.1v0.8h0.6v0.2h-0.6v2.3c0,0.2,0,0.4,0.2,0.5c0.1,0,0.4,0,0.5-0.3L177.4,22L177.4,22z"/>
		<path class="st3" d="M178.3,20.7v0.1c0,1.2,1,2.1,1.9,0.9l0.1,0.1c0,0.1-0.4,0.6-1.2,0.6c-0.9,0-1.4-0.7-1.4-1.6s0.5-1.6,1.4-1.6
			c1,0,1.2,0.9,1.2,1.2v0.2H178.3z M178.3,20.4h1.2c0-0.7-0.1-1-0.5-1S178.4,19.6,178.3,20.4z"/>
		<path class="st3" d="M183.4,21.8c-0.1,0.2-0.5,0.7-1,0.7c-0.8,0-1.3-0.7-1.3-1.6s0.5-1.6,1.3-1.6c0.6,0,0.9,0.4,1,0.7l-0.1,0.1
			c-0.6-1.1-1.6-0.6-1.6,0.9s1,1.9,1.6,0.9L183.4,21.8L183.4,21.8z"/>
		<path class="st3" d="M185.5,22c-0.1,0.2-0.3,0.4-0.8,0.4c-0.5,0-0.6-0.3-0.6-0.6v-2.4h-0.5v-0.2h0.5V19c0-0.3-0.2-0.6-0.5-0.6v0
			h1.1v0.8h0.6v0.2h-0.6v2.3c0,0.2,0,0.4,0.2,0.5c0.1,0,0.4,0,0.5-0.3L185.5,22L185.5,22z"/>
		<path class="st3" d="M188.8,19.2v3.2h-0.6v-0.2c-0.2,0.2-0.4,0.3-0.7,0.3c-0.8,0-1.1-0.5-1.1-1v-1.6c0-0.3-0.2-0.6-0.5-0.6v0h1.1
			v2.2c0,0.6,0.3,0.8,0.6,0.8c0.3,0,0.6-0.1,0.7-0.3v-2.7L188.8,19.2L188.8,19.2z"/>
		<path class="st3" d="M191.6,19.2v0.4c-0.4,0-0.9-0.1-1,0.9v1.9H190v-2.5c0-0.3-0.2-0.6-0.5-0.6v0h1.1V20
			C190.8,19.3,191.1,19.2,191.6,19.2z"/>
		<path class="st3" d="M192.8,20.7v0.1c0,1.2,1,2.1,1.8,0.9l0.1,0.1c0,0.1-0.4,0.6-1.2,0.6c-0.9,0-1.4-0.7-1.4-1.6s0.5-1.6,1.4-1.6
			c1.1,0,1.2,0.9,1.2,1.2v0.2H192.8z M192.8,20.4h1.2c0-0.7-0.1-1-0.5-1C193.2,19.4,192.9,19.6,192.8,20.4z"/>
		<path class="st3" d="M234,3.7c1,0,2.1,0,3.3,0c0.6,0,1,0.1,1.4,0.2c0.5,0.3,0.6,0.8,0.4,1.4c-0.1,1.1-0.1,2-0.1,2.9
			c0.1,0.5,0,0.9-0.1,1.2c-0.1,0.4-0.4,0.6-0.9,0.7c-1.5-0.1-2.6-0.1-3.3,0.1c-0.8,0.3-1.2,0-1.4-0.7c-0.1-1.6-0.1-3.2-0.1-4.8
			C233.2,4.1,233.4,3.8,234,3.7L234,3.7z M237.2,4.7c-0.8,0-1.6,0-2.4,0.1c-0.3,0.1-0.4,0.3-0.5,0.6c0,0.1,0,0.2,0,0.3
			c0,0.3,0.2,0.4,0.6,0.5l2.5,0c0.4,0,0.5-0.2,0.5-0.5l0-0.5C237.7,4.9,237.5,4.7,237.2,4.7L237.2,4.7z M237.4,7.3
			c-0.9,0-1.7,0-2.6,0c-0.3,0-0.5,0.2-0.5,0.5c0,0.5,0.1,0.8,0.3,1c0.3,0.1,0.5,0.1,0.8,0l1.9-0.1c0.3,0,0.4-0.2,0.5-0.6l0-0.4
			C237.9,7.5,237.7,7.4,237.4,7.3L237.4,7.3z M240.6,2.6c0.2-0.4,0.6-0.5,1.1-0.4c1.5-0.1,2.9-0.1,4.4,0c1,0.2,1.3,0.8,0.9,1.6
			c-0.2,1.5-0.2,4.3-0.1,8.6c0,0.7,0,1.1-0.1,1.4c-0.2,0.6-0.5,0.7-0.9,0.4c-0.2-0.2-0.3-0.4-0.3-0.7l0-3.4c0-0.3-0.2-0.5-0.5-0.5
			c-1.4-0.1-2.4-0.1-3.1,0.1c-0.3,0-0.5,0.2-0.7,0.5c-0.8,1.7-1.9,2.9-3.3,3.8c-0.6,0.4-1.1,0.4-1.6-0.2c-0.1-0.2-0.1-0.4,0.1-0.5
			c0.4-0.3,0.8-0.6,1.2-0.8c1.6-1.1,2.6-2.4,3-4c0.3-1.8,0.2-3.5-0.2-5.2C240.6,2.9,240.6,2.7,240.6,2.6L240.6,2.6z M245.2,6.5
			c-1.1,0-1.9,0-2.6,0c-0.3,0-0.4,0.2-0.5,0.5c0,0.3,0,0.6-0.1,0.9c0,0.2,0.2,0.4,0.5,0.4c0.9,0,1.8,0,2.8,0c0.3,0,0.4-0.2,0.4-0.4
			V7C245.8,6.7,245.6,6.5,245.2,6.5L245.2,6.5z M245.2,3.2c-0.8,0-1.6,0-2.6,0.1c-0.3,0.1-0.4,0.4-0.4,0.7c0,0.2,0.1,0.5,0,0.7
			c0,0.3,0.2,0.5,0.5,0.5c0.9,0,1.8,0,2.7,0c0.3,0,0.4-0.2,0.4-0.5l0-1.1C245.7,3.4,245.5,3.2,245.2,3.2L245.2,3.2z"/>
		<path class="st3" d="M250.6,3.7c0.3-0.4,0.8-0.5,1.3-0.4l2.6,0.1c0.2,0,0.4,0,0.7,0.1c0.4,0.1,0.4,0.3,0.3,0.7
			c-0.1,0.2-0.3,0.4-0.6,0.4l-0.7,0c-0.3,0-0.5,0.2-0.5,0.5l0,1.2c0,0.3,0.1,0.5,0.4,0.5c0.6-0.1,1,0.1,1.3,0.3
			c0.1,0.3,0.1,0.5-0.1,0.7c-0.2,0.1-0.6,0.2-1.1,0.1c-0.3,0-0.4,0.1-0.4,0.4l0,1.5c0,0.3,0.2,0.4,0.6,0.3c0.6,0,1.1,0,1.3,0.1
			c0.3,0.4,0.2,0.7-0.4,0.9c-0.5,0.1-0.9,0.2-1.4,0.2c-0.8,0.2-1.7,0.4-2.7,0.7c-0.3,0.1-0.5,0-0.8-0.2c-0.2-0.3-0.1-0.7,0.6-1.2
			c0.4-0.2,0.8-0.3,1.2-0.3c0.3,0,0.4-0.2,0.5-0.5l0-1.5c0-0.3-0.2-0.4-0.5-0.4c-0.5,0.1-1,0.1-1.4,0c-0.3-0.2-0.4-0.4-0.3-0.7
			c0.3-0.4,0.9-0.6,1.8-0.5c0.3,0,0.4-0.2,0.4-0.5L252.5,5c0-0.3-0.1-0.4-0.4-0.4c-0.7,0.1-1.2,0.1-1.5-0.1
			C250.4,4.3,250.4,4,250.6,3.7L250.6,3.7z M260.5,8.6c0.3-0.1,0.5,0,0.7,0.3c0.1,0.1,0.2,0.1,0.5,0.1c0.6,0,1.2,0,1.8,0
			c0.5,0.1,0.6,0.3,0.4,0.8c-0.2,0.4-0.5,0.5-0.9,0.4c-0.5-0.1-0.9-0.2-1.3-0.2c-0.3,0-0.4,0.2-0.4,0.5c0,0.4,0.2,0.5,0.5,0.5
			c1.4,0.1,2.8,0.3,4.2,0.5c0.2,0.2,0.2,0.4-0.1,0.7c-0.3,0.5-0.7,0.8-1.1,0.6c-0.9-0.4-2-0.7-3-0.8c-0.3,0-0.4,0.1-0.5,0.5l0,1.3
			c-0.1,0.5-0.3,0.8-0.6,0.8c-0.4-0.1-0.5-0.4-0.5-0.9c0-0.4-0.1-0.9-0.1-1.3c0-0.3-0.1-0.4-0.4-0.4c-1.4-0.1-2.6,0.2-3.6,0.7
			c-0.3,0.2-0.6,0.2-0.9,0c-0.4-0.4-0.4-0.8,0.1-1.3c0.3-0.2,0.8-0.3,1.4-0.3c0.3,0,0.4-0.2,0.4-0.4c0-0.5,0-0.9-0.2-1.2
			c0.3-0.7,0.8-0.9,1.3-0.8h1.5c0.3,0,0.5-0.1,0.6-0.2C260.3,8.7,260.4,8.7,260.5,8.6L260.5,8.6z M259.3,2.2
			c0.1-0.5,0.3-0.7,0.7-0.7c0.3,0.1,0.5,0.2,0.6,0.5c0,0.2,0.2,0.4,0.4,0.4c0.8,0,1.4,0,1.7,0.2c0.4,0,0.6,0.3,0.7,0.7
			c-0.1,0.4-0.2,0.6-0.2,0.7c0,0.2,0.1,0.3,0.5,0.3c0.5,0,0.9,0.1,1.4,0c0.4,0,0.7,0.1,0.7,0.1c0.1,0.2,0,0.6-0.5,1
			c-0.3,0.3-0.7,0.4-1,0.3c-0.3-0.2-0.8-0.3-1.4-0.4c-2.4-0.2-4.6-0.1-6.6,0.3c-0.2,0-0.4,0-0.4,0c-0.5-0.2-0.6-0.5-0.2-1
			c0.2-0.1,0.4-0.2,0.8-0.3c0.5-0.1,1.3-0.1,2.4-0.1c0.3,0,0.4-0.1,0.5-0.4c0-0.3-0.1-0.4-0.5-0.4l-1.4,0.1c-0.3,0-0.6-0.1-0.7-0.4
			c0-0.2,0.2-0.5,0.7-0.8c0.3-0.2,0.8-0.2,1.5,0C259.1,2.4,259.3,2.4,259.3,2.2L259.3,2.2z M259.9,5.8c0.9-0.1,1.8,0,2.8,0.2
			c0.3,0.1,0.4,0.3,0.5,0.6c-0.1,1.2-0.4,1.8-1,2c-1.4-0.1-2.7,0-3.9,0.2c-0.2,0.1-0.4-0.1-0.5-0.5c0-0.5-0.1-0.9-0.2-1.4
			c-0.1-0.4,0-0.8,0.4-0.9C258.4,5.8,259.1,5.8,259.9,5.8L259.9,5.8z M259.7,10c-0.4,0-0.7,0-1.1,0.1c-0.3,0-0.5,0.2-0.5,0.5v0.2
			c0,0.3,0.2,0.4,0.5,0.4c0.3,0,0.7,0,1,0c0.3,0,0.4-0.2,0.4-0.5v-0.2C260.1,10.2,259.9,10,259.7,10L259.7,10z M261.4,6.7
			c-1.2-0.1-2-0.1-2.6,0.1c0,0-0.1,0.1-0.1,0.3c-0.1,0.4,0.1,0.6,0.6,0.4l2.1-0.1c0.3-0.1,0.5-0.1,0.5-0.3
			C262,6.8,261.8,6.6,261.4,6.7z M261.6,3.4c-0.2-0.1-0.5-0.1-0.7-0.1c-0.3,0-0.4,0.2-0.4,0.5c0,0.3,0.1,0.5,0.4,0.5l0.7,0
			c0.3,0,0.4-0.1,0.5-0.2C262.2,3.7,262,3.5,261.6,3.4L261.6,3.4z"/>
		<path class="st3" d="M275.6,2.3c0.1-0.4,0.4-0.6,0.7-0.5c0.2,0.1,0.4,0.3,0.4,0.6c0,0.2,0.2,0.4,0.5,0.4c0.5,0,1,0.1,1.4,0.1
			c0.9,0.1,1.1,0.6,0.8,1.4c0,0.1,0.1,0.1,0.4,0.1h0.6c0.6-0.1,0.9,0.1,0.9,0.4c-0.4,0.6-0.8,0.8-1.3,0.7l-0.4-0.1
			c-0.3,0-0.5,0.1-0.5,0.5c-0.1,1-0.6,1.4-1.4,1.3c-0.2-0.1-0.4-0.1-0.5-0.1c-0.3,0-0.4,0.1-0.4,0.3c0,0.2,0.1,0.3,0.4,0.3
			c0.9,0,1.5,0,1.9,0.1c0.2,0.1,0.3,0.2,0.3,0.4c0.1,0.3-0.1,0.5-0.5,0.6h-1.6c-0.4,0-0.5,0.2-0.5,0.5c0,0.3,0.2,0.4,0.5,0.4
			c1-0.1,2.1-0.1,3.2-0.1c0.9,0.1,1,0.5,0.2,1.2c-0.3,0.2-0.6,0.2-1.1,0.1c-0.8-0.2-1.6-0.2-2.4-0.2c-0.3,0-0.5,0.2-0.5,0.4
			l-0.1,0.8c-0.1,0.3,0,0.4,0.4,0.5c2.1,0.5,3.9,0.8,5.4,1c0.4,0,0.6,0.1,0.8,0.2c0.2,0.2,0.1,0.5-0.4,0.9c-0.8,0.8-1.7,0.9-2.7,0.3
			c-1-0.4-1.9-0.8-2.7-1c-2.2-0.7-4-1.1-5.2-1.1c-0.7-0.1-1.3,0-2,0.1c-0.3,0-0.5,0.1-0.6,0.4c-0.7,0.9-1.2,1.4-1.7,1.4
			c-0.2,0-0.3-0.1-0.4-0.3c-0.1-0.4,0-0.7,0.3-1c1.6-1.6,2.6-2.8,2.8-3.8c-0.2-0.3-0.6-0.3-1.2-0.1c-0.6,0.1-0.9-0.2-0.8-0.9
			c0.1-0.2,0.3-0.4,0.6-0.6c0.6-0.7,1-1.3,1.2-1.8c0-0.1-0.2-0.1-0.5-0.2l-0.6,0c-0.3,0-0.6,0-0.9-0.1c-0.5-0.3-0.6-0.6-0.2-0.9
			c0.4-0.3,0.7-0.4,1-0.2c0.4,0.2,1.1,0.3,2,0.5c0.2,0.1,0.4,0.1,0.6,0.3c0.2,0.4,0.1,0.8-0.2,1.1c-0.3,0.4-0.7,0.9-1,1.3
			c-0.2,0.3-0.2,0.5,0.1,0.5c1.2-0.1,1.5,0.4,1,1.4c-0.2,0.4-0.4,0.9-0.7,1.3c-0.2,0.3-0.1,0.4,0.2,0.5c1.8,0.2,3.1,0.4,4,0.5
			c0.3,0.1,0.4-0.1,0.3-0.4l0-0.5c0-0.3-0.2-0.4-0.5-0.4c-0.9,0-1.7,0.1-2.5,0.3c-0.6,0-0.7-0.3-0.5-0.8c0-0.1,0.1-0.3,0.3-0.4
			c0.4-0.2,0.9-0.3,1.5-0.2l1.3,0c0.3,0,0.4-0.1,0.4-0.4c0-0.3-0.2-0.4-0.5-0.4c-0.4,0-0.8,0.1-1.1,0.2c-0.5,0.1-0.8-0.1-0.9-0.5
			c0-0.4,0.2-0.6,0.7-0.7c0.5-0.1,0.9-0.1,1.4-0.1c0.3,0,0.4-0.1,0.4-0.3c0-0.2-0.2-0.3-0.5-0.3c-0.4,0.1-0.8,0.1-1.2,0.2
			c-0.7,0-1-0.3-0.8-0.9c0.1-0.2,0.5-0.4,1-0.5h1.1c0.3,0,0.4-0.1,0.4-0.3s-0.2-0.3-0.5-0.3c-0.6,0-1.4,0.2-2.4,0.4
			c-0.5,0-0.7-0.2-0.7-0.7c0-0.2,0.2-0.4,0.4-0.6c0.2-0.1,0.3-0.2,0.5-0.2c0.7,0,1.4,0,2.2,0c0.3,0,0.4-0.1,0.4-0.2
			c0-0.2-0.2-0.2-0.5-0.2L273.3,4c-0.4,0-0.5-0.2-0.5-0.5c0-0.1,0.1-0.2,0.2-0.4c0.3-0.2,0.5-0.3,0.8-0.4c0.2,0,0.6,0,1.2,0.1
			C275.3,2.8,275.5,2.6,275.6,2.3L275.6,2.3z M277.1,3.7c-0.2,0-0.4,0.1-0.4,0.3c0,0.2,0.1,0.3,0.4,0.3h0.5c0.3,0,0.4-0.1,0.4-0.2
			c0-0.2-0.1-0.3-0.3-0.4C277.5,3.8,277.3,3.7,277.1,3.7z M278,5.5c0-0.1-0.1-0.2-0.4-0.2h-0.4c-0.3,0-0.4,0.1-0.4,0.4
			c0,0.2,0.2,0.3,0.6,0.3C277.7,6.1,278,5.9,278,5.5L278,5.5z"/>
		<path class="st3" d="M284.8,4.7c0.2-0.6,0.7-0.9,1.4-0.8C286.8,4,288,4,289.6,4c0.3,0,0.5,0,0.8,0.1c0.6,0,0.7,0.3,0.4,0.8
			c-0.2,0.2-0.6,0.3-1.1,0.2c-1.4,0-2.8,0.1-4.3,0.2C285,5.3,284.8,5.1,284.8,4.7L284.8,4.7z M285.7,8.7c0-0.4,0.3-0.7,0.9-0.8
			c1,0,2.1,0,3.1,0c0.5,0,0.8,0.2,0.8,0.6c-0.1,0.4-0.4,0.6-1,0.5c-1.1,0-2.2,0-3.3,0.1C286,9.2,285.8,9,285.7,8.7L285.7,8.7z
			 M286.4,6.2c1.5-0.1,2.6-0.1,3.4,0c0.4,0.1,0.6,0.4,0.4,0.8c-0.1,0.2-0.2,0.2-0.4,0.3c-1.3,0-2.4,0-3.2,0.2
			c-0.5,0.1-0.9-0.1-0.9-0.6C285.9,6.4,286.1,6.2,286.4,6.2z M285.9,10.5c0.2-0.4,0.6-0.5,1-0.4c0.8,0,1.7-0.1,2.5,0
			c0.8,0.1,1.1,0.5,0.9,1.2v1.3c-0.2,0.9-0.7,1.3-1.6,1.2c-0.6-0.1-1.3-0.1-2,0.1c-0.6,0-0.9-0.3-0.9-0.9
			C285.7,11.7,285.8,10.9,285.9,10.5L285.9,10.5z M286.2,2.5c0.4-0.5,0.8-0.7,1.3-0.5c0.8,0.1,1.5,0.2,2.3,0.2
			c0.3,0.1,0.5,0.2,0.6,0.2c0.2,0.3,0,0.6-0.3,0.8c-0.3,0.1-0.8,0-1.2,0c-0.8,0-1.4,0-1.9,0.1C286.2,3.4,286,3.1,286.2,2.5
			L286.2,2.5z M288.4,11.1c-0.6,0-1,0-1.3,0.1c-0.1,0-0.1,0.2-0.1,0.5V12c0,0.3,0.2,0.4,0.5,0.4h1.1c0.3,0,0.4-0.2,0.5-0.5v-0.4
			C289,11.3,288.8,11.1,288.4,11.1L288.4,11.1z M296.2,7.4c0.3-0.2,0.5-0.2,0.8,0c0.3,0.2,0.3,0.7,0.2,1.2c-0.1,0.3-0.3,0.8-0.6,1.4
			c-0.2,0.4-0.2,0.6,0.2,0.9c1.1,0.8,2.2,1.5,3.4,2.2c0.2,0.2,0.2,0.3,0.2,0.5c-0.2,0.4-0.4,0.6-0.8,0.7c-0.6,0.3-1.2,0.1-1.8-0.6
			c-0.5-0.6-1.1-1.3-1.8-2c-0.2-0.2-0.5-0.2-0.8,0.1c-0.7,0.6-1.6,1.2-2.7,1.6c-0.6,0.4-1.3,0.3-1.9-0.3c-0.3-0.3-0.1-0.6,0.4-0.8
			c1.2,0,2.4-0.4,3.4-1.1c0.3-0.2,0.3-0.5,0-0.7c-0.7-0.5-1.4-0.8-1.9-1c-0.3-0.1-0.4-0.3-0.4-0.7c0.3-0.3,0.8-0.4,1.3-0.2
			c0.2,0.1,0.5,0.2,0.7,0.4c0.2,0.2,0.5,0.5,1,0.9c0.3,0.2,0.5,0.2,0.7-0.2c0.2-0.4,0.3-0.8,0.3-1.3C296,7.9,296.1,7.6,296.2,7.4
			L296.2,7.4z M294.5,2.3c1-0.1,1.9,0.1,2.6,0.4c0.3,0.2,0.5,0.5,0.5,0.8c-0.2,0.6-0.3,1.2-0.4,1.9c0,0.3,0.1,0.5,0.4,0.4h1
			c0.5,0,0.7,0.1,0.8,0.4c0,0.3-0.2,0.6-0.5,0.9c-0.1,0.1-0.4,0.1-0.9-0.1c-2.1-0.4-3.9-0.3-5.2,0.1c-0.4,0.1-0.6,0.1-0.9,0
			c-0.3-0.2-0.3-0.4-0.1-0.8c0.1-0.1,0.3-0.3,0.4-0.4c0.2-0.1,0.4-0.3,0.5-0.5c0.2-0.6,0.2-1.2,0.1-1.9c-0.1-0.4-0.1-0.6-0.1-0.8
			c0.1-0.2,0.2-0.3,0.5-0.3C293.7,2.4,294.1,2.4,294.5,2.3L294.5,2.3z M295.8,3.4c-0.7-0.2-1.1-0.1-1.4,0.1
			c-0.2,0.1-0.3,0.3-0.3,0.7C294,4.6,294,5,294,5.4c-0.1,0.4,0,0.6,0.5,0.5c0.4,0,0.8-0.1,1.2,0c0.3,0,0.4-0.2,0.5-0.5
			c0-0.4,0.1-0.9,0-1.4C296.2,3.7,296.1,3.5,295.8,3.4L295.8,3.4z"/>
		<path class="st3" d="M233.5,17.9h0.6l0.9,2.6l0.9-2.6h0.6v3H236v-1.8c0-0.1,0-0.2,0-0.3c0-0.1,0-0.3,0-0.5l-0.9,2.5h-0.4l-0.9-2.5
			v0.1c0,0.1,0,0.2,0,0.3s0,0.3,0,0.3v1.8h-0.4L233.5,17.9L233.5,17.9z"/>
		<path class="st3" d="M237.3,17.9h0.4v3h-0.4V17.9z"/>
		<path class="st3" d="M239,17.9h0.5l1.5,2.4v-2.4h0.4v3h-0.4l-1.5-2.4v2.4H239L239,17.9L239,17.9z"/>
		<path class="st3" d="M244.2,18c0.3,0.2,0.5,0.4,0.5,0.8h-0.4c-0.1-0.2-0.1-0.4-0.3-0.5c-0.1-0.1-0.3-0.1-0.6-0.1
			c-0.3,0-0.5,0.1-0.7,0.3c-0.2,0.2-0.3,0.5-0.3,0.9c0,0.4,0.1,0.6,0.2,0.9c0.1,0.2,0.4,0.3,0.7,0.3c0.3,0,0.5-0.1,0.6-0.2
			s0.3-0.4,0.3-0.8h-0.9v-0.3h1.3v1.6h-0.3l-0.1-0.4c-0.1,0.1-0.2,0.3-0.4,0.3c-0.2,0.1-0.4,0.1-0.7,0.1c-0.4,0-0.6-0.1-0.9-0.4
			c-0.3-0.3-0.4-0.7-0.4-1.2s0.1-0.9,0.4-1.2c0.2-0.3,0.6-0.4,1-0.4C243.8,17.8,244,17.9,244.2,18L244.2,18z"/>
		<path class="st3" d="M248,17.9l0.6,2.5l0.7-2.5h0.4l0.7,2.5l0.6-2.5h0.4l-0.8,3h-0.4l-0.7-2.5l-0.7,2.5h-0.4l-0.8-3H248z"/>
		<path class="st3" d="M252.3,17.9h2.2v0.4h-1.8v0.9h1.6v0.4h-1.6v1h1.8v0.4h-2.2V17.9z"/>
		<path class="st3" d="M255.7,17.9h0.4v3h-0.4V17.9z"/>
		<path class="st3" d="M261.6,17.9h0.7l1.1,3h-0.7l-0.2-0.6h-1.1l-0.2,0.6h-0.6L261.6,17.9L261.6,17.9z M261.6,19.8h0.8l-0.4-1.2
			L261.6,19.8L261.6,19.8z"/>
		<path class="st3" d="M266.3,18c0.1,0,0.2,0.1,0.3,0.2c0.1,0.1,0.1,0.2,0.2,0.3c0,0.1,0.1,0.2,0.1,0.3c0,0.1,0,0.3-0.1,0.4
			c-0.1,0.1-0.2,0.2-0.4,0.3c0.1,0.1,0.2,0.1,0.3,0.2c0.1,0.1,0.1,0.3,0.1,0.5v0.2c0,0.1,0,0.2,0,0.3c0,0.1,0,0.1,0.1,0.2v0.1h-0.7
			c0-0.1,0-0.1,0-0.2c0-0.1,0-0.2,0-0.3v-0.3c0-0.2,0-0.3-0.1-0.4s-0.2-0.1-0.4-0.1H265v1.2h-0.6v-3h1.4
			C266,17.9,266.2,17.9,266.3,18L266.3,18z M265,18.4v0.8h0.7c0.1,0,0.2,0,0.3-0.1c0.1-0.1,0.2-0.2,0.2-0.3c0-0.2-0.1-0.3-0.2-0.4
			c-0.1,0-0.2-0.1-0.3-0.1L265,18.4L265,18.4z"/>
		<path class="st3" d="M268.2,18.2c0.2-0.2,0.6-0.4,0.9-0.4c0.5,0,0.9,0.2,1.1,0.5c0.1,0.2,0.2,0.4,0.2,0.6h-0.6
			c0-0.1-0.1-0.3-0.2-0.3c-0.1-0.1-0.3-0.2-0.5-0.2c-0.2,0-0.4,0.1-0.5,0.3c-0.1,0.2-0.2,0.4-0.2,0.8s0.1,0.6,0.2,0.8
			c0.1,0.2,0.3,0.2,0.5,0.2c0.2,0,0.4-0.1,0.5-0.2c0.1-0.1,0.1-0.2,0.2-0.4h0.6c0,0.3-0.2,0.6-0.4,0.8c-0.2,0.2-0.5,0.3-0.8,0.3
			c-0.4,0-0.8-0.1-1-0.4c-0.2-0.3-0.4-0.7-0.4-1.2C267.8,18.9,268,18.5,268.2,18.2L268.2,18.2z"/>
		<path class="st3" d="M271.5,20.9v-3h0.6V19h1.2v-1.2h0.6v3h-0.6v-1.4h-1.2v1.4H271.5z"/>
		<path class="st3" d="M275.7,20.9H275v-3h0.6V20.9z"/>
		<path class="st3" d="M279,17.9v0.5h-0.9v2.5h-0.6v-2.5h-0.9v-0.5H279z"/>
		<path class="st3" d="M282.1,18.4h-1.6v0.6h1.5v0.5h-1.5v0.8h1.6v0.5H280v-3h2.2V18.4L282.1,18.4z"/>
		<path class="st3" d="M283.6,18.2c0.2-0.2,0.5-0.4,0.9-0.4c0.5,0,0.9,0.2,1.1,0.5c0.1,0.2,0.2,0.4,0.2,0.6h-0.6
			c0-0.1-0.1-0.3-0.1-0.3c-0.1-0.1-0.3-0.2-0.5-0.2c-0.2,0-0.4,0.1-0.5,0.3c-0.1,0.2-0.2,0.4-0.2,0.8s0.1,0.6,0.2,0.8
			c0.1,0.2,0.3,0.2,0.5,0.2c0.2,0,0.4-0.1,0.5-0.2c0.1-0.1,0.1-0.2,0.1-0.4h0.6c-0.1,0.3-0.2,0.6-0.4,0.8c-0.2,0.2-0.5,0.3-0.8,0.3
			c-0.4,0-0.8-0.1-1-0.4c-0.2-0.3-0.4-0.7-0.4-1.2C283.2,18.9,283.3,18.5,283.6,18.2L283.6,18.2z"/>
		<path class="st3" d="M289,17.9v0.5h-0.9v2.5h-0.6v-2.5h-0.9v-0.5H289z"/>
		<path class="st3" d="M290,17.8h0.6v1.9c0,0.2,0,0.4,0.1,0.5c0.1,0.2,0.2,0.3,0.5,0.3s0.4-0.1,0.5-0.3c0.1-0.1,0.1-0.2,0.1-0.5
			v-1.9h0.6v1.9c0,0.3-0.1,0.6-0.1,0.8c-0.2,0.3-0.5,0.5-1.1,0.5s-0.9-0.2-1-0.5c-0.1-0.2-0.1-0.4-0.1-0.8L290,17.8L290,17.8z"/>
		<path class="st3" d="M295.5,18c0.1,0,0.2,0.1,0.3,0.2c0.1,0.1,0.1,0.2,0.2,0.3c0,0.1,0.1,0.2,0.1,0.3c0,0.1,0,0.3-0.1,0.4
			c-0.1,0.1-0.2,0.2-0.4,0.3c0.1,0.1,0.2,0.1,0.3,0.2c0.1,0.1,0.1,0.3,0.1,0.5v0.2c0,0.1,0,0.2,0,0.3c0,0.1,0,0.1,0.1,0.2v0.1h-0.7
			c0-0.1,0-0.1,0-0.2c0-0.1,0-0.2,0-0.3v-0.3c0-0.2,0-0.3-0.1-0.4c-0.1-0.1-0.2-0.1-0.4-0.1h-0.6v1.2h-0.6v-3h1.4
			C295.2,17.9,295.4,17.9,295.5,18L295.5,18z M294.2,18.4v0.8h0.7c0.1,0,0.2,0,0.3-0.1c0.1-0.1,0.2-0.2,0.2-0.3
			c0-0.2-0.1-0.3-0.2-0.4c-0.1,0-0.2-0.1-0.3-0.1L294.2,18.4L294.2,18.4z"/>
		<path class="st3" d="M299.3,18.4h-1.6v0.6h1.5v0.5h-1.5v0.8h1.6v0.5h-2.3v-3h2.2V18.4L299.3,18.4z"/>
		
			<linearGradient id="SVGID_00000127042974708757677030000011426672308214227367_" gradientUnits="userSpaceOnUse" x1="209.845" y1="4.1047" x2="225.815" y2="21.3547" gradientTransform="matrix(1 0 0 -1 0 26)">
			<stop  offset="0" style="stop-color:#C9C69C"/>
			<stop  offset="4.000000e-02" style="stop-color:#C8C195"/>
			<stop  offset="9.000000e-02" style="stop-color:#C5B583"/>
			<stop  offset="0.15" style="stop-color:#C1A165"/>
			<stop  offset="0.21" style="stop-color:#BC8A42"/>
			<stop  offset="0.25" style="stop-color:#BE8E48"/>
			<stop  offset="0.31" style="stop-color:#C5995A"/>
			<stop  offset="0.37" style="stop-color:#D0AC79"/>
			<stop  offset="0.44" style="stop-color:#DFC7A2"/>
			<stop  offset="0.46" style="stop-color:#E3CDAC"/>
			<stop  offset="0.52" style="stop-color:#E6D3B2"/>
			<stop  offset="0.62" style="stop-color:#F0E5C3"/>
			<stop  offset="0.68" style="stop-color:#FAF6D2"/>
			<stop  offset="0.72" style="stop-color:#F3EAC2"/>
			<stop  offset="0.85" style="stop-color:#DCC28F"/>
			<stop  offset="0.95" style="stop-color:#CEA96F"/>
			<stop  offset="1" style="stop-color:#C9A063"/>
		</linearGradient>
		<path style="fill:url(#SVGID_00000127042974708757677030000011426672308214227367_);" d="M228.7,12.3c-0.1-3.8-2.2-7.1-5.4-8.8
			c-0.2-0.1-0.4-0.2-0.7-0.3c-0.3-0.2-0.7-0.3-1-0.4c-0.4-0.1-0.9-0.2-1.4-0.3c0,0-0.1,0-0.1,0c-0.3,0-0.5-0.1-0.8-0.1
			c0,0,0,0-0.1,0V1.7c-0.3-0.6-0.5-1.1-0.7-1.7c-0.2,0.6-0.4,1.1-0.7,1.7v0.6c-5.3,0.4-9.4,4.7-9.4,10.1s4.5,10.1,10.1,10.1
			c1,0,2-0.1,2.9-0.4c0.3-0.1,0.6-0.2,0.9-0.3c0.9-0.4,1.7-0.8,2.5-1.4c0.4-0.3,0.8-0.7,1.1-1c0.6-0.6,1.1-1.3,1.5-2.1
			c0.8-1.4,1.2-3.1,1.2-4.9C228.7,12.4,228.7,12.3,228.7,12.3z M217.9,2.6c0,0.2,0,0.4,0,0.6v0.3c0,0.7,0,1.5-0.1,2.2
			c-0.2,5.1-0.7,10-1.5,14.6c0,0,0,0,0,0c-0.3-0.1-0.6-0.2-0.9-0.3c0.8-4.5,1.3-9.3,1.5-14.4c0-0.7,0-1.4,0.1-2c0,0,0-0.1,0-0.1
			c0,0-0.1,0.1-0.1,0.1c-0.4,0.8-0.9,1.5-1.4,2.2c-0.4,4.7-1.2,9.1-2.3,13c-0.4-0.3-0.7-0.6-1-0.9c1-3.2,1.7-6.8,2.2-10.6
			c-0.4,0.5-0.7,0.9-1.1,1.4c-0.6,2.7-1.4,5.2-2.4,7.5c-0.8-1.4-1.3-3-1.3-4.7C209.6,6.8,213.3,2.9,217.9,2.6L217.9,2.6z
			 M226.7,15.6c-0.1,0.2-0.2,0.4-0.4,0.7c-1-2.3-1.8-4.8-2.4-7.5c-0.4-0.4-0.8-0.9-1.1-1.4c0.5,3.8,1.2,7.3,2.2,10.5
			c-0.2,0.2-0.4,0.4-0.7,0.6c-0.1,0.1-0.2,0.2-0.4,0.3c-1.1-3.9-1.9-8.3-2.3-13c-0.5-0.7-1-1.5-1.4-2.2c0,0,0-0.1-0.1-0.1
			c0,0,0,0.1,0,0.1c0,0.7,0,1.4,0,2c0.2,5.1,0.7,9.9,1.5,14.4c-0.2,0.1-0.4,0.1-0.6,0.2c-0.1,0-0.1,0-0.2,0.1
			c-0.8-4.6-1.3-9.5-1.5-14.6c0-0.7,0-1.5-0.1-2.2c0-0.1,0-0.2,0-0.3c0-0.2,0-0.4,0-0.6c0,0,0,0,0,0c0.3,0,0.6,0.1,0.9,0.1
			c0,0,0,0,0.1,0c0.4,0.1,0.9,0.2,1.3,0.3c0.3,0.1,0.7,0.3,1,0.4c0.2,0.1,0.5,0.2,0.7,0.4c2.5,1.5,4.2,4.3,4.3,7.5
			c0,0.1,0,0.1,0,0.2C227.6,13.1,227.3,14.4,226.7,15.6L226.7,15.6z"/>
	</g>
</g>
</svg>
