<?xml version="1.0" encoding="utf-8"?>
<!-- Generator: Adobe Illustrator 27.0.0, SVG Export Plug-In . SVG Version: 6.00 Build 0)  -->
<svg version="1.1" id="圖層_1" xmlns="http://www.w3.org/2000/svg" xmlns:xlink="http://www.w3.org/1999/xlink" x="0px" y="0px"
	 viewBox="0 0 400 119" style="enable-background:new 0 0 400 119;" xml:space="preserve">
<style type="text/css">
	.st0{fill:#FFFFFF;}
</style>
<path class="st0" d="M70.3,1.7V3h1.1v0.8h-1.1v1.3h-8.1V4.3h7.1V3.8h-8.2V3h8.2V2.6h-7.1V1.8L70.3,1.7L70.3,1.7z M70.9,5.5V8h-1.4
	v0.7h1.9v0.9h-1.9v1.2c0,0.4-0.1,0.6-0.3,0.8c-0.2,0.2-0.5,0.3-0.9,0.3H67l-0.2-1c0.5,0.1,1,0.1,1.3,0.1c0.3,0,0.4-0.1,0.4-0.3v-1
	h-4.6c0.7,0.4,1.3,0.8,1.9,1.1L65,11.6c-0.5-0.4-1.2-0.9-2.1-1.3l0.6-0.5h-2.4V8.9h7.4V8h-2.1V5.5H70.9z M65.9,5.5v0.8h-1.7v0.9
	c0.6,0,1.2-0.1,1.8-0.2v0.8c-1.4,0.2-2.9,0.3-4.6,0.4l-0.1-0.9c0.6,0,1.3-0.1,1.9-0.1v-1h-1.7V5.4L65.9,5.5L65.9,5.5z M70,6.3h-2.6
	v0.9H70V6.3z"/>
<path class="st0" d="M75.3,2.6h1.6v0.9h-4.5V2.6h1.8c-0.2-0.4-0.4-0.8-0.6-1.2l1.1-0.1C74.9,1.7,75.1,2.2,75.3,2.6z M76.5,11h-2.6
	v0.8h-1V7.7h3.6V11z M76.5,4.3v0.9h-3.6V4.3H76.5z M76.5,6v0.9h-3.6V6H76.5z M75.4,10.1V8.7h-1.6v1.4C73.8,10.1,75.4,10.1,75.4,10.1
	z M80.8,2.6l-0.5,0.5H83v1h-3.7v1.3c0,0.1,0,0.2,0,0.3h3.2c-0.1,2.5-0.2,4.1-0.3,4.6c-0.1,0.4-0.3,0.8-0.6,1c-0.2,0.2-1,0.3-2.3,0.3
	L79,10.5c0.4,0,0.6,0,0.8,0c0.6,0,1-0.1,1.2-0.2c0.3-0.3,0.4-1.6,0.4-3.7h-2.2c-0.1,0.9-0.2,1.7-0.4,2.3c-0.3,0.9-0.8,1.9-1.5,2.9
	L76.4,11c0.7-0.8,1.1-1.6,1.4-2.5c0.2-0.7,0.4-1.8,0.4-3.3V3.9H77v-1h2.8c-0.4-0.4-1-0.8-1.7-1.3l0.7-0.7
	C79.7,1.7,80.3,2.2,80.8,2.6z"/>
<path class="st0" d="M85.1,4V2h1.2v2.1H88V1.5h1.1v2.6h2.2V1.5h1.1v2.6h1.9v1h-1.9v4H88v-4h-1.7v5.3h7.9v1h-7.9v0.5h-1.2V5H84V4
	H85.1z M89.1,8h2.2V5h-2.2V8z"/>
<path class="st0" d="M104.9,1.7v5h-2c0.4,0.4,0.7,0.6,1,0.8c0.5,0.3,1.2,0.6,2.1,0.9l-0.4,1c-1.2-0.4-2.1-0.9-2.6-1.3v3.8h-1.1V7.7
	h0.6c-0.3-0.3-0.6-0.6-1-1h-1.7c-0.3,0.4-0.7,0.8-1,1h0.8c0,1.1-0.3,2-0.7,2.6c-0.4,0.6-1.2,1.1-2.5,1.6L95.7,11
	c1.1-0.3,1.8-0.7,2.2-1c0.4-0.4,0.7-1.1,0.8-2c-0.7,0.5-1.6,1-2.6,1.3l-0.6-0.9c1-0.3,1.7-0.7,2.3-1c0.3-0.2,0.5-0.4,0.8-0.6h-1.8
	v-5L104.9,1.7L104.9,1.7z M100.2,3.8V2.7h-2.5v1.1C97.7,3.8,100.2,3.8,100.2,3.8z M100.2,4.7h-2.5v1.1h2.5V4.7z M103.9,3.8V2.7h-2.7
	v1.1C101.2,3.8,103.9,3.8,103.9,3.8z M103.9,4.7h-2.7v1.1h2.7V4.7z"/>
<path class="st0" d="M112.6,7.8c-0.2,0.2-0.5,0.5-0.9,0.7l-0.4-0.6c0.5-0.3,0.9-0.6,0.9-1h-0.7V5.5h1.4v1.1
	C112.9,7.2,112.8,7.6,112.6,7.8z"/>
<path class="st0" d="M119.7,9.1c-0.1,1.1-0.2,2-0.4,2.8l-1-0.3c0.3-0.8,0.4-1.6,0.5-2.6L119.7,9.1z M121.4,1.7c-0.4,1-0.8,2-1.3,2.8
	c0.3,0,0.7-0.1,1-0.1c0.3-0.5,0.5-1,0.7-1.6l0.9,0.4c-0.8,1.8-1.7,3.3-2.5,4.5c0.6,0,1.1-0.1,1.5-0.2c-0.1-0.4-0.2-0.8-0.3-1.2
	l0.8-0.3c0.3,0.7,0.5,1.6,0.7,2.5L122,8.7c0-0.1-0.1-0.3-0.1-0.4c-0.8,0.2-1.9,0.3-3.2,0.4l-0.3-1c0.3,0,0.5,0,0.7,0
	c0.5-0.6,1-1.4,1.5-2.4c-0.6,0.1-1.3,0.2-2.1,0.3l-0.2-0.9c0.2,0,0.4,0,0.6,0c0.5-0.9,1-2,1.4-3.2L121.4,1.7z M121.3,11.4l-0.9,0.1
	c0-1-0.1-1.8-0.2-2.4L121,9C121.1,9.6,121.2,10.4,121.3,11.4z M122.8,10.8l-0.9,0.3c-0.1-0.8-0.3-1.5-0.5-2.3l0.8-0.2
	C122.4,9.5,122.7,10.2,122.8,10.8z M128.5,11.9h-0.9v-0.7h-3.5v0.7h-0.9V1.8h5.3V11.9z M125.4,5.9V2.8h-1.3v3.1
	C124.1,5.9,125.4,5.9,125.4,5.9z M125.4,10.2V7h-1.3v3.2H125.4z M126.3,5.9h1.3V2.8h-1.3V5.9z M127.6,10.2V7h-1.3v3.2H127.6z"/>
<path class="st0" d="M134.7,5.6h-3.4v6.3h-1V1.7h4.5L134.7,5.6C134.8,5.6,134.7,5.6,134.7,5.6z M133.7,3.2V2.6h-2.4v0.6
	C131.3,3.2,133.7,3.2,133.7,3.2z M133.7,4.7V4h-2.4v0.8L133.7,4.7L133.7,4.7z M140,1.7v9.1c0,0.4-0.1,0.7-0.3,0.9s-0.5,0.3-0.9,0.3
	h-0.6l-0.1-0.6c-0.1,0.1-0.3,0.1-0.5,0.1h-1.1c-0.3,0-0.6-0.1-0.8-0.3c-0.2-0.3-0.4-0.6-0.4-0.9V9.1h-0.6c-0.2,0.6-0.4,1.1-0.7,1.4
	c-0.4,0.4-0.9,0.8-1.6,1.2l-0.6-0.8c0.6-0.2,1.1-0.5,1.4-0.8c0.2-0.2,0.4-0.5,0.6-0.9h-1.3V6.7h1c-0.2-0.3-0.4-0.5-0.6-0.7l1-0.1
	c0.2,0.3,0.4,0.6,0.6,0.9h1.3c0.2-0.3,0.3-0.6,0.5-0.9l0.9,0.3c-0.1,0.2-0.3,0.4-0.4,0.6h0.9v2.5h-1.4v1c0,0.2,0,0.3,0.1,0.4
	c0.1,0.1,0.2,0.1,0.3,0.1h0.6c0.1,0,0.1,0,0.2-0.1c0,0,0.1-0.4,0.2-1l0.9,0.3c-0.1,0.5-0.1,0.9-0.2,1.1h0.3c0.3,0,0.4-0.2,0.4-0.5
	V5.7h-3.5V1.8h0.5L140,1.7L140,1.7z M136.7,7.4h-3.2v0.9h3.2V7.4z M139,3.2V2.5h-2.5v0.7H139z M139,4h-2.5v0.8h2.5V4z"/>
<path class="st0" d="M150.6,1.7V8c0,1.3,0.1,2.1,0.2,2.2c0.1,0.2,0.1,0.3,0.2,0.3c0.1,0,0.2-0.4,0.4-1.3l0.8,0.4
	c-0.1,0.9-0.3,1.5-0.5,1.8c-0.2,0.2-0.3,0.3-0.6,0.3c-0.4,0-0.7-0.1-0.9-0.4c-0.4-0.5-0.6-1.6-0.6-3.4V2.6h-6.3v3.8
	c0,0.8-0.1,1.7-0.2,2.6c-0.2,1-0.4,1.9-0.8,2.8l-0.9-0.8c0.3-0.7,0.6-1.5,0.7-2.3c0.1-0.8,0.1-1.6,0.1-2.3V1.6h0.5h7.9V1.7z
	 M149.2,3.4v0.9H147v0.9h2v3.5h-2v1.4c0.4,0,0.9-0.1,1.2-0.2c-0.1-0.3-0.3-0.5-0.4-0.7l0.9-0.3c0.4,0.7,0.8,1.4,1.1,2.2l-0.9,0.4
	c-0.1-0.2-0.2-0.5-0.3-0.7c-1.1,0.2-2.8,0.4-5,0.5l-0.3-1.1c1,0,1.8,0,2.6-0.1V8.6h-2V5.1h2V4.2h-2.2V3.3h5.5
	C149.2,3.3,149.2,3.4,149.2,3.4z M145.9,6.2h-1v1.7h1V6.2z M148,6.2h-1v1.7h1.1L148,6.2L148,6.2z"/>
<path class="st0" d="M162.6,1.6v3.3h-4c0.1,0.2,0.1,0.3,0.2,0.5h4.6v0.9H153V5.4h4.7c-0.1-0.2-0.2-0.3-0.3-0.5h-3.5V1.6H162.6z
	 M156.4,9.9c-0.5,0.5-0.9,0.8-1.2,1c-0.4,0.2-0.9,0.5-1.6,0.7l-0.5-0.9c0.6-0.2,1.2-0.4,1.6-0.6c0.4-0.2,0.8-0.5,1.2-0.8L156.4,9.9z
	 M162.5,6.8V9h-3.6v1.7c0,0.4-0.1,0.6-0.3,0.8c-0.2,0.2-0.5,0.3-0.9,0.3h-1.3l-0.2-1c0.5,0.1,0.9,0.1,1.2,0.1c0.3,0,0.4-0.1,0.4-0.3
	V9H154V6.8H162.5z M161.5,3V2.4H155V3H161.5z M161.5,3.6H155v0.5h6.5V3.6z M161.5,7.6H155v0.6h6.4L161.5,7.6L161.5,7.6z M163.4,10.7
	l-0.4,1c-0.9-0.7-1.9-1.3-2.9-1.6l0.4-0.9C161.5,9.5,162.4,10,163.4,10.7z"/>
<path class="st0" d="M170.1,7.8c-0.2,0.2-0.5,0.5-0.9,0.7l-0.4-0.6c0.5-0.3,0.9-0.6,0.9-1H169V5.5h1.4v1.1
	C170.4,7.2,170.3,7.6,170.1,7.8z"/>
<path class="st0" d="M178.8,1.6c-0.4,1.1-0.8,2-1.3,2.9c0.3,0,0.7-0.1,1-0.1c0.2-0.5,0.5-1,0.7-1.6l0.9,0.4
	c-0.8,1.8-1.6,3.2-2.5,4.4c0.6-0.1,1.1-0.1,1.5-0.3c-0.1-0.3-0.2-0.7-0.3-1l0.8-0.3c0.3,0.7,0.5,1.6,0.7,2.5l-0.9,0.2
	c0-0.2-0.1-0.4-0.1-0.6c-0.8,0.2-1.9,0.4-3.2,0.5l-0.3-1c0.3,0,0.5,0,0.7,0c0.5-0.6,0.9-1.4,1.4-2.3c-0.6,0.1-1.3,0.2-2,0.3
	l-0.2-0.9c0.2,0,0.4,0,0.6,0c0.5-1,1-2.1,1.4-3.3L178.8,1.6z M177.3,8.9c-0.1,1.2-0.2,2.1-0.4,2.9l-1-0.3c0.3-0.8,0.4-1.7,0.5-2.7
	L177.3,8.9z M178.8,11.4l-0.9,0.1c0-1.1-0.1-1.9-0.2-2.5l0.8-0.1C178.7,9.5,178.8,10.3,178.8,11.4z M180.4,10.7l-0.9,0.3
	c-0.1-0.7-0.3-1.4-0.4-2.1l0.8-0.2C180,9.4,180.2,10.1,180.4,10.7z M182.2,3.3c-0.3,0.6-0.7,1.2-1.1,1.8c0.6,0.6,1,1.2,1.3,1.7
	l-0.9,0.4c-0.4-0.6-0.8-1.3-1.3-2.1c0.5-0.6,0.9-1.3,1.3-2L182.2,3.3z M186.4,1.9v0.9h-6.1V1.9H186.4z M186.2,7.4v0.9h-2.3v2.4h2.5
	v0.9h-6v-0.9h2.5V8.3h-2.2V7.4H186.2z M184.2,3.4c-0.3,0.6-0.6,1.1-1,1.6c0.5,0.6,0.9,1.2,1.1,1.7l-0.9,0.4
	c-0.3-0.7-0.7-1.4-1.2-2.1c0.4-0.6,0.8-1.2,1.2-1.9L184.2,3.4z M186.3,3.4c-0.3,0.6-0.6,1.1-1,1.6c0.5,0.6,0.9,1.2,1.2,1.6L185.6,7
	c-0.4-0.6-0.8-1.3-1.3-2c0.4-0.6,0.8-1.2,1.2-1.9L186.3,3.4z"/>
<path class="st0" d="M197.9,2.6h-8.7v3.9c0,0.8-0.1,1.6-0.2,2.5s-0.4,1.8-0.7,2.7l-0.9-0.8c0.3-0.7,0.5-1.4,0.6-2.2s0.1-1.5,0.1-2.2
	V1.6h9.7L197.9,2.6L197.9,2.6z M194.2,8.2v0.7h3.1v0.9h-3.1v0.9h3.8v0.9h-8.7v-0.9h1.4v-2h1v2h1.5V8.2H194.2z M193.5,3.7
	c-0.4,0.1-0.9,0.2-1.3,0.2v0.7h1.2v0.8h-1.2c0.5,0.3,0.9,0.6,1.4,0.9l-0.5,0.8c-0.4-0.3-0.7-0.6-0.9-0.7v1.8h-0.9V6.5
	c-0.4,0.5-0.9,1-1.4,1.3L189.4,7c0.8-0.5,1.4-1,1.8-1.7h-1.6V4.5h1.7V4c-0.4,0-0.9,0-1.4,0l-0.3-0.8c1.4,0,2.5-0.1,3.5-0.3
	L193.5,3.7z M197.6,3.7c-0.5,0.1-1,0.2-1.7,0.3v0.7h1.9v0.8h-1.9v0.1c0.6,0.5,1.3,1,2,1.5l-0.5,0.8c-0.6-0.6-1.1-1-1.4-1.4v1.7h-1
	V6.4c-0.4,0.6-0.8,1.1-1.3,1.4L193.2,7c0.7-0.5,1.2-1,1.7-1.7h-1.2V4.5h1.3V4c-0.4,0-0.8,0-1.2,0l-0.3-0.8c1.4,0,2.6-0.1,3.5-0.4
	L197.6,3.7z"/>
<path class="st0" d="M202.7,10.1c-0.5,0.4-1,0.6-1.4,0.8c-0.5,0.2-1.1,0.4-1.8,0.6l-0.5-0.9c0.7-0.1,1.3-0.3,1.9-0.5
	c0.5-0.2,0.9-0.4,1.3-0.7L202.7,10.1z M208.5,1.5v4h-3.7l-2.1,1.1c1,0,2-0.1,3.1-0.3c0.4-0.2,0.8-0.5,1.2-0.7l0.9,0.6
	c-1.3,0.8-2.5,1.4-3.4,1.7c-0.3,0.1-0.7,0.3-1.1,0.4c1.3,0,2.6-0.1,3.9-0.3c-0.2-0.2-0.4-0.4-0.6-0.7l0.8-0.5c0.8,0.8,1.5,1.5,2,2.1
	l-0.9,0.6c-0.2-0.3-0.4-0.5-0.6-0.8c-0.9,0.1-1.9,0.2-3,0.3v1.7c0,0.4-0.1,0.7-0.3,0.8c-0.2,0.2-0.5,0.3-0.9,0.3h-1l-0.2-1.1
	c0.4,0.1,0.7,0.1,0.9,0.1c0.3,0,0.4-0.1,0.4-0.3V9.1c-1.3,0.1-2.8,0.1-4.4,0.1l-0.2-1c0.7,0.1,1.2,0.1,1.6,0.1
	c1.1-0.3,2-0.6,2.7-0.9c0.1-0.1,0.3-0.1,0.5-0.2c-1.1,0.1-2.4,0.1-3.8,0.1l-0.1-0.9c0.4,0,0.7,0.1,0.9,0.1l2-1.1H200v-4L208.5,1.5
	L208.5,1.5z M203.6,3.1V2.3H201v0.8H203.6z M203.6,3.9H201v0.7h2.6V3.9z M204.7,3.1h2.7V2.3h-2.7V3.1z M207.5,3.9h-2.7v0.7h2.7V3.9z
	 M209.4,10.7l-0.6,0.9c-1-0.6-2-1-3-1.3l0.5-0.8C207.4,9.9,208.5,10.3,209.4,10.7z"/>
<path class="st0" d="M214.5,2.5c-0.4,0.1-0.9,0.3-1.4,0.4v1.7h1.3v0.9h-1.3V6c0.5,0.5,1,1.1,1.6,1.7l-0.6,0.9
	c-0.4-0.6-0.7-1.1-1-1.5v4.8h-1V7.2v0.1c-0.3,0.9-0.8,1.7-1.3,2.4l-0.4-1.1c0.7-0.9,1.2-1.9,1.6-3.1h-1.4V4.6h1.5V3
	c-0.4,0.1-0.7,0.1-1.1,0.1l-0.2-0.9c1.2-0.1,2.3-0.3,3.3-0.7L214.5,2.5z M217.1,11c-1,0.4-2,0.7-2.9,0.9l-0.4-0.9
	c1-0.1,2-0.4,2.7-0.7L217.1,11z M217.1,2V1.3h1V2h2.6v0.8h-2.6v0.5h2.2v0.8h-2.2v0.5h3v0.8h-6.5V4.6h2.5V4.1H215V3.3h2.1V2.8h-2.4V2
	H217.1z M220.5,5.9v4.4H215V5.9H220.5z M219.5,7.1V6.6H216v0.5H219.5z M219.5,8.3V7.8H216v0.5H219.5z M219.5,9H216v0.5h3.5V9z
	 M221,11l-0.4,0.9c-0.9-0.4-1.8-0.6-2.7-0.8l0.4-0.8C219.2,10.5,220.1,10.7,221,11z"/>
<path class="st0" d="M232.2,4H229c0.1,1.6,0.3,2.9,0.6,3.9c0.5-0.8,1-1.8,1.5-3.1l1,0.4c-0.6,1.7-1.3,3-2,3.8c0.5,1,0.9,1.5,1.1,1.5
	c0.1,0,0.3-0.5,0.4-1.6l0.9,0.6c-0.3,1.1-0.5,1.7-0.7,2c-0.1,0.2-0.3,0.3-0.5,0.3c-0.5,0-1-0.3-1.5-0.8c-0.3-0.3-0.5-0.6-0.7-1
	c-0.7,0.7-1.6,1.3-2.7,1.8l-0.6-1c1.2-0.5,2.2-1.2,2.9-1.9c-0.2-0.4-0.3-0.8-0.4-1.2c-0.2-1-0.4-2.2-0.5-3.7H224v1.4h3.2
	c0,2.1-0.1,3.4-0.3,3.9c-0.2,0.6-0.6,1-1.1,1h-1.5l-0.2-1.1c0.8,0.1,1.3,0.1,1.7,0.1c0.1,0,0.2-0.2,0.2-0.5c0-0.4,0.1-1.2,0.1-2.4
	H224c0,0.8-0.1,1.7-0.2,2.5c-0.2,1.1-0.6,2.1-1,3.1l-0.9-0.8c0.4-0.8,0.7-1.7,0.9-2.6c0.1-0.9,0.2-1.8,0.2-2.6V3h4.9
	c0-0.5,0-1,0-1.6h1.1c0,0.6,0,1.1,0,1.6h1.6c-0.3-0.3-0.7-0.6-1.1-0.9l0.7-0.7c0.5,0.3,1,0.7,1.4,1L231,3h1.3v1H232.2z"/>
<path class="st0" d="M236.3,1.6c-0.4,1.1-0.8,2-1.3,2.9c0.3,0,0.7-0.1,1-0.1c0.2-0.5,0.5-1,0.7-1.6l0.9,0.4
	c-0.8,1.8-1.6,3.2-2.5,4.4c0.6-0.1,1.1-0.1,1.5-0.3c-0.1-0.3-0.2-0.7-0.3-1l0.8-0.3c0.3,0.7,0.5,1.6,0.7,2.5l-0.9,0.2
	c0-0.2-0.1-0.4-0.1-0.6c-0.8,0.2-1.9,0.4-3.2,0.5l-0.3-1c0.3,0,0.5,0,0.7,0c0.5-0.6,0.9-1.4,1.4-2.3c-0.6,0.1-1.3,0.2-2,0.3
	l-0.2-0.9c0.2,0,0.4,0,0.6,0c0.5-1,1-2.1,1.4-3.3L236.3,1.6z M234.8,8.9c-0.1,1.2-0.2,2.1-0.4,2.9l-1-0.3c0.3-0.8,0.4-1.7,0.5-2.7
	L234.8,8.9z M236.3,11.4l-0.9,0.1c0-1.1-0.1-1.9-0.2-2.5l0.8-0.1C236.2,9.5,236.3,10.3,236.3,11.4z M237.9,10.7L237,11
	c-0.1-0.7-0.3-1.4-0.4-2.1l0.8-0.2C237.5,9.4,237.7,10.1,237.9,10.7z M239.7,3.3c-0.3,0.6-0.7,1.2-1.1,1.8c0.6,0.6,1,1.2,1.3,1.7
	L239,7.2c-0.4-0.6-0.8-1.3-1.3-2.1c0.5-0.6,0.9-1.3,1.3-2L239.7,3.3z M243.9,1.9v0.9h-6.1V1.9H243.9z M243.7,7.4v0.9h-2.3v2.4h2.5
	v0.9h-6v-0.9h2.5V8.3h-2.2V7.4H243.7z M241.7,3.4c-0.3,0.6-0.6,1.1-1,1.6c0.5,0.6,0.9,1.2,1.1,1.7l-0.9,0.4
	c-0.3-0.7-0.7-1.4-1.2-2.1c0.4-0.6,0.8-1.2,1.2-1.9L241.7,3.4z M243.8,3.4c-0.3,0.6-0.6,1.1-1,1.6c0.5,0.6,0.9,1.2,1.2,1.6L243,7
	c-0.4-0.6-0.8-1.3-1.3-2c0.4-0.6,0.8-1.2,1.2-1.9L243.8,3.4z"/>
<path class="st0" d="M245.8,8.2c0,1.3-0.1,2.3-0.1,3.2l-0.7-0.2c0.1-0.9,0.2-2,0.2-3.1L245.8,8.2z M249.5,2.7h-1.3v0.9h1v0.2
	c0.7-0.4,1.2-0.7,1.6-1.1c0.3-0.3,0.7-0.7,1-1.3h1c0.4,0.6,0.8,1,1.2,1.4c0.3,0.3,0.8,0.6,1.6,1L255,4.7c-0.4-0.2-0.7-0.4-1-0.6v0.7
	h-3.3V4c-0.3,0.2-0.7,0.5-1.1,0.7l-0.4-0.8v0.3h-1V5h1v0.8h-1v0.9h1.1c0,2.3,0,3.7-0.1,4.2c-0.1,0.3-0.2,0.6-0.3,0.7
	c-0.2,0.1-0.5,0.2-1,0.2c-0.2,0-0.5,0-0.8,0l-0.1-0.9c0.3,0.1,0.6,0.1,0.9,0.1c0.3,0,0.5-0.1,0.5-0.4c0.1-0.3,0.1-1.3,0.1-2.9h-3.1
	V1.8h4.2L249.5,2.7C249.6,2.7,249.5,2.7,249.5,2.7z M246.7,11h-0.6c0-1.2,0-2.2,0-2.9h0.5C246.6,8.8,246.7,9.8,246.7,11z M247.4,2.7
	h-1.1v0.9h1.1V2.7z M247.4,4.3h-1.1v0.8h1.1V4.3z M247.4,5.8h-1.1v0.9h1.1V5.8z M247.6,10.2H247c0-0.9-0.1-1.7-0.2-2.2h0.5
	C247.4,8.6,247.5,9.3,247.6,10.2z M248.3,9.7l-0.5,0.2c-0.1-0.6-0.2-1.2-0.3-1.8l0.4-0.1C248.1,8.6,248.2,9.2,248.3,9.7z M251.7,8.7
	c-0.1,0.3-0.2,0.5-0.3,0.8c0.3,0.2,0.7,0.4,1,0.7l-0.5,0.9c-0.3-0.3-0.6-0.5-0.8-0.7c-0.3,0.6-0.7,1.2-1,1.6l-0.7-0.8
	c0.6-0.8,1.1-1.6,1.4-2.6L251.7,8.7z M252.2,5.2v3.2h-2.4V5.2H252.2z M251.4,6h-0.8v1.5h0.8V6z M253.7,3.8c-0.4-0.4-0.9-0.8-1.4-1.4
	c-0.4,0.5-0.8,1-1.2,1.3c-0.1,0.1-0.1,0.1-0.2,0.1H253.7z M254.4,8.8c-0.1,0.3-0.2,0.5-0.3,0.8c0.5,0.4,0.9,0.9,1.3,1.4l-0.5,0.9
	c-0.4-0.6-0.8-1-1.2-1.4c0,0,0,0.1-0.1,0.1c-0.2,0.4-0.5,0.8-1,1.4l-0.8-0.7c0.4-0.4,0.7-0.8,1-1.2c0.2-0.4,0.4-0.9,0.6-1.5
	L254.4,8.8z M255.1,5.2v3.2h-2.5V5.2H255.1z M254.3,6h-0.9v1.5h0.9V6z"/>
<path class="st0" d="M65.4,24.5H67c0.4-0.6,0.8-1.2,1.1-1.9l1.3,0.4c-0.3,0.6-0.6,1.1-1,1.5h2.8v1h-3.3v6.2h3.6v1H60.9v-1h3.5v-6.2
	h-3.2v-1h2.9c-0.2-0.4-0.5-0.9-0.9-1.4l1.2-0.4C64.7,23.1,65.1,23.8,65.4,24.5z M64,30.2l-1.2,0.3c-0.3-1.3-0.7-2.5-1.1-3.6l1-0.3
	C63.2,27.6,63.7,28.8,64,30.2z M66.8,31.7v-6.2h-1.3v6.2H66.8z M70.8,27c-0.3,1.2-0.7,2.4-1.3,3.6l-1.1-0.5c0.5-1.2,0.9-2.4,1.3-3.5
	L70.8,27z"/>
<path class="st0" d="M82.7,23.2v1h-3.5c-0.2,0.5-0.5,1-0.8,1.4v7.5h-1.2v-6c-0.1,0.1-0.2,0.2-0.3,0.3c-1,1-2.2,2-3.7,2.8l-0.7-0.9
	c1.4-0.8,2.6-1.6,3.6-2.6c0.6-0.6,1.3-1.4,1.8-2.5h-5.2v-1C72.7,23.2,82.7,23.2,82.7,23.2z M82.7,29.3l-0.9,0.9
	c-0.7-0.9-1.6-1.9-2.8-3l0.8-0.8C81,27.4,81.9,28.3,82.7,29.3z"/>
<path class="st0" d="M93.6,22.9v0.9h-3.9v0.5h4.6V27h-1.1v-1.8h-3.6v2.5h-1.1v-2.5H85v1.9h-1.1v-2.8h4.6v-0.5h-4v-0.9
	C84.5,22.9,93.6,22.9,93.6,22.9z M94.4,28.1V29h-4.7l-0.3,0.7H94v2.4c0,0.3-0.1,0.5-0.3,0.7C93.5,32.9,93.3,33,93,33h-1l-0.2-0.9
	h0.8c0.2,0,0.3-0.1,0.3-0.4v-1.3H91v2.4h-1v-2.4h-1.6v2.4h-1v-2.4h-1.7V33h-1v-3.4h3.5l0.3-0.7H84V28L94.4,28.1L94.4,28.1z
	 M88.2,25.6v0.7h-2.7v-0.7H88.2z M88.2,26.9v0.7h-2.7v-0.7H88.2z M92.9,25.6v0.7h-2.8v-0.7H92.9z M92.9,26.9v0.7h-2.8v-0.7H92.9z"/>
<path class="st0" d="M105.9,22.9v0.9h-3.5v0.9h2.9v3h-4.6c-0.2,0.3-0.4,0.5-0.6,0.8h5.8v0.9h-2.2c-0.4,0.6-0.8,1.2-1.2,1.6
	c1.2,0.4,2.3,0.7,3.3,1.2l-0.9,0.9c-1-0.5-2.1-0.9-3.4-1.3c-1,0.6-2.9,1-5.7,1.4l-0.4-1c2.1-0.1,3.7-0.4,4.7-0.7
	c-1-0.3-2.1-0.5-3.3-0.7c0.4-0.4,0.8-0.9,1.2-1.3h-2.8v-0.9h3.5c0.2-0.3,0.4-0.5,0.6-0.8h-3.4v-3h2.8v-0.9h-3.3V23h10.5
	C105.9,23,105.9,22.9,105.9,22.9z M98.8,25.7h-1.7v1.2h1.7V25.7z M102.7,29.5h-3.2c-0.2,0.3-0.4,0.5-0.6,0.7c1.1,0.2,2,0.4,2.7,0.6
	C102,30.4,102.4,30,102.7,29.5z M101.4,23.9h-1.6v0.9h1.6V23.9z M101.4,25.7h-1.6v1.2h1.6V25.7z M104.3,25.7h-1.8v1.2h1.8V25.7z"/>
<path class="st0" d="M109.9,25.3v0.8c-0.4,0.6-0.8,1.3-1.4,2h1.4v0.6c-0.2,0.7-0.3,1.3-0.5,1.7c0.4,0.5,0.8,0.9,1,1
	c0.2,0.2,0.6,0.3,1.1,0.3c0.6,0.1,1.6,0.1,3.3,0.2c1.2,0,2.1,0,2.7-0.1l-0.1,1.1c-3.2,0-5.1,0-5.8-0.1c-0.6-0.1-1.1-0.2-1.5-0.4
	c-0.3-0.2-0.7-0.5-1.1-1c-0.3,0.6-0.8,1.1-1.3,1.8l-0.8-0.9c0.6-0.6,1-1.1,1.3-1.6c0.2-0.3,0.4-0.8,0.7-1.7h-1.6v-0.9
	c0.5-0.5,1-1.1,1.5-1.9H107v-0.9C107,25.3,109.9,25.3,109.9,25.3z M109.6,24.2l-0.8,0.8c-0.3-0.5-0.8-1.1-1.4-1.7l0.7-0.7
	C108.8,23.1,109.2,23.7,109.6,24.2z M116.5,26.3h0.5v4.2c0,0.3-0.1,0.6-0.3,0.8c-0.2,0.2-0.4,0.2-0.7,0.2h-1.1l-0.2-0.9h0.9
	c0.2,0,0.3-0.1,0.3-0.4v-3h-4.6v4.1h-1v-5h0.6v-3.4h5.6V26.3z M112.9,26.3v-1.7h2.7v-0.9H112v2.6H112.9z M115.2,27.8v2.6h-3v-2.6
	H115.2z M114.2,28.6H113v1.1h1.2V28.6z M115.5,26.3v-0.9h-1.8v0.9H115.5z"/>
<path class="st0" d="M123.8,22.7c-0.1,0.3-0.3,0.5-0.5,0.7h4.3v0.9c-0.7,0.9-1.7,1.7-2.9,2.3c-1.6,0.9-3.4,1.5-5.6,1.8l-0.4-0.9
	c1.6-0.2,2.9-0.5,4-1c-0.4-0.4-0.8-0.8-1.3-1.2l0.8-0.5c0.6,0.5,1.1,0.9,1.5,1.2c0.9-0.5,1.6-1,2.3-1.6h-3.9c-0.1,0-0.1,0.1-0.1,0.1
	c-0.7,0.5-1.6,1-2.6,1.4l-0.7-0.9c1-0.3,1.8-0.7,2.4-1.1c0.5-0.3,1-0.7,1.4-1.3L123.8,22.7z M126.4,26.8c-0.3,0.3-0.5,0.6-0.7,0.9
	h3.1v0.9c-0.8,1.4-1.7,2.4-2.8,3c-1.2,0.7-3.2,1.2-5.9,1.6l-0.8-1c2.2-0.2,3.9-0.5,5.1-0.9c-0.4-0.4-0.8-0.8-1.3-1.2l0.8-0.5
	c0.6,0.5,1.2,0.9,1.6,1.2c0.8-0.5,1.5-1.1,2-2h-3c0,0-0.1,0-0.1,0.1c-0.8,0.6-2.1,1.2-3.9,1.8l-0.8-1c1.6-0.4,2.8-0.9,3.6-1.3
	c0.8-0.4,1.4-0.9,1.9-1.6C125.2,26.8,126.4,26.8,126.4,26.8z"/>
<path class="st0" d="M132.6,23.5v-1h1.1v1h1.3v0.9h-1.3v0.9h3v-0.9h-1.2v-0.9h1.2v-1h1.1v1h2.6v0.9h-2.6v0.9h2v0.9h-1.2v0.9h1.5V28
	h-1.5v1.2h1.8v0.9h-4.6V31h4.2v0.9h-4.2v1.3h-1.1v-1.3h-4.2V31h4.2v-1h-4.6v-0.9h1.8V28h-1.6v-0.9h1.6v-0.9h-1.4v-0.9h2.1v-0.9H130
	v-0.9C130,23.5,132.6,23.5,132.6,23.5z M134.7,26.1h-1.8V27h1.8V26.1z M134.7,29.1V28h-1.8v1.2h1.8V29.1z M137.6,26.1h-1.9V27h1.9
	V26.1z M135.8,29.1h1.9V28h-1.9V29.1z"/>
<path class="st0" d="M146.5,25.5l0.6-0.1c0.1,0.2,0.2,0.4,0.3,0.7h4.3v0.8h-3v0.7h2.7v2.2h-2.7v0.9c1-0.2,1.9-0.4,2.7-0.6l0.5,0.7
	c-0.9,0.3-2,0.6-3.2,0.8v0.5c0,0.2,0.1,0.3,0.4,0.3h1.6c0.1,0,0.2,0,0.3-0.1s0.1-0.4,0.1-0.9l0.9,0.3c-0.1,0.7-0.2,1.2-0.4,1.3
	c-0.2,0.1-0.4,0.2-0.9,0.2h-2.1c-0.3,0-0.5-0.1-0.7-0.2c-0.2-0.2-0.3-0.4-0.3-0.6V30h-2.7v0.7h2.3v0.7h-2.3v0.8
	c0.9-0.1,1.7-0.1,2.4-0.3v0.8c-0.8,0.2-2.1,0.3-4,0.5l-0.1-0.9c0.3,0,0.6,0,0.9,0V30h-0.8c0,0.4-0.1,0.9-0.1,1.3
	c-0.2,0.7-0.4,1.5-0.8,2.2l-0.9-0.8c0.3-0.6,0.5-1.1,0.7-1.7c0.1-0.6,0.1-1.2,0.1-1.7v-2.8h4.3c-0.1-0.1-0.1-0.2-0.2-0.4h-0.6V25
	h-2.5v1.1h-0.9V24h4.4v1.5H146.5z M146.7,22.8v0.8H142v-0.8H146.7z M145.1,26.9h-1.9v0.7h1.9V26.9z M145.1,29v-0.7h-1.9V29H145.1z
	 M144.8,25.7l-0.8,0.2c-0.1-0.3-0.2-0.6-0.3-0.8l0.7-0.2C144.6,25.1,144.7,25.4,144.8,25.7z M147.8,26.9H146v0.7h1.8V26.9z M146,29
	h1.8v-0.7H146V29z M151.9,22.8v0.8h-4.7v-0.8H151.9z M151.6,25.8h-0.9v-1.1h-2.4v1.1h-0.9V24h4.3L151.6,25.8L151.6,25.8z M148.7,29
	h1.8v-0.7h-1.8V29z M150,25.7l-0.8,0.2c-0.1-0.3-0.2-0.6-0.4-0.9l0.7-0.2C149.7,25.1,149.9,25.4,150,25.7z"/>
<path class="st0" d="M155.7,23.8h1.6v0.9H153v-0.9h1.7c-0.2-0.4-0.4-0.8-0.6-1.2l1.1-0.1C155.4,22.9,155.6,23.4,155.7,23.8z
	 M154.4,33.1h-1V29h3.5v4h-1v-0.7h-1.5V33.1z M156.8,27.2v0.9h-3.5v-0.9H156.8z M156.8,25.5v0.9h-3.4v-0.9H156.8z M155.8,29.9h-1.5
	v1.4h1.5V29.9z M163.1,23.3v8.6c0,0.4-0.1,0.7-0.2,0.9c-0.2,0.2-0.4,0.3-0.8,0.3h-1.8L160,32h1.8c0.2,0,0.3-0.1,0.3-0.4v-7.4h-4.6
	v-1L163.1,23.3L163.1,23.3z M161.6,25.4v1h-4.1v-1H161.6z M161.2,27.4v3.7h-3.5v-3.7H161.2z M160.2,28.3h-1.4v1.8h1.4V28.3z"/>
<path class="st0" d="M167.1,23.2v-0.7h1.1v0.7h1.3v0.9h-1.3v0.6h3.1v-0.6H170v-0.9h1.3v-0.7h1.1v0.7h2.6v0.9h-2.6v0.6h1.4v2.2H168
	v-2.1h-0.9v-0.7h-2.6v-0.9H167.1z M166.9,29.8c-0.4,1.3-1,2.3-1.6,3.2l-0.8-0.8c0.5-0.7,1-1.7,1.5-2.9L166.9,29.8z M167,28.1
	l-0.6,0.9c-0.6-0.6-1.2-1-1.8-1.4l0.5-0.8C165.8,27.2,166.4,27.6,167,28.1z M167.3,25.9l-0.8,0.8c-0.4-0.4-1-0.8-1.8-1.3l0.7-0.7
	C166.2,25.1,166.8,25.5,167.3,25.9z M170.5,27.3v2h0.6v-2h3.4v2.2h-3.2v0.4h3.6v0.9h-2.5c0.3,0.3,0.6,0.5,0.8,0.6
	c0.4,0.3,1,0.5,1.8,0.7l-0.4,0.9c-1-0.4-1.7-0.7-2.1-1.1c-0.3-0.2-0.7-0.6-1.1-1.1h-0.1v2.4h-1v-2.4c-0.2,0.3-0.5,0.6-0.7,0.7
	c-0.5,0.5-1.3,0.9-2.5,1.4l-0.5-0.9c0.9-0.3,1.5-0.6,2-0.9c0.3-0.1,0.5-0.3,0.7-0.5H167v-0.9h3.3v-0.4h-3v-2.2h3.2V27.3z
	 M169.6,28.1h-1.3v0.7h1.3V28.1z M172.8,25.4H169v0.7h3.8V25.4z M173.6,28.1H172v0.7h1.5L173.6,28.1L173.6,28.1z"/>
<path class="st0" d="M179.4,23.7c-0.4,0.2-1,0.4-1.9,0.6v0.9h1.7v0.9h-1.7v1.3h1.6v0.9h-1.5v1.3h2.1v-3.1h1v3.1h1V26h-2v-3.5h1v0.8
	h2.1v0.9h-2.1v1h2.1v4.5h2.2v-1.2h-1.7v-0.9h1.7v-1.3h-1.7v-0.9h1.7v-1.2h-1.8v-0.9h2.8l-0.1,6.6h0.6v1h-10.6v-1h0.7l-0.1-6.2
	c0.8-0.1,1.6-0.4,2.5-0.8L179.4,23.7z M180.2,31.5c-0.9,0.6-2.1,1.1-3.5,1.6l-0.7-0.9c1.3-0.4,2.4-0.8,3.4-1.4L180.2,31.5z
	 M186.4,32.2l-0.7,1c-1.1-0.7-2.2-1.2-3.3-1.6l0.6-0.9C184.2,31.1,185.3,31.6,186.4,32.2z"/>
<path class="st0" d="M191.1,22.9v3.4H189l-0.1,1.7h2.3c0,2.3-0.1,3.7-0.2,4.1c-0.1,0.3-0.3,0.6-0.5,0.7c-0.3,0.1-0.8,0.2-1.6,0.2
	c-0.3,0-0.5,0-0.9,0l-0.2-1.1c0.3,0.1,0.7,0.1,1,0.1c0.6,0,0.9-0.1,1-0.3c0.1-0.3,0.2-1.2,0.2-2.7h-2.4l0.3-3.5h2v-1.6h-2.2V23h3.4
	L191.1,22.9L191.1,22.9z M197.5,23.7h-4v0.7h3.6v0.9h-3.6v0.8h3.6V27h-3.6v0.8h4.5v0.9h-3c0.2,0.5,0.3,0.9,0.6,1.3
	c0.5-0.2,0.9-0.5,1.3-1l0.8,0.8c-0.4,0.4-0.9,0.7-1.4,1c0.4,0.4,1,0.7,1.8,1.1l-0.6,1.1c-0.9-0.5-1.6-1-2.1-1.6s-1-1.5-1.3-2.7h-0.5
	v2.8c0.4-0.1,0.8-0.3,1.2-0.5l0.2,0.9c-0.8,0.4-1.9,0.8-3.1,1.1l-0.4-1c0.3-0.1,0.7-0.1,1-0.2v-3.1h-0.8v-0.9h0.8v-4.9h5.1v0.8
	C197.6,23.7,197.5,23.7,197.5,23.7z"/>
<path class="st0" d="M200.3,24.6v-2.1h1.1v2.1h1.2v1h-1.2v2.2c0.3-0.2,0.7-0.4,1-0.7v1.1c-0.3,0.2-0.7,0.4-1,0.6v3
	c0,0.4-0.1,0.7-0.3,0.9s-0.5,0.3-0.9,0.3h-0.8l-0.2-1.1c0.3,0.1,0.5,0.1,0.7,0.1c0.3,0,0.4-0.1,0.4-0.3v-2.3
	c-0.4,0.2-0.8,0.3-1.2,0.4l-0.1-1.1c0.4-0.1,0.9-0.2,1.3-0.4v-2.7H199v-1H200.3z M209.4,26.9v1H205c-0.1,0.2-0.3,0.4-0.4,0.6h4.5
	c-0.1,1.9-0.1,3.1-0.3,3.6c-0.1,0.3-0.2,0.6-0.5,0.8c-0.2,0.1-0.8,0.2-1.9,0.2l-0.2-1c0.4,0,0.6,0,0.8,0c0.4,0,0.6-0.1,0.7-0.2
	c0.2-0.2,0.3-1.1,0.3-2.5h-0.5c-0.5,1-0.9,1.7-1.4,2.2c-0.6,0.6-1.4,1.2-2.6,1.6l-0.5-0.9c1-0.4,1.9-0.9,2.4-1.4
	c0.4-0.4,0.7-0.9,1-1.5h-0.8c-0.3,0.5-0.7,0.9-1.1,1.3c-0.5,0.5-1.2,0.9-2,1.3l-0.6-0.8c0.7-0.3,1.3-0.7,1.8-1
	c0.3-0.2,0.5-0.4,0.8-0.8h-0.9c-0.4,0.4-1,0.8-1.6,1.1l-0.6-0.8c0.6-0.3,1.2-0.7,1.6-1.1c0.2-0.2,0.4-0.4,0.7-0.8h-1.4v-1h7.1
	L209.4,26.9L209.4,26.9z M208.8,22.9v3.6h-5.7v-3.6H208.8z M207.7,24.2v-0.6h-3.6v0.6H207.7z M207.7,25h-3.6v0.6h3.6V25z"/>
<path class="st0" d="M213.1,23.8h1.6v0.9h-4.2v-0.9h1.6c-0.1-0.4-0.3-0.8-0.4-1.2l1.1-0.1C212.8,22.9,212.9,23.4,213.1,23.8z
	 M211.8,33.1h-1V29h3.4v3.9h-1v-0.6h-1.3L211.8,33.1L211.8,33.1z M214.1,25.5v0.9h-3.3v-0.9H214.1z M214.1,27.2v0.9h-3.3v-0.9H214.1
	z M213.2,29.9h-1.3v1.4h1.3V29.9z M216.7,23.7c0.1-0.3,0.3-0.7,0.4-1.2l1,0.1c-0.1,0.4-0.2,0.8-0.3,1.1h3.2v0.9h-2
	c0.2,0.4,0.4,0.6,0.6,0.8c0.3,0.3,0.7,0.6,1.3,0.9l-0.4,0.9c-0.4-0.3-0.8-0.5-1.1-0.7V27H216v-0.5c-0.3,0.3-0.8,0.6-1.2,0.9
	l-0.5-0.9c0.8-0.5,1.4-1,1.8-1.6c0.1-0.1,0.1-0.2,0.2-0.3h-1.5v-0.9H216.7z M220.9,27.7v1h-3.7l-0.3,0.9h3.3
	c-0.1,0.9-0.2,1.7-0.3,2.3c-0.1,0.4-0.3,0.6-0.5,0.8c-0.3,0.2-0.7,0.3-1.2,0.3h-1.5l-0.3-1.1c0.6,0.1,1.2,0.1,1.8,0.1
	c0.3,0,0.5-0.1,0.6-0.2c0.1-0.2,0.2-0.6,0.3-1.3h-3.5l0.6-1.7h-1.5v-1L220.9,27.7L220.9,27.7z M219,26l-0.1-0.1
	c-0.3-0.3-0.6-0.7-0.9-1.4h-0.5c-0.1,0.3-0.3,0.5-0.4,0.7c-0.2,0.3-0.4,0.5-0.6,0.8H219z"/>
<path class="st0" d="M224.4,22.5v4.1h1.5v0.9H225v3.4c0.3-0.2,0.6-0.5,0.9-0.7v1c-0.6,0.6-1.2,1.1-2,1.6l-0.3-1
	c0.2-0.1,0.4-0.2,0.5-0.3v-3.9h-0.4c-0.1,1.3-0.2,2.3-0.4,3.1c-0.2,0.9-0.5,1.6-0.9,2.3l-0.6-0.8c0.3-0.6,0.5-1.2,0.7-2
	c0.1-0.7,0.2-1.5,0.3-2.6H222v-0.9h1.5v-4.1h0.9V22.5z M223.3,25.8l-0.8,0.3c-0.2-1-0.3-1.9-0.5-2.7l0.8-0.2
	C222.9,24,223.1,24.9,223.3,25.8z M225.9,23.5c-0.1,1.1-0.3,2-0.5,2.7l-0.7-0.5c0.2-0.7,0.4-1.6,0.5-2.6L225.9,23.5z M227.9,27
	c-0.1,0.2-0.2,0.4-0.3,0.6h1.6c-0.1-0.2-0.2-0.3-0.3-0.5l0.9-0.1c0.1,0.2,0.2,0.4,0.3,0.6h2.2v0.8H230V29h2v0.8h-2v0.6h2v0.8h-2v0.7
	h2.5v0.8h-5.3v0.4h-0.9v-3.7c-0.2,0.2-0.5,0.5-0.7,0.7l-0.3-1c0.4-0.3,0.7-0.7,1-1s0.6-0.8,0.8-1.4L227.9,27z M227.9,25.9
	c-0.4,0.5-1,0.9-1.6,1.3l-0.4-0.9c0.6-0.3,1.2-0.7,1.8-1.2L227.9,25.9z M228.9,22.9V27H228v-3.2h-2v-0.9H228.9z M227.6,24.6
	l-0.4,0.7c-0.3-0.3-0.7-0.6-1-0.8l0.4-0.6C226.9,24,227.3,24.3,227.6,24.6z M229.1,28.4h-1.8V29h1.8V28.4z M229.1,29.8h-1.8v0.6h1.8
	V29.8z M229.1,31.9v-0.7h-1.8v0.7H229.1z M231.1,25.9c-0.4,0.4-0.9,0.7-1.5,1l-0.3-0.8c0.5-0.2,1.1-0.5,1.7-1L231.1,25.9z
	 M232.1,22.9V27h-0.9v-3.2h-1.9v-0.9H232.1z M230.7,24.6l-0.4,0.7c-0.3-0.3-0.7-0.6-1-0.8l0.4-0.6C230.1,24.1,230.4,24.3,230.7,24.6
	z"/>
<path class="st0" d="M65.3,51.9h-3v0.9h-1v-8.4h4V51.9z M64.3,47.6v-2.2h-1.9v2.2H64.3z M64.3,50.9v-2.3h-1.9v2.3H64.3z M66.4,44.1
	h4.9V53c0,0.4-0.1,0.7-0.3,0.9s-0.4,0.3-0.7,0.3h-1.8l-0.2-1.1l1.6,0.1c0.2,0,0.4-0.2,0.4-0.4v-2h-2.8c-0.1,0.4-0.2,0.8-0.3,1.1
	c-0.3,0.8-1,1.7-1.9,2.5l-0.9-0.8c0.9-0.6,1.5-1.3,1.8-2.1c0.3-0.6,0.5-1.5,0.5-2.8v-0.8v-3.8C66.7,44.1,66.4,44.1,66.4,44.1z
	 M70.1,49.7v-1.8h-2.6v0.8c0,0.4,0,0.7,0,1H70.1z M70.1,46.8v-1.7h-2.6v1.7H70.1z"/>
<path class="st0" d="M75.2,43.9c-0.1,0.2-0.2,0.4-0.3,0.6h2.9v0.9c0.5-0.6,0.9-1.1,1.1-1.7l1,0.2c-0.1,0.2-0.2,0.5-0.3,0.7h3.5v0.9
	h-1.9c0.1,0.3,0.2,0.6,0.3,0.9l-1.1,0.1c-0.1-0.3-0.2-0.7-0.2-0.9H79c-0.3,0.4-0.5,0.7-0.8,1L77.3,46c0.2-0.1,0.3-0.3,0.4-0.4h-1.5
	c0.1,0.3,0.2,0.5,0.3,0.8l-1.1,0.1c-0.1-0.3-0.2-0.6-0.3-0.9h-0.9c-0.3,0.4-0.6,0.7-1,1L72.3,46c0.9-0.7,1.4-1.4,1.8-2.2L75.2,43.9z
	 M77.3,50.4v-0.6l-0.4-0.4c0.6-0.2,1-0.4,1.3-0.6c-0.3-0.1-0.6-0.3-0.9-0.4l0.5-0.7c0.3,0.1,0.6,0.2,0.9,0.3c0-0.1,0-0.2,0-0.3v-0.4
	h-1.3v-0.8h4.1v2.2c0,0.2,0.1,0.3,0.3,0.3c0.1,0,0.2,0,0.2-0.1c0.1-0.1,0.1-0.4,0.1-0.9l0.9,0.3c-0.1,0.8-0.2,1.3-0.3,1.4
	c-0.1,0.1-0.4,0.2-0.8,0.2h-0.4c-0.3,0-0.5-0.1-0.7-0.2c-0.2-0.2-0.2-0.4-0.2-0.7v-1.7h-1.1v0.4c0,0.3,0,0.5-0.1,0.7
	c0.4,0.2,0.7,0.3,1,0.5l-0.5,0.9c-0.3-0.2-0.7-0.4-1-0.6c-0.2,0.2-0.5,0.4-0.8,0.5h0.2v0.6H83v0.9h-3.6c0.4,0.3,0.8,0.6,1.2,0.7
	c0.6,0.3,1.3,0.6,2.4,0.8l-0.4,0.9c-1.3-0.4-2.2-0.8-2.8-1.2c-0.5-0.3-0.9-0.7-1.4-1.3V54h-1v-2.9c-0.3,0.4-0.7,0.8-1.2,1.1
	c-0.7,0.5-1.7,1-3.1,1.5l-0.6-0.9c1.4-0.4,2.3-0.8,2.9-1.1c0.3-0.1,0.5-0.3,0.8-0.5h-3.7v-0.9L77.3,50.4L77.3,50.4z M77,46.8v0.9
	h-1.5v1c0.5-0.1,1-0.2,1.5-0.3v0.9c-1.2,0.3-2.6,0.6-4.2,0.9l-0.2-1c0.6-0.1,1.3-0.1,1.9-0.2v-1.2h-1.6v-0.9L77,46.8L77,46.8z"/>
<path class="st0" d="M89.9,44.5v-0.8h1v0.8h2.7v1.7h0.6v0.9h-0.6v1.7H91v0.7h2.8v0.8H91v0.8h3.3V52H91v1c0.2,0,0.3,0,0.5,0
	c1.3,0,2.4,0,3-0.1l-0.2,1.2c-3.6,0-5.7-0.1-6.5-0.2c-0.7-0.2-1.3-0.5-1.7-0.8L86,53c-0.4,0.5-0.9,0.9-1.5,1.5l-0.6-1.1
	c0.6-0.4,1.1-0.9,1.4-1.3c-0.3-0.6-0.7-1.4-1.1-2.4l0.9-0.3c0.3,0.7,0.5,1.2,0.7,1.6c0,0,0-0.1,0.1-0.2c0.1-0.5,0.3-1.2,0.3-2.1h-2
	V48c0.7-0.8,1.3-1.7,1.9-2.7H84v-0.9h3.3v1c-0.7,1.1-1.2,1.9-1.8,2.5h1.7c0,1.3-0.2,2.3-0.4,3.1c-0.1,0.4-0.2,0.7-0.4,1
	c0.3,0.3,0.7,0.6,1.2,0.7c0.4,0.1,1.2,0.2,2.2,0.3v-1h-2.7v-0.9h2.7v-0.8h-2.2v-0.8h2.2v-0.7h-2.1V48h2.1v-0.9h-2.7v-0.9h2.7v-0.9
	h-2.1v-0.8C87.7,44.5,89.9,44.5,89.9,44.5z M91,46.2h1.7v-0.9H91V46.2z M91,48h1.7v-0.9H91V48z"/>
<path class="st0" d="M98.2,43.9c-0.1,0.2-0.2,0.4-0.3,0.6h2.9v0.9c0.5-0.6,0.9-1.1,1.1-1.7l1,0.2c-0.1,0.2-0.2,0.5-0.3,0.7h3.5v0.9
	h-1.9c0.1,0.3,0.2,0.6,0.3,0.9l-1.1,0.1c-0.1-0.3-0.2-0.7-0.2-0.9H102c-0.3,0.4-0.5,0.7-0.8,1l-0.9-0.6c0.2-0.1,0.3-0.3,0.4-0.4
	h-1.5c0.1,0.3,0.2,0.5,0.3,0.8l-1.1,0.1c-0.1-0.3-0.2-0.6-0.3-0.9h-0.9c-0.3,0.4-0.6,0.7-1,1L95.3,46c0.9-0.7,1.4-1.4,1.8-2.2
	L98.2,43.9z M100.3,50.4v-0.6l-0.4-0.4c0.6-0.2,1-0.4,1.3-0.6c-0.3-0.1-0.6-0.3-0.9-0.4l0.5-0.7c0.3,0.1,0.6,0.2,0.9,0.3
	c0-0.1,0-0.2,0-0.3v-0.4h-1.3v-0.8h4.1v2.2c0,0.2,0.1,0.3,0.3,0.3c0.1,0,0.2,0,0.2-0.1c0.1-0.1,0.1-0.4,0.1-0.9l0.9,0.3
	c-0.1,0.8-0.2,1.3-0.3,1.4c-0.1,0.1-0.4,0.2-0.8,0.2h-0.4c-0.3,0-0.5-0.1-0.7-0.2c-0.2-0.2-0.2-0.4-0.2-0.7v-1.7h-1.1v0.4
	c0,0.3,0,0.5-0.1,0.7c0.4,0.2,0.7,0.3,1,0.5l-0.5,0.9c-0.3-0.2-0.7-0.4-1-0.6c-0.2,0.2-0.5,0.4-0.8,0.5h0.2v0.6h4.7v0.9h-3.6
	c0.4,0.3,0.8,0.6,1.2,0.7c0.6,0.3,1.3,0.6,2.4,0.8l-0.4,0.9c-1.3-0.4-2.2-0.8-2.8-1.2c-0.5-0.3-0.9-0.7-1.4-1.3V54h-1v-2.9
	c-0.3,0.4-0.7,0.8-1.2,1.1c-0.7,0.5-1.7,1-3.1,1.5l-0.6-0.9c1.4-0.4,2.3-0.8,2.9-1.1c0.3-0.1,0.5-0.3,0.8-0.5h-3.7v-0.9L100.3,50.4
	L100.3,50.4z M100,46.8v0.9h-1.5v1c0.5-0.1,1-0.2,1.5-0.3v0.9c-1.2,0.3-2.6,0.6-4.2,0.9l-0.2-1c0.6-0.1,1.3-0.1,1.9-0.2v-1.2h-1.6
	v-0.9L100,46.8L100,46.8z"/>
<path class="st0" d="M117.2,54.2h-0.9v-0.3h-8v0.3h-0.9V44h9.9L117.2,54.2L117.2,54.2z M116.2,53v-8.2h-8V53H116.2z M111.6,45.4V45
	h0.9v0.4h3.3v0.7h-3.3v0.4h2.8v2.7h-0.5c0.3,0.4,0.6,0.7,0.9,0.9l-0.7,0.5c-0.1-0.1-0.2-0.3-0.3-0.5c-0.1,0-0.1,0-0.2,0v0.6h1.4v0.7
	h-1.4v0.5c0,0.3-0.1,0.5-0.2,0.6c-0.1,0.1-0.4,0.2-0.8,0.2h-1.3L112,52c0.5,0.1,0.9,0.1,1.2,0.1c0.2,0,0.4-0.1,0.4-0.2v-0.4h-2.8
	c0.3,0.3,0.5,0.6,0.7,0.9l-0.9,0.4c-0.2-0.4-0.5-0.8-0.8-1.2l0.4-0.1h-1.6v-0.7h4.9v-0.5c-1.4,0.1-2.9,0.2-4.7,0.3l-0.2-0.8
	c1,0,2,0,3-0.1v-0.4h-2.7v-2.7h2.7v-0.4h-3.1v-0.7L111.6,45.4L111.6,45.4z M111.6,47.6v-0.4h-1.8v0.4H111.6z M111.6,48.2h-1.8v0.4
	h1.8V48.2z M112.5,47.6h2v-0.4h-2V47.6z M114.5,48.2h-2v0.4h2V48.2z M113.9,49.3h-1.3v0.4c0.5,0,1.1,0,1.6-0.1
	C114,49.5,114,49.4,113.9,49.3z"/>
<path class="st0" d="M122.3,44.2V45c-0.3,0.9-0.6,1.8-0.9,2.8c0.3,0.5,0.5,1,0.6,1.4c0.1,0.4,0.2,0.8,0.2,1.1c0,0.6-0.1,1-0.4,1.3
	c-0.2,0.3-0.8,0.5-1.6,0.5L120,51c0.2,0,0.4,0,0.5,0c0.2,0,0.4,0,0.5-0.2c0.1-0.1,0.2-0.3,0.2-0.6s-0.1-0.7-0.2-1
	c-0.1-0.4-0.4-0.9-0.7-1.4c0.4-1.1,0.7-2,0.9-2.7h-1.3v9.1h-1.1V44.1L122.3,44.2L122.3,44.2z M125,45.1h1.4c0.2-0.4,0.5-0.9,0.7-1.4
	l1,0.4c-0.2,0.4-0.4,0.7-0.6,1h1.5V46h-2.6c-0.3,0.4-0.6,0.7-0.9,0.9c0.3,0.3,0.5,0.6,0.6,0.8c0,0.1,0.1,0.2,0.1,0.3
	c0.3-0.1,0.5-0.3,0.8-0.5s0.7-0.6,1-0.9l0.9,0.5c-0.4,0.5-0.8,0.9-1.1,1.1c0,0,0,0-0.1,0c0.1,0.7,0.3,1.3,0.6,1.9
	c0.2,0.5,0.5,1.1,0.9,1.7l-0.7,0.9c-0.4-0.7-0.8-1.5-1.1-2.3c-0.2-0.5-0.4-1.1-0.5-1.8c-0.1,0.1-0.2,0.1-0.3,0.2
	c0.1,0.6,0.2,1.2,0.2,1.9c0,1.6-0.2,2.5-0.5,2.8c-0.4,0.3-1.1,0.5-2.2,0.5l-0.2-1c0.3,0,0.5,0,0.8,0c0.3,0,0.6-0.1,0.8-0.2
	c0.2-0.1,0.3-0.8,0.4-2.1v-0.1c-0.9,0.9-2,1.7-3.2,2.3l-0.7-1c1.7-0.7,2.9-1.5,3.8-2.5c0-0.3-0.1-0.5-0.2-0.7
	c-0.3,0.4-0.6,0.6-0.9,0.8c-0.4,0.3-1,0.6-1.7,0.9l-0.6-1c0.7-0.2,1.3-0.5,1.8-0.8c0.3-0.2,0.7-0.5,0.9-0.8
	c-0.1-0.1-0.2-0.3-0.3-0.4c-0.6,0.4-1.4,0.7-2.2,1l-0.6-0.9c1-0.3,1.7-0.6,2.3-1c0.3-0.2,0.5-0.3,0.8-0.5h-2.7v-0.9h1.6
	c-0.2-0.3-0.4-0.7-0.6-1l1-0.4C124.6,44.1,124.8,44.6,125,45.1z"/>
<path class="st0" d="M135.6,50.2c-0.2,0.2-0.5,0.5-0.9,0.7l-0.4-0.6c0.5-0.3,0.9-0.6,0.9-1h-0.7V48h1.4v1.1
	C135.9,49.6,135.8,50,135.6,50.2z"/>
<path class="st0" d="M143.6,46.7c-0.2,1.9-0.6,3.4-1.1,4.7l-1.2-0.4c0.6-1.4,1-2.9,1.2-4.4L143.6,46.7z M145.5,46.2v4.4
	c0.4-0.3,0.7-0.6,1-1c1-1.2,2-2.9,2.8-5.1l1,0.4c-1,2.5-2,4.3-3.1,5.4c-0.5,0.6-1.1,1.2-1.8,1.7v0.6c0,0.2,0.1,0.4,0.4,0.4h2.3
	c0.1,0,0.3-0.1,0.3-0.2c0.1-0.1,0.1-0.8,0.2-2.1l1.1,0.3c-0.1,1.5-0.2,2.3-0.4,2.6s-0.5,0.4-1,0.4h-2.8c-0.3,0-0.6-0.1-0.8-0.3
	s-0.3-0.4-0.3-0.8v-0.2c-0.7,0.4-1.5,0.8-2.3,1.2l-0.6-1c1.1-0.5,2.1-1,3-1.5v-5.2C144.5,46.2,145.5,46.2,145.5,46.2z M147.9,46.1
	L147,47c-0.5-0.7-1.2-1.5-2.1-2.3l0.8-0.8C146.6,44.6,147.4,45.3,147.9,46.1z M152,52l-1,0.4c-0.4-1.8-0.9-3.3-1.4-4.7l1-0.3
	C151.1,48.9,151.6,50.4,152,52z"/>
<path class="st0" d="M156.3,44.5c-0.7,0.9-1.7,1.8-2.8,2.5l-0.7-0.9c1-0.6,1.9-1.4,2.7-2.3L156.3,44.5z M156.8,51.2
	c-0.9,1.2-1.9,2.2-3.2,3.2l-0.7-0.9c1.2-0.8,2.2-1.7,3.1-2.9L156.8,51.2z M156.5,47.7c-0.8,1-1.7,2-2.9,2.8l-0.7-0.9
	c1.1-0.7,2-1.5,2.9-2.5L156.5,47.7z M159.4,52.9c-0.7,0.5-1.6,1-2.7,1.4l-0.7-0.9c1-0.3,1.9-0.7,2.7-1.2L159.4,52.9z M163.5,44.1V45
	h-3c-0.1,0.3-0.1,0.6-0.2,0.9h2.7V52h-6v-6.1h2.2c0.1-0.3,0.2-0.6,0.2-0.9h-3v-0.9H163.5z M161.9,47.6v-0.8H158v0.8H161.9z
	 M161.9,49.3v-0.9H158v0.9H161.9z M161.9,50.1H158v1h3.9V50.1z M163.5,53.4l-0.6,0.9c-0.8-0.6-1.7-1-2.6-1.3l0.5-0.8
	C161.8,52.5,162.7,52.9,163.5,53.4z"/>
<path class="st0" d="M165.7,51.5c-0.1,1.1-0.2,2-0.4,2.8l-1-0.3c0.3-0.8,0.4-1.6,0.5-2.6L165.7,51.5z M167.4,44.1
	c-0.4,1-0.8,2-1.3,2.8c0.3,0,0.7-0.1,1-0.1c0.3-0.5,0.5-1,0.7-1.6l0.9,0.4c-0.8,1.8-1.7,3.3-2.5,4.5c0.6,0,1.1-0.1,1.5-0.2
	c-0.1-0.4-0.2-0.8-0.3-1.2l0.8-0.3c0.3,0.7,0.5,1.6,0.7,2.5L168,51c0-0.1-0.1-0.3-0.1-0.4c-0.8,0.2-1.9,0.3-3.2,0.4l-0.3-1
	c0.3,0,0.5,0,0.7,0c0.5-0.6,1-1.4,1.5-2.4c-0.6,0.1-1.3,0.2-2.1,0.3l-0.2-0.9c0.2,0,0.4,0,0.6,0c0.5-0.9,1-2,1.4-3.2L167.4,44.1z
	 M167.3,53.8l-0.9,0.1c0-1-0.1-1.8-0.2-2.4l0.8-0.1C167.1,52,167.2,52.8,167.3,53.8z M168.8,53.2l-0.9,0.3c-0.1-0.8-0.3-1.5-0.5-2.3
	l0.8-0.2C168.4,51.9,168.7,52.6,168.8,53.2z M174.5,54.3h-0.9v-0.7h-3.5v0.7h-0.9V44.2h5.3V54.3z M171.4,48.3v-3.1h-1.3v3.1H171.4z
	 M171.4,52.6v-3.2h-1.3v3.2H171.4z M172.3,48.3h1.3v-3.1h-1.3V48.3z M173.6,52.6v-3.2h-1.3v3.2H173.6z"/>
<path class="st0" d="M180.6,46.5c-0.4,0.7-0.9,1.2-1.5,1.6c-0.6,0.4-1.5,0.7-2.6,0.9l-0.6-1c1.2-0.2,2.1-0.4,2.5-0.7
	c0.4-0.2,0.9-0.6,1.3-1.3L180.6,46.5z M180.2,49.7c0-0.1,0-0.1,0-0.2v-1.4h1.1v1.4c0,0.1,0,0.1,0,0.2h2.8l-0.2,2.7
	c0,0.3,0,0.5,0.1,0.6s0.2,0.1,0.3,0.1h0.8c0.1,0,0.1,0,0.2-0.1c0,0,0.1-0.7,0.2-1.9l1.1,0.3c-0.1,1.3-0.3,2.1-0.5,2.3
	c-0.2,0.2-0.5,0.3-0.9,0.3h-1.4c-0.3,0-0.5-0.1-0.7-0.3c-0.2-0.2-0.4-0.5-0.4-1l0.1-2.2h-1.7c-0.2,0.8-0.6,1.5-1.1,2
	c-0.7,0.7-1.9,1.3-3.5,1.7l-0.6-0.9c1.6-0.4,2.7-0.9,3.3-1.4c0.4-0.4,0.6-0.8,0.8-1.3h-3.2v-0.9C176.8,49.7,180.2,49.7,180.2,49.7z
	 M181.6,44.7h4.4V47h-1.1v-1.4h-1.8v1.7c0,0.3,0.1,0.4,0.4,0.4h2.9v0.9h-3.1c-0.4,0-0.7-0.1-0.9-0.2c-0.2-0.1-0.3-0.4-0.3-0.8v-2.1
	h-4.5v1.4h-1.1v-2.3h4c-0.2-0.3-0.3-0.6-0.5-0.8l1.2-0.2C181.3,44,181.5,44.4,181.6,44.7z"/>
<path class="st0" d="M193.5,50.6c-0.2-0.4-0.6-0.8-1-1.3c-0.3-0.3-0.7-0.7-1.3-1.2l0.7-0.6c0.4,0.3,0.8,0.7,1.4,1.2
	c0.3,0.3,0.7,0.8,1.1,1.3L193.5,50.6z"/>
<path class="st0" d="M203.2,44.6v0.9h-1.4v5.6c0.7-0.2,1.3-0.4,2-0.6v1c-1.3,0.5-2.7,0.9-4.4,1.4l-0.3-1.1c0.6-0.1,1.1-0.2,1.7-0.3
	v-5.8h-1.5v-0.9h3.9V44.6z M209.4,44.3v0.9h-3.3c-0.3,0.9-0.6,1.8-1,2.8h3.8c-0.1,2.3-0.2,3.8-0.3,4.5c-0.1,0.5-0.3,0.9-0.6,1.2
	c-0.2,0.2-0.7,0.3-1.3,0.3c-1,0-1.6,0-1.9,0l-0.4-1.1c1,0.1,1.7,0.1,2.2,0.1c0.4,0,0.7-0.1,0.8-0.4c0.1-0.3,0.3-1.5,0.4-3.7h-4v-1
	c0.4-0.9,0.8-1.9,1.1-2.8h-1.6v-0.9h6.1V44.3z"/>
<path class="st0" d="M212.8,50.6c-0.3,1.1-0.7,2.1-1.2,2.9l-1-0.6c0.5-0.8,0.9-1.6,1.1-2.5L212.8,50.6z M220.2,44.3v5.2h-8.3v-5.2
	H220.2z M215.5,46.4v-1.2H213v1.2H215.5z M215.5,47.3H213v1.2h2.5V47.3z M214.3,50v2.7c0,0.2,0.1,0.4,0.4,0.4h3.3
	c0.1,0,0.3,0,0.3-0.1c0.1-0.1,0.1-0.5,0.2-1.2l1,0.3c-0.1,1-0.2,1.5-0.4,1.7s-0.5,0.3-1,0.3h-3.9c-0.3,0-0.6-0.1-0.8-0.3
	s-0.3-0.4-0.3-0.7V50H214.3z M217.6,51.4l-1,0.4c-0.4-0.7-0.8-1.3-1.3-1.8l1-0.3C216.8,50.3,217.2,50.8,217.6,51.4z M216.5,46.4h2.6
	v-1.2h-2.6V46.4z M219.1,47.3h-2.6v1.2h2.6V47.3z M221.3,52.7l-1,0.4c-0.4-1-0.9-1.9-1.4-2.7l1-0.3C220.4,51,220.9,51.8,221.3,52.7z
	"/>
<path class="st0" d="M228,50.6c-0.2-0.4-0.6-0.8-1-1.3c-0.3-0.3-0.7-0.7-1.3-1.2l0.7-0.6c0.4,0.3,0.8,0.7,1.4,1.2
	c0.3,0.3,0.7,0.8,1.1,1.3L228,50.6z"/>
<path class="st0" d="M243.9,52.9V54h-10.2v-1.1H243.9z M243.6,46v1h-9.7v-1H243.6z M237.8,52.1l-1.2,0.3c-0.3-1.6-0.6-3.2-1.1-4.7
	l1.1-0.4C237,48.8,237.4,50.4,237.8,52.1z M239.6,45.1l-0.8,0.8c-0.4-0.5-1.1-1-1.9-1.5l0.7-0.7C238.5,44.2,239.1,44.7,239.6,45.1z
	 M242.1,47.7c-0.3,1.7-0.8,3.3-1.3,4.8l-1.1-0.4c0.5-1.2,0.9-2.7,1.3-4.6L242.1,47.7z"/>
<path class="st0" d="M247.7,43.9c-0.1,0.2-0.2,0.4-0.3,0.6h2.9v0.9c0.5-0.6,0.9-1.1,1.1-1.7l1,0.2c-0.1,0.2-0.2,0.5-0.3,0.7h3.5v0.9
	h-1.9c0.1,0.3,0.2,0.6,0.3,0.9l-1.1,0.1c-0.1-0.3-0.2-0.7-0.2-0.9h-1.1c-0.3,0.4-0.5,0.7-0.8,1l-0.9-0.6c0.2-0.1,0.3-0.3,0.4-0.4
	h-1.5c0.1,0.3,0.2,0.5,0.3,0.8l-1.1,0.1c-0.1-0.3-0.2-0.6-0.3-0.9h-0.9c-0.3,0.4-0.6,0.7-1,1l-0.9-0.6c0.9-0.7,1.4-1.4,1.8-2.2
	L247.7,43.9z M249.8,50.4v-0.6l-0.4-0.4c0.6-0.2,1-0.4,1.3-0.6c-0.3-0.1-0.6-0.3-0.9-0.4l0.5-0.7c0.3,0.1,0.6,0.2,0.9,0.3
	c0-0.1,0-0.2,0-0.3v-0.4h-1.3v-0.8h4.1v2.2c0,0.2,0.1,0.3,0.3,0.3c0.1,0,0.2,0,0.2-0.1c0.1-0.1,0.1-0.4,0.1-0.9l0.9,0.3
	c-0.1,0.8-0.2,1.3-0.3,1.4c-0.1,0.1-0.4,0.2-0.8,0.2H254c-0.3,0-0.5-0.1-0.7-0.2c-0.2-0.2-0.2-0.4-0.2-0.7v-1.7H252v0.4
	c0,0.3,0,0.5-0.1,0.7c0.4,0.2,0.7,0.3,1,0.5l-0.5,0.9c-0.3-0.2-0.7-0.4-1-0.6c-0.2,0.2-0.5,0.4-0.8,0.5h0.2v0.6h4.7v0.9h-3.6
	c0.4,0.3,0.8,0.6,1.2,0.7c0.6,0.3,1.3,0.6,2.4,0.8l-0.4,0.9c-1.3-0.4-2.2-0.8-2.8-1.2c-0.5-0.3-0.9-0.7-1.4-1.3V54h-1v-2.9
	c-0.3,0.4-0.7,0.8-1.2,1.1c-0.7,0.5-1.7,1-3.1,1.5l-0.6-0.9c1.4-0.4,2.3-0.8,2.9-1.1c0.3-0.1,0.5-0.3,0.8-0.5H245v-0.9L249.8,50.4
	L249.8,50.4z M249.5,46.8v0.9H248v1c0.5-0.1,1-0.2,1.5-0.3v0.9c-1.2,0.3-2.6,0.6-4.2,0.9l-0.2-1c0.6-0.1,1.3-0.1,1.9-0.2v-1.2h-1.6
	v-0.9L249.5,46.8L249.5,46.8z"/>
<path class="st0" d="M65.6,67.6V67h1.1v0.6h4.2v0.9h-4.2v0.7h4.8v0.9h-1.9c0.8,0.6,1.4,1.2,1.9,1.6l-0.9,0.6
	c-0.2-0.2-0.4-0.5-0.7-0.8c-2.5,0.1-5.4,0.1-8.7,0.2L61,70.8c0.7,0,1.4,0,2.1,0l0.6-0.7h-2.8v-0.9h4.7v-0.7h-4.1v-0.9
	C61.5,67.6,65.6,67.6,65.6,67.6z M63.5,65.7v-0.8h1.1v0.8H66v0.9h-1.3v0.5h-1.1v-0.5H61v-0.9H63.5z M70.4,74.4h1.1v0.9H60.9v-0.9h1
	v-2.2h8.4L70.4,74.4L70.4,74.4z M64.4,74.4V73H63v1.3L64.4,74.4L64.4,74.4z M68.6,70.3L69,70h-4.1l-0.6,0.7c1.6,0,3.2,0,4.8,0
	C68.9,70.6,68.8,70.4,68.6,70.3z M66.8,74.4V73h-1.3v1.3L66.8,74.4L66.8,74.4z M67.8,65.7v-0.8h1.1v0.8h2.6v0.9h-2.6v0.7h-1.1v-0.7
	h-1.3v-0.9H67.8z M69.3,74.4V73h-1.4v1.3L69.3,74.4L69.3,74.4z"/>
<path class="st0" d="M74.6,65.8v3.1H77V65h1.2v3.9h2.6v-3.1h1.1v4.1h-3.7v3.8h3.1v-2.9h1.1v4.7h-1.1v-0.7h-7.2v0.7H73v-4.7h1.1v2.9
	H77v-3.8h-3.6v-4.1H74.6z"/>
<path class="st0" d="M86.3,68.4c-0.3,2.3-0.7,4.2-1.2,5.8L84,73.5c0.5-1.7,0.9-3.4,1.1-5.4L86.3,68.4z M88.2,67.8v6.1
	c0,0.3,0.1,0.4,0.4,0.4h2.1c0.1,0,0.3-0.1,0.3-0.3c0.1-0.2,0.1-1,0.2-2.4l1.1,0.3c-0.1,1.7-0.2,2.7-0.4,3c-0.2,0.3-0.5,0.5-1,0.5
	h-2.6c-0.3,0-0.6-0.1-0.8-0.3s-0.3-0.5-0.3-0.8v-6.5C87.2,67.8,88.2,67.8,88.2,67.8z M91.2,67.9l-1.1,0.8c-0.5-0.8-1.2-1.8-2.1-2.8
	l0.9-0.6C89.9,66.3,90.6,67.2,91.2,67.9z M94.4,73.3l-1.1,0.5c-0.4-1.9-0.9-3.7-1.5-5.2l1.1-0.4C93.5,69.8,94,71.5,94.4,73.3z"/>
<path class="st0" d="M100.8,65.1v3.4h4.5v1h-4.5v4.7h5.1v1.1H95.6v-1.1h4v-9.1H100.8z"/>
<path class="st0" d="M110.4,65.1c-0.1,0.6-0.3,1.2-0.6,1.7h1.7v2.4c0.3-0.6,0.6-1.1,0.8-1.7s0.4-1.5,0.6-2.6l1.1,0.2
	c-0.1,0.6-0.2,1.2-0.3,1.6h3.5c0,4-0.1,6.4-0.2,7.2c-0.1,0.6-0.3,1-0.6,1.2s-0.9,0.3-1.8,0.3c-0.3,0-0.5,0-0.9,0l-0.2-1.1
	c0.3,0.1,0.7,0.1,1,0.1c0.7,0,1.1-0.2,1.2-0.7c0.1-0.6,0.2-2.5,0.3-5.8h-2.7c0,0.1-0.1,0.1-0.1,0.2c-0.3,0.8-0.7,1.7-1.3,2.6
	l-0.5-0.7v4.7h-1v-0.5h-2.1v0.9h-1v-8.2h1.4c0.2-0.6,0.4-1.2,0.6-1.8H110.4z M110.5,70v-2.2h-2.1V70H110.5z M110.5,73.2v-2.3h-2.1
	v2.3H110.5z M115.2,72l-1.1,0.7c-0.3-0.8-0.8-1.8-1.3-2.9l0.9-0.6C114.4,70.4,114.9,71.3,115.2,72z"/>
<path class="st0" d="M128.9,65.9c-2.5,0.2-5.3,0.3-8.4,0.4v0.6h8v2.8h-3.8l0.4,0.9h4v0.9H124c0,0.3-0.1,0.6-0.1,0.9h4.6
	c-0.1,1.3-0.2,2.1-0.3,2.5c-0.1,0.2-0.3,0.4-0.6,0.5c-0.2,0.1-1,0.2-2.5,0.2l-0.3-1.1c0.4,0,0.6,0,0.8,0c0.7,0,1.1,0,1.3-0.1
	c0.3-0.1,0.4-0.5,0.5-1.2h-3.7c-0.1,0.2-0.3,0.5-0.4,0.6c-0.4,0.6-1.2,1.2-2.3,1.7l-0.6-1c0.9-0.3,1.6-0.8,2-1.3
	c0.4-0.4,0.6-1.1,0.7-1.9h-2.4c0,0.6-0.1,1.2-0.3,1.8c-0.2,0.8-0.5,1.5-0.9,2.2l-0.8-0.9c0.3-0.6,0.5-1.1,0.7-1.7
	c0.1-0.6,0.2-1.3,0.3-2.2v-5.3c3.6,0,6.6-0.1,8.9-0.4L128.9,65.9z M127.5,68.8v-0.9h-7v0.9H127.5z M123.9,70.5l-0.4-0.9h-3.1v0.9
	H123.9z"/>
<path class="st0" d="M139.3,65.5v0.9c-0.6,0.7-1.7,1.5-3.3,2.6v0.8h4.4v1.1H136v3.6c0,0.3-0.1,0.6-0.2,0.8c-0.2,0.2-0.5,0.3-0.8,0.3
	h-2.2l-0.1-1.2c0.7,0.1,1.3,0.1,1.7,0.1c0.2,0,0.3-0.1,0.3-0.4v-3.2H130v-1.1h4.7v-1.4c1.1-0.6,2.1-1.2,3-1.8h-6.5v-1L139.3,65.5
	L139.3,65.5z"/>
<path class="st0" d="M66.7,94.2c-0.5,0.4-1.1,0.8-1.8,1.1c0.2,0,0.3,0.1,0.5,0.1c0.6,0.1,1.7,0.1,3.4,0.1c1.2,0,2.1,0,2.7-0.1
	l-0.1,1c-3.2,0-5.2,0-5.9-0.1c-0.6-0.1-1.2-0.2-1.5-0.4c-0.4-0.1-0.8-0.5-1.2-1c-0.3,0.5-0.6,1.1-1.1,1.7L61,95.8
	c0.5-0.6,0.9-1.2,1.1-1.7c0.2-0.3,0.4-0.9,0.6-1.8h-1.4v-0.9c0.4-0.5,0.8-1.1,1.2-1.9H61v-0.9h2.5v0.8c-0.3,0.6-0.7,1.3-1.2,2h1.3
	V92c-0.2,0.9-0.3,1.5-0.5,1.9c0.5,0.5,0.9,0.8,1.2,0.9c0.1,0,0.2,0.1,0.3,0.1L64,94.2c0.7-0.3,1.4-0.6,2-0.9L66.7,94.2z M63.4,87.8
	l-0.7,0.7c-0.3-0.5-0.7-1.1-1.2-1.7l0.7-0.6C62.7,86.8,63.1,87.3,63.4,87.8z M65.6,91.1v-0.5h1v0.5h1.8v-0.5h1v0.5h1.7v0.8h-1.7v0.8
	h1.9v0.8h-7.4v-0.8h1.7v-0.8H64v-0.8H65.6z M67.1,88.7h-2.2v0.6c0,0.2,0.1,0.3,0.3,0.3h0.9c0.1,0,0.3,0,0.3-0.1
	c0.1,0,0.1-0.2,0.2-0.6l0.9,0.3c-0.1,0.6-0.2,0.9-0.4,1c-0.2,0.1-0.4,0.2-0.9,0.2h-1.3c-0.3,0-0.5-0.1-0.7-0.2
	C64,90.1,64,89.9,64,89.6v-3h3.1V88.7z M64.9,88h1.3v-0.7h-1.3V88z M68.3,92.7v-0.8h-1.8v0.8H68.3z M70.9,88.7h-2.3v0.7
	c0,0.2,0.1,0.3,0.4,0.3h0.8c0.2,0,0.3,0,0.4-0.1c0.1,0,0.1-0.3,0.2-0.6l0.9,0.3c-0.1,0.6-0.2,0.9-0.4,1c-0.2,0.1-0.5,0.2-0.9,0.2
	h-1.3c-0.3,0-0.5-0.1-0.7-0.2s-0.3-0.3-0.3-0.6v-3.1h3.2V88.7z M70.9,94.5l-0.6,0.9c-0.7-0.4-1.4-0.8-2.1-1l0.5-0.8
	C69.5,93.9,70.2,94.1,70.9,94.5z M68.7,88H70v-0.8h-1.3V88z"/>
<path class="st0" d="M73.7,88.2v-2.1h1v2.1h1.1v0.9h-1.1v2.2c0.3-0.2,0.6-0.4,0.9-0.7v1.1c-0.3,0.2-0.6,0.5-0.9,0.6v3.1
	c0,0.4-0.1,0.7-0.3,0.8c-0.2,0.2-0.5,0.3-0.9,0.3h-0.7l-0.2-1.1c0.3,0.1,0.5,0.1,0.6,0.1c0.3,0,0.4-0.1,0.4-0.3V93
	c-0.4,0.2-0.8,0.4-1.2,0.5l-0.1-1.2c0.4-0.1,0.9-0.2,1.3-0.4v-2.7h-1.2v-0.9L73.7,88.2L73.7,88.2z M82.7,86.5v2.6h-2.9v0.6h2.8v0.8
	h-2.8v0.7h3V92h-1.2c-0.1,0.3-0.3,0.6-0.5,0.9h1.5v0.8h-2.8v0.7h3.3v0.8h-3.3v1.4h-1v-1.4h-3v-0.8h3v-0.7H76v-0.8h1.6
	c-0.2-0.3-0.3-0.6-0.5-0.9h-1.2v-0.8h2.8v-0.7h-2.6v-0.8h2.6v-0.6h-2.8v-2.6H82.7z M77.9,87.3h-1v1h1V87.3z M80.1,92.9
	c0.2-0.3,0.4-0.6,0.5-0.9h-2.4c0.1,0.3,0.3,0.6,0.4,0.9H80.1z M79.8,87.3h-1v1h1V87.3z M81.7,87.3h-1v1h1V87.3z"/>
<path class="st0" d="M86.7,86.3v7.2c0.8-0.3,1.6-0.7,2.4-1.1l0.3,1.1c-1.3,0.7-3,1.4-4.9,2L84,94.4c0.5-0.1,1-0.3,1.6-0.4v-7.6
	L86.7,86.3L86.7,86.3z M92.8,86.3c0,2.4-0.3,4.3-0.8,5.7c0.9,1.1,1.7,2.2,2.3,3.3l-0.9,0.9c-0.5-0.9-1.1-1.9-1.9-3
	c-0.6,1.2-1.8,2.3-3.5,3.4l-0.8-1c1.6-0.9,2.7-1.9,3.2-3c0.7-1.3,1.1-3.5,1.1-6.4L92.8,86.3L92.8,86.3z M90.4,90.5l-1.1,0.8
	c-0.4-1-0.9-2.1-1.6-3.3l0.9-0.6C89.3,88.6,89.9,89.6,90.4,90.5z"/>
<path class="st0" d="M101.4,86.9v-0.8h1v0.8h2.7v1.7h0.6v0.9h-0.6v1.7h-2.7v0.7h2.8v0.8h-2.8v0.8h3.3v0.9h-3.3v1c0.2,0,0.3,0,0.5,0
	c1.3,0,2.4,0,3-0.1l-0.2,1.2c-3.6,0-5.7-0.1-6.5-0.2c-0.7-0.2-1.3-0.5-1.7-0.8l-0.1-0.1c-0.4,0.5-0.9,0.9-1.5,1.5l-0.6-1.1
	c0.6-0.4,1.1-0.9,1.4-1.3c-0.3-0.6-0.7-1.4-1.1-2.4l0.9-0.3c0.3,0.7,0.5,1.2,0.7,1.6c0,0,0-0.1,0.1-0.2c0.1-0.5,0.3-1.2,0.3-2.1h-2
	v-0.7c0.7-0.8,1.3-1.7,1.9-2.7h-2.1v-0.9h3.3v1c-0.7,1.1-1.2,1.9-1.8,2.5h1.7c0,1.3-0.2,2.3-0.4,3.1c-0.1,0.4-0.2,0.7-0.4,1
	c0.3,0.3,0.7,0.6,1.2,0.7c0.4,0.1,1.2,0.2,2.2,0.3v-0.9h-2.7v-0.9h2.7v-0.8H99V92h2.2v-0.7h-2.1v-0.8h2.1v-0.9h-2.7v-0.9h2.7v-0.9
	h-2.1V87L101.4,86.9L101.4,86.9z M102.5,88.6h1.7v-0.9h-1.7V88.6z M102.5,90.4h1.7v-0.9h-1.7V90.4z"/>
<path class="st0" d="M109.7,86.3c-0.1,0.2-0.2,0.4-0.3,0.6h2.9v0.9c0.5-0.6,0.9-1.1,1.1-1.7l1,0.2c-0.1,0.2-0.2,0.5-0.3,0.7h3.5v0.9
	h-1.9c0.1,0.3,0.2,0.6,0.3,0.9l-1.1,0.1c-0.1-0.3-0.2-0.7-0.2-0.9h-1.1c-0.3,0.4-0.5,0.7-0.8,1l-0.9-0.6c0.2-0.1,0.3-0.3,0.4-0.4
	h-1.5c0.1,0.3,0.2,0.5,0.3,0.8l-1.1,0.1c-0.1-0.3-0.2-0.6-0.3-0.9h-0.9c-0.3,0.4-0.6,0.7-1,1l-0.9-0.6c0.9-0.7,1.4-1.4,1.8-2.2
	L109.7,86.3z M111.8,92.8v-0.6l-0.4-0.4c0.6-0.2,1-0.4,1.3-0.6c-0.3-0.1-0.6-0.3-0.9-0.4l0.5-0.7c0.3,0.1,0.6,0.2,0.9,0.3
	c0-0.1,0-0.2,0-0.3v-0.4h-1.3V89h4.1v2.2c0,0.2,0.1,0.3,0.3,0.3c0.1,0,0.2,0,0.2-0.1c0.1-0.1,0.1-0.4,0.1-0.9l0.9,0.3
	c-0.1,0.8-0.2,1.3-0.3,1.4c-0.1,0.1-0.4,0.2-0.8,0.2H116c-0.3,0-0.5-0.1-0.7-0.2c-0.2-0.2-0.2-0.4-0.2-0.7v-1.7H114v0.4
	c0,0.3,0,0.5-0.1,0.7c0.4,0.2,0.7,0.3,1,0.5l-0.5,0.9c-0.3-0.2-0.7-0.4-1-0.6c-0.2,0.2-0.5,0.4-0.8,0.5h0.2v0.6h4.7v0.9h-3.6
	c0.4,0.3,0.8,0.6,1.2,0.7c0.6,0.3,1.3,0.6,2.4,0.8l-0.4,0.9c-1.3-0.4-2.2-0.8-2.8-1.2c-0.5-0.3-0.9-0.7-1.4-1.3v2.9h-1v-2.9
	c-0.3,0.4-0.7,0.8-1.2,1.1c-0.7,0.5-1.7,1-3.1,1.5l-0.6-0.9c1.4-0.4,2.3-0.8,2.9-1.1c0.3-0.1,0.5-0.3,0.8-0.5H107v-0.9H111.8z
	 M111.5,89.2v0.9H110v1c0.5-0.1,1-0.2,1.5-0.3v0.9c-1.2,0.3-2.6,0.6-4.2,0.9l-0.2-1c0.6-0.1,1.3-0.1,1.9-0.2v-1.2h-1.6v-0.9
	L111.5,89.2L111.5,89.2z"/>
<path class="st0" d="M128.7,88.8h-3.2c0.1,1.6,0.3,2.9,0.6,3.9c0.5-0.8,1-1.8,1.5-3.1l1,0.4c-0.6,1.7-1.3,3-2,3.8
	c0.5,1,0.9,1.5,1.1,1.5c0.1,0,0.3-0.5,0.4-1.6l0.9,0.6c-0.3,1.1-0.5,1.7-0.7,2c-0.1,0.2-0.3,0.3-0.5,0.3c-0.5,0-1-0.3-1.5-0.8
	c-0.3-0.3-0.5-0.6-0.7-1c-0.7,0.7-1.6,1.3-2.7,1.8l-0.6-1c1.2-0.5,2.2-1.2,2.9-1.9c-0.2-0.4-0.3-0.8-0.4-1.2c-0.2-1-0.4-2.2-0.5-3.7
	h-3.8v1.4h3.2c0,2.1-0.1,3.4-0.3,3.9c-0.2,0.6-0.6,1-1.1,1h-1.5l-0.2-1.1c0.8,0.1,1.3,0.1,1.7,0.1c0.1,0,0.2-0.2,0.2-0.5
	c0-0.4,0.1-1.2,0.1-2.4h-2.1c0,0.8-0.1,1.7-0.2,2.5c-0.2,1.1-0.6,2.1-1,3.1l-0.9-0.8c0.4-0.8,0.7-1.7,0.9-2.6
	c0.1-0.9,0.2-1.8,0.2-2.6v-3.1h4.9c0-0.5,0-1,0-1.6h1.1c0,0.6,0,1.1,0,1.6h1.6c-0.3-0.3-0.7-0.6-1.1-0.9l0.7-0.7
	c0.5,0.3,1,0.7,1.4,1l-0.6,0.6h1.3v1.1H128.7z"/>
<path class="st0" d="M133.7,95.6h-1v-0.9h-1.4v1.1h-1v-8.9h3.4V95.6z M132.7,90.4V88h-1.4v2.4H132.7z M132.7,93.7v-2.4h-1.4v2.4
	H132.7z M136.6,87.3v-1.1h1v1.1h2.5v1h-2.5v1.2h2.9v1h-1.1v1.2h1.2v1h-1.2v2.7c0,0.4-0.1,0.7-0.3,0.9c-0.2,0.2-0.5,0.3-0.9,0.3h-1.4
	l-0.2-1.1c0.6,0.1,1,0.1,1.4,0.1c0.3,0,0.4-0.1,0.4-0.3v-2.6h-4.5v-1h4.5v-1.2H134v-1h2.7v-1.2h-2.4v-1H136.6z M137.1,94.6l-1,0.7
	c-0.4-0.5-0.9-1.2-1.6-1.8l0.9-0.5C136.1,93.6,136.6,94.2,137.1,94.6z"/>
<path class="st0" d="M147.4,86.1v4.2h4.5v0.9h-3.3v3.9c0,0.2,0.1,0.4,0.4,0.4h1.4c0.2,0,0.3-0.1,0.4-0.2s0.1-0.8,0.2-1.9l1.1,0.3
	c-0.1,1.3-0.3,2.1-0.5,2.4c-0.2,0.2-0.5,0.4-1,0.4h-2c-0.3,0-0.6-0.1-0.8-0.3c-0.2-0.2-0.3-0.4-0.3-0.8v-4.2h-1.6
	c-0.1,1.5-0.4,2.5-0.9,3.3s-1.4,1.6-2.7,2.2l-0.8-1c1.2-0.5,2-1.1,2.5-1.7c0.4-0.5,0.7-1.5,0.8-2.8h-3v-0.9h4.5v-4.2
	C146.3,86.1,147.4,86.1,147.4,86.1z M145,89.3l-1.2,0.5c-0.4-1-0.8-1.8-1.3-2.6l1.1-0.4C144.2,87.6,144.6,88.4,145,89.3z
	 M150.9,87.3c-0.3,0.9-0.8,1.8-1.3,2.6l-1.1-0.5c0.5-0.9,1-1.7,1.3-2.6L150.9,87.3z"/>
<path class="st0" d="M158.6,92.6c-0.2,0.2-0.5,0.5-0.9,0.7l-0.4-0.6c0.5-0.3,0.9-0.6,0.9-1h-0.7v-1.4h1.4v1.1
	C158.9,92,158.8,92.4,158.6,92.6z"/>
<path class="st0" d="M167.2,86.3v7.2c0.8-0.3,1.6-0.7,2.4-1.1l0.3,1.1c-1.3,0.7-3,1.4-4.9,2l-0.5-1.1c0.5-0.1,1-0.3,1.6-0.4v-7.6
	L167.2,86.3L167.2,86.3z M173.3,86.3c0,2.4-0.3,4.3-0.8,5.7c0.9,1.1,1.7,2.2,2.3,3.3l-0.9,0.9c-0.5-0.9-1.1-1.9-1.9-3
	c-0.6,1.2-1.8,2.3-3.5,3.4l-0.8-1c1.6-0.9,2.7-1.9,3.2-3c0.7-1.3,1.1-3.5,1.1-6.4L173.3,86.3L173.3,86.3z M170.9,90.5l-1.1,0.8
	c-0.4-1-0.9-2.1-1.6-3.3l0.9-0.6C169.8,88.6,170.4,89.6,170.9,90.5z"/>
<path class="st0" d="M186.1,87.2c-1.2,0.3-2.5,0.5-4,0.7v1.6h3.8v1.1H182v1.6h4.5v1.1H182v2.1c0,0.4-0.1,0.7-0.3,0.9
	c-0.2,0.2-0.5,0.3-1,0.3h-1.8l-0.3-1.2c0.7,0.1,1.3,0.1,1.8,0.1c0.3,0,0.4-0.1,0.4-0.3v-1.9h-5v-1.1h5v-1.6h-4.3v-1.1h4.3V88
	c-1.3,0.1-2.7,0.1-4.2,0.1l-0.4-1.1c3.6,0,6.6-0.3,9.2-0.8L186.1,87.2z"/>
<path class="st0" d="M190.3,86.7v-0.6h1v0.6h1.2v0.8h-1.2v0.3h-1v-0.3h-2.9v-0.8H190.3z M189.9,88.2v-0.3h0.9v0.3h1.8v0.6h-1.8v0.4
	h2.2v0.7h-1V90c0,0.1,0.1,0.2,0.3,0.2h0.7v0.5h-0.9c-0.3,0-0.5,0-0.7-0.1s-0.3-0.2-0.3-0.4V90h-1.6c-0.1,0.3-0.2,0.6-0.4,0.8
	c-0.1,0.1-0.2,0.2-0.3,0.3h1v-0.6h1v0.6h1.6v0.6h-1.6v0.4c0.7,0,1.3-0.1,1.9-0.1v0.6c-0.9,0.1-2.6,0.3-4.9,0.4l-0.1-0.8
	c0.8,0,1.5,0,2.2-0.1v-0.5h-1.4v-0.4c-0.2,0.1-0.4,0.2-0.5,0.2l-0.4-0.7c0.4-0.1,0.8-0.2,1-0.4c0.1-0.1,0.2-0.2,0.3-0.4h-1.1v-0.7
	h2.3v-0.4H188v-0.6C188,88.2,189.9,88.2,189.9,88.2z M197.9,94.1v0.8h-1.8c0.5,0.4,1,0.9,1.4,1.4l-0.9,0.4c-0.1-0.2-0.2-0.3-0.3-0.4
	c-1.6,0.1-4.3,0.2-8.1,0.3l-0.1-0.9c0.5,0,1,0,1.4,0c0.3-0.3,0.5-0.6,0.7-0.9h-2.5V94L197.9,94.1L197.9,94.1z M196.7,93v0.7h-7.9V93
	H196.7z M195.1,95.1l0.6-0.2h-4.3c-0.2,0.3-0.4,0.6-0.6,0.8c1.8,0,3.4-0.1,4.9-0.1C195.4,95.4,195.3,95.2,195.1,95.1z M194.4,88.8
	v-0.7h0.9v0.7h1.6v2.5c0.1,0.3,0.1,0.5,0.2,0.5c0.1,0,0.2-0.4,0.2-1.1l0.6,0.5c-0.1,0.8-0.3,1.2-0.4,1.4c-0.1,0.1-0.3,0.2-0.5,0.2
	c-0.3,0-0.5-0.1-0.6-0.3c-0.2-0.2-0.3-0.6-0.4-1.2v-1.8h-0.8c0,0.5-0.1,1-0.2,1.4c0.3,0.2,0.6,0.4,0.9,0.7l-0.4,0.7
	c-0.3-0.2-0.5-0.4-0.7-0.6c-0.2,0.4-0.6,0.8-1.1,1.2l-0.7-0.6c0.5-0.3,0.8-0.7,1.1-1.1c-0.3-0.2-0.6-0.4-0.9-0.5l0.4-0.6
	c0.3,0.1,0.5,0.3,0.8,0.4c0-0.3,0.1-0.6,0.1-0.9h-1.3v-0.8C193.2,88.8,194.4,88.8,194.4,88.8z M194.3,86.7v-0.6h1v0.6h2.6v0.8h-2.6
	v0.4h-1v-0.4h-1.2v-0.8H194.3z"/>
<path class="st0" d="M209.2,88.8H206c0.1,1.6,0.3,2.9,0.6,3.9c0.5-0.8,1-1.8,1.5-3.1l1,0.4c-0.6,1.7-1.3,3-2,3.8
	c0.5,1,0.9,1.5,1.1,1.5c0.1,0,0.3-0.5,0.4-1.6l0.9,0.6c-0.3,1.1-0.5,1.7-0.7,2c-0.1,0.2-0.3,0.3-0.5,0.3c-0.5,0-1-0.3-1.5-0.8
	c-0.3-0.3-0.5-0.6-0.7-1c-0.7,0.7-1.6,1.3-2.7,1.8l-0.6-1c1.2-0.5,2.2-1.2,2.9-1.9c-0.2-0.4-0.3-0.8-0.4-1.2c-0.2-1-0.4-2.2-0.5-3.7
	H201v1.4h3.2c0,2.1-0.1,3.4-0.3,3.9c-0.2,0.6-0.6,1-1.1,1h-1.5l-0.2-1.1c0.8,0.1,1.3,0.1,1.7,0.1c0.1,0,0.2-0.2,0.2-0.5
	c0-0.4,0.1-1.2,0.1-2.4H201c0,0.8-0.1,1.7-0.2,2.5c-0.2,1.1-0.6,2.1-1,3.1l-0.9-0.8c0.4-0.8,0.7-1.7,0.9-2.6
	c0.1-0.9,0.2-1.8,0.2-2.6v-3.1h4.9c0-0.5,0-1,0-1.6h1.1c0,0.6,0,1.1,0,1.6h1.6c-0.3-0.3-0.7-0.6-1.1-0.9l0.7-0.7
	c0.5,0.3,1,0.7,1.4,1l-0.6,0.6h1.3L209.2,88.8L209.2,88.8L209.2,88.8z"/>
<path class="st0" d="M212.8,89.6c-0.3,2.3-0.7,4.2-1.2,5.8l-1.1-0.7c0.5-1.7,0.9-3.4,1.1-5.3L212.8,89.6z M214.7,89v6.1
	c0,0.3,0.1,0.4,0.4,0.4h2.1c0.1,0,0.3-0.1,0.3-0.3c0.1-0.2,0.1-1,0.2-2.4l1.1,0.3c-0.1,1.7-0.2,2.7-0.4,3s-0.5,0.5-1,0.5h-2.6
	c-0.3,0-0.6-0.1-0.8-0.3c-0.2-0.2-0.3-0.5-0.3-0.8V89H214.7z M217.7,89.1l-1.1,0.8c-0.5-0.8-1.2-1.8-2.1-2.8l0.9-0.6
	C216.4,87.5,217.1,88.4,217.7,89.1z M220.9,94.5l-1.1,0.5c-0.4-1.9-0.9-3.7-1.5-5.2l1.1-0.4C220,91,220.5,92.7,220.9,94.5z"/>
<path class="st0" d="M224.2,94.3c-0.4,0.8-0.9,1.4-1.4,2l-0.9-0.6c0.5-0.5,1-1.1,1.5-1.8L224.2,94.3z M227.6,86.9h4.2v0.9h-2
	l-0.4,0.8h2.8v0.8H222v-0.8h2.8l-0.4-0.8h-1.9v-0.9h3.8c-0.1-0.2-0.3-0.4-0.4-0.6l1.2-0.2C227.4,86.4,227.5,86.6,227.6,86.9z
	 M231.2,89.9v3.5h-8v-3.5H231.2z M230.1,91.3v-0.6h-5.9v0.6H230.1z M230.1,92h-5.9v0.7h5.9V92z M225.8,93.8v1.4
	c0,0.2,0.1,0.3,0.4,0.3h2.2c0.2,0,0.3,0,0.4-0.1c0.1-0.1,0.2-0.4,0.2-1.1l1,0.3c-0.1,0.9-0.3,1.4-0.5,1.5c-0.2,0.2-0.5,0.2-1,0.2
	h-2.8c-0.3,0-0.6-0.1-0.7-0.2c-0.2-0.2-0.3-0.4-0.3-0.7v-1.7L225.8,93.8L225.8,93.8z M228.4,88.6l0.4-0.8h-3.1l0.4,0.8H228.4z
	 M228.5,94.8l-0.9,0.6c-0.3-0.4-0.6-0.9-1-1.4l0.8-0.4C227.9,94,228.2,94.4,228.5,94.8z M232.5,95.6l-0.9,0.6
	c-0.3-0.6-0.7-1.2-1.3-1.9l0.8-0.5C231.7,94.5,232.1,95.1,232.5,95.6z"/>
<path class="st0" d="M64.7,116.8h-1v-0.9h-1.4v1.1h-1v-8.9h3.4V116.8z M63.7,111.6v-2.4h-1.4v2.4H63.7z M63.7,114.9v-2.4h-1.4v2.4
	H63.7z M67.6,108.5v-1.1h1v1.1h2.5v1h-2.5v1.2h2.9v1h-1.1v1.2h1.2v1h-1.2v2.7c0,0.4-0.1,0.7-0.3,0.9c-0.2,0.2-0.5,0.3-0.9,0.3h-1.4
	l-0.2-1.1c0.6,0.1,1,0.1,1.4,0.1c0.3,0,0.4-0.1,0.4-0.3v-2.6h-4.5v-1h4.5v-1.2H65v-1h2.7v-1.2h-2.4v-1H67.6z M68.1,115.8l-1,0.7
	c-0.4-0.5-0.9-1.2-1.6-1.8l0.9-0.5C67.1,114.8,67.6,115.4,68.1,115.8z"/>
<path class="st0" d="M78.4,107.3v4.2h4.5v0.9h-3.3v3.9c0,0.2,0.1,0.4,0.4,0.4h1.4c0.2,0,0.3-0.1,0.4-0.2c0.1-0.1,0.1-0.8,0.2-1.9
	l1.1,0.3c-0.1,1.3-0.3,2.1-0.5,2.4c-0.2,0.2-0.5,0.4-1,0.4h-2c-0.3,0-0.6-0.1-0.8-0.3c-0.2-0.2-0.3-0.4-0.3-0.8v-4.2h-1.6
	c-0.1,1.5-0.4,2.5-0.9,3.3s-1.4,1.6-2.7,2.2l-0.8-1c1.2-0.5,2-1.1,2.5-1.7c0.4-0.5,0.7-1.5,0.8-2.8h-3v-0.9h4.5v-4.2
	C77.3,107.3,78.4,107.3,78.4,107.3z M76,110.5l-1.2,0.5c-0.4-1-0.8-1.8-1.3-2.6l1.1-0.4C75.2,108.8,75.6,109.6,76,110.5z
	 M81.9,108.5c-0.3,0.9-0.8,1.8-1.3,2.6l-1.1-0.5c0.5-0.9,1-1.7,1.3-2.6L81.9,108.5z"/>
<path class="st0" d="M87.4,108.5c-0.4,0.2-1,0.4-1.9,0.6v0.9h1.7v0.9h-1.7v1.3h1.6v0.9h-1.5v1.3h2.1v-3.1h1v3.1h1v-3.6h-2v-3.5h1
	v0.8h2.1v0.9h-2.1v1h2.1v4.5H93v-1.2h-1.7v-0.9H93v-1.3h-1.7V110H93v-1.2h-1.8v-0.9H94l-0.1,6.6h0.6v1H83.9v-1h0.7l-0.1-6.2
	c0.8-0.1,1.6-0.4,2.5-0.8L87.4,108.5z M88.2,116.3c-0.9,0.6-2.1,1.1-3.5,1.6L84,117c1.3-0.4,2.4-0.8,3.4-1.4L88.2,116.3z M94.4,117
	l-0.7,1c-1.1-0.7-2.2-1.2-3.3-1.6l0.6-0.9C92.2,115.9,93.3,116.4,94.4,117z"/>
<path class="st0" d="M101.4,108.1v-0.8h1v0.8h2.7v1.7h0.6v0.9h-0.6v1.7h-2.7v0.7h2.8v0.8h-2.8v0.8h3.3v0.9h-3.3v1c0.2,0,0.3,0,0.5,0
	c1.3,0,2.4,0,3-0.1l-0.2,1.2c-3.6,0-5.7-0.1-6.5-0.2c-0.7-0.2-1.3-0.5-1.7-0.8l-0.1-0.1c-0.4,0.5-0.9,0.9-1.5,1.5l-0.6-1.1
	c0.6-0.4,1.1-0.9,1.4-1.3c-0.3-0.6-0.7-1.4-1.1-2.4l0.9-0.3c0.3,0.7,0.5,1.2,0.7,1.6c0,0,0-0.1,0.1-0.2c0.1-0.5,0.3-1.2,0.3-2.1h-2
	v-0.7c0.7-0.8,1.3-1.7,1.9-2.7h-2.1V108h3.3v1c-0.7,1.1-1.2,1.9-1.8,2.5h1.7c0,1.3-0.2,2.3-0.4,3.1c-0.1,0.4-0.2,0.7-0.4,1
	c0.3,0.3,0.7,0.6,1.2,0.7c0.4,0.1,1.2,0.2,2.2,0.3v-0.9h-2.7v-0.9h2.7V114H99v-0.8h2.2v-0.7h-2.1v-0.8h2.1v-0.9h-2.7v-0.9h2.7V109
	h-2.1v-0.8L101.4,108.1L101.4,108.1z M102.5,109.8h1.7V109h-1.7V109.8z M102.5,111.6h1.7v-0.9h-1.7V111.6z"/>
<path class="st0" d="M109.7,107.5c-0.1,0.2-0.2,0.4-0.3,0.6h2.9v0.9c0.5-0.6,0.9-1.1,1.1-1.7l1,0.2c-0.1,0.2-0.2,0.5-0.3,0.7h3.5
	v0.9h-1.9c0.1,0.3,0.2,0.6,0.3,0.9l-1.1,0.1c-0.1-0.3-0.2-0.7-0.2-0.9h-1.1c-0.3,0.4-0.5,0.7-0.8,1l-0.9-0.6
	c0.2-0.1,0.3-0.3,0.4-0.4h-1.5c0.1,0.3,0.2,0.5,0.3,0.8l-1.1,0.1c-0.1-0.3-0.2-0.6-0.3-0.9h-0.9c-0.3,0.4-0.6,0.7-1,1l-0.9-0.6
	c0.9-0.7,1.4-1.4,1.8-2.2L109.7,107.5z M111.8,114v-0.6l-0.4-0.4c0.6-0.2,1-0.4,1.3-0.6c-0.3-0.1-0.6-0.3-0.9-0.4l0.5-0.7
	c0.3,0.1,0.6,0.2,0.9,0.3c0-0.1,0-0.2,0-0.3V111h-1.3v-0.8h4.1v2.2c0,0.2,0.1,0.3,0.3,0.3c0.1,0,0.2,0,0.2-0.1
	c0.1-0.1,0.1-0.4,0.1-0.9l0.9,0.3c-0.1,0.8-0.2,1.3-0.3,1.4c-0.1,0.1-0.4,0.2-0.8,0.2H116c-0.3,0-0.5-0.1-0.7-0.2
	c-0.2-0.2-0.2-0.4-0.2-0.7V111H114v0.4c0,0.3,0,0.5-0.1,0.7c0.4,0.2,0.7,0.3,1,0.5l-0.5,0.9c-0.3-0.2-0.7-0.4-1-0.6
	c-0.2,0.2-0.5,0.4-0.8,0.5h0.2v0.6h4.7v0.9h-3.6c0.4,0.3,0.8,0.6,1.2,0.7c0.6,0.3,1.3,0.6,2.4,0.8l-0.4,0.9
	c-1.3-0.4-2.2-0.8-2.8-1.2c-0.5-0.3-0.9-0.7-1.4-1.3v2.9h-1V115c-0.3,0.4-0.7,0.8-1.2,1.1c-0.7,0.5-1.7,1-3.1,1.5l-0.6-0.9
	c1.4-0.4,2.3-0.8,2.9-1.1c0.3-0.1,0.5-0.3,0.8-0.5H107V114H111.8z M111.5,110.4v0.9H110v1c0.5-0.1,1-0.2,1.5-0.3v0.9
	c-1.2,0.3-2.6,0.6-4.2,0.9l-0.2-1c0.6-0.1,1.3-0.1,1.9-0.2v-1.2h-1.6v-0.9L111.5,110.4L111.5,110.4z"/>
<path class="st0" d="M124.1,113.8c-0.2,0.2-0.5,0.5-0.9,0.7l-0.4-0.6c0.5-0.3,0.9-0.6,0.9-1H123v-1.4h1.4v1.1
	C124.4,113.2,124.3,113.6,124.1,113.8z"/>
<path class="st0" d="M132.3,108.5v-1.2h1v1.2h1.5v0.9h-1.5v1.3h0.7c0.6-0.6,1.1-1.4,1.7-2.4l0.8,0.4c-0.4,0.8-0.8,1.4-1.3,2h0.8v0.9
	h-1.6c-0.2,0.2-0.4,0.4-0.6,0.6s-0.4,0.4-0.7,0.5h2.4v5.2h-1v-0.7H132v0.7h-1v-4c-0.2,0.1-0.4,0.2-0.7,0.3l-0.5-0.8
	c1.3-0.5,2.3-1.1,3.2-1.8h-2.9v-0.9h2.2v-1.3h-1.8v-0.9C130.5,108.5,132.3,108.5,132.3,108.5z M134.6,114.5v-0.9h-2.5v0.9H134.6z
	 M134.6,116.4v-1.1h-2.5v1.1H134.6z M140.4,107.9v0.8c-0.4,1.2-0.7,2.3-1.1,3.4c0.5,0.7,0.9,1.2,1,1.6c0.2,0.4,0.3,0.8,0.3,1.2
	c0,0.7-0.1,1.2-0.4,1.6c-0.3,0.4-1,0.5-2.1,0.5l-0.3-1.1c0.3,0.1,0.7,0.1,1,0.1s0.5-0.1,0.6-0.3c0.1-0.1,0.1-0.4,0.1-0.8
	c0-0.2-0.1-0.5-0.2-0.9c-0.2-0.4-0.5-1-1.1-1.8c0.4-1.2,0.8-2.2,1-3.2h-1.6v9h-1v-10L140.4,107.9L140.4,107.9z"/>
<path class="st0" d="M143,108.1v2.1h1.3v-2.8h1v10.3h-1v-4.5h-0.8c0,1.1-0.1,1.8-0.2,2.2c-0.1,0.8-0.4,1.5-0.8,2.2l-0.9-0.7
	c0.3-0.5,0.6-1,0.7-1.6c0.1-0.5,0.1-1.2,0.2-2.2h-0.9v-0.9h2.7v-1.1H142V108L143,108.1L143,108.1z M148.6,107.7
	c-0.1,0.2-0.3,0.4-0.4,0.5h3.5v0.8c-0.5,0.9-1.2,1.6-2,2.2c-1.1,0.9-2.4,1.4-3.8,1.8l-0.4-0.9c0.5-0.1,0.9-0.2,1.4-0.3
	c-0.3-0.3-0.7-0.6-1-0.9l0.7-0.4c0.5,0.4,0.9,0.7,1.3,1c0.2-0.1,0.5-0.2,0.7-0.4c-0.4-0.3-0.9-0.6-1.4-1l0.6-0.6
	c0.6,0.3,1.1,0.7,1.6,1c0.4-0.4,0.9-0.8,1.2-1.3h-2.9c-0.4,0.5-0.9,0.9-1.4,1.2l-0.7-0.9c1-0.6,1.7-1.2,2.2-2L148.6,107.7z
	 M149.7,113.1v-1.2h1.1v1.2h1.1v1h-1.1v2.6c0,0.4-0.1,0.7-0.3,0.8c-0.2,0.2-0.5,0.3-0.9,0.3h-1.3l-0.2-1.1c0.5,0.1,0.9,0.1,1.2,0.1
	c0.3,0,0.4-0.1,0.4-0.3v-2.4h-4.2v-1H149.7z M148.3,116.1l-1,0.7c-0.3-0.6-0.7-1.2-1.2-1.9l0.9-0.5
	C147.6,115.1,148,115.7,148.3,116.1z"/>
<path class="st0" d="M163.2,110H160c0.1,1.6,0.3,2.9,0.6,3.9c0.5-0.8,1-1.8,1.5-3.1l1,0.4c-0.6,1.7-1.3,3-2,3.8
	c0.5,1,0.9,1.5,1.1,1.5c0.1,0,0.3-0.5,0.4-1.6l0.9,0.6c-0.3,1.1-0.5,1.7-0.7,2c-0.1,0.2-0.3,0.3-0.5,0.3c-0.5,0-1-0.3-1.5-0.8
	c-0.3-0.3-0.5-0.6-0.7-1c-0.7,0.7-1.6,1.3-2.7,1.8l-0.6-1c1.2-0.5,2.2-1.2,2.9-1.9c-0.2-0.4-0.3-0.8-0.4-1.2c-0.2-1-0.4-2.2-0.5-3.7
	H155v1.4h3.2c0,2.1-0.1,3.4-0.3,3.9c-0.2,0.6-0.6,1-1.1,1h-1.5l-0.2-1.1c0.8,0.1,1.3,0.1,1.7,0.1c0.1,0,0.2-0.2,0.2-0.5
	c0-0.4,0.1-1.2,0.1-2.4H155c0,0.8-0.1,1.7-0.2,2.5c-0.2,1.1-0.6,2.1-1,3.1l-0.9-0.8c0.4-0.8,0.7-1.7,0.9-2.6
	c0.1-0.9,0.2-1.8,0.2-2.6v-3h4.9c0-0.5,0-1,0-1.6h1.1c0,0.6,0,1.1,0,1.6h1.6c-0.3-0.3-0.7-0.6-1.1-0.9l0.7-0.7c0.5,0.3,1,0.7,1.4,1
	L162,109h1.3v1H163.2z"/>
<path class="st0" d="M174.7,108v1h-3.5c-0.2,0.5-0.5,1-0.8,1.4v7.5h-1.2v-6c-0.1,0.1-0.2,0.2-0.3,0.3c-1,1-2.2,2-3.7,2.8l-0.7-0.9
	c1.4-0.8,2.6-1.6,3.6-2.6c0.6-0.6,1.3-1.4,1.8-2.5h-5.2v-1C164.7,108,174.7,108,174.7,108z M174.7,114.1l-0.9,0.9
	c-0.7-0.9-1.6-1.9-2.8-3l0.8-0.8C173,112.2,173.9,113.1,174.7,114.1z"/>
<path class="st0" d="M177.8,109.5v-2.2h1v2.2h1.5v1h-1.5v0.6c0.6,0.6,1.1,1.3,1.7,2l-0.6,0.9c-0.4-0.7-0.8-1.3-1.1-1.7v5.5h-1v-5.3
	c-0.4,1-0.9,1.8-1.4,2.6l-0.4-1.2c0.8-1,1.4-2.1,1.9-3.4v-0.1h-1.8v-1L177.8,109.5L177.8,109.5z M186.4,108v1.1h-2.9
	c-0.3,0.9-0.8,1.7-1.4,2.7h4c-0.1,2.3-0.2,3.8-0.4,4.5c-0.1,0.5-0.3,0.9-0.7,1.2c-0.3,0.2-0.8,0.3-1.5,0.3c-1,0-1.6,0-1.9,0
	l-0.4-1.1c1,0.1,1.7,0.1,2.2,0.1s0.9-0.1,1-0.4c0.2-0.3,0.4-1.5,0.5-3.6h-4.2v-1.1c0.6-0.9,1.1-1.8,1.5-2.7H180v-1H186.4z"/>
</svg>
