<?xml version="1.0" encoding="utf-8"?>
<!-- Generator: Adobe Illustrator 27.0.0, SVG Export Plug-In . SVG Version: 6.00 Build 0)  -->
<svg version="1.1" id="圖層_1" xmlns="http://www.w3.org/2000/svg" xmlns:xlink="http://www.w3.org/1999/xlink" x="0px" y="0px"
	 viewBox="0 0 400 15" style="enable-background:new 0 0 400 15;" xml:space="preserve">
<style type="text/css">
	.st0{fill:#FFFFFF;}
</style>
<path class="st0" d="M150.4,13.6c3.9-2.3,7.7-6.8,8.9-10.4c0-0.1,0-0.1,0-0.1c0,0,0-0.1-0.2-0.1c-0.3,0-2.9,0.3-4.4,0.6
	c-0.4,0.1-0.5,0.1-0.7,0.3c-0.1,0.1-0.3,0.2-0.5,0.2c-0.6,0-1.5-0.9-1.5-1.6c0-0.5,0.3-0.7,0.4-0.7c0.1,0.9,1,0.9,1.7,0.9
	c0.5,0,3.6-0.2,4.8-0.4c0.3,0,0.3-0.1,0.5-0.2c0.2-0.2,0.3-0.3,0.5-0.3c0.3,0,1.5,0.9,1.5,1.2c0,0.2-0.2,0.3-0.5,0.4
	c-0.2,0.1-0.4,0.3-0.4,0.4c-0.5,1-1.7,3.1-2.7,4.3c1.5,0.7,3.3,1.9,4.2,2.7c0.7,0.7,1.3,1.4,1.3,2c0,0.5-0.3,0.9-0.8,0.9
	c-0.4,0-0.7-0.5-1.2-1.4c-0.6-1-2.3-2.9-3.8-3.9c-1.5,1.8-4.1,4.1-6.9,5.4L150.4,13.6L150.4,13.6z"/>
<path class="st0" d="M165.5,8.3c3-2.5,4.5-5.8,4.5-6.5c0-0.4-0.6-0.6-1-0.6c0.1-0.3,0.3-0.5,0.8-0.5c0.7,0,2.1,0.6,2.1,1.1
	c0,0.2-0.2,0.3-0.3,0.4c-0.1,0.1-0.3,0.2-0.4,0.6c-0.1,0.3-0.2,0.5-0.4,0.8c0.1,0,0.3,0,0.4,0c0.5,0,2.3-0.1,3.2-0.2
	c0.3,0,0.4-0.1,0.6-0.3c0.1-0.1,0.3-0.3,0.4-0.3c0.3,0,1.5,1,1.5,1.3c0,0.2-0.2,0.3-0.4,0.4c-0.2,0.1-0.4,0.2-0.5,0.4
	c-0.4,1-1.3,2.7-1.9,3.6c0.6,0.4,1.7,1.1,1.7,1.9c0,0.4-0.3,0.7-0.7,0.7c-0.4,0-0.7-0.4-0.9-0.7c-0.2-0.3-0.6-0.5-0.9-0.7
	c-1.4,1.8-4,3.8-7.2,4.9l-0.2-0.3c2.7-1.2,5.1-3.4,6.4-5.3c-0.8-0.5-1.9-1.1-3.4-1.6l0.1-0.3c1.5,0.2,3,0.6,3.8,1
	c1.3-2,1.9-3.8,1.9-3.9c0-0.1,0-0.1-0.1-0.1c-0.6,0-3.3,0.5-3.7,0.5c-0.2,0-0.5-0.1-0.7-0.2c-1.1,1.6-2.4,3.1-4.6,4.4L165.5,8.3
	L165.5,8.3z"/>
<path class="st0" d="M179.6,5.7c1.2,0.5,2.1,1.6,2.1,2.5c0,0.5-0.2,0.8-0.6,0.8c-0.4,0-0.6-0.2-0.6-0.6c-0.1-0.8-0.5-1.8-1.2-2.5
	L179.6,5.7L179.6,5.7z M181.5,14.3c5.3-2.6,6.5-7.7,6.5-8.2c0-0.4-0.5-0.6-0.9-0.6c0-0.1,0.3-0.4,0.7-0.4c0.7,0,1.7,0.8,1.7,1.2
	c0,0.2-0.1,0.3-0.3,0.4c-0.1,0-0.1,0.1-0.2,0.3c-1.1,3.4-3.4,6.2-7.4,7.8L181.5,14.3L181.5,14.3z M183.2,4.9
	c1.2,0.8,1.8,1.8,1.8,2.6c0,0.7-0.3,1-0.6,1c-0.4,0-0.6-0.2-0.6-0.7c0-0.8-0.1-1.8-0.9-2.8L183.2,4.9L183.2,4.9z"/>
<path class="st0" d="M193.4,14c5.5-2.1,7.8-6.8,8.7-10.6c0,0,0-0.1,0-0.1c0-0.1-0.1-0.1-0.2-0.1c-0.2,0-6.4,0.4-7.5,0.8
	c-0.4,0.1-0.4,0.2-0.8,0.2c-0.6,0-1.5-1-1.5-1.7c0-0.3,0.2-0.6,0.4-0.7l0,0c0.1,0.3,0.3,0.7,0.6,0.8c0.3,0.1,0.7,0.2,1.1,0.2
	c1.4,0,6.3-0.2,7.3-0.3c0.5-0.1,0.7-0.6,1-0.6c0.4,0,1.7,1,1.7,1.3c0,0.2-0.2,0.3-0.4,0.4c-0.2,0.1-0.3,0.2-0.4,0.4
	c-1.3,4.3-3.7,8.5-9.9,10.3L193.4,14L193.4,14z"/>
<path class="st0" d="M214.4,6.5c0.9-0.1,1.9-0.1,2.5-0.2c0.7-0.1,1-0.1,1.5-0.5c0.8,0.1,1.9,0.6,1.9,1c0,0.4-0.3,0.4-0.8,0.4
	c-0.4,0-1.2-0.1-1.8-0.1c-0.4,0-0.8-0.1-1.3-0.1c-0.6,0-1.3,0-2.1,0.1c-0.4,3.3-1.5,5.8-5.5,7.4l-0.2-0.3c3-1.7,4.2-4.1,4.4-7
	c-0.7,0.1-3.6,0.3-4.3,0.6c-0.3,0.1-0.5,0.3-0.7,0.3c-0.7,0-1.6-0.8-1.6-1.4c0-0.3,0.1-0.6,0.3-0.7l0.1,0c0.1,0.8,0.8,0.8,1.8,0.8
	c0.5,0,2.6-0.2,4.4-0.3c0.1-0.5,0.1-1,0.1-1.5c0-1.1,0-1.4-0.2-1.6c-1.7,0.3-3.8,0.6-5.6,0.7l-0.1-0.3c2.9-0.5,6-1.3,7.5-1.9
	c0.6-0.2,0.7-0.3,0.7-0.5c0-0.2-0.3-0.3-0.7-0.4l0,0c0-0.1,0.3-0.3,0.6-0.3c0.8,0,2.1,0.9,2.1,1.5c0,0.3-0.5,0.2-0.9,0.3
	c-0.7,0.2-1.6,0.4-2.5,0.6c0.3,0.2,0.5,0.4,0.5,0.6c0,0.1-0.1,0.3-0.1,0.3c-0.1,0.1-0.1,0.3-0.1,0.6L214.4,6.5L214.4,6.5z"/>
<path class="st0" d="M232,7c1.1,0,1.7-0.1,1.9-0.1c0.8,0,1.9,0.3,1.9,0.7c0,0.3-0.4,0.5-1,0.5c-0.6,0-3.4-0.1-4.1-0.1
	c-1.8,0-5.7,0-6.5,0.3c-0.2,0.1-0.4,0.2-0.7,0.2c-0.7,0-1.8-1.1-1.8-1.7c0-0.4,0.1-0.7,0.3-0.9l0.1,0c0.2,0.9,0.9,1,2.5,1L232,7
	L232,7z"/>
<path class="st0" d="M245.7,7.8c2.6,1.3,4.8,3.8,4.8,5.1c0,0.7-0.2,1.1-0.8,1.1c-0.5,0-0.7-0.5-0.9-1.2c-0.1-0.2-0.1-0.5-0.2-0.7
	c-2.5,0.4-6.4,1-8.4,1.3c-0.5,0.1-0.7,0.4-1.2,0.4c-0.6,0-1.5-1.1-1.5-1.7c0-0.3,0.1-0.7,0.4-0.8c0.1,0.4,0.2,0.6,0.6,0.8
	c0.1,0.1,0.3,0.1,0.5,0.1c0.2,0,0.4,0,0.7,0c1.3-3.4,2.8-8.9,2.8-9.7s-1-0.8-1.2-0.8l0-0.1c0.1-0.3,0.6-0.6,1-0.6
	c0.8,0,2.1,0.6,2.1,1.3c0,0.2-0.2,0.3-0.4,0.4c-0.1,0.1-0.2,0.3-0.3,0.5c-0.9,2.7-2.1,6-3.5,8.8c1.5-0.1,5.6-0.4,8-0.6
	c-0.6-1.2-1.7-2.7-2.8-3.6L245.7,7.8L245.7,7.8z"/>
</svg>
