<?xml version="1.0" encoding="utf-8"?>
<!-- Generator: Adobe Illustrator 27.0.0, SVG Export Plug-In . SVG Version: 6.00 Build 0)  -->
<svg version="1.1" id="圖層_1" xmlns="http://www.w3.org/2000/svg" xmlns:xlink="http://www.w3.org/1999/xlink" x="0px" y="0px"
	 viewBox="0 0 120 92" style="enable-background:new 0 0 120 92;" xml:space="preserve">
<style type="text/css">
	.st0{fill:#3E3A39;}
	.st1{fill:#C79F62;}
</style>
<g>
	<g>
		<g>
			<path class="st0" d="M2.7,48.2v-0.4h0.5v0.4h1.2v0.8h0.3v0.4H4.4v0.8H3.2v0.4h1.3V51H3.2v0.4h1.5v0.4H3.2v0.5c0.1,0,0.1,0,0.2,0
				c0.6,0,1.1,0,1.4,0l-0.1,0.6c-1.6,0-2.6,0-3-0.1c-0.3-0.1-0.6-0.2-0.8-0.4c0,0,0,0-0.1-0.1c-0.2,0.2-0.4,0.5-0.7,0.7L0,52.5
				c0.3-0.2,0.5-0.4,0.6-0.6c-0.2-0.3-0.3-0.7-0.5-1.1l0.4-0.2c0.1,0.3,0.2,0.6,0.3,0.8c0,0,0-0.1,0-0.1C1,51,1,50.7,1,50.2H0.2
				v-0.3C0.5,49.5,0.8,49,1,48.5H0.1v-0.4h1.5v0.5c-0.3,0.5-0.6,0.9-0.8,1.2h0.8c0,0.6-0.1,1.1-0.2,1.5c-0.1,0.2-0.1,0.3-0.2,0.5
				c0.1,0.2,0.3,0.3,0.5,0.3c0.2,0.1,0.5,0.1,1,0.1v-0.5H1.5v-0.4h1.2V51h-1v-0.4h1v-0.4h-1v-0.4h1v-0.4H1.5v-0.4h1.2v-0.4h-1v-0.4
				H2.7z M3.2,49.1H4v-0.4H3.2V49.1z M3.2,49.9H4v-0.4H3.2V49.9z"/>
			<path class="st0" d="M6.5,47.9c0,0.1-0.1,0.2-0.1,0.3h1.3v0.4c0.2-0.3,0.4-0.5,0.5-0.8l0.5,0.1c0,0.1-0.1,0.2-0.1,0.3H10v0.5H9.2
				c0.1,0.1,0.1,0.3,0.1,0.4l-0.5,0c0-0.2-0.1-0.3-0.1-0.5H8.2C8.1,48.9,8,49,7.8,49.2l-0.4-0.3c0.1-0.1,0.1-0.1,0.2-0.2H6.9
				C7,48.8,7,49,7.1,49.1l-0.5,0c0-0.2-0.1-0.3-0.1-0.4H6c-0.1,0.2-0.3,0.4-0.4,0.5l-0.4-0.3c0.4-0.3,0.7-0.7,0.8-1.1L6.5,47.9z
				 M7.4,51.1v-0.3l-0.2-0.2c0.2-0.1,0.4-0.2,0.6-0.3c-0.1-0.1-0.3-0.1-0.4-0.2l0.2-0.4C7.7,49.9,7.9,50,8,50c0-0.1,0-0.1,0-0.2
				v-0.2H7.5v-0.4h1.9v1.1c0,0.1,0,0.2,0.1,0.2h0c0,0,0.1,0,0.1-0.1c0,0,0-0.2,0.1-0.5l0.4,0.1c0,0.4-0.1,0.6-0.2,0.7
				c-0.1,0.1-0.2,0.1-0.3,0.1H9.3c-0.1,0-0.2,0-0.3-0.1c-0.1-0.1-0.1-0.2-0.1-0.3v-0.8H8.4v0.2c0,0.1,0,0.2,0,0.3
				c0.2,0.1,0.3,0.2,0.5,0.3l-0.2,0.4c-0.2-0.1-0.3-0.2-0.5-0.3c-0.1,0.1-0.2,0.2-0.4,0.3h0.1v0.3H10v0.5H8.4
				c0.2,0.2,0.4,0.3,0.5,0.4c0.2,0.1,0.6,0.3,1.1,0.4l-0.2,0.5c-0.6-0.2-1-0.4-1.2-0.6c-0.2-0.1-0.4-0.3-0.6-0.6V53H7.4v-1.4h0
				c-0.2,0.2-0.3,0.4-0.5,0.5c-0.3,0.2-0.8,0.5-1.4,0.7l-0.3-0.5c0.6-0.2,1.1-0.4,1.3-0.5c0.1-0.1,0.2-0.2,0.4-0.3H5.2v-0.5H7.4z
				 M7.3,49.3v0.5H6.6v0.5c0.2,0,0.5-0.1,0.7-0.2v0.4c-0.5,0.1-1.2,0.3-1.9,0.4l-0.1-0.5c0.3,0,0.6-0.1,0.9-0.1v-0.6H5.4v-0.5H7.3z"
				/>
			<path class="st0" d="M11.1,48.3c0,0.2,0,0.5-0.1,0.7h0.3v-1.2h0.5V49h0.5v0.4c0.1-0.2,0.2-0.4,0.3-0.6c0.1-0.3,0.2-0.6,0.3-1
				l0.5,0.1c0,0.3-0.1,0.5-0.1,0.7h1.9c0,2,0,3.2-0.1,3.6c0,0.3-0.1,0.5-0.2,0.6c-0.1,0.1-0.4,0.2-0.7,0.2c-0.1,0-0.3,0-0.4,0
				l-0.1-0.6c0.2,0,0.3,0,0.5,0c0.3,0,0.4-0.1,0.5-0.4c0.1-0.3,0.1-1.3,0.1-3h-0.1c-0.1,0.9-0.3,1.7-0.5,2.2
				c-0.3,0.6-0.7,1.1-1.2,1.6l-0.3-0.4c0.5-0.4,0.8-0.9,1.1-1.4c0.2-0.5,0.4-1.1,0.5-1.9h-0.2c-0.1,0.5-0.3,0.9-0.4,1.2
				c-0.2,0.4-0.5,0.9-0.9,1.3l-0.3-0.4c0.3-0.4,0.6-0.7,0.8-1.1c0.1-0.3,0.3-0.6,0.4-1.1h-0.3c0,0,0,0,0,0c-0.1,0.3-0.3,0.7-0.6,1.1
				l-0.3-0.5c0-0.1,0.1-0.1,0.1-0.2h-0.4v1.1c0.2-0.1,0.3-0.1,0.5-0.2v0.5c-0.2,0.1-0.3,0.1-0.5,0.2V53h-0.5v-1.7
				c-0.3,0.1-0.5,0.2-0.8,0.3L10.5,51c0.3-0.1,0.6-0.1,0.9-0.2v-1.3H11c0,0.3-0.1,0.6-0.2,0.8l-0.5-0.2c0.2-0.6,0.3-1.2,0.3-1.9
				L11.1,48.3z"/>
			<path class="st0" d="M17.4,48.3c-0.2,0.6-0.4,1-0.5,1.2c-0.1,0.3-0.4,0.6-0.7,1l-0.4-0.4c0.3-0.3,0.5-0.6,0.7-0.9
				c0.2-0.3,0.3-0.7,0.4-1.1L17.4,48.3z M18.1,49.8c-0.3,0.9-0.7,1.7-1,2.3c0.8,0,1.4-0.1,2.1-0.1c-0.2-0.4-0.3-0.8-0.5-1.1l0.5-0.2
				c0.4,0.6,0.7,1.4,1,2.2L19.6,53c-0.1-0.2-0.1-0.4-0.2-0.6c-0.7,0.1-1.8,0.2-3.3,0.3l-0.1-0.6c0.2,0,0.4,0,0.6,0
				c0.3-0.6,0.7-1.4,1.1-2.5L18.1,49.8z M19.3,48c0.2,0.7,0.6,1.3,1.2,1.9l-0.3,0.5c-0.3-0.3-0.5-0.6-0.7-0.9
				c-0.2-0.3-0.4-0.7-0.5-1.1h-1.1V48H19.3z"/>
			<path class="st0" d="M22.1,49v-1.1h0.5V49h1.3v-1.1h0.5V49h1v0.5h-1v1.2h1.2v0.5h-4.8v-0.5h1.2v-1.2h-0.9V49H22.1z M22.8,51.7
				c-0.4,0.5-0.9,0.9-1.5,1.3l-0.4-0.5c0.6-0.3,1.1-0.7,1.5-1.2L22.8,51.7z M23.9,50.7v-1.2h-1.3v1.2H23.9z M25.6,52.5L25.2,53
				c-0.3-0.4-0.8-0.8-1.5-1.3l0.4-0.4C24.7,51.7,25.2,52.1,25.6,52.5z"/>
			<path class="st0" d="M30.6,48.3v0.5h-1.9v3.3h2.1v0.5h-4.7v-0.5h2.1v-3.3h-1.9v-0.5H30.6z"/>
			<path class="st0" d="M33.2,48.4c-0.2,0.1-0.4,0.1-0.6,0.2v0.8h0.7v0.5h-0.7v0.3c0.2,0.3,0.5,0.5,0.7,0.8L33,51.4
				c-0.2-0.3-0.3-0.5-0.4-0.7V53h-0.4v-2.3c0,0,0,0.1,0,0.1c-0.2,0.4-0.4,0.8-0.6,1.2l-0.2-0.5c0.3-0.4,0.6-0.9,0.8-1.5h-0.7v-0.5
				h0.8v-0.7c-0.2,0-0.4,0.1-0.6,0.1l-0.1-0.5c0.6-0.1,1.1-0.2,1.6-0.3L33.2,48.4z M35.9,50.4c-0.3,0.1-0.7,0.2-1.1,0.2v0.6h1.1v0.4
				h-1.1v0.7h1.3v0.5H33v-0.5h1.4v-0.7h-1.1v-0.4h1.1v-0.6c-0.3,0-0.6,0-1,0l-0.1-0.5c1,0,1.8-0.1,2.5-0.3L35.9,50.4z M35.8,48.1
				v1.6h-2.5v-1.6H35.8z M35.3,48.5h-1.5v0.8h1.5V48.5z"/>
			<path class="st0" d="M39.1,49.2c-0.1,0.3-0.3,0.5-0.4,0.7h2.6v0.5h-0.8c-0.2,0.6-0.5,1.1-0.8,1.4c0.5,0.2,0.9,0.5,1.4,0.7
				L40.8,53c-0.5-0.3-1-0.6-1.5-0.8c-0.5,0.3-1.3,0.6-2.5,0.8l-0.2-0.5c0.9-0.1,1.6-0.3,2.1-0.5c-0.5-0.2-1-0.4-1.6-0.6
				c0.2-0.3,0.4-0.6,0.7-1h-1.3v-0.5h1.6c0.2-0.3,0.3-0.6,0.5-0.9L39.1,49.2z M39.2,48.4h2v1.3h-0.5v-0.8h-3.5v0.8h-0.5v-1.3h2
				c-0.1-0.1-0.1-0.3-0.2-0.4l0.5-0.1C39,48,39.1,48.2,39.2,48.4z M38.4,50.4c-0.2,0.3-0.3,0.5-0.5,0.7c0.4,0.1,0.8,0.3,1.3,0.5
				c0.3-0.3,0.5-0.7,0.7-1.2H38.4z"/>
			<path class="st0" d="M42.6,48.4v-0.4h1.8c0.3,0.6,1.1,1.1,2.1,1.6l-0.3,0.5c-0.2-0.1-0.3-0.1-0.4-0.2v0.3h-1.4V51h1.4v0.5h-1.4v1
				h2v0.5h-4.5v-0.5h2v-1h-1.3V51h1.3v-0.9h-1.4v-0.3c-0.1,0.1-0.3,0.1-0.4,0.2l-0.3-0.5c0.5-0.2,1-0.4,1.3-0.7
				c0.2-0.1,0.4-0.3,0.6-0.5H42.6z M45.6,49.7c-0.2-0.1-0.4-0.3-0.6-0.4c-0.4-0.3-0.7-0.6-0.9-0.9c-0.2,0.3-0.3,0.5-0.5,0.7
				c-0.2,0.2-0.5,0.5-0.9,0.7H45.6z"/>
			<path class="st0" d="M47.6,48.9v-1.1H48v1.1h0.5V49c0.3-0.2,0.6-0.3,0.7-0.5c0.2-0.2,0.3-0.4,0.5-0.6h0.4
				c0.2,0.3,0.4,0.5,0.7,0.7c0.2,0.1,0.4,0.3,0.8,0.5l-0.3,0.4c-0.2-0.1-0.4-0.2-0.6-0.3c0,0,0,0,0,0v0.3h-1.7v-0.3
				c-0.1,0.1-0.3,0.2-0.5,0.3l-0.1-0.3v0.1H48v0.4c0.2,0.2,0.4,0.5,0.6,0.8l-0.3,0.4c-0.1-0.2-0.2-0.4-0.3-0.6V53h-0.4v-2.5
				c-0.1,0.4-0.3,0.8-0.5,1.1L46.9,51c0.3-0.5,0.5-1,0.7-1.6v0H47v-0.5H47.6z M49.9,49.8v1.5h-0.7l0.3,0.1c0,0.1-0.1,0.3-0.1,0.4
				c0.2,0.2,0.5,0.4,0.6,0.6l-0.3,0.3c-0.1-0.2-0.3-0.4-0.5-0.5c0,0,0,0.1,0,0.1c-0.1,0.2-0.2,0.4-0.5,0.7l-0.3-0.3
				c0.2-0.2,0.3-0.4,0.5-0.6c0.1-0.2,0.2-0.4,0.3-0.7h-0.4v-1.5H49.9z M49.5,50.2H49v0.7h0.4V50.2z M50.7,49
				c-0.2-0.2-0.5-0.4-0.7-0.7c-0.2,0.3-0.4,0.5-0.6,0.6c0,0,0,0-0.1,0.1H50.7z M51.4,49.8v1.5h-0.7l0.3,0.1
				c-0.1,0.2-0.1,0.4-0.2,0.5c0.3,0.2,0.6,0.5,0.8,0.7L51.3,53c-0.2-0.2-0.4-0.4-0.7-0.7c-0.1,0.2-0.2,0.4-0.5,0.7l-0.3-0.3
				c0.2-0.2,0.3-0.4,0.5-0.6c0.1-0.2,0.2-0.4,0.3-0.7h-0.4v-1.5H51.4z M51,50.3h-0.5v0.6H51V50.3z"/>
			<path class="st0" d="M54.3,48.3v-0.4h0.5v0.4h1.9v0.5h-1.4c0.2,0.2,0.4,0.3,0.6,0.4c0.3,0.2,0.7,0.3,1.2,0.5l-0.3,0.5
				c-0.2-0.1-0.3-0.1-0.4-0.2v2h-3.3V50c-0.1,0.1-0.3,0.2-0.4,0.2l-0.3-0.5c0.5-0.2,0.8-0.4,1.1-0.6c0.2-0.1,0.3-0.3,0.5-0.4h-1.4
				v-0.5H54.3z M56.8,52.3v0.5h-4.6v-0.5H56.8z M56.1,49.9c-0.3-0.2-0.5-0.3-0.7-0.5c-0.2-0.2-0.4-0.4-0.6-0.6v0.9h-0.5v-0.9
				c-0.1,0.2-0.3,0.4-0.4,0.5c-0.2,0.2-0.4,0.4-0.7,0.6H56.1z M55.7,50.7v-0.4h-2.4v0.4H55.7z M55.7,51.1h-2.4v0.4h2.4V51.1z"/>
			<path class="st0" d="M59.5,48.2v-0.3h0.5v0.3h2.1v0.4h-2.1v0.3h1.7v1.7h-0.2c0.2,0.3,0.4,0.5,0.5,0.7l-0.4,0.3
				c-0.1-0.1-0.1-0.2-0.2-0.3c-0.1,0-0.3,0-0.4,0v0.4h1.1V52H61v0.5c0,0.2,0,0.3-0.1,0.4c-0.1,0.1-0.2,0.1-0.4,0.1h-0.5l-0.1-0.5
				c0.2,0,0.4,0,0.5,0c0.1,0,0.2,0,0.2-0.1V52h-3.1v-0.4h3.1v-0.3c-0.9,0.1-1.8,0.1-2.9,0.2L57.6,51c0.7,0,1.3,0,1.9-0.1v-0.3h-1.7
				v-1.7h1.7v-0.3h-2.1v-0.4H59.5z M59.5,49.5v-0.3h-1.2v0.3H59.5z M59.5,49.9h-1.2v0.3h1.2V49.9z M59.5,52.5l-0.3,0.4
				c-0.2-0.2-0.5-0.3-0.9-0.5l0.3-0.3C59,52.2,59.3,52.4,59.5,52.5z M59.9,49.5h1.3v-0.3h-1.3V49.5z M61.2,49.9h-1.3v0.3h1.3V49.9z
				 M59.9,50.9c0.4,0,0.8,0,1.2-0.1c0-0.1-0.1-0.1-0.1-0.2l0.2-0.1h-1.3V50.9z"/>
			<path class="st0" d="M64.7,47.9v0.9h0.5v-0.9h0.5v0.9H66c0.1-0.2,0.2-0.5,0.3-0.8l0.5,0.2c-0.1,0.2-0.2,0.4-0.3,0.6h0.8v0.5h-1.4
				l0.4,0.1c-0.1,0.1-0.2,0.3-0.2,0.4h1.1v0.4h-1.9v0.3H67v0.4h-1.8v0.3h2.1v0.4h-1.7c0.2,0.2,0.4,0.4,0.6,0.5
				c0.2,0.1,0.6,0.2,1,0.4L67,52.9c-0.5-0.2-0.9-0.3-1.2-0.5c-0.2-0.2-0.5-0.4-0.7-0.7V53h-0.5v-1.3c-0.1,0.2-0.3,0.4-0.5,0.5
				c-0.3,0.2-0.7,0.5-1.3,0.7l-0.2-0.4c0.6-0.2,1-0.4,1.3-0.6c0.1-0.1,0.2-0.2,0.4-0.3h-1.7v-0.4h2.1v-0.3h-1.8v-0.4h1.8v-0.3h-1.9
				v-0.4h1.2c-0.1-0.1-0.1-0.2-0.2-0.4l0.3-0.1h-1.5v-0.5h0.7c-0.1-0.2-0.1-0.4-0.2-0.6l0.5-0.2c0.1,0.2,0.2,0.5,0.3,0.8h0.4v-0.9
				H64.7z M65.4,49.7c0.1-0.1,0.2-0.3,0.3-0.5h-1.5c0.1,0.1,0.1,0.3,0.2,0.5H65.4z"/>
			<path class="st0" d="M68.4,48.9v-1.1h0.4v1.1h0.5V49c0.3-0.2,0.6-0.3,0.7-0.5c0.2-0.2,0.3-0.4,0.5-0.6H71
				c0.2,0.3,0.4,0.5,0.7,0.7c0.2,0.1,0.4,0.3,0.8,0.5l-0.3,0.4c-0.2-0.1-0.4-0.2-0.6-0.3c0,0,0,0,0,0v0.3H70v-0.3
				c-0.1,0.1-0.3,0.2-0.5,0.3l-0.1-0.3v0.1h-0.5v0.4c0.2,0.2,0.4,0.5,0.6,0.8l-0.3,0.4c-0.1-0.2-0.2-0.4-0.3-0.6V53h-0.4v-2.5
				c-0.1,0.4-0.3,0.8-0.5,1.1L67.7,51c0.3-0.5,0.5-1,0.7-1.6v0h-0.6v-0.5H68.4z M70.7,49.8v1.5H70l0.3,0.1c0,0.1-0.1,0.3-0.1,0.4
				c0.2,0.2,0.5,0.4,0.6,0.6l-0.3,0.3c-0.1-0.2-0.3-0.4-0.5-0.5c0,0,0,0.1,0,0.1c-0.1,0.2-0.2,0.4-0.5,0.7l-0.3-0.3
				c0.2-0.2,0.3-0.4,0.5-0.6c0.1-0.2,0.2-0.4,0.3-0.7h-0.4v-1.5H70.7z M70.3,50.2h-0.4v0.7h0.4V50.2z M71.5,49
				c-0.2-0.2-0.5-0.4-0.7-0.7c-0.2,0.3-0.4,0.5-0.6,0.6c0,0,0,0-0.1,0.1H71.5z M72.3,49.8v1.5h-0.7l0.3,0.1
				c-0.1,0.2-0.1,0.4-0.2,0.5c0.3,0.2,0.6,0.5,0.8,0.7L72.2,53c-0.2-0.2-0.4-0.4-0.7-0.7c-0.1,0.2-0.2,0.4-0.5,0.7l-0.3-0.3
				c0.2-0.2,0.3-0.4,0.5-0.6c0.1-0.2,0.2-0.4,0.3-0.7H71v-1.5H72.3z M71.9,50.3h-0.5v0.6h0.5V50.3z"/>
			<path class="st0" d="M75,48.3v-0.4h0.5v0.4h1.9v0.5H76c0.2,0.2,0.4,0.3,0.6,0.4c0.3,0.2,0.7,0.3,1.2,0.5l-0.3,0.5
				c-0.2-0.1-0.3-0.1-0.4-0.2v2h-3.3V50c-0.1,0.1-0.3,0.2-0.4,0.2l-0.3-0.5c0.5-0.2,0.8-0.4,1.1-0.6c0.2-0.1,0.3-0.3,0.5-0.4h-1.4
				v-0.5H75z M77.6,52.3v0.5H73v-0.5H77.6z M76.8,49.9c-0.3-0.2-0.5-0.3-0.7-0.5c-0.2-0.2-0.4-0.4-0.6-0.6v0.9H75v-0.9
				c-0.1,0.2-0.3,0.4-0.4,0.5c-0.2,0.2-0.4,0.4-0.7,0.6H76.8z M76.4,50.7v-0.4h-2.4v0.4H76.4z M76.4,51.1h-2.4v0.4h2.4V51.1z"/>
			<path class="st0" d="M80.4,47.8v1.3c0.2,0.8,0.4,1.5,0.8,2c0.3,0.4,0.7,0.9,1.4,1.3L82.2,53c-0.5-0.4-0.9-0.7-1.2-1.1
				c-0.3-0.4-0.6-0.9-0.8-1.6c-0.2,0.6-0.4,1.1-0.7,1.5c-0.3,0.4-0.8,0.8-1.4,1.1l-0.3-0.5c0.8-0.5,1.3-1.1,1.6-1.7
				c0.3-0.6,0.5-1.1,0.5-1.7v-1.3H80.4z"/>
			<path class="st0" d="M2.2,56.6c-0.3,0.7-0.7,1.2-1,1.7c0.1,0,0.2,0,0.3,0c0.8,0,1.6-0.1,2.3-0.2c-0.2-0.3-0.4-0.6-0.6-0.9
				l0.4-0.4C4,57.4,4.4,58,4.7,58.6L4.3,59c-0.1-0.2-0.2-0.3-0.3-0.5c-1,0.2-2.3,0.3-3.8,0.3l-0.1-0.6c0.2,0,0.3,0,0.5,0
				c0.3-0.4,0.7-1.1,1-1.8L2.2,56.6z M4.3,61.6H3.8v-0.3H1.1v0.3H0.5v-2.4h3.8V61.6z M3.8,60.7v-1.1H1.1v1.1H3.8z"/>
			<path class="st0" d="M6.2,58.4l-0.3,0.5c-0.2-0.2-0.5-0.4-0.7-0.6l0.2-0.4C5.7,58,6,58.2,6.2,58.4z M6.2,59.3
				c-0.2,0.9-0.4,1.6-0.6,2.2l-0.4-0.4c0.2-0.5,0.4-1.2,0.5-2.1L6.2,59.3z M6.3,57L6,57.5c-0.2-0.2-0.4-0.4-0.6-0.5l0.2-0.4
				C5.9,56.7,6.1,56.8,6.3,57z M6.6,58.5c-0.1,0.2-0.1,0.4-0.2,0.6l-0.3-0.1c0.1-0.2,0.1-0.4,0.2-0.6L6.6,58.5z M7,56.5
				c-0.1,0.3-0.2,0.5-0.3,0.7c0.1,0,0.2,0,0.2,0C7,57.1,7.1,57,7.2,56.8l0.2,0.1v-0.2h0.5c-0.1-0.1-0.1-0.2-0.2-0.3l0.4,0
				c0.1,0.1,0.1,0.2,0.2,0.3h0.5v0.3H7.4V57c-0.2,0.4-0.4,0.7-0.5,1c0.1,0,0.2,0,0.3,0c0-0.1,0-0.1,0-0.2l0.2-0.1
				c0.1,0.2,0.1,0.4,0.1,0.7l-0.3,0.1c0-0.1,0-0.1,0-0.2c-0.2,0.1-0.5,0.1-0.9,0.2l0-0.3c0.1,0,0.2,0,0.2,0c0.1-0.1,0.2-0.3,0.3-0.5
				c-0.1,0-0.3,0-0.5,0l0-0.4h0.2c0.1-0.2,0.2-0.5,0.3-0.9L7,56.5z M9.7,59.3v0.9H7l-0.1,0.2h3c0,0.5-0.1,0.7-0.2,0.9
				c-0.1,0.1-0.3,0.2-0.7,0.2H8.1L8,61.1c0.4,0,0.8,0,1,0c0.1,0,0.2,0,0.3-0.1c0.1,0,0.1-0.1,0.1-0.3h-3l0.2-0.9h2.7v-0.2H6.4v-0.4
				H9.7z M7,59.1l-0.3,0c0-0.3,0-0.5-0.1-0.6l0.2,0C7,58.6,7,58.8,7,59.1z M7.5,59l-0.2,0.1c0-0.2-0.1-0.4-0.1-0.6l0.2-0.1
				C7.4,58.6,7.4,58.8,7.5,59z M8.6,57.3v0.3H7.5v-0.3H8.6z M8.6,57.7V58H7.5v-0.3H8.6z M8.6,58.2v0.9H7.5v-0.9H8.6z M8.3,58.5H7.8
				v0.3h0.4V58.5z M9.1,58.6C9,58.8,9,59,8.9,59.2l-0.3-0.1c0.1-0.2,0.1-0.4,0.1-0.6L9.1,58.6z M9.5,56.5c-0.1,0.3-0.2,0.5-0.3,0.7
				c0.1,0,0.2,0,0.2,0c0.1-0.1,0.1-0.2,0.2-0.3L9.9,57c-0.2,0.4-0.5,0.7-0.7,1c0.1,0,0.2,0,0.4,0c0-0.1,0-0.2-0.1-0.3l0.3-0.1
				c0.1,0.2,0.1,0.5,0.2,0.7l-0.3,0.1c0-0.1,0-0.1,0-0.2c-0.2,0-0.6,0.1-1,0.1l0-0.3c0.1,0,0.2,0,0.2,0c0.1-0.1,0.2-0.3,0.4-0.5
				c-0.2,0-0.3,0-0.5,0.1l0-0.3h0.2c0.1-0.2,0.2-0.5,0.3-0.9L9.5,56.5z M9.5,59.1l-0.3,0c0-0.3,0-0.5,0-0.6l0.3,0
				C9.5,58.6,9.5,58.8,9.5,59.1z M10,59l-0.3,0.1c0-0.2-0.1-0.4-0.1-0.6l0.3-0.1C9.9,58.6,10,58.8,10,59z"/>
			<path class="st0" d="M14.9,56.6V57h-1.8v0.2h2.1v1.2h-0.5v-0.8h-1.6v1.1h-0.5v-1.1H11v0.9h-0.5v-1.3h2.1V57h-1.8v-0.4H14.9z
				 M14.8,58.9v1.7l0.4,0.1c-0.1,0.4-0.1,0.6-0.3,0.7c-0.1,0.1-0.3,0.1-0.6,0.1H13c-0.1,0-0.3,0-0.3-0.1c-0.1-0.1-0.1-0.2-0.1-0.3
				v-0.4h-1.7v-1.8H14.8z M12.4,57.9v0.3h-1.2v-0.3H12.4z M12.4,58.4v0.3h-1.2v-0.3H12.4z M12.5,59.6v-0.3h-1.2v0.3H12.5z M12.5,60
				h-1.2v0.4h1.2V60z M13,59.6h1.4v-0.3H13V59.6z M14.4,60H13v0.4h1.4V60z M13,61c0,0.1,0.1,0.2,0.2,0.2h1.1c0.1,0,0.3,0,0.3,0
				c0.1,0,0.1-0.1,0.1-0.3H13V61z M14.5,57.8v0.3h-1.3v-0.3H14.5z M14.5,58.4v0.3h-1.3v-0.3H14.5z"/>
			<path class="st0" d="M17.7,57.5v-1.1h0.5v1.1h2c0,1.9-0.1,3.1-0.2,3.4c-0.1,0.3-0.4,0.5-0.8,0.5c-0.4,0-0.6,0-0.8,0l-0.1-0.6
				c0.3,0,0.6,0.1,0.9,0.1c0.2,0,0.3-0.2,0.4-0.5c0.1-0.2,0.1-1,0.1-2.3h-1.5c-0.1,0.9-0.2,1.5-0.5,2.1c-0.3,0.6-0.9,1-1.6,1.4
				L15.8,61c0.7-0.3,1.2-0.8,1.5-1.3c0.2-0.4,0.3-1,0.4-1.7h-1.8v-0.5H17.7z"/>
			<path class="st0" d="M22.6,56.9c-0.2,0.6-0.4,1-0.5,1.2c-0.1,0.3-0.4,0.6-0.7,1L21,58.7c0.3-0.3,0.5-0.6,0.7-0.9
				c0.2-0.3,0.3-0.7,0.4-1.1L22.6,56.9z M23.3,58.4c-0.3,0.9-0.7,1.7-1,2.3c0.8,0,1.4-0.1,2.1-0.1c-0.2-0.4-0.3-0.8-0.5-1.1l0.5-0.2
				c0.4,0.6,0.7,1.4,1,2.2l-0.6,0.2c-0.1-0.2-0.1-0.4-0.2-0.6c-0.7,0.1-1.8,0.2-3.3,0.3l-0.1-0.6c0.2,0,0.4,0,0.6,0
				c0.3-0.6,0.7-1.4,1.1-2.5L23.3,58.4z M24.5,56.5c0.2,0.7,0.6,1.3,1.2,1.9L25.3,59c-0.3-0.3-0.5-0.6-0.7-0.9
				c-0.2-0.3-0.4-0.7-0.5-1.1H23v-0.5H24.5z"/>
			<path class="st0" d="M30.6,56.7v4.3c0,0.2-0.1,0.4-0.2,0.5c-0.1,0.1-0.3,0.1-0.5,0.1h-0.7L29.1,61l0.7,0c0.1,0,0.2-0.1,0.2-0.2
				v-3.6h-3.8v-0.5H30.6z M29.2,57.7v0.5h-2.9v-0.5H29.2z M29,58.7v1.9h-2.6v-1.9H29z M28.5,59.1h-1.6v1h1.6V59.1z"/>
			<path class="st0" d="M34.3,57H35v0.5h-2V57h0.8c-0.1-0.2-0.2-0.4-0.2-0.6l0.5-0.1C34.1,56.6,34.2,56.8,34.3,57z M34.8,61.1h-1.1
				v0.4h-0.5v-2h1.6V61.1z M34.8,57.9v0.4h-1.6v-0.4H34.8z M34.8,58.7v0.4h-1.6v-0.4H34.8z M34.3,60.7V60h-0.7v0.7H34.3z M37.1,57.9
				c0,0.1,0.1,0.2,0.2,0.2h0.4v0.5h-0.5c-0.2,0-0.3,0-0.4-0.1c-0.1-0.1-0.1-0.2-0.1-0.5V57h-0.8c0,0.4-0.1,0.6-0.1,0.8
				c-0.1,0.2-0.2,0.5-0.5,0.8l-0.4-0.3c0.2-0.3,0.3-0.5,0.4-0.6c0-0.1,0.1-0.5,0.1-1.1h1.8V57.9z M37.3,58.7v0.4
				c-0.1,0.6-0.3,1.1-0.6,1.5c0.3,0.2,0.7,0.4,1.1,0.5l-0.3,0.5c-0.5-0.2-0.9-0.4-1.2-0.6c-0.3,0.2-0.7,0.5-1.2,0.6l-0.3-0.5
				c0.4-0.1,0.8-0.3,1.1-0.5c-0.3-0.3-0.5-0.7-0.7-1.1l0.4-0.3c0.2,0.4,0.4,0.7,0.7,1l0,0c0.2-0.3,0.4-0.6,0.5-1.1h-1.8v-0.5H37.3z"
				/>
			<path class="st0" d="M39.6,57h0.9v0.5h-2.2V57h0.9c-0.1-0.2-0.2-0.4-0.3-0.6l0.5-0.1C39.4,56.6,39.5,56.8,39.6,57z M40.3,57.9
				v0.4h-1.9v-0.4H40.3z M40.3,58.7v0.4h-1.9v-0.4H40.3z M38.9,61.5h-0.5v-2h1.8v1.9h-0.5v-0.3h-0.9V61.5z M39.8,60h-0.9v0.7h0.9V60
				z M41.6,58v-1.6h0.5V58h1v0.5h-1v3h-0.5v-3h-1V58H41.6z"/>
			<path class="st0" d="M48,56.9v0.5h-1.9v3.3h2.1v0.5h-4.7v-0.5h2.1v-3.3h-1.9v-0.5H48z"/>
			<path class="st0" d="M50.5,57c-0.2,0.1-0.4,0.1-0.6,0.2v0.8h0.7v0.5h-0.7v0.3c0.2,0.3,0.5,0.5,0.7,0.8l-0.3,0.4
				c-0.2-0.3-0.3-0.5-0.4-0.7v2.3h-0.4v-2.3c0,0,0,0.1,0,0.1c-0.2,0.4-0.4,0.8-0.6,1.2l-0.2-0.5c0.3-0.4,0.6-0.9,0.8-1.5h-0.7v-0.5
				h0.8v-0.7c-0.2,0-0.4,0.1-0.6,0.1l-0.1-0.5c0.6-0.1,1.1-0.2,1.6-0.3L50.5,57z M53.3,58.9c-0.3,0.1-0.7,0.2-1.1,0.2v0.6h1.1v0.4
				h-1.1v0.7h1.3v0.5h-3.1v-0.5h1.4v-0.7h-1.1v-0.4h1.1v-0.6c-0.3,0-0.6,0-1,0l-0.1-0.5c1,0,1.8-0.1,2.5-0.3L53.3,58.9z M53.2,56.6
				v1.6h-2.5v-1.6H53.2z M52.7,57.1h-1.5v0.8h1.5V57.1z"/>
			<path class="st0" d="M55.3,56.5c0,0.2-0.1,0.3-0.2,0.5h0.7v1.8h-1.3v0.6h1.4v2.1h-0.5v-0.3h-1v0.3H54V57h0.6
				c0.1-0.2,0.1-0.4,0.2-0.5L55.3,56.5z M55.3,58.3v-0.8h-0.9v0.8H55.3z M55.4,60.6v-0.9h-1v0.9H55.4z M58.6,56.7v0.5h-1.1v0.6h0.9
				v2.9c0,0.1,0,0.3-0.1,0.4c-0.1,0.1-0.2,0.1-0.3,0.1h-0.3l-0.1-0.5l0.3,0c0.1,0,0.1-0.1,0.1-0.2v-2.2h-0.5v3.3h-0.5v-3.3h-0.5v2.9
				h-0.4v-3.4h0.9v-0.6H56v-0.5H58.6z"/>
			<path class="st0" d="M2.2,65.1c-0.3,0.7-0.7,1.2-1,1.7c0.1,0,0.2,0,0.3,0c0.8,0,1.6-0.1,2.3-0.2c-0.2-0.3-0.4-0.6-0.6-0.9
				l0.4-0.4C4,66,4.4,66.6,4.7,67.2l-0.4,0.4c-0.1-0.2-0.2-0.3-0.3-0.5c-1,0.2-2.3,0.3-3.8,0.3l-0.1-0.6c0.2,0,0.3,0,0.5,0
				c0.3-0.4,0.7-1.1,1-1.8L2.2,65.1z M4.3,70.1H3.8v-0.3H1.1v0.3H0.5v-2.4h3.8V70.1z M3.8,69.3v-1.1H1.1v1.1H3.8z"/>
			<path class="st0" d="M6.2,66.9l-0.3,0.5c-0.2-0.2-0.5-0.4-0.7-0.6l0.2-0.4C5.7,66.6,6,66.7,6.2,66.9z M6.2,67.9
				c-0.2,0.9-0.4,1.6-0.6,2.2l-0.4-0.4c0.2-0.5,0.4-1.2,0.5-2.1L6.2,67.9z M6.3,65.6L6,66c-0.2-0.2-0.4-0.4-0.6-0.5l0.2-0.4
				C5.9,65.2,6.1,65.4,6.3,65.6z M6.6,67.1c-0.1,0.2-0.1,0.4-0.2,0.6l-0.3-0.1c0.1-0.2,0.1-0.4,0.2-0.6L6.6,67.1z M7,65.1
				c-0.1,0.3-0.2,0.5-0.3,0.7c0.1,0,0.2,0,0.2,0c0.1-0.1,0.1-0.3,0.2-0.4l0.2,0.1v-0.2h0.5c-0.1-0.1-0.1-0.2-0.2-0.3l0.4,0
				c0.1,0.1,0.1,0.2,0.2,0.3h0.5v0.3H7.4v-0.1c-0.2,0.4-0.4,0.7-0.5,1c0.1,0,0.2,0,0.3,0c0-0.1,0-0.1,0-0.2l0.2-0.1
				c0.1,0.2,0.1,0.4,0.1,0.7l-0.3,0.1c0-0.1,0-0.1,0-0.2c-0.2,0.1-0.5,0.1-0.9,0.2l0-0.3c0.1,0,0.2,0,0.2,0c0.1-0.1,0.2-0.3,0.3-0.5
				c-0.1,0-0.3,0-0.5,0l0-0.4h0.2c0.1-0.2,0.2-0.5,0.3-0.9L7,65.1z M9.7,67.9v0.9H7L6.9,69h3c0,0.5-0.1,0.7-0.2,0.9
				C9.6,70,9.4,70.1,9,70.1H8.1L8,69.7c0.4,0,0.8,0,1,0c0.1,0,0.2,0,0.3-0.1c0.1,0,0.1-0.1,0.1-0.3h-3l0.2-0.9h2.7v-0.2H6.4v-0.4
				H9.7z M7,67.7l-0.3,0c0-0.3,0-0.5-0.1-0.6l0.2,0C7,67.2,7,67.4,7,67.7z M7.5,67.6l-0.2,0.1c0-0.2-0.1-0.4-0.1-0.6L7.3,67
				C7.4,67.1,7.4,67.3,7.5,67.6z M8.6,65.8v0.3H7.5v-0.3H8.6z M8.6,66.3v0.3H7.5v-0.3H8.6z M8.6,66.7v0.9H7.5v-0.9H8.6z M8.3,67.1
				H7.8v0.3h0.4V67.1z M9.1,67.1c0,0.2-0.1,0.5-0.1,0.7l-0.3-0.1c0.1-0.2,0.1-0.4,0.1-0.6L9.1,67.1z M9.5,65.1
				c-0.1,0.3-0.2,0.5-0.3,0.7c0.1,0,0.2,0,0.2,0c0.1-0.1,0.1-0.2,0.2-0.3l0.3,0.1c-0.2,0.4-0.5,0.7-0.7,1c0.1,0,0.2,0,0.4,0
				c0-0.1,0-0.2-0.1-0.3l0.3-0.1c0.1,0.2,0.1,0.5,0.2,0.7L9.7,67c0-0.1,0-0.1,0-0.2c-0.2,0-0.6,0.1-1,0.1l0-0.3c0.1,0,0.2,0,0.2,0
				c0.1-0.1,0.2-0.3,0.4-0.5c-0.2,0-0.3,0-0.5,0.1l0-0.3h0.2C8.9,65.6,9,65.3,9.2,65L9.5,65.1z M9.5,67.7l-0.3,0c0-0.3,0-0.5,0-0.6
				l0.3,0C9.5,67.2,9.5,67.4,9.5,67.7z M10,67.6l-0.3,0.1c0-0.2-0.1-0.4-0.1-0.6L9.9,67C9.9,67.2,10,67.4,10,67.6z"/>
			<path class="st0" d="M11,70.1v-4.7h0.7v4.7H11z"/>
			<path class="st0" d="M15.7,69.8c-0.3,0.3-0.6,0.4-1.1,0.4c-0.7,0-1.1-0.2-1.5-0.8c-0.3-0.4-0.4-1-0.4-1.7c0-0.7,0.1-1.2,0.4-1.7
				c0.3-0.5,0.8-0.8,1.5-0.8c0.4,0,0.8,0.1,1.1,0.4c0.3,0.3,0.4,0.6,0.4,1.1h-0.7c-0.1-0.5-0.3-0.8-0.8-0.8c-0.4,0-0.7,0.2-0.9,0.6
				c-0.2,0.3-0.3,0.7-0.3,1.2s0.1,0.9,0.3,1.2c0.2,0.4,0.5,0.6,0.9,0.6c0.2,0,0.4-0.1,0.6-0.2c0.2-0.1,0.3-0.4,0.3-0.6h0.7
				C16.1,69.2,16,69.5,15.7,69.8z"/>
			<path class="st0" d="M19.3,65.4h1.9v0.4h-3.8v1.5c0,0.4,0,0.9-0.1,1.3c-0.1,0.5-0.2,0.9-0.3,1.4l-0.4-0.4
				c0.1-0.4,0.2-0.8,0.3-1.2c0-0.4,0.1-0.8,0.1-1.2v-1.9h1.9c-0.1-0.1-0.1-0.2-0.2-0.3l0.5-0.1C19.2,65.1,19.3,65.2,19.3,65.4z
				 M18.7,65.9v1.3h0.8v0.4c0.1-0.2,0.2-0.5,0.2-0.7c0.1-0.2,0.1-0.6,0.2-1l0.4,0c0,0.2-0.1,0.4-0.1,0.6h0.9V67H21
				c0,0.7-0.1,1.3-0.3,1.8c0,0,0,0.1,0,0.1c0.2,0.2,0.4,0.5,0.7,0.7l-0.2,0.5c-0.3-0.2-0.5-0.5-0.7-0.7c-0.2,0.2-0.3,0.5-0.6,0.7
				l-0.3-0.4c0.2-0.2,0.4-0.4,0.6-0.7c-0.1-0.3-0.2-0.6-0.3-1c0,0.1-0.1,0.2-0.1,0.2l-0.2-0.3v1.7c0,0.2,0,0.3-0.1,0.4
				c-0.1,0.1-0.1,0.1-0.3,0.1h-0.4l-0.1-0.4l0.4,0c0.1,0,0.1-0.1,0.1-0.2v-1.8h-1.3v2.4h-0.4v-2.8h0.8v-1.3H18.7z M18.2,66.9
				l-0.4,0.3c-0.1-0.2-0.2-0.5-0.3-0.8l0.3-0.2C18,66.4,18.1,66.6,18.2,66.9z M19,67.9v1.5h-0.9v-1.5H19z M18.7,68.3h-0.3V69h0.3
				V68.3z M19.7,66.3c-0.1,0.3-0.2,0.6-0.4,0.9l-0.4-0.3c0.2-0.2,0.3-0.5,0.4-0.8L19.7,66.3z M20.4,68.4c0.1-0.3,0.2-0.8,0.2-1.4
				h-0.4c0,0.1,0,0.1,0,0.2c0,0,0,0,0,0C20.2,67.7,20.3,68.1,20.4,68.4z"/>
			<path class="st0" d="M26.3,65.5c-1.1,0.1-2.3,0.2-3.7,0.2v0.3h3.5v1.3h-1.7l0.2,0.4h1.8v0.4h-2.3c0,0.2,0,0.3-0.1,0.4h2
				c0,0.6-0.1,1-0.2,1.2c0,0.1-0.1,0.2-0.3,0.3c-0.1,0.1-0.5,0.1-1.1,0.1l-0.1-0.5c0.2,0,0.3,0,0.4,0c0.3,0,0.5,0,0.6,0
				c0.1-0.1,0.2-0.2,0.2-0.6h-1.6c-0.1,0.1-0.1,0.2-0.2,0.3c-0.2,0.3-0.5,0.6-1,0.8l-0.3-0.5c0.4-0.2,0.7-0.4,0.9-0.6
				c0.2-0.2,0.3-0.5,0.3-0.9h-1.1c0,0.3-0.1,0.6-0.1,0.9c-0.1,0.4-0.2,0.7-0.4,1.1l-0.4-0.4c0.1-0.3,0.2-0.5,0.3-0.8
				c0.1-0.3,0.1-0.7,0.1-1.1v-2.6c1.6,0,2.9-0.1,4-0.2L26.3,65.5z M25.7,66.8v-0.5h-3.1v0.5H25.7z M24.1,67.7l-0.2-0.4h-1.4v0.4
				H24.1z"/>
			<path class="st0" d="M27.7,65.1c0,0.1-0.1,0.2-0.1,0.3H28V65h0.5v0.3h1.1v0.4h-1.1v0.3h1.2v0.4h-1.2v0.3h1.1v0.6
				c0,0.1,0,0.2-0.1,0.3c-0.1,0.1-0.2,0.1-0.3,0.1h-0.4l-0.1-0.4l0.3,0c0.1,0,0.1-0.1,0.1-0.2V67h-0.6v0.9H28V67h-0.6v0.7H27v-1.1h1
				v-0.3h-1.1v-0.4h0.2l-0.3-0.2c0.3-0.2,0.4-0.5,0.5-0.7L27.7,65.1z M29.5,68h2v0.4h-1.7c0.2,0.2,0.3,0.4,0.4,0.5
				c0.1,0,0.2-0.1,0.2-0.2c0.1-0.1,0.2-0.2,0.3-0.3l0.3,0.2c-0.1,0.2-0.2,0.3-0.3,0.4c-0.1,0.1-0.1,0.1-0.2,0.1
				c0.3,0.2,0.6,0.3,1,0.4l-0.2,0.4c-0.5-0.2-0.9-0.4-1.2-0.6c-0.3-0.2-0.5-0.6-0.8-1H29c-0.1,0.2-0.3,0.3-0.5,0.4v0.7
				c0.4,0,0.7-0.1,1-0.2v0.4c-0.4,0.1-1,0.2-2,0.3l-0.1-0.5c0.2,0,0.4,0,0.5,0v-0.5c-0.3,0.1-0.6,0.3-1,0.4L26.9,69
				c0.5-0.1,0.9-0.3,1.2-0.4c0.1-0.1,0.2-0.1,0.4-0.2h-1.5V68H29c-0.1-0.1-0.1-0.2-0.2-0.3l0.5-0.1C29.4,67.8,29.4,67.9,29.5,68z
				 M28,65.7h-0.6c-0.1,0.1-0.1,0.2-0.2,0.3H28V65.7z M30.4,65.3v1.6h-0.5v-1.6H30.4z M31.2,65v2.3c0,0.2,0,0.3-0.1,0.4
				c-0.1,0.1-0.2,0.1-0.4,0.1h-0.5l-0.1-0.5c0.2,0,0.4,0,0.5,0c0.1,0,0.2,0,0.2-0.1V65H31.2z"/>
			<path class="st0" d="M33.2,66.3v0.4c-0.2,0.3-0.4,0.6-0.6,1h0.6V68c-0.1,0.3-0.1,0.6-0.2,0.8c0.2,0.3,0.5,0.5,0.8,0.6
				c0.3,0.1,0.8,0.2,1.6,0.2c0.5,0,0.9,0,1.2,0L36.4,70c-1.6,0-2.5-0.1-2.8-0.2c-0.3-0.1-0.6-0.3-0.8-0.6c-0.1,0.3-0.4,0.6-0.6,0.9
				l-0.3-0.4c0.3-0.3,0.5-0.5,0.6-0.8c0.1-0.1,0.2-0.4,0.3-0.8H32v-0.4c0.2-0.2,0.4-0.5,0.6-0.9h-0.8v-0.5H33.2z M33.1,65.7
				l-0.3,0.4c-0.1-0.2-0.3-0.5-0.6-0.7l0.3-0.3C32.7,65.3,32.9,65.5,33.1,65.7z M34.4,65.1c-0.1,0.2-0.1,0.3-0.2,0.5h0.4V65h0.5v0.6
				h1.1V66h-1.1v0.5h1.3v0.5h-1.3v0.3h-0.5v-0.3h-1.4v-0.5h1.4V66H34c-0.1,0.2-0.2,0.3-0.3,0.5l-0.4-0.3c0.3-0.4,0.5-0.8,0.7-1.2
				L34.4,65.1z M36.2,67.5V69h-2.5v-1.5H36.2z M35.8,68h-1.6v0.6h1.6V68z"/>
			<path class="st0" d="M38.5,65.1c-0.1,0.5-0.3,0.8-0.4,1.2v3.8h-0.5v-2.9c-0.1,0.2-0.3,0.4-0.5,0.6L37,67.2
				c0.2-0.3,0.4-0.6,0.6-0.9c0.2-0.3,0.3-0.7,0.5-1.3L38.5,65.1z M39.8,65.1c-0.1,0.3-0.2,0.5-0.2,0.7h2.1v0.5h-1.8V67h1.7v0.5h-1.7
				v0.9h1.7v0.5h-1.7v1.2h-0.5v-3.8h-0.1c-0.2,0.5-0.4,0.9-0.7,1.2L38.3,67c0.4-0.6,0.8-1.3,1-2.1L39.8,65.1z"/>
			<path class="st0" d="M44.2,65v0.9h0.5V65h0.5v0.9h0.4c0.1-0.2,0.2-0.5,0.3-0.8l0.5,0.2c-0.1,0.2-0.2,0.4-0.3,0.6h0.7v0.5h-1.4
				l0.4,0.1c-0.1,0.1-0.1,0.3-0.2,0.4h1.1v0.4h-1.9v0.3h1.8v0.4h-1.8v0.3h2.1v0.4h-1.6c0.2,0.2,0.4,0.4,0.6,0.5
				c0.2,0.1,0.6,0.2,1,0.4L46.4,70c-0.5-0.2-0.9-0.3-1.1-0.5c-0.2-0.2-0.4-0.4-0.7-0.7v1.3h-0.5v-1.3c-0.1,0.2-0.3,0.4-0.5,0.5
				c-0.3,0.2-0.7,0.5-1.3,0.7l-0.2-0.4c0.6-0.2,1-0.4,1.2-0.6c0.1-0.1,0.2-0.2,0.4-0.3h-1.6v-0.4h2v-0.3h-1.8v-0.4h1.8v-0.3h-1.9
				v-0.4h1.1c-0.1-0.1-0.1-0.2-0.2-0.4l0.3-0.1h-1.4v-0.5h0.7c-0.1-0.2-0.1-0.4-0.2-0.6l0.5-0.2c0.1,0.2,0.2,0.5,0.3,0.8h0.4V65
				H44.2z M44.9,66.8c0.1-0.1,0.2-0.3,0.3-0.5h-1.4c0.1,0.1,0.1,0.3,0.2,0.5H44.9z"/>
			<path class="st0" d="M48.6,65.6h0.8v0.5h-2.2v-0.5h0.9c-0.1-0.2-0.2-0.4-0.3-0.6l0.5-0.1C48.4,65.2,48.5,65.4,48.6,65.6z
				 M49.2,66.5v0.4h-1.8v-0.4H49.2z M49.2,67.2v0.4h-1.8v-0.4H49.2z M47.9,70.1h-0.5v-2h1.8V70h-0.5v-0.3h-0.9V70.1z M48.7,68.5
				h-0.9v0.7h0.9V68.5z M50.4,66.6V65h0.5v1.6h1v0.5h-1v3h-0.5v-3h-1v-0.5H50.4z"/>
			<path class="st0" d="M54.3,65.3V65h0.5v0.3h1.7v0.5h0.4v0.4h-0.4v0.6h-1.7v0.2h1.9v0.3h-1.9v0.2h2.2v0.3h-4.6v-0.3h2v-0.2h-1.7
				v-0.3h1.7v-0.2h-1.6v-0.3h1.6v-0.2h-2v-0.4h2v-0.2h-1.6v-0.3H54.3z M56.9,69.6V70h-4.5v-0.4H56.9z M56.5,68v1.4h-3.7V68H56.5z
				 M54.4,68.6v-0.2h-1.2v0.2H54.4z M54.4,68.9h-1.2v0.2h1.2V68.9z M54.8,65.8H56v-0.2h-1.3V65.8z M54.8,66.4H56v-0.2h-1.3V66.4z
				 M54.8,68.6H56v-0.2h-1.2V68.6z M56,68.9h-1.2v0.2H56V68.9z"/>
			<path class="st0" d="M58.3,65.5v-0.4h0.4v0.4h0.8v0.4h-0.8v0.5h0.9v0.5h-0.4l-0.2,0.7h0.4v0.4h-0.8v0.6h0.9v0.4h-0.9v1h-0.4v-1
				h-0.9v-0.4h0.9v-0.6h-0.8v-0.4h0.4l-0.2-0.7h-0.3v-0.5h0.9v-0.5h-0.8v-0.4H58.3z M58.7,67.7l0.2-0.7h-0.7l0.2,0.7H58.7z
				 M60.2,65.9V65h0.4v0.9h1c-0.1,0.4-0.1,1-0.1,1.8c0,0.8,0,1.3,0,1.6c0,0.1,0,0.2,0.1,0.2c0,0,0.1-0.3,0.1-0.8l0.3,0.2
				c-0.1,0.5-0.1,0.8-0.2,1c-0.1,0.1-0.1,0.1-0.2,0.1c-0.1,0-0.2-0.1-0.3-0.2c-0.1-0.1-0.1-0.3-0.2-0.6c-0.1-0.4-0.1-1-0.1-1.6
				c0-0.5,0-0.9,0.1-1.4h-0.6c0,0.6,0,1.1-0.1,1.5c0.2,0.3,0.4,0.6,0.5,0.9l-0.3,0.4c-0.1-0.2-0.2-0.4-0.3-0.6
				c-0.1,0.5-0.4,1.1-0.7,1.6l-0.4-0.4c0.4-0.5,0.6-1,0.7-1.5c0-0.1,0-0.2,0.1-0.2c-0.2-0.2-0.3-0.4-0.5-0.7l0.3-0.3
				c0.1,0.1,0.2,0.2,0.3,0.4c0-0.3,0-0.6,0-1h-0.5v-0.5H60.2z"/>
			<path class="st0" d="M64,66.6c-0.1,0.2-0.2,0.4-0.4,0.6v2.9h-0.5v-2.3c-0.1,0.2-0.3,0.3-0.4,0.5l-0.3-0.5
				c0.5-0.4,0.9-0.9,1.2-1.6L64,66.6z M64,65.3c-0.3,0.5-0.7,0.9-1.2,1.2L62.5,66c0.4-0.3,0.8-0.7,1.1-1.1L64,65.3z M67.2,66.7v0.5
				h-0.7v2.3c0,0.2,0,0.3-0.1,0.4c-0.1,0.1-0.2,0.1-0.4,0.1H65l-0.1-0.5c0.3,0,0.6,0,0.8,0c0.1,0,0.2,0,0.2-0.1v-2.3h-1.8v-0.5H67.2
				z M66.9,65.3v0.5h-2.5v-0.5H66.9z"/>
			<path class="st0" d="M70.3,65.7l-0.3,0.2H72v0.5h-1.8v1.1h1.6v0.5h-1.6v1.4h2v0.5h-4.6v-0.5h2v-1.4h-1.6v-0.5h1.6v-1.1h-1.9v-0.5
				h1.9c-0.1-0.2-0.3-0.4-0.5-0.7l0.4-0.3C69.9,65.2,70.1,65.5,70.3,65.7z"/>
			<path class="st0" d="M73.3,66v-1h0.5v1h0.6v0.5h-0.6v1.1c0.2-0.1,0.3-0.2,0.5-0.3v0.5c-0.2,0.1-0.3,0.2-0.5,0.3v1.4
				c0,0.2,0,0.3-0.1,0.4c-0.1,0.1-0.2,0.1-0.4,0.1h-0.4l-0.1-0.5c0.1,0,0.3,0,0.4,0c0.1,0,0.2,0,0.2-0.1v-1.1
				c-0.2,0.1-0.4,0.2-0.6,0.2L72.7,68c0.2,0,0.4-0.1,0.6-0.2v-1.3h-0.6V66H73.3z M75.5,65.6V65H76v0.7h1.1v0.5H76v0.6h1.3v0.5h-0.6
				v0.5h0.6v0.5h-0.6v1.4c0,0.2,0,0.3-0.1,0.4c-0.1,0.1-0.2,0.1-0.4,0.1h-0.6l-0.1-0.5c0.2,0,0.4,0,0.5,0c0.1,0,0.2,0,0.2-0.1v-1.3
				h-1.9v-0.5h1.9v-0.5h-1.9v-0.5h1.1v-0.6h-1v-0.5H75.5z M75.8,69.1l-0.4,0.3c-0.1-0.3-0.3-0.5-0.6-0.9l0.3-0.2
				C75.4,68.6,75.6,68.9,75.8,69.1z"/>
			<path class="st0" d="M80.4,65v1.3c0.2,0.8,0.4,1.5,0.8,2c0.3,0.4,0.7,0.9,1.3,1.3l-0.3,0.5c-0.5-0.4-0.9-0.7-1.2-1.1
				c-0.3-0.4-0.6-0.9-0.8-1.6c-0.2,0.6-0.4,1.1-0.7,1.5c-0.3,0.4-0.8,0.8-1.4,1.1l-0.3-0.5c0.8-0.5,1.3-1.1,1.6-1.7
				c0.3-0.6,0.4-1.1,0.5-1.7V65H80.4z"/>
			<path class="st0" d="M0.9,74.6v-1.1h0.5v1.1h0.7v0.5H1.4v0.3c0.3,0.3,0.6,0.6,0.9,1L2,76.7c-0.2-0.3-0.4-0.6-0.6-0.8v2.8H0.9V76
				c0,0,0,0.1,0,0.1c-0.2,0.5-0.4,0.9-0.6,1.3L0,76.7c0.3-0.5,0.6-1,0.8-1.7H0.1v-0.5H0.9z M3.2,73.9c-0.1,0.5-0.3,0.9-0.4,1.2
				c-0.1,0.3-0.3,0.6-0.6,0.9l-0.4-0.4c0.2-0.3,0.4-0.6,0.5-0.9c0.1-0.3,0.2-0.6,0.3-1.1L3.2,73.9z M3.7,75.5
				c-0.3,0.9-0.6,1.7-0.9,2.3c0.5,0,1-0.1,1.4-0.2c-0.1-0.3-0.3-0.6-0.4-0.9l0.5-0.1c0.3,0.5,0.6,1.2,0.8,1.9l-0.5,0.1
				c-0.1-0.2-0.1-0.4-0.2-0.6c-0.5,0.1-1.3,0.3-2.4,0.4l-0.1-0.5c0.1,0,0.2,0,0.4,0c0.4-0.8,0.7-1.6,0.9-2.5L3.7,75.5z M4.3,73.8
				c0.1,0.6,0.4,1.2,0.9,1.8L4.8,76c-0.2-0.3-0.4-0.5-0.5-0.8c-0.2-0.3-0.3-0.6-0.4-1H3.3v-0.5H4.3z"/>
			<path class="st0" d="M7.1,74.5v3.1h1.4v-4h0.6v4h1.5v-3.1h0.6v4.2h-0.6v-0.5H7.1v0.5H6.5v-4.2H7.1z"/>
			<path class="st0" d="M13.1,74.6v-1.1h0.5v1.1H14v0.5h-0.4v0.3c0.2,0.2,0.4,0.5,0.6,0.8l-0.1,0.1h0.5c0-0.1,0-0.3,0-0.4
				c-0.1,0-0.2,0-0.4,0l-0.1-0.4c0.1,0,0.2,0,0.3,0c0.1-0.2,0.2-0.4,0.4-0.6c-0.2,0-0.4,0.1-0.6,0.1l-0.1-0.4c0.1,0,0.1,0,0.2,0
				c0.2-0.3,0.3-0.7,0.4-1.1l0.4,0c-0.1,0.3-0.2,0.7-0.4,0.9c0.1,0,0.2,0,0.2,0c0.1-0.1,0.1-0.3,0.2-0.4l0.4,0.1
				c-0.2,0.5-0.5,0.9-0.7,1.3c0.1,0,0.3,0,0.4,0c0-0.1-0.1-0.2-0.1-0.3l0.3-0.1c0.1,0.3,0.2,0.6,0.3,0.8l-0.4,0.1
				c0-0.1,0-0.2-0.1-0.2c-0.1,0-0.2,0-0.2,0c0,0.2,0,0.3,0,0.5h0.7c-0.1-0.6-0.1-1.5-0.2-2.8H16c0,1.3,0.1,2.2,0.2,2.8h0.5
				c0-0.1-0.1-0.2-0.1-0.3c-0.1,0-0.2,0-0.3,0l-0.1-0.4c0.1,0,0.2,0,0.3,0c0.1-0.2,0.3-0.4,0.4-0.7c-0.2,0-0.4,0.1-0.6,0.1l-0.1-0.4
				c0.1,0,0.1,0,0.2,0c0.2-0.3,0.3-0.7,0.3-1.1l0.4,0c-0.1,0.3-0.2,0.7-0.3,1c0.1,0,0.2,0,0.3,0c0.1-0.1,0.1-0.2,0.2-0.4l0.4,0.1
				c-0.2,0.5-0.4,0.9-0.7,1.2c0.1,0,0.2,0,0.3-0.1c0-0.1-0.1-0.2-0.1-0.3l0.3-0.1c0.1,0.3,0.2,0.6,0.3,0.8l-0.3,0.1
				c0-0.1,0-0.2-0.1-0.3c-0.1,0-0.2,0-0.3,0.1c0.1,0.1,0.1,0.3,0.2,0.4h0.5v0.4h-1.4c0.1,0.2,0.1,0.5,0.2,0.6
				c0.1-0.1,0.2-0.3,0.4-0.5l0.4,0.2c-0.2,0.3-0.3,0.5-0.5,0.7c0.2,0.3,0.3,0.4,0.5,0.4c0,0,0.1,0,0.1-0.1c0,0,0-0.3,0.1-0.7
				l0.4,0.2c-0.1,0.4-0.1,0.7-0.2,0.8c-0.1,0.1-0.2,0.2-0.3,0.2c-0.2,0-0.5-0.2-0.8-0.6c0,0,0,0,0,0c-0.3,0.2-0.6,0.4-1,0.5
				l-0.2-0.4c0.4-0.1,0.7-0.3,1-0.5c0,0,0,0,0.1,0c-0.1-0.3-0.2-0.6-0.3-0.9H15c0,0.1,0,0.1,0,0.2c0.3,0.2,0.5,0.4,0.7,0.6l-0.3,0.4
				c-0.2-0.2-0.4-0.4-0.6-0.5c-0.1,0.3-0.2,0.5-0.3,0.7c-0.1,0.2-0.3,0.4-0.5,0.6l-0.3-0.4c0.2-0.2,0.4-0.4,0.5-0.6
				c0.1-0.2,0.2-0.4,0.2-0.8c0,0,0-0.1,0-0.1H14v-0.3l-0.1,0.1c-0.1-0.2-0.2-0.5-0.3-0.6v2.7h-0.5v-2.4c-0.1,0.4-0.3,0.7-0.5,1
				l-0.2-0.5c0.3-0.4,0.5-0.9,0.7-1.5v-0.1h-0.6v-0.5H13.1z"/>
			<path class="st0" d="M19.3,74.9v-1.4h0.5v1.4h0.5v0.5h-0.5v1.4c0.2-0.1,0.4-0.2,0.5-0.3v0.3c0.2-0.1,0.3-0.2,0.4-0.3
				c0.1-0.1,0.2-0.2,0.3-0.4h-0.8v-0.4h3.5v0.4h-2.2c-0.1,0.1-0.1,0.2-0.2,0.3h2.2c0,1.2-0.1,1.8-0.3,2c-0.1,0.1-0.5,0.2-1.1,0.2
				l-0.1-0.5c0.2,0,0.3,0,0.4,0c0.2,0,0.3,0,0.4-0.1c0.1-0.1,0.1-0.5,0.2-1.2H23c-0.2,0.4-0.4,0.7-0.5,0.9c-0.2,0.3-0.6,0.6-1.2,1
				l-0.3-0.4c0.5-0.2,0.9-0.5,1.1-0.7c0.2-0.2,0.4-0.4,0.5-0.7h-0.4c-0.2,0.3-0.4,0.5-0.6,0.7c-0.3,0.2-0.7,0.5-1.1,0.7l-0.3-0.4
				c0.4-0.2,0.7-0.3,1-0.5c0.2-0.1,0.3-0.2,0.4-0.4h-0.5c-0.2,0.2-0.4,0.4-0.7,0.5l-0.2-0.2c-0.4,0.2-0.9,0.4-1.4,0.6l-0.1-0.6
				c0.2-0.1,0.4-0.1,0.6-0.2v-1.6h-0.6v-0.5H19.3z M23.6,73.7v1.8h-2.9v-1.8H23.6z M23.1,74.4v-0.3h-1.9v0.3H23.1z M23.1,74.8h-1.9
				v0.3h1.9V74.8z"/>
			<path class="st0" d="M26.2,75.5L25.9,76c-0.3-0.3-0.6-0.5-0.9-0.7l0.3-0.4C25.6,75.1,25.9,75.3,26.2,75.5z M26.3,76.6
				c-0.3,0.8-0.6,1.5-0.9,2.1L25,78.2c0.3-0.5,0.6-1.1,0.9-1.9L26.3,76.6z M26.4,74.2L26,74.7c-0.3-0.3-0.6-0.5-0.9-0.6l0.3-0.4
				C25.8,73.8,26.1,74,26.4,74.2z M27.5,74.6L27,74.9c-0.2-0.4-0.4-0.7-0.6-1l0.5-0.2C27.1,74,27.3,74.3,27.5,74.6z M28.5,73.5V75
				h1.4v3.1c0,0.2-0.1,0.3-0.1,0.4c-0.1,0.1-0.2,0.1-0.4,0.1h-0.8l-0.1-0.5l0.7,0c0.1,0,0.2-0.1,0.2-0.2v-0.5h-2.3v1.3h-0.5V75h1.4
				v-1.4H28.5z M29.4,76v-0.5h-2.3V76H29.4z M29.4,77v-0.5h-2.3V77H29.4z M29.9,73.9c-0.2,0.3-0.4,0.7-0.6,1l-0.5-0.2
				c0.3-0.3,0.5-0.6,0.6-1L29.9,73.9z"/>
			<path class="st0" d="M33.2,73.8v0.4c-0.1,0.4-0.3,0.9-0.4,1.4c0.1,0.3,0.2,0.5,0.3,0.7c0.1,0.2,0.1,0.4,0.1,0.5
				c0,0.3-0.1,0.5-0.2,0.6c-0.1,0.2-0.4,0.2-0.8,0.2L32,77.1c0.1,0,0.2,0,0.3,0c0.1,0,0.2,0,0.3-0.1c0.1,0,0.1-0.1,0.1-0.3
				c0-0.2,0-0.3-0.1-0.5c-0.1-0.2-0.2-0.4-0.3-0.7c0.2-0.5,0.3-1,0.4-1.3h-0.7v4.4h-0.5v-4.9H33.2z M35,74.3h1.4v0.5h-1.9v0.7h1.6
				c0,1.5-0.1,2.3-0.2,2.6c-0.1,0.2-0.3,0.4-0.7,0.4c-0.3,0-0.6,0-0.7,0L34.4,78c0.3,0,0.6,0.1,0.9,0.1c0.1,0,0.2-0.1,0.2-0.3
				c0-0.1,0.1-0.7,0.1-1.6h-1.1c0,0.5-0.1,0.9-0.3,1.2c-0.2,0.4-0.6,0.9-1.1,1.4l-0.4-0.4c0.5-0.3,0.9-0.7,1.1-1.1
				c0.2-0.3,0.3-0.8,0.3-1.5v-0.8h-0.7v-0.5h1.2c-0.1-0.3-0.3-0.5-0.4-0.7l0.5-0.1C34.7,73.8,34.9,74,35,74.3z"/>
			<path class="st0" d="M40.3,73.5v1.1c0,0.3,0.1,0.8,0.3,1.3c0.2,0.5,0.5,1,0.7,1.3c0.4,0.4,0.8,0.7,1.3,0.9l-0.3,0.6
				c-0.6-0.3-1-0.6-1.3-1c-0.4-0.5-0.7-1.1-1-1.8c-0.2,0.8-0.5,1.4-0.9,1.8c-0.3,0.4-0.8,0.7-1.4,1l-0.2-0.5c0.6-0.2,1-0.5,1.3-0.9
				c0.3-0.4,0.5-0.8,0.7-1.4c0.1-0.5,0.2-0.9,0.2-1.2v-1.1H40.3z M38.9,74.6c-0.2,0.7-0.4,1.4-0.7,1.9l-0.5-0.4
				c0.3-0.5,0.5-1.1,0.7-1.8L38.9,74.6z M42.3,74.6c-0.2,0.7-0.4,1.4-0.7,1.9l-0.5-0.4c0.3-0.5,0.5-1.1,0.7-1.7L42.3,74.6z"/>
			<path class="st0" d="M44.4,73.8v-0.2h0.4v0.2H45v0.3h-0.3v0.2h0.7v-0.2h-0.3v-0.3h0.3v-0.2h0.4v0.2h0.7v0.3h-0.7v0.2h0.4v1.1
				c0,0.1,0,0.2-0.1,0.2c-0.1,0.1-0.2,0.1-0.3,0.1h-0.4l0-0.1h-1.3V75c-0.1,0.1-0.2,0.1-0.3,0.2l-0.2-0.4c0.2-0.1,0.4-0.2,0.5-0.3
				c0.1-0.1,0.2-0.2,0.2-0.2v-0.2h-0.5v-0.3H44.4z M46.7,75.9h2.1v0.4h-5v-0.4h2.5c0-0.1-0.1-0.1-0.1-0.2l0.4-0.2
				C46.5,75.7,46.6,75.8,46.7,75.9z M48.3,76.5v0.3h-4.2v-0.3H48.3z M48.3,77v0.3h-4.2V77H48.3z M48.3,78.7h-0.5v-0.2h-3.2v0.2h-0.5
				v-1.1h4.2V78.7z M45.5,74.8v0.6l0.2,0c0.1,0,0.1,0,0.1-0.1v-0.7h-1.3c0,0,0,0,0,0c-0.1,0.1-0.1,0.1-0.2,0.2H45.5z M45.1,75.1
				h-0.6v0.3h0.6V75.1z M47.8,78.2v-0.3h-3.2v0.3H47.8z M47.5,73.6c-0.1,0.2-0.1,0.3-0.2,0.4h1.3v0.4h-0.3c-0.2,0.3-0.3,0.6-0.5,0.8
				c0.2,0.1,0.5,0.2,0.8,0.3l-0.2,0.4c-0.4-0.2-0.7-0.3-1-0.4c-0.2,0.2-0.5,0.3-0.8,0.4l-0.2-0.4c0.3-0.1,0.5-0.2,0.7-0.3
				c-0.1-0.1-0.3-0.2-0.4-0.4c-0.1,0.1-0.2,0.1-0.2,0.2l-0.3-0.3c0.2-0.2,0.4-0.3,0.5-0.5c0.1-0.1,0.2-0.3,0.3-0.6L47.5,73.6z
				 M47.5,74.9c0.2-0.1,0.3-0.3,0.4-0.6h-0.8c0,0-0.1,0.1-0.1,0.1C47.2,74.7,47.4,74.8,47.5,74.9z"/>
			<path class="st0" d="M51.7,77.3c-0.4,0.5-0.9,0.9-1.4,1.2L49.9,78c0.5-0.3,1-0.7,1.4-1.1L51.7,77.3z M54.8,74.1
				c-0.7,0.1-1.5,0.2-2.4,0.3c-0.1,0.2-0.4,0.5-0.6,0.8c0.4,0,0.8,0,1.3-0.1c0.2-0.2,0.4-0.4,0.6-0.6l0.5,0.2
				c-0.7,0.7-1.4,1.3-2.1,1.7c0.8,0,1.5-0.1,2-0.1c-0.1-0.2-0.2-0.4-0.4-0.6l0.4-0.2c0.4,0.6,0.7,1.1,1,1.5l-0.5,0.3
				c-0.1-0.2-0.2-0.3-0.3-0.5c-0.4,0.1-0.9,0.1-1.4,0.1v1.3c0,0.2-0.1,0.4-0.2,0.4c-0.1,0.1-0.3,0.1-0.5,0.1h-0.5l-0.1-0.6
				c0.2,0,0.3,0,0.5,0c0.2,0,0.2,0,0.2-0.1v-1.2c-0.6,0-1.2,0.1-1.9,0.1l-0.1-0.5c0.4,0,0.7,0,1,0c0.4-0.3,0.9-0.6,1.3-0.9
				c-0.6,0.1-1.3,0.1-2,0.1l-0.1-0.5c0.2,0,0.4,0,0.6,0c0.3-0.2,0.6-0.5,0.8-0.8c-0.5,0-1,0-1.5,0L50,73.9c1.8,0,3.3-0.1,4.5-0.3
				L54.8,74.1z M54.9,78.1l-0.4,0.4c-0.3-0.4-0.8-0.8-1.3-1.2l0.4-0.4C54.1,77.3,54.6,77.7,54.9,78.1z"/>
			<path class="st0" d="M57.5,73.7c-0.2,0.5-0.4,1-0.6,1.4c0.2,0,0.3,0,0.5-0.1c0.1-0.2,0.2-0.5,0.4-0.8l0.4,0.2
				c-0.4,0.9-0.8,1.6-1.2,2.1c0.3,0,0.5-0.1,0.7-0.1c0-0.2-0.1-0.3-0.1-0.5l0.4-0.1c0.1,0.3,0.2,0.7,0.3,1.2L57.8,77
				c0-0.1,0-0.2-0.1-0.3c-0.4,0.1-0.9,0.2-1.5,0.3l-0.1-0.5c0.1,0,0.2,0,0.3,0c0.2-0.3,0.4-0.6,0.6-1c-0.3,0.1-0.6,0.1-0.9,0.2
				l-0.1-0.5c0.1,0,0.2,0,0.3,0c0.2-0.5,0.5-1,0.6-1.6L57.5,73.7z M56.7,77.2c0,0.6-0.1,1-0.2,1.4l-0.5-0.1c0.1-0.4,0.2-0.8,0.2-1.3
				L56.7,77.2z M57.5,78.4l-0.5,0c0-0.5,0-0.9-0.1-1.2l0.4,0C57.4,77.5,57.5,77.9,57.5,78.4z M58.2,78l-0.4,0.1
				c-0.1-0.3-0.1-0.6-0.2-1l0.4-0.1C58.1,77.3,58.1,77.7,58.2,78z M60,74.1h1.2v0.4h-1.6c-0.1,0.4-0.3,0.7-0.5,1.1
				c0.5,0,0.9-0.1,1.3-0.2c-0.1-0.1-0.1-0.3-0.2-0.4l0.4-0.2c0.3,0.5,0.5,0.9,0.7,1.2l-0.5,0.3c-0.1-0.1-0.1-0.3-0.2-0.4
				c-0.1,0-0.2,0.1-0.4,0.1v2c0,0.1,0.1,0.2,0.2,0.2h0.2c0.1,0,0.1,0,0.1-0.1c0-0.1,0-0.4,0.1-0.9l0.5,0.1c0,0.6-0.1,1-0.2,1.1
				c-0.1,0.1-0.2,0.2-0.4,0.2h-0.5c-0.2,0-0.3,0-0.4-0.1c-0.1-0.1-0.1-0.2-0.1-0.3v-2c-0.1,0-0.2,0-0.3,0c0,0.7-0.1,1.2-0.3,1.6
				c-0.2,0.4-0.4,0.7-0.8,1L58,78.3c0.3-0.2,0.6-0.5,0.7-0.8c0.1-0.3,0.2-0.7,0.2-1.3c-0.2,0-0.4,0-0.6,0.1l-0.1-0.5
				c0.1,0,0.3,0,0.4,0c0.2-0.4,0.4-0.7,0.5-1.1h-0.9v-0.4h1.3c-0.1-0.1-0.2-0.3-0.3-0.5l0.5-0.2C59.8,73.7,59.9,73.9,60,74.1z"/>
			<path class="st0" d="M62.3,77v-0.5h1.4V77H62.3z"/>
			<path class="st0" d="M66.5,73.9h1v0.5h-0.6l0.3,0.1c-0.1,0.3-0.2,0.6-0.3,0.8h0.6v0.4h-1v0.4h1v0.4h-1c0.4,0.3,0.7,0.5,1,0.8
				l-0.3,0.3c-0.2-0.2-0.4-0.4-0.7-0.6v1.6H66v-1.5c-0.2,0.4-0.5,0.7-0.9,1l-0.3-0.4c0.5-0.3,0.8-0.7,1.1-1.2H65v-0.4h1v-0.4h-1.1
				v-0.4h0.6c-0.1-0.2-0.1-0.5-0.2-0.8l0.3-0.1h-0.6v-0.5h1c-0.1-0.1-0.2-0.2-0.2-0.3l0.5-0.1C66.3,73.7,66.4,73.8,66.5,73.9z
				 M66.4,75.3c0.1-0.2,0.2-0.5,0.3-0.9h-1c0.1,0.3,0.2,0.5,0.3,0.9H66.4z M70,74.2c-0.5,0.1-1.1,0.2-1.7,0.3v0.9H70v0.5h-0.6v2.8
				h-0.5v-2.8h-0.6v0.5c0,0.4-0.1,0.8-0.2,1.3c-0.1,0.4-0.3,0.7-0.5,1.1l-0.4-0.4c0.2-0.3,0.3-0.6,0.4-0.9c0.1-0.3,0.1-0.7,0.2-1.1
				V74c0.8,0,1.4-0.1,1.9-0.3L70,74.2z"/>
			<path class="st0" d="M72.4,74.2h0.8v0.5h-2.1v-0.5h0.8c-0.1-0.2-0.2-0.4-0.3-0.6l0.5-0.1C72.2,73.7,72.3,73.9,72.4,74.2z
				 M73,78.3h-1.2v0.4h-0.5v-2H73V78.3z M73,75v0.4h-1.7V75H73z M73,75.8v0.4h-1.7v-0.4H73z M72.5,77.8v-0.7h-0.7v0.7H72.5z
				 M75.5,75c0,0.1,0.1,0.2,0.2,0.2h0.4v0.5h-0.5c-0.2,0-0.4,0-0.5-0.1c-0.1-0.1-0.2-0.2-0.2-0.5v-0.9h-0.9c0,0.4-0.1,0.6-0.1,0.8
				c-0.1,0.2-0.2,0.5-0.5,0.8l-0.4-0.3c0.2-0.3,0.4-0.5,0.4-0.6c0-0.1,0.1-0.5,0.1-1.1h1.9V75z M75.7,75.8v0.4
				c-0.1,0.6-0.4,1.1-0.7,1.5c0.3,0.2,0.7,0.4,1.2,0.5l-0.3,0.5c-0.5-0.2-0.9-0.4-1.3-0.6c-0.3,0.2-0.7,0.5-1.3,0.6l-0.3-0.5
				c0.5-0.1,0.9-0.3,1.1-0.5c-0.3-0.3-0.6-0.7-0.8-1.1l0.5-0.3c0.2,0.4,0.4,0.7,0.8,1l0,0c0.2-0.3,0.4-0.6,0.5-1.1h-1.9v-0.5H75.7z"
				/>
			<path class="st0" d="M81.6,73.7c-0.1,0.6-0.3,1.1-0.4,1.6h1c-0.2,1-0.6,1.7-1,2.2c0.4,0.2,0.8,0.5,1.2,0.6l-0.3,0.5
				c-0.6-0.2-1-0.5-1.4-0.7c-0.4,0.3-0.9,0.6-1.6,0.7l-0.4-0.5c0.6-0.2,1.2-0.3,1.5-0.6c-0.5-0.4-0.9-1-1.1-1.6
				c-0.1,0.5-0.3,1-0.5,1.3c-0.2,0.4-0.5,0.8-1,1.3l-0.5-0.4c0.6-0.6,1-1.2,1.3-1.8c0.2-0.6,0.3-1.2,0.3-1.8v-0.4h-1.1v-0.5H81.6z
				 M79.4,74.6c0,0.7,0.3,1.3,0.8,1.9c0.2,0.2,0.4,0.4,0.6,0.6c0.3-0.3,0.5-0.8,0.7-1.4h-1.1c0.1-0.3,0.3-0.9,0.5-1.5h-1.5V74.6z"/>
			<path class="st0" d="M1.3,84.1L1,84.7c-0.3-0.3-0.6-0.5-0.9-0.7l0.3-0.4C0.7,83.7,1,83.9,1.3,84.1z M1.4,85.2
				c-0.3,0.8-0.6,1.4-0.9,2l-0.4-0.4c0.3-0.4,0.6-1,0.9-1.8L1.4,85.2z M1.5,82.8l-0.3,0.5c-0.3-0.3-0.6-0.5-0.9-0.7l0.3-0.4
				C0.9,82.3,1.2,82.5,1.5,82.8z M2.8,83.2c0-0.3,0.1-0.7,0.1-1.1h0.5c0,0.4,0,0.8-0.1,1.1h1.8v0.5H3.9c0.1,0.6,0.3,1.1,0.5,1.6
				c0.2,0.5,0.5,1,0.8,1.5l-0.4,0.5c-0.4-0.6-0.7-1.2-0.9-1.8c-0.2-0.5-0.4-1.1-0.5-1.8H3.3c-0.1,0.6-0.2,1.1-0.4,1.6
				c-0.3,0.7-0.7,1.3-1.4,1.9l-0.3-0.5c0.5-0.5,1-1,1.2-1.6c0.2-0.4,0.3-0.8,0.3-1.4H1.5v-0.5H2.8z M3.9,86.7L3.4,87
				c-0.2-0.3-0.4-0.7-0.7-1.1l0.4-0.2C3.4,86.1,3.7,86.4,3.9,86.7z"/>
			<path class="st0" d="M6.3,83.1v-1h0.5v1h0.5c0.2-0.1,0.4-0.3,0.5-0.5c0.1-0.1,0.2-0.3,0.3-0.6l0.5,0c0,0.1-0.1,0.3-0.2,0.4H10
				v0.3c-0.1,0.2-0.3,0.4-0.4,0.5h0.9v1.9H10v-1.5H8v1.5H7.5v-1.9l-0.2-0.2v0.4H6.8v1c0.2-0.1,0.3-0.2,0.5-0.3v0.5
				C7.2,85,7,85.1,6.8,85.1v1.5c0,0.2,0,0.3-0.1,0.4c-0.1,0.1-0.2,0.1-0.4,0.1H5.9l-0.1-0.5c0.2,0,0.3,0,0.4,0c0.1,0,0.2,0,0.2-0.1
				v-1.2c-0.2,0.1-0.4,0.2-0.6,0.2L5.7,85c0.2,0,0.4-0.1,0.7-0.2v-1.3H5.7v-0.5H6.3z M8.7,85.4c0-0.1,0-0.1,0-0.2v-0.3h0.5v0.3
				c0,0.1,0,0.1,0,0.2h1.6v0.5H9.4c0.2,0.2,0.4,0.4,0.5,0.5c0.2,0.1,0.5,0.3,0.9,0.4l-0.3,0.5c-0.5-0.2-0.8-0.3-1-0.5
				c-0.2-0.1-0.3-0.3-0.5-0.5c-0.1,0.1-0.2,0.3-0.3,0.4C8.5,86.8,8,87,7.4,87.2l-0.3-0.5c0.6-0.1,1-0.3,1.3-0.6
				c0.1-0.1,0.2-0.2,0.2-0.3H7.3v-0.5H8.7z M8.9,83.3c0.1-0.1,0.3-0.3,0.4-0.4H8.3C8.2,83,8,83.2,7.9,83.3H8.9z M9.3,83.9
				c0,0.1-0.1,0.2-0.1,0.3c0.3,0.2,0.5,0.4,0.7,0.6l-0.3,0.4c-0.2-0.2-0.4-0.5-0.7-0.6c-0.1,0.2-0.4,0.4-0.7,0.5l-0.2-0.5
				c0.2-0.1,0.4-0.2,0.5-0.3c0.1-0.1,0.2-0.2,0.3-0.5L9.3,83.9z"/>
			<path class="st0" d="M16.1,82.6v0.5h-2v3.3h2.2v0.5h-5v-0.5h2.2v-3.3h-2v-0.5H16.1z"/>
			<path class="st0" d="M18.9,82.6c-0.2,0.1-0.4,0.1-0.7,0.2v0.8h0.7v0.5h-0.7v0.3c0.3,0.3,0.5,0.5,0.8,0.8l-0.3,0.4
				c-0.2-0.3-0.3-0.5-0.5-0.7v2.3h-0.5v-2.3c0,0,0,0.1,0,0.1c-0.2,0.4-0.4,0.8-0.7,1.2l-0.2-0.5c0.3-0.4,0.6-0.9,0.9-1.5h-0.8v-0.5
				h0.8v-0.7c-0.2,0-0.4,0.1-0.6,0.1L17,82.5c0.6-0.1,1.2-0.2,1.7-0.3L18.9,82.6z M21.8,84.6c-0.3,0.1-0.7,0.2-1.2,0.2v0.6h1.2v0.4
				h-1.2v0.7H22v0.5h-3.3v-0.5h1.5v-0.7H19v-0.4h1.1v-0.6c-0.3,0-0.7,0-1.1,0l-0.2-0.5c1,0,1.9-0.1,2.6-0.3L21.8,84.6z M21.7,82.3
				V84h-2.6v-1.6H21.7z M21.2,82.7h-1.6v0.8h1.6V82.7z"/>
		</g>
	</g>
	<g>
		<g>
			<path class="st0" d="M4,7.2H1.3v0.8H0.4V0.7H4V7.2z M3.1,3.4V1.6H1.3v1.9H3.1z M3.1,6.3v-2H1.3v2H3.1z M5,0.4h4.4v7.7
				c0,0.3-0.1,0.6-0.3,0.7C8.9,9,8.7,9.1,8.4,9.1H6.8L6.6,8.2L8,8.2c0.2,0,0.3-0.1,0.3-0.4V6.1H5.8c-0.1,0.4-0.2,0.7-0.3,1
				C5.2,7.8,4.6,8.5,3.7,9.3L2.9,8.6C3.7,8,4.2,7.4,4.5,6.8C4.8,6.2,5,5.4,5,4.3V3.7V0.4z M8.4,5.2V3.7H6v0.7c0,0.3,0,0.6,0,0.9H8.4
				z M8.4,2.8V1.3H6v1.4H8.4z"/>
			<path class="st0" d="M19.5,9.2h-1V8.5h-5.2v0.7h-1V0.4h7.2V9.2z M18.5,3.9V1.4h-5.2v2.5H18.5z M18.5,7.6V4.9h-5.2v2.7H18.5z"/>
			<path class="st0" d="M25.7,6.7C25,7.5,24.1,8.2,23,8.9L22.3,8c1-0.5,1.8-1.2,2.6-1.9L25.7,6.7z M31.4,1c-1.3,0.2-2.8,0.4-4.6,0.5
				c-0.3,0.4-0.7,0.9-1.2,1.4c0.8,0,1.6-0.1,2.3-0.1c0.4-0.3,0.8-0.7,1.2-1.1l0.9,0.4c-1.3,1.2-2.7,2.3-4,3.1c1.5,0,2.7-0.1,3.7-0.2
				c-0.2-0.4-0.5-0.7-0.7-1.1l0.7-0.4c0.8,1,1.4,1.9,1.8,2.6l-0.9,0.6c-0.1-0.3-0.3-0.6-0.5-1c-0.7,0.1-1.6,0.2-2.6,0.2v2.3
				c0,0.4-0.1,0.6-0.3,0.8c-0.2,0.2-0.5,0.2-0.9,0.2h-0.9l-0.2-1c0.3,0.1,0.6,0.1,0.9,0.1c0.3,0,0.5-0.1,0.5-0.2V5.9
				C25.6,6,24.3,6.1,23,6.1l-0.3-0.9c0.7,0,1.3,0,1.9,0c0.8-0.5,1.6-1,2.4-1.6c-1.1,0.1-2.3,0.2-3.7,0.3L23.1,3c0.4,0,0.8,0,1.2,0
				c0.6-0.4,1-0.9,1.4-1.4c-0.9,0-1.9,0-2.9,0l-0.3-0.8c3.3,0,6.1-0.2,8.4-0.6L31.4,1z M31.7,8.1L31,8.8c-0.6-0.7-1.4-1.4-2.5-2.1
				l0.7-0.6C30.2,6.8,31,7.4,31.7,8.1z"/>
			<path class="st0" d="M35.9,0.3c-0.3,0.9-0.7,1.8-1.1,2.5c0.3,0,0.6-0.1,0.9-0.1c0.2-0.4,0.5-0.9,0.7-1.4l0.8,0.3
				c-0.7,1.5-1.5,2.8-2.2,3.7c0.5-0.1,1-0.1,1.4-0.3c-0.1-0.3-0.2-0.6-0.3-0.8L36.8,4c0.2,0.6,0.5,1.3,0.6,2.1l-0.8,0.2
				c0-0.2-0.1-0.3-0.1-0.5c-0.7,0.2-1.6,0.3-2.9,0.5l-0.3-0.9c0.2,0,0.5,0,0.6,0c0.4-0.5,0.8-1.1,1.2-1.9c-0.5,0.1-1.1,0.2-1.8,0.3
				L33.3,3c0.2,0,0.4,0,0.6,0c0.5-0.9,0.9-1.8,1.2-2.9L35.9,0.3z M34.4,6.6c-0.1,1-0.2,1.8-0.3,2.5l-0.9-0.2
				c0.2-0.7,0.3-1.5,0.4-2.3L34.4,6.6z M35.9,8.7l-0.9,0.1c0-0.9-0.1-1.7-0.1-2.2l0.7-0.1C35.8,7.1,35.9,7.8,35.9,8.7z M37.3,8
				l-0.8,0.2c-0.1-0.6-0.2-1.2-0.4-1.7l0.7-0.2C37,6.8,37.2,7.4,37.3,8z M40.6,1.2h2.2v0.8h-3c-0.2,0.7-0.5,1.3-0.8,1.9
				c0.9,0,1.7-0.1,2.3-0.3c-0.1-0.2-0.3-0.5-0.4-0.7l0.7-0.4c0.6,0.8,1,1.5,1.3,2.1l-0.9,0.5c-0.1-0.2-0.2-0.5-0.4-0.8
				c-0.2,0-0.4,0.1-0.7,0.1v3.5c0,0.2,0.1,0.3,0.3,0.3h0.4c0.1,0,0.2,0,0.2-0.2c0-0.1,0.1-0.7,0.1-1.6L43,6.6
				c-0.1,1.2-0.2,1.8-0.3,2C42.5,8.9,42.3,9,41.9,9h-0.9c-0.3,0-0.5-0.1-0.7-0.2c-0.2-0.2-0.2-0.4-0.2-0.6V4.6
				c-0.2,0-0.4,0.1-0.6,0.1c-0.1,1.2-0.2,2.2-0.5,2.8c-0.3,0.7-0.8,1.3-1.6,1.8l-0.6-0.7c0.7-0.4,1.1-0.9,1.3-1.5
				c0.2-0.5,0.4-1.2,0.4-2.3c-0.4,0-0.7,0.1-1.1,0.1l-0.2-0.9c0.3,0,0.5,0,0.7,0c0.4-0.6,0.7-1.3,0.9-2h-1.7V1.2h2.4
				c-0.1-0.3-0.3-0.5-0.5-0.8L40,0C40.3,0.4,40.5,0.7,40.6,1.2z"/>
			<path class="st0" d="M51.1,0.3c-0.1,0.2-0.2,0.3-0.3,0.4h2.8v0.8H52c0,0.3-0.1,0.6-0.1,0.8h1.9v0.8h-1.9c0.7,0.4,1.4,0.7,1.9,1.1
				l-0.7,0.6c-0.4-0.3-1-0.7-1.7-1.1c0,0,0,0,0,0c-0.2,0.4-0.7,0.8-1.3,1.2h7.3v4.3h-1V8.8h-5.5v0.4h-1V5.1
				c-0.2,0.1-0.5,0.2-0.7,0.4l-0.6-0.7c0.9-0.4,1.5-0.7,1.9-1.1c0.1-0.1,0.2-0.3,0.3-0.4h-2V2.3H51c0.1-0.2,0.1-0.5,0.1-0.8h-0.8
				c-0.2,0.2-0.5,0.4-0.8,0.6l-0.7-0.6c0.4-0.2,0.7-0.5,1-0.7c0.2-0.2,0.4-0.5,0.6-0.8L51.1,0.3z M56.4,6.5V5.8h-5.5v0.7H56.4z
				 M56.4,8V7.3h-5.5V8H56.4z M57.9,0.7v3.6H54V0.7H57.9z M56.9,1.5h-2v2h2V1.5z"/>
			<path class="st0" d="M61.5,7.2c-0.2,0.4-0.4,0.7-0.5,0.9c-0.1,0.2-0.4,0.5-0.7,0.8l-0.7-0.6c0.3-0.2,0.5-0.4,0.7-0.7
				c0.2-0.2,0.3-0.5,0.4-0.8L61.5,7.2z M61.9,0.5V0.1h0.9v0.4h1.5v0.7h-1.5v0.4h1.4v0.6h-1.4v0.4l1.4-0.1l0.1,0.7l-1.5,0.1v0.5h3.4
				V3.4h-1.6V2.8h1.6V2.2h-1.6V1.6h1.6V1.2h-1.6V0.5h1.6V0.1h0.9v0.4H69v0.7h-1.9v0.4h1.8v0.6h-1.8v0.5h2v0.7h-2v0.4h1.3v1.1h1v0.6
				h-1v1.1h-7.9V6h7V5.5h-7.6V4.9h7.6V4.5h-7V3.8h1.5V3.4l-1.8,0.1L60,2.8l1.9-0.1V2.2h-1.7V1.6h1.7V1.2H60V0.5H61.9z M62.9,7v1
				c0,0.2,0.1,0.3,0.4,0.3h2.4c0.3,0,0.5,0,0.6-0.1c0.1-0.1,0.2-0.3,0.3-0.8l0.9,0.3c-0.1,0.7-0.3,1.1-0.5,1.2
				c-0.2,0.1-0.6,0.2-1.1,0.2h-2.9c-0.3,0-0.5-0.1-0.7-0.2C62,8.7,62,8.5,62,8.2V7H62.9z M65.6,7.3L65.1,8c-0.4-0.3-0.8-0.6-1.1-0.7
				l0.4-0.6C64.8,6.8,65.2,7,65.6,7.3z M69.2,8.2l-0.8,0.5c-0.3-0.5-0.7-1-1.2-1.6l0.7-0.4C68.5,7.3,68.9,7.8,69.2,8.2z"/>
			<path class="st0" d="M78.9,2.3v0.8h-2.2c-0.3,0.2-0.6,0.4-0.8,0.6c0.4,0.4,0.6,0.9,0.8,1.3c0.8-0.3,1.5-0.8,2.2-1.4l0.7,0.7
				c-0.4,0.4-0.9,0.7-1.4,1c0.2,0.5,0.5,1,0.9,1.4c0.3,0.4,0.8,0.9,1.4,1.3l-0.7,0.8c-0.7-0.6-1.2-1.2-1.6-1.8
				c-0.3-0.4-0.6-0.9-0.8-1.4c-0.2,0.1-0.3,0.1-0.5,0.2C77,6.2,77,6.7,77,7.1c0,0.8-0.1,1.3-0.3,1.6c-0.3,0.3-1,0.5-2.2,0.5l-0.3-1
				c0,0,0.2,0.1,0.6,0.1c0.5,0,0.9-0.1,1-0.2C75.9,7.9,76,7.6,76,7.1c0-0.1,0-0.3,0-0.4c-0.6,0.4-1.1,0.8-1.6,1
				c-0.8,0.4-1.7,0.7-2.9,1.1L71,7.9c1.1-0.3,2.1-0.6,3-1c0.7-0.3,1.3-0.7,1.8-1.1c0-0.1-0.1-0.2-0.1-0.3c0-0.1-0.1-0.2-0.1-0.3
				c-0.6,0.4-1.1,0.7-1.5,0.9c-0.7,0.3-1.5,0.6-2.5,0.9l-0.5-0.8c1-0.2,1.9-0.5,2.7-0.8c0.6-0.2,1.1-0.5,1.5-0.8
				c-0.1-0.1-0.2-0.2-0.3-0.4c-0.9,0.4-2,0.7-3.2,1l-0.5-0.8c1.3-0.2,2.3-0.5,3.1-0.7c0.3-0.1,0.6-0.2,0.9-0.3h-2.9V2.3H78.9z
				 M76,0.8h4.1v2h-0.9V1.7H72v1.2h-0.9v-2H75c-0.1-0.2-0.3-0.4-0.4-0.6l1.1-0.1C75.8,0.3,75.9,0.5,76,0.8z"/>
		</g>
	</g>
	<g>
		<g>
			<path class="st1" d="M14.5,15.2l1.7,1.8c-0.1,0.2-0.4,0.2-0.7,0.2c-0.5,1.1-1.6,3-2.3,4.1c2,1.3,2.9,2.6,2.9,4v0.1
				c0,1.7-0.7,2.8-2.7,2.9c0-1.2-0.4-1.4-1.1-1.5v-0.2h1.2c0.5,0,0.7-0.5,0.7-1.3c0-1.3-0.4-2.7-1.5-3.9c0.3-1.2,0.7-3.4,0.9-4.8
				h-1.5v13.6c0,0.2-0.5,0.6-1.4,0.6h-0.3V18.4c-0.5,0.3-0.9,0.8-1.1,1.3c-0.7-0.4-1.3-1-1.7-1.6H6.6v1.6h0.9l0.6-0.8L9.8,20
				c-0.1,0.1-0.3,0.2-0.6,0.3v4.4c0,0.1-0.5,0.4-1.3,0.4H7.7v-0.6H2.5v0.3c0,0.1-0.5,0.5-1.2,0.5H1v-5.7c-0.3,0.2-0.5,0.3-0.8,0.4
				L0,19.7c0.9-0.9,1.6-2.3,2-3.7l2.1,0.8C4.1,16.9,4,17,3.8,17c-0.1,0-0.1,0-0.2,0c-0.2,0.3-0.3,0.5-0.6,0.8h3.3l0.7-0.9
				c-0.1-0.3-0.2-0.6-0.3-1H3.4l-0.1-0.3h3.2L7,14.7l1.5,1C8.3,15.8,7.8,16,7.2,16c0.5,0.9,1.8,1.6,3.2,2v-2.5l1.9,0.8h1.2
				L14.5,15.2z M7.6,26.5l0.9-1.2l1.8,1.3c-0.1,0.2-0.4,0.3-0.8,0.3h-4c-0.1,0.2-0.1,0.4-0.2,0.6c2.8,0.1,3.7,1.2,3.7,2
				c0,0.5-0.3,0.8-0.8,0.8c-0.2,0-0.3-0.1-0.5-0.2c-0.5-0.9-1.5-1.8-2.5-2.3c-0.6,1.2-1.9,2.2-4.9,3l-0.1-0.2c2.6-1,3.5-2.2,3.7-3.7
				H0.2l-0.1-0.3h3.8C4,25.9,4,25.3,4,24.6l2.3,0.2c0,0.2-0.1,0.3-0.6,0.4c0,0.5-0.1,0.9-0.1,1.4H7.6z M3.3,18.1H2.7
				c-0.4,0.4-0.8,0.8-1.3,1.1l1.2,0.5h0.6V18.1z M7.7,22C7.5,22,7.3,22.1,7,22.1c-1.5,0-1.6,0-1.6-1.5V20H4.5
				c-0.1,0.9-0.6,1.8-2,2.4v0.3h5.2V22z M2.5,20v2c0.6-0.6,0.7-1.3,0.8-2H2.5z M2.5,24.1h5.2V23H2.5V24.1z M5.4,19.7v-1.6H4.6v1.2
				c0,0.1,0,0.3,0,0.4H5.4z M7.7,20H6.6v0.5c0,0.4,0,0.4,0.1,0.4c0.5,0,0.6,0,0.8-0.5h0.1L7.7,21h0L7.7,20z"/>
			<path class="st1" d="M24.2,17.1l1.6,1.2c-0.1,0.2-0.3,0.3-0.8,0.3h-6.2l-0.1-0.3h4.7L24.2,17.1z M19.5,20.4h3.1l0.8-1.1l1.5,1.1
				c-0.1,0.2-0.4,0.3-0.8,0.3h-4.5L19.5,20.4z M25,22.7c-0.1,0.2-0.4,0.3-0.8,0.3h-4.5l-0.1-0.3h3.1l0.8-1.1L25,22.7z M22.9,24.9
				l0.6-0.8l1.8,1.3c-0.1,0.1-0.3,0.3-0.7,0.3v4c0,0-0.4,0.5-1.6,0.5V29h-1.9v1.2c0,0-0.2,0.6-1.6,0.6v-6.5l1.7,0.7H22.9z
				 M24.9,16.1c-0.1,0.2-0.4,0.3-0.8,0.3h-4.5L19.6,16h2.9l0.8-1.1L24.9,16.1z M21.1,28.6H23v-3.4h-1.9V28.6z M33.4,22.4l1.5,1.3
				c-0.1,0.2-0.3,0.3-0.8,0.3h-1.9v4.5c0,1.2-0.3,2.1-2.4,2.3c0-1.3-0.5-1.6-1.9-1.8v-0.2h2.2c0.2,0,0.3-0.1,0.3-0.3V24h-5.4
				L25,23.6h5.5v-2.3l2.4,0.2c0,0.2-0.1,0.3-0.7,0.4v1.7h0.3L33.4,22.4z M26,17.8l-0.1-0.3h3v-2.7l2.5,0.2c0,0.3-0.2,0.4-0.7,0.4v2
				h0.8l1-1.2l1.8,1.3c-0.1,0.2-0.3,0.3-0.8,0.3h-2.8v2.9h1.5l1-1.3l1.8,1.3c-0.1,0.2-0.4,0.3-0.8,0.3h-8.9l-0.1-0.3h3.8v-2.9H26z
				 M26.1,24.7c2.2,0.4,2.9,1.3,2.9,2.1c0,0.6-0.5,1.1-1,1.1c-0.3,0-0.6-0.1-0.8-0.4c-0.1-0.9-0.5-2-1.2-2.6L26.1,24.7z"/>
			<path class="st1" d="M51.8,17.9l1.7,1.3c-0.1,0.2-0.4,0.3-0.8,0.3h-1.5v4.1c0,0.1-0.5,0.5-1.4,0.5l1.7,1.2
				c-0.1,0.1-0.3,0.3-0.6,0.3v4.4c0,0-0.5,0.4-1.9,0.4v-1.1H42v0.6c0,0-0.3,0.6-1.8,0.6v-6.5l-0.3,0c0-1.1-0.3-1.4-1.7-1.6v-0.2h1.9
				c0.2,0,0.3-0.1,0.3-0.3v-1.4c-0.5,0.2-1.1,0.3-1.6,0.5c-0.1,0.2-0.3,0.3-0.5,0.4l-0.8-1.9c0.6,0,1.6-0.1,2.9-0.2v-1.9h-2.7
				l-0.1-0.3h2.8v-2.5l2.4,0.2c0,0.2-0.1,0.3-0.7,0.4v1.9h0.5l0.9-1.2l1.6,1.3c-0.2,0.2-0.4,0.3-0.8,0.3h-2.2v1.8
				c0.9-0.1,1.9-0.2,2.9-0.3l0,0.2c-0.8,0.3-1.8,0.6-3,0.9v1.9c0,1-0.2,1.8-1.8,2l1.8,0.7h6.8l0.6-0.8h0v-4.6h-2
				c-0.1,1.6-0.7,3.5-3.7,4.7L43.6,24c1.9-1.5,2.1-3.4,2.1-5.2v-2.9l1.9,0.6c1.3-0.5,2.7-1.2,3.5-1.7l1.7,1.6
				c-0.1,0.1-0.2,0.1-0.4,0.1c-0.2,0-0.4-0.1-0.6-0.1c-1.1,0.3-2.8,0.5-4.4,0.6v2.2h3.5L51.8,17.9z M42,29.2H49v-3.9H42V29.2z"/>
		</g>
	</g>
</g>
</svg>
