<?xml version="1.0" encoding="utf-8"?>
<!-- Generator: Adobe Illustrator 27.0.0, SVG Export Plug-In . SVG Version: 6.00 Build 0)  -->
<svg version="1.1" id="圖層_1" xmlns="http://www.w3.org/2000/svg" xmlns:xlink="http://www.w3.org/1999/xlink" x="0px" y="0px"
	 viewBox="0 0 400 282" style="enable-background:new 0 0 400 282;" xml:space="preserve">
<style type="text/css">
	.st0{fill:#40220F;}
	.st1{fill:#D8B167;}
	.st2{fill:#FFFFFF;stroke:#FFFFFF;stroke-width:0.5;stroke-miterlimit:10;}
	.st3{fill:none;stroke:#D8B167;stroke-width:0.5;stroke-miterlimit:10;}
	.st4{fill:none;stroke:#D8B167;stroke-miterlimit:10;}
</style>
<path class="st0" d="M262,68.9l1.4,1.6c-0.1,0.2-0.3,0.2-0.7,0.2c-0.5,1-1.6,2.9-2.3,4c2.2,1.6,2.7,2.9,2.7,4c0,1.6-0.6,2.6-2.4,2.7
	c0-0.9-0.2-1.1-1.1-1.3v-0.2h1.3c0.7,0,0.8-0.8,0.8-1.3c0-1.3-0.5-2.6-1.7-3.8c0.4-1.1,0.9-3.2,1.3-4.5h-2.2v14c0,0.1-0.4,0.5-1,0.5
	h-0.2V69.1l1.5,0.6h1.9L262,68.9z M270.6,70.9l1.5,1.2c-0.1,0.3-0.3,0.3-0.8,0.3h-4.2c0,0.2-0.2,0.3-0.6,0.3c0,1-0.1,2-0.2,3h3
	l0.6-0.8l1.5,1.2c-0.1,0.1-0.3,0.2-0.6,0.3c-0.1,4.3-0.4,6.9-1.1,7.5c-0.5,0.4-0.9,0.6-1.8,0.6c0-0.8-0.1-1.1-1.8-1.3V83
	c0.6,0.1,1.7,0.1,2.1,0.1c0.3,0,0.4,0,0.6-0.2c0.5-0.4,0.7-2.9,0.8-6.7h-3.1c-0.4,3-1.4,6.1-4.8,8.4l-0.2-0.3
	c3.8-3.5,3.8-7.9,3.9-11.9h-2.5l-0.1-0.4h3.7v-3.4l2,0.2c0,0.3-0.2,0.4-0.7,0.5v2.7h2.3L270.6,70.9z"/>
<path class="st0" d="M277.6,72.8l1.3,1.2c-0.1,0.1-0.3,0.2-0.6,0.2c-0.7,3.3-2.2,6.7-5.2,8.9l-0.1-0.3c2.3-2.2,3.5-5.6,4-8.9h-3.7
	l-0.1-0.4h3.7L277.6,72.8L277.6,72.8z M281.1,71.3c0.4,2,1,3.6,1.7,5c1.2-1.3,2.6-3.2,3.3-4.4l1.7,1.1c-0.1,0.1-0.2,0.2-0.4,0.2
	c-0.1,0-0.2,0-0.3,0c-1,1-2.6,2.4-4.2,3.4c1.4,2.4,3.2,3.9,5,5l0,0.2c-0.6,0.1-1,0.6-1.2,1.2c-2.7-2.2-4.7-5.1-5.7-10.5v10.1
	c0,1.1-0.2,1.9-2,2.1c0-1-0.6-1.3-2-1.4V83h2.3c0.3,0,0.4-0.1,0.4-0.4V68.6l2,0.2c0,0.3-0.1,0.4-0.7,0.5L281.1,71.3L281.1,71.3z"/>
<path class="st0" d="M288.9,77.6c1.3-2,2.6-5.5,3.4-8.9l1.9,0.6c-0.1,0.2-0.2,0.3-0.6,0.3c-0.4,1.2-0.9,2.5-1.4,3.6l0.6,0.2
	c-0.1,0.2-0.2,0.3-0.5,0.3v10.4c0,0.1-0.5,0.4-1,0.4H291v-9.2c-0.6,0.9-1.2,1.7-1.9,2.4L288.9,77.6L288.9,77.6z M303.9,77.5
	c-0.1,0.2-0.3,0.3-0.8,0.3h-3.7c1,1.9,2.8,3.6,4.5,4.4l0,0.2c-0.5,0.1-0.9,0.5-1,1.1c-1.5-1.2-2.9-3.2-3.7-5.6v6.2
	c0,0-0.2,0.4-1.3,0.4v-5.4c-1.1,1.8-2.8,3.3-4.9,4.4l-0.2-0.3c1.9-1.4,3.4-3.5,4.3-5.6h-3.8l-0.1-0.4h4.6v-2.7h-2v0.5
	c0,0.1-0.4,0.4-1,0.4h-0.2v-6.4l1.4,0.6h4.9l0.6-0.8l1.4,1.2c-0.1,0.1-0.3,0.2-0.6,0.3v4.6c0,0.1-0.5,0.4-1.1,0.4h-0.2v-0.8h-1.5
	c-0.1,0.1-0.2,0.2-0.5,0.2v2.5h2.3l0.8-1.2L303.9,77.5L303.9,77.5z M295.9,74.3h5.2v-4h-5.2V74.3z"/>
<path class="st0" d="M317.9,69.2l1.5,1.2c-0.1,0.1-0.4,0.3-0.7,0.4v13.1c0,0.1-0.4,0.5-1.3,0.5v-1.2h-10.3V84c0,0-0.1,0.6-1.3,0.6
	V69.4l1.4,0.7h10L317.9,69.2L317.9,69.2z M307.2,82.8h10.3V70.4h-10.3V82.8z M315.6,72.9l1.4,1.1c-0.1,0.2-0.3,0.3-0.8,0.3h-3.4v2.7
	h1.3l0.5-0.7l1.4,1.1c-0.1,0.1-0.3,0.2-0.6,0.3v3.7c0,0-0.3,0.4-1.2,0.4v-0.8h-4v0.5c0,0-0.2,0.4-1.2,0.4v-5.5l1.2,0.6h1.3v-2.7
	h-3.8l-0.1-0.4h3.9v-2.8l1.9,0.2c0,0.3-0.2,0.4-0.7,0.4v2.1h2L315.6,72.9z M314.3,77.3h-4v3.2h4V77.3z"/>
<path class="st0" d="M277.4,104.7c0.5-0.2,1.2-0.2,2.1-0.2c0.9,0,1.7,0.2,2.4,0.5c0.7,0.3,1.3,0.8,1.8,1.3c0.5,0.6,0.9,1.2,1.2,1.9
	c0.3,0.7,0.4,1.5,0.4,2.3c0,1-0.2,2-0.5,2.9c-0.4,0.9-0.9,1.7-1.5,2.3c-0.7,0.7-1.4,1.2-2.4,1.5c-0.9,0.4-1.9,0.6-3.1,0.6
	c-0.9,0-1.8-0.1-2.6-0.2c-0.8-0.2-1.6-0.5-2.2-1v-0.3c0.1-0.3,0.2-0.6,0.3-1c0.1-0.4,0.1-0.7,0.2-0.9h0.2c0.2,0.4,0.4,0.7,0.7,1
	c0.3,0.3,0.7,0.6,1,0.8c0.4,0.2,0.8,0.4,1.2,0.4c0.4,0.1,0.9,0.2,1.2,0.2c0.6,0,1.2-0.1,1.7-0.4c0.5-0.2,1-0.6,1.5-1.1
	c0.4-0.5,0.8-1.1,1-1.9c0.3-0.8,0.4-1.6,0.4-2.7c0-0.9-0.1-1.7-0.4-2.3c-0.2-0.6-0.6-1.2-0.9-1.6c-0.4-0.4-0.8-0.7-1.3-0.9
	s-1-0.3-1.6-0.3c-0.8,0-1.5,0.2-2,0.4c-0.5,0.3-0.9,0.5-1,0.6l-0.3-0.2c0.1-0.8,0.2-1.7,0.3-2.7s0-1.9,0-2.8s0-1.8,0-2.8
	s-0.1-1.8-0.2-2.5l0.3-0.2c0.3,0.1,0.9,0.1,1.7,0.2c0.9,0.1,2.1,0.1,3.7,0.1c1,0,1.8,0,2.6,0c0.7,0,1.3,0,1.7,0l0.1,0.1
	c-0.1,0.3-0.1,0.6-0.2,0.9c0,0.3-0.1,0.6-0.1,0.9c0,0.3,0,0.5,0,0.6c-0.4-0.1-1-0.2-1.8-0.2c-0.7-0.1-1.5-0.1-2.3-0.1
	c-0.8,0-1.6,0-2.3-0.1s-1.3,0-1.8,0l-0.4,7.4C276.5,105,276.9,104.8,277.4,104.7L277.4,104.7z"/>
<path class="st0" d="M303.2,111.9l1.9,1.4c-0.1,0.3-0.3,0.4-0.9,0.4h-6.1v4.9c0,0.1-0.5,0.5-1.2,0.5h-0.3v-5.4h-7.8l-0.1-0.4h3v-5.5
	l1.6,0.7h3.2v-3.7H293c-1.1,2-2.4,3.5-3.9,4.6l-0.2-0.2c1.5-1.7,2.9-4.8,3.8-8l2.1,0.8c-0.1,0.2-0.2,0.3-0.7,0.3
	c-0.3,0.7-0.6,1.4-0.9,2h8.2l1-1.3l1.8,1.4c-0.1,0.3-0.3,0.4-0.8,0.4h-5.3v3.7h2.8l0.9-1.2l1.7,1.3c-0.1,0.3-0.3,0.4-0.8,0.4h-4.6
	v4.4h4.2L303.2,111.9L303.2,111.9z M293.1,113.2h3.5v-4.4h-3.5V113.2z"/>
<path class="st1" d="M292.4,53.3c-0.3,0.1-0.6,0.2-0.9,0.3c-11.8,3.2-23.1-8.6-18.5-20.1c2.9-7.4,8.1-14.1,13.3-20.2
	c0.5-0.6,1.7-0.6,2.2,0c2.6,3.1,5.1,6.3,7.4,9.6c2.1,3,4.6,6.6,6,10.3c-0.7-0.4-1.4-0.7-2-1.2l-2-1.2l-2,1.2c-2,1.2-4.1,2.2-6.4,2.9
	l-2.5,0.8l0.7,8.6C287.9,48,289.7,51.2,292.4,53.3L292.4,53.3z"/>
<path class="st1" d="M305.7,36.4c-1.1-0.3-2.2-0.7-3.2-1.2c-1.2-0.5-2.4-1.2-3.5-1.8l-1.2-0.8l-1.2,0.8c-2.1,1.3-4.4,2.3-6.7,3
	l-1.4,0.4l0.6,7.4c0.3,3.5,2.2,6.6,5,8.4c1.1,0.7,2.4,1.2,3.7,1.4c2.4-0.4,4.5-1.6,6-3.4c1.5-1.7,2.5-4,2.7-6.5l0.6-7.4L305.7,36.4
	L305.7,36.4z M302.6,41.6l-5.3,6.7l-4.3-2.9l1.4-2.1l2.4,1.6l5.2-6.5l1,0.8l1,0.8L302.6,41.6L302.6,41.6z"/>
<path class="st0" d="M67.7,221.1c0.2-0.5,0.3-1.2,0.5-1.7H57.8c0,1.4-0.8,2.2-1.6,2.2c-0.4,0-0.7-0.2-0.7-0.6c0-0.3,0.2-0.6,0.5-0.8
	c0.6-0.3,1.4-1.1,1.4-2h0.3c0.1,0.3,0.1,0.6,0.1,0.9h4.3v-2.2l2,0.2c0,0.3-0.2,0.4-0.7,0.5v1.6h4.6l0.8-0.8l1.4,1.4
	c-0.1,0.1-0.3,0.1-0.6,0.2c-0.4,0.5-1,1.1-1.6,1.6l0.5,0.3c-0.1,0.2-0.3,0.3-0.8,0.3h-6.1l0.9,0.4c-0.1,0.1-0.2,0.2-0.3,0.2
	c-0.1,0-0.2,0-0.2,0c-0.5,0.8-1.3,1.7-2.2,2.4c1.9,0,4.3-0.1,6.8-0.2c-0.6-0.6-1.3-1.1-2-1.4l0.1-0.2c3.3,0.5,4.4,1.9,4.4,2.8
	c0,0.4-0.2,0.7-0.6,0.7c-0.1,0-0.3,0-0.4-0.1c-0.2-0.4-0.6-0.9-1.1-1.3c-2.1,0.3-5,0.7-9.1,1.1c-0.1,0.2-0.3,0.3-0.4,0.4l-0.9-1.7
	c0.6,0,1.5,0,2.5,0c0.5-0.9,1.1-2,1.4-2.9h-3.2l-0.1-0.4h9l0.8-1L67.7,221.1L67.7,221.1z M67.7,231.8l0.8-1.1l1.6,1.2
	c-0.1,0.2-0.3,0.3-0.8,0.3H55.6l-0.1-0.4h6.6v-3h-5l-0.1-0.4h5.1v-2.2l2,0.2c0,0.2-0.2,0.4-0.7,0.4v1.6h3l0.8-1.1l1.5,1.1
	c-0.1,0.2-0.3,0.3-0.8,0.3h-4.6v3H67.7z"/>
<path class="st0" d="M84,220.2l1.6,1.2c-0.1,0.1-0.3,0.3-0.7,0.3v9.1c0,1-0.2,1.7-2,1.9c0-1.1-0.8-1.3-1.9-1.4v-0.2h2.2
	c0.2,0,0.4-0.1,0.4-0.3v-9.4h-4.4c0.7,2.4,2,4.4,4.3,5.6c0,0,0,0.1-0.1,0.2c-0.5,0.2-0.9,0.6-1,1c-1.9-1.3-2.9-3.1-3.6-5.5
	c-0.6,2-1.9,4.2-4.5,5.5l-0.2-0.2c2.3-1.7,3.4-4.5,3.8-6.6h-4.1v10.8c0,0-0.1,0.5-1.3,0.5v-12.4l1.4,0.7h4.5c-0.2-0.9-0.3-1.9-0.4-3
	h-2.6l-0.1-0.4h2.4l0.6-0.9l1.5,1.1c-0.2,0.2-0.6,0.4-1.2,0.4c0.1,0.9,0.3,1.8,0.5,2.7h4.3L84,220.2L84,220.2z"/>
<path class="st0" d="M90.3,222.2v5.8c0.8-0.2,1.7-0.4,2.5-0.6l0.1,0.2c-1,0.6-2.5,1.4-4.6,2.4c-0.1,0.2-0.2,0.4-0.4,0.4l-0.8-1.8
	c0.4-0.1,1.1-0.2,2-0.4v-6.1h-1.8l-0.1-0.4h1.9v-4.5l2,0.2c0,0.3-0.2,0.4-0.7,0.4v3.9h0.5l0.7-1.2l1.3,1.2c-0.1,0.2-0.3,0.3-0.8,0.3
	L90.3,222.2L90.3,222.2z M101.4,228.5l0,2.4c0.6,0.2,0.7,0.3,0.7,0.5c0,0.6-0.5,0.9-2.3,0.9h-4.2c-1.7,0-2.2-0.4-2.2-2.1v-5.9
	l-1.6,0.8l-0.2-0.3l1.8-0.9v-5.4l1.9,0.2c0,0.3-0.1,0.4-0.7,0.4v4.1l2-1v-5.5l1.9,0.2c0,0.3-0.2,0.4-0.6,0.4v4.2l1.8-0.9l0.5-1.1
	l1.6,1c-0.1,0.2-0.4,0.4-0.7,0.5v5.5c0,0.9-0.2,1.6-1.7,1.7c0-1,0-1.2-0.9-1.3v-0.2h1.1c0.2,0,0.3-0.1,0.3-0.2v-5.5l-2,1v6.4
	c0,0-0.2,0.5-1.2,0.5v-6.3l-2,1v6.6c0,0.7,0.1,0.8,0.9,0.8h4.3c0.3,0,0.6,0,0.7-0.3c0.2-0.2,0.4-1.2,0.8-2.3H101.4L101.4,228.5z"/>
<path class="st0" d="M104.8,227.8v-3.5c-0.3,1-0.8,1.9-1.6,2.7l-0.2-0.2c1-1.9,1-4.2,1-6.2v-3.3l1.4,0.6h2.8l0.5-0.7l1.5,1.1
	c-0.1,0.1-0.4,0.3-0.7,0.3v2.8c0,0-0.3,0.4-1.2,0.4v-0.7h-3.2c0,0.5,0,1.1-0.1,1.6l1,0.5h2.2l0.5-0.7l1.4,1.1
	c-0.1,0.1-0.3,0.3-0.6,0.3v3c0,0.1-0.4,0.4-1.2,0.4v-0.8h-2.6v0.9c0,0.1-0.4,0.4-1,0.4L104.8,227.8L104.8,227.8z M115.5,231.8
	l0.8-1.2l1.6,1.2c-0.1,0.2-0.3,0.3-0.8,0.3h-13.9l-0.1-0.4h6.7v-2.5h-4.9l-0.1-0.4h5V227l2,0.2c0,0.3-0.2,0.4-0.7,0.5v1.3h2.8
	l0.8-1.1l1.5,1.2c-0.1,0.3-0.3,0.3-0.8,0.3h-4.4v2.5L115.5,231.8L115.5,231.8z M108.4,218.3h-3.2v2.4h3.2V218.3z M108.5,223.6h-2.6
	v2.6h2.6V223.6z M118,221.9c-0.1,0.2-0.3,0.3-0.8,0.3h-2.9v2.1h1.1l0.7-1l1.4,1c-0.1,0.3-0.3,0.3-0.7,0.3h-2.4v2.6
	c0,0.1-0.4,0.3-1,0.3h-0.2v-2.9h-2.6l-0.1-0.4h2.7v-2.1h-3l-0.1-0.4h4.3c0.2-0.8,0.4-1.9,0.6-2.7l1.8,0.5c-0.1,0.2-0.2,0.3-0.6,0.3
	c-0.4,0.6-0.9,1.4-1.4,2h1.1l0.7-1L118,221.9L118,221.9z M110.6,219l-0.1-0.4h2.7v-1.8l1.9,0.2c0,0.3-0.2,0.4-0.7,0.4v1.1h0.9l0.7-1
	l1.4,1c-0.1,0.3-0.3,0.3-0.7,0.3H110.6L110.6,219z M111.7,219.1c1.1,0.6,1.5,1.3,1.5,1.8c0,0.5-0.3,0.8-0.7,0.8
	c-0.2,0-0.3-0.1-0.5-0.3c0-0.1,0-0.2,0-0.3c0-0.7-0.2-1.4-0.5-1.9L111.7,219.1L111.7,219.1z"/>
<path class="st0" d="M123.5,222.8l1.4,1.1c-0.1,0.1-0.3,0.3-0.6,0.3v6.3c0,0-0.3,0.4-1.2,0.4v-1.1h-1.8v1.8c0,0.1-0.4,0.4-0.9,0.4
	h-0.2v-6.4c-0.3,0.6-0.7,1.1-1,1.6l-0.2-0.2c1.1-2.3,1.8-5.2,2.1-8.1h-1.9l-0.1-0.4h4.1l0.8-1.1l1.5,1.1c-0.1,0.2-0.3,0.3-0.8,0.3
	h-2.3c-0.2,1.6-0.6,3.2-1.1,4.6l0.4,0.2h1.4L123.5,222.8L123.5,222.8z M121.3,229.4h1.8v-5.5h-1.8V229.4z M131.7,228.2l0.7-1l1.4,1
	c-0.1,0.3-0.3,0.3-0.8,0.3h-1.8v2.4c0,1-0.2,1.6-1.7,1.8c0-0.9-0.4-1.2-1.5-1.2v-0.3h1.7c0.2,0,0.3-0.1,0.3-0.3v-2.5h-5.5l-0.1-0.4
	h5.6v-1.4l1.8,0.1c0,0.2-0.1,0.3-0.6,0.4v0.9H131.7L131.7,228.2z M125,218.8h3.6v-1.9l1.8,0.2c0,0.3-0.2,0.3-0.6,0.4v1.3h2l0.7-1
	l1.4,1.1c-0.1,0.3-0.3,0.3-0.8,0.3h-3.4v1.4h1.8l0.5-0.7l1.4,1.1c-0.1,0.1-0.2,0.2-0.6,0.3v3.5c0,0.1-0.4,0.3-1,0.3h-0.2v-0.6h-1.9
	v1.5l1.9-0.1c-0.2-0.3-0.5-0.5-0.8-0.7l0.1-0.2c2,0.2,2.6,1,2.6,1.6c0,0.4-0.2,0.7-0.6,0.7c-0.1,0-0.3-0.1-0.4-0.2
	c-0.1-0.3-0.3-0.6-0.6-0.9c-1.5,0.3-3.6,0.7-6.3,1.1c-0.1,0.2-0.2,0.3-0.4,0.3l-0.6-1.5c0.8,0,2.2-0.1,3.9-0.1v-1.5h-1.9v0.3
	c0,0.1-0.4,0.4-1,0.4h-0.2v-5.2l1.3,0.6h1.7v-1.3h-3.5L125,218.8L125,218.8z M125.8,228.9c1.8,0.2,2.4,1,2.4,1.6
	c0,0.4-0.3,0.8-0.7,0.8c-0.2,0-0.3-0.1-0.5-0.2c-0.1-0.7-0.7-1.6-1.3-2L125.8,228.9L125.8,228.9z M128.6,220.9h-1.9v1.4h1.9V220.9z
	 M126.8,224h1.9v-1.4h-1.9V224z M131.8,220.9h-1.9v1.4h1.9V220.9z M129.8,224h1.9v-1.4h-1.9V224z"/>
<path class="st0" d="M134.8,225.7c1.3-2,2.6-5.5,3.4-8.9l1.9,0.6c-0.1,0.2-0.2,0.3-0.6,0.3c-0.4,1.2-0.9,2.5-1.4,3.6l0.6,0.2
	c-0.1,0.1-0.2,0.3-0.5,0.3v10.4c0,0.1-0.5,0.4-1,0.4h-0.2v-9.2c-0.6,0.9-1.2,1.7-1.9,2.4L134.8,225.7L134.8,225.7z M149.8,225.6
	c-0.1,0.2-0.3,0.3-0.8,0.3h-3.7c1,2,2.8,3.6,4.5,4.4l0,0.2c-0.5,0.1-0.9,0.5-1,1.1c-1.5-1.2-2.9-3.2-3.7-5.6v6.2
	c0,0-0.2,0.4-1.3,0.4v-5.4c-1.1,1.8-2.8,3.3-4.9,4.4l-0.2-0.3c1.9-1.4,3.4-3.5,4.3-5.6h-3.8l-0.1-0.4h4.6v-2.7h-2v0.5
	c0,0.1-0.4,0.4-1,0.4h-0.2v-6.4l1.4,0.6h4.9l0.6-0.8l1.4,1.2c-0.1,0.1-0.3,0.2-0.6,0.3v4.6c0,0.1-0.5,0.4-1.1,0.4h-0.2v-0.8h-1.5
	c-0.1,0.1-0.2,0.1-0.5,0.2v2.5h2.3l0.8-1.1L149.8,225.6L149.8,225.6z M141.9,222.5h5.2v-4h-5.2V222.5z"/>
<path class="st0" d="M163.8,217.4l1.5,1.2c-0.1,0.1-0.4,0.3-0.7,0.4v13.1c0,0.1-0.4,0.5-1.3,0.5v-1.2h-10.3v0.8c0,0-0.1,0.6-1.3,0.6
	v-15.2l1.4,0.7h10L163.8,217.4L163.8,217.4z M153.1,231h10.3v-12.4h-10.3V231z M161.5,221l1.4,1.1c-0.1,0.2-0.3,0.3-0.8,0.3h-3.4
	v2.7h1.3l0.5-0.7l1.4,1.1c-0.1,0.1-0.3,0.2-0.6,0.3v3.7c0,0-0.3,0.4-1.2,0.4v-0.8h-4.1v0.6c0,0-0.2,0.4-1.2,0.4v-5.5l1.2,0.6h1.3
	v-2.7h-3.8l-0.1-0.4h3.9v-2.8l1.9,0.2c0,0.3-0.2,0.4-0.7,0.4v2.1h2L161.5,221z M160.2,225.5h-4.1v3.2h4.1V225.5z"/>
<path class="st0" d="M97.4,243.9c0.7-0.4,1.6-0.6,2.7-0.6c0.8,0,1.5,0.1,2.2,0.3c0.7,0.2,1.3,0.5,1.8,0.9c0.5,0.4,0.9,0.9,1.2,1.5
	c0.3,0.6,0.4,1.3,0.4,2.2c0,0.8-0.1,1.5-0.4,2.1s-0.6,1.2-1,1.6c-0.4,0.4-0.8,0.8-1.3,1.1c-0.5,0.3-0.9,0.5-1.4,0.6v0.2
	c0.5,0,1.1,0.2,1.7,0.3c0.6,0.2,1.1,0.4,1.6,0.8c0.5,0.4,0.9,0.9,1.2,1.5s0.5,1.4,0.5,2.4s-0.2,1.9-0.6,2.7
	c-0.4,0.8-0.9,1.5-1.6,2.1c-0.7,0.6-1.5,1.1-2.4,1.4c-0.9,0.3-2,0.5-3.1,0.5c-1,0-1.9-0.1-2.6-0.3c-0.7-0.2-1.4-0.5-1.9-0.7
	c0.1-0.2,0.2-0.5,0.2-0.9c0.1-0.4,0.1-0.8,0.1-1.1l0.2-0.1c0.2,0.2,0.4,0.5,0.7,0.7c0.3,0.3,0.6,0.5,0.9,0.7
	c0.4,0.2,0.7,0.4,1.1,0.5c0.4,0.1,0.9,0.2,1.3,0.2c0.8,0,1.4-0.1,2-0.4c0.6-0.3,1.1-0.6,1.5-1.1c0.4-0.5,0.7-1,1-1.7
	c0.2-0.7,0.3-1.4,0.3-2.2c0-0.9-0.1-1.6-0.3-2.2c-0.2-0.6-0.5-1.1-0.9-1.5c-0.4-0.4-0.8-0.6-1.3-0.8c-0.5-0.2-1.1-0.3-1.7-0.3
	c-0.2,0-0.5,0-0.7,0.1c-0.2,0-0.5,0.1-0.7,0.1c0-0.1,0-0.2,0.1-0.3c0-0.1,0-0.2,0-0.3s0-0.2,0-0.3c0-0.1,0-0.2-0.1-0.3
	c0.4,0.1,0.8,0.1,1.4,0.1c0.7,0,1.3-0.2,1.7-0.5c0.4-0.3,0.8-0.7,1-1.2c0.2-0.5,0.4-1,0.5-1.6c0.1-0.6,0.1-1.1,0.1-1.7
	c0-0.7-0.1-1.3-0.3-1.8c-0.2-0.5-0.4-0.9-0.7-1.2c-0.3-0.3-0.6-0.6-1-0.7s-0.8-0.2-1.2-0.2c-0.8,0-1.6,0.3-2.1,0.8
	c-0.6,0.5-1,1.1-1.2,1.8l-0.2,0.1l-0.7-1.8C96.2,244.7,96.7,244.3,97.4,243.9L97.4,243.9z"/>
<path class="st0" d="M125.2,259.5l1.9,1.4c-0.1,0.3-0.3,0.4-0.9,0.4h-6.1v4.9c0,0.1-0.5,0.5-1.2,0.5h-0.3v-5.4h-7.8l-0.1-0.4h3v-5.5
	l1.7,0.7h3.2v-3.7h-3.6c-1.1,1.9-2.4,3.5-3.9,4.6l-0.2-0.2c1.5-1.7,2.9-4.8,3.8-8l2.1,0.8c-0.1,0.2-0.2,0.3-0.7,0.3
	c-0.3,0.7-0.6,1.4-0.9,2h8.2l1-1.3l1.8,1.4c-0.1,0.3-0.3,0.4-0.8,0.4h-5.3v3.7h2.8l0.9-1.2l1.7,1.3c-0.1,0.3-0.3,0.4-0.8,0.4h-4.6
	v4.4h4.2L125.2,259.5L125.2,259.5z M115.2,260.9h3.5v-4.4h-3.5V260.9z"/>
<path class="st1" d="M130.1,187.7c1.8-11.2-5.8-21.8-17-23.7c-11.2-1.8-21.8,5.8-23.7,17c-1.8,11.2,5.8,21.8,17,23.7
	C117.7,206.6,128.3,199,130.1,187.7z"/>
<path class="st2" d="M116.8,179.9h-9.3c-0.2,0-0.3-0.1-0.3-0.3v-4.7c0-0.2,0.1-0.3,0.3-0.3h9.3c0.2,0,0.3,0.1,0.3,0.3v4.7
	C117,179.8,116.9,179.9,116.8,179.9z M107.7,179.4h8.8v-4.2h-8.8V179.4z"/>
<path class="st2" d="M107.4,179.9h-9.3c-0.1,0-0.3-0.1-0.3-0.3v-4.7c0-0.2,0.1-0.3,0.3-0.3h9.3c0.2,0,0.3,0.1,0.3,0.3v4.7
	C107.7,179.8,107.5,179.9,107.4,179.9z M98.3,179.4h8.8v-4.2h-8.8V179.4z"/>
<path class="st2" d="M112.1,184.7h-9.3c-0.2,0-0.3-0.1-0.3-0.3v-4.7c0-0.2,0.1-0.3,0.3-0.3h9.3c0.2,0,0.3,0.1,0.3,0.3v4.7
	C112.3,184.6,112.2,184.7,112.1,184.7z M103,184.1h8.8v-4.2H103V184.1z"/>
<path class="st2" d="M121.4,184.7h-9.3c-0.2,0-0.3-0.1-0.3-0.3v-4.7c0-0.2,0.1-0.3,0.3-0.3h9.3c0.2,0,0.3,0.1,0.3,0.3v4.7
	C121.7,184.6,121.6,184.7,121.4,184.7z M112.3,184.1h8.8v-4.2h-8.8V184.1z"/>
<path class="st2" d="M112.1,194.1h-9.3c-0.2,0-0.3-0.1-0.3-0.3v-4.7c0-0.1,0.1-0.3,0.3-0.3h9.3c0.2,0,0.3,0.1,0.3,0.3v4.7
	C112.3,194,112.2,194.1,112.1,194.1z M103,193.6h8.8v-4.2H103V193.6z"/>
<path class="st2" d="M121.4,194.1h-9.3c-0.2,0-0.3-0.1-0.3-0.3v-4.7c0-0.1,0.1-0.3,0.3-0.3h9.3c0.2,0,0.3,0.1,0.3,0.3v4.7
	C121.7,194,121.6,194.1,121.4,194.1z M112.3,193.6h8.8v-4.2h-8.8V193.6z"/>
<path class="st2" d="M116.8,189.4h-9.3c-0.2,0-0.3-0.1-0.3-0.3v-4.7c0-0.2,0.1-0.3,0.3-0.3h9.3c0.2,0,0.3,0.1,0.3,0.3v4.7
	C117,189.3,116.9,189.4,116.8,189.4z M107.7,188.9h8.8v-4.2h-8.8V188.9z"/>
<path class="st2" d="M107.4,189.4h-9.3c-0.1,0-0.3-0.1-0.3-0.3v-4.7c0-0.2,0.1-0.3,0.3-0.3h9.3c0.2,0,0.3,0.1,0.3,0.3v4.7
	C107.7,189.3,107.5,189.4,107.4,189.4z M98.3,188.9h8.8v-4.2h-8.8V188.9z"/>
<path class="st0" d="M231.8,226.6l1.4,1.1c-0.1,0.2-0.3,0.3-0.6,0.3h-11.8l-0.1-0.3h2.9v-6.7h-2.6l-0.1-0.3h2.6v-2.3l1.7,0.2
	c0,0.2-0.2,0.3-0.6,0.4v1.7h4.4v-2.3l1.7,0.2c0,0.2-0.2,0.3-0.6,0.4v1.7h0.7l0.7-0.9l1.3,1c-0.1,0.2-0.2,0.3-0.6,0.3h-2.1v6.7h0.9
	L231.8,226.6L231.8,226.6z M226.2,228.9c-0.1,0.1-0.3,0.2-0.7,0.2c-1,0.9-2.8,2-4.6,2.5l-0.1-0.2c1.5-0.8,3.1-2.2,3.8-3.3
	L226.2,228.9L226.2,228.9z M229.1,220.8h-4.4v2h4.4V220.8z M224.8,223.1v2h4.4v-2H224.8z M224.8,225.5v2.1h4.4v-2.1H224.8z
	 M228.2,228.5c3.7,0.7,4.7,1.9,4.7,2.6c0,0.3-0.2,0.6-0.6,0.6c-0.2,0-0.4-0.1-0.5-0.2c-0.6-0.8-1.8-1.8-3.7-2.6L228.2,228.5
	L228.2,228.5z"/>
<path class="st0" d="M234,225.7c1.1-1.7,2.2-4.6,2.8-7.5l1.6,0.5c-0.1,0.2-0.2,0.3-0.5,0.3c-0.3,1.1-0.8,2.1-1.2,3l0.5,0.2
	c0,0.1-0.2,0.2-0.4,0.3v8.8c0,0.1-0.5,0.4-0.9,0.4h-0.2v-7.8c-0.5,0.8-1,1.5-1.6,2L234,225.7z M246.1,227.8v2.1
	c0.5,0.2,0.6,0.3,0.6,0.4c0,0.5-0.4,0.7-2.1,0.7h-3.8c-1.5,0-1.9-0.3-1.9-1.8v-5.1l-1.3,0.6l-0.2-0.3l1.5-0.7v-4.4l1.6,0.2
	c0,0.2-0.1,0.3-0.6,0.4v3.3l1.7-0.8v-4.5l1.6,0.1c0,0.2-0.1,0.3-0.6,0.4v3.5l1.7-0.8l0.5-0.9l1.3,0.8c-0.1,0.2-0.3,0.3-0.6,0.4v4.7
	c0,0.8-0.2,1.3-1.5,1.5c0-0.9-0.1-1-0.9-1.1v-0.2h1.2c0.2,0,0.2,0,0.2-0.2v-4.6l-1.9,0.8v5.3c0,0-0.2,0.4-1.1,0.4V223l-1.7,0.8v5.6
	c0,0.6,0.1,0.7,0.8,0.7h3.9c0.3,0,0.5,0,0.7-0.2c0.2-0.2,0.4-1,0.7-2.1L246.1,227.8L246.1,227.8z"/>
<path class="st0" d="M258.4,218.7l1.3,1c-0.1,0.1-0.3,0.2-0.6,0.3v11.1c0,0.1-0.3,0.4-1.1,0.4v-1h-8.7v0.7c0,0-0.1,0.5-1.1,0.5
	v-12.8l1.2,0.6h8.5L258.4,218.7z M249.4,230.2h8.7v-10.5h-8.7V230.2z M256.5,221.7l1.2,0.9c-0.1,0.2-0.3,0.3-0.6,0.3h-2.9v2.2h1.1
	l0.4-0.6l1.2,0.9c-0.1,0.1-0.3,0.2-0.5,0.3v3.1c0,0-0.3,0.3-1,0.3v-0.7H252v0.5c0,0-0.1,0.4-1,0.4v-4.6l1,0.5h1.1v-2.2h-3.2
	l-0.1-0.3h3.3v-2.3l1.6,0.2c0,0.2-0.2,0.3-0.6,0.4v1.8h1.7L256.5,221.7L256.5,221.7z M255.4,225.5H252v2.7h3.4V225.5z"/>
<path class="st0" d="M267.7,226.6v3.4c0.7,0.1,1.6,0.1,2.6,0.1c0.7,0,2.3,0,3.1,0v0.2c-0.4,0.1-0.6,0.5-0.6,1h-2.6
	c-3.3,0-5.1-0.6-6.3-3.4c-0.5,1.5-1.4,2.9-2.8,3.8l-0.1-0.2c1.6-1.5,2.2-4.2,2.4-6.5l1.7,0.3c0,0.2-0.2,0.3-0.5,0.3
	c-0.1,0.7-0.3,1.3-0.5,2c0.6,1.2,1.5,1.9,2.6,2.2v-6.5h-3.9l-0.1-0.3h7.6l0.7-0.9l0.3,0.2c0.2-0.4,0.4-1.1,0.5-1.6h-8.7
	c0,1.3-0.7,2-1.4,2c-0.3,0-0.6-0.2-0.6-0.5c0-0.3,0.2-0.5,0.4-0.7c0.6-0.3,1.1-1,1.1-1.9h0.2c0.1,0.3,0.1,0.6,0.2,0.8h3.7v-2.2
	l1.7,0.2c0,0.2-0.2,0.3-0.6,0.4v1.6h3.9l0.6-0.7l1.1,1.2c-0.1,0.1-0.2,0.1-0.5,0.2c-0.4,0.4-0.9,1.1-1.5,1.5l0.7,0.5
	c-0.1,0.2-0.3,0.3-0.6,0.3h-3.8v3h2.2l0.7-0.9l1.3,1c-0.1,0.2-0.3,0.3-0.6,0.3L267.7,226.6L267.7,226.6z"/>
<path class="st0" d="M278.3,224.9v4.4c1.1-0.1,2.2-0.2,3.4-0.4l0,0.2c-1.4,0.4-3.4,0.9-6.3,1.5c-0.1,0.2-0.2,0.3-0.4,0.3l-0.7-1.4
	c0.6,0,1.6-0.1,2.9-0.2v-4.5h-2.5l-0.1-0.3h4.5l0.7-0.9l1.3,1c-0.1,0.2-0.3,0.3-0.6,0.3L278.3,224.9L278.3,224.9z M286.6,228
	l-0.3,2.2c0.3,0.5,0.4,0.8,0.4,1c0,0.3-0.3,0.4-0.6,0.4c-0.5,0-1-0.3-1.4-0.7c-2.3-2-3.2-5.3-3.5-9.2h-6.8l-0.1-0.3h6.9
	c-0.1-1-0.1-2.1-0.1-3.2l1.7,0.2c0,0.2-0.1,0.3-0.5,0.3c0,0.9,0,1.8,0.1,2.6h2.3l0.7-1l1.4,1c-0.1,0.2-0.2,0.3-0.6,0.3h-3.7
	c0.2,3.4,1,6.4,3,8c0.1,0.1,0.2,0.2,0.2,0.2c0.1,0,0.1-0.1,0.2-0.2c0.2-0.4,0.5-1.1,0.7-1.7L286.6,228L286.6,228z M283.6,218.6
	c1.8,0,2.3,0.7,2.3,1.2c0,0.3-0.2,0.6-0.5,0.6c-0.1,0-0.2,0-0.4-0.1c-0.3-0.5-1-1.2-1.5-1.5L283.6,218.6L283.6,218.6z"/>
<path class="st0" d="M291,223l1.1,1c-0.1,0.1-0.2,0.2-0.5,0.2c-0.2,1.5-0.5,3-1.2,4.4c1.5,1.3,3.5,1.6,6.5,1.6c0.7,0,2.3,0,3.1,0
	v0.2c-0.4,0.1-0.7,0.5-0.7,0.9h-2.5c-3.2,0-5.3-0.4-6.8-2.1c-0.6,0.9-1.4,1.8-2.5,2.5l-0.1-0.2c1-0.8,1.6-1.8,2-2.9
	c-0.5-0.8-0.9-1.7-1.2-2.9l0.2-0.1c0.3,1,0.7,1.8,1.2,2.4c0.4-1.2,0.6-2.5,0.7-3.9h-1.3l-0.4,0.8c-0.1,0-0.2,0.1-0.3,0.1
	c-0.2,0-0.4-0.1-0.7-0.2c0.7-1.6,1.5-3.6,2-5h-2.2l-0.1-0.3h2.2l0.5-0.6l1.1,1.1c-0.1,0.1-0.3,0.2-0.6,0.2c-0.3,0.9-0.9,2.3-1.5,3.6
	h1L291,223L291,223z M299.3,220.8l1,0.9c-0.1,0.2-0.2,0.3-0.6,0.3h-1.1v2.2c0,0-0.3,0.3-1,0.3V224h-1.8v1.6h1.6l0.6-0.9l1.2,0.9
	c-0.1,0.2-0.3,0.3-0.6,0.3h-2.8v1.6h2.1l0.7-0.9l1.3,1c-0.1,0.2-0.3,0.3-0.6,0.3h-3.5v1.6c0,0-0.1,0.4-1,0.4v-2h-3.3l-0.1-0.3h3.3
	v-1.6h-2.7l-0.1-0.3h2.8V224h-2.4l-0.1-0.3h2.5v-1.6h-3.5l-0.1-0.3h3.6v-1.6h-2.4l-0.1-0.3h2.5v-1.6l1.6,0.1c0,0.2-0.2,0.3-0.6,0.4
	v1.1h1.6l0.4-0.6l1.3,1c-0.1,0.1-0.3,0.2-0.6,0.3v1.3h0.2L299.3,220.8z M295.8,220.1v1.6h1.8v-1.6H295.8z M297.6,223.6v-1.6h-1.8
	v1.6H297.6z"/>
<path class="st0" d="M312.5,220.7l1.1,1c-0.1,0.2-0.2,0.3-0.6,0.3h-1.5v8.1c0,0.8-0.2,1.4-1.7,1.6c0-0.9-0.6-0.9-1.7-1.1v-0.2h2
	c0.2,0,0.3-0.1,0.3-0.3v-5.8c-1.1,2.1-2.6,3.9-4.6,5.2l-0.2-0.2c2-1.8,3.6-4.6,4.4-7.2h-3l0-0.2c-0.1,0.1-0.3,0.2-0.5,0.2h-1.9v1.9
	c1.6,0.6,2.1,1.5,2.1,2.1c0,0.4-0.2,0.7-0.5,0.7c-0.1,0-0.3-0.1-0.4-0.2c-0.1-0.7-0.6-1.7-1.1-2.3v7.1c0,0-0.1,0.4-1.1,0.4V225
	c-0.6,1.3-1.4,2.5-2.4,3.5l-0.2-0.2c1.2-1.7,2-4.1,2.4-6.3h-2.2l-0.1-0.3h2.5v-3.4l1.6,0.2c0,0.2-0.1,0.3-0.6,0.4v2.9h0.7l0.6-0.9
	l1.1,0.9h3.4v-3.4l1.7,0.1c0,0.2-0.1,0.3-0.6,0.4v2.9h0.4L312.5,220.7L312.5,220.7z"/>
<path class="st0" d="M324.8,222.5l1.1,1.1c-0.1,0.1-0.2,0.2-0.6,0.2c-0.6,1.8-1.4,3.3-2.7,4.6c1.2,0.9,2.7,1.6,4.4,2.1l0,0.2
	c-0.6,0-1,0.4-1.3,0.9c-1.6-0.6-2.9-1.4-4-2.4c-1.3,1.1-3,1.9-5.2,2.4l-0.1-0.2c1.9-0.7,3.5-1.6,4.7-2.8c-1.5-1.7-2.4-4-2.9-7h0
	c-0.2,4.2-0.8,7.6-3.8,10l-0.1-0.2c2.5-2.9,2.8-6.9,2.8-11.8h-2.2l-0.1-0.3h6.9l0.6-0.6l1.2,1c-0.1,0.1-0.3,0.2-0.6,0.2
	c-0.2,0.8-0.5,2.1-0.8,3.2h1.9L324.8,222.5L324.8,222.5z M318.4,219.6v0.2c0.5,3.6,1.7,6.1,3.6,7.9c1-1.2,1.7-2.7,2.2-4.3h-2
	c-0.1,0.3-0.2,0.6-0.2,0.8c-0.1,0.1-0.3,0.1-0.5,0.1s-0.4,0-0.6-0.1c0.5-1.5,0.9-3.4,1.2-4.7H318.4z"/>
<path class="st0" d="M332.4,220.1l1.1,0.9c-0.1,0.2-0.3,0.3-0.6,0.3h-5.1l-0.1-0.3h4L332.4,220.1L332.4,220.1z M328.4,222.9h2.8
	l0.6-0.8l1.1,0.8c-0.1,0.2-0.2,0.3-0.6,0.3h-3.7L328.4,222.9z M332.8,224.7c-0.1,0.2-0.2,0.3-0.6,0.3h-3.7l-0.1-0.3h2.7l0.6-0.8
	L332.8,224.7L332.8,224.7z M333.1,226.9c-0.1,0.1-0.3,0.2-0.6,0.3v3.5c0,0-0.3,0.4-1,0.4v-0.9h-2.1v1c0,0-0.2,0.4-1,0.4v-5.4
	l1.1,0.5h1.9l0.4-0.6L333.1,226.9L333.1,226.9z M332.9,219.2c-0.1,0.2-0.3,0.3-0.6,0.3h-3.7l-0.1-0.3h2.6l0.6-0.8L332.9,219.2z
	 M329.5,229.8h2.1v-2.9h-2.1V229.8z M338.5,224.1l1.1,1.1c-0.1,0.1-0.2,0.2-0.6,0.2c-0.5,1.3-1.2,2.5-2.1,3.5c1,0.7,2.2,1.2,3.5,1.6
	l0,0.2c-0.5,0.1-0.8,0.4-1,1c-1.3-0.5-2.3-1.2-3.2-2.1c-1.1,0.9-2.3,1.6-3.9,2.1l-0.1-0.2c1.4-0.6,2.6-1.4,3.5-2.4
	c-0.8-1-1.3-2.3-1.6-3.9h-0.7l-0.1-0.3h4.5L338.5,224.1z M335.2,220c0,1.2-0.2,3.1-2.2,4.2l-0.1-0.2c1.2-1.3,1.3-2.8,1.3-4.1v-1.6
	l1.2,0.5h1.9l0.5-0.6l1.2,1c-0.1,0.1-0.2,0.2-0.5,0.2v2.8c0,0.2,0,0.3,0.2,0.3h0.7c0.1,0,0.2,0,0.2-0.1c0.1-0.2,0.3-0.8,0.4-1.3h0.1
	v1.3c0.3,0.1,0.4,0.2,0.4,0.4c0,0.4-0.3,0.7-1.1,0.7h-0.9c-0.9,0-1-0.3-1-1.3v-3h-2.2L335.2,220L335.2,220z M334.3,225.1
	c0.4,1.3,1.1,2.4,1.9,3.2c0.7-0.9,1.3-2,1.6-3.2H334.3z"/>
<path class="st0" d="M345.2,218.7c-0.1,0.2-0.2,0.3-0.5,0.3c-0.3,1.1-0.7,2.1-1.1,3.1l0.5,0.2c0,0.1-0.2,0.2-0.4,0.3v8.8
	c0,0.1-0.4,0.3-0.8,0.3h-0.2v-7.8c-0.4,0.8-0.9,1.5-1.3,2l-0.2-0.1c0.9-1.7,1.8-4.7,2.4-7.5L345.2,218.7L345.2,218.7z M352.5,221.3
	l1.3,1c-0.1,0.2-0.3,0.3-0.6,0.3h-7.1v2.2c0,2-0.1,4.9-1.8,6.9l-0.2-0.1c0.9-2.1,0.9-4.6,0.9-6.7v-3.1l1.2,0.5h5.6L352.5,221.3
	L352.5,221.3z M345,220.3l-0.1-0.3h2.2v-1.8l1.5,0.1c0,0.2-0.1,0.3-0.5,0.3v1.3h2.2v-1.8l1.5,0.1c0,0.2-0.1,0.3-0.5,0.3v1.3h0.9
	l0.6-0.8l1.1,0.9c-0.1,0.2-0.2,0.3-0.6,0.3h-2v1.1c0,0-0.1,0.3-1,0.3v-1.4H348v1.2c0,0-0.1,0.2-1,0.2v-1.4L345,220.3L345,220.3z
	 M351.6,224l0.5-0.7l1.3,1c-0.1,0.1-0.3,0.2-0.6,0.3v5.5c0,0.8-0.2,1.4-1.3,1.5c0-0.8-0.2-1.1-0.9-1.2v-0.2h1c0.1,0,0.2-0.1,0.2-0.2
	v-1.6h-1.5v2.7c0,0.1-0.3,0.3-0.8,0.3h-0.2v-3h-1.4v2.8c0,0-0.1,0.4-1,0.4v-8.2l1.1,0.5L351.6,224L351.6,224z M349.3,224.4h-1.4v1.7
	h1.4V224.4z M347.9,228.1h1.4v-1.7h-1.4V228.1z M351.7,224.4h-1.5v1.7h1.5V224.4z M350.2,228.1h1.5v-1.7h-1.5V228.1z"/>
<path class="st0" d="M274,247.5c-0.2-0.4-0.5-0.8-0.9-1v-0.2c1.1-0.5,2.3-1,3.5-1.6c1.2-0.6,2.3-1.2,3.4-1.7l0.2,0.2
	c-0.1,1.4-0.1,2.8-0.2,4.2s-0.1,2.8-0.1,4.2v5.4c0,1.4,0,2.8,0.1,4.2c0,1.4,0.1,2.7,0.2,4c-0.2,0-0.5-0.1-0.7-0.1H278
	c-0.2,0-0.5,0-0.7,0.1c0.1-1.3,0.2-2.7,0.2-4c0-1.4,0.1-2.8,0.1-4.2v-11.5L274,247.5z"/>
<path class="st0" d="M299.1,259.5l1.9,1.4c-0.1,0.3-0.4,0.4-0.9,0.4H294v4.9c0,0.1-0.5,0.5-1.2,0.5h-0.3v-5.4h-7.8l-0.1-0.4h3v-5.5
	l1.6,0.7h3.2v-3.7h-3.6c-1.1,1.9-2.4,3.5-3.8,4.6l-0.2-0.2c1.5-1.7,2.9-4.8,3.8-8l2.1,0.8c-0.1,0.2-0.2,0.3-0.7,0.3
	c-0.3,0.7-0.6,1.4-0.9,2h8.2l1-1.3l1.8,1.4c-0.1,0.3-0.3,0.4-0.8,0.4H294v3.7h2.8l0.9-1.2l1.7,1.3c-0.1,0.3-0.4,0.4-0.8,0.4H294v4.4
	h4.2L299.1,259.5L299.1,259.5z M289,260.9h3.5v-4.4H289V260.9z"/>
<path class="st1" d="M307.3,187.7c1.8-11.2-5.8-21.8-17.1-23.7c-11.2-1.8-21.8,5.8-23.7,17.1c-1.8,11.2,5.8,21.8,17,23.7
	C294.8,206.6,305.4,199,307.3,187.7z"/>
<path class="st2" d="M298.2,195.4h-21.5c-0.1,0-0.3-0.1-0.3-0.3c0-0.1,0.1-0.3,0.3-0.3h21.5c0.1,0,0.3,0.1,0.3,0.3
	C298.5,195.3,298.4,195.4,298.2,195.4z"/>
<path class="st2" d="M296.3,192.9h-17.7c-0.1,0-0.3-0.1-0.3-0.3c0-0.1,0.1-0.3,0.3-0.3h17.7c0.2,0,0.3,0.1,0.3,0.3
	C296.6,192.8,296.5,192.9,296.3,192.9z"/>
<path class="st2" d="M298.2,177.8h-21.5c-0.1,0-0.2-0.1-0.3-0.2c0-0.1,0-0.2,0.1-0.3l10.8-5.1c0.1,0,0.2,0,0.2,0l10.7,5.1
	c0.1,0.1,0.2,0.2,0.1,0.3C298.4,177.7,298.3,177.8,298.2,177.8L298.2,177.8z M277.9,177.3H297l-9.6-4.6L277.9,177.3L277.9,177.3z"/>
<path class="st2" d="M296.3,180.3h-17.7c-0.1,0-0.3-0.1-0.3-0.3c0-0.2,0.1-0.3,0.3-0.3h17.7c0.2,0,0.3,0.1,0.3,0.3
	C296.6,180.2,296.5,180.3,296.3,180.3z"/>
<path class="st2" d="M282.6,192.9H280c-0.1,0-0.3-0.1-0.3-0.3V180c0-0.2,0.1-0.3,0.3-0.3h2.6c0.1,0,0.3,0.1,0.3,0.3v12.7
	C282.9,192.8,282.8,192.9,282.6,192.9z M280.3,192.4h2v-12.1h-2V192.4z"/>
<path class="st2" d="M288.8,192.9h-2.6c-0.2,0-0.3-0.1-0.3-0.3V180c0-0.2,0.1-0.3,0.3-0.3h2.6c0.1,0,0.3,0.1,0.3,0.3v12.7
	C289,192.8,288.9,192.9,288.8,192.9z M286.5,192.4h2v-12.1h-2V192.4z"/>
<path class="st2" d="M294.9,192.9h-2.6c-0.1,0-0.3-0.1-0.3-0.3V180c0-0.2,0.1-0.3,0.3-0.3h2.6c0.1,0,0.3,0.1,0.3,0.3v12.7
	C295.2,192.8,295.1,192.9,294.9,192.9z M292.6,192.4h2v-12.1h-2V192.4z"/>
<path class="st3" d="M47.5,140.2h133.2"/>
<path class="st3" d="M215.8,140.2H349"/>
<path class="st0" d="M85.3,78.9c-0.1,0.2-0.2,0.3-0.5,0.3c-0.4,1.5-1,3.1-1.8,4l-0.2-0.2c0.4-1.1,0.8-2.9,1-4.6L85.3,78.9L85.3,78.9
	z M88.9,71.4c-0.1,0.1-0.2,0.2-0.4,0.2c-0.1,0-0.2,0-0.3,0c-0.8,1.4-2.1,3.2-3.3,4.7c0.8,0,1.7,0,2.7-0.1c-0.2-0.5-0.5-0.9-0.7-1.3
	l0.1-0.1c1.6,0.8,2.2,1.7,2.2,2.3c0,0.5-0.3,0.8-0.6,0.8c-0.2,0-0.4-0.1-0.5-0.3c0-0.4-0.1-0.8-0.3-1.2c-0.3,0.1-0.7,0.2-1.1,0.3
	v7.5c0,0.1-0.4,0.4-1,0.4h-0.2V77l-1.8,0.4c-0.1,0.2-0.2,0.3-0.4,0.3l-0.5-1.5c0.4,0,0.9,0,1.6,0c1-1.7,2.1-4,2.8-5.6L88.9,71.4
	L88.9,71.4z M82.9,71.5c0.5,0.1,0.9,0.3,1.2,0.5c0.3-0.9,0.8-2.2,1.1-3.3l1.8,0.7c-0.1,0.2-0.2,0.3-0.6,0.3
	c-0.6,0.9-1.3,1.9-1.9,2.6c0.5,0.4,0.7,0.9,0.7,1.2c0,0.4-0.2,0.7-0.6,0.7c-0.1,0-0.3-0.1-0.5-0.2c-0.2-0.8-0.8-1.8-1.4-2.3
	L82.9,71.5L82.9,71.5z M87.4,78.5c1.3,0.9,1.8,1.9,1.8,2.6c0,0.6-0.3,1-0.7,1c-0.2,0-0.3-0.1-0.5-0.3c0-1-0.4-2.3-0.8-3.2L87.4,78.5
	L87.4,78.5z M97.7,71.7c-0.1,0.2-0.3,0.3-0.8,0.3h-3.1v3.4H95l0.8-1.1l1.5,1.2c-0.1,0.2-0.3,0.3-0.8,0.3h-6.9l-0.1-0.4h3v-3.4h-3.3
	l-0.1-0.4h3.4v-3l1.9,0.2c0,0.2-0.2,0.4-0.6,0.4v2.4h1.6l0.8-1.1L97.7,71.7L97.7,71.7z M95.1,78.1l0.6-0.8l1.5,1.2
	c-0.1,0.1-0.3,0.2-0.6,0.3v5.3c0,0.1-0.5,0.4-1.1,0.4h-0.2v-1.1h-4.2v0.8c0,0.1-0.4,0.4-1,0.4h-0.2v-7.1l1.4,0.6H95.1z M91.1,83h4.2
	v-4.5h-4.2V83z"/>
<path class="st0" d="M102.2,73.2v2.3c1.6,0.7,2.2,1.6,2.2,2.2c0,0.4-0.3,0.8-0.6,0.8c-0.2,0-0.3-0.1-0.5-0.3
	c-0.1-0.7-0.6-1.7-1.1-2.4v8.3c0,0-0.2,0.4-1.2,0.4V77c-0.6,1.3-1.3,2.6-2.2,3.6l-0.2-0.2c1.1-2,1.8-4.6,2.2-7.2h-2l-0.1-0.4h2.3
	v-4.1l1.9,0.2c0,0.2-0.2,0.4-0.7,0.4v3.5h0.4l0.7-1.1l1.3,1.1c-0.1,0.2-0.3,0.3-0.7,0.3H102.2z M112.7,79.7l1.1,1
	c-0.1,0.2-0.3,0.3-0.7,0.3h-1v1.8c0,0.9-0.2,1.6-1.8,1.8c0-1-0.4-1.2-1.6-1.3v-0.2h1.8c0.2,0,0.3-0.1,0.3-0.3V81h-5.1v3.1
	c0,0-0.2,0.5-1.2,0.5V81h-1.5l-0.1-0.4h1.5v-4.8l1.2,0.6h1.8v-1.5h-4l-0.1-0.4h2.5V73h-1.4l-0.1-0.4h1.5v-1.5h-2l-0.1-0.4h2.1v-2
	l1.8,0.2c0,0.2-0.2,0.3-0.7,0.4v1.4h2.2v-2l1.8,0.2c0,0.3-0.2,0.4-0.7,0.4v1.4h0.6l0.7-1l1.3,1c-0.1,0.2-0.3,0.3-0.7,0.3h-1.9v1.5
	h0.4l0.6-0.9l1.2,0.9c-0.1,0.3-0.3,0.3-0.7,0.3h-1.5v1.6h1l0.7-1l1.3,1c-0.1,0.3-0.3,0.3-0.7,0.3h-3.9v1.5h1.8l0.5-0.7l1.5,1.1
	c-0.1,0.1-0.4,0.3-0.7,0.3v3.5h0L112.7,79.7L112.7,79.7z M107.7,76.8h-1.9v1.7h1.9V76.8z M105.8,78.9v1.8h1.9v-1.8H105.8z
	 M107.2,71.1v1.5h2.2v-1.5H107.2z M107.2,74.6h2.2V73h-2.2V74.6z M110.9,76.8h-2v1.7h2V76.8z M108.9,80.7h2v-1.8h-2V80.7z"/>
<path class="st0" d="M114.4,77.6c1.3-2,2.6-5.5,3.4-8.9l1.9,0.6c-0.1,0.2-0.2,0.3-0.6,0.3c-0.4,1.2-0.9,2.5-1.4,3.6l0.6,0.2
	c-0.1,0.2-0.2,0.3-0.5,0.3v10.4c0,0.1-0.5,0.4-1,0.4h-0.2v-9.2c-0.6,0.9-1.2,1.7-1.9,2.4L114.4,77.6L114.4,77.6z M129.5,77.5
	c-0.1,0.2-0.3,0.3-0.8,0.3H125c1,1.9,2.8,3.6,4.5,4.4l0,0.2c-0.5,0.1-0.9,0.5-1.1,1.1c-1.5-1.2-2.9-3.2-3.7-5.6v6.2
	c0,0-0.2,0.4-1.3,0.4v-5.4c-1.1,1.8-2.8,3.3-4.9,4.4l-0.2-0.3c1.9-1.4,3.4-3.5,4.3-5.6h-3.8l-0.1-0.4h4.6v-2.7h-2v0.5
	c0,0.1-0.4,0.4-1,0.4h-0.2v-6.4l1.4,0.6h4.9l0.6-0.8l1.5,1.2c-0.1,0.1-0.3,0.2-0.6,0.3v4.6c0,0.1-0.5,0.4-1.1,0.4h-0.2v-0.8h-1.5
	c-0.1,0.1-0.2,0.2-0.5,0.2v2.5h2.3l0.8-1.2L129.5,77.5L129.5,77.5z M121.5,74.3h5.2v-4h-5.2V74.3z"/>
<path class="st0" d="M143.5,69.2l1.5,1.2c-0.1,0.1-0.4,0.3-0.7,0.4V84c0,0.1-0.4,0.5-1.3,0.5v-1.2h-10.3v0.8c0,0-0.1,0.6-1.3,0.6
	V69.4l1.4,0.7h10L143.5,69.2L143.5,69.2z M132.8,82.9h10.3V70.4h-10.3V82.9z M141.2,72.9l1.4,1.1c-0.1,0.2-0.3,0.3-0.8,0.3h-3.4V77
	h1.3l0.5-0.7l1.4,1.1c-0.1,0.1-0.3,0.2-0.6,0.3v3.7c0,0-0.3,0.4-1.2,0.4v-0.8h-4v0.6c0,0-0.2,0.4-1.2,0.4v-5.5L136,77h1.3v-2.7h-3.8
	l-0.1-0.4h3.9v-2.8l1.9,0.2c0,0.3-0.2,0.4-0.7,0.4v2.1h2L141.2,72.9L141.2,72.9z M139.9,77.3h-4.1v3.2h4.1V77.3z"/>
<path class="st0" d="M93.8,99.8c-0.2-0.4-0.5-0.8-0.9-1v-0.2c1.1-0.5,2.3-1,3.5-1.6c1.2-0.6,2.3-1.2,3.4-1.7l0.2,0.2
	c-0.1,1.4-0.1,2.8-0.2,4.2c0,1.4-0.1,2.8-0.1,4.2v5.4c0,1.4,0,2.8,0.1,4.2c0,1.4,0.1,2.7,0.2,4c-0.2,0-0.5-0.1-0.7-0.1h-1.4
	c-0.2,0-0.5,0-0.7,0.1c0.1-1.3,0.2-2.7,0.2-4.1s0-2.8,0-4.2V97.7L93.8,99.8z"/>
<path class="st0" d="M109.8,104.7c0.5-0.2,1.2-0.2,2.1-0.2s1.7,0.2,2.4,0.5c0.7,0.3,1.3,0.8,1.8,1.3c0.5,0.6,0.9,1.2,1.2,1.9
	c0.3,0.7,0.4,1.5,0.4,2.3c0,1-0.2,2-0.5,2.9c-0.4,0.9-0.9,1.7-1.5,2.3c-0.7,0.7-1.4,1.2-2.4,1.5c-0.9,0.4-1.9,0.6-3.1,0.6
	c-0.9,0-1.8-0.1-2.6-0.2c-0.8-0.2-1.6-0.5-2.2-1v-0.3c0.1-0.3,0.2-0.6,0.3-1c0.1-0.4,0.1-0.7,0.2-0.9h0.2c0.2,0.4,0.4,0.7,0.7,1
	c0.3,0.3,0.7,0.6,1,0.8c0.4,0.2,0.8,0.4,1.2,0.4c0.4,0.1,0.8,0.2,1.2,0.2c0.6,0,1.2-0.1,1.7-0.4c0.6-0.2,1-0.6,1.5-1.1
	c0.4-0.5,0.8-1.1,1-1.9c0.3-0.8,0.4-1.6,0.4-2.7c0-0.9-0.1-1.7-0.4-2.3c-0.2-0.6-0.6-1.2-1-1.6c-0.4-0.4-0.8-0.7-1.3-0.9
	s-1-0.3-1.6-0.3c-0.8,0-1.5,0.2-2.1,0.4c-0.5,0.3-0.9,0.5-1,0.6l-0.3-0.2c0.1-0.8,0.2-1.7,0.3-2.7s0-1.9,0-2.8s0-1.8,0-2.8
	s-0.1-1.8-0.2-2.5l0.3-0.2c0.3,0.1,0.9,0.1,1.7,0.2c0.9,0.1,2.1,0.1,3.7,0.1c1,0,1.8,0,2.6,0c0.7,0,1.3,0,1.7,0l0.2,0.1
	c-0.1,0.3-0.1,0.6-0.2,0.9s-0.1,0.6-0.1,0.9c0,0.3,0,0.5,0,0.6c-0.4-0.1-1-0.2-1.8-0.2c-0.7-0.1-1.5-0.1-2.3-0.1
	c-0.8,0-1.6,0-2.3-0.1s-1.3,0-1.8,0l-0.4,7.4C108.9,105,109.4,104.8,109.8,104.7L109.8,104.7z"/>
<path class="st0" d="M135.6,111.9l1.9,1.4c-0.1,0.3-0.4,0.4-0.9,0.4h-6.1v4.9c0,0.1-0.5,0.5-1.2,0.5H129v-5.4h-7.7l-0.1-0.4h3v-5.5
	l1.7,0.7h3.2v-3.7h-3.6c-1.1,2-2.4,3.5-3.8,4.6l-0.2-0.2c1.5-1.7,2.9-4.8,3.8-8l2.1,0.8c-0.1,0.2-0.2,0.3-0.7,0.3
	c-0.3,0.7-0.6,1.4-0.9,2h8.2l1-1.3l1.8,1.4c-0.1,0.3-0.3,0.4-0.8,0.4h-5.3v3.7h2.8l0.9-1.2l1.7,1.3c-0.1,0.3-0.3,0.4-0.8,0.4h-4.6
	v4.4h4.2L135.6,111.9L135.6,111.9z M125.6,113.2h3.4v-4.4h-3.4V113.2z"/>
<path class="st1" d="M129.5,19.9c-2.2-0.6-4.3-1.4-6.3-2.4c-2.3-1-4.6-2.2-6.8-3.6l-2.3-1.5l-2.3,1.5c-4.1,2.6-8.5,4.6-13.1,6
	l-2.7,0.8L97,35.2c0.5,6.9,4.3,12.9,9.8,16.4c2.2,1.4,4.6,2.3,7.2,2.8c4.6-0.8,8.7-3.2,11.7-6.6c3-3.4,4.9-7.8,5.3-12.6l1.1-14.5
	L129.5,19.9L129.5,19.9z"/>
<path class="st2" d="M106.2,29.2c-0.1,0-0.3-0.1-0.3-0.2c-0.1-0.2,0-0.4,0.1-0.5l8.7-4.9c0.1-0.1,0.3-0.1,0.4,0l8.7,4.9
	c0.2,0.1,0.2,0.3,0.2,0.5s-0.3,0.2-0.5,0.1l-8.5-4.8l-8.5,4.8C106.4,29.2,106.3,29.2,106.2,29.2L106.2,29.2z"/>
<path class="st2" d="M121.8,42.8h-4.5c-0.2,0-0.4-0.2-0.4-0.4v-6h-4v6c0,0.2-0.2,0.4-0.4,0.4h-4.4c-0.2,0-0.4-0.2-0.4-0.4v-11
	c0-0.2,0.2-0.4,0.4-0.4s0.4,0.2,0.4,0.4V42h3.7v-6c0-0.2,0.2-0.4,0.4-0.4h4.8c0.2,0,0.4,0.2,0.4,0.4v6h3.7V31.4
	c0-0.2,0.2-0.4,0.4-0.4s0.4,0.2,0.4,0.4v11C122.2,42.6,122,42.8,121.8,42.8z"/>
<path class="st4" d="M34.5,0.2v280.1"/>
<path class="st4" d="M365.1,1v280"/>
<path class="st4" d="M199.8,0.2v280.1"/>
</svg>
