<svg width="173" height="103" viewBox="0 0 173 103" fill="none" xmlns="http://www.w3.org/2000/svg">
<path d="M172.59 0.259766H0.109985V102.91H172.59V0.259766Z" fill="#E8D0A4"/>
<path d="M16.07 32.0801H152.67" stroke="#581804" stroke-width="0.25" stroke-miterlimit="10"/>
<path d="M21.52 12.9C21.47 13.04 21.35 13.12 21.03 13.09C20.4 14.01 19.41 15.16 18.33 16.16C19.84 16.16 21.71 16.16 23.7 16.13C23.2 15.48 22.6 14.89 21.96 14.47L22.02 14.37C25.3 14.82 26.35 16.25 26.35 17.28C26.35 17.91 25.96 18.38 25.45 18.38C25.25 18.38 25.02 18.32 24.81 18.15C24.62 17.64 24.36 17.11 24.04 16.61C22.34 17.02 20.02 17.43 16.67 17.98C16.56 18.13 16.42 18.22 16.28 18.25L15.47 16.13L17.61 16.17C18.22 14.83 18.78 13.19 19.1 12L21.53 12.91L21.52 12.9ZM22.89 19.03L23.59 18.06L25.39 19.43C25.29 19.56 25.13 19.7 24.83 19.76V23.69C24.83 23.69 24.31 24.1 23.03 24.1V23.09H18.69V23.55C18.69 23.6 18.45 24.23 17 24.23V18.29L18.8 19.03H22.89ZM18.69 22.88H23.03V19.23H18.69V22.88Z" fill="#844E1A"/>
<path d="M30.78 14.4L30.97 14.44C30.67 16.27 30.13 19.6 30.13 20.51V20.65C30.15 21.35 30.63 21.81 30.63 22.92C30.63 24.03 29.93 24.19 29.61 24.19C29.32 24.19 29.01 24.02 28.92 23.51C29.03 22.92 29.07 22.33 29.07 21.83C29.07 20.59 28.86 20.49 28.25 20.42V20.18C28.62 20.18 28.75 20.17 28.75 20.17C28.92 20.18 28.96 20.18 29.08 19.91C29.22 19.56 29.26 19.47 29.9 17.35C29.76 17.57 29.51 17.71 29.26 17.71C29.05 17.71 28.82 17.61 28.64 17.36C28.68 16.69 28.45 15.85 28.1 15.34L28.2 15.28C29.59 15.66 30.04 16.32 30.06 16.84L30.79 14.41L30.78 14.4ZM28.63 12.12C30.18 12.48 30.68 13.16 30.68 13.72C30.68 14.21 30.3 14.59 29.87 14.59C29.66 14.59 29.44 14.49 29.25 14.26C29.19 13.57 28.92 12.71 28.54 12.19L28.64 12.13L28.63 12.12ZM38.44 16.61L38.55 16.56C39.38 16.97 39.66 17.46 39.66 17.83C39.66 18.18 39.42 18.42 39.16 18.42C39.02 18.42 38.87 18.36 38.77 18.19C38.78 17.73 38.64 17.09 38.45 16.68V18.59C38.44 18.64 38.14 18.82 37.66 18.83L38.61 19.51C38.55 19.59 38.43 19.69 38.23 19.73V20.78C38.23 20.78 38.04 20.91 37.8 20.99L39.1 21.99C39.02 22.09 38.89 22.17 38.67 22.19C38.41 23.89 37.85 24.23 36.34 24.23C36.34 23.42 36.16 23.08 34.77 22.82V22.67C35.35 22.71 36.31 22.73 36.54 22.73C36.96 22.73 37.06 22.73 37.21 21.8H32.83C32.77 22.03 32.7 22.26 32.64 22.45C32.46 22.53 32.29 22.58 32.08 22.58C31.84 22.58 31.56 22.52 31.19 22.39C31.45 21.57 31.79 20.38 31.94 19.73L33.45 20.46H36.75V19.4H31.61L31.55 19.2H36.64L37.15 18.48L37.42 18.67V17.21C37.18 17.73 36.86 18.26 36.52 18.58L36.33 18.48C36.48 18.04 36.63 17.33 36.71 16.65L37.42 16.85V16.16L36.98 16.3C36.92 16.47 36.81 16.54 36.69 16.57L36.32 15.73C36.22 15.77 36.09 15.78 35.92 15.78H34.04C34.04 15.88 34.02 15.99 33.97 16.06L34.99 16.51H35.17L35.52 16.04L36.52 16.77C36.47 16.83 36.35 16.91 36.21 16.95V18.33C36.21 18.33 35.94 18.63 35.26 18.63V18.05H34.84V18.51C34.84 18.59 34.54 18.82 34.07 18.82H33.92V17.77H33.91C33.87 18.03 33.68 18.21 33.48 18.21C33.36 18.21 33.23 18.15 33.13 17.99C33.15 17.62 33.06 17.09 32.9 16.77V18.61C32.9 18.66 32.59 18.85 32.09 18.85H31.92V17.48C31.59 17.99 31.18 18.5 30.81 18.82L30.63 18.71C30.86 18.22 31.11 17.42 31.28 16.65L31.91 16.89V16.16L31.52 16.29C31.46 16.46 31.34 16.53 31.22 16.55L30.83 15.49C31.01 15.49 31.26 15.49 31.56 15.48C31.68 15.29 31.79 15.07 31.9 14.85C31.83 14.89 31.76 14.9 31.69 14.9C31.57 14.9 31.45 14.86 31.34 14.73C31.29 14.35 31.09 13.86 30.85 13.58L30.95 13.49C31.18 13.53 31.35 13.59 31.51 13.66C31.66 13.21 31.83 12.62 31.99 12.07L33.25 12.61C33.19 12.75 33.1 12.83 32.81 12.8C32.5 13.15 32.16 13.54 31.83 13.84C32.06 14.01 32.15 14.2 32.15 14.38C32.35 14 32.54 13.63 32.69 13.32L33.51 13.81V13.76H35.25L35.75 13.04L36.27 13.44H36.28C36.54 13.47 36.76 13.52 36.93 13.59C37.07 13.14 37.23 12.58 37.36 12.04L38.67 12.59C38.62 12.73 38.52 12.8 38.24 12.78C37.94 13.11 37.6 13.47 37.28 13.77C37.51 13.94 37.6 14.14 37.6 14.32C37.6 14.37 37.59 14.42 37.58 14.47H37.59C37.79 14.06 37.99 13.66 38.15 13.33L39.4 14.06C39.35 14.15 39.28 14.19 39.16 14.19C39.09 14.19 39.02 14.18 38.92 14.15C38.54 14.52 37.98 15.03 37.47 15.47L38.66 15.43C38.59 15.21 38.49 15.01 38.4 14.85L38.51 14.77C39.39 15.03 39.69 15.45 39.69 15.78C39.69 16.07 39.45 16.31 39.2 16.31C39.07 16.31 38.94 16.25 38.82 16.1C38.81 15.98 38.78 15.86 38.76 15.73L38.44 15.85V16.64V16.61ZM35.54 14.92L36.27 15.46C36.46 15.46 36.73 15.46 37.07 15.45C37.2 15.19 37.37 14.91 37.51 14.63H37.5C37.42 14.73 37.3 14.8 37.15 14.8C37.04 14.8 36.92 14.76 36.81 14.65C36.76 14.42 36.66 14.15 36.51 13.91C36.43 13.94 36.32 13.94 36.19 13.94H33.79L33.92 14.02C33.87 14.1 33.8 14.14 33.68 14.14C33.61 14.14 33.54 14.13 33.44 14.1C33.07 14.5 32.52 15.01 32.01 15.46C32.34 15.46 32.71 15.45 33.08 15.43C33.02 15.21 32.94 15.01 32.84 14.85L32.96 14.77C33.6 15 33.91 15.29 34.01 15.56H35.09L35.54 14.93V14.92ZM37.12 21.58L37.54 21.04C37.25 21.12 37.12 21.12 36.74 21.12V20.66H33.12C33.06 20.9 32.98 21.25 32.88 21.58H37.12ZM33.91 17.56V16.11C33.83 16.21 33.7 16.28 33.57 16.28C33.44 16.28 33.3 16.22 33.18 16.06C33.18 15.96 33.17 15.83 33.14 15.71L32.9 15.8V16.67L33.01 16.61C33.63 16.92 33.87 17.27 33.9 17.56H33.91ZM36.48 12.81C36.4 12.95 36.23 12.98 35.96 12.98H33.89L33.83 12.78H35.08L35.56 12.13L36.49 12.82L36.48 12.81ZM35.09 14.64L35.54 14.01L36.43 14.68C36.36 14.82 36.19 14.85 35.92 14.85H33.9L33.84 14.64H35.09ZM35.26 16.69H34.84V17.8H35.26V16.69Z" fill="#844E1A"/>
<path d="M50.75 12.5502L52.37 13.7802C52.3 13.8802 52.14 14.0002 51.89 14.0502V17.6003C51.89 17.6003 51.44 18.0002 50.26 18.0002V17.0103H48.91V17.6602C48.91 17.6602 48.66 18.3002 47.3 18.3002V15.7402C47.2 15.8002 47.05 15.8203 46.84 15.8203H45.11C45.05 16.0903 44.98 16.3303 44.88 16.5703C46.33 16.6303 46.83 17.2403 46.83 17.7903C46.83 18.2503 46.47 18.6602 46.04 18.6602C45.87 18.6602 45.7 18.6002 45.52 18.4402C45.38 17.9302 45.07 17.3802 44.69 16.9702C44.4 17.5202 43.95 18.0102 43.29 18.4302L44.94 19.1202H48.74L49.37 18.2202L51.05 19.4902C50.98 19.5902 50.84 19.7202 50.59 19.7702V23.7102C50.59 23.7102 50.13 24.1202 48.86 24.1202V23.2102H44.85V23.5302C44.85 23.5302 44.6 24.2102 43.16 24.2102V18.5002C42.72 18.7702 42.18 19.0002 41.53 19.2202L41.42 19.0502C42.93 18.1402 43.42 17.0802 43.59 15.8102H41.33L41.28 15.6102H43.61C43.67 15.0502 43.67 14.4602 43.68 13.8102H43.62C43.16 14.5302 42.6 15.0603 41.98 15.4203L41.84 15.3203C42.23 14.5803 42.54 13.2702 42.66 11.9902L44.6 12.5703C44.55 12.7403 44.45 12.8302 44.14 12.8402C44.02 13.1102 43.89 13.3602 43.75 13.6102H45.02L45.75 12.5502L47.11 13.6403C47.03 13.7803 46.85 13.8203 46.55 13.8203H45.31C45.29 14.4703 45.25 15.0702 45.16 15.6202H45.33L46.07 14.5602L47.32 15.5602V12.7202L48.97 13.4203H50.15L50.76 12.5602L50.75 12.5502ZM48.87 19.3203H44.86V21.0002H48.87V19.3203ZM44.86 23.0103H48.87V21.2102H44.86V23.0103ZM48.92 16.8002H50.27V13.6102H48.92V16.8002Z" fill="#844E1A"/>
<path d="M56.35 21.2703C56.48 21.6703 56.54 22.0203 56.54 22.3303C56.54 23.3703 55.91 23.9003 55.27 23.9003C54.76 23.9003 54.27 23.5803 54.27 23.0303C54.27 22.5603 54.64 22.2403 55.03 22.1103C55.54 22.0303 56.14 21.7403 56.21 21.2703H56.35ZM55.43 16.6703C55.35 16.8403 55.23 16.9303 55.11 16.9503L54.36 15.4803C54.8 15.4803 55.5 15.4503 56.34 15.4203V14.7003H54.97L54.91 14.5003H56.34V13.5803H54.65L54.59 13.3703H56.34V12.0303L58.32 12.2103C58.3 12.3603 58.22 12.4503 57.92 12.5003V13.3703H57.97L58.59 12.5303L59.77 13.4003V13.3703H61.35V12.0303L63.36 12.2103C63.34 12.3603 63.26 12.4703 62.96 12.5003V13.3703H63.35L63.99 12.4903L65.22 13.4003C65.14 13.5503 64.97 13.5803 64.67 13.5803H62.96V14.5003H63.17L63.78 13.6803L64.91 14.5203C64.83 14.6703 64.66 14.7003 64.37 14.7003H62.95V15.6703H63.56L64.2 14.7903L65.43 15.7003C65.35 15.8503 65.18 15.8803 64.88 15.8803H62.95V16.4903C62.95 16.4903 62.9 16.5503 62.83 16.6103L64.16 17.6003C64.1 17.6903 63.96 17.7903 63.74 17.8403V20.3903C63.74 20.3903 63.32 20.8503 62.07 20.8503V20.3003H55.42L55.36 20.1003H62.07V18.8603H55.86L55.8 18.6503H62.07V17.4503H55.51L55.45 17.2403H61.95L62.26 16.8003C61.86 16.8803 61.78 16.8803 61.33 16.8803V15.8803H59.68L59.62 15.6703H61.33V14.7003H60.13L60.07 14.5003H61.33V13.5803H59.79L59.74 13.4003C59.66 13.5503 59.49 13.5803 59.2 13.5803H57.89V14.5003H57.93L58.51 13.7103L59.62 14.5303C59.54 14.6803 59.37 14.7103 59.08 14.7103H57.89V15.3403L59.62 15.2503V15.4403C59.17 15.6103 58.61 15.7903 57.89 15.9903V16.6203C57.89 16.6203 57.58 17.0003 56.32 17.0003V16.4403L55.42 16.6803L55.43 16.6703ZM62.2 21.6503V22.6003C62.75 22.8203 62.82 22.8903 62.82 23.1203C62.82 23.7203 62.43 24.0403 60.92 24.0403H58.97C57.47 24.0403 57.14 23.7503 57.14 22.4503V21.0303L59.08 21.1603C58.93 20.9203 58.75 20.7003 58.56 20.5303L58.62 20.4503C58.8 20.4403 58.97 20.4203 59.11 20.4203C60.49 20.4203 60.97 20.9603 60.97 21.4603C60.97 21.9203 60.58 22.3603 60.11 22.3603C59.93 22.3603 59.73 22.3003 59.55 22.1303C59.45 21.8403 59.3 21.5003 59.12 21.2203C59.1 21.3103 59.01 21.3703 58.75 21.4103V22.4603C58.75 22.6203 58.87 22.7003 59.11 22.7003H60.95C61.46 22.7003 61.59 22.7003 62.14 21.6403H62.21L62.2 21.6503ZM62.34 21.1203C64.63 21.1803 65.37 22.0903 65.37 22.8503C65.37 23.4003 64.97 23.8703 64.48 23.8703C64.28 23.8703 64.06 23.7903 63.86 23.6103C63.6 22.7303 63 21.7503 62.28 21.2003L62.34 21.1103V21.1203Z" fill="#844E1A"/>
<path d="M76.36 15.6696L77.54 16.9096C77.45 16.9996 77.35 17.0496 77.09 17.0696C76.75 17.6896 76.28 18.3496 75.72 18.9596C77.07 19.1796 77.52 19.7396 77.52 20.2296C77.52 20.6596 77.16 21.0296 76.77 21.0296C76.58 21.0296 76.38 20.9496 76.21 20.7496C76.15 20.2196 75.95 19.6296 75.66 19.1996V23.5196C75.66 23.5996 75.21 23.9596 74.52 23.9596H74.26V20.2996C73.82 20.6296 73.35 20.9096 72.87 21.1396L72.8 21.0696C74.07 20.0796 75.24 18.1096 75.7 16.5996H73L72.95 16.4296H74.26V14.1096L76.03 14.2996C76.01 14.4296 75.93 14.5096 75.66 14.5496V16.3896L76.37 15.6796L76.36 15.6696ZM80.93 22.2296L82.17 23.2996C82.09 23.4096 81.95 23.4496 81.69 23.4496H76.42L76.38 23.2796H78.55V18.1796H77L76.96 18.0096H78.55V14.0996L80.37 14.2896C80.35 14.4196 80.26 14.5196 80 14.5596V18.0096H80.15L80.81 16.9996L82.01 18.0296C81.93 18.1396 81.79 18.1796 81.53 18.1796H80V23.2796H80.25L80.94 22.2296H80.93Z" fill="#844E1A"/>
<path d="M91.03 21.9703L92.3 22.9403C92.22 23.0503 92.1 23.0903 91.83 23.0903H85.02V23.5303C85.02 23.6403 84.6 24.0003 83.9 24.0003H83.65V14.6303L85.16 15.2203H89.86L90.55 14.2803L91.81 15.2403C91.74 15.3603 91.61 15.3903 91.35 15.3903H85.03V22.9203H90.36L91.05 21.9703H91.03ZM88.03 21.7803C88.03 21.8503 87.46 22.0703 87.09 22.0703H86.9V21.6403H86.47V21.9203C86.47 21.9203 86.32 22.3503 85.36 22.3503V18.8903L86.5 19.3903H86.81L87.22 18.8303L88.34 19.6503C88.29 19.7103 88.19 19.8003 88.03 19.8303V21.7803ZM90.18 18.4603C90.18 18.4603 89.81 18.7603 88.85 18.7603V18.2803H87.59V18.3403C87.59 18.3403 87.39 18.8403 86.28 18.8403V15.7803L87.63 16.3403H88.74L89.21 15.6703L90.51 16.6303C90.46 16.7003 90.35 16.7903 90.16 16.8303V18.4503L90.18 18.4603ZM86.47 21.4803H86.9V19.5603H86.47V21.4803ZM87.59 18.1203H88.85V16.5203H87.59V18.1203ZM91.16 21.8203C91.16 21.8903 90.57 22.1103 90.2 22.1103H90V21.6403H89.5V21.7403C89.5 21.7403 89.33 22.1803 88.37 22.1803V18.8803L89.54 19.3903H89.92L90.34 18.8203L91.48 19.6603C91.43 19.7203 91.34 19.7903 91.17 19.8303V21.8203H91.16ZM89.5 21.4803H90V19.5603H89.5V21.4803Z" fill="#844E1A"/>
<path d="M102.07 21.3796V22.6596C102.42 22.8496 102.46 22.9196 102.46 23.0896C102.46 23.5596 102.19 23.8596 101.34 23.8596H100.84C99.78 23.8596 99.59 23.5896 99.59 22.4896V20.8596C99.54 20.9496 99.44 20.9996 99.22 21.0096C98.95 22.3596 98.11 23.4796 95.77 24.0096L95.72 23.8596C97.36 23.1696 97.79 21.9796 97.88 20.6896C97.81 20.6996 97.77 20.6996 97.44 20.6996V19.0596C97.35 19.1096 97.23 19.1296 97.03 19.1296H95.92C95.92 19.5596 95.87 19.9596 95.8 20.3596C97.02 20.5896 97.43 21.1396 97.43 21.6196C97.43 22.0596 97.07 22.4296 96.68 22.4296C96.5 22.4296 96.29 22.3496 96.12 22.1396C96.12 21.6796 95.97 21.1596 95.73 20.7596C95.42 22.1296 94.7 23.2696 93.29 24.0096L93.21 23.9296C94.23 22.6496 94.54 21.0496 94.55 19.1396H93.22L93.18 18.9696H94.54V16.5296H93.46L93.42 16.3596H94.54V14.1596L96.28 14.3096C96.28 14.4596 96.17 14.5196 95.89 14.5596V16.2596L96.36 15.4396L97.33 16.3896C97.26 16.4996 97.12 16.5396 96.87 16.5396H95.89V18.9196L96.44 17.9796L97.41 18.9296V14.3796L98.83 14.9396H100.33L100.9 14.1396L102.2 15.1796C102.13 15.2696 102.04 15.3396 101.8 15.3796V20.2596C101.8 20.3196 101.45 20.5596 100.87 20.5996V22.5196C100.87 22.7396 100.87 22.7596 101 22.7596H101.29C101.44 22.7596 101.46 22.7496 101.55 22.5996C101.64 22.4496 101.79 22.0096 102 21.3996H102.06L102.07 21.3796ZM98.73 20.2696C98.73 20.3296 98.58 20.4796 98.31 20.5696L99.58 20.7696V20.1196H98.73V20.2696ZM100.44 15.0896H98.73V16.5896H100.44V15.0896ZM100.44 18.2596V16.7496H98.73V18.2596H100.44ZM100.44 18.4296H98.73V19.9596H100.44V18.4296Z" fill="#844E1A"/>
<path d="M110.59 15.5398C110.57 15.6798 110.5 15.7498 110.25 15.7898V21.1598C110.25 21.1598 110.06 21.4998 109.07 21.4998V16.1198H108.24V17.1498C108.24 17.2098 108 17.3498 107.72 17.4298L108.44 17.9598C108.37 18.0798 108.24 18.1098 107.99 18.1098H106.63V18.9098H107.29L107.86 18.1398L108.92 18.9298C108.85 19.0498 108.72 19.0798 108.47 19.0798H103.41L103.37 18.9098H105.43V18.1098H103.78L103.73 17.9398H105.43V17.1298H104.08L104.03 16.9598H105.43V16.1198H103.42L103.38 15.9498H105.43V15.1298H104.1L104.05 14.9598H105.42V14.0498L106.91 14.2098C106.91 14.3098 106.82 14.3798 106.61 14.4198V14.9698H107L107.39 14.4298L108.49 15.2298C108.45 15.2798 108.36 15.3398 108.23 15.3798V15.9598L108.61 15.3398L109.06 15.7498V15.4198L110.58 15.5498L110.59 15.5398ZM109.03 22.2898C108.03 22.6798 106.55 23.1098 104.28 23.7198C104.21 23.8598 104.11 23.9398 103.99 23.9598L103.38 22.4398C104.36 22.4398 106.63 22.3198 109.02 22.1598V22.2898H109.03ZM108.33 21.7698C108.33 21.8398 107.73 22.0698 107.35 22.0698H107.14V21.7698H104.99V21.8598C104.99 21.9298 104.64 22.1898 104.05 22.1898H103.85V19.1798L105.12 19.6898H107.05L107.47 19.1098L108.63 19.9598C108.59 20.0198 108.49 20.0898 108.33 20.1398V21.7598V21.7698ZM105.48 19.8698H105V20.6298H105.48V19.8698ZM105 20.7998V21.6098H105.48V20.7998H105ZM107.15 19.8698H106.6V20.6298H107.15V19.8698ZM106.6 21.6098H107.15V20.7998H106.6V21.6098ZM106.64 15.1398V15.9598H107.1V15.1398H106.64ZM107.1 16.9698V16.1298H106.64V16.9698H107.1ZM106.64 17.9498H106.94L107.26 17.5098H107.11V17.1398H106.65V17.9498H106.64ZM110.87 14.2598L112.51 14.4098C112.51 14.5598 112.45 14.6398 112.12 14.6898V22.3098C112.12 23.1798 111.94 23.8398 110.55 23.9898C110.55 23.0398 110.29 22.7498 109.49 22.6298V22.4898H110.72C110.83 22.4898 110.87 22.4398 110.87 22.3198V14.2698V14.2598Z" fill="#844E1A"/>
<path d="M121.27 14.51L122.59 15.51C122.53 15.59 122.41 15.69 122.2 15.73V18.61C122.2 18.61 121.83 18.93 120.87 18.93V18.13H119.78V18.66C119.78 18.66 119.58 19.18 118.47 19.18V17.1C118.39 17.15 118.27 17.16 118.09 17.16H116.69C116.64 17.38 116.58 17.58 116.51 17.77C117.69 17.82 118.1 18.31 118.1 18.76C118.1 19.13 117.81 19.47 117.46 19.47C117.32 19.47 117.18 19.42 117.03 19.29C116.91 18.87 116.66 18.43 116.35 18.09C116.12 18.54 115.75 18.93 115.21 19.28L116.55 19.84H119.64L120.15 19.11L121.51 20.14C121.45 20.22 121.34 20.33 121.13 20.37V23.58C121.13 23.58 120.75 23.91 119.73 23.91V23.17H116.47V23.43C116.47 23.43 116.27 23.98 115.1 23.98V19.34C114.74 19.56 114.31 19.75 113.77 19.92L113.68 19.79C114.91 19.05 115.31 18.19 115.44 17.16H113.6L113.56 16.99H115.46C115.51 16.53 115.51 16.05 115.52 15.52H115.47C115.09 16.1 114.64 16.54 114.14 16.83L114.02 16.75C114.34 16.15 114.59 15.08 114.69 14.04L116.27 14.51C116.23 14.65 116.14 14.72 115.89 14.73C115.79 14.95 115.69 15.16 115.57 15.35H116.61L117.2 14.49L118.3 15.37C118.23 15.48 118.09 15.52 117.85 15.52H116.84C116.82 16.05 116.79 16.54 116.71 16.99H116.85L117.45 16.13L118.47 16.94V14.63L119.81 15.2H120.77L121.26 14.5L121.27 14.51ZM119.74 20.02H116.48V21.38H119.74V20.02ZM116.48 23.02H119.74V21.55H116.48V23.02ZM119.78 17.97H120.87V15.38H119.78V17.97Z" fill="#844E1A"/>
<path d="M126.89 14.5601C126.86 14.6801 126.77 14.7501 126.51 14.7501C126.19 15.2001 125.73 15.7801 125.23 16.3201C125.76 16.3101 126.37 16.2901 127.01 16.2801C126.85 15.9601 126.63 15.6701 126.4 15.4501L126.46 15.3901C128.14 15.5901 128.69 16.2801 128.69 16.8601C128.69 17.3201 128.35 17.7001 127.95 17.7001C127.78 17.7001 127.58 17.6301 127.41 17.4501C127.36 17.1701 127.27 16.8701 127.16 16.5901C126.55 16.8601 125.71 17.2001 124.54 17.6301C124.52 17.6701 124.49 17.7001 124.47 17.7301L125.6 18.2201H126.62L127.13 17.4901L128.47 18.5201C128.41 18.6001 128.29 18.7101 128.08 18.7501V22.3301C128.08 23.1901 127.95 23.8401 126.57 24.0101C126.57 22.9301 126.39 22.6701 125.85 22.5501V22.4301H126.62C126.68 22.4301 126.7 22.4001 126.7 22.3001V21.2801H125.54V23.4301C125.54 23.4301 125.35 23.9701 124.23 23.9701V17.8701L123.66 16.3401H124.68C124.82 15.5901 124.94 14.7201 125.01 14.0801L126.9 14.5701L126.89 14.5601ZM126.71 18.3801H125.55V19.6501H126.71V18.3801ZM125.55 21.1001H126.71V19.8201H125.55V21.1001ZM132.35 17.4501C132.78 17.6501 132.81 17.7201 132.81 17.9201C132.81 18.4501 132.45 18.7301 131.4 18.7301H130.36C129.14 18.7301 128.9 18.4301 128.9 17.2401V14.0901L130.59 14.2101C130.59 14.3301 130.52 14.4001 130.27 14.4401V15.8901C130.78 15.4901 131.36 14.9601 131.66 14.6301L132.92 15.7001C132.85 15.7601 132.76 15.7901 132.63 15.7901C132.53 15.7901 132.43 15.7701 132.3 15.7401C131.81 15.8901 130.99 16.0501 130.27 16.1801V17.2601C130.27 17.5101 130.27 17.5301 130.48 17.5301H131.39C131.72 17.5301 131.81 17.5301 132.26 16.5101H132.32L132.34 17.4501H132.35ZM132.44 21.5801V22.5401C132.88 22.7501 132.93 22.8201 132.93 23.0201C132.93 23.5601 132.57 23.8501 131.49 23.8501H130.41C129.17 23.8501 128.92 23.5401 128.92 22.3301V19.0101L130.63 19.1301C130.61 19.2401 130.56 19.3201 130.3 19.3701V20.7101C130.81 20.2801 131.37 19.7301 131.67 19.3701L133.06 20.4601C132.99 20.5301 132.89 20.5701 132.73 20.5701C132.64 20.5701 132.54 20.5601 132.42 20.5301C131.9 20.7101 131.07 20.9101 130.29 21.0501V22.3401C130.29 22.6001 130.29 22.6101 130.52 22.6101H131.48C131.64 22.6101 131.76 22.6101 131.88 22.4901C132 22.3701 132.16 22.0301 132.37 21.5601H132.43L132.44 21.5801Z" fill="#844E1A"/>
<path d="M143.03 16.9296C142.95 17.0196 142.86 17.0496 142.65 17.0696C142.29 17.3496 141.68 17.7196 141.23 17.9096L141.15 17.8496C141.17 17.7396 141.19 17.5996 141.22 17.4396C141.16 17.4996 141.08 17.5596 140.93 17.5796L138.96 17.7696V18.0096C138.96 18.1429 139.07 18.2096 139.29 18.2096H141.08C141.57 18.2096 141.64 18.2096 142.09 17.5996H142.15L142.17 18.1396C142.63 18.3096 142.69 18.3696 142.69 18.5696C142.69 19.0496 142.34 19.2996 141.05 19.2996H139.21C138.64 19.2996 138.27 19.2496 138.04 19.0996C138 19.1496 137.91 19.1796 137.76 19.1996C137.66 19.4896 137.56 19.7796 137.43 20.0596H137.57L138.13 19.4596L139.02 20.2596V19.4596L140.33 19.9596H140.38L140.83 19.3296L141.92 20.1896C141.87 20.2596 141.76 20.3096 141.61 20.3396V21.1096C141.61 21.2296 141.61 21.2296 141.69 21.2296H141.92C142.05 21.2296 142.08 21.1496 142.36 20.4296H142.44L142.47 21.1896C142.72 21.3096 142.75 21.3996 142.75 21.6096C142.75 22.0296 142.5 22.3196 141.87 22.3196H141.4C140.54 22.3196 140.49 22.0496 140.49 21.0796V20.1296H140.16V20.5896C140.16 21.1496 139.97 22.0496 138.55 22.4896C138.96 22.5996 139.44 22.6396 140.01 22.6396C140.68 22.6396 142.3 22.6396 143.02 22.6196V22.7296C142.63 22.8296 142.44 23.3096 142.44 23.8496H139.97C138.81 23.8496 138.01 23.6196 137.46 22.8196C136.96 23.3096 136.29 23.6996 135.45 23.9896L135.41 23.8396C136.19 23.3896 136.74 22.7896 137.09 22.0696C136.99 21.7896 136.91 21.4796 136.84 21.0996C136.55 21.4996 136.21 21.8496 135.81 22.1296L135.71 22.0596C136.17 21.2996 136.44 19.9896 136.51 18.8796L137.89 18.9796C137.66 18.7196 137.66 18.2696 137.66 17.9096L136.03 18.0696V18.7996C136.03 20.4096 135.89 22.6096 133.88 23.9696L133.8 23.8996C134.62 22.3896 134.67 20.4796 134.67 18.7996V15.9396L136.23 16.4996H137.65V14.0996L139.42 14.2896C139.4 14.4296 139.32 14.4996 139.05 14.5396V15.3296H140.24L140.92 14.3996L142.17 15.3496C142.1 15.4596 141.95 15.4996 141.7 15.4996H139.06V16.5096H141.21L141.87 15.7896L143.02 16.9496L143.03 16.9296ZM136.05 17.8896L137.68 17.7196V16.6496H136.05V17.8896ZM137.36 20.2196C137.25 20.4496 137.14 20.6596 137 20.8596C137.1 21.1296 137.2 21.3596 137.32 21.5496C137.47 21.1296 137.58 20.6896 137.66 20.2196H137.36ZM138.44 22.3896C138.99 21.8496 139.02 21.1496 139.02 20.5696V20.4196C138.96 20.4496 138.88 20.4696 138.76 20.4796C138.61 21.1196 138.34 21.7196 137.98 22.2296C138.13 22.3196 138.3 22.3996 138.48 22.4496L138.44 22.3896ZM140.13 16.6596L141.23 17.3896C141.26 17.1396 141.29 16.8696 141.31 16.6496H138.79L139.26 16.6796C139.26 16.7896 139.19 16.8596 138.95 16.8996V17.5996L139.63 17.5296L140.12 16.6696L140.13 16.6596Z" fill="#844E1A"/>
<path d="M146.29 20.6403C146.7 20.5803 147.12 20.4903 147.55 20.4203V20.5103C147.02 20.9603 146.12 21.6003 144.78 22.4303C144.73 22.5603 144.62 22.6803 144.49 22.7103L143.92 20.9903C144.14 20.9703 144.5 20.9203 144.94 20.8603V18.1103H144.1L144.05 17.9403H144.94V15.2103H143.99L143.95 15.0403H145.91L146.51 14.0703L147.59 15.0603C147.51 15.1703 147.37 15.2103 147.12 15.2103H146.29V17.7603L146.68 17.0503L147.54 17.9603C147.47 18.0703 147.33 18.1103 147.09 18.1103H146.3V20.6403H146.29ZM152.07 22.4103L153.3 23.5103C153.22 23.6203 153.09 23.6603 152.82 23.6603H146.62L146.58 23.4903H149.46V21.3803H147.53L147.49 21.2103H149.45V19.1603H148.93V19.4803C148.93 19.4803 148.74 20.0203 147.6 20.0203V14.3603L148.99 14.9503H151.26L151.76 14.2303L153.1 15.2503C153.03 15.3303 152.92 15.4303 152.71 15.4703V19.4303C152.71 19.4303 152.38 19.8503 151.36 19.8503V19.1503H150.83V21.2003H151.17L151.8 20.2103L152.94 21.2203C152.86 21.3403 152.73 21.3703 152.47 21.3703H150.84V23.4803H151.39L152.07 22.4003V22.4103ZM149.46 15.1303H148.94V16.9803H149.46V15.1303ZM148.94 19.0003H149.46V17.1503H148.94V19.0003ZM151.38 15.1303H150.85V16.9803H151.38V15.1303ZM150.85 19.0003H151.38V17.1503H150.85V19.0003Z" fill="#844E1A"/>
<path d="M26.16 58.3604V58.9604H23.43V59.3104H26.55V61.1004H25.82V59.9204H23.42V61.5804H22.7V59.9204H20.34V61.1704H19.61V59.3204H22.7V58.9704H20V58.3704H26.15L26.16 58.3604ZM26.07 61.7704V64.2304L26.71 64.4404C26.62 65.0004 26.49 65.3404 26.31 65.4404C26.14 65.5404 25.84 65.6004 25.41 65.6004H23.36C23.14 65.6004 22.97 65.5404 22.85 65.4304C22.73 65.3104 22.66 65.1504 22.66 64.9604V64.4104H20.12V61.7704H26.08H26.07ZM22.44 60.2304V60.7104H20.62V60.2304H22.44ZM22.44 60.9604V61.4404H20.62V60.9604H22.44ZM22.65 62.8104V62.3304H20.81V62.8104H22.65ZM22.65 63.3204H20.81V63.8304H22.65V63.3204ZM23.35 62.8104H25.37V62.3304H23.35V62.8104ZM25.37 63.3204H23.35V63.8304H25.37V63.3204ZM23.35 64.7604C23.35 64.9104 23.44 64.9804 23.62 64.9804H25.32C25.54 64.9804 25.7 64.9604 25.8 64.9104C25.9 64.8604 25.97 64.7004 26.02 64.4004H23.35V64.7504V64.7604ZM25.59 60.2004V60.6804H23.71V60.2004H25.59ZM25.59 60.9704V61.4504H23.71V60.9704H25.59Z" fill="#40220F"/>
<path d="M31.07 58.9004C30.65 58.9704 30.18 59.0304 29.64 59.0604V59.6004H31.21V60.2004H29.64V60.6204H31.16V63.1404H29.64V63.6104H31V64.1604H29.64V64.7904C30.14 64.7504 30.59 64.7004 31 64.6304V64.9004C31.47 64.1704 31.79 63.4004 31.99 62.5704C32.13 62.0404 32.21 61.3004 32.25 60.3304H31.42V59.6604H32.27V58.1904H32.94V59.6604H34.34C34.34 62.4304 34.31 64.0704 34.26 64.5704C34.21 64.9604 34.13 65.2204 34.01 65.3504C33.87 65.5104 33.62 65.5904 33.25 65.5904C33.08 65.5904 32.89 65.5704 32.68 65.5604L32.56 64.7604C32.79 64.8104 33.02 64.8204 33.26 64.8204C33.47 64.8204 33.59 64.6604 33.61 64.3204C33.65 63.9104 33.67 62.5804 33.69 60.3204H32.94C32.89 61.2704 32.8 62.0804 32.65 62.7504C32.45 63.6604 32.07 64.6004 31.51 65.5504L31.02 65.1204V65.2004C30.33 65.3204 29.13 65.4404 27.42 65.5504L27.33 64.8804C27.93 64.8604 28.5 64.8504 29.03 64.8104V64.1404H27.67V63.5904H29.03V63.1204H27.61V60.6004H29.03V60.1804H27.28V59.5804H29.03V59.0804C28.6 59.1004 28.15 59.1004 27.67 59.1004L27.49 58.4904C28.78 58.4904 29.89 58.4304 30.79 58.3004L31.09 58.8704L31.07 58.9004ZM29.01 61.6804V61.1404H28.26V61.6804H29.01ZM29.01 62.1304H28.26V62.6404H29.01V62.1304ZM29.65 61.6804H30.5V61.1404H29.65V61.6804ZM30.5 62.1304H29.65V62.6404H30.5V62.1304Z" fill="#40220F"/>
<path d="M38.22 58.8106V58.1406H38.97V58.8106H42.03V59.5106H38.97V60.0506H41.49V63.3006H38.97V63.8806H42.09V64.5806H38.97V65.6306H38.22V64.5806H35.1V63.8806H38.22V63.3006H35.73V60.0506H38.22V59.5106H35.19V58.8106H38.22ZM38.22 61.2906V60.7506H36.43V61.2906H38.22ZM38.22 61.9306H36.43V62.6006H38.22V61.9306ZM38.97 61.2906H40.79V60.7506H38.97V61.2906ZM40.79 61.9306H38.97V62.6006H40.79V61.9306Z" fill="#40220F"/>
<path d="M43.19 59.8902C43.18 59.4802 43.16 59.0702 43.14 58.6602C43.41 58.6602 43.68 58.6802 43.94 58.6902C44.21 58.7002 44.47 58.7101 44.75 58.7101C45.2 58.7101 45.59 58.7102 45.94 58.7002C46.29 58.7002 46.52 58.6802 46.64 58.6702C46.62 58.7702 46.6 58.9102 46.6 59.0702C46.6 59.1702 46.6 59.2502 46.6 59.3102C46.6 59.3702 46.62 59.4302 46.63 59.5002C46.45 59.4902 46.26 59.4701 46.06 59.4601C45.85 59.4501 45.65 59.4302 45.45 59.4202C45.25 59.4102 45.08 59.4002 44.92 59.3902C44.76 59.3902 44.65 59.3902 44.59 59.3902C44.57 59.7402 44.55 60.0901 44.55 60.4301C44.55 60.7701 44.55 61.1202 44.55 61.4702C44.94 61.4702 45.3 61.4502 45.61 61.4402C45.93 61.4302 46.26 61.4102 46.6 61.3902C46.58 61.5002 46.57 61.5802 46.56 61.6402C46.56 61.7002 46.56 61.7602 46.56 61.8202C46.56 61.8702 46.56 61.9202 46.57 61.9802C46.57 62.0302 46.59 62.1101 46.6 62.2101C45.91 62.1501 45.23 62.1201 44.55 62.1201C44.55 62.3201 44.55 62.5302 44.55 62.7302C44.55 62.9302 44.55 63.1401 44.55 63.3401C44.55 63.7501 44.55 64.1502 44.58 64.5302C44.92 64.5302 45.27 64.5302 45.61 64.5002C45.95 64.4802 46.3 64.4502 46.65 64.4102C46.64 64.4802 46.63 64.5402 46.62 64.6002C46.62 64.6602 46.62 64.7401 46.62 64.8401C46.62 64.9401 46.62 65.0201 46.62 65.0801C46.62 65.1401 46.64 65.1802 46.65 65.2202C46.49 65.2202 46.29 65.2101 46.05 65.2101C45.81 65.2101 45.48 65.2101 45.07 65.2101H43.64C43.5 65.2101 43.4 65.2101 43.33 65.2101C43.26 65.2101 43.2 65.2102 43.15 65.2202C43.17 64.8302 43.19 64.4301 43.2 64.0201C43.21 63.6101 43.22 63.1401 43.22 62.6201V61.3301C43.22 60.8001 43.22 60.3401 43.2 59.9301L43.19 59.8902Z" fill="#40220F"/>
<path d="M48.32 63.0702C48.27 63.7802 48.22 64.4902 48.18 65.2002C48.11 65.1902 48.04 65.1801 47.96 65.1801H47.54C47.47 65.1801 47.4 65.1802 47.33 65.2002C47.52 64.1102 47.69 63.0202 47.85 61.9402C48.01 60.8602 48.14 59.7702 48.27 58.6602C48.34 58.6702 48.4 58.6802 48.46 58.6902C48.52 58.6902 48.58 58.7002 48.64 58.7002C48.69 58.7002 48.75 58.7002 48.81 58.6902C48.87 58.6902 48.93 58.6702 49 58.6602C49.16 59.0402 49.33 59.4302 49.51 59.8202C49.69 60.2102 49.87 60.6102 50.04 61.0002C50.22 61.3902 50.4 61.7701 50.57 62.1501C50.75 62.5301 50.92 62.8802 51.08 63.2202C51.44 62.5102 51.8 61.7601 52.16 60.9901C52.52 60.2101 52.86 59.4402 53.19 58.6702C53.34 58.7002 53.47 58.7202 53.58 58.7202C53.68 58.7202 53.81 58.7002 53.96 58.6702C54.02 59.2202 54.08 59.8001 54.15 60.4301C54.22 61.0601 54.29 61.6701 54.35 62.2701C54.41 62.8701 54.48 63.4302 54.55 63.9502C54.62 64.4702 54.68 64.8901 54.73 65.2101C54.61 65.2001 54.49 65.1902 54.36 65.1902H53.62C53.49 65.1902 53.37 65.1901 53.24 65.2101C53.21 64.5601 53.16 63.8501 53.09 63.0901C53.02 62.3301 52.95 61.5702 52.88 60.8202H52.86C52.52 61.5702 52.18 62.3102 51.85 63.0302C51.52 63.7502 51.19 64.4801 50.86 65.2101C50.83 65.2101 50.8 65.2002 50.77 65.2002C50.74 65.2002 50.71 65.2002 50.68 65.2002C50.65 65.2002 50.62 65.2002 50.59 65.2002C50.56 65.2002 50.53 65.2001 50.5 65.2101C50.17 64.5001 49.85 63.7901 49.53 63.0801C49.21 62.3701 48.87 61.6502 48.53 60.9202H48.51C48.41 61.6502 48.34 62.3701 48.29 63.0801L48.32 63.0702Z" fill="#40220F"/>
<path d="M57.43 59.1308C57.15 59.1308 56.93 59.2108 56.75 59.3908C56.58 59.5608 56.49 59.7608 56.49 59.9908C56.49 60.2208 56.56 60.4208 56.69 60.5708C56.82 60.7208 57 60.8508 57.2 60.9708C57.41 61.0908 57.63 61.2108 57.86 61.3208C58.1 61.4308 58.32 61.5708 58.52 61.7308C58.72 61.8908 58.9 62.0908 59.03 62.3208C59.17 62.5508 59.23 62.8508 59.23 63.2108C59.23 63.5308 59.17 63.8208 59.06 64.0808C58.95 64.3408 58.78 64.5708 58.57 64.7608C58.36 64.9508 58.11 65.0908 57.81 65.1908C57.52 65.2908 57.19 65.3408 56.83 65.3408C56.5 65.3408 56.21 65.3008 55.96 65.2308C55.7 65.1608 55.51 65.0708 55.38 64.9608C55.44 64.7408 55.49 64.5408 55.53 64.3508C55.57 64.1708 55.61 63.9708 55.64 63.7508H55.81C55.83 63.8908 55.88 64.0208 55.95 64.1508C56.02 64.2708 56.1 64.3808 56.2 64.4808C56.3 64.5708 56.43 64.6508 56.57 64.7008C56.71 64.7508 56.88 64.7808 57.06 64.7808C57.42 64.7808 57.69 64.6808 57.86 64.4908C58.03 64.3008 58.12 64.0708 58.12 63.8008C58.12 63.5608 58.05 63.3608 57.92 63.2108C57.79 63.0608 57.62 62.9208 57.42 62.8108C57.22 62.6908 57 62.5808 56.77 62.4708C56.53 62.3608 56.32 62.2208 56.12 62.0608C55.92 61.9008 55.76 61.7108 55.62 61.4808C55.49 61.2508 55.42 60.9508 55.42 60.5908C55.42 60.2608 55.48 59.9708 55.59 59.7108C55.7 59.4608 55.85 59.2408 56.04 59.0708C56.23 58.9008 56.44 58.7708 56.69 58.6808C56.93 58.5908 57.19 58.5508 57.46 58.5508C57.79 58.5508 58.07 58.5908 58.31 58.6708C58.55 58.7508 58.76 58.8708 58.94 59.0108C58.89 59.1608 58.84 59.3008 58.8 59.4308C58.76 59.5708 58.71 59.7408 58.65 59.9508H58.51C58.32 59.4008 57.95 59.1308 57.42 59.1308H57.43Z" fill="#40220F"/>
<path d="M62.42 63.5605C61.89 64.2205 61.23 64.8205 60.45 65.3405L59.96 64.6705C60.68 64.2505 61.32 63.7205 61.9 63.0805L62.42 63.5605ZM66.66 58.9005C65.71 59.1005 64.58 59.2505 63.27 59.3305C63.07 59.6905 62.77 60.0605 62.39 60.4505C62.98 60.4305 63.55 60.3905 64.13 60.3505C64.43 60.0605 64.73 59.7605 65.03 59.4405L65.72 59.7905C64.73 60.8005 63.75 61.6405 62.79 62.3005C63.88 62.2705 64.81 62.2105 65.56 62.1205C65.39 61.8205 65.22 61.5105 65.03 61.2005L65.57 60.8505C66.14 61.6905 66.58 62.4105 66.9 63.0105L66.23 63.4905C66.12 63.2505 66 62.9805 65.86 62.7105C65.32 62.7805 64.68 62.8505 63.93 62.9005V64.7705C63.93 65.0705 63.86 65.2805 63.72 65.4105C63.6 65.5405 63.36 65.6105 63.02 65.6105H62.32L62.16 64.7805C62.42 64.8305 62.63 64.8405 62.8 64.8405C63.02 64.8405 63.13 64.7805 63.13 64.6405V62.9505C62.33 63.0005 61.43 63.0505 60.44 63.0805L60.25 62.3505C60.74 62.3505 61.2 62.3505 61.64 62.3505C62.25 61.9605 62.83 61.5105 63.4 61.0005C62.58 61.0705 61.66 61.1505 60.67 61.2105L60.52 60.5405C60.81 60.5405 61.1 60.5205 61.39 60.5105C61.81 60.1705 62.16 59.7905 62.43 59.3805C61.76 59.4105 61.05 59.4205 60.31 59.4205L60.1 58.7505C62.53 58.7505 64.6 58.5905 66.31 58.2705L66.64 58.9105L66.66 58.9005ZM66.9 64.7405L66.36 65.3105C65.93 64.7705 65.31 64.1905 64.51 63.5605L65.03 63.0505C65.77 63.6205 66.39 64.1805 66.91 64.7405H66.9Z" fill="#40220F"/>
<path d="M69.53 58.3604C69.28 59.1304 69 59.8104 68.69 60.4004C68.91 60.3704 69.12 60.3304 69.33 60.2904C69.49 59.9304 69.66 59.5504 69.83 59.1304L70.43 59.3504C69.89 60.6004 69.35 61.6204 68.79 62.4204C69.19 62.3704 69.53 62.3104 69.81 62.2104C69.75 61.9804 69.68 61.7504 69.61 61.5204L70.16 61.3204C70.34 61.8304 70.5 62.4004 70.64 63.0404L70.04 63.2004C70.01 63.0604 69.99 62.9204 69.96 62.7804C69.46 62.9404 68.75 63.0704 67.84 63.1604L67.65 62.4604C67.82 62.4604 67.98 62.4604 68.13 62.4604C68.42 62.0404 68.71 61.5304 69.01 60.9404C68.61 61.0204 68.17 61.1104 67.71 61.1904L67.56 60.5204C67.7 60.5204 67.85 60.5004 67.99 60.4804C68.33 59.7804 68.63 58.9904 68.89 58.1304L69.53 58.3504V58.3604ZM68.44 63.5304C68.39 64.3404 68.32 65.0204 68.2 65.5704L67.56 65.3704C67.71 64.7704 67.81 64.1404 67.86 63.4604L68.43 63.5304H68.44ZM69.53 65.2204L68.89 65.2904C68.87 64.5204 68.84 63.9304 68.8 63.5004L69.34 63.4404C69.43 63.8804 69.5 64.4804 69.53 65.2304V65.2204ZM70.55 64.6704L69.98 64.8304C69.9 64.3504 69.82 63.8804 69.71 63.4304L70.23 63.2704C70.35 63.6904 70.46 64.1504 70.56 64.6704H70.55ZM73.02 59.0304H74.67V59.6704H72.45C72.31 60.2204 72.1 60.7604 71.82 61.2504C72.5 61.2204 73.08 61.1404 73.56 61.0104C73.47 60.8104 73.36 60.6104 73.25 60.4004L73.77 60.0504C74.18 60.7204 74.51 61.2904 74.74 61.7704L74.1 62.2204C74.01 62.0204 73.92 61.8004 73.83 61.5804C73.68 61.6204 73.51 61.6504 73.34 61.6904V64.5804C73.34 64.7304 73.42 64.8004 73.58 64.8004H73.88C73.95 64.8004 74 64.7604 74.04 64.6604C74.07 64.5604 74.1 64.1204 74.12 63.3304L74.76 63.5304C74.71 64.4804 74.63 65.0204 74.52 65.1904C74.42 65.3504 74.24 65.4404 73.98 65.4404H73.34C73.13 65.4404 72.97 65.3804 72.85 65.2704C72.73 65.1404 72.67 64.9704 72.67 64.7704V61.8104C72.51 61.8304 72.36 61.8604 72.2 61.8804C72.15 62.9004 72.03 63.6604 71.84 64.1504C71.61 64.7304 71.22 65.2304 70.68 65.6604L70.23 65.0604C70.71 64.7004 71.04 64.3104 71.22 63.8704C71.39 63.4904 71.49 62.8604 71.54 61.9604C71.28 61.9904 71 62.0204 70.71 62.0304L70.53 61.2904C70.72 61.2904 70.9 61.2904 71.08 61.2904C71.37 60.7804 71.6 60.2404 71.75 59.6704H70.53V59.0304H72.3C72.19 58.8204 72.07 58.6004 71.92 58.3604L72.59 58.1104C72.75 58.3704 72.89 58.6804 73.03 59.0304H73.02Z" fill="#40220F"/>
<path d="M23.85 74.6204C23.85 74.8704 23.87 75.1104 23.92 75.3304C23.97 75.5504 24.04 75.7404 24.14 75.9104C24.24 76.0704 24.37 76.2004 24.52 76.2904C24.67 76.3804 24.85 76.4304 25.06 76.4304C25.48 76.4304 25.85 76.2904 26.17 76.0004L26.28 76.0904L26.08 76.6204C25.93 76.7404 25.75 76.8404 25.54 76.9104C25.33 76.9804 25.05 77.0204 24.71 77.0204C24.41 77.0204 24.13 76.9804 23.87 76.8904C23.6 76.8004 23.37 76.6604 23.17 76.4704C22.97 76.2704 22.81 76.0204 22.69 75.7204C22.57 75.4204 22.51 75.0604 22.51 74.6404C22.51 74.2204 22.56 73.8704 22.67 73.5604C22.78 73.2604 22.92 73.0004 23.11 72.8004C23.3 72.6004 23.52 72.4404 23.77 72.3404C24.03 72.2404 24.31 72.1904 24.61 72.1904C25.21 72.1904 25.66 72.3704 25.98 72.7404C26.3 73.1104 26.46 73.6304 26.46 74.3004V74.5004C26.46 74.5604 26.46 74.5904 26.46 74.6104H23.86L23.85 74.6204ZM25.24 74.1904C25.23 73.7104 25.17 73.3304 25.07 73.0504C24.97 72.7604 24.8 72.6204 24.57 72.6204C24.44 72.6204 24.33 72.6704 24.24 72.7604C24.15 72.8504 24.08 72.9804 24.02 73.1304C23.97 73.2804 23.93 73.4504 23.9 73.6304C23.87 73.8204 23.86 74.0004 23.85 74.1904H25.24Z" fill="#40220F"/>
<path d="M27.26 71.3007C27.25 70.7807 27.23 70.2507 27.21 69.7207C27.29 69.7307 27.39 69.7407 27.51 69.7507C27.63 69.7507 27.76 69.7607 27.89 69.7607C28.02 69.7607 28.15 69.7607 28.27 69.7507C28.39 69.7507 28.49 69.7307 28.57 69.7207C28.55 70.2507 28.53 70.7807 28.52 71.3007C28.51 71.8207 28.5 72.3907 28.5 73.0107L28.52 73.0307C28.68 72.7607 28.87 72.5607 29.09 72.4107C29.32 72.2607 29.57 72.1907 29.86 72.1907C30.31 72.1907 30.66 72.3307 30.9 72.6007C31.14 72.8807 31.27 73.3207 31.27 73.9407C31.27 74.2607 31.27 74.5507 31.25 74.8007C31.24 75.0507 31.23 75.3007 31.23 75.5407C31.23 75.7407 31.23 75.9607 31.24 76.2007C31.24 76.4407 31.26 76.6707 31.27 76.8907C31.19 76.8807 31.09 76.8707 30.97 76.8707H30.21C30.09 76.8707 29.99 76.8707 29.91 76.8907C29.95 76.5607 29.98 76.1707 29.99 75.7207C30 75.2707 30.01 74.7607 30.01 74.1807C30.01 73.7807 29.94 73.4907 29.82 73.3007C29.69 73.1107 29.51 73.0207 29.27 73.0207C29 73.0207 28.8 73.1407 28.67 73.3907C28.54 73.6407 28.48 73.9807 28.48 74.4207V74.8007C28.48 74.8907 28.48 75.0207 28.48 75.1907C28.48 75.3607 28.48 75.5407 28.49 75.7407C28.49 75.9407 28.5 76.1407 28.51 76.3507C28.51 76.5607 28.53 76.7407 28.54 76.8907C28.46 76.8807 28.36 76.8707 28.24 76.8707H27.48C27.36 76.8707 27.26 76.8707 27.18 76.8907C27.2 76.3807 27.22 75.8607 27.23 75.3407C27.24 74.8207 27.25 74.2507 27.25 73.6307V73.0107C27.25 72.3907 27.25 71.8207 27.23 71.3007H27.26Z" fill="#40220F"/>
<path d="M32.06 74.7304C32.06 74.3104 32.12 73.9304 32.25 73.6204C32.37 73.3004 32.54 73.0404 32.74 72.8304C32.95 72.6204 33.18 72.4604 33.45 72.3504C33.72 72.2504 33.99 72.1904 34.28 72.1904C34.99 72.1904 35.53 72.4004 35.92 72.8204C36.31 73.2404 36.5 73.8104 36.5 74.5204C36.5 74.9104 36.45 75.2604 36.34 75.5704C36.23 75.8804 36.08 76.1504 35.88 76.3604C35.68 76.5804 35.45 76.7404 35.18 76.8504C34.91 76.9604 34.61 77.0104 34.28 77.0104C34.01 77.0104 33.74 76.9704 33.48 76.9004C33.22 76.8204 32.98 76.7004 32.77 76.5204C32.56 76.3404 32.39 76.1004 32.26 75.8104C32.13 75.5204 32.07 75.1604 32.07 74.7304H32.06ZM35.15 74.3804C35.15 73.8204 35.08 73.3904 34.95 73.0804C34.82 72.7704 34.6 72.6204 34.29 72.6204C34.01 72.6204 33.79 72.7904 33.63 73.1304C33.47 73.4704 33.39 74.0104 33.39 74.7404C33.39 75.0104 33.4 75.2504 33.43 75.4804C33.46 75.7104 33.51 75.9104 33.58 76.0704C33.65 76.2404 33.74 76.3704 33.85 76.4704C33.96 76.5604 34.1 76.6104 34.27 76.6104C34.85 76.6104 35.14 75.8604 35.14 74.3704L35.15 74.3804Z" fill="#40220F"/>
<path d="M38.52 73.0304C38.69 72.7604 38.89 72.5604 39.11 72.4104C39.34 72.2604 39.59 72.1904 39.88 72.1904C40.15 72.1904 40.38 72.2704 40.58 72.4204C40.78 72.5804 40.93 72.8004 41.04 73.0904C41.22 72.8004 41.43 72.5704 41.67 72.4204C41.91 72.2604 42.17 72.1904 42.44 72.1904C42.89 72.1904 43.24 72.3304 43.48 72.6004C43.72 72.8804 43.85 73.3204 43.85 73.9404C43.85 74.2604 43.85 74.5504 43.83 74.8004C43.82 75.0504 43.81 75.3004 43.81 75.5404C43.81 75.7404 43.81 75.9604 43.82 76.2004C43.83 76.4404 43.84 76.6704 43.85 76.8904C43.77 76.8804 43.67 76.8704 43.55 76.8704H42.79C42.67 76.8704 42.57 76.8704 42.49 76.8904C42.53 76.5604 42.56 76.1704 42.57 75.7204C42.58 75.2704 42.59 74.7604 42.59 74.1804C42.59 73.7804 42.53 73.4904 42.4 73.3004C42.27 73.1104 42.1 73.0204 41.87 73.0204C41.73 73.0204 41.61 73.0604 41.51 73.1204C41.42 73.1904 41.34 73.2804 41.29 73.3904C41.24 73.5004 41.2 73.6204 41.18 73.7504C41.16 73.8804 41.15 74.0004 41.15 74.1104V74.8004C41.15 75.1904 41.15 75.5504 41.16 75.8904C41.16 76.2304 41.19 76.5604 41.22 76.8804C41.14 76.8704 41.04 76.8604 40.93 76.8604H40.17C40.06 76.8604 39.96 76.8604 39.87 76.8804C39.9 76.5604 39.92 76.2304 39.93 75.8904C39.93 75.5504 39.94 75.1804 39.94 74.8004V74.2204C39.94 73.8404 39.9 73.5404 39.8 73.3404C39.71 73.1304 39.54 73.0304 39.28 73.0304C39.01 73.0304 38.81 73.1504 38.68 73.4004C38.55 73.6504 38.49 73.9904 38.49 74.4304V74.8104C38.49 75.2004 38.49 75.5604 38.5 75.9004C38.5 76.2404 38.53 76.5704 38.56 76.8904C38.48 76.8804 38.38 76.8704 38.27 76.8704H37.51C37.4 76.8704 37.3 76.8704 37.21 76.8904C37.24 76.5704 37.26 76.2404 37.27 75.9004C37.27 75.5604 37.28 75.1904 37.28 74.8104V74.4304C37.28 74.0404 37.28 73.6804 37.27 73.3404C37.27 73.0004 37.24 72.6604 37.21 72.3204C37.32 72.3304 37.43 72.3404 37.53 72.3504C37.64 72.3504 37.74 72.3604 37.85 72.3604C37.96 72.3604 38.07 72.3604 38.17 72.3504C38.28 72.3504 38.39 72.3304 38.51 72.3204L38.47 73.0304H38.49H38.52Z" fill="#40220F"/>
<path d="M45.96 74.6204C45.96 74.8704 45.98 75.1104 46.03 75.3304C46.08 75.5504 46.15 75.7404 46.25 75.9104C46.35 76.0704 46.48 76.2004 46.63 76.2904C46.78 76.3804 46.96 76.4304 47.17 76.4304C47.59 76.4304 47.96 76.2904 48.28 76.0004L48.39 76.0904L48.19 76.6204C48.04 76.7404 47.86 76.8404 47.65 76.9104C47.44 76.9804 47.16 77.0204 46.82 77.0204C46.52 77.0204 46.24 76.9804 45.98 76.8904C45.71 76.8004 45.48 76.6604 45.28 76.4704C45.08 76.2704 44.92 76.0204 44.8 75.7204C44.68 75.4204 44.62 75.0604 44.62 74.6404C44.62 74.2204 44.67 73.8704 44.78 73.5604C44.89 73.2604 45.03 73.0004 45.22 72.8004C45.41 72.6004 45.63 72.4404 45.88 72.3404C46.14 72.2404 46.42 72.1904 46.72 72.1904C47.32 72.1904 47.77 72.3704 48.09 72.7404C48.41 73.1104 48.57 73.6304 48.57 74.3004V74.5004C48.57 74.5604 48.57 74.5904 48.57 74.6104H45.97L45.96 74.6204ZM47.35 74.1904C47.34 73.7104 47.28 73.3304 47.18 73.0504C47.08 72.7604 46.91 72.6204 46.68 72.6204C46.55 72.6204 46.44 72.6704 46.35 72.7604C46.26 72.8504 46.19 72.9804 46.13 73.1304C46.08 73.2804 46.04 73.4504 46.01 73.6304C45.98 73.8204 45.97 74.0004 45.96 74.1904H47.35Z" fill="#40220F"/>
<path d="M50.05 71.3902L49.5 71.6402C49.38 71.1702 49.25 70.7601 49.11 70.4001L49.65 70.2002C49.8 70.5802 49.93 70.9702 50.05 71.3802V71.3902ZM50.83 69.9202V71.8401H51.32V69.9202H51.96V71.8401H52.87V72.5402H52.3L52.03 73.4301H52.69V74.1002H51.42V74.8301H52.69V75.4702H51.42V76.3502C51.95 76.2802 52.44 76.2001 52.87 76.1101V76.7502C52.2 76.9302 51.02 77.1002 49.33 77.2602L49.24 76.4901C49.77 76.4901 50.26 76.4602 50.73 76.4202V75.4702H49.4V74.8301H50.73V74.1002H49.4V73.4301H50.05L49.78 72.5402H49.25V71.8401H50.22V69.9202H50.86H50.83ZM51.36 73.4301L51.64 72.5402H50.4L50.68 73.4301H51.36ZM53.14 70.4001C52.97 70.8701 52.78 71.2701 52.57 71.6101L52.03 71.2002C52.25 70.9002 52.45 70.5501 52.63 70.1501L53.14 70.4001ZM54.47 75.0201L53.8 75.3401C53.55 74.6001 53.28 73.9401 52.99 73.3601L53.66 73.1402C53.97 73.7302 54.24 74.3601 54.47 75.0201ZM54.77 71.5702V69.9102H55.53V71.5702H56.2V72.2401H55.53V76.4502C55.53 76.7402 55.46 76.9502 55.34 77.0602C55.22 77.1802 55 77.2502 54.68 77.2502H53.56L53.4 76.4502C53.83 76.5002 54.18 76.5201 54.46 76.5201C54.66 76.5201 54.76 76.4502 54.76 76.3202V72.2401H53.01V71.5702H54.76H54.77Z" fill="#40220F"/>
<path d="M58.55 70.7608H59.56V71.4308H56.9V70.7608H57.85C57.8 70.4708 57.75 70.1908 57.69 69.9308L58.42 69.8408C58.47 70.1208 58.51 70.4208 58.56 70.7608H58.55ZM57.84 77.3008H57.14V74.3608H59.26V77.1008H58.56V76.7208H57.84V77.3008ZM59.23 71.9708V72.6108H57.18V71.9708H59.23ZM59.23 73.1508V73.7908H57.18V73.1508H59.23ZM58.56 75.0308H57.84V76.0508H58.56V75.0308ZM60.5 70.3808V69.8408H61.11V70.3808H62.08V69.8408H62.68V70.3808H63.68V70.9508H62.68V71.4008H63.62V71.9408H62.68V72.3908H63.86V72.9608H61.98V73.3408H63.55V75.4108H64.03V76.0108H63.55V76.5208C63.55 76.7708 63.49 76.9508 63.37 77.0808C63.26 77.1908 63.12 77.2508 62.94 77.2508H62.06L61.9 76.5808L62.69 76.6108C62.83 76.5908 62.9 76.5008 62.9 76.3208V76.0008H60.42V77.3408H59.78V76.0008H59.32V75.4008H59.78V73.3308H61.32V72.9508H59.48V72.3808H60.47V71.9308H59.72V71.3908H60.47V70.9408H59.66V70.3708H60.47L60.5 70.3808ZM61.35 74.4008V73.9308H60.44V74.4008H61.35ZM61.35 75.4208V74.9108H60.44V75.4208H61.35ZM62.08 70.9508H61.11V71.4008H62.08V70.9508ZM62.08 72.3908V71.9408H61.11V72.3908H62.08ZM61.99 74.4008H62.93V73.9308H61.99V74.4008ZM62.93 75.4208V74.9108H61.99V75.4208H62.93Z" fill="#40220F"/>
<path d="M65.49 71.3908V69.8508H66.16V71.3908H66.76V72.0608H66.16V72.5008C66.44 72.8608 66.73 73.2608 67 73.6808L66.88 73.8808H67.53C67.53 73.7008 67.55 73.5008 67.55 73.3008C67.38 73.3208 67.21 73.3508 67.04 73.3708L66.92 72.8008C67.04 72.8008 67.15 72.8008 67.27 72.7808C67.44 72.5308 67.61 72.2408 67.78 71.9008C67.52 71.9608 67.24 72.0108 66.94 72.0708L66.82 71.5308C66.91 71.5308 67.01 71.5108 67.11 71.5008C67.36 71.0308 67.54 70.5208 67.66 69.9708L68.21 70.0308C68.09 70.5308 67.92 70.9908 67.7 71.4108C67.82 71.3908 67.92 71.3708 68.03 71.3408C68.12 71.1408 68.21 70.9208 68.3 70.7008L68.82 70.8908C68.49 71.6508 68.16 72.2708 67.84 72.7508C68.02 72.7308 68.2 72.7208 68.37 72.7008C68.33 72.5408 68.29 72.3908 68.25 72.2308L68.65 72.1308C68.82 72.5708 68.95 72.9808 69.04 73.3408L68.55 73.5408C68.53 73.4208 68.5 73.2908 68.48 73.1808C68.37 73.2008 68.26 73.2108 68.16 73.2308C68.16 73.4808 68.16 73.7008 68.14 73.8908H69.14C69.02 73.0408 68.94 71.6908 68.91 69.8408H69.52C69.57 71.7508 69.64 73.1108 69.74 73.8908H70.46C70.41 73.7308 70.34 73.5608 70.27 73.3908C70.13 73.4108 69.99 73.4208 69.85 73.4408L69.7 72.8708C69.82 72.8708 69.94 72.8708 70.05 72.8708C70.22 72.6108 70.4 72.2908 70.57 71.9108C70.31 71.9708 70.03 72.0208 69.73 72.0708L69.61 71.5308C69.7 71.5308 69.8 71.5108 69.89 71.5008C70.11 71.0308 70.27 70.5208 70.37 69.9708L70.91 70.0308C70.8 70.5408 70.65 71.0008 70.46 71.4308C70.58 71.4108 70.7 71.4008 70.81 71.3708C70.89 71.2008 70.96 71.0208 71.03 70.8308L71.54 71.0208C71.24 71.7508 70.94 72.3508 70.63 72.8208C70.81 72.8008 70.97 72.7608 71.11 72.7208C71.07 72.5708 71.03 72.4308 70.99 72.3008L71.38 72.2108C71.54 72.6308 71.67 73.0308 71.77 73.3908L71.29 73.5908C71.27 73.4808 71.24 73.3508 71.21 73.2208C71.09 73.2508 70.96 73.2908 70.82 73.3208C70.9 73.5008 70.97 73.7008 71.03 73.9108H71.74V74.5108H69.83C69.9 74.8708 69.99 75.1708 70.08 75.4308C70.25 75.2208 70.42 74.9708 70.59 74.6908L71.11 74.9808C70.88 75.3908 70.63 75.7508 70.36 76.0408C70.61 76.4608 70.82 76.6808 70.99 76.6808C71.03 76.6808 71.06 76.6508 71.07 76.5908C71.1 76.5208 71.13 76.1708 71.16 75.5308L71.76 75.8808C71.67 76.5008 71.58 76.9008 71.47 77.1008C71.36 77.2608 71.21 77.3508 71 77.3508C70.67 77.3508 70.33 77.0608 69.95 76.4708V76.4508C69.59 76.7508 69.11 77.0208 68.52 77.2508L68.19 76.7008C68.75 76.4908 69.21 76.2308 69.58 75.9308C69.6 75.9108 69.63 75.8908 69.65 75.8708C69.48 75.4908 69.34 75.0308 69.23 74.5008H68.07C68.05 74.6108 68.05 74.7008 68.04 74.7808C68.41 75.0308 68.75 75.3108 69.06 75.6208L68.7 76.1908C68.44 75.8908 68.19 75.6408 67.93 75.4208C67.83 75.8408 67.7 76.1908 67.56 76.4308C67.4 76.7208 67.16 77.0208 66.85 77.3408L66.39 76.7308C66.71 76.4208 66.95 76.1208 67.1 75.8208C67.22 75.5908 67.33 75.2108 67.43 74.6708C67.43 74.6108 67.45 74.5608 67.45 74.5008H66.69V74.1208L66.57 74.3108C66.39 73.9508 66.24 73.6508 66.12 73.4008V77.3408H65.45V73.8308C65.26 74.3708 65.05 74.8508 64.81 75.2708L64.54 74.4708C64.9 73.8308 65.2 73.1008 65.45 72.2708V72.0808H64.66V71.4108H65.45L65.49 71.3908Z" fill="#40220F"/>
<path d="M24.52 85.4697C24.27 85.1197 24.07 84.7097 23.92 84.2297C23.76 83.7497 23.69 83.2998 23.69 82.8698C23.69 82.4398 23.76 81.9898 23.92 81.4998C24.07 81.0198 24.27 80.5998 24.52 80.2598H24.95C24.4 81.2198 24.12 82.0998 24.12 82.8698C24.12 83.6398 24.4 84.4997 24.95 85.4697H24.52Z" fill="#40220F"/>
<path d="M25.99 83.9302C25.96 84.4702 25.89 84.9202 25.8 85.2902L25.34 85.1302C25.46 84.7402 25.55 84.3302 25.59 83.8902L25.98 83.9302H25.99ZM26.78 80.3202C26.6 80.8202 26.4 81.2602 26.19 81.6502C26.35 81.6402 26.52 81.6202 26.69 81.5902C26.81 81.3602 26.92 81.1002 27.04 80.8202L27.48 80.9902C27.08 81.8802 26.68 82.6102 26.27 83.1702C26.55 83.1502 26.79 83.1002 26.99 83.0502C26.94 82.8502 26.89 82.6602 26.84 82.4802L27.22 82.3502C27.34 82.7002 27.45 83.1102 27.55 83.5502L27.13 83.6602C27.11 83.5902 27.1 83.5102 27.09 83.4402C26.72 83.5402 26.21 83.6202 25.57 83.6802L25.44 83.2002C25.55 83.2002 25.66 83.2002 25.76 83.2002C25.99 82.8902 26.23 82.4902 26.47 82.0202C26.17 82.0702 25.84 82.1202 25.47 82.1702L25.37 81.7102C25.47 81.7102 25.57 81.7002 25.68 81.6902C25.92 81.2302 26.14 80.7202 26.32 80.1602L26.78 80.3102V80.3202ZM26.72 85.0502L26.28 85.0902C26.27 84.6002 26.24 84.2102 26.19 83.9302L26.56 83.8902C26.63 84.1802 26.68 84.5602 26.71 85.0502H26.72ZM27.49 84.7902L27.07 84.9402C27.01 84.5602 26.93 84.1902 26.84 83.8302L27.2 83.7402C27.32 84.1302 27.42 84.4802 27.49 84.7902ZM28.66 80.8502V80.1702H29.16V80.8502H30.28V81.3302H29.16V82.0702H30.11V82.5302H27.68V82.0702H28.66V81.3302H27.51V80.8502H28.66ZM30.09 85.3102H29.64V85.0502H28.22V85.3102H27.76V83.0302H30.09V85.3102ZM29.64 84.5902V83.4902H28.22V84.5902H29.64Z" fill="#40220F"/>
<path d="M33.41 80.1897C33.73 80.5797 34.06 80.8797 34.41 81.1097C34.65 81.2897 35.06 81.5097 35.64 81.7397L35.31 82.2797C35.07 82.1897 34.84 82.0797 34.62 81.9397V82.2997H31.75V81.9497C31.52 82.0997 31.27 82.2497 30.98 82.3897L30.71 81.8397C31.31 81.5797 31.76 81.3297 32.08 81.0597C32.34 80.8497 32.61 80.5597 32.91 80.1797H33.41V80.1897ZM34.97 85.3097H34.45V84.9997H31.95V85.3097H31.43V82.9197H34.97V85.3097ZM34.45 84.5197V83.4097H31.95V84.5197H34.45ZM34.4 81.8097C33.99 81.5397 33.57 81.1597 33.16 80.6697C32.84 81.0497 32.54 81.3497 32.24 81.5997C32.15 81.6797 32.05 81.7497 31.96 81.8097H34.4Z" fill="#40220F"/>
<path d="M37.42 81.03H38.17V81.5099C37.96 81.9499 37.74 82.3 37.54 82.59C37.86 82.81 38.15 83.05 38.42 83.33L38.13 83.7899C37.9 83.5299 37.67 83.2999 37.44 83.1099V85.33H36.94V83.2999C36.73 83.5199 36.48 83.7399 36.21 83.9699L36.05 83.3799C36.42 83.0999 36.71 82.8399 36.9 82.6099C37.11 82.4099 37.35 82.0499 37.6 81.5499H36.06V81.0499H36.93C36.85 80.7799 36.76 80.52 36.66 80.28L37.16 80.21C37.25 80.46 37.33 80.7399 37.41 81.0399L37.42 81.03ZM39.27 81.53V80.2399H39.79V81.53H40.85V82.0599H39.79V84.6199H40.95V85.14H37.96V84.6199H39.27V82.0599H38.27V81.53H39.27Z" fill="#40220F"/>
<path d="M46.13 80.8306H42.2V84.6306H46.13V85.1106H42.2V85.3306H41.7V80.3506H46.13V80.8306ZM43.95 82.8206V84.2906H42.39V82.8206H43.95ZM43.53 83.2606H42.8V83.8506H43.53V83.2606ZM45.4 81.1606V82.5006H42.87V81.1606H45.4ZM44.94 81.6006H43.32V82.0606H44.94V81.6006ZM46.03 82.8306V84.3006H44.38V82.8306H46.03ZM45.61 83.2706H44.8V83.8606H45.61V83.2706Z" fill="#40220F"/>
<path d="M51.16 84.7202H51.58V85.1802H46.71V84.7202H47.13V83.3602H51.16V84.7202ZM49.39 80.8302H48.5V81.1802H49.19V82.2602H48.5V82.6502H49.42V83.0902H46.97V80.4002H49.4V80.8402L49.39 80.8302ZM48.04 80.8302H47.44V81.1802H48.04V80.8302ZM48.73 81.8802V81.5502H47.44V81.8802H48.73ZM48.04 82.2602H47.44V82.6502H48.04V82.2602ZM48.31 84.7302V83.8302H47.62V84.7302H48.31ZM49.46 84.7302V83.8302H48.79V84.7302H49.46ZM50.44 80.3602C50.38 80.5802 50.31 80.7702 50.26 80.9302H51.59V81.4302H50.06C49.96 81.6302 49.82 81.8402 49.63 82.0902L49.24 81.7202C49.43 81.4802 49.59 81.2602 49.71 81.0302C49.82 80.8002 49.91 80.5202 49.99 80.2002L50.45 80.3702L50.44 80.3602ZM50.67 84.7302V83.8302H49.94V84.7302H50.67ZM51.04 82.7602L50.6 83.0602C50.44 82.7302 50.23 82.3502 49.96 81.9202L50.31 81.6802C50.62 82.1002 50.86 82.4502 51.04 82.7602Z" fill="#40220F"/>
<path d="M52.63 81.1997V80.1797H53.11V81.1997H53.63V81.6597H53.11V82.6797C53.26 82.5897 53.42 82.4797 53.58 82.3597V82.9097C53.43 83.0197 53.27 83.1297 53.11 83.2197V84.7297C53.11 84.9297 53.07 85.0697 52.98 85.1497C52.91 85.2297 52.77 85.2797 52.56 85.2797H52.19L52.08 84.7297C52.22 84.7597 52.34 84.7697 52.44 84.7697C52.56 84.7697 52.63 84.7297 52.63 84.6397V83.4797C52.44 83.5597 52.26 83.6397 52.07 83.6997L52.01 83.1297C52.21 83.0997 52.42 83.0297 52.63 82.9297V81.6597H52.04V81.1997H52.63ZM56.65 83.2597V83.7397H55.44V84.6197H56.88V85.1197H53.53V84.6197H54.94V83.7397H53.76V83.2597H56.65ZM55.11 81.5097C55.02 81.9597 54.9 82.2897 54.74 82.5297C54.6 82.7397 54.34 82.9397 53.95 83.1097L53.7 82.6697C54.03 82.5397 54.26 82.3697 54.39 82.1797C54.5 82.0297 54.59 81.7797 54.66 81.4197L55.12 81.5097H55.11ZM55.51 80.7397H56.77V81.8297H56.29V81.2197H54.19V81.8297H53.71V80.7397H54.97C54.92 80.5697 54.86 80.4097 54.79 80.2597L55.33 80.1797C55.38 80.3497 55.44 80.5397 55.5 80.7497L55.51 80.7397ZM55.88 81.4597V82.1997C55.88 82.3297 55.94 82.3997 56.07 82.3997H56.82V82.8597H55.95C55.78 82.8597 55.65 82.8297 55.56 82.7497C55.46 82.6797 55.41 82.5497 55.41 82.3797V81.4597H55.89H55.88Z" fill="#40220F"/>
<path d="M59.08 83.8903C58.72 84.3403 58.27 84.7502 57.73 85.1102L57.39 84.6503C57.89 84.3603 58.33 83.9902 58.72 83.5602L59.08 83.8903ZM61.99 80.6902C61.34 80.8302 60.56 80.9302 59.66 80.9902C59.52 81.2402 59.32 81.4903 59.05 81.7603C59.45 81.7403 59.85 81.7202 60.24 81.6902C60.45 81.4902 60.66 81.2903 60.86 81.0703L61.33 81.3102C60.65 82.0002 59.98 82.5803 59.32 83.0303C60.07 83.0103 60.7 82.9702 61.22 82.9102C61.1 82.7002 60.99 82.4903 60.86 82.2803L61.23 82.0402C61.62 82.6202 61.92 83.1103 62.15 83.5203L61.69 83.8502C61.62 83.6802 61.53 83.5002 61.43 83.3102C61.06 83.3602 60.62 83.4102 60.1 83.4402V84.7202C60.1 84.9302 60.05 85.0702 59.96 85.1602C59.87 85.2502 59.71 85.2902 59.48 85.2902H59L58.89 84.7202C59.07 84.7502 59.21 84.7603 59.33 84.7603C59.48 84.7603 59.56 84.7202 59.56 84.6302V83.4702C59.01 83.5002 58.39 83.5402 57.71 83.5602L57.58 83.0602C57.92 83.0602 58.23 83.0602 58.54 83.0602C58.95 82.7902 59.35 82.4803 59.75 82.1403C59.19 82.1903 58.56 82.2402 57.87 82.2902L57.77 81.8303C57.97 81.8303 58.17 81.8202 58.37 81.8102C58.66 81.5702 58.9 81.3202 59.08 81.0402C58.62 81.0602 58.13 81.0703 57.62 81.0703L57.48 80.6102C59.15 80.6102 60.57 80.5003 61.75 80.2803L61.98 80.7202L61.99 80.6902ZM62.15 84.6902L61.78 85.0803C61.48 84.7103 61.06 84.3102 60.51 83.8802L60.87 83.5303C61.38 83.9203 61.81 84.3102 62.16 84.6902H62.15Z" fill="#40220F"/>
<path d="M63.96 80.33C63.79 80.86 63.6 81.3299 63.38 81.7299C63.53 81.7099 63.67 81.68 63.82 81.65C63.93 81.4 64.05 81.1399 64.17 80.8599L64.58 81.0099C64.21 81.8699 63.84 82.5699 63.46 83.1199C63.73 83.0899 63.97 83.0399 64.16 82.9699C64.12 82.8099 64.07 82.6599 64.02 82.4999L64.4 82.3699C64.52 82.7199 64.63 83.1099 64.73 83.5499L64.31 83.6599C64.29 83.5599 64.27 83.4699 64.25 83.3699C63.9 83.4799 63.42 83.5699 62.79 83.6299L62.66 83.15C62.78 83.15 62.89 83.15 62.99 83.15C63.19 82.86 63.39 82.5099 63.6 82.1099C63.32 82.1699 63.02 82.23 62.71 82.28L62.61 81.8199C62.71 81.8199 62.81 81.7999 62.91 81.7899C63.14 81.3099 63.35 80.7699 63.53 80.1799L63.97 80.33H63.96ZM63.21 83.8799C63.18 84.4299 63.12 84.9 63.04 85.28L62.6 85.15C62.7 84.74 62.77 84.31 62.81 83.84L63.2 83.89L63.21 83.8799ZM63.96 85.0399L63.52 85.08C63.51 84.55 63.49 84.1499 63.46 83.8499L63.83 83.8099C63.89 84.1099 63.94 84.5199 63.96 85.0399ZM64.66 84.6599L64.27 84.77C64.22 84.44 64.16 84.1199 64.08 83.8099L64.44 83.7C64.52 83.99 64.59 84.2999 64.66 84.6599ZM66.36 80.7899H67.49V81.2299H65.96C65.86 81.6099 65.72 81.9799 65.53 82.3199C66 82.2999 66.4 82.2399 66.72 82.1599C66.66 82.0299 66.58 81.8899 66.51 81.7399L66.87 81.4999C67.15 81.9599 67.38 82.3499 67.54 82.6799L67.1 82.9899C67.04 82.8499 66.98 82.6999 66.91 82.5499C66.8 82.5799 66.69 82.5999 66.57 82.6199V84.5999C66.57 84.6999 66.62 84.7499 66.73 84.7499H66.94C66.94 84.7499 67.03 84.7199 67.05 84.6599C67.07 84.5899 67.09 84.2899 67.1 83.7499L67.54 83.8799C67.51 84.5299 67.45 84.9 67.37 85.02C67.3 85.13 67.18 85.1899 67 85.1899H66.56C66.42 85.1899 66.3 85.1499 66.22 85.0699C66.14 84.9799 66.1 84.8599 66.1 84.7299V82.7C65.99 82.72 65.89 82.7299 65.78 82.7399C65.75 83.4399 65.66 83.9599 65.53 84.2999C65.37 84.6999 65.1 85.04 64.73 85.34L64.42 84.9299C64.75 84.6799 64.97 84.4099 65.1 84.1099C65.22 83.8499 65.29 83.4199 65.32 82.7999C65.14 82.8199 64.95 82.8399 64.75 82.8499L64.63 82.3499C64.76 82.3499 64.89 82.3499 65.01 82.3499C65.21 81.9999 65.37 81.6299 65.47 81.2399H64.63V80.7999H65.84C65.77 80.6499 65.68 80.5 65.58 80.34L66.04 80.1699C66.15 80.3499 66.25 80.5599 66.34 80.7999L66.36 80.7899Z" fill="#40220F"/>
<path d="M70.82 84.22C70.66 84.7 70.46 85.12 70.21 85.46H69.78C70.33 84.5 70.61 83.63 70.61 82.86C70.61 82.09 70.33 81.21 69.78 80.25H70.21C70.46 80.6 70.66 81.01 70.82 81.49C70.97 81.98 71.05 82.43 71.05 82.86C71.05 83.29 70.97 83.74 70.82 84.22Z" fill="#40220F"/>
<path d="M24.1 45.1798C23.72 45.9098 23.31 46.5698 22.88 47.1398C22.72 47.3498 22.56 47.5398 22.41 47.6998C23.44 47.6798 24.62 47.6298 25.93 47.5598C25.57 47.1598 25.17 46.7498 24.74 46.3298L25.62 45.6898C26.58 46.5498 27.46 47.4998 28.24 48.5598L27.28 49.3398C27.12 49.0698 26.94 48.8198 26.75 48.5498C24.52 48.7798 22.36 48.9098 20.25 48.9298L20.11 47.6598C20.38 47.6598 20.63 47.6798 20.84 47.6798C21.12 47.4298 21.39 47.1598 21.65 46.8298C22.05 46.3298 22.44 45.6598 22.84 44.7998L24.12 45.1698L24.1 45.1798ZM27.38 53.5798H26.18V53.0698H21.97V53.5798H20.77V49.5298H27.38V53.5798ZM26.18 51.9798V50.6498H21.97V51.9798H26.18Z" fill="#40220F"/>
<path d="M30.99 49.7101C30.9 51.0001 30.61 52.2201 30.14 53.3901L29.04 52.9801C29.56 51.8901 29.88 50.7401 30.03 49.5201L30.99 49.7001V49.7101ZM30.85 48.3801L30.04 49.0501C29.82 48.6501 29.51 48.2301 29.09 47.7801L29.87 47.2601C30.23 47.5901 30.56 47.9601 30.86 48.3801H30.85ZM30.89 46.0301L30.11 46.6701C29.93 46.3001 29.66 45.9001 29.3 45.4801L30.04 44.9601C30.35 45.2801 30.63 45.6401 30.89 46.0401V46.0301ZM31.49 48.4901C31.49 48.8301 31.43 49.1801 31.32 49.5401L30.65 49.4601C30.79 49.1601 30.89 48.8201 30.93 48.4501L31.49 48.4901ZM34.53 45.2901H35.17V45.8901H33.08C32.74 46.5401 32.4 47.0601 32.06 47.4701C32.18 47.4701 32.3 47.4401 32.42 47.4101C32.4 47.3301 32.38 47.2701 32.37 47.1901L32.87 47.0401C32.93 47.2301 33.01 47.4801 33.08 47.7801H34.76L34.74 47.6301C34.85 47.6301 34.97 47.6301 35.07 47.6301C35.37 47.3901 35.64 47.1301 35.89 46.8201C35.56 46.8401 35.22 46.8501 34.87 46.8601L34.85 46.7201H33.07V46.1201H34.94V46.1601H35.13C35.37 45.8201 35.57 45.3901 35.72 44.8601L36.61 45.1301C36.39 45.5701 36.19 45.9101 36.02 46.1501C36.15 46.1501 36.28 46.1501 36.41 46.1501C36.53 45.9601 36.64 45.7601 36.74 45.5501L37.55 45.8801C37.08 46.5801 36.61 47.1501 36.12 47.5801C36.29 47.5601 36.46 47.5401 36.64 47.5101C36.6 47.4001 36.58 47.3101 36.56 47.2101L37.12 47.0601C37.23 47.3201 37.35 47.6801 37.47 48.1401L37.12 48.2801C37.26 48.5501 37.4 48.9001 37.55 49.3301L36.84 49.6001C36.74 49.1301 36.62 48.7301 36.49 48.4101L36.79 48.3201C36.79 48.2601 36.77 48.2001 36.76 48.1401C36.14 48.2501 35.54 48.3501 34.93 48.4301V49.2101C35 48.9901 35.05 48.7601 35.07 48.5201L35.7 48.5601C35.7 48.9001 35.64 49.2701 35.53 49.6401L34.79 49.5701C34.79 49.5701 34.81 49.5101 34.82 49.4901H32.98V49.3601L32.53 49.5301C32.44 49.0701 32.33 48.6701 32.2 48.3401L32.51 48.2501C32.51 48.1901 32.49 48.1401 32.49 48.0801C31.97 48.2001 31.45 48.3101 30.93 48.3801L30.82 47.6001C30.92 47.6001 31.02 47.6001 31.11 47.6001C31.32 47.3801 31.51 47.1401 31.67 46.8801C31.39 46.9001 31.11 46.9201 30.82 46.9401L30.78 46.2001H30.99C31.2 45.8501 31.36 45.4001 31.49 44.8701L32.34 45.1301C32.14 45.6101 31.95 45.9601 31.79 46.2101H32.06C32.16 46.0001 32.25 45.7701 32.34 45.5401L32.87 45.7801V45.3501H33.58C33.54 45.1901 33.51 45.0401 33.46 44.9001L34.42 44.8301C34.44 45.0101 34.47 45.1801 34.48 45.3401L34.53 45.2901ZM36.94 49.7201V51.3601H32.45L32.34 51.6901H37.36C37.3 52.6401 37.18 53.1901 37 53.3701C36.87 53.4701 36.67 53.5201 36.37 53.5201H33.94L33.83 52.6601C34.93 52.7101 35.59 52.7401 35.81 52.7401C35.93 52.7401 35.99 52.6701 36 52.5501C36 52.5501 36 52.4901 36.02 52.3701H31.01L31.46 50.6901H35.81V50.3901H31.18V49.7101H36.94V49.7201ZM32.34 49.5401L31.63 49.5801C31.63 49.0501 31.6 48.6601 31.56 48.3901L32.13 48.3501C32.26 48.7501 32.32 49.1501 32.34 49.5401ZM33.01 48.8401V48.1801L32.78 48.2701C32.85 48.4401 32.93 48.6301 33.01 48.8401ZM34.96 46.9401V47.5401H33.09V46.9401H34.96ZM34.18 48.3601H33.79V48.9101H34.18V48.3601ZM36.59 49.5501L35.88 49.5901C35.88 49.0801 35.85 48.6901 35.81 48.4301L36.37 48.4001C36.5 48.7801 36.57 49.1701 36.59 49.5501Z" fill="#40220F"/>
<path d="M45.72 49.0796V52.3796H44.65C45.21 52.4596 45.84 52.5596 46.53 52.6796L46.29 53.5996C45.24 53.2996 44.19 53.0896 43.14 52.9696L43.37 52.3696H41.57L41.8 52.9296C41.05 53.2196 40.04 53.4196 38.8 53.4896L38.52 52.5996C39.25 52.5996 40.01 52.5096 40.79 52.3696H39.3V49.0696H45.73L45.72 49.0796ZM43.25 45.3596H46.5V46.6596H46.26V46.9896H44.95V47.2496H46.51V47.8896H44.95V48.2996H45.45V48.0096H46.44V48.8996H42.45V48.0096H43.44V48.2996H43.9V47.8896H42.27V47.2496H42.75L42.23 46.7696C42.59 46.5696 42.84 46.3396 42.97 46.0896H39.69V46.3896H42.17V47.0596H41.04V47.2796H42.06V47.9196H41.04V48.1796C41.41 48.1796 41.77 48.1596 42.14 48.1396L42.2 48.8096C41.17 48.9196 40.03 48.9796 38.78 48.9996L38.67 48.2196C39.12 48.2196 39.57 48.2196 40.01 48.2196V47.9296H38.92V47.2896H40.01V47.0696H38.81V46.6596H38.57V45.3596H41.97C41.92 45.1996 41.85 45.0496 41.79 44.9096L43.17 44.8096C43.21 44.9996 43.24 45.1796 43.28 45.3596H43.25ZM44.55 50.0096V49.7496H40.45V50.0096H44.55ZM44.55 50.8696V50.5696H40.45V50.8696H44.55ZM44.55 51.4296H40.45V51.7196H44.55V51.4296ZM43.88 46.9996H43.27C43.18 47.0996 43.09 47.1796 43 47.2596H43.88V46.9996ZM45.36 46.3696V46.0996H43.79C43.75 46.1896 43.73 46.2896 43.69 46.3696H45.36Z" fill="#40220F"/>
<path d="M50.75 45.5096H52.13V46.4296H51V47.0696H52.19V49.4096H48.87C48.84 50.9496 48.68 52.2896 48.38 53.4296L47.53 52.6896C47.81 51.7596 47.96 50.5596 47.96 49.0796V45.5096H49.62C49.54 45.2896 49.46 45.0896 49.37 44.9096L50.5 44.8096C50.59 45.0496 50.68 45.2896 50.75 45.5096ZM49.93 52.1596C50.08 52.1196 50.22 52.0696 50.36 52.0196V52.8796C49.92 53.0496 49.41 53.1896 48.84 53.2896L48.7 52.3696C48.85 52.3696 48.98 52.3496 49.13 52.3296V49.5796H49.94V50.2796H50.29V51.1996H49.94V52.1596H49.93ZM49.22 46.4396H48.87V47.0796H49.22V46.4396ZM49.22 48.6396V47.8596H48.87V48.6396H49.22ZM50.28 46.4396H49.93V47.0796H50.28V46.4396ZM49.93 48.6396H50.28V47.8596H49.93V48.6396ZM52.13 50.7596C51.83 50.9396 51.55 51.0596 51.28 51.1196V52.0496C51.28 52.1996 51.3 52.2796 51.35 52.2796H51.45C51.5 52.2796 51.53 52.1796 51.54 51.9796C51.54 51.9796 51.54 51.8396 51.56 51.5396L52.3 51.7596C52.28 51.9996 52.26 52.1996 52.24 52.3596C52.55 52.0596 52.81 51.7296 53.05 51.3896L53.86 51.9096C53.5 52.5396 53.09 53.0596 52.62 53.5096L52.05 52.9896C51.97 53.0796 51.83 53.1296 51.64 53.1296H51.11C50.87 53.1296 50.71 53.0596 50.62 52.9496C50.52 52.8196 50.48 52.6296 50.48 52.3796V49.5596H51.29V50.2896C51.49 50.2096 51.66 50.0896 51.81 49.9296L52.14 50.7496L52.13 50.7596ZM51 48.6396H51.39V47.8596H51V48.6396ZM52.58 45.7396V44.8196H53.5V45.7396H54.49V44.8196H55.41V45.7396H55.8V46.7496H55.41V50.3196H55.93V51.3196H52.18V50.3196H52.57V46.7496H52.18V45.7396H52.57H52.58ZM54.49 47.2996V46.7496H53.5V47.2996H54.49ZM54.49 48.7596V48.1996H53.5V48.7596H54.49ZM54.49 50.3196V49.6396H53.5V50.3196H54.49ZM55.91 52.8396L55.06 53.5196C54.83 53.0196 54.5 52.5096 54.06 51.9596L54.87 51.3996C55.24 51.8296 55.58 52.3096 55.9 52.8496L55.91 52.8396Z" fill="#40220F"/>
<path d="M59.72 45.4698C59.58 45.9698 59.44 46.4398 59.29 46.8798H60.82V44.7998H62.06V46.8798H64.67V47.9998H62.06V49.4898H64.36V50.5998H62.06V52.1998H65.06V53.3098H57.24V52.1998H60.81V50.5998H58.27V49.4898H60.81V47.9998H58.81C58.48 48.6898 58.11 49.2998 57.7 49.8598L56.99 48.7498C57.64 47.8798 58.12 46.7098 58.44 45.2498L59.72 45.4798V45.4698Z" fill="#40220F"/>
<path d="M68.66 50.0099C68.35 51.2099 67.87 52.3699 67.24 53.4799L66.05 52.7398C66.79 51.6598 67.3 50.6098 67.57 49.5798L68.66 50.0198V50.0099ZM68.48 48.3098L67.63 49.2698C67.19 48.7998 66.67 48.3498 66.07 47.8998L66.82 47.0798C67.43 47.4498 67.98 47.8598 68.48 48.3098ZM68.91 46.0699L68.1 46.9998C67.63 46.5198 67.09 46.0699 66.47 45.6299L67.18 44.8398C67.81 45.2198 68.38 45.6299 68.91 46.0699ZM74.03 45.9698C73.45 46.0798 72.76 46.1999 71.99 46.2899V47.4499H74.39V48.5298H71.99V49.6798H73.86V53.5798H72.73V53.0699H70.15V53.5798H69.02V49.6798H70.82V48.5298H68.63V47.4499H70.82V46.4199C70.29 46.4799 69.72 46.5298 69.12 46.5898L68.77 45.3998C70.44 45.3298 72.04 45.1799 73.55 44.9499L74.04 45.9598L74.03 45.9698ZM72.73 52.0999V50.6498H70.15V52.0999H72.73Z" fill="#40220F"/>
<path d="M97.57 58.5398C97.5 58.6698 97.44 58.7898 97.38 58.8898H99.45V59.5298H98.22C98.2 59.7798 98.18 59.9998 98.15 60.1998H99.54V60.8698H98.1C98.64 61.1798 99.12 61.4698 99.51 61.7698L99.02 62.2798C98.71 62.0098 98.3 61.7198 97.79 61.4098V61.4298C97.61 61.7598 97.29 62.0798 96.82 62.3898H102.23V65.8898H101.48V65.5398H97.45V65.8898H96.69V62.4698C96.52 62.5798 96.34 62.6698 96.15 62.7698L95.7 62.1598C96.38 61.8698 96.84 61.5598 97.08 61.2198C97.16 61.1198 97.22 61.0098 97.27 60.8798H95.78V60.2098H97.47C97.51 60.0098 97.54 59.7898 97.55 59.5398H96.92C96.77 59.6998 96.57 59.8798 96.32 60.0498L95.8 59.5698C96.09 59.3698 96.34 59.1898 96.52 58.9898C96.68 58.7998 96.83 58.5698 96.95 58.2998L97.55 58.5498L97.57 58.5398ZM101.48 63.6398V63.0398H97.45V63.6398H101.48ZM101.48 64.8498V64.2498H97.45V64.8498H101.48ZM102.6 58.8898V61.8198H99.76V58.8898H102.6ZM101.9 59.5298H100.45V61.1898H101.9V59.5298Z" fill="#40220F"/>
<path d="M105.53 58.8294C105.41 59.2094 105.31 59.5394 105.21 59.8194H106.83V58.3594H107.59V59.8194H110.43V60.5494H107.59V62.2694H110.07V62.9694H107.59V64.9094H110.58V65.6394H103.59V64.9094H106.83V62.9694H104.38V62.2694H106.83V60.5494H104.92C104.92 60.5494 104.9 60.5794 104.9 60.5894C104.73 60.9994 104.43 61.4694 103.99 62.0194L103.39 61.4694C103.76 61.0194 104.06 60.5794 104.3 60.1394C104.51 59.6994 104.69 59.1694 104.84 58.5394L105.54 58.8294H105.53Z" fill="#40220F"/>
<path d="M112.95 61.3795L112.5 62.1395C112.07 61.7395 111.64 61.4195 111.2 61.1895L111.59 60.5495C112.09 60.7895 112.54 61.0595 112.95 61.3795ZM113.25 63.0395C112.85 64.1195 112.38 65.0495 111.86 65.8495L111.28 65.1495C111.71 64.5495 112.15 63.6795 112.61 62.5595L113.25 63.0395ZM113.1 59.2095L112.64 59.9795C112.24 59.6295 111.82 59.3495 111.4 59.1495L111.8 58.5095C112.27 58.7095 112.7 58.9395 113.1 59.2095ZM118.09 59.0795C117.52 59.2695 116.85 59.4095 116.09 59.4995V60.6795H118.33V61.3795H116.09V62.5595H117.91V65.8495H117.18V65.3395H114.27V65.8495H113.54V62.5595H115.33V61.3795H113.09V60.6795H115.33V59.5695C114.8 59.6095 114.23 59.6295 113.63 59.6295L113.45 58.9895C115.14 58.9895 116.57 58.8195 117.74 58.4795L118.07 59.0795H118.09ZM117.18 64.6595V63.2195H114.27V64.6595H117.18Z" fill="#40220F"/>
<path d="M119.37 61.5099C119.37 60.9799 119.37 60.5199 119.35 60.1099C119.34 59.6999 119.32 59.2899 119.3 58.8799C119.4 58.8899 119.51 58.8999 119.63 58.9099C119.75 58.9099 119.89 58.9199 120.04 58.9199C120.25 58.9199 120.47 58.9199 120.7 58.8999C120.93 58.8799 121.15 58.8799 121.37 58.8799C121.8 58.8799 122.13 58.9099 122.37 58.9799C122.61 59.0499 122.8 59.1399 122.94 59.2699C123.13 59.4299 123.28 59.6199 123.37 59.8199C123.46 60.0199 123.51 60.2699 123.51 60.5499C123.51 60.9099 123.45 61.2199 123.34 61.4799C123.23 61.7399 123.06 61.9499 122.86 62.1099C122.65 62.2699 122.41 62.3899 122.12 62.4699C121.84 62.5499 121.53 62.5799 121.19 62.5799H120.73C120.73 63.0599 120.73 63.5299 120.74 63.9999C120.74 64.4699 120.77 64.9399 120.8 65.3999C120.7 65.3899 120.59 65.3799 120.47 65.3799H119.66C119.54 65.3799 119.43 65.3799 119.33 65.3999C119.35 65.0099 119.37 64.6099 119.38 64.1999C119.39 63.7899 119.4 63.3199 119.4 62.7999V61.5099H119.37ZM122.06 60.6999C122.06 60.4599 122.03 60.2599 121.98 60.0899C121.93 59.9299 121.86 59.7899 121.77 59.6899C121.68 59.5899 121.58 59.5199 121.46 59.4799C121.34 59.4399 121.22 59.4099 121.09 59.4099H120.79C120.79 59.4099 120.73 59.4099 120.71 59.4099C120.71 59.8699 120.7 60.3199 120.7 60.7599C120.7 61.1999 120.7 61.6399 120.7 62.0899C120.85 62.0899 121.01 62.0699 121.17 62.0399C121.33 62.0099 121.48 61.9399 121.61 61.8399C121.74 61.7399 121.85 61.5999 121.94 61.4199C122.02 61.2399 122.07 60.9899 122.07 60.6899L122.06 60.6999Z" fill="#40220F"/>
<path d="M125.82 62.4099V62.7999C125.82 63.3299 125.82 63.7899 125.84 64.1999C125.85 64.6099 125.87 65.0099 125.89 65.3999C125.79 65.3899 125.68 65.3799 125.56 65.3799H124.75C124.63 65.3799 124.52 65.3799 124.41 65.3999C124.43 65.0099 124.45 64.6099 124.46 64.1999C124.47 63.7899 124.48 63.3199 124.48 62.7999V61.5099C124.48 60.9799 124.48 60.5199 124.46 60.1099C124.45 59.6999 124.43 59.2899 124.41 58.8799C124.51 58.8899 124.62 58.8999 124.75 58.9099C124.87 58.9099 125.01 58.9199 125.16 58.9199C125.32 58.9199 125.51 58.9199 125.72 58.8999C125.93 58.8799 126.19 58.8799 126.49 58.8799C126.72 58.8799 126.91 58.8799 127.08 58.8999C127.24 58.9099 127.38 58.9299 127.5 58.9599C127.62 58.9899 127.72 59.0199 127.81 59.0599C127.9 59.0999 127.98 59.1499 128.06 59.2099C128.24 59.3499 128.38 59.5199 128.49 59.7299C128.6 59.9399 128.65 60.1799 128.65 60.4699C128.65 60.9299 128.53 61.3099 128.29 61.5999C128.05 61.8899 127.7 62.0999 127.25 62.2199C127.54 62.7599 127.85 63.2999 128.18 63.8299C128.51 64.3699 128.84 64.8999 129.17 65.4199C129.03 65.4099 128.9 65.3999 128.76 65.3999H127.94C127.8 65.3999 127.67 65.3999 127.53 65.4199L125.91 62.4199H125.83L125.82 62.4099ZM127.25 60.6599C127.25 60.3799 127.22 60.1599 127.17 59.9899C127.12 59.8199 127.03 59.6999 126.92 59.6099C126.81 59.5199 126.66 59.4699 126.49 59.4399C126.32 59.4099 126.1 59.3999 125.85 59.3999C125.83 60.2599 125.82 61.1299 125.82 61.9899C125.86 61.9899 125.89 61.9999 125.92 61.9999C125.95 61.9999 125.98 61.9999 126.01 61.9999C126.41 61.9999 126.71 61.8899 126.92 61.6599C127.13 61.4299 127.24 61.0899 127.24 60.6399L127.25 60.6599Z" fill="#40220F"/>
<path d="M129.51 62.16C129.51 61.69 129.59 61.25 129.76 60.84C129.93 60.43 130.16 60.07 130.46 59.75C130.76 59.44 131.13 59.19 131.55 59.02C131.98 58.84 132.45 58.75 132.98 58.75C133.46 58.75 133.91 58.82 134.33 58.96C134.75 59.1 135.11 59.31 135.41 59.59C135.72 59.87 135.96 60.22 136.14 60.65C136.32 61.08 136.41 61.58 136.41 62.15C136.41 62.63 136.32 63.07 136.15 63.48C135.98 63.89 135.74 64.25 135.44 64.56C135.14 64.87 134.77 65.11 134.35 65.28C133.93 65.45 133.46 65.54 132.96 65.54C132.48 65.54 132.04 65.48 131.62 65.35C131.2 65.23 130.84 65.03 130.53 64.75C130.22 64.47 129.97 64.12 129.79 63.69C129.61 63.26 129.52 62.75 129.52 62.15L129.51 62.16ZM134.93 61.95C134.93 61.54 134.88 61.17 134.79 60.84C134.69 60.51 134.56 60.24 134.39 60.01C134.22 59.78 134.01 59.61 133.77 59.48C133.53 59.36 133.26 59.29 132.97 59.29C132.66 59.29 132.39 59.37 132.14 59.52C131.9 59.68 131.69 59.89 131.52 60.15C131.35 60.42 131.22 60.73 131.14 61.09C131.05 61.45 131.01 61.83 131.01 62.24C131.01 62.75 131.06 63.18 131.16 63.53C131.26 63.88 131.4 64.16 131.58 64.37C131.75 64.58 131.96 64.74 132.19 64.83C132.42 64.93 132.66 64.97 132.91 64.97C133.18 64.97 133.44 64.91 133.69 64.79C133.94 64.67 134.15 64.49 134.34 64.24C134.52 63.99 134.67 63.68 134.78 63.3C134.89 62.92 134.95 62.47 134.95 61.95H134.93Z" fill="#40220F"/>
<path d="M138.42 58.5996V60.5096H139.09V58.3496H139.79V60.5096H140.36V61.2096H138.41C138.41 61.5696 138.39 61.8996 138.38 62.1996H139.78V65.8396H139.08V62.8996H138.32C138.3 63.1096 138.27 63.3196 138.25 63.4996C138.14 64.2596 137.93 65.0296 137.63 65.8096L137.05 65.2596C137.3 64.6496 137.48 63.9896 137.58 63.2796C137.67 62.7096 137.71 61.8296 137.71 60.6396V58.5996H138.41H138.42ZM144.06 59.3696H141.25V60.6396H143.97C143.95 61.9096 143.74 62.9196 143.33 63.6596C143.25 63.7896 143.18 63.9196 143.1 64.0396C143.4 64.4596 143.74 64.8196 144.15 65.1096L143.72 65.8396C143.28 65.4596 142.91 65.0696 142.61 64.6596C142.24 65.0896 141.8 65.4796 141.29 65.8396L140.84 65.1096C141.39 64.7396 141.84 64.3696 142.18 63.9796C142.15 63.9296 142.12 63.8696 142.09 63.8196C141.74 63.1496 141.5 62.3296 141.36 61.3496H141.22C141.22 61.9996 141.17 62.6796 141.07 63.3896C140.95 64.2196 140.74 65.0496 140.47 65.8496L139.83 65.2696C140.09 64.6096 140.27 63.9096 140.38 63.1796C140.46 62.4296 140.5 61.7296 140.5 61.0996V58.6796H144.04V59.3796L144.06 59.3696ZM142.66 63.3196C142.66 63.3196 142.69 63.2596 142.71 63.2396C142.99 62.7696 143.17 62.1396 143.24 61.3496H142.08C142.21 62.1496 142.41 62.8096 142.66 63.3296V63.3196Z" fill="#40220F"/>
<path d="M108.66 45.2401C108.61 45.3801 108.55 45.5201 108.5 45.6501H110.89V46.5102H109.62C109.6 46.7302 109.58 46.9302 109.56 47.1002H111.1V47.9901H109.58C110.23 48.3501 110.73 48.6801 111.07 48.9601L110.74 49.5102H113.93V53.6801H112.84V53.2701H108.74V53.6801H107.65V49.6801C107.5 49.7601 107.36 49.8202 107.22 49.8802L106.55 48.9601C107.3 48.7001 107.84 48.3801 108.18 47.9901H106.72V47.1002H107.47L106.72 46.5501C107.24 46.0001 107.62 45.4602 107.85 44.9102L108.66 45.2401ZM108.63 46.5102H108.04C107.9 46.7302 107.77 46.9302 107.62 47.1002H108.54C108.58 46.9202 108.6 46.7202 108.62 46.5102H108.63ZM110.18 49.5201C109.83 49.2201 109.43 48.9101 108.99 48.6201C108.72 48.9601 108.37 49.2701 107.94 49.5201H110.17H110.18ZM112.83 51.0102V50.5002H108.73V51.0102H112.83ZM112.83 52.3902V51.8301H108.73V52.3902H112.83ZM114.52 45.5801V49.2302H111.31V45.5801H114.52ZM113.43 46.5901H112.41V48.2302H113.43V46.5901Z" fill="#40220F"/>
<path d="M118.66 45.6905C118.52 46.1905 118.38 46.6605 118.23 47.1005H119.76V45.0205H121V47.1005H123.61V48.2205H121V49.7105H123.3V50.8205H121V52.4205H124V53.5305H116.18V52.4205H119.75V50.8205H117.21V49.7105H119.75V48.2205H117.75C117.42 48.9105 117.05 49.5205 116.64 50.0805L115.93 48.9705C116.58 48.1005 117.06 46.9305 117.38 45.4705L118.66 45.7005V45.6905Z" fill="#40220F"/>
<path d="M127.61 50.2198C127.3 51.4198 126.82 52.5798 126.19 53.6898L125 52.9498C125.74 51.8698 126.25 50.8198 126.52 49.7898L127.61 50.2298V50.2198ZM127.43 48.5198L126.58 49.4798C126.14 49.0098 125.62 48.5598 125.02 48.1098L125.77 47.2898C126.38 47.6598 126.93 48.0698 127.43 48.5198ZM127.86 46.2798L127.05 47.2098C126.58 46.7298 126.04 46.2798 125.42 45.8398L126.13 45.0498C126.76 45.4298 127.33 45.8398 127.86 46.2798ZM132.98 46.1798C132.4 46.2898 131.71 46.4098 130.93 46.4998V47.6598H133.33V48.7398H130.93V49.8898H132.8V53.7898H131.67V53.2798H129.09V53.7898H127.96V49.8898H129.76V48.7398H127.57V47.6598H129.76V46.6298C129.23 46.6898 128.66 46.7398 128.06 46.7998L127.71 45.6098C129.38 45.5398 130.98 45.3898 132.49 45.1598L132.98 46.1698V46.1798ZM131.68 52.3098V50.8598H129.1V52.3098H131.68Z" fill="#40220F"/>
<path d="M76.42 48.8896H79.24V91.2097H14.72V48.8896H17.32" stroke="#40220F" stroke-width="0.25" stroke-miterlimit="10"/>
<path d="M136.28 48.8604H152.02V68.9704H87.5V48.8604H103.02" stroke="#40220F" stroke-width="0.25" stroke-miterlimit="10"/>
</svg>
