<?xml version="1.0" encoding="utf-8"?>
<!-- Generator: Adobe Illustrator 27.0.0, SVG Export Plug-In . SVG Version: 6.00 Build 0)  -->
<svg version="1.1" id="圖層_1" xmlns="http://www.w3.org/2000/svg" xmlns:xlink="http://www.w3.org/1999/xlink" x="0px" y="0px"
	 viewBox="0 0 120 93" style="enable-background:new 0 0 120 93;" xml:space="preserve">
<style type="text/css">
	.st0{fill:#3E3A39;}
	.st1{fill:#C9A063;}
</style>
<path class="st0" d="M1.3,40.9v-0.6h2.6c0.5,0.8,1.5,1.5,3,2.1L6.4,43c-0.2-0.1-0.4-0.2-0.6-0.3v0.4h-2v1.1h1.9v0.6H3.8v1.4h2.8v0.6
	H0.3v-0.6H3V45H1.1v-0.6H3v-1.1H1v-0.4c-0.2,0.1-0.4,0.2-0.6,0.3L0,42.5c0.8-0.3,1.3-0.6,1.8-0.9c0.3-0.2,0.6-0.4,0.8-0.7L1.3,40.9
	L1.3,40.9z M5.5,42.7c-0.3-0.2-0.6-0.3-0.8-0.5c-0.5-0.4-0.9-0.8-1.2-1.2c-0.2,0.4-0.5,0.6-0.7,0.8c-0.3,0.3-0.7,0.6-1.3,0.9H5.5
	L5.5,42.7z"/>
<path class="st0" d="M10.8,40.5c-0.5,0.9-0.9,1.6-1.4,2.2c0.1,0,0.3,0,0.3,0c1.1,0,2.2-0.1,3.2-0.3c-0.3-0.4-0.6-0.7-0.9-1.1
	l0.5-0.5c0.7,0.8,1.2,1.5,1.7,2.3l-0.5,0.5c-0.1-0.2-0.2-0.4-0.4-0.6c-1.4,0.2-3.2,0.3-5.2,0.3L8,42.5c0.2,0,0.5,0,0.7,0.1
	c0.5-0.6,1-1.4,1.5-2.4L10.8,40.5L10.8,40.5z M13.7,46.9H13v-0.4H9.2v0.4H8.5v-3h5.3v3H13.7z M13,45.9v-1.4H9.2v1.4H13z"/>
<path class="st0" d="M18.4,42.6v-2.3h0.8v2.3h2.9v0.7h-2.9v3.6h-0.8v-3.6h-2.9v-0.7H18.4z"/>
<path class="st0" d="M25.8,42.1c0-0.4,0.1-0.8,0.1-1.3v-0.5h0.7v0.5c0,0.5,0,0.9-0.1,1.3h3v0.7h-2.2c0.2,0.7,0.4,1.3,0.7,1.8
	c0.4,0.6,0.9,1.1,1.6,1.5l-0.4,0.7c-0.8-0.5-1.4-1.2-1.8-1.8c-0.4-0.6-0.6-1.3-0.8-2.2h-0.2c-0.1,0.5-0.2,0.9-0.4,1.3
	c-0.4,0.9-1.1,1.8-2.2,2.7l-0.6-0.5c1-0.7,1.8-1.5,2.2-2.3c0.2-0.3,0.3-0.7,0.4-1.1h-2.5v-0.7L25.8,42.1L25.8,42.1z"/>
<path class="st0" d="M34.5,40.8v-0.5h0.7v0.5h1.7v1h0.4v0.5h-0.4v1.1h-1.7v0.5H37v0.5h-1.8v0.5h2.1v0.5h-2.1V46c0.1,0,0.2,0,0.3,0
	c0.9,0,1.5,0,1.9-0.1l-0.1,0.7c-2.2,0-3.6-0.1-4.1-0.2c-0.4-0.1-0.8-0.3-1.1-0.5c0,0-0.1,0-0.1-0.1c-0.2,0.3-0.5,0.6-0.9,0.9
	L30.7,46c0.4-0.2,0.7-0.5,0.9-0.8c-0.2-0.4-0.4-0.9-0.7-1.5l0.6-0.2c0.2,0.4,0.3,0.7,0.5,1v-0.1c0.1-0.3,0.2-0.8,0.2-1.3H31v-0.5
	c0.4-0.5,0.8-1.1,1.2-1.7h-1.3v-0.5H33v0.8c-0.4,0.7-0.8,1.2-1.1,1.6H33c0,0.8-0.1,1.5-0.2,1.9c-0.1,0.2-0.1,0.4-0.2,0.6
	c0.2,0.2,0.4,0.4,0.8,0.5c0.3,0.1,0.7,0.1,1.4,0.2v-0.6h-1.7v-0.5h1.7v-0.5h-1.4v-0.5h1.4v-0.5h-1.3v-0.5h1.3v-0.6h-1.7v-0.5h1.7
	v-0.6h-1.3v-0.5L34.5,40.8L34.5,40.8z M35.2,41.8h1.1v-0.5h-1.1V41.8z M35.2,42.9h1.1v-0.6h-1.1V42.9z"/>
<path class="st0" d="M40.1,40.4c-0.1,0.1-0.1,0.3-0.2,0.4h1.8v0.5c0.3-0.3,0.6-0.7,0.7-1.1l0.7,0.1c-0.1,0.1-0.1,0.3-0.2,0.4h2.2
	v0.6h-1.2c0.1,0.2,0.1,0.3,0.2,0.5l-0.7,0.1c-0.1-0.2-0.1-0.4-0.1-0.6h-0.7c-0.2,0.2-0.3,0.4-0.5,0.6l-0.6-0.4
	c0.1-0.1,0.2-0.2,0.3-0.2h-1c0.1,0.2,0.1,0.3,0.2,0.5l-0.7,0.1c-0.1-0.2-0.1-0.4-0.2-0.6h-0.5c-0.2,0.2-0.4,0.5-0.6,0.6l-0.6-0.4
	c0.5-0.4,0.9-0.9,1.1-1.4L40.1,40.4L40.1,40.4z M41.4,44.5v-0.4l-0.3-0.2c0.4-0.1,0.6-0.2,0.8-0.4c-0.2-0.1-0.4-0.2-0.6-0.2l0.3-0.5
	c0.2,0.1,0.4,0.1,0.6,0.2c0-0.1,0-0.1,0-0.2v-0.2h-0.8v-0.5H44v1.4c0,0.1,0.1,0.2,0.2,0.2l0,0c0.1,0,0.1,0,0.1-0.1
	c0,0,0.1-0.2,0.1-0.6l0.5,0.2c0,0.5-0.1,0.8-0.2,0.9c-0.1,0.1-0.2,0.1-0.5,0.1h-0.3c-0.2,0-0.3,0-0.4-0.2c-0.1-0.1-0.1-0.2-0.1-0.4
	v-1.1h-0.7v0.2c0,0.2,0,0.3-0.1,0.4c0.2,0.1,0.4,0.2,0.7,0.3L43,43.9c-0.2-0.1-0.4-0.2-0.6-0.4c-0.1,0.1-0.3,0.2-0.5,0.3H42v0.4h3
	v0.6h-2.3c0.3,0.2,0.5,0.4,0.7,0.5c0.4,0.2,0.9,0.4,1.5,0.5l-0.3,0.6c-0.8-0.3-1.4-0.5-1.7-0.8c-0.3-0.2-0.6-0.4-0.9-0.8v1.8h-0.7
	v-1.8l0,0c-0.2,0.3-0.5,0.5-0.7,0.7c-0.4,0.3-1.1,0.6-1.9,0.9l-0.4-0.6c0.8-0.2,1.5-0.5,1.8-0.7c0.2-0.1,0.3-0.2,0.5-0.3h-2.3v-0.6
	L41.4,44.5L41.4,44.5z M41.2,42.2v0.6h-1v0.6c0.3-0.1,0.6-0.1,1-0.2v0.6c-0.8,0.2-1.6,0.4-2.6,0.5l-0.1-0.7c0.4,0,0.8-0.1,1.2-0.1
	v-0.7h-1v-0.6H41.2L41.2,42.2z"/>
<path class="st0" d="M48.1,40.3c-0.1,0.2-0.2,0.4-0.2,0.6h0.9v2.3H47v0.7h2v2.8h-0.7v-0.4H47v0.4h-0.7v-5.8h0.8
	c0.1-0.2,0.2-0.5,0.2-0.7L48.1,40.3z M48.1,42.6v-1.1h-1.2v1.1H48.1z M48.3,45.7v-1.2H47v1.2H48.3z M52.7,40.6v0.6h-1.5V42h1.3v3.7
	c0,0.2-0.1,0.3-0.1,0.5c-0.1,0.1-0.2,0.2-0.4,0.2h-0.4l-0.2-0.7h0.4c0.1,0,0.1-0.1,0.1-0.2v-2.9h-0.7v4.3h-0.7v-4.3h-0.6v3.8h-0.6
	V42h1.3v-0.8h-1.5v-0.6H52.7L52.7,40.6z"/>
<path class="st0" d="M3,52.6v-2.4h0.8v2.3h2.9v0.7H3.8v3.6H3v-3.6H0.1v-0.7H3V52.6z"/>
<path class="st0" d="M10.5,52.1c0-0.4,0.1-0.8,0.1-1.3v-0.5h0.7v0.5c0,0.5,0,0.9-0.1,1.3h3v0.7H12c0.2,0.7,0.4,1.3,0.7,1.8
	c0.4,0.6,0.9,1.1,1.6,1.5l-0.4,0.7c-0.8-0.5-1.4-1.2-1.8-1.8c-0.4-0.6-0.6-1.3-0.8-2.2h-0.2c-0.1,0.5-0.2,0.9-0.4,1.3
	c-0.4,0.9-1.1,1.8-2.2,2.7l-0.6-0.5c1-0.7,1.8-1.5,2.2-2.3c0.2-0.3,0.3-0.7,0.4-1.1H8.1v-0.7L10.5,52.1L10.5,52.1z"/>
<path class="st0" d="M19.2,50.7v-0.5h0.6v0.5h1.7v1h0.4v0.5h-0.4v1.1h-1.7v0.5h1.8v0.5h-1.8v0.5h2.1v0.5h-2.1v0.6c0.1,0,0.2,0,0.3,0
	c0.8,0,1.5,0,1.9,0l-0.1,0.7c-2.2,0-3.6-0.1-4.1-0.2c-0.5-0.1-0.8-0.3-1.1-0.5c0,0-0.1,0-0.1-0.1c-0.2,0.3-0.5,0.6-0.9,0.9L15.3,56
	c0.4-0.2,0.7-0.5,0.9-0.8c-0.2-0.4-0.4-0.9-0.7-1.5l0.6-0.2c0.2,0.4,0.3,0.8,0.5,1v-0.1c0.1-0.3,0.2-0.8,0.2-1.3h-1.2v-0.5
	c0.4-0.5,0.8-1.1,1.2-1.7h-1.3v-0.5h2.1v0.8c-0.4,0.7-0.8,1.2-1.1,1.6h1.1c0,0.8-0.1,1.5-0.2,2c-0.1,0.2-0.1,0.4-0.2,0.6
	c0.2,0.2,0.4,0.3,0.8,0.4c0.3,0.1,0.7,0.1,1.4,0.2v-0.6h-1.7v-0.5h1.7v-0.5H18v-0.5h1.4v-0.5h-1.3v-0.5h1.3v-0.6h-1.7v-0.5h1.7v-0.6
	h-1.3v-0.5H19.2L19.2,50.7z M19.9,51.7H21v-0.5h-1.1V51.7z M19.9,52.9H21v-0.6h-1.1V52.9z"/>
<path class="st0" d="M24.8,51h1v0.6h-2.7V51h1.1c-0.1-0.3-0.2-0.5-0.3-0.7l0.7-0.1C24.6,50.4,24.7,50.7,24.8,51L24.8,51z M25.6,56.3
	H24v0.5h-0.7v-2.6h2.2v2.1H25.6z M25.6,52.1v0.6h-2.2v-0.6H25.6z M25.6,53.1v0.6h-2.2v-0.6H25.6z M24.9,55.7v-0.9H24v0.9H24.9z
	 M28.8,52.1c0,0.2,0.1,0.3,0.2,0.3h0.6V53h-0.7c-0.3,0-0.5-0.1-0.6-0.2c-0.1-0.1-0.2-0.3-0.2-0.6V51H27c0,0.5-0.1,0.8-0.1,1
	c-0.1,0.3-0.3,0.6-0.7,1l-0.5-0.4c0.3-0.3,0.5-0.6,0.6-0.8s0.1-0.6,0.1-1.4h2.5v1.7H28.8z M29.1,53.1v0.5c-0.2,0.7-0.5,1.4-0.9,1.9
	c0.4,0.3,0.9,0.5,1.5,0.7l-0.4,0.6c-0.7-0.2-1.2-0.5-1.6-0.8c-0.4,0.3-1,0.6-1.6,0.8l-0.4-0.6c0.6-0.2,1.1-0.4,1.5-0.7
	c-0.4-0.4-0.8-0.9-1-1.4l0.6-0.3c0.3,0.5,0.6,0.9,1,1.3c0.3-0.4,0.5-0.8,0.7-1.4h-2.4v-0.6H29.1L29.1,53.1z"/>
<path class="st0" d="M32.5,52.4c-0.1,0.4-0.3,0.7-0.5,1v3.4h-0.6v-2.6c-0.2,0.2-0.4,0.4-0.6,0.6L30.6,54c0.3-0.3,0.5-0.5,0.7-0.8
	c0.2-0.2,0.4-0.6,0.6-1.1L32.5,52.4L32.5,52.4z M32.6,50.4c-0.4,0.8-0.9,1.3-1.3,1.7l-0.5-0.6c0.5-0.4,0.9-0.8,1.1-1.3L32.6,50.4z
	 M33.9,50.3c-0.1,0.3-0.2,0.5-0.3,0.7h1.5v0.6h-0.7v0.9h0.9v0.6h-0.9V54h0.7v0.6h-0.7v1c0.3-0.1,0.5-0.1,0.8-0.2V56
	c-0.8,0.2-1.8,0.4-2.8,0.6l-0.1-0.7c0.2,0,0.3,0,0.5,0v-2.2h0.6v2.1c0.1,0,0.3,0,0.4-0.1v-2.6h-1.2v-0.6h1.2v-0.9h-0.5
	c-0.1,0.2-0.3,0.4-0.4,0.6l-0.5-0.3c0.5-0.5,0.8-1.1,1-1.7L33.9,50.3L33.9,50.3z M37.2,50.6v4.9c0,0.2,0,0.3-0.1,0.5
	c-0.1,0.1-0.2,0.2-0.4,0.2h-0.5L36,55.6h0.4c0.1,0,0.1-0.1,0.1-0.2v-4.2h-0.7v5.6h-0.5v-6.2L37.2,50.6L37.2,50.6z"/>
<path class="st0" d="M44.8,50.5V56c0,0.2-0.1,0.4-0.2,0.6c-0.1,0.1-0.3,0.2-0.5,0.2h-0.9L43,56.1h0.9c0.1,0,0.2-0.1,0.2-0.2v-1.3
	h-1.8v2h-0.6v-2h-1.9c0,0.2-0.1,0.5-0.1,0.7c-0.1,0.5-0.3,1-0.6,1.5l-0.6-0.5c0.3-0.4,0.4-0.8,0.5-1.2s0.1-0.8,0.1-1.2v-3.5h5.7
	V50.5z M41.6,52.2v-1.1h-1.8v1.1H41.6z M41.6,54v-1.2h-1.8V54H41.6z M42.2,52.2H44v-1.1h-1.8V52.2z M42.2,54H44v-1.2h-1.8V54z"/>
<path class="st0" d="M49.9,50.7v-0.5h0.6v0.5h1.7v1h0.4v0.5h-0.4v1.1h-1.7v0.5h1.8v0.5h-1.8v0.5h2.1v0.5h-2.1v0.6c0.1,0,0.2,0,0.3,0
	c0.9,0,1.5,0,1.9,0l-0.1,0.7c-2.2,0-3.6-0.1-4.1-0.2c-0.4-0.1-0.8-0.3-1.1-0.5c0,0-0.1,0-0.1-0.1c-0.2,0.3-0.5,0.6-1,0.9L45.9,56
	c0.4-0.2,0.7-0.5,0.9-0.8c-0.2-0.4-0.4-0.9-0.7-1.5l0.6-0.2c0.2,0.4,0.3,0.8,0.5,1v-0.1c0.1-0.3,0.2-0.8,0.2-1.3h-1.2v-0.5
	c0.4-0.5,0.8-1.1,1.2-1.7h-1.3v-0.5h2.1v0.8c-0.4,0.7-0.8,1.2-1.1,1.6h1.1c0,0.8-0.1,1.5-0.2,2c-0.1,0.2-0.1,0.4-0.2,0.6
	c0.2,0.2,0.4,0.3,0.8,0.4c0.3,0.1,0.7,0.1,1.4,0.2v-0.6h-1.7v-0.5H50v-0.5h-1.4v-0.5H50v-0.5h-1.3v-0.5H50v-0.6h-1.7v-0.5H50v-0.6
	h-1.3v-0.5H49.9L49.9,50.7z M50.5,51.7h1.1v-0.5h-1.1V51.7z M50.5,52.9h1.1v-0.6h-1.1V52.9z"/>
<path class="st0" d="M55.4,50.3c-0.1,0.1-0.1,0.3-0.2,0.4H57v0.5c0.3-0.4,0.6-0.7,0.7-1.1l0.6,0.1c-0.1,0.2-0.1,0.3-0.2,0.4h2.2v0.6
	h-1.2c0.1,0.2,0.1,0.3,0.2,0.5l-0.7,0.1c-0.1-0.2-0.1-0.4-0.1-0.6h-0.7c-0.2,0.2-0.3,0.4-0.5,0.6l-0.6-0.4c0.1-0.1,0.2-0.2,0.3-0.2
	h-1c0.1,0.2,0.1,0.3,0.2,0.5l-0.7,0.1c-0.1-0.2-0.1-0.4-0.2-0.6h-0.5c-0.2,0.2-0.4,0.5-0.6,0.7l-0.6-0.4c0.5-0.4,0.9-0.9,1.1-1.4
	L55.4,50.3L55.4,50.3z M56.8,54.4V54l-0.3-0.2c0.4-0.1,0.6-0.2,0.8-0.4c-0.2-0.1-0.4-0.2-0.6-0.2l0.3-0.5c0.2,0.1,0.4,0.1,0.6,0.2
	c0-0.1,0-0.1,0-0.2v-0.2h-0.8V52h2.6v1.4c0,0.1,0.1,0.2,0.2,0.2l0,0c0.1,0,0.1,0,0.1-0.1c0,0,0.1-0.2,0.1-0.6l0.5,0.2
	c0,0.5-0.1,0.8-0.2,0.9c-0.1,0.1-0.2,0.1-0.5,0.1h-0.3c-0.2,0-0.3,0-0.4-0.1c-0.1-0.1-0.1-0.2-0.1-0.4v-1.1h-0.7v0.2
	c0,0.2,0,0.3-0.1,0.4c0.2,0.1,0.4,0.2,0.7,0.3l-0.3,0.5c-0.2-0.1-0.4-0.2-0.6-0.4c-0.1,0.1-0.3,0.2-0.5,0.3h0.1v0.4h3v0.6h-2.3
	c0.3,0.2,0.5,0.4,0.7,0.5c0.4,0.2,0.9,0.4,1.5,0.5L60,56.4c-0.8-0.3-1.4-0.5-1.7-0.8c-0.3-0.2-0.6-0.4-0.9-0.8v1.8h-0.7v-1.8l0,0
	c-0.2,0.3-0.5,0.5-0.7,0.7c-0.4,0.3-1.1,0.6-1.9,0.9l-0.4-0.6c0.9-0.2,1.5-0.5,1.8-0.7c0.2-0.1,0.3-0.2,0.5-0.3h-2.3v-0.6h3.1V54.4z
	 M56.6,52.1v0.6h-1v0.6c0.3-0.1,0.6-0.1,1-0.2v0.6c-0.8,0.2-1.6,0.4-2.7,0.5l-0.1-0.6c0.4,0,0.8-0.1,1.2-0.1v-0.7h-1v-0.6L56.6,52.1
	L56.6,52.1z"/>
<path class="st0" d="M63.4,50.3c-0.1,0.2-0.1,0.4-0.2,0.6h0.9v2.3h-1.8v0.7h2v2.8h-0.6v-0.5h-1.4v0.5h-0.6v-5.8h0.9
	c0.1-0.2,0.2-0.5,0.2-0.7L63.4,50.3z M63.4,52.6v-1.1h-1.1v1.1H63.4z M63.6,55.6v-1.2h-1.3v1.2H63.6z M68,50.5v0.6h-1.5v0.8h1.3v3.7
	c0,0.2,0,0.3-0.1,0.5c-0.1,0.1-0.2,0.2-0.4,0.2h-0.4l-0.2-0.7h0.4c0.1,0,0.1-0.1,0.1-0.2v-2.9h-0.6v4.3h-0.7v-4.3h-0.7v3.8h-0.6
	v-4.4h1.3v-0.8h-1.5v-0.6L68,50.5L68,50.5z"/>
<path class="st0" d="M2.4,60.7c-0.2,0-0.7,0.1-1.2,0.1v0.4h1.1v0.5H1.2v0.4h1.1v0.5H1.2V63h4.5v-0.4H4.6v-0.5h1.1v-0.3H4.6v-0.5h1.1
	v-0.4H4.6v-0.6h1.8V63h0.3v1.4H6v-0.8H0.9v0.8H0.2V63h0.3v-2.6c0.5,0,1-0.1,1.6-0.2L2.4,60.7L2.4,60.7z M5.5,64v0.5
	c-0.5,0.2-1,0.4-1.7,0.6h2.7v0.6H3.8v0.6c0,0.1-0.1,0.3-0.1,0.3c-0.1,0.1-0.2,0.2-0.4,0.2h-1l-0.1-0.6c0.2,0,0.5,0,0.8,0
	c0.1,0,0.2-0.1,0.2-0.1v-0.5H0.4V65h2.8v-0.2c0.4-0.1,0.8-0.2,1.3-0.4h-3v-0.5L5.5,64L5.5,64z M4.4,60.5c-0.2,0.2-0.3,0.3-0.5,0.4
	C4,61,4.1,61.1,4.2,61.2l-0.4,0.4c-0.1-0.1-0.3-0.2-0.4-0.4c-0.2,0.1-0.5,0.3-0.9,0.4l-0.3-0.5c0.2-0.1,0.5-0.2,0.7-0.3
	c-0.2-0.1-0.3-0.2-0.5-0.3l0.3-0.3c0.2,0.1,0.4,0.3,0.6,0.4c0.1-0.1,0.3-0.2,0.4-0.4L4.4,60.5z M4.5,61.8C4.3,62,4.1,62.2,4,62.3
	c0.1,0.1,0.3,0.2,0.4,0.3L4,63c-0.1-0.1-0.3-0.3-0.5-0.4C3.3,62.7,3,62.9,2.7,63l-0.3-0.5c0.2-0.1,0.4-0.1,0.7-0.3
	C3,62.1,2.8,62,2.6,61.9l0.3-0.3c0.2,0.1,0.4,0.2,0.5,0.3c0.2-0.1,0.4-0.3,0.5-0.4L4.5,61.8L4.5,61.8z"/>
<path class="st0" d="M14.4,60.9H8.9v2.5c0,0.5,0,1-0.1,1.6s-0.2,1.1-0.4,1.7l-0.6-0.5c0.2-0.4,0.3-0.9,0.4-1.4
	c0.1-0.5,0.1-1,0.1-1.4v-3h6.1V60.9L14.4,60.9z M12,64.5V65h1.9v0.5H12v0.6h2.4v0.6H8.9v-0.6h0.9v-1.2h0.6v1.2h1v-1.6H12L12,64.5z
	 M11.6,61.6c-0.2,0.1-0.5,0.1-0.8,0.1v0.5h0.7v0.5h-0.7l0,0c0.3,0.2,0.6,0.4,0.9,0.6l-0.3,0.5c-0.2-0.2-0.4-0.3-0.6-0.5v1.2h-0.6
	v-1.1C10,63.7,9.7,64,9.3,64.2L9,63.7c0.5-0.3,0.9-0.6,1.1-1h-1v-0.5h1.1v-0.4c-0.3,0-0.6,0-0.9,0l-0.2-0.5c0.9,0,1.6-0.1,2.2-0.2
	L11.6,61.6L11.6,61.6z M14.2,61.6c-0.3,0.1-0.7,0.1-1,0.2v0.4h1.2v0.5h-1.2v0.1c0.4,0.3,0.8,0.6,1.2,1l-0.3,0.5
	c-0.4-0.4-0.7-0.6-0.9-0.8v1.1h-0.6v-1.1c-0.2,0.4-0.5,0.7-0.8,0.9l-0.3-0.5c0.4-0.3,0.8-0.6,1-1h-0.7v-0.7h0.8v-0.4
	c-0.2,0-0.5,0-0.7,0l-0.2-0.5c0.9,0,1.6-0.1,2.2-0.2L14.2,61.6z"/>
<path class="st0" d="M18.3,62.5v-0.9h0.9v0.9H18.3z M18.3,65.1v-0.9h0.9v0.9H18.3z"/>
<path class="st0" d="M2.8,70.9h1.3c0.2-0.3,0.4-0.5,0.6-0.8l0.7,0.2c-0.2,0.2-0.3,0.4-0.5,0.6h1.6v0.6H3.8v0.4h2.4v0.6H3.8v0.1
	c0,0.1,0,0.3,0,0.4h3v0.6h-3c0,0.2-0.1,0.4-0.1,0.6h3.1v0.6H4.3c0.1,0.2,0.2,0.4,0.4,0.5s0.4,0.3,0.8,0.4c0.3,0.1,0.8,0.2,1.4,0.4
	l-0.4,0.6c-0.6-0.1-1.1-0.3-1.5-0.5s-0.7-0.4-0.9-0.6s-0.4-0.5-0.5-0.8H3.4c-0.1,0.2-0.2,0.5-0.3,0.7c-0.5,0.6-1.4,1.1-2.7,1.2
	L0.1,76c1.2-0.1,2.1-0.4,2.5-1c0.1-0.1,0.1-0.2,0.2-0.2H0.3v-0.6H3c0-0.2,0.1-0.4,0.1-0.6H0.3V73h2.9c0-0.1,0-0.2,0-0.4v-0.2H0.9
	v-0.6h2.3v-0.5H0.6v-0.6h1.6c-0.1-0.2-0.3-0.4-0.5-0.6l0.7-0.2C2.5,70.3,2.6,70.6,2.8,70.9L2.8,70.9z"/>
<path class="st0" d="M14.2,76.6h-0.6v-0.2H8.7v0.2H8.1v-6.4h6.1V76.6L14.2,76.6z M13.6,75.9v-5.1H8.7v5.1H13.6z M11.3,74.8
	C10.7,75,9.9,75.1,9,75.3l-0.1-0.6c0.8-0.1,1.6-0.2,2.4-0.4L11.3,74.8L11.3,74.8z M11.3,71.6c0-0.2,0-0.4,0-0.7h0.6
	c0,0.2,0,0.5,0,0.7h0.7c-0.1-0.2-0.2-0.4-0.3-0.5l0.5-0.2c0.1,0.2,0.2,0.4,0.3,0.6l-0.3,0.1h0.6v0.5h-1.5c0,0.5,0.1,0.8,0.1,1.1
	c0,0.2,0.1,0.5,0.1,0.7c0.2-0.4,0.4-0.9,0.7-1.6l0.5,0.3c-0.3,0.9-0.6,1.5-0.9,1.9l0,0c0,0,0,0.1,0.1,0.1c0.1,0.2,0.2,0.3,0.3,0.3
	c0,0,0.1-0.3,0.2-0.8l0.5,0.4c-0.2,0.5-0.3,0.8-0.4,0.9c-0.1,0.1-0.2,0.2-0.3,0.2c-0.2,0-0.4-0.1-0.6-0.4c-0.1-0.1-0.1-0.2-0.2-0.3
	c-0.2,0.3-0.5,0.5-0.8,0.7l-0.3-0.5c0.4-0.3,0.7-0.5,0.9-0.8c-0.1-0.2-0.2-0.5-0.3-0.8c-0.1-0.4-0.2-0.9-0.2-1.5H8.9v-0.5h2.4V71.6z
	 M10.9,72.5v1.7H9.2v-1.7H10.9z M10.4,73H9.7v0.7h0.7V73z"/>
<path class="st0" d="M18.6,70.1V71h2.9v0.7h-2.9v1H22v0.7h-3.4v0.5c0.9,0.4,1.8,0.9,2.7,1.4L20.9,76c-0.9-0.6-1.7-1-2.3-1.3v2.1
	h-0.7v-3.4h-2.4v-0.7h2.4v-2.6L18.6,70.1L18.6,70.1z"/>
<path class="st0" d="M29.2,75.9c0,0.2-0.1,0.4-0.2,0.6c-0.1,0.1-0.3,0.2-0.5,0.2h-1.2L27.2,76l1.1,0.1c0.1,0,0.2-0.1,0.2-0.3v-1
	l-0.4,0.5c-0.4-0.4-0.7-0.8-1-1.1c-0.2-0.3-0.5-0.8-0.6-1.2c-0.1,0.3-0.2,0.5-0.4,0.8c-0.3,0.6-0.8,1.1-1.4,1.7L24.4,75v1.8h-0.7
	v-5.2h2.5v-0.7h-1.6v-0.7h2.3v1.3h2.4L29.2,75.9L29.2,75.9z M25.5,73.2c0.2-0.3,0.3-0.7,0.5-1.1h-1.7v2.5
	C24.9,74.1,25.3,73.6,25.5,73.2L25.5,73.2z M27.4,73.3c0.2,0.4,0.6,0.8,1.1,1.2v-2.4h-1.7C27,72.6,27.2,73,27.4,73.3L27.4,73.3z"/>
<path class="st0" d="M32,70.6v-0.5h0.6v0.5h2.8v-0.5H36v0.5h1.1v0.6H36v2.3h1.2v0.6h-1.3c0.2,0.2,0.3,0.3,0.5,0.4
	c0.2,0.2,0.6,0.3,1,0.4l-0.3,0.6c-0.4-0.2-0.7-0.3-1-0.5v0.4h-1.9V76h2.6v0.6h-5.9V76h2.6v-0.6h-1.8V75c-0.3,0.2-0.6,0.3-1,0.5
	l-0.3-0.6c0.5-0.2,0.9-0.3,1.2-0.5c0.1-0.1,0.2-0.2,0.4-0.3h-1.3v-0.6h1.2v-2.3h-1.1v-0.6H32L32,70.6z M33.7,74.8v-0.6h0.6v0.6H36
	l-0.1-0.1c-0.2-0.2-0.4-0.4-0.7-0.7h-2.3c-0.2,0.2-0.4,0.4-0.6,0.6c-0.1,0.1-0.2,0.1-0.3,0.2H33.7z M35.5,71.6v-0.4h-2.8v0.4H35.5z
	 M35.5,72.5v-0.4h-2.8v0.4H35.5z M35.5,73.5v-0.4h-2.8v0.4H35.5z"/>
<path class="st0" d="M41.1,70.9h1.3c0.2-0.3,0.4-0.5,0.6-0.8l0.7,0.2c-0.2,0.2-0.3,0.4-0.5,0.6h1.6v0.6h-2.7v0.4h2.4v0.6h-2.4v0.1
	c0,0.1,0,0.3,0,0.4h3v0.6h-3c0,0.2-0.1,0.4-0.1,0.6h3.1v0.6h-2.4c0.1,0.2,0.2,0.4,0.4,0.5s0.4,0.3,0.8,0.4c0.3,0.1,0.8,0.2,1.4,0.4
	l-0.4,0.6c-0.6-0.1-1.1-0.3-1.5-0.5s-0.7-0.4-0.9-0.6s-0.4-0.5-0.4-0.8h-0.2c-0.1,0.2-0.2,0.5-0.3,0.7c-0.5,0.6-1.4,1.1-2.7,1.2
	L38.6,76c1.2-0.1,2.1-0.4,2.5-1c0.1-0.1,0.1-0.2,0.1-0.2h-2.5v-0.6h2.7c0-0.2,0.1-0.4,0.1-0.6h-2.8V73h2.9c0-0.1,0-0.2,0-0.4v-0.2
	h-2.3v-0.6h2.3v-0.5H39v-0.6h1.6c-0.1-0.2-0.3-0.4-0.5-0.6l0.7-0.2C40.8,70.3,40.9,70.6,41.1,70.9L41.1,70.9z"/>
<path class="st0" d="M49.7,70.1c0.4,0.4,0.9,0.8,1.4,1.1c0.3,0.2,0.9,0.5,1.7,0.7l-0.4,0.7c-0.4-0.1-0.8-0.3-1.1-0.5v0.3h-3.9v-0.2
	c-0.3,0.2-0.7,0.3-1,0.5l-0.3-0.6c0.8-0.3,1.4-0.6,1.9-0.9c0.3-0.2,0.7-0.6,1.1-1L49.7,70.1L49.7,70.1z M52.1,76
	c0,0.2-0.1,0.4-0.2,0.5c-0.1,0.1-0.3,0.2-0.5,0.2h-0.6L50.7,76l0.5,0.1c0.1,0,0.2-0.1,0.2-0.3V75h-0.9v1.4h-0.6V75H49v1.4h-0.6V75
	h-0.9v1.6h-0.7v-3.8h5.4L52.1,76L52.1,76z M48.2,74.4v-0.9h-0.9v0.9H48.2z M50.7,71.8c-0.4-0.3-0.9-0.6-1.3-1.1
	c-0.4,0.4-0.9,0.8-1.3,1l0,0L50.7,71.8L50.7,71.8z M48.9,74.4h0.9v-0.9h-0.9V74.4z M50.4,74.4h0.9v-0.9h-0.9V74.4z"/>
<path class="st0" d="M56.4,71.9c0-0.4,0.1-0.8,0.1-1.3v-0.4h0.7v0.5c0,0.5,0,0.9-0.1,1.3h3v0.7h-2.2c0.2,0.7,0.4,1.3,0.7,1.8
	c0.4,0.6,0.9,1.1,1.6,1.5l-0.4,0.7c-0.8-0.6-1.4-1.2-1.8-1.8c-0.4-0.6-0.6-1.3-0.8-2.2H57c-0.1,0.5-0.2,0.9-0.4,1.3
	c-0.4,0.9-1.1,1.8-2.2,2.7l-0.6-0.5c1-0.7,1.8-1.5,2.2-2.4c0.2-0.3,0.3-0.7,0.4-1.1H54V72L56.4,71.9L56.4,71.9z"/>
<path class="st0" d="M63.6,70.7c-0.2,0-0.7,0.1-1.2,0.1v0.4h1.1v0.5h-1.1v0.4h1.1v0.5h-1.1V73H67v-0.4h-1.1v-0.5H67v-0.3h-1.1v-0.6
	H67v-0.4h-1.1v-0.6h1.8v2.7H68v1.4h-0.7v-0.9h-5.1v0.9h-0.6v-1.4h0.3v-2.6c0.5,0,1-0.1,1.6-0.2L63.6,70.7L63.6,70.7z M66.8,73.9v0.5
	c-0.5,0.2-1,0.4-1.7,0.6h2.7v0.6h-2.7v0.6c0,0.1,0,0.3-0.1,0.3c-0.1,0.1-0.2,0.2-0.4,0.2h-1.1l-0.1-0.6c0.2,0,0.5,0,0.8,0
	c0.1,0,0.2,0,0.2-0.1v-0.5h-2.8v-0.6h2.8v-0.2c0.4-0.1,0.8-0.2,1.3-0.4h-3v-0.5L66.8,73.9L66.8,73.9z M65.7,70.4
	c-0.2,0.2-0.3,0.3-0.4,0.4c0.1,0.1,0.2,0.2,0.3,0.3l-0.4,0.4c-0.1-0.1-0.2-0.2-0.4-0.3c-0.2,0.1-0.5,0.3-0.9,0.4l-0.3-0.5
	c0.2-0.1,0.5-0.2,0.7-0.3c-0.2-0.1-0.3-0.2-0.5-0.3l0.3-0.3c0.2,0.1,0.4,0.3,0.6,0.4c0.1-0.1,0.3-0.2,0.4-0.4L65.7,70.4z M65.8,71.7
	c-0.2,0.2-0.4,0.4-0.5,0.5c0.1,0.1,0.3,0.2,0.4,0.3l-0.4,0.4c-0.1-0.1-0.3-0.3-0.5-0.4c-0.2,0.1-0.5,0.3-0.8,0.4l-0.3-0.4
	c0.2-0.1,0.4-0.2,0.7-0.3c-0.1-0.1-0.3-0.2-0.5-0.3l0.3-0.3c0.2,0.1,0.4,0.2,0.6,0.3c0.2-0.1,0.3-0.3,0.5-0.4L65.8,71.7L65.8,71.7z"
	/>
<path class="st0" d="M3.9,80.5V80h0.6v0.5h1.7v1h0.4V82H6.3v1.2H4.6v0.5h1.8v0.5H4.6v0.5h2.1v0.5H4.6v0.6c0.1,0,0.2,0,0.3,0
	c0.9,0,1.5,0,1.9-0.1l-0.1,0.7c-2.2,0-3.6-0.1-4.1-0.2c-0.4-0.1-0.8-0.3-1.1-0.5c0,0-0.1,0-0.1-0.1c-0.2,0.3-0.5,0.6-1,0.9L0,85.8
	c0.4-0.2,0.7-0.5,0.9-0.8c-0.2-0.4-0.4-0.9-0.7-1.5l0.6-0.2c0.2,0.4,0.3,0.8,0.5,1v-0.1c0.1-0.3,0.2-0.8,0.2-1.3H0.3v-0.5
	c0.4-0.5,0.8-1.1,1.2-1.7H0.2v-0.5h2.1v0.6c-0.4,0.7-0.8,1.2-1.1,1.6h1.1c0,0.8-0.1,1.5-0.2,1.9C2,84.5,2,84.7,1.9,84.9
	c0.2,0.2,0.4,0.3,0.8,0.4c0.3,0.1,0.7,0.1,1.4,0.2v-0.3H2.4v-0.5h1.7v-0.5H2.7v-0.5h1.4v-0.5H2.8v-0.5h1.3v-0.6H2.4v-0.5h1.7v-0.5
	H2.8v-0.5L3.9,80.5L3.9,80.5z M4.5,81.6h1.1v-0.5H4.5V81.6z M4.5,82.7h1.1v-0.6H4.5V82.7z"/>
<path class="st0" d="M9.5,80.1c-0.1,0.1-0.1,0.3-0.2,0.4h1.8V81c0.3-0.3,0.6-0.7,0.7-1.1l0.7,0.1c-0.1,0.2-0.1,0.3-0.2,0.4h2.2V81
	h-1.2c0.1,0.2,0.1,0.4,0.2,0.5l-0.7,0.1c0-0.2-0.1-0.4-0.1-0.6H12c-0.2,0.2-0.3,0.4-0.5,0.6l-0.6-0.4c0.1-0.1,0.2-0.2,0.3-0.2h-1
	c0.1,0.2,0.1,0.3,0.2,0.5l-0.7,0.1c-0.1-0.2-0.1-0.4-0.2-0.6H9c-0.2,0.2-0.4,0.5-0.6,0.7l-0.6-0.4c0.5-0.4,0.9-0.9,1.1-1.4L9.5,80.1
	L9.5,80.1z M10.8,84.2v-0.3l-0.3-0.2c0.4-0.1,0.6-0.2,0.8-0.4c-0.2-0.1-0.4-0.2-0.6-0.2l0.3-0.5c0.2,0.1,0.4,0.1,0.6,0.2
	c0-0.1,0-0.1,0-0.2v-0.2h-0.8v-0.5h2.6v1.3c0,0.1,0.1,0.2,0.2,0.2l0,0c0.1,0,0.1,0,0.1-0.1c0,0,0.1-0.2,0.1-0.6l0.5,0.2
	c0,0.5-0.1,0.8-0.2,0.9c-0.1,0.1-0.2,0.1-0.5,0.1h-0.3c-0.2,0-0.3,0-0.4-0.1s-0.1-0.2-0.1-0.4v-1.1h-0.7v0.2c0,0.2,0,0.3-0.1,0.4
	c0.2,0.1,0.4,0.2,0.7,0.3l-0.3,0.5c-0.2-0.1-0.4-0.2-0.6-0.4c-0.1,0.1-0.3,0.2-0.5,0.3h0.1v0.6h3v0.6h-2.3c0.3,0.2,0.5,0.4,0.7,0.5
	c0.3,0.2,0.8,0.4,1.5,0.5L14,86.4c-0.8-0.3-1.4-0.5-1.7-0.8c-0.3-0.2-0.6-0.4-0.9-0.8v1.8h-0.6v-1.8l0,0c-0.2,0.3-0.5,0.5-0.7,0.7
	c-0.4,0.3-1.1,0.6-1.9,0.9l-0.4-0.6c0.9-0.2,1.5-0.5,1.8-0.7c0.2-0.1,0.3-0.2,0.5-0.3H7.8v-0.6H10.8L10.8,84.2z M10.6,81.9v0.6h-1
	v0.6c0.3-0.1,0.6-0.1,1-0.2v0.6C9.8,83.7,9,83.9,7.9,84l-0.1-0.7c0.4,0,0.8-0.1,1.2-0.1v-0.7H8v-0.6L10.6,81.9L10.6,81.9z"/>
<path class="st0" d="M21.6,80.2v0.5H19V81h2.9v1.6h-0.6v-1h-2.2v1.5h-0.7v-1.5h-2.2v1.1h-0.7v-1.6h2.9v-0.3h-2.5v-0.6H21.6z
	 M21.5,83.2v2.2l0.6,0.2c-0.1,0.5-0.2,0.8-0.4,0.9s-0.4,0.1-0.8,0.1H19c-0.2,0-0.4-0.1-0.5-0.2s-0.2-0.2-0.2-0.4v-0.5h-2.4v-2.3
	H21.5L21.5,83.2z M18.1,81.9v0.4h-1.7v-0.4H18.1z M18.1,82.5v0.4h-1.7v-0.4H18.1z M18.3,84.2v-0.4h-1.7v0.4H18.3z M18.3,84.6h-1.7
	v0.5h1.7V84.6z M19,84.2h1.9v-0.4H19V84.2z M20.9,84.6H19v0.5h1.9V84.6z M19,85.9c0,0.1,0.1,0.2,0.2,0.2h1.6c0.2,0,0.3,0,0.4-0.1
	c0.1,0,0.2-0.2,0.2-0.5h-2.5L19,85.9L19,85.9z M21.1,81.8v0.4h-1.8v-0.4H21.1z M21.1,82.5v0.4h-1.8v-0.4H21.1z"/>
<path class="st0" d="M25.3,80.2v5.7c0,0.2-0.1,0.4-0.1,0.5c-0.1,0.1-0.2,0.2-0.5,0.2h-0.4L24.2,86h0.4c0.1,0,0.2-0.1,0.2-0.2v-1.7
	c-0.2,0.2-0.4,0.4-0.6,0.6L24,84.3c0,0.3,0,0.5-0.1,0.8c-0.1,0.5-0.2,1-0.3,1.5l-0.5-0.5c0.1-0.4,0.2-0.8,0.2-1.3s0.1-0.9,0.1-1.3
	v-3.3H25.3z M24.7,83.3v-0.7l-0.3,0.2c-0.1-0.3-0.2-0.5-0.4-0.9v1.7c0,0.1,0,0.3,0,0.4C24.2,83.8,24.5,83.6,24.7,83.3L24.7,83.3z
	 M24.2,81.4c0.2,0.3,0.4,0.6,0.5,0.9v-1.4H24v0.7L24.2,81.4z M27,80.2c-0.3,0.4-0.6,0.8-0.9,1.1c0.3,0.4,0.6,0.7,0.7,1.1l-0.6,0.2
	c-0.2-0.4-0.5-0.8-0.8-1.3c0.4-0.4,0.7-0.8,1-1.3L27,80.2z M28.4,80.2c-0.2,0.4-0.5,0.8-0.9,1.2c0.3,0.4,0.6,0.7,0.8,1l-0.6,0.2
	c0-0.1-0.1-0.1-0.1-0.2c-0.1,0.1-0.1,0.3-0.2,0.4h2.2v3.8H29v-0.3h-2.7v0.3h-0.6v-3.8h1.1c0.1-0.2,0.2-0.4,0.3-0.6l0.5,0.1
	c-0.2-0.3-0.4-0.6-0.6-0.9c0.3-0.4,0.6-0.9,0.9-1.4L28.4,80.2L28.4,80.2z M28.9,85.8v-2.3h-2.6v2.3H28.9z M28.8,83.9
	c-0.2,0.3-0.4,0.5-0.6,0.7c0.2,0.2,0.4,0.3,0.6,0.5l-0.5,0.5c-0.2-0.2-0.4-0.4-0.6-0.6c-0.3,0.2-0.6,0.4-1.1,0.6l-0.3-0.5
	c0.3-0.1,0.6-0.3,0.9-0.5c-0.2-0.2-0.5-0.3-0.8-0.5l0.4-0.4c0.3,0.2,0.6,0.4,0.9,0.5c0.2-0.2,0.4-0.4,0.6-0.6L28.8,83.9L28.8,83.9z
	 M29.7,80.2c-0.2,0.4-0.5,0.8-0.8,1.2c0.4,0.4,0.6,0.8,0.8,1.1l-0.6,0.2c-0.2-0.4-0.5-0.9-0.9-1.4c0.3-0.4,0.6-0.9,0.9-1.3
	L29.7,80.2L29.7,80.2z"/>
<path class="st0" d="M31.8,83.8v-0.9h0.9v0.9H31.8z"/>
<path class="st0" d="M37.9,80.3v0.6H37c-0.1,0.6-0.2,1.1-0.4,1.5l0,0h1.2v3.4h-1.2v0.6H36v-3c-0.1,0.2-0.2,0.4-0.4,0.6l-0.4-0.6
	c0.4-0.5,0.6-1,0.7-1.5c0.1-0.3,0.2-0.6,0.3-1.1h-0.8v-0.6L37.9,80.3L37.9,80.3z M37.2,85.3v-2.2h-0.6v2.2H37.2z M39.7,85.7
	c-0.4,0.4-0.9,0.7-1.5,1l-0.4-0.6c0.5-0.2,1-0.5,1.5-0.8L39.7,85.7z M42,80.2v0.6h-1.7c-0.1,0.2-0.1,0.4-0.2,0.5h1.5v3.9h-3.5v-3.8
	h1.2c0.1-0.2,0.1-0.3,0.2-0.5H38v-0.7H42L42,80.2z M41.1,82.4v-0.5h-2.2v0.5H41.1z M41.1,83.5v-0.6h-2.2v0.6H41.1z M41.1,84.1h-2.2
	v0.5h2.2V84.1z M42,86.1l-0.4,0.6c-0.5-0.4-1-0.7-1.5-0.9l0.3-0.5C41,85.5,41.5,85.8,42,86.1L42,86.1z"/>
<path class="st0" d="M46,82.2V80h0.8v2.2h2.9v0.7h-2.9v2.9h2.6v0.6h-5.9v-0.6h2.6v-2.9h-2.8v-0.7H46z"/>
<path class="st0" d="M4.2,7.2H1.5V8H0.6V0.7h3.6L4.2,7.2L4.2,7.2z M3.3,3.5V1.6H1.5v1.9H3.3z M3.3,6.3v-2H1.5v2H3.3z M5.2,0.5h4.4
	v7.7c0,0.3-0.1,0.6-0.3,0.8C9.1,9.1,8.9,9.2,8.6,9.2H6.9l-0.1-1l1.5,0.1c0.2,0,0.3-0.2,0.3-0.4V6.2H6.1C6,6.6,5.9,6.9,5.8,7.2
	C5.5,7.9,4.9,8.7,4,9.4L3.1,8.7c0.8-0.6,1.3-1.2,1.7-1.8c0.3-0.5,0.4-1.3,0.4-2.4V0.5L5.2,0.5z M8.6,5.3V3.7H6.2v0.7
	c0,0.3,0,0.6,0,0.9H8.6L8.6,5.3z M8.6,2.8V1.4H6.2v1.4H8.6z"/>
<path class="st0" d="M19.8,9.3h-1V8.6h-5.2v0.7h-1V0.5h7.2V9.3L19.8,9.3z M18.7,3.9V1.5h-5.2V4h5.2V3.9z M18.7,7.6V4.9h-5.2v2.7
	H18.7z"/>
<path class="st0" d="M25.3,0.7c-0.2,0.5-0.3,0.9-0.4,1.2h2.2V0.1h1v1.8H32v0.9h-3.9v2.1h3.4v0.9h-3.4v2.4h4.1v0.9h-9.5v-1h4.4V5.8
	h-3.3V4.9h3.3V2.8h-2.6l0,0c-0.2,0.5-0.6,1.1-1.2,1.7l-0.8-0.7c0.5-0.5,0.9-1.1,1.2-1.6s0.5-1.2,0.7-2L25.3,0.7L25.3,0.7z"/>
<path class="st0" d="M35.9,3.8l-0.6,1c-0.6-0.5-1.2-0.9-1.8-1.2L34,2.8C34.7,3.1,35.4,3.5,35.9,3.8L35.9,3.8z M36.3,5.9
	c-0.6,1.3-1.2,2.5-1.9,3.4l-0.8-0.9c0.6-0.7,1.2-1.8,1.8-3.1L36.3,5.9L36.3,5.9z M36.1,1.2l-0.6,0.9c-0.5-0.4-1.1-0.8-1.7-1l0.5-0.8
	C35,0.6,35.6,0.9,36.1,1.2L36.1,1.2z M42.9,1c-0.8,0.2-1.7,0.4-2.7,0.5v1.4h3v0.9h-3v1.4h2.5v4h-1V8.6h-3.9v0.6h-1v-4h2.4V3.8h-3V3
	h3V1.6c-0.7,0.1-1.5,0.1-2.3,0.1l-0.2-0.8c2.3,0,4.2-0.2,5.8-0.6L42.9,1L42.9,1z M41.7,7.8V6.1h-3.9v1.7H41.7z"/>
<path class="st0" d="M57,1.7l-0.1,1h1.5v0.6h-1.5l-0.1,1h-6.7l0.1-1h-1.5V2.7h1.5l0.1-1H57z M54.2,0.6h4v1.7h-0.9v-1H50v1h-0.9V0.6
	h4.1c-0.1-0.2-0.2-0.3-0.4-0.5l1-0.1C53.9,0.2,54.1,0.4,54.2,0.6z M57.3,4.7V8h-2c0.9,0.1,1.8,0.4,2.7,0.6l-0.3,0.7
	c-1.1-0.3-2.1-0.6-3.3-0.8l0.3-0.6h-2.2l0.3,0.3c-0.5,0.2-1,0.4-1.4,0.6c-0.5,0.1-1.1,0.3-1.8,0.4l-0.5-0.8c0.7-0.1,1.3-0.2,1.8-0.4
	c0.2-0.1,0.4-0.1,0.6-0.2h-1.8V4.7H57.3L57.3,4.7z M56.4,5.6V5.3h-5.6v0.4L56.4,5.6L56.4,5.6z M56.4,6.6V6.2h-5.6v0.4H56.4z
	 M56.4,7.1h-5.6v0.4h5.6V7.1z M53,3.7V3.3h-1.9v0.4H53z M53.1,2.7V2.3h-1.9v0.4H53.1z M53.9,3.7H56V3.3h-2.1V3.7z M54,2.7h2.1V2.3
	H54V2.7z"/>
<path class="st0" d="M63.6,0.6v3.2h-0.9V5h1v0.8h-1v1.7c0.4-0.1,0.8-0.2,1.2-0.4V8c-1.2,0.4-2.5,0.8-3.9,1l-0.1-0.9
	c0.2,0,0.3,0,0.4,0V4.4h0.8v3.5c0.2,0,0.5-0.1,0.7-0.2v-4h-1.3V0.6H63.6L63.6,0.6z M62.7,1.4h-1.3V3h1.3V1.4z M69.3,1.8l-3,0.4
	c0.1,0.1,0.1,0.3,0.2,0.4c0.1,0.1,0.1,0.2,0.2,0.3c0.4-0.2,0.8-0.5,1.2-0.8l0.7,0.5c-0.4,0.4-0.8,0.7-1.3,0.9
	c0.1,0.1,0.1,0.1,0.2,0.1c0.3,0.2,0.6,0.3,0.8,0.3c0.1,0,0.4-0.3,0.6-1l0.8,0.5c-0.3,0.6-0.5,1-0.7,1.2c-0.2,0.1-0.4,0.2-0.6,0.2
	c-0.3,0-0.7-0.1-1.2-0.4c-0.2-0.1-0.5-0.3-0.7-0.5c-0.6,0.2-1.4,0.5-2.3,0.7l-0.4-0.8c0.8-0.2,1.6-0.3,2.1-0.5
	c-0.1-0.1-0.1-0.2-0.2-0.3c-0.1-0.2-0.2-0.4-0.3-0.6l-1.3,0.2L64,1.9l1.2-0.1C65.1,1.4,65,1,64.9,0.5l0.9-0.1
	c0.1,0.5,0.2,0.9,0.3,1.3l1.1-0.1c-0.2-0.2-0.4-0.5-0.6-0.7l0.6-0.4C67.6,0.8,67.8,1,68,1.2l-0.7,0.4l1.9-0.2L69.3,1.8L69.3,1.8z
	 M69.3,5.7l-3.2,0.5c0.1,0.3,0.2,0.5,0.3,0.7c0.1,0.1,0.1,0.2,0.2,0.3C67,6.9,67.5,6.5,68,6.1l0.6,0.5c-0.4,0.5-0.9,0.9-1.4,1.3
	L67.3,8c0.4,0.2,0.6,0.4,0.8,0.4c0.1,0,0.2,0,0.3-0.1s0.2-0.4,0.4-1.1l0.9,0.4c-0.2,0.8-0.4,1.3-0.7,1.5c-0.1,0.1-0.3,0.2-0.6,0.2
	c-0.5,0-0.9-0.2-1.4-0.5c-0.2-0.1-0.3-0.3-0.5-0.4c-0.6,0.3-1.3,0.6-2.2,0.8l-0.4-0.8c0.8-0.2,1.5-0.4,2-0.7
	c-0.1-0.2-0.2-0.3-0.3-0.5s-0.2-0.4-0.3-0.7l-1.4,0.2L63.8,6l1.3-0.2C65,5.4,64.9,5,64.9,4.6h0.9c0,0.4,0.1,0.7,0.2,1l0.9-0.1
	c-0.2-0.2-0.4-0.4-0.6-0.7l0.6-0.4c0.3,0.3,0.6,0.5,0.7,0.7l-0.5,0.4l2.2-0.4V5.7z"/>
<path class="st0" d="M79.1,2.4v0.8h-2.2c-0.3,0.2-0.6,0.4-0.9,0.6c0.4,0.5,0.6,0.9,0.8,1.3c0.8-0.3,1.5-0.8,2.2-1.4l0.7,0.7
	c-0.4,0.4-0.9,0.7-1.4,1c0.2,0.5,0.5,1,0.9,1.4c0.3,0.4,0.8,0.9,1.4,1.3l-0.7,0.8c-0.7-0.6-1.2-1.2-1.6-1.8
	c-0.3-0.4-0.6-0.9-0.8-1.4c-0.2,0.1-0.3,0.1-0.5,0.2c0.1,0.4,0.1,0.9,0.1,1.3c0,0.8-0.1,1.3-0.4,1.6c-0.2,0.4-1,0.5-2.2,0.5l-0.3-1
	c0,0,0.2,0.1,0.6,0.1c0.6,0,0.9-0.1,1.1-0.2c0.2-0.2,0.3-0.5,0.3-1c0-0.1,0-0.3,0-0.4c-0.6,0.4-1.1,0.8-1.6,1
	c-0.8,0.4-1.7,0.7-2.9,1.1L71.2,8c1.1-0.3,2.1-0.6,3-1c0.7-0.3,1.3-0.7,1.8-1.1c0-0.1-0.1-0.2-0.1-0.3s-0.1-0.2-0.1-0.3
	c-0.6,0.4-1.1,0.7-1.5,0.9c-0.7,0.3-1.5,0.6-2.5,0.9l-0.5-0.9c1-0.2,1.9-0.5,2.7-0.8c0.6-0.2,1.1-0.5,1.5-0.8
	c-0.1-0.1-0.2-0.2-0.3-0.4c-0.9,0.4-2,0.7-3.2,1l-0.5-0.8c1.3-0.2,2.3-0.5,3.1-0.8c0.3-0.1,0.6-0.2,0.9-0.3h-2.9V2.4H79.1L79.1,2.4z
	 M76.3,0.9h4.1v2h-0.9V1.7h-7.2v1.2h-1v-2h3.9c-0.1-0.2-0.2-0.4-0.4-0.6l1.1-0.1C76,0.4,76.1,0.6,76.3,0.9L76.3,0.9z"/>
<path class="st1" d="M16.4,17.2c-0.1,0.2-0.4,0.3-0.8,0.3h-2.9c0.6,2.6,2.2,5.2,3.8,6.6v0.2c-0.8,0.4-1.5,1.1-1.7,1.8
	c-1.2-1.8-1.9-4.7-2.3-7.5l0,0v9.7c0,0.2-0.8,0.6-1.4,0.6h-0.4v-7.4c-1,1.8-2.5,3.4-4.2,4.7L6.3,26c2.1-2.2,3.5-5.4,4.1-8.5H7.5
	c-0.1,0-0.2,0-0.3,0H5v2.2c2,0.7,2.7,1.6,2.7,2.3c0,0.6-0.4,1-0.9,1c-0.2,0-0.5-0.1-0.8-0.4c-0.1-0.8-0.5-1.9-1-2.6v8.5
	c0,0-0.2,0.5-1.8,0.5v-7c-0.8,1.3-1.7,2.4-2.8,3.4l-0.2-0.2c1.5-2.1,2.4-4.9,2.9-7.6H0.4l-0.1-0.3h2.9v-4.2l2.4,0.2
	c0,0.2-0.1,0.4-0.7,0.4v3.5h0.5L6.3,16l1.6,1.2h2.8v-4.1l2.5,0.2c0,0.2-0.2,0.4-0.7,0.4v3.5h1.2l0.9-1.3L16.4,17.2L16.4,17.2z"/>
<path class="st1" d="M35,18.3c-0.1,0.2-0.3,0.3-0.8,0.3h-6.5c0.6,3.2,2.5,6.4,7.4,8.5v0.2c-0.9,0.2-1.5,0.7-1.7,1.8
	c-4.2-2.5-5.5-6.8-6-10.2l0,0c-0.5,4.1-2.1,7.7-8.2,10.2L19,28.9c4.7-2.9,6.1-6.4,6.5-10.2h-6.4L19,18.4h6.5
	c0.1-1.5,0.1-2.7,0.1-5.1l2.7,0.2c0,0.2-0.2,0.4-0.7,0.4c0,1.5-0.1,3-0.2,4.5h4.2l1.2-1.5L35,18.3L35,18.3z"/>
<path class="st1" d="M37.5,22.1c1.3-2.1,2.7-5.7,3.5-9.1l2.6,0.8c-0.1,0.2-0.2,0.3-0.7,0.3c-0.4,1.2-0.9,2.3-1.5,3.3l0.7,0.2
	c-0.1,0.1-0.2,0.3-0.5,0.3v10.4c0,0.1-0.8,0.5-1.5,0.5h-0.3v-8.9c-0.6,0.8-1.3,1.5-2,2.2H37.5z M46.7,17.6l1.1,0.2
	c-0.1,0.2-0.2,0.3-0.7,0.3c-0.5,1.7-1.8,3.1-4.7,3.9l-0.1-0.2c2-0.9,2.7-2.3,3-3.9l-1.4,0.2c-0.1,0.2-0.3,0.3-0.5,0.3l-0.8-2
	c0.6,0,1.4,0,2.5,0c0.4-1.1,0.9-2.5,1.1-3.5l2.7,0.9c-0.1,0.2-0.2,0.3-0.7,0.2c-0.6,0.7-1.6,1.6-2.5,2.3c1.6,0,3.4-0.1,5.4-0.1
	c-0.4-0.6-0.9-1.1-1.4-1.4l0.1-0.1c2.8,0.4,3.7,1.5,3.7,2.4c0,0.6-0.4,1-0.9,1c-0.2,0-0.5-0.1-0.7-0.3c-0.1-0.4-0.3-0.8-0.5-1.2
	c-0.8,0.2-1.7,0.4-2.7,0.6l2,0.1c0,0.2-0.1,0.3-0.5,0.3v1.8c0,0.2,0.1,0.4,0.3,0.4h1.4c0.4,0,0.5,0,1.1-1.3h0.2v1.2
	c0.5,0.2,0.6,0.3,0.6,0.5c0,0.6-0.5,0.9-1.8,0.9h-1.6c-1.4,0-1.7-0.3-1.7-1.6v-2.3L46.7,17.6L46.7,17.6z M50.5,21.6l1.7,1.5
	c-0.1,0.1-0.3,0.2-0.7,0.2c-0.5,1-1.3,1.9-2.2,2.7c1.2,0.5,2.6,0.8,4.3,1v0.2c-0.7,0.3-1.1,0.8-1.2,1.7c-1.9-0.5-3.2-1.1-4.3-2
	c-1.5,0.9-3.4,1.6-5.7,2l-0.1-0.2c2-0.6,3.6-1.4,4.9-2.5c-0.7-0.7-1.2-1.6-1.7-2.5c-0.9,0.8-1.9,1.6-3,2.1l-0.2-0.2
	c1.4-1.2,2.8-3.2,3.4-5.1l2.4,0.5c-0.1,0.2-0.2,0.2-0.7,0.2c-0.3,0.4-0.6,0.9-0.9,1.3h3L50.5,21.6L50.5,21.6z M46.2,22.9
	c-0.1,0.2-0.3,0.3-0.5,0.5c0.6,0.8,1.3,1.5,2.2,2c0.6-0.8,1.2-1.6,1.6-2.5H46.2L46.2,22.9z"/>
</svg>
