<?xml version="1.0" encoding="utf-8"?>
<!-- Generator: Adobe Illustrator 27.0.0, SVG Export Plug-In . SVG Version: 6.00 Build 0)  -->
<svg version="1.1" id="圖層_1" xmlns="http://www.w3.org/2000/svg" xmlns:xlink="http://www.w3.org/1999/xlink" x="0px" y="0px"
	 viewBox="0 0 400 34" style="enable-background:new 0 0 400 34;" xml:space="preserve">
<style type="text/css">
	.st0{fill:#FFFFFF;}
</style>
<path class="st0" d="M63.6,3c-0.3,0.5-0.7,0.7-1.5,0.7h-1.6v29.2c0,0.2-0.8,0.8-2,0.8h-0.4v-8.4c-1.5,0.7-3.4,1.6-5.9,2.6
	c-0.2,0.5-0.5,0.7-0.9,0.8l-1.1-3.5l2-0.2V3.7h-1.8l-0.2-0.8h8.7l1.6-2.2L63.6,3L63.6,3z M58.1,9.9V3.7h-3.5v6.2H58.1z M58.1,17.2
	v-6.5h-3.5v6.5H58.1z M54.5,18v6.8c1.1-0.1,2.3-0.3,3.5-0.5V18H54.5z M82,13.4c-0.3,0.5-0.7,0.7-1.6,0.7h-4.8
	c0.2,2.7,0.4,5.3,0.8,7.6c0.8-1.9,1.5-3.9,1.9-5.8l3.4,1.1c-0.1,0.4-0.4,0.6-1.3,0.6c-0.7,2.4-1.8,4.8-3.2,7.1
	c1,3.1,2.2,4.6,2.3,4.6c0.3,0,1.2-2.7,1.7-4.6l0.3,0.1L81,30.5c0.5,1.1,0.8,1.9,0.8,2.4c0,0.7-0.7,0.9-1.1,0.9
	c-2.8,0-4.9-5.7-5.3-6.7c-2.2,2.6-5,4.8-8.6,6.3l-0.2-0.5c3.5-1.9,6.2-4.7,8.2-7.9c-0.8-3.1-1.3-6.7-1.5-10.7H60.9l-0.2-0.8H68
	c0.4-1.9,0.7-4.6,0.9-6.5l3.5,0.8C72.3,8,72,8.2,71.2,8.2c-0.6,1.5-1.5,3.5-2.5,5.1h4.5C73.2,11,73.1,8.6,73.1,6
	c-0.3,0.1-0.6,0.2-1.1,0.2H61.7l-0.2-0.8h4.3V0.2l3.9,0.4c-0.1,0.5-0.4,0.8-1.4,0.9v3.9h1.4l1.3-2l2.1,1.7c0-1.6,0-3.2,0-4.9
	l3.8,0.5c0,0.5-0.3,0.6-1.3,0.8c0,1.9-0.1,3.7-0.1,5.6c0,2.1,0,4.2,0.1,6.2h1.9l1.6-2.2L82,13.4L82,13.4z M69.2,27.8H65v2.3
	c0,0-0.3,0.8-2.2,0.8V16.3l2.4,1.1h3.8l0.9-1.3l2.7,2.1c-0.2,0.2-0.6,0.5-1.1,0.6v9.7c0,0.1-0.7,0.8-2.2,0.8L69.2,27.8L69.2,27.8z
	 M63.5,6.9c1.9,1.5,2.5,3,2.5,4.1c0,1.2-0.7,2-1.5,2c-0.4,0-0.8-0.2-1.1-0.7c0.1-0.5,0.1-1,0.1-1.5c0-1.3-0.2-2.7-0.5-3.7L63.5,6.9
	L63.5,6.9z M69.2,18.3H65v3.9h4.2V18.3z M65,27h4.2v-4H65V27z M76.5,3.1c3.6,0.7,4.7,2.4,4.7,3.7c0,0.9-0.6,1.7-1.3,1.7
	c-0.3,0-0.7-0.1-1-0.5c-0.1-1.6-1.3-3.5-2.6-4.5L76.5,3.1L76.5,3.1z"/>
<path class="st0" d="M86.9,33.1c13.1-9.2,13-21,13-32l4.3,0.4c0,0.5-0.3,0.8-1.4,0.9c0.8,11.2,4.1,21.6,15.2,28.4l-0.1,0.4
	c-1.4,0.1-2.4,0.9-2.8,2.5c-8.5-6.4-11.4-16-12.5-25.7h0c-0.6,9.2-2.8,18.7-15.4,25.6L86.9,33.1L86.9,33.1z"/>
<path class="st0" d="M128.5,14.6c0.6,2,0.8,3.8,0.8,5.4c0,4.8-2.3,8-4.5,8c-1,0-1.3-0.8-1.3-1.3c0-0.6,0.3-1.2,0.8-1.7
	c2-1.6,3.8-5.6,3.6-10.3L128.5,14.6z M132.1,1.4c8.9,0.1,11.7,3.4,11.7,5.4c0,0.9-0.5,1.5-1.3,1.5c-0.2,0-0.5,0-0.7-0.1
	c-1.3-2-4.7-4.7-9.7-6.2L132.1,1.4L132.1,1.4z M132.8,10.6l4,0.4c-0.1,0.5-0.3,0.7-1.3,0.9v16.9c0,1.2,0.1,1.3,1.4,1.3h6.6
	c0.6,0,1-0.1,1.3-0.6c0.3-0.5,0.8-2.7,1.4-5.3h0.3l0,5.5c1.1,0.4,1.3,0.6,1.3,1c0,1.2-1,1.8-4.3,1.8h-6.6c-3.4,0-4.1-0.7-4.1-3.9
	L132.8,10.6L132.8,10.6z M147.1,13.2c5.8,3.5,7.6,8,7.6,11c0,2.1-0.9,3.6-1.9,3.6c-0.4,0-0.8-0.2-1.2-0.8c0.1-3.6-1-9.6-4.8-13.5
	L147.1,13.2z"/>
<path class="st0" d="M168.6,4.1h-8.5l-0.2-0.8h8.7V0.1l3.9,0.3c0,0.5-0.3,0.7-1.3,0.9v2.1h8.2V0l3.9,0.3c0,0.5-0.3,0.7-1.3,0.9v2.1
	h4.2l1.6-2.2l3.1,2.3c-0.3,0.5-0.7,0.7-1.6,0.7h-7.4v1.6c0,0.1-0.2,0.2-0.5,0.4l2,0.2c0,0.4-0.2,0.6-1.2,0.8c0,1-0.1,1.9-0.1,2.8
	h2.3l1.1-1.5l2.9,2.3c-0.2,0.2-0.6,0.4-1.2,0.5c-0.1,3.7,0.2,6.5,1.3,7.7c0.1,0.1,0.2,0.1,0.2,0.1c0.3,0,1-2.3,1.2-2.9l0.3,0.1
	l-0.3,3.3c0.5,0.6,0.7,1.1,0.7,1.5c0,0.2-0.2,1.1-1.3,1.1c-0.6,0-1.3-0.3-1.8-0.7c-2.2-2-2.7-5.4-2.8-10.7h-2.6
	c-0.1,1.4-0.3,2.7-0.7,4c1.6,1,2.2,2.2,2.2,3c0,0.7-0.4,1.3-1.1,1.3c-0.2,0-0.5-0.1-0.7-0.2c-0.3-0.5-0.7-1.2-1.3-1.8
	c-1.2,2.2-3.1,4-6.5,5.6l-0.4-0.6c3-1.9,4.5-4.1,5.4-6.6c-0.8-0.7-1.7-1.4-2.8-2l0.3-0.5c1.1,0.2,2.1,0.5,2.9,0.8
	c0.2-1,0.3-1.9,0.4-3h-3.9l-0.2-0.8h4.2c0-1.1,0.1-2.2,0.1-3.4h-0.5V4.1h-8.2v1.8c0,0.2-0.5,0.5-1.2,0.6c-0.2,0.2-0.5,0.3-1.1,0.4V8
	h1.7l1.2-1.5l2.4,1.7c-0.2,0.5-0.6,0.7-1.5,0.7H169V11h2.9l1.2-1.6l2.5,1.7c-0.3,0.5-0.6,0.7-1.5,0.7h-3v1.1c0,0.4,0.1,0.6,0.4,0.6
	h1.5c0.5,0,0.8-0.1,1.3-0.5h0.2l0.2,0.5c0.8,0.4,0.8,0.4,0.8,0.8c0,0.9-0.7,1.1-2.2,1.1h-1.1l2.3,1.6c-0.3,0.5-0.6,0.7-1.5,0.7H169
	v1.9c2-0.1,4.2-0.2,6.4-0.4l0,0.6c-2.9,0.6-7,1.4-12.7,2.3c-0.2,0.4-0.5,0.6-0.8,0.8l-1.4-2.9c1.3,0,3.5-0.1,6-0.2v-2.1h-4.5
	l-0.2-0.8h4.7v-2.4l2.8,0.2c-0.3-0.5-0.3-1.2-0.3-2.9h-2.6l0.8,0.2c-0.1,0.4-0.5,0.6-1.2,0.5c-0.8,1.7-2.5,3-5.6,3.8l-0.4-0.8
	c2.1-0.8,3.3-2.2,3.8-3.8h-3.3l-0.2-0.8h6.2V8.9h-4.8L161.5,8h5V5.8l2.1,0.2L168.6,4.1L168.6,4.1z M188,24.1l3.1,2.2
	c-0.3,0.5-0.6,0.7-1.6,0.7h-15.7c-1.3,1.3-2.9,2.5-4.2,3.5c3.8,0,8.3-0.1,13.1-0.2c-1.1-0.7-2.4-1.4-3.8-1.9l0.2-0.6
	c7,0.4,9.2,2.9,9.2,4.5c0,0.8-0.5,1.3-1.2,1.3c-0.2,0-0.5,0-0.7-0.1c-0.5-0.7-1.4-1.5-2.5-2.4c-4.6,0.6-10.8,1.1-19.4,1.9
	c-0.2,0.4-0.5,0.7-0.9,0.8l-1.6-3.2c1.4,0,3.4,0,5.9,0c0.8-1,1.7-2.4,2.3-3.5h-9.9l-0.2-0.8h26.4L188,24.1L188,24.1z M182,22.9
	l1.6-2l3,2.1c-0.3,0.5-0.6,0.7-1.6,0.7h-20.1l-0.2-0.8L182,22.9L182,22.9z M172,15.5c-1.2,0-1.7,0-2.1-0.2c-0.2,0.1-0.4,0.2-0.8,0.3
	v1.4h1.8L172,15.5L172,15.5z"/>
<path class="st0" d="M215.3,24.4c1.6-0.4,3.3-0.8,5.1-1.2l0.1,0.5c-2.2,1.1-5.4,2.8-9.7,4.8c-0.1,0.5-0.4,0.8-0.8,0.9l-1.4-3.6
	c0.9-0.1,2.4-0.4,4.1-0.8V14.9h-3.5l-0.2-0.8h3.7V4.7h-3.8l-0.2-0.8h7.2l1.5-2.3l3,2.4c-0.3,0.5-0.7,0.7-1.6,0.7h-3.5v9.4h0.8
	l1.4-2.2l2.6,2.3c-0.2,0.5-0.6,0.7-1.5,0.7h-3.2L215.3,24.4L215.3,24.4z M237.2,25.6l3,2.3c-0.3,0.5-0.7,0.7-1.6,0.7h-6.5v4.2
	c0,0.1-0.4,0.9-2.7,0.9v-5.1h-10.8l-0.2-0.8h3.9v-6.7l3,1.3h4.1v-3l3.9,0.3c-0.1,0.5-0.3,0.7-1.3,0.9v1.8h2.2l1.5-2.1l2.9,2.2
	c-0.3,0.5-0.7,0.7-1.6,0.7h-5v4.6h3.5L237.2,25.6L237.2,25.6z M222.1,4.7l-0.2-0.8h4.2c0.2-1.3,0.3-2.5,0.4-3.6l3.7,0.5
	c-0.1,0.5-0.4,0.8-1.2,0.9c-0.1,0.7-0.2,1.5-0.3,2.3h4.4l1.1-1.5l3.1,2.3c-0.2,0.2-0.7,0.6-1.4,0.7v3.7h0.3l1.4-2.2l2.6,2.3
	c-0.3,0.5-0.7,0.7-1.6,0.7h-18.7l-0.2-0.8h5.7c0.2-1.2,0.4-2.8,0.6-4.4L222.1,4.7L222.1,4.7z M236.8,18.6c0,0.2-1.3,0.8-2.2,0.8
	h-0.4v-1h-9.7v0.7c0,0.1-0.5,0.9-2.5,0.9v-8.5l2.7,1.2h9.2l1.1-1.6l3.2,2.4c-0.2,0.3-0.8,0.6-1.4,0.7V18.6L236.8,18.6z M224.4,17.6
	h9.7v-4.1h-9.7V17.6z M224.9,27.9h4.5v-4.6h-4.5V27.9z M233.3,4.7h-4.8c-0.2,1.6-0.5,3.2-0.7,4.4h5.6V4.7z"/>
<path class="st0" d="M255.2,14.4v11.1c1.2-0.4,2.4-0.9,3.7-1.4l0.2,0.4c-1.3,1.1-3.3,2.8-5.9,4.9c-0.1,0.4-0.4,0.8-0.7,0.9L251,27
	c0.4-0.1,1.1-0.4,1.8-0.7V14.4h-2.3c-0.2,7-0.6,14.2-4.8,19.3l-0.5-0.5c2.9-5.5,2.9-12.4,2.9-18.8h-2.7l-0.2-0.8h5.3V0.2l3.8,0.4
	c0,0.5-0.4,0.7-1.3,0.9v12.1h1.8l1.5-1.9l2.8,2.1c-0.2,0.5-0.6,0.7-1.5,0.7H255.2z M246.1,2.9c2.4,2.4,3.2,4.7,3.2,6.3
	c0,1.4-0.7,2.4-1.4,2.4c-0.3,0-0.7-0.2-1-0.6c0-0.3,0-0.6,0-0.9c0-2.3-0.6-5.2-1.4-7.1L246.1,2.9L246.1,2.9z M258.6,3.8
	c-0.1,0.3-0.3,0.5-0.9,0.5c-0.7,1.8-2.2,5.1-3.6,7.4l-0.4-0.2c0.6-2.7,1.3-6.9,1.6-8.9L258.6,3.8L258.6,3.8z M273.4,28.2l3.1,2.3
	c-0.3,0.5-0.7,0.7-1.6,0.7h-12.2V33c0,0.2-0.8,0.7-2.1,0.7h-0.4V20.3c-1.1,1.2-2.2,2.2-3.3,3l-0.5-0.4c1.9-2.2,4-6.2,5.4-10.3
	l3.4,1.6c-0.2,0.4-0.5,0.6-1.3,0.5c-0.5,0.9-0.9,1.7-1.5,2.6l0.6,0.2h3.1c0.3-1.4,0.6-3.2,0.7-4.5l3.8,0.8c-0.1,0.4-0.4,0.6-1.2,0.6
	c-0.5,0.9-1.4,2.1-2.2,3.1h4.2l1.5-2l2.8,2.1c-0.3,0.5-0.7,0.7-1.6,0.7h-5.4v3.3h2.1l1.4-1.9l2.6,2c-0.2,0.5-0.7,0.7-1.5,0.7h-4.6
	v3.5h2.1l1.4-1.9l2.6,2c-0.2,0.5-0.7,0.7-1.5,0.7h-4.6v3.6h3.1L273.4,28.2L273.4,28.2z M263.8,2.9h-5l-0.2-0.8h4.9l1-1.4l2.9,2.2
	c-0.2,0.2-0.7,0.5-1.2,0.7v8.9c0,0.1-0.7,0.8-2.4,0.8v-1.7h-5.1l-0.2-0.8h5.3V7.2H259l-0.2-0.8h5L263.8,2.9L263.8,2.9z M266.3,18.4
	h-3.6v3.3h3.6V18.4z M266.3,25.9v-3.5h-3.6v3.5H266.3z M262.6,26.7v3.6h3.6v-3.6H262.6z M272.6,3h-4.9l-0.2-0.8h4.9l1.1-1.5l3,2.3
	c-0.2,0.2-0.6,0.5-1.2,0.6v9.1c0,0.1-0.8,0.8-2.5,0.8v-1.9h-5l-0.2-0.8h5.2V7.2h-4.7l-0.2-0.8h4.9L272.6,3L272.6,3z"/>
<path class="st0" d="M290,12.2l2.7,2.5c-0.2,0.3-0.5,0.4-1.2,0.5c-0.5,3.8-1.2,7.6-2.9,10.9c3.6,3.4,8.8,4,16.3,4
	c1.8,0,5.8,0,7.8-0.1v0.5c-1.1,0.2-1.6,1.2-1.7,2.3h-6.3c-8,0-13.3-1-16.9-5.4c-1.4,2.4-3.4,4.5-6.1,6.2l-0.2-0.6
	c2.4-2,4-4.5,5.1-7.3c-1.2-1.9-2.1-4.2-3-7.1l0.5-0.2c0.8,2.5,1.8,4.5,2.9,6c1-3,1.5-6.4,1.8-9.8h-3.2l-0.9,2.1
	c-0.2,0.1-0.5,0.1-0.8,0.1c-0.5,0-1-0.1-1.7-0.4c1.8-3.9,3.8-9,5-12.4h-5.4l-0.2-0.8h5.5l1.3-1.6l2.8,2.6c-0.2,0.3-0.8,0.5-1.6,0.6
	c-0.8,2.2-2.3,5.8-3.8,9h2.5L290,12.2L290,12.2z M310.7,6.7l2.6,2.3c-0.3,0.5-0.6,0.7-1.5,0.7h-2.9v5.4c0,0.1-0.8,0.8-2.5,0.8v-1.4
	h-4.4v4h4l1.6-2.2l2.9,2.3c-0.3,0.5-0.7,0.7-1.5,0.7h-7v4.1h5.3l1.7-2.4l3.2,2.5c-0.2,0.5-0.7,0.7-1.6,0.7h-8.7v4
	c0,0.1-0.3,0.9-2.6,0.9v-5h-8.2l-0.2-0.8h8.4v-4.1h-6.7l-0.2-0.8h6.9v-4h-6.1l-0.2-0.8h6.3v-4h-8.7l-0.2-0.8h8.9V5h-6l-0.2-0.8h6.2
	V0.1l4,0.4c-0.1,0.5-0.4,0.8-1.4,0.9v2.8h4.1l1.1-1.6l3.2,2.4c-0.2,0.3-0.7,0.6-1.4,0.7v3.2h0.4L310.7,6.7L310.7,6.7z M301.9,5v3.9
	h4.4V5H301.9z M306.4,13.7v-4h-4.4v4H306.4z"/>
<path class="st0" d="M349.3,23.3c-0.3,0.5-0.7,0.7-1.6,0.7h-11.9c3.2,3,8.9,5.3,13.8,6.2l0,0.4c-1.1,0.2-1.9,1.2-2.3,2.6
	c-4.9-1.7-9.6-4.9-12.4-9.1v8.7c0,0.1-0.4,0.9-2.7,0.9v-8.4c-3.5,3.6-8.5,6.3-14.2,8.1l-0.3-0.6c4.7-2.1,9-5.3,11.8-8.7h-11.2
	l-0.2-0.8h14.1v-3.9c-1.2,0.9-2.9,1.7-5.1,2.3l-0.3-0.5c5-2.2,5.9-5,5.9-8V8.4l3,1.3h5.6l1.1-1.5l2.9,2.4c-0.2,0.2-0.6,0.4-1.1,0.5
	v5.8c0,0.5,0,0.6,0.4,0.6h1.9c0.3,0,0.4,0,0.6-0.3c0.3-0.5,0.7-2,1-3.1h0.3l0,3.3c0.8,0.3,0.9,0.5,0.9,1c0,0.9-0.7,1.6-2.7,1.6h-2.3
	c-2.4,0-2.6-0.7-2.6-3.2v-6.2h-6.3v2.6c0,2-0.4,4.2-2.8,6.1l3.8,0.3c0,0.5-0.3,0.7-1.3,0.9v2.8h9.5l1.7-2.2L349.3,23.3L349.3,23.3z
	 M326.2,4.5c1.7,0.8,2.2,1.9,2.2,2.7c0,0.9-0.6,1.5-1.3,1.5c-0.4,0-0.7-0.2-1-0.6c-0.1-1.2-0.7-2.6-1.4-3.6h-1.6
	c-1.3,2.1-2.9,3.7-4.5,4.8l-0.5-0.4c1.5-1.9,3.1-5.3,4-8.8l3.6,1.4c-0.1,0.4-0.4,0.6-1.2,0.5c-0.3,0.5-0.6,1.1-0.9,1.6h5.8l1.4-2.1
	l2.8,2.2c-0.3,0.5-0.7,0.7-1.5,0.7L326.2,4.5L326.2,4.5z M331.4,16.5c-2.4,1-5.9,2.3-10.7,3.9c-0.1,0.4-0.4,0.7-0.8,0.8l-1.5-3.2
	c1.1-0.1,2.8-0.4,4.9-0.7v-6.1h-4.5l-0.2-0.8h8.3l1.4-1.9l2.8,2.1c-0.2,0.5-0.6,0.7-1.5,0.7h-3.7v5.6l5.4-0.9L331.4,16.5L331.4,16.5
	z M336.2,4.5c-1.5,1.8-3.3,3.4-5,4.3l-0.4-0.5c1.7-1.7,3.5-4.9,4.8-8.3l3.5,1.8c-0.2,0.4-0.5,0.6-1.3,0.5c-0.3,0.5-0.6,0.9-0.9,1.3
	h7.7l1.6-2.2l3.1,2.3c-0.3,0.5-0.7,0.7-1.6,0.7h-7.3c1.7,0.8,2.3,1.8,2.3,2.6c0,0.9-0.6,1.6-1.4,1.6c-0.4,0-0.8-0.1-1.1-0.5
	c-0.1-1.2-0.9-2.7-1.7-3.7H336.2L336.2,4.5z M335.9,12.5c3.6,0.6,4.7,2.2,4.7,3.4c0,0.8-0.5,1.4-1.2,1.4c-0.3,0-0.6-0.1-0.9-0.4
	c-0.3-1.4-1.6-3.1-2.8-4L335.9,12.5z"/>
</svg>
