<?xml version="1.0" encoding="utf-8"?>
<!-- Generator: Adobe Illustrator 27.0.0, SVG Export Plug-In . SVG Version: 6.00 Build 0)  -->
<svg version="1.1" id="圖層_1" xmlns="http://www.w3.org/2000/svg" xmlns:xlink="http://www.w3.org/1999/xlink" x="0px" y="0px"
	 viewBox="0 0 400 70" style="enable-background:new 0 0 400 70;" xml:space="preserve">
<style type="text/css">
	.st0{fill:#C9A063;}
	.st1{fill:#C79F62;}
</style>
<path class="st0" d="M63.7,14.3c0.6-1.8,1-3.7,1.2-5.7h-1.6c-0.3,0.5-0.4,0.8-0.6,1.1c-0.1,0.3-0.3,0.4-0.7,0.4c-0.7,0-1-0.2-1-0.5
	c1.3-2.4,2.5-4.7,3.4-6.8h-2.7c-0.2,0-0.5,0.1-0.8,0.1c-0.1-0.3-0.2-0.5-0.3-0.8c0.4,0.1,0.7,0.1,1,0.1h2.7c0.7-0.7,1-1,1.1-1
	c0.2,0,0.5,0.2,0.9,0.7C66.8,2.4,67,2.7,67,2.8s-0.2,0.3-0.7,0.5c-0.2,0.1-0.4,0.1-0.4,0.2c-1,2-1.8,3.5-2.4,4.6h1.2
	c0.5-0.6,0.9-0.9,1.1-0.9c0.1,0,0.5,0.2,0.9,0.7c0.5,0.4,0.7,0.7,0.7,0.9c0,0.1-0.1,0.2-0.3,0.3c-0.4,0.2-0.7,0.3-0.8,0.5
	c-0.4,2.5-1,4.5-1.7,6.1c0.2,0.2,0.4,0.3,0.6,0.4c1.5,1.1,4.6,1.7,9.3,1.7c1.8,0,3.4-0.1,4.8-0.3v0.4c-0.3,0.1-0.6,0.2-0.9,0.5
	c-0.1,0.1-0.2,0.4-0.3,0.7c0,0.3-0.2,0.5-0.5,0.5c-0.8,0-1.8,0-3.2,0c-4.4-0.1-7.5-0.8-9.4-2.1c-0.4-0.2-0.7-0.5-1-0.8
	c-1,1.6-2.2,2.7-3.6,3.3c0-0.1,0-0.2-0.1-0.3c1.3-1.2,2.2-2.6,2.8-4.1c-0.8-1.1-1.3-2.6-1.7-4.4l0.3-0.1
	C62.5,12.3,63.1,13.4,63.7,14.3z M77.2,2.3C77.7,2.7,78,3,78,3.2c0,0.1-0.1,0.2-0.3,0.3c-0.1,0.1-0.4,0.2-0.6,0.4v1.4h0.2
	c0.5-0.8,0.8-1.3,1-1.3c0.1,0,0.3,0.2,0.7,0.7c0.3,0.4,0.5,0.7,0.6,0.9c0,0.2-0.1,0.3-0.3,0.3H77v1c0.1,0.7,0.1,1.3,0.1,1.8
	c0,0.4-0.4,0.6-1.3,0.6c-0.4,0-0.6-0.1-0.6-0.4V8.7H73v2.1h2.2c0.3-0.4,0.6-0.8,0.9-1.1c0.1-0.1,0.2-0.2,0.2-0.2
	c0.1,0,0.2,0.1,0.4,0.2c0.7,0.7,1.2,1.1,1.2,1.3s-0.1,0.3-0.1,0.3H73v0.3c0,0.7,0,1.4,0,1.9h2.9c0.3-0.5,0.6-0.9,1-1.2
	c0.1-0.1,0.2-0.2,0.2-0.2c0.1,0,0.2,0.1,0.4,0.2c0.8,0.7,1.2,1.2,1.3,1.4c0,0.2-0.1,0.3-0.2,0.3H73c0,1,0,1.7,0,2.2
	c0,0.4-0.4,0.5-1.3,0.5c-0.4,0-0.7-0.1-0.7-0.4c0-0.5,0-1.3,0-2.4h-2c-0.9,0-1.6,0.1-2,0.2c-0.1-0.3-0.2-0.5-0.3-0.8
	c0.4,0.1,1.2,0.1,2.3,0.1h2.2c0-0.6,0-1.2,0-2v-0.3h-1.5c-0.9,0-1.6,0.1-2,0.2c-0.1-0.3-0.2-0.5-0.3-0.8c0.5,0.1,1.2,0.1,2.3,0.1
	h1.5V8.5c-1.3,0-2.3,0.1-3.1,0.2c-0.2-0.3-0.3-0.7-0.4-0.9c0.4,0.1,1.6,0.1,3.4,0.1V5.7H70c-2,0-3,0.1-3,0.2
	c-0.1-0.3-0.3-0.6-0.4-1.1C66.9,4.9,68,5,69.9,5.1h1.3v-2H71c-1.4,0-2.5,0.1-3.1,0.2c-0.1-0.3-0.2-0.5-0.3-0.8
	c0.5,0.1,1.7,0.1,3.6,0.1h0.1V2.3c0-0.6-0.1-1.3-0.2-1.9c0.7,0.1,1.4,0.2,2.1,0.3C73.7,0.8,74,0.9,74,1.1c0,0.1-0.1,0.2-0.4,0.3
	c-0.4,0.1-0.5,0.2-0.5,0.3v0.9h2c0.6-0.7,1-1.1,1.2-1.1C76.3,1.7,76.7,1.9,77.2,2.3z M73,5.3h2.2v-2H73V5.3z M73,8.1
	c0.1,0,0.2,0,0.3,0h1.9V5.9H73V8.1z"/>
<path class="st0" d="M99,12.2c0.9,0.8,1.3,1.2,1.3,1.4s-0.1,0.3-0.2,0.3H93c1,0.9,2,1.6,3.2,2c1.2,0.5,2.6,0.7,4.2,0.8
	c0,0.2,0,0.3-0.1,0.4c-0.1,0-0.3,0.2-0.5,0.4c-0.1,0.1-0.3,0.4-0.4,0.8c-0.1,0.3-0.2,0.4-0.4,0.4c-0.7,0-1.8-0.5-3.4-1.4
	c-1.4-0.8-2.4-1.9-3.1-3.3h-0.3l0.1,5.1c0,0.4-0.4,0.6-1.2,0.7c-0.6,0-0.9-0.2-0.9-0.5c0-1.6,0-3.1,0-4.5c-1.5,1.7-4.3,3-8.5,4
	c-0.1,0-0.2-0.1-0.3-0.3c3.4-1.2,5.6-2.6,6.7-4c0.2-0.2,0.3-0.4,0.4-0.5h-1.6c-2.4,0-4,0.1-4.6,0.3c-0.1-0.4-0.3-0.7-0.5-1.1
	c1,0.1,2.8,0.2,5.2,0.2h3.1v-0.2c0-0.7-0.1-1.2-0.1-1.6c-0.6,0.2-1.3,0.4-2,0.5c0,0-0.1-0.1-0.2-0.3c1.7-0.6,2.9-1.5,3.7-2.7
	c-0.6-0.4-1.1-0.7-1.7-0.9c0,0,0.1-0.1,0.1-0.3c0.7,0.1,1.4,0.2,1.9,0.4c0.2-0.5,0.3-1,0.3-1.4c-0.8,0-1.4,0.1-1.7,0.2
	c-0.1-0.3-0.3-0.7-0.4-1c0.3,0.1,1,0.2,2,0.2h3.6C95.8,6,96,5.8,96.2,5.6c-0.4,0-0.6-0.2-0.7-0.7c0-0.1-0.1-0.3-0.1-0.5
	s-0.1-0.3-0.1-0.5c-0.1-0.2-0.2-0.4-0.3-0.5h-1.6c-0.2,0.2-0.4,0.4-0.5,0.5c-0.7,0.6-1.4,1.2-2.2,1.6c0,0-0.1-0.1-0.2-0.2
	c1.3-1.6,2.2-3.1,2.5-4.6c1.8,0.5,2.7,0.9,2.7,1.1s-0.4,0.3-1.2,0.4c-0.1,0.2-0.3,0.4-0.4,0.6h3.7c0.5-0.8,0.9-1.2,1.1-1.3H99
	c0.1,0.1,0.4,0.3,0.8,0.6c0.5,0.5,0.8,0.8,0.9,1c0,0.2-0.1,0.3-0.1,0.3h-4.4c0.8,0.3,1.2,0.7,1.2,1.3c0,0.3-0.1,0.6-0.3,0.7
	c0.3,0.1,0.6,0.4,1,0.6c0.5,0.4,0.7,0.7,0.7,0.8c0,0.2-0.3,0.5-0.9,0.8v1.9c0,0.5,0.2,0.7,0.6,0.8c0,0,0,0,0.1,0
	c0.5,0,0.7-0.1,0.8-0.3c0.2-0.3,0.4-0.9,0.5-1.7c0,0,0.1,0.1,0.4,0.1c0,0.3,0,0.7,0,1.2c0,0.2,0.1,0.4,0.3,0.5
	c0.3,0.1,0.5,0.4,0.5,0.6c0,0.3-0.1,0.4-0.1,0.5c-0.2,0.4-0.6,0.6-1.2,0.7C99.5,12,99.3,12,99,12s-0.5,0-0.7,0
	c-1.2,0-1.8-0.6-1.9-1.9V7h-1.9c-0.1,0.9-0.3,1.5-0.5,1.8v0.1c1.1,0.5,1.7,1,1.7,1.7c0,0.2,0,0.3-0.1,0.5c-0.1,0.3-0.3,0.4-0.6,0.4
	s-0.7-0.3-1.2-0.9c-0.2-0.2-0.4-0.4-0.6-0.5c-0.6,0.7-1.4,1.2-2.4,1.5c2,0.3,3,0.6,3,0.8c0,0.1-0.1,0.3-0.4,0.4
	c-0.4,0.2-0.7,0.3-0.7,0.4v0.3h4.8C98.1,12.7,98.6,12.2,99,12.2C98.9,12.1,99,12.1,99,12.2C98.6,11.9,98.8,12.1,99,12.2z M85.3,3.2
	c-1,1.3-2.2,2.2-3.5,2.9c-0.1-0.1-0.2-0.2-0.4-0.2c1.4-1.4,2.5-3.2,3.1-5.5c1.8,0.6,2.7,0.9,2.7,1.1c0,0.3-0.4,0.4-1,0.5
	c-0.1,0.2-0.3,0.4-0.4,0.6h2.7c0.5-0.8,0.9-1.2,1.1-1.3h0.1c0.2,0.1,0.4,0.3,0.8,0.6c0.5,0.5,0.8,0.8,0.9,1c0,0.2-0.1,0.3-0.1,0.3
	h-4.6c1,0.3,1.6,0.9,1.6,1.6c0,0.6-0.3,0.9-0.9,0.9c-0.4,0-0.6-0.2-0.7-0.7c0-0.1-0.1-0.3-0.1-0.6c0-0.2-0.1-0.4-0.1-0.6
	c-0.1-0.3-0.3-0.5-0.4-0.7L85.3,3.2C85.3,3.1,85.3,3.2,85.3,3.2z M84.6,7.1c-0.9,0-1.6,0.1-2,0.2c-0.1-0.3-0.2-0.5-0.3-0.8
	c0.4,0.1,1.2,0.1,2.3,0.1h2.9c0.3-0.4,0.5-0.7,0.8-1c0.1-0.1,0.2-0.1,0.2-0.1c0.1,0,0.2,0.1,0.4,0.2c0.7,0.6,1.1,1,1.2,1.2
	c0,0.2-0.1,0.3-0.1,0.3h-3v2.7c1.1-0.1,2.1-0.2,2.9-0.4L90,9.6c-1.6,0.8-3.8,1.6-6.7,2.1c0,0.4-0.1,0.5-0.2,0.5s-0.2-0.2-0.4-0.5
	s-0.4-0.9-0.7-1.6c1.2,0,2.3-0.1,3.3-0.2V7.1H84.6z"/>
<path class="st0" d="M102.8,19.5c0-0.1-0.1-0.2-0.3-0.2c2.3-1.5,4.3-3.7,6-6.7c1.4-2.1,2.2-5.5,2.3-10.2l-0.1-0.9
	c0-0.2-0.1-0.4-0.2-0.5c2.5,0.3,3.8,0.7,3.8,1c0,0.2-0.2,0.4-0.6,0.4c-0.3,0.1-0.5,0.3-0.5,0.5v0.4c0,0.5-0.1,0.9-0.1,1.3
	c0.4,3.2,1.5,6,3.4,8.5c1.5,2,3.1,3.3,5,4c0,0.2,0,0.4-0.1,0.5c-0.4,0-0.6,0.1-0.6,0.2c-0.3,0.1-0.5,0.3-0.8,0.7
	c-0.3,0.5-0.5,0.8-0.7,0.8c-0.6,0-1.7-1.2-3.3-3.4c-1.7-2.4-2.8-5.5-3.2-9.2C111.5,13,108.2,17.3,102.8,19.5z"/>
<path class="st0" d="M135.2,1.3c0,0.2-0.1,0.3-0.4,0.4c-0.4,0.2-0.7,0.4-0.7,0.5v6.5h4.2c0-1.4,0-3,0-4.8c-0.1-0.5-0.1-0.9-0.1-1.3
	c1.8,0.2,2.8,0.5,3,0.8c0,0.2-0.1,0.4-0.4,0.4c-0.4,0.2-0.6,0.3-0.6,0.4v5.6c0,0.4-0.4,0.6-1.2,0.6c-0.5,0-0.8-0.1-0.8-0.4
	c0-0.3,0-0.6,0-0.9H134v8.3h4.7c0-1.6,0-3.2,0-5c-0.1-0.5-0.1-0.9-0.1-1.3c1.8,0.2,2.8,0.5,3,0.8c0,0.2-0.1,0.4-0.4,0.4
	c-0.4,0.2-0.6,0.3-0.6,0.4V19c0,0.4-0.4,0.6-1.3,0.7c-0.5,0-0.7-0.1-0.7-0.4c0-0.4,0-0.8,0-1.3H127v1c0,0.4-0.4,0.6-1.2,0.6
	c-0.5,0-0.8-0.1-0.8-0.4c0-2,0.1-4.3,0.1-6.9c-0.1-0.5-0.1-0.9-0.1-1.3c1.8,0.2,2.8,0.5,3,0.8c0,0.2-0.1,0.4-0.4,0.4
	c-0.4,0.2-0.6,0.3-0.6,0.4v4.8h5V9.1h-4.2v0.6c0,0.4-0.4,0.6-1.2,0.6c-0.5,0-0.7-0.1-0.7-0.4c0-1.8,0.1-3.9,0.1-6.3
	c-0.1-0.5-0.1-0.9-0.1-1.3c1.8,0.2,2.8,0.5,3,0.8c0,0.2-0.1,0.4-0.4,0.4c-0.4,0.2-0.6,0.3-0.6,0.4v4.5h4.2V2.7c0-1,0-1.8-0.1-2.4
	C134.1,0.8,135.2,1.1,135.2,1.3z"/>
<path class="st0" d="M156.1,1.5c0,0.1-0.2,0.2-0.5,0.3c-0.3,0-0.5,0.1-0.7,0.1c-0.4,0.6-0.9,1.1-1.4,1.5h3.8c0.4-0.6,0.8-1,1-1.2
	c0.2,0,0.5,0.2,1.1,0.5c0.6,0.4,0.9,0.7,0.9,0.9c0,0.1-0.1,0.3-0.4,0.4c-0.3,0.2-0.4,0.3-0.5,0.4v5c0.7-0.9,1.2-1.8,1.6-2.9
	c1.7,1,2.5,1.6,2.5,1.7c0,0.2-0.1,0.3-0.3,0.3s-0.5,0-1-0.1c-0.9,1.3-1.8,2.5-2.9,3.5v5c0,1.4-0.8,2.2-2.4,2.5
	c-0.2,0-0.3-0.1-0.4-0.4c-0.2-0.5-0.5-1-1.1-1.2c-0.7-0.3-1.2-0.5-1.5-0.5c0,0,0-0.1,0-0.4c0.8,0.1,1.7,0.1,3,0.1
	c0.3,0,0.5-0.2,0.5-0.5v-3c-3.4,2.5-7.7,4.1-12.8,4.8c0-0.1,0-0.2-0.1-0.3c5.6-1.6,9.8-3.7,12.7-6.4c-2.5,0.9-6,1.7-10.3,2.2
	c0,0.7-0.2,1.1-0.4,1.1c-0.1,0-0.4-0.5-0.8-1.5c-0.3-0.6-0.4-1-0.5-1.4c1.1,0,2.2,0,3.2-0.1V4c0-0.4-0.1-1-0.1-1.8
	c0.7,0.4,1.4,0.7,2,0.9h2.4c0.2-0.9,0.3-1.8,0.3-2.8C155.2,1,156.1,1.3,156.1,1.5z M157.6,4h-7.1v2h7.1V4z M157.6,6.6h-7.1v2.2h7.1
	V6.6z M157.6,11.3v-2h-7.1v2.8C153,11.9,155.3,11.7,157.6,11.3z"/>
<path class="st0" d="M183,0.8c0.9,0.8,1.3,1.2,1.3,1.4s-0.1,0.3-0.2,0.3h-8.2v2.8h3.6c0.6-0.6,1-1,1.2-1c0.2,0.1,0.5,0.2,0.9,0.5
	c0.6,0.4,0.9,0.7,0.9,0.9c0,0.2-0.1,0.3-0.3,0.4c-0.2,0.1-0.3,0.2-0.5,0.4V13h0.3c0.6-0.9,1-1.4,1.2-1.4c0.1,0,0.4,0.3,0.8,0.7
	c0.4,0.5,0.7,0.8,0.7,0.9c0,0.2-0.1,0.3-0.2,0.3h-2.7V17c0,1.3-0.7,2.1-2.1,2.4c-0.3-0.1-0.4-0.2-0.4-0.4c-0.1-0.5-0.3-0.8-0.6-1
	c-0.3-0.2-0.8-0.4-1.4-0.7c0-0.1,0-0.2,0-0.3c0.8,0.1,1.4,0.2,1.9,0.2s0.7-0.1,0.7-0.4v-3.2h-9.5V19c-0.1,0.4-0.5,0.6-1.2,0.6
	c-0.4,0-0.7-0.1-0.8-0.2c0-2,0-3.9,0-5.8c-1.7,0-2.5,0.1-2.5,0.2c-0.1-0.3-0.3-0.6-0.4-1.1c0.3,0.1,1.3,0.2,3,0.3c0-0.2,0-0.3,0-0.5
	V8c0-2-0.1-3.1-0.1-3.5l2,0.8h3.7V2.5h-3.2c-2.4,0-4,0.1-4.6,0.3c-0.1-0.4-0.3-0.7-0.5-1.1c1,0.1,2.8,0.2,5.2,0.2h10
	c0.6-0.8,1.1-1.3,1.4-1.4c0,0,0.1,0,0.2,0C182.6,0.6,182.8,0.7,183,0.8z M170.3,5.9v3.2h3.7V5.9H170.3z M174,13.1V9.7h-3.7v3.4H174z
	 M179.7,5.9h-3.9v3.2h3.9V5.9z M179.7,13.1V9.7h-3.9v3.4H179.7z"/>
<path class="st0" d="M196.5,0.8c0.9,0.8,1.4,1.3,1.6,1.6c0,0.2-0.1,0.3-0.2,0.3h-4.7c-0.7,1.7-1.7,3.1-2.9,4.4
	c2.3,0,4.1-0.1,5.4-0.1c-0.4-0.7-1-1.3-1.6-1.9c0-0.1,0.1-0.2,0.1-0.3c2.4,0.8,3.7,1.8,3.7,2.9c0,0.5-0.1,0.9-0.3,1.1
	s-0.4,0.3-0.6,0.3c-0.3,0-0.6-0.4-0.9-1.3c0-0.1-0.1-0.2-0.1-0.3c-0.8,0.2-1.7,0.5-2.8,0.7v3.7h1.5c0.3-0.5,0.7-0.9,1-1.3
	c0.1-0.1,0.2-0.2,0.3-0.2s0.2,0.1,0.4,0.2c0.9,0.8,1.3,1.2,1.4,1.5c0,0.2-0.1,0.3-0.2,0.3h-4.5v3.9c2-0.2,3.6-0.4,4.8-0.7
	c0.1,0.1,0.1,0.3,0.2,0.4c-1.9,0.9-5.1,1.8-9.7,2.7c-0.1,0.7-0.3,1-0.4,1c-0.1,0-0.3-0.3-0.5-1c-0.2-0.6-0.5-1.4-0.7-2.3
	c0.5,0.1,1.2,0.1,2.2,0.1c0.8,0,1.6-0.1,2.3-0.1v-4.1h-1.5c-0.9,0-1.5,0.1-2,0.2c-0.1-0.3-0.2-0.5-0.3-0.8c0.4,0.1,1.2,0.1,2.3,0.1
	h1.5V8.4c-0.9,0.2-1.9,0.3-2.9,0.5c-0.1,0.6-0.3,0.9-0.4,0.9s-0.3-0.3-0.5-0.8s-0.4-1.2-0.6-2c0.4,0.1,1,0.1,1.9,0.1h0.7
	c0.7-1.3,1.1-2.8,1.4-4.4h-1.8c-0.9,0-1.5,0.1-2,0.2c-0.1-0.3-0.2-0.5-0.3-0.8c0.4,0.1,1.2,0.1,2.3,0.1h5.6c0.4-0.5,0.7-1,1.1-1.4
	c0.1-0.1,0.2-0.2,0.3-0.2C196.2,0.6,196.3,0.7,196.5,0.8z M200.6,2.9c0.5,0.1,0.8,0.3,0.8,0.4c0,0.1-0.1,0.2-0.4,0.3
	c-0.4,0.1-0.6,0.2-0.6,0.3v6.6c0,2.2,0.1,3.8,0.1,4.7c0,0.3-0.4,0.5-1.3,0.5c-0.4,0-0.7-0.1-0.7-0.4c0-0.8,0-2.4,0.1-4.9V4.5
	c0-0.6-0.1-1.3-0.2-1.9C199.2,2.7,199.9,2.8,200.6,2.9z M205.4,1.3c0,0.1-0.1,0.2-0.2,0.2c-0.2,0.1-0.3,0.1-0.5,0.3
	c-0.2,0.1-0.3,0.2-0.3,0.3v14.8c0,1.8-0.7,2.6-2.2,2.6c-0.3,0-0.4-0.1-0.4-0.4c-0.1-0.4-0.4-0.7-0.8-1c-0.3-0.2-0.8-0.4-1.5-0.5
	c0-0.1,0-0.2,0-0.3c0.4,0,1.3,0,2.6,0c0.2,0,0.4-0.2,0.4-0.6V3.1c0-1.2-0.1-2.1-0.2-2.7C204.2,0.8,205.3,1.1,205.4,1.3z"/>
<path class="st0" d="M210.7,14.3c0.6-1.8,1-3.7,1.2-5.7h-1.6c-0.3,0.5-0.4,0.8-0.6,1.1c-0.1,0.3-0.3,0.4-0.7,0.4c-0.7,0-1-0.2-1-0.5
	c1.3-2.4,2.5-4.7,3.4-6.8h-2.7c-0.2,0-0.5,0.1-0.8,0.1c-0.1-0.3-0.2-0.5-0.3-0.8c0.4,0.1,0.7,0.1,1,0.1h2.7c0.7-0.7,1-1,1.1-1
	c0.2,0,0.5,0.2,0.9,0.7c0.5,0.5,0.7,0.8,0.7,0.9c0,0.1-0.2,0.3-0.7,0.5c-0.2,0.1-0.4,0.1-0.4,0.2c-1,2-1.8,3.5-2.4,4.6h1.2
	c0.5-0.6,0.9-0.9,1.1-0.9c0.1,0,0.5,0.2,0.9,0.7c0.5,0.4,0.7,0.7,0.7,0.9c0,0.1-0.1,0.2-0.3,0.3c-0.4,0.2-0.7,0.3-0.8,0.5
	c-0.4,2.5-1,4.5-1.7,6.1c0.2,0.2,0.4,0.3,0.6,0.4c1.5,1.1,4.6,1.7,9.3,1.7c1.8,0,3.4-0.1,4.8-0.3v0.4c-0.3,0.1-0.6,0.2-0.9,0.5
	c-0.1,0.1-0.2,0.4-0.3,0.7c0,0.3-0.2,0.5-0.5,0.5c-0.8,0-1.8,0-3.2,0c-4.4-0.1-7.5-0.8-9.4-2.1c-0.4-0.2-0.7-0.5-1-0.8
	c-1,1.6-2.2,2.7-3.6,3.3c0-0.1,0-0.2-0.1-0.3c1.3-1.2,2.2-2.6,2.8-4.1c-0.8-1.1-1.3-2.6-1.7-4.4l0.3-0.1
	C209.5,12.3,210.1,13.4,210.7,14.3z M224.2,2.3c0.5,0.4,0.8,0.7,0.8,0.9c0,0.1-0.1,0.2-0.3,0.3c-0.1,0.1-0.4,0.2-0.6,0.4v1.4h0.2
	c0.5-0.8,0.8-1.3,1-1.3c0.1,0,0.3,0.2,0.7,0.7c0.3,0.4,0.5,0.7,0.6,0.9c0,0.2-0.1,0.3-0.3,0.3H224v1c0.1,0.7,0.1,1.3,0.1,1.8
	c0,0.4-0.4,0.6-1.3,0.6c-0.4,0-0.6-0.1-0.6-0.4V8.7H220v2.1h2.2c0.3-0.4,0.6-0.8,0.9-1.1c0.1-0.1,0.2-0.2,0.2-0.2
	c0.1,0,0.2,0.1,0.4,0.2c0.7,0.7,1.2,1.1,1.2,1.3s-0.1,0.3-0.1,0.3H220v0.3c0,0.7,0,1.4,0,1.9h2.9c0.3-0.5,0.6-0.9,1-1.2
	c0.1-0.1,0.2-0.2,0.2-0.2c0.1,0,0.2,0.1,0.4,0.2c0.8,0.7,1.2,1.2,1.3,1.4c0,0.2-0.1,0.3-0.2,0.3H220c0,1,0,1.7,0,2.2
	c0,0.4-0.4,0.5-1.3,0.5c-0.4,0-0.7-0.1-0.7-0.4c0-0.5,0-1.3,0-2.4h-2c-0.9,0-1.6,0.1-2,0.2c-0.1-0.3-0.2-0.5-0.3-0.8
	c0.4,0.1,1.2,0.1,2.3,0.1h2.2c0-0.6,0-1.2,0-2v-0.3h-1.5c-0.9,0-1.6,0.1-2,0.2c-0.1-0.3-0.2-0.5-0.3-0.8c0.5,0.1,1.2,0.1,2.3,0.1
	h1.5V8.5c-1.3,0-2.3,0.1-3.1,0.2c-0.2-0.3-0.3-0.7-0.4-0.9c0.4,0.1,1.6,0.1,3.4,0.1V5.7H217c-2,0-3,0.1-3,0.2
	c-0.1-0.3-0.3-0.6-0.4-1.1c0.3,0.1,1.4,0.2,3.3,0.3h1.3v-2H218c-1.4,0-2.5,0.1-3.1,0.2c-0.1-0.3-0.2-0.5-0.3-0.8
	c0.5,0.1,1.7,0.1,3.6,0.1h0.1V2.3c0-0.6-0.1-1.3-0.2-1.9c0.7,0.1,1.4,0.2,2.1,0.3c0.5,0.1,0.8,0.2,0.8,0.4c0,0.1-0.1,0.2-0.4,0.3
	c-0.4,0.1-0.5,0.2-0.5,0.3v0.9h2c0.6-0.7,1-1.1,1.2-1.1C223.3,1.7,223.7,1.9,224.2,2.3z M220,5.3h2.2v-2H220V5.3z M220,8.1
	c0.1,0,0.2,0,0.3,0h1.9V5.9H220V8.1z"/>
<path class="st0" d="M235.6,3.3c0.8,0.7,1.3,1.2,1.4,1.4c0,0.2-0.1,0.3-0.2,0.3h-6.1c-0.9,0-1.6,0.1-2,0.2c-0.1-0.2-0.2-0.5-0.3-0.8
	c0.4,0.1,1.2,0.1,2.3,0.1h3.3c0.3-0.4,0.7-0.8,1-1.2c0.1-0.1,0.2-0.2,0.3-0.2C235.3,3,235.4,3.1,235.6,3.3z M234.8,9.2
	c0.7,0.6,1.1,1,1.2,1.2c0,0.2-0.1,0.3-0.2,0.3h-4.2c-0.9,0-1.6,0.1-2,0.2c-0.1-0.3-0.2-0.5-0.3-0.8c0.4,0.1,1.2,0.1,2.3,0.1h1.8
	c0.3-0.4,0.5-0.7,0.8-1c0.1-0.1,0.1-0.1,0.2-0.1C234.5,9,234.7,9.1,234.8,9.2z M234.8,6.2c0.8,0.7,1.3,1.2,1.3,1.4
	c0,0.2-0.1,0.3-0.1,0.3h-4.3c-0.9,0-1.6,0.1-2,0.2c-0.1-0.3-0.2-0.5-0.3-0.8c0.4,0.1,1.2,0.1,2.3,0.1h1.5c0.3-0.4,0.6-0.8,1-1.2
	c0.1-0.1,0.2-0.2,0.3-0.2S234.6,6,234.8,6.2z M230.9,13.2h2.7c0.5-0.6,0.8-1,1-1s0.5,0.2,1,0.6s0.7,0.6,0.7,0.8
	c0,0.1-0.1,0.2-0.4,0.4c-0.4,0.2-0.6,0.4-0.6,0.4v2.2c0.1,0.9,0.1,1.4,0.1,1.7c0,0.4-0.3,0.7-1,0.7c-0.5,0-0.8-0.1-0.8-0.3V18h-2.4
	v1c-0.1,0.4-0.4,0.6-1,0.6c-0.4,0-0.6-0.1-0.7-0.2c0-1.1,0-2.1,0.1-3.1v-2.1c0-0.9-0.1-1.4-0.1-1.6L230.9,13.2z M232.1,1
	c0.9,0.5,1.3,1,1.3,1.6c0,0.5-0.2,0.8-0.4,1c-0.1,0.1-0.4,0.2-0.7,0.2c-0.4,0-0.7-0.3-0.8-1c-0.2-0.6-0.4-1-0.5-1.3
	s-0.4-0.5-0.7-0.9c0-0.1,0.1-0.1,0.2-0.2C231.2,0.6,231.7,0.8,232.1,1z M233.7,17.5v-3.7h-2.4v3.7H233.7z M236.8,10.9
	c-0.2-0.3-0.3-0.7-0.4-1c0.6,0.2,1.3,0.2,2.2,0.2h4.3c0.6-0.6,1-0.9,1.3-1c0.2,0,0.5,0.2,1,0.7c0.6,0.5,0.9,0.8,0.9,1
	s-0.4,0.4-1,0.7c-0.5,1.7-1.3,3.1-2.4,4.2c1.5,0.9,3.2,1.4,5.1,1.7c0,0.1,0,0.3,0,0.5c-0.2,0-0.4,0.1-0.7,0.2
	c-0.2,0.2-0.4,0.5-0.6,0.9c-0.1,0.3-0.3,0.5-0.4,0.5c-1.1-0.3-2.5-1.1-4.2-2.4c-0.1-0.1-0.2-0.2-0.3-0.3c-1.5,1.2-3.5,2.1-5.8,2.8
	c-0.1-0.1-0.1-0.2-0.2-0.3c2.1-1,3.8-2.1,5-3.4c-1-1.3-2-3-2.7-5.1C237.4,10.8,237,10.8,236.8,10.9z M240.1,2.1h1.7
	c0.6-0.7,1-1,1.1-1s0.4,0.2,0.9,0.6s0.8,0.6,0.8,0.8c0,0.1-0.1,0.2-0.2,0.3c-0.2,0.1-0.4,0.3-0.6,0.4V6c0,0.6,0.3,0.9,0.7,0.9
	c0.5,0,0.8-0.1,0.9-0.4c0.2-0.3,0.3-0.5,0.3-0.5c0.2,0,0.4,0.1,0.6,0.3c0.5,0.4,0.8,0.8,0.8,1c0,0.5-0.6,0.8-1.8,0.9
	c-0.5,0-1,0-1.4,0c-1.3,0-2-0.6-2-1.8V2.5H240c0,1.2,0,2-0.1,2.4c-0.2,2.2-1.5,3.7-3.9,4.4c-0.1-0.1-0.1-0.2-0.2-0.3
	c0.7-0.5,1.2-1,1.5-1.6c0.6-0.5,0.9-2,0.9-4.3c0-0.9,0-1.6-0.1-2.1L240.1,2.1z M243.1,10.7h-4.5c-0.1,0-0.3,0-0.4,0
	c1.1,2.1,2.1,3.4,3,4.2C242.3,13.6,242.9,12.3,243.1,10.7z"/>
<path class="st0" d="M258.2,3.2c0,0.2-0.5,0.4-1.5,0.5c-0.7,1.5-1.6,2.9-2.7,4.2c-1.2,1.6-2.5,2.8-4,3.9c0,0-0.1-0.1-0.3-0.3
	c2.8-3.3,4.5-6.5,5.1-9.7C257.1,2.4,258.2,2.9,258.2,3.2z M260.4,9.3c0,0.2-0.5,0.4-1.5,0.5c-0.6,1.3-1.2,2.6-2,3.7
	c-0.7,1-1.4,1.9-2.1,2.6c3.1,0,6-0.1,8.8-0.2c-0.7-1.6-1.5-3-2.4-4c0,0,0.1-0.1,0.3-0.2c3.2,2.2,4.9,4.2,4.9,6c0,0.6-0.2,1-0.5,1.2
	c-0.2,0.1-0.4,0.2-0.6,0.2c-0.5,0-0.8-0.7-1.2-1.9c-0.1-0.3-0.2-0.6-0.3-0.9c-2.5,0.8-6.1,1.5-10.9,1.9c0,0.8-0.2,1.2-0.4,1.2
	c-0.1,0-0.5-0.6-0.9-1.7c-0.3-0.7-0.4-1.2-0.5-1.6c1,0,2,0,3,0c1.8-2.8,2.8-5.5,3.2-8.2C259.3,8.5,260.4,9,260.4,9.3z M263.7,2.3
	c0,0.2-0.2,0.4-0.7,0.4c-0.3,0.1-0.5,0.1-0.6,0.3c0,0.8,0.5,1.8,1.4,3.1c1.3,1.7,2.8,2.8,4.5,3.3c0,0.2-0.1,0.4-0.1,0.4
	c-0.5,0-0.8,0.1-1,0.4c-0.3,0.8-0.5,1.1-0.7,1.1c-0.6-0.1-1.4-0.8-2.4-2.3c-1.3-1.8-2.2-4-2.7-6.7h-1.3c-0.8,0-1.3,0-1.6,0.1
	c-0.1-0.3-0.3-0.6-0.4-0.9c0.4,0.1,1,0.2,1.7,0.2h1c0.5-0.7,0.9-1,1.1-1C263.1,1.6,263.7,2.1,263.7,2.3z"/>
<path class="st0" d="M288,1.6c0.5,0.3,0.7,0.6,0.7,0.8c0,0.1-0.2,0.4-0.7,0.6l-0.3,0.3v13.4c0,1.5-0.9,2.5-2.6,2.9
	c-0.3,0-0.4-0.2-0.5-0.5c-0.2-0.5-0.6-1-1.4-1.3c-0.2-0.1-0.7-0.3-1.5-0.6c0,0,0-0.2,0-0.4c0.2,0.1,1.4,0.1,3.4,0.2
	c0.4,0,0.6-0.2,0.6-0.6V2.6h-10.8c-1.4,0-2.6,0-3.4,0.1c-0.1-0.3-0.3-0.6-0.4-0.9c0.6,0.2,1.9,0.3,3.9,0.3h10.3
	c0.6-0.9,1-1.3,1.2-1.3C287,0.9,287.4,1.2,288,1.6z M282.7,4.6c0.9,0.8,1.3,1.2,1.3,1.4s-0.1,0.3-0.2,0.3h-8.4
	c-1.6,0-2.5,0.1-2.9,0.3c-0.1-0.4-0.3-0.7-0.5-1.1c0.6,0.1,1.6,0.2,3,0.2h5.7c0.6-0.8,1.1-1.3,1.4-1.4c0,0,0.1,0,0.2,0
	C282.3,4.3,282.5,4.4,282.7,4.6z M275.1,9h4.7c0.5-0.7,0.9-1,1.1-1c0.2,0,0.6,0.2,1.1,0.6c0.5,0.4,0.8,0.7,0.8,0.8s-0.1,0.3-0.3,0.4
	c-0.3,0.2-0.5,0.4-0.5,0.5V13c0.1,1,0.1,1.7,0.1,2c0,0.5-0.4,0.7-1.1,0.7c-0.5,0-0.8-0.1-0.9-0.4v-1.2h-5v1.5
	c-0.1,0.4-0.5,0.6-1.2,0.6c-0.4,0-0.7-0.1-0.8-0.2c0-1.3,0-2.5,0.1-3.7V9.9c0-1-0.1-1.6-0.1-1.8L275.1,9z M280.1,13.7V9.5h-5v4.2
	H280.1z"/>
<path class="st0" d="M71.8,42c0,0.2-0.1,0.3-0.4,0.3c-0.4,0.2-0.6,0.3-0.6,0.4v0.9H74c0.6-0.7,1-1.2,1.3-1.3c0,0,0.1,0,0.2,0
	c0.1,0.1,0.3,0.2,0.5,0.3c0.8,0.7,1.2,1.1,1.2,1.3s-0.1,0.3-0.2,0.3h-6.1v3.1h5.3c0.6-0.8,1.1-1.3,1.4-1.4c0,0,0.1,0,0.2,0
	c0.2,0.1,0.3,0.2,0.5,0.3c0.9,0.8,1.3,1.2,1.3,1.4s-0.1,0.3-0.2,0.3H65.6c-2.5,0-4.1,0.1-4.7,0.2c-0.1-0.4-0.3-0.7-0.5-1.1
	c1,0.1,2.8,0.2,5.4,0.2h3.1v-3.1h-2.4c-1.9,0-3.1,0.1-3.5,0.2c-0.1-0.4-0.3-0.7-0.5-1.1c0.8,0.1,2.1,0.2,3.9,0.2h2.5v-0.2
	c0-0.9,0-1.7-0.1-2.2C70.8,41.5,71.8,41.8,71.8,42z M63.5,31h4.3c0.5-0.7,0.8-1.1,1-1.2h0.1c0.1,0,0.4,0.2,0.8,0.5
	c0.5,0.5,0.8,0.8,0.8,0.9c0,0.2-0.1,0.3-0.1,0.3h-3.1v2.4h0.8c0.5-0.6,0.8-0.9,1-1c0.2,0,0.5,0.2,1,0.5c0.4,0.3,0.7,0.6,0.7,0.7
	s-0.1,0.2-0.3,0.3c-0.3,0.2-0.4,0.3-0.5,0.4v1.6c0,0.6,0.1,1,0.1,1.2c0,0.4-0.3,0.6-0.9,0.6c-0.5,0-0.7-0.1-0.7-0.3v-0.4h-1.1v2.7
	H68c0.5-0.7,0.8-1.1,1-1.2h0.1c0.1,0,0.4,0.2,0.8,0.6c0.5,0.5,0.8,0.8,0.8,0.9c0,0.2-0.1,0.3-0.1,0.4h-6.8v0.7
	c-0.1,0.4-0.4,0.6-1.1,0.6c-0.4,0-0.6-0.1-0.7-0.2c0-1.8,0-3.7,0.1-5.4V33c0-1.5-0.1-2.4-0.1-2.7L63.5,31z M65.6,31.6h-1.9V34h1.9
	V31.6z M68.3,37.1v-2.5h-4.7v2.5H68.3z M65.5,40.3v-2.7h-1.9v2.7H65.5z M78.3,30.5c0.5,0.5,0.8,0.8,0.8,1c0,0.1-0.1,0.2-0.3,0.3
	c-0.5,0.1-0.7,0.2-0.8,0.4c-0.7,2-1.7,3.8-2.8,5.3c0.6,0.7,1.2,1.2,1.9,1.6c0.8,0.5,1.4,0.8,1.9,1c0,0.1,0,0.3-0.1,0.4
	c-0.2,0-0.4,0.1-0.5,0.2c-0.2,0.2-0.4,0.4-0.5,0.8c-0.2,0.3-0.3,0.5-0.4,0.5c-0.2,0-0.5-0.2-0.9-0.5c-1-0.7-1.8-1.6-2.4-2.7
	c-0.9,0.9-1.9,1.7-3,2.4c-0.1-0.1-0.1-0.2-0.2-0.3c0.9-0.9,1.8-2,2.6-3.3c-0.8-1.6-1.4-3.6-1.7-6c-0.4,0-0.7,0.1-0.9,0.1
	c-0.2-0.5-0.3-0.8-0.4-1c0.7,0.2,1.5,0.3,2.6,0.3H76c0.6-0.8,1-1.1,1.2-1.1C77.4,29.9,77.8,30.1,78.3,30.5z M74.4,36.4
	c0.9-1.6,1.5-3.3,1.9-4.9h-3c-0.3,0-0.6,0-0.8,0C72.8,33.4,73.5,35.1,74.4,36.4z"/>
<path class="st0" d="M88.1,33.8c0.7,0.7,1.2,1.1,1.2,1.3s-0.1,0.3-0.2,0.3h-2.9v3.7c1-0.2,1.9-0.5,2.6-0.8c0,0,0.1,0.1,0.1,0.2
	c-0.8,0.7-1.7,1.3-2.8,1.9v5.9c0,1.8-0.8,2.6-2.2,2.6c-0.2,0-0.4-0.1-0.4-0.4c0-0.4-0.3-0.7-0.6-1c-0.3-0.2-0.6-0.4-1.1-0.5
	c0-0.1,0.1-0.2,0.1-0.3c0.3,0,1.1,0,2.2,0c0.2,0,0.3-0.2,0.3-0.6v-4.9c-0.5,0.2-1,0.4-1.6,0.6c0,0.4-0.1,0.7-0.2,0.7
	s-0.3-0.2-0.5-0.6c-0.2-0.4-0.5-1.1-0.9-2c1.2-0.1,2.2-0.2,3.2-0.4v-4.1h-0.7c-0.9,0-1.6,0.1-2,0.2c-0.1-0.3-0.2-0.5-0.3-0.8
	c0.4,0.1,1.2,0.1,2.3,0.1h0.7v-2.4c0-1.2-0.1-2.1-0.1-2.7c1.7,0.3,2.7,0.6,2.9,0.8c0,0.1-0.1,0.2-0.1,0.2c-0.1,0.1-0.3,0.1-0.5,0.2
	c-0.2,0.1-0.3,0.2-0.3,0.3V35h0.3c0.3-0.4,0.6-0.8,0.9-1.1c0.1-0.1,0.2-0.2,0.2-0.2C87.8,33.5,87.9,33.6,88.1,33.8z M100.2,40.1
	c0.3,0.3,0.5,0.5,0.5,0.7s-0.1,0.3-0.3,0.3h-3.2v5.5c0,1.1-0.8,1.9-2.4,2.3c-0.2,0-0.3-0.2-0.3-0.4c-0.1-0.4-0.4-0.8-1-1.2
	c-0.5-0.3-0.9-0.4-1.3-0.5c0-0.1,0.1-0.3,0.1-0.3c0.8,0.1,1.7,0.1,2.7,0.1c0.3,0,0.4-0.2,0.4-0.5v-5H90c-0.7,0-1.4,0-2.1,0.1
	c-0.2-0.3-0.4-0.6-0.5-1c0.7,0.2,1.5,0.2,2.3,0.2h5.4c0-1.2-0.1-2.1-0.1-2.8c0.5,0.1,1,0.2,1.6,0.4c0.7,0.1,1.2,0.2,1.3,0.3
	c0.1,0,0.2,0.1,0.2,0.3c0,0.1-0.2,0.3-0.7,0.4c-0.2,0.1-0.3,0.1-0.3,0.2v1.3h0.5c0.7-0.8,1.1-1.3,1.2-1.4c0.1,0,0.1,0,0.1,0
	C99.2,39.1,99.5,39.4,100.2,40.1z M97.9,31.9c0.8,0.8,1.3,1.2,1.4,1.5c0,0.2-0.1,0.3-0.2,0.3h-4.9v3.2h2.6c0.4-0.5,0.7-1,1.1-1.4
	c0.1-0.1,0.2-0.2,0.3-0.2s0.3,0.1,0.5,0.3c0.9,0.8,1.4,1.3,1.6,1.6c0,0.2-0.1,0.3-0.2,0.3h-10c-0.9,0-1.5,0.1-2,0.2
	c-0.1-0.3-0.2-0.5-0.3-0.9c0.4,0.1,1.2,0.1,2.3,0.1h2.3v-3.2h-1.6c-0.9,0-1.6,0.1-2,0.2c-0.1-0.3-0.2-0.5-0.3-0.8
	c0.4,0.1,1.2,0.1,2.3,0.1h1.6v-1c0-0.9,0-1.7-0.1-2.2c2,0.3,3,0.5,3,0.8c0,0.2-0.1,0.3-0.4,0.3c-0.4,0.2-0.6,0.3-0.6,0.4v1.7h1.9
	c0.3-0.5,0.7-0.9,1-1.3c0.1-0.1,0.2-0.2,0.3-0.2C97.5,31.6,97.7,31.7,97.9,31.9z M91.2,42.5c0.9,0.5,1.3,1.2,1.3,2
	c0,0.5-0.1,0.8-0.4,0.9c-0.1,0.1-0.4,0.2-0.7,0.2c-0.5,0-0.8-0.4-0.9-1.2c-0.2-0.7-0.4-1.2-0.6-1.6c-0.2-0.3-0.4-0.5-0.6-0.8
	c0-0.1,0.1-0.1,0.2-0.2C90.2,42,90.8,42.2,91.2,42.5z"/>
<path class="st0" d="M112.6,31.7c0.9,0.8,1.3,1.2,1.4,1.5c0,0.2-0.1,0.3-0.2,0.3h-4.5c-0.9,1.5-2.2,2.9-3.8,4c0.4,0,0.8,0.1,1.2,0.1
	c0.8,0,1.6,0,2.3,0c0.5-0.8,0.9-1.6,1.3-2.5c1.7,0.8,2.6,1.3,2.6,1.6c0,0.1-0.1,0.1-0.2,0.2c-0.1,0-0.3,0.1-0.5,0.1
	c-0.3,0-0.5,0-0.7,0c-1.8,3-4.7,5.4-8.5,7.1c-0.1-0.1-0.1-0.1-0.2-0.2c2.4-1.6,4.3-3.5,5.7-5.6c-1.3,0.5-2.7,0.8-4.3,0.9
	c-0.1,0.3-0.2,0.5-0.4,0.5c-0.1,0-0.1-0.2-0.3-0.6c-0.2-0.7-0.3-1.3-0.4-1.8c0.4,0.1,0.9,0.2,1.5,0.3c0.9-1.2,1.6-2.5,2-3.9h-1.9
	c-0.9,0-1.5,0.1-2,0.2c-0.1-0.3-0.2-0.5-0.3-0.8c0.4,0.1,1.2,0.1,2.3,0.1h5.9c0.3-0.5,0.7-0.9,1-1.3c0.1-0.1,0.2-0.2,0.3-0.2
	C112.2,31.5,112.4,31.6,112.6,31.7z M114.3,40.6c0,0.1-0.1,0.2-0.2,0.2c-0.1,0.1-0.3,0.1-0.5,0.1c-0.4,0-0.6,0-0.8,0
	c-0.8,1.2-1.6,2.2-2.6,3.2c2.4,0.9,3.6,1.8,3.7,3c0,0.5-0.1,0.9-0.3,1.1c-0.2,0.2-0.4,0.3-0.6,0.3c-0.3,0-0.7-0.5-1.1-1.4
	c-0.5-1-1.2-1.8-2-2.6c-1.9,1.8-4.2,3.3-7,4.5c-0.1-0.1-0.1-0.2-0.2-0.3c4.1-2.7,7-5.9,8.7-9.7C113.4,39.8,114.3,40.3,114.3,40.6z
	 M109.3,31.5c0,0.3,0,0.5-0.1,0.7c-0.2,0.4-0.4,0.6-0.8,0.6c-0.3,0-0.7-0.4-1.3-1.1c-0.5-0.7-1.1-1.3-1.8-1.8c0.1,0,0.1-0.1,0.1-0.3
	C108,29.9,109.3,30.5,109.3,31.5z M116.6,32.1c0.5,0.1,0.7,0.2,0.7,0.4c0,0.1-0.1,0.2-0.3,0.3c-0.3,0.1-0.5,0.2-0.5,0.3V40
	c0,2,0,3.5,0.1,4.3c0,0.3-0.4,0.5-1.2,0.5c-0.4,0-0.6-0.1-0.6-0.4c0-0.7,0.1-2.2,0.1-4.5v-6.3c0-0.6-0.1-1.2-0.2-1.7
	C115.2,32,115.9,32,116.6,32.1z M121.4,30.7c0,0.1-0.1,0.2-0.2,0.2c-0.2,0.1-0.3,0.1-0.5,0.3c-0.2,0.1-0.3,0.2-0.3,0.3V46
	c0,1.9-0.8,2.8-2.3,2.8c-0.3,0-0.4-0.1-0.4-0.4c-0.1-0.4-0.3-0.8-0.8-1.1c-0.3-0.3-0.8-0.4-1.4-0.6c0-0.1,0.1-0.2,0.1-0.3
	c0.4,0,1.3,0,2.5,0c0.2,0,0.4-0.2,0.4-0.6V32.5c0-1.2-0.1-2.1-0.2-2.6C120.2,30.1,121.3,30.4,121.4,30.7z"/>
<path class="st0" d="M133.9,30.9c0.5,0.4,0.7,0.7,0.7,0.8c0,0.1-0.1,0.2-0.3,0.3c-0.1,0.1-0.3,0.2-0.5,0.4v0.7h0.5
	c0.5-0.6,0.8-0.9,0.9-0.9s0.3,0.2,0.6,0.5c0.3,0.3,0.4,0.5,0.5,0.7c0,0.2-0.1,0.3-0.3,0.3h-2.2v0.7c0.1,0.5,0.1,0.9,0.1,1.2
	s-0.4,0.5-1.2,0.6c-0.4,0-0.6-0.1-0.6-0.4H130v1.4h2.7c0.5-0.6,0.9-0.9,1.1-0.9c0.1,0,0.4,0.2,0.7,0.5c0.4,0.3,0.6,0.5,0.6,0.7
	s-0.1,0.3-0.3,0.3H130V39h3.6c0.5-0.7,0.9-1,1.1-1c0.1,0,0.4,0.2,0.7,0.6c0.4,0.4,0.6,0.6,0.6,0.7c0,0.2-0.1,0.3-0.3,0.3H127
	c-2,0-3,0.1-3,0.2c-0.1-0.3-0.3-0.6-0.4-1.1c0.3,0.1,1.4,0.2,3.3,0.3h1.6v-1.2h-0.2c-2,0-3.1,0.1-3.1,0.2c-0.1-0.3-0.3-0.6-0.4-1.1
	c0.3,0.1,1.4,0.2,3.2,0.3h0.5v-1.4c-1.5,0-2.7,0.1-3.6,0.2c-0.2-0.3-0.3-0.6-0.4-0.9c0.5,0.1,1.8,0.1,3.9,0.1v-1.5h-1.2
	c-2,0-3,0.1-3,0.2c-0.1-0.3-0.3-0.6-0.4-1.1c0.3,0.1,1.4,0.2,3.3,0.3h1.4v-1.3h-0.4c-1.4,0-2.4,0.1-3.1,0.2
	c-0.1-0.3-0.2-0.5-0.3-0.8c0.5,0.1,1.7,0.1,3.5,0.1h0.3c0-0.8-0.1-1.4-0.1-1.8c1.8,0.3,2.8,0.5,2.8,0.7s-0.1,0.3-0.3,0.3
	c-0.4,0.2-0.6,0.3-0.6,0.4v0.4h1.9c0.5-0.6,0.9-0.9,1.1-0.9C133.1,30.4,133.4,30.6,133.9,30.9z M135.7,46.4
	c-2.8,0.9-6.4,1.5-10.6,1.7c-0.1,0.6-0.3,1-0.5,1s-0.3-0.4-0.5-1.1c-0.2-0.7-0.3-1.3-0.4-1.7c0.8,0.1,2,0.2,3.6,0.2
	c4.3,0,7.1-0.2,8.3-0.4C135.6,46.2,135.6,46.3,135.7,46.4z M126.1,40.8h6.1c0.5-0.5,0.8-0.7,1-0.8c0.2,0,0.5,0.2,1,0.6
	c0.5,0.4,0.7,0.6,0.7,0.8c0,0.1-0.1,0.3-0.3,0.4c-0.3,0.2-0.5,0.4-0.5,0.4V44c0.1,0.7,0.1,1.1,0.1,1.3c0,0.4-0.3,0.7-1,0.7
	c-0.5,0-0.8-0.1-0.8-0.4v-0.2h-5.9v0.1c-0.1,0.4-0.4,0.6-1,0.6c-0.4,0-0.6-0.1-0.7-0.2c0-0.9,0-1.8,0.1-2.6v-1.7
	c0-0.7-0.1-1.2-0.1-1.3L126.1,40.8z M128.5,42.7v-1.4h-2v1.4H128.5z M128.5,44.9v-1.6h-2v1.6H128.5z M130,33.1h2.1v-1.3H130V33.1z
	 M130,33.8v1.5h2.1v-1.5H130z M130.4,42.7h2.1v-1.4h-2.1V42.7z M130.4,44.9h2.1v-1.6h-2.1V44.9z M138.3,31.7
	c0.5,0.1,0.7,0.2,0.7,0.4c0,0.1-0.1,0.2-0.3,0.2c-0.4,0.1-0.5,0.2-0.5,0.3v7.1c0,2,0.1,3.5,0.1,4.3c0,0.3-0.4,0.5-1.2,0.5
	c-0.4,0-0.6-0.1-0.6-0.4c0-0.7,0-2.2,0.1-4.5v-6.5c0-0.6-0.1-1.2-0.2-1.7C136.9,31.5,137.6,31.6,138.3,31.7z M142.6,30.5
	c0,0.1-0.1,0.2-0.1,0.2c-0.1,0.1-0.3,0.1-0.5,0.2s-0.3,0.2-0.3,0.3V46c0,1.8-0.7,2.6-2.1,2.6c-0.3,0-0.5-0.1-0.5-0.4
	c-0.1-0.4-0.4-0.7-0.9-1c-0.3-0.3-0.9-0.4-1.5-0.5c0-0.1,0.1-0.2,0.1-0.3c0.5,0,1.4,0,2.8,0c0.2,0,0.3-0.2,0.3-0.6V32.3
	c0-1.2-0.1-2.1-0.2-2.7C141.5,30,142.4,30.3,142.6,30.5z"/>
<path class="st0" d="M155.6,41.4c-0.2,0.2-0.4,0.3-0.6,0.3c-0.3,0-0.5-0.1-0.7-0.4c0,0-0.1-0.2-0.4-0.7c-0.5-0.9-1-1.6-1.7-2.3
	c-0.2-0.1-0.3-0.3-0.5-0.4c-0.3-0.2-0.4-0.4-0.4-0.5c0-0.2,0.1-0.3,0.3-0.3c0.6,0,1.4,0.4,2.5,1.2c1.1,0.9,1.7,1.7,1.7,2.5
	C155.9,41,155.8,41.2,155.6,41.4z"/>
<path class="st0" d="M183.8,33.5c0.4,0.4,0.7,0.7,0.7,0.8c0,0.2-0.1,0.3-0.1,0.4h-2.7v3.5h0.3c0.5-0.8,0.9-1.2,1-1.2
	c0.1,0,0.4,0.3,0.9,0.8c0.4,0.4,0.6,0.7,0.6,0.8c0,0.2-0.1,0.3-0.2,0.3h-2.7v3.4h0.3c0.5-0.7,0.9-1,1-1.1c0.1,0,0.4,0.3,0.9,0.7
	c0.4,0.4,0.6,0.6,0.6,0.7c0,0.2-0.1,0.3-0.2,0.3h-2.7V47h0.4c0.5-0.8,0.9-1.3,1-1.3s0.4,0.3,0.9,0.8c0.4,0.5,0.6,0.7,0.6,0.8
	c0,0.2-0.1,0.3-0.1,0.3h-6.1v0.3c0,0.3,0,0.5,0,0.8s-0.3,0.5-1,0.5c-0.5,0-0.7-0.1-0.8-0.3V37.1c-0.3,0.6-0.6,1.2-1,1.7
	c-0.1,0-0.2,0-0.3-0.1v7.9c0,1.3-0.8,2-2.3,2.3c-0.1,0-0.2-0.1-0.3-0.4c-0.1-0.5-0.4-0.9-0.8-1.1c-0.5-0.3-0.9-0.5-1-0.5
	c0,0,0-0.1,0-0.3c0.6,0.1,1.3,0.1,2.3,0.1c0.3,0,0.4-0.1,0.4-0.4V31.7h-5.6v4.1c0,3.5-0.1,5.8-0.3,7.1c-0.1,0.9-0.3,1.8-0.5,2.8
	c-0.5,1.5-1,2.6-1.8,3.3c-0.1,0-0.2-0.1-0.2-0.2c0.8-2.1,1.2-5.9,1.2-11.5v-4.5c0-0.9,0-1.7-0.1-2.3l1.6,0.6h5.6
	c0.4-0.5,0.7-0.9,0.9-1c0.2,0,0.5,0.2,0.9,0.5c0.5,0.3,0.8,0.6,0.8,0.8c0,0.1-0.1,0.3-0.4,0.4c-0.2,0.2-0.4,0.3-0.4,0.4v6
	c1-2.6,1.7-5.4,2.1-8.3c1.7,0.7,2.6,1.1,2.6,1.3c0,0.2-0.4,0.3-1,0.4c-0.3,0.9-0.6,1.9-1,2.8h4.1c0.5-0.6,0.8-1,1-1.1h0.1
	C183.2,33,183.5,33.2,183.8,33.5z M172.3,32.6c0,0.1-0.1,0.3-0.3,0.3c-0.3,0.1-0.4,0.2-0.4,0.3v1.3h0.3c0.4-0.6,0.6-0.9,0.8-0.9
	c0.1,0,0.2,0.2,0.4,0.5c0.3,0.4,0.4,0.7,0.4,0.8s-0.1,0.2-0.1,0.2h-1.7v2.1h0.2c0.4-0.7,0.7-1,0.8-1s0.2,0.2,0.4,0.5
	c0.3,0.4,0.4,0.7,0.4,0.8s-0.1,0.2-0.1,0.2h-1.8v1.5c0,0.3-0.3,0.5-0.9,0.5c-0.4,0-0.5-0.1-0.5-0.3c0-0.5,0-1.1,0-1.7
	c-0.7,0-1.2,0.1-1.4,0.1c-0.1-0.1-0.2-0.4-0.3-0.8c0.2,0,0.6,0.1,1.2,0.1h0.5c0-0.7,0-1.4,0-2.1c-0.7,0-1.2,0.1-1.4,0.2
	c-0.1-0.1-0.2-0.4-0.3-0.8c0.2,0,0.6,0.1,1.2,0.1h0.6V33c0-0.3-0.1-0.7-0.1-0.9C171.4,32.2,172.1,32.4,172.3,32.6z M170.2,40.3h1
	c0.4-0.5,0.6-0.7,0.8-0.7c0.1,0,0.4,0.2,0.8,0.5s0.5,0.5,0.5,0.6s-0.1,0.2-0.2,0.3c-0.3,0.2-0.4,0.3-0.4,0.3v2.2
	c0,0.8,0.1,1.4,0.1,1.6c0,0.3-0.3,0.5-0.8,0.5c-0.4,0-0.6-0.1-0.6-0.3v-0.7h-1.1v0.9c-0.1,0.3-0.3,0.4-0.8,0.4c-0.3,0-0.5,0-0.5-0.1
	c0-0.9,0-1.8,0.1-2.8v-1.8c0-0.8-0.1-1.2-0.1-1.4L170.2,40.3z M171.4,44.1v-3.2h-1.1v3.2H171.4z M178.4,38.2h1.7v-3.5h-1.7V38.2z
	 M178.4,42.1h1.7v-3.4h-1.7V42.1z M178.4,46.8h1.7v-4.1h-1.7V46.8z M182.1,32.4c0,0.8-0.3,1.2-0.9,1.2c-0.4,0-0.7-0.2-0.7-0.7
	c0-0.1,0-0.2,0-0.3c0-0.2,0-0.4,0-0.6c0-0.7-0.4-1.3-0.9-1.9c0.2,0,0.3-0.1,0.3-0.1C181.3,30.7,182.1,31.5,182.1,32.4z"/>
<path class="st0" d="M193.5,42.2c-1.4,1.3-3.1,2.5-5.2,3.5c-0.1,0.2-0.2,0.5-0.2,0.9c0,0.2-0.1,0.3-0.3,0.3s-0.5-0.5-1-1.6
	c-0.2-0.5-0.4-1-0.6-1.3c0.8-0.1,1.7-0.3,2.5-0.5V38c-1.2,0-1.9,0.1-1.9,0.2c-0.1-0.3-0.3-0.6-0.4-1.1c0.3,0.1,1,0.2,2.3,0.2v-4.9
	h-0.1c-0.9,0-1.6,0.1-2,0.2c-0.1-0.2-0.2-0.5-0.3-0.8c0.4,0.1,1.2,0.1,2.3,0.1h1.6c0.3-0.4,0.6-0.8,1-1.2c0.1-0.1,0.2-0.1,0.3-0.1
	s0.2,0.1,0.4,0.2c0.8,0.7,1.2,1.2,1.3,1.4c0,0.2-0.1,0.3-0.1,0.3h-2.6v5h0.3c0.5-0.8,0.9-1.3,1.1-1.3c0.1,0,0.4,0.2,0.7,0.7
	c0.4,0.4,0.6,0.7,0.6,0.9s-0.1,0.3-0.2,0.3h-2.5v5c0.9-0.3,1.9-0.7,2.8-1.1C193.4,42.1,193.5,42.2,193.5,42.2z M204.1,30.4
	c0.9,0.8,1.3,1.2,1.3,1.4c0,0.2-0.1,0.3-0.2,0.3h-5c-0.1,0.3-0.3,0.4-0.5,0.6c-0.6,0.7-1.3,1.3-2,1.8c1,0.8,1.8,1.8,2.4,3
	c1.1-0.9,2-2.1,2.6-3.4c1.7,0.8,2.5,1.2,2.5,1.5c0,0.2-0.4,0.3-1.2,0.3c-0.6,0.5-1.3,0.9-2,1.2c0.3,1.3,0.7,2.6,1.4,4.1
	c0.6,1,1.3,1.7,2.2,2.2c0,0-0.1,0.1-0.1,0.4c-0.3,0-0.6,0.3-0.8,0.7c-0.1,0.2-0.1,0.4-0.2,0.7c-0.1,0.2-0.2,0.3-0.3,0.3
	c-0.6,0-1.3-1.4-2-4.4c-0.3-1.3-0.4-2.5-0.5-3.7c-0.4,0.2-0.9,0.4-1.3,0.6c0.6,1.6,0.9,3.5,0.9,5.8c-0.1,2.7-0.8,4.3-2.1,4.8
	c-0.4,0.2-0.8,0.3-1.3,0.3c-0.3,0-0.5-0.2-0.7-0.5c-0.1-0.5-0.4-0.9-0.9-1.1c-0.5-0.3-1-0.5-1.6-0.6c0-0.1,0.1-0.2,0.1-0.3
	c0.9,0.3,1.8,0.4,2.7,0.4c1.3,0,2-1,2-2.9c0-0.8,0-1.6-0.1-2.3c-0.6,0.4-1.1,0.8-1.7,1.2c0.1,0.5,0.2,0.9,0.2,1.4s-0.1,0.8-0.3,1
	s-0.4,0.3-0.8,0.3c-0.4,0-0.7-0.6-0.8-1.8c-1.4,0.8-2.8,1.3-4.3,1.8c-0.1,0-0.1-0.1-0.2-0.4c1.6-0.8,3-1.6,4.3-2.7
	c-0.2-0.8-0.3-1.6-0.5-2.3c-0.9,0.4-1.8,0.8-2.7,1c0,0-0.1-0.1-0.2-0.3c1-0.5,1.8-1,2.6-1.6c-0.2-0.6-0.4-1.1-0.7-1.6l0.3-0.2
	c0.4,0.4,0.7,0.9,1,1.2c0.9-0.8,1.7-1.6,2.4-2.6c-0.2-0.5-0.4-0.9-0.7-1.3c-1.1,0.8-2.4,1.4-3.8,2c-0.1-0.1-0.2-0.3-0.3-0.3
	c2.1-1.3,3.5-2.6,4.3-4.1c0-0.1,0.1-0.1,0.1-0.2h-1.1c-1.6,0-2.5,0.1-2.9,0.2c-0.1-0.4-0.3-0.7-0.5-1.1c0.6,0.1,1.6,0.2,3,0.2h5.7
	c0.6-0.8,1.1-1.3,1.4-1.4c0,0,0.1,0,0.2,0C203.8,30.1,203.9,30.3,204.1,30.4z M197.1,41.1c0.7-0.6,1.3-1.3,1.9-2
	c-0.1-0.5-0.2-0.9-0.3-1.3c-0.8,0.6-1.6,1.2-2.5,1.7C196.6,40,196.9,40.6,197.1,41.1z"/>
<path class="st0" d="M218.6,41.4c-0.2,0.2-0.4,0.3-0.6,0.3c-0.3,0-0.5-0.1-0.7-0.4c0,0-0.1-0.2-0.4-0.7c-0.5-0.9-1-1.6-1.7-2.3
	c-0.2-0.1-0.3-0.3-0.5-0.4c-0.3-0.2-0.4-0.4-0.4-0.5c0-0.2,0.1-0.3,0.3-0.3c0.6,0,1.4,0.4,2.5,1.2c1.1,0.9,1.7,1.7,1.7,2.5
	C218.9,41,218.8,41.2,218.6,41.4z"/>
<path class="st0" d="M235.1,30.5c0,0.2-0.1,0.3-0.3,0.3c-0.4,0.2-0.6,0.3-0.6,0.4v1.6h0.9c0.3-0.4,0.6-0.8,0.9-1.1
	c0.1-0.1,0.2-0.1,0.2-0.1s0.2,0.1,0.4,0.2c0.7,0.7,1.2,1.1,1.3,1.3c0,0.2-0.1,0.3-0.2,0.3h-3.5v2.8h1.3c0.3-0.4,0.7-0.8,1-1.2
	c0.1-0.1,0.2-0.2,0.3-0.2s0.2,0.1,0.4,0.2c0.8,0.7,1.2,1.2,1.3,1.4c0,0.2-0.1,0.3-0.2,0.3h-7.5c-0.9,0-1.6,0.1-2,0.1
	c-0.1-0.2-0.2-0.5-0.3-0.8c0.4,0.1,1.2,0.1,2.3,0.1h1.6v-2.8H231c-0.9,0-1.5,0.1-2,0.2c-0.1-0.2-0.2-0.5-0.3-0.8
	c0.4,0.1,1.2,0.1,2.3,0.1h1.4v-0.9c0-0.9,0-1.6-0.1-2.1C234.2,30.1,235.1,30.3,235.1,30.5z M230.8,40.9c-0.9,0-1.6,0.1-2,0.2
	c-0.1-0.3-0.2-0.5-0.3-0.9c0.4,0.1,1.2,0.1,2.3,0.1h3.1c0.5-1,0.9-2.1,1.1-3.3c1.4,0.4,2.2,0.7,2.2,0.9s-0.3,0.3-0.9,0.4
	c-0.4,0.7-1,1.4-1.8,2.1h1.4c0.3-0.4,0.6-0.8,1-1.2c0.1-0.1,0.2-0.2,0.3-0.2s0.2,0.1,0.4,0.2c0.8,0.7,1.2,1.2,1.3,1.4
	c0,0.2-0.1,0.3-0.1,0.3h-4.5v3h1c0.3-0.4,0.6-0.8,1-1.2c0.1-0.1,0.2-0.2,0.2-0.2c0.1,0,0.2,0.1,0.4,0.2c0.8,0.7,1.2,1.2,1.3,1.4
	c0,0.2-0.1,0.3-0.2,0.3h-3.8v1.1c0,0.8,0.1,1.8,0.1,3c0,0.3-0.4,0.4-1.1,0.5c-0.6,0-0.9-0.1-0.9-0.3c0-0.6,0.1-1.7,0.1-3.3v-1h-1.3
	c-0.9,0-1.5,0.1-2,0.2c-0.1-0.3-0.2-0.5-0.3-0.9c0.4,0.1,1.2,0.1,2.3,0.1h1.3v-3L230.8,40.9L230.8,40.9z M231.6,37.4
	c0.8,0.4,1.2,1,1.2,1.6c0,0.4-0.1,0.7-0.4,0.9c-0.1,0.1-0.3,0.2-0.6,0.2c-0.4,0-0.6-0.3-0.7-0.9c-0.2-0.5-0.3-0.9-0.5-1.2
	c-0.1-0.2-0.3-0.5-0.6-0.7c0,0,0.1-0.1,0.2-0.2C230.7,37.1,231.2,37.2,231.6,37.4z M245.5,34.5c0.5,0.4,0.8,0.7,0.8,0.9
	c0,0.1-0.1,0.2-0.3,0.3c-0.3,0.2-0.4,0.3-0.5,0.4c0,1.9-0.1,3.3-0.1,4.3c0,3.2,0.3,4.8,0.7,4.8c0.3,0,0.6-0.6,1-1.9
	c0.1,0.1,0.2,0.1,0.3,0.1c-0.3,1.1-0.4,2-0.4,2.9c0,0.3,0.1,0.5,0.1,0.8c0.2,0.5,0.3,0.8,0.3,1.1s-0.2,0.4-0.6,0.4
	c-1.9-0.2-3-2.7-3.1-7.6v-5.7h-1.8v2.1c0,1.1-0.1,2.1-0.2,3c1.2,0.9,1.8,1.8,1.9,2.6c0,0.4-0.1,0.7-0.4,0.9
	c-0.1,0.1-0.3,0.1-0.4,0.1c-0.5,0-0.9-0.5-1.3-1.4c-0.1-0.1-0.1-0.2-0.2-0.3c-0.8,2.9-2.5,5.1-4.9,6.4c-0.1-0.1-0.2-0.2-0.2-0.2
	c1-0.9,2-2.4,2.8-4.3c0.5-1.1,0.8-2.4,1-3.9c-0.5-0.6-1.1-1.2-1.7-1.6c0,0,0.1-0.1,0.2-0.1c0.6,0.3,1.1,0.6,1.6,0.8
	c0.1-0.9,0.1-1.8,0.2-2.8v-1.2c-0.8,0-1.4,0.1-1.9,0.1c-0.1-0.3-0.2-0.6-0.3-0.9c0.8,0.1,1.5,0.2,2.2,0.2v-3.4
	c0-0.7-0.1-1.3-0.1-1.7c0.8,0.1,1.5,0.3,2,0.4s0.8,0.3,0.8,0.4s-0.1,0.2-0.3,0.3c-0.3,0.1-0.5,0.3-0.6,0.3l-0.1,3.7h1.5
	c0.5-0.6,0.8-1,1-1C244.7,33.9,245,34.1,245.5,34.5z"/>
<path class="st0" d="M267.2,30.9c0.9,0.8,1.3,1.2,1.3,1.4s-0.1,0.3-0.2,0.3h-4.9v1.3c0,0.4-0.4,0.6-1.1,0.6c-0.6,0-0.9-0.1-0.9-0.4
	c0-0.5,0-1,0-1.4h-4.9V34c0,0.4-0.4,0.6-1.1,0.6c-0.6,0-0.9-0.1-0.9-0.4c0-0.5,0-1,0-1.5c-2.4,0-3.9,0.1-4.5,0.3
	c-0.1-0.4-0.3-0.7-0.5-1.1c1,0.1,2.7,0.2,5,0.2v-0.7c0-0.7-0.1-1.3-0.1-1.6c2,0.3,3,0.6,3,0.8c0,0.1-0.1,0.2-0.4,0.4
	c-0.4,0.2-0.6,0.3-0.6,0.4v0.7h5v-0.6c0-0.7-0.1-1.3-0.1-1.6c2,0.3,3,0.6,3,0.8c0,0.1-0.1,0.3-0.4,0.4c-0.4,0.2-0.6,0.3-0.6,0.4v0.7
	h1.7c0.6-0.8,1.1-1.3,1.4-1.4c0,0,0.1,0,0.2,0C266.8,30.6,267,30.7,267.2,30.9z M260,34.3c0,0.2-0.1,0.3-0.3,0.3
	c-0.4,0.2-0.6,0.3-0.6,0.4v0.8h1c0.5-0.6,0.9-1,1.2-1.2h0.1c0.1,0.1,0.3,0.2,0.4,0.3c0.7,0.6,1.1,1,1.1,1.2s-0.1,0.3-0.2,0.3h-3.6
	v2.5h0.8c2.3-1.4,4-2.9,5.3-4.5c1.6,0.7,2.4,1.2,2.4,1.5c0,0.1-0.1,0.2-0.3,0.2h-0.7c-1.1,1-2.2,2-3.5,2.8h2.2
	c0.6-0.7,1-1.1,1.3-1.3h0.2c0.1,0.1,0.3,0.2,0.5,0.3c0.8,0.7,1.2,1.1,1.2,1.3s-0.1,0.3-0.2,0.3H262c-1.6,0.9-3.2,1.7-5,2.3h6.5
	c0.5-0.7,0.9-1,1.1-1c0.2,0,0.5,0.2,1.1,0.6c0.5,0.4,0.8,0.7,0.8,0.8s-0.1,0.3-0.4,0.4c-0.4,0.2-0.6,0.4-0.6,0.5V46
	c0.1,1.1,0.1,1.9,0.1,2.2c0,0.5-0.4,0.7-1.1,0.7c-0.5,0-0.8-0.1-0.8-0.4v-0.7h-7.3v0.5c0,0.3-0.4,0.5-1.2,0.5c-0.6,0-1-0.1-1-0.3
	c0-0.7,0.1-1.8,0.1-3.5v-2.5c-1.5,0.4-3.1,0.7-4.7,0.9c0,0-0.1-0.1-0.1-0.2c3.6-1.1,6.7-2.4,9.2-3.7H255c-2.4,0-3.9,0.1-4.5,0.3
	c-0.1-0.4-0.3-0.7-0.5-1.1c1,0.1,2.7,0.2,5.2,0.2h2.1v-2.5h-2.1c-1.4,0-2.2,0.1-2.5,0.2c-0.1-0.4-0.3-0.7-0.5-1.1
	c0.5,0.1,1.4,0.2,2.7,0.2h2.5v-0.1c0-0.9,0-1.6-0.1-2.1C259.1,33.8,260,34.1,260,34.3z M263.7,44.4v-2.1h-7.3v2.1H263.7z
	 M263.7,47.3V45h-7.3v0.2c0,0.6,0,1.3,0.1,2.1H263.7z"/>
<g>
	<rect x="60" y="69.2" class="st1" width="13" height="0.8"/>
</g>
</svg>
