<?xml version="1.0" encoding="utf-8"?>
<!-- Generator: Adobe Illustrator 27.0.0, SVG Export Plug-In . SVG Version: 6.00 Build 0)  -->
<svg version="1.1" id="圖層_1" xmlns="http://www.w3.org/2000/svg" xmlns:xlink="http://www.w3.org/1999/xlink" x="0px" y="0px"
	 viewBox="0 0 400 16" style="enable-background:new 0 0 400 16;" xml:space="preserve">
<style type="text/css">
	.st0{fill:#D8B167;}
</style>
<path class="st0" d="M98.1,6.4l1.5,1.1c-0.1,0.2-0.3,0.3-0.8,0.3H94v2.6h2.5l0.6-0.7l1.6,1.1c-0.1,0.1-0.3,0.3-0.7,0.3V15
	c0,0-0.4,0.4-1.3,0.4v-0.9h-6.6v0.5c0,0-0.2,0.5-1.2,0.5V9.8l1.4,0.6h2.5V7.8h-5c-0.2,2.6-0.8,5.5-2.9,7.7l-0.2-0.1
	c1.7-3,1.9-6.6,1.9-9.8V1L88,1.6h8.9l0.6-0.8L99,2c-0.1,0.1-0.3,0.3-0.7,0.3v3.1c0,0-0.4,0.4-1.3,0.4V5h-9.2v0.5c0,0.6,0,1.3-0.1,2
	h5V5.1l1.9,0.2c0,0.2-0.2,0.3-0.6,0.4v1.9h3.3L98.1,6.4L98.1,6.4z M97,1.9h-9.2v2.7H97V1.9z M96.7,10.8h-6.6v3.4h6.6V10.8z"/>
<path class="st0" d="M113.9,2.2l1.7,1.2c-0.1,0.2-0.3,0.3-0.8,0.3h-5.5c0,0.2-0.2,0.3-0.6,0.4v2.3h3.5l0.6-0.8l1.6,1.1
	c-0.1,0.1-0.3,0.3-0.7,0.3V12c0,0.9-0.2,1.4-1.9,1.6c0-0.9-0.5-1.1-1.7-1.2v-0.2h2c0.2,0,0.3-0.1,0.3-0.2V6.7h-3.7V15
	c0,0-0.2,0.5-1.3,0.5V6.7h-3.7v6.4c0,0-0.2,0.5-1.3,0.5V5.7l1.4,0.6h3.6V3.7h-6.7l-0.1-0.4h6.8V0.6l2.1,0.2c0,0.3-0.2,0.4-0.7,0.4
	v2.1h4.2L113.9,2.2L113.9,2.2z"/>
<path class="st0" d="M119.1,7c0.3,0.9,0.4,1.7,0.4,2.4c0,2.1-1.1,3.5-2.1,3.5c-0.5,0-0.6-0.3-0.6-0.6c0-0.3,0.2-0.5,0.4-0.8
	c0.9-0.7,1.8-2.5,1.7-4.6L119.1,7L119.1,7z M120.8,1.2c4.2,0,5.6,1.5,5.6,2.4c0,0.4-0.3,0.7-0.6,0.7c-0.1,0-0.2,0-0.4-0.1
	c-0.6-0.9-2.2-2.1-4.6-2.7L120.8,1.2L120.8,1.2z M121.1,5.3l1.9,0.2c0,0.2-0.1,0.3-0.6,0.4v7.5c0,0.5,0.1,0.6,0.7,0.6h3.2
	c0.3,0,0.5,0,0.6-0.3c0.1-0.2,0.4-1.2,0.7-2.3h0.1l0,2.5c0.5,0.2,0.6,0.3,0.6,0.5c0,0.5-0.5,0.8-2.1,0.8h-3.2
	c-1.6,0-1.9-0.3-1.9-1.7L121.1,5.3L121.1,5.3z M128,6.4c2.8,1.6,3.6,3.5,3.6,4.9c0,0.9-0.4,1.6-0.9,1.6c-0.2,0-0.4-0.1-0.6-0.4
	c0-1.6-0.5-4.3-2.3-6L128,6.4L128,6.4z"/>
<path class="st0" d="M147.5,2.6c-0.1,0.2-0.3,0.3-0.7,0.3h-0.5c-0.4,1.4-1,2.5-1.9,3.4c0.9,0.6,1.9,1.1,3.3,1.4l-0.1,0.2
	c-0.4,0.1-0.8,0.5-0.9,1c-1.3-0.4-2.3-1.1-3.1-1.9c-0.9,0.7-2,1.2-3.4,1.7l-0.1-0.3c1.3-0.5,2.3-1.2,3-2c-0.6-0.8-1-1.7-1.3-2.7
	c-0.3,0.4-0.6,0.8-0.9,1.1l0.5,0.3c-0.1,0.2-0.3,0.3-0.7,0.3h-1.2c-0.1,0.5-0.1,1-0.1,1.3h0.2l0.5-0.7l1,0.8
	c-0.1,0.2-0.3,0.3-0.7,0.3h-1.2c-0.1,0.6-0.2,1-0.4,1.2l1.2,0.7c-0.1,0.1-0.1,0.1-0.2,0.1c-0.1,0-0.2,0-0.3-0.1
	c-0.5,0.3-1.3,0.6-2,1c0.3,0.2,0.4,0.5,0.4,0.8c0,0.3-0.2,0.5-0.5,0.5c-0.1,0-0.2,0-0.3-0.1c-0.5-0.6-1.6-1.3-2.4-1.7l0-0.2
	c1.1-0.1,1.9,0.1,2.4,0.4c0.4-0.3,0.7-0.7,1-1c-0.1,0-0.3,0-0.4,0c0-0.5-0.4-0.8-1-0.8V7.6c0.3,0,0.9,0,1.1,0c0.2,0,0.3,0,0.4-0.6
	h-3.6l-0.1,0.8c-0.2,0.1-0.3,0.1-0.5,0.1c-0.1,0-0.3,0-0.6-0.1c0.1-0.8,0.3-1.7,0.4-2.5h-1.2L132.6,5h1.4c0.1-0.7,0.2-1.3,0.3-1.8
	c-0.4,0.4-0.8,0.8-1.2,1L132.8,4c0.6-0.8,1.3-2.1,1.7-3.4l1.5,0.6c-0.1,0.2-0.2,0.3-0.6,0.2c-0.1,0.2-0.2,0.4-0.3,0.5h3.5l0.7-0.9
	l1.3,0.9c-0.1,0.2-0.3,0.3-0.7,0.3h-5c-0.2,0.2-0.3,0.4-0.5,0.6l1,0.4h3l0.5-0.6l1.2,1c-0.1,0.1-0.3,0.2-0.6,0.2l0,1.1h0.3l0.5-0.7
	l0.3,0.2c0.5-0.9,1-2.4,1.3-3.9l1.7,0.5c-0.1,0.2-0.2,0.3-0.6,0.3c-0.2,0.4-0.4,0.9-0.6,1.3h3l0.7-0.9L147.5,2.6L147.5,2.6z
	 M137.9,13.6c-0.1,0.1-0.2,0.1-0.3,0.1c-0.1,0-0.2,0-0.3-0.1c-1,0.6-2.9,1.3-4.5,1.6l-0.1-0.3c1.4-0.6,3.1-1.6,3.9-2.4L137.9,13.6z
	 M138.6,11.6c1.8,0,3.8-0.1,5.9-0.1c-0.5-0.4-1-0.7-1.5-0.9l0-0.2c2.8,0.2,3.8,1.3,3.8,2c0,0.3-0.2,0.5-0.5,0.5
	c-0.1,0-0.2,0-0.3-0.1c-0.2-0.3-0.6-0.7-1-1c-1.2,0.1-2.7,0.2-4.4,0.4v3c0,0.1-0.4,0.3-1.1,0.3h-0.2v-3.2c-1.5,0.1-3.1,0.2-5,0.3
	c-0.1,0.2-0.3,0.3-0.4,0.3l-0.8-1.4c1,0,2.5,0,4.4,0c1.6-0.8,3.5-2,4.5-2.9l1.3,1c-0.1,0.1-0.2,0.1-0.3,0.1c-0.1,0-0.2,0-0.3-0.1
	C141.7,10.3,140.1,11,138.6,11.6L138.6,11.6L138.6,11.6z M136,6.7c0.1-0.4,0.1-0.9,0.2-1.3h-1.3c-0.1,0.4-0.1,0.9-0.2,1.3H136z
	 M136.2,5c0.1-0.5,0.1-0.9,0.1-1.3h-1.2c0,0.4-0.1,0.8-0.2,1.3H136.2z M136.9,6.7h1.4c0.1-0.3,0.1-0.8,0.1-1.3h-1.4L136.9,6.7z
	 M138.5,5c0-0.4,0.1-0.8,0.1-1.3h-1.3L137.1,5H138.5z M142.1,3.3c0.4,1,0.9,1.8,1.6,2.4c0.6-0.8,1-1.7,1.2-2.8h-2.6L142.1,3.3
	L142.1,3.3z M142.2,12.8c3.6,0.2,4.7,1.4,4.7,2c0,0.3-0.2,0.5-0.5,0.5c-0.1,0-0.2,0-0.3,0c-0.6-0.7-2.1-1.6-4-2.2L142.2,12.8
	L142.2,12.8z"/>
<path class="st0" d="M163.6,7.4c-0.1,0.2-0.3,0.3-0.8,0.3h-2.5V10h0.4l0.7-0.9l1.4,1c-0.1,0.2-0.3,0.3-0.8,0.3h-5.5v2h4.3l0.8-1
	l1.5,1.1c-0.1,0.2-0.3,0.3-0.8,0.3h-5.9v2.4c0,0.1-0.4,0.4-1.1,0.4h-0.2v-2.8H149l-0.1-0.3h6.5v-2h-5.8l-0.1-0.4h2.2V7.7h-3.1
	l-0.1-0.3h3.2V5.2h-2l-0.1-0.4h10.7l0.7-0.9l1.4,0.9c-0.1,0.2-0.3,0.3-0.7,0.3h-1.4v2.2h1l0.8-1L163.6,7.4L163.6,7.4z M152.8,2.8
	h-4.1l-0.1-0.4h4.1V0.6l1.9,0.1c0,0.2-0.1,0.3-0.6,0.4v1.3h3.9V0.6l1.9,0.1c0,0.2-0.1,0.3-0.6,0.4v1.3h1.9l0.8-1.1l1.5,1.1
	c-0.1,0.2-0.3,0.3-0.7,0.3h-3.5V4c0,0-0.2,0.4-1.3,0.4V2.8h-3.9v1.3c0,0-0.1,0.3-1.3,0.3L152.8,2.8L152.8,2.8z M153,5.2v2.2h2.4V5.2
	H153z M153,10h2.4V7.7H153V10z M159.1,5.2h-2.4v2.2h2.4V5.2z M159.1,10V7.7h-2.4V10H159.1z"/>
<path class="st0" d="M169.9,10.2l0.1,0.2c-1,0.5-2.4,1.3-4.3,2.2c-0.1,0.2-0.2,0.4-0.4,0.4l-0.7-1.7c0.4-0.1,1-0.2,1.8-0.4V5.4h-1.6
	L164.6,5h1.7V0.9l2,0.2c0,0.3-0.2,0.3-0.7,0.4V5h0.3l0.7-1.1l1.3,1.1c-0.1,0.2-0.3,0.3-0.7,0.3h-1.6v5.3L169.9,10.2L169.9,10.2z
	 M179.1,12.3l0,1.8c0.5,0.2,0.5,0.2,0.5,0.4c0,0.5-0.4,0.8-1.6,0.8h-1.8c-1.3,0-1.5-0.3-1.5-1.4v-2.6h-0.8c-0.1,0.1-0.2,0.1-0.4,0.1
	c-0.3,1.9-1.2,3.5-5.3,4.2l-0.2-0.3c3.4-0.8,3.9-2.4,4.1-4h-0.4v0.3c0,0-0.2,0.5-1.3,0.5V6.6l1.4,0.6h4.9l0.5-0.7l1.6,1.1
	c-0.1,0.1-0.4,0.3-0.7,0.3v3.6c0,0-0.4,0.4-1.3,0.4v-0.6h-0.5c-0.1,0-0.2,0.1-0.4,0.1v2.5c0,0.4,0,0.4,0.4,0.4h1.6
	c0.3,0,0.3,0,0.4-0.2c0.1-0.2,0.3-0.9,0.5-1.7H179.1L179.1,12.3z M169.9,2.9l-0.1-0.4h3.8v-2l2,0.2c0,0.2-0.2,0.3-0.7,0.4v1.3h2
	l0.8-1.1l1.5,1.1c-0.1,0.2-0.3,0.3-0.8,0.3h-2l1.4,0.5c-0.1,0.2-0.2,0.2-0.6,0.2c-0.4,0.5-1,1.3-1.6,1.9h1.7l0.8-1.1l1.5,1.1
	c-0.1,0.2-0.3,0.3-0.8,0.3h-9.6l-0.1-0.3h3c-0.1,0-0.2-0.1-0.3-0.3c0-0.1,0-0.2,0-0.3c0-0.7-0.2-1.4-0.6-1.9l0.1-0.1
	c1.3,0.5,1.8,1.2,1.8,1.7c0,0.4-0.2,0.7-0.5,0.8h2.4c0.3-0.8,0.5-1.8,0.8-2.6H169.9L169.9,2.9z M176.8,7.5h-5.2V9h5.2V7.5z
	 M171.6,10.9h5.2V9.4h-5.2V10.9z"/>
<path class="st0" d="M181,15.7c0.6-0.3,1-0.8,1.1-1.6c-0.1,0-0.2,0-0.3,0c-0.6,0-1.1-0.5-1.1-1.1c0-0.7,0.5-1.2,1.1-1.2
	c0.7,0,1.2,0.5,1.2,1.4c0,1.1-0.8,2.4-1.9,2.8L181,15.7L181,15.7z"/>
<path class="st0" d="M201.5,8.2l1.4,1.2c-0.1,0.1-0.3,0.2-0.6,0.2c-0.4,1.2-1,2.3-1.9,3.2c0.9,0.6,2,1.1,3.1,1.4l0,0.2
	c-0.5,0.1-0.9,0.5-1.1,1.1c-1.1-0.5-2.1-1.1-2.9-1.9c-0.9,0.7-2,1.3-3.4,1.8l-0.1-0.3c1.2-0.6,2.1-1.3,2.9-2.2
	c-0.9-1-1.5-2.2-1.9-3.7h-1.4v5.9c0,0.1-0.4,0.4-1,0.4h-0.2v-2.6c-1.1,0.4-2.5,0.8-4.5,1.4c-0.1,0.2-0.2,0.3-0.4,0.4l-0.9-1.5
	c0.4,0,1.1-0.1,1.8-0.2V7.4h-1.6l-0.1-0.4h12.5l0.8-1.1l1.5,1.2c-0.1,0.2-0.3,0.3-0.8,0.3h-7.2V9h5.2L201.5,8.2L201.5,8.2z
	 M192.2,5.6v0.3c0,0-0.2,0.5-1.3,0.5V1l1.4,0.6h7.3l0.6-0.7l1.6,1.1c-0.1,0.1-0.3,0.3-0.7,0.3v3.6c0,0-0.4,0.4-1.3,0.4V5.6H192.2z
	 M194.3,7.4h-2.7v1.5h2.7V7.4z M191.5,9.3v1.5h2.7V9.3H191.5z M191.5,11.1v1.7c0.8-0.1,1.8-0.2,2.7-0.3v-1.4H191.5z M199.8,1.9h-7.6
	v1.4h7.6V1.9z M192.2,5.2h7.6V3.7h-7.6V5.2z M197.2,9.3c0.5,1.2,1.2,2.1,2.2,2.9c0.6-0.9,1.1-1.9,1.3-2.9H197.2z"/>
<path class="st0" d="M206.2,2.9h-1.6l-0.1-0.3h1.7v-2l1.7,0.1c0,0.2-0.1,0.3-0.5,0.4v1.5h1.8v-2l1.7,0.1c0,0.2-0.1,0.3-0.5,0.4v1.5
	h0.5l0.6-0.8l1.1,0.9c-0.1,0.2-0.3,0.3-0.7,0.3h-1.6v1.2c0,0.1-0.3,0.3-0.9,0.3h-0.2V2.9h-1.8v1.3c0,0.1-0.3,0.3-1.1,0.3L206.2,2.9
	L206.2,2.9z M210,11.1l0.7-0.9l1.3,0.9c-0.1,0.2-0.3,0.3-0.7,0.3h-2.8c-0.1,0.2-0.1,0.4-0.2,0.7c2.2,0.4,2.9,1.3,2.9,2
	c0,0.4-0.2,0.7-0.6,0.7c-0.1,0-0.3-0.1-0.4-0.2c-0.3-0.8-1.2-1.7-2-2.2c-0.6,1.2-1.6,2.2-3.4,3.1l-0.2-0.2c1.6-1.1,2.4-2.4,2.8-3.8
	h-2.7l-0.1-0.4h2.9c0.1-0.5,0.1-0.9,0.2-1.4h-2.5L205,9.4h2.6c0-0.2,0-0.4,0-0.6V8h-1.3v0.2c0,0-0.2,0.4-1.1,0.4v-4l1.2,0.5h3.6
	l0.5-0.6l1.3,0.9c-0.1,0.1-0.3,0.2-0.5,0.2V8c0,0-0.3,0.4-1.1,0.4V8h-1.4v0.8c0,0.2,0,0.4,0,0.6h1.1l0.6-0.8l1.2,0.9
	c-0.1,0.2-0.3,0.3-0.7,0.3h-2.2c0,0.5-0.1,0.9-0.2,1.4H210L210,11.1z M206.4,7.6h1.3V5.4h-1.3V7.6z M210.1,5.4h-1.4v2.2h1.4V5.4z
	 M218.2,12.9l1.4,1.1c-0.1,0.2-0.3,0.3-0.8,0.3h-4.9v0.9c0,0.1-0.4,0.4-1,0.4h-0.2v-9c-0.4,0.6-0.8,1.1-1.2,1.5l-0.3-0.1
	c1-1.6,1.9-4.5,2.3-7.3l1.8,0.4c-0.1,0.2-0.2,0.3-0.6,0.3c-0.3,1-0.6,1.9-0.9,2.8l0.2,0.1h1.5c0.2-1,0.5-2.4,0.6-3.3l1.9,0.4
	c-0.1,0.2-0.2,0.3-0.6,0.3c-0.4,0.8-0.9,1.8-1.5,2.6h1.2l0.7-1l1.4,1c-0.1,0.2-0.3,0.3-0.8,0.3h-2v2.8h0.6l0.7-0.9l1.2,0.9
	c-0.1,0.2-0.3,0.3-0.7,0.3h-1.8v2.8h0.6l0.7-0.9l1.3,1c-0.1,0.2-0.3,0.3-0.8,0.3h-1.8v3h0.8L218.2,12.9L218.2,12.9z M215.5,4.6h-1.6
	v2.8h1.6V4.6z M215.5,10.6V7.7h-1.6v2.8H215.5z M213.9,10.9v3h1.6v-3H213.9z"/>
<path class="st0" d="M220.4,9.8c1.5-1.7,3-4.2,3.7-5.9l1.8,0.9c-0.1,0.1-0.2,0.2-0.4,0.2c-0.1,0-0.1,0-0.2,0
	c-0.4,0.5-0.8,1.2-1.4,1.8l0.5,0.2c-0.1,0.1-0.2,0.2-0.5,0.3v7.9c0,0.1-0.5,0.4-1,0.4h-0.2V8.1c-0.6,0.7-1.3,1.3-2.1,1.8L220.4,9.8
	L220.4,9.8z M220.4,4.8c1.2-1.2,2.6-3,3.3-4.1l1.6,1c-0.1,0.1-0.2,0.2-0.3,0.2c-0.1,0-0.2,0-0.3,0c-0.9,1-2.6,2.3-4.2,3.2L220.4,4.8
	L220.4,4.8z M234.1,9.2l1.4,1.1c-0.1,0.2-0.3,0.3-0.8,0.3h-2.2v3.3c0,0.9-0.2,1.6-1.9,1.7c0-0.9-0.5-1.1-1.7-1.2v-0.2h1.9
	c0.2,0,0.3-0.1,0.3-0.3v-3.3h-6.1l-0.1-0.4h6.2V8.3l1.9,0.1c0,0.2-0.1,0.3-0.6,0.4v1.3h0.7L234.1,9.2L234.1,9.2z M233.1,7.9l0.8-1
	l1.5,1.1c-0.1,0.2-0.3,0.3-0.8,0.3h-9.2l-0.1-0.4H233.1L233.1,7.9z M226.6,11.1c2,0.5,2.6,1.4,2.6,2c0,0.4-0.3,0.8-0.7,0.8
	c-0.2,0-0.4-0.1-0.5-0.2c-0.1-0.8-0.8-1.9-1.5-2.5L226.6,11.1z M227.9,6.2v0.5c0,0.1-0.4,0.4-1,0.4h-0.2V0.9l1.4,0.6h4.1l0.6-0.7
	l1.4,1.1c-0.1,0.1-0.3,0.2-0.6,0.3v4.5c0,0.1-0.4,0.3-1.1,0.3h-0.2V6.2L227.9,6.2L227.9,6.2z M232.4,1.8h-4.5v1.8h4.5V1.8z
	 M227.9,5.8h4.5V4h-4.5V5.8z"/>
<path class="st0" d="M241.8,2.9l1.5,1.1c-0.1,0.1-0.4,0.3-0.7,0.3v8.9c0,0-0.4,0.4-1.2,0.4v-1.3h-3v1.4c0,0-0.1,0.5-1.2,0.5V3
	l1.3,0.6h0.4c0.2-0.8,0.4-2,0.6-2.9l2,0.4c-0.1,0.2-0.2,0.3-0.6,0.4c-0.3,0.6-0.9,1.5-1.3,2.2h1.7L241.8,2.9L241.8,2.9z M241.4,4h-3
	v3.7h3V4z M238.4,12h3V8h-3V12z M250,2.8l1.5,1.2c-0.1,0.1-0.3,0.2-0.7,0.3c-0.1,6.1-0.3,9.7-1.1,10.5c-0.5,0.5-1,0.7-2,0.7
	c0-0.7-0.1-1.1-1.9-1.3l0-0.3c0.7,0,1.8,0.1,2.3,0.1c0.3,0,0.4,0,0.6-0.2c0.6-0.6,0.8-4.2,0.9-9.8h-3.9c-0.7,1.6-1.5,3.1-2.5,4.1
	L242.9,8c0.9-1.7,1.8-4.6,2.3-7.3l1.9,0.5c-0.1,0.2-0.2,0.3-0.6,0.3c-0.2,0.8-0.5,1.5-0.8,2.2h3.6L250,2.8L250,2.8z M244.8,7
	c2.3,0.9,3,2,3,2.8c0,0.5-0.3,0.9-0.7,0.9c-0.2,0-0.4-0.1-0.6-0.3c-0.1-1.1-1-2.5-1.8-3.3L244.8,7L244.8,7z"/>
<path class="st0" d="M260.6,11v2.8c0.7,0.1,1.5,0.1,2.4,0.1c1,0,3.3,0,4.4,0v0.2c-0.5,0.1-0.7,0.5-0.7,1h-3.7
	c-3.5,0-5.5-0.6-6.7-3.3c-0.7,1.4-1.8,2.8-3.5,3.6l-0.2-0.2c1.9-1.4,2.8-3.9,3.1-6l2,0.4c-0.1,0.2-0.2,0.3-0.6,0.3
	c-0.1,0.5-0.3,1.1-0.5,1.6c0.7,1.2,1.7,1.8,2.9,2.2V8.3h-6.7L252.6,8h12.4l0.8-1.1l1.6,1.2c-0.1,0.2-0.3,0.3-0.8,0.3h-5.9v2.4h3.1
	l0.8-1.1l1.5,1.1c-0.1,0.2-0.3,0.3-0.8,0.3H260.6L260.6,11z M256.5,6.3v0.5c0,0-0.2,0.4-1.3,0.4V1l1.4,0.6h6.4l0.6-0.7l1.6,1.1
	c-0.1,0.1-0.4,0.3-0.7,0.3v4.4c0,0-0.4,0.4-1.3,0.4V6.3L256.5,6.3L256.5,6.3z M263.2,2h-6.7v1.8h6.7V2z M256.5,5.9h6.7V4.1h-6.7V5.9
	z"/>
<path class="st0" d="M271.6,7.8c0.6-0.2,1.2-0.4,1.8-0.6l0.1,0.2l-1.9,1.2v5.1c0,0.9-0.2,1.6-1.7,1.8c0-0.9-0.4-1.1-1.5-1.2V14h1.7
	c0.2,0,0.3-0.1,0.3-0.3V9.4c-0.3,0.2-0.6,0.4-1,0.6c0,0.2-0.2,0.4-0.3,0.4l-0.8-1.5c0.4-0.1,1.2-0.3,2.1-0.6V4.5h-1.9l-0.1-0.3h2
	V0.6l1.9,0.2c0,0.2-0.1,0.3-0.7,0.4v2.9h0.3l0.6-1l1.2,1.1c-0.1,0.2-0.3,0.3-0.7,0.3h-1.4V7.8L271.6,7.8z M282.3,13.2l1.2,1
	c-0.1,0.2-0.3,0.3-0.7,0.3h-4v0.7c0,0.1-0.4,0.4-0.9,0.4h-0.2V9.8c-0.1,0.2-0.2,0.2-0.6,0.2c-0.5,2.1-1.6,4.3-4.4,5.5l-0.2-0.3
	c1.7-1,2.7-2.6,3.1-4.2c-0.6,0.2-1.3,0.5-2.2,0.9c-0.1,0.2-0.2,0.3-0.4,0.3l-0.7-1.4c0.3,0,0.7,0,1.2-0.1c0.4-0.6,0.9-1.3,1.3-2h0
	c-0.1,0.1-0.2,0.1-0.4,0.1c-0.1,0-0.3-0.1-0.5-0.2c-0.1-0.8-0.7-1.7-1.3-2.3l0.1-0.1c0.5,0.1,0.9,0.3,1.2,0.5
	c0.4-0.8,0.8-1.7,1.1-2.7l1.6,0.6c-0.1,0.1-0.2,0.2-0.4,0.2c-0.1,0-0.1,0-0.2,0c-0.5,0.8-1.1,1.5-1.7,2.1c0.5,0.4,0.6,0.8,0.6,1.1
	c0,0.1,0,0.1,0,0.2h0c0.4-0.7,0.8-1.4,1-2l1.5,0.7c0.4-0.9,0.7-2,1-3.1l1.7,0.5c-0.1,0.2-0.2,0.3-0.6,0.3c-0.3,0.7-0.6,1.3-0.9,1.9
	l0.3,0.1h1.1c0.3-0.8,0.6-1.9,0.8-2.7l1.7,0.5c-0.1,0.2-0.2,0.2-0.6,0.2c-0.3,0.6-0.9,1.4-1.4,2h1.1l0.6-0.8l1.2,0.9
	c-0.1,0.2-0.3,0.3-0.7,0.3h-1.5v2h0.5l0.5-0.8l1,0.9c-0.1,0.2-0.3,0.3-0.7,0.3h-1.3v2.1h0.5l0.5-0.8l1,0.9c-0.1,0.2-0.3,0.3-0.7,0.3
	h-1.3v2.2h0.6L282.3,13.2L282.3,13.2z M273.3,3.5l-0.1-0.4h4V0.6l1.9,0.2c0,0.2-0.2,0.3-0.6,0.4v2h2.6l0.8-1l1.5,1.1
	c-0.1,0.2-0.3,0.3-0.8,0.3H273.3z M277.5,7c-0.1,0.1-0.2,0.1-0.3,0.1c-0.1,0-0.2,0-0.3,0c-0.7,1.1-1.8,2.5-2.9,3.6
	c0.5-0.1,1.1-0.1,1.7-0.1c0.1-0.4,0.1-0.7,0.2-1.1l1.7,0.3V8.2c-0.3,0.4-0.7,0.8-1,1.1l-0.2-0.2C276.8,8.6,277.2,7.8,277.5,7
	L277.5,7L277.5,7z M280,7.1h-1.3v2h1.3V7.1z M280,11.6V9.5h-1.3v2.1H280z M278.7,12v2.2h1.3V12H278.7z"/>
<path class="st0" d="M286.9,10.2c-0.1,0.2-0.1,0.3-0.5,0.3c-0.4,1.4-1,2.9-1.8,3.7l-0.3-0.1c0.5-1,0.9-2.7,1-4.2L286.9,10.2
	L286.9,10.2z M290.6,3.2c-0.1,0.1-0.2,0.2-0.4,0.2c-0.1,0-0.2,0-0.3,0c-0.8,1.3-2.1,3-3.3,4.4c0.8,0,1.7-0.1,2.7-0.1
	c-0.2-0.5-0.5-0.9-0.7-1.2l0.2-0.1c1.6,0.7,2.1,1.6,2.1,2.2c0,0.5-0.3,0.8-0.6,0.8c-0.2,0-0.4-0.1-0.5-0.3c0-0.3-0.1-0.7-0.3-1.1
	c-0.3,0.1-0.7,0.2-1.1,0.2v7c0,0.1-0.4,0.4-1,0.4h-0.2V8.4l-1.8,0.3c-0.1,0.2-0.3,0.3-0.4,0.3l-0.5-1.4c0.4,0,1,0,1.7,0
	c1-1.6,2.1-3.7,2.8-5.3L290.6,3.2L290.6,3.2z M284.5,3.3c0.5,0.1,0.9,0.3,1.3,0.5c0.4-0.9,0.8-2,1.1-3.1l1.8,0.6
	c-0.1,0.2-0.2,0.3-0.6,0.2c-0.6,0.8-1.3,1.8-1.9,2.5c0.5,0.4,0.7,0.8,0.7,1.1c0,0.4-0.3,0.7-0.6,0.7c-0.1,0-0.3-0.1-0.5-0.2
	c-0.2-0.7-0.8-1.6-1.4-2.2L284.5,3.3L284.5,3.3z M289,9.8c1.4,0.9,1.8,1.8,1.8,2.4c0,0.5-0.3,0.9-0.7,0.9c-0.2,0-0.3-0.1-0.5-0.3
	c0-0.9-0.4-2.2-0.8-3L289,9.8L289,9.8z M298.7,12.3l0,1.8c0.5,0.2,0.5,0.3,0.5,0.5c0,0.5-0.4,0.8-1.7,0.8h-1.8
	c-1.3,0-1.6-0.4-1.6-1.9v-2.7h-1.8v1c0,0-0.2,0.4-1.2,0.4V5.1l1.7,0.2c0,0.2-0.1,0.3-0.6,0.3v4.7h1.8V3.8c-1.2,0.2-2.5,0.4-3.7,0.5
	L290.4,4c1.2-0.2,2.6-0.6,3.8-1V0.6l1.9,0.2c0,0.3-0.2,0.3-0.7,0.4v1.3c0.9-0.3,1.7-0.7,2.3-1l1.4,1.2c-0.1,0.1-0.2,0.1-0.4,0.1
	c-0.1,0-0.3,0-0.5-0.1c-0.8,0.3-1.8,0.5-2.8,0.8v6.8h1.9V5.1l1.8,0.1c0,0.2-0.1,0.3-0.6,0.4v5.6c0,0-0.2,0.4-1.2,0.4v-0.9h-1.9v2.8
	c0,0.6,0.1,0.7,0.4,0.7h1.7c0.2,0,0.3,0,0.5-0.2c0.1-0.1,0.4-1,0.6-1.7L298.7,12.3L298.7,12.3z"/>
<path class="st0" d="M307.1,5.7l0.8,0.6c-0.1,0.2-0.3,0.3-0.8,0.3h-6.6l-0.1-0.4h2.9V4.6h-2.1l-0.1-0.3h2.2V2.8h-2.5l-0.1-0.3h2.6
	V0.6l1.9,0.2c0,0.2-0.2,0.3-0.7,0.4v1.2h1l0.7-0.9l1.4,1c-0.1,0.2-0.3,0.3-0.8,0.3h-2.3v1.5h0.8l0.6-0.8l1.2,0.9
	c-0.1,0.2-0.3,0.3-0.7,0.3h-1.9v1.6h1.2l0.7-0.9L307.1,5.7c0.5-0.9,0.9-2.5,1.1-4.1l1.3,0.3c1.3-0.4,2.7-0.9,3.5-1.4l1.3,1.3
	c-0.1,0.1-0.2,0.1-0.3,0.1c-0.2,0-0.3-0.1-0.5-0.1c-0.9,0.2-2.4,0.4-3.7,0.5c-0.1,0-0.2,0.1-0.4,0.1c-0.5,1.5-1.3,2.7-2.2,3.4
	L307.1,5.7L307.1,5.7z M306,7.3l1.5,1.1c-0.1,0.1-0.4,0.3-0.7,0.3V14c0,0.8-0.1,1.3-1.6,1.5c0-0.8-0.3-1-1.2-1.1v-0.2h1.4
	c0.2,0,0.2,0,0.2-0.2v-2.4h-3.2v3.6c0,0-0.1,0.4-1.2,0.4v-8l1.2,0.5h3L306,7.3L306,7.3z M302.3,8.4v2.7h1.1V8.4H302.3z M304.4,11.2
	h1.2V8.4h-1.2V11.2z M314.7,7.7l0.9,0.9c-0.1,0.2-0.3,0.3-0.7,0.3h-0.8v3c0,0-0.3,0.4-1.2,0.4v-0.9h-1.5v2.5c0,0.9-0.2,1.5-1.7,1.7
	c0-0.9-0.4-1.1-1.4-1.2v-0.2h1.7c0.2,0,0.3-0.1,0.3-0.2v-2.5h-2.1L308,11h2.2V8.9h-2.8l-0.1-0.4h2.9V6.5h-2l-0.1-0.3h4.7l0.5-0.7
	l1.4,1c-0.1,0.1-0.3,0.2-0.6,0.3v1.8h0.1L314.7,7.7L314.7,7.7z M310.5,2.7c1.1,0.7,1.4,1.4,1.4,1.9s-0.4,0.9-0.7,0.9
	c-0.2,0-0.4-0.1-0.5-0.3c0-0.2,0-0.3,0-0.5c0-0.6-0.2-1.4-0.4-1.8L310.5,2.7L310.5,2.7z M311.4,6.5v2.1h1.5V6.5H311.4z M312.9,11
	V8.9h-1.5V11H312.9z M312.9,2.5c1.8,0.7,2.4,1.7,2.4,2.3c0,0.5-0.3,0.8-0.6,0.8c-0.2,0-0.3-0.1-0.5-0.2c-0.1-0.9-0.8-2.1-1.4-2.8
	L312.9,2.5L312.9,2.5z"/>
</svg>
