<?xml version="1.0" encoding="utf-8"?>
<!-- Generator: Adobe Illustrator 27.0.0, SVG Export Plug-In . SVG Version: 6.00 Build 0)  -->
<svg version="1.1" id="圖層_1" xmlns="http://www.w3.org/2000/svg" xmlns:xlink="http://www.w3.org/1999/xlink" x="0px" y="0px"
	 viewBox="0 0 120 93" style="enable-background:new 0 0 120 93;" xml:space="preserve">
<style type="text/css">
	.st0{fill:#3E3A39;}
	.st1{fill:#C9A063;}
</style>
<path class="st0" d="M2.9,40.8C2.4,41.7,2,42.4,1.5,43c0.1,0,0.3,0,0.4,0c1.1,0,2.2-0.1,3.2-0.3c-0.3-0.4-0.6-0.7-0.9-1.1l0.5-0.5
	c0.7,0.8,1.3,1.5,1.7,2.3l-0.5,0.5c-0.1-0.2-0.2-0.4-0.4-0.6c-1.4,0.2-3.2,0.3-5.2,0.3l-0.1-0.8c0.2,0,0.5,0,0.7,0.1
	c0.5-0.6,1-1.4,1.5-2.4L2.9,40.8L2.9,40.8z M5.9,47.3H5.2v-0.5H1.4v0.4H0.6v-3h5.3V47.3z M5.2,46.2v-1.4H1.4v1.4H5.2z"/>
<path class="st0" d="M10.3,40.7v5c0.2-0.1,0.4-0.2,0.6-0.2v0.7c-0.9,0.4-2,0.7-3.3,1l-0.2-0.8c0.7-0.1,1.4-0.3,2.1-0.5v-2.4h-2v-0.7
	h2v-2.2L10.3,40.7L10.3,40.7z M12,40.7v2.4c0.7-0.3,1.3-0.6,1.7-1l0.4,0.6c-0.6,0.4-1.3,0.8-2.1,1.1V46c0,0.1,0,0.2,0.1,0.3
	s0.1,0.1,0.2,0.1h0.8c0.1,0,0.2,0,0.2-0.1c0.1-0.1,0.1-0.5,0.2-1.4l0.7,0.2c-0.1,0.9-0.2,1.5-0.3,1.6c-0.1,0.2-0.4,0.3-0.6,0.3h-1.1
	c-0.3,0-0.5-0.1-0.6-0.2c-0.2-0.2-0.3-0.4-0.3-0.7v-5.5L12,40.7L12,40.7z"/>
<path class="st0" d="M15.7,42.9v-0.6c0.5,0,0.9-0.1,1.1-0.3c0.2-0.1,0.4-0.4,0.5-0.9h0.6V47h-0.8v-4.2L15.7,42.9L15.7,42.9z"/>
<path class="st0" d="M23.4,42.1c0.3,0.5,0.4,1.2,0.4,2s-0.1,1.5-0.4,2c-0.4,0.8-0.9,1.1-1.7,1.1c-0.7,0-1.2-0.3-1.6-0.9
	c-0.3-0.5-0.4-1.2-0.4-2.1c0-0.7,0.1-1.2,0.3-1.7c0.3-0.9,0.9-1.4,1.8-1.4C22.5,41.1,23.1,41.5,23.4,42.1z M22.7,46.1
	c0.2-0.3,0.3-1,0.3-1.9c0-0.7-0.1-1.2-0.2-1.7c-0.2-0.4-0.5-0.7-1-0.7c-0.4,0-0.8,0.2-1,0.6c-0.2,0.4-0.3,1-0.3,1.8
	c0,0.6,0.1,1.1,0.2,1.5c0.2,0.6,0.5,0.8,1,0.8C22.1,46.6,22.5,46.4,22.7,46.1L22.7,46.1z"/>
<path class="st0" d="M25,42.9v-0.6c0.5,0,0.9-0.1,1.1-0.3c0.2-0.1,0.4-0.4,0.5-0.9h0.6V47h-0.8v-4.2L25,42.9L25,42.9z"/>
<path class="st0" d="M30.2,45.5c0,0.7-0.1,1.3-0.2,1.8l-0.6-0.2c0.2-0.5,0.3-1,0.3-1.6H30.2L30.2,45.5z M31.2,40.8
	c-0.2,0.6-0.5,1.2-0.8,1.7c0.2,0,0.4,0,0.7-0.1c0.2-0.3,0.3-0.6,0.5-1l0.6,0.2c-0.5,1.1-1.1,2.1-1.6,2.8c0.4,0,0.7-0.1,1-0.2
	c-0.1-0.2-0.1-0.5-0.2-0.7l0.5-0.2c0.2,0.5,0.3,1,0.4,1.6L31.7,45c0-0.1,0-0.2-0.1-0.3c-0.5,0.1-1.2,0.2-2.1,0.3l-0.2-0.6
	c0.2,0,0.3,0,0.4,0c0.3-0.4,0.6-0.9,1-1.5c-0.4,0.1-0.9,0.1-1.3,0.2l-0.1-0.6c0.1,0,0.3,0,0.4,0c0.3-0.6,0.6-1.2,0.9-2L31.2,40.8
	L31.2,40.8z M31.2,46.9h-0.6c0-0.6-0.1-1.1-0.1-1.5H31C31.1,45.8,31.1,46.3,31.2,46.9z M32.2,46.6l-0.6,0.2c-0.1-0.5-0.2-1-0.3-1.4
	l0.5-0.1C32,45.7,32.1,46.1,32.2,46.6z M33.8,41.5v-0.9h0.7v0.9H36v0.6h-1.5V43h1.3v0.6h-3.3V43h1.3v-0.9h-1.6v-0.6H33.8L33.8,41.5z
	 M35.7,47.2h-0.6v-0.3h-1.9v0.3h-0.6v-2.9h3.2L35.7,47.2L35.7,47.2z M35.1,46.3v-1.4h-1.9v1.4H35.1z"/>
<path class="st0" d="M37.9,42v-1.4h0.6V42h0.6v0.6h-0.6v0.2c0.2,0.3,0.5,0.6,0.7,1l-0.4,0.6c-0.1-0.3-0.3-0.5-0.4-0.8v3.6h-0.6v-3.3
	c-0.2,0.5-0.4,0.9-0.6,1.3l-0.3-0.8c0.3-0.5,0.6-1.1,0.8-1.8h-0.8V42H37.9L37.9,42z M40.1,41.1v-0.5h0.6v0.5h1.2v-0.5h0.6v0.5h1v0.5
	h-1v0.3h0.8v0.6h-0.7v0.4h1.1v0.5h-2v0.3h1.6v1.8h0.4V46h-0.4v0.6c0,0.2-0.1,0.4-0.2,0.5c-0.1,0.1-0.2,0.1-0.4,0.1h-0.9l-0.1-0.6
	h0.8c0.1,0,0.2-0.1,0.2-0.2V46h-2.6v1.2h-0.6V46h-0.6v-0.5h0.6v-1.8h1.6v-0.3h-1.9v-0.5h0.9v-0.4h-0.7V42h0.7v-0.3h-0.9v-0.5h0.9
	V41.1z M41,44.6v-0.4h-0.9v0.4H41z M41,45.4V45h-0.9v0.4H41z M41.9,41.6h-1.2v0.3h1.2V41.6z M41.9,42.8v-0.4h-1.2v0.4H41.9z
	 M41.7,44.6h1v-0.4h-1V44.6z M42.7,45.4V45h-1v0.4H42.7z"/>
<path class="st0" d="M48.1,41.2c-0.8,0.2-1.6,0.2-2.5,0.2v0.3h2.5v1.5h-1.8l0.3,0.1c-0.1,0.2-0.1,0.3-0.2,0.5h0.7
	c-0.1-0.1-0.1-0.2-0.2-0.4l0.5-0.2c0.1,0.2,0.2,0.3,0.3,0.5h0.6v0.5h-0.7v0.3h0.6V45h-0.6v0.4h0.6v0.4h-0.6v0.4h0.7v0.5h-1.9v0.4
	h-0.5v-2.5c-0.1,0.1-0.1,0.2-0.2,0.3l-0.1-0.4c0,0.4-0.1,0.8-0.1,1.2c-0.1,0.5-0.2,1.1-0.3,1.6l-0.4-0.5c0.1-0.4,0.2-0.8,0.2-1.3
	s0.1-1,0.1-1.6V41c1.1,0,2-0.1,2.8-0.3L48.1,41.2L48.1,41.2z M45.9,43.8c0.1-0.1,0.2-0.3,0.3-0.6h-0.6v0.7c0,0.1,0,0.2,0,0.3
	C45.7,44,45.8,43.9,45.9,43.8z M47.5,42.7v-0.5h-1.9v0.5H47.5z M47.1,44.3h-0.6v0.3h0.6V44.3z M47.1,45.1h-0.6v0.4h0.6V45.1z
	 M47.1,46.3v-0.4h-0.6v0.4H47.1z M51.3,40.8v0.6h-1.2c0,0.2-0.1,0.4-0.1,0.6h1.1v3.8h-2.6V42h0.9c0.1-0.2,0.1-0.4,0.2-0.6h-1.2v-0.6
	H51.3z M49.6,46.1c-0.2,0.4-0.4,0.8-0.7,1.1l-0.5-0.4c0.3-0.3,0.5-0.6,0.7-1L49.6,46.1L49.6,46.1z M50.5,43.1v-0.6h-1.4V43
	L50.5,43.1L50.5,43.1z M50.5,44.1v-0.6h-1.4v0.6H50.5z M50.5,44.6h-1.4v0.6h1.4V44.6z M51.3,46.8l-0.5,0.5c-0.2-0.3-0.5-0.6-0.9-1
	l0.4-0.4C50.8,46.2,51.1,46.5,51.3,46.8L51.3,46.8z"/>
<path class="st0" d="M55.4,43.5h-2.1v3.7h-0.6v-6.4h2.8L55.4,43.5L55.4,43.5z M54.8,41.9v-0.5h-1.5v0.5H54.8z M54.8,43v-0.5h-1.5V43
	H54.8z M57.1,44.1v2h-2.9v-2H57.1z M56.5,44.7h-1.6v0.8h1.6V44.7z M55.9,40.8h2.8v5.6c0,0.2-0.1,0.4-0.2,0.6
	c-0.1,0.1-0.2,0.2-0.4,0.2H57l-0.1-0.7l1,0.1c0.1,0,0.2-0.1,0.2-0.3v-2.8h-2.2V40.8L55.9,40.8z M58.1,41.9v-0.5h-1.5v0.5H58.1z
	 M58.1,42.5h-1.5V43h1.5V42.5z"/>
<path class="st0" d="M2.1,51.1c-0.2,0-0.7,0.1-1.2,0.1v0.4H2v0.5H0.9v0.4H2V53H0.9v0.4h4.5V53H4.3v-0.5h1.1v-0.3H4.3v-0.5h1.1v-0.4
	H4.3v-0.6h1.8v2.7h0.3v1.4H5.8v-0.9H0.7v0.9H0v-1.4h0.3v-2.6c0.5,0,1-0.1,1.6-0.2L2.1,51.1L2.1,51.1z M5.3,54.4v0.5
	c-0.5,0.2-1,0.4-1.7,0.6h2.7v0.6H3.6v0.6c0,0.1,0,0.3-0.1,0.3c-0.1,0.1-0.2,0.2-0.4,0.2H2l-0.1-0.6c0.2,0,0.5,0,0.8,0
	c0.1,0,0.2-0.1,0.2-0.1V56H0.1v-0.5h2.8v-0.2c0.4-0.1,0.8-0.2,1.3-0.4h-3v-0.5L5.3,54.4L5.3,54.4z M4.2,50.8C4,51,3.9,51.1,3.8,51.2
	c0.1,0.1,0.2,0.2,0.3,0.3l-0.4,0.4c-0.1-0.1-0.3-0.2-0.4-0.3c-0.2,0.1-0.5,0.3-0.9,0.4l-0.3-0.5c0.2-0.1,0.5-0.2,0.7-0.3
	c-0.2-0.1-0.3-0.2-0.5-0.3l0.3-0.3C2.8,50.7,3,50.9,3.2,51c0.1-0.1,0.3-0.2,0.4-0.4L4.2,50.8z M4.3,52.2c-0.2,0.2-0.4,0.4-0.5,0.5
	c0.1,0.1,0.3,0.2,0.4,0.3l-0.4,0.4c-0.1-0.1-0.3-0.3-0.5-0.4c-0.2,0.1-0.5,0.3-0.8,0.4l-0.3-0.5c0.2-0.1,0.4-0.1,0.7-0.3
	c-0.1-0.1-0.3-0.2-0.5-0.3L2.7,52c0.2,0.1,0.4,0.2,0.5,0.4c0.2-0.1,0.4-0.3,0.5-0.4L4.3,52.2L4.3,52.2z"/>
<path class="st0" d="M14.1,51.3H8.7v2.5c0,0.5,0,1-0.1,1.6s-0.2,1.1-0.4,1.7l-0.6-0.6c0.2-0.4,0.3-0.9,0.4-1.4
	c0.1-0.5,0.1-1,0.1-1.4v-3h6.1v0.6H14.1z M11.8,54.9v0.5h1.9v0.5h-1.9v0.6h2.4v0.6H8.7v-0.6h0.9v-1.2h0.6v1.2h0.9v-1.6H11.8
	L11.8,54.9z M11.4,52c-0.2,0.1-0.5,0.1-0.9,0.2v0.5h0.7v0.5h-0.7l0,0c0.3,0.2,0.6,0.4,0.9,0.6l-0.3,0.5c-0.2-0.2-0.4-0.3-0.6-0.5
	v1.1H9.9v-1.1c-0.2,0.3-0.5,0.6-0.8,0.8l-0.3-0.5c0.5-0.3,0.9-0.6,1.1-1h-1v-0.5H10v-0.4c-0.3,0-0.6,0-0.9,0l-0.2-0.5
	c0.9,0,1.6-0.1,2.2-0.2L11.4,52L11.4,52z M13.9,52c-0.3,0.1-0.6,0.2-1,0.2v0.4h1.2v0.5h-1.2v0.1c0.4,0.3,0.8,0.6,1.2,1l-0.3,0.5
	c-0.4-0.4-0.7-0.6-0.9-0.8V55h-0.6v-1.1c-0.2,0.4-0.5,0.7-0.8,0.9l-0.3-0.5c0.4-0.3,0.8-0.6,1-1h-0.7v-0.5h0.8v-0.4
	c-0.2,0-0.5,0-0.7,0l-0.2-0.5c0.9,0,1.6-0.1,2.2-0.2L13.9,52z"/>
<path class="st0" d="M18.1,52.9V52H19v0.9H18.1z M18.1,55.5v-0.9H19v0.9H18.1z"/>
<path class="st0" d="M6.2,67.1H5.6v-0.2H0.8v0.2H0.2v-6.4h6L6.2,67.1L6.2,67.1z M5.6,66.3v-5.1H0.8v5.1H5.6z M3.4,65.2
	c-0.6,0.2-1.4,0.3-2.2,0.5l-0.1-0.6c0.8-0.1,1.6-0.2,2.4-0.4L3.4,65.2L3.4,65.2z M3.4,62c0-0.2,0-0.4,0-0.7H4c0,0.2,0,0.5,0,0.7h0.7
	c-0.1-0.2-0.2-0.4-0.3-0.5l0.5-0.2c0.1,0.2,0.2,0.4,0.3,0.6L4.9,62h0.5v0.5H3.9C3.9,63,4,63.3,4,63.6c0,0.2,0.1,0.5,0.2,0.7
	c0.2-0.4,0.4-0.9,0.7-1.6L5.4,63c-0.3,0.9-0.6,1.5-0.9,1.9l0,0c0,0,0,0.1,0.1,0.1c0.1,0.2,0.2,0.3,0.3,0.3c0,0,0.1-0.3,0.2-0.8
	l0.5,0.4c-0.2,0.5-0.3,0.9-0.3,0.9C5.2,65.9,5.1,66,5,66c-0.2,0-0.4-0.1-0.6-0.4c-0.1-0.1-0.1-0.2-0.2-0.3C4,65.6,3.7,65.8,3.4,66
	l-0.3-0.5C3.5,65.2,3.8,65,4,64.7c-0.1-0.2-0.2-0.5-0.3-0.8c-0.1-0.4-0.2-0.9-0.2-1.5H1.2v-0.5h2.2V62z M3,62.9v1.7H1.3v-1.7
	C1.3,62.9,3,62.9,3,62.9z M2.5,63.4H1.8v0.7h0.7V63.4z"/>
<path class="st0" d="M13.5,66.2v0.7H7.1v-0.7H13.5z M13.4,61.9v0.6H7.3v-0.6H13.4z M9.7,65.7l-0.8,0.2c-0.2-1-0.4-2-0.7-2.9l0.7-0.2
	C9.3,63.7,9.5,64.6,9.7,65.7L9.7,65.7z M10.9,61.3l-0.5,0.5c-0.3-0.3-0.7-0.6-1.2-0.9l0.4-0.4C10.2,60.8,10.6,61.1,10.9,61.3
	L10.9,61.3z M12.4,63c-0.2,1.1-0.5,2.1-0.8,3l-0.7-0.2c0.3-0.8,0.6-1.7,0.8-2.9L12.4,63z"/>
<path class="st0" d="M17.1,61.9v-1.4h0.7v1.4h2.5v3.4h-2.5v1.8h-0.7v-1.8h-2.5v-3.4H17.1z M17.1,62.5h-1.8v2.1h1.8V62.5z M19.6,62.5
	h-1.8v2.1h1.8V62.5z"/>
<path class="st0" d="M23.1,61.3c-0.2,0.1-0.5,0.1-0.8,0.2v0.7h0.6v0.6h-0.6v0.8H23v0.6h-0.7V65h0.8v-4.2h2.8V65h1v-0.8h-0.7v-0.7
	h0.7v-0.7h-0.7v-0.6h0.7v-0.7h-0.8v-0.7h1.4l-0.1,4.1h0.3v0.6h-6.6v-0.6h0.4v-4c0.4,0,0.8-0.1,1.2-0.3L23.1,61.3z M24,66.1
	c-0.6,0.4-1.3,0.7-2.1,1l-0.4-0.6c0.8-0.2,1.4-0.5,2.1-0.9L24,66.1z M25.4,65v-3.6h-1.6V65H25.4z M25.3,61.7v0.5H24v-0.5H25.3z
	 M25.2,62.6v2H24v-2H25.2z M24.8,63.1h-0.4v1h0.4V63.1z M27.9,66.5l-0.4,0.6c-0.7-0.4-1.4-0.7-2.2-1l0.3-0.5
	C26.5,65.9,27.2,66.2,27.9,66.5L27.9,66.5z"/>
<path class="st0" d="M31.2,62.3c0-0.4,0.1-0.8,0.1-1.3v-0.5H32V61c0,0.5,0,0.9-0.1,1.3h3V63h-2.2c0.2,0.7,0.4,1.3,0.7,1.8
	c0.4,0.6,0.9,1.1,1.6,1.5L34.6,67c-0.8-0.5-1.4-1.2-1.8-1.8c-0.4-0.6-0.6-1.3-0.8-2.2h-0.2c-0.1,0.5-0.2,0.9-0.4,1.3
	c-0.4,0.9-1.1,1.8-2.2,2.7l-0.6-0.5c1-0.7,1.8-1.5,2.2-2.3c0.2-0.3,0.3-0.7,0.4-1.1h-2.4v-0.7L31.2,62.3L31.2,62.3z"/>
<path class="st0" d="M37.9,61.1c-0.2,0-0.6,0.1-1.2,0.1v0.4h1.1v0.5h-1.1v0.4h1.1V63h-1.1v0.4h4.5V63h-1.1v-0.5h1.1v-0.3h-1.1v-0.5
	h1.1v-0.4h-1.1v-0.6h1.8v2.7h0.3v1.4h-0.6v-0.9h-5v0.9H36v-1.4h0.3v-2.6c0.5,0,1-0.1,1.6-0.2V61.1L37.9,61.1z M41,64.3v0.5
	c-0.5,0.2-1,0.4-1.6,0.6h2.7V66h-2.7v0.6c0,0.2-0.1,0.3-0.1,0.3c-0.1,0.1-0.2,0.2-0.4,0.2h-1.1l-0.1-0.6c0.2,0,0.5,0,0.8,0
	c0.1,0,0.2-0.1,0.2-0.1v-0.5h-2.8v-0.6h2.8v-0.2c0.4-0.1,0.8-0.2,1.3-0.4h-3v-0.5L41,64.3L41,64.3z M39.9,60.8
	c-0.2,0.2-0.3,0.3-0.4,0.4c0.1,0.1,0.2,0.2,0.3,0.3l-0.4,0.4c-0.1-0.1-0.2-0.2-0.4-0.4c-0.2,0.1-0.5,0.3-0.9,0.4l-0.3-0.5
	c0.2-0.1,0.5-0.2,0.7-0.3c-0.2-0.1-0.3-0.2-0.5-0.3l0.3-0.3c0.2,0.1,0.4,0.3,0.6,0.4c0.1-0.1,0.3-0.2,0.4-0.4L39.9,60.8L39.9,60.8z
	 M40,62.1c-0.2,0.2-0.4,0.4-0.5,0.5c0.1,0.1,0.3,0.2,0.4,0.3l-0.4,0.4c-0.1-0.1-0.3-0.3-0.5-0.4c-0.2,0.1-0.5,0.3-0.8,0.4l-0.3-0.4
	c0.2-0.1,0.4-0.1,0.6-0.3c-0.1-0.1-0.3-0.2-0.4-0.3l0.3-0.3c0.2,0.1,0.4,0.2,0.5,0.4c0.2-0.1,0.4-0.3,0.5-0.4L40,62.1L40,62.1z"/>
<path class="st0" d="M45.6,62.6v-2.1h0.8v2.1h2.4v0.7h-2.4v2.6h2.9v0.7h-6.4v-0.7h2.7v-2.6h-2.3v-0.7C43.3,62.6,45.6,62.6,45.6,62.6
	z"/>
<path class="st0" d="M52.9,61.8v-1.3h0.8v1.4h2.9v0.6h-2.2c0.2,0.5,0.5,1.1,0.9,1.5c0.3,0.5,0.8,1,1.4,1.5l-0.5,0.6
	c-0.7-0.6-1.2-1.2-1.6-1.9c-0.3-0.5-0.6-1.1-0.9-1.8V67h-0.8v-4.5c-0.2,0.6-0.4,1.1-0.7,1.5c-0.4,0.7-1,1.4-1.9,2.2l-0.4-0.7
	c0.6-0.5,1.1-1.1,1.5-1.6c0.3-0.4,0.5-0.8,0.7-1.4h-2.2v-0.7H52.9z"/>
<path class="st0" d="M59.5,65.3c-0.5,0.6-1.1,1.1-1.8,1.6l-0.4-0.6c0.7-0.4,1.3-0.8,1.8-1.4L59.5,65.3L59.5,65.3z M63.4,61.1
	c-0.9,0.2-1.9,0.3-3.1,0.4c-0.2,0.3-0.5,0.6-0.8,1c0.5,0,1.1-0.1,1.6-0.1c0.3-0.2,0.6-0.5,0.8-0.8l0.6,0.3c-0.9,0.9-1.8,1.6-2.7,2.2
	c1,0,1.9-0.1,2.5-0.2c-0.2-0.3-0.3-0.5-0.5-0.8l0.5-0.3c0.5,0.7,0.9,1.4,1.2,1.9l-0.6,0.4c-0.1-0.2-0.2-0.4-0.3-0.7
	c-0.5,0.1-1.1,0.1-1.8,0.2v1.7c0,0.3-0.1,0.5-0.2,0.6c-0.1,0.1-0.3,0.2-0.6,0.2h-0.6l-0.1-0.7c0.2,0,0.4,0.1,0.6,0.1
	c0.2,0,0.3-0.1,0.3-0.2v-1.5c-0.7,0-1.6,0.1-2.5,0.1l-0.2-0.6c0.4,0,0.9,0,1.3,0c0.6-0.4,1.1-0.8,1.6-1.2c-0.8,0.1-1.6,0.1-2.5,0.2
	l-0.1-0.6c0.3,0,0.5,0,0.8,0c0.4-0.3,0.7-0.6,1-1c-0.6,0-1.3,0-2,0l-0.2-0.6c2.2,0,4.2-0.1,5.7-0.4L63.4,61.1L63.4,61.1z M63.6,66.3
	l-0.5,0.5c-0.4-0.5-1-1-1.7-1.5l0.5-0.5C62.5,65.3,63.1,65.8,63.6,66.3z"/>
<path class="st0" d="M65.3,64.2v-0.9h0.9v0.9H65.3z"/>
<path class="st0" d="M70.5,61.1c-0.2,0-0.7,0.1-1.2,0.1v0.4h1.1v0.5h-1.1v0.4h1.1V63h-1.1v0.4h4.5V63h-1.1v-0.5h1.1v-0.3h-1.1v-0.5
	h1.1v-0.4h-1.1v-0.6h1.8v2.7h0.3v1.4h-0.6v-0.9h-5v0.9h-0.6v-1.4h0.3v-2.6c0.5,0,1-0.1,1.6-0.2V61.1L70.5,61.1z M73.6,64.3v0.5
	c-0.5,0.2-1,0.4-1.6,0.6h2.7V66H72v0.6c0,0.2,0,0.3-0.1,0.3c-0.1,0.1-0.2,0.2-0.4,0.2h-1.1l-0.1-0.6c0.2,0,0.5,0,0.8,0
	c0.1,0,0.2-0.1,0.2-0.1v-0.5h-2.8v-0.6h2.8v-0.2c0.4-0.1,0.8-0.2,1.3-0.4h-3v-0.5L73.6,64.3L73.6,64.3z M72.6,60.8
	c-0.2,0.2-0.3,0.3-0.4,0.4c0.1,0.1,0.2,0.2,0.3,0.3l-0.4,0.4c-0.1-0.1-0.2-0.2-0.4-0.4c-0.2,0.1-0.5,0.3-0.9,0.4l-0.3-0.5
	c0.2-0.1,0.5-0.2,0.7-0.3c-0.2-0.1-0.3-0.2-0.5-0.3l0.3-0.3c0.2,0.1,0.4,0.3,0.6,0.4c0.1-0.1,0.3-0.2,0.4-0.4L72.6,60.8L72.6,60.8z
	 M72.6,62.1c-0.2,0.2-0.4,0.4-0.5,0.5c0.1,0.1,0.3,0.2,0.4,0.3l-0.4,0.4c-0.1-0.1-0.3-0.3-0.5-0.4c-0.2,0.1-0.5,0.3-0.8,0.4
	l-0.3-0.4c0.2-0.1,0.4-0.1,0.6-0.3c-0.1-0.1-0.3-0.2-0.4-0.3L71,62c0.2,0.1,0.4,0.2,0.5,0.4c0.2-0.1,0.4-0.3,0.5-0.4L72.6,62.1
	L72.6,62.1z"/>
<path class="st0" d="M78.3,62.6v-2.1h0.8v2.2H82v0.7h-2.9v2.9h2.5v0.6h-5.8v-0.6h2.5v-2.9h-2.8v-0.7h2.8V62.6z"/>
<path class="st0" d="M6,77H5.4v-0.2H0.8V77H0.2v-6.4H6L6,77L6,77z M5.4,76.2v-5.1H0.8v5.1H5.4z M3.3,75.2c-0.6,0.2-1.3,0.3-2.1,0.5
	l-0.1-0.6c0.8-0.1,1.5-0.2,2.3-0.4L3.3,75.2L3.3,75.2z M3.2,71.9c0-0.2,0-0.4,0-0.7h0.6c0,0.2,0,0.5,0,0.7h0.7
	c-0.1-0.2-0.2-0.4-0.2-0.5l0.5-0.2c0.1,0.2,0.2,0.4,0.3,0.6l-0.3,0.1h0.5v0.6H3.9C3.9,73,4,73.3,4,73.6c0,0.2,0.1,0.5,0.1,0.7
	c0.2-0.4,0.4-0.9,0.6-1.6L5.2,73c-0.3,0.9-0.6,1.5-0.9,1.9l0,0c0,0,0,0.1,0.1,0.1c0.1,0.2,0.2,0.3,0.3,0.3c0,0,0.1-0.3,0.2-0.9
	l0.5,0.4c-0.2,0.5-0.3,0.8-0.3,0.9c-0.1,0.1-0.2,0.2-0.3,0.2c-0.2,0-0.4-0.1-0.6-0.4c-0.1-0.1-0.1-0.2-0.2-0.3
	c-0.2,0.3-0.5,0.5-0.8,0.7l-0.3-0.5c0.3-0.3,0.6-0.5,0.8-0.8c-0.1-0.2-0.2-0.5-0.2-0.8c-0.1-0.4-0.2-0.9-0.2-1.5H1.1v-0.5h2.1V71.9z
	 M2.9,72.8v1.7H1.3v-1.7H2.9z M2.4,73.3H1.7V74h0.7V73.3z"/>
<path class="st0" d="M13,76.1v0.7H6.9v-0.7H13z M12.8,71.8v0.7H7v-0.6L12.8,71.8L12.8,71.8z M9.3,75.7l-0.7,0.2
	c-0.2-1-0.4-2-0.7-2.9l0.7-0.2C8.9,73.6,9.1,74.6,9.3,75.7L9.3,75.7z M10.4,71.3l-0.5,0.5c-0.3-0.3-0.6-0.6-1.1-0.9l0.4-0.4
	C9.7,70.7,10.1,71,10.4,71.3L10.4,71.3z M11.9,72.9c-0.2,1.1-0.5,2.1-0.8,3l-0.7-0.2c0.3-0.8,0.6-1.7,0.8-2.9L11.9,72.9z"/>
<path class="st0" d="M16.5,70.6c-0.4,0.9-0.9,1.6-1.4,2.2c0.1,0,0.2,0,0.3,0c1,0,2.1-0.1,3.1-0.3c-0.2-0.4-0.5-0.7-0.9-1.1l0.5-0.5
	c0.6,0.8,1.2,1.5,1.6,2.3l-0.5,0.5c-0.1-0.2-0.2-0.4-0.4-0.6c-1.4,0.2-3,0.3-5,0.3l-0.1-0.8c0.2,0,0.4,0,0.6,0.1
	c0.4-0.6,0.9-1.4,1.4-2.4L16.5,70.6z M19.3,77.1h-0.7v-0.4H15v0.4h-0.7V74h5V77.1z M18.6,76v-1.4H15V76H18.6z"/>
<path class="st0" d="M21.7,72.9l-0.4,0.6c-0.3-0.3-0.6-0.5-0.9-0.7l0.3-0.5C21.1,72.5,21.4,72.7,21.7,72.9z M21.8,74.1
	c-0.2,1.1-0.5,2.1-0.8,2.9l-0.5-0.5c0.2-0.7,0.5-1.6,0.7-2.7L21.8,74.1L21.8,74.1z M21.9,71.2l-0.4,0.6c-0.3-0.3-0.6-0.5-0.8-0.7
	l0.3-0.5C21.3,70.7,21.6,70.9,21.9,71.2L21.9,71.2z M22.3,73.1c-0.1,0.3-0.2,0.6-0.3,0.8l-0.4-0.1c0.1-0.2,0.2-0.5,0.3-0.8
	L22.3,73.1z M22.9,70.5c-0.1,0.4-0.3,0.7-0.4,0.9c0.1,0,0.2,0,0.3,0c0.1-0.2,0.2-0.3,0.3-0.5l0.3,0.2v-0.2h0.7
	c-0.1-0.1-0.1-0.3-0.2-0.4h0.5c0.1,0.1,0.2,0.3,0.2,0.4h0.6v0.4h-1.8v-0.2c-0.2,0.5-0.5,1-0.7,1.3c0.1,0,0.2,0,0.4-0.1
	c0-0.1,0-0.2-0.1-0.2l0.3-0.1c0.1,0.2,0.1,0.5,0.2,0.8l-0.4,0.1c0-0.1,0-0.1,0-0.2c-0.3,0.1-0.7,0.2-1.2,0.2l-0.1-0.5
	c0.1,0,0.2,0,0.3,0c0.1-0.2,0.3-0.4,0.4-0.6c-0.2,0-0.4,0-0.7,0.1v-0.5H22c0.1-0.3,0.3-0.6,0.4-1.1L22.9,70.5L22.9,70.5z M26.4,74.1
	v1.2h-3.6l-0.1,0.3h4c0,0.6-0.1,1-0.2,1.1c-0.1,0.2-0.4,0.3-0.9,0.3h-1.2l-0.1-0.5c0.6,0,1,0,1.3,0c0.2,0,0.3,0,0.4-0.1
	c0.1-0.1,0.1-0.2,0.1-0.3h-4l0.3-1.2H26v-0.3h-3.8v-0.5H26.4L26.4,74.1z M22.9,73.9h-0.4c0-0.3,0-0.6-0.1-0.8h0.3
	C22.8,73.3,22.8,73.5,22.9,73.9z M23.4,73.7l-0.3,0.1C23,73.5,23,73.3,22.9,73l0.3-0.1C23.3,73.2,23.4,73.5,23.4,73.7z M24.9,71.5
	v0.3h-1.4v-0.3H24.9z M24.9,72.1v0.3h-1.4v-0.3H24.9z M24.9,72.7v1.2h-1.4v-1.2H24.9z M24.5,73.1h-0.6v0.4h0.6V73.1z M25.5,73.1
	c-0.1,0.3-0.1,0.6-0.2,0.8l-0.4-0.1c0.1-0.2,0.1-0.5,0.2-0.8L25.5,73.1z M26.1,70.5c-0.1,0.4-0.3,0.7-0.4,0.9c0.1,0,0.2,0,0.3,0
	c0.1-0.1,0.2-0.3,0.2-0.4l0.4,0.2c-0.3,0.5-0.6,0.9-0.9,1.2c0.2,0,0.3,0,0.5,0c0-0.1-0.1-0.2-0.1-0.3l0.3-0.1
	c0.1,0.3,0.2,0.6,0.2,0.9L26.2,73c0-0.1,0-0.1-0.1-0.2c-0.3,0.1-0.7,0.1-1.3,0.2l-0.1-0.4c0.1,0,0.2,0,0.3,0
	c0.1-0.2,0.3-0.4,0.5-0.6c-0.2,0-0.4,0-0.7,0.1l-0.1-0.4h0.2c0.1-0.3,0.3-0.6,0.4-1.1L26.1,70.5L26.1,70.5z M26.1,73.9h-0.4
	c0-0.3,0-0.6-0.1-0.8H26C26.1,73.3,26.1,73.5,26.1,73.9z M26.8,73.8l-0.4,0.1c0-0.3-0.1-0.5-0.2-0.8l0.4-0.1
	C26.7,73.2,26.7,73.5,26.8,73.8L26.8,73.8z"/>
<path class="st0" d="M29.9,72.3c0-0.4,0.1-0.8,0.1-1.3v-0.5h0.7V71c0,0.5,0,0.9-0.1,1.3h2.8V73h-2.1c0.1,0.7,0.4,1.3,0.7,1.8
	c0.4,0.6,0.9,1.1,1.5,1.5L33.1,77c-0.8-0.6-1.3-1.2-1.7-1.8c-0.4-0.6-0.6-1.3-0.8-2.2h-0.2c-0.1,0.5-0.2,0.9-0.4,1.3
	c-0.4,0.9-1.1,1.8-2.1,2.7l-0.6-0.5c1-0.7,1.7-1.5,2.1-2.3c0.2-0.3,0.3-0.7,0.4-1.1h-2.3v-0.7L29.9,72.3L29.9,72.3z"/>
<path class="st0" d="M36.3,71c-0.2,0-0.6,0.1-1.2,0.1v0.4h1.1V72h-1.1v0.4h1.1v0.5h-1.1v0.4h4.3v-0.4h-1v-0.5h1v-0.3h-1v-0.6h1v-0.4
	h-1.1v-0.6H40v2.7h0.3v1.4h-0.6v-0.8h-4.8v0.8h-0.6v-1.4h0.3v-2.6c0.5,0,1-0.1,1.5-0.2L36.3,71z M39.4,74.2v0.5
	c-0.5,0.2-1,0.4-1.6,0.6h2.6v0.6h-2.6v0.6c0,0.1-0.1,0.3-0.1,0.3c-0.1,0.1-0.2,0.2-0.4,0.2h-1l-0.1-0.6c0.2,0,0.5,0,0.8,0
	c0.1,0,0.2-0.1,0.2-0.1v-0.5h-2.6v-0.6h2.6V75c0.4-0.1,0.8-0.2,1.2-0.4h-2.9v-0.5L39.4,74.2L39.4,74.2z M38.3,70.7
	c-0.1,0.2-0.3,0.3-0.4,0.4c0.1,0.1,0.2,0.2,0.3,0.3l-0.3,0.4c-0.1-0.1-0.2-0.2-0.4-0.3c-0.2,0.1-0.5,0.3-0.8,0.4l-0.3-0.5
	c0.2-0.1,0.5-0.2,0.7-0.3c-0.1-0.1-0.3-0.2-0.5-0.3l0.3-0.3c0.2,0.1,0.4,0.3,0.6,0.4c0.1-0.1,0.3-0.2,0.4-0.4L38.3,70.7L38.3,70.7z
	 M38.4,72c-0.2,0.2-0.3,0.4-0.5,0.5c0.1,0.1,0.3,0.2,0.4,0.3L38,73.2c-0.1-0.1-0.3-0.3-0.4-0.4c-0.2,0.1-0.5,0.3-0.8,0.4l-0.3-0.4
	c0.2-0.1,0.4-0.1,0.6-0.3c-0.1-0.1-0.3-0.2-0.4-0.3l0.3-0.3c0.2,0.1,0.4,0.2,0.5,0.4c0.2-0.1,0.3-0.3,0.5-0.4L38.4,72L38.4,72z"/>
<path class="st0" d="M43.8,72.5v-2h0.8v2h2.3v0.7h-2.3v2.6h2.8v0.7h-6.2v-0.7h2.6v-2.6h-2.2v-0.7H43.8z"/>
<path class="st0" d="M50.7,71.8v-1.3h0.7v1.3h2.7v0.7H52c0.2,0.5,0.5,1.1,0.8,1.5c0.3,0.5,0.8,1,1.4,1.5l-0.5,0.6
	c-0.6-0.6-1.1-1.2-1.5-1.9c-0.3-0.5-0.6-1.1-0.8-1.8V77h-0.7v-4.6c-0.2,0.6-0.4,1.1-0.6,1.5c-0.4,0.7-1,1.4-1.8,2.2l-0.4-0.7
	c0.6-0.5,1.1-1.1,1.4-1.6c0.3-0.4,0.5-0.8,0.7-1.4h-2.1v-0.7h2.8V71.8z"/>
<path class="st0" d="M57,75.2c-0.5,0.6-1.1,1.1-1.7,1.6l-0.4-0.6c0.6-0.4,1.2-0.8,1.7-1.4L57,75.2L57,75.2z M60.8,71.1
	c-0.8,0.2-1.8,0.3-3,0.4c-0.2,0.3-0.4,0.6-0.8,1c0.5,0,1-0.1,1.5-0.1c0.3-0.2,0.5-0.5,0.8-0.8l0.6,0.3c-0.9,0.9-1.7,1.6-2.6,2.2
	c1,0,1.8-0.1,2.4-0.2c-0.1-0.3-0.3-0.5-0.5-0.8l0.5-0.3c0.5,0.7,0.9,1.4,1.2,1.9l-0.6,0.4c-0.1-0.2-0.2-0.4-0.3-0.7
	c-0.5,0.1-1,0.1-1.7,0.2v1.7c0,0.3-0.1,0.5-0.2,0.6c-0.1,0.1-0.3,0.2-0.6,0.2h-0.6l-0.1-0.7c0.2,0,0.4,0.1,0.6,0.1
	c0.2,0,0.3-0.1,0.3-0.2v-1.5c-0.7,0-1.5,0.1-2.4,0.1l-0.2-0.7c0.4,0,0.8,0,1.2,0c0.5-0.4,1.1-0.8,1.6-1.2c-0.7,0.1-1.5,0.1-2.4,0.2
	l-0.1-0.6c0.3,0,0.5,0,0.8,0c0.4-0.3,0.7-0.6,0.9-1c-0.6,0-1.2,0-1.9,0L55,71c2.2,0,4-0.1,5.5-0.4L60.8,71.1L60.8,71.1z M61,76.2
	l-0.5,0.5c-0.4-0.5-0.9-1-1.6-1.5l0.5-0.5C60,75.3,60.6,75.8,61,76.2z"/>
<path class="st0" d="M64.2,70.7v0.6h-1c-0.1,0.6-0.2,1.1-0.4,1.5h1.3v3.4h-1.2v0.7h-0.6V74c-0.1,0.2-0.2,0.4-0.4,0.6L61.5,74
	c0.3-0.6,0.6-1.1,0.7-1.5c0.1-0.3,0.2-0.7,0.3-1.1h-0.7v-0.6L64.2,70.7L64.2,70.7z M63.5,75.7v-2.2h-0.7v2.2H63.5z M67.9,70.7v0.6
	h-0.6V73h0.8v0.6h-0.8V77h-0.7v-3.4h-0.9c0,0.6-0.1,1.1-0.2,1.6c-0.1,0.6-0.4,1.2-0.9,1.8l-0.5-0.5c0.4-0.5,0.6-1,0.8-1.5
	c0.1-0.3,0.2-0.8,0.2-1.4h-0.8V73h0.8v-1.7h-0.7v-0.6H67.9L67.9,70.7z M66.6,71.3h-0.9V73h0.9V71.3z"/>
<path class="st0" d="M71.3,72.1c-0.3,0.4-0.6,0.8-0.9,1c-0.4,0.2-0.9,0.4-1.6,0.6l-0.3-0.6c0.7-0.1,1.2-0.3,1.5-0.4s0.5-0.4,0.8-0.8
	L71.3,72.1L71.3,72.1z M71.1,74.1L71.1,74.1v-1h0.6V74v0.1h1.7l-0.1,1.7c0,0.2,0,0.3,0.1,0.3s0.1,0.1,0.2,0.1h0.5c0,0,0.1,0,0.1-0.1
	c0,0,0.1-0.4,0.1-1.2l0.6,0.2c-0.1,0.8-0.2,1.3-0.3,1.4s-0.3,0.2-0.5,0.2h-0.8c-0.1,0-0.3-0.1-0.4-0.2c-0.1-0.1-0.2-0.3-0.2-0.6
	l0.1-1.4h-1c-0.1,0.5-0.3,0.9-0.6,1.3c-0.4,0.5-1.1,0.8-2.1,1.1l-0.3-0.6c1-0.2,1.6-0.6,2-0.9c0.2-0.2,0.4-0.5,0.4-0.8h-1.9V74
	L71.1,74.1L71.1,74.1z M71.9,71h2.6v1.5h-0.7v-0.9h-1.1v1.1c0,0.2,0.1,0.2,0.2,0.2h1.7v0.6h-1.8c-0.2,0-0.4,0-0.6-0.1
	c-0.1-0.1-0.2-0.2-0.2-0.5v-1.3h-2.7v0.9h-0.7V71H71c-0.1-0.2-0.2-0.3-0.3-0.5l0.7-0.1C71.8,70.6,71.9,70.8,71.9,71L71.9,71z"/>
<path class="st0" d="M78.6,71.1c-0.6,0.2-1.3,0.3-2,0.4v0.7h1.7v2.3h-1.7c0,0.4-0.1,0.7-0.1,1.1c-0.1,0.5-0.2,1-0.5,1.4l-0.5-0.5
	c0.1-0.4,0.3-0.7,0.3-1.1c0.1-0.4,0.1-0.9,0.1-1.4v-3.1c0.9,0,1.7-0.1,2.4-0.5L78.6,71.1L78.6,71.1z M77.6,73.9v-1.1h-1.1v1.1H77.6z
	 M81.7,71.1c-0.7,0.2-1.5,0.3-2.4,0.4v1.2h2.4v0.7H81v3.7h-0.6v-3.7h-1.1v0.8c0,0.5-0.1,1-0.2,1.5c-0.1,0.5-0.3,0.9-0.7,1.3
	l-0.5-0.5c0.2-0.3,0.4-0.7,0.5-1c0.1-0.4,0.2-0.8,0.2-1.3v-3.3c1.1,0,2-0.2,2.7-0.5L81.7,71.1z"/>
<path class="st0" d="M1,85.2c0,0.7-0.1,1.3-0.2,1.8l-0.6-0.2c0.2-0.5,0.3-1,0.3-1.6L1,85.2L1,85.2z M2,80.5
	c-0.2,0.6-0.5,1.2-0.8,1.7c0.2,0,0.4,0,0.7-0.1c0.2-0.3,0.3-0.6,0.5-1L3,81.3c-0.5,1.2-1.1,2.1-1.7,2.8c0.4,0,0.7-0.1,1-0.2
	c-0.1-0.2-0.1-0.5-0.2-0.7L2.6,83c0.2,0.5,0.3,1,0.5,1.6l-0.6,0.1c0-0.1,0-0.2-0.1-0.3c-0.5,0.1-1.2,0.2-2.1,0.3l-0.2-0.6
	c0.1,0,0.3,0,0.4,0c0.3-0.4,0.6-0.9,1-1.5c-0.4,0.1-0.9,0.1-1.4,0.2L0,82.2c0.1,0,0.3,0,0.4,0c0.3-0.6,0.6-1.3,0.9-2L2,80.5L2,80.5z
	 M2,86.6l-0.6,0.1c0-0.6-0.1-1.1-0.1-1.5l0.5-0.1C1.9,85.5,1.9,86,2,86.6z M3,86.3l-0.6,0.2c-0.1-0.5-0.2-1-0.3-1.4L2.6,85
	C2.8,85.4,2.9,85.9,3,86.3z M4.6,81.2v-0.9h0.7v0.9h1.5v0.6H5.3v0.9h1.3v0.6H3.3v-0.6h1.3v-0.9H3v-0.6H4.6L4.6,81.2z M6.5,87H5.9
	v-0.3H4V87H3.4v-2.9h3.2L6.5,87L6.5,87z M5.9,86v-1.4H4V86H5.9z"/>
<path class="st0" d="M8.7,81.7v-1.4h0.6v1.4H10v0.6H9.3v0.2c0.2,0.3,0.5,0.6,0.7,1l-0.4,0.6c-0.1-0.3-0.3-0.5-0.4-0.8v3.6H8.6v-3.3
	c-0.2,0.5-0.4,0.9-0.6,1.3l-0.3-0.8C8,83.6,8.3,83,8.5,82.3H7.7v-0.6L8.7,81.7L8.7,81.7z M10.9,80.9v-0.5h0.6v0.5h1.2v-0.5h0.6v0.5
	h1v0.5h-1v0.3h0.8v0.5h-0.8v0.4h1.1v0.5h-2v0.4H14v1.8h0.4v0.5H14v0.6c0,0.2-0.1,0.4-0.2,0.5c-0.1,0.1-0.2,0.2-0.4,0.2h-0.8
	l-0.1-0.6h0.8c0.1,0,0.2-0.1,0.2-0.2v-0.4h-2.6v1.2h-0.6v-1.2H9.7v-0.5h0.6v-1.9h1.5v-0.3H9.9v-0.5h1v-0.4h-0.7v-0.5h0.7v-0.3H10V81
	L10.9,80.9L10.9,80.9z M11.8,84.3v-0.4h-0.9v0.4H11.8z M11.8,85.2v-0.4h-0.9v0.4H11.8z M12.7,81.4h-1.2v0.3h1.2V81.4z M12.7,82.6
	v-0.4h-1.2v0.4H12.7z M12.5,84.3h1v-0.4h-1V84.3z M13.5,85.2v-0.4h-1v0.4H13.5z"/>
<path class="st0" d="M17.4,80.5c-0.3,0.7-0.5,1.3-0.8,1.8c0.2,0,0.4-0.1,0.7-0.1c0.2-0.3,0.3-0.6,0.5-1l0.6,0.2
	c-0.6,1.1-1.1,2-1.7,2.7c0.4,0,0.7-0.1,1-0.2c-0.1-0.3-0.1-0.5-0.2-0.8L18,83c0.2,0.5,0.3,1,0.5,1.6L18,84.7c0-0.1,0-0.2-0.1-0.3
	c-0.5,0.1-1.2,0.2-2.1,0.3l-0.2-0.6c0.1,0,0.3,0,0.4,0c0.3-0.4,0.6-0.8,0.9-1.4c-0.4,0.1-0.8,0.2-1.3,0.3l-0.1-0.6
	c0.1,0,0.3,0,0.4,0c0.3-0.6,0.7-1.3,0.9-2.1L17.4,80.5L17.4,80.5z M16.4,85.1c-0.1,0.7-0.1,1.3-0.3,1.8l-0.6-0.2
	c0.2-0.5,0.3-1.1,0.3-1.7L16.4,85.1L16.4,85.1z M17.4,86.6l-0.6,0.1c0-0.7-0.1-1.2-0.1-1.6l0.5-0.1C17.3,85.4,17.3,86,17.4,86.6
	L17.4,86.6z M18.3,86.1l-0.5,0.1c-0.1-0.4-0.2-0.8-0.3-1.2l0.5-0.1C18.1,85.2,18.2,85.6,18.3,86.1z M21.7,86.2h0.5v0.6h-3.9v-0.6
	h0.5v-5.5h3L21.7,86.2L21.7,86.2z M21,82.5v-1.2h-1.7v1.2H21z M21,84.4v-1.3h-1.7v1.3H21z M21,86.2V85h-1.7v1.2H21z"/>
<path class="st0" d="M24.2,84.1v-0.9h0.9v0.9H24.2z"/>
<path class="st0" d="M29.9,80.7v0.6H29c-0.1,0.6-0.2,1.1-0.4,1.5l0,0h1.2v3.4h-1.2v0.7H28v-3c-0.1,0.2-0.2,0.4-0.4,0.6l-0.4-0.6
	c0.3-0.5,0.6-1,0.7-1.4c0.1-0.3,0.2-0.6,0.3-1.1h-0.8v-0.6L29.9,80.7L29.9,80.7z M29.2,85.6v-2.2h-0.6v2.2H29.2z M31.6,86
	c-0.4,0.4-0.9,0.7-1.5,1l-0.4-0.6c0.6-0.2,1.1-0.5,1.5-0.8L31.6,86z M34,80.6v0.6h-1.7c-0.1,0.2-0.1,0.4-0.2,0.5h1.5v3.8h-3.5v-3.8
	h1.2c0.1-0.2,0.1-0.3,0.2-0.5H30v-0.6H34L34,80.6z M33.1,82.8v-0.5h-2.2v0.5H33.1z M33.1,83.9v-0.6h-2.2v0.6H33.1z M33.1,84.4h-2.2
	v0.5h2.2V84.4z M34,86.5l-0.4,0.6c-0.5-0.4-1-0.7-1.6-0.9l0.3-0.5C33,85.9,33.5,86.1,34,86.5L34,86.5z"/>
<path class="st0" d="M37.9,82.5v-2.2h0.8v2.2h2.9v0.7h-2.9v2.9h2.6v0.6h-5.9v-0.6H38v-2.9h-2.8v-0.7H37.9z"/>
<path class="st0" d="M4,7.1H1.3v0.8H0.4V0.7H4L4,7.1L4,7.1z M3.1,3.4V1.5H1.3v1.9H3.1z M3.1,6.3v-2H1.3v2H3.1z M5,0.4h4.4v7.7
	c0,0.3-0.1,0.6-0.3,0.8C8.9,9,8.7,9.1,8.4,9.1H6.7L6.6,8.2l1.5,0.1c0.2,0,0.3-0.2,0.3-0.4V6.1H5.9c-0.1,0.4-0.2,0.7-0.3,1
	C5.3,7.8,4.7,8.5,3.8,9.3L2.9,8.6C3.7,8,4.2,7.4,4.6,6.8C4.9,6.3,5,5.5,5,4.4V0.4L5,0.4z M8.4,5.2V3.7H6v0.7C6,4.7,6,5,6,5.3
	L8.4,5.2L8.4,5.2z M8.4,2.8V1.3H6v1.4h2.4V2.8z"/>
<path class="st0" d="M19.5,9.2h-1V8.5h-5.2v0.7h-1V0.4h7.2V9.2L19.5,9.2z M18.5,3.9V1.4h-5.2v2.5H18.5z M18.5,7.6V4.8h-5.2v2.7h5.2
	V7.6z"/>
<path class="st0" d="M25.5,8.2h-0.9V7.5h-1.3v1h-0.9V0.8h3.1L25.5,8.2L25.5,8.2z M24.6,3.7V1.6h-1.3v2.1H24.6z M24.6,6.6v-2h-1.3
	v2.1L24.6,6.6L24.6,6.6z M28.2,1V0.1h0.9V1h2.3v0.9h-2.3v1h2.6v0.9h-1v1h1.1v0.9h-1.1v2.4c0,0.4-0.1,0.6-0.2,0.8
	c-0.1,0.1-0.4,0.2-0.8,0.2h-1.3l-0.2-1c0.5,0.1,0.9,0.1,1.3,0.1c0.2,0,0.4-0.1,0.4-0.2V5.7h-4.1V4.8h4.1v-1h-4V2.9h2.4v-1h-2.2V1
	H28.2L28.2,1z M28.6,7.4L27.7,8c-0.4-0.5-0.8-1-1.4-1.6l0.8-0.5C27.7,6.5,28.2,7,28.6,7.4z"/>
<path class="st0" d="M38.5,0.1v3.6h4.1v0.8h-3v3.4c0,0.2,0.1,0.3,0.4,0.3h1.3c0.1,0,0.2-0.1,0.3-0.2c0.1-0.1,0.1-0.7,0.2-1.6l1,0.3
	c-0.1,1.2-0.2,1.8-0.4,2.1c-0.2,0.2-0.5,0.3-0.9,0.3h-1.9c-0.3,0-0.6-0.1-0.8-0.2c-0.2-0.2-0.3-0.4-0.3-0.7V4.5H37
	c-0.1,1.3-0.4,2.2-0.8,2.8c-0.5,0.7-1.3,1.3-2.5,1.9L33,8.3c1.1-0.4,1.8-0.9,2.2-1.5c0.4-0.5,0.6-1.3,0.7-2.4h-2.8V3.7h4.1V0.1H38.5
	L38.5,0.1z M36.3,2.8l-1.1,0.4C34.8,2.4,34.5,1.6,34,1l1-0.3C35.6,1.4,36,2.1,36.3,2.8z M41.7,1c-0.3,0.8-0.7,1.5-1.2,2.3l-1-0.5
	C40,2,40.4,1.3,40.7,0.6L41.7,1z"/>
<path class="st0" d="M52.6,1.3c-0.5,0.2-1.1,0.3-1.8,0.4v0.9h1.6v0.8h-1.6v0.9h1.7v0.8h-1.7v0.1c0.5,0.4,1.1,0.9,1.7,1.4L52,7.3
	c-0.4-0.5-0.8-0.9-1.1-1.2v3.1H50v-3c0,0.1-0.1,0.2-0.1,0.3c-0.3,0.7-0.8,1.3-1.3,1.8l-0.4-1.1c0.6-0.6,1.2-1.4,1.6-2.2h-1.6V4.3H50
	V3.4h-1.6V2.6H50V1.9c-0.5,0-0.9,0-1.5,0l-0.2-0.8c0.6,0,1.2,0,1.7-0.1V0h0.9v0.8c0.5-0.1,0.9-0.2,1.3-0.3L52.6,1.3L52.6,1.3z
	 M53.6,2V0.1h0.9V2h1.4V0.1h0.9V2h0.8v0.9h-0.8v1.9h1v0.9h-1v3.6h-0.9V5.6h-1.5c-0.1,0.6-0.2,1-0.3,1.5c-0.2,0.7-0.7,1.3-1.4,2
	l-0.8-0.7c0.6-0.5,1.1-1,1.3-1.6c0.1-0.3,0.2-0.7,0.3-1.1h-0.9v-1h1V2.8h-0.9V2H53.6L53.6,2z M56,2.8h-1.4v1.9H56V2.8z"/>
<path class="st0" d="M63.9,1.4c-0.5,0.2-1.1,0.3-1.8,0.3v0.8h1.6v0.8h-1.6v0.8h1.8v0.8h-1.8l0,0c0.6,0.5,1.2,1.1,1.8,1.7l-0.5,0.8
	c-0.5-0.6-0.9-1.1-1.3-1.5v3.2h-0.9v-3c-0.1,0.1-0.1,0.2-0.2,0.4c-0.4,0.7-0.9,1.3-1.4,1.8l-0.4-1C60,6.6,60.6,5.9,61.1,5h-1.8V4.3
	h1.9V3.4h-1.7V2.6h1.7V1.8c-0.5,0-1.1,0.1-1.7,0.1l-0.2-0.8c0.7,0,1.3,0,1.9-0.1V0h0.9v0.9c0.5-0.1,1-0.2,1.4-0.3L63.9,1.4z
	 M68.9,3.3v0.9h-2.6c-0.2,1.3-0.6,2.5-1.1,3.6c0.7,0,1.5-0.1,2.2-0.2c-0.2-0.7-0.5-1.3-0.8-1.9l0.9-0.3c0.5,1.1,0.9,2.2,1.3,3.4
	l-0.9,0.4c-0.1-0.3-0.2-0.5-0.2-0.8c-1.3,0.1-2.6,0.3-4.1,0.3l-0.1-0.9c0.2,0,0.5,0,0.7,0c0.5-1.2,0.9-2.4,1.1-3.7h-1.5V3.3H68.9
	L68.9,3.3z M68.4,0.7v0.9h-4.2V0.7H68.4z"/>
<path class="st0" d="M78.4,2.3v0.8h-2.2c-0.3,0.2-0.6,0.4-0.8,0.6C75.8,4.2,76,4.6,76.2,5c0.8-0.3,1.5-0.8,2.2-1.4l0.7,0.7
	c-0.4,0.4-0.9,0.7-1.4,1c0.2,0.5,0.5,1,0.9,1.4C78.9,7.1,79.4,7.6,80,8l-0.7,0.8c-0.7-0.6-1.2-1.2-1.6-1.8c-0.3-0.4-0.6-0.9-0.8-1.4
	c-0.2,0.1-0.3,0.1-0.5,0.2c0.1,0.4,0.2,0.9,0.2,1.3c0,0.8-0.1,1.3-0.3,1.6c-0.2,0.4-1,0.5-2.2,0.5l-0.3-1c0,0,0.2,0.1,0.6,0.1
	c0.6,0,0.9-0.1,1.1-0.2c0.2-0.2,0.3-0.5,0.3-1c0-0.1,0-0.3,0-0.4c-0.6,0.4-1.1,0.8-1.6,1c-0.8,0.4-1.7,0.7-2.9,1.1l-0.5-0.9
	c1.1-0.3,2.1-0.6,3-1c0.7-0.3,1.3-0.7,1.8-1.1c0-0.1-0.1-0.2-0.1-0.3c0-0.1-0.1-0.2-0.1-0.3c-0.6,0.4-1.1,0.7-1.5,0.9
	c-0.7,0.3-1.5,0.6-2.6,0.9l-0.7-0.9c1-0.2,1.9-0.5,2.7-0.8c0.6-0.2,1.1-0.5,1.5-0.8c-0.1-0.1-0.2-0.3-0.3-0.4c-0.9,0.4-2,0.7-3.2,1
	l-0.5-0.8c1.3-0.2,2.3-0.5,3.1-0.8c0.3-0.1,0.6-0.2,0.9-0.3h-2.9V2.3H78.4L78.4,2.3z M75.5,0.8h4.1v2h-0.9V1.7h-7.2v1.2h-0.9v-2h3.9
	c-0.1-0.2-0.2-0.4-0.4-0.6l1.1-0.1C75.3,0.3,75.4,0.5,75.5,0.8L75.5,0.8z"/>
<path class="st1" d="M13.6,24.6l0.7-0.9l1.8,1.3c-0.1,0.1-0.3,0.2-0.7,0.3c-0.3,4.6-1,5.5-3.2,5.5c0-1-0.2-1.3-1.4-1.6V29h1.6
	c0.3,0,0.4,0,0.5-0.1c0.4-0.3,0.7-1.6,0.8-4h-0.6c-0.9,2.5-2.6,4.5-5.2,5.8l-0.2-0.3c1.8-1.4,3-3.3,3.6-5.5h-0.6
	c-0.9,2-2.6,3.7-4.8,4.9l-0.2-0.2c1.5-1.2,2.7-2.9,3.4-4.7H8.4c-0.8,1-1.8,1.8-2.9,2.4l-0.2-0.2c1-1,2-2.8,2.6-4.3H6.6
	c0.2,0.3,0.3,0.6,0.3,0.8c0,0.5-0.4,0.9-0.8,0.9c-0.2,0-0.5-0.1-0.7-0.3c-0.1-0.7-0.5-1.7-1-2.4v8.3c0,0-0.2,0.5-1.8,0.5v-7.1
	c-0.6,1.1-1.4,2.2-2.4,3.1L0,26.4c1.3-2,2-4.6,2.4-7.2H0.2l-0.1-0.3h2.5v-4.2l2.5,0.2c0,0.2-0.2,0.4-0.7,0.4v3.5h0.3l0.8-1.3L7,18.8
	c-0.1,0.2-0.4,0.3-0.8,0.3H4.4v2.3c0.9,0.3,1.4,0.6,1.8,0.9h7.4l0.9-1.2l1.7,1.2c-0.1,0.2-0.3,0.3-0.8,0.3H9.9l0.4,0.1
	c-0.1,0.2-0.2,0.3-0.6,0.3c-0.3,0.5-0.6,0.9-1,1.4L13.6,24.6L13.6,24.6z M9,20.7v0.4c0,0.1-0.5,0.5-1.4,0.5H7.3v-6.5l1.9,0.8h3.6
	l0.8-1l1.9,1.3c-0.1,0.1-0.3,0.2-0.7,0.3v4.6c0,0.1-0.6,0.4-1.5,0.4H13v-0.8L9,20.7L9,20.7z M12.9,16.2H9v1.9h3.9V16.2z M9,20.4h3.9
	v-1.9H9V20.4z"/>
<path class="st1" d="M23.7,20.9l1.6,1.4c-0.1,0.2-0.3,0.2-0.6,0.3c-0.8,2.8-2.6,5.3-5.8,6.8l-0.1-0.2c2.3-1.7,3.6-4.4,4.1-7.1H19
	l-0.1-0.3h4L23.7,20.9L23.7,20.9z M28.5,19.2c-0.1,0.1-0.3,0.3-0.7,0.3c0,0.1,0.4,2.1,1.7,4c1.2-1.2,2.4-2.9,3.1-4l2.1,1.4
	c-0.1,0.1-0.2,0.2-0.4,0.2c-0.1,0-0.2,0-0.3,0c-1,0.9-2.7,2-4.3,2.8c1.4,1.9,3.3,3,5.2,3.7l-0.1,0.2c-0.8,0.2-1.3,0.8-1.5,1.7
	c-2.7-1.8-4.6-4.1-5.5-8.9v8c0,1.2-0.4,2.1-2.6,2.3c0-1.6-0.9-1.7-2.1-1.9v-0.2h2.6c0.2,0,0.3-0.1,0.3-0.2v-9.4h-4.6l-0.1-0.3h4.5
	l0.8-1L28.5,19.2L28.5,19.2z M23.6,14.8c0.3,0,0.6,0,0.9,0c3.6,0,4.8,1.3,4.8,2.2c0,0.5-0.3,0.9-0.9,0.9c-0.1,0-0.3,0-0.4-0.1
	c-0.6-0.9-2.2-2.1-4.4-2.8L23.6,14.8L23.6,14.8z"/>
<path class="st1" d="M51.7,28.6l1.8,1.3c-0.1,0.2-0.3,0.3-0.8,0.3h-15l-0.1-0.3H43l0,0c-0.3,0-0.5-0.1-0.7-0.5c0-0.1,0-0.2,0-0.3
	c0-0.5-0.1-1.1-0.4-1.5C41.4,28,40.7,28,40.3,28v-4l1.9,0.7H49l0.7-0.9l1.8,1.3c-0.1,0.1-0.2,0.2-0.6,0.3v2.1c0,0.1-0.6,0.4-1.5,0.4
	h-0.3v-0.5H42v0.1l0,0c1.6,0.4,2.1,1,2.1,1.6c0,0.5-0.4,0.9-0.9,0.9l0,0h3.7c0.2-0.7,0.5-1.7,0.7-2.4l2.3,0.8
	c-0.1,0.2-0.2,0.2-0.6,0.2c-0.5,0.4-1.2,1-1.9,1.5h3.4L51.7,28.6L51.7,28.6z M38,23h12.4l0.6-0.8h-0.4v-0.7H40.4V22
	c0,0-0.3,0.4-1.6,0.4v-7.1l2.2,0.2c0,0.2-0.2,0.3-0.6,0.4v5.3h1.4v-1.3h-1l-0.1-0.3h1.1v-1.2H41l-0.1-0.3h0.9V17h-0.9l-0.1-0.3h1
	v-1.4l1.7,0.1c0,0.2-0.2,0.3-0.6,0.3v0.9h0.3l0.4-0.5l0.9,0.6c-0.1,0.2-0.3,0.3-0.7,0.3h-0.9v1.1h0.3l0.4-0.5l0.8,0.5
	c-0.1,0.2-0.3,0.3-0.7,0.3H43v1.2h0.4l0.4-0.6l0.8,0.5c-0.1,0.2-0.3,0.3-0.7,0.3H43v1.3h1.7v-6.3L47,15c0,0.2-0.2,0.3-0.7,0.4v5.7
	h1.5v-1.3h-1.2l-0.1-0.3h1.2v-1.2h-0.9L46.7,18h1v-1.1h-1.1l-0.1-0.3h1.1v-1.4l1.7,0.1c0,0.2-0.2,0.3-0.5,0.3v0.9h0.3l0.4-0.5
	l0.9,0.6c-0.1,0.2-0.3,0.3-0.7,0.3h-0.9V18H49l0.4-0.5l0.8,0.6c-0.1,0.2-0.3,0.3-0.7,0.3h-0.7v1.2h0.4l0.4-0.6l0.9,0.6
	c-0.1,0.2-0.3,0.3-0.7,0.3h-0.9v1.3h1.7v-5.9l2.2,0.2c0,0.2-0.1,0.3-0.6,0.4v5.9c0,0.1-0.2,0.2-0.5,0.3l1.4,1
	c-0.1,0.2-0.3,0.3-0.8,0.3H38.1L38,23L38,23z M49,24.9h-7.1v1.9H49V24.9z"/>
</svg>
