<?xml version="1.0" encoding="utf-8"?>
<!-- Generator: Adobe Illustrator 27.0.0, SVG Export Plug-In . SVG Version: 6.00 Build 0)  -->
<svg version="1.1" id="圖層_1" xmlns="http://www.w3.org/2000/svg" xmlns:xlink="http://www.w3.org/1999/xlink" x="0px" y="0px"
	 viewBox="0 0 400 168" style="enable-background:new 0 0 400 168;" xml:space="preserve">
<style type="text/css">
	.st0{clip-path:url(#SVGID_00000044158719826632462330000004967513755177239743_);}
	.st1{fill:#D8B167;}
	.st2{fill:#FFFFFF;stroke:#FFFFFF;stroke-width:8.000000e-02;stroke-miterlimit:10;}
	.st3{fill:#FFFFFF;}
	.st4{fill:url(#SVGID_00000036941075798902868390000017929126129406872961_);}
	.st5{fill:none;stroke:#FFFFFF;stroke-width:0.5;stroke-miterlimit:10;}
	.st6{fill:#F0DA5D;}
</style>
<g>
	<defs>
		<rect id="SVGID_1_" x="62" width="275.4" height="167.4"/>
	</defs>
	<clipPath id="SVGID_00000132785666293761372170000018365999858161469612_">
		<use xlink:href="#SVGID_1_"  style="overflow:visible;"/>
	</clipPath>
	<g style="clip-path:url(#SVGID_00000132785666293761372170000018365999858161469612_);">
		<path class="st1" d="M101.5,158L101.5,158C101.5,158.1,101.5,158,101.5,158z"/>
		<path class="st1" d="M117.6,156.2V149c3.7,2.9,3.5,8,3.5,8c1.1-4.8-2.9-8.4-2.9-8.4c-0.2-0.2-0.4-0.3-0.6-0.5v-11.8l-1.3,1.1v9.9
			c-0.2-0.1-0.3-0.2-0.5-0.2v-9.2l-1.3,1v7.7c-0.1,0-0.3-0.1-0.4-0.1v-7.2l-1.3,1v5.9c-0.4,0-0.7,0-1,0v-6.9l-1.3-1v8.1
			c-0.2,0.1-0.4,0.1-0.5,0.1l0-8.7l-1.2-1V147c-0.2,0.1-0.3,0.2-0.5,0.2v-10.9l-1.3-1.1v12.8c-4.6,3.4-3.5,9.1-3.5,9.2
			c-0.6,0.2-1.1,0.5-1.7,0.8c0.7-0.4,8.8-4,21.3,0C122.8,158.1,120.8,156.9,117.6,156.2L117.6,156.2z M116.2,148.2v7.7
			c-0.2,0-0.3-0.1-0.5-0.1v-7.9C115.9,148,116.1,148.1,116.2,148.2L116.2,148.2z M114.4,147.5v8.1c-0.1,0-0.3,0-0.4,0v-8.2
			C114.1,147.4,114.2,147.4,114.4,147.5z M110.3,147.4v8.2c-0.2,0-0.4,0-0.6,0.1l0-8.1C109.9,147.5,110.1,147.4,110.3,147.4
			L110.3,147.4z M108.5,148v7.8c-0.2,0-0.3,0.1-0.5,0.1v-7.6C108.2,148.1,108.4,148,108.5,148z M105.7,149.9c0.3-0.3,0.7-0.6,1-0.9
			v7c-1.2,0.3-2.3,0.6-3.5,1.1C103.2,152.1,105.7,149.9,105.7,149.9z M111.6,155.5v-8.3c0.4,0,0.7,0,1,0v8.3
			C112.3,155.5,111.9,155.5,111.6,155.5L111.6,155.5z"/>
		<path class="st2" d="M129.4,145.4h-1.6v0.8c0,0.1,0,0.1,0,0.2c0,0-0.1,0.1-0.2,0.2c-0.1,0.1-0.3,0.2-0.4,0.2
			c-0.2,0.1-0.3,0.1-0.3,0.1s0,0,0-0.1c0-0.4,0.1-0.9,0.1-1.3v-6.7c0-0.4,0-0.8,0-1.1c0.7,0.3,1.1,0.6,1.4,0.8h1.1l0.3-0.5
			c0-0.1,0.1-0.1,0.1-0.1c0.1,0,0.3,0.1,0.6,0.4c0.3,0.3,0.5,0.4,0.5,0.5c0,0.1-0.1,0.2-0.5,0.3v5.4l0,1.2v0.2
			c-0.3,0.2-0.5,0.4-0.7,0.4c-0.2,0.1-0.3,0.1-0.3,0.1c0,0-0.1-0.1-0.1-0.2L129.4,145.4L129.4,145.4z M127.8,141.8h1.6v-3h-1.6
			V141.8z M127.8,145h1.6v-2.8h-1.6V145z M132.7,138.2h1.7l0.3-0.6c0.1-0.1,0.1-0.2,0.2-0.2c0.1,0,0.2,0.1,0.4,0.3l0.5,0.4
			c0.1,0.1,0.2,0.2,0.2,0.3s-0.2,0.2-0.6,0.4v8.3c0,0.6,0,0.9-0.1,1.1s-0.3,0.4-0.6,0.6c-0.3,0.2-0.5,0.3-0.6,0.3
			c-0.1,0-0.1-0.1-0.1-0.3s-0.1-0.4-0.1-0.5c-0.1-0.1-0.2-0.2-0.4-0.4c-0.2-0.1-0.5-0.3-0.9-0.5l0-0.2c0.7,0.2,1.2,0.2,1.4,0.2
			c0.2,0,0.3,0,0.4-0.1c0.1-0.1,0.1-0.2,0.1-0.4v-2.8h-2.2c-0.1,1.4-0.4,2.4-1,3c-0.6,0.6-1.4,1.3-2.7,1.9l-0.1-0.2
			c0.6-0.5,1.1-0.9,1.4-1.3c0.4-0.4,0.6-0.8,0.8-1.1c0.2-0.4,0.4-0.8,0.5-1.3s0.2-1.2,0.2-2.1c0.1-0.9,0.1-1.9,0.1-2.9
			c0-1,0-1.9-0.1-2.9C131.9,137.7,132.3,137.9,132.7,138.2L132.7,138.2z M134.5,141.5h-2.1c0,0.7-0.1,1.6-0.1,2.5h2.2V141.5z
			 M132.4,141.1h2v-2.5h-2c0,0.3,0,0.6,0,1S132.4,140.5,132.4,141.1L132.4,141.1z"/>
		<path class="st2" d="M143,139c0.2,0.3,0.1,0.4-0.1,0.4h-2.5c0.3,0.1,0.5,0.3,0.6,0.4c0.2,0.1,0.3,0.2,0.4,0.4
			c0.1,0.1,0.1,0.2,0.1,0.3s0,0.2,0,0.4c0,0.2-0.1,0.3-0.2,0.4c-0.1,0.1-0.2,0.2-0.3,0.2s-0.2,0-0.3,0s-0.1-0.1-0.1-0.3
			c-0.1-0.3-0.1-0.6-0.2-0.9c-0.1-0.3-0.2-0.6-0.4-0.8h-0.3c-0.1,0.3-0.3,0.5-0.4,0.7c-0.1,0.2-0.3,0.5-0.5,0.7
			c-0.2,0.2-0.4,0.5-0.6,0.7c-0.2,0.2-0.5,0.5-0.8,0.8l-0.2-0.2c0.3-0.5,0.5-0.9,0.7-1.3c0.2-0.4,0.4-0.8,0.6-1.1
			c0.2-0.4,0.3-0.8,0.5-1.2c0.2-0.4,0.3-0.9,0.5-1.4c0.2,0.1,0.4,0.1,0.6,0.2c0.2,0.1,0.3,0.2,0.5,0.3c0.1,0.1,0.2,0.2,0.2,0.2
			c0,0.1-0.1,0.1-0.2,0.2c0,0-0.1,0-0.1,0c0,0-0.1,0.1-0.1,0.1c0,0.1-0.1,0.1-0.2,0.3c-0.1,0.1-0.2,0.3-0.3,0.5h1.7l0.4-0.7
			c0.1-0.1,0.1-0.1,0.1-0.1c0,0,0.1,0,0.2,0.1c0.2,0.1,0.3,0.2,0.4,0.4C142.9,138.8,142.9,138.9,143,139L143,139z M142.2,146.4
			l-2.7,1.2c-0.4,0.2-0.7,0.3-1,0.5c-0.3,0.2-0.4,0.3-0.5,0.3c-0.1,0.1-0.2,0.1-0.2-0.1c-0.1-0.2-0.2-0.3-0.2-0.5
			c-0.1-0.2-0.2-0.4-0.2-0.6c0.3-0.1,0.7-0.1,1-0.2c0.3-0.1,0.6-0.1,0.9-0.2v-4.1h-0.7c-0.1,0-0.2,0-0.3,0.1c-0.1,0-0.2,0.1-0.2,0.1
			l-0.3-0.6c0.1,0,0.2,0,0.3,0.1c0.1,0,0.2,0,0.3,0h2.4l0.4-0.7c0.1-0.1,0.2-0.2,0.3,0c0.1,0.1,0.2,0.3,0.3,0.4
			c0.1,0.1,0.2,0.3,0.3,0.3c0.2,0.2,0.2,0.3-0.1,0.3h-1.8v3.8l1.9-0.4L142.2,146.4L142.2,146.4z M144.8,146.1c0,0.4-0.1,0.6-0.3,0.7
			c-0.1,0-0.1,0-0.2,0c-0.1,0-0.2-0.2-0.3-0.4c-0.1-0.1-0.1-0.2-0.2-0.2c-0.1-0.1-0.1-0.2-0.2-0.2c-0.1,0.5-0.2,0.9-0.3,1.2
			c-0.1,0.3-0.3,0.6-0.6,0.9c-0.2,0.3-0.6,0.5-1,0.7c-0.4,0.2-0.9,0.5-1.5,0.7l-0.1-0.2c0.5-0.3,0.9-0.6,1.2-0.9
			c0.3-0.3,0.6-0.6,0.8-0.9c0.2-0.3,0.3-0.6,0.4-1s0.1-0.8,0.1-1.3v0c-0.2-0.1-0.3-0.3-0.5-0.4c-0.2-0.1-0.4-0.3-0.6-0.4l0.1-0.2
			c0.2,0.1,0.4,0.1,0.6,0.2c0.2,0.1,0.3,0.1,0.5,0.2V144c0-0.1,0-0.2,0-0.4c0-0.1,0-0.3,0-0.5c0-0.2,0-0.4,0-0.6
			c-0.1,0-0.2,0-0.3,0.1c-0.1,0-0.2,0.1-0.2,0.1l-0.3-0.6c0.1,0,0.2,0,0.3,0.1c0.1,0,0.2,0,0.3,0h2.3l0.3-0.5c0-0.1,0.1-0.1,0.1-0.2
			c0,0,0.1,0,0.2,0.1c0.1,0.1,0.3,0.2,0.4,0.3c0.1,0.1,0.2,0.2,0.4,0.3c0.1,0.1,0.2,0.2,0.1,0.3c0,0.1-0.2,0.2-0.5,0.3v4.7
			c0,0.1,0,0.2,0,0.3c0,0.1,0,0.1,0.1,0.2c0,0,0.1,0.1,0.1,0.1c0.1,0,0.1,0,0.2,0c0.2,0,0.3,0,0.4-0.1c0.1-0.1,0.1-0.2,0.2-0.3
			c0-0.2,0.1-0.4,0.1-0.7c0-0.3,0.1-0.8,0.1-1.3h0.2c0,0.4,0,0.8,0,1c0,0.3,0,0.5,0.1,0.6c0,0.1,0.1,0.3,0.1,0.3
			c0.1,0.1,0.1,0.1,0.2,0.2c0.1,0,0.1,0.1,0.1,0.1c0,0.1,0,0.1,0,0.3c-0.1,0.1-0.1,0.3-0.2,0.4c-0.1,0.1-0.2,0.2-0.3,0.3
			c-0.1,0.1-0.3,0.1-0.5,0.2c-0.2,0-0.5,0.1-0.8,0c-0.3,0-0.5,0-0.6-0.1c-0.2,0-0.3-0.1-0.3-0.2s-0.1-0.2-0.2-0.4c0-0.2,0-0.4,0-0.7
			v-5.2h-1.3c0,0.2,0,0.6,0,0.9c0,0.4,0,0.8,0,1.2c0.4,0.2,0.7,0.4,0.8,0.6C144.7,145.5,144.8,145.8,144.8,146.1L144.8,146.1z
			 M147.6,139c0.1,0.1,0.1,0.2,0.1,0.3c0,0.1-0.1,0.1-0.2,0.1h-2.7c0.3,0.1,0.5,0.3,0.7,0.4c0.2,0.1,0.3,0.2,0.4,0.3
			c0.1,0.1,0.1,0.2,0.1,0.3c0,0.1,0,0.2,0,0.3c0,0.1-0.1,0.2-0.1,0.2s-0.1,0.2-0.2,0.2c-0.1,0.1-0.1,0.1-0.2,0.2s-0.1,0.1-0.2,0.1
			c0,0-0.1,0-0.1-0.1s-0.1-0.1-0.1-0.2c-0.1-0.3-0.1-0.7-0.2-1c-0.1-0.3-0.2-0.6-0.4-0.8H144c-0.1,0.3-0.3,0.5-0.4,0.7
			c-0.1,0.2-0.3,0.4-0.4,0.6c-0.2,0.2-0.3,0.4-0.5,0.6c-0.2,0.2-0.4,0.4-0.7,0.7l-0.2-0.2c0.3-0.4,0.5-0.8,0.7-1.2
			c0.2-0.4,0.4-0.8,0.5-1.1c0.1-0.4,0.3-0.7,0.4-1.1c0.1-0.4,0.2-0.8,0.3-1.2c0.2,0.1,0.5,0.2,0.7,0.3c0.2,0.1,0.4,0.2,0.5,0.3
			c0.1,0.1,0.2,0.2,0.2,0.2c0,0.1-0.1,0.1-0.3,0.2c0,0-0.1,0-0.1,0c0,0-0.1,0.1-0.1,0.1c-0.1,0.1-0.1,0.1-0.2,0.3
			c-0.1,0.1-0.2,0.3-0.3,0.5h1.9l0.4-0.8c0.1-0.1,0.1-0.2,0.2-0.2c0.1,0,0.1,0,0.2,0.1c0.1,0.1,0.3,0.3,0.4,0.4
			C147.5,138.7,147.6,138.9,147.6,139L147.6,139z"/>
		<path class="st2" d="M151,139.1h-1.6c-0.1,0-0.2,0-0.3,0c-0.1,0-0.2,0-0.2,0.1l-0.2-0.6c0.1,0,0.2,0,0.3,0c0.1,0,0.2,0,0.3,0h1.5
			l0.4-0.6c0-0.1,0.1-0.1,0.1-0.1s0.1,0,0.2,0.1c0.1,0.1,0.3,0.2,0.4,0.3c0.1,0.1,0.2,0.2,0.3,0.3c0.1,0.1,0.1,0.2,0.1,0.3
			c0,0.1-0.2,0.2-0.5,0.3l-1.3,2.7h0.8l0.2-0.4c0-0.1,0.1-0.1,0.1-0.1c0,0,0.1,0,0.1,0.1c0.1,0.1,0.2,0.2,0.4,0.3
			c0.1,0.1,0.3,0.2,0.4,0.3c0.2,0.1,0.2,0.3-0.1,0.4c-0.1,0-0.2,0.1-0.2,0.2c0,0.1-0.1,0.2-0.1,0.4c-0.1,0.6-0.2,1.2-0.4,1.8
			c-0.2,0.5-0.3,1-0.5,1.4c0.3,0.2,0.5,0.4,0.8,0.6c0.3,0.2,0.5,0.3,0.8,0.4s0.7,0.2,1,0.2c0.4,0.1,0.8,0.1,1.4,0.1
			c0.5,0,1.1,0,1.8,0s1.5-0.1,2.3-0.1v0.2c-0.2,0-0.4,0.1-0.6,0.2c-0.2,0.1-0.3,0.1-0.4,0.2c-0.1,0.1-0.2,0.2-0.3,0.3
			c-0.1,0.1-0.1,0.2-0.2,0.4c0,0.1-0.1,0.1-0.1,0.1s-0.1,0-0.2,0c-0.8,0-1.4-0.1-2-0.1c-0.6,0-1.1-0.1-1.5-0.2
			c-0.4-0.1-0.8-0.1-1.1-0.2c-0.3-0.1-0.6-0.2-0.9-0.3c-0.2-0.1-0.5-0.3-0.7-0.4s-0.4-0.4-0.6-0.6c-0.1,0.2-0.2,0.4-0.4,0.6
			c-0.1,0.2-0.3,0.4-0.5,0.5c-0.2,0.2-0.4,0.3-0.6,0.5c-0.2,0.2-0.5,0.4-0.9,0.6l-0.1-0.2c0.3-0.3,0.5-0.5,0.7-0.7
			c0.2-0.2,0.4-0.4,0.5-0.6c0.2-0.2,0.3-0.4,0.4-0.6c0.1-0.2,0.2-0.4,0.3-0.7c-0.2-0.3-0.4-0.7-0.5-1.2c-0.1-0.5-0.3-1-0.4-1.7
			l0.2-0.1c0.1,0.3,0.2,0.6,0.3,0.8c0.1,0.2,0.2,0.4,0.3,0.6c0.1,0.2,0.2,0.3,0.2,0.4c0.1,0.1,0.2,0.2,0.2,0.3
			c0.1-0.5,0.3-1,0.4-1.5c0.1-0.5,0.2-1.1,0.2-1.7h-1l-0.1,0.3c0,0.1-0.1,0.1-0.1,0.1s-0.1,0-0.1,0.1c-0.1,0-0.2,0-0.3,0
			c-0.1,0-0.2,0-0.3-0.1c-0.1,0-0.2-0.1-0.1-0.2c0.1-0.2,0.3-0.4,0.4-0.7c0.1-0.2,0.3-0.5,0.4-0.7L151,139.1L151,139.1z
			 M159.2,140.3c0.1,0.1,0.2,0.2,0.1,0.3c0,0-0.1,0.1-0.2,0.1h-1.4v0.6c0,0.2,0,0.3,0,0.4c0,0.1,0,0.2,0,0.2c0,0.1,0,0.1,0,0.2
			c0,0.1,0,0.2,0,0.2c0,0,0,0.1-0.1,0.1c-0.1,0.1-0.2,0.1-0.2,0.2c-0.1,0-0.2,0.1-0.3,0.1c-0.1,0-0.2,0-0.2,0c0,0-0.1-0.2-0.1-0.3
			h-1.2v1.2h1.1l0.3-0.6c0.1-0.1,0.2-0.1,0.3,0c0.1,0.1,0.3,0.2,0.4,0.3c0.1,0.1,0.2,0.2,0.3,0.3c0.2,0.2,0.2,0.3-0.1,0.3h-2.3v1.1
			h1.9l0.3-0.5c0.1-0.1,0.1-0.2,0.2-0.2c0,0,0.1,0,0.2,0.1c0.1,0.1,0.3,0.2,0.4,0.3c0.1,0.1,0.2,0.2,0.3,0.3
			c0.1,0.2,0.2,0.3,0.2,0.3c0,0.1-0.1,0.1-0.3,0.1h-3.1c0,0.2,0,0.5,0,0.8s0,0.6,0,0.8c0,0.1,0,0.1,0,0.2c0,0,0,0.1-0.1,0.1
			c-0.1,0.1-0.2,0.1-0.3,0.2c-0.1,0-0.2,0.1-0.4,0.1c-0.1,0-0.1,0-0.1-0.2c0-0.3,0-0.7,0-1c0-0.3,0-0.7,0-0.9h-1.8
			c-0.1,0-0.2,0-0.3,0c-0.1,0-0.2,0-0.2,0.1l-0.2-0.6c0.1,0,0.2,0,0.3,0c0.1,0,0.2,0,0.3,0h2V144h-1.4c-0.1,0-0.2,0-0.3,0
			c-0.1,0-0.2,0-0.2,0.1l-0.2-0.6c0.1,0,0.2,0,0.3,0.1c0.1,0,0.2,0,0.3,0h1.5v-1.2h-1.1c-0.1,0-0.2,0-0.3,0c-0.1,0-0.2,0-0.2,0.1
			l-0.2-0.6c0.1,0,0.2,0,0.3,0.1c0.1,0,0.2,0,0.3,0h1.3v-1.3h-2.1c-0.1,0-0.2,0-0.3,0c-0.1,0-0.2,0-0.2,0.1l-0.2-0.5
			c0.1,0,0.2,0,0.3,0c0.1,0,0.2,0,0.3,0h2.2v-1.1h-1.2c-0.1,0-0.2,0-0.3,0c-0.1,0-0.2,0-0.2,0.1l-0.2-0.6c0.1,0,0.2,0,0.3,0.1
			c0.1,0,0.2,0,0.3,0h1.3V138c0-0.2,0-0.4,0-0.5c0-0.1,0-0.3,0-0.4c0-0.1,0-0.2,0-0.3c0.2,0.1,0.4,0.1,0.6,0.1
			c0.2,0.1,0.4,0.1,0.6,0.2c0.1,0,0.2,0.1,0.1,0.2c0,0.1-0.1,0.2-0.4,0.3v1.1h1.2l0.2-0.4c0-0.1,0.1-0.1,0.1-0.1c0,0,0.1,0,0.2,0.1
			c0.1,0.1,0.3,0.2,0.4,0.2c0.1,0.1,0.2,0.1,0.3,0.2c0.1,0.1,0.1,0.2,0.1,0.2c0,0.1-0.1,0.2-0.4,0.3v0.9h0.3l0.3-0.7
			c0.1-0.1,0.1-0.2,0.1-0.2s0.1,0.1,0.2,0.1c0.2,0.2,0.3,0.3,0.4,0.4C159,140,159.1,140.2,159.2,140.3L159.2,140.3z M156.8,139.2
			h-1.2v1.1h1.2V139.2z M156.8,140.7h-1.2v1.3h1.2V140.7z"/>
		<path class="st2" d="M170.3,143.8c-0.1,0.1-0.2,0.2-0.3,0.3c-0.1,0.1-0.2,0.1-0.3,0.2c-0.1,0-0.2,0.1-0.3,0.1c-0.1,0-0.3,0-0.5,0
			c-0.3,0-0.6,0-0.7,0c-0.2,0-0.3-0.1-0.4-0.1c-0.1-0.1-0.2-0.2-0.2-0.3c0-0.1,0-0.3,0-0.5v-2h-0.8c0,0.2,0,0.4-0.1,0.6
			c0,0.2-0.1,0.4-0.1,0.5c0.2,0.1,0.3,0.2,0.4,0.2c0.1,0.1,0.2,0.2,0.2,0.2c0.1,0.2,0.1,0.3,0.1,0.5c0,0.1-0.1,0.2-0.2,0.3
			c-0.2,0.1-0.4,0-0.6-0.3c0,0-0.1-0.1-0.1-0.1c0-0.1-0.1-0.1-0.1-0.1c-0.1,0.2-0.2,0.3-0.4,0.5c-0.2,0.2-0.5,0.3-0.8,0.5
			c0.2,0,0.3,0.1,0.4,0.1c0.1,0,0.2,0.1,0.4,0.1c0.1,0,0.2,0.1,0.2,0.2c0,0.1-0.1,0.1-0.2,0.2v0.4h2.9l0.4-0.7
			c0.1-0.1,0.1-0.2,0.2-0.2c0.1,0,0.1,0,0.2,0.1c0.1,0.1,0.3,0.2,0.4,0.3c0.1,0.1,0.2,0.2,0.3,0.4c0.1,0.1,0.2,0.2,0.2,0.3
			c0,0.1-0.1,0.1-0.3,0.1h-3.7c0.3,0.4,0.6,0.7,0.9,0.9c0.3,0.2,0.5,0.4,0.8,0.6c0.3,0.2,0.6,0.3,1,0.4c0.4,0.1,0.9,0.2,1.5,0.3v0.3
			c-0.2,0-0.4,0-0.5,0.1c-0.1,0-0.2,0.1-0.3,0.1c-0.1,0-0.1,0.1-0.2,0.2c0,0.1-0.1,0.2-0.1,0.3c0,0-0.1,0.1-0.1,0.1c0,0-0.1,0-0.2,0
			c-0.4-0.1-0.7-0.2-1-0.4c-0.3-0.2-0.5-0.3-0.8-0.6s-0.5-0.5-0.7-0.8s-0.4-0.7-0.7-1.2h-0.2v1.8c0,0.3,0,0.6,0,0.8s0,0.4,0,0.7
			c0,0.1,0,0.2-0.1,0.2c-0.1,0.1-0.3,0.1-0.4,0.2c-0.1,0-0.3,0.1-0.4,0.1c-0.1,0-0.1,0-0.1-0.1c0-0.2,0-0.4,0-0.5c0-0.2,0-0.3,0-0.4
			c0-0.1,0-0.3,0-0.4v-1.9c-0.3,0.4-0.6,0.8-0.9,1.1s-0.6,0.5-0.9,0.7c-0.3,0.2-0.7,0.4-1.1,0.6c-0.4,0.2-1,0.4-1.6,0.6l-0.1-0.2
			c0.5-0.3,1-0.5,1.3-0.8c0.4-0.2,0.7-0.4,0.9-0.7c0.3-0.2,0.5-0.5,0.8-0.8c0.2-0.3,0.5-0.6,0.8-1h-2.9c-0.1,0-0.2,0-0.3,0.1
			c-0.1,0-0.2,0.1-0.2,0.1l-0.2-0.6c0.1,0,0.2,0.1,0.3,0.1c0.1,0,0.2,0,0.3,0h3.8c0-0.1,0-0.3,0-0.5s0-0.3,0-0.5
			c-0.3,0.2-0.7,0.3-1.2,0.5l-0.1-0.2c0.3-0.1,0.6-0.3,0.8-0.4c0.2-0.2,0.5-0.3,0.7-0.5s0.3-0.3,0.5-0.5c0.1-0.2,0.2-0.3,0.3-0.5
			c-0.1-0.1-0.3-0.2-0.4-0.3c-0.1-0.1-0.3-0.2-0.5-0.3l0-0.2c0.2,0,0.4,0,0.5,0.1c0.1,0,0.3,0.1,0.4,0.1c0-0.2,0.1-0.3,0.1-0.4
			c0-0.1,0-0.3,0-0.5H166c-0.2,0-0.3,0-0.4,0c-0.1,0-0.2,0-0.3,0.1l-0.4-0.5c0.2,0,0.3,0,0.4,0c0.1,0,0.2,0,0.4,0h1.8l0.2-0.3
			c0,0-0.1-0.1-0.1-0.1c0-0.1,0-0.2-0.1-0.3s-0.1-0.2-0.1-0.3c-0.1-0.1-0.1-0.2-0.2-0.3c-0.1-0.1-0.1-0.2-0.2-0.4h-0.6
			c-0.2,0.3-0.5,0.6-0.7,0.8s-0.5,0.5-0.7,0.7l-0.2-0.2c0.2-0.3,0.4-0.6,0.6-0.9c0.2-0.3,0.3-0.5,0.4-0.8s0.2-0.5,0.4-0.8
			c0.1-0.3,0.2-0.6,0.3-0.9c0.1,0.1,0.2,0.1,0.3,0.2c0.1,0,0.2,0.1,0.2,0.1c0.1,0,0.1,0.1,0.2,0.1c0.1,0,0.1,0.1,0.2,0.1
			c0.2,0.1,0.2,0.2,0,0.3c0,0-0.1,0-0.1,0.1s-0.1,0.1-0.1,0.1c-0.1,0.1-0.1,0.2-0.2,0.3c-0.1,0.1-0.2,0.3-0.3,0.4h1.9l0.4-0.7
			c0.1-0.1,0.1-0.1,0.2-0.1s0.1,0,0.2,0.1c0.2,0.2,0.3,0.3,0.4,0.4c0.1,0.1,0.2,0.3,0.3,0.4c0.1,0.1,0.1,0.2,0.1,0.2
			c0,0.1-0.1,0.1-0.2,0.1h-2.6c0.4,0.1,0.6,0.2,0.7,0.3c0.1,0.1,0.2,0.2,0.2,0.3s0,0.3-0.1,0.4c-0.1,0.1-0.1,0.2-0.2,0.3l0.6,0.4
			c0.1,0.1,0.1,0.2,0,0.3l-0.3,0.2v1.5c0,0.2,0,0.4,0.1,0.4c0.1,0.1,0.2,0.1,0.4,0.1c0.1,0,0.3,0,0.3-0.1c0.1,0,0.1-0.1,0.2-0.2
			c0.1-0.1,0.1-0.3,0.1-0.5c0-0.2,0.1-0.5,0.1-0.9h0.2c0,0.3,0,0.5,0,0.7c0,0.2,0,0.3,0.1,0.4s0.1,0.2,0.1,0.2
			c0.1,0.1,0.1,0.1,0.2,0.1C170.4,143.6,170.5,143.7,170.3,143.8L170.3,143.8z M165.5,138.9c0.1,0.1,0.1,0.2,0.1,0.2
			c0,0.1-0.1,0.1-0.2,0.1h-2.1c0.4,0.1,0.6,0.3,0.7,0.5c0.1,0.2,0.2,0.3,0.1,0.5c0,0.2-0.1,0.3-0.2,0.3c-0.1,0.1-0.2,0.1-0.3,0.1
			c0,0-0.1,0-0.1,0c0,0,0-0.1-0.1-0.2c0-0.2-0.1-0.4-0.2-0.6c-0.1-0.2-0.2-0.4-0.3-0.6h-0.5c-0.1,0.2-0.3,0.4-0.4,0.6
			c-0.1,0.2-0.3,0.4-0.4,0.5c-0.2,0.2-0.3,0.3-0.5,0.5c-0.2,0.2-0.4,0.3-0.6,0.5l-0.1-0.2c0.2-0.3,0.4-0.6,0.5-0.8
			c0.2-0.3,0.3-0.6,0.5-0.9c0.2-0.3,0.3-0.7,0.5-1.1c0.2-0.4,0.3-0.8,0.5-1.3c0.2,0.1,0.4,0.2,0.5,0.3s0.3,0.2,0.4,0.3
			c0.1,0.1,0.2,0.1,0.2,0.2s-0.1,0.1-0.2,0.1c-0.1,0-0.1,0.1-0.2,0.2c-0.1,0.1-0.2,0.3-0.4,0.7h1.5l0.4-0.6c0.1-0.1,0.1-0.2,0.2-0.2
			c0.1,0,0.1,0,0.2,0.1c0.1,0.1,0.3,0.3,0.4,0.4C165.3,138.7,165.4,138.8,165.5,138.9L165.5,138.9z M164.9,141
			c0.1,0.1,0.1,0.1,0.1,0.2c0,0.1-0.1,0.1-0.2,0.1h-1.3v1.9l1.3-0.2l0.1,0.2l-2.6,1c-0.2,0.1-0.3,0.1-0.4,0.2
			c-0.1,0.1-0.3,0.2-0.4,0.2c-0.1,0-0.1,0.1-0.1,0.1c0,0-0.1-0.1-0.1-0.1c-0.1-0.2-0.1-0.3-0.2-0.5c0-0.1-0.1-0.3-0.2-0.6
			c0.2,0,0.3,0,0.4-0.1c0.1,0,0.3,0,0.4-0.1c0.1,0,0.3,0,0.4-0.1c0.2,0,0.3-0.1,0.5-0.1v-2h-0.7c-0.1,0-0.2,0-0.3,0
			c-0.1,0-0.2,0-0.2,0.1l-0.2-0.5c0.1,0,0.2,0,0.3,0.1c0.1,0,0.2,0,0.3,0h2.1l0.2-0.4c0-0.1,0.1-0.1,0.1-0.1s0.1,0,0.2,0.1
			c0.1,0.1,0.2,0.2,0.3,0.3C164.8,140.8,164.8,140.9,164.9,141L164.9,141z"/>
		<path class="st2" d="M173.5,138h6.6l0.3-0.6c0-0.1,0.1-0.1,0.1-0.1c0.1,0,0.2,0.1,0.4,0.2l0.5,0.4c0.1,0.1,0.2,0.2,0.2,0.3
			s-0.1,0.2-0.4,0.4v9.1c0,0.4,0,0.6,0,0.8v0.4c0,0,0,0.1,0,0.1s-0.1,0.1-0.2,0.2c-0.1,0.1-0.3,0.1-0.4,0.2
			c-0.1,0.1-0.2,0.1-0.3,0.1c0,0-0.1-0.1-0.1-0.2v-0.8h-6.8v0.2c0,0.1,0,0.2,0,0.2c0,0-0.1,0.1-0.2,0.1c-0.1,0.1-0.2,0.1-0.4,0.2
			s-0.3,0.1-0.3,0.1s-0.1-0.1-0.1-0.2c0-0.4,0-0.8,0-1.2v-9.5c0-0.4,0-0.7,0-1.1C172.9,137.6,173.2,137.8,173.5,138L173.5,138z
			 M180.2,145.2v-6.8h-6.8v6.7c0.1,0,0.3,0.1,0.5,0.1h3.6c0-0.3,0-0.6,0-0.9c0.7,0.1,1.1,0.2,1.1,0.4c0,0.1,0,0.1-0.1,0.2v0.3h0.5
			l0.4-0.5c0-0.1,0.1-0.1,0.2-0.1s0.2,0.1,0.3,0.3S180.1,145.1,180.2,145.2L180.2,145.2z M180.2,148.2v-2.7h-1.7v1.6
			c0,0.2-0.1,0.4-0.2,0.6c-0.1,0.1-0.3,0.2-0.5,0.3c-0.2,0.1-0.3,0.1-0.4,0.1s-0.1-0.1-0.1-0.2c0-0.2-0.1-0.3-0.2-0.4
			c-0.1-0.1-0.4-0.2-0.8-0.3V147c0.4,0.1,0.7,0.1,0.9,0.1c0.2,0,0.3,0,0.3-0.1s0.1-0.1,0.1-0.2v-1.3H174c-0.2,0-0.4,0-0.5,0.1
			l-0.2-0.3v3L180.2,148.2L180.2,148.2z M175.2,140.6h1.2v-0.8h-2.1c-0.2,0-0.4,0-0.5,0.1l-0.2-0.5c0.2,0,0.3,0.1,0.6,0.1h2.2
			c0-0.6,0-0.9,0-1.1c0.2,0,0.4,0.1,0.7,0.2c0.3,0.1,0.4,0.2,0.4,0.3s-0.1,0.2-0.2,0.2v0.4h1.4l0.3-0.5c0-0.1,0.1-0.1,0.2-0.1
			s0.2,0.1,0.5,0.4c0.3,0.3,0.4,0.4,0.4,0.5s-0.1,0.1-0.2,0.1h-2.6v0.8h1.3l0.2-0.3c0-0.1,0.1-0.1,0.1-0.1c0.1,0,0.2,0.1,0.5,0.2
			s0.4,0.3,0.4,0.4c0,0.1-0.1,0.2-0.3,0.3v0.7c0,0.2,0,0.3,0,0.5l0,0.3c0,0.1,0,0.1-0.1,0.2c-0.1,0-0.2,0.1-0.3,0.1
			c-0.2,0.1-0.3,0.1-0.4,0.1s-0.1,0-0.1-0.1h-1.3v0.8l1.1-0.1c-0.1-0.2-0.3-0.4-0.4-0.5l0-0.2c0.6,0.3,1,0.5,1.2,0.6
			c0.2,0.1,0.3,0.3,0.3,0.5s0,0.3-0.1,0.4c-0.1,0.1-0.1,0.2-0.2,0.2s-0.1-0.1-0.2-0.2c-0.2-0.3-0.3-0.4-0.4-0.5l-2.2,0.4
			c-0.8,0.1-1.2,0.3-1.5,0.4c0,0-0.1,0-0.1,0s-0.1,0-0.1-0.1c0,0-0.1-0.2-0.2-0.3c-0.1-0.2-0.2-0.3-0.3-0.5c0.8,0,1.6,0,2.3,0v-0.9
			h-1.3c0,0.1,0,0.2-0.1,0.2c0,0-0.1,0.1-0.3,0.2c-0.2,0.1-0.3,0.1-0.3,0.1c-0.1,0-0.1-0.1-0.1-0.2l0-0.9v-1c0-0.3,0-0.7,0-1
			C174.6,140.3,174.9,140.5,175.2,140.6L175.2,140.6z M174.7,145.5c0.9,0.4,1.3,0.8,1.3,1.1c0,0.2,0,0.4-0.1,0.5
			c-0.1,0.1-0.2,0.2-0.3,0.2c-0.1,0-0.1-0.1-0.2-0.3c-0.2-0.5-0.4-1-0.8-1.4L174.7,145.5L174.7,145.5z M176.3,140.9h-1.3v0.7h1.3
			V140.9z M175.1,141.9v0.6h1.3v-0.6H175.1z M178.5,141.6v-0.7h-1.3v0.7H178.5z M178.5,142.6v-0.6h-1.3v0.6H178.5z"/>
		<path class="st2" d="M184.6,138.1h0.9l0.3-0.4c0-0.1,0.1-0.1,0.2-0.1s0.2,0.1,0.6,0.4c0.3,0.3,0.5,0.4,0.5,0.5
			c0,0.1-0.1,0.1-0.2,0.2c-0.1,0-0.2,0.1-0.3,0.1c0,0.1-0.1,0.2-0.2,0.3l-1.1,2.5c0.5,0.5,0.9,0.9,1.2,1.3c0.3,0.4,0.4,0.9,0.4,1.4
			c0,0.7-0.2,1.2-0.6,1.5c-0.4,0.3-0.7,0.5-0.8,0.5c-0.1,0-0.1-0.1-0.1-0.2c0-0.4-0.2-0.7-0.7-0.9V145c0.3,0.1,0.5,0.1,0.7,0.1
			c0.4,0,0.6-0.2,0.6-0.7c0-0.2-0.1-0.6-0.2-1.1c-0.1-0.5-0.4-1-0.9-1.5c0.3-1.1,0.6-2.1,0.7-3.2h-1.1v10.3c0,0.1,0,0.2-0.1,0.2
			s-0.2,0.1-0.4,0.2c-0.2,0.1-0.3,0.1-0.4,0.1c0,0,0,0,0-0.1l0-0.5c0-0.2,0-0.6,0-1.3v-8.6c0-0.6,0-1.1-0.1-1.4
			C183.9,137.7,184.2,137.9,184.6,138.1L184.6,138.1z M189.8,139.9c0.4-1,0.8-2.1,0.9-3c0.3,0.1,0.6,0.2,0.8,0.3
			c0.2,0.1,0.4,0.2,0.4,0.2c0,0,0.1,0.1,0.1,0.1s-0.1,0.1-0.1,0.1c-0.1,0-0.2,0.1-0.3,0.2c-0.1,0.1-0.3,0.3-0.5,0.7l-0.9,1.3h1.6
			l0.4-0.7c0.1-0.1,0.1-0.2,0.2-0.2s0.2,0.2,0.6,0.5s0.5,0.5,0.5,0.6c0,0.1-0.1,0.1-0.2,0.1h-2.9c0.2,0.2,0.4,0.3,0.4,0.3
			c0,0.1-0.1,0.1-0.2,0.1c0,0-0.1,0-0.1,0c-0.1,0-0.2,0.1-0.4,0.2c-0.2,0.1-0.4,0.3-0.7,0.5c-0.3,0.2-0.5,0.4-0.6,0.5
			c0.5,0.4,0.9,0.8,1.2,1.3c0.7-0.8,1.4-1.6,1.9-2.5c0.6,0.6,1,1,1,1.1c0,0,0,0.1-0.1,0.1c0,0-0.1,0-0.1,0c-0.1,0-0.1,0-0.1,0
			c-0.1,0-0.2,0.1-0.4,0.2c-0.2,0.1-0.5,0.3-1,0.6c0.2,1.3,0.5,2.3,0.9,3.1c0.4,0.8,0.9,1.4,1.6,1.9l-0.1,0.2
			c-0.2-0.1-0.4-0.1-0.6-0.1c-0.3,0-0.6,0.1-0.8,0.3c0,0.1-0.1,0.1-0.1,0.1c-0.1,0-0.3-0.4-0.6-1.2c-0.3-0.8-0.5-2.1-0.6-4
			c-0.4,0.3-0.7,0.4-0.8,0.5c0.4,0.7,0.6,1.6,0.6,2.6c0,0.7-0.1,1.3-0.2,1.8s-0.4,0.9-0.8,1.2c-0.4,0.3-0.6,0.4-0.8,0.4
			c-0.1,0-0.1-0.1-0.1-0.2c0-0.2-0.1-0.4-0.2-0.6c-0.2-0.1-0.5-0.3-1-0.5v-0.2c0.5,0.1,0.9,0.2,1.2,0.2c0.3,0,0.5-0.1,0.6-0.2
			c0.1-0.1,0.3-0.4,0.4-0.9c0.1-0.5,0.1-0.8,0.1-1.1s0-0.5,0-0.6c-0.8,0.8-1.5,1.5-2.1,1.9c-0.6,0.4-1.5,0.9-2.4,1.2l-0.1-0.2
			c1.8-1.2,3.3-2.6,4.4-4.2c-0.1-0.1-0.1-0.3-0.2-0.6c-0.4,0.5-0.8,0.9-1.1,1.2c-0.3,0.3-0.7,0.6-1.3,0.9l-0.1-0.2
			c0.8-0.9,1.5-1.8,2-2.7c-0.1-0.1-0.2-0.2-0.3-0.4c-0.5,0.3-1.1,0.6-1.9,0.9l-0.1-0.2c1-0.8,1.9-1.6,2.5-2.4h-2.2
			c-0.2,0-0.4,0-0.5,0.1l-0.2-0.6c0.2,0,0.3,0.1,0.6,0.1L189.8,139.9L189.8,139.9z M187.4,137.1c0.6,0.3,1.1,0.5,1.4,0.8
			c0.3,0.3,0.5,0.6,0.5,0.8c0,0.3-0.1,0.5-0.2,0.8s-0.3,0.3-0.5,0.3c-0.1,0-0.2,0-0.2-0.1c0,0-0.1-0.2-0.1-0.6s-0.2-0.6-0.3-0.9
			c-0.1-0.3-0.4-0.6-0.7-1L187.4,137.1L187.4,137.1z"/>
		<path class="st3" d="M130.2,156.4L130.2,156.4h-0.6l-0.5-3.1l-1.5,3.1l-1.4-2.9l-0.3,2.9h-0.2l0.3-2.8c0-0.4,0.2-1.4-0.4-1.6v0
			c0.8,0,1.1,0.8,1.3,1.3l1,2.2l1.7-3.5L130.2,156.4z"/>
		<path class="st3" d="M133.5,154.9c0,1.1-0.6,1.6-1.3,1.6c-0.7,0-1.3-0.5-1.3-1.6s0.6-1.6,1.3-1.6
			C132.9,153.3,133.5,153.8,133.5,154.9z M132.9,154.9c0-1-0.2-1.5-0.7-1.5c-0.5,0-0.7,0.5-0.7,1.5c0,1,0.2,1.5,0.7,1.5
			C132.7,156.4,132.9,155.9,132.9,154.9z"/>
		<path class="st3" d="M136.1,153.3v0.4c-0.4,0-0.9-0.1-1,0.9v1.9h-0.6v-2.5c0-0.3-0.2-0.6-0.5-0.6v0h1.1v0.8
			C135.2,153.5,135.6,153.3,136.1,153.3L136.1,153.3z"/>
		<path class="st3" d="M137.2,154.8v0.1c0,1.1,0.9,2,1.8,0.9l0.1,0.1c0,0.1-0.3,0.6-1.2,0.6c-0.9,0-1.4-0.7-1.4-1.6
			c0-0.9,0.5-1.6,1.4-1.6c1,0,1.2,0.9,1.2,1.2v0.2H137.2L137.2,154.8z M137.3,154.5h1.2c0-0.7-0.1-1-0.5-1S137.3,153.7,137.3,154.5
			L137.3,154.5z"/>
		<path class="st3" d="M145.3,154.1c0,2.4-2.2,2.3-2.2,2.3h-1.3v-3.9c0-0.3-0.2-0.6-0.5-0.6v0h1.8
			C143.1,151.9,145.2,151.8,145.3,154.1L145.3,154.1z M144.6,154.1c0-2-1.3-2-1.6-2h-0.7v4.1h0.7
			C143.2,156.2,144.6,156.2,144.6,154.1L144.6,154.1z"/>
		<path class="st3" d="M148,153.3v0.4c-0.4,0-0.8-0.1-1,0.9v1.9h-0.6v-2.5c0-0.3-0.2-0.6-0.5-0.6v0h1v0.8
			C147.1,153.5,147.5,153.3,148,153.3L148,153.3z"/>
		<path class="st3" d="M149.1,154.8v0.1c0,1.1,0.9,2,1.8,0.9l0.1,0.1c0,0.1-0.3,0.6-1.1,0.6c-0.9,0-1.4-0.7-1.4-1.6
			c0-0.9,0.5-1.6,1.4-1.6c1,0,1.1,0.9,1.1,1.2v0.2H149.1L149.1,154.8z M149.1,154.5h1.2c0-0.7-0.1-1-0.5-1S149.2,153.7,149.1,154.5
			L149.1,154.5z"/>
		<path class="st3" d="M154.1,154.2v2.2h-0.6V156c-0.3,0.5-1.8,1-1.8-0.3c0-1.1,1-1,1.8-1.3v-0.3c0-0.4-0.1-0.6-0.5-0.6
			c-0.2,0-0.6,0-0.9,0.4l-0.2-0.1c0.2-0.5,0.7-0.6,1-0.6C153.8,153.3,154.1,153.6,154.1,154.2L154.1,154.2z M153.5,155.8v-1.3
			c-0.6,0.2-1.1,0.2-1.1,1C152.3,156.4,153,156.4,153.5,155.8z"/>
		<path class="st3" d="M159.3,154.3v2.1h-0.6v-2.1c0-0.6-0.3-0.8-0.5-0.8c-0.3,0-0.6,0.2-0.7,0.4v2.5H157v-2.1
			c0-0.6-0.3-0.8-0.6-0.8c-0.3,0-0.6,0.2-0.7,0.4v2.5h-0.6v-2.5c0-0.3-0.2-0.6-0.5-0.6v0h1.1v0.3c0.2-0.2,0.4-0.3,0.7-0.3
			c0.5,0,0.8,0.2,1,0.4c0.2-0.3,0.5-0.4,0.8-0.4C159,153.3,159.3,153.8,159.3,154.3L159.3,154.3z"/>
		<path class="st3" d="M161.4,156.4l1.8-4.5l1.9,4.5h-0.7l-0.4-0.9H162l-0.4,0.9H161.4z M162.1,155.3h1.9l-0.9-2.3L162.1,155.3z"/>
		<path class="st3" d="M167.3,153.3v0.4c-0.4,0-0.9-0.1-1,0.9v1.9h-0.6v-2.5c0-0.3-0.2-0.6-0.5-0.6v0h1.1v0.8
			C166.5,153.5,166.8,153.3,167.3,153.3L167.3,153.3z"/>
		<path class="st3" d="M170.1,155.9c-0.1,0.2-0.4,0.7-1,0.7c-0.8,0-1.3-0.7-1.3-1.6c0-0.9,0.5-1.6,1.3-1.6c0.6,0,0.9,0.4,1,0.6
			l-0.1,0.1c-0.6-1-1.6-0.6-1.6,0.8c0,1.5,0.9,1.8,1.6,0.8L170.1,155.9z"/>
		<path class="st3" d="M173.5,154.3v2.1h-0.6v-2.1c0-0.6-0.3-0.8-0.6-0.8c-0.3,0-0.6,0.2-0.7,0.4v2.5h-0.6v-3.9
			c0-0.3-0.2-0.6-0.5-0.6v0h1v1.8c0.2-0.2,0.4-0.3,0.7-0.3C173.2,153.3,173.5,153.8,173.5,154.3L173.5,154.3z"/>
		<path class="st3" d="M174.9,153.3v3.1h-0.6v-2.5c0-0.3-0.2-0.6-0.5-0.6v0H174.9L174.9,153.3z M174.6,152c-0.2,0-0.4,0.2-0.4,0.4
			s0.2,0.4,0.4,0.4s0.4-0.2,0.4-0.4C174.9,152.2,174.8,152,174.6,152z"/>
		<path class="st3" d="M177.4,156.1c-0.1,0.2-0.3,0.4-0.8,0.4c-0.5,0-0.5-0.3-0.5-0.6v-2.4h-0.5v-0.2h0.5v-0.1
			c0-0.3-0.2-0.6-0.5-0.6v0h1.1v0.8h0.6v0.2h-0.6v2.2c0,0.2,0,0.4,0.2,0.5c0.1,0,0.4,0,0.5-0.3L177.4,156.1L177.4,156.1z"/>
		<path class="st3" d="M178.2,154.8v0.1c0,1.1,0.9,2,1.8,0.9l0.1,0.1c0,0.1-0.3,0.6-1.2,0.6c-0.9,0-1.4-0.7-1.4-1.6
			c0-0.9,0.5-1.6,1.4-1.6c1,0,1.2,0.9,1.2,1.2v0.2H178.2L178.2,154.8z M178.3,154.5h1.2c0-0.7-0.1-1-0.5-1S178.3,153.7,178.3,154.5
			L178.3,154.5z"/>
		<path class="st3" d="M183.1,155.9c-0.1,0.2-0.4,0.7-1,0.7c-0.8,0-1.3-0.7-1.3-1.6c0-0.9,0.5-1.6,1.3-1.6c0.6,0,0.9,0.4,1,0.6
			l-0.1,0.1c-0.6-1-1.6-0.6-1.6,0.8c0,1.5,0.9,1.8,1.6,0.8L183.1,155.9z"/>
		<path class="st3" d="M185.3,156.1c-0.1,0.2-0.3,0.4-0.8,0.4c-0.5,0-0.5-0.3-0.5-0.6v-2.4h-0.5v-0.2h0.5v-0.1
			c0-0.3-0.2-0.6-0.5-0.6v0h1v0.8h0.6v0.2h-0.6v2.2c0,0.2,0,0.4,0.2,0.5c0.1,0,0.4,0,0.5-0.3L185.3,156.1L185.3,156.1z"/>
		<path class="st3" d="M188.4,153.3v3.1h-0.6v-0.2c-0.2,0.2-0.4,0.3-0.7,0.3c-0.8,0-1.1-0.5-1.1-1v-1.5c0-0.3-0.2-0.6-0.5-0.6v0h1.1
			v2.1c0,0.6,0.3,0.8,0.5,0.8c0.3,0,0.6-0.1,0.7-0.3v-2.6H188.4z"/>
		<path class="st3" d="M191.2,153.3v0.4c-0.4,0-0.8-0.1-1,0.9v1.9h-0.6v-2.5c0-0.3-0.2-0.6-0.5-0.6v0h1.1v0.8
			C190.4,153.5,190.7,153.3,191.2,153.3L191.2,153.3z"/>
		<path class="st3" d="M192.4,154.8v0.1c0,1.1,0.9,2,1.8,0.9l0.1,0.1c0,0.1-0.4,0.6-1.1,0.6c-0.9,0-1.4-0.7-1.4-1.6
			c0-0.9,0.5-1.6,1.4-1.6c1,0,1.1,0.9,1.1,1.2v0.2H192.4L192.4,154.8z M192.4,154.5h1.2c0-0.7-0.1-1-0.5-1S192.4,153.7,192.4,154.5
			L192.4,154.5z"/>
		<path class="st1" d="M101.5,158L101.5,158C101.5,158.1,101.5,158,101.5,158z"/>
		<path class="st1" d="M117.6,156.2V149c3.7,2.9,3.5,8,3.5,8c1.1-4.8-2.9-8.4-2.9-8.4c-0.2-0.2-0.4-0.3-0.6-0.5v-11.8l-1.3,1.1v9.9
			c-0.2-0.1-0.3-0.2-0.5-0.2v-9.2l-1.3,1v7.7c-0.1,0-0.3-0.1-0.4-0.1v-7.2l-1.3,1v5.9c-0.4,0-0.7,0-1,0v-6.9l-1.3-1v8.1
			c-0.2,0.1-0.4,0.1-0.5,0.1l0-8.7l-1.2-1V147c-0.2,0.1-0.3,0.2-0.5,0.2v-10.9l-1.3-1.1v12.8c-4.6,3.4-3.5,9.1-3.5,9.2
			c-0.6,0.2-1.1,0.5-1.7,0.8c0.7-0.4,8.8-4,21.3,0C122.8,158.1,120.8,156.9,117.6,156.2L117.6,156.2z M116.2,148.2v7.7
			c-0.2,0-0.3-0.1-0.5-0.1v-7.9C115.9,148,116.1,148.1,116.2,148.2L116.2,148.2z M114.4,147.5v8.1c-0.1,0-0.3,0-0.4,0v-8.2
			C114.1,147.4,114.2,147.4,114.4,147.5z M110.3,147.4v8.2c-0.2,0-0.4,0-0.6,0.1l0-8.1C109.9,147.5,110.1,147.4,110.3,147.4
			L110.3,147.4z M108.5,148v7.8c-0.2,0-0.3,0.1-0.5,0.1v-7.6C108.2,148.1,108.4,148,108.5,148z M105.7,149.9c0.3-0.3,0.7-0.6,1-0.9
			v7c-1.2,0.3-2.3,0.6-3.5,1.1C103.2,152.1,105.7,149.9,105.7,149.9z M111.6,155.5v-8.3c0.4,0,0.7,0,1,0v8.3
			C112.3,155.5,111.9,155.5,111.6,155.5L111.6,155.5z"/>
		<path class="st2" d="M129.4,145.4h-1.6v0.8c0,0.1,0,0.1,0,0.2c0,0-0.1,0.1-0.2,0.2c-0.1,0.1-0.3,0.2-0.4,0.2
			c-0.2,0.1-0.3,0.1-0.3,0.1s0,0,0-0.1c0-0.4,0.1-0.9,0.1-1.3v-6.7c0-0.4,0-0.8,0-1.1c0.7,0.3,1.1,0.6,1.4,0.8h1.1l0.3-0.5
			c0-0.1,0.1-0.1,0.1-0.1c0.1,0,0.3,0.1,0.6,0.4c0.3,0.3,0.5,0.4,0.5,0.5c0,0.1-0.1,0.2-0.5,0.3v5.4l0,1.2v0.2
			c-0.3,0.2-0.5,0.4-0.7,0.4c-0.2,0.1-0.3,0.1-0.3,0.1c0,0-0.1-0.1-0.1-0.2L129.4,145.4L129.4,145.4z M127.8,141.8h1.6v-3h-1.6
			V141.8z M127.8,145h1.6v-2.8h-1.6V145z M132.7,138.2h1.7l0.3-0.6c0.1-0.1,0.1-0.2,0.2-0.2c0.1,0,0.2,0.1,0.4,0.3l0.5,0.4
			c0.1,0.1,0.2,0.2,0.2,0.3s-0.2,0.2-0.6,0.4v8.3c0,0.6,0,0.9-0.1,1.1s-0.3,0.4-0.6,0.6c-0.3,0.2-0.5,0.3-0.6,0.3
			c-0.1,0-0.1-0.1-0.1-0.3s-0.1-0.4-0.1-0.5c-0.1-0.1-0.2-0.2-0.4-0.4c-0.2-0.1-0.5-0.3-0.9-0.5l0-0.2c0.7,0.2,1.2,0.2,1.4,0.2
			c0.2,0,0.3,0,0.4-0.1c0.1-0.1,0.1-0.2,0.1-0.4v-2.8h-2.2c-0.1,1.4-0.4,2.4-1,3c-0.6,0.6-1.4,1.3-2.7,1.9l-0.1-0.2
			c0.6-0.5,1.1-0.9,1.4-1.3c0.4-0.4,0.6-0.8,0.8-1.1c0.2-0.4,0.4-0.8,0.5-1.3s0.2-1.2,0.2-2.1c0.1-0.9,0.1-1.9,0.1-2.9
			c0-1,0-1.9-0.1-2.9C131.9,137.7,132.3,137.9,132.7,138.2L132.7,138.2z M134.5,141.5h-2.1c0,0.7-0.1,1.6-0.1,2.5h2.2V141.5z
			 M132.4,141.1h2v-2.5h-2c0,0.3,0,0.6,0,1S132.4,140.5,132.4,141.1L132.4,141.1z"/>
		<path class="st2" d="M143,139c0.2,0.3,0.1,0.4-0.1,0.4h-2.5c0.3,0.1,0.5,0.3,0.6,0.4c0.2,0.1,0.3,0.2,0.4,0.4
			c0.1,0.1,0.1,0.2,0.1,0.3s0,0.2,0,0.4c0,0.2-0.1,0.3-0.2,0.4c-0.1,0.1-0.2,0.2-0.3,0.2s-0.2,0-0.3,0s-0.1-0.1-0.1-0.3
			c-0.1-0.3-0.1-0.6-0.2-0.9c-0.1-0.3-0.2-0.6-0.4-0.8h-0.3c-0.1,0.3-0.3,0.5-0.4,0.7c-0.1,0.2-0.3,0.5-0.5,0.7
			c-0.2,0.2-0.4,0.5-0.6,0.7c-0.2,0.2-0.5,0.5-0.8,0.8l-0.2-0.2c0.3-0.5,0.5-0.9,0.7-1.3c0.2-0.4,0.4-0.8,0.6-1.1
			c0.2-0.4,0.3-0.8,0.5-1.2c0.2-0.4,0.3-0.9,0.5-1.4c0.2,0.1,0.4,0.1,0.6,0.2c0.2,0.1,0.3,0.2,0.5,0.3c0.1,0.1,0.2,0.2,0.2,0.2
			c0,0.1-0.1,0.1-0.2,0.2c0,0-0.1,0-0.1,0c0,0-0.1,0.1-0.1,0.1c0,0.1-0.1,0.1-0.2,0.3c-0.1,0.1-0.2,0.3-0.3,0.5h1.7l0.4-0.7
			c0.1-0.1,0.1-0.1,0.1-0.1c0,0,0.1,0,0.2,0.1c0.2,0.1,0.3,0.2,0.4,0.4C142.9,138.8,142.9,138.9,143,139L143,139z M142.2,146.4
			l-2.7,1.2c-0.4,0.2-0.7,0.3-1,0.5c-0.3,0.2-0.4,0.3-0.5,0.3c-0.1,0.1-0.2,0.1-0.2-0.1c-0.1-0.2-0.2-0.3-0.2-0.5
			c-0.1-0.2-0.2-0.4-0.2-0.6c0.3-0.1,0.7-0.1,1-0.2c0.3-0.1,0.6-0.1,0.9-0.2v-4.1h-0.7c-0.1,0-0.2,0-0.3,0.1c-0.1,0-0.2,0.1-0.2,0.1
			l-0.3-0.6c0.1,0,0.2,0,0.3,0.1c0.1,0,0.2,0,0.3,0h2.4l0.4-0.7c0.1-0.1,0.2-0.2,0.3,0c0.1,0.1,0.2,0.3,0.3,0.4
			c0.1,0.1,0.2,0.3,0.3,0.3c0.2,0.2,0.2,0.3-0.1,0.3h-1.8v3.8l1.9-0.4L142.2,146.4L142.2,146.4z M144.8,146.1c0,0.4-0.1,0.6-0.3,0.7
			c-0.1,0-0.1,0-0.2,0c-0.1,0-0.2-0.2-0.3-0.4c-0.1-0.1-0.1-0.2-0.2-0.2c-0.1-0.1-0.1-0.2-0.2-0.2c-0.1,0.5-0.2,0.9-0.3,1.2
			c-0.1,0.3-0.3,0.6-0.6,0.9c-0.2,0.3-0.6,0.5-1,0.7c-0.4,0.2-0.9,0.5-1.5,0.7l-0.1-0.2c0.5-0.3,0.9-0.6,1.2-0.9
			c0.3-0.3,0.6-0.6,0.8-0.9c0.2-0.3,0.3-0.6,0.4-1s0.1-0.8,0.1-1.3v0c-0.2-0.1-0.3-0.3-0.5-0.4c-0.2-0.1-0.4-0.3-0.6-0.4l0.1-0.2
			c0.2,0.1,0.4,0.1,0.6,0.2c0.2,0.1,0.3,0.1,0.5,0.2V144c0-0.1,0-0.2,0-0.4c0-0.1,0-0.3,0-0.5c0-0.2,0-0.4,0-0.6
			c-0.1,0-0.2,0-0.3,0.1c-0.1,0-0.2,0.1-0.2,0.1l-0.3-0.6c0.1,0,0.2,0,0.3,0.1c0.1,0,0.2,0,0.3,0h2.3l0.3-0.5c0-0.1,0.1-0.1,0.1-0.2
			c0,0,0.1,0,0.2,0.1c0.1,0.1,0.3,0.2,0.4,0.3c0.1,0.1,0.2,0.2,0.4,0.3c0.1,0.1,0.2,0.2,0.1,0.3c0,0.1-0.2,0.2-0.5,0.3v4.7
			c0,0.1,0,0.2,0,0.3c0,0.1,0,0.1,0.1,0.2c0,0,0.1,0.1,0.1,0.1c0.1,0,0.1,0,0.2,0c0.2,0,0.3,0,0.4-0.1c0.1-0.1,0.1-0.2,0.2-0.3
			c0-0.2,0.1-0.4,0.1-0.7c0-0.3,0.1-0.8,0.1-1.3h0.2c0,0.4,0,0.8,0,1c0,0.3,0,0.5,0.1,0.6c0,0.1,0.1,0.3,0.1,0.3
			c0.1,0.1,0.1,0.1,0.2,0.2c0.1,0,0.1,0.1,0.1,0.1c0,0.1,0,0.1,0,0.3c-0.1,0.1-0.1,0.3-0.2,0.4c-0.1,0.1-0.2,0.2-0.3,0.3
			c-0.1,0.1-0.3,0.1-0.5,0.2c-0.2,0-0.5,0.1-0.8,0c-0.3,0-0.5,0-0.6-0.1c-0.2,0-0.3-0.1-0.3-0.2s-0.1-0.2-0.2-0.4c0-0.2,0-0.4,0-0.7
			v-5.2h-1.3c0,0.2,0,0.6,0,0.9c0,0.4,0,0.8,0,1.2c0.4,0.2,0.7,0.4,0.8,0.6C144.7,145.5,144.8,145.8,144.8,146.1L144.8,146.1z
			 M147.6,139c0.1,0.1,0.1,0.2,0.1,0.3c0,0.1-0.1,0.1-0.2,0.1h-2.7c0.3,0.1,0.5,0.3,0.7,0.4c0.2,0.1,0.3,0.2,0.4,0.3
			c0.1,0.1,0.1,0.2,0.1,0.3c0,0.1,0,0.2,0,0.3c0,0.1-0.1,0.2-0.1,0.2s-0.1,0.2-0.2,0.2c-0.1,0.1-0.1,0.1-0.2,0.2s-0.1,0.1-0.2,0.1
			c0,0-0.1,0-0.1-0.1s-0.1-0.1-0.1-0.2c-0.1-0.3-0.1-0.7-0.2-1c-0.1-0.3-0.2-0.6-0.4-0.8H144c-0.1,0.3-0.3,0.5-0.4,0.7
			c-0.1,0.2-0.3,0.4-0.4,0.6c-0.2,0.2-0.3,0.4-0.5,0.6c-0.2,0.2-0.4,0.4-0.7,0.7l-0.2-0.2c0.3-0.4,0.5-0.8,0.7-1.2
			c0.2-0.4,0.4-0.8,0.5-1.1c0.1-0.4,0.3-0.7,0.4-1.1c0.1-0.4,0.2-0.8,0.3-1.2c0.2,0.1,0.5,0.2,0.7,0.3c0.2,0.1,0.4,0.2,0.5,0.3
			c0.1,0.1,0.2,0.2,0.2,0.2c0,0.1-0.1,0.1-0.3,0.2c0,0-0.1,0-0.1,0c0,0-0.1,0.1-0.1,0.1c-0.1,0.1-0.1,0.1-0.2,0.3
			c-0.1,0.1-0.2,0.3-0.3,0.5h1.9l0.4-0.8c0.1-0.1,0.1-0.2,0.2-0.2c0.1,0,0.1,0,0.2,0.1c0.1,0.1,0.3,0.3,0.4,0.4
			C147.5,138.7,147.6,138.9,147.6,139L147.6,139z"/>
		<path class="st2" d="M151,139.1h-1.6c-0.1,0-0.2,0-0.3,0c-0.1,0-0.2,0-0.2,0.1l-0.2-0.6c0.1,0,0.2,0,0.3,0c0.1,0,0.2,0,0.3,0h1.5
			l0.4-0.6c0-0.1,0.1-0.1,0.1-0.1s0.1,0,0.2,0.1c0.1,0.1,0.3,0.2,0.4,0.3c0.1,0.1,0.2,0.2,0.3,0.3c0.1,0.1,0.1,0.2,0.1,0.3
			c0,0.1-0.2,0.2-0.5,0.3l-1.3,2.7h0.8l0.2-0.4c0-0.1,0.1-0.1,0.1-0.1c0,0,0.1,0,0.1,0.1c0.1,0.1,0.2,0.2,0.4,0.3
			c0.1,0.1,0.3,0.2,0.4,0.3c0.2,0.1,0.2,0.3-0.1,0.4c-0.1,0-0.2,0.1-0.2,0.2c0,0.1-0.1,0.2-0.1,0.4c-0.1,0.6-0.2,1.2-0.4,1.8
			c-0.2,0.5-0.3,1-0.5,1.4c0.3,0.2,0.5,0.4,0.8,0.6c0.3,0.2,0.5,0.3,0.8,0.4s0.7,0.2,1,0.2c0.4,0.1,0.8,0.1,1.4,0.1
			c0.5,0,1.1,0,1.8,0s1.5-0.1,2.3-0.1v0.2c-0.2,0-0.4,0.1-0.6,0.2c-0.2,0.1-0.3,0.1-0.4,0.2c-0.1,0.1-0.2,0.2-0.3,0.3
			c-0.1,0.1-0.1,0.2-0.2,0.4c0,0.1-0.1,0.1-0.1,0.1s-0.1,0-0.2,0c-0.8,0-1.4-0.1-2-0.1c-0.6,0-1.1-0.1-1.5-0.2
			c-0.4-0.1-0.8-0.1-1.1-0.2c-0.3-0.1-0.6-0.2-0.9-0.3c-0.2-0.1-0.5-0.3-0.7-0.4s-0.4-0.4-0.6-0.6c-0.1,0.2-0.2,0.4-0.4,0.6
			c-0.1,0.2-0.3,0.4-0.5,0.5c-0.2,0.2-0.4,0.3-0.6,0.5c-0.2,0.2-0.5,0.4-0.9,0.6l-0.1-0.2c0.3-0.3,0.5-0.5,0.7-0.7
			c0.2-0.2,0.4-0.4,0.5-0.6c0.2-0.2,0.3-0.4,0.4-0.6c0.1-0.2,0.2-0.4,0.3-0.7c-0.2-0.3-0.4-0.7-0.5-1.2c-0.1-0.5-0.3-1-0.4-1.7
			l0.2-0.1c0.1,0.3,0.2,0.6,0.3,0.8c0.1,0.2,0.2,0.4,0.3,0.6c0.1,0.2,0.2,0.3,0.2,0.4c0.1,0.1,0.2,0.2,0.2,0.3
			c0.1-0.5,0.3-1,0.4-1.5c0.1-0.5,0.2-1.1,0.2-1.7h-1l-0.1,0.3c0,0.1-0.1,0.1-0.1,0.1s-0.1,0-0.1,0.1c-0.1,0-0.2,0-0.3,0
			c-0.1,0-0.2,0-0.3-0.1c-0.1,0-0.2-0.1-0.1-0.2c0.1-0.2,0.3-0.4,0.4-0.7c0.1-0.2,0.3-0.5,0.4-0.7L151,139.1L151,139.1z
			 M159.2,140.3c0.1,0.1,0.2,0.2,0.1,0.3c0,0-0.1,0.1-0.2,0.1h-1.4v0.6c0,0.2,0,0.3,0,0.4c0,0.1,0,0.2,0,0.2c0,0.1,0,0.1,0,0.2
			c0,0.1,0,0.2,0,0.2c0,0,0,0.1-0.1,0.1c-0.1,0.1-0.2,0.1-0.2,0.2c-0.1,0-0.2,0.1-0.3,0.1c-0.1,0-0.2,0-0.2,0c0,0-0.1-0.2-0.1-0.3
			h-1.2v1.2h1.1l0.3-0.6c0.1-0.1,0.2-0.1,0.3,0c0.1,0.1,0.3,0.2,0.4,0.3c0.1,0.1,0.2,0.2,0.3,0.3c0.2,0.2,0.2,0.3-0.1,0.3h-2.3v1.1
			h1.9l0.3-0.5c0.1-0.1,0.1-0.2,0.2-0.2c0,0,0.1,0,0.2,0.1c0.1,0.1,0.3,0.2,0.4,0.3c0.1,0.1,0.2,0.2,0.3,0.3
			c0.1,0.2,0.2,0.3,0.2,0.3c0,0.1-0.1,0.1-0.3,0.1h-3.1c0,0.2,0,0.5,0,0.8s0,0.6,0,0.8c0,0.1,0,0.1,0,0.2c0,0,0,0.1-0.1,0.1
			c-0.1,0.1-0.2,0.1-0.3,0.2c-0.1,0-0.2,0.1-0.4,0.1c-0.1,0-0.1,0-0.1-0.2c0-0.3,0-0.7,0-1c0-0.3,0-0.7,0-0.9h-1.8
			c-0.1,0-0.2,0-0.3,0c-0.1,0-0.2,0-0.2,0.1l-0.2-0.6c0.1,0,0.2,0,0.3,0c0.1,0,0.2,0,0.3,0h2V144h-1.4c-0.1,0-0.2,0-0.3,0
			c-0.1,0-0.2,0-0.2,0.1l-0.2-0.6c0.1,0,0.2,0,0.3,0.1c0.1,0,0.2,0,0.3,0h1.5v-1.2h-1.1c-0.1,0-0.2,0-0.3,0c-0.1,0-0.2,0-0.2,0.1
			l-0.2-0.6c0.1,0,0.2,0,0.3,0.1c0.1,0,0.2,0,0.3,0h1.3v-1.3h-2.1c-0.1,0-0.2,0-0.3,0c-0.1,0-0.2,0-0.2,0.1l-0.2-0.5
			c0.1,0,0.2,0,0.3,0c0.1,0,0.2,0,0.3,0h2.2v-1.1h-1.2c-0.1,0-0.2,0-0.3,0c-0.1,0-0.2,0-0.2,0.1l-0.2-0.6c0.1,0,0.2,0,0.3,0.1
			c0.1,0,0.2,0,0.3,0h1.3V138c0-0.2,0-0.4,0-0.5c0-0.1,0-0.3,0-0.4c0-0.1,0-0.2,0-0.3c0.2,0.1,0.4,0.1,0.6,0.1
			c0.2,0.1,0.4,0.1,0.6,0.2c0.1,0,0.2,0.1,0.1,0.2c0,0.1-0.1,0.2-0.4,0.3v1.1h1.2l0.2-0.4c0-0.1,0.1-0.1,0.1-0.1c0,0,0.1,0,0.2,0.1
			c0.1,0.1,0.3,0.2,0.4,0.2c0.1,0.1,0.2,0.1,0.3,0.2c0.1,0.1,0.1,0.2,0.1,0.2c0,0.1-0.1,0.2-0.4,0.3v0.9h0.3l0.3-0.7
			c0.1-0.1,0.1-0.2,0.1-0.2s0.1,0.1,0.2,0.1c0.2,0.2,0.3,0.3,0.4,0.4C159,140,159.1,140.2,159.2,140.3L159.2,140.3z M156.8,139.2
			h-1.2v1.1h1.2V139.2z M156.8,140.7h-1.2v1.3h1.2V140.7z"/>
		<path class="st2" d="M170.3,143.8c-0.1,0.1-0.2,0.2-0.3,0.3c-0.1,0.1-0.2,0.1-0.3,0.2c-0.1,0-0.2,0.1-0.3,0.1c-0.1,0-0.3,0-0.5,0
			c-0.3,0-0.6,0-0.7,0c-0.2,0-0.3-0.1-0.4-0.1c-0.1-0.1-0.2-0.2-0.2-0.3c0-0.1,0-0.3,0-0.5v-2h-0.8c0,0.2,0,0.4-0.1,0.6
			c0,0.2-0.1,0.4-0.1,0.5c0.2,0.1,0.3,0.2,0.4,0.2c0.1,0.1,0.2,0.2,0.2,0.2c0.1,0.2,0.1,0.3,0.1,0.5c0,0.1-0.1,0.2-0.2,0.3
			c-0.2,0.1-0.4,0-0.6-0.3c0,0-0.1-0.1-0.1-0.1c0-0.1-0.1-0.1-0.1-0.1c-0.1,0.2-0.2,0.3-0.4,0.5c-0.2,0.2-0.5,0.3-0.8,0.5
			c0.2,0,0.3,0.1,0.4,0.1c0.1,0,0.2,0.1,0.4,0.1c0.1,0,0.2,0.1,0.2,0.2c0,0.1-0.1,0.1-0.2,0.2v0.4h2.9l0.4-0.7
			c0.1-0.1,0.1-0.2,0.2-0.2c0.1,0,0.1,0,0.2,0.1c0.1,0.1,0.3,0.2,0.4,0.3c0.1,0.1,0.2,0.2,0.3,0.4c0.1,0.1,0.2,0.2,0.2,0.3
			c0,0.1-0.1,0.1-0.3,0.1h-3.7c0.3,0.4,0.6,0.7,0.9,0.9c0.3,0.2,0.5,0.4,0.8,0.6c0.3,0.2,0.6,0.3,1,0.4c0.4,0.1,0.9,0.2,1.5,0.3v0.3
			c-0.2,0-0.4,0-0.5,0.1c-0.1,0-0.2,0.1-0.3,0.1c-0.1,0-0.1,0.1-0.2,0.2c0,0.1-0.1,0.2-0.1,0.3c0,0-0.1,0.1-0.1,0.1c0,0-0.1,0-0.2,0
			c-0.4-0.1-0.7-0.2-1-0.4c-0.3-0.2-0.5-0.3-0.8-0.6s-0.5-0.5-0.7-0.8s-0.4-0.7-0.7-1.2h-0.2v1.8c0,0.3,0,0.6,0,0.8s0,0.4,0,0.7
			c0,0.1,0,0.2-0.1,0.2c-0.1,0.1-0.3,0.1-0.4,0.2c-0.1,0-0.3,0.1-0.4,0.1c-0.1,0-0.1,0-0.1-0.1c0-0.2,0-0.4,0-0.5c0-0.2,0-0.3,0-0.4
			c0-0.1,0-0.3,0-0.4v-1.9c-0.3,0.4-0.6,0.8-0.9,1.1s-0.6,0.5-0.9,0.7c-0.3,0.2-0.7,0.4-1.1,0.6c-0.4,0.2-1,0.4-1.6,0.6l-0.1-0.2
			c0.5-0.3,1-0.5,1.3-0.8c0.4-0.2,0.7-0.4,0.9-0.7c0.3-0.2,0.5-0.5,0.8-0.8c0.2-0.3,0.5-0.6,0.8-1h-2.9c-0.1,0-0.2,0-0.3,0.1
			c-0.1,0-0.2,0.1-0.2,0.1l-0.2-0.6c0.1,0,0.2,0.1,0.3,0.1c0.1,0,0.2,0,0.3,0h3.8c0-0.1,0-0.3,0-0.5s0-0.3,0-0.5
			c-0.3,0.2-0.7,0.3-1.2,0.5l-0.1-0.2c0.3-0.1,0.6-0.3,0.8-0.4c0.2-0.2,0.5-0.3,0.7-0.5s0.3-0.3,0.5-0.5c0.1-0.2,0.2-0.3,0.3-0.5
			c-0.1-0.1-0.3-0.2-0.4-0.3c-0.1-0.1-0.3-0.2-0.5-0.3l0-0.2c0.2,0,0.4,0,0.5,0.1c0.1,0,0.3,0.1,0.4,0.1c0-0.2,0.1-0.3,0.1-0.4
			c0-0.1,0-0.3,0-0.5H166c-0.2,0-0.3,0-0.4,0c-0.1,0-0.2,0-0.3,0.1l-0.4-0.5c0.2,0,0.3,0,0.4,0c0.1,0,0.2,0,0.4,0h1.8l0.2-0.3
			c0,0-0.1-0.1-0.1-0.1c0-0.1,0-0.2-0.1-0.3s-0.1-0.2-0.1-0.3c-0.1-0.1-0.1-0.2-0.2-0.3c-0.1-0.1-0.1-0.2-0.2-0.4h-0.6
			c-0.2,0.3-0.5,0.6-0.7,0.8s-0.5,0.5-0.7,0.7l-0.2-0.2c0.2-0.3,0.4-0.6,0.6-0.9c0.2-0.3,0.3-0.5,0.4-0.8s0.2-0.5,0.4-0.8
			c0.1-0.3,0.2-0.6,0.3-0.9c0.1,0.1,0.2,0.1,0.3,0.2c0.1,0,0.2,0.1,0.2,0.1c0.1,0,0.1,0.1,0.2,0.1c0.1,0,0.1,0.1,0.2,0.1
			c0.2,0.1,0.2,0.2,0,0.3c0,0-0.1,0-0.1,0.1s-0.1,0.1-0.1,0.1c-0.1,0.1-0.1,0.2-0.2,0.3c-0.1,0.1-0.2,0.3-0.3,0.4h1.9l0.4-0.7
			c0.1-0.1,0.1-0.1,0.2-0.1s0.1,0,0.2,0.1c0.2,0.2,0.3,0.3,0.4,0.4c0.1,0.1,0.2,0.3,0.3,0.4c0.1,0.1,0.1,0.2,0.1,0.2
			c0,0.1-0.1,0.1-0.2,0.1h-2.6c0.4,0.1,0.6,0.2,0.7,0.3c0.1,0.1,0.2,0.2,0.2,0.3s0,0.3-0.1,0.4c-0.1,0.1-0.1,0.2-0.2,0.3l0.6,0.4
			c0.1,0.1,0.1,0.2,0,0.3l-0.3,0.2v1.5c0,0.2,0,0.4,0.1,0.4c0.1,0.1,0.2,0.1,0.4,0.1c0.1,0,0.3,0,0.3-0.1c0.1,0,0.1-0.1,0.2-0.2
			c0.1-0.1,0.1-0.3,0.1-0.5c0-0.2,0.1-0.5,0.1-0.9h0.2c0,0.3,0,0.5,0,0.7c0,0.2,0,0.3,0.1,0.4s0.1,0.2,0.1,0.2
			c0.1,0.1,0.1,0.1,0.2,0.1C170.4,143.6,170.5,143.7,170.3,143.8L170.3,143.8z M165.5,138.9c0.1,0.1,0.1,0.2,0.1,0.2
			c0,0.1-0.1,0.1-0.2,0.1h-2.1c0.4,0.1,0.6,0.3,0.7,0.5c0.1,0.2,0.2,0.3,0.1,0.5c0,0.2-0.1,0.3-0.2,0.3c-0.1,0.1-0.2,0.1-0.3,0.1
			c0,0-0.1,0-0.1,0c0,0,0-0.1-0.1-0.2c0-0.2-0.1-0.4-0.2-0.6c-0.1-0.2-0.2-0.4-0.3-0.6h-0.5c-0.1,0.2-0.3,0.4-0.4,0.6
			c-0.1,0.2-0.3,0.4-0.4,0.5c-0.2,0.2-0.3,0.3-0.5,0.5c-0.2,0.2-0.4,0.3-0.6,0.5l-0.1-0.2c0.2-0.3,0.4-0.6,0.5-0.8
			c0.2-0.3,0.3-0.6,0.5-0.9c0.2-0.3,0.3-0.7,0.5-1.1c0.2-0.4,0.3-0.8,0.5-1.3c0.2,0.1,0.4,0.2,0.5,0.3s0.3,0.2,0.4,0.3
			c0.1,0.1,0.2,0.1,0.2,0.2s-0.1,0.1-0.2,0.1c-0.1,0-0.1,0.1-0.2,0.2c-0.1,0.1-0.2,0.3-0.4,0.7h1.5l0.4-0.6c0.1-0.1,0.1-0.2,0.2-0.2
			c0.1,0,0.1,0,0.2,0.1c0.1,0.1,0.3,0.3,0.4,0.4C165.3,138.7,165.4,138.8,165.5,138.9L165.5,138.9z M164.9,141
			c0.1,0.1,0.1,0.1,0.1,0.2c0,0.1-0.1,0.1-0.2,0.1h-1.3v1.9l1.3-0.2l0.1,0.2l-2.6,1c-0.2,0.1-0.3,0.1-0.4,0.2
			c-0.1,0.1-0.3,0.2-0.4,0.2c-0.1,0-0.1,0.1-0.1,0.1c0,0-0.1-0.1-0.1-0.1c-0.1-0.2-0.1-0.3-0.2-0.5c0-0.1-0.1-0.3-0.2-0.6
			c0.2,0,0.3,0,0.4-0.1c0.1,0,0.3,0,0.4-0.1c0.1,0,0.3,0,0.4-0.1c0.2,0,0.3-0.1,0.5-0.1v-2h-0.7c-0.1,0-0.2,0-0.3,0
			c-0.1,0-0.2,0-0.2,0.1l-0.2-0.5c0.1,0,0.2,0,0.3,0.1c0.1,0,0.2,0,0.3,0h2.1l0.2-0.4c0-0.1,0.1-0.1,0.1-0.1s0.1,0,0.2,0.1
			c0.1,0.1,0.2,0.2,0.3,0.3C164.8,140.8,164.8,140.9,164.9,141L164.9,141z"/>
		<path class="st2" d="M173.5,138h6.6l0.3-0.6c0-0.1,0.1-0.1,0.1-0.1c0.1,0,0.2,0.1,0.4,0.2l0.5,0.4c0.1,0.1,0.2,0.2,0.2,0.3
			s-0.1,0.2-0.4,0.4v9.1c0,0.4,0,0.6,0,0.8v0.4c0,0,0,0.1,0,0.1s-0.1,0.1-0.2,0.2c-0.1,0.1-0.3,0.1-0.4,0.2
			c-0.1,0.1-0.2,0.1-0.3,0.1c0,0-0.1-0.1-0.1-0.2v-0.8h-6.8v0.2c0,0.1,0,0.2,0,0.2c0,0-0.1,0.1-0.2,0.1c-0.1,0.1-0.2,0.1-0.4,0.2
			s-0.3,0.1-0.3,0.1s-0.1-0.1-0.1-0.2c0-0.4,0-0.8,0-1.2v-9.5c0-0.4,0-0.7,0-1.1C172.9,137.6,173.2,137.8,173.5,138L173.5,138z
			 M180.2,145.2v-6.8h-6.8v6.7c0.1,0,0.3,0.1,0.5,0.1h3.6c0-0.3,0-0.6,0-0.9c0.7,0.1,1.1,0.2,1.1,0.4c0,0.1,0,0.1-0.1,0.2v0.3h0.5
			l0.4-0.5c0-0.1,0.1-0.1,0.2-0.1s0.2,0.1,0.3,0.3S180.1,145.1,180.2,145.2L180.2,145.2z M180.2,148.2v-2.7h-1.7v1.6
			c0,0.2-0.1,0.4-0.2,0.6c-0.1,0.1-0.3,0.2-0.5,0.3c-0.2,0.1-0.3,0.1-0.4,0.1s-0.1-0.1-0.1-0.2c0-0.2-0.1-0.3-0.2-0.4
			c-0.1-0.1-0.4-0.2-0.8-0.3V147c0.4,0.1,0.7,0.1,0.9,0.1c0.2,0,0.3,0,0.3-0.1s0.1-0.1,0.1-0.2v-1.3H174c-0.2,0-0.4,0-0.5,0.1
			l-0.2-0.3v3L180.2,148.2L180.2,148.2z M175.2,140.6h1.2v-0.8h-2.1c-0.2,0-0.4,0-0.5,0.1l-0.2-0.5c0.2,0,0.3,0.1,0.6,0.1h2.2
			c0-0.6,0-0.9,0-1.1c0.2,0,0.4,0.1,0.7,0.2c0.3,0.1,0.4,0.2,0.4,0.3s-0.1,0.2-0.2,0.2v0.4h1.4l0.3-0.5c0-0.1,0.1-0.1,0.2-0.1
			s0.2,0.1,0.5,0.4c0.3,0.3,0.4,0.4,0.4,0.5s-0.1,0.1-0.2,0.1h-2.6v0.8h1.3l0.2-0.3c0-0.1,0.1-0.1,0.1-0.1c0.1,0,0.2,0.1,0.5,0.2
			s0.4,0.3,0.4,0.4c0,0.1-0.1,0.2-0.3,0.3v0.7c0,0.2,0,0.3,0,0.5l0,0.3c0,0.1,0,0.1-0.1,0.2c-0.1,0-0.2,0.1-0.3,0.1
			c-0.2,0.1-0.3,0.1-0.4,0.1s-0.1,0-0.1-0.1h-1.3v0.8l1.1-0.1c-0.1-0.2-0.3-0.4-0.4-0.5l0-0.2c0.6,0.3,1,0.5,1.2,0.6
			c0.2,0.1,0.3,0.3,0.3,0.5s0,0.3-0.1,0.4c-0.1,0.1-0.1,0.2-0.2,0.2s-0.1-0.1-0.2-0.2c-0.2-0.3-0.3-0.4-0.4-0.5l-2.2,0.4
			c-0.8,0.1-1.2,0.3-1.5,0.4c0,0-0.1,0-0.1,0s-0.1,0-0.1-0.1c0,0-0.1-0.2-0.2-0.3c-0.1-0.2-0.2-0.3-0.3-0.5c0.8,0,1.6,0,2.3,0v-0.9
			h-1.3c0,0.1,0,0.2-0.1,0.2c0,0-0.1,0.1-0.3,0.2c-0.2,0.1-0.3,0.1-0.3,0.1c-0.1,0-0.1-0.1-0.1-0.2l0-0.9v-1c0-0.3,0-0.7,0-1
			C174.6,140.3,174.9,140.5,175.2,140.6L175.2,140.6z M174.7,145.5c0.9,0.4,1.3,0.8,1.3,1.1c0,0.2,0,0.4-0.1,0.5
			c-0.1,0.1-0.2,0.2-0.3,0.2c-0.1,0-0.1-0.1-0.2-0.3c-0.2-0.5-0.4-1-0.8-1.4L174.7,145.5L174.7,145.5z M176.3,140.9h-1.3v0.7h1.3
			V140.9z M175.1,141.9v0.6h1.3v-0.6H175.1z M178.5,141.6v-0.7h-1.3v0.7H178.5z M178.5,142.6v-0.6h-1.3v0.6H178.5z"/>
		<path class="st2" d="M184.6,138.1h0.9l0.3-0.4c0-0.1,0.1-0.1,0.2-0.1s0.2,0.1,0.6,0.4c0.3,0.3,0.5,0.4,0.5,0.5
			c0,0.1-0.1,0.1-0.2,0.2c-0.1,0-0.2,0.1-0.3,0.1c0,0.1-0.1,0.2-0.2,0.3l-1.1,2.5c0.5,0.5,0.9,0.9,1.2,1.3c0.3,0.4,0.4,0.9,0.4,1.4
			c0,0.7-0.2,1.2-0.6,1.5c-0.4,0.3-0.7,0.5-0.8,0.5c-0.1,0-0.1-0.1-0.1-0.2c0-0.4-0.2-0.7-0.7-0.9V145c0.3,0.1,0.5,0.1,0.7,0.1
			c0.4,0,0.6-0.2,0.6-0.7c0-0.2-0.1-0.6-0.2-1.1c-0.1-0.5-0.4-1-0.9-1.5c0.3-1.1,0.6-2.1,0.7-3.2h-1.1v10.3c0,0.1,0,0.2-0.1,0.2
			s-0.2,0.1-0.4,0.2c-0.2,0.1-0.3,0.1-0.4,0.1c0,0,0,0,0-0.1l0-0.5c0-0.2,0-0.6,0-1.3v-8.6c0-0.6,0-1.1-0.1-1.4
			C183.9,137.7,184.2,137.9,184.6,138.1L184.6,138.1z M189.8,139.9c0.4-1,0.8-2.1,0.9-3c0.3,0.1,0.6,0.2,0.8,0.3
			c0.2,0.1,0.4,0.2,0.4,0.2c0,0,0.1,0.1,0.1,0.1s-0.1,0.1-0.1,0.1c-0.1,0-0.2,0.1-0.3,0.2c-0.1,0.1-0.3,0.3-0.5,0.7l-0.9,1.3h1.6
			l0.4-0.7c0.1-0.1,0.1-0.2,0.2-0.2s0.2,0.2,0.6,0.5s0.5,0.5,0.5,0.6c0,0.1-0.1,0.1-0.2,0.1h-2.9c0.2,0.2,0.4,0.3,0.4,0.3
			c0,0.1-0.1,0.1-0.2,0.1c0,0-0.1,0-0.1,0c-0.1,0-0.2,0.1-0.4,0.2c-0.2,0.1-0.4,0.3-0.7,0.5c-0.3,0.2-0.5,0.4-0.6,0.5
			c0.5,0.4,0.9,0.8,1.2,1.3c0.7-0.8,1.4-1.6,1.9-2.5c0.6,0.6,1,1,1,1.1c0,0,0,0.1-0.1,0.1c0,0-0.1,0-0.1,0c-0.1,0-0.1,0-0.1,0
			c-0.1,0-0.2,0.1-0.4,0.2c-0.2,0.1-0.5,0.3-1,0.6c0.2,1.3,0.5,2.3,0.9,3.1c0.4,0.8,0.9,1.4,1.6,1.9l-0.1,0.2
			c-0.2-0.1-0.4-0.1-0.6-0.1c-0.3,0-0.6,0.1-0.8,0.3c0,0.1-0.1,0.1-0.1,0.1c-0.1,0-0.3-0.4-0.6-1.2c-0.3-0.8-0.5-2.1-0.6-4
			c-0.4,0.3-0.7,0.4-0.8,0.5c0.4,0.7,0.6,1.6,0.6,2.6c0,0.7-0.1,1.3-0.2,1.8s-0.4,0.9-0.8,1.2c-0.4,0.3-0.6,0.4-0.8,0.4
			c-0.1,0-0.1-0.1-0.1-0.2c0-0.2-0.1-0.4-0.2-0.6c-0.2-0.1-0.5-0.3-1-0.5v-0.2c0.5,0.1,0.9,0.2,1.2,0.2c0.3,0,0.5-0.1,0.6-0.2
			c0.1-0.1,0.3-0.4,0.4-0.9c0.1-0.5,0.1-0.8,0.1-1.1s0-0.5,0-0.6c-0.8,0.8-1.5,1.5-2.1,1.9c-0.6,0.4-1.5,0.9-2.4,1.2l-0.1-0.2
			c1.8-1.2,3.3-2.6,4.4-4.2c-0.1-0.1-0.1-0.3-0.2-0.6c-0.4,0.5-0.8,0.9-1.1,1.2c-0.3,0.3-0.7,0.6-1.3,0.9l-0.1-0.2
			c0.8-0.9,1.5-1.8,2-2.7c-0.1-0.1-0.2-0.2-0.3-0.4c-0.5,0.3-1.1,0.6-1.9,0.9l-0.1-0.2c1-0.8,1.9-1.6,2.5-2.4h-2.2
			c-0.2,0-0.4,0-0.5,0.1l-0.2-0.6c0.2,0,0.3,0.1,0.6,0.1L189.8,139.9L189.8,139.9z M187.4,137.1c0.6,0.3,1.1,0.5,1.4,0.8
			c0.3,0.3,0.5,0.6,0.5,0.8c0,0.3-0.1,0.5-0.2,0.8s-0.3,0.3-0.5,0.3c-0.1,0-0.2,0-0.2-0.1c0,0-0.1-0.2-0.1-0.6s-0.2-0.6-0.3-0.9
			c-0.1-0.3-0.4-0.6-0.7-1L187.4,137.1L187.4,137.1z"/>
		<path class="st3" d="M130.2,156.4L130.2,156.4h-0.6l-0.5-3.1l-1.5,3.1l-1.4-2.9l-0.3,2.9h-0.2l0.3-2.8c0-0.4,0.2-1.4-0.4-1.6v0
			c0.8,0,1.1,0.8,1.3,1.3l1,2.2l1.7-3.5L130.2,156.4z"/>
		<path class="st3" d="M133.5,154.9c0,1.1-0.6,1.6-1.3,1.6c-0.7,0-1.3-0.5-1.3-1.6s0.6-1.6,1.3-1.6
			C132.9,153.3,133.5,153.8,133.5,154.9z M132.9,154.9c0-1-0.2-1.5-0.7-1.5c-0.5,0-0.7,0.5-0.7,1.5c0,1,0.2,1.5,0.7,1.5
			C132.7,156.4,132.9,155.9,132.9,154.9z"/>
		<path class="st3" d="M136.1,153.3v0.4c-0.4,0-0.9-0.1-1,0.9v1.9h-0.6v-2.5c0-0.3-0.2-0.6-0.5-0.6v0h1.1v0.8
			C135.2,153.5,135.6,153.3,136.1,153.3L136.1,153.3z"/>
		<path class="st3" d="M137.2,154.8v0.1c0,1.1,0.9,2,1.8,0.9l0.1,0.1c0,0.1-0.3,0.6-1.2,0.6c-0.9,0-1.4-0.7-1.4-1.6
			c0-0.9,0.5-1.6,1.4-1.6c1,0,1.2,0.9,1.2,1.2v0.2H137.2L137.2,154.8z M137.3,154.5h1.2c0-0.7-0.1-1-0.5-1S137.3,153.7,137.3,154.5
			L137.3,154.5z"/>
		<path class="st3" d="M145.3,154.1c0,2.4-2.2,2.3-2.2,2.3h-1.3v-3.9c0-0.3-0.2-0.6-0.5-0.6v0h1.8
			C143.1,151.9,145.2,151.8,145.3,154.1L145.3,154.1z M144.6,154.1c0-2-1.3-2-1.6-2h-0.7v4.1h0.7
			C143.2,156.2,144.6,156.2,144.6,154.1L144.6,154.1z"/>
		<path class="st3" d="M148,153.3v0.4c-0.4,0-0.8-0.1-1,0.9v1.9h-0.6v-2.5c0-0.3-0.2-0.6-0.5-0.6v0h1v0.8
			C147.1,153.5,147.5,153.3,148,153.3L148,153.3z"/>
		<path class="st3" d="M149.1,154.8v0.1c0,1.1,0.9,2,1.8,0.9l0.1,0.1c0,0.1-0.3,0.6-1.1,0.6c-0.9,0-1.4-0.7-1.4-1.6
			c0-0.9,0.5-1.6,1.4-1.6c1,0,1.1,0.9,1.1,1.2v0.2H149.1L149.1,154.8z M149.1,154.5h1.2c0-0.7-0.1-1-0.5-1S149.2,153.7,149.1,154.5
			L149.1,154.5z"/>
		<path class="st3" d="M154.1,154.2v2.2h-0.6V156c-0.3,0.5-1.8,1-1.8-0.3c0-1.1,1-1,1.8-1.3v-0.3c0-0.4-0.1-0.6-0.5-0.6
			c-0.2,0-0.6,0-0.9,0.4l-0.2-0.1c0.2-0.5,0.7-0.6,1-0.6C153.8,153.3,154.1,153.6,154.1,154.2L154.1,154.2z M153.5,155.8v-1.3
			c-0.6,0.2-1.1,0.2-1.1,1C152.3,156.4,153,156.4,153.5,155.8z"/>
		<path class="st3" d="M159.3,154.3v2.1h-0.6v-2.1c0-0.6-0.3-0.8-0.5-0.8c-0.3,0-0.6,0.2-0.7,0.4v2.5H157v-2.1
			c0-0.6-0.3-0.8-0.6-0.8c-0.3,0-0.6,0.2-0.7,0.4v2.5h-0.6v-2.5c0-0.3-0.2-0.6-0.5-0.6v0h1.1v0.3c0.2-0.2,0.4-0.3,0.7-0.3
			c0.5,0,0.8,0.2,1,0.4c0.2-0.3,0.5-0.4,0.8-0.4C159,153.3,159.3,153.8,159.3,154.3L159.3,154.3z"/>
		<path class="st3" d="M161.4,156.4l1.8-4.5l1.9,4.5h-0.7l-0.4-0.9H162l-0.4,0.9H161.4z M162.1,155.3h1.9l-0.9-2.3L162.1,155.3z"/>
		<path class="st3" d="M167.3,153.3v0.4c-0.4,0-0.9-0.1-1,0.9v1.9h-0.6v-2.5c0-0.3-0.2-0.6-0.5-0.6v0h1.1v0.8
			C166.5,153.5,166.8,153.3,167.3,153.3L167.3,153.3z"/>
		<path class="st3" d="M170.1,155.9c-0.1,0.2-0.4,0.7-1,0.7c-0.8,0-1.3-0.7-1.3-1.6c0-0.9,0.5-1.6,1.3-1.6c0.6,0,0.9,0.4,1,0.6
			l-0.1,0.1c-0.6-1-1.6-0.6-1.6,0.8c0,1.5,0.9,1.8,1.6,0.8L170.1,155.9z"/>
		<path class="st3" d="M173.5,154.3v2.1h-0.6v-2.1c0-0.6-0.3-0.8-0.6-0.8c-0.3,0-0.6,0.2-0.7,0.4v2.5h-0.6v-3.9
			c0-0.3-0.2-0.6-0.5-0.6v0h1v1.8c0.2-0.2,0.4-0.3,0.7-0.3C173.2,153.3,173.5,153.8,173.5,154.3L173.5,154.3z"/>
		<path class="st3" d="M174.9,153.3v3.1h-0.6v-2.5c0-0.3-0.2-0.6-0.5-0.6v0H174.9L174.9,153.3z M174.6,152c-0.2,0-0.4,0.2-0.4,0.4
			s0.2,0.4,0.4,0.4s0.4-0.2,0.4-0.4C174.9,152.2,174.8,152,174.6,152z"/>
		<path class="st3" d="M177.4,156.1c-0.1,0.2-0.3,0.4-0.8,0.4c-0.5,0-0.5-0.3-0.5-0.6v-2.4h-0.5v-0.2h0.5v-0.1
			c0-0.3-0.2-0.6-0.5-0.6v0h1.1v0.8h0.6v0.2h-0.6v2.2c0,0.2,0,0.4,0.2,0.5c0.1,0,0.4,0,0.5-0.3L177.4,156.1L177.4,156.1z"/>
		<path class="st3" d="M178.2,154.8v0.1c0,1.1,0.9,2,1.8,0.9l0.1,0.1c0,0.1-0.3,0.6-1.2,0.6c-0.9,0-1.4-0.7-1.4-1.6
			c0-0.9,0.5-1.6,1.4-1.6c1,0,1.2,0.9,1.2,1.2v0.2H178.2L178.2,154.8z M178.3,154.5h1.2c0-0.7-0.1-1-0.5-1S178.3,153.7,178.3,154.5
			L178.3,154.5z"/>
		<path class="st3" d="M183.1,155.9c-0.1,0.2-0.4,0.7-1,0.7c-0.8,0-1.3-0.7-1.3-1.6c0-0.9,0.5-1.6,1.3-1.6c0.6,0,0.9,0.4,1,0.6
			l-0.1,0.1c-0.6-1-1.6-0.6-1.6,0.8c0,1.5,0.9,1.8,1.6,0.8L183.1,155.9z"/>
		<path class="st3" d="M185.3,156.1c-0.1,0.2-0.3,0.4-0.8,0.4c-0.5,0-0.5-0.3-0.5-0.6v-2.4h-0.5v-0.2h0.5v-0.1
			c0-0.3-0.2-0.6-0.5-0.6v0h1v0.8h0.6v0.2h-0.6v2.2c0,0.2,0,0.4,0.2,0.5c0.1,0,0.4,0,0.5-0.3L185.3,156.1L185.3,156.1z"/>
		<path class="st3" d="M188.4,153.3v3.1h-0.6v-0.2c-0.2,0.2-0.4,0.3-0.7,0.3c-0.8,0-1.1-0.5-1.1-1v-1.5c0-0.3-0.2-0.6-0.5-0.6v0h1.1
			v2.1c0,0.6,0.3,0.8,0.5,0.8c0.3,0,0.6-0.1,0.7-0.3v-2.6H188.4z"/>
		<path class="st3" d="M191.2,153.3v0.4c-0.4,0-0.8-0.1-1,0.9v1.9h-0.6v-2.5c0-0.3-0.2-0.6-0.5-0.6v0h1.1v0.8
			C190.4,153.5,190.7,153.3,191.2,153.3L191.2,153.3z"/>
		<path class="st3" d="M192.4,154.8v0.1c0,1.1,0.9,2,1.8,0.9l0.1,0.1c0,0.1-0.4,0.6-1.1,0.6c-0.9,0-1.4-0.7-1.4-1.6
			c0-0.9,0.5-1.6,1.4-1.6c1,0,1.1,0.9,1.1,1.2v0.2H192.4L192.4,154.8z M192.4,154.5h1.2c0-0.7-0.1-1-0.5-1S192.4,153.7,192.4,154.5
			L192.4,154.5z"/>
		<path class="st3" d="M234.4,139.3c1,0,2.1-0.1,3.2-0.1c0.6,0,1,0.1,1.3,0.2c0.5,0.3,0.6,0.8,0.4,1.4c-0.1,1-0.1,2-0.1,2.9
			c0,0.5,0,0.9-0.1,1.1c-0.1,0.4-0.4,0.6-0.8,0.7c-1.5-0.1-2.6-0.1-3.3,0.1c-0.7,0.3-1.2,0-1.4-0.7c0-1.6-0.1-3.1-0.1-4.7
			C233.6,139.7,233.8,139.4,234.4,139.3z M237.5,140.3c-0.8,0-1.5,0-2.3,0.1c-0.3,0.1-0.4,0.3-0.5,0.6c0,0.1,0,0.2,0,0.3
			c0,0.3,0.2,0.4,0.6,0.4l2.4,0c0.3,0,0.5-0.2,0.5-0.5l0-0.4C238,140.5,237.8,140.3,237.5,140.3L237.5,140.3z M237.6,142.9
			c-0.8,0-1.7,0-2.5,0c-0.3,0-0.4,0.2-0.4,0.5c0,0.5,0.1,0.8,0.3,1c0.2,0,0.5,0,0.8,0l1.9-0.1c0.2,0,0.4-0.2,0.5-0.6l0-0.4
			C238.2,143,238,142.9,237.6,142.9L237.6,142.9z M240.8,138.3c0.2-0.4,0.5-0.5,1.1-0.4c1.4-0.1,2.8-0.1,4.3-0.1
			c1,0.2,1.3,0.7,0.9,1.6c-0.2,1.5-0.2,4.2,0,8.3c0,0.7,0,1.1-0.1,1.3c-0.2,0.5-0.5,0.7-0.9,0.4c-0.2-0.2-0.3-0.4-0.3-0.7l0-3.3
			c0-0.3-0.2-0.5-0.5-0.5c-1.4-0.1-2.4-0.1-3,0.1c-0.3,0-0.5,0.2-0.6,0.5c-0.8,1.6-1.9,2.9-3.2,3.7c-0.6,0.4-1.1,0.4-1.6-0.2
			c-0.1-0.2-0.1-0.4,0.1-0.5c0.4-0.3,0.8-0.6,1.2-0.8c1.6-1.1,2.6-2.4,2.9-3.9c0.3-1.7,0.2-3.4-0.2-5
			C240.8,138.6,240.8,138.4,240.8,138.3L240.8,138.3z M245.3,142c-1,0-1.9,0-2.6,0c-0.3,0-0.4,0.2-0.4,0.5c0,0.3,0,0.6-0.1,0.9
			c0,0.2,0.1,0.4,0.5,0.4c0.9,0,1.8,0,2.7,0c0.3,0,0.4-0.2,0.4-0.4v-0.8C245.8,142.2,245.6,142.1,245.3,142L245.3,142z M245.2,138.8
			c-0.7,0-1.6,0-2.6,0.1c-0.3,0.1-0.4,0.4-0.4,0.7c0,0.2,0,0.5,0,0.7c0,0.3,0.1,0.5,0.5,0.5c0.9,0,1.8,0,2.7,0
			c0.3,0,0.4-0.2,0.4-0.5l0-1.1C245.8,139.1,245.6,138.9,245.2,138.8L245.2,138.8z"/>
		<path class="st3" d="M250.6,139.3c0.3-0.4,0.8-0.5,1.3-0.4l2.5,0.1c0.2,0,0.4,0,0.7,0.1c0.3,0.1,0.4,0.3,0.3,0.6
			c-0.1,0.2-0.3,0.4-0.6,0.4l-0.7,0c-0.3,0-0.5,0.2-0.5,0.5l0,1.1c0,0.3,0.1,0.4,0.3,0.4c0.6,0,1,0.1,1.3,0.3
			c0.1,0.2,0.1,0.5-0.1,0.6c-0.2,0.1-0.6,0.1-1.1,0.1c-0.3,0-0.4,0.1-0.4,0.4l0,1.5c0,0.2,0.2,0.4,0.6,0.3c0.6,0,1.1,0,1.3,0.1
			c0.3,0.4,0.2,0.6-0.4,0.9c-0.4,0.1-0.9,0.2-1.3,0.2c-0.8,0.1-1.6,0.4-2.6,0.7c-0.3,0.1-0.5,0.1-0.8-0.1c-0.2-0.3-0.1-0.7,0.5-1.2
			c0.4-0.2,0.8-0.3,1.1-0.3c0.3,0,0.4-0.2,0.5-0.5l0-1.5c0-0.3-0.2-0.4-0.5-0.4c-0.5,0.1-1,0.1-1.4,0c-0.3-0.2-0.4-0.4-0.3-0.7
			c0.3-0.4,0.9-0.6,1.8-0.5c0.3,0,0.4-0.2,0.4-0.5l-0.1-1c0-0.3-0.1-0.4-0.4-0.4c-0.6,0.1-1.1,0.1-1.5-0.1
			C250.4,139.9,250.4,139.6,250.6,139.3L250.6,139.3z M260.2,144.1c0.2-0.1,0.5,0,0.6,0.3c0,0.1,0.2,0.1,0.5,0.1c0.6,0,1.2,0,1.8,0
			c0.5,0.1,0.6,0.3,0.4,0.7c-0.2,0.3-0.5,0.5-0.9,0.4c-0.5-0.1-0.9-0.1-1.2-0.2c-0.2,0-0.4,0.2-0.4,0.5c0,0.4,0.2,0.5,0.5,0.5
			c1.4,0.1,2.7,0.3,4.1,0.5c0.2,0.2,0.2,0.4-0.1,0.7c-0.3,0.5-0.7,0.7-1.1,0.6c-0.9-0.4-1.9-0.7-3-0.8c-0.3,0-0.4,0.1-0.4,0.4l0,1.3
			c-0.1,0.5-0.3,0.8-0.6,0.8c-0.4-0.1-0.5-0.4-0.5-0.8c0-0.4-0.1-0.9-0.1-1.3c0-0.3-0.1-0.4-0.4-0.4c-1.4,0-2.5,0.2-3.5,0.7
			c-0.3,0.2-0.6,0.2-0.9,0.1c-0.4-0.4-0.3-0.8,0.1-1.2c0.3-0.2,0.8-0.3,1.4-0.3c0.3,0,0.4-0.2,0.4-0.4c0-0.4,0-0.8-0.2-1.1
			c0.3-0.6,0.7-0.9,1.3-0.7h1.5c0.3,0,0.5-0.1,0.6-0.2C260,144.2,260.1,144.1,260.2,144.1L260.2,144.1z M259,137.9
			c0.1-0.5,0.3-0.7,0.7-0.6c0.3,0.1,0.5,0.2,0.6,0.5c0,0.2,0.2,0.4,0.4,0.4c0.8,0,1.3,0.1,1.6,0.2c0.4,0,0.6,0.3,0.7,0.7
			c-0.1,0.3-0.2,0.6-0.2,0.7c0,0.2,0.1,0.3,0.5,0.3c0.5,0,0.9,0,1.4,0c0.4,0,0.6,0.1,0.7,0.1c0.1,0.2,0,0.6-0.5,1
			c-0.3,0.3-0.7,0.4-1,0.3c-0.3-0.2-0.8-0.3-1.3-0.4c-2.3-0.2-4.5-0.1-6.5,0.3c-0.2,0-0.4,0-0.4,0c-0.5-0.2-0.6-0.5-0.2-1
			c0.2-0.1,0.4-0.2,0.8-0.3c0.5-0.1,1.3-0.1,2.3-0.1c0.3,0,0.4-0.1,0.5-0.4c0-0.3-0.1-0.4-0.5-0.4l-1.4,0.1c-0.3,0-0.6-0.1-0.7-0.4
			c0-0.2,0.2-0.5,0.7-0.7c0.3-0.1,0.8-0.2,1.5,0C258.8,138.1,259,138,259,137.9L259,137.9z M259.6,141.3c0.9-0.1,1.8,0,2.7,0.1
			c0.3,0.1,0.4,0.3,0.5,0.6c0,1.1-0.4,1.8-1,1.9c-1.4-0.1-2.7,0-3.8,0.2c-0.2,0-0.4-0.1-0.5-0.4c0-0.5-0.1-0.9-0.2-1.3
			c-0.1-0.4,0-0.7,0.4-0.9C258.1,141.4,258.8,141.3,259.6,141.3L259.6,141.3z M259.4,145.5c-0.3,0-0.7,0-1,0c-0.3,0-0.5,0.2-0.5,0.5
			v0.2c0,0.3,0.2,0.4,0.5,0.4c0.3,0,0.6,0,1,0c0.3,0,0.4-0.2,0.4-0.5v-0.2C259.8,145.6,259.6,145.5,259.4,145.5z M261,142.2
			c-1.1-0.1-2,0-2.5,0.1c0,0-0.1,0.1-0.1,0.3c-0.1,0.4,0.1,0.5,0.6,0.4l2.1-0.1c0.3,0,0.5-0.1,0.5-0.3
			C261.6,142.3,261.4,142.1,261,142.2L261,142.2z M261.2,139.1c-0.2-0.1-0.5-0.1-0.7-0.1c-0.3,0-0.4,0.2-0.4,0.5
			c0,0.3,0.1,0.5,0.4,0.5l0.7,0c0.3,0,0.4-0.1,0.5-0.2C261.8,139.3,261.6,139.1,261.2,139.1L261.2,139.1z"/>
		<path class="st3" d="M274.9,137.9c0.1-0.4,0.4-0.6,0.7-0.5c0.2,0.1,0.4,0.3,0.4,0.6c0,0.2,0.2,0.4,0.5,0.4c0.5,0,0.9,0.1,1.4,0.1
			c0.8,0.1,1.1,0.6,0.8,1.3c0,0.1,0.1,0.1,0.4,0.1h0.6c0.6-0.1,0.9,0.1,0.9,0.4c-0.3,0.6-0.8,0.8-1.3,0.7l-0.4-0.1
			c-0.3,0-0.4,0.1-0.5,0.5c-0.1,1-0.6,1.4-1.4,1.2c-0.2,0-0.4-0.1-0.5-0.1c-0.3,0-0.4,0.1-0.4,0.3c0,0.2,0.1,0.3,0.4,0.3
			c0.9,0,1.5,0,1.9,0.1c0.2,0.1,0.3,0.2,0.3,0.4c0.1,0.3-0.1,0.5-0.5,0.6h-1.5c-0.3,0-0.5,0.2-0.5,0.4s0.2,0.4,0.5,0.4
			c1,0,2.1-0.1,3.1-0.1c0.9,0.1,1,0.5,0.2,1.2c-0.3,0.2-0.6,0.2-1,0.1c-0.8-0.1-1.6-0.2-2.3-0.2c-0.3,0-0.5,0.2-0.5,0.4l-0.1,0.8
			c-0.1,0.3,0,0.4,0.4,0.5c2,0.5,3.8,0.8,5.3,1c0.4,0,0.6,0.1,0.8,0.2c0.2,0.2,0.1,0.5-0.4,0.9c-0.8,0.8-1.7,0.8-2.6,0.3
			c-1-0.4-1.9-0.8-2.7-1c-2.2-0.7-3.9-1-5.1-1.1c-0.6,0-1.3,0-2,0.2c-0.3,0-0.5,0.1-0.6,0.4c-0.7,0.9-1.2,1.4-1.6,1.4
			c-0.2,0-0.3-0.1-0.4-0.3c-0.1-0.4,0-0.7,0.3-1c1.6-1.5,2.5-2.8,2.8-3.7c-0.2-0.3-0.6-0.3-1.2-0.1c-0.6,0.1-0.8-0.2-0.7-0.9
			c0.1-0.1,0.3-0.4,0.6-0.6c0.6-0.7,1-1.2,1.1-1.7c0-0.1-0.2-0.1-0.5-0.2l-0.6,0c-0.3,0-0.6,0-0.8-0.1c-0.5-0.2-0.6-0.6-0.2-0.9
			c0.4-0.3,0.7-0.3,1-0.2c0.4,0.1,1.1,0.3,2,0.5c0.2,0,0.4,0.1,0.6,0.3c0.2,0.4,0.1,0.8-0.2,1.1c-0.3,0.4-0.7,0.9-1,1.3
			c-0.2,0.3-0.2,0.5,0.1,0.5c1.2-0.1,1.5,0.4,1,1.4c-0.2,0.4-0.4,0.8-0.6,1.3c-0.2,0.3-0.1,0.4,0.2,0.5c1.8,0.2,3.1,0.4,3.9,0.5
			c0.3,0.1,0.4-0.1,0.3-0.4l0-0.5c0-0.3-0.2-0.4-0.5-0.4c-0.9,0-1.7,0.1-2.4,0.3c-0.6,0-0.7-0.3-0.5-0.8c0-0.1,0.1-0.2,0.3-0.4
			c0.4-0.2,0.8-0.3,1.4-0.2l1.3,0c0.3,0,0.4-0.1,0.4-0.4s-0.2-0.4-0.5-0.4c-0.4,0-0.7,0.1-1.1,0.2c-0.5,0-0.8-0.1-0.9-0.5
			c0-0.4,0.2-0.6,0.7-0.7c0.4-0.1,0.9-0.1,1.4-0.1c0.3,0,0.4-0.1,0.4-0.3c0-0.2-0.2-0.3-0.5-0.3c-0.4,0-0.8,0.1-1.2,0.2
			c-0.7,0-1-0.3-0.8-0.8c0.1-0.2,0.4-0.4,0.9-0.5h1.1c0.3,0,0.4-0.1,0.4-0.3s-0.2-0.3-0.5-0.3c-0.6,0-1.4,0.2-2.3,0.4
			c-0.5,0-0.7-0.2-0.7-0.6c0-0.2,0.1-0.4,0.4-0.6c0.1-0.1,0.3-0.2,0.5-0.2c0.7,0,1.4,0,2.1,0c0.3,0,0.4-0.1,0.4-0.2
			s-0.2-0.2-0.5-0.2l-1.6,0.1c-0.4,0-0.5-0.2-0.5-0.5c0-0.1,0-0.2,0.2-0.4c0.2-0.2,0.5-0.3,0.8-0.4c0.2,0,0.6,0,1.2,0.1
			C274.7,138.5,274.8,138.3,274.9,137.9L274.9,137.9z M276.3,139.4c-0.2,0-0.4,0.1-0.4,0.3c0,0.2,0.1,0.3,0.4,0.3h0.5
			c0.3,0,0.4-0.1,0.4-0.2c0-0.2-0.1-0.3-0.3-0.4C276.8,139.4,276.6,139.3,276.3,139.4L276.3,139.4z M277.2,141.1
			c0-0.1-0.1-0.2-0.4-0.2h-0.4c-0.3,0-0.4,0.1-0.4,0.4c0,0.2,0.2,0.3,0.6,0.3C277,141.6,277.2,141.5,277.2,141.1z"/>
		<path class="st3" d="M283.8,140.3c0.2-0.6,0.7-0.9,1.3-0.7c0.7,0.1,1.8,0.1,3.4,0.1c0.2,0,0.5,0,0.8,0.1c0.6,0,0.7,0.3,0.4,0.8
			c-0.2,0.2-0.5,0.3-1.1,0.2c-1.4,0-2.8,0-4.2,0.2C284,140.9,283.8,140.7,283.8,140.3L283.8,140.3z M284.8,144.2
			c0-0.4,0.3-0.7,0.9-0.7c1,0,2,0,3.1,0c0.5,0,0.7,0.2,0.7,0.6c-0.1,0.4-0.4,0.6-0.9,0.5c-1,0-2.1,0-3.2,0.1
			C285,144.7,284.9,144.5,284.8,144.2z M285.5,141.7c1.4-0.1,2.6,0,3.3,0c0.4,0.1,0.6,0.4,0.4,0.7c-0.1,0.2-0.2,0.2-0.4,0.3
			c-1.3,0-2.3,0-3.1,0.1c-0.5,0.1-0.8-0.1-0.9-0.6C284.9,141.9,285.1,141.8,285.5,141.7z M284.9,145.9c0.2-0.4,0.6-0.5,1-0.4
			c0.8,0,1.6,0,2.4,0c0.8,0.1,1.1,0.5,0.9,1.2v1.3c-0.2,0.9-0.7,1.3-1.5,1.1c-0.6-0.1-1.3-0.1-2,0.1c-0.6,0-0.9-0.3-0.9-0.9
			C284.8,147.1,284.8,146.4,284.9,145.9L284.9,145.9z M285.2,138.2c0.4-0.5,0.8-0.7,1.3-0.5c0.8,0.1,1.5,0.2,2.2,0.2
			c0.3,0.1,0.5,0.2,0.6,0.2c0.2,0.3,0,0.6-0.3,0.8c-0.3,0.1-0.7,0.1-1.2,0c-0.8,0-1.4,0-1.8,0.1C285.3,139,285,138.7,285.2,138.2
			L285.2,138.2z M287.4,146.5c-0.6,0-1,0-1.3,0.1c0,0-0.1,0.2-0.1,0.5v0.3c0,0.3,0.2,0.4,0.5,0.4h1.1c0.3,0,0.4-0.2,0.5-0.5v-0.4
			C287.9,146.7,287.7,146.5,287.4,146.5z M295,143c0.3-0.2,0.5-0.2,0.8,0c0.3,0.2,0.3,0.6,0.2,1.2c-0.1,0.3-0.3,0.8-0.6,1.3
			c-0.2,0.3-0.1,0.6,0.2,0.9c1.1,0.8,2.2,1.5,3.3,2.1c0.2,0.2,0.2,0.3,0.2,0.5c-0.2,0.3-0.4,0.6-0.8,0.6c-0.6,0.3-1.2,0.1-1.7-0.6
			c-0.5-0.6-1.1-1.3-1.8-1.9c-0.2-0.2-0.5-0.2-0.8,0.1c-0.7,0.6-1.6,1.1-2.6,1.5c-0.6,0.4-1.2,0.3-1.8-0.3c-0.2-0.3-0.1-0.6,0.4-0.8
			c1.2,0,2.3-0.4,3.3-1.1c0.3-0.2,0.3-0.5,0-0.7c-0.7-0.5-1.3-0.8-1.8-1c-0.3-0.1-0.4-0.3-0.4-0.7c0.3-0.3,0.8-0.4,1.3-0.2
			c0.2,0.1,0.4,0.2,0.6,0.4c0.2,0.2,0.5,0.5,0.9,0.8c0.3,0.2,0.5,0.2,0.7-0.2c0.2-0.4,0.3-0.8,0.3-1.3
			C294.8,143.4,294.9,143.1,295,143L295,143z M293.4,138c1-0.1,1.8,0.1,2.5,0.4c0.3,0.2,0.5,0.4,0.5,0.7c-0.2,0.6-0.3,1.2-0.4,1.8
			c0,0.3,0.1,0.4,0.4,0.4h1c0.4,0,0.7,0.1,0.8,0.4c0,0.3-0.1,0.6-0.5,0.9c-0.1,0.1-0.4,0-0.8-0.1c-2-0.4-3.8-0.3-5.1,0.1
			c-0.3,0.1-0.6,0.1-0.8,0c-0.3-0.2-0.3-0.4-0.1-0.8c0.1-0.1,0.3-0.3,0.4-0.4c0.2-0.1,0.4-0.3,0.5-0.5c0.2-0.6,0.2-1.2,0.1-1.8
			c-0.1-0.3-0.1-0.6,0-0.8c0.1-0.2,0.2-0.3,0.5-0.3C292.6,138.1,292.9,138.1,293.4,138L293.4,138z M294.6,139
			c-0.6-0.2-1.1-0.1-1.4,0.1c-0.2,0.1-0.3,0.3-0.3,0.6c-0.1,0.4-0.1,0.8-0.1,1.2c-0.1,0.4,0,0.6,0.5,0.5c0.4,0,0.8,0,1.2,0
			c0.3,0,0.4-0.2,0.5-0.5c0-0.4,0.1-0.9,0-1.3C295,139.3,294.9,139.1,294.6,139L294.6,139z"/>
		<path class="st3" d="M233.9,153.1h0.6l0.8,2.5l0.8-2.5h0.6v3h-0.4v-1.7c0-0.1,0-0.2,0-0.3s0-0.3,0-0.4l-0.8,2.5h-0.4l-0.8-2.5v0.1
			c0,0.1,0,0.2,0,0.3s0,0.3,0,0.3v1.7h-0.4L233.9,153.1L233.9,153.1z"/>
		<path class="st3" d="M237.6,153.1h0.4v3h-0.4V153.1z"/>
		<path class="st3" d="M239.2,153.1h0.5l1.5,2.4v-2.4h0.4v3h-0.4l-1.5-2.4v2.4h-0.4L239.2,153.1L239.2,153.1z"/>
		<path class="st3" d="M244.3,153.2c0.3,0.2,0.5,0.4,0.5,0.8h-0.4c-0.1-0.2-0.1-0.4-0.3-0.5c-0.1-0.1-0.3-0.2-0.5-0.2
			c-0.3,0-0.5,0.1-0.7,0.3c-0.2,0.2-0.3,0.5-0.3,0.9c0,0.4,0.1,0.6,0.2,0.9s0.4,0.3,0.7,0.3c0.3,0,0.5-0.1,0.6-0.2s0.2-0.4,0.3-0.8
			h-0.9v-0.3h1.3v1.6h-0.2l-0.1-0.4c-0.1,0.2-0.2,0.2-0.3,0.3c-0.2,0.1-0.4,0.2-0.7,0.2c-0.3,0-0.6-0.1-0.9-0.3
			c-0.3-0.3-0.4-0.7-0.4-1.2s0.1-0.9,0.4-1.2c0.2-0.3,0.6-0.4,1-0.4C243.9,153.1,244.1,153.1,244.3,153.2L244.3,153.2z"/>
		<path class="st3" d="M248,153.1l0.6,2.4l0.7-2.4h0.4l0.7,2.4l0.6-2.4h0.4l-0.8,3h-0.4l-0.7-2.5l-0.7,2.5h-0.4l-0.8-3H248
			L248,153.1z"/>
		<path class="st3" d="M252.2,153.1h2.1v0.4h-1.7v0.9h1.6v0.3h-1.6v1h1.8v0.4h-2.1V153.1z"/>
		<path class="st3" d="M255.5,153.1h0.4v3h-0.4V153.1z"/>
		<path class="st3" d="M261.3,153.1h0.7l1,3h-0.7l-0.2-0.6h-1.1l-0.2,0.6h-0.6L261.3,153.1z M261.3,155h0.7l-0.4-1.2L261.3,155
			L261.3,155z"/>
		<path class="st3" d="M265.8,153.2c0.1,0.1,0.2,0.1,0.3,0.2c0.1,0.1,0.1,0.2,0.1,0.2c0,0.1,0,0.2,0,0.3c0,0.1,0,0.3-0.1,0.4
			c-0.1,0.1-0.2,0.2-0.4,0.3c0.1,0.1,0.2,0.1,0.3,0.2c0.1,0.1,0.1,0.3,0.1,0.5v0.2c0,0.1,0,0.2,0,0.3c0,0.1,0.1,0.1,0.1,0.2v0.1
			h-0.7c0-0.1,0-0.1,0-0.2c0-0.1,0-0.2,0-0.3v-0.3c0-0.2,0-0.3-0.1-0.4c-0.1-0.1-0.2-0.1-0.4-0.1h-0.6v1.2H264v-3h1.4
			C265.6,153.1,265.7,153.2,265.8,153.2L265.8,153.2z M264.6,153.7v0.8h0.7c0.1,0,0.2,0,0.3-0.1c0.1-0.1,0.2-0.2,0.2-0.3
			c0-0.2-0.1-0.3-0.2-0.4c-0.1,0-0.2-0.1-0.3-0.1L264.6,153.7L264.6,153.7z"/>
		<path class="st3" d="M267.7,153.4c0.2-0.2,0.5-0.4,0.9-0.4c0.5,0,0.8,0.2,1.1,0.5c0.1,0.2,0.2,0.4,0.2,0.6h-0.6
			c0-0.1-0.1-0.2-0.2-0.3c-0.1-0.1-0.3-0.2-0.5-0.2c-0.2,0-0.4,0.1-0.5,0.3c-0.1,0.2-0.2,0.4-0.2,0.8s0.1,0.6,0.2,0.8
			s0.3,0.2,0.5,0.2s0.4-0.1,0.5-0.2c0.1-0.1,0.1-0.2,0.2-0.3h0.6c0,0.3-0.2,0.6-0.4,0.8c-0.2,0.2-0.5,0.3-0.8,0.3
			c-0.4,0-0.7-0.1-1-0.4c-0.2-0.3-0.4-0.7-0.4-1.1C267.3,154.1,267.4,153.7,267.7,153.4L267.7,153.4z"/>
		<path class="st3" d="M270.9,156.1v-3h0.6v1.1h1.1v-1.1h0.6v3h-0.6v-1.3h-1.1v1.3H270.9z"/>
		<path class="st3" d="M275,156.1h-0.6v-3h0.6V156.1z"/>
		<path class="st3" d="M278.2,153.1v0.5h-0.9v2.4h-0.6v-2.4h-0.9v-0.5H278.2L278.2,153.1z"/>
		<path class="st3" d="M281.3,153.7h-1.5v0.6h1.4v0.5h-1.4v0.8h1.6v0.5h-2.2v-3h2.1V153.7L281.3,153.7z"/>
		<path class="st3" d="M282.7,153.4c0.2-0.2,0.5-0.4,0.9-0.4c0.5,0,0.8,0.2,1.1,0.5c0.1,0.2,0.2,0.4,0.2,0.6h-0.6
			c0-0.1-0.1-0.2-0.2-0.3c-0.1-0.1-0.3-0.2-0.5-0.2c-0.2,0-0.4,0.1-0.5,0.3c-0.1,0.2-0.2,0.4-0.2,0.8s0.1,0.6,0.2,0.8
			s0.3,0.2,0.5,0.2c0.2,0,0.4-0.1,0.5-0.2c0.1-0.1,0.1-0.2,0.2-0.3h0.6c0,0.3-0.2,0.6-0.4,0.8c-0.2,0.2-0.5,0.3-0.8,0.3
			c-0.4,0-0.7-0.1-1-0.4c-0.2-0.3-0.4-0.7-0.4-1.1C282.2,154.1,282.4,153.7,282.7,153.4L282.7,153.4z"/>
		<path class="st3" d="M288,153.1v0.5h-0.9v2.4h-0.6v-2.4h-0.9v-0.5H288L288,153.1z"/>
		<path class="st3" d="M288.9,153.1h0.6v1.8c0,0.2,0,0.3,0.1,0.4c0.1,0.2,0.2,0.2,0.5,0.2s0.4-0.1,0.5-0.2c0-0.1,0.1-0.2,0.1-0.4
			v-1.8h0.6v1.8c0,0.3,0,0.6-0.1,0.7c-0.2,0.3-0.5,0.5-1,0.5s-0.8-0.2-1-0.5c-0.1-0.2-0.1-0.4-0.1-0.7L288.9,153.1L288.9,153.1z"/>
		<path class="st3" d="M294.3,153.2c0.1,0.1,0.2,0.1,0.3,0.2c0.1,0.1,0.1,0.2,0.1,0.2c0,0.1,0,0.2,0,0.3c0,0.1,0,0.3-0.1,0.4
			c-0.1,0.1-0.2,0.2-0.4,0.3c0.1,0.1,0.2,0.1,0.3,0.2c0.1,0.1,0.1,0.3,0.1,0.5v0.2c0,0.1,0,0.2,0,0.3c0,0.1,0.1,0.1,0.1,0.2v0.1
			h-0.7c0-0.1,0-0.1,0-0.2c0-0.1,0-0.2,0-0.3v-0.3c0-0.2,0-0.3-0.1-0.4c-0.1-0.1-0.2-0.1-0.4-0.1H293v1.2h-0.6v-3h1.4
			C294,153.1,294.1,153.2,294.3,153.2L294.3,153.2z M293,153.7v0.8h0.6c0.1,0,0.2,0,0.3-0.1c0.1-0.1,0.2-0.2,0.2-0.3
			c0-0.2-0.1-0.3-0.2-0.4c-0.1,0-0.2-0.1-0.3-0.1L293,153.7L293,153.7z"/>
		<path class="st3" d="M298,153.7h-1.5v0.6h1.4v0.5h-1.4v0.8h1.6v0.5h-2.2v-3h2.1V153.7L298,153.7z"/>
		
			<linearGradient id="SVGID_00000009554734571896384450000005245065409073552565_" gradientUnits="userSpaceOnUse" x1="210.8217" y1="12.9477" x2="226.3817" y2="29.7577" gradientTransform="matrix(1 0 0 -1 0 170)">
			<stop  offset="0" style="stop-color:#C9C69C"/>
			<stop  offset="4.000000e-02" style="stop-color:#C8C195"/>
			<stop  offset="9.000000e-02" style="stop-color:#C5B583"/>
			<stop  offset="0.15" style="stop-color:#C1A165"/>
			<stop  offset="0.21" style="stop-color:#BC8A42"/>
			<stop  offset="0.25" style="stop-color:#BE8E48"/>
			<stop  offset="0.31" style="stop-color:#C5995A"/>
			<stop  offset="0.37" style="stop-color:#D0AC79"/>
			<stop  offset="0.44" style="stop-color:#DFC7A2"/>
			<stop  offset="0.46" style="stop-color:#E3CDAC"/>
			<stop  offset="0.52" style="stop-color:#E6D3B2"/>
			<stop  offset="0.62" style="stop-color:#F0E5C3"/>
			<stop  offset="0.68" style="stop-color:#FAF6D2"/>
			<stop  offset="0.72" style="stop-color:#F3EAC2"/>
			<stop  offset="0.85" style="stop-color:#DCC28F"/>
			<stop  offset="0.95" style="stop-color:#CEA96F"/>
			<stop  offset="1" style="stop-color:#C9A063"/>
		</linearGradient>
		<path style="fill:url(#SVGID_00000009554734571896384450000005245065409073552565_);" d="M229.2,147.7c-0.1-3.7-2.1-6.9-5.2-8.6
			c-0.2-0.1-0.4-0.2-0.7-0.3c-0.3-0.1-0.7-0.3-1-0.4c-0.4-0.1-0.9-0.2-1.3-0.3c0,0-0.1,0-0.1,0c-0.3,0-0.5-0.1-0.8-0.1
			c0,0,0,0-0.1,0v-0.6c-0.2-0.6-0.5-1.1-0.7-1.7c-0.2,0.6-0.4,1.1-0.7,1.7v0.6c-5.1,0.3-9.2,4.6-9.2,9.8s4.4,9.8,9.9,9.8
			c1,0,1.9-0.1,2.8-0.4c0.3-0.1,0.6-0.2,0.9-0.3c0.9-0.4,1.7-0.8,2.4-1.4c0.4-0.3,0.8-0.6,1.1-1c0.6-0.6,1.1-1.3,1.5-2
			c0.8-1.4,1.2-3,1.2-4.8C229.2,147.8,229.2,147.8,229.2,147.7L229.2,147.7z M218.7,138.2c0,0.2,0,0.4,0,0.6v0.3
			c0,0.7,0,1.4-0.1,2.1c-0.2,5-0.7,9.8-1.5,14.2c0,0,0,0,0,0c-0.3-0.1-0.6-0.2-0.8-0.3c0.8-4.4,1.3-9.1,1.5-14c0-0.7,0-1.3,0.1-2
			c0,0,0-0.1,0-0.1c0,0,0,0.1-0.1,0.1c-0.4,0.7-0.8,1.5-1.3,2.2c-0.4,4.6-1.2,8.8-2.2,12.7c-0.4-0.3-0.7-0.6-1-0.9
			c0.9-3.1,1.7-6.6,2.2-10.3c-0.4,0.4-0.7,0.9-1.1,1.3c-0.6,2.6-1.4,5.1-2.3,7.3c-0.8-1.3-1.3-2.9-1.3-4.6
			C210.6,142.4,214.2,138.6,218.7,138.2L218.7,138.2z M227.2,151c-0.1,0.2-0.2,0.4-0.4,0.6c-0.9-2.2-1.7-4.7-2.4-7.3
			c-0.4-0.4-0.8-0.9-1.1-1.3c0.5,3.7,1.2,7.2,2.2,10.3c-0.2,0.2-0.4,0.4-0.7,0.6c-0.1,0.1-0.2,0.2-0.4,0.3
			c-1.1-3.8-1.8-8.1-2.2-12.7c-0.5-0.7-0.9-1.4-1.3-2.2c0,0,0-0.1-0.1-0.1c0,0,0,0.1,0,0.1c0,0.7,0,1.3,0.1,2
			c0.2,4.9,0.7,9.6,1.5,14c-0.2,0.1-0.4,0.1-0.6,0.2c-0.1,0-0.1,0-0.2,0.1c-0.8-4.4-1.3-9.2-1.5-14.2c0-0.7,0-1.4-0.1-2.1
			c0-0.1,0-0.2,0-0.3c0-0.2,0-0.4,0-0.6c0,0,0,0,0,0c0.3,0,0.6,0.1,0.9,0.1c0,0,0,0,0.1,0c0.4,0.1,0.8,0.2,1.2,0.3
			c0.3,0.1,0.7,0.2,1,0.4c0.2,0.1,0.5,0.2,0.7,0.4c2.5,1.5,4.1,4.2,4.2,7.3c0,0.1,0,0.1,0,0.2C228.1,148.4,227.8,149.8,227.2,151
			L227.2,151z"/>
		<path class="st5" d="M337.2,0v167.4"/>
		<path class="st5" d="M62.2,0v167.4"/>
		<path class="st6" d="M149.2,13.4c1.4,1,2.2,1.8,2.2,2.2c0,0.3-0.2,0.5-0.5,0.8c-0.5,0.3-0.9,0.6-1.3,1V44c0.1,2.5,0.1,5.1,0.2,7.7
			c0,0.8-1.1,1.3-3.3,1.4c-1.8,0-2.8-0.2-2.9-0.6v-2.3h-27.8v1.8c-0.1,0.6-1.1,1-3,1.2c-2,0-3-0.3-3.1-0.7c0.1-1,0.2-2.4,0.2-4.2
			v-25c-0.1-4.3-0.1-8-0.2-11.2l5.7,2.1h27.7c1.8-1.4,3-2.1,3.5-2.1C147.1,12.1,147.9,12.6,149.2,13.4z M143.7,48.9V15.6h-27.8v33.3
			H143.7z M116.7,45.1c-0.1,0-0.3-0.2-0.6-0.5c4.6-2.6,7.6-5.3,8.9-7.9c0.1-0.2,0.2-0.4,0.3-0.5h-1.2v0.4c-0.1,0.6-0.9,0.9-2.5,1
			c-1.7,0-2.6-0.2-2.7-0.6c0.1-0.9,0.1-2.1,0.1-3.6v-4c-0.1-0.7-0.1-1.3-0.1-1.8l4.1,1.5h11.3c1.5-1.1,2.5-1.6,3-1.6
			c0.3,0,1,0.4,2.2,1.3c0.9,0.7,1.4,1.2,1.4,1.5c0,0.4-0.4,0.9-1.2,1.3V35c0,0.3,0,0.5,0,0.7c2.6,1.3,3.9,1.9,3.9,2.1
			c0,0.3-0.6,0.5-1.9,0.7c-1.2,0.6-2.8,1-4.5,1.3c3.3,1.1,5.1,2.5,5.2,3.9c-0.1,0.8-0.2,1.4-0.5,1.7c-0.4,0.8-1.1,1.2-2.2,1.3
			c-0.6,0-1.5-1.1-2.8-3.3c-1.2-1.5-2.6-2.7-4.5-3.9V44c0.1,0.9,0.1,1.7,0.1,2.5c0,1.1-1.1,1.6-3.4,1.6c-1.6,0-2.4-0.3-2.5-0.9
			c0-0.6,0.1-1.8,0.1-3.4V41C124.2,42.6,120.8,44,116.7,45.1z M140.1,19.4c0.8,0.8,1.2,1.5,1.2,1.9c0,0.4-0.2,0.5-0.5,0.5h-8.7v3.7
			h5c1.4-2.2,2.4-3.4,2.9-3.4c0.3,0.2,1,0.9,2.1,2.1c0.8,0.8,1.2,1.4,1.2,1.9c0,0.4-0.2,0.5-0.5,0.5h-18c-4.2,0-6.6,0.1-7.3,0.2
			c-0.4-0.7-0.8-1.3-1-1.9c1.4,0.4,4.5,0.5,9.3,0.5h1v-3.7c-4.1,0-6.5,0.1-7.2,0.3c-0.4-0.7-0.8-1.3-1.1-1.9
			c1.3,0.3,4.1,0.5,8.2,0.5v-2.7c0-0.9-0.1-1.5-0.3-1.8c4.9,0.4,7.3,0.9,7.3,1.4c0,0.3-0.1,0.5-0.4,0.5c-0.7,0.3-1,0.6-1.1,0.9v1.5
			h3.1c1.4-2.2,2.4-3.4,2.9-3.4C138.3,17.4,139,18.1,140.1,19.4L140.1,19.4z M134.6,34.7v-4.3h-10.4v4.3H134.6z M137.2,37.2H137
			c-1.4,0-2.2-0.2-2.4-0.5v-0.5h-2.1v2.5c1.4,0.3,2.6,0.6,3.7,0.9C136.5,38.9,136.9,38.1,137.2,37.2L137.2,37.2z"/>
		<path class="st6" d="M155.5,23.8c-0.4-0.7-0.7-1.3-1-2c1.2,0.3,3.7,0.5,7.5,0.5v-5.3c0-2.2-0.1-3.9-0.3-5.4c4.7,0.4,7,1,7,1.7
			c0,0.3-0.1,0.5-0.3,0.7c-0.7,0.2-1,0.5-1,0.7v7.7h0.8c1.3-2.3,2.1-3.5,2.5-3.7c0.2,0,0.4,0,0.6,0.1c0.7,0.7,1.4,1.4,2.1,2.3
			c0.8,0.8,1.1,1.5,1.1,2c0,0.4-0.1,0.5-0.4,0.5h-6.7v3.7c4.8,1.4,7.4,3,7.8,5c0,1.3-0.3,2.2-0.8,2.7c-0.3,0.5-1,0.8-2.2,0.8
			c-1.9,0-2.9-1.1-2.9-3.3c0-1.6-0.7-3-2-4.2v11.1c0.1,6,0.2,10.1,0.2,12.2c-0.2,1-1.5,1.6-4,1.6c-1.3,0-1.9-0.4-1.9-1
			c0.1-2,0.1-6.3,0.1-13.1v-3.8c-2,3.5-4.1,6.4-6.5,8.4c-0.4,0-0.7-0.2-0.7-0.5c3.3-6.5,5.4-13.1,6.2-19.7
			C157.9,23.6,156.1,23.7,155.5,23.8L155.5,23.8z M176.1,24.1c-0.3-0.6-0.6-1.3-1-1.8c1.3,0.1,3.3,0.2,6,0.2v-4.8
			c0-2.3-0.1-4.2-0.3-5.8c5,0.4,7.5,1,7.5,1.8c0,0.3-0.1,0.5-0.3,0.7c-0.7,0.3-1,0.5-1,0.8v7.3h3.2c1.2-1.2,2.1-2.1,2.5-2.8
			c0.4-0.5,0.8-0.8,1.2-1c0.4,0.2,1.1,0.9,2.3,1.9c1.1,1.1,1.9,1.9,2.3,2.4c0,0.4-0.1,0.6-0.4,0.6h-9.5c0.5,3.2,1.8,6.3,3.9,9.4
			c1.9,2.6,3.9,4.2,5.9,4.8c-0.1,0.1-0.1,0.5-0.1,0.9c-0.9,0.2-1.4,0.7-1.7,1.4c-0.5,1.1-0.8,2.2-1.1,3.3c-0.3,0.8-0.6,1.3-0.9,1.3
			c-0.9,0-2.1-1.7-3.8-5.3c-1.6-4-2.8-9.2-3.4-15.8h-0.5v14.8c0.1,6.5,0.1,10.8,0.2,13.2c-0.2,1.1-1.6,1.7-4.3,1.7
			c-1.4,0-2-0.4-2-1.1c0.1-2.2,0.2-6.8,0.2-14.1v-4.5c-3,5.3-6.3,9.4-10.1,12.3c-0.4,0-0.7-0.2-0.7-0.5c4.8-7.2,7.7-14.4,8.7-21.8
			C177.7,23.8,176.8,24,176.1,24.1L176.1,24.1z"/>
		<path class="st6" d="M205.5,29.8c-1.4,0-2.1-0.1-2.2-0.5c0-0.7,0.1-1.7,0.1-3v-4.3c-0.1-0.7-0.1-1.4-0.1-1.9l3.9,1.4h1.9
			c0.7-0.4,1.2-0.7,1.6-0.9c-0.4,0.1-0.9,0.1-1.4,0.1c-1.3,0-2-0.3-2-0.7c0.1-1,0.1-2,0.1-2.8c-2.6,0.1-4.2,0.2-5,0.4
			c-0.3-0.7-0.7-1.5-0.9-2.2c1.3,0.3,3.3,0.4,6,0.4v-0.3c0-1.7-0.1-2.9-0.2-3.7c4.2,0.4,6.4,0.9,6.4,1.3c0,0.3-0.1,0.5-0.4,0.5
			c-0.7,0.3-1,0.5-1,0.6V16h3.6v-0.4c0-1.7-0.1-3-0.2-3.7c4.3,0.4,6.4,0.9,6.4,1.3c0,0.3-0.1,0.5-0.4,0.5c-0.7,0.3-1,0.5-1,0.6v1.6
			h0.5c0.5-0.5,1.2-1.2,2.1-2.1c0.2-0.1,0.3-0.2,0.5-0.3c0.2,0.1,0.4,0.2,0.8,0.4c1.6,1.4,2.5,2.3,2.6,2.6c0,0.4-0.2,0.6-0.6,0.6
			h-5.9v2.5c-0.1,0.6-1.2,0.9-3,1c-1.2-0.1-1.9-0.3-2-0.7c0-1.1,0.1-2,0.1-2.9h-3.6v2.5c-0.1,0.3-0.3,0.4-0.6,0.6
			c0.3,0.1,0.9,0.5,1.7,1.1c0.8,0.5,1.2,1,1.2,1.2c0,0.3-0.3,0.7-1,1.1v3.6c0,0.4,0.1,0.8,0.1,1.2c0,0.6-0.8,0.9-2.4,0.9
			c-1.2,0-1.9-0.1-2-0.4v-0.2h-1.8v0.2c-0.1,0.4-0.4,0.6-1,0.7c3.4,1.2,5.2,2,5.4,2.3c-0.1,0.5-0.6,0.8-1.6,0.8
			c-0.2,0.4-0.5,0.9-0.7,1.2h4.8c-0.1-0.2-0.1-0.4-0.1-0.7c-0.3-1.4-0.9-2.4-2.1-2.9c0.1-0.2,0.1-0.4,0.2-0.5c3.8,0,5.8,0.8,5.9,2.3
			c0,0.9-0.2,1.5-0.5,1.8h1.7c0.5-0.6,1.2-1.4,2.1-2.3c0.1-0.2,0.3-0.3,0.4-0.3c0.2,0.1,0.5,0.3,0.9,0.5c1.7,1.4,2.6,2.3,2.9,2.6
			c-0.1,0.5-0.3,0.7-0.7,0.7h-7.4v3.3h0.9c0.5-0.6,1.2-1.4,2.1-2.3c0.1-0.1,0.3-0.2,0.4-0.2c0.2,0.1,0.5,0.3,0.8,0.4
			c1.7,1.4,2.7,2.3,3,2.7c-0.1,0.5-0.3,0.7-0.7,0.7h-6.5v3.6h0.9c0.5-0.6,1.2-1.4,2.2-2.3c0.1-0.2,0.3-0.3,0.4-0.3
			c0.2,0.1,0.5,0.3,0.8,0.5c1.7,1.4,2.7,2.3,3,2.6c-0.1,0.5-0.3,0.7-0.7,0.7h-6.5v3.8h0.7c0.6-0.7,1.4-1.5,2.4-2.6
			c0.2-0.1,0.3-0.2,0.4-0.2c0.3,0.1,0.6,0.3,0.9,0.5c1.2,1,2.1,1.8,2.7,2.3c0.9-1,1.5-2.1,2.1-3.2c0.8-1.8,1.1-3.9,1.1-6.2
			c3.3,0.5,5.6,1,6.7,1.4v-3.1h-2v0.1c-0.1,0.6-0.9,1-2.8,1.1c-1.8,0-2.8-0.2-2.9-0.6c0.1-1,0.2-2.3,0.2-3.9V19.6
			c-0.1-2.5-0.1-4.7-0.2-6.5l4.7,1.7h4.9c1.7-1.6,2.8-2.4,3.3-2.4c0.4,0,1.1,0.4,2.3,1.2c1.3,0.9,2,1.6,2,2c0,0.3-0.1,0.5-0.4,0.7
			c-0.4,0.3-0.8,0.6-1.1,0.9v14.8c0.1,1.4,0.1,2.8,0.1,4.3c0,0.8-1.1,1.2-3.1,1.3h-0.3l0,9.6c0.1,0.4,0.5,0.7,1.2,0.7
			c0.9,0,1.4-1.9,1.8-5.6c0.3,0,0.5,0,0.8,0c-0.1,1.1-0.1,2.5-0.1,4.1c0,0.7,0.2,1.4,0.8,2c0.5,0.4,0.8,0.8,0.8,1.3
			c-0.1,0.9-0.4,1.6-1.2,2c-0.6,0.5-1.9,0.8-3.9,0.9c-0.9,0-1.7-0.1-2.4-0.2c-1.6,0-2.5-0.9-2.7-2.7l-0.1-8.1
			c-0.9,0.2-1.4,0.4-1.5,0.5c-0.7,5.3-4.8,8.9-12.4,10.9c-0.1-0.1-0.2-0.4-0.3-0.7c1.2-0.8,2.2-1.6,3.1-2.5h-14.3v1.7
			c0,0.8-1.1,1.3-3.1,1.4c-1.6,0-2.4-0.2-2.4-0.5c0.1-0.9,0.1-3,0.1-6.2v-6.6c-0.8,0.6-1.7,1.1-2.5,1.6c-0.2-0.2-0.4-0.3-0.6-0.3
			c2.4-3,4.1-6.8,5.2-11.2C206,29.8,205.7,29.8,205.5,29.8L205.5,29.8z M209.4,27.4V23h-1.8v4.4H209.4z M212.9,35.3h-3.6v3.3h3.6
			V35.3z M212.9,40h-3.6v3.6h3.6V40z M212.9,44.9h-3.6v1.7c0.1,0.6,0.1,1.3,0.1,2h3.5L212.9,44.9L212.9,44.9z M218.6,21.6h2.6
			c1.3-0.9,2.1-1.4,2.4-1.4c0.2,0,0.9,0.4,1.8,1.1c0.8,0.5,1.2,1,1.2,1.2c0,0.3-0.4,0.7-1.2,1.1v4c0,0.5,0.1,0.9,0.1,1.3
			c0,0.6-0.8,0.9-2.4,0.9c-1.2,0-1.9-0.1-2-0.4v-0.8h-2v0.4c-0.1,0.5-0.8,0.8-2.1,0.9c-1.4,0-2.1-0.1-2.2-0.5c0.1-0.7,0.1-1.7,0.1-3
			v-4.3c-0.1-0.7-0.1-1.4-0.1-1.9L218.6,21.6L218.6,21.6z M221.3,27.2v-4.3h-2v4.3H221.3z M237.5,21.5v-5.3h-4.6v5.3H237.5z
			 M237.5,28.6v-5.6h-4.6v5.6H237.5z M237.5,36.1V30h-4.6v6.2H237.5z"/>
		<path class="st6" d="M257,17.6c4.6-1.4,8.2-3.2,11-5.4c3.8,2.6,5.8,4.1,5.8,4.5c0,0.2-0.1,0.3-0.4,0.3c-0.9,0-1.6,0-2.1-0.1
			c-1.6,0.5-3.4,0.8-5.3,1.1c0.1,4.3,0.3,7.8,0.5,10.5h0.2c0.7-0.9,1.6-1.9,2.8-3.2c0.2-0.2,0.4-0.3,0.5-0.3
			c0.3,0.1,0.7,0.4,1.1,0.6c2.2,1.8,3.5,3,3.9,3.5c-0.1,0.5-0.3,0.7-0.7,0.7h-7.6c0.1,2.4,0.3,4.1,0.6,5.3c1.3,5.3,2.4,8,3.2,8.1
			c0.7,0,1.8-1.5,3.1-4.5c0.1,0,0.3,0.1,0.7,0.4c-0.6,1.8-1,3.6-1.3,5.4c0,1.2,0.3,2.3,0.9,3.3c0.3,0.5,0.5,1.1,0.5,1.7
			c-0.1,1-0.9,1.6-2.4,1.8c-1.3-0.1-2.6-0.5-3.6-1.3c-1.7-1.5-3.2-4.2-4.8-8.2c-1.1-2.8-2-6.8-2.4-12h-4.4v11.2
			c2-0.1,3.7-0.3,5.1-0.5c0.1,0,0.2,0.2,0.3,0.5c-2.4,2.1-5.8,3.8-10.2,5.3c-0.1,1.2-0.2,1.7-0.6,1.7c-0.3,0-0.7-0.5-1.3-1.7
			c-0.6-1-1.4-2.7-2.3-5c1.2,0,2.4,0,3.5-0.1l-0.1-21.3c0-1.2-0.1-2.8-0.4-4.9C253,15.9,255.1,16.7,257,17.6L257,17.6z M264.3,48.3
			c1.1,1.1,1.9,2,2.3,2.5c0,0.3-0.2,0.5-0.5,0.6h-12c-2.4,0.1-4.1,0.2-5.1,0.4c-0.3-0.7-0.6-1.3-0.9-1.8c1.3,0.1,3.4,0.2,6.2,0.2
			h3.9c1.2-1.3,2.1-2.1,2.6-2.7c0.4-0.5,0.8-0.8,1.2-1.1C262.5,46.7,263.2,47.3,264.3,48.3z M256.6,18.7v9.8h4.3
			c-0.2-3-0.4-6.4-0.4-10C259.3,18.6,258,18.7,256.6,18.7z M279.8,14.3h4.1c1.7-1.2,2.9-1.9,3.5-2.1c2.1,0.8,3.7,2.1,4.8,3.7
			c0,0.5-0.6,0.9-1.7,1.1c-1.7,4.7-4.1,8.8-7,12c5.2,3.5,7.8,7.5,7.9,12.1c-0.2,4.3-2.4,6.9-6.7,7.8c-0.7,0-1-0.4-1-1.2
			c0-1.4-0.4-2.5-1.3-3.3c-0.5-0.4-1-0.7-1.7-0.9c0-0.3,0-0.6,0.1-0.9c0.7,0.3,1.6,0.4,2.8,0.5c1.3-0.2,2-1.4,2.2-3.5
			c0-4.4-1.2-7.9-3.4-10.6c0.9-3.2,1.4-7.8,1.8-13.6h-3.7V52c-0.1,0.6-0.9,1-2.7,1.1c-1.9,0-2.8-0.2-2.9-0.7c0.1-1,0.1-2.3,0.1-3.9
			V23.7c-0.1-4.3-0.1-8-0.1-11.1L279.8,14.3z"/>
		<path class="st6" d="M123.6,77.8c1,0.9,1.5,1.4,1.5,1.6c0,0.3-0.3,0.6-0.8,0.9c-0.3,0.2-0.5,0.4-0.6,0.6c-0.1,4.1-0.6,6.9-1.6,8.5
			c-1,1.3-2.4,1.9-4.3,1.9c-0.2,0-0.4-0.3-0.4-0.9c-0.1-0.9-0.3-1.6-0.6-2.2c-0.2-0.4-0.6-0.7-1.1-1c-1.6,2.9-4,4.7-7.2,5.3
			c-0.1-0.1-0.1-0.3-0.2-0.6c1.9-1.9,3.2-4.8,4-8.7c0.1-1.1,0.2-2.2,0.3-3.3c-1,0.1-2,0.2-2.8,0.3c-0.2-1-0.4-1.7-0.6-1.9
			c2.8,0.3,5.7,0.4,8.8,0.4h1c1.4-1.3,2.3-1.9,2.7-1.9C121.9,76.8,122.5,77.1,123.6,77.8L123.6,77.8z M131.1,69.2
			c1.3,0.5,2,1.2,2,2.1c-0.1,1.1-0.4,1.8-1.1,2.2h9.6c0.7-0.9,1.8-2.1,3.2-3.7c0.3-0.2,0.5-0.4,0.8-0.5c0.2,0.1,0.6,0.3,1.2,0.7
			c2.6,2.2,4,3.5,4.2,4.1c0,0.4-0.2,0.6-0.6,0.6h-18c3.5,0.9,5.3,1.5,5.3,1.8c0,0.3-0.5,0.4-1.6,0.6c-0.3,0.5-0.5,0.8-0.8,1.1
			l4.1,1.2c2.1-1,4-2.4,5.7-4.3c3.1,2.4,4.6,3.8,4.6,4.2c0,0.3-0.2,0.4-0.5,0.4c-0.4,0-0.9-0.1-1.3-0.1c-1.3,0.2-2.7,0.4-4.1,0.4
			c0.6,1.3,1.5,2.5,2.8,3.5c2.1,1.5,3.6,2.4,4.5,2.4c-0.1,0.5-0.2,0.8-0.2,0.9c-0.6,0.1-1.1,0.4-1.4,1c-0.5,1.1-0.7,2.1-0.8,3.1
			c0,0.8-0.3,1.2-0.8,1.2c-1.6-0.2-2.9-1.9-3.9-5c-1.9,1.7-4.5,3.3-7.9,4.6c-0.1,0.9-0.3,1.4-0.7,1.4c-0.3,0-0.6-0.5-0.9-1.7
			c-0.5-1.3-0.9-2.9-1.2-4.8c0.4,0.1,0.9,0.2,1.5,0.3V82c0-1.3-0.1-2.3-0.1-3c-0.9,1-2,1.9-3.2,2.6c1.1,0.3,1.7,0.5,1.7,0.7
			c0,0.4-0.1,0.5-0.4,0.6c-0.8,0.3-1.1,0.5-1.1,0.7v8.2c-0.1,0.7-1.2,1-3.2,1c-1.4,0-2.1-0.3-2.2-0.7c0.1-2.9,0.1-5.3,0.1-7.2
			c0-1.9-0.1-3.2-0.2-4.1c1.5,0.2,2.7,0.3,3.7,0.4c0.9-1.8,1.6-3.9,1.8-6.5h-14.1c-4.5,0.1-7.3,0.2-8.4,0.4
			c-0.3-0.7-0.7-1.4-0.9-2.2c1.8,0.4,5,0.5,9.4,0.5h9.6c-0.4-0.3-0.8-0.8-1-1.4c-0.7-1.5-2-2.5-4.1-3c0.1-0.1,0.2-0.3,0.2-0.6
			c1,0,1.7-0.1,2-0.1C127.4,68.5,129.6,68.7,131.1,69.2L131.1,69.2z M122.9,93.4c0,0.3-0.2,0.5-0.5,0.6c-0.8,0.2-1.2,0.4-1.3,0.6
			v0.6h17.5v-0.1c0-1.7-0.1-3-0.4-3.8c5.2,0.3,7.9,0.9,8,1.8c0,0.4-0.3,0.6-0.9,0.9c-0.5,0.2-0.8,0.5-0.8,0.8l0,6.1
			c0.1,1.1,0.2,3.8,0.2,8c-0.1,0.7-1.5,1.1-4.2,1.1c-1.3,0-2-0.2-2-0.7c0.1-3,0.1-5.2,0.1-6.6h-18.1c-1.4,3.9-5,6.3-10.7,7.3
			c-0.1-0.4-0.3-0.6-0.7-0.7c2-1.3,3.6-2.7,4.7-4.3c1-1.3,1.6-3.2,1.6-5.6l-0.1-5.8c0-0.9-0.1-1.7-0.3-2.3
			C120.2,92,122.9,92.7,122.9,93.4L122.9,93.4z M116.7,84.7c-0.2,0.7-0.5,1.3-0.7,1.9c0.7,0.1,1.5,0.1,2.3,0.1
			c0.3,0,0.6-0.3,0.7-0.8c0.3-0.8,0.4-2.9,0.5-6.1h-2.1C117.3,81.7,117,83.3,116.7,84.7L116.7,84.7z M138.6,100.8l0.1-4h-17.5v2.2
			c0,0.9-0.1,1.7-0.2,2.4h17.7V100.8L138.6,100.8z M129.7,77.4c0,1.1-0.3,1.9-0.8,2.3c-0.3,0.5-0.9,0.9-1.9,1c-0.9,0-1.5-0.8-2-2.3
			c-0.4-1.2-1.3-2.2-2.8-2.9c0.2-0.1,0.3-0.2,0.3-0.4C127.1,75.6,129.5,76.3,129.7,77.4L129.7,77.4z M143.8,86
			c-0.1-0.3-0.2-0.5-0.2-0.8c-0.4-1.8-0.6-3.4-0.7-5.1c-1,0.1-2,0.1-3,0.1v6.7C141.4,86.8,142.8,86.5,143.8,86L143.8,86z"/>
		<path class="st6" d="M181.9,72.2c0,0.2-0.2,0.3-0.5,0.3c-0.6,0-1-0.1-1.3-0.3c-2,0.7-5.4,1.1-10.3,1.2c-0.1,0.9-0.1,1.7-0.2,2.5h6
			c0.6-0.7,1.4-1.6,2.4-2.6c0.2-0.2,0.3-0.3,0.4-0.3c0.3,0.1,0.6,0.3,0.9,0.5c1.9,1.5,3,2.5,3.2,2.9c-0.1,0.5-0.3,0.7-0.7,0.7H178
			v3.1c0.1,0.9,0.1,1.7,0.1,2.5c0,1.1-1.2,1.6-3.5,1.6c-1.6,0-2.4-0.3-2.4-0.9c0-0.6,0-1.8,0-3.5v-2.9h-2.9v0.1
			c-0.6,4.6-3.1,7.7-7.7,9.4c-0.2-0.1-0.4-0.3-0.5-0.6c0.9-0.6,1.7-1.7,2.3-3c0.7-1,1-3.6,1-7.8c0-2.9-0.2-4.7-0.6-5.5l5.9,2.2
			c3.2-1.2,5.5-2.5,6.9-4C180.2,70.4,181.9,71.8,181.9,72.2L181.9,72.2z M182.4,106.6c0,0.4-0.2,0.6-0.6,0.6
			c-0.7-0.1-1.3-0.1-1.9-0.1c-3.4,1.8-9.3,2.7-17.6,2.8c0-0.3-0.1-0.6-0.1-0.9c6.2-1.2,10.7-3.3,13.5-6.4
			C180.2,104.8,182.4,106.1,182.4,106.6L182.4,106.6z M172.7,86h18.2c1.8-1.5,3-2.3,3.4-2.3c0.3,0,1.2,0.5,2.6,1.5
			c1.1,0.8,1.7,1.4,1.7,1.7c0,0.5-0.5,1-1.4,1.5v10c0,1.1,0,2.1,0.1,3.2c0,0.9-1.1,1.4-3.3,1.4c-1.7,0-2.6-0.2-2.7-0.6V102H173v0.7
			c-0.1,0.7-1.1,1.1-3,1.2c-2,0-3-0.2-3.1-0.7c0.1-1,0.2-2.4,0.2-4.2V88.6c-0.1-1.8-0.1-3.3-0.2-4.7L172.7,86L172.7,86z M191.2,90.4
			v-3.1h-18.3v3.1H191.2z M191.2,95.5v-3.6h-18.3v3.6H191.2z M191.2,100.6v-3.7h-18.3v3.7H191.2z M202,72.1c0,0.2-0.2,0.3-0.5,0.3
			c-0.6,0-1-0.1-1.3-0.3c-2.1,0.7-5.8,1.1-11.1,1.2c-0.1,0.8-0.1,1.7-0.3,2.5h8.4c0.6-0.7,1.3-1.6,2.3-2.6c0.2-0.2,0.3-0.3,0.4-0.3
			c0.3,0.1,0.6,0.3,0.9,0.5c1.8,1.5,2.9,2.5,3.2,2.9c-0.1,0.5-0.3,0.7-0.7,0.7h-6.4v2.3c0.1,0.8,0.1,1.7,0.1,2.5
			c0,1.1-1.2,1.6-3.4,1.6c-1.6,0-2.4-0.3-2.5-0.9c0-0.6,0-1.8,0-3.4v-2h-2.7c-0.7,3.8-3.3,6.4-7.9,7.9c-0.2-0.1-0.4-0.3-0.5-0.6
			c1-0.5,1.9-1.4,2.5-2.7c0.7-0.9,1.1-3.2,1.1-6.9c0-2.5-0.2-4.1-0.7-4.8l5.5,2c3.8-1.2,6.6-2.5,8.2-4.1
			C200.2,70.4,202,71.8,202,72.1L202,72.1z M201,107.4c0,1.6-0.5,2.5-1.5,2.9c-0.2,0.1-0.6,0.2-1.1,0.3c-1.5,0-2.8-0.5-3.9-1.6
			c-3.1-2.4-6.6-3.8-10.5-4.3c0-0.5,0-0.7,0.1-0.7c1.8-0.2,4.2-0.3,7.2-0.4C197.8,103.5,201,104.9,201,107.4L201,107.4z"/>
		<path class="st6" d="M212.8,72.8c0.9-1.4,2.1-2.5,3.6-3.5c1.5-0.9,3.2-1.6,5-2c1.8-0.4,3.6-0.6,5.4-0.5s3.5,0.5,5,1.2
			s2.7,1.7,3.7,3c0.9,1.3,1.4,2.9,1.4,4.9c0,2.2-0.6,4.1-1.7,5.5c-1.1,1.4-2.7,2.5-4.7,3.3c2.1,0.6,3.8,1.7,5.1,3.1
			c1.3,1.4,2.1,3,2.4,4.8c0.4,1.8,0.3,3.6-0.2,5.5c-0.5,1.9-1.4,3.7-2.8,5.2c-1.4,1.6-3.2,2.8-5.5,3.9c-2.3,1-5,1.5-8.2,1.5
			c-0.7,0-1.5,0-2.5-0.1c-1-0.1-2-0.2-2.9-0.5c-1-0.2-1.8-0.6-2.7-1c-0.8-0.4-1.4-1-1.7-1.7c0-0.6,0.2-1.2,0.4-1.8
			c0.3-0.6,0.6-1,1-1.4c0.4-0.4,0.9-0.6,1.5-0.7c0.6-0.1,1.2,0,1.9,0.3c0.6,0.3,1.2,0.7,1.7,1.2s1.1,1,1.7,1.5
			c0.6,0.5,1.2,0.9,1.8,1.2c0.6,0.3,1.4,0.4,2.2,0.3c1.3-0.2,2.4-0.5,3.2-1.2c0.9-0.6,1.6-1.5,2.3-2.6c0.5-0.8,0.9-1.6,1.1-2.3
			c0.2-0.7,0.3-1.6,0.3-2.5c0-1.6-0.4-3.1-1.1-4.4c-0.8-1.3-1.8-2.5-3-3.4c-1.2-0.9-2.5-1.7-4-2.2c-1.5-0.5-2.9-0.7-4.3-0.7
			l-0.1-1.7c2.1,0.1,3.8-0.1,5.1-0.5s2.4-0.9,3.2-1.6c0.8-0.7,1.3-1.5,1.5-2.4c0.3-0.9,0.3-1.9,0.2-2.8s-0.4-1.9-0.9-2.8
			c-0.4-0.9-1-1.8-1.6-2.5c-0.8-0.9-1.9-1.5-3.1-1.7c-1.3-0.2-2.5-0.2-3.8,0.2c-1.3,0.3-2.5,0.8-3.6,1.4c-1.1,0.6-1.9,1.2-2.3,1.9
			L212.8,72.8L212.8,72.8z"/>
		<path class="st6" d="M289.1,76.4c1.1,0.8,1.7,1.4,1.7,1.7c0,0.5-0.5,1-1.5,1.5v3.8c0,0.4,0,0.9,0,1.2c0,0.9-1.1,1.4-3.3,1.4
			c-1.7,0-2.6-0.2-2.7-0.6v-1h-23.6c-0.1,5.6-0.4,9.2-1,11c-0.7,3-1.6,5.4-2.9,7.3c-2.1,3.3-4.2,5.6-6.5,6.9
			c-0.2-0.3-0.4-0.5-0.6-0.7c3.2-4.6,4.9-13.9,5-27.7v-6.3c0-1.4-0.1-2.7-0.2-3.8l7,2.4c9.3-1.3,16.7-3,22.3-5.1
			c4.2,3,6.4,4.7,6.4,5c0,0.3-0.2,0.5-0.6,0.6c-0.5,0-1.3-0.1-2.3-0.3c-3.4,0.5-12.2,0.9-26.4,0.9V77h23.3c1.8-1.4,3-2.1,3.4-2.1
			C286.8,74.9,287.7,75.4,289.1,76.4L289.1,76.4z M288.8,87.4c2.4,2,3.7,3.3,3.9,3.8c0,0.4-0.2,0.6-0.5,0.6h-18.4
			c-0.1,1.7-0.2,3.2-0.5,4.6h8.6c1.7-1.7,2.8-2.6,3.2-2.6c0.6,0,1.4,0.4,2.5,1.1c1.6,1.1,2.5,1.9,2.5,2.4c0,0.4-0.2,0.6-0.7,0.9
			c-0.6,0.4-1,0.6-1,0.8c-0.7,4.3-1.4,6.9-2.2,7.9c-0.9,1.6-3,2.5-6.3,2.8c-0.7,0-1.2-0.5-1.3-1.4c-0.2-1.8-0.8-2.9-1.7-3.3
			c-0.8-0.3-1.8-0.7-3-1.1c0-0.3,0-0.6,0.1-0.8c1.4,0.1,3.1,0.2,4.8,0.3c1.3,0,2.2-0.3,2.5-1c0.8-1.4,1.2-3,1.4-4.9h-9.6
			c-0.1,0.5-0.3,1-0.5,1.5c-2.6,6.2-8,9.8-16.2,11.1c-0.1-0.2-0.2-0.5-0.3-0.8c5.3-2.7,8.9-6.8,10.7-12.3c0.5-1.7,0.8-3.4,1-5.1
			c-3.6,0.1-5.9,0.2-6.9,0.4c-0.3-0.7-0.6-1.5-0.9-2.2c1.8,0.4,4.9,0.5,9.4,0.5h4.2c-0.4-0.4-0.8-1-0.9-1.8
			c-0.5-1.8-1.5-2.9-3.1-3.5c0.1-0.1,0.2-0.3,0.2-0.5c1.1,0,1.7-0.1,2.1-0.1c2.1,0,3.9,0.3,5.1,0.9c1,0.6,1.6,1.5,1.6,2.7
			c-0.1,1.1-0.4,1.9-1.2,2.3h6.6c0.7-0.8,1.7-1.9,3-3.4c0.3-0.2,0.5-0.4,0.8-0.4C287.9,86.8,288.3,87,288.8,87.4L288.8,87.4z
			 M259.8,83h23.6v-4.7h-23.6V83z"/>
	</g>
</g>
</svg>
