<?xml version="1.0" encoding="utf-8"?>
<!-- Generator: Adobe Illustrator 27.0.0, SVG Export Plug-In . SVG Version: 6.00 Build 0)  -->
<svg version="1.1" id="圖層_1" xmlns="http://www.w3.org/2000/svg" xmlns:xlink="http://www.w3.org/1999/xlink" x="0px" y="0px"
	 viewBox="0 0 120 93" style="enable-background:new 0 0 120 93;" xml:space="preserve">
<style type="text/css">
	.st0{fill:#3E3A39;}
	.st1{fill:#C9A063;}
</style>
<path class="st0" d="M5.9,74.7v0.6H3.7v1.3h3v0.7H0v-0.7h3v-1.3H0.8v-0.6H5.9z M3,72.7c-0.3,0.5-0.6,0.8-0.9,1.1
	c-0.4,0.2-0.9,0.5-1.6,0.6l-0.4-0.7c0.8-0.1,1.3-0.3,1.6-0.5s0.5-0.4,0.8-0.9L3,72.7L3,72.7z M3.7,71.5h2.7V73H5.7v-0.9H4.4v1.1
	c0,0.2,0.1,0.3,0.3,0.3h1.9v0.6h-2c-0.3,0-0.5-0.1-0.6-0.2c-0.2-0.1-0.2-0.2-0.2-0.5V72H1v0.9H0.2v-1.5H3c-0.1-0.2-0.2-0.4-0.3-0.6
	l0.7-0.1C3.6,71,3.7,71.2,3.7,71.5L3.7,71.5z"/>
<path class="st0" d="M10.7,73.7H8.6v3.7H7.9V71h2.8V73.7L10.7,73.7z M10,72v-0.5H8.5V72H10z M10,73.1v-0.5H8.5v0.5H10z M12.4,74v2.7
	h-3V74H12.4z M11.8,75.1v-0.5h-1.7v0.5H11.8z M11.8,75.6h-1.7v0.6h1.7V75.6z M14.1,71v5.7c0,0.2-0.1,0.4-0.2,0.6
	c-0.1,0.1-0.3,0.2-0.6,0.2h-0.5l-0.1-0.7h0.5c0.2,0,0.3-0.1,0.3-0.3v-2.8h-2.3V71L14.1,71L14.1,71z M13.4,72v-0.5h-1.5V72H13.4z
	 M13.4,72.6h-1.5v0.5h1.5V72.6z"/>
<path class="st0" d="M17.1,71.6h1v0.6h-2.7v-0.6h1.1c-0.1-0.3-0.2-0.5-0.3-0.7l0.7-0.1C16.9,71,17,71.3,17.1,71.6L17.1,71.6z
	 M17.8,76.9h-1.6v0.5h-0.7v-2.6h2.2v2.1H17.8z M17.8,72.6v0.6h-2.2v-0.6H17.8z M17.8,73.7v0.6h-2.2v-0.6H17.8z M17.2,76.3v-0.9h-1
	v0.9H17.2z M21.1,72.6c0,0.2,0.1,0.3,0.2,0.3h0.6v0.6h-0.7c-0.3,0-0.5-0.1-0.6-0.2s-0.2-0.3-0.2-0.6v-1.2h-1.1c0,0.5-0.1,0.8-0.1,1
	c-0.1,0.3-0.3,0.6-0.7,1L18,73.1c0.3-0.3,0.5-0.6,0.6-0.8c0.1-0.2,0.1-0.6,0.1-1.4h2.5v1.7H21.1z M21.4,73.7v0.5
	c-0.2,0.7-0.5,1.4-0.9,1.9c0.4,0.3,0.9,0.5,1.5,0.7l-0.4,0.6c-0.7-0.2-1.2-0.5-1.6-0.8c-0.4,0.3-0.9,0.6-1.6,0.8L18,76.8
	c0.6-0.2,1.1-0.4,1.5-0.7c-0.4-0.4-0.8-0.9-1-1.4l0.6-0.3c0.3,0.5,0.6,0.9,1,1.3c0.3-0.4,0.5-0.8,0.7-1.4h-2.6v-0.6H21.4L21.4,73.7z
	"/>
<path class="st0" d="M24.9,71.6h1.2v0.6H23v-0.6h1.3c-0.1-0.3-0.3-0.5-0.4-0.7l0.7-0.1C24.7,71,24.8,71.3,24.9,71.6L24.9,71.6z
	 M25.9,72.7v0.6h-2.6v-0.6H25.9z M25.9,73.7v0.6h-2.6v-0.6H25.9z M23.9,77.4h-0.6v-2.6h2.5v2.5h-0.6v-0.4H24v0.5H23.9z M25.2,75.4
	H24v0.9h1.2V75.4z M27.6,72.8v-2.1h0.7v2.1h1.4v0.7h-1.4v3.9h-0.7v-3.9h-1.4v-0.7H27.6z"/>
<path class="st0" d="M32.7,70.8c-0.1,0.2-0.1,0.4-0.2,0.6h0.9v2.3h-1.8v0.7h2v2.8H33v-0.4h-1.3v0.5H31v-5.8h0.9
	c0.1-0.2,0.2-0.5,0.2-0.7H32.7z M32.7,73.1V72h-1.2v1.1H32.7z M32.9,76.2V75h-1.3v1.2H32.9z M37.3,71.1v0.6h-1.5v0.8h1.3v3.7
	c0,0.2-0.1,0.3-0.1,0.5c-0.1,0.1-0.2,0.2-0.4,0.2h-0.4L36,76.2h0.4c0.1,0,0.1-0.1,0.1-0.2v-2.9h-0.7v4.3h-0.7v-4.3h-0.7v3.8h-0.6
	v-4.4h1.3v-0.8h-1.5v-0.6H37.3L37.3,71.1z"/>
<path class="st0" d="M2,81.3c-0.2,0-0.6,0.1-1.1,0.1v0.4h1v0.5h-1v0.4h1v0.5h-1v0.4H5v-0.4H4v-0.5h1v-0.4H4v-0.5h1v-0.4H4v-0.6h1.6
	v2.7h0.3v1.4H5.3v-0.8H0.7v0.8H0.1v-1.4h0.2v-2.6c0.5,0,0.9-0.1,1.5-0.2L2,81.3z M4.9,84.5V85c-0.4,0.2-0.9,0.4-1.5,0.6h2.4v0.6H3.3
	v0.6c0,0.2,0,0.3-0.1,0.3c-0.1,0.1-0.2,0.2-0.3,0.2h-1l-0.1-0.6c0.2,0,0.5,0,0.7,0c0.1,0,0.2-0.1,0.2-0.1v-0.5H0.2v-0.6h2.5v-0.2
	c0.4-0.1,0.7-0.2,1.2-0.4H1.2v-0.5L4.9,84.5L4.9,84.5z M3.9,81c-0.1,0.2-0.3,0.3-0.4,0.4c0.1,0.1,0.2,0.2,0.3,0.3l-0.3,0.4
	c-0.1-0.1-0.2-0.2-0.3-0.3c-0.2,0.1-0.5,0.3-0.8,0.4l-0.2-0.5c0.2-0.1,0.4-0.2,0.7-0.3c-0.1-0.1-0.3-0.2-0.5-0.3l0.3-0.3
	c0.2,0.1,0.4,0.3,0.5,0.4c0.1-0.1,0.3-0.2,0.4-0.4L3.9,81L3.9,81z M4,82.3c-0.2,0.2-0.3,0.4-0.5,0.5c0.1,0.1,0.2,0.2,0.4,0.3
	l-0.3,0.4c-0.1-0.1-0.3-0.3-0.4-0.4c-0.2,0.1-0.5,0.3-0.7,0.4l-0.2-0.4c0.2-0.1,0.4-0.2,0.6-0.3c-0.1-0.1-0.3-0.2-0.4-0.3l0.3-0.3
	c0.2,0.1,0.3,0.2,0.5,0.4c0.2-0.1,0.3-0.3,0.5-0.4L4,82.3L4,82.3z"/>
<path class="st0" d="M12.4,81.5H7.5V84c0,0.5,0,1-0.1,1.6S7.2,86.7,7,87.3l-0.5-0.5c0.2-0.4,0.3-0.9,0.3-1.4c0.1-0.5,0.1-1,0.1-1.4
	v-3h5.5L12.4,81.5L12.4,81.5z M10.3,85v0.5H12V86h-1.7v0.6h2.1v0.6H7.5v-0.6h0.8v-1.3h0.6v1.2h0.9v-1.6L10.3,85L10.3,85z M9.9,82.2
	c-0.2,0.1-0.5,0.1-0.8,0.2v0.5h0.7v0.4H9.2l0,0c0.3,0.2,0.5,0.4,0.8,0.6l-0.3,0.5c-0.2-0.2-0.4-0.3-0.5-0.5V85H8.7v-1.1
	c-0.2,0.3-0.5,0.6-0.8,0.9l-0.3-0.5c0.4-0.3,0.8-0.6,1-1H7.7v-0.5h0.9v-0.4c-0.2,0-0.5,0-0.8,0l-0.1-0.5c0.8,0,1.4-0.1,2-0.2
	L9.9,82.2L9.9,82.2z M12.2,82.2c-0.3,0.1-0.6,0.2-0.9,0.2v0.4h1.1v0.5h-1.1v0.1c0.4,0.3,0.7,0.6,1.1,1l-0.3,0.5
	c-0.3-0.4-0.6-0.6-0.8-0.9v1.1h-0.5V84c-0.2,0.4-0.5,0.7-0.7,0.9l-0.3-0.5c0.4-0.3,0.7-0.6,0.9-1H10v-0.5h0.7v-0.4
	c-0.2,0-0.4,0-0.7,0L9.8,82c0.8,0,1.4-0.1,2-0.2L12.2,82.2L12.2,82.2z"/>
<path class="st0" d="M15.6,83v-0.9h0.8V83H15.6z M15.6,85.7v-0.9h0.8v0.9H15.6z"/>
<path class="st0" d="M22.5,82.1v-1.4h0.7v1.4h2.3v3.4h-2.3v1.8h-0.7v-1.8h-2.3v-3.4C20.2,82.1,22.5,82.1,22.5,82.1z M22.5,82.7h-1.6
	v2.1h1.6V82.7z M24.8,82.7h-1.6v2.1h1.6V82.7z"/>
<path class="st0" d="M32.4,81.6h-2.2c-0.1,0.2-0.1,0.4-0.2,0.6h1.9V85h-1.6v1.6c0,0.2,0,0.4-0.2,0.5c-0.1,0.1-0.3,0.2-0.5,0.2H29
	l-0.1-0.7c0.2,0,0.4,0.1,0.6,0.1c0.2,0,0.2-0.1,0.2-0.2V85H28v-2.8h1.3c0.1-0.2,0.2-0.4,0.2-0.6h-2v2.2c0,0.5-0.1,1.1-0.1,1.7
	c-0.1,0.6-0.3,1.2-0.5,1.8l-0.5-0.5c0.2-0.5,0.4-1,0.5-1.5s0.1-1,0.1-1.5V81h5.4L32.4,81.6L32.4,81.6z M29,85.5
	c-0.3,0.6-0.6,1.1-1,1.5l-0.5-0.4c0.4-0.4,0.7-0.9,1-1.4L29,85.5L29,85.5z M31.3,83.3v-0.5h-2.7v0.5H31.3z M31.3,83.9h-2.7v0.6h2.7
	V83.9z M32.4,86.6L31.8,87c-0.2-0.4-0.6-0.9-1-1.5l0.5-0.3C31.8,85.8,32.1,86.2,32.4,86.6L32.4,86.6z"/>
<path class="st0" d="M35.3,82.5c0-0.4,0.1-0.8,0.1-1.3v-0.5h0.7v0.6c0,0.5,0,0.9-0.1,1.3h2.7v0.7h-2c0.1,0.7,0.4,1.3,0.6,1.8
	c0.4,0.6,0.8,1.1,1.4,1.5l-0.4,0.7c-0.7-0.6-1.3-1.2-1.6-1.8c-0.3-0.6-0.6-1.3-0.7-2.2h-0.2c-0.1,0.5-0.2,0.9-0.4,1.3
	c-0.4,0.9-1,1.8-2,2.7l-0.6-0.5c0.9-0.7,1.6-1.5,2-2.3c0.1-0.3,0.3-0.7,0.3-1.1h-2.2v-0.7L35.3,82.5L35.3,82.5z"/>
<path class="st0" d="M41.4,81.3c-0.2,0-0.6,0.1-1.1,0.1v0.4h1v0.5h-1v0.4h1v0.5h-1v0.4h4.1v-0.4h-1v-0.5h1v-0.4h-1v-0.5h1v-0.4h-1
	v-0.6H45v2.7h0.3v1.4h-0.6v-0.8h-4.6v0.8h-0.6v-1.4h0.2v-2.6c0.5,0,0.9-0.1,1.5-0.2L41.4,81.3L41.4,81.3z M44.3,84.5V85
	c-0.4,0.2-0.9,0.4-1.5,0.6h2.4v0.6h-2.5v0.6c0,0.2,0,0.3-0.1,0.3c-0.1,0.1-0.2,0.2-0.3,0.2h-1l-0.1-0.6c0.2,0,0.5,0,0.7,0
	c0.1,0,0.2-0.1,0.2-0.1v-0.5h-2.5v-0.6h2.5v-0.2c0.4-0.1,0.8-0.2,1.2-0.4h-2.7v-0.5L44.3,84.5L44.3,84.5z M43.3,81
	c-0.1,0.2-0.3,0.3-0.4,0.4c0.1,0.1,0.2,0.2,0.3,0.3l-0.3,0.4c-0.1-0.1-0.2-0.2-0.4-0.3c-0.2,0.1-0.5,0.3-0.8,0.4l-0.2-0.5
	c0.2-0.1,0.4-0.2,0.7-0.3c-0.1-0.1-0.3-0.2-0.5-0.3l0.3-0.3c0.2,0.1,0.4,0.3,0.5,0.4c0.1-0.1,0.3-0.2,0.4-0.4L43.3,81L43.3,81z
	 M43.4,82.3c-0.2,0.2-0.3,0.4-0.5,0.5c0.1,0.1,0.2,0.2,0.4,0.3L43,83.5c-0.1-0.1-0.3-0.3-0.4-0.4c-0.2,0.1-0.5,0.3-0.7,0.4l-0.2-0.4
	c0.2-0.1,0.4-0.2,0.6-0.3c-0.1-0.1-0.3-0.2-0.4-0.3l0.3-0.3c0.2,0.1,0.3,0.2,0.5,0.4c0.2-0.1,0.3-0.3,0.5-0.4L43.4,82.3L43.4,82.3z"
	/>
<path class="st0" d="M51.1,82.5v0.6h-0.7c0.5,0.5,0.9,0.9,1.2,1.4l-0.4,0.4c-0.1-0.2-0.2-0.4-0.4-0.6c-0.4,0.1-1,0.1-1.6,0.1v0.7
	h2.3v0.6h-2.3v0.6h2.6v0.6H46v-0.6h2.6v-0.6h-2.3v-0.6h2.3v-0.6c-0.6,0-1.3,0.1-2.1,0.1L46.3,84c0.3,0,0.6,0,0.9,0
	c0.3-0.3,0.5-0.6,0.7-0.9h-1.1v-0.6H51.1z M49.3,81.3h2.5v1.5h-0.6v-0.9h-4.5v0.9h-0.6v-1.5h2.6c-0.1-0.2-0.1-0.4-0.2-0.5l0.7-0.1
	C49.2,80.9,49.2,81.1,49.3,81.3L49.3,81.3z M49.9,83.4l0.3-0.3h-1.6c-0.1,0.3-0.3,0.6-0.6,0.9c0.9,0,1.7-0.1,2.3-0.1
	C50.2,83.7,50,83.6,49.9,83.4L49.9,83.4z"/>
<path class="st0" d="M57.9,86.5c0,0.2-0.1,0.4-0.2,0.6c-0.1,0.1-0.2,0.2-0.4,0.2h-1.1l-0.1-0.7l1,0.1c0.1,0,0.2-0.1,0.2-0.3v-0.9
	L56.9,86c-0.4-0.4-0.7-0.8-0.9-1.1c-0.2-0.3-0.4-0.8-0.6-1.2c-0.1,0.3-0.2,0.5-0.3,0.8c-0.3,0.6-0.7,1.1-1.3,1.7l-0.2-0.5v1.6H53
	v-5.2h2.2v-0.7h-1.4v-0.6h2v1.3H58L57.9,86.5L57.9,86.5z M54.6,83.8c0.2-0.3,0.3-0.7,0.4-1.1h-1.5v2.5C54,84.7,54.4,84.3,54.6,83.8
	L54.6,83.8z M56.3,84c0.2,0.4,0.5,0.8,1,1.2v-2.4h-1.5C55.9,83.2,56.1,83.6,56.3,84L56.3,84z"/>
<path class="st0" d="M60.5,81.5h0.9v0.6h-2.5v-0.6h1c-0.1-0.3-0.2-0.5-0.3-0.7l0.6-0.1C60.3,80.9,60.4,81.2,60.5,81.5L60.5,81.5z
	 M61.1,86.8h-1.4v0.5h-0.6v-2.6h2V86.8L61.1,86.8z M61.1,82.6v0.6h-2v-0.6H61.1z M61.1,83.6v0.6h-2v-0.6H61.1z M60.5,86.2v-0.9h-0.8
	v0.9H60.5z M64.1,82.6c0,0.2,0.1,0.3,0.2,0.3h0.5v0.6h-0.6c-0.2,0-0.4-0.1-0.6-0.2c-0.1-0.1-0.2-0.3-0.2-0.6v-1.2h-1
	c0,0.5-0.1,0.8-0.1,1c-0.1,0.3-0.3,0.6-0.6,1l-0.5-0.4c0.3-0.3,0.4-0.6,0.5-0.8c0.1-0.2,0.1-0.6,0.1-1.4H64L64.1,82.6L64.1,82.6z
	 M64.3,83.6v0.5c-0.2,0.7-0.4,1.4-0.8,1.9c0.4,0.3,0.8,0.5,1.4,0.7l-0.4,0.6c-0.6-0.2-1.1-0.5-1.5-0.8c-0.4,0.3-0.9,0.6-1.5,0.8
	l-0.4-0.6c0.6-0.2,1-0.4,1.3-0.7c-0.4-0.4-0.7-0.9-0.9-1.4l0.5-0.3c0.2,0.5,0.5,0.9,0.9,1.3c0.3-0.4,0.5-0.8,0.6-1.4h-2.2v-0.6H64.3
	L64.3,83.6z"/>
<path class="st0" d="M67.2,81.5h1.1v0.6h-2.8v-0.6h1.1c-0.1-0.3-0.2-0.5-0.4-0.7l0.6-0.1C66.9,80.9,67,81.2,67.2,81.5z M68,82.6v0.6
	h-2.3v-0.6H68z M68,83.6v0.6h-2.3v-0.6H68z M66.3,87.3h-0.6v-2.6H68v2.5h-0.6v-0.4h-1.1L66.3,87.3L66.3,87.3z M67.4,85.3h-1.1v0.9
	h1.1V85.3z M69.6,82.8v-2.1h0.6v2.1h1.2v0.6h-1.2v3.9h-0.6v-3.9h-1.2v-0.6H69.6z"/>
<path class="st0" d="M74,85.5c-0.4,0.6-1,1.1-1.7,1.6l-0.4-0.6c0.6-0.4,1.1-0.8,1.6-1.4L74,85.5L74,85.5z M77.6,81.4
	c-0.8,0.2-1.7,0.3-2.8,0.4c-0.2,0.3-0.4,0.6-0.7,1c0.5,0,1-0.1,1.5-0.1c0.2-0.2,0.5-0.5,0.8-0.8l0.6,0.3c-0.8,0.9-1.6,1.6-2.5,2.2
	c0.9,0,1.7-0.1,2.3-0.2c-0.1-0.3-0.3-0.5-0.4-0.8l0.4-0.3c0.5,0.7,0.9,1.4,1.1,1.9l-0.6,0.4c-0.1-0.2-0.2-0.4-0.3-0.7
	c-0.4,0.1-1,0.1-1.6,0.2v1.7c0,0.3-0.1,0.5-0.2,0.6c-0.1,0.1-0.3,0.2-0.6,0.2H74l-0.1-0.7c0.2,0,0.4,0.1,0.5,0.1
	c0.2,0,0.3-0.1,0.3-0.2v-1.5c-0.7,0-1.4,0.1-2.3,0.1l-0.2-0.6c0.4,0,0.8,0,1.2,0c0.5-0.4,1-0.8,1.5-1.2c-0.7,0.1-1.5,0.1-2.3,0.2
	L72.5,83c0.2,0,0.5,0,0.7,0c0.4-0.3,0.6-0.6,0.9-1c-0.6,0-1.2,0-1.8,0l-0.2-0.6c2,0,3.8-0.1,5.2-0.4L77.6,81.4L77.6,81.4z
	 M77.8,86.5L77.4,87c-0.4-0.5-0.9-1-1.6-1.5l0.4-0.5C76.9,85.5,77.4,86,77.8,86.5L77.8,86.5z"/>
<path class="st0" d="M80.8,81v0.6h-1c-0.1,0.6-0.2,1.1-0.3,1.5h1.2v3.4h-1.2v0.7H79v-2.9c-0.1,0.2-0.2,0.4-0.3,0.6l-0.3-0.6
	c0.3-0.6,0.5-1.1,0.7-1.5c0.1-0.3,0.2-0.7,0.2-1.1h-0.7v-0.6L80.8,81L80.8,81z M80.1,86v-2.2h-0.6V86H80.1z M84.3,81v0.6h-0.6v1.7
	h0.7v0.6h-0.7v3.4h-0.6v-3.4h-0.9c0,0.6-0.1,1.1-0.2,1.6c-0.1,0.6-0.4,1.2-0.8,1.8l-0.5-0.5c0.4-0.5,0.6-1,0.8-1.5
	c0.1-0.3,0.2-0.8,0.2-1.4h-0.8v-0.6h0.8v-1.7h-0.6V81L84.3,81L84.3,81z M83.1,81.6h-0.9v1.7h0.9V81.6z"/>
<path class="st0" d="M87.6,82.4c-0.2,0.4-0.5,0.8-0.8,1S86,83.8,85.3,84L85,83.4c0.7-0.1,1.2-0.3,1.4-0.5c0.2-0.1,0.5-0.4,0.8-0.8
	L87.6,82.4L87.6,82.4z M87.3,84.4L87.3,84.4v-1h0.6v0.9v0.1h1.6l-0.1,1.7c0,0.2,0,0.3,0.1,0.3c0,0.1,0.1,0.1,0.2,0.1h0.5
	c0,0,0.1,0,0.1-0.1c0,0,0.1-0.4,0.1-1.2l0.6,0.2c-0.1,0.8-0.2,1.3-0.3,1.5c-0.1,0.1-0.3,0.2-0.5,0.2h-0.8c-0.1,0-0.3-0.1-0.4-0.2
	c-0.1-0.1-0.2-0.3-0.2-0.6l0.1-1.4h-1c-0.1,0.5-0.3,0.9-0.6,1.3c-0.4,0.5-1.1,0.8-2,1.1L85,86.7c0.9-0.2,1.6-0.5,1.9-0.9
	c0.2-0.2,0.4-0.5,0.4-0.8h-1.8v-0.6H87.3L87.3,84.4z M88.1,81.3h2.5v1.5H90v-0.9h-1V83c0,0.2,0.1,0.2,0.2,0.2h1.6v0.6H89
	c-0.2,0-0.4,0-0.5-0.1s-0.2-0.2-0.2-0.5v-1.3h-2.5v0.9h-0.6v-1.5h2.3c-0.1-0.2-0.2-0.3-0.3-0.5l0.7-0.1C88,80.9,88,81.1,88.1,81.3
	L88.1,81.3z"/>
<path class="st0" d="M94.4,81.4c-0.6,0.2-1.2,0.3-1.9,0.4v0.7h1.6v2.3h-1.6c0,0.4-0.1,0.7-0.1,1.1c-0.1,0.5-0.2,1-0.4,1.4l-0.5-0.5
	c0.1-0.4,0.2-0.7,0.3-1.1s0.1-0.9,0.1-1.4v-3.1c0.9,0,1.6-0.1,2.2-0.5L94.4,81.4L94.4,81.4z M93.5,84.2v-1.1h-1v1.1H93.5z
	 M97.4,81.4c-0.7,0.2-1.4,0.3-2.3,0.4V83h2.3v0.7h-0.7v3.7h-0.5v-3.7h-1v0.8c0,0.5-0.1,1-0.2,1.5c-0.1,0.5-0.3,0.9-0.6,1.3l-0.5-0.5
	c0.2-0.3,0.4-0.7,0.5-1c0.1-0.4,0.2-0.8,0.2-1.3v-3.3c1,0,1.9-0.2,2.6-0.5L97.4,81.4L97.4,81.4z"/>
<path class="st0" d="M4.1,7.1H1.4v0.8H0.5V0.6h3.6L4.1,7.1L4.1,7.1z M3.2,3.3V1.5H1.4v1.8H3.2z M3.2,6.2v-2H1.4v2H3.2z M5.1,0.3h4.4
	V8c0,0.3-0.1,0.6-0.3,0.8S8.8,9,8.5,9H6.8L6.6,8.1l1.5,0.1c0.2,0,0.3-0.1,0.3-0.4V6H5.9C5.8,6.4,5.7,6.7,5.6,7
	C5.3,7.7,4.7,8.5,3.8,9.2L2.9,8.5c0.8-0.6,1.3-1.2,1.7-1.8C4.9,6.2,5,5.4,5,4.3L5.1,0.3L5.1,0.3z M8.5,5.1V3.6H6.1v0.7
	c0,0.3,0,0.6,0,0.9L8.5,5.1L8.5,5.1z M8.5,2.7V1.2H6.1v1.4h2.4V2.7z"/>
<path class="st0" d="M19.7,9.2h-1V8.4h-5.2v0.7h-1V0.3h7.2V9.2L19.7,9.2z M18.7,3.8V1.3h-5.2v2.5H18.7z M18.7,7.5V4.8h-5.2v2.7H18.7
	z"/>
<path class="st0" d="M30.7,0.3v5.4c0,1.2,0,1.8,0.2,1.9C31,7.8,31,7.8,31.1,7.8c0.1,0,0.2-0.4,0.4-1.1l0.7,0.4
	c-0.1,0.8-0.3,1.3-0.5,1.6C31.5,8.9,31.4,9,31.2,9c-0.3,0-0.6-0.1-0.8-0.4c-0.4-0.4-0.5-1.4-0.5-2.9V1.2h-5.7v3.3
	c0,0.7-0.1,1.5-0.2,2.3c-0.2,0.8-0.4,1.6-0.7,2.5l-0.8-0.7c0.3-0.6,0.5-1.3,0.6-2s0.1-1.4,0.1-2V0.3H30.7L30.7,0.3z M29.5,1.7v0.8
	h-2.1v0.8h1.9v3h-1.9v1.2c0.4,0,0.8-0.1,1.1-0.2c-0.1-0.2-0.2-0.4-0.4-0.6l0.8-0.2c0.4,0.6,0.7,1.2,1,1.9l-0.8,0.3
	c-0.1-0.2-0.2-0.4-0.3-0.6c-1,0.2-2.5,0.4-4.5,0.5L24,7.7c0.9,0,1.7,0,2.4-0.1V6.4h-1.8v-3h1.8V2.5h-2V1.7H29.5L29.5,1.7z M26.4,4.2
	h-0.9v1.5h0.9V4.2z M28.4,4.2h-1v1.5h1V4.2z"/>
<path class="st0" d="M35,1.9V0h0.9v1.9H37v0.4c0.4-0.3,0.6-0.6,0.9-1C38.1,1,38.3,0.6,38.5,0l1,0.1c-0.1,0.3-0.2,0.5-0.3,0.7h3.1
	v0.7c-0.6,0.8-1.1,1.5-1.7,2C41.2,3.8,42,4.1,43,4.4l-0.6,0.8c-1.1-0.3-2-0.7-2.6-1c-0.7,0.5-1.6,0.8-2.6,1.2l-0.4-0.7l-0.3,0.4
	c-0.3-0.4-0.6-0.8-0.8-1.1v5.2h-0.9V4.5c-0.3,0.8-0.7,1.5-1.2,2.1l-0.4-1c0.6-0.8,1.1-1.8,1.6-2.9l0,0h-1.5V1.9H35L35,1.9z
	 M39.2,3.6c-0.4-0.3-0.7-0.7-1-1c-0.2,0.2-0.5,0.5-0.7,0.7l-0.4-0.5v0.1H36v0.2c0.4,0.4,0.9,0.8,1.3,1.3l-0.1,0.1
	C38,4.2,38.6,3.9,39.2,3.6L39.2,3.6z M42.3,9.1h-1V8.6h-2.7v0.5h-1V5.3h4.7V9.1L42.3,9.1z M41.3,7.8V6.1h-2.7v1.6L41.3,7.8L41.3,7.8
	z M40,3c0.4-0.3,0.8-0.8,1.3-1.4h-2.4c0,0.1-0.1,0.1-0.1,0.2C39.1,2.3,39.5,2.7,40,3L40,3z"/>
<path class="st0" d="M51.3,0.5V0h0.9v0.5h1.1v0.7h-1.1v0.3h-0.9V1.2h-2.7V0.5H51.3z M51,1.8V1.5h0.9v0.3h1.7v0.5h-1.7v0.3h2v0.7H53
	v0.1c0,0.1,0.1,0.2,0.3,0.2h0.6v0.5h-0.8c-0.3,0-0.5,0-0.6-0.1c-0.2-0.1-0.2-0.2-0.2-0.4V3.3h-1.5c-0.1,0.3-0.2,0.5-0.4,0.7
	c-0.1,0.1-0.2,0.2-0.3,0.2H51V3.7h0.9v0.5h1.5v0.5h-1.5v0.4c0.6,0,1.2-0.1,1.7-0.1v0.5c-0.9,0.1-2.3,0.2-4.5,0.3L49,5.1
	c0.7,0,1.4,0,2,0V4.7h-1.3V4.4c-0.2,0.1-0.3,0.1-0.5,0.2L48.8,4c0.4-0.1,0.7-0.2,0.9-0.3c0.1-0.1,0.2-0.2,0.3-0.3h-1V2.7h2.1V2.4
	h-1.9V1.8H51L51,1.8z M58.2,6.9v0.7h-1.7C57,8,57.4,8.4,57.8,8.8L57,9.1c-0.1-0.1-0.2-0.3-0.3-0.4c-1.5,0.1-4,0.2-7.4,0.3l-0.1-0.7
	c0.4,0,0.9,0,1.3,0c0.2-0.2,0.5-0.5,0.6-0.7h-2.3V6.9H58.2L58.2,6.9z M57.1,5.9v0.6h-7.2V5.9H57.1z M55.6,7.7l0.5-0.2h-3.9
	c-0.1,0.2-0.4,0.5-0.6,0.7c1.7,0,3.1-0.1,4.5-0.1C56,8,55.8,7.9,55.6,7.7L55.6,7.7z M55.1,2.3V1.7h0.8v0.6h1.5v2.2
	c0.1,0.3,0.1,0.4,0.2,0.4s0.2-0.3,0.2-0.9l0.6,0.4c-0.1,0.7-0.2,1.1-0.4,1.2c-0.1,0.1-0.3,0.2-0.5,0.2S57,5.7,56.9,5.6
	c-0.2-0.2-0.3-0.5-0.3-1.1V3h-0.7c0,0.5-0.1,0.9-0.2,1.2c0.3,0.2,0.6,0.4,0.8,0.6l-0.4,0.6c-0.2-0.2-0.4-0.4-0.7-0.5
	c-0.2,0.4-0.5,0.7-1,1l-0.6-0.6c0.4-0.3,0.8-0.6,1-1C54.5,4.1,54.2,4,54,3.9l0.4-0.6c0.2,0.1,0.5,0.2,0.7,0.4c0-0.2,0.1-0.5,0.1-0.8
	h-1.1V2.3H55.1L55.1,2.3z M55,0.5V0h0.9v0.5h2.4v0.7h-2.4v0.4H55V1.2h-1.1V0.5H55z"/>
<path class="st0" d="M62.4,0.6c-0.6,0.7-1.2,1.3-2.1,1.9l-0.6-0.8c0.8-0.4,1.4-1,2-1.6L62.4,0.6L62.4,0.6z M62.4,2.8
	c-0.2,0.5-0.5,0.9-0.7,1.3v5h-0.9v-4c-0.2,0.2-0.5,0.4-0.7,0.6l-0.3-1c0.4-0.3,0.7-0.6,1-1c0.3-0.3,0.6-0.7,0.8-1.3L62.4,2.8
	L62.4,2.8z M63.4,3.6c0,1.6-0.2,3.1-0.5,4.5L62,7.9c0.3-1.5,0.5-2.9,0.5-4.4L63.4,3.6z M63.8,1.9V0h0.9v1.9h1.6v0.8h-1.6v6.5h-0.9
	V2.7h-1.4V1.9H63.8z M66.3,1.3l-0.8,0.4c-0.2-0.5-0.4-0.9-0.6-1.2l0.8-0.2C65.9,0.6,66.1,0.9,66.3,1.3z M66,3.5v2.9
	c0,0.2,0.1,0.3,0.3,0.3h0.4v0.8h-0.6c-0.3,0-0.6-0.1-0.7-0.2c-0.2-0.1-0.3-0.3-0.3-0.6V3.5H66L66,3.5z M69.4,3.3v0.9h-0.9v3.9
	c0,0.4-0.1,0.6-0.2,0.8c-0.1,0.2-0.4,0.2-0.8,0.2h-0.9l-0.2-1c0.3,0.1,0.6,0.1,0.9,0.1s0.4-0.1,0.4-0.2V4.2h-1.1V3.3H69.4L69.4,3.3z
	 M69.2,0.6v0.9h-2.7V0.6H69.2z"/>
<path class="st0" d="M79,2.2V3h-2.2c-0.3,0.2-0.6,0.4-0.8,0.6c0.4,0.5,0.6,0.9,0.8,1.3c0.8-0.3,1.5-0.8,2.2-1.4l0.7,0.7
	c-0.4,0.4-0.9,0.7-1.4,1c0.2,0.5,0.5,1,0.9,1.4C79.5,7,80,7.5,80.6,7.9l-0.7,0.8c-0.7-0.6-1.2-1.2-1.6-1.8C78,6.5,77.7,6,77.5,5.5
	c-0.2,0.1-0.3,0.1-0.5,0.2c0.1,0.4,0.2,0.9,0.2,1.3c0,0.8-0.1,1.3-0.3,1.6c-0.2,0.4-1,0.5-2.2,0.5l-0.3-1c0,0,0.2,0.1,0.6,0.1
	c0.5,0,0.9-0.1,1-0.2c0.2-0.2,0.3-0.5,0.3-1c0-0.1,0-0.3,0-0.4c-0.6,0.4-1.1,0.8-1.6,1C73.9,8,73,8.3,71.8,8.7l-0.5-0.9
	c1.1-0.3,2.1-0.6,3-1c0.7-0.3,1.3-0.7,1.8-1.1c0-0.1,0-0.2-0.1-0.3c0-0.1-0.1-0.2-0.1-0.3c-0.6,0.4-1.1,0.7-1.5,0.9
	c-0.7,0.3-1.5,0.6-2.6,0.9L71.2,6c1-0.2,1.9-0.5,2.7-0.8C74.5,5,75,4.7,75.4,4.4c-0.1-0.1-0.2-0.2-0.3-0.4c-0.9,0.4-2,0.7-3.2,1
	l-0.5-0.8c1.3-0.2,2.3-0.5,3.1-0.8c0.3-0.1,0.6-0.2,0.9-0.3h-2.9V2.2H79L79,2.2z M76.2,0.7h4.1v2h-0.9V1.6h-7.2v1.2h-1v-2h3.9
	c-0.1-0.2-0.3-0.4-0.4-0.6L75.8,0C75.9,0.2,76,0.5,76.2,0.7L76.2,0.7z"/>
<path class="st1" d="M14.1,20.2v2.3c0,0-0.1,0.1-0.4,0.2l1.7,1.1C15.3,23.9,15.2,24,15,24c-0.1,0-0.2,0-0.3,0
	c-0.6,0.4-1.5,0.9-2.4,1.3c1.1,0.8,2.4,1.4,3.8,1.7v0.2c-0.6,0.2-1.1,0.7-1.3,1.5c-2.6-1-4.1-2.8-5-5.6V27c0,1.1-0.3,2-2.4,2.1
	c0-1.2-0.5-1.4-1.8-1.6v-0.2h2.1C7.9,27.3,8,27.2,8,27v-4.7H4.4L4.3,22H8v-1.8H3.3c0,2.8-0.3,6.3-3,8.7l-0.2-0.1
	c1.4-2.6,1.4-6,1.4-8.9v-5l2.1,0.8h4v-2.6l2.5,0.2c0,0.2-0.2,0.4-0.7,0.4v1.9h3.9l1-1.4l1.8,1.4c-0.1,0.2-0.3,0.3-0.8,0.3h-6
	l1.2,0.1c0,0.2-0.1,0.4-0.7,0.4v1.3h2.3l0.7-0.9l1.8,1.3c-0.1,0.1-0.3,0.2-0.6,0.3v1.4h0.2l0.7-1.1l1.3,1.2
	c-0.1,0.2-0.3,0.3-0.8,0.3C15.4,20.2,14.1,20.2,14.1,20.2z M8.1,25.5c-0.9,0.6-2.2,1.5-4,2.6c-0.1,0.2-0.2,0.4-0.4,0.4l-1.2-1.8
	c1-0.2,3.2-0.8,5.5-1.4L8.1,25.5z M3.4,19.8h4.7V18H4.6l-0.1-0.3h3.6v-1.8H3.4V19.8z M4.1,22.7c2.1,0.3,2.8,1.1,2.8,1.8
	c0,0.5-0.4,0.9-0.8,0.9c-0.2,0-0.4-0.1-0.7-0.3c-0.2-0.8-0.8-1.7-1.4-2.2L4.1,22.7L4.1,22.7z M12.3,18H9.9v1.8h2.4V18z M9.9,20.2V22
	h2.4v-1.8H9.9z M12.3,22.3H10c0.5,1,1.1,1.9,1.9,2.6c0.6-0.7,1.2-1.5,1.5-2.1C12.9,23,12.7,23,12.2,23L12.3,22.3L12.3,22.3z"/>
<path class="st1" d="M23.3,21v4.9c0.9-0.1,1.9-0.2,2.8-0.4v0.2C24.8,26.3,23,27,20.2,28c-0.1,0.2-0.3,0.4-0.5,0.4l-0.9-2.1
	c0.6,0,1.5-0.2,2.7-0.3v-5.1h-2.6l-0.1-0.3h2.6v-2.5h-1.6l-0.1-0.3c-0.3,0.3-0.6,0.6-1,0.8l-0.2-0.1c1.1-1.4,2.1-3.9,2.5-5.7
	l2.5,0.2c0,0.2-0.2,0.3-0.6,0.4c2.3,0.7,3,1.6,3,2.3c0,0.6-0.4,1-0.9,1c-0.2,0-0.5-0.1-0.7-0.3c-0.2-0.8-0.6-1.9-1.5-2.8
	c-0.7,1.3-1.8,2.9-3.1,4.1h3.2l0.9-1.1l1.6,1.2c-0.1,0.2-0.4,0.3-0.8,0.3H23v2.5h0.6l0.8-1.1l1.5,1.2c-0.1,0.2-0.3,0.3-0.8,0.3
	L23.3,21L23.3,21z M19.5,21.8c1.3,0.9,1.7,1.9,1.7,2.6s-0.4,1.2-0.9,1.2c-0.2,0-0.4-0.1-0.6-0.4c0-0.2,0.1-0.4,0.1-0.7
	c0-0.9-0.2-1.9-0.5-2.6L19.5,21.8L19.5,21.8z M26.4,22.3c-0.1,0.2-0.2,0.3-0.6,0.3c-0.5,1-1.2,2.1-1.8,2.8l-0.3-0.1
	c0.2-0.9,0.5-2.3,0.7-3.5L26.4,22.3z M33.1,21.3l1.8,1.3c-0.1,0.1-0.3,0.2-0.7,0.3v5.3c0,0.1-0.5,0.5-1.4,0.5h-0.3v-1.1h-3.3v0.9
	c0,0.1-0.5,0.5-1.3,0.5h-0.3v-5.7c-0.7,0.4-1.4,0.8-2.1,1.2l-0.1-0.2c1.6-1.1,3-2.5,4.1-4.1c-0.1,0-0.1,0-0.1,0
	c-0.2,0-0.4-0.1-0.7-0.3c-0.1-0.7-0.6-1.5-1.2-2c-0.6,0.6-1.2,1.1-1.8,1.5l-0.2-0.2c1.3-1.5,2.4-4.1,2.8-6.3l2.5,0.3
	c-0.1,0.2-0.2,0.3-0.6,0.3c-0.2,0.5-0.5,1-0.8,1.6h2.3l1-1l1.7,1.5c-0.1,0.2-0.3,0.2-0.7,0.3c-1,2.3-2.5,4.4-4.6,6.2l0.3,0.1h2.9
	L33.1,21.3L33.1,21.3z M29.3,15.5c-0.4,0.7-0.9,1.4-1.5,2c1.6,0.2,2.3,0.9,2.4,1.5c0.7-1.2,1.2-2.4,1.6-3.5H29.3L29.3,15.5z
	 M29.2,27.2h3.3v-4.7h-3.3V27.2z"/>
<path class="st1" d="M53.7,20.3c-0.1,0.2-0.3,0.3-0.8,0.3h-2.7v2.5h0.3l0.9-1.1l1.6,1.2c-0.1,0.2-0.3,0.3-0.8,0.3h-5.8v2.1h4.1
	l1-1.2l1.9,1.3C53.3,25.9,53,26,52.6,26h-6.1v2.6c0,0.1-0.5,0.5-1.5,0.5h-0.3v-3H38l-0.1-0.3h6.8v-2.1h-5.9l-0.1-0.3H41v-2.5h-3.3
	l-0.1-0.3H41v-2.4h-2l-0.1-0.3H50l0.9-1.1l1.7,1.1c-0.1,0.2-0.3,0.3-0.8,0.3h-1.5v2.1h0.8l0.9-1.2L53.7,20.3L53.7,20.3z M41.9,15.3
	h-4.2L37.6,15h4.3v-2l2.4,0.2c0,0.2-0.1,0.3-0.6,0.4V15h3.7v-2l2.5,0.2c0,0.2-0.2,0.3-0.7,0.4V15h1.7l0.9-1.3l1.8,1.4
	c-0.1,0.2-0.3,0.3-0.8,0.3h-3.6v1.3c0,0-0.2,0.5-1.8,0.5v-1.9h-3.7v1.3c0,0-0.2,0.5-1.8,0.5V15.3L41.9,15.3z M42.7,17.9v2.4h2v-2.4
	H42.7z M42.7,23.1h2v-2.5h-2V23.1z M48.5,17.9h-2v2.4h2V17.9z M48.5,23.1v-2.5h-2v2.5H48.5z"/>
<path class="st0" d="M6.4,47.5H5.8v-0.2H1v0.2H0.4v-6.3h6L6.4,47.5L6.4,47.5z M5.7,46.7v-5H0.9v5H5.7z M3.5,45.7
	c-0.6,0.2-1.4,0.3-2.2,0.5l-0.1-0.6c0.8-0.1,1.6-0.2,2.4-0.4L3.5,45.7L3.5,45.7z M3.5,42.5c0-0.2,0-0.4,0-0.7h0.6c0,0.2,0,0.5,0,0.7
	h0.7c-0.1-0.2-0.2-0.4-0.3-0.5L5,41.8c0.1,0.2,0.2,0.4,0.3,0.6L5,42.5h0.5V43H4.1c0,0.5,0.1,0.8,0.1,1.1c0,0.2,0.1,0.5,0.1,0.7
	c0.2-0.4,0.4-0.9,0.7-1.6l0.5,0.3c-0.3,0.9-0.6,1.5-0.9,1.9l0,0c0,0.1,0,0.1,0.1,0.1c0.1,0.2,0.2,0.3,0.3,0.3c0,0,0.1-0.3,0.2-0.8
	l0.5,0.4c-0.2,0.5-0.3,0.8-0.3,0.9c-0.1,0.1-0.2,0.2-0.3,0.2c-0.2,0-0.4-0.1-0.6-0.4c-0.1-0.1-0.1-0.2-0.2-0.3
	c-0.2,0.3-0.5,0.5-0.8,0.7L3.2,46c0.4-0.3,0.7-0.5,0.9-0.8C4,45,3.9,44.7,3.8,44.4c-0.1-0.4-0.2-0.9-0.2-1.5H1.2v-0.5L3.5,42.5
	L3.5,42.5z M3.1,43.4V45H1.4v-1.6H3.1z M2.6,43.9H1.9v0.7h0.7V43.9z"/>
<path class="st0" d="M9.9,41.3v0.5c-0.1,0.2-0.1,0.5-0.2,0.8c0.2-0.2,0.4-0.4,0.6-0.6c0.1-0.2,0.3-0.5,0.4-0.9h0.6
	c0,0.1-0.1,0.2-0.1,0.3h1c0.2,0.4,0.4,0.9,0.7,1.3c0.2-0.2,0.3-0.4,0.5-0.7h-0.9v-0.6H14v0.5c-0.2,0.5-0.5,0.9-0.8,1.2
	c0.3,0.3,0.6,0.6,0.9,0.9l-0.4,0.5c-0.3-0.2-0.5-0.4-0.8-0.7v0.5h-2.2v-0.2c-0.2,0.2-0.4,0.4-0.7,0.6l-0.4-0.5
	c0.3-0.2,0.5-0.4,0.8-0.5c-0.1-0.1-0.3-0.2-0.4-0.4l0.3-0.3c0.2,0.1,0.3,0.2,0.4,0.3c0.1-0.1,0.1-0.1,0.1-0.2l0.1-0.1
	c-0.2-0.1-0.3-0.2-0.5-0.3l0.3-0.4c0.2,0.1,0.3,0.2,0.5,0.3c0.1-0.2,0.2-0.4,0.2-0.6h-0.7c-0.1,0.1-0.1,0.2-0.2,0.2
	c-0.2,0.3-0.5,0.6-0.8,0.9l-0.3-0.4c-0.1,0.2-0.1,0.5-0.2,0.8c0.2,0.3,0.3,0.6,0.4,0.9c0.1,0.3,0.1,0.5,0.1,0.7
	c0,0.4-0.1,0.6-0.2,0.8c-0.1,0.2-0.4,0.3-0.9,0.3l-0.2-0.6c0.1,0,0.2,0,0.3,0s0.2,0,0.2-0.1C9,45.4,9,45.3,9,45.1s0-0.4-0.1-0.6
	c-0.1-0.2-0.2-0.5-0.4-0.9c0.2-0.7,0.4-1.2,0.5-1.7H8.3v5.7H7.7v-6.2L9.9,41.3L9.9,41.3z M11.1,45.8c-0.4,0.5-0.8,1-1.2,1.4
	l-0.6-0.4c0.5-0.3,0.9-0.7,1.3-1.2L11.1,45.8z M13.9,44.8v0.6h-1.6v1.5c0,0.2-0.1,0.4-0.2,0.5c-0.1,0.1-0.3,0.2-0.6,0.2H11L10.9,47
	c0.2,0,0.3,0.1,0.5,0.1s0.2-0.1,0.2-0.2v-1.4h-1.5v-0.6L13.9,44.8L13.9,44.8z M12.9,43.7c-0.1-0.1-0.2-0.2-0.3-0.3
	c-0.2-0.3-0.5-0.6-0.6-1c-0.1,0.3-0.3,0.6-0.5,0.8c-0.1,0.1-0.2,0.3-0.3,0.4L12.9,43.7L12.9,43.7z M14.2,46.8l-0.6,0.4
	c-0.2-0.4-0.6-0.8-1-1.3l0.5-0.3C13.5,46.1,13.9,46.5,14.2,46.8L14.2,46.8z"/>
<path class="st0" d="M18.8,41c0.4,0.5,0.9,0.9,1.3,1.1c0.3,0.2,0.9,0.5,1.7,0.8l-0.4,0.7c-0.3-0.1-0.6-0.2-0.9-0.4v0.3h-1.6v0.8h2.6
	v0.6h-2.6v1.8h0.7c0.2-0.5,0.4-1,0.6-1.5l0.7,0.2c-0.2,0.5-0.4,0.9-0.6,1.3h1.4v0.6h-6.2v-0.6h1.4c-0.1-0.4-0.3-0.8-0.5-1.2l0.6-0.2
	c0.2,0.4,0.4,0.9,0.6,1.5h0.6V45h-2.6v-0.7h2.6v-0.8h-1.6v-0.3c-0.3,0.2-0.6,0.3-1,0.5L15.2,43c0.8-0.3,1.4-0.6,1.8-0.9
	c0.3-0.3,0.7-0.6,1.1-1L18.8,41L18.8,41z M19.8,42.9c-0.5-0.3-0.9-0.7-1.4-1.2c-0.4,0.4-0.8,0.8-1.2,1.1c-0.1,0-0.1,0.1-0.2,0.1
	C17,42.9,19.8,42.9,19.8,42.9z"/>
<path class="st0" d="M25.6,45.3c0-0.2,0.1-0.4,0.1-0.6l0.6,0.1c0,0.2,0,0.4,0,0.6H27c-0.1-0.1-0.2-0.2-0.4-0.3l0.4-0.3
	c0.3,0.2,0.5,0.3,0.7,0.5l-0.1,0.1h1.5V46h-2.3c0.2,0.2,0.4,0.4,0.7,0.5c0.4,0.2,1,0.4,1.8,0.6l-0.4,0.6c-0.9-0.3-1.5-0.5-1.9-0.8
	c-0.4-0.2-0.6-0.5-0.8-0.9l0,0c0,0.1-0.1,0.1-0.1,0.1c-0.3,0.4-0.6,0.7-1.1,1c-0.4,0.2-0.9,0.4-1.7,0.6l-0.4-0.6
	c0.8-0.2,1.4-0.4,1.8-0.6c0.3-0.1,0.5-0.3,0.7-0.6H23v-0.6H25.6L25.6,45.3z M23.9,41.2V42h0.7v-1h0.6v4h-0.6v-1.6h-0.5
	c0,0.4-0.1,0.6-0.1,0.8c-0.1,0.3-0.2,0.6-0.5,0.8L23,44.6c0.2-0.2,0.3-0.4,0.4-0.5c0-0.2,0.1-0.4,0.1-0.7H23v-0.5h1.6v-0.4h-1.3
	v-1.3C23.3,41.2,23.9,41.2,23.9,41.2z M27.3,41.1c-0.1,0.1-0.1,0.2-0.2,0.2h1.8v0.4c-0.3,0.4-0.6,0.6-0.9,0.8c-0.3,0.2-1,0.5-2,0.7
	h1.9v-0.6h0.6v0.7h0.6v0.5h-0.6v0.6c0,0.2-0.1,0.3-0.2,0.4c-0.1,0.1-0.3,0.1-0.5,0.1h-0.5l-0.1-0.6c0.2,0,0.3,0.1,0.5,0.1
	s0.2,0,0.2-0.1v-0.5h-1.5c0.2,0.2,0.4,0.3,0.6,0.5l-0.4,0.4c-0.2-0.2-0.4-0.4-0.8-0.6l0.3-0.3h-0.8v-0.5h0.2l-0.2-0.5
	c0.2,0,0.5-0.1,0.7-0.1c-0.1-0.2-0.2-0.3-0.3-0.5c-0.1,0-0.1,0.1-0.2,0.1l-0.4-0.4c0.3-0.1,0.6-0.2,0.9-0.4c0.2-0.1,0.4-0.2,0.5-0.4
	L27.3,41.1L27.3,41.1z M26.7,42.6c0.1,0,0.3-0.1,0.4-0.1c-0.1-0.2-0.2-0.5-0.4-0.7l0,0c-0.1,0.1-0.2,0.1-0.3,0.2
	C26.5,42.2,26.6,42.4,26.7,42.6L26.7,42.6z M27.6,42.3c0.2-0.1,0.5-0.3,0.7-0.5h-1C27.4,42,27.5,42.1,27.6,42.3z"/>
<path class="st0" d="M36.8,41.3v0.6H32v1h4.2v2.6H32v1.2h4.9v0.6h-6.6v-0.6h0.9v-4.8h-0.8v-0.6H36.8L36.8,41.3z M35.4,44.9v-1.4
	h-3.5v1.4H35.4z"/>
<path class="st0" d="M38.9,43.2c-0.1,0.3-0.3,0.6-0.5,0.9l-0.5-0.4c0.2-0.2,0.4-0.5,0.4-0.7c0.1-0.3,0.1-0.5,0.1-0.7v-1.1h2.5v1.3
	H39C39,42.8,38.9,43,38.9,43.2L38.9,43.2z M43.7,44.8c-0.6,0.1-1.3,0.1-2.1,0.2v0.3h2.5v0.5h-2.5v0.4h2.8v0.5h-2.8v0.4
	c0,0.2-0.1,0.4-0.2,0.5s-0.3,0.1-0.6,0.1h-0.9l-0.1-0.6c0.3,0,0.6,0.1,0.8,0.1s0.2,0,0.2-0.1v-0.3h-2.9v-0.5h2.9v-0.4h-2.6v-0.6h2.6
	V45c-0.7,0-1.4,0-2.2,0l-0.1-0.5c1.9,0,3.5-0.1,4.8-0.2L43.7,44.8L43.7,44.8z M39,41.7v0.5h1.4v-0.5H39z M41,42.9v1.3h-2v-1.3H41z
	 M40.4,43.3h-0.9v0.4h0.9V43.3z M43.1,41.5h1.3V42h-0.5l-0.2,0.6h0.8V43h-1.4v0.3h1.3v0.4h-1.3v0.5h-0.6v-0.5h-1.3v-0.4h1.3v-0.4
	h-1.3v-0.4H42l-0.3-0.6h-0.5v-0.5h1.3c-0.1-0.1-0.1-0.3-0.2-0.4l0.6-0.1C43,41.1,43,41.3,43.1,41.5z M43,42.5l0.2-0.6h-1l0.3,0.6H43
	L43,42.5z"/>
<path class="st0" d="M0.3,55.9c0.2-0.4,0.5-0.7,1-1l0.8-0.4c0.3-0.2,0.6-0.4,0.7-0.5c0.2-0.2,0.3-0.5,0.3-0.8S3,52.6,2.8,52.4
	S2.3,52.1,2,52.1c-0.5,0-0.8,0.2-1,0.6c-0.1,0.2-0.2,0.5-0.2,0.9H0.1c0-0.5,0.1-0.9,0.3-1.2c0.3-0.6,0.9-0.8,1.6-0.8
	c0.7,0,1.1,0.2,1.4,0.5c0.3,0.4,0.5,0.8,0.5,1.2c0,0.5-0.2,0.9-0.5,1.2c-0.2,0.2-0.5,0.4-1,0.7l-0.5,0.3c-0.3,0.2-0.5,0.3-0.6,0.4
	c-0.3,0.2-0.4,0.5-0.5,0.8h3.1v0.6H0C0,56.8,0.1,56.3,0.3,55.9L0.3,55.9z"/>
<path class="st0" d="M8,52.3c0.2,0.5,0.4,1.1,0.4,2c0,0.8-0.1,1.5-0.3,2c-0.3,0.8-0.9,1.1-1.6,1.1c-0.7,0-1.2-0.3-1.5-0.9
	c-0.3-0.5-0.4-1.2-0.4-2.1c0-0.7,0.1-1.2,0.2-1.7c0.3-0.9,0.9-1.3,1.7-1.3C7.1,51.4,7.7,51.7,8,52.3L8,52.3z M7.3,56.2
	c0.2-0.3,0.3-1,0.3-1.9c0-0.7-0.1-1.2-0.2-1.7S6.9,52,6.5,52s-0.7,0.2-0.9,0.6c-0.2,0.4-0.3,1-0.3,1.8c0,0.6,0.1,1.1,0.2,1.4
	c0.2,0.6,0.5,0.8,1,0.8C6.8,56.7,7.1,56.6,7.3,56.2L7.3,56.2z"/>
<path class="st0" d="M9.3,55.9c0.2-0.4,0.5-0.7,1-1l0.8-0.4c0.3-0.2,0.6-0.4,0.7-0.5c0.2-0.2,0.3-0.5,0.3-0.8s-0.1-0.6-0.3-0.8
	s-0.5-0.3-0.8-0.3c-0.5,0-0.8,0.2-1,0.6c-0.1,0.2-0.2,0.5-0.2,0.9H9.1c0-0.5,0.1-0.9,0.3-1.2c0.3-0.6,0.9-0.8,1.6-0.8
	c0.7,0,1.1,0.2,1.4,0.5c0.3,0.4,0.4,0.8,0.4,1.2c0,0.5-0.2,0.9-0.5,1.2c-0.2,0.2-0.5,0.4-1,0.7l-0.5,0.3c-0.3,0.2-0.5,0.3-0.6,0.4
	c-0.3,0.2-0.4,0.5-0.5,0.8h3.1v0.6H8.9C9,56.8,9.1,56.3,9.3,55.9L9.3,55.9z"/>
<path class="st0" d="M13.8,56.8c-0.3-0.4-0.4-0.8-0.4-1.4h0.7c0,0.4,0.1,0.7,0.2,0.8c0.2,0.3,0.5,0.5,1,0.5c0.4,0,0.7-0.1,0.9-0.3
	s0.3-0.5,0.3-0.8c0-0.4-0.1-0.7-0.4-0.9c-0.2-0.2-0.6-0.2-1-0.2c-0.1,0-0.1,0-0.1,0c-0.1,0-0.1,0-0.1,0v-0.7c0.1,0,0.1,0,0.2,0
	c0.1,0,0.1,0,0.2,0c0.3,0,0.5,0,0.7-0.1c0.3-0.1,0.4-0.4,0.4-0.8c0-0.3-0.1-0.5-0.3-0.7S15.7,52,15.4,52c-0.5,0-0.8,0.2-1,0.5
	c-0.1,0.2-0.2,0.4-0.2,0.8h-0.7c0-0.4,0.1-0.8,0.2-1.1c0.3-0.5,0.8-0.8,1.5-0.8c0.6,0,1,0.1,1.3,0.4c0.3,0.3,0.5,0.7,0.5,1.2
	c0,0.4-0.1,0.7-0.3,0.9c-0.1,0.1-0.3,0.2-0.4,0.3c0.3,0.1,0.5,0.2,0.7,0.5c0.2,0.2,0.2,0.5,0.2,0.9c0,0.6-0.2,1-0.5,1.4
	c-0.4,0.3-0.9,0.5-1.5,0.5C14.6,57.4,14.1,57.2,13.8,56.8z"/>
<path class="st0" d="M21.1,51.7h1.3c0.2-0.3,0.4-0.5,0.6-0.8l0.7,0.2c-0.2,0.2-0.3,0.4-0.5,0.6h1.5v0.6h-2.6v0.4h2.3v0.6h-2.3v0.1
	c0,0.1,0,0.2,0,0.4H25v0.6h-3c0,0.2-0.1,0.4-0.1,0.6H25v0.6h-2.4c0.1,0.2,0.2,0.4,0.4,0.5s0.4,0.3,0.8,0.4c0.3,0.1,0.8,0.2,1.4,0.3
	l-0.4,0.6c-0.6-0.1-1.1-0.3-1.4-0.5c-0.4-0.2-0.7-0.4-0.9-0.6c-0.2-0.2-0.4-0.5-0.4-0.8h-0.2c-0.1,0.2-0.2,0.5-0.3,0.7
	c-0.5,0.6-1.3,1-2.6,1.2l-0.3-0.6c1.2-0.1,2-0.4,2.4-1c0.1-0.1,0.1-0.2,0.2-0.2h-2.5V55h2.7c0-0.2,0.1-0.4,0.1-0.6h-2.8v-0.6h2.8
	c0-0.1,0-0.2,0-0.4v-0.1h-2.3v-0.6h2.3v-0.4H19v-0.6h1.6c-0.1-0.2-0.3-0.4-0.5-0.6l0.7-0.2C20.8,51.1,21,51.3,21.1,51.7L21.1,51.7z"
	/>
<path class="st0" d="M32.4,57.3h-0.6v-0.2H27v0.2h-0.6V51h6L32.4,57.3L32.4,57.3z M31.8,56.6v-5H27v5H31.8z M29.6,55.6
	c-0.6,0.2-1.4,0.3-2.2,0.5l-0.1-0.6c0.8-0.1,1.6-0.2,2.4-0.4L29.6,55.6L29.6,55.6z M29.5,52.4c0-0.2,0-0.4,0-0.7h0.6
	c0,0.2,0,0.5,0,0.7h0.7c-0.1-0.2-0.2-0.4-0.3-0.5l0.5-0.2c0.1,0.2,0.2,0.4,0.3,0.6L31,52.4h0.5v0.5h-1.4c0,0.4,0.1,0.8,0.1,1.1
	c0,0.2,0.1,0.5,0.1,0.7c0.2-0.4,0.4-0.9,0.7-1.6l0.5,0.3c-0.3,0.9-0.6,1.5-0.9,1.9l0,0c0,0,0,0.1,0.1,0.1c0.1,0.2,0.2,0.3,0.3,0.3
	c0,0,0.1-0.3,0.2-0.8l0.5,0.4c-0.2,0.5-0.3,0.8-0.3,0.9c-0.1,0.1-0.2,0.2-0.3,0.2c-0.2,0-0.4-0.1-0.6-0.4c-0.1-0.1-0.1-0.2-0.2-0.3
	c-0.2,0.3-0.5,0.5-0.8,0.7L29.2,56c0.4-0.3,0.7-0.5,0.9-0.8c-0.1-0.2-0.2-0.5-0.3-0.8c-0.1-0.4-0.2-0.9-0.2-1.5h-2.4v-0.6L29.5,52.4
	L29.5,52.4z M29.1,53.3v1.6h-1.7v-1.6H29.1z M28.6,53.7h-0.7v0.7h0.7V53.7z"/>
<path class="st0" d="M37.3,51.4v-0.5h0.6v0.5h1.7v1H40v0.5h-0.4V54h-1.7v0.4h1.8v0.5h-1.8v0.5H40v0.5h-2.1v0.6c0.1,0,0.2,0,0.3,0
	c0.8,0,1.5,0,1.9-0.1L40,57.1c-2.2,0-3.6,0-4.1-0.2c-0.4-0.1-0.8-0.3-1.1-0.5c0,0-0.1,0-0.1-0.1c-0.2,0.3-0.5,0.6-0.9,0.9l-0.4-0.7
	c0.4-0.2,0.7-0.5,0.9-0.8c-0.2-0.4-0.4-0.8-0.7-1.5l0.6-0.2c0.2,0.4,0.3,0.7,0.5,1v-0.1c0.1-0.3,0.2-0.7,0.2-1.3h-1.2v-0.4
	c0.4-0.5,0.8-1.1,1.2-1.7h-1.3V51h2v0.6c-0.4,0.7-0.8,1.2-1.1,1.6h1.1c0,0.8-0.1,1.4-0.2,1.9c-0.1,0.2-0.1,0.4-0.2,0.6
	c0.2,0.2,0.4,0.3,0.7,0.4c0.3,0.1,0.7,0.1,1.4,0.2v-0.6h-1.7v-0.5h1.7v-0.5h-1.4v-0.5h1.4v-0.5H36v-0.5h1.3v-0.6h-1.7v-0.5h1.7v-0.5
	H36v-0.3L37.3,51.4L37.3,51.4z M38,52.4h1.1v-0.5H38V52.4z M38,53.5h1.1v-0.6H38V53.5z"/>
<path class="st0" d="M42.9,51c-0.1,0.1-0.1,0.3-0.2,0.4h1.8v0.5c0.3-0.3,0.6-0.7,0.7-1.1l0.6,0.1c-0.1,0.1-0.1,0.3-0.2,0.4h2.1v0.6
	h-1.2c0.1,0.2,0.1,0.4,0.2,0.5L46,52.5c-0.1-0.2-0.1-0.4-0.1-0.6h-0.7c-0.2,0.2-0.3,0.4-0.5,0.6l-0.6-0.4c0.1-0.1,0.2-0.2,0.3-0.2
	h-0.9c0.1,0.2,0.1,0.3,0.2,0.5L43,52.5c-0.1-0.2-0.1-0.4-0.2-0.6h-0.5c-0.2,0.2-0.4,0.5-0.6,0.6l-0.6-0.4c0.5-0.4,0.9-0.9,1.1-1.4
	L42.9,51L42.9,51z M44.2,55v-0.3l-0.3-0.2c0.3-0.1,0.6-0.2,0.8-0.4c-0.2-0.1-0.4-0.2-0.6-0.2l0.3-0.4c0.2,0.1,0.4,0.1,0.6,0.2
	c0-0.1,0-0.1,0-0.2v-0.2h-0.8v-0.5h2.6v1.4c0,0.1,0.1,0.2,0.2,0.2l0,0c0.1,0,0.1,0,0.1-0.1c0,0,0.1-0.2,0.1-0.6l0.5,0.2
	c0,0.5-0.1,0.8-0.2,0.9c-0.1,0.1-0.2,0.1-0.5,0.1h-0.3c-0.2,0-0.3,0-0.4-0.1c-0.1-0.1-0.1-0.2-0.1-0.4v-1.1h-0.7v0.2
	c0,0.2,0,0.3-0.1,0.4c0.2,0.1,0.4,0.2,0.6,0.3l-0.3,0.5c-0.2-0.1-0.4-0.2-0.6-0.4c-0.1,0.1-0.3,0.2-0.5,0.3h0.1V55h2.9v0.6h-2.2
	c0.3,0.2,0.5,0.4,0.7,0.4c0.3,0.2,0.8,0.4,1.5,0.5l-0.3,0.6c-0.8-0.3-1.4-0.5-1.7-0.8c-0.3-0.2-0.6-0.4-0.9-0.8v1.8h-0.5v-1.8l0,0
	c-0.2,0.3-0.5,0.5-0.7,0.7c-0.4,0.3-1.1,0.6-1.9,0.9l-0.4-0.6c0.8-0.2,1.4-0.5,1.8-0.7c0.2-0.1,0.3-0.2,0.5-0.3h-2.3v-0.6L44.2,55
	L44.2,55z M44,52.7v0.6h-0.9v0.6c0.3-0.1,0.6-0.1,0.9-0.2v0.6c-0.8,0.2-1.6,0.4-2.6,0.5l-0.1-0.6c0.4,0,0.8-0.1,1.2-0.1v-0.8h-1
	v-0.6H44L44,52.7z"/>
<path class="st0" d="M50.8,50.9c-0.1,0.2-0.2,0.4-0.2,0.6h0.9v2.2h-1.8v0.7h2v2.7h-0.6v-0.4h-1.3v0.6h-0.6v-5.7H50
	c0.1-0.2,0.2-0.5,0.2-0.7H50.8L50.8,50.9z M50.8,53.2v-1.1h-1.2v1.1H50.8z M51,56.2v-1.1h-1.3v1.1H51z M55.3,51.2v0.6h-1.5v0.8h1.3
	v3.7c0,0.2-0.1,0.3-0.1,0.5c-0.1,0.1-0.2,0.2-0.4,0.2h-0.4L54,56.3h0.4c0.1,0,0.1-0.1,0.1-0.2v-2.8h-0.6v4.2h-0.7v-4.2h-0.6V57H52
	v-4.3h1.3v-0.8h-1.5v-0.6L55.3,51.2L55.3,51.2z"/>
<path class="st0" d="M59,52.7c0-0.4,0.1-0.8,0.1-1.3v-0.5h0.7v0.5c0,0.5,0,0.9-0.1,1.3h2.9v0.7h-2.2c0.2,0.7,0.4,1.3,0.7,1.8
	c0.4,0.6,0.9,1.1,1.6,1.5l-0.4,0.7c-0.8-0.5-1.4-1.1-1.8-1.8c-0.4-0.6-0.6-1.3-0.8-2.1h-0.2c-0.1,0.5-0.2,0.9-0.4,1.3
	c-0.4,0.9-1.1,1.7-2.2,2.6l-0.6-0.5c1-0.7,1.7-1.5,2.2-2.3c0.2-0.3,0.3-0.7,0.4-1.1h-2.4v-0.7H59V52.7z"/>
<path class="st0" d="M66.8,55.2c0-0.2,0.1-0.4,0.1-0.6l0.6,0.1c0,0.2,0,0.4,0,0.6h0.7c-0.1-0.1-0.2-0.2-0.4-0.3l0.4-0.3
	c0.3,0.2,0.5,0.3,0.7,0.5l-0.1,0.1h1.5v0.6H68c0.2,0.2,0.4,0.4,0.7,0.5c0.4,0.2,1,0.4,1.8,0.6l-0.4,0.6c-0.9-0.3-1.5-0.5-1.9-0.8
	c-0.4-0.2-0.6-0.5-0.8-0.9l0,0c0,0.1-0.1,0.1-0.1,0.1c-0.3,0.4-0.6,0.7-1.1,1c-0.4,0.2-0.9,0.4-1.7,0.6L64,57
	c0.8-0.2,1.4-0.4,1.8-0.6c0.3-0.1,0.5-0.3,0.7-0.6h-2.3v-0.6L66.8,55.2L66.8,55.2z M65.1,51.1v0.8h0.7v-1h0.6v4h-0.6v-1.6h-0.5
	c0,0.4-0.1,0.6-0.1,0.8c-0.1,0.3-0.2,0.6-0.5,0.8l-0.5-0.4c0.2-0.2,0.3-0.4,0.4-0.5c0-0.1,0.1-0.4,0.1-0.6h-0.5v-0.5h1.6v-0.4h-1.3
	v-1.3L65.1,51.1L65.1,51.1z M68.5,50.9c-0.1,0.1-0.1,0.2-0.2,0.2h1.8v0.4c-0.3,0.4-0.5,0.6-0.9,0.8c-0.3,0.2-1,0.5-2,0.7h1.9v-0.6
	h0.6V53h0.6v0.5h-0.6v0.6c0,0.2-0.1,0.4-0.2,0.4c-0.1,0.1-0.3,0.1-0.5,0.1h-0.5L68.4,54c0.2,0,0.3,0.1,0.5,0.1s0.2,0,0.2-0.1v-0.5
	h-1.5c0.2,0.2,0.4,0.3,0.6,0.5l-0.4,0.4c-0.2-0.2-0.4-0.4-0.8-0.6l0.3-0.3h-0.8V53h0.2l-0.2-0.5c0.2,0,0.5-0.1,0.7-0.1
	c-0.1-0.2-0.2-0.3-0.3-0.5c-0.1,0-0.1,0.1-0.2,0.1l-0.4-0.4c0.3-0.1,0.6-0.2,0.9-0.4c0.2-0.1,0.4-0.2,0.5-0.4L68.5,50.9L68.5,50.9z
	 M67.9,52.4c0.1,0,0.3-0.1,0.4-0.1c-0.1-0.2-0.2-0.5-0.4-0.7l0,0c-0.1,0.1-0.2,0.1-0.3,0.2C67.7,52,67.8,52.2,67.9,52.4L67.9,52.4z
	 M68.7,52.1c0.2-0.1,0.5-0.3,0.7-0.5h-1C68.6,51.8,68.6,52,68.7,52.1z"/>
<path class="st0" d="M73.2,51.7h1v0.6h-2.7v-0.6h1.1c-0.1-0.3-0.2-0.5-0.3-0.7l0.7-0.1C73.1,51.1,73.1,51.4,73.2,51.7z M74,56.9
	h-1.6v0.5h-0.6v-2.6H74L74,56.9L74,56.9z M74,52.7v0.6h-2.2v-0.6H74z M74,53.8v0.5h-2.2v-0.6L74,53.8L74,53.8z M73.3,56.3v-0.9h-0.9
	v0.9H73.3z M77.2,52.7c0,0.2,0.1,0.3,0.2,0.3H78v0.6h-0.7c-0.3,0-0.5-0.1-0.6-0.2c-0.1-0.1-0.2-0.3-0.2-0.6v-1.2h-1.1
	c0,0.5-0.1,0.8-0.1,1c-0.1,0.3-0.3,0.6-0.7,1l-0.5-0.4c0.3-0.3,0.5-0.6,0.6-0.8s0.1-0.6,0.1-1.4h2.5L77.2,52.7L77.2,52.7z
	 M77.5,53.8v0.5c-0.2,0.7-0.5,1.3-0.9,1.9c0.4,0.3,0.9,0.5,1.5,0.7l-0.4,0.6c-0.7-0.2-1.2-0.5-1.6-0.8c-0.4,0.3-0.9,0.6-1.6,0.8
	l-0.4-0.6c0.6-0.2,1.1-0.4,1.5-0.7c-0.4-0.4-0.8-0.8-1-1.4l0.6-0.3c0.3,0.5,0.6,0.9,1,1.3c0.3-0.4,0.5-0.8,0.7-1.4h-2.4v-0.6H77.5z"
	/>
<path class="st0" d="M81,51.7h1.2v0.6h-3.1v-0.6h1.2c-0.1-0.3-0.3-0.5-0.4-0.7l0.7-0.1C80.7,51.1,80.9,51.4,81,51.7L81,51.7z
	 M81.9,52.8v0.5h-2.6v-0.6L81.9,52.8L81.9,52.8z M81.9,53.8v0.5h-2.6v-0.6L81.9,53.8L81.9,53.8z M80,57.4h-0.6v-2.6h2.5v2.5h-0.7
	v-0.4H80V57.4L80,57.4z M81.2,55.4H80v0.9h1.2V55.4z M83.7,52.9v-2h0.7v2h1.4v0.6h-1.4v3.9h-0.7v-3.9h-1.4v-0.6H83.7z"/>
<path class="st0" d="M88.4,51.1c-0.1,0.5-0.2,0.9-0.4,1.2v5.1h-0.6v-3.8c-0.1,0.3-0.3,0.5-0.5,0.8l-0.2-0.8c0.2-0.4,0.4-0.8,0.6-1.2
	c0.2-0.4,0.3-0.9,0.5-1.6L88.4,51.1L88.4,51.1z M93,51v0.5h-2c0,0.1-0.1,0.2-0.1,0.3h1.7v1.8h0.5v1h-0.5c0.2,0.2,0.3,0.4,0.4,0.6
	l-0.5,0.3c-0.2-0.3-0.4-0.7-0.7-1.1l0.4-0.2c0.1,0.1,0.2,0.2,0.2,0.3v-0.4h-1.7c0.1,0.1,0.3,0.1,0.4,0.2l-0.3,0.5
	c-0.2-0.2-0.5-0.3-0.7-0.4l0.2-0.2h-1.6v0.6h-0.5v-1h0.6V52h1.4c0.1-0.1,0.1-0.2,0.1-0.3h-1.9v-0.5L93,51L93,51z M90.2,54.2v0.5
	c0,0.1,0.1,0.1,0.2,0.1h0.8h0.1c0,0,0-0.2,0.1-0.5l0.5,0.1c0,0.4-0.1,0.6-0.2,0.7c-0.1,0.1-0.2,0.1-0.4,0.1h-0.8
	c-0.1,0.1-0.2,0.2-0.2,0.2h2.1v0.4c-0.3,0.3-0.6,0.5-0.9,0.7c0.4,0.1,1,0.2,1.7,0.2l-0.1,0.6c-0.9-0.1-1.5-0.2-2-0.4
	c-0.1,0-0.2-0.1-0.3-0.1c-0.6,0.2-1.3,0.4-2.3,0.5l-0.2-0.6c0.7-0.1,1.3-0.1,1.8-0.3c-0.2-0.1-0.4-0.3-0.6-0.5
	c-0.2,0.1-0.5,0.2-0.8,0.3l-0.4-0.5c0.5-0.1,0.9-0.3,1.2-0.4c0.2-0.1,0.3-0.2,0.5-0.3h-0.1c-0.1-0.1-0.1-0.2-0.1-0.3v-0.6L90.2,54.2
	L90.2,54.2z M89.6,54.4c-0.2,0.4-0.4,0.8-0.7,1.1l-0.5-0.3c0.2-0.3,0.5-0.6,0.7-1L89.6,54.4L89.6,54.4z M92,52.4v-0.2h-2.5v0.2H92z
	 M92,53v-0.2h-2.5V53H92z M92,53.6v-0.2h-2.5v0.2H92z M90.8,56.3c0.3-0.1,0.5-0.2,0.7-0.4h-1.4C90.3,56.1,90.6,56.2,90.8,56.3z"/>
<path class="st0" d="M97.8,55.9c-0.3,0.3-0.7,0.5-1.1,0.7c0.1,0,0.2,0,0.3,0.1c0.3,0.1,1.1,0.1,2.1,0.1c0.8,0,1.3,0,1.7-0.1
	l-0.1,0.6c-2,0-3.2,0-3.6-0.1c-0.4-0.1-0.7-0.1-1-0.2c-0.2-0.1-0.5-0.3-0.8-0.6c-0.2,0.3-0.4,0.7-0.7,1.1L94.2,57
	c0.3-0.4,0.5-0.7,0.7-1c0.1-0.2,0.2-0.6,0.4-1.1h-0.9v-0.6c0.2-0.3,0.5-0.7,0.8-1.2h-0.9v-0.6h1.6V53c-0.2,0.4-0.5,0.8-0.8,1.2h0.8
	v0.4c-0.1,0.5-0.2,0.9-0.3,1.2c0.3,0.3,0.6,0.5,0.8,0.6c0.1,0,0.1,0.1,0.2,0.1L96.3,56c0.5-0.2,0.9-0.4,1.2-0.6L97.8,55.9L97.8,55.9
	z M95.8,51.9l-0.4,0.4c-0.2-0.3-0.4-0.7-0.8-1l0.4-0.4C95.3,51.3,95.6,51.6,95.8,51.9z M97.1,54v-0.3h0.6V54h1.1v-0.3h0.6V54h1.1
	v0.5h-1.1V55h1.2v0.5H96V55h1v-0.5h-0.8V54H97.1L97.1,54z M98.1,52.5h-1.4v0.4c0,0.1,0.1,0.2,0.2,0.2h0.5c0.1,0,0.2,0,0.2,0
	s0.1-0.1,0.1-0.4l0.5,0.2c-0.1,0.4-0.1,0.6-0.2,0.6c-0.1,0.1-0.3,0.1-0.5,0.1h-0.8c-0.2,0-0.3,0-0.4-0.1c-0.1-0.1-0.1-0.2-0.1-0.4
	v-1.9h1.9V52.5z M96.7,52h0.8v-0.5h-0.8V52z M98.9,55v-0.5h-1.1V55H98.9z M100.4,52.4H99v0.4c0,0.1,0.1,0.2,0.2,0.2h0.5
	c0.1,0,0.2,0,0.2,0c0.1,0,0.1-0.2,0.1-0.4l0.6,0.2c-0.1,0.4-0.1,0.6-0.3,0.6c-0.1,0.1-0.3,0.1-0.5,0.1H99c-0.2,0-0.3,0-0.4-0.1
	c-0.1-0.1-0.2-0.2-0.2-0.3v-1.9h2L100.4,52.4L100.4,52.4z M100.4,56l-0.4,0.6c-0.4-0.3-0.9-0.5-1.3-0.6l0.3-0.5
	C99.6,55.7,100,55.8,100.4,56L100.4,56z M99.1,52h0.8v-0.5h-0.8V52z"/>
<path class="st0" d="M3,60.9c-0.5,0.9-0.9,1.6-1.4,2.1c0.1,0,0.3,0,0.4,0c1.1,0,2.1-0.1,3.2-0.3c-0.3-0.4-0.6-0.7-0.9-1.1l0.5-0.5
	c0.7,0.8,1.2,1.5,1.7,2.2L6,63.8c-0.1-0.2-0.2-0.4-0.4-0.6c-1.4,0.2-3.2,0.3-5.2,0.3l-0.1-0.8c0.2,0,0.5,0,0.7,0.1
	c0.5-0.6,0.9-1.3,1.4-2.3L3,60.9L3,60.9z M5.9,67.3H5.2v-0.4H1.4v0.4H0.7v-3h5.2V67.3z M5.2,66.2v-1.4H1.4v1.4H5.2z"/>
<path class="st0" d="M10.4,60.8v5c0.2-0.1,0.4-0.2,0.6-0.2v0.7c-0.9,0.3-2,0.7-3.2,1l-0.2-0.8C8.3,66.4,9,66.2,9.7,66v-2.3h-2V63h2
	v-2.2C9.7,60.8,10.4,60.8,10.4,60.8z M12,60.8v2.4c0.7-0.3,1.2-0.6,1.7-1l0.4,0.6c-0.6,0.4-1.3,0.8-2.1,1.1V66c0,0.1,0,0.2,0.1,0.3
	c0.1,0.1,0.1,0.1,0.2,0.1h0.8c0.1,0,0.2,0,0.2-0.1c0.1-0.1,0.1-0.5,0.2-1.3l0.7,0.2c-0.1,0.9-0.2,1.4-0.3,1.6s-0.4,0.3-0.6,0.3h-1.1
	c-0.3,0-0.4-0.1-0.6-0.2c-0.2-0.2-0.3-0.4-0.3-0.7v-5.4H12L12,60.8z"/>
<path class="st0" d="M16.6,61.5h0.9v0.6h-2.4v-0.6H16c0-0.2-0.1-0.5-0.1-0.7l0.7-0.1C16.6,60.9,16.6,61.2,16.6,61.5z M17.3,62.5v0.6
	h-1.9v-0.6H17.3z M17.3,63.5v0.6h-1.9v-0.6H17.3z M17.3,66.6H16v0.5h-0.6v-2.5h1.9L17.3,66.6L17.3,66.6z M16.6,66v-0.9H16V66H16.6z
	 M21.7,62.3h-1.3c0,0.8,0.1,1.5,0.1,2c0.2-0.4,0.3-0.9,0.5-1.5l0.5,0.3c-0.3,0.9-0.6,1.7-0.9,2.3c0.1,0.8,0.3,1.1,0.4,1.1
	c0.1,0,0.2-0.3,0.3-1.1l0.5,0.5c-0.2,0.8-0.4,1.3-0.8,1.3c-0.2,0-0.4-0.1-0.6-0.4c-0.1-0.1-0.2-0.4-0.3-0.7c-0.3,0.4-0.6,0.7-1,1
	l-0.3-0.5c0.5-0.4,0.8-0.8,1.2-1.3l0,0c-0.1-0.6-0.2-1.6-0.2-2.9h-1.5v0.7h1.3c0,1.5-0.1,2.3-0.2,2.4c0,0.2-0.1,0.3-0.2,0.4
	C19.1,66,19,66,18.8,66.1c-0.2,0-0.4,0-0.5,0l-0.1-0.4c-0.1,0.5-0.2,1.1-0.4,1.6l-0.5-0.5c0.2-0.5,0.3-1,0.3-1.5s0.1-1,0.1-1.5v-2
	h2.1c0-0.3,0-0.7,0-1h0.6c0,0.4,0,0.7,0,1h0.7c-0.1-0.2-0.3-0.4-0.5-0.7l0.5-0.3c0.2,0.3,0.4,0.5,0.6,0.6l-0.5,0.3h0.5L21.7,62.3
	L21.7,62.3z M18.7,65.4c0.1,0,0.1,0,0.1-0.1s0.1-0.6,0.1-1.6h-0.6v0.1c0,0.5,0,1.1-0.1,1.6C18.5,65.4,18.6,65.4,18.7,65.4L18.7,65.4
	z"/>
<path class="st0" d="M25.6,67.3H25v-0.5h-1.4v0.5H23V64h2.6V67.3z M25,66.2v-1.7h-1.4v1.7H25z M28.4,61v2.4h-4.6V61
	C23.8,61,28.4,61,28.4,61z M27.7,61.6h-3.3v1.2h3.3V61.6z M29.1,67.3h-0.6v-0.5H27v0.5h-0.6V64h2.7L29.1,67.3L29.1,67.3z M28.4,66.2
	v-1.7h-1.5v1.7H28.4z"/>
<path class="st0" d="M31.5,62.1v-1.4h0.6v1.4H33v0.6h-0.9V63c0.4,0.4,0.8,0.8,1.1,1.2l-0.4,0.6c-0.3-0.4-0.6-0.8-0.8-1.1v3.6h-0.6
	v-3.5v0.1c-0.2,0.6-0.5,1.2-0.8,1.6l-0.3-0.8c0.4-0.6,0.8-1.3,1.1-2.1h-1V62h1.1V62.1z M34.4,61.2c-0.2,0.7-0.4,1.2-0.5,1.5
	s-0.4,0.7-0.7,1.2l-0.5-0.5c0.3-0.4,0.5-0.7,0.7-1.1c0.2-0.4,0.3-0.8,0.4-1.3L34.4,61.2L34.4,61.2z M35,63.2c-0.3,1.1-0.7,2.1-1.2,3
	c0.7-0.1,1.2-0.2,1.8-0.3c-0.2-0.4-0.3-0.8-0.5-1.2l0.6-0.2c0.4,0.7,0.7,1.5,1,2.4l-0.6,0.2c-0.1-0.2-0.1-0.5-0.2-0.7
	c-0.7,0.2-1.7,0.3-3.1,0.5l-0.1-0.7c0.2,0,0.3,0,0.5,0c0.5-1,0.9-2,1.2-3.2L35,63.2L35,63.2z M35.8,61c0.2,0.8,0.5,1.6,1.1,2.3
	l-0.4,0.6c-0.3-0.3-0.5-0.7-0.7-1c-0.2-0.4-0.4-0.8-0.5-1.3h-0.8V61H35.8L35.8,61z"/>
<path class="st0" d="M39.6,61.2v-0.5h0.7v0.5H41v0.6h-0.7v0.5h-0.7v-0.5h-1.7v-0.6H39.6z M40.1,62.7l-0.4,0.4h1.5v0.6h-1.9v0.6h1.6
	c0,1.3,0,2.1-0.1,2.4c0,0.2-0.1,0.3-0.2,0.4c-0.1,0.1-0.3,0.1-0.7,0.1c-0.1,0-0.3,0-0.5,0l-0.1-0.6c0.2,0,0.4,0.1,0.6,0.1
	c0.2,0,0.3-0.1,0.3-0.2c0-0.2,0-0.7,0.1-1.5h-1c0,0.4-0.1,0.8-0.2,1c-0.1,0.4-0.4,0.9-0.7,1.4l-0.5-0.5c0.3-0.3,0.5-0.7,0.6-1.1
	c0.1-0.3,0.2-0.8,0.2-1.5v-0.6H38v-0.6h1.5c-0.2-0.1-0.5-0.3-0.8-0.5l0.4-0.4C39.5,62.3,39.8,62.5,40.1,62.7L40.1,62.7z M42.9,62.5
	c0.2,0.4,0.5,0.7,0.7,0.9s0.5,0.4,0.9,0.7l-0.4,0.6c-0.2-0.1-0.4-0.2-0.6-0.4c-0.3-0.2-0.6-0.6-0.9-1c-0.2,0.3-0.4,0.6-0.6,0.8
	c-0.2,0.2-0.5,0.4-0.8,0.7l-0.3-0.6c0.4-0.2,0.7-0.5,0.9-0.7c0.2-0.2,0.4-0.5,0.6-0.8L42.9,62.5L42.9,62.5z M42.2,61.2v-0.5h0.7v0.5
	h1.6v0.6h-1.6v0.5h-0.7v-0.5h-0.8v-0.6H42.2z M44,66.7l-0.4,0.6c-0.7-0.5-1.4-0.9-2.2-1.2l0.3-0.5C42.6,65.9,43.4,66.3,44,66.7
	L44,66.7z M43.8,65.1l-0.4,0.6c-0.5-0.4-1-0.7-1.5-0.9l0.3-0.5C42.8,64.5,43.3,64.8,43.8,65.1L43.8,65.1z"/>
<path class="st0" d="M45.8,61.1h1.1l1.7,5.1l1.7-5.1h1.1v6h-0.8v-3.6c0-0.1,0-0.3,0-0.6s0-0.6,0-0.9l-1.7,5.1h-0.7L46.5,62v0.2
	c0,0.1,0,0.4,0,0.7s0,0.5,0,0.7v3.6h-0.8L45.8,61.1L45.8,61.1z"/>
<path class="st0" d="M52.1,61.1h4.2v0.7h-3.4v1.8h3.2v0.7h-3.2v2h3.5V67h-4.3V61.1z"/>
<path class="st0" d="M57.5,63c-0.1-0.2-0.1-0.4-0.1-0.6c0-0.4,0.1-0.7,0.4-1c0.2-0.3,0.6-0.4,1-0.4s0.7,0.1,0.9,0.4
	c0.2,0.2,0.3,0.5,0.3,0.8c0,0.4-0.1,0.7-0.3,1c-0.1,0.2-0.4,0.4-0.7,0.6l1.1,1.3c0.1-0.2,0.1-0.4,0.1-0.5s0.1-0.3,0.1-0.5H61
	c0,0.4-0.1,0.8-0.3,1.1c-0.1,0.4-0.2,0.5-0.2,0.4l1,1.3h-0.9l-0.5-0.7c-0.2,0.2-0.4,0.4-0.6,0.5c-0.3,0.2-0.7,0.3-1.1,0.3
	c-0.6,0-1-0.2-1.3-0.5s-0.4-0.7-0.4-1.1c0-0.5,0.1-0.8,0.4-1.1c0.2-0.2,0.5-0.4,0.9-0.7C57.8,63.5,57.6,63.2,57.5,63z M59.2,66.4
	c0.2-0.1,0.4-0.3,0.5-0.5l-1.3-1.7c-0.4,0.3-0.6,0.4-0.7,0.6c-0.2,0.2-0.3,0.5-0.3,0.8s0.1,0.6,0.3,0.7c0.2,0.2,0.5,0.3,0.7,0.3
	C58.8,66.6,59,66.5,59.2,66.4L59.2,66.4z M59.2,63c0.2-0.2,0.2-0.4,0.2-0.6c0-0.2-0.1-0.3-0.2-0.5s-0.3-0.2-0.4-0.2
	c-0.3,0-0.5,0.1-0.6,0.3c-0.1,0.1-0.1,0.2-0.1,0.3c0,0.2,0,0.3,0.1,0.5s0.2,0.3,0.4,0.6C58.9,63.2,59.1,63.1,59.2,63L59.2,63z"/>
<path class="st0" d="M62.1,61.1l1.1,4.9l1.3-4.9h0.8l1.3,4.9l1.1-4.9h0.9l-1.5,6h-0.8l-1.3-5l-1.3,5h-0.8l-1.5-6L62.1,61.1
	L62.1,61.1z"/>
<path class="st0" d="M68.9,61.1h4.2v0.7h-3.4v1.8h3.2v0.7h-3.2v2h3.5V67h-4.3V61.1z"/>
<path class="st0" d="M81,64.4V65h-2.4c0.2,0.3,0.3,0.5,0.5,0.7c0.3-0.2,0.6-0.4,0.9-0.7l0.4,0.4c-0.3,0.3-0.6,0.5-0.9,0.6
	c0.3,0.3,0.8,0.5,1.4,0.6l-0.3,0.6c-0.7-0.2-1.3-0.5-1.8-0.9c-0.4-0.3-0.7-0.8-1-1.4h-0.7v1.4c0.4-0.1,0.8-0.2,1.3-0.3v0.6
	c-0.8,0.2-1.6,0.4-2.6,0.5l-0.1-0.6c0.3,0,0.5,0,0.8-0.1v-1.6h-1v0.1c-0.1,0.7-0.4,1.4-0.6,2.1l-0.6-0.5c0.3-0.6,0.5-1.2,0.6-1.8
	c0.1-0.6,0.1-1.2,0.1-1.8v-2.2h5.7v1.8h-1.1v0.6h1.1v0.6h-1.1v0.6L81,64.4L81,64.4z M75.7,63.1c0,0.4,0,0.9-0.1,1.3h1.2v-0.6h-1
	v-0.6h1v-0.6h-1.2v0.5H75.7z M75.7,61.4V62h4.4v-0.6H75.7z M79,62.6h-1.5v0.6H79V62.6z M79,64.4v-0.6h-1.5v0.6H79z"/>
<path class="st0" d="M88.5,62.6v0.7h-2.9v3.1c0,0.3-0.1,0.4-0.2,0.5c-0.1,0.1-0.3,0.2-0.6,0.2h-0.9l-0.1-0.7c0.4,0,0.6,0.1,0.9,0.1
	c0.2,0,0.3,0,0.3-0.2v-3h-3v-0.7H88.5L88.5,62.6z M84,64.1c-0.2,0.7-0.4,1.2-0.6,1.5c-0.2,0.3-0.4,0.7-0.8,1.2L82,66.3
	c0.4-0.4,0.6-0.8,0.9-1.1c0.2-0.4,0.4-0.8,0.5-1.4L84,64.1L84,64.1z M87.7,61v0.6h-4.8V61H87.7z M88.4,66.4l-0.7,0.3
	c-0.4-1-0.8-1.9-1.3-2.7l0.7-0.2C87.6,64.6,88,65.4,88.4,66.4L88.4,66.4z"/>
<path class="st0" d="M91.5,60.7c0.3,0.4,0.6,0.7,0.9,1.1L92,62.2c-0.3-0.4-0.5-0.7-0.7-0.9c-0.5,0.5-1,1-1.6,1.5l-0.2-0.6
	c0.6-0.4,1.1-0.9,1.6-1.4L91.5,60.7L91.5,60.7z M91.6,62.6h0.7v2.6h-1.7v1.1c0.4-0.1,0.7-0.1,1.1-0.2c-0.1-0.2-0.2-0.4-0.4-0.6
	l0.6-0.2c0.3,0.5,0.6,0.9,0.8,1.5L92.1,67c-0.1-0.1-0.1-0.3-0.2-0.4c-0.6,0.2-1.4,0.3-2.2,0.5l-0.1-0.6c0.1,0,0.3,0,0.4-0.1v-3.8
	h1.1C91,62.4,91,62.2,90.9,62l0.6-0.1C91.5,62.1,91.6,62.3,91.6,62.6L91.6,62.6z M91.7,63.6v-0.5h-1.1v0.5H91.7z M91.7,64.7v-0.6
	h-1.1v0.6H91.7z M94.6,61.3H96v1.4h-0.4v1.6h-2.2v0.5h2.5v2.5h-0.6v-0.4h-1.9v0.4h-0.6v-4.5h-0.2v-1.5H94c-0.1-0.2-0.2-0.4-0.3-0.6
	l0.6-0.1C94.4,60.9,94.5,61.1,94.6,61.3L94.6,61.3z M95.4,62.5V62h-2.3v0.5H95.4z M95,63.7V63h-1.6v0.7H95z M95.3,66.3v-0.8h-1.9
	v0.8H95.3z"/>
</svg>
