<?xml version="1.0" encoding="utf-8"?>
<!-- Generator: Adobe Illustrator 27.0.0, SVG Export Plug-In . SVG Version: 6.00 Build 0)  -->
<svg version="1.1" id="圖層_1" xmlns="http://www.w3.org/2000/svg" xmlns:xlink="http://www.w3.org/1999/xlink" x="0px" y="0px"
	 viewBox="0 0 400 13" style="enable-background:new 0 0 400 13;" xml:space="preserve">
<style type="text/css">
	.st0{opacity:0.6;}
	.st1{fill:#FFFFFF;}
</style>
<g class="st0">
	<path class="st1" d="M63.4,3.3c0,0.4-0.2,0.7-0.5,0.9c-0.3,0.2-0.7,0.2-1.2,0.2c-0.1,0-0.3,0-0.8,0V0.3h0.7c0.4,0,0.7,0.1,1,0.2
		c0.3,0.2,0.5,0.4,0.5,0.7c0,0.2-0.1,0.4-0.2,0.6c-0.2,0.2-0.3,0.3-0.5,0.4c0.3,0.1,0.5,0.2,0.7,0.3C63.3,2.8,63.4,3,63.4,3.3z
		 M63,3.3c0-0.3-0.1-0.6-0.3-0.8c-0.2-0.1-0.4-0.2-0.7-0.2h-0.2V2.2H62c0.3,0,0.5-0.1,0.6-0.3c0.1-0.2,0.2-0.4,0.2-0.6
		c0-0.6-0.4-0.9-1.1-0.9h-0.2v3.9h0.2C62.5,4.3,63,4,63,3.3z"/>
	<path class="st1" d="M66.6,2.8H65V2.7h1.2c0-0.5-0.2-0.8-0.6-0.8c-0.3,0-0.5,0.1-0.6,0.3c-0.2,0.2-0.2,0.5-0.2,0.9S64.9,3.8,65,4
		c0.2,0.2,0.4,0.3,0.7,0.3c0.3,0,0.6-0.1,0.8-0.4l0.1,0.2c-0.2,0.2-0.5,0.4-0.9,0.4c-0.4,0-0.7-0.1-0.9-0.4
		c-0.3-0.3-0.4-0.6-0.4-0.9c0-0.4,0.1-0.7,0.4-0.9C65,2,65.3,1.9,65.7,1.9c0.3,0,0.5,0.1,0.7,0.3C66.5,2.3,66.6,2.5,66.6,2.8z"/>
	<path class="st1" d="M69.4,2.8v1.7H69V4.3c-0.1,0.2-0.4,0.2-0.6,0.2c-0.3,0-0.5-0.1-0.6-0.2c-0.2-0.1-0.3-0.4-0.3-0.6
		c0-0.3,0.1-0.5,0.3-0.6C68,3,68.2,2.9,68.4,2.9c0.1,0,0.1,0,0.2,0S68.8,3,68.9,3l-0.1,0.1C68.7,3,68.5,3,68.4,3
		c-0.2,0-0.3,0.1-0.4,0.2c-0.1,0.1-0.1,0.3-0.1,0.5s0.1,0.4,0.2,0.5s0.2,0.2,0.4,0.2c0.3,0,0.5-0.1,0.6-0.4V2.8
		c0-0.6-0.2-0.8-0.6-0.8c-0.2,0-0.4,0.1-0.6,0.2l-0.1-0.1C68,2,68.2,1.9,68.5,1.9C69,1.8,69.4,2.1,69.4,2.8z"/>
	<path class="st1" d="M72.5,4.4h-0.4V4c-0.2,0.3-0.5,0.5-0.8,0.5c-0.6,0-0.9-0.3-0.9-0.9V1.9h0.4v1.7c0,0.5,0.2,0.8,0.6,0.8
		c0.2,0,0.4-0.1,0.6-0.4c0.1-0.1,0.1-0.3,0.2-0.5V1.8h0.4L72.5,4.4C72.6,4.4,72.5,4.4,72.5,4.4z"/>
	<path class="st1" d="M74.6,2h-0.5v1.6c0,0.3,0,0.4,0.1,0.6c0.1,0.1,0.2,0.2,0.4,0.2v0.1c-0.6,0-0.9-0.3-0.9-0.8V2h-0.2V1.9h0.2V1.6
		h0.4v0.3L74.6,2L74.6,2z"/>
	<path class="st1" d="M77.8,1.8l-1.4,3.6h-0.1l0.4-1.1l-1.1-2.6H76l0.9,2.1L77.8,1.8L77.8,1.8L77.8,1.8z"/>
	<path class="st1" d="M80.3,4.4h-0.4v-4h0.4V4.4z"/>
	<path class="st1" d="M81.8,0.7c0,0.1,0,0.1-0.1,0.2C81.6,1,81.6,1,81.5,1s-0.1,0-0.2-0.1c-0.1,0-0.1-0.1-0.1-0.2s0-0.1,0.1-0.2
		c0,0,0.1-0.1,0.2-0.1s0.1,0,0.2,0.1C81.8,0.6,81.8,0.6,81.8,0.7z M81.7,4.4h-0.4V1.8h0.4V4.4z"/>
	<path class="st1" d="M85,2.8h-1.6V2.7h1.2c0-0.5-0.2-0.8-0.6-0.8c-0.3,0-0.5,0.1-0.6,0.3c-0.2,0.2-0.2,0.5-0.2,0.9s0.1,0.7,0.2,0.9
		c0.2,0.2,0.4,0.3,0.7,0.3c0.3,0,0.6-0.1,0.8-0.4L85,4.1c-0.2,0.2-0.5,0.4-0.9,0.4s-0.7-0.1-0.9-0.4c-0.3-0.3-0.4-0.6-0.4-0.9
		c0-0.4,0.1-0.7,0.4-0.9c0.2-0.3,0.5-0.4,0.9-0.4c0.3,0,0.5,0.1,0.7,0.3C84.9,2.3,85,2.5,85,2.8z"/>
	<path class="st1" d="M87.4,3.8c0,0.2-0.1,0.4-0.2,0.5c-0.1,0.1-0.3,0.2-0.5,0.2c-0.3,0-0.5-0.1-0.7-0.3L86.1,4
		c0.2,0.2,0.4,0.3,0.6,0.3c0.1,0,0.3,0,0.3-0.1c0.1-0.1,0.1-0.2,0.1-0.4c0-0.2-0.1-0.3-0.2-0.4c-0.1-0.1-0.3-0.2-0.5-0.3
		C86.1,2.9,86,2.7,86,2.4c0-0.2,0.1-0.3,0.2-0.5c0.1-0.1,0.3-0.1,0.5-0.1c0.1,0,0.2,0,0.4,0.1C87.2,2,87.3,2,87.4,2.1l-0.1,0.1
		C87.1,2,87,1.9,86.8,1.9c-0.3,0-0.4,0.1-0.4,0.3s0.1,0.3,0.3,0.5C87,2.9,87.2,3,87.3,3.1C87.3,3.3,87.4,3.5,87.4,3.8z"/>
	<path class="st1" d="M90,0.7c0,0.1,0,0.1-0.1,0.2S89.8,1,89.7,1c-0.1,0-0.1,0-0.2-0.1c-0.1,0-0.1-0.1-0.1-0.2s0-0.1,0.1-0.2
		c0,0,0.1-0.1,0.2-0.1c0.1,0,0.1,0,0.2,0.1S90,0.6,90,0.7z M90,4.4h-0.4V1.8H90V4.4z"/>
	<path class="st1" d="M93.1,4.4h-0.4V2.7c0-0.5-0.2-0.8-0.6-0.8s-0.6,0.2-0.8,0.7v1.8H91V1.8h0.4v0.4c0.2-0.3,0.5-0.4,0.8-0.4
		c0.3,0,0.5,0.1,0.7,0.2s0.2,0.4,0.2,0.7C93.1,2.7,93.1,4.4,93.1,4.4z"/>
	<path class="st1" d="M96.5,2H96v1.6c0,0.3,0,0.4,0.1,0.6c0.1,0.1,0.2,0.2,0.4,0.2v0.1c-0.6,0-0.9-0.3-0.9-0.8V2h-0.2V1.9h0.2V1.6
		H96v0.3L96.5,2L96.5,2z"/>
	<path class="st1" d="M99.5,4.4h-0.4V2.7c0-0.5-0.2-0.8-0.6-0.8s-0.6,0.2-0.8,0.7v1.8h-0.4v-4h0.4v1.8c0.2-0.3,0.5-0.4,0.8-0.4
		S99,1.9,99.2,2c0.2,0.1,0.2,0.4,0.2,0.7L99.5,4.4L99.5,4.4z"/>
	<path class="st1" d="M102.8,2.8h-1.6V2.7h1.2c0-0.5-0.2-0.8-0.6-0.8c-0.3,0-0.5,0.1-0.6,0.3C101,2.4,101,2.7,101,3.1
		s0.1,0.7,0.2,0.9c0.2,0.2,0.4,0.3,0.7,0.3s0.6-0.1,0.8-0.4l0.1,0.2c-0.2,0.2-0.5,0.4-0.9,0.4c-0.4,0-0.7-0.1-0.9-0.4
		c-0.3-0.3-0.4-0.6-0.4-0.9c0-0.4,0.1-0.7,0.4-0.9c0.2-0.3,0.5-0.4,0.9-0.4c0.3,0,0.5,0.1,0.7,0.3C102.7,2.3,102.8,2.5,102.8,2.8z"
		/>
	<path class="st1" d="M107,4.1c-0.3,0.2-0.6,0.4-0.9,0.4c-0.4,0-0.7-0.1-0.9-0.4c-0.3-0.3-0.4-0.6-0.4-0.9c0-0.4,0.1-0.7,0.4-0.9
		c0.3-0.3,0.6-0.4,0.9-0.4c0.3,0,0.6,0.1,0.8,0.3l-0.1,0.2c-0.2-0.2-0.4-0.3-0.7-0.3s-0.5,0.1-0.7,0.4c-0.2,0.2-0.3,0.5-0.3,0.8
		s0.1,0.6,0.2,0.8c0.2,0.2,0.4,0.4,0.7,0.4s0.6-0.1,0.8-0.4H107z"/>
	<path class="st1" d="M110.2,3.1c0,0.4-0.1,0.7-0.4,0.9c-0.3,0.3-0.6,0.4-0.9,0.4c-0.4,0-0.7-0.1-0.9-0.4c-0.3-0.3-0.4-0.6-0.4-0.9
		c0-0.4,0.1-0.7,0.4-0.9c0.3-0.3,0.6-0.4,0.9-0.4c0.4,0,0.7,0.1,0.9,0.4C110.1,2.5,110.2,2.8,110.2,3.1z M109.8,3.1
		c0-0.3-0.1-0.6-0.3-0.8S109.1,2,108.9,2c-0.3,0-0.5,0.1-0.6,0.3c-0.2,0.2-0.3,0.5-0.3,0.8s0.1,0.6,0.3,0.8c0.2,0.2,0.4,0.4,0.6,0.4
		c0.2,0,0.5-0.1,0.6-0.4C109.7,3.8,109.8,3.5,109.8,3.1z"/>
	<path class="st1" d="M114.7,4.4h-0.4V2.6c0-0.3,0-0.4-0.1-0.5c-0.1-0.1-0.2-0.2-0.4-0.2c-0.3,0-0.5,0.2-0.7,0.6v0.1v1.8h-0.4V2.6
		c0-0.3,0-0.4-0.1-0.5c-0.1-0.1-0.2-0.2-0.4-0.2c-0.1,0-0.3,0.1-0.4,0.2c-0.1,0.1-0.2,0.3-0.3,0.5v1.8h-0.4V1.8h0.4v0.3
		c0.2-0.3,0.5-0.4,0.7-0.4c0.4,0,0.7,0.1,0.8,0.4c0.2-0.3,0.5-0.4,0.8-0.4c0.6,0,0.8,0.3,0.8,0.8v1.9H114.7z"/>
	<path class="st1" d="M118,3.2c0,0.4-0.1,0.7-0.3,0.9c-0.2,0.3-0.5,0.4-0.8,0.4s-0.5-0.1-0.6-0.3v0.2h-0.4v-4h0.4v3.4
		c0,0.2,0.1,0.3,0.2,0.4c0.1,0.1,0.2,0.2,0.4,0.2c0.2,0,0.4-0.1,0.6-0.3c0.1-0.2,0.2-0.5,0.2-0.9s-0.1-0.6-0.2-0.9
		c-0.1-0.2-0.3-0.3-0.6-0.3c-0.1,0-0.2,0-0.4,0.1L116.4,2c0.1-0.1,0.3-0.1,0.5-0.1c0.3,0,0.6,0.1,0.8,0.4C117.9,2.5,118,2.8,118,3.2
		z"/>
	<path class="st1" d="M119.5,0.7c0,0.1,0,0.1-0.1,0.2S119.3,1,119.2,1c-0.1,0-0.1,0-0.2-0.1c-0.1,0-0.1-0.1-0.1-0.2s0-0.1,0.1-0.2
		c0,0,0.1-0.1,0.2-0.1c0.1,0,0.1,0,0.2,0.1C119.4,0.6,119.5,0.6,119.5,0.7z M119.4,4.4H119V1.8h0.4V4.4z"/>
	<path class="st1" d="M122.6,4.4h-0.4V2.7c0-0.5-0.2-0.8-0.6-0.8s-0.6,0.2-0.8,0.7v1.8h-0.4V1.8h0.4v0.4c0.2-0.3,0.5-0.4,0.8-0.4
		s0.5,0.1,0.7,0.2c0.2,0.1,0.2,0.4,0.2,0.7L122.6,4.4L122.6,4.4z"/>
	<path class="st1" d="M125.5,2.8v1.7h-0.4V4.3c-0.1,0.2-0.4,0.2-0.6,0.2c-0.3,0-0.5-0.1-0.6-0.2c-0.2-0.1-0.3-0.4-0.3-0.6
		c0-0.3,0.1-0.5,0.3-0.6c0.2-0.1,0.4-0.2,0.6-0.2c0.1,0,0.1,0,0.2,0c0.1,0,0.2,0.1,0.3,0.1l-0.1,0.1C124.8,3,124.6,3,124.5,3
		c-0.2,0-0.3,0.1-0.4,0.2S124,3.5,124,3.7s0.1,0.4,0.2,0.5s0.2,0.2,0.4,0.2c0.3,0,0.5-0.1,0.6-0.4V2.8c0-0.6-0.2-0.8-0.6-0.8
		c-0.2,0-0.4,0.1-0.6,0.2l-0.1-0.1c0.2-0.1,0.4-0.2,0.7-0.2C125.2,1.8,125.5,2.1,125.5,2.8z"/>
	<path class="st1" d="M127.6,2h-0.5v1.6c0,0.3,0,0.4,0.1,0.6c0.1,0.1,0.2,0.2,0.4,0.2v0.1c-0.6,0-0.9-0.3-0.9-0.8V2h-0.2V1.9h0.2
		V1.6h0.4v0.3L127.6,2L127.6,2z"/>
	<path class="st1" d="M128.9,0.7c0,0.1,0,0.1-0.1,0.2C128.7,1,128.7,1,128.6,1c-0.1,0-0.1,0-0.2-0.1c-0.1,0-0.1-0.1-0.1-0.2
		s0-0.1,0.1-0.2c0,0,0.1-0.1,0.2-0.1c0.1,0,0.1,0,0.2,0.1C128.9,0.6,128.9,0.6,128.9,0.7z M128.9,4.4h-0.4V1.8h0.4V4.4z"/>
	<path class="st1" d="M132.5,3.1c0,0.4-0.1,0.7-0.4,0.9c-0.3,0.3-0.6,0.4-0.9,0.4c-0.4,0-0.7-0.1-0.9-0.4c-0.3-0.3-0.4-0.6-0.4-0.9
		c0-0.4,0.1-0.7,0.4-0.9c0.3-0.3,0.6-0.4,0.9-0.4c0.4,0,0.7,0.1,0.9,0.4C132.4,2.5,132.5,2.8,132.5,3.1z M132.1,3.1
		c0-0.3-0.1-0.6-0.3-0.8c-0.2-0.2-0.4-0.3-0.6-0.3c-0.3,0-0.5,0.1-0.6,0.3c-0.2,0.2-0.3,0.5-0.3,0.8s0.1,0.6,0.3,0.8
		c0.2,0.2,0.4,0.4,0.6,0.4s0.5-0.1,0.6-0.4C132,3.8,132.1,3.5,132.1,3.1z"/>
	<path class="st1" d="M135.6,4.4h-0.4V2.7c0-0.5-0.2-0.8-0.6-0.8c-0.4,0-0.6,0.2-0.8,0.7v1.8h-0.4V1.8h0.4v0.4
		c0.2-0.3,0.5-0.4,0.8-0.4s0.5,0.1,0.7,0.2s0.2,0.4,0.2,0.7L135.6,4.4L135.6,4.4z"/>
	<path class="st1" d="M140.5,3.1c0,0.4-0.1,0.7-0.4,0.9c-0.3,0.3-0.6,0.4-0.9,0.4c-0.4,0-0.7-0.1-0.9-0.4c-0.3-0.3-0.4-0.6-0.4-0.9
		c0-0.4,0.1-0.7,0.4-0.9c0.3-0.3,0.6-0.4,0.9-0.4c0.4,0,0.7,0.1,0.9,0.4C140.3,2.5,140.5,2.8,140.5,3.1z M140,3.1
		c0-0.3-0.1-0.6-0.3-0.8S139.3,2,139.1,2c-0.3,0-0.5,0.1-0.6,0.3c-0.2,0.2-0.3,0.5-0.3,0.8s0.1,0.6,0.3,0.8c0.2,0.2,0.4,0.4,0.6,0.4
		c0.2,0,0.5-0.1,0.6-0.4C139.9,3.8,140,3.5,140,3.1z"/>
	<path class="st1" d="M141.9,2v2.5h-0.4V2h-0.2V1.9h0.2V1.3c0-0.6,0.3-0.8,0.9-0.8v0.1c-0.2,0-0.3,0.1-0.4,0.2s-0.1,0.3-0.1,0.6V2z"
		/>
	<path class="st1" d="M146.7,4.4h-0.4V2.7c0-0.5-0.2-0.8-0.6-0.8s-0.6,0.2-0.8,0.7v1.8h-0.4V1.8h0.4v0.4c0.2-0.3,0.5-0.4,0.8-0.4
		s0.5,0.1,0.7,0.2s0.2,0.4,0.2,0.7L146.7,4.4L146.7,4.4z"/>
	<path class="st1" d="M149.6,2.8v1.7h-0.4V4.3c-0.1,0.2-0.4,0.2-0.6,0.2c-0.3,0-0.5-0.1-0.6-0.2c-0.2-0.1-0.3-0.4-0.3-0.6
		c0-0.3,0.1-0.5,0.3-0.6s0.4-0.2,0.6-0.2c0.1,0,0.1,0,0.2,0c0.1,0,0.2,0.1,0.3,0.1L149,3.1C148.9,3,148.7,3,148.6,3
		c-0.2,0-0.3,0.1-0.4,0.2c-0.1,0.1-0.1,0.3-0.1,0.5s0.1,0.4,0.2,0.5c0.1,0.1,0.2,0.2,0.4,0.2c0.3,0,0.5-0.1,0.6-0.4V2.8
		c0-0.6-0.2-0.8-0.6-0.8c-0.2,0-0.4,0.1-0.6,0.2L148,2.1c0.2-0.1,0.4-0.2,0.7-0.2C149.3,1.8,149.6,2.1,149.6,2.8z"/>
	<path class="st1" d="M151.6,2h-0.5v1.6c0,0.3,0,0.4,0.1,0.6c0.1,0.1,0.2,0.2,0.4,0.2v0.1c-0.6,0-0.9-0.3-0.9-0.8V2h-0.2V1.9h0.2
		V1.6h0.4v0.3L151.6,2L151.6,2z"/>
	<path class="st1" d="M154.6,4.4h-0.4V4c-0.2,0.3-0.5,0.5-0.8,0.5c-0.6,0-0.9-0.3-0.9-0.9V1.9h0.4v1.7c0,0.5,0.2,0.8,0.6,0.8
		c0.2,0,0.4-0.1,0.6-0.4c0.1-0.1,0.1-0.3,0.2-0.5V1.8h0.4L154.6,4.4L154.6,4.4z"/>
	<path class="st1" d="M156.9,1.9l-0.1,0.2C156.7,2,156.6,2,156.5,2s-0.1,0-0.2,0c-0.2,0.1-0.3,0.4-0.3,0.7v1.7h-0.4V1.8h0.4v0.3
		c0.1-0.1,0.1-0.2,0.2-0.2c0.1-0.1,0.2-0.1,0.3-0.1C156.7,1.8,156.8,1.9,156.9,1.9z"/>
	<path class="st1" d="M159.6,2.8v1.7h-0.4V4.3c-0.1,0.2-0.4,0.2-0.6,0.2c-0.3,0-0.5-0.1-0.6-0.2c-0.2-0.1-0.3-0.4-0.3-0.6
		c0-0.3,0.1-0.5,0.3-0.6s0.4-0.2,0.6-0.2c0.1,0,0.1,0,0.2,0c0.1,0,0.2,0.1,0.3,0.1L159,3.1C158.9,3,158.7,3,158.6,3
		c-0.2,0-0.3,0.1-0.4,0.2c-0.1,0.1-0.1,0.3-0.1,0.5s0.1,0.4,0.2,0.5c0.1,0.1,0.2,0.2,0.4,0.2c0.3,0,0.5-0.1,0.6-0.4V2.8
		c0-0.6-0.2-0.8-0.6-0.8c-0.2,0-0.4,0.1-0.6,0.2L158,2.1c0.2-0.1,0.4-0.2,0.7-0.2C159.2,1.8,159.6,2.1,159.6,2.8z"/>
	<path class="st1" d="M161,4.4h-0.4v-4h0.4V4.4z"/>
	<path class="st1" d="M163.6,4.4h-0.4v-4h0.4V4.4z"/>
	<path class="st1" d="M166.5,2.8v1.7h-0.4V4.3c-0.1,0.2-0.4,0.2-0.6,0.2c-0.3,0-0.5-0.1-0.6-0.2c-0.2-0.1-0.3-0.4-0.3-0.6
		c0-0.3,0.1-0.5,0.3-0.6c0.2-0.1,0.4-0.2,0.6-0.2c0.1,0,0.1,0,0.2,0S165.9,3,166,3l-0.1,0.1C165.8,3,165.6,3,165.5,3
		c-0.2,0-0.3,0.1-0.4,0.2C165,3.3,165,3.5,165,3.7s0.1,0.4,0.2,0.5s0.2,0.2,0.4,0.2c0.3,0,0.5-0.1,0.6-0.4V2.8
		c0-0.6-0.2-0.8-0.6-0.8c-0.2,0-0.4,0.1-0.6,0.2l-0.1-0.1c0.2-0.1,0.4-0.2,0.7-0.2C166.2,1.8,166.5,2.1,166.5,2.8z"/>
	<path class="st1" d="M169.7,4.4h-0.4V2.7c0-0.5-0.2-0.8-0.6-0.8s-0.6,0.2-0.8,0.7v1.8h-0.4V1.8h0.4v0.4c0.2-0.3,0.5-0.4,0.8-0.4
		s0.5,0.1,0.7,0.2s0.2,0.4,0.2,0.7L169.7,4.4L169.7,4.4z"/>
	<path class="st1" d="M172.9,4.4h-0.4V4.2c-0.2,0.2-0.4,0.3-0.6,0.3c-0.3,0-0.6-0.1-0.8-0.4c-0.2-0.3-0.3-0.6-0.3-0.9
		c0-0.4,0.1-0.7,0.3-0.9c0.2-0.3,0.5-0.4,0.8-0.4c0.1,0,0.3,0,0.5,0.1l-0.1,0.2c-0.1-0.1-0.3-0.1-0.4-0.1c-0.2,0-0.4,0.1-0.5,0.3
		c-0.2,0.2-0.2,0.5-0.2,0.9s0.1,0.6,0.2,0.9c0.1,0.2,0.3,0.3,0.6,0.3c0.1,0,0.3-0.1,0.4-0.2c0.1-0.1,0.2-0.2,0.2-0.4V0.5h0.4
		L172.9,4.4L172.9,4.4z"/>
	<path class="st1" d="M175.4,3.8c0,0.2-0.1,0.4-0.2,0.5c-0.1,0.1-0.3,0.2-0.5,0.2c-0.3,0-0.5-0.1-0.7-0.3l0.1-0.2
		c0.2,0.2,0.4,0.3,0.6,0.3c0.1,0,0.3,0,0.3-0.1c0.1-0.1,0.1-0.2,0.1-0.4s-0.1-0.3-0.2-0.4c-0.1-0.1-0.3-0.2-0.5-0.3
		c-0.3-0.2-0.4-0.4-0.4-0.7c0-0.2,0.1-0.3,0.2-0.5c0.1-0.1,0.3-0.1,0.5-0.1c0.1,0,0.2,0,0.4,0.1c0.1,0.1,0.2,0.1,0.3,0.2l-0.1,0.1
		c-0.2-0.2-0.3-0.3-0.5-0.3c-0.3,0-0.4,0.1-0.4,0.3s0.1,0.3,0.3,0.5c0.3,0.2,0.5,0.3,0.6,0.4C175.3,3.3,175.4,3.5,175.4,3.8z"/>
	<path class="st1" d="M178.5,4.1c-0.3,0.2-0.6,0.4-0.9,0.4c-0.4,0-0.7-0.1-0.9-0.4c-0.3-0.3-0.4-0.6-0.4-0.9c0-0.4,0.1-0.7,0.4-0.9
		c0.3-0.3,0.6-0.4,0.9-0.4c0.3,0,0.6,0.1,0.8,0.3l-0.1,0.2c-0.2-0.2-0.4-0.3-0.7-0.3c-0.3,0-0.5,0.1-0.7,0.4
		c-0.2,0.2-0.3,0.5-0.3,0.8s0.1,0.6,0.2,0.8c0.2,0.2,0.4,0.4,0.7,0.4s0.6-0.1,0.8-0.4H178.5z"/>
	<path class="st1" d="M181.1,2.8v1.7h-0.4V4.3c-0.1,0.2-0.4,0.2-0.6,0.2c-0.3,0-0.5-0.1-0.6-0.2c-0.2-0.1-0.3-0.4-0.3-0.6
		c0-0.3,0.1-0.5,0.3-0.6s0.4-0.2,0.6-0.2c0.1,0,0.1,0,0.2,0c0.1,0,0.2,0.1,0.3,0.1l-0.1,0.1C180.4,3,180.2,3,180.1,3
		c-0.2,0-0.3,0.1-0.4,0.2c-0.1,0.1-0.1,0.3-0.1,0.5s0.1,0.4,0.2,0.5c0.1,0.1,0.2,0.2,0.4,0.2c0.3,0,0.5-0.1,0.6-0.4V2.8
		c0-0.6-0.2-0.8-0.6-0.8c-0.2,0-0.4,0.1-0.6,0.2l-0.1-0.1c0.2-0.1,0.4-0.2,0.7-0.2C180.8,1.8,181.1,2.1,181.1,2.8z"/>
	<path class="st1" d="M184.3,3.2c0,0.4-0.1,0.7-0.3,0.9c-0.2,0.3-0.5,0.4-0.8,0.4c-0.1,0-0.3,0-0.5-0.1l0.1-0.1
		c0.1,0.1,0.2,0.1,0.4,0.1s0.4-0.1,0.5-0.3c0.1-0.2,0.2-0.5,0.2-0.9s-0.1-0.6-0.2-0.9c-0.1-0.2-0.3-0.3-0.6-0.3
		c-0.1,0-0.3,0.1-0.4,0.2c-0.1,0.1-0.2,0.2-0.2,0.4v2.9h-0.4V2h0.4v0.2c0.2-0.2,0.4-0.3,0.6-0.3c0.3,0,0.6,0.1,0.8,0.4
		C184.2,2.5,184.3,2.8,184.3,3.2z"/>
	<path class="st1" d="M187.5,2.8h-1.6V2.7h1.2c0-0.5-0.2-0.8-0.6-0.8c-0.3,0-0.5,0.1-0.6,0.3c-0.2,0.2-0.2,0.5-0.2,0.9
		s0.1,0.7,0.2,0.9c0.2,0.2,0.4,0.3,0.7,0.3c0.3,0,0.6-0.1,0.8-0.4l0.1,0.2c-0.2,0.2-0.5,0.4-0.9,0.4c-0.4,0-0.7-0.1-0.9-0.4
		c-0.3-0.3-0.4-0.6-0.4-0.9c0-0.4,0.1-0.7,0.4-0.9c0.2-0.3,0.5-0.4,0.9-0.4c0.3,0,0.5,0.1,0.7,0.3C187.4,2.3,187.5,2.5,187.5,2.8z"
		/>
	<path class="st1" d="M62.9,10v1.7h-0.4v-0.2c-0.1,0.2-0.4,0.2-0.6,0.2c-0.3,0-0.5-0.1-0.6-0.2c-0.2-0.1-0.3-0.4-0.3-0.6
		c0-0.3,0.1-0.5,0.3-0.6s0.4-0.2,0.6-0.2c0.1,0,0.1,0,0.2,0c0.1,0,0.2,0.1,0.3,0.1l-0.1,0.1c-0.1-0.1-0.3-0.1-0.4-0.1
		c-0.2,0-0.3,0.1-0.4,0.2c-0.1,0.1-0.1,0.3-0.1,0.5s0.1,0.4,0.2,0.5c0.1,0.1,0.2,0.2,0.4,0.2c0.3,0,0.5-0.1,0.6-0.4V10
		c0-0.6-0.2-0.8-0.6-0.8c-0.2,0-0.4,0.1-0.6,0.2l-0.1-0.1c0.2-0.1,0.4-0.2,0.7-0.2C62.6,9,62.9,9.3,62.9,10z"/>
	<path class="st1" d="M66.1,11.6h-0.4V9.9c0-0.5-0.2-0.8-0.6-0.8s-0.6,0.2-0.8,0.7v1.8H64V9h0.4v0.4C64.6,9.1,64.9,9,65.2,9
		c0.3,0,0.5,0.1,0.7,0.2c0.2,0.1,0.2,0.4,0.2,0.7C66.1,9.9,66.1,11.6,66.1,11.6z"/>
	<path class="st1" d="M69.3,11.6h-0.4v-0.2c-0.2,0.2-0.4,0.3-0.6,0.3c-0.3,0-0.6-0.1-0.8-0.4c-0.2-0.3-0.3-0.6-0.3-0.9
		c0-0.4,0.1-0.7,0.3-0.9c0.2-0.3,0.5-0.4,0.8-0.4c0.1,0,0.3,0,0.5,0.1l-0.1,0.1c-0.1-0.1-0.3-0.1-0.4-0.1c-0.2,0-0.4,0.1-0.5,0.3
		c-0.2,0.2-0.2,0.5-0.2,0.9s0.1,0.6,0.2,0.9c0.1,0.2,0.3,0.3,0.6,0.3c0.1,0,0.3-0.1,0.4-0.2c0.1-0.1,0.2-0.2,0.2-0.4V7.6h0.4
		L69.3,11.6L69.3,11.6z"/>
	<path class="st1" d="M73.4,10v1.7H73v-0.2c-0.1,0.2-0.4,0.2-0.6,0.2c-0.3,0-0.5-0.1-0.6-0.2c-0.2-0.1-0.3-0.4-0.3-0.6
		c0-0.3,0.1-0.5,0.3-0.6c0.2-0.1,0.4-0.2,0.6-0.2c0.1,0,0.1,0,0.2,0s0.2,0.1,0.3,0.1l-0.1,0.1c-0.1-0.1-0.3-0.1-0.4-0.1
		c-0.2,0-0.3,0.1-0.4,0.2c-0.1,0.1-0.1,0.3-0.1,0.5s0.1,0.4,0.2,0.5s0.2,0.2,0.4,0.2c0.3,0,0.5-0.1,0.6-0.4V10
		c0-0.6-0.2-0.8-0.6-0.8c-0.2,0-0.4,0.1-0.6,0.2l-0.1-0.1c0.2-0.1,0.4-0.2,0.7-0.2C73.1,9,73.4,9.3,73.4,10z"/>
	<path class="st1" d="M75.7,9.1l-0.1,0.2c-0.1-0.1-0.2-0.1-0.3-0.1c-0.1,0-0.1,0-0.2,0c-0.2,0.1-0.3,0.4-0.3,0.7v1.7h-0.4V9h0.4v0.3
		c0.1-0.1,0.1-0.2,0.2-0.2C75.1,9,75.2,9,75.3,9C75.5,9,75.6,9.1,75.7,9.1z"/>
	<path class="st1" d="M77.2,9.2v1.6c0,0.3,0,0.4,0.1,0.6c0.1,0.1,0.2,0.2,0.4,0.2v0.1c-0.6,0-0.9-0.3-0.9-0.8V9.3h-0.2V9.2h0.2V8.9
		h0.4V9.2z"/>
	<path class="st1" d="M79,7.9C79,8,79,8,78.9,8.1c-0.1,0-0.1,0.1-0.2,0.1c-0.1,0-0.1,0-0.2-0.1S78.4,8,78.4,7.9s0-0.1,0.1-0.2
		c0,0,0.1-0.1,0.2-0.1c0.1,0,0.1,0,0.2,0.1S79,7.8,79,7.9z M79,11.6h-0.4V9H79V11.6z"/>
	<path class="st1" d="M81.4,11c0,0.2-0.1,0.4-0.2,0.5c-0.1,0.1-0.3,0.2-0.5,0.2c-0.3,0-0.5-0.1-0.7-0.3l0.1-0.2
		c0.2,0.2,0.4,0.3,0.6,0.3c0.1,0,0.3,0,0.3-0.1c0.1-0.1,0.1-0.2,0.1-0.4s-0.1-0.3-0.2-0.4c-0.1-0.1-0.3-0.2-0.5-0.3
		C80.1,10.1,80,9.9,80,9.6c0-0.2,0.1-0.3,0.2-0.5C80.3,9,80.5,9,80.7,9c0.1,0,0.2,0,0.4,0.1c0.1,0.1,0.2,0.1,0.3,0.2l-0.1,0.1
		c-0.2-0.2-0.3-0.3-0.5-0.3c-0.3,0-0.4,0.1-0.4,0.3s0.1,0.3,0.3,0.5c0.3,0.2,0.5,0.3,0.6,0.4C81.3,10.5,81.4,10.7,81.4,11z"/>
	<path class="st1" d="M82.9,9.2v1.6c0,0.3,0,0.4,0.1,0.6c0.1,0.1,0.2,0.2,0.4,0.2v0.1c-0.6,0-0.9-0.3-0.9-0.8V9.3h-0.2V9.2h0.2V8.9
		h0.4V9.2z"/>
	<path class="st1" d="M84.8,7.9c0,0.1,0,0.1-0.1,0.2c-0.1,0-0.1,0.1-0.2,0.1c-0.1,0-0.1,0-0.2-0.1S84.2,8,84.2,7.9s0-0.1,0.1-0.2
		c0,0,0.1-0.1,0.2-0.1c0.1,0,0.1,0,0.2,0.1S84.8,7.8,84.8,7.9z M84.7,11.6h-0.4V9h0.4V11.6z"/>
	<path class="st1" d="M87.9,11.3c-0.3,0.2-0.6,0.4-0.9,0.4c-0.4,0-0.7-0.1-0.9-0.4c-0.3-0.3-0.4-0.6-0.4-0.9c0-0.4,0.1-0.7,0.4-0.9
		c0.3-0.3,0.6-0.4,0.9-0.4s0.6,0.1,0.8,0.3l-0.1,0.2c-0.2-0.2-0.4-0.3-0.7-0.3s-0.5,0.1-0.7,0.4c-0.2,0.2-0.3,0.5-0.3,0.8
		s0.1,0.6,0.2,0.8c0.2,0.2,0.4,0.4,0.7,0.4c0.3,0,0.6-0.1,0.8-0.4C87.7,11.3,87.9,11.3,87.9,11.3z"/>
	<path class="st1" d="M92,10h-1.6V9.9h1.2c0-0.5-0.2-0.8-0.6-0.8c-0.3,0-0.5,0.1-0.6,0.3c-0.2,0.2-0.2,0.5-0.2,0.9s0.1,0.7,0.2,0.9
		c0.2,0.2,0.4,0.3,0.7,0.3c0.3,0,0.6-0.1,0.8-0.4l0.1,0.2c-0.2,0.2-0.5,0.4-0.9,0.4s-0.7-0.1-0.9-0.4c-0.3-0.3-0.4-0.6-0.4-0.9
		c0-0.4,0.1-0.7,0.4-0.9c0.2-0.3,0.5-0.4,0.9-0.4c0.3,0,0.5,0.1,0.7,0.3C91.9,9.5,92,9.7,92,10z"/>
	<path class="st1" d="M95.1,11.6h-0.5l-0.8-1.2l-1,1.2h-0.1l1.1-1.3L92.9,9h0.4l0.7,1l0.8-1h0.1L94,10.1L95.1,11.6z"/>
	<path class="st1" d="M98.1,10.4c0,0.4-0.1,0.7-0.3,0.9c-0.2,0.3-0.5,0.4-0.8,0.4c-0.1,0-0.3,0-0.5-0.1l0.1-0.1
		c0.1,0.1,0.2,0.1,0.4,0.1s0.4-0.1,0.5-0.3s0.2-0.5,0.2-0.9s-0.1-0.6-0.2-0.9c-0.1-0.2-0.3-0.3-0.6-0.3c-0.1,0-0.3,0.1-0.4,0.2
		c-0.1,0.1-0.2,0.2-0.2,0.4v2.9H96V9.2h0.4v0.2c0.2-0.2,0.4-0.3,0.6-0.3c0.3,0,0.6,0.1,0.8,0.4C98,9.7,98.1,10,98.1,10.4z"/>
	<path class="st1" d="M100.3,9.1l-0.1,0.2c-0.1-0.1-0.2-0.1-0.3-0.1s-0.1,0-0.2,0c-0.2,0.1-0.3,0.4-0.3,0.7v1.7H99V9h0.4v0.3
		c0.1-0.1,0.1-0.2,0.2-0.2C99.7,9,99.8,9,99.9,9C100.1,9,100.2,9.1,100.3,9.1z"/>
	<path class="st1" d="M103.2,10h-1.6V9.9h1.2c0-0.5-0.2-0.8-0.6-0.8c-0.3,0-0.5,0.1-0.6,0.3c-0.2,0.2-0.2,0.5-0.2,0.9
		s0.1,0.7,0.2,0.9c0.2,0.2,0.4,0.3,0.7,0.3c0.3,0,0.6-0.1,0.8-0.4l0.1,0.2c-0.2,0.2-0.5,0.4-0.9,0.4s-0.7-0.1-0.9-0.4
		c-0.3-0.3-0.4-0.6-0.4-0.9c0-0.4,0.1-0.7,0.4-0.9c0.2-0.3,0.5-0.4,0.9-0.4c0.3,0,0.5,0.1,0.7,0.3C103.1,9.5,103.2,9.7,103.2,10z"/>
	<path class="st1" d="M105.6,11c0,0.2-0.1,0.4-0.2,0.5c-0.1,0.1-0.3,0.2-0.5,0.2c-0.3,0-0.5-0.1-0.7-0.3l0.1-0.2
		c0.2,0.2,0.4,0.3,0.6,0.3c0.1,0,0.3,0,0.4-0.1s0.1-0.2,0.1-0.4s-0.1-0.3-0.2-0.4c-0.1-0.1-0.3-0.2-0.5-0.3
		c-0.3-0.2-0.4-0.4-0.4-0.7c0-0.2,0.1-0.3,0.2-0.5C104.6,9,104.8,9,105,9c0.1,0,0.2,0,0.4,0.1c0.1,0.1,0.2,0.1,0.3,0.2l-0.1,0.1
		c-0.2-0.2-0.3-0.3-0.5-0.3c-0.3,0-0.4,0.1-0.4,0.3s0.1,0.3,0.3,0.5c0.3,0.2,0.5,0.3,0.6,0.4C105.5,10.5,105.6,10.7,105.6,11z"/>
	<path class="st1" d="M107.9,11c0,0.2-0.1,0.4-0.2,0.5c-0.1,0.1-0.3,0.2-0.5,0.2c-0.3,0-0.5-0.1-0.7-0.3l0.1-0.2
		c0.2,0.2,0.4,0.3,0.6,0.3c0.1,0,0.3,0,0.4-0.1s0.1-0.2,0.1-0.4s-0.1-0.3-0.2-0.4c-0.1-0.1-0.3-0.2-0.5-0.3
		c-0.3-0.2-0.4-0.4-0.4-0.7c0-0.2,0.1-0.3,0.2-0.5c0.1-0.1,0.3-0.1,0.5-0.1c0.1,0,0.2,0,0.4,0.1c0.1,0.1,0.2,0.1,0.3,0.2l-0.1,0.1
		c-0.2-0.2-0.3-0.3-0.5-0.3c-0.3,0-0.4,0.1-0.4,0.3s0.1,0.3,0.3,0.5c0.3,0.2,0.5,0.3,0.6,0.4C107.9,10.5,108,10.7,107.9,11z"/>
	<path class="st1" d="M109.4,7.9c0,0.1,0,0.1-0.1,0.2c-0.1,0-0.1,0.1-0.2,0.1c-0.1,0-0.1,0-0.2-0.1s-0.1-0.1-0.1-0.2s0-0.1,0.1-0.2
		c0,0,0.1-0.1,0.2-0.1s0.1,0,0.2,0.1C109.4,7.8,109.4,7.8,109.4,7.9z M109.3,11.6h-0.4V9h0.4V11.6z"/>
	<path class="st1" d="M113,10.3c0,0.4-0.1,0.7-0.4,0.9c-0.3,0.3-0.6,0.4-0.9,0.4c-0.4,0-0.7-0.1-0.9-0.4c-0.3-0.3-0.4-0.6-0.4-0.9
		c0-0.4,0.1-0.7,0.4-0.9c0.3-0.3,0.6-0.4,0.9-0.4c0.4,0,0.7,0.1,0.9,0.4C112.8,9.7,113,10,113,10.3z M112.5,10.3
		c0-0.3-0.1-0.6-0.3-0.8c-0.2-0.2-0.4-0.4-0.6-0.4c-0.3,0-0.5,0.1-0.6,0.4c-0.2,0.2-0.3,0.5-0.3,0.8s0.1,0.6,0.3,0.8
		c0.2,0.2,0.4,0.4,0.6,0.4s0.5-0.1,0.6-0.4C112.5,11,112.5,10.7,112.5,10.3z"/>
	<path class="st1" d="M116,11.6h-0.4V9.9c0-0.5-0.2-0.8-0.6-0.8s-0.6,0.2-0.8,0.7v1.8h-0.4V9h0.4v0.4c0.2-0.3,0.5-0.4,0.8-0.4
		s0.5,0.1,0.7,0.2c0.2,0.1,0.2,0.4,0.2,0.7L116,11.6L116,11.6z"/>
	<path class="st1" d="M117.6,11.5c0,0.1,0,0.1-0.1,0.2c-0.1,0-0.1,0.1-0.2,0.1c-0.1,0-0.1,0-0.2-0.1c-0.1,0-0.1-0.1-0.1-0.2
		c0-0.1,0-0.1,0.1-0.2c0-0.1,0.1-0.1,0.2-0.1c0.1,0,0.1,0,0.2,0.1C117.6,11.3,117.6,11.4,117.6,11.5z"/>
</g>
</svg>
