<?xml version="1.0" encoding="utf-8"?>
<!-- Generator: Adobe Illustrator 27.0.0, SVG Export Plug-In . SVG Version: 6.00 Build 0)  -->
<svg version="1.1" id="圖層_1" xmlns="http://www.w3.org/2000/svg" xmlns:xlink="http://www.w3.org/1999/xlink" x="0px" y="0px"
	 viewBox="0 0 400 29" style="enable-background:new 0 0 400 29;" xml:space="preserve">
<style type="text/css">
	.st0{fill:#40220F;}
</style>
<path class="st0" d="M95.1,23.4l3,2.3c-0.2,0.4-0.6,0.6-1.4,0.6H75.8v1.6c0,0.2-0.7,0.9-2,0.9h-0.4V1.8L76.2,3h16.4L94.2,1L97,3.1
	c-0.3,0.4-0.6,0.6-1.4,0.6H75.8v21.9h17.7L95.1,23.4z M89.8,23.8c0,0.1-0.7,0.7-1.8,0.7h-0.4V13.3h-5.8c0,3.5-0.5,8.2-4.3,11.3
	l-0.3-0.4c2.3-3.4,2.5-7.6,2.5-11.4V6.9L82,7.7c3.3-0.9,7-2.2,9.1-3.2L93.5,7c-0.1,0.1-0.3,0.2-0.5,0.2c-0.3,0-0.6-0.1-1-0.2
	c-2.7,0.6-6.6,1.3-10.2,1.6v4.1h10.3l1.4-2l2.7,2c-0.2,0.5-0.6,0.6-1.3,0.6h-5.1L89.8,23.8L89.8,23.8z"/>
<path class="st0" d="M107,12.5c0.5,1.7,0.7,3.2,0.7,4.6c0,4.1-1.9,6.8-3.8,6.8c-0.8,0-1.1-0.6-1.1-1.1c0-0.5,0.3-1,0.7-1.4
	c1.7-1.3,3.2-4.8,3.1-8.8L107,12.5z M110.1,1.3c7.5,0.1,9.9,2.9,9.9,4.6c0,0.7-0.5,1.2-1.1,1.2c-0.2,0-0.4,0-0.6-0.1
	c-1.1-1.7-4-4-8.2-5.2L110.1,1.3z M110.6,9.1l3.4,0.3c-0.1,0.4-0.2,0.6-1.1,0.8v14.4c0,1,0.1,1.1,1.2,1.1h5.6c0.5,0,0.8-0.1,1.1-0.5
	c0.3-0.5,0.7-2.3,1.2-4.5h0.3l0,4.7c1,0.4,1.1,0.5,1.1,0.9c0,1-0.9,1.6-3.7,1.6h-5.6c-2.9,0-3.5-0.6-3.5-3.3L110.6,9.1L110.6,9.1z
	 M122.8,11.3c4.9,3,6.4,6.8,6.4,9.4c0,1.8-0.7,3.1-1.6,3.1c-0.3,0-0.7-0.2-1.1-0.7c0.1-3.1-0.8-8.1-4.1-11.4L122.8,11.3z"/>
<path class="st0" d="M157.6,9.6l2.5,2.1c-0.2,0.2-0.6,0.4-1.2,0.5c-0.1,9.4-0.4,14.2-1.6,15.4c-0.8,0.7-1.5,1.1-3.1,1.1
	c0-1.2-0.1-1.8-2.8-2.2V26l2.4,0.1v0c-0.2,0-0.4-0.1-0.6-0.4c-0.1-0.4-0.2-0.9-0.4-1.3c-2.2,0.6-5.1,1.5-9,2.5
	c-0.1,0.4-0.4,0.6-0.7,0.7l-1.2-2.8c1.2-0.1,3.2-0.2,5.6-0.4v-3.6H145v0.8c0,0-0.3,0.7-1.9,0.7v-6.9c-0.6,0.5-1.3,1.1-2,1.5
	l-0.2-0.2c0,4,0,8.4-1.5,10.8c-0.6,0.9-1.6,1.3-3.1,1.3c0-1.8-0.3-2.2-2.1-2.5v-0.5c2.1,0,2.5,0,2.5,0v0c0.4,0,0.6-0.1,0.8-0.4
	c0.8-1.4,1.1-5.6,1.1-9.1c-1.3,1.5-3,3-4.9,4.1l-0.3-0.3c2.2-2.1,4-5.2,5-8.1c-0.2-1.5-0.4-2.9-0.8-4.2c-1.2,1.1-2.5,2.1-3.9,2.9
	l-0.3-0.4c1.2-1.2,2.5-2.7,3.6-4.2c-0.7-1.7-1.7-3.3-3.1-4.8l0.4-0.4c1.5,1.2,2.7,2.4,3.6,3.8c0.8-1.2,1.4-2.5,1.9-3.5l3,1.6
	c-0.1,0.2-0.3,0.4-0.7,0.4c-0.1,0-0.3,0-0.4,0c-0.7,1-1.7,2.2-2.8,3.4c1.4,3,1.8,6.4,1.9,10.1c1.9-2,3.7-5.3,4.7-8.2h-0.5v0.5
	c0,0-0.3,0.8-2.1,0.8V0.6l2.2,1.1h10.8l0.9-1.2l2.6,1.9c-0.2,0.2-0.5,0.4-1,0.5v5.6c0,0.1-0.6,0.8-2.2,0.8V8.2h-8.6l1.3,0.3
	c-0.1,0.3-0.3,0.5-1,0.4c-0.4,0.7-0.8,1.4-1.3,2.1h9.8L157.6,9.6z M154.2,26.1c1.1,0,1.2,0,1.5-0.3c0.8-0.9,1-5.6,1.1-14.1h-10.6
	c-0.8,1-1.6,2.1-2.5,2.9l1.4,0.6h2.6v-2.9l3,0.3c0,0.4-0.3,0.6-1.1,0.7v1.9h2.6l0.8-1.1l2.2,1.7c-0.1,0.2-0.5,0.4-0.9,0.5v4.7
	c0,0.1-0.5,0.7-1.9,0.7v-1.1h-2.8v3.5l3-0.3c-0.4-0.7-0.9-1.4-1.4-1.8l0.2-0.3c2.7,0.8,3.6,2.1,3.6,3.1
	C155.1,25.5,154.7,26,154.2,26.1L154.2,26.1L154.2,26.1z M145,20h2.7v-4H145V20z M145.2,2.4v5.1h2.5V2.4H145.2z M152,2.4h-2.5v5.1
	h2.5V2.4z M152.5,20v-4h-2.8v4H152.5z M156.4,2.4h-2.5v5.1h2.5V2.4z"/>
<path class="st0" d="M188.3,18.2l3,2.2c-0.3,0.4-0.6,0.6-1.4,0.6h-25l-0.2-0.7h22L188.3,18.2L188.3,18.2z M176.2,23.3
	c-0.1,0.3-0.4,0.4-0.9,0.4c-0.2,0-0.3,0-0.5,0c-2.2,1.8-5.9,3.9-9.7,5l-0.2-0.4c3.2-1.6,6.6-4.5,8.2-6.6L176.2,23.3z M171.8,16.8v1
	c0,0-0.3,0.9-2.3,0.9V1.2l2.5,1.2h11.7l1-1.4l2.8,2.2c-0.2,0.2-0.6,0.5-1.2,0.6v14c0,0.1-0.6,0.8-2.3,0.8v-1.7H171.8L171.8,16.8z
	 M184,3h-12.2v3.9H184V3L184,3z M171.8,11.4H184V7.5h-12.2V11.4z M171.8,16.1H184v-4h-12.2V16.1z M180.6,22.4
	c7.7,1.4,9.8,3.7,9.8,5.1c0,0.7-0.5,1.2-1.2,1.2c-0.3,0-0.7-0.2-1.1-0.5c-1.4-1.7-3.9-3.7-7.7-5.3L180.6,22.4z"/>
<path class="st0" d="M222.5,4.7c2.4,2.4,6.9,4.1,10.4,4.7l0,0.3c-1.1,0.4-2,1.2-2.1,2.2c-0.9-0.3-1.8-0.8-2.7-1.2
	c-0.1,0.1-0.2,0.1-0.4,0.1c-0.2,0-0.4-0.1-0.7-0.1c-1.2,1.4-2.8,2.8-4.7,4.2h5.6l1.4-2l2.7,2c-0.2,0.4-0.5,0.6-1.3,0.6h-9.4
	l-0.6,0.4c2.6,0.2,3.4,1.3,3.4,2.2c0,0.4-0.2,0.8-0.5,1h1.6l1-1.4l2.8,2.1c-0.2,0.2-0.6,0.5-1.2,0.6v7.5c0,0.1-0.7,0.7-2.4,0.7V27
	H215v1c0,0.2-0.7,0.8-1.9,0.8h-0.4v-8.9c-2.1,0.8-4.3,1.5-6.7,2.1l-0.1-0.5c2.4-0.8,4.8-1.7,6.8-2.8v-0.7l0.8,0.3
	c1.6-0.9,3.1-1.8,4.5-2.8h-11.2l-0.2-0.7h9.8v-3.8h-5.6l-0.1-0.6c-1.3,0.8-2.8,1.4-4.4,2l-0.2-0.5c3.8-1.8,6.4-4.5,8.2-7.3h-7.6
	L206.4,4h8.1c0.7-1.3,1.3-2.6,1.7-3.9l3.5,1.1c-0.1,0.4-0.4,0.5-1.2,0.5c-0.3,0.8-0.8,1.6-1.2,2.4h10.3l1.6-2.1l3,2.2
	c-0.2,0.4-0.6,0.6-1.4,0.6L222.5,4.7L222.5,4.7z M216.9,4.7c-1.4,2.1-3.4,4.1-6.1,5.7h5.6V6.9l3.3,0.3c0,0.4-0.3,0.6-1.1,0.7v2.3
	h2.2l1.3-1.8l2,1.6c0.4-0.5,0.8-1,1.2-1.4c-1.4-1.2-2.7-2.6-3.7-4.1H216.9L216.9,4.7z M225.7,19.7H215v2.9h10.7V19.7z M215,26.3
	h10.7v-3H215V26.3z M215.3,19.1h7.3l-0.3-0.2c-0.3-1-1.2-2.1-2.1-2.7c-1.6,1-3.3,1.9-5.2,2.8L215.3,19.1L215.3,19.1z M218.6,14.8
	h0.4c1.6-1.2,3.1-2.5,4.3-3.8h-4.7V14.8z"/>
<path class="st0" d="M247.2,10.6l2.4,1.9c-0.2,0.4-0.6,0.6-1.3,0.6h-11.1l-0.2-0.7h6.9c0.4-1.9,0.9-4.5,1.2-6.4l3.2,0.8
	c-0.1,0.4-0.4,0.5-1.1,0.5c-0.6,1.4-1.7,3.4-2.7,5h1.4L247.2,10.6L247.2,10.6z M237.6,5.4l-0.2-0.7h4.5V0.2l3.4,0.3
	c-0.1,0.4-0.3,0.6-1.1,0.8v3.5h1.5l1.3-1.9l2.4,2c-0.2,0.4-0.6,0.6-1.3,0.6L237.6,5.4L237.6,5.4z M248.7,16.7
	c-0.2,0.2-0.6,0.5-1.2,0.6v9.6c0,0.1-0.6,0.7-2.2,0.7v-1.7h-4.7v1.6c0,0.1-0.3,0.9-2.2,0.9V14.9l2.3,1.1h4.3l0.9-1.4L248.7,16.7
	L248.7,16.7z M239.4,6.2c2,1.4,2.7,2.8,2.7,4c0,1.1-0.6,1.8-1.3,1.8c-0.3,0-0.7-0.2-0.9-0.6c0-0.3,0.1-0.6,0.1-0.9
	c0-1.4-0.3-3-0.8-4L239.4,6.2L239.4,6.2z M245.4,16.7h-4.7v3.9h4.7V16.7z M240.7,25.2h4.7v-4h-4.7V25.2z M255.8,24.9
	c-0.1,0.2-0.3,0.3-0.5,0.3c-0.1,0-0.3,0-0.5-0.1c-1.6,1.4-4.5,2.9-7.3,3.7l-0.3-0.5c2.3-1.3,4.7-3.5,5.9-5.2L255.8,24.9L255.8,24.9z
	 M252.4,22.3v0.6c0,0.1-0.3,0.9-2.2,0.9V9.5l2.4,1.1h7.1l1-1.4l2.7,2.1c-0.2,0.2-0.6,0.5-1.1,0.6v10.9c0,0.1-0.6,0.7-2.3,0.7v-1.2
	L252.4,22.3L252.4,22.3z M253,7.6v0.7c0,0-0.3,0.8-2.2,0.8v-8l2.4,1.1h5.8l0.9-1.3l2.8,2c-0.2,0.2-0.6,0.5-1.2,0.6v4.7
	c0,0.1-0.6,0.7-2.2,0.7V7.6L253,7.6L253,7.6z M259.9,11.3h-7.5v2.9h7.5V11.3z M259.9,17.9v-3h-7.5v3H259.9z M252.4,21.6h7.5v-3h-7.5
	V21.6z M259.3,2.9H253v4.1h6.2V2.9L259.3,2.9z M257.1,23.5c5,0.9,6.5,2.7,6.5,3.9c0,0.7-0.6,1.3-1.2,1.3c-0.4,0-0.8-0.2-1.1-0.6
	c-0.7-1.3-2.1-2.9-4.4-4.2L257.1,23.5L257.1,23.5z"/>
<path class="st0" d="M277,15.7l1-1.4l2.7,2.1c-0.2,0.2-0.6,0.5-1.2,0.6v10.3c0,0.1-0.6,0.8-2.2,0.8V26h-5.5v1.8c0,0-0.3,0.9-2.2,0.9
	V14.6l2.4,1.1L277,15.7L277,15.7z M271.8,25.3h5.5v-8.9h-5.5V25.3z M276.3,11.3v1.1c0,0-0.3,0.9-2.2,0.9V1l2.4,1.1h9.7l1-1.4
	l2.8,2.1c-0.2,0.2-0.6,0.5-1.2,0.6v9c0,0.1-0.6,0.8-2.3,0.8v-1.8L276.3,11.3L276.3,11.3z M286.4,2.8h-10.1v7.9h10.1V2.8L286.4,2.8z
	 M291.7,14.3l2.8,2.1c-0.2,0.2-0.6,0.5-1.2,0.6v10.5c0,0.1-0.7,0.7-2.3,0.7V26H285v1.8c0,0-0.3,0.9-2.2,0.9V14.6l2.4,1.1h5.5
	L291.7,14.3L291.7,14.3z M285,25.3h5.9v-8.9H285V25.3z"/>
<path class="st0" d="M326.1,8.6c-0.2,0.5-0.5,0.6-1.3,0.6H319c0.1,2.8,0.4,5.8,1,8.5c0.7-1.9,1.3-3.9,1.7-6.1l3.2,1
	c-0.1,0.4-0.3,0.6-1.1,0.6c-0.8,2.9-1.8,5.4-3.1,7.6c0.6,2,1.6,3.7,2.8,4.6c0.2,0.1,0.3,0.2,0.4,0.2c0.3,0,1.1-2.4,1.4-3.3l0.3,0.1
	l-0.5,4.1c0.4,0.6,0.8,1.2,0.8,1.6c0,0.4-0.4,0.7-0.9,0.7c-0.8,0-3.6-1-5.5-5.9c-2,2.7-4.4,4.6-7.3,5.8l-0.3-0.4
	c1.5-0.9,2.9-2.1,4.2-3.6h-6.3v1.6c0,0.2-0.6,0.6-1.5,0.6h-0.3V11.2l2.1,1h3.8l1-1.6l2.1,1.6c-0.2,0.4-0.6,0.6-1.3,0.6H313v3h1.1
	l0.7-1l2.2,1.6c-0.1,0.2-0.5,0.4-1,0.5v3.9c0,0.1-0.5,0.6-1.7,0.6v-0.9H313V24h1.1l1.1-1.6l1.5,1.2c0.7-0.9,1.3-1.9,1.9-2.9
	c-0.9-3.4-1.4-7.4-1.7-11.4h-10.4v5.4c0,4.2-0.2,10-3.5,14l-0.4-0.3c1.3-2.9,1.7-6.2,1.9-9.5h-1.6c-0.1,3.3-0.7,7-3.5,9.7l-0.5-0.5
	c1.8-2.9,2-6.3,2.1-9.2h-1.7l-0.2-0.7h5.4c0-1.2,0-2.3,0-3.6h-2.2v1.1c0,0.1-0.3,0.6-1.9,0.6V8.1l2.9,0.2c0,0.4-0.3,0.6-1.1,0.7v4.8
	h2.2V7.5l2.4,1.1h10c-0.1-0.7-0.1-1.4-0.1-2c-0.3,0.1-0.6,0.1-1.1,0.1V4H309v2.1c0,0.1-0.3,0.6-2.2,0.6V4h-7.4l-0.2-0.7h7.5V0.2
	l3.4,0.3C310,0.9,309.8,1,309,1.2v2.2h6.7V0.2l3.4,0.3c0,0.5-0.3,0.6-1.1,0.7v2.2h3.7l1.4-2l2.7,2.1C325.3,3.9,325,4,324.3,4h-6.4
	v1.2l2,0.2c0,0.4-0.3,0.5-1,0.7c0,0.8,0,1.6,0.1,2.5h3.5l1.2-1.7L326.1,8.6L326.1,8.6z M311.3,12.9h-1.7v3h1.7V12.9z M314.3,16.6
	h-4.7v3.3h4.7V16.6z M309.6,20.7V24h1.7v-3.4H309.6z M320.1,4.7c2.3,0.3,3.1,1.2,3.1,2c0,0.6-0.5,1.1-1,1.1c-0.3,0-0.5-0.1-0.7-0.3
	c-0.3-0.9-0.9-1.9-1.6-2.5L320.1,4.7L320.1,4.7z"/>
</svg>
