<svg width="1920" height="132" viewBox="0 0 1920 132" fill="none" xmlns="http://www.w3.org/2000/svg">
<g clip-path="url(#clip0_538_238167)">
<path d="M1920 132V0L0 0V132L1920 132Z" fill="url(#paint0_linear_538_238167)"/>
<path d="M1194.93 49.7422V85.2042" stroke="#703E1E" stroke-width="0.25" stroke-miterlimit="10"/>
<path d="M554 68.3932C556.871 63.3837 559.92 54.5133 561.663 46.2171L566.474 47.7021C566.316 48.2169 566.038 48.5535 564.969 48.5139C564.019 51.5631 562.87 54.5727 561.623 57.3447L563.128 57.9387C563.009 58.3149 562.653 58.6119 561.94 58.7505V84.6292C561.9 84.8866 560.593 85.6984 559.366 85.6984H558.811V62.8293C557.465 65.1261 556.039 67.1062 554.554 68.809L554 68.4328V68.3932ZM582.255 66.0964C588.017 66.3142 589.878 68.6902 589.878 70.294C589.878 71.185 589.363 71.8582 588.571 71.8582C588.373 71.8582 588.175 71.8186 587.977 71.7394L591.442 74.3728C591.125 74.9668 590.69 75.1846 589.581 75.1846H583.304V81.4216C583.304 83.8768 582.789 85.4608 578.849 85.837C578.849 83.5798 577.938 83.1244 575.028 82.8274V82.2334H579.443C580.037 82.2334 580.196 82.0156 580.196 81.4612V75.1846H564.613L564.375 74.254H580.196V70.4722L584.849 70.8088C584.809 71.3632 584.571 71.6206 583.304 71.779V74.2342H586.037L587.898 71.68L587.621 71.5612C587.145 70.789 586.433 69.9574 585.601 69.1456C581.146 69.8584 575.265 70.6306 567.325 71.6404C567.088 72.1948 566.652 72.4522 566.217 72.5314L564.831 68.6308C567.127 68.6704 571.147 68.6308 575.998 68.4526V64.8093H570.632V65.6211C570.632 65.6211 570.157 66.8092 567.484 66.8092V53.5827L570.87 55.1469H575.998V51.6621H565.504L565.266 50.7315H575.998V46.1973L580.928 46.6725C580.889 47.3457 580.413 47.6031 579.146 47.8209V50.7513H585.106L587.126 47.9991L590.947 50.8503C590.63 51.4839 590.155 51.7017 589.046 51.7017H579.146V55.1865H584.274L585.581 53.3649L589.323 56.1171C589.086 56.4141 588.492 56.7507 587.819 56.9289V65.2053C587.819 65.2053 586.829 65.9775 584.631 65.9775V64.8687H579.146V68.4328L584.512 68.2546C583.72 67.621 582.888 67.027 582.096 66.6508L582.215 66.136L582.255 66.0964ZM568.256 75.8974C572.83 76.7092 574.295 78.61 574.295 80.095C574.295 81.1642 573.503 81.9562 572.632 81.9562C572.196 81.9562 571.721 81.778 571.285 81.3226C570.85 79.5802 569.464 77.4616 568.018 76.2736L568.256 75.8974ZM576.037 56.0973H570.672V59.4831H576.037V56.0973ZM570.672 63.8589H576.037V60.4137H570.672V63.8589ZM584.67 56.0973H579.186V59.4831H584.67V56.0973ZM579.186 63.8589H584.67V60.4137H579.186V63.8589Z" fill="#F8F7F0"/>
<path d="M618.806 59.5433C619.518 62.9885 620.667 65.9981 622.152 68.5721C624.449 66.5327 626.963 63.8201 628.23 61.9589L631.933 64.5527C631.735 64.8497 631.537 65.0279 631.141 65.0279C630.943 65.0279 630.705 64.9883 630.428 64.9091C628.567 66.3545 625.538 68.1761 622.647 69.4829C625.439 73.8983 629.319 77.0861 633.972 79.1057L633.854 79.5809C632.468 79.6998 631.319 80.7294 630.705 82.3728C623.676 77.9573 619.657 70.8689 617.954 59.5433H617.123C615.737 60.8501 614.093 62.0381 612.272 63.1073C617.321 66.9287 619.261 72.5717 619.261 77.1851C619.261 80.1551 618.469 82.7094 617.123 84.0954C616.212 85.1646 614.707 85.6596 612.588 85.6596C612.509 83.1648 611.321 82.8678 608.529 82.4322V81.7986C610.113 81.8382 612.39 81.8382 613.38 81.8382C613.895 81.8382 614.37 81.7986 614.648 81.5016C615.598 80.4323 616.113 78.4127 616.113 75.9377C616.113 75.5219 616.113 75.0467 616.073 74.5715C611.143 77.9573 604.035 80.8086 597.323 82.0362L597.125 81.3234C603.995 79.2839 611.242 75.2249 615.36 70.7105C615.162 69.9383 614.846 69.1463 614.529 68.3345C610.193 70.9679 603.758 73.6409 598.075 74.9477L597.877 74.2745C603.243 72.3143 609.401 68.7503 612.945 65.4041C612.509 64.7705 611.994 64.1369 611.48 63.5033C607.777 65.5427 603.342 67.1465 598.808 68.2157L598.53 67.5029C603.857 65.6021 608.985 62.6321 612.45 59.5235H603.223L602.985 58.5929H621.974L623.954 55.9198L627.617 58.7117C627.3 59.3057 626.825 59.5235 625.755 59.5235H618.766L618.806 59.5433ZM627.399 58.1375C627.874 56.9494 628.547 54.712 628.943 53.0488H603.104C603.104 56.7712 601.005 58.6919 599.085 58.6919C597.897 58.6919 597.342 58.0187 597.342 57.1672C597.342 56.3554 597.897 55.6426 598.649 55.207C600.352 54.4942 602.035 52.3162 602.035 49.8214L602.669 49.7818C602.906 50.6332 603.025 51.3856 603.065 52.1182H613.915V46L618.964 46.5148C618.924 47.1484 618.528 47.4454 617.182 47.6632V52.1182H628.706L630.606 50.0392L633.953 53.524C633.636 53.8606 633.2 53.9398 632.408 53.9992C631.299 55.405 629.379 57.4444 627.874 58.4939L627.399 58.1573V58.1375Z" fill="#F8F7F0"/>
<path d="M668.266 65.1662H658.96C660.584 71.4824 665.277 78.056 676.998 82.2536L676.919 82.7684C675.216 83.0258 674.127 83.7782 673.81 85.7384C662.881 80.5706 659.534 72.215 658.228 65.1662H650.248C649.773 72.215 647.872 80.0954 640.823 85.6989L640.309 85.283C646.268 78.0362 647.179 69.1262 647.179 60.5131V48.9697L650.921 50.5735H667.89L669.276 48.6133L673.137 51.5437C672.86 51.8803 672.266 52.2565 671.474 52.4347V66.5126C671.474 66.6314 670.484 67.5224 668.286 67.5224V65.1464L668.266 65.1662ZM650.347 51.5041V60.4933C650.347 61.6813 650.347 62.9485 650.268 64.2158H668.266V51.4843H650.347V51.5041Z" fill="#F8F7F0"/>
<path d="M690.086 60.2966V63.0884C690.086 70.0779 689.77 79.3839 683.77 85.7397L683.216 85.3239C686.681 78.7899 686.958 70.6125 686.958 63.1478V50.9708L690.621 52.5746H701.036V46.2188L705.966 46.694C705.887 47.3276 705.451 47.6246 704.145 47.8424V52.5944H714.084L716.143 49.664L719.965 52.6736C719.648 53.2676 719.173 53.525 718.024 53.525H690.047V59.3858H696.482V54.8516L701.174 55.2674C701.095 55.8218 700.739 56.1584 699.591 56.2772V59.366H708.382V54.8318L713.035 55.2476C712.995 55.802 712.639 56.099 711.53 56.2178V59.366H714.163L716.064 56.6534L719.569 59.4452C719.292 60.0788 718.816 60.2966 717.708 60.2966H711.51V68.1374C711.51 68.2562 710.916 69.2463 708.362 69.2463V67.1276H699.571V68.3949C699.571 68.3949 699.016 69.5037 696.462 69.5037V60.2966H690.027H690.086ZM712.104 69.2859L715.252 72.4737C714.896 72.8499 714.46 72.9885 713.47 73.0281C711.728 75.5823 709.53 77.7009 706.837 79.4235C710.738 80.8689 715.272 81.6807 720.024 82.0569L719.985 82.5717C718.599 82.9083 717.688 84.0567 717.411 85.7199C712.203 84.8289 707.629 83.4231 703.867 81.1461C699.452 83.3439 694.126 84.7893 688.007 85.6407L687.809 84.9279C693.175 83.7795 697.947 82.1361 701.848 79.7601C699.313 77.7999 697.234 75.3447 695.729 72.2163H691.274L690.997 71.2857H709.946L712.084 69.3255L712.104 69.2859ZM696.719 72.1767C698.462 74.7705 701.016 76.7505 704.105 78.2949C706.481 76.5525 708.441 74.5131 709.906 72.1767H696.719ZM708.441 60.2966H699.65V66.1574H708.441V60.2966Z" fill="#F8F7F0"/>
<path d="M727.31 86.0961C728.696 85.3239 729.765 83.9379 730.102 81.9777C729.904 82.0173 729.706 82.0569 729.468 82.0569C728.043 82.0569 726.795 80.7897 726.795 79.0473C726.795 77.3049 728.142 75.998 729.567 75.998C731.231 75.998 732.636 77.4039 732.636 79.6413C732.636 82.5717 730.775 85.8783 727.983 86.9871L727.31 86.0961Z" fill="#F8F7F0"/>
<path d="M751.921 72.8106C752.317 74.7114 752.476 76.2558 752.476 77.5626C752.476 81.2454 751.09 82.6117 750.06 82.6117C749.426 82.6117 748.912 82.0969 748.912 81.384C748.912 81.0078 749.03 80.5722 749.308 80.1168C750.535 78.8892 751.208 76.2558 751.288 72.8106H751.921ZM761.623 67.2072L762.97 65.4648L766.197 68.1774C765.92 68.514 765.445 68.6922 764.653 68.8506C764.336 78.4338 763.742 83.1067 762.197 84.4531C761.207 85.2649 760.178 85.6015 758.455 85.6411C758.455 83.6413 757.822 83.4433 755.267 82.9681L755.307 82.2552C756.337 82.2948 758.336 82.3741 759.128 82.3741C759.762 82.3741 760 82.3344 760.316 82.0374C760.91 81.4038 761.306 79.3248 761.623 75.543C761.425 75.8004 761.188 75.9192 760.871 75.9192C760.633 75.9192 760.316 75.8004 760.039 75.543C759.881 74.0976 758.772 72.1968 757.703 71.2068L758.02 70.8306C760.237 71.5434 761.326 72.6126 761.722 73.6224C761.841 72.0186 761.92 70.1772 761.96 68.1576H753.802V69.5238C753.802 69.7416 752.931 70.494 751.545 70.494H751.109V47.8823L754.258 49.3277H760.653L762.395 46.9517L765.742 49.4465C765.425 50.0405 764.91 50.2583 763.88 50.2583H759.386V55.1687H760.495L762.039 53.0105L764.989 55.3073C764.672 55.9013 764.197 56.1191 763.168 56.1191H759.386V61.089H760.376L761.92 58.9307L764.871 61.2276C764.554 61.8216 764.079 62.079 763.049 62.079H759.386V67.2072H761.603H761.623ZM753.802 72.5136C755.386 74.5926 755.941 76.5924 755.941 78.0774C755.941 79.8198 755.228 80.9286 754.475 80.9286C754.159 80.9286 753.842 80.7108 753.565 80.295C754.079 77.9982 753.802 74.7312 753.248 72.7116L753.802 72.5334V72.5136ZM756.752 50.2781H753.802V55.1885H756.752V50.2781ZM756.752 61.089V56.1191H753.802V61.089H756.752ZM753.802 62.0592V67.1874H756.752V62.0592H753.802ZM755.861 71.7216C758.356 73.6818 759.168 75.6618 759.168 77.0676C759.168 78.1764 758.614 78.8892 758.02 78.8892C757.742 78.8892 757.426 78.711 757.148 78.3744C757.188 76.3746 756.317 73.6224 755.366 71.979L755.842 71.7216H755.861ZM786.433 54.2975C786.156 54.8915 785.641 55.1093 784.572 55.1093H778.968C780.909 57.1883 784.096 58.7921 786.75 59.5644L786.71 60.0395C785.641 60.2177 784.888 61.0494 784.611 62.4948C783.621 61.9404 782.631 61.2276 781.72 60.3366C781.522 60.5148 781.245 60.6732 780.928 60.7128V66.0984C780.928 66.2172 780.176 66.9894 778.255 66.9894V65.544H772.375V66.2568C772.375 66.2568 771.939 67.227 769.682 67.227V59.9208C768.256 61.188 766.692 62.376 764.871 63.4056L764.435 62.6928C767.167 60.5742 769.326 58.0199 770.91 55.0895H765.465L765.187 54.1589H771.424C771.979 53.0105 772.494 51.7829 772.929 50.5157C770.83 50.7335 768.712 50.8523 766.692 50.8919L766.534 50.1197C771.543 49.3079 777.859 47.6249 781.206 46.3379L784.077 49.4861C783.879 49.6049 783.641 49.7039 783.364 49.7039C783.007 49.7039 782.572 49.5851 782.057 49.3673C780.354 49.6643 778.275 49.9613 776.058 50.2187C775.582 51.6245 774.988 52.9313 774.276 54.1589H781.027L782.889 51.6641L786.393 54.2975H786.433ZM781.384 68.8506L782.611 67.1082L786.116 69.7812C785.878 70.1178 785.245 70.4148 784.532 70.593V81.4434C784.532 83.7403 784.017 85.3837 780.592 85.7797C780.592 83.3245 779.641 82.8492 777.166 82.6314V82.0374H781.107C781.621 82.0374 781.74 81.8592 781.74 81.3642V69.7812H769.108V84.6709C769.108 84.6709 768.791 85.7401 766.375 85.7401V67.4646L769.286 68.8704H781.364L781.384 68.8506ZM780.552 59.1287C779.483 57.9407 778.572 56.5745 777.82 55.0895H773.761C772.969 56.3567 772.018 57.5447 770.989 58.6535L772.573 59.3663H778.018L779.008 57.9605L780.552 59.1089V59.1287ZM777.206 79.3644H773.543V80.9286C773.543 80.9286 773.147 81.7405 771.325 81.7405V71.5236L773.701 72.672H776.929L777.84 71.4444L780.513 73.4442C780.315 73.7016 779.879 73.9194 779.404 74.0382V79.9782C779.404 79.9782 778.691 80.8296 777.186 80.8296V79.3842L777.206 79.3644ZM772.395 64.554H778.275V60.3168H772.395V64.554ZM777.206 73.6224H773.543V78.3744H777.206V73.6224Z" fill="#F8F7F0"/>
<path d="M791.958 68.0574C794.413 62.9688 796.927 54.1775 798.393 46.2179L803.006 47.4851C802.887 48.0395 802.57 48.2969 801.541 48.3365C800.67 51.3857 799.68 54.4349 798.551 57.2861L800.293 57.9989C800.175 58.3751 799.818 58.6721 799.105 58.7711V84.6894C799.066 84.9072 797.799 85.6597 796.65 85.6597H796.096V62.6717C794.987 64.83 793.759 66.7902 792.512 68.394L791.958 68.0574ZM812.233 70.1364L815.5 72.7698C815.262 73.1064 814.787 73.3242 814.035 73.443C813.757 83.6994 813.203 85.3627 808.708 85.4815C808.708 83.5806 808.035 83.145 805.917 82.7688V82.0956C806.748 82.1352 808.51 82.1748 809.184 82.1748C809.698 82.1748 809.976 82.1352 810.174 81.9174C810.768 81.2838 811.045 78.5712 811.243 72.75H807.501C806.59 77.8386 804.729 82.7688 800.828 85.6794L800.392 85.0062C803.857 81.1056 804.966 74.1558 805.045 67.6218H801.343L801.105 66.6516H806.827V60.6323L811.322 61.0481C811.282 61.6421 810.926 61.8995 809.817 62.0579V66.6318H811.52L813.302 64.1369L816.648 66.7704C816.371 67.3644 815.856 67.6218 814.827 67.6218H809.461C809.263 67.9188 808.827 68.0376 808.075 68.097C807.996 69.3246 807.837 70.5522 807.639 71.8392H810.867L812.213 70.1364H812.233ZM829.795 55.5833C829.479 56.1773 828.964 56.3951 827.934 56.3951H827.34C826.746 63.3846 825.637 69.582 823.162 74.8092C824.865 77.9574 827.023 80.6304 829.835 82.6104L829.716 82.9866C828.251 83.2836 827.221 84.135 826.766 85.6993C824.548 83.5014 822.905 80.7888 821.598 77.6406C819.658 80.7294 817.104 83.4618 813.619 85.6993L813.302 85.0657C816.609 82.2144 818.945 78.789 820.608 74.8488C819.262 70.6908 818.509 65.9784 818.074 60.9689C817.242 62.6717 816.331 64.1568 815.341 65.424L814.708 65.0478C815.381 63.5628 816.015 61.6025 816.569 59.4443C816.252 59.8205 815.817 59.9987 814.985 59.9987H801.521L801.283 59.0681H807.045V53.0489H802.511L802.273 52.1183H807.045V46.2575L811.579 46.6733C811.5 47.2673 811.144 47.5247 810.035 47.6831V52.0985H811.223L812.926 49.6037L816.114 52.1975C815.797 52.8311 815.322 53.0489 814.292 53.0489H810.035V59.0681H811.857L813.559 56.5139L816.668 59.0681C817.579 55.2071 818.292 50.5937 818.608 46.1387L823.301 47.1089C823.182 47.6633 822.905 47.9603 821.915 48.0395C821.44 50.6333 820.846 53.1281 820.133 55.4645H824.548L826.33 52.7519L829.756 55.6031L829.795 55.5833ZM819.856 56.3951C819.499 57.4643 819.143 58.4741 818.707 59.4839C819.301 63.8994 820.291 68.0574 821.697 71.661C823.123 67.1268 823.836 61.9985 824.192 56.3951H819.856Z" fill="#F8F7F0"/>
<path d="M865.416 54.4339L868.762 57.7801C868.445 58.1563 868.049 58.2949 867.019 58.3345C862.168 65.7596 854.229 73.2242 845.081 78.095C847.754 80.5502 851.595 80.9462 857.476 80.9462C860.782 80.9462 868.762 80.9462 872.227 80.867V81.4214C871.039 81.6788 870.445 82.8272 870.366 84.2132H857.337C849.397 84.2132 845.338 82.7282 842.507 75.8576C841.398 78.2336 839.854 81.5006 838.963 83.243C839.161 83.5004 839.24 83.7578 839.24 84.0152C839.24 84.3518 839.121 84.6488 838.923 84.9062L835.735 81.6788C837.399 80.1146 840.23 77.0654 841.893 74.927L842.646 71.5412L844.705 72.0956L842.844 75.1448C843.358 76.0754 843.913 76.8872 844.507 77.5208C851.932 72.4718 859.218 64.7102 863.218 57.5029H838.131L837.854 56.5723H852.13V46.3555L857.179 46.8307C857.139 47.5039 856.704 47.8009 855.397 47.9791V56.5921H863.257L865.435 54.4735L865.416 54.4339Z" fill="#F8F7F0"/>
<path d="M888.8 79.3824C891.75 77.8182 894.799 74.8878 896.185 72.8088L900.165 75.066C900.007 75.4026 899.65 75.5412 899.096 75.5412C898.858 75.5412 898.581 75.5412 898.264 75.462C896.284 77.1648 892.74 78.9864 889.275 79.9566C891.572 81.2238 894.522 81.4812 899.452 81.4812C904.382 81.4812 910.501 81.4416 915.431 81.2634V81.8574C914.084 82.1544 913.292 83.085 913.134 84.7087H899.472C892.047 84.7087 888.82 83.5998 886.008 78.432C884.543 80.4318 882.266 83.1444 880.801 84.6295C880.88 85.1839 880.682 85.4413 880.365 85.6393L878.266 81.6594C879.613 81.0654 881.573 79.917 883.513 78.729V65.6214H878.623L878.464 64.6116H882.959L884.701 62.1563L888.443 65.5026C888.166 65.8392 887.572 66.1758 886.503 66.354V77.64C887.255 78.5706 888.047 79.2438 888.919 79.7982L888.76 79.422L888.8 79.3824ZM879.533 47.4845C884.978 49.1477 886.721 51.9395 886.721 53.9393C886.721 55.2461 885.929 56.2361 884.978 56.2361C884.543 56.2361 884.068 56.0183 883.592 55.5629C883.196 52.9295 881.216 49.6625 879.217 47.8409L879.533 47.5043V47.4845ZM896.185 49.1477H888.523L888.245 48.2171H895.829L897.017 46.6529L900.323 49.1081C900.125 49.4051 899.611 49.7021 898.977 49.8209V54.3947C898.977 54.3947 898.106 55.3253 896.165 55.3253V54.0581H891.908V57.1469C891.908 57.6881 892.212 57.9587 892.819 57.9587H897.195C898.343 57.9587 898.581 57.9587 899.611 55.6223H899.927L900.007 57.7409C901.036 58.1171 901.234 58.2161 901.234 58.6715C901.234 59.7803 900.284 60.4139 897.452 60.4139H892.483C889.612 60.4139 889.216 59.7011 889.216 57.0677V51.6425L892.403 53.0879H896.185V49.1477ZM911.609 68.9082L915.272 71.6604C914.956 72.294 914.52 72.5118 913.411 72.5118H888.562L888.325 71.5416H895.116V66.156H890.107L889.869 65.2254H895.116V61.0277L899.373 61.404C899.333 61.8792 899.056 62.0772 898.145 62.2158V65.2254H904.026V61.0277L908.323 61.404C908.283 61.8792 908.006 62.0772 907.095 62.2554V65.2254H908.481L910.263 62.8098L913.649 65.364C913.332 65.958 912.896 66.1758 911.827 66.1758H907.095V71.5614H909.689L911.59 68.928L911.609 68.9082ZM898.145 66.156V71.5416H904.026V66.156H898.145ZM909.867 49.1477H901.927L901.65 48.2171H909.511L910.659 46.6133L914.045 49.1675C913.847 49.4249 913.332 49.7219 912.698 49.8407V54.4145C912.698 54.4145 911.827 55.3451 909.867 55.3451V54.0779H905.372V57.1667C905.372 57.7079 905.702 57.9785 906.362 57.9785H911.095C912.124 57.9785 912.56 57.9785 913.55 55.4837H913.906V57.7805C915.015 58.1567 915.173 58.2557 915.173 58.7111C915.173 59.8199 914.223 60.4931 911.312 60.4931H906.026C903.115 60.4931 902.68 59.7209 902.68 57.1073V51.6821L905.867 53.1275H909.887V49.1873L909.867 49.1477ZM903.472 73.581C911.411 74.5908 913.688 76.8876 913.688 78.4518C913.688 79.3824 912.857 80.115 911.867 80.115C911.352 80.115 910.798 79.8972 910.322 79.4418C909.095 77.7786 906.699 75.7986 903.214 74.2146L903.452 73.581H903.472Z" fill="#F8F7F0"/>
<path d="M1226.37 58.8133L1228.49 60.2785C1228.35 60.5557 1228.11 60.6745 1227.52 60.6745H1219.98V68.0204C1219.98 68.1392 1219.44 68.5352 1218.59 68.5352H1218.31V60.6547H1209.96L1209.84 60.1993H1218.31V51.9823H1211.15L1211.03 51.5467H1224.23L1225.38 50.1211L1227.5 51.5863C1227.34 51.8833 1227.1 51.9823 1226.51 51.9823H1219.98V60.1993H1225.24L1226.37 58.7935V58.8133ZM1212.81 53.1901C1215.11 54.7741 1215.86 56.4373 1215.86 57.5857C1215.86 58.4569 1215.4 59.0707 1214.87 59.0707C1214.63 59.0707 1214.39 58.9321 1214.15 58.6747C1214.19 56.9917 1213.42 54.7147 1212.55 53.3485L1212.81 53.2099V53.1901ZM1226.51 53.7643C1226.43 54.0019 1226.25 54.1207 1225.76 54.1009C1224.75 56.0215 1223.48 58.0015 1222.23 59.3083L1221.94 59.1499C1222.63 57.6451 1223.52 55.1701 1224.11 52.9327L1226.51 53.7445V53.7643Z" fill="#703E1E"/>
<path d="M1251.42 51.7057C1251.26 51.9829 1251.02 52.1017 1250.45 52.1017H1243.08C1242.43 53.3491 1241.54 54.8539 1240.85 55.8439H1247.83L1248.61 54.8341L1250.53 56.2993C1250.39 56.4577 1250.15 56.5765 1249.7 56.6557V67.8428C1249.7 67.9418 1249.1 68.318 1248.31 68.318H1248.03V67.0508H1235.95V68.0012C1235.95 68.12 1235.46 68.516 1234.63 68.516H1234.35V55.0915L1236.19 55.8241H1240.23C1240.41 54.8143 1240.65 53.2699 1240.81 52.0819H1232.87L1232.75 51.6463H1248.17L1249.28 50.2207L1251.4 51.6859L1251.42 51.7057ZM1235.95 56.2993V66.635H1238.92V56.2993H1235.95ZM1243.5 59.3881V56.2993H1240.43V59.3881H1243.5ZM1243.5 62.9522V59.8238H1240.43V62.9522H1243.5ZM1240.43 63.4076V66.635H1243.5V63.4076H1240.43ZM1248.01 56.2993H1245V66.635H1248.01V56.2993Z" fill="#703E1E"/>
<path d="M1262.74 51.3278L1263.71 50.0605L1265.48 51.3872C1265.32 51.6644 1265.08 51.7634 1264.53 51.7634H1262.03V55.3472H1262.7L1263.38 54.4958L1265.16 55.8026C1265.04 55.961 1264.72 56.1194 1264.35 56.1986V67.346C1264.35 67.346 1263.95 67.841 1262.9 67.841V66.6332H1257.7V67.9796C1257.7 67.9796 1257.54 68.534 1256.31 68.534V54.6542L1257.81 55.3274H1258.51V51.7436H1255.56L1255.44 51.308H1262.72L1262.74 51.3278ZM1262.9 60.515C1262.72 60.5546 1262.51 60.5744 1262.23 60.5744C1260.86 60.5744 1260.78 60.5744 1260.78 59.03V55.8026H1259.71V56.555C1259.71 57.9608 1259.6 60.119 1257.81 61.604L1257.7 61.4852V62.8118H1262.9V60.515ZM1258.69 55.8026H1257.7V61.109C1258.65 59.5844 1258.69 57.8618 1258.69 56.5352V55.8026ZM1257.7 66.1976H1262.9V63.2474H1257.7V66.1976ZM1260.78 55.3472V51.7634H1259.71V55.3472H1260.78ZM1262.9 55.8026H1261.83V59.426C1261.83 59.558 1261.85 59.624 1261.89 59.624C1262.25 59.624 1262.37 59.624 1262.65 59.129H1262.78L1262.88 59.6042V55.8026H1262.9ZM1273.59 63.386L1273.56 66.3956C1274.23 66.6332 1274.35 66.6926 1274.35 66.9302C1274.35 67.544 1273.77 67.9202 1271.93 67.9202H1268.13C1266.29 67.9202 1265.91 67.5638 1265.91 65.9204V57.6242L1267.69 58.3568H1271.52V51.8624H1265.77L1265.64 51.4268H1271.28L1271.99 50.4566L1273.99 51.9218C1273.85 52.1 1273.48 52.2782 1273 52.3574V59.4458C1273 59.4458 1272.53 59.9012 1271.5 59.9012V58.7726H1267.44V65.9006C1267.44 66.4748 1267.46 66.5144 1268.17 66.5144H1271.79C1272.17 66.5144 1272.39 66.5144 1272.57 66.1976C1272.74 65.8808 1273.02 64.9304 1273.36 63.3464H1273.56L1273.59 63.386Z" fill="#703E1E"/>
<path d="M1295.2 55.169L1297.08 56.3768C1296.92 56.654 1296.68 56.7728 1296.11 56.7728H1288.42C1288.33 57.3866 1288.21 58.0202 1288.13 58.5152H1292.33L1293.02 57.5846L1294.96 58.9706C1294.82 59.129 1294.52 59.2874 1294.09 59.3666V65.5046C1294.09 65.5046 1293.63 66.0194 1292.5 66.0194V65.2274H1285.04V65.5838C1285.04 65.5838 1284.84 66.158 1283.47 66.158V57.7628L1285.18 58.4954H1286.84C1286.86 58.0202 1286.9 57.3866 1286.94 56.753H1278.54L1278.43 56.2976H1286.96L1287.02 54.5156H1281.61V54.8918C1281.61 54.8918 1281.36 55.4264 1280.03 55.4264V50.2585L1281.75 50.9714H1293.61L1294.29 50.0605L1296.25 51.4268C1296.11 51.5852 1295.79 51.7436 1295.37 51.8426V54.8522C1295.37 54.8522 1294.9 55.2878 1293.79 55.2878V54.4958H1288.74L1289.38 54.5552C1289.34 54.8522 1289.16 55.0106 1288.66 55.07C1288.6 55.4264 1288.54 55.8422 1288.46 56.2778H1294.19L1295.16 55.1294L1295.2 55.169ZM1293.99 66.8708L1295.02 65.5442L1296.94 66.9104C1296.78 67.1876 1296.54 67.3064 1295.95 67.3064H1281.38V68.0192C1281.38 68.0192 1281.12 68.4944 1279.81 68.4944V58.3568L1282.11 58.5548C1282.09 58.8122 1281.93 58.9508 1281.38 59.0102V66.851H1293.99V66.8708ZM1281.63 51.4466V54.08H1284.64V51.4466H1281.63ZM1292.52 58.9508H1285.06V60.5744H1292.52V58.9508ZM1285.06 61.01V62.6534H1292.52V61.01H1285.06ZM1285.06 64.772H1292.52V63.089H1285.06V64.772ZM1289.22 51.4268H1286.11V54.0602H1289.22V51.4268ZM1293.83 51.4268H1290.7V54.0602H1293.83V51.4268Z" fill="#703E1E"/>
<path d="M1317.81 56.8722C1317.57 56.4564 1317.27 56.0802 1317 55.7832L1317.16 55.6248C1319.06 56.1594 1319.65 57.0504 1319.65 57.7236C1319.65 58.1988 1319.33 58.575 1318.94 58.575C1318.76 58.575 1318.56 58.4958 1318.38 58.3176C1318.34 58.0206 1318.22 57.6642 1318.07 57.3078C1317.12 57.5454 1315.85 57.8226 1314.13 58.179C1314.09 58.2582 1314.05 58.3176 1313.99 58.377C1315.77 59.4462 1317.91 60.2778 1320.18 60.7926L1320.14 61.0896C1319.47 61.3074 1319.06 61.8816 1318.9 62.4954C1315.35 61.1688 1312.44 59.0502 1310.82 56.3574C1309 58.773 1305.41 61.5054 1301.18 62.8716L1301.06 62.5746C1303.37 61.4856 1305.59 59.8818 1307.24 58.179C1307.16 58.1196 1307.06 58.0602 1306.98 57.9612C1306.98 57.7632 1306.9 57.5652 1306.82 57.3474C1305.85 57.585 1304.52 57.9018 1302.78 58.3176C1302.66 58.575 1302.48 58.6938 1302.29 58.7136L1301.53 57.0702C1301.93 57.0702 1302.52 57.0702 1303.22 57.0504C1303.63 56.1792 1304.07 55.0902 1304.32 54.1992L1303.93 54.2388C1303.79 54.4764 1303.59 54.615 1303.39 54.6546L1302.38 52.7538C1303.49 52.7736 1305 52.7736 1306.28 52.7538C1306.76 51.8034 1307.26 50.6747 1307.55 49.7441L1309.85 50.6351C1309.77 50.7935 1309.63 50.8727 1309.37 50.8727C1309.29 50.8727 1309.2 50.8727 1309.1 50.8529C1308.62 51.4271 1307.89 52.14 1307.16 52.734C1309.39 52.734 1312.07 52.6746 1314.92 52.6152C1314.01 52.041 1313.06 51.5261 1312.21 51.2093L1312.24 50.9321C1316.8 51.2093 1318.3 52.932 1318.3 53.922C1318.3 54.3378 1318.05 54.615 1317.65 54.615C1317.53 54.615 1317.39 54.5952 1317.25 54.5358C1316.88 54.0606 1316.3 53.5656 1315.65 53.0904C1313 53.4072 1309.47 53.7438 1304.7 54.1794L1306.42 54.7338C1306.34 54.9516 1306.13 55.011 1305.69 54.9714C1305.28 55.605 1304.62 56.3772 1303.95 57.0108C1304.78 57.0108 1305.75 56.9514 1306.72 56.9118C1306.52 56.5158 1306.27 56.1396 1306.01 55.8624L1306.17 55.6842C1307.47 56.0802 1308.07 56.6346 1308.26 57.1098C1308.82 56.4366 1309.27 55.7436 1309.61 55.0902L1312.11 55.7238C1312.05 55.9812 1311.83 56.0802 1311.25 56.1198C1311.83 56.7336 1312.56 57.3474 1313.35 57.882L1312.84 56.9118H1314.03C1314.4 55.9812 1314.8 54.8526 1315.06 53.9616L1317.12 54.615C1317.04 54.813 1316.82 54.8922 1316.38 54.8526C1315.97 55.4664 1315.35 56.2386 1314.74 56.8722L1317.95 56.8128L1317.81 56.8722ZM1317.45 64.0992C1317.35 64.1982 1317.23 64.2576 1317.04 64.2576C1316.92 64.2576 1316.76 64.2378 1316.58 64.1784C1312.54 67.3662 1308.4 68.1978 1303.33 68.5542L1303.26 68.178C1307.99 67.4454 1312.05 66.297 1315.57 62.8122L1317.45 64.119V64.0992ZM1312.34 59.961C1312.26 60.0798 1312.15 60.1392 1311.95 60.1392C1311.85 60.1392 1311.73 60.1194 1311.57 60.0798C1309.39 61.8816 1306.62 63.1686 1303.81 63.9606L1303.61 63.6042C1306.13 62.535 1308.68 60.951 1310.58 58.8324L1312.34 59.961ZM1314.84 61.941C1314.76 62.0598 1314.64 62.1192 1314.46 62.1192C1314.36 62.1192 1314.22 62.0796 1314.05 62.04C1311.18 64.1982 1307.85 65.3664 1304.3 66.0198L1304.17 65.6634C1307.41 64.6932 1310.56 63.2478 1313.08 60.753L1314.84 61.941Z" fill="#703E1E"/>
<path d="M1340.76 54.9516L1342.72 56.3574C1342.58 56.6346 1342.34 56.7534 1341.75 56.7534H1335.49C1334.12 57.7038 1332.62 58.5949 1331.03 59.4463L1330.88 60.1195C1333.65 59.6443 1336.86 58.8721 1338.62 58.2384L1340.16 59.7829C1340.16 59.7829 1339.96 59.9017 1339.81 59.9017C1339.61 59.9017 1339.37 59.8423 1339.11 59.7235C1336.93 60.0997 1333.69 60.4561 1330.78 60.5947C1330.64 61.1887 1330.48 61.8817 1330.32 62.5153H1337.96L1338.68 61.6441L1340.48 63.0301C1340.34 63.1687 1340.08 63.2875 1339.69 63.3271C1339.31 65.6041 1338.6 67.4455 1337.71 68.0593C1337.11 68.3959 1336.4 68.5345 1335.37 68.5345C1335.41 67.6237 1335.07 67.3267 1332.92 67.0297V66.7129C1333.83 66.7723 1335.47 66.8119 1335.98 66.8317C1336.36 66.8317 1336.58 66.8119 1336.78 66.6931C1337.27 66.3367 1337.79 64.8715 1338.1 62.9707H1330.2L1329.87 64.3369C1329.65 64.4359 1329.41 64.4953 1329.11 64.4953C1328.86 64.4953 1328.54 64.4557 1328.12 64.3369C1328.46 63.1489 1328.84 61.6837 1329.17 60.3769C1327.51 61.1491 1325.79 61.8421 1324.01 62.3767L1323.89 62.0599C1325.77 61.2877 1327.65 60.3175 1329.43 59.2483C1329.53 58.8325 1329.63 58.4364 1329.69 58.0998L1330.68 58.4761C1331.57 57.9415 1332.4 57.3474 1333.21 56.7534H1324.28L1324.16 56.298H1331.29V53.2686H1326.12L1326.01 52.833H1331.29V49.8828L1333.71 50.0808C1333.69 50.358 1333.49 50.4768 1332.92 50.5758V52.8132H1335.35L1336.38 51.5064L1338 52.6548C1338.68 51.9816 1339.31 51.2688 1339.83 50.6154L1341.75 52.1598C1341.65 52.2588 1341.55 52.338 1341.39 52.338C1341.25 52.338 1341.09 52.2984 1340.89 52.1994C1339.63 53.5458 1338.02 54.9516 1336.14 56.2782H1339.71L1340.76 54.9318V54.9516ZM1332.92 56.298H1333.85C1335.15 55.308 1336.34 54.2982 1337.41 53.2686H1332.92V56.298Z" fill="#703E1E"/>
<path d="M1363.47 50.2977L1365.37 51.7035C1365.23 51.8817 1364.91 52.0401 1364.5 52.1193V67.7218C1364.5 67.7218 1364.1 68.2762 1362.91 68.2762V67.1476H1349.57V67.8406C1349.57 67.8406 1349.45 68.494 1348.02 68.494V50.4363L1349.73 51.2085H1362.71L1363.45 50.2383L1363.47 50.2977ZM1349.59 66.7318H1362.93V51.7035H1349.59V66.7318ZM1360.83 56.2179L1362.44 57.3069C1362.26 57.5841 1362.04 57.6831 1361.51 57.6831H1350.36L1350.22 57.2475H1355.51V55.7823H1353.57V56.0001C1353.57 56.0001 1353.29 56.4753 1352.14 56.4753V52.5747L1353.67 53.2281H1358.79L1359.37 52.4757L1361.05 53.6637C1360.95 53.7825 1360.71 53.9409 1360.4 53.9805V55.9605C1360.4 55.9605 1359.96 56.3763 1358.95 56.3763V55.7823H1356.95V57.2475H1360.02L1360.85 56.2179H1360.83ZM1359.53 58.9701L1360.1 58.2177L1361.74 59.3859C1361.65 59.5245 1361.39 59.6631 1361.09 59.7027V65.4447C1361.09 65.4447 1360.68 65.8804 1359.7 65.8804V65.0092H1352.79V65.5042C1352.79 65.5042 1352.64 65.9794 1351.43 65.9794V58.3167L1352.91 58.9701H1359.53ZM1352.79 64.5537H1359.7V59.4057H1352.79V64.5537ZM1353.55 55.3467H1358.93V53.6835H1353.55V55.3467ZM1357.67 60.0393L1359.03 61.0095C1358.93 61.1085 1358.71 61.2273 1358.48 61.2867V63.5043C1358.48 63.5043 1358.14 63.9003 1357.33 63.9003V63.2271H1355.17V63.6231C1355.17 63.6231 1354.74 63.9795 1354.22 63.9795H1354.04V60.0789L1355.27 60.6333H1357.19L1357.67 60.0393ZM1355.17 62.7717H1357.33V61.0887H1355.17V62.7717Z" fill="#703E1E"/>
<path d="M1079.89 85.7796C1079.4 85.7004 1078.92 85.6806 1078.46 85.6806H1075.63C1075.18 85.6806 1074.72 85.7202 1074.21 85.7796C1073.95 84.9678 1073.61 83.9778 1073.2 82.8096C1072.76 81.6612 1072.31 80.4336 1071.77 79.1664C1071.26 77.8992 1070.72 76.6121 1070.19 75.3251C1069.65 74.0183 1069.16 72.7907 1068.68 71.6027C1067.53 71.5631 1066.39 71.5433 1065.22 71.5235C1064.05 71.5235 1062.86 71.5037 1061.69 71.5037C1060.59 71.5037 1059.5 71.5037 1058.43 71.5235C1057.36 71.5235 1056.27 71.5631 1055.16 71.6027C1054.01 74.3747 1052.98 77.028 1052.05 79.5426C1051.12 82.0572 1050.43 84.1362 1049.97 85.7796C1049.36 85.7004 1048.71 85.6806 1047.99 85.6806C1047.28 85.6806 1046.63 85.7202 1046.01 85.7796C1048.9 79.5426 1051.71 73.3451 1054.47 67.1675C1057.22 61.0097 1059.97 54.7331 1062.74 48.3574H1063.75C1064.6 50.4166 1065.54 52.654 1066.53 55.0697C1067.52 57.4655 1068.54 59.9009 1069.57 62.3759C1070.6 64.8311 1071.63 67.2665 1072.68 69.7019C1073.71 72.1175 1074.68 74.3747 1075.59 76.4537C1076.5 78.5328 1077.32 80.394 1078.05 82.0374C1078.78 83.6808 1079.38 84.9282 1079.83 85.7796H1079.89ZM1056.21 69.1475C1057.14 69.1475 1058.09 69.1475 1059.1 69.2069C1060.09 69.2465 1061.06 69.2663 1061.99 69.2663C1062.98 69.2663 1063.99 69.2663 1064.98 69.2465C1065.97 69.2267 1066.98 69.2069 1067.97 69.1673L1062.03 55.5845L1056.21 69.1673V69.1475Z" fill="#703E1E"/>
<path d="M1091.47 51.0292C1093.04 50.1778 1094.94 49.7422 1097.2 49.7422C1098.58 49.7422 1099.91 49.9204 1101.16 50.2768C1102.4 50.6332 1103.47 51.2074 1104.38 51.9796C1105.29 52.7716 1106.01 53.7418 1106.54 54.91C1107.08 56.0782 1107.33 57.5038 1107.33 59.1868C1107.33 60.3946 1107.19 61.5232 1106.9 62.5726C1106.62 63.6221 1106.18 64.6517 1105.65 65.6417C1105.1 66.6317 1104.4 67.6415 1103.57 68.6711C1102.74 69.6809 1101.75 70.7699 1100.6 71.8985C1099.93 72.5717 1099.14 73.3637 1098.24 74.2547C1097.35 75.1457 1096.46 76.0565 1095.55 77.0069C1094.64 77.9573 1093.77 78.8879 1092.96 79.8185C1092.15 80.7491 1091.43 81.6005 1090.88 82.3925H1095.95C1098.52 82.3925 1100.78 82.3529 1102.76 82.2539C1104.74 82.1747 1106.48 82.0757 1107.97 81.9569C1107.79 82.7489 1107.69 83.4023 1107.69 83.9369C1107.69 84.4319 1107.77 85.0457 1107.97 85.7585C1106.05 85.6793 1104.13 85.6596 1102.24 85.6596H1090.78C1088.88 85.6596 1086.96 85.6991 1085.04 85.7585V85.1249C1087.53 82.6697 1089.69 80.5115 1091.53 78.6305C1093.37 76.7693 1094.92 75.0665 1096.21 73.5815C1097.49 72.0767 1098.52 70.7303 1099.33 69.5225C1100.13 68.3147 1100.76 67.1663 1101.23 66.0773C1101.71 64.9883 1102.01 63.919 1102.17 62.8696C1102.32 61.8202 1102.4 60.6916 1102.4 59.4838C1102.4 56.8504 1101.81 54.8902 1100.62 53.623C1099.43 52.3558 1098.03 51.7222 1096.42 51.7222C1095.27 51.7222 1094.3 51.9202 1093.49 52.336C1092.68 52.7518 1091.99 53.2468 1091.45 53.8408C1090.92 54.4348 1090.5 55.0684 1090.23 55.7416C1089.95 56.4148 1089.75 57.0286 1089.63 57.5632L1089.26 57.6622L1087.39 55.0486C1088.54 53.227 1089.89 51.9004 1091.45 51.049L1091.47 51.0292Z" fill="#703E1E"/>
<path d="M1216.37 78.3731C1216.37 77.8979 1216.33 77.4227 1216.31 76.9277C1216.41 76.9277 1216.51 76.9475 1216.59 76.9673C1216.69 76.9673 1216.77 76.9673 1216.85 76.9673C1216.93 76.9673 1217.03 76.9673 1217.13 76.9673C1217.2 76.9673 1217.3 76.9475 1217.4 76.9277C1217.38 77.4227 1217.36 77.8979 1217.34 78.3731C1217.34 78.8483 1217.32 79.3235 1217.32 79.8185V81.7392C1217.32 82.2342 1217.32 82.7094 1217.34 83.1846C1217.34 83.6598 1217.38 84.135 1217.4 84.5904C1217.22 84.5904 1217.05 84.5706 1216.85 84.5706C1216.65 84.5706 1216.47 84.5706 1216.29 84.5904C1216.31 84.135 1216.33 83.6598 1216.35 83.1846C1216.35 82.7094 1216.37 82.2342 1216.37 81.7392V80.7293C1215.98 80.7293 1215.58 80.7293 1215.2 80.7293C1214.83 80.7293 1214.43 80.7293 1214.04 80.7293C1213.64 80.7293 1213.24 80.7293 1212.87 80.7293C1212.49 80.7293 1212.1 80.7293 1211.7 80.7293V81.7392C1211.7 82.2342 1211.7 82.7094 1211.72 83.1846C1211.72 83.6598 1211.76 84.135 1211.78 84.5904C1211.6 84.5904 1211.42 84.5706 1211.22 84.5706C1211.03 84.5706 1210.85 84.5706 1210.67 84.5904C1210.69 84.135 1210.71 83.6598 1210.73 83.1846C1210.73 82.7094 1210.75 82.2342 1210.75 81.7392V79.8185C1210.75 79.3235 1210.75 78.8483 1210.73 78.3731C1210.73 77.8979 1210.69 77.4227 1210.67 76.9277C1210.77 76.9277 1210.87 76.9475 1210.95 76.9673C1211.05 76.9673 1211.13 76.9673 1211.2 76.9673C1211.28 76.9673 1211.38 76.9673 1211.48 76.9673C1211.58 76.9673 1211.66 76.9475 1211.76 76.9277C1211.74 77.4227 1211.72 77.8979 1211.7 78.3731C1211.7 78.8483 1211.68 79.3235 1211.68 79.8185V80.2145C1212.08 80.2145 1212.47 80.2145 1212.85 80.2343C1213.22 80.2343 1213.62 80.2343 1214.02 80.2343C1214.41 80.2343 1214.81 80.2343 1215.18 80.2343C1215.56 80.2343 1215.96 80.2343 1216.35 80.2145V79.8185C1216.35 79.3235 1216.35 78.8483 1216.33 78.3731H1216.37Z" fill="#703E1E"/>
<path d="M1221.12 81.9556C1221.12 81.4606 1221.2 81.025 1221.36 80.6686C1221.52 80.3122 1221.74 80.035 1222 79.8172C1222.25 79.5994 1222.55 79.441 1222.87 79.342C1223.18 79.243 1223.52 79.1836 1223.84 79.1836C1224.15 79.1836 1224.49 79.2232 1224.81 79.342C1225.12 79.441 1225.42 79.5994 1225.68 79.8172C1225.94 80.035 1226.15 80.332 1226.31 80.6686C1226.47 81.025 1226.55 81.4606 1226.55 81.9556C1226.55 82.4506 1226.47 82.8862 1226.31 83.2426C1226.15 83.599 1225.94 83.8762 1225.68 84.094C1225.42 84.3118 1225.12 84.4702 1224.81 84.5494C1224.49 84.6484 1224.17 84.688 1223.84 84.688C1223.5 84.688 1223.2 84.6484 1222.87 84.5494C1222.55 84.4702 1222.25 84.3118 1222 84.094C1221.74 83.8762 1221.52 83.599 1221.36 83.2426C1221.2 82.8862 1221.12 82.4704 1221.12 81.9556ZM1222.11 81.9556C1222.11 82.2724 1222.13 82.5694 1222.19 82.8664C1222.25 83.1634 1222.35 83.4208 1222.47 83.6386C1222.61 83.8564 1222.79 84.0544 1223.01 84.1732C1223.22 84.3118 1223.5 84.3712 1223.84 84.3712C1224.17 84.3712 1224.43 84.3118 1224.67 84.1732C1224.89 84.0346 1225.06 83.8564 1225.2 83.6386C1225.34 83.4208 1225.44 83.1634 1225.48 82.8664C1225.54 82.5694 1225.56 82.2724 1225.56 81.9556C1225.56 81.6388 1225.54 81.3418 1225.48 81.0448C1225.42 80.7478 1225.32 80.4904 1225.2 80.2726C1225.06 80.0548 1224.89 79.8766 1224.67 79.738C1224.45 79.5994 1224.17 79.54 1223.84 79.54C1223.5 79.54 1223.24 79.5994 1223.01 79.738C1222.79 79.8766 1222.61 80.0548 1222.47 80.2726C1222.33 80.4904 1222.23 80.7478 1222.19 81.0448C1222.13 81.3418 1222.11 81.6388 1222.11 81.9556Z" fill="#703E1E"/>
<path d="M1230.11 82.8851C1230.11 82.4891 1230.11 82.1525 1230.11 81.8753C1230.11 81.5981 1230.11 81.3209 1230.11 81.0437C1230.11 80.7863 1230.11 80.5091 1230.11 80.1923C1230.11 79.8755 1230.11 79.5785 1230.11 79.2617C1230.29 79.3013 1230.45 79.3211 1230.59 79.3211C1230.71 79.3211 1230.87 79.3211 1231.04 79.2617C1231.01 79.6973 1230.99 80.1923 1230.97 80.7269C1230.97 81.2615 1230.95 81.7961 1230.95 82.3505C1230.95 82.7267 1230.99 83.0237 1231.04 83.2415C1231.1 83.4395 1231.2 83.5979 1231.28 83.6969C1231.38 83.8157 1231.52 83.9147 1231.68 83.9939C1231.84 84.0731 1232.03 84.1127 1232.23 84.1127C1232.55 84.1127 1232.81 84.0533 1233.01 83.9147C1233.2 83.7761 1233.36 83.6177 1233.46 83.3999C1233.52 83.2811 1233.56 83.1623 1233.58 83.0831C1233.6 82.9841 1233.64 82.8653 1233.66 82.7267C1233.66 82.5683 1233.68 82.3703 1233.7 82.1327C1233.72 81.8951 1233.7 81.5387 1233.7 81.1031V80.1725C1233.7 80.0141 1233.7 79.8557 1233.7 79.6973C1233.7 79.5587 1233.7 79.4003 1233.7 79.2815C1233.78 79.2815 1233.86 79.3013 1233.94 79.3211C1234.01 79.3211 1234.09 79.3211 1234.17 79.3211C1234.25 79.3211 1234.33 79.3211 1234.41 79.3211C1234.49 79.3211 1234.55 79.3013 1234.63 79.2815C1234.59 79.8557 1234.57 80.4101 1234.57 80.9645C1234.57 81.4991 1234.57 82.0733 1234.57 82.6673C1234.57 83.0039 1234.57 83.3207 1234.57 83.6573C1234.57 83.9741 1234.57 84.2909 1234.61 84.5879C1234.47 84.5879 1234.31 84.5681 1234.17 84.5681C1234.03 84.5681 1233.9 84.5681 1233.74 84.5879C1233.74 84.5285 1233.74 84.4493 1233.74 84.3701C1233.74 84.2909 1233.74 84.2117 1233.74 84.1325V83.6573H1233.72C1233.52 84.0137 1233.28 84.2711 1232.97 84.4493C1232.67 84.6077 1232.33 84.7067 1231.98 84.7067C1231.4 84.7067 1230.95 84.5483 1230.61 84.2513C1230.27 83.9345 1230.11 83.4989 1230.11 82.9247V82.8851Z" fill="#703E1E"/>
<path d="M1238.77 83.7755C1238.77 83.7755 1238.94 83.9537 1239.04 84.0329C1239.14 84.1121 1239.28 84.1715 1239.42 84.2309C1239.56 84.2903 1239.7 84.3101 1239.86 84.3101C1239.99 84.3101 1240.13 84.2903 1240.27 84.2507C1240.41 84.2111 1240.51 84.1517 1240.61 84.0527C1240.71 83.9735 1240.79 83.8745 1240.85 83.7359C1240.9 83.6171 1240.94 83.4587 1240.94 83.3003C1240.94 83.0627 1240.89 82.8845 1240.75 82.7657C1240.61 82.6469 1240.45 82.5479 1240.27 82.4687C1240.07 82.3895 1239.88 82.3301 1239.64 82.2707C1239.4 82.2113 1239.2 82.1321 1239 82.0133C1238.81 81.9143 1238.65 81.7559 1238.53 81.5777C1238.39 81.3995 1238.33 81.1619 1238.33 80.8451C1238.33 80.6075 1238.37 80.3699 1238.45 80.1719C1238.53 79.9739 1238.65 79.7957 1238.81 79.6373C1238.96 79.4789 1239.16 79.3799 1239.38 79.2809C1239.62 79.2017 1239.88 79.1621 1240.17 79.1621C1240.45 79.1621 1240.69 79.2017 1240.87 79.2809C1241.06 79.3601 1241.24 79.4195 1241.4 79.4789C1241.34 79.5977 1241.28 79.7363 1241.24 79.8947C1241.18 80.0531 1241.16 80.1917 1241.14 80.2709H1241C1240.94 80.0927 1240.83 79.9343 1240.67 79.7957C1240.51 79.6571 1240.29 79.5779 1240.03 79.5779C1239.91 79.5779 1239.82 79.5779 1239.7 79.6373C1239.58 79.6769 1239.48 79.7363 1239.4 79.7957C1239.32 79.8749 1239.24 79.9739 1239.18 80.0927C1239.12 80.2115 1239.08 80.3501 1239.08 80.5085C1239.08 80.7461 1239.14 80.9243 1239.28 81.0629C1239.42 81.2015 1239.58 81.3005 1239.76 81.3599C1239.95 81.4391 1240.15 81.4985 1240.39 81.5579C1240.63 81.6173 1240.83 81.6965 1241.02 81.7955C1241.22 81.8945 1241.38 82.0331 1241.5 82.2113C1241.64 82.3895 1241.7 82.6271 1241.7 82.9439C1241.7 83.1617 1241.66 83.3795 1241.56 83.5775C1241.46 83.7755 1241.34 83.9735 1241.16 84.1319C1240.98 84.2903 1240.79 84.4289 1240.53 84.5279C1240.29 84.6269 1240.01 84.6665 1239.7 84.6665C1239.36 84.6665 1239.06 84.6269 1238.85 84.5675C1238.61 84.5081 1238.43 84.4289 1238.27 84.3299C1238.31 84.2309 1238.37 84.0923 1238.41 83.9339C1238.45 83.7755 1238.49 83.6369 1238.49 83.5181H1238.63C1238.63 83.5181 1238.73 83.6765 1238.81 83.7557L1238.77 83.7755Z" fill="#703E1E"/>
<path d="M1244.87 82.0925C1244.87 81.1817 1245.08 80.4689 1245.52 79.9343C1245.95 79.4195 1246.59 79.1621 1247.42 79.1621C1247.82 79.1621 1248.15 79.2215 1248.43 79.3403C1248.71 79.4591 1248.96 79.6175 1249.14 79.8353C1249.34 80.0333 1249.48 80.2709 1249.58 80.5481C1249.68 80.8253 1249.72 81.1223 1249.72 81.4193C1249.72 81.4985 1249.72 81.5579 1249.72 81.6371C1249.72 81.7163 1249.72 81.7757 1249.72 81.8549C1249.32 81.8549 1248.92 81.8549 1248.53 81.8351C1248.13 81.8351 1247.74 81.8351 1247.34 81.8351C1247.1 81.8351 1246.85 81.8351 1246.61 81.8351C1246.37 81.8351 1246.13 81.8351 1245.88 81.8549C1245.88 81.8945 1245.88 81.9539 1245.88 82.0133V82.1519C1245.88 82.4489 1245.91 82.7063 1245.99 82.9637C1246.07 83.2211 1246.21 83.4389 1246.37 83.6171C1246.53 83.7953 1246.73 83.9339 1246.96 84.0527C1247.2 84.1715 1247.48 84.2111 1247.8 84.2111C1247.95 84.2111 1248.09 84.1913 1248.25 84.1517C1248.41 84.1121 1248.57 84.0527 1248.71 83.9933C1248.86 83.9141 1249 83.8349 1249.12 83.7359C1249.26 83.6369 1249.36 83.5379 1249.46 83.4191L1249.52 83.4587L1249.46 84.0131C1249.24 84.1913 1248.96 84.3497 1248.63 84.4685C1248.29 84.5873 1247.95 84.6665 1247.6 84.6665C1247.2 84.6665 1246.83 84.6071 1246.51 84.4883C1246.17 84.3695 1245.89 84.1913 1245.66 83.9537C1245.42 83.7161 1245.22 83.4389 1245.1 83.1221C1244.96 82.8053 1244.9 82.4489 1244.9 82.0925H1244.87ZM1247.44 79.5185C1247.16 79.5185 1246.92 79.5779 1246.75 79.7165C1246.55 79.8353 1246.41 79.9937 1246.27 80.1917C1246.15 80.3897 1246.05 80.5877 1245.99 80.8253C1245.93 81.0431 1245.89 81.2609 1245.88 81.4589C1246.11 81.4589 1246.35 81.4589 1246.59 81.4787C1246.85 81.4787 1247.08 81.4787 1247.32 81.4787C1247.56 81.4787 1247.82 81.4787 1248.07 81.4787C1248.33 81.4787 1248.57 81.4787 1248.81 81.4589C1248.81 81.2609 1248.81 81.0431 1248.75 80.8253C1248.71 80.6075 1248.65 80.3897 1248.55 80.2115C1248.45 80.0135 1248.31 79.8551 1248.13 79.7363C1247.95 79.6175 1247.72 79.5383 1247.44 79.5383V79.5185Z" fill="#703E1E"/>
<path d="M1253.3 78.5694C1253.3 78.2724 1253.3 77.9754 1253.3 77.6982C1253.3 77.4012 1253.3 77.124 1253.28 76.8666C1253.28 76.6092 1253.26 76.3716 1253.24 76.1934C1253.44 76.233 1253.62 76.2528 1253.74 76.2528C1253.85 76.2528 1254.03 76.2528 1254.23 76.1934C1254.23 76.3716 1254.21 76.6092 1254.19 76.8666C1254.19 77.124 1254.17 77.4012 1254.17 77.6784C1254.17 77.9556 1254.17 78.2526 1254.17 78.5496C1254.17 78.8466 1254.17 79.104 1254.17 79.3614V80.2128H1254.19C1254.39 79.896 1254.65 79.6386 1254.94 79.4802C1255.24 79.302 1255.58 79.2228 1255.97 79.2228C1256.19 79.2228 1256.39 79.2426 1256.61 79.3218C1256.82 79.3812 1257 79.4802 1257.18 79.6188C1257.36 79.7574 1257.5 79.9554 1257.6 80.2128C1257.7 80.4702 1257.75 80.787 1257.75 81.1632C1257.75 81.48 1257.75 81.8166 1257.74 82.1532C1257.74 82.4898 1257.72 82.8462 1257.72 83.2224V83.955C1257.72 84.0738 1257.72 84.1926 1257.72 84.3114C1257.72 84.4302 1257.72 84.5292 1257.72 84.648C1257.56 84.648 1257.42 84.6282 1257.24 84.6282C1257.06 84.6282 1256.92 84.6282 1256.78 84.648C1256.78 84.2718 1256.82 83.856 1256.84 83.46C1256.84 83.0442 1256.86 82.6284 1256.86 82.1928V81.5196C1256.86 80.9652 1256.76 80.5494 1256.55 80.2524C1256.33 79.9752 1256.03 79.8168 1255.66 79.8168C1255.14 79.8168 1254.77 79.9752 1254.51 80.292C1254.27 80.6088 1254.15 81.0642 1254.15 81.6384C1254.15 81.8364 1254.15 82.0938 1254.15 82.371C1254.15 82.6482 1254.15 82.9254 1254.15 83.2026C1254.15 83.4798 1254.15 83.757 1254.17 84.0144C1254.17 84.2718 1254.19 84.4896 1254.21 84.648C1254.03 84.648 1253.87 84.6282 1253.72 84.6282C1253.56 84.6282 1253.38 84.6282 1253.22 84.648C1253.22 84.4698 1253.24 84.2718 1253.26 83.9946C1253.26 83.7372 1253.28 83.46 1253.28 83.163C1253.28 82.866 1253.28 82.5888 1253.28 82.2918C1253.28 81.9948 1253.28 81.7176 1253.28 81.4602V79.4406C1253.28 79.1832 1253.28 78.906 1253.28 78.609L1253.3 78.5694Z" fill="#703E1E"/>
<path d="M1261.3 81.9556C1261.3 81.4606 1261.38 81.025 1261.54 80.6686C1261.7 80.3122 1261.91 80.035 1262.17 79.8172C1262.43 79.5994 1262.72 79.441 1263.04 79.342C1263.36 79.243 1263.7 79.1836 1264.01 79.1836C1264.33 79.1836 1264.67 79.2232 1264.98 79.342C1265.3 79.441 1265.6 79.5994 1265.85 79.8172C1266.11 80.035 1266.33 80.332 1266.49 80.6686C1266.65 81.025 1266.72 81.4606 1266.72 81.9556C1266.72 82.4506 1266.65 82.8862 1266.49 83.2426C1266.33 83.599 1266.11 83.8762 1265.85 84.094C1265.6 84.3118 1265.3 84.4702 1264.98 84.5494C1264.67 84.6484 1264.35 84.688 1264.01 84.688C1263.68 84.688 1263.38 84.6484 1263.04 84.5494C1262.72 84.4702 1262.43 84.3118 1262.17 84.094C1261.91 83.8762 1261.7 83.599 1261.54 83.2426C1261.38 82.8862 1261.3 82.4704 1261.3 81.9556ZM1262.29 81.9556C1262.29 82.2724 1262.31 82.5694 1262.37 82.8664C1262.43 83.1634 1262.53 83.4208 1262.65 83.6386C1262.78 83.8564 1262.96 84.0544 1263.18 84.1732C1263.4 84.3118 1263.68 84.3712 1264.01 84.3712C1264.35 84.3712 1264.61 84.3118 1264.84 84.1732C1265.06 84.0346 1265.24 83.8564 1265.38 83.6386C1265.52 83.4208 1265.62 83.1634 1265.66 82.8664C1265.71 82.5694 1265.73 82.2724 1265.73 81.9556C1265.73 81.6388 1265.71 81.3418 1265.66 81.0448C1265.6 80.7478 1265.5 80.4904 1265.38 80.2726C1265.24 80.0548 1265.06 79.8766 1264.84 79.738C1264.63 79.5994 1264.35 79.54 1264.01 79.54C1263.68 79.54 1263.42 79.5994 1263.18 79.738C1262.96 79.8766 1262.78 80.0548 1262.65 80.2726C1262.51 80.4904 1262.41 80.7478 1262.37 81.0448C1262.31 81.3418 1262.29 81.6388 1262.29 81.9556Z" fill="#703E1E"/>
<path d="M1270.57 78.5694C1270.57 78.2724 1270.57 77.9754 1270.57 77.6982C1270.57 77.4012 1270.57 77.124 1270.55 76.8666C1270.55 76.6092 1270.53 76.3716 1270.51 76.1934C1270.72 76.233 1270.88 76.2528 1271 76.2528C1271.12 76.2528 1271.3 76.2528 1271.5 76.1934C1271.5 76.3716 1271.48 76.6092 1271.46 76.8666C1271.46 77.124 1271.44 77.4012 1271.44 77.6982C1271.44 77.9952 1271.44 78.2724 1271.44 78.5694C1271.44 78.8664 1271.44 79.1436 1271.44 79.401V81.4206C1271.44 81.678 1271.44 81.9552 1271.44 82.2522C1271.44 82.5492 1271.44 82.8462 1271.44 83.1234C1271.44 83.4204 1271.44 83.6778 1271.46 83.955C1271.46 84.2124 1271.48 84.4302 1271.5 84.6084C1271.32 84.6084 1271.16 84.5886 1271 84.5886C1270.84 84.5886 1270.66 84.5886 1270.51 84.6084C1270.51 84.4302 1270.53 84.2322 1270.55 83.955C1270.55 83.6976 1270.57 83.4204 1270.57 83.1234C1270.57 82.8264 1270.57 82.5492 1270.57 82.2522C1270.57 81.9552 1270.57 81.678 1270.57 81.4206V79.401C1270.57 79.1436 1270.57 78.8664 1270.57 78.5694Z" fill="#703E1E"/>
<path d="M1279.48 83.5194C1279.42 83.6382 1279.34 83.757 1279.24 83.8956C1279.14 84.0342 1279.02 84.153 1278.86 84.2718C1278.7 84.3906 1278.53 84.4896 1278.33 84.5688C1278.13 84.648 1277.87 84.6876 1277.59 84.6876C1277.32 84.6876 1277.04 84.648 1276.76 84.549C1276.49 84.45 1276.25 84.2916 1276.03 84.0738C1275.81 83.856 1275.65 83.5788 1275.52 83.2224C1275.38 82.8858 1275.32 82.47 1275.32 81.975C1275.32 81.48 1275.4 81.084 1275.54 80.7474C1275.67 80.391 1275.85 80.1138 1276.09 79.8762C1276.31 79.6386 1276.57 79.4604 1276.86 79.3614C1277.14 79.2426 1277.44 79.1832 1277.73 79.1832C1278.57 79.1832 1279.12 79.5594 1279.46 80.292H1279.48V79.203C1279.48 78.9258 1279.48 78.6288 1279.48 78.3516C1279.48 78.0744 1279.48 77.7972 1279.48 77.5398C1279.48 77.2824 1279.48 77.0448 1279.48 76.8072C1279.48 76.5696 1279.48 76.3716 1279.48 76.1934C1279.57 76.1934 1279.65 76.2132 1279.73 76.233C1279.81 76.233 1279.89 76.233 1279.97 76.233C1280.05 76.233 1280.13 76.233 1280.21 76.233C1280.29 76.233 1280.37 76.2132 1280.47 76.1934C1280.45 76.431 1280.43 76.7676 1280.41 77.223C1280.41 77.6784 1280.39 78.1734 1280.37 78.708C1280.37 79.2426 1280.35 79.8168 1280.35 80.3712C1280.35 80.9256 1280.35 81.4602 1280.35 81.9354C1280.35 82.4502 1280.35 82.9056 1280.35 83.3214C1280.35 83.7372 1280.35 84.153 1280.37 84.5886C1280.21 84.5886 1280.07 84.5688 1279.93 84.5688C1279.79 84.5688 1279.65 84.5688 1279.52 84.5886L1279.56 83.5392H1279.54L1279.48 83.5194ZM1276.31 82.0542C1276.31 82.5096 1276.35 82.866 1276.45 83.163C1276.55 83.46 1276.66 83.6778 1276.8 83.856C1276.94 84.0342 1277.12 84.153 1277.3 84.2124C1277.48 84.2718 1277.67 84.3114 1277.85 84.3114C1278.15 84.3114 1278.39 84.2322 1278.6 84.0936C1278.8 83.955 1278.98 83.757 1279.12 83.5194C1279.26 83.2818 1279.36 83.0244 1279.42 82.7274C1279.48 82.4304 1279.52 82.1334 1279.52 81.8364C1279.52 81.1236 1279.38 80.589 1279.1 80.2128C1278.82 79.8366 1278.43 79.6584 1277.89 79.6584C1277.61 79.6584 1277.4 79.7178 1277.2 79.8366C1277 79.9554 1276.84 80.1336 1276.7 80.3514C1276.57 80.5692 1276.49 80.8266 1276.41 81.1236C1276.35 81.4206 1276.31 81.7374 1276.31 82.074V82.0542Z" fill="#703E1E"/>
<path d="M1291.04 79.8185C1291.04 79.3235 1291.04 78.8483 1291.02 78.3731C1291.02 77.8979 1290.98 77.4227 1290.96 76.9277C1291.24 76.9277 1291.51 76.9475 1291.79 76.9673C1292.07 76.9673 1292.35 76.9673 1292.62 76.9673C1292.9 76.9673 1293.18 76.9673 1293.45 76.9475C1293.73 76.9475 1294.01 76.9277 1294.29 76.9277C1294.94 76.9277 1295.49 77.0069 1295.97 77.1851C1296.42 77.3633 1296.82 77.6009 1297.12 77.9177C1297.41 78.2345 1297.63 78.6107 1297.77 79.0661C1297.91 79.5215 1297.97 80.0363 1297.97 80.6106C1297.97 81.363 1297.85 81.9768 1297.59 82.4916C1297.34 83.0064 1297.02 83.4024 1296.6 83.7192C1296.21 84.036 1295.77 84.2538 1295.3 84.3726C1294.82 84.5112 1294.37 84.5706 1293.93 84.5706C1293.67 84.5706 1293.44 84.5706 1293.18 84.5706C1292.94 84.5706 1292.68 84.5706 1292.43 84.5706H1291.67C1291.44 84.5706 1291.18 84.5706 1290.92 84.5904C1290.94 84.135 1290.96 83.6598 1290.98 83.1846C1290.98 82.7094 1291 82.2342 1291 81.7392V79.8185H1291.04ZM1291.95 81.7392C1291.95 82.551 1291.97 83.3232 1292.01 84.0954C1292.17 84.135 1292.39 84.1548 1292.64 84.1746C1292.9 84.1746 1293.18 84.1944 1293.47 84.1944C1293.89 84.1944 1294.29 84.1548 1294.7 84.0558C1295.12 83.9568 1295.47 83.7786 1295.79 83.5014C1296.11 83.244 1296.39 82.8678 1296.58 82.4124C1296.78 81.957 1296.88 81.3432 1296.88 80.6106C1296.88 79.9571 1296.8 79.4423 1296.64 79.0265C1296.48 78.6107 1296.27 78.2741 1295.99 78.0365C1295.71 77.7989 1295.38 77.6207 1295 77.5415C1294.62 77.4425 1294.19 77.4029 1293.73 77.4029C1293.4 77.4029 1293.08 77.4029 1292.8 77.4425C1292.5 77.4623 1292.25 77.4821 1292.03 77.5217C1292.01 77.8781 1291.99 78.2543 1291.99 78.6305C1291.99 79.0265 1291.99 79.4225 1291.99 79.8185V81.7392H1291.95Z" fill="#703E1E"/>
<path d="M1301.34 82.0925C1301.34 81.1817 1301.55 80.4689 1301.99 79.9343C1302.42 79.4195 1303.06 79.1621 1303.89 79.1621C1304.29 79.1621 1304.62 79.2215 1304.9 79.3403C1305.18 79.4591 1305.43 79.6175 1305.61 79.8353C1305.81 80.0333 1305.95 80.2709 1306.05 80.5481C1306.15 80.8253 1306.19 81.1223 1306.19 81.4193C1306.19 81.4985 1306.19 81.5579 1306.19 81.6371C1306.19 81.7163 1306.19 81.7757 1306.19 81.8549C1305.79 81.8549 1305.39 81.8549 1305 81.8351C1304.6 81.8351 1304.21 81.8351 1303.81 81.8351C1303.57 81.8351 1303.32 81.8351 1303.08 81.8351C1302.84 81.8351 1302.6 81.8351 1302.35 81.8549C1302.35 81.8945 1302.35 81.9539 1302.35 82.0133V82.1519C1302.35 82.4489 1302.38 82.7063 1302.46 82.9637C1302.54 83.2211 1302.68 83.4389 1302.84 83.6171C1303 83.7953 1303.2 83.9339 1303.43 84.0527C1303.67 84.1517 1303.95 84.2111 1304.27 84.2111C1304.42 84.2111 1304.56 84.1913 1304.72 84.1517C1304.88 84.1121 1305.04 84.0527 1305.18 83.9933C1305.34 83.9141 1305.47 83.8349 1305.59 83.7359C1305.73 83.6369 1305.83 83.5379 1305.93 83.4191L1305.99 83.4587L1305.93 84.0131C1305.71 84.1913 1305.43 84.3497 1305.1 84.4685C1304.76 84.5873 1304.42 84.6665 1304.07 84.6665C1303.67 84.6665 1303.3 84.6071 1302.98 84.4883C1302.64 84.3695 1302.37 84.1913 1302.13 83.9537C1301.89 83.7161 1301.69 83.4389 1301.57 83.1221C1301.43 82.8053 1301.38 82.4489 1301.38 82.0925H1301.34ZM1303.91 79.5185C1303.63 79.5185 1303.39 79.5779 1303.22 79.7165C1303.02 79.8353 1302.88 79.9937 1302.74 80.1917C1302.62 80.3897 1302.52 80.5877 1302.46 80.8253C1302.4 81.0431 1302.37 81.2609 1302.35 81.4589C1302.58 81.4589 1302.82 81.4589 1303.06 81.4787C1303.3 81.4985 1303.55 81.4787 1303.79 81.4787C1304.03 81.4787 1304.29 81.4787 1304.54 81.4787C1304.8 81.4787 1305.04 81.4787 1305.28 81.4589C1305.28 81.2609 1305.28 81.0431 1305.22 80.8253C1305.18 80.6075 1305.12 80.3897 1305.02 80.2115C1304.92 80.0135 1304.78 79.8551 1304.6 79.7363C1304.42 79.6175 1304.19 79.5383 1303.91 79.5383V79.5185Z" fill="#703E1E"/>
<path d="M1309.33 81.9556C1309.33 81.4804 1309.41 81.0646 1309.57 80.7082C1309.73 80.3518 1309.95 80.0746 1310.21 79.837C1310.46 79.6192 1310.78 79.441 1311.12 79.342C1311.45 79.243 1311.81 79.1836 1312.17 79.1836C1312.58 79.1836 1312.94 79.2232 1313.25 79.342C1313.57 79.4608 1313.81 79.5598 1313.95 79.6786C1313.89 79.7974 1313.85 79.9162 1313.81 80.035C1313.77 80.1538 1313.73 80.2924 1313.71 80.4112H1313.63C1313.63 80.4112 1313.51 80.2132 1313.41 80.1142C1313.31 80.0152 1313.22 79.9162 1313.1 79.837C1312.98 79.7578 1312.84 79.6786 1312.68 79.6192C1312.54 79.5598 1312.36 79.54 1312.19 79.54C1311.85 79.54 1311.57 79.5994 1311.31 79.7182C1311.08 79.837 1310.88 80.0152 1310.72 80.233C1310.56 80.4508 1310.46 80.7082 1310.38 81.0052C1310.3 81.3022 1310.28 81.619 1310.28 81.9556C1310.28 82.7278 1310.44 83.302 1310.78 83.6782C1311.1 84.0742 1311.59 84.2722 1312.23 84.2722C1312.38 84.2722 1312.52 84.2524 1312.68 84.2128C1312.84 84.1732 1313 84.1138 1313.14 84.0544C1313.27 83.9752 1313.43 83.896 1313.55 83.797C1313.69 83.698 1313.79 83.599 1313.89 83.4802L1313.95 83.5198C1313.91 83.698 1313.89 83.8762 1313.89 84.0742C1313.67 84.2524 1313.39 84.4108 1313.06 84.5296C1312.72 84.6484 1312.38 84.7276 1312.03 84.7276C1311.71 84.7276 1311.39 84.688 1311.06 84.589C1310.72 84.49 1310.44 84.3316 1310.19 84.1138C1309.93 83.896 1309.71 83.6188 1309.55 83.2624C1309.39 82.906 1309.31 82.4902 1309.31 81.9754L1309.33 81.9556Z" fill="#703E1E"/>
<path d="M1317.16 81.9556C1317.16 81.4606 1317.23 81.025 1317.39 80.6686C1317.55 80.3122 1317.77 80.035 1318.03 79.8172C1318.28 79.5994 1318.58 79.441 1318.9 79.342C1319.21 79.243 1319.55 79.1836 1319.87 79.1836C1320.18 79.1836 1320.52 79.2232 1320.84 79.342C1321.15 79.441 1321.45 79.5994 1321.71 79.8172C1321.97 80.035 1322.18 80.332 1322.34 80.6686C1322.5 81.025 1322.58 81.4606 1322.58 81.9556C1322.58 82.4506 1322.5 82.8862 1322.34 83.2426C1322.18 83.599 1321.97 83.8762 1321.71 84.094C1321.45 84.3118 1321.15 84.4702 1320.84 84.5494C1320.52 84.6484 1320.2 84.688 1319.87 84.688C1319.53 84.688 1319.23 84.6484 1318.9 84.5494C1318.58 84.4702 1318.28 84.3118 1318.03 84.094C1317.77 83.8762 1317.55 83.599 1317.39 83.2426C1317.23 82.8862 1317.16 82.4704 1317.16 81.9556ZM1318.15 81.9556C1318.15 82.2724 1318.17 82.5694 1318.22 82.8664C1318.28 83.1634 1318.38 83.4208 1318.5 83.6386C1318.64 83.8564 1318.82 84.0544 1319.04 84.1732C1319.25 84.3118 1319.53 84.3712 1319.87 84.3712C1320.2 84.3712 1320.46 84.3118 1320.7 84.1732C1320.92 84.0346 1321.1 83.8564 1321.23 83.6386C1321.37 83.4208 1321.47 83.1634 1321.51 82.8664C1321.57 82.5694 1321.59 82.2724 1321.59 81.9556C1321.59 81.6388 1321.57 81.3418 1321.51 81.0448C1321.45 80.7478 1321.35 80.4904 1321.23 80.2726C1321.1 80.0548 1320.92 79.8766 1320.7 79.738C1320.48 79.5994 1320.2 79.54 1319.87 79.54C1319.53 79.54 1319.27 79.5994 1319.04 79.738C1318.82 79.8766 1318.64 80.0548 1318.5 80.2726C1318.36 80.4904 1318.26 80.7478 1318.22 81.0448C1318.17 81.3418 1318.15 81.6388 1318.15 81.9556Z" fill="#703E1E"/>
<path d="M1328.48 80.0746C1328.38 80.035 1328.26 80.0152 1328.14 80.0152C1327.97 80.0152 1327.81 80.0548 1327.67 80.134C1327.53 80.2132 1327.41 80.332 1327.31 80.4706C1327.21 80.6092 1327.13 80.7676 1327.09 80.9656C1327.04 81.1636 1327.02 81.3616 1327.02 81.5794V82.807C1327.02 83.302 1327.02 83.6782 1327.02 83.9554C1327.02 84.2128 1327.02 84.4306 1327.06 84.589C1326.9 84.589 1326.76 84.5692 1326.6 84.5692C1326.44 84.5692 1326.28 84.5692 1326.12 84.589C1326.14 84.3316 1326.16 83.995 1326.16 83.5594C1326.16 83.1238 1326.16 82.5892 1326.16 81.9556V81.5992C1326.16 81.3022 1326.16 80.9656 1326.16 80.5894C1326.16 80.2132 1326.16 79.7776 1326.12 79.2826C1326.2 79.2826 1326.28 79.3024 1326.36 79.3222C1326.44 79.3222 1326.52 79.3222 1326.6 79.3222C1326.66 79.3222 1326.74 79.3222 1326.82 79.3222C1326.9 79.3222 1326.98 79.3024 1327.06 79.2826C1327.02 79.54 1327.02 79.7578 1327 79.9162C1327 80.0746 1327 80.2132 1327 80.3716H1327.02C1327.45 79.5796 1327.95 79.1836 1328.48 79.1836C1328.54 79.1836 1328.6 79.1836 1328.66 79.1836C1328.72 79.1836 1328.78 79.2034 1328.84 79.243C1328.8 79.3222 1328.78 79.4608 1328.78 79.6588C1328.78 79.837 1328.78 80.0152 1328.78 80.1538L1328.7 80.2132C1328.7 80.2132 1328.58 80.134 1328.48 80.0944V80.0746Z" fill="#703E1E"/>
<path d="M1332.16 79.8155C1332.5 79.5581 1332.8 79.3997 1333.09 79.3007C1333.37 79.2215 1333.67 79.1621 1333.97 79.1621C1334.24 79.1621 1334.48 79.2017 1334.7 79.2809C1334.92 79.3601 1335.11 79.4789 1335.27 79.6175C1335.43 79.7561 1335.55 79.9343 1335.65 80.1323C1335.73 80.3303 1335.79 80.5679 1335.79 80.8055C1335.79 81.2213 1335.79 81.6569 1335.77 82.0727C1335.77 82.4885 1335.75 82.9439 1335.75 83.3993C1335.75 83.4785 1335.75 83.5775 1335.75 83.6765C1335.75 83.7755 1335.77 83.8745 1335.81 83.9339C1335.83 84.0131 1335.89 84.0725 1335.93 84.1319C1335.98 84.1913 1336.06 84.2111 1336.18 84.2111C1336.22 84.2111 1336.26 84.2111 1336.3 84.2111C1336.34 84.2111 1336.38 84.2111 1336.42 84.1715V84.4091C1336.42 84.4091 1336.24 84.4685 1336.12 84.4883C1336 84.5081 1335.87 84.5279 1335.71 84.5279C1335.47 84.5279 1335.29 84.4685 1335.15 84.3497C1335.03 84.2309 1334.96 84.0725 1334.94 83.8745C1334.68 84.1319 1334.4 84.3299 1334.14 84.4685C1333.89 84.5873 1333.57 84.6665 1333.19 84.6665C1333.01 84.6665 1332.82 84.6467 1332.64 84.5873C1332.46 84.5279 1332.3 84.4487 1332.16 84.3299C1332.02 84.2111 1331.91 84.0725 1331.83 83.8943C1331.75 83.7359 1331.71 83.5379 1331.71 83.3201C1331.71 82.8647 1331.85 82.5281 1332.12 82.2905C1332.4 82.0529 1332.78 81.8747 1333.27 81.7955C1333.67 81.7361 1333.98 81.6767 1334.22 81.6173C1334.44 81.5777 1334.62 81.5183 1334.72 81.4589C1334.82 81.3995 1334.9 81.3401 1334.92 81.2807C1334.94 81.2015 1334.96 81.1223 1334.96 81.0035C1334.96 80.8253 1334.94 80.6471 1334.9 80.4689C1334.86 80.2907 1334.78 80.1521 1334.68 80.0135C1334.58 79.8947 1334.46 79.7759 1334.3 79.7165C1334.14 79.6373 1333.97 79.5977 1333.73 79.5977C1333.43 79.5977 1333.15 79.6571 1332.9 79.7957C1332.64 79.9343 1332.44 80.1125 1332.32 80.3501H1332.2V79.7759L1332.16 79.8155ZM1334.92 81.7955C1334.8 81.8351 1334.64 81.8747 1334.48 81.9143C1334.32 81.9539 1334.14 81.9737 1333.97 82.0133C1333.79 82.0529 1333.63 82.0925 1333.45 82.1321C1333.29 82.1915 1333.13 82.2509 1333 82.3499C1332.86 82.4291 1332.76 82.5479 1332.68 82.6865C1332.6 82.8251 1332.56 82.9835 1332.56 83.2013C1332.56 83.5577 1332.66 83.8151 1332.86 83.9933C1333.05 84.1715 1333.27 84.2507 1333.53 84.2507C1333.81 84.2507 1334.06 84.1715 1334.3 84.0131C1334.54 83.8547 1334.72 83.6765 1334.84 83.4587L1334.88 81.7955H1334.92Z" fill="#703E1E"/>
<path d="M1340.97 77.7971C1340.95 78.0743 1340.93 78.3515 1340.92 78.6287C1340.92 78.9059 1340.9 79.1634 1340.88 79.4406C1340.95 79.4406 1341.11 79.4406 1341.33 79.4406C1341.55 79.4406 1341.79 79.4405 1342.06 79.4207C1342.06 79.4405 1342.06 79.4802 1342.06 79.5396V79.7771C1342.06 79.7771 1342.06 79.8564 1342.06 79.896C1341.96 79.896 1341.87 79.896 1341.77 79.896C1341.67 79.896 1341.55 79.896 1341.43 79.896H1340.88C1340.88 79.896 1340.88 80.0544 1340.86 80.2524C1340.86 80.4504 1340.84 80.7078 1340.84 80.985C1340.84 81.2622 1340.84 81.5592 1340.84 81.876C1340.84 82.1928 1340.84 82.47 1340.84 82.7076C1340.84 82.9056 1340.84 83.1234 1340.84 83.3214C1340.84 83.5194 1340.88 83.6976 1340.93 83.856C1340.99 84.0144 1341.07 84.153 1341.19 84.2322C1341.31 84.3312 1341.49 84.3708 1341.71 84.3708C1341.77 84.3708 1341.85 84.3708 1341.94 84.351C1342.04 84.351 1342.12 84.3114 1342.2 84.2916V84.549C1342.08 84.5688 1341.94 84.6084 1341.79 84.6282C1341.63 84.6678 1341.49 84.6876 1341.35 84.6876C1340.88 84.6876 1340.54 84.5688 1340.32 84.351C1340.1 84.1332 1339.98 83.7768 1339.98 83.3412C1339.98 83.1432 1339.98 82.9254 1339.98 82.6878C1339.98 82.4502 1339.98 82.1928 1340 81.9156C1340 81.6384 1340.02 81.3216 1340.02 80.985C1340.02 80.6484 1340.02 80.2722 1340.02 79.8564H1339.67C1339.67 79.8564 1339.55 79.8564 1339.47 79.8564C1339.41 79.8564 1339.33 79.8564 1339.25 79.8564C1339.25 79.8168 1339.25 79.7771 1339.25 79.7375C1339.25 79.6979 1339.25 79.6584 1339.25 79.6188C1339.25 79.5792 1339.25 79.5395 1339.25 79.4999C1339.25 79.4603 1339.25 79.4207 1339.25 79.3811C1339.59 79.4009 1339.83 79.4207 1339.98 79.4207C1339.98 79.2821 1339.98 79.0841 1339.98 78.8663C1339.98 78.6485 1339.98 78.4109 1339.96 78.1733L1340.9 77.7773H1340.95L1340.97 77.7971Z" fill="#703E1E"/>
<path d="M1345.53 77.3415C1345.53 77.1831 1345.59 77.0445 1345.69 76.9455C1345.81 76.8267 1345.92 76.7871 1346.08 76.7871C1346.24 76.7871 1346.38 76.8465 1346.48 76.9455C1346.58 77.0445 1346.64 77.1831 1346.64 77.3415C1346.64 77.4999 1346.58 77.6385 1346.48 77.7375C1346.36 77.8563 1346.24 77.8959 1346.08 77.8959C1345.92 77.8959 1345.79 77.8365 1345.69 77.7375C1345.57 77.6187 1345.53 77.4999 1345.53 77.3415ZM1345.69 81.3609C1345.69 81.0243 1345.69 80.6679 1345.69 80.3115C1345.69 79.9353 1345.65 79.5987 1345.61 79.2819C1345.81 79.3215 1345.98 79.3413 1346.1 79.3413C1346.22 79.3413 1346.4 79.3413 1346.6 79.2819C1346.56 79.5987 1346.54 79.9353 1346.52 80.3115C1346.52 80.6877 1346.52 81.0243 1346.52 81.3609V82.5093C1346.52 82.8459 1346.52 83.2023 1346.52 83.5587C1346.52 83.9349 1346.56 84.2517 1346.6 84.5487C1346.42 84.5487 1346.26 84.5289 1346.1 84.5289C1345.94 84.5289 1345.77 84.5289 1345.61 84.5487C1345.65 84.2517 1345.67 83.9151 1345.69 83.5587C1345.69 83.1825 1345.69 82.8459 1345.69 82.5093V81.3609Z" fill="#703E1E"/>
<path d="M1350.38 81.9556C1350.38 81.4606 1350.46 81.025 1350.62 80.6686C1350.78 80.3122 1350.99 80.035 1351.25 79.8172C1351.51 79.5994 1351.81 79.441 1352.12 79.342C1352.44 79.243 1352.78 79.1836 1353.09 79.1836C1353.41 79.1836 1353.75 79.2232 1354.06 79.342C1354.38 79.4608 1354.68 79.5994 1354.93 79.8172C1355.19 80.035 1355.41 80.332 1355.57 80.6686C1355.73 81.025 1355.8 81.4606 1355.8 81.9556C1355.8 82.4506 1355.73 82.8862 1355.57 83.2426C1355.41 83.599 1355.19 83.8762 1354.93 84.094C1354.68 84.3118 1354.38 84.4702 1354.06 84.5494C1353.75 84.6484 1353.43 84.688 1353.09 84.688C1352.76 84.688 1352.46 84.6484 1352.12 84.5494C1351.81 84.4702 1351.51 84.3118 1351.25 84.094C1350.99 83.8762 1350.78 83.599 1350.62 83.2426C1350.46 82.8862 1350.38 82.4704 1350.38 81.9556ZM1351.37 81.9556C1351.37 82.2724 1351.39 82.5694 1351.45 82.8664C1351.51 83.1634 1351.61 83.4208 1351.73 83.6386C1351.86 83.8564 1352.04 84.0544 1352.26 84.1732C1352.48 84.3118 1352.76 84.3712 1353.09 84.3712C1353.43 84.3712 1353.69 84.3118 1353.92 84.1732C1354.14 84.0346 1354.32 83.8564 1354.46 83.6386C1354.6 83.4208 1354.7 83.1634 1354.74 82.8664C1354.79 82.5694 1354.81 82.2724 1354.81 81.9556C1354.81 81.6388 1354.79 81.3418 1354.74 81.0448C1354.68 80.7478 1354.58 80.4904 1354.46 80.2726C1354.32 80.0548 1354.14 79.8766 1353.92 79.738C1353.71 79.5994 1353.43 79.54 1353.09 79.54C1352.76 79.54 1352.5 79.5994 1352.26 79.738C1352.04 79.8766 1351.86 80.0548 1351.73 80.2726C1351.59 80.4904 1351.49 80.7478 1351.45 81.0448C1351.39 81.3418 1351.37 81.6388 1351.37 81.9556Z" fill="#703E1E"/>
<path d="M1362.68 80.1733C1362.46 79.8961 1362.16 79.7377 1361.78 79.7377C1361.27 79.7377 1360.89 79.8961 1360.64 80.2129C1360.4 80.5297 1360.28 80.9851 1360.28 81.5593V82.5097C1360.28 82.8463 1360.28 83.2027 1360.28 83.5591C1360.28 83.9353 1360.32 84.2521 1360.36 84.5492C1360.18 84.5492 1360.02 84.5294 1359.86 84.5294C1359.71 84.5294 1359.53 84.5294 1359.37 84.5492C1359.41 84.2521 1359.43 83.9155 1359.45 83.5591C1359.45 83.1829 1359.45 82.8463 1359.45 82.5097V81.3613C1359.45 81.0247 1359.45 80.6683 1359.45 80.3119C1359.45 79.9357 1359.41 79.5991 1359.37 79.2823C1359.57 79.3219 1359.75 79.3417 1359.86 79.3417C1359.92 79.3417 1359.98 79.3417 1360.06 79.3417C1360.14 79.3417 1360.22 79.3219 1360.32 79.3021C1360.3 79.5991 1360.28 79.8961 1360.28 80.1931H1360.3C1360.5 79.8763 1360.76 79.6189 1361.05 79.4605C1361.35 79.2823 1361.69 79.2031 1362.08 79.2031C1362.28 79.2031 1362.5 79.2229 1362.72 79.3021C1362.93 79.3615 1363.11 79.4605 1363.29 79.5991C1363.47 79.7377 1363.61 79.9357 1363.71 80.1931C1363.8 80.4505 1363.86 80.7673 1363.86 81.1435C1363.86 81.4603 1363.86 81.7969 1363.84 82.1335C1363.84 82.4701 1363.82 82.8265 1363.82 83.2027V83.9353C1363.82 84.0541 1363.82 84.1729 1363.82 84.2917C1363.82 84.4105 1363.82 84.5096 1363.82 84.6284C1363.67 84.6284 1363.53 84.6085 1363.35 84.6085C1363.17 84.6085 1363.03 84.6086 1362.89 84.6284C1362.89 84.2522 1362.93 83.8363 1362.95 83.4403C1362.95 83.0245 1362.97 82.6087 1362.97 82.1731V81.4999C1362.97 80.9455 1362.87 80.5297 1362.66 80.2327L1362.68 80.1733Z" fill="#703E1E"/>
<path d="M1118.08 69.2079C1117.71 69.9405 1117.43 70.6929 1117.23 71.4453C1117.04 72.1977 1116.9 72.9897 1116.82 73.7817C1116.74 74.5935 1116.72 75.4251 1116.72 76.3161C1116.72 77.2071 1116.76 78.0585 1116.82 78.8505C1116.9 79.6623 1117.04 80.4345 1117.23 81.187C1117.45 81.9394 1117.73 82.672 1118.1 83.3848C1118.48 84.0976 1118.94 84.8302 1119.51 85.5628L1119.03 85.9786C1117.77 84.6124 1116.82 83.1274 1116.18 81.4642C1115.55 79.8207 1115.23 78.0981 1115.23 76.2963C1115.23 75.4449 1115.31 74.5737 1115.47 73.7025C1115.63 72.8313 1115.87 71.9799 1116.2 71.1483C1116.52 70.3167 1116.92 69.5049 1117.39 68.7327C1117.87 67.9605 1118.4 67.2279 1119.03 66.5547L1119.51 66.9705C1118.92 67.7229 1118.44 68.4555 1118.06 69.1881L1118.08 69.2079Z" fill="#703E1E"/>
<path d="M1122.1 79.2673C1122.1 78.3169 1122.36 77.4457 1122.9 76.6536C1123.41 75.8616 1124.28 75.2676 1125.51 74.8518V74.6934C1125.21 74.634 1124.92 74.5152 1124.62 74.337C1124.32 74.1588 1124.04 73.941 1123.79 73.6638C1123.53 73.3866 1123.33 73.0698 1123.17 72.6936C1123.01 72.3174 1122.94 71.9214 1122.94 71.4858C1122.94 70.9908 1123.03 70.5156 1123.25 70.08C1123.47 69.6444 1123.77 69.2484 1124.14 68.892C1124.52 68.5554 1124.99 68.2782 1125.53 68.0802C1126.06 67.8822 1126.68 67.7832 1127.35 67.7832C1128.12 67.7832 1128.8 67.8822 1129.37 68.0802C1129.93 68.2782 1130.4 68.5356 1130.76 68.8326C1131.11 69.1494 1131.39 69.5058 1131.57 69.9216C1131.75 70.3374 1131.85 70.773 1131.85 71.2284C1131.85 71.9808 1131.63 72.6738 1131.17 73.3074C1130.74 73.941 1130.08 74.3964 1129.21 74.6736V74.832C1129.47 74.8716 1129.81 74.9706 1130.2 75.129C1130.6 75.2874 1130.95 75.5052 1131.31 75.8022C1131.67 76.0992 1131.96 76.4952 1132.22 76.9902C1132.48 77.4654 1132.6 78.0793 1132.6 78.7921C1132.6 79.5643 1132.46 80.2771 1132.18 80.8909C1131.91 81.5047 1131.53 82.0393 1131.05 82.4947C1130.58 82.9303 1130.02 83.2669 1129.39 83.4847C1128.76 83.7025 1128.08 83.8213 1127.37 83.8213C1126.66 83.8213 1125.95 83.7223 1125.31 83.5441C1124.68 83.3659 1124.12 83.0887 1123.65 82.6927C1123.17 82.2967 1122.82 81.8215 1122.56 81.2671C1122.3 80.7127 1122.16 80.0593 1122.16 79.3267L1122.1 79.2673ZM1130.48 79.1485C1130.48 78.5743 1130.4 78.0397 1130.26 77.5645C1130.12 77.0892 1129.91 76.6734 1129.63 76.317C1129.35 75.9606 1129.01 75.7032 1128.64 75.5052C1128.24 75.3072 1127.81 75.2082 1127.33 75.2082C1126.86 75.2082 1126.42 75.3072 1126.02 75.5052C1125.63 75.7032 1125.31 75.9804 1125.03 76.317C1124.76 76.6734 1124.56 77.0892 1124.4 77.5645C1124.24 78.0397 1124.18 78.5743 1124.18 79.1485C1124.18 79.7227 1124.26 80.2573 1124.4 80.7325C1124.54 81.2077 1124.76 81.6235 1125.03 81.9799C1125.31 82.3363 1125.65 82.6135 1126.02 82.7917C1126.42 82.9897 1126.86 83.0887 1127.33 83.0887C1127.81 83.0887 1128.24 82.9897 1128.64 82.7917C1129.03 82.5937 1129.35 82.3165 1129.63 81.9799C1129.91 81.6235 1130.1 81.2077 1130.26 80.7325C1130.4 80.2573 1130.48 79.7227 1130.48 79.1485ZM1129.87 71.4858C1129.87 71.0898 1129.83 70.6938 1129.73 70.3374C1129.63 69.981 1129.49 69.6642 1129.27 69.387C1129.05 69.1098 1128.8 68.892 1128.48 68.7336C1128.16 68.5752 1127.79 68.496 1127.33 68.496C1126.88 68.496 1126.52 68.5752 1126.2 68.7336C1125.89 68.892 1125.63 69.1098 1125.41 69.387C1125.21 69.6642 1125.05 69.981 1124.98 70.3374C1124.88 70.6938 1124.84 71.07 1124.84 71.4858C1124.84 71.9016 1124.88 72.258 1124.98 72.6144C1125.07 72.9906 1125.21 73.3074 1125.41 73.5648C1125.61 73.842 1125.87 74.0598 1126.2 74.2182C1126.52 74.3766 1126.9 74.4558 1127.33 74.4558C1127.77 74.4558 1128.16 74.3766 1128.48 74.2182C1128.8 74.0598 1129.05 73.842 1129.27 73.5648C1129.49 73.2876 1129.63 72.9708 1129.73 72.6144C1129.83 72.258 1129.87 71.862 1129.87 71.4858Z" fill="#703E1E"/>
<path d="M1141.57 75.0879V76.5333H1135.75V75.0879H1141.57Z" fill="#703E1E"/>
<path d="M1144.97 70.772C1144.8 70.4552 1144.58 70.2176 1144.28 70.0196V69.8612C1145.17 69.5048 1146.08 69.1088 1147.01 68.6732C1147.94 68.2376 1148.81 67.8218 1149.63 67.4258L1149.78 67.5446C1149.73 68.5742 1149.67 69.584 1149.65 70.5938C1149.61 71.6036 1149.61 72.6134 1149.61 73.643V77.5436C1149.61 78.5732 1149.61 79.583 1149.65 80.573C1149.69 81.5631 1149.73 82.5333 1149.78 83.4837C1149.61 83.4441 1149.41 83.4441 1149.23 83.4441H1148.12C1147.94 83.4441 1147.77 83.4441 1147.57 83.4837C1147.65 82.5135 1147.69 81.5432 1147.73 80.5532C1147.75 79.5632 1147.77 78.5732 1147.77 77.5436V69.2276L1144.97 70.772Z" fill="#703E1E"/>
<path d="M1156.5 68.2966C1157.19 67.9204 1158.02 67.7422 1158.99 67.7422C1159.61 67.7422 1160.18 67.8214 1160.71 67.9798C1161.27 68.1382 1161.72 68.3758 1162.12 68.7322C1162.52 69.0688 1162.83 69.5044 1163.07 70.0192C1163.31 70.534 1163.43 71.1676 1163.43 71.8804C1163.43 72.415 1163.37 72.91 1163.25 73.3654C1163.13 73.8208 1162.93 74.2762 1162.69 74.7118C1162.46 75.1474 1162.14 75.583 1161.78 76.0384C1161.41 76.474 1160.99 76.9492 1160.48 77.4442L1159.45 78.4738C1159.05 78.8698 1158.65 79.2658 1158.26 79.6816C1157.86 80.0974 1157.49 80.5132 1157.13 80.9092C1156.77 81.325 1156.48 81.6814 1156.22 82.0378H1158.44C1159.57 82.0378 1160.56 82.0378 1161.43 81.9784C1162.3 81.9388 1163.05 81.8992 1163.7 81.8596C1163.62 82.1962 1163.59 82.4933 1163.59 82.7309C1163.59 82.9487 1163.62 83.2061 1163.7 83.5229C1162.85 83.4833 1162.02 83.4833 1161.21 83.4833H1156.2C1155.37 83.4833 1154.54 83.4833 1153.69 83.5229V83.2457C1154.77 82.1764 1155.72 81.226 1156.52 80.3944C1157.33 79.5826 1158 78.8302 1158.56 78.1768C1159.11 77.5234 1159.57 76.9294 1159.92 76.3948C1160.28 75.8602 1160.56 75.3652 1160.75 74.89C1160.95 74.4148 1161.09 73.9396 1161.17 73.4842C1161.25 73.0288 1161.27 72.5338 1161.27 71.9992C1161.27 70.8508 1161.01 69.9994 1160.48 69.445C1159.96 68.8906 1159.35 68.6134 1158.64 68.6134C1158.14 68.6134 1157.7 68.7124 1157.35 68.8906C1156.99 69.0688 1156.69 69.2866 1156.46 69.544C1156.22 69.8014 1156.04 70.0786 1155.92 70.3756C1155.8 70.6726 1155.7 70.93 1155.67 71.1676L1155.51 71.2072L1154.69 70.0588C1155.19 69.2668 1155.78 68.6728 1156.48 68.2966H1156.5Z" fill="#703E1E"/>
<path d="M1167.98 70.4552C1167.94 69.4652 1167.9 68.4554 1167.86 67.4258C1168.55 67.4654 1169.27 67.4852 1169.96 67.505C1170.65 67.5248 1171.35 67.5446 1172.06 67.5446C1172.77 67.5446 1173.47 67.5446 1174.18 67.505C1174.89 67.4654 1175.68 67.4456 1176.51 67.4258C1176.47 67.6634 1176.44 67.901 1176.44 68.1188C1176.44 68.3366 1176.46 68.594 1176.51 68.8118C1176.1 68.7722 1175.58 68.7128 1174.99 68.693C1174.4 68.6534 1173.8 68.6138 1173.17 68.594C1172.55 68.5742 1171.96 68.5544 1171.39 68.5346C1170.81 68.5346 1170.34 68.5148 1169.98 68.5148C1169.98 69.0692 1169.96 69.584 1169.94 70.079C1169.94 70.574 1169.94 71.069 1169.94 71.5838C1169.94 72.1382 1169.94 72.6332 1169.94 73.0886C1169.94 73.544 1169.94 74.0192 1169.94 74.534C1170.97 74.534 1171.98 74.534 1172.99 74.4944C1174 74.4548 1174.99 74.3954 1175.98 74.3162C1175.92 74.5538 1175.88 74.7914 1175.88 75.0092C1175.88 75.227 1175.92 75.4844 1175.98 75.7022C1175.58 75.6626 1175.15 75.623 1174.65 75.6032C1174.16 75.5834 1173.64 75.5636 1173.13 75.5438C1172.59 75.5438 1172.06 75.524 1171.52 75.524H1169.96V77.504C1169.96 78.5336 1169.96 79.5434 1170.02 80.5532C1170.06 81.5432 1170.1 82.5333 1170.16 83.5035C1169.8 83.4639 1169.43 83.4639 1169.01 83.4639C1168.59 83.4639 1168.22 83.4639 1167.86 83.5035C1167.9 82.5333 1167.96 81.563 1167.98 80.5532C1168.02 79.5632 1168.04 78.5336 1168.04 77.504V73.4846C1168.04 72.455 1168.02 71.4452 1167.98 70.4552Z" fill="#703E1E"/>
<path d="M1180.63 83.3845C1181.01 82.6717 1181.29 81.9391 1181.48 81.1867C1181.68 80.4343 1181.82 79.6423 1181.9 78.8503C1181.98 78.0385 1182.02 77.2069 1182.02 76.3159C1182.02 75.4249 1181.98 74.5735 1181.9 73.7815C1181.82 72.9696 1181.68 72.1974 1181.48 71.445C1181.29 70.6926 1180.99 69.9402 1180.63 69.2076C1180.26 68.475 1179.8 67.7424 1179.23 66.99L1179.7 66.5742C1180.97 67.9206 1181.92 69.4452 1182.53 71.1282C1183.17 72.8112 1183.48 74.5338 1183.48 76.3357C1183.48 78.1375 1183.17 79.7809 1182.53 81.4639C1181.9 83.1469 1180.95 84.6715 1179.7 86.0179L1179.23 85.6021C1179.8 84.8497 1180.28 84.1171 1180.63 83.4241V83.3845Z" fill="#703E1E"/>
</g>
<defs>
<linearGradient id="paint0_linear_538_238167" x1="2015.54" y1="66.9069" x2="133.083" y2="59.9364" gradientUnits="userSpaceOnUse">
<stop offset="0.27" stop-color="#9E2426" stop-opacity="0"/>
<stop offset="0.75" stop-color="#9E2426" stop-opacity="0.66"/>
<stop offset="0.99" stop-color="#9E2426"/>
</linearGradient>
<clipPath id="clip0_538_238167">
<rect width="1920" height="132" fill="white"/>
</clipPath>
</defs>
</svg>
