<?xml version="1.0" encoding="utf-8"?>
<!-- Generator: Adobe Illustrator 27.0.0, SVG Export Plug-In . SVG Version: 6.00 Build 0)  -->
<svg version="1.1" id="圖層_1" xmlns="http://www.w3.org/2000/svg" xmlns:xlink="http://www.w3.org/1999/xlink" x="0px" y="0px"
	 viewBox="0 0 400 17" style="enable-background:new 0 0 400 17;" xml:space="preserve">
<style type="text/css">
	.st0{fill:#D8B167;}
</style>
<path class="st0" d="M100.7,5.1c1.9,0.3,2.5,1,2.5,1.6c0,0.4-0.3,0.7-0.6,0.7c-0.2,0-0.3-0.1-0.5-0.2c-0.2-0.7-0.8-1.5-1.5-2
	L100.7,5.1L100.7,5.1z M101.6,11.1c0.2,0,0.3,0,0.4-0.3c0.1-0.2,0.3-0.6,3.1-7.3l0.3,0.1c-0.7,2-1.9,5.9-2.2,6.7
	c-0.1,0.5-0.2,1.1-0.2,1.4c0,0.7,0.5,1.4,0.5,2.6s-0.6,1.3-1,1.3c-0.3,0-0.6-0.3-0.6-0.8c0.1-0.6,0.1-1.2,0.1-1.7
	c0-1.6-0.3-1.7-1.2-1.8v-0.3C101.4,11.1,101.6,11.1,101.6,11.1L101.6,11.1L101.6,11.1z M101.4,1c2,0.3,2.7,1.1,2.7,1.7
	c0,0.4-0.3,0.8-0.7,0.8c-0.2,0-0.3-0.1-0.5-0.2c-0.2-0.8-0.9-1.7-1.6-2.1L101.4,1L101.4,1z M114.5,7.9l1.3,1.1
	c-0.1,0.2-0.3,0.3-0.8,0.3h-4.5c0.8,2.5,2.6,4.3,5.1,5.1l0,0.2c-0.5,0.1-0.9,0.5-1,1.2c-2.4-1.2-3.7-3.3-4.4-6.4H110
	c-0.6,2.7-2.1,5-5.8,6.4l-0.1-0.2c2.9-1.6,4.2-3.7,4.7-6.2h-4.5L104.2,9h1.7V3.4l1.4,0.6h1.8V0.8l1.9,0.2c0,0.3-0.2,0.3-0.7,0.4V4
	h1.9l0.5-0.7l1.6,1.1c-0.1,0.1-0.4,0.3-0.7,0.3V9h0.1L114.5,7.9L114.5,7.9z M107.1,9h1.8c0.2-1.1,0.3-2.1,0.3-3.3V4.3h-2.1L107.1,9
	L107.1,9z M110.4,4.3v1.4c0,1.1-0.1,2.2-0.3,3.3h2.4V4.3L110.4,4.3L110.4,4.3z"/>
<path class="st0" d="M116.7,5.1c1.9,0.3,2.5,1,2.5,1.6c0,0.4-0.3,0.7-0.6,0.7c-0.2,0-0.3-0.1-0.5-0.2c-0.2-0.7-0.8-1.5-1.5-2
	L116.7,5.1L116.7,5.1z M117.6,11.1c0.2,0,0.3,0,0.4-0.3c0.1-0.2,0.3-0.6,3.1-7.3l0.3,0.1c-0.7,2-1.9,5.9-2.2,6.7
	c-0.1,0.5-0.2,1.1-0.2,1.4c0,0.7,0.5,1.4,0.5,2.6s-0.7,1.3-1,1.3c-0.3,0-0.6-0.3-0.6-0.8c0.1-0.6,0.1-1.2,0.1-1.7
	c0-1.6-0.3-1.7-1.2-1.8v-0.3C117.4,11.1,117.6,11.1,117.6,11.1L117.6,11.1L117.6,11.1z M117.3,1c2,0.3,2.7,1.1,2.7,1.7
	c0,0.4-0.3,0.8-0.7,0.8c-0.2,0-0.3-0.1-0.5-0.2c-0.2-0.8-0.9-1.7-1.6-2.1L117.3,1L117.3,1z M130.5,7.9l1.3,1.1
	c-0.1,0.2-0.3,0.3-0.8,0.3h-4.5c0.8,2.5,2.6,4.3,5.1,5.1l0,0.2c-0.5,0.1-0.9,0.5-1,1.2c-2.4-1.2-3.7-3.3-4.4-6.4H126
	c-0.6,2.7-2.1,5-5.8,6.4l-0.1-0.2c2.9-1.6,4.2-3.7,4.7-6.2h-4.5L120.2,9h1.7V3.4l1.4,0.6h1.8V0.8l1.9,0.2c0,0.3-0.2,0.3-0.7,0.4V4
	h1.9l0.5-0.7l1.5,1.1c-0.1,0.1-0.4,0.3-0.7,0.3V9h0.1L130.5,7.9L130.5,7.9z M123.1,9h1.8c0.2-1.1,0.3-2.1,0.3-3.3V4.3h-2.1L123.1,9
	L123.1,9z M126.4,4.3v1.4c0,1.1-0.1,2.2-0.3,3.3h2.3V4.3L126.4,4.3L126.4,4.3z"/>
<path class="st0" d="M147.6,5.7c-0.1,0.2-0.3,0.3-0.8,0.3h-6.2c0.6,3.1,2.3,6.3,7,8.3l0,0.2c-0.7,0.1-1.2,0.4-1.3,1.2
	c-4.4-2.5-5.6-6.4-6-9.7h0c-0.4,3.8-1.9,7.3-7.5,9.7l-0.2-0.3c4.5-2.6,5.9-5.9,6.2-9.5h-6.2l-0.1-0.3h6.3c0.1-1.4,0.1-2.5,0.1-4.8
	l2.1,0.2c0,0.2-0.1,0.4-0.7,0.4c0,1.4-0.1,2.8-0.2,4.2h4.5l0.9-1.2L147.6,5.7L147.6,5.7z"/>
<path class="st0" d="M154.7,10.5c0,0-0.1,0.3-1.1,0.3v-1c-0.1,0.2-0.3,0.3-0.4,0.3c-0.2,0-0.3-0.1-0.4-0.2c-0.1-0.7-0.5-1.6-0.9-2.2
	v7.5c0,0-0.2,0.5-1.2,0.5V8.7c-0.5,1.2-1.1,2.2-1.9,3.2l-0.2-0.2c1-1.9,1.6-4.4,1.9-6.7h-1.8l-0.1-0.3h2.1V0.8l1.8,0.2
	c0,0.2-0.2,0.3-0.7,0.4v3.3h0.3l0.7-1l1.2,1.1c-0.1,0.2-0.3,0.3-0.8,0.3h-1.5v2.3c1,0.5,1.6,1.1,1.8,1.6V6.6l1.1,0.5h2.3l0.4-0.6
	l1.3,0.9c-0.1,0.1-0.3,0.2-0.5,0.3v2.6c0,0-0.4,0.4-1.1,0.4v-0.5h-2.5L154.7,10.5L154.7,10.5z M158.6,11.1c-0.1,0.2-0.2,0.2-0.6,0.2
	c-0.3,0.5-0.7,1.3-1.1,1.9c0.8-0.1,1.7-0.2,2.6-0.3l0,0.2c-1.2,0.4-3,1-5.5,1.7c-0.1,0.2-0.2,0.3-0.4,0.4l-0.8-1.6
	c0.7-0.1,2.1-0.2,3.6-0.4c0.2-0.8,0.5-1.9,0.6-2.6L158.6,11.1L158.6,11.1z M162.6,4.1l1.1,1.1c-0.1,0.2-0.3,0.3-0.7,0.3h-1V14
	c0,0.9-0.2,1.6-1.7,1.8c0-1-0.5-1.1-1.4-1.2v-0.3h1.6c0.2,0,0.3-0.1,0.3-0.3V5.5h-1.7c-0.1,0.1-0.2,0.2-0.3,0.2c-0.1,0-0.2,0-0.4,0
	h-5l-0.1-0.4h2.1v-2h-2.2L153.1,3h2.3V0.8l1.8,0.2c0,0.2-0.2,0.3-0.7,0.4V3h0.7l0.7-0.9l1.3,0.9c-0.1,0.2-0.3,0.3-0.7,0.3h-1.9v2
	h0.7l0.7-0.9l0.9,0.6h2V0.9l1.9,0.2c0,0.2-0.1,0.4-0.7,0.4v3.6L162.6,4.1L162.6,4.1z M154,10.8c1.1,0.6,1.4,1.2,1.4,1.7
	c0,0.5-0.3,0.8-0.7,0.8c-0.2,0-0.4-0.1-0.5-0.3c0-0.1,0-0.2,0-0.3c0-0.6-0.2-1.3-0.4-1.8L154,10.8z M157.2,7.5h-2.5v2.3h2.5V7.5z
	 M159.1,7.1c1.1,1,1.5,2,1.5,2.7c0,0.7-0.4,1.1-0.8,1.1c-0.2,0-0.4-0.1-0.5-0.3c0-0.2,0-0.4,0-0.6c0-0.9-0.2-2-0.5-2.8L159.1,7.1z"
	/>
<path class="st0" d="M177.9,9.1l1.4,1.1c-0.1,0.1-0.3,0.2-0.6,0.2c-0.3,2.6-0.8,4.4-1.5,4.9c-0.5,0.3-1,0.4-1.8,0.4
	c0-0.7-0.2-0.9-1.6-1.1l0-0.3c0.5,0,1.6,0.1,2,0.1c0.3,0,0.4,0,0.6-0.1c0.5-0.4,0.9-1.9,1.1-4.1h-9.2c-1.1,1-2.3,1.9-3.6,2.7
	l-0.2-0.2c2.8-2.1,5-5,6.6-7.9h-5.9l-0.1-0.4h6.2c0.6-1.2,1.1-2.4,1.5-3.6l1.8,0.7c-0.1,0.2-0.3,0.3-0.7,0.2
	c-0.4,0.9-0.8,1.7-1.3,2.6h2.4l0.5-0.6l1.2,1c-0.1,0.1-0.2,0.2-0.5,0.2L175.9,7h0.4l0.5-0.6l1.2,1c-0.1,0.1-0.2,0.2-0.5,0.2
	l-0.3,2.2h0.2L177.9,9.1L177.9,9.1z M167.7,11.6c0.1,0.4,0.2,0.8,0.2,1.2c0,1.4-0.8,2.3-1.7,2.3c-0.5,0-0.7-0.3-0.7-0.6
	c0-0.3,0.3-0.6,0.5-0.7c0.7-0.3,1.4-1.1,1.4-2.2H167.7z M167.1,0.9c1.8,0.7,2.4,1.6,2.4,2.3c0,0.5-0.3,0.9-0.7,0.9
	c-0.2,0-0.4-0.1-0.6-0.3c-0.1-0.9-0.6-2.1-1.2-2.8L167.1,0.9L167.1,0.9z M176.4,7.4h-5.7c-0.6,0.8-1.3,1.6-2.1,2.4h7.4L176.4,7.4
	L176.4,7.4z M169.4,11.4c0.9,0.8,1.3,1.6,1.3,2.2c0,0.7-0.4,1.1-0.8,1.1c-0.2,0-0.4-0.1-0.6-0.4c0.2-0.9,0.2-2.1-0.1-2.8L169.4,11.4
	z M175.1,4.7h-2.7c-0.4,0.8-0.9,1.5-1.5,2.3h3.8L175.1,4.7z M171.4,11.2c1.5,0.6,1.9,1.3,1.9,1.9c0,0.5-0.3,0.8-0.7,0.8
	c-0.2,0-0.3-0.1-0.5-0.3c0-0.8-0.5-1.8-0.9-2.4L171.4,11.2z M173.6,10.9c1.7,0.2,2.3,1,2.3,1.5c0,0.4-0.3,0.7-0.6,0.7
	c-0.1,0-0.3-0.1-0.4-0.2c-0.2-0.6-0.8-1.4-1.4-1.8L173.6,10.9L173.6,10.9z"/>
<path class="st0" d="M194,6l1.5,1c-0.1,0.2-0.3,0.3-0.8,0.3h-14L180.6,7h6.7V5.5h-3.1v0.3c0,0-0.2,0.4-1.3,0.4V1.1l1.4,0.6h7.3
	l0.5-0.7l1.6,1.1c-0.1,0.1-0.4,0.3-0.7,0.3v3.3c0,0-0.4,0.4-1.3,0.4V5.5h-2.5c0,0.2-0.2,0.3-0.6,0.4V7h4.6L194,6L194,6z M180.7,15.1
	c1.5-0.8,3.1-2,3.9-3.1l1.6,0.9c-0.1,0.1-0.2,0.2-0.3,0.2c-0.1,0-0.2,0-0.3,0c-1,0.9-2.9,1.8-4.7,2.3L180.7,15.1z M191.6,11.3h-2.9
	V14c0,0.9-0.2,1.5-1.8,1.6c0-0.9-0.4-1.1-1.6-1.2v-0.2h1.8c0.2,0,0.3-0.1,0.3-0.3v-2.7h-2.9v0.2c0,0-0.2,0.4-1.3,0.4V8l1.4,0.6h6.9
	l0.6-0.7l1.6,1.1c-0.1,0.1-0.4,0.3-0.7,0.3v2.2c0,0-0.4,0.4-1.3,0.4L191.6,11.3L191.6,11.3z M191.8,2.1h-7.6v1.3h7.6V2.1z
	 M184.2,3.8v1.4h7.6V3.8H184.2z M184.5,11h7.1v-2h-7.1V11z M190.2,12.3c3.6,0.4,4.7,1.6,4.7,2.4c0,0.4-0.3,0.6-0.6,0.6
	c-0.1,0-0.2,0-0.4-0.1c-0.5-0.7-1.9-1.9-3.7-2.7L190.2,12.3L190.2,12.3z"/>
<path class="st0" d="M197,15.8c0.6-0.3,1-0.8,1.1-1.6c-0.1,0-0.2,0-0.3,0c-0.6,0-1.1-0.5-1.1-1.1c0-0.6,0.5-1.1,1.1-1.1
	c0.7,0,1.2,0.5,1.2,1.4c0,1.1-0.8,2.4-1.9,2.8L197,15.8L197,15.8z"/>
<path class="st0" d="M209.9,3.2c-0.1,0.1-0.3,0.2-0.7,0.3v7c0,0-0.3,0.4-1.2,0.4V9.5h-1.8v1.8c0,0-0.1,0.4-1.1,0.4V2.2l1.2,0.5h1.6
	l0.5-0.7L209.9,3.2L209.9,3.2z M206.2,9.2h1.8v-6h-1.8V9.2z M218,13.7l1.6,1.1c-0.1,0.2-0.3,0.3-0.8,0.3h-9.9l-0.1-0.3h8.4L218,13.7
	L218,13.7z M217.3,4.9c0.1-0.4,0.2-1,0.3-1.5h-6.3c0.1,0.9-0.3,1.8-1.2,1.8c-0.4,0-0.6-0.2-0.6-0.5c0-0.3,0.2-0.5,0.5-0.7
	c0.4-0.3,0.8-1,0.8-1.7h0.3c0.1,0.3,0.1,0.5,0.2,0.7h2.3V0.8l1.9,0.2c0,0.2-0.2,0.3-0.6,0.4V3h2.6l0.7-0.7l1.3,1.2
	c-0.1,0.1-0.3,0.1-0.6,0.2c-0.3,0.4-0.9,1-1.3,1.3L217.3,4.9l0.8,0.5c-0.1,0.2-0.3,0.3-0.7,0.3h-6.7l-0.1-0.4h5.3l0.8-0.9L217.3,4.9
	L217.3,4.9z M217.6,13c0,0.1-0.6,0.4-1,0.4h-0.2v-0.8h-4.1v0.7c0,0-0.2,0.4-1.2,0.4V6.8l1.3,0.6h3.9l0.5-0.7l1.5,1.1
	c-0.1,0.1-0.3,0.2-0.7,0.3L217.6,13L217.6,13z M216.3,7.8h-4.1v2.1h4.1V7.8z M212.2,12.2h4.1v-2.1h-4.1V12.2z"/>
<path class="st0" d="M225.8,12.5l0.5-0.6l1.3,0.9c-0.1,0.1-0.3,0.2-0.5,0.3v2c0,0-0.3,0.3-1.1,0.3v-0.6h-2.6v0.5
	c0,0-0.2,0.4-1.1,0.4v-3.2c-0.6,0.1-1.1,0.2-1.7,0.2l-0.1-0.3c1.8-0.5,4-1.3,5.2-2l1.2,1c-0.1,0.1-0.2,0.1-0.3,0.1
	c-0.1,0-0.3,0-0.5-0.1c-0.8,0.3-1.9,0.6-3,0.8l0.4,0.2L225.8,12.5L225.8,12.5z M234,3.9l1.4,0.9c-0.1,0.2-0.3,0.3-0.8,0.3h-5.8
	c-0.3,0.3-0.6,0.7-0.9,1h4l0.5-0.7l1.5,1.1c-0.1,0.1-0.3,0.3-0.7,0.3v3.7c0,0-0.4,0.4-1.2,0.4v-0.5h-8.2v0.2c0,0-0.2,0.5-1.2,0.5
	V5.5l1.3,0.6h3.2c0.1-0.3,0.2-0.7,0.2-1h-6.8l-0.1-0.4h12.7L234,3.9L234,3.9z M223.4,3.8V4c0,0-0.2,0.4-1.1,0.4V1.1l1.2,0.5h2.4
	l0.5-0.6l1.4,1c-0.1,0.1-0.3,0.2-0.6,0.3v1.7c0,0-0.3,0.3-1.1,0.3V3.8L223.4,3.8L223.4,3.8z M223.3,14.5h2.6v-1.6h-2.6V14.5z M226,2
	h-2.6v1.4h2.6V2z M232.1,6.5h-8.2v0.9h8.2V6.5z M223.9,7.8v1h8.2v-1H223.9z M223.9,10.1h8.2v-1h-8.2V10.1z M229.9,3.8V4
	c0,0-0.2,0.4-1.2,0.4V1.1l1.2,0.5h2.5L233,1l1.4,1c-0.1,0.1-0.3,0.2-0.6,0.3v1.6c0,0-0.4,0.4-1.1,0.4V3.8H229.9L229.9,3.8z
	 M232.9,12c-0.9-0.4-2-0.7-3.4-0.9l0.1-0.3c4.5,0.1,5.7,1,5.7,1.6c0,0.2-0.2,0.4-0.6,0.4c-0.2,0-0.3-0.1-0.5-0.2
	c-0.2-0.1-0.4-0.2-0.6-0.3l0.7,0.5c-0.1,0.1-0.3,0.2-0.5,0.3v2c0,0-0.3,0.4-1.2,0.4v-0.6h-2.7v0.4c0,0-0.2,0.4-1.2,0.4V12l1.2,0.5
	h2.5L232.9,12L232.9,12z M232.6,1.9h-2.7v1.4h2.7V1.9z M229.9,14.5h2.7v-1.6h-2.7V14.5z"/>
<path class="st0" d="M250.3,10.6l0,2.9c0.7,0.2,0.9,0.3,0.9,0.5c0,0.6-0.7,1.1-3.7,1.1h-6c-2.1,0-3.2-0.5-3.2-2.1V4.5l2,0.2
	c0,0.2-0.2,0.3-0.6,0.4v2.3h7.8V2.5h-10l-0.1-0.3h9.9l0.6-0.8l1.6,1.2c-0.1,0.1-0.4,0.3-0.8,0.4v5.5c0,0-0.4,0.4-1.3,0.4V7.8h-7.8
	v5.3c0,0.7,0.6,0.8,1.8,0.8h6c1.2,0,1.7-0.1,1.9-0.5c0.2-0.4,0.6-1.8,0.8-2.8L250.3,10.6L250.3,10.6z"/>
<path class="st0" d="M267.4,4.7c-0.1,0.2-0.3,0.3-0.8,0.3h-3.4c0.6,2.7,2.2,4.5,4.2,5.5l0,0.2c-0.5,0.1-0.9,0.5-1.1,1.1
	c-1.9-1.4-2.9-3.5-3.3-6.6h0c-0.4,2.5-1.6,4.7-5.3,6.3l-0.2-0.2c2.9-1.7,3.9-3.8,4.3-6.2h-2.6c-0.9,2.9-2.6,5.4-6.2,6.9l-0.1-0.3
	c3.3-1.9,4.8-4.9,5.4-8.4h-2.5c-0.2,0.4-0.4,0.7-0.5,1.1c1.6,0.1,2.2,0.8,2.2,1.2c0,0.3-0.2,0.6-0.5,0.6c-0.1,0-0.3,0-0.4-0.1
	c-0.2-0.5-0.9-1.1-1.4-1.4c-0.3,0.6-0.7,1.1-1.1,1.5c1.7,0.3,2.2,1,2.2,1.6c0,0.3-0.2,0.6-0.5,0.6c-0.1,0-0.3-0.1-0.4-0.2
	c-0.2-0.6-0.8-1.4-1.4-1.8c-0.3,0.4-0.7,0.7-1.1,1l-0.2-0.2c1.2-1.4,2.2-3.8,2.7-6.5l1.8,0.5c-0.1,0.2-0.2,0.3-0.6,0.3
	c-0.2,0.5-0.3,1-0.5,1.4h2.2l0.7-0.7l1.3,1.2c-0.1,0.1-0.3,0.2-0.6,0.2c-0.1,0.4-0.2,0.7-0.3,1.1h2.5c0.1-1.2,0.1-2.5,0.1-3.8
	l1.9,0.2c0,0.2-0.1,0.3-0.6,0.4c0,1.1,0,2.2-0.2,3.3h2.1l0.8-1L267.4,4.7z M255.4,11.7c0.1,0.4,0.1,0.8,0.1,1.1
	c0,1.8-1.1,2.8-2.1,2.8c-0.4,0-0.7-0.2-0.7-0.5c0-0.3,0.2-0.5,0.5-0.7c0.9-0.3,1.8-1.3,1.9-2.7H255.4L255.4,11.7z M257.4,11.9
	c1,0.9,1.3,1.7,1.3,2.4c0,0.8-0.4,1.3-0.9,1.3c-0.2,0-0.4-0.1-0.6-0.4c0.1-0.4,0.2-0.9,0.2-1.4c0-0.7-0.1-1.3-0.3-1.8L257.4,11.9
	L257.4,11.9z M260.3,11.8c1.8,0.9,2.3,2,2.3,2.8c0,0.6-0.3,1-0.7,1c-0.2,0-0.4-0.1-0.5-0.3c0-1.1-0.6-2.5-1.3-3.4L260.3,11.8
	L260.3,11.8z M263.4,11.6c2.8,1,3.7,2.4,3.7,3.3c0,0.5-0.3,0.8-0.6,0.8c-0.2,0-0.3-0.1-0.5-0.2c-0.4-1.3-1.6-2.9-2.7-3.7L263.4,11.6
	L263.4,11.6z M264.5,1.2c1.8,0.3,2.3,0.9,2.3,1.5c0,0.4-0.3,0.7-0.6,0.7c-0.2,0-0.3-0.1-0.5-0.2c-0.2-0.6-0.7-1.4-1.3-1.8L264.5,1.2
	L264.5,1.2z"/>
<path class="st0" d="M275.1,5.9l0.8,0.6c-0.1,0.2-0.3,0.3-0.8,0.3h-6.6l-0.1-0.4h2.9V4.8h-2.1l-0.1-0.4h2.2V3h-2.5l-0.1-0.3h2.6V0.8
	l1.9,0.2c0,0.2-0.2,0.3-0.7,0.4v1.2h1l0.7-0.9l1.4,1c-0.1,0.2-0.3,0.3-0.8,0.3h-2.3v1.5h0.8l0.6-0.8l1.2,0.9
	c-0.1,0.2-0.3,0.3-0.7,0.3h-1.9v1.6h1.2l0.7-0.9L275.1,5.9c0.5-0.9,0.9-2.5,1.1-4.1l1.3,0.3c1.3-0.4,2.7-0.9,3.5-1.4l1.3,1.3
	c-0.1,0.1-0.2,0.1-0.3,0.1c-0.2,0-0.3-0.1-0.5-0.1c-0.9,0.2-2.4,0.4-3.7,0.5c-0.1,0-0.2,0.1-0.4,0.1c-0.5,1.5-1.3,2.7-2.2,3.4
	L275.1,5.9L275.1,5.9z M274,7.5l1.5,1.1c-0.1,0.1-0.4,0.3-0.7,0.3v5.2c0,0.8-0.1,1.3-1.6,1.5c0-0.8-0.3-1-1.2-1.1v-0.2h1.4
	c0.2,0,0.2,0,0.2-0.2v-2.4h-3.2v3.6c0,0-0.1,0.4-1.1,0.4v-8l1.2,0.5h3L274,7.5L274,7.5z M270.4,8.6v2.7h1.1V8.6H270.4z M272.4,11.3
	h1.2V8.6h-1.2V11.3z M282.7,7.9l0.9,0.9c-0.1,0.2-0.3,0.3-0.7,0.3h-0.8v3c0,0-0.3,0.4-1.2,0.4v-0.9h-1.5V14c0,0.9-0.2,1.5-1.7,1.6
	c0-0.9-0.3-1.1-1.4-1.2v-0.2h1.7c0.2,0,0.3-0.1,0.3-0.2v-2.5h-2.1l-0.1-0.4h2.2V9.1h-2.8l-0.1-0.4h2.9V6.6h-2l-0.1-0.3h4.7l0.5-0.7
	l1.4,1c-0.1,0.1-0.3,0.2-0.6,0.3v1.8h0.1L282.7,7.9L282.7,7.9z M278.5,2.9c1,0.7,1.4,1.4,1.4,1.9s-0.4,0.9-0.7,0.9
	c-0.2,0-0.4-0.1-0.5-0.3c0-0.2,0-0.3,0-0.5c0-0.7-0.2-1.4-0.4-1.8L278.5,2.9L278.5,2.9z M279.5,6.7v2.1h1.5V6.7H279.5z M281,11.2
	V9.1h-1.5v2.1H281z M281,2.7c1.8,0.7,2.4,1.7,2.4,2.3c0,0.5-0.3,0.8-0.6,0.8c-0.2,0-0.3-0.1-0.5-0.2c-0.1-0.9-0.8-2.1-1.4-2.8
	L281,2.7L281,2.7z"/>
<path class="st0" d="M291.8,10.3c-1.5,0.4-3.5,0.8-6.4,1.3c-0.1,0.2-0.2,0.3-0.4,0.3l-0.5-1.5c0.6,0,1.8-0.1,3.1-0.2V8.7h-2.6
	l-0.1-0.3h2.8V6.6h-1.4v0.4c0,0-0.1,0.4-1.1,0.4V1.2l1.2,0.5h3.9l0.5-0.6l1.4,1c-0.1,0.1-0.3,0.2-0.6,0.3v4.5c0,0-0.3,0.4-1.1,0.4
	V6.6h-1.5v1.7h1.2l0.7-0.9l1.3,0.9c-0.1,0.2-0.3,0.3-0.7,0.3h-2.4v1.6c0.9-0.1,2-0.1,3-0.2L291.8,10.3L291.8,10.3z M285.8,12.3
	c0.2,0.6,0.2,1.1,0.2,1.6c0,0.5-0.1,1.8-1,1.8c-0.5,0-0.6-0.3-0.6-0.5c0-0.2,0.1-0.5,0.4-0.7c0.3-0.4,0.8-1.4,0.8-2.1L285.8,12.3
	L285.8,12.3z M286.1,2.1v4.2h1.6V2.1H286.1z M286.4,2.8c0.7,0.8,1,1.5,1,2c0,0.5-0.2,0.8-0.5,0.8c-0.1,0-0.2,0-0.3-0.2
	c0.1-0.8-0.2-1.9-0.4-2.5L286.4,2.8L286.4,2.8z M286.8,12.2c0.9,0.8,1.2,1.5,1.2,2c0,0.6-0.3,1-0.7,1c-0.2,0-0.3-0.1-0.5-0.3
	c0-0.2,0.1-0.5,0.1-0.7c0-0.7-0.1-1.4-0.3-1.9L286.8,12.2L286.8,12.2z M288.2,11.9c1.3,0.7,1.7,1.4,1.7,2c0,0.4-0.3,0.7-0.6,0.7
	c-0.1,0-0.3-0.1-0.4-0.2c0-0.8-0.4-1.8-0.9-2.4L288.2,11.9z M290.2,2.1h-1.6v4.2h1.6v-3c0,0-0.1,0-0.2,0c-0.2,0.6-0.6,1.6-1,2.4
	l-0.2-0.1c0.2-0.8,0.3-2.1,0.4-2.8l1,0.3V2.1L290.2,2.1z M289.8,11.6c1.5,0.5,1.9,1.3,1.9,1.8c0,0.4-0.2,0.6-0.5,0.6
	c-0.1,0-0.3,0-0.4-0.2c-0.1-0.7-0.6-1.6-1.1-2.1L289.8,11.6z M299.4,5.8c-0.1,0.2-0.3,0.3-0.7,0.3h-2.9c0.3,3.3,1.1,6.3,3.8,8.2
	l0,0.2c-0.6,0.1-1,0.4-1.1,1.2c-1.8-1.8-2.5-4.9-2.8-7.9h0c-0.4,3.5-1.4,6-4.4,7.9l-0.2-0.2c2.6-2.3,3.3-5.2,3.5-9.3h-2.6l-0.1-0.4
	h2.8c0.1-1.4,0.1-3.1,0.1-4.9l1.9,0.1c0,0.2-0.1,0.3-0.7,0.4c0,1.6,0,3-0.1,4.3h1.4l0.8-1L299.4,5.8L299.4,5.8z M296.6,1.7
	c1.9,0.1,2.5,0.9,2.5,1.5c0,0.4-0.3,0.7-0.6,0.7c-0.1,0-0.3-0.1-0.4-0.2c-0.2-0.6-0.9-1.4-1.5-1.8L296.6,1.7L296.6,1.7z"/>
</svg>
