<svg width="173" height="103" viewBox="0 0 173 103" fill="none" xmlns="http://www.w3.org/2000/svg">
<path d="M172.48 0.129883H0V102.78H172.48V0.129883Z" fill="#E8D0A4"/>
<path d="M18.96 31.9502H155.56" stroke="#581804" stroke-width="0.25" stroke-miterlimit="10"/>
<path d="M26.3 12.4902L27.98 13.8502C27.91 13.9502 27.75 14.0702 27.52 14.1202V23.3002C27.52 23.3002 27.07 23.8502 25.73 23.8502V22.5302H21.14V23.2302C21.14 23.4902 20.45 24.0002 19.65 24.0002H19.39V12.6702L21.25 13.4602H25.62L26.31 12.4902H26.3ZM25.73 13.6802H21.14V17.8002H25.73V13.6802ZM21.14 22.3202H25.73V18.0102H21.14V22.3202Z" fill="#844E1A"/>
<path d="M41.73 15.1997C41.63 15.3397 41.48 15.3797 41.14 15.3797H37.15C38.1 17.6097 40.02 19.2097 41.88 19.9897L41.84 20.1297C41.16 20.2797 40.6 20.8897 40.35 21.7897C38.59 20.4597 37.58 18.3597 36.98 15.3797H36.92V20.8597L37.67 19.6297L39.1 20.9597C39.02 21.0997 38.84 21.1397 38.52 21.1397H36.93V23.5597C36.93 23.7097 36.22 24.0697 35.49 24.0697H35.16V21.1397H33.07L33.02 20.9297H35.16V17.8097C34.09 19.5397 32.51 20.9497 30.42 21.9397L30.31 21.7897C32.14 20.2197 33.46 17.7097 34.05 15.3797H30.49L30.43 15.1797H35.16V11.9297L37.48 12.1597C37.46 12.3897 37.35 12.5197 36.93 12.5697V15.1797H39.14L40.07 13.7797L41.74 15.1997H41.73Z" fill="#844E1A"/>
<path d="M52.3 17.3902L53.12 16.2402L54.61 17.4202C54.53 17.5602 54.37 17.6002 54.04 17.6002H51.48V21.8502C51.48 23.0202 51.21 23.8902 49.23 24.0802C49.21 22.7602 48.74 22.4202 47.52 22.2502V22.0802H49.54C49.69 22.0802 49.75 22.0202 49.75 21.8602V17.6002H43.54L43.48 17.4001H49.75V14.9001L51.92 15.0702C51.91 15.2402 51.86 15.3402 51.48 15.3902V17.4001H52.3V17.3902ZM53.22 13.1102L54.66 14.5702C54.56 14.6902 54.45 14.7202 54.2 14.7402C53.71 15.2002 52.89 15.8002 52.25 16.1402L52.17 16.0602C52.3 15.6002 52.43 14.7902 52.5 14.2202H45.5C45.54 14.4302 45.55 14.6002 45.55 14.7802C45.55 15.5602 45.19 16.3302 44.41 16.3302C43.95 16.3302 43.51 16.0602 43.51 15.5002C43.51 15.1002 43.8 14.7701 44.14 14.5901C44.56 14.3801 45.08 13.8102 45.09 13.1902H45.23C45.34 13.4802 45.42 13.7501 45.47 14.0101H48.16V11.9102L50.4 12.1402C50.38 12.3102 50.28 12.4102 49.95 12.4602V14.0101H52.4L53.23 13.1102H53.22ZM45.4 18.1201C47.35 18.6401 47.99 19.5702 47.99 20.3102C47.99 20.9802 47.48 21.5101 46.91 21.5101C46.62 21.5101 46.32 21.3701 46.07 21.0401C46.11 20.0701 45.84 18.9001 45.32 18.1801L45.4 18.1201Z" fill="#844E1A"/>
<path d="M59.79 13.5797L60.99 14.5497C60.91 14.6897 60.74 14.7297 60.44 14.7297H56.38L56.32 14.5297H59.13L59.78 13.5797H59.79ZM60.9 20.0097C60.84 20.0997 60.7 20.1897 60.48 20.2397V23.1097C60.48 23.1097 60.1 23.5497 59 23.5497V22.6397H58.26V23.5197C58.26 23.5197 58.05 24.0797 56.81 24.0797V19.0097L58.31 19.6597H58.89L59.43 18.8997L60.89 19.9997L60.9 20.0097ZM60.65 13.4197L60.6 13.2197H62V11.9297L63.84 12.0797C63.82 12.2197 63.76 12.3097 63.48 12.3497V13.2197H64.44V11.9297L66.28 12.0797C66.27 12.2197 66.2 12.3097 65.93 12.3497V13.2197H65.94L66.57 12.3097L67.74 13.2397C67.66 13.3897 67.49 13.4197 67.18 13.4197H65.93V13.9797C65.93 14.0597 65.42 14.2397 64.92 14.2897L65.82 14.4597C65.8 14.6797 65.67 14.7797 65.32 14.7797C65.03 14.9497 64.59 15.1997 64.24 15.3897H65.66L66.3 14.5197L67.5 15.4197C67.42 15.5697 67.25 15.5997 66.95 15.5997H65.11V16.6197H65.54L66.13 15.8097L67.25 16.6397C67.17 16.7897 67 16.8197 66.71 16.8197H65.1V17.8597H65.53L66.12 17.0497L67.24 17.8797C67.16 18.0297 66.99 18.0597 66.7 18.0597H65.09V19.1097H65.8L66.47 18.1997L67.73 19.1297C67.65 19.2797 67.48 19.3097 67.18 19.3097H62.66V19.4097C62.66 19.5297 62.22 19.8697 61.49 19.8697H61.23V16.9997C60.94 17.2897 60.65 17.5497 60.34 17.7697L60.51 17.8997C60.43 18.0397 60.25 18.0797 59.95 18.0797H56.86L56.8 17.8797H58.72L59.35 16.9697L60.21 17.6497C60.71 16.7897 61.28 15.3197 61.64 13.9097L61.97 14.0497V13.4097H60.61L60.65 13.4197ZM59.39 15.2997L60.56 16.2297C60.48 16.3697 60.3 16.4097 60 16.4097H56.91L56.85 16.2097H58.77L59.4 15.2997H59.39ZM60.47 12.9297C60.39 13.0697 60.21 13.1097 59.91 13.1097H56.96L56.9 12.9097H58.59L59.26 11.9497L60.47 12.9397V12.9297ZM58.27 22.4297H59.01V19.8697H58.27V22.4297ZM65.93 19.3397L67.33 20.6597C67.25 20.7997 67.13 20.8397 66.85 20.8697C66.53 21.3297 66.15 21.7397 65.71 22.0997C66.38 22.1997 67.07 22.2697 67.73 22.2897V22.4397C67.1 22.6597 66.72 23.2297 66.58 24.0797C65.64 23.8397 64.81 23.5197 64.08 23.0697C62.97 23.5697 61.65 23.8897 60.2 24.0797L60.16 23.9297C61.35 23.5997 62.41 23.1097 63.28 22.4697C62.68 21.9497 62.22 21.2797 61.88 20.4197H60.9L60.84 20.2197H65.02L65.92 19.3497L65.93 19.3397ZM62.11 20.4197C62.6 21.0097 63.31 21.4297 64.15 21.7097C64.53 21.3297 64.84 20.8897 65.09 20.4197H62.11ZM64.45 13.4197H63.49V14.0497C63.49 14.1097 63.09 14.2697 62.64 14.3297L63.37 14.6197C63.32 14.7697 63.2 14.8497 62.89 14.8397L62.63 15.2997L62.86 15.3897H63.66C63.72 15.0097 63.78 14.4597 63.83 14.0797L64.46 14.1997V13.4197H64.45ZM63.64 16.6197V15.5997H62.7V16.6197H63.64ZM63.64 17.8597V16.8197H62.7V17.8597H63.64ZM63.64 19.1097V18.0597H62.7V19.1097H63.64Z" fill="#844E1A"/>
<path d="M84.37 19.0001L85.1 19.6001C85.04 19.7101 84.91 19.7401 84.67 19.7401H84V20.7401C84 20.7401 83.69 21.0701 82.74 21.0701V20.6701H79.74L79.69 20.5001H82.74V19.7301H79.61C79.61 19.7801 79.61 19.8201 79.61 19.8801C79.61 20.2901 79.29 20.6001 78.96 20.6001C78.77 20.6001 78.58 20.5001 78.44 20.2801C78.46 20.1601 78.47 20.0101 78.47 19.8701C78.47 19.5001 78.4 19.1101 78.27 18.8001V23.4501C78.27 23.5401 77.86 23.8301 77.24 23.8301H77.01V20.6201C76.66 21.1401 76.27 21.6301 75.81 22.0701L75.69 21.9301C76.31 20.7201 76.69 19.0201 76.89 17.4701H75.84L75.79 17.3001H77.01V15.7101C76.59 15.7701 76.17 15.8201 75.76 15.8701L75.74 15.7801C76.51 15.2901 77.51 14.4701 77.99 13.9501L79.54 15.3001C79.46 15.3601 79.35 15.4001 79.2 15.4001C79.09 15.4001 78.97 15.3801 78.82 15.3401C78.66 15.3801 78.46 15.4301 78.26 15.4801V17.2901L78.73 16.4901L79.27 17.0001C79.42 16.4001 79.58 15.4701 79.67 14.6401L80.93 15.0301C81.77 14.7001 82.69 14.2001 83.15 13.8701L84.32 14.9201C84.28 14.9701 84.22 15.0001 84.14 15.0001C84.08 15.0001 84.01 14.9801 83.94 14.9501C83.4 15.0701 82.48 15.2001 81.56 15.2601C82.34 15.6001 82.61 15.9701 82.61 16.2701C82.61 16.5401 82.39 16.7501 82.13 16.8201H82.74L83.21 16.2101L83.88 16.6801C83.79 16.1601 83.51 15.5701 83.17 15.2101L83.24 15.1501C84.54 15.3301 84.96 15.8601 84.96 16.3101C84.96 16.6801 84.67 17.0001 84.34 17.0001C84.24 17.0001 84.16 16.9701 84.06 16.9201C83.98 16.9901 83.86 17.0001 83.67 17.0001H82.63V17.8701H83.39L83.91 17.1501L84.89 17.8901C84.82 18.0101 84.69 18.0401 84.44 18.0401H79.33L79.29 17.8701H81.36V17.0001H79.9L79.85 16.8301H81.76C81.6 16.7801 81.44 16.6601 81.34 16.4401C81.4 16.2301 81.43 16.0001 81.43 15.7801C81.43 15.5901 81.41 15.4201 81.36 15.2801H81.11C81.05 15.3201 80.97 15.3301 80.86 15.3301C80.46 16.0501 79.96 16.7001 79.44 17.1401L79.63 17.3301C79.56 17.4401 79.43 17.4801 79.19 17.4801H78.26V18.5701C79.03 18.8601 79.41 19.2301 79.55 19.5701H82.73V18.7801H79.74L79.69 18.6101H82.66L83.06 18.0501L84.21 18.8701C84.21 18.8701 84.1 18.9701 83.99 18.9901V19.5501L84.36 18.9901L84.37 19.0001ZM79.94 21.4301C80.06 21.8401 80.11 22.1901 80.11 22.4801C80.11 22.8401 80.01 23.6301 79.32 23.6301C78.97 23.6301 78.71 23.4201 78.71 23.0601C78.71 22.7901 78.88 22.5501 79.13 22.4201C79.39 22.2401 79.79 21.8101 79.81 21.4201H79.95L79.94 21.4301ZM83.14 22.2401L83.16 22.7801C83.51 22.9301 83.54 22.9801 83.54 23.1401C83.54 23.5801 83.2 23.7901 82.39 23.7901H81.58C80.62 23.7901 80.45 23.5501 80.45 22.6301V21.4201L81.49 21.4801C81.31 21.2801 81.11 21.0801 80.92 20.9501L80.97 20.8701C81.11 20.8601 81.22 20.8601 81.34 20.8601C82.47 20.8601 82.87 21.3301 82.87 21.7401C82.87 22.0601 82.64 22.3401 82.33 22.3401C82.23 22.3401 82.12 22.3001 82 22.2301C81.91 22.0601 81.81 21.8801 81.67 21.7101H81.59V22.6301C81.59 22.7635 81.6433 22.8301 81.75 22.8301H82.39C82.66 22.8301 82.73 22.8301 83.09 22.2401H83.16H83.14ZM83.3 21.3001C84.62 21.6401 85.04 22.2901 85.04 22.8101C85.04 23.2401 84.74 23.5801 84.39 23.5801C84.23 23.5801 84.05 23.5101 83.9 23.3201C83.92 22.6501 83.64 21.8401 83.22 21.3601L83.3 21.3001Z" fill="#844E1A"/>
<path d="M93.22 17.0404L93.8 16.3104L94.87 17.0604C94.8 17.1804 94.68 17.2104 94.43 17.2104H93.04C93.02 17.5704 93 17.9804 92.97 18.3004C92.9 18.3504 92.82 18.3804 92.74 18.4104L93.81 19.2104C93.76 19.2704 93.67 19.3504 93.51 19.3804V22.0004C93.51 22.0004 93.15 22.3304 92.14 22.3304V21.9904H89.03L90.24 22.9904C90.19 23.0504 90.09 23.0904 89.97 23.0904C89.88 23.0904 89.78 23.0704 89.65 23.0304C88.78 23.4804 87.41 23.7904 86.02 23.8304L85.99 23.7104C87.13 23.3504 88.28 22.6304 88.87 21.9904H88.55C88.55 21.9904 88.28 22.4704 87.21 22.4704V18.3304L87.47 18.4304C87.53 18.0604 87.6 17.6304 87.64 17.2004H85.96L85.91 17.0304H87.66C87.74 16.4504 87.8 15.8904 87.83 15.5004L89.15 16.0404H91.77L92.22 15.4204L93.13 16.1204C93.17 15.8504 93.19 15.5404 93.21 15.2904H87.38C87.4 15.4104 87.41 15.5304 87.41 15.6304C87.41 16.2104 87.13 16.6904 86.6 16.6904C86.27 16.6904 85.91 16.4904 85.91 16.0604C85.91 15.7404 86.14 15.4904 86.43 15.3604C86.72 15.2504 87.06 14.9104 87.05 14.5604H87.18C87.26 14.7604 87.32 14.9404 87.35 15.1204H89.6V13.9404L91.42 14.1304C91.4 14.2704 91.32 14.3404 91.05 14.3904V15.1204H93.11L93.75 14.4204L94.86 15.5504C94.78 15.6404 94.69 15.6604 94.48 15.6904C94.15 15.9804 93.59 16.3804 93.14 16.5804L93.08 16.5404H93.03V17.0304H93.2L93.22 17.0404ZM92.05 18.9204L92.36 18.4804C92.29 18.4904 92.22 18.4904 92.16 18.4904C92.02 18.4904 91.88 18.4804 91.72 18.4604L91.75 18.1804H88.73L88.7 18.4104C88.52 18.5104 88.33 18.5804 88.06 18.5804C87.96 18.5804 87.87 18.5704 87.75 18.5604L88.64 18.9204H92.05ZM92.14 19.8704V19.0904H88.57V19.8704H92.14ZM88.57 20.0404V20.8404H92.14V20.0404H88.57ZM88.57 21.8304H92.14V21.0104H88.57V21.8304ZM89.61 18.0204C89.64 17.7904 89.67 17.5004 89.7 17.2104H88.86C88.83 17.4804 88.79 17.7704 88.76 18.0204H89.61ZM89.71 17.0404C89.74 16.7504 89.76 16.4604 89.77 16.2204H88.96C88.94 16.4404 88.91 16.7304 88.87 17.0404H89.71ZM90.76 22.3204C93.63 22.2504 94.44 22.8304 94.44 23.2804C94.44 23.5904 94.05 23.8604 93.63 23.8604C93.43 23.8604 93.21 23.8004 93.03 23.6504C92.63 23.2604 91.88 22.7404 90.74 22.4404L90.77 22.3204H90.76ZM90.89 17.2104C90.86 17.5104 90.83 17.7904 90.8 18.0204H91.77L91.83 17.2104H90.89ZM91.84 17.0404C91.84 16.7404 91.87 16.4604 91.87 16.2204H90.96C90.96 16.4704 90.92 16.7504 90.9 17.0404H91.84Z" fill="#844E1A"/>
<path d="M103.94 15.3304L105.05 16.4504C104.97 16.5404 104.88 16.5604 104.68 16.5904C104.36 16.8804 103.84 17.2804 103.42 17.4904L103.34 17.4304V17.2704C103.34 17.2704 103.24 17.2804 103.19 17.2804H101.15L101.1 17.1104H102.25L102.72 16.5004L103.38 16.9604L103.41 16.1904H100.94V18.6504C100.94 18.7104 100.52 18.9404 99.82 18.9404H99.57V16.1904H97.14C97.19 16.3904 97.21 16.5604 97.21 16.7204C97.21 16.8704 97.19 17.0004 97.16 17.1204H98.09L98.54 16.5304L99.4 17.1404C99.34 17.2604 99.2 17.2904 98.97 17.2904H97.11V17.2504C97.03 17.4204 96.84 17.7404 96.4 17.7404C96.01 17.7404 95.69 17.4804 95.69 17.0704C95.69 16.7304 95.96 16.4904 96.25 16.3704C96.52 16.2604 96.82 15.9404 96.77 15.5704H96.89C96.97 15.7304 97.03 15.8804 97.07 16.0304H99.55V15.0104H96.65L96.6 14.8404H102.23L102.88 13.9404L104.09 14.8604C104.02 14.9804 103.89 15.0104 103.63 15.0104H100.93V16.0304H103.29L103.92 15.3404L103.94 15.3304ZM98.56 17.5304L99.48 18.1804C99.41 18.3004 99.27 18.3304 99.04 18.3304H96.97L96.92 18.1604H98.07L98.55 17.5404L98.56 17.5304ZM104.36 21.5304V22.4304C104.83 22.6404 104.89 22.6704 104.89 22.8904C104.89 23.3704 104.55 23.6704 103.26 23.6704H101.18C99.84 23.6704 99.57 23.4104 99.57 22.1304V21.7104H98.32V21.9404C98.32 21.9404 98.11 22.4704 96.97 22.4704V18.6304L98.41 19.2104H102.14L102.64 18.5004L103.99 19.5104C103.93 19.5904 103.81 19.6904 103.6 19.7404V21.8604C103.6 21.8604 103.24 22.2304 102.23 22.2304V21.7004H100.91V22.2004C100.91 22.5604 100.93 22.5804 101.27 22.5804H103.32C103.7 22.5804 104.01 22.2304 104.25 21.5304H104.34H104.36ZM99.58 19.3804H98.33V20.3604H99.58V19.3804ZM98.33 21.5404H99.58V20.5204H98.33V21.5404ZM102.25 19.3804H100.93V20.3604H102.25V19.3804ZM100.93 21.5404H102.25V20.5204H100.93V21.5404ZM102.88 17.5004L103.85 18.1804C103.78 18.3004 103.64 18.3304 103.4 18.3304H101.13L101.08 18.1604H102.37L102.88 17.5004Z" fill="#844E1A"/>
<path d="M113.83 18.9097L115.08 19.8697C115.02 19.9597 114.91 20.0397 114.73 20.0797C114.7 22.1697 114.69 22.8497 113.11 22.8797C113.11 22.1997 113.04 21.8597 112.53 21.6597V23.4797C112.53 23.5597 112.12 23.8497 111.43 23.8497H111.18V21.6097C110.55 22.2097 109.78 22.7197 108.89 23.1197L108.8 22.9697C109.77 22.1497 110.49 20.9097 110.88 19.7097H110.5C110.47 19.9097 110.44 20.0797 110.42 20.2397C110.24 20.3397 110.05 20.3997 109.8 20.3997C109.64 20.3997 109.44 20.3797 109.19 20.3297L109.23 20.1297C109.16 20.1497 109.09 20.1697 109.02 20.1697C108.84 20.1697 108.64 20.0797 108.5 19.8497C108.5 19.7597 108.52 19.6497 108.52 19.5497C108.52 19.1397 108.43 18.6897 108.27 18.3497V23.4197C108.27 23.5397 107.7 23.8297 107.19 23.8297H106.92V19.9897C106.58 20.4997 106.18 20.9697 105.73 21.3797L105.62 21.2397C106.29 20.0297 106.66 18.3597 106.85 16.7697H105.68L105.64 16.5997H106.92V13.9497L108.64 14.1297C108.62 14.2797 108.55 14.3597 108.27 14.3997V16.4697L108.72 15.7097L109.67 16.6297C109.59 16.7397 109.46 16.7797 109.21 16.7797H108.28V18.1697C108.85 18.3597 109.22 18.5997 109.43 18.8497C109.52 18.2197 109.58 17.5997 109.62 17.1697L110.92 17.7797H111.18V16.1097H109.32L109.27 15.9397H110.89C110.73 15.9097 110.55 15.8397 110.41 15.6497C110.41 15.0997 110.23 14.4497 109.91 14.0697L109.98 14.0197C111.27 14.2297 111.69 14.7497 111.69 15.1997C111.69 15.5797 111.37 15.9097 111.01 15.9397L112.13 15.9497C112.28 15.3497 112.45 14.5097 112.54 13.9297L114.3 14.4797C114.26 14.5997 114.16 14.6597 113.91 14.6497C113.54 15.0197 112.95 15.5297 112.41 15.9497H113.1L113.56 15.2897L114.84 16.2397C114.79 16.3097 114.68 16.3997 114.49 16.4397V18.2797C114.49 18.2797 114.14 18.5797 113.19 18.5797V17.9497H112.53V19.5497H113.32L113.82 18.8997L113.83 18.9097ZM110.71 17.9497C110.67 18.3497 110.59 18.9797 110.53 19.5497H111.19V17.9497H110.72H110.71ZM112.54 16.1197V17.7897H113.2V16.1197H112.54ZM112.54 21.4997H113.1C113.23 21.4997 113.26 21.4997 113.3 21.4597C113.4 21.3497 113.42 20.8697 113.43 19.7197H112.54V21.4997Z" fill="#844E1A"/>
<path d="M118.68 13.9697L119.9 15.3097C119.82 15.4197 119.7 15.4597 119.45 15.4697C119.09 16.0397 118.39 17.0897 117.88 17.7297C119.18 18.3997 119.75 19.2297 119.75 20.0197C119.75 21.0297 119.31 21.7897 118.02 21.9097C118.02 20.8897 117.78 20.7497 117.43 20.6397V20.5297H118.03C118.38 20.5297 118.41 20.1397 118.41 19.9197C118.41 19.1697 118.23 18.3897 117.72 17.7697C117.83 17.0797 117.99 15.7397 118.09 14.9497H117.38V23.4197C117.38 23.5197 116.98 23.8697 116.32 23.8697H116.08V14.2097L117.52 14.7797H117.99L118.68 13.9797V13.9697ZM124.87 16.0897C124.8 16.1997 124.66 16.2397 124.41 16.2397H122.4C122.4 16.3597 122.3 16.4497 122.03 16.4797C122.01 17.0897 121.99 17.7297 121.93 18.3597H122.82L123.35 17.6397L124.66 18.6897C124.59 18.7797 124.47 18.8597 124.26 18.8997C124.17 21.8097 124.01 22.9697 123.5 23.4097C123.14 23.7097 122.79 23.8397 122.12 23.8397C122.12 23.0597 122.04 22.6897 121.12 22.4497V22.3397C121.45 22.3597 122 22.3597 122.19 22.3597C122.34 22.3597 122.41 22.3497 122.48 22.2797C122.73 22.0497 122.84 20.8797 122.92 18.5397H121.91C121.71 20.4697 121.11 22.3797 118.96 23.8097L118.85 23.6897C120.57 21.3397 120.52 18.7297 120.53 16.2597H119.31L119.27 16.0897H121.35V13.9797L123.1 14.1597C123.08 14.3097 122.99 14.3797 122.72 14.4197V16.0997H123.17L123.77 15.1897L124.85 16.1197L124.87 16.0897Z" fill="#844E1A"/>
<path d="M132.5 20.9299C131.54 20.9299 131.26 20.7199 131.2 19.9899C130.57 20.2799 129.68 20.6199 128.4 21.0899C128.34 21.2299 128.24 21.2999 128.13 21.3199L127.5 20.0499C127.35 21.4099 126.89 22.8299 125.63 23.8799L125.54 23.8099C126.26 22.1499 126.28 19.9999 126.28 18.1199V14.7299L127.78 15.2799H129.71V13.9199L131.4 14.0999C131.38 14.2399 131.29 14.3099 131.01 14.3599V15.2899H133.03L133.66 14.3499L134.8 15.3099C134.72 15.4199 134.6 15.4599 134.33 15.4599H127.58V16.3999H128.58V15.5699L130.09 15.7299C130.07 15.8399 130 15.8999 129.79 15.9399V16.4099H130.85V15.5799L132.38 15.7399C132.36 15.8499 132.29 15.9199 132.06 15.9599V16.4199H132.98L133.44 15.7599L134.72 16.7099C134.66 16.7899 134.54 16.8899 134.33 16.9399V17.7999C134.33 17.8599 133.96 18.0299 133.6 18.0999L134.62 18.9199C134.57 18.9799 134.52 19.0199 134.43 19.0199C134.38 19.0199 134.32 19.0099 134.26 18.9899C133.78 19.0999 133.06 19.2099 132.44 19.2599V19.6799C132.44 19.8199 132.503 19.8899 132.63 19.8899H133.5C133.85 19.8899 133.91 19.8899 134.3 19.2099H134.37L134.39 19.8199C134.78 19.9999 134.82 20.0599 134.82 20.2399C134.82 20.7199 134.46 20.9599 133.5 20.9599H132.48L132.5 20.9299ZM133.13 23.2599L133.69 22.4999L134.73 23.2799C134.66 23.3999 134.54 23.4299 134.28 23.4299H126.81L126.76 23.2599H129.97V21.9899H127.64L127.59 21.8199H129.97V20.7999L131.61 20.9699C131.61 21.0899 131.52 21.1599 131.28 21.1999V21.8199H132.23L132.79 21.0599L133.84 21.8399C133.77 21.9599 133.64 21.9899 133.39 21.9899H131.28V23.2599H133.12H133.13ZM127.6 17.8599C127.6 18.5799 127.6 19.2399 127.52 19.9899L128.24 19.9599V17.8599H127.6ZM128.6 16.5499H127.6V17.6899H128.6V16.5499ZM131.2 17.8599H128.55L129.79 17.9799C129.79 18.0899 129.7 18.1499 129.5 18.1899V18.8799H129.82L130.31 18.1699L131.2 18.8899V17.8599ZM129.5 19.0499V19.8899C130.03 19.8599 130.61 19.8199 131.2 19.7699V18.9399C131.12 19.0199 130.99 19.0499 130.77 19.0499H129.49H129.5ZM130.87 16.5499H129.81V17.6899H130.87V16.5499ZM132.76 17.9399C132.76 18.0499 132.7 18.1199 132.46 18.1599V18.9499C132.83 18.6799 133.23 18.3399 133.49 18.0899C133.43 18.0999 133.17 18.0999 133.1 18.0999V17.8599H131.51L132.76 17.9399ZM133.1 16.5499H132.08V17.6899H133.1V16.5499Z" fill="#844E1A"/>
<path d="M143.44 18.2402L144.61 19.3401C144.54 19.4501 144.46 19.4902 144.22 19.5202C143.91 20.3502 143.48 21.0802 142.89 21.7202C143.5 22.0302 144.17 22.2601 144.84 22.4301L144.82 22.5502C144.26 22.6902 143.86 23.1402 143.68 23.8502C143 23.4902 142.43 23.0801 141.95 22.5401C141.18 23.1001 140.22 23.5401 139.05 23.8401L139.02 23.7202C140.03 23.2702 140.83 22.6502 141.45 21.8902C141 21.1802 140.67 20.3101 140.44 19.1501H140.09C140.04 19.2001 139.98 19.2302 139.92 19.2402C139.85 19.2602 139.77 19.2601 139.66 19.2601H138.41V20.1902C139.7 20.3902 140.12 20.9102 140.12 21.3602C140.12 21.7702 139.77 22.1201 139.4 22.1201C139.22 22.1201 139.02 22.0402 138.86 21.8302C138.86 21.3202 138.71 20.7201 138.41 20.3401V23.4702C138.41 23.4702 138.19 23.8602 137.1 23.8602V21.3802C136.67 21.8702 136.16 22.3002 135.58 22.6602L135.49 22.5101C136.15 21.6601 136.56 20.4501 136.79 19.2601H135.55L135.51 19.0901H137.1V17.4102C136.65 17.7002 136.16 17.9602 135.63 18.1602L135.57 18.0401C136.28 17.5001 136.9 16.7701 137.38 16.0101C136.9 15.5801 136.35 15.2101 135.82 14.9501L135.86 14.8502C136.66 14.9102 137.31 15.0402 137.84 15.2102C138.06 14.7602 138.25 14.3302 138.38 13.9102L139.95 14.7202C139.9 14.8202 139.81 14.9001 139.58 14.8701C139.4 15.1701 139.18 15.4702 138.94 15.7702C139.52 16.2002 139.75 16.7002 139.75 17.1002C139.75 17.5302 139.49 17.8401 139.13 17.8401C139.01 17.8401 138.88 17.8001 138.74 17.7301L138.7 17.6602C138.66 17.7402 138.58 17.8002 138.39 17.8302V19.1102H138.46L139.04 18.2601L139.56 18.7001L139.54 18.6702C140.17 17.8502 140.21 16.7801 140.21 15.9001V14.3202L141.68 14.8602H142.12L142.64 14.1201L143.85 15.0802C143.79 15.1602 143.68 15.2202 143.53 15.2502V16.8102C143.53 16.9602 143.53 16.9702 143.6 16.9702C143.92 16.9702 143.96 16.9702 144.01 16.8902C144.11 16.7302 144.24 16.3202 144.34 16.0602H144.4L144.43 16.9301C144.72 17.0701 144.75 17.1601 144.75 17.4001C144.75 17.8901 144.46 18.2202 143.78 18.2202H143.25C142.29 18.2202 142.23 17.9002 142.23 16.7702V15.0302H141.49V15.9001C141.49 16.7401 141.29 18.0402 139.61 18.7402L139.92 19.0002H142.69L143.41 18.2601L143.44 18.2402ZM138.68 17.5602C138.52 17.2702 138.3 16.9801 138.06 16.7001C137.77 16.9501 137.46 17.2002 137.12 17.4202L138.68 17.5702V17.5602ZM140.61 19.1402C140.91 19.9902 141.39 20.6301 142 21.1201C142.36 20.5201 142.63 19.8502 142.81 19.1402H140.6H140.61Z" fill="#844E1A"/>
<path d="M153.55 14.2797L154.69 15.2397C154.62 15.3397 154.52 15.3897 154.26 15.3897H152.31V16.1197C152.31 16.1197 152.16 16.4597 150.92 16.4597V15.3897H149.23V16.1797C149.23 16.1797 149.08 16.5197 147.87 16.5197V15.3897H145.6L145.56 15.2197H147.87V13.9697L149.59 14.1197C149.57 14.2597 149.5 14.3397 149.23 14.3797V15.2197H150.92V13.9697L152.67 14.1197C152.67 14.2697 152.58 14.3397 152.31 14.3797V15.2197H152.92L153.55 14.2797ZM152.46 16.8797L152.98 16.1397L154.32 17.1797C154.25 17.2597 154.14 17.3597 153.93 17.3997V23.3497C153.93 23.3497 153.56 23.7497 152.56 23.7497V23.0397H147.68V23.2697C147.68 23.3197 147.48 23.8397 146.33 23.8397V16.2597L147.79 16.8697H152.46V16.8797ZM147.68 22.8697H152.56V17.0397H151.07L152.09 18.1197C152.03 18.1697 151.95 18.1897 151.87 18.1897C151.76 18.1897 151.64 18.1597 151.49 18.0997C151.27 18.1397 151.01 18.1797 150.73 18.2197V19.3497H151.04L151.55 18.5997L152.51 19.3697C152.44 19.4897 152.31 19.5197 152.06 19.5197H150.73V20.1497C152.03 20.2497 152.45 20.7597 152.45 21.2097C152.45 21.5697 152.15 21.8997 151.82 21.8997C151.67 21.8997 151.51 21.8297 151.37 21.6797C151.3 21.1897 151.05 20.6297 150.73 20.2797V22.0997C150.73 22.1697 150.35 22.4397 149.74 22.4397H149.52V20.9397C149.04 21.4297 148.45 21.8397 147.8 22.1697L147.71 22.0197C148.37 21.3497 148.87 20.4197 149.16 19.5097H147.75L147.71 19.3397H149.52V18.3197C149.01 18.3497 148.49 18.3697 147.99 18.3597L147.96 18.1997C149.03 17.9397 150.36 17.4197 151.05 17.0097H147.69V22.8397L147.68 22.8697Z" fill="#844E1A"/>
<path d="M58.26 76.5293V77.2393H55.05V77.6493H58.73V79.7493H57.87V78.3593H55.05V80.3093H54.2V78.3593H51.42V79.8293H50.56V77.6493H54.2V77.2393H51.02V76.5293H58.26ZM58.15 80.5393V83.4393L58.9 83.6893C58.8 84.3493 58.64 84.7493 58.43 84.8593C58.23 84.9693 57.88 85.0393 57.37 85.0393H54.95C54.69 85.0393 54.49 84.9693 54.35 84.8393C54.2 84.6993 54.13 84.5093 54.13 84.2893V83.6493H51.14V80.5393H58.16H58.15ZM53.88 78.7393V79.3093H51.74V78.7393H53.88ZM53.88 79.5993V80.1693H51.74V79.5993H53.88ZM54.13 81.7793V81.2093H51.96V81.7793H54.13ZM54.13 82.3693H51.96V82.9693H54.13V82.3693ZM54.95 81.7793H57.33V81.2093H54.95V81.7793ZM57.33 82.3693H54.95V82.9693H57.33V82.3693ZM54.95 84.0593C54.95 84.2293 55.05 84.3193 55.27 84.3193H57.27C57.53 84.3193 57.72 84.2893 57.84 84.2393C57.96 84.1793 58.04 83.9893 58.1 83.6393H54.96V84.0493L54.95 84.0593ZM57.59 78.6893V79.2593H55.38V78.6893H57.59ZM57.59 79.5893V80.1593H55.38V79.5893H57.59Z" fill="#40220F"/>
<path d="M60.89 78.1095V76.2795H61.67V78.1095H62.49V78.8995H61.67V79.2495C61.98 79.6595 62.29 80.1095 62.6 80.5895L62.13 81.2995C61.95 80.9195 61.79 80.5895 61.66 80.3095V85.0895H60.88V80.5995C60.61 81.3995 60.27 82.0995 59.89 82.6895L59.57 81.7495C60.09 80.9195 60.52 79.9695 60.87 78.8995H59.67V78.1095H60.88H60.89ZM67.56 77.8095V80.2896H65.49V81.2195H67.81C67.81 82.6895 67.78 83.5595 67.73 83.8295C67.68 84.0395 67.59 84.1795 67.47 84.2395C67.32 84.3195 67.07 84.3595 66.7 84.3595C66.5 84.3595 66.28 84.3395 66.02 84.3195L65.87 83.4295C66.13 83.4795 66.41 83.4995 66.69 83.4995C66.84 83.4995 66.94 83.4495 66.95 83.3395C66.98 83.2095 67 82.7596 67 82.0096H65.47V85.0895H64.65V82.2095C64.46 82.5995 64.26 82.9395 64.04 83.2095C63.64 83.6995 63.05 84.1795 62.3 84.6795L61.87 83.9196C62.62 83.4896 63.15 83.0795 63.46 82.7195C63.64 82.5295 63.81 82.2996 63.95 82.0096H62.55L62.83 79.5096H64.65V78.6095H62.8V77.8195H67.54L67.56 77.8095ZM64.59 77.4995L63.78 77.7296C63.61 77.3296 63.39 76.9395 63.13 76.5695L63.88 76.3395C64.14 76.6895 64.38 77.0695 64.59 77.4995ZM64.66 80.2795H63.57L63.45 81.2095H64.65V80.2795H64.66ZM65.48 79.4895H66.77V78.5895H65.48V79.4895ZM66.98 76.4895C66.81 76.9395 66.6 77.3496 66.34 77.7296L65.52 77.4295C65.76 77.1195 65.98 76.7395 66.16 76.2695L66.98 76.4895Z" fill="#40220F"/>
<path d="M73.42 84.0294L72.82 83.3794C72.25 83.8994 71.64 84.1594 70.99 84.1594C70.34 84.1594 69.83 84.0194 69.42 83.7094C68.94 83.3694 68.7 82.8694 68.7 82.2394C68.7 81.5694 69.15 80.9094 70.04 80.2794C69.58 79.7494 69.36 79.2994 69.36 78.9194C69.36 78.5394 69.51 78.2094 69.83 77.9694C70.1 77.7594 70.43 77.6494 70.82 77.6494C71.21 77.6494 71.54 77.7594 71.81 77.9494C72.13 78.1794 72.29 78.4894 72.29 78.8894C72.29 79.3994 71.96 79.9094 71.31 80.4194L72.69 81.9794C72.85 81.5594 72.95 80.8694 72.95 79.8994H73.81C73.81 81.0494 73.65 81.9694 73.32 82.6594L74.59 84.0294H73.41H73.42ZM70.62 80.9094C69.93 81.3694 69.58 81.7894 69.58 82.1894C69.58 82.5394 69.72 82.8094 70 83.0294C70.26 83.2294 70.57 83.3294 70.95 83.3294C71.42 83.3294 71.85 83.1494 72.24 82.7594L70.62 80.9194V80.9094ZM70.85 78.4694C70.45 78.4694 70.25 78.6194 70.25 78.9194C70.25 79.0894 70.41 79.3694 70.76 79.7694C71.22 79.4394 71.44 79.1594 71.44 78.9194C71.44 78.6194 71.24 78.4694 70.85 78.4694Z" fill="#40220F"/>
<path d="M78.26 76.6499V77.3199C78.16 77.6799 78.06 78.0499 77.95 78.4199C78.54 78.1199 79.01 77.8199 79.35 77.4999C79.64 77.2299 79.95 76.8599 80.3 76.3799H81.01C81.38 76.8999 81.75 77.2999 82.15 77.6099C82.42 77.8499 82.9 78.1299 83.57 78.4499L83.08 79.2399C82.88 79.1599 82.69 79.0699 82.51 78.9499V79.5399H81.12V80.5199H83.33V81.3499H81.12V84.0899C81.12 84.4199 81.05 84.6499 80.9 84.7799C80.77 84.9099 80.54 84.9899 80.19 84.9899H79.44L79.27 84.0899C79.55 84.1499 79.79 84.1699 79.98 84.1699C80.19 84.1699 80.3 84.0899 80.3 83.9399V81.3599H78.37V80.5299H80.3V79.5499H79.01V78.8499C78.75 79.0199 78.47 79.1899 78.16 79.3699L77.86 78.7499C77.77 79.0599 77.68 79.3599 77.59 79.6699C77.82 80.1099 77.98 80.5099 78.08 80.8499C78.2 81.2099 78.26 81.5199 78.26 81.7699C78.24 82.2699 78.15 82.6299 77.97 82.8499C77.77 83.1099 77.33 83.2299 76.66 83.2299L76.41 82.3299C76.56 82.3599 76.7 82.3699 76.84 82.3699C77.02 82.3699 77.16 82.3299 77.25 82.2399C77.35 82.1699 77.41 82.0199 77.41 81.7799C77.41 81.4899 77.36 81.2199 77.28 80.9599C77.18 80.6299 77 80.2499 76.73 79.7899C77.04 78.8899 77.27 78.1299 77.41 77.5099H76.27V85.1199H75.42V76.6799H78.27L78.26 76.6499ZM79.72 82.1199C79.3 83.0799 78.79 83.8799 78.19 84.5199L77.59 83.9199C78.1 83.3599 78.58 82.6299 79.01 81.7499L79.72 82.1299V82.1199ZM82.13 78.6999C81.65 78.3599 81.15 77.8699 80.65 77.2399C80.28 77.6999 79.94 78.0699 79.6 78.3699C79.47 78.4899 79.34 78.5999 79.19 78.6999H82.13ZM83.5 83.9499L82.72 84.5199C82.44 83.8299 82.05 83.0399 81.58 82.1599L82.22 81.7499C82.77 82.6099 83.19 83.3399 83.5 83.9599V83.9499Z" fill="#40220F"/>
<path d="M89.07 76.8698H92.48V77.5797H90.05V78.1097H92.22V80.0598H89.94V80.7598C90.72 80.6698 91.42 80.5198 92.05 80.2898L92.26 80.8798C91.64 81.0998 90.87 81.2598 89.94 81.3698V81.6298C89.94 81.8098 90.03 81.8997 90.23 81.8997H91.41C91.55 81.8997 91.65 81.8797 91.71 81.8297C91.78 81.7897 91.84 81.5998 91.87 81.2498L92.59 81.4798C92.52 82.0198 92.4 82.3198 92.25 82.4198C92.11 82.5198 91.87 82.5598 91.51 82.5598H89.94C89.71 82.5598 89.53 82.4998 89.39 82.3698C89.25 82.2398 89.19 82.0598 89.19 81.8498V80.0497H87.16V80.5797H88.94V81.1797H87.16V81.7798C87.77 81.7198 88.37 81.6497 88.98 81.5497V82.1898C88.11 82.3398 87.1 82.4898 85.95 82.6398L85.8 81.8898C85.99 81.8898 86.18 81.8598 86.37 81.8398V80.0497H85.62V80.6497C85.62 81.3197 85.57 82.0297 85.47 82.7697C85.36 83.5397 85.17 84.2898 84.9 85.0298L84.19 84.3498C84.43 83.7598 84.59 83.1498 84.68 82.4998C84.75 81.8298 84.79 81.2097 84.79 80.6497V76.8597H88.16C88.09 76.6897 88.01 76.5198 87.93 76.3698L88.81 76.2598C88.88 76.4398 88.97 76.6397 89.04 76.8597L89.07 76.8698ZM88.52 83.0598V82.4897H89.34V83.0598H92.12V83.7298H89.34V84.2997H92.59V85.0497H85.38V84.2997H88.52V83.7298H85.96V83.0598H88.52ZM87.13 77.5797H85.63V78.1097H87.13V77.5797ZM87.13 79.3798V78.7697H85.63V79.3798H87.13ZM89.3 77.5797H87.88V78.1097H89.3V77.5797ZM87.88 79.3798H89.3V78.7697H87.88V79.3798ZM90.05 79.3798H91.51V78.7697H90.05V79.3798Z" fill="#40220F"/>
<path d="M94.75 81.5096C94.75 82.1196 94.72 82.5995 94.67 82.9595C94.58 83.4195 94.47 83.7795 94.32 84.0195C94.19 84.2295 94.02 84.4595 93.78 84.6895L93.25 83.9796C93.47 83.7696 93.63 83.5695 93.74 83.3695C93.83 83.2195 93.91 82.9495 93.97 82.5795C94.01 82.2795 94.03 81.8995 94.03 81.4395L94.74 81.5096H94.75ZM95.74 77.2896C96.05 76.9996 96.34 76.6595 96.63 76.2695L97.31 76.6795C96.98 77.1095 96.68 77.4795 96.4 77.7695C96.75 78.0395 97.06 78.2995 97.35 78.5495L96.78 79.1495C96.51 78.8795 96.19 78.5895 95.83 78.3095C95.29 78.7495 94.63 79.1795 93.82 79.6095L93.39 78.8595C94.01 78.6195 94.6 78.2695 95.17 77.8095C94.75 77.5095 94.3 77.2195 93.82 76.9095L94.36 76.3795C94.85 76.6895 95.32 76.9896 95.75 77.2896H95.74ZM95.06 80.3896V79.1495H95.88V80.3896H97.41V81.1795H95.88V85.0895H95.06V81.1795H93.42V80.3896H95.06ZM97.23 80.0096L96.63 80.2795C96.48 79.9495 96.31 79.6696 96.13 79.4196L96.74 79.2296C96.92 79.4796 97.09 79.7395 97.23 80.0195V80.0096ZM96.98 81.4395V82.8995C96.98 83.0695 97.06 83.1595 97.23 83.1595H97.77V83.9095H97.09C96.84 83.9095 96.65 83.8495 96.52 83.7395C96.37 83.6195 96.31 83.4295 96.31 83.1595V81.4395H96.99H96.98ZM101.22 80.3095V80.9496C100.98 81.9396 100.59 82.7796 100.03 83.4796C100.43 83.7496 100.99 84.0196 101.68 84.2896L101.25 85.1095C100.47 84.7795 99.85 84.4495 99.4 84.0895C98.89 84.4695 98.22 84.8195 97.4 85.1095L96.93 84.3595C97.69 84.1195 98.3 83.8295 98.77 83.4995C98.37 83.0095 98.06 82.3496 97.82 81.5096L98.5 81.2896C98.74 82.0496 99.03 82.6196 99.38 82.9796C99.42 82.9396 99.44 82.9095 99.47 82.8795C99.86 82.3995 100.15 81.7995 100.36 81.0895H97.6V80.2995H101.2L101.22 80.3095ZM100.65 78.6996C100.65 78.9296 100.75 79.0495 100.97 79.0495H101.62V79.8795H100.8C100.45 79.8795 100.21 79.7995 100.05 79.6495C99.89 79.5095 99.8 79.2595 99.8 78.8995V77.2896H98.8C98.78 77.9796 98.74 78.4796 98.66 78.7896C98.57 79.1896 98.34 79.6695 97.98 80.2195L97.34 79.6495C97.63 79.1695 97.81 78.7995 97.9 78.5195C97.95 78.2595 97.98 77.5895 97.98 76.4995H100.65V78.7095V78.6996Z" fill="#40220F"/>
<path d="M104.51 76.9395V76.2695H105.37V76.9395H106.44V77.7296H105.37V78.1396H104.51V77.7296H102.51V76.9395H104.51ZM110.46 85.0795H109.61V84.7296H103.65V85.0795H102.8V78.3995H110.46V85.0795ZM109.61 83.9895V79.1495H103.65V83.9895H109.61ZM108.96 80.0195C108.4 80.1495 107.76 80.2395 107.01 80.2995V80.8095H109.35V81.5595H107.01V81.6295C107.76 81.8895 108.52 82.2495 109.32 82.7195L109.04 83.4796C108.38 83.0196 107.71 82.6595 107.01 82.3995V83.8195H106.22V81.6095C106.05 81.9895 105.86 82.3095 105.65 82.5595C105.3 82.9795 104.8 83.3995 104.15 83.8195L103.76 83.1095C104.39 82.7495 104.84 82.4195 105.1 82.1095C105.25 81.9595 105.37 81.7695 105.49 81.5595H103.94V80.8095H106.22V80.3595C105.69 80.3895 105.13 80.3995 104.54 80.3995L104.33 79.6895C106.01 79.6895 107.43 79.5795 108.6 79.3495L108.96 80.0195ZM107.89 76.9496V76.2795H108.75V76.9496H110.78V77.7395H108.75V78.1495H107.89V77.7395H106.86V76.9496H107.89Z" fill="#40220F"/>
<path d="M114.56 82.6497C113.94 83.4297 113.16 84.1297 112.24 84.7397L111.66 83.9497C112.51 83.4497 113.27 82.8297 113.94 82.0797L114.55 82.6497H114.56ZM119.55 77.1697C118.44 77.4097 117.1 77.5797 115.56 77.6797C115.32 78.0997 114.98 78.5297 114.52 78.9997C115.21 78.9697 115.89 78.9297 116.56 78.8797C116.92 78.5397 117.27 78.1897 117.62 77.8097L118.43 78.2197C117.26 79.4097 116.11 80.3997 114.98 81.1697C116.27 81.1297 117.35 81.0597 118.24 80.9597C118.04 80.6097 117.84 80.2397 117.62 79.8797L118.26 79.4697C118.93 80.4597 119.45 81.2997 119.83 82.0097L119.05 82.5797C118.92 82.2897 118.78 81.9797 118.61 81.6597C117.98 81.7497 117.22 81.8197 116.34 81.8797V84.0797C116.34 84.4297 116.26 84.6797 116.09 84.8297C115.94 84.9797 115.67 85.0597 115.27 85.0597H114.45L114.27 84.0797C114.57 84.1397 114.82 84.1597 115.02 84.1597C115.28 84.1597 115.41 84.0797 115.41 83.9297V81.9397C114.47 81.9997 113.41 82.0597 112.24 82.0897L112.02 81.2297C112.6 81.2297 113.14 81.2297 113.66 81.2297C114.37 80.7697 115.06 80.2397 115.73 79.6497C114.76 79.7397 113.69 79.8197 112.52 79.8997L112.35 79.1097C112.7 79.1097 113.03 79.0897 113.37 79.0697C113.86 78.6697 114.27 78.2297 114.59 77.7397C113.8 77.7797 112.97 77.7897 112.09 77.7897L111.84 76.9997C114.71 76.9997 117.14 76.8197 119.15 76.4297L119.54 77.1797L119.55 77.1697ZM119.83 84.0297L119.19 84.6997C118.68 84.0697 117.95 83.3897 117.01 82.6497L117.62 82.0497C118.49 82.7197 119.23 83.3797 119.83 84.0397V84.0297Z" fill="#40220F"/>
<path d="M122.94 76.5293C122.65 77.4293 122.32 78.2393 121.95 78.9293C122.21 78.8893 122.45 78.8493 122.7 78.7993C122.89 78.3793 123.09 77.9293 123.29 77.4393L124 77.6993C123.37 79.1693 122.73 80.3693 122.07 81.3093C122.54 81.2493 122.94 81.1793 123.27 81.0593C123.2 80.7893 123.12 80.5193 123.03 80.2493L123.68 80.0193C123.89 80.6193 124.08 81.2893 124.25 82.0493L123.54 82.2393C123.5 82.0793 123.48 81.9093 123.44 81.7493C122.85 81.9393 122.02 82.0893 120.94 82.1993L120.72 81.3693C120.92 81.3693 121.11 81.3693 121.29 81.3693C121.63 80.8693 121.97 80.2793 122.33 79.5793C121.86 79.6793 121.34 79.7793 120.8 79.8793L120.63 79.0893C120.79 79.0893 120.97 79.0593 121.14 79.0393C121.54 78.2093 121.9 77.2893 122.2 76.2793L122.95 76.5393L122.94 76.5293ZM121.65 82.6093C121.6 83.5593 121.5 84.3593 121.37 85.0093L120.62 84.7793C120.79 84.0793 120.91 83.3293 120.98 82.5293L121.66 82.6093H121.65ZM122.94 84.5993L122.19 84.6793C122.17 83.7793 122.13 83.0793 122.08 82.5793L122.72 82.4993C122.83 83.0193 122.9 83.7193 122.94 84.5993ZM124.14 83.9593L123.46 84.1493C123.37 83.5793 123.27 83.0393 123.14 82.4993L123.75 82.3093C123.89 82.7993 124.01 83.3493 124.13 83.9593H124.14ZM127.05 77.3293H128.99V78.0793H126.37C126.21 78.7293 125.96 79.3593 125.63 79.9393C126.43 79.8993 127.12 79.8093 127.67 79.6593C127.56 79.4293 127.43 79.1893 127.31 78.9393L127.92 78.5293C128.4 79.3193 128.79 79.9893 129.06 80.5593L128.31 81.0893C128.21 80.8493 128.1 80.5993 127.99 80.3393C127.81 80.3893 127.62 80.4293 127.42 80.4593V83.8593C127.42 84.0293 127.51 84.1193 127.7 84.1193H128.06C128.14 84.1193 128.21 84.0693 128.25 83.9593C128.29 83.8393 128.32 83.3293 128.34 82.3993L129.09 82.6293C129.04 83.7393 128.93 84.3893 128.81 84.5793C128.69 84.7693 128.48 84.8793 128.17 84.8793H127.42C127.17 84.8793 126.98 84.8093 126.85 84.6793C126.7 84.5293 126.64 84.3293 126.64 84.0893V80.6193C126.46 80.6493 126.28 80.6793 126.08 80.6993C126.03 81.8993 125.88 82.7893 125.65 83.3693C125.38 84.0493 124.92 84.6393 124.28 85.1493L123.75 84.4393C124.32 84.0193 124.7 83.5593 124.92 83.0393C125.12 82.5993 125.24 81.8493 125.29 80.7893C124.98 80.8293 124.65 80.8593 124.31 80.8793L124.1 80.0193C124.32 80.0193 124.54 80.0193 124.75 80.0193C125.1 79.4193 125.36 78.7793 125.54 78.1193H124.1V77.3693H126.18C126.05 77.1193 125.91 76.8593 125.73 76.5793L126.51 76.2793C126.69 76.5893 126.87 76.9493 127.03 77.3593L127.05 77.3293Z" fill="#40220F"/>
<path d="M111.06 48.0997C114.65 48.0997 118.16 47.9797 121.66 48.1497C123.58 48.2497 124.64 49.6697 124.8 51.6097C125.01 54.1597 124.62 54.9497 122.41 56.3297C124.89 57.1297 125.3 59.0497 125.18 61.2297C125.06 63.4997 123.82 65.0097 121.56 65.2297C119.46 65.4397 117.33 65.3897 115.22 65.4297C113.86 65.4597 112.5 65.4297 111.06 65.4297V48.0797V48.0997ZM115.39 61.4197C116.7 61.4197 117.95 61.4697 119.19 61.3997C120.06 61.3597 120.4 60.6997 120.44 59.9197C120.48 59.2097 120.36 58.4097 119.51 58.3397C118.14 58.2297 116.76 58.3097 115.39 58.3097V61.4197ZM115.38 54.8097C116.66 54.8097 117.85 54.8697 119.02 54.7897C119.87 54.7397 120.26 54.1097 120.24 53.2997C120.22 52.6097 119.96 51.9697 119.15 51.9397C117.91 51.8897 116.66 51.9297 115.37 51.9297V54.8097H115.38Z" fill="#40220F"/>
<path d="M69.26 56.7001C69.18 58.0101 69.12 59.3001 69 60.5901C68.75 63.2401 67.54 64.8101 64.94 65.1101C62.63 65.3801 60.24 65.3401 57.92 65.0701C55.57 64.7901 54.27 63.3701 54.13 61.0301C53.95 58.1401 53.95 55.2301 54.13 52.3401C54.27 50.0001 55.57 48.5601 57.9 48.2801C60.21 48.0001 62.61 47.9601 64.92 48.2201C67.53 48.5101 68.75 50.0701 69.01 52.7101C69.14 54.0301 69.19 55.3701 69.27 56.6901L69.26 56.7001ZM64.88 56.7301C64.88 56.7301 64.85 56.7301 64.84 56.7301C64.84 56.4201 64.84 56.1201 64.84 55.8101C64.84 52.3301 63.8 51.4401 60.34 51.9201C59.17 52.0801 58.51 52.5901 58.36 53.7701C58.2 55.0101 58.19 56.2801 58.18 57.5301C58.16 60.9801 59.16 61.8501 62.58 61.4301C63.89 61.2701 64.56 60.6701 64.73 59.3701C64.84 58.4901 64.84 57.6001 64.89 56.7201L64.88 56.7301Z" fill="#40220F"/>
<path d="M97.78 54.4V47.96H102.02V65.37H97.83V58.94H91.19V65.38H86.93V47.96H91.11V54.39H97.79L97.78 54.4Z" fill="#40220F"/>
<path d="M126.36 65.4497C128.02 59.4897 129.62 53.7197 131.22 47.9297H137.9C139.5 53.6897 141.11 59.4797 142.76 65.4397C141.24 65.4397 139.89 65.4697 138.54 65.4097C138.33 65.4097 138.04 65.0297 137.94 64.7697C137.63 63.9497 137.64 62.7497 137.07 62.3597C136.43 61.9197 135.3 62.1897 134.38 62.1897C131.93 62.1797 131.91 62.1897 131.28 64.5397C131.1 65.1897 130.86 65.5097 130.11 65.4697C128.92 65.3897 127.73 65.4497 126.35 65.4497H126.36ZM136.36 58.8597C135.78 56.6597 135.21 54.5397 134.65 52.4297C134.58 52.4297 134.52 52.4297 134.45 52.4297C133.84 54.5397 133.22 56.6497 132.58 58.8497H136.35L136.36 58.8597Z" fill="#40220F"/>
<path d="M84.21 53.5096C82.96 53.5096 81.9 53.5596 80.85 53.4796C80.59 53.4596 80.25 53.0596 80.14 52.7596C79.78 51.7096 78.73 51.2695 77.02 51.5495C76.09 51.6995 75.71 52.2595 75.77 53.3295C75.81 54.1395 76.2 54.5795 77.03 54.6595C78.32 54.7795 79.62 54.8795 80.9 55.0595C83.08 55.3695 84.19 56.4495 84.43 58.6595C84.55 59.7695 84.52 60.9195 84.35 62.0195C84.11 63.6695 83.04 64.7095 81.43 65.0795C79 65.6395 76.54 65.5795 74.12 65.0295C72.83 64.7395 71.91 63.9195 71.68 62.5595C71.52 61.6395 71.49 60.6895 71.4 59.6795H75.64C76.14 61.6195 77.36 62.2595 79.28 61.6095C80.08 61.3395 80.21 60.6995 80.2 59.9695C80.19 59.1595 79.76 58.6696 78.99 58.5696C78.11 58.4496 77.22 58.4095 76.34 58.3295C75.83 58.2795 75.32 58.2295 74.82 58.1295C72.88 57.7495 71.82 56.7596 71.59 54.8196C71.46 53.6796 71.52 52.4995 71.7 51.3595C71.98 49.5395 73.16 48.3596 74.98 48.1996C76.97 48.0296 79 48.0096 80.99 48.1996C82.9 48.3696 83.74 49.3995 84.03 51.3595C84.13 52.0295 84.15 52.7095 84.22 53.5295L84.21 53.5096Z" fill="#40220F"/>
<path d="M47.24 65.3995H42.89V52.2895H38.51V47.9795H51.52V52.2095H47.23V65.4095L47.24 65.3995Z" fill="#40220F"/>
<path d="M104.44 47.9492H108.65V65.3792H104.44V47.9492Z" fill="#40220F"/>
</svg>
