<?xml version="1.0" encoding="utf-8"?>
<!-- Generator: Adobe Illustrator 27.0.0, SVG Export Plug-In . SVG Version: 6.00 Build 0)  -->
<svg version="1.1" id="圖層_1" xmlns="http://www.w3.org/2000/svg" xmlns:xlink="http://www.w3.org/1999/xlink" x="0px" y="0px"
	 viewBox="0 0 120 92" style="enable-background:new 0 0 120 92;" xml:space="preserve">
<style type="text/css">
	.st0{fill:#3E3A39;}
	.st1{fill:#C79F62;}
</style>
<g>
	<g>
		<g>
			<path class="st0" d="M1.5,40.9v-0.6H4c0.5,0.8,1.5,1.5,3,2.1l-0.4,0.7C6.3,43.1,6.1,43,6,42.9v0.4h-2v1.1h1.9V45H3.9v1.2h2.8v0.6
				H0.5v-0.6h2.7V45H1.4v-0.6h1.9v-1.1h-2v-0.4c-0.2,0.1-0.4,0.2-0.6,0.3l-0.4-0.7c0.8-0.3,1.3-0.6,1.8-0.9c0.3-0.2,0.6-0.4,0.8-0.7
				H1.5z M5.7,42.7c-0.3-0.2-0.6-0.4-0.8-0.5c-0.5-0.4-0.9-0.8-1.2-1.2c-0.2,0.4-0.5,0.6-0.7,0.9c-0.3,0.3-0.7,0.6-1.3,0.9H5.7z"/>
			<path class="st0" d="M11,40.5c-0.5,0.9-0.9,1.6-1.4,2.2c0.1,0,0.3,0,0.4,0c1.1,0,2.2-0.1,3.2-0.3c-0.3-0.4-0.6-0.7-0.9-1.1
				l0.5-0.5c0.7,0.8,1.3,1.5,1.7,2.3L14,43.7c-0.1-0.2-0.2-0.4-0.4-0.6c-1.4,0.2-3.2,0.3-5.3,0.3l-0.1-0.8c0.2,0,0.5,0,0.7,0.1
				c0.5-0.6,0.9-1.4,1.4-2.4L11,40.5z M13.9,47h-0.7v-0.4H9.4v0.4H8.7v-3.1h5.3V47z M13.2,45.9v-1.4H9.4v1.4H13.2z"/>
			<path class="st0" d="M18.5,42.7v-2.4h0.8v2.4h2.9v0.7h-2.9V47h-0.8v-3.6h-2.9v-0.7H18.5z"/>
			<path class="st0" d="M26,42.2c0-0.4,0.1-0.8,0.1-1.3v-0.5h0.7v0.5c0,0.5,0,0.9-0.1,1.3h3v0.7h-2.2c0.2,0.7,0.4,1.3,0.7,1.8
				c0.4,0.6,0.9,1.1,1.6,1.5l-0.4,0.7c-0.8-0.5-1.4-1.2-1.8-1.8c-0.4-0.6-0.6-1.3-0.8-2.2h-0.2c-0.1,0.5-0.2,0.9-0.4,1.3
				c-0.4,0.9-1.1,1.8-2.2,2.7l-0.6-0.5c1-0.7,1.8-1.5,2.2-2.4c0.2-0.3,0.3-0.7,0.4-1.1h-2.4v-0.7H26z"/>
			<path class="st0" d="M34.7,40.8v-0.5h0.7v0.5h1.7v1h0.4v0.5h-0.4v1.1h-1.7v0.5h1.8v0.5h-1.8v0.5h2.1v0.5h-2.1v0.6
				c0.1,0,0.2,0,0.3,0c0.8,0,1.5,0,1.9-0.1l-0.1,0.7c-2.2,0-3.6-0.1-4.1-0.2c-0.4-0.1-0.8-0.3-1.1-0.5c0,0-0.1,0-0.1-0.1
				c-0.2,0.3-0.5,0.6-0.9,0.9l-0.4-0.7c0.4-0.3,0.7-0.5,0.9-0.8c-0.2-0.4-0.4-0.9-0.7-1.5l0.6-0.2c0.2,0.4,0.3,0.8,0.5,1
				c0,0,0-0.1,0-0.1c0.1-0.3,0.2-0.7,0.2-1.3h-1.2v-0.4c0.4-0.5,0.8-1.1,1.2-1.7H31v-0.5h2.1v0.6c-0.4,0.7-0.8,1.2-1.1,1.6H33
				c0,0.8-0.1,1.5-0.3,2c-0.1,0.2-0.1,0.4-0.2,0.6c0.2,0.2,0.4,0.3,0.8,0.4c0.3,0.1,0.7,0.1,1.4,0.2v-0.6H33v-0.5h1.7v-0.5h-1.4
				v-0.5h1.4v-0.5h-1.3v-0.5h1.3v-0.6H33v-0.5h1.7v-0.5h-1.3v-0.5H34.7z M35.4,41.8h1.1v-0.5h-1.1V41.8z M35.4,42.9h1.1v-0.6h-1.1
				V42.9z"/>
			<path class="st0" d="M40.3,40.4c-0.1,0.1-0.1,0.3-0.2,0.4h1.8v0.5c0.3-0.3,0.6-0.7,0.7-1.1l0.7,0.1c-0.1,0.2-0.1,0.3-0.2,0.4h2.2
				v0.6h-1.2c0.1,0.2,0.1,0.4,0.2,0.5L43.5,42c-0.1-0.2-0.1-0.4-0.1-0.6h-0.7c-0.2,0.2-0.3,0.4-0.5,0.6l-0.6-0.4
				c0.1-0.1,0.2-0.2,0.3-0.3h-1c0.1,0.2,0.1,0.3,0.2,0.5L40.4,42c-0.1-0.2-0.1-0.4-0.2-0.6h-0.5c-0.2,0.2-0.4,0.5-0.6,0.7l-0.6-0.4
				c0.5-0.4,0.9-0.9,1.1-1.4L40.3,40.4z M41.6,44.5v-0.4l-0.3-0.2c0.3-0.1,0.6-0.2,0.8-0.4c-0.2-0.1-0.4-0.2-0.6-0.2l0.3-0.5
				c0.2,0.1,0.4,0.1,0.6,0.2c0-0.1,0-0.1,0-0.2v-0.3h-0.8v-0.5h2.6v1.4c0,0.1,0.1,0.2,0.2,0.2h0c0.1,0,0.1,0,0.1-0.1
				c0,0,0.1-0.2,0.1-0.6l0.5,0.2c0,0.5-0.1,0.8-0.2,0.9c-0.1,0.1-0.3,0.1-0.5,0.1h-0.3c-0.2,0-0.3,0-0.4-0.1
				c-0.1-0.1-0.1-0.2-0.1-0.4v-1.1H43v0.3c0,0.2,0,0.3-0.1,0.4c0.2,0.1,0.4,0.2,0.7,0.3l-0.3,0.5c-0.2-0.1-0.4-0.3-0.6-0.4
				c-0.1,0.1-0.3,0.2-0.5,0.3h0.1v0.4h3v0.6H43c0.3,0.2,0.5,0.4,0.7,0.5c0.3,0.2,0.8,0.4,1.5,0.5l-0.3,0.6c-0.8-0.3-1.4-0.5-1.7-0.8
				c-0.3-0.2-0.6-0.4-0.9-0.8v1.8h-0.7v-1.8h0c-0.2,0.3-0.5,0.5-0.7,0.7c-0.4,0.3-1.1,0.6-1.9,0.9l-0.4-0.6c0.9-0.3,1.5-0.5,1.8-0.7
				c0.2-0.1,0.3-0.2,0.5-0.3h-2.3v-0.6H41.6z M41.4,42.2v0.6h-1v0.6c0.3-0.1,0.6-0.1,1-0.2v0.6c-0.8,0.2-1.6,0.4-2.7,0.5l-0.1-0.7
				c0.4,0,0.8-0.1,1.2-0.1v-0.7h-1v-0.6H41.4z"/>
			<path class="st0" d="M48.3,40.4c-0.1,0.2-0.2,0.4-0.3,0.6H49v2.3h-1.8V44h2v2.8h-0.7v-0.4h-1.3v0.4h-0.7V41h0.9
				c0.1-0.2,0.2-0.5,0.2-0.7L48.3,40.4z M48.3,42.7v-1.1h-1.2v1.1H48.3z M48.4,45.7v-1.2h-1.3v1.2H48.4z M52.9,40.6v0.6h-1.5V42h1.3
				v3.7c0,0.2-0.1,0.3-0.1,0.5c-0.1,0.1-0.2,0.2-0.4,0.2h-0.4l-0.2-0.7l0.4,0c0.1,0,0.1-0.1,0.1-0.2v-2.9h-0.7v4.3h-0.7v-4.3h-0.7
				v3.8h-0.6V42h1.3v-0.8h-1.5v-0.6H52.9z"/>
			<path class="st0" d="M4,50.7h2.9v0.5H0.4v-0.5h2.9c-0.1-0.1-0.2-0.2-0.3-0.3l0.8-0.1C3.8,50.4,3.9,50.5,4,50.7z M6.8,54.1H6.1
				v-0.8h-5v0.8H0.4v-1.2h6.4V54.1z M5.8,53.6v0.5H3.9c-0.1,0-0.1,0.1-0.2,0.1c0.2,0.2,0.4,0.4,0.5,0.6c0.6-0.1,1.2-0.3,1.7-0.6
				l0.4,0.5c-0.3,0.1-0.7,0.3-1,0.4c0.1,0.2,0.3,0.4,0.5,0.5c0.2,0.2,0.5,0.4,0.9,0.6l-0.4,0.5c-0.4-0.3-0.8-0.6-1.1-0.9
				c-0.2-0.2-0.4-0.4-0.5-0.7c-0.1,0-0.3,0.1-0.4,0.1c0.1,0.2,0.1,0.5,0.1,0.7c0,0.3-0.1,0.5-0.2,0.7c-0.1,0.1-0.6,0.2-1.2,0.2
				l-0.2-0.6c0,0,0.1,0,0.3,0c0.3,0,0.4,0,0.5-0.1c0.1,0,0.1-0.1,0.1-0.3c0-0.1,0-0.2,0-0.3c-0.4,0.2-0.8,0.4-1.1,0.5
				c-0.5,0.2-1.2,0.4-1.9,0.5l-0.3-0.5c0.8-0.1,1.4-0.3,2-0.5c0.4-0.2,0.8-0.3,1.2-0.5c0,0,0,0,0,0c0-0.1-0.1-0.1-0.1-0.2
				c-0.4,0.2-0.8,0.4-1.1,0.5c-0.5,0.2-1,0.3-1.7,0.4l-0.3-0.5c0.7-0.1,1.2-0.2,1.8-0.4c0.4-0.1,0.7-0.2,1-0.4
				c-0.1,0-0.1-0.1-0.2-0.2c0,0,0,0,0,0c-0.6,0.2-1.4,0.4-2.2,0.5l-0.3-0.5c0.8-0.1,1.5-0.2,2-0.3c0.2,0,0.3-0.1,0.4-0.1H1.4v-0.5
				H5.8z M6.2,51.5v1.2H1v-1.2H6.2z M5.5,51.9H1.7v0.3h3.8V51.9z"/>
			<path class="st0" d="M13.3,52.4c-0.6,0.2-1.3,0.4-2.1,0.5v1l3.1-0.4l0.1,0.6l-3.2,0.4v1.2c0,0.2,0.1,0.2,0.3,0.2h1.9
				c0.1,0,0.2,0,0.2-0.1c0.1-0.1,0.1-0.4,0.1-1.1l0.7,0.2c-0.1,0.8-0.2,1.2-0.3,1.4c-0.1,0.1-0.4,0.2-0.7,0.2h-2.3
				c-0.2,0-0.4-0.1-0.6-0.2c-0.1-0.1-0.2-0.3-0.2-0.5v-1.3L8.2,55l-0.1-0.7l2.3-0.3v-1c-0.4,0.1-0.9,0.1-1.4,0.2L9,52.6
				c1.5-0.1,2.9-0.4,4.1-0.9L13.3,52.4z M11.7,50.9h2.7v1.8h-0.7v-1.2H8.9v1.2H8.2v-1.8H11c-0.1-0.2-0.2-0.4-0.3-0.5l0.8-0.1
				C11.5,50.4,11.6,50.6,11.7,50.9z"/>
			<path class="st0" d="M19.4,50.7v-0.5H20v0.5h1.7v1h0.4v0.5h-0.4v1.1H20v0.5h1.8v0.5H20v0.5h2.1v0.5H20V56c0.1,0,0.2,0,0.3,0
				c0.8,0,1.5,0,1.9-0.1l-0.1,0.7c-2.2,0-3.6-0.1-4.1-0.2c-0.4-0.1-0.8-0.3-1.1-0.5c0,0-0.1,0-0.1-0.1c-0.2,0.3-0.5,0.6-0.9,0.9
				l-0.4-0.7c0.4-0.3,0.7-0.5,0.9-0.8c-0.2-0.4-0.4-0.9-0.7-1.5l0.6-0.2c0.2,0.4,0.3,0.8,0.5,1c0,0,0-0.1,0-0.1
				c0.1-0.3,0.2-0.7,0.2-1.3h-1.2v-0.4c0.4-0.5,0.8-1.1,1.2-1.7h-1.3v-0.5h2.1v0.6c-0.4,0.7-0.8,1.2-1.1,1.6h1.1
				c0,0.8-0.1,1.5-0.3,2c-0.1,0.2-0.1,0.4-0.2,0.6c0.2,0.2,0.4,0.3,0.8,0.4c0.3,0.1,0.7,0.1,1.4,0.2v-0.6h-1.7v-0.5h1.7v-0.5H18
				v-0.5h1.4v-0.5h-1.3v-0.5h1.3v-0.6h-1.7v-0.5h1.7v-0.5h-1.3v-0.5H19.4z M20,51.8h1.1v-0.5H20V51.8z M20,52.9h1.1v-0.6H20V52.9z"
				/>
			<path class="st0" d="M25,50.3c-0.1,0.1-0.1,0.3-0.2,0.4h1.8v0.5c0.3-0.3,0.6-0.7,0.7-1.1l0.7,0.1c-0.1,0.2-0.1,0.3-0.2,0.4h2.2
				v0.6h-1.2c0.1,0.2,0.1,0.4,0.2,0.5l-0.7,0.1c-0.1-0.2-0.1-0.4-0.1-0.6h-0.7c-0.2,0.2-0.3,0.4-0.5,0.6l-0.6-0.4
				c0.1-0.1,0.2-0.2,0.3-0.3h-1c0.1,0.2,0.1,0.3,0.2,0.5l-0.7,0.1c-0.1-0.2-0.1-0.4-0.2-0.6h-0.5c-0.2,0.2-0.4,0.5-0.6,0.7l-0.6-0.4
				c0.5-0.4,0.9-0.9,1.1-1.4L25,50.3z M26.3,54.4v-0.4L26,53.8c0.3-0.1,0.6-0.2,0.8-0.4c-0.2-0.1-0.4-0.2-0.6-0.2l0.3-0.5
				c0.2,0.1,0.4,0.1,0.6,0.2c0-0.1,0-0.1,0-0.2v-0.3h-0.8V52H29v1.4c0,0.1,0.1,0.2,0.2,0.2h0c0.1,0,0.1,0,0.1-0.1
				c0,0,0.1-0.2,0.1-0.6l0.5,0.2c0,0.5-0.1,0.8-0.2,0.9c-0.1,0.1-0.3,0.1-0.5,0.1H29c-0.2,0-0.3,0-0.4-0.1c-0.1-0.1-0.1-0.2-0.1-0.4
				v-1.1h-0.7v0.3c0,0.2,0,0.3-0.1,0.4c0.2,0.1,0.4,0.2,0.7,0.3l-0.3,0.5c-0.2-0.1-0.4-0.3-0.6-0.4c-0.1,0.1-0.3,0.2-0.5,0.3H27v0.4
				h3V55h-2.3c0.3,0.2,0.5,0.4,0.7,0.5c0.3,0.2,0.8,0.4,1.5,0.5l-0.3,0.6c-0.8-0.3-1.4-0.5-1.7-0.8c-0.3-0.2-0.6-0.4-0.9-0.8v1.8
				h-0.7V55h0c-0.2,0.3-0.5,0.5-0.7,0.7c-0.4,0.3-1.1,0.6-1.9,0.9l-0.4-0.6c0.9-0.3,1.5-0.5,1.8-0.7c0.2-0.1,0.3-0.2,0.5-0.3h-2.3
				v-0.6H26.3z M26.1,52.1v0.6h-1v0.6c0.3-0.1,0.6-0.1,1-0.2v0.6c-0.8,0.2-1.6,0.4-2.7,0.5l-0.1-0.7c0.4,0,0.8-0.1,1.2-0.1v-0.7h-1
				v-0.6H26.1z"/>
			<path class="st0" d="M33,50.3c-0.1,0.2-0.2,0.4-0.3,0.6h0.9v2.3h-1.8v0.7h2v2.8h-0.7v-0.4h-1.3v0.4h-0.7v-5.8H32
				c0.1-0.2,0.2-0.5,0.2-0.7L33,50.3z M33,52.6v-1.1h-1.2v1.1H33z M33.1,55.7v-1.2h-1.3v1.2H33.1z M37.6,50.5v0.6h-1.5V52h1.3v3.7
				c0,0.2-0.1,0.3-0.1,0.5c-0.1,0.1-0.2,0.2-0.4,0.2h-0.4l-0.2-0.7l0.4,0c0.1,0,0.1-0.1,0.1-0.2v-2.9h-0.7v4.3h-0.7v-4.3h-0.7v3.8
				h-0.6V52h1.3v-0.8h-1.5v-0.6H37.6z"/>
			<path class="st0" d="M2.5,60.8c-0.3,0-0.7,0.1-1.2,0.1v0.4h1.1v0.5H1.3v0.4h1.1v0.5H1.3V63h4.5v-0.4H4.8v-0.5h1.1v-0.3H4.8v-0.5
				h1.1v-0.4H4.7v-0.6h1.8l0,2.7h0.3v1.4H6.2v-0.8H1.1v0.8H0.4V63h0.3v-2.6c0.5,0,1-0.1,1.6-0.2L2.5,60.8z M5.7,64v0.5
				c-0.5,0.2-1,0.4-1.7,0.6h2.7v0.6H4v0.6c0,0.1-0.1,0.3-0.1,0.3c-0.1,0.1-0.2,0.2-0.4,0.2H2.4l-0.1-0.6c0.3,0,0.5,0,0.8,0
				c0.1,0,0.2-0.1,0.2-0.1v-0.5H0.5v-0.6h2.8v-0.3c0.4-0.1,0.8-0.2,1.3-0.4h-3V64H5.7z M4.6,60.5c-0.2,0.2-0.3,0.3-0.4,0.4
				c0.1,0.1,0.2,0.2,0.3,0.3l-0.4,0.4c-0.1-0.1-0.2-0.2-0.4-0.4c-0.2,0.1-0.5,0.3-0.9,0.4l-0.3-0.5c0.2-0.1,0.5-0.2,0.7-0.3
				c-0.2-0.1-0.3-0.2-0.5-0.3l0.3-0.3c0.2,0.1,0.4,0.3,0.6,0.4c0.2-0.1,0.3-0.2,0.4-0.4L4.6,60.5z M4.7,61.8
				c-0.2,0.2-0.4,0.4-0.5,0.5c0.1,0.1,0.3,0.2,0.4,0.3L4.2,63c-0.1-0.1-0.3-0.3-0.5-0.4c-0.2,0.1-0.5,0.3-0.8,0.4l-0.3-0.4
				c0.2-0.1,0.4-0.2,0.7-0.3C3.2,62.1,3,62,2.8,61.9l0.3-0.3c0.2,0.1,0.4,0.2,0.5,0.4c0.2-0.1,0.4-0.3,0.5-0.4L4.7,61.8z"/>
			<path class="st0" d="M14.5,61H9.1v2.5c0,0.5,0,1-0.1,1.6c-0.1,0.6-0.2,1.1-0.4,1.7L8,66.2c0.2-0.4,0.3-0.9,0.4-1.4
				c0.1-0.5,0.1-1,0.1-1.4v-3.1h6.1V61z M12.2,64.5v0.5h1.9v0.5h-1.9V66h2.4v0.6H9.1V66H10v-1.2h0.6V66h1v-1.6H12.2z M11.8,61.6
				c-0.3,0.1-0.5,0.1-0.8,0.2v0.5h0.7v0.5h-0.7v0c0.3,0.2,0.6,0.4,0.9,0.6l-0.3,0.5c-0.2-0.2-0.4-0.4-0.6-0.5v1.1h-0.6v-1.1
				c-0.3,0.3-0.5,0.6-0.9,0.8l-0.3-0.5c0.5-0.3,0.9-0.6,1.1-1h-1v-0.5h1v-0.4c-0.3,0-0.6,0-0.9,0l-0.2-0.5c0.9,0,1.6-0.1,2.2-0.2
				L11.8,61.6z M14.3,61.6c-0.3,0.1-0.7,0.2-1,0.2v0.4h1.2v0.5h-1.2v0.1c0.4,0.3,0.8,0.6,1.2,0.9l-0.3,0.5c-0.4-0.4-0.7-0.6-0.9-0.9
				v1.1h-0.6v-1.1c-0.2,0.4-0.5,0.7-0.8,0.9l-0.3-0.5c0.4-0.3,0.8-0.6,1-1h-0.7v-0.5h0.8v-0.4c-0.2,0-0.5,0-0.7,0l-0.2-0.5
				c0.9,0,1.6-0.1,2.2-0.2L14.3,61.6z"/>
			<path class="st0" d="M18.5,62.5v-0.9h0.9v0.9H18.5z M18.5,65.1v-0.9h0.9v0.9H18.5z"/>
			<path class="st0" d="M3,70.9h1.3c0.2-0.3,0.4-0.5,0.6-0.8l0.7,0.2c-0.2,0.2-0.3,0.4-0.5,0.6h1.6v0.6H3.9V72h2.4v0.6H3.9v0.1
				c0,0.1,0,0.3,0,0.4h3v0.6h-3c0,0.2-0.1,0.4-0.1,0.6h3.1v0.6H4.4c0.1,0.2,0.2,0.4,0.4,0.5c0.2,0.1,0.4,0.3,0.8,0.4
				C5.9,75.9,6.3,76,7,76.1l-0.4,0.7c-0.6-0.1-1.1-0.3-1.5-0.5c-0.4-0.2-0.7-0.4-0.9-0.6c-0.2-0.2-0.4-0.5-0.4-0.8H3.6
				c-0.1,0.3-0.2,0.5-0.3,0.7c-0.5,0.6-1.4,1-2.7,1.2l-0.3-0.7c1.3-0.1,2.1-0.4,2.5-1c0.1-0.1,0.1-0.2,0.2-0.3H0.4v-0.6h2.7
				c0-0.2,0.1-0.4,0.1-0.6H0.4v-0.6h2.9c0-0.1,0-0.2,0-0.4v-0.1H1V72h2.3v-0.4H0.6v-0.6h1.6c-0.1-0.2-0.3-0.4-0.5-0.6l0.7-0.3
				C2.6,70.3,2.8,70.6,3,70.9z"/>
			<path class="st0" d="M14.3,76.7h-0.6v-0.2H8.9v0.2H8.3v-6.4h6.1V76.7z M13.7,75.9v-5.1H8.9v5.1H13.7z M11.5,74.9
				c-0.7,0.2-1.4,0.3-2.3,0.5l-0.1-0.6c0.8-0.1,1.6-0.2,2.4-0.4V74.9z M11.4,71.7c0-0.2,0-0.4,0-0.7H12c0,0.2,0,0.5,0,0.7h0.7
				c-0.1-0.2-0.2-0.4-0.3-0.5l0.5-0.2c0.1,0.2,0.2,0.4,0.3,0.6L13,71.7h0.5v0.5h-1.5c0,0.5,0.1,0.8,0.1,1.1c0,0.2,0.1,0.5,0.2,0.7
				c0.2-0.4,0.4-0.9,0.7-1.6l0.5,0.3c-0.3,0.9-0.6,1.5-0.9,1.9c0,0,0,0,0,0c0,0,0,0.1,0.1,0.1c0.1,0.2,0.2,0.3,0.3,0.3
				c0,0,0.1-0.3,0.2-0.8l0.5,0.4c-0.2,0.5-0.3,0.9-0.3,0.9c-0.1,0.1-0.2,0.2-0.3,0.2c-0.2,0-0.4-0.1-0.6-0.4
				c-0.1-0.1-0.1-0.2-0.2-0.3c-0.2,0.3-0.5,0.5-0.8,0.7L11,75.4c0.4-0.3,0.7-0.5,0.9-0.8c-0.1-0.2-0.2-0.5-0.3-0.8
				c-0.1-0.4-0.2-0.9-0.2-1.5H9.1v-0.5H11.4z M11.1,72.6v1.7H9.4v-1.7H11.1z M10.6,73H9.9v0.7h0.7V73z"/>
			<path class="st0" d="M17.5,70.3c-0.2,0.5-0.3,1-0.5,1.4v5h-0.7V73c-0.2,0.3-0.4,0.6-0.6,0.9L15.6,73c0.3-0.4,0.5-0.8,0.7-1.3
				c0.2-0.4,0.4-1,0.6-1.7L17.5,70.3z M21.8,70.6v1.5h0.6v0.7h-0.6v1.6h-2c-0.1,0.4-0.2,0.7-0.4,1c-0.3,0.6-0.9,1.1-1.6,1.5
				l-0.4-0.6c0.7-0.4,1.2-0.8,1.5-1.4c0.1-0.2,0.1-0.3,0.2-0.5h-1.4v-0.6h1.5c0-0.3,0.1-0.6,0.1-0.9h-1.9v-0.7h1.9v-0.9h-1.5v-0.6
				H21.8z M19.9,73.7h1.3v-0.9h-1.2C19.9,73.1,19.9,73.4,19.9,73.7z M19.9,72.1h1.2v-0.9h-1.2V72.1z"/>
			<path class="st0" d="M26.7,70.8c-0.4,0.1-0.8,0.2-1.2,0.3v1h1.3v0.7h-1.3v0.1c0.5,0.4,0.9,0.9,1.4,1.5l-0.4,0.6
				c-0.4-0.6-0.7-1-1-1.3v3.2h-0.7v-3.1c-0.1,0.3-0.3,0.6-0.4,0.8c-0.2,0.4-0.5,0.8-0.9,1.2l-0.4-0.6c0.3-0.3,0.6-0.7,0.9-1.1
				c0.2-0.3,0.3-0.7,0.5-1.1h-1.3v-0.7h1.5v-0.9c-0.4,0.1-0.8,0.1-1.2,0.2l-0.1-0.6c1.1-0.1,2.1-0.3,3-0.6L26.7,70.8z M27.9,70.7
				v4.6h-0.7v-4.6H27.9z M29.6,70.1v5.8c0,0.3-0.1,0.5-0.2,0.6c-0.1,0.1-0.3,0.2-0.6,0.2h-1.2l-0.1-0.7c0.4,0,0.8,0.1,1.1,0.1
				c0.2,0,0.3-0.1,0.3-0.2v-5.7H29.6z"/>
			<path class="st0" d="M32.5,70.9h0.9v0.6h-2.4v-0.6h0.9c0-0.2-0.1-0.5-0.2-0.7l0.7-0.1C32.4,70.3,32.4,70.6,32.5,70.9z M31.8,76.7
				h-0.7v-2.6h2v2.4h-0.7v-0.3h-0.7V76.7z M33.1,72v0.6h-1.9V72H33.1z M33.1,73v0.6h-1.9V73H33.1z M32.5,74.7h-0.7v0.9h0.7V74.7z
				 M34.8,72.6c0.1-0.3,0.2-0.6,0.3-0.9l0.6,0.1c-0.1,0.3-0.2,0.6-0.3,0.8h2v0.6h-2.3c-0.1,0.1-0.1,0.3-0.2,0.4
				c-0.1,0.1-0.2,0.3-0.3,0.4h2.4v2.7h-0.7v-0.4h-1.7v0.4h-0.7v-2c-0.2,0.2-0.4,0.3-0.5,0.5l-0.4-0.6c0.6-0.4,1-0.9,1.3-1.3
				c0,0,0.1-0.1,0.1-0.1h-1.3v-0.6H34.8z M34.1,70.9v-0.8h0.7v0.8h0.7v0.6h-0.7v0.7h-0.7v-0.7h-0.7v-0.6H34.1z M36.6,75.7v-1.1h-1.7
				v1.1H36.6z M36.2,70.9v-0.8h0.7v0.8h0.7v0.6h-0.7v0.7h-0.7v-0.7h-0.7v-0.6H36.2z"/>
			<path class="st0" d="M41.1,70.6v0.7h-0.9v1.4h0.8v0.7h-0.8v1.6c0.3-0.1,0.6-0.2,0.9-0.4v0.7c-0.7,0.3-1.5,0.6-2.3,0.9l-0.2-0.7
				c0.3-0.1,0.7-0.2,1-0.3v-1.8h-0.8v-0.7h0.8v-1.4h-0.8v-0.7H41.1z M44.9,70.4v3.5h-1.5v0.7h1.5v0.6h-1.5V76h1.9v0.6h-4.6V76h2
				v-0.8h-1.4v-0.6h1.4v-0.7h-1.5v-3.5H44.9z M42.7,71.8v-0.9h-0.8v0.9H42.7z M42.7,72.4h-0.8v0.9h0.8V72.4z M43.4,71.8h0.9v-0.9
				h-0.9V71.8z M44.3,72.4h-0.9v0.9h0.9V72.4z"/>
			<path class="st0" d="M52.5,70.7v0.7h-2.6v4.3h2.9v0.7h-6.5v-0.7h2.9v-4.3h-2.6v-0.7H52.5z"/>
			<path class="st0" d="M56.2,70.7c-0.3,0-0.7,0.1-1.2,0.1v0.4h1.1v0.5h-1.1V72h1.1v0.5h-1.1V73h4.5v-0.4h-1.1V72h1.1v-0.3h-1.1
				v-0.5h1.1v-0.4h-1.1v-0.6h1.8l0,2.7h0.3v1.4h-0.7v-0.8h-5.1v0.8H54V73h0.3v-2.6c0.5,0,1-0.1,1.6-0.2L56.2,70.7z M59.3,73.9v0.5
				c-0.5,0.2-1,0.4-1.7,0.6h2.7v0.6h-2.7v0.6c0,0.1-0.1,0.3-0.1,0.3c-0.1,0.1-0.2,0.2-0.4,0.2H56l-0.1-0.6c0.3,0,0.5,0,0.8,0
				c0.1,0,0.2-0.1,0.2-0.1v-0.5h-2.8v-0.6h2.8v-0.3c0.4-0.1,0.8-0.2,1.3-0.4h-3v-0.5H59.3z M58.2,70.4c-0.2,0.2-0.3,0.3-0.4,0.4
				c0.1,0.1,0.2,0.2,0.3,0.3l-0.4,0.4c-0.1-0.1-0.2-0.2-0.4-0.4c-0.2,0.1-0.5,0.3-0.9,0.4l-0.3-0.5c0.2-0.1,0.5-0.2,0.7-0.3
				c-0.2-0.1-0.3-0.2-0.5-0.3l0.3-0.3c0.2,0.1,0.4,0.3,0.6,0.4c0.2-0.1,0.3-0.2,0.4-0.4L58.2,70.4z M58.3,71.7
				c-0.2,0.2-0.4,0.4-0.5,0.5c0.1,0.1,0.3,0.2,0.4,0.3l-0.4,0.4c-0.1-0.1-0.3-0.3-0.5-0.4c-0.2,0.1-0.5,0.3-0.8,0.4l-0.3-0.4
				c0.2-0.1,0.4-0.2,0.7-0.3c-0.1-0.1-0.3-0.2-0.5-0.3l0.3-0.3c0.2,0.1,0.4,0.2,0.5,0.4c0.2-0.1,0.4-0.3,0.5-0.4L58.3,71.7z"/>
			<path class="st0" d="M64.1,70.4v0.5c-0.2,0.5-0.3,1.1-0.5,1.8c0.2,0.3,0.3,0.6,0.4,0.9c0.1,0.3,0.1,0.5,0.1,0.7
				c0,0.4-0.1,0.7-0.2,0.8c-0.2,0.2-0.5,0.3-1,0.3l-0.2-0.7c0.1,0,0.2,0,0.3,0c0.1,0,0.3,0,0.3-0.1c0.1-0.1,0.1-0.2,0.1-0.3
				c0-0.2,0-0.4-0.1-0.6c-0.1-0.2-0.2-0.5-0.4-0.9c0.2-0.7,0.4-1.3,0.5-1.7h-0.9v5.7h-0.7v-6.4H64.1z M68.2,73.4V74h-1.4v1.8
				c0,0.2,0.1,0.2,0.3,0.2h0.3c0.1,0,0.1,0,0.2-0.1c0-0.1,0.1-0.4,0.1-1l0.6,0.2c-0.1,0.8-0.1,1.2-0.2,1.3c-0.1,0.1-0.3,0.2-0.5,0.2
				h-0.6c-0.2,0-0.4-0.1-0.5-0.2c-0.1-0.1-0.2-0.3-0.2-0.5v-2h-0.5c0,0.7-0.2,1.2-0.4,1.6c-0.2,0.4-0.7,0.8-1.3,1.2l-0.5-0.6
				c0.5-0.2,0.9-0.5,1.1-0.8c0.2-0.3,0.3-0.8,0.4-1.4h-0.9v-0.6H68.2z M66.4,70.8h1.6v1.6h-0.4v0.3h-3.2v-0.3h-0.4v-1.6h1.6
				c-0.1-0.2-0.2-0.4-0.3-0.6l0.7-0.1C66.2,70.3,66.3,70.5,66.4,70.8z M67.4,72.1v-0.7h-2.7v0.7H67.4z"/>
			<path class="st0" d="M4.1,80.5V80h0.7v0.5h1.7v1h0.4v0.5H6.4v1.1H4.7v0.5h1.8v0.5H4.7v0.5h2.1v0.5H4.7v0.6c0.1,0,0.2,0,0.3,0
				c0.8,0,1.5,0,1.9-0.1l-0.1,0.7c-2.2,0-3.6-0.1-4.1-0.2c-0.4-0.1-0.8-0.3-1.1-0.5c0,0-0.1,0-0.1-0.1C1.3,86,1,86.4,0.6,86.7
				L0.3,86c0.4-0.3,0.7-0.5,0.9-0.8c-0.2-0.4-0.4-0.9-0.7-1.5L1,83.5c0.2,0.4,0.3,0.8,0.5,1c0,0,0-0.1,0-0.1
				c0.1-0.3,0.2-0.7,0.2-1.3H0.5v-0.4c0.4-0.5,0.8-1.1,1.2-1.7H0.4v-0.5h2.1V81c-0.4,0.7-0.8,1.2-1.1,1.6h1.1c0,0.8-0.1,1.5-0.3,2
				C2.1,84.8,2,85,1.9,85.2c0.2,0.2,0.4,0.3,0.8,0.4c0.3,0.1,0.7,0.1,1.4,0.2v-0.6H2.3v-0.5h1.7v-0.5H2.7v-0.5h1.4v-0.5H2.7v-0.5
				h1.3v-0.6H2.3v-0.5h1.7v-0.5H2.7v-0.5H4.1z M4.7,81.6h1.1v-0.5H4.7V81.6z M4.7,82.7h1.1v-0.6H4.7V82.7z"/>
			<path class="st0" d="M9.7,80.1c-0.1,0.1-0.1,0.3-0.2,0.4h1.8v0.5c0.3-0.3,0.6-0.7,0.7-1.1l0.7,0.1c-0.1,0.2-0.1,0.3-0.2,0.4h2.2
				v0.6h-1.2c0.1,0.2,0.1,0.4,0.2,0.5l-0.7,0.1c-0.1-0.2-0.1-0.4-0.1-0.6h-0.7c-0.2,0.2-0.3,0.4-0.5,0.6L11,81.4
				c0.1-0.1,0.2-0.2,0.3-0.3h-1c0.1,0.2,0.1,0.3,0.2,0.5l-0.7,0.1c-0.1-0.2-0.1-0.4-0.2-0.6H9.1c-0.2,0.2-0.4,0.5-0.6,0.7l-0.6-0.4
				C8.4,81,8.8,80.5,9,80L9.7,80.1z M11,84.2v-0.4l-0.3-0.2c0.3-0.1,0.6-0.2,0.8-0.4c-0.2-0.1-0.4-0.2-0.6-0.2l0.3-0.5
				c0.2,0.1,0.4,0.1,0.6,0.2c0-0.1,0-0.1,0-0.2v-0.3H11v-0.5h2.6v1.4c0,0.1,0.1,0.2,0.2,0.2h0c0.1,0,0.1,0,0.1-0.1
				c0,0,0.1-0.2,0.1-0.6l0.5,0.2c0,0.5-0.1,0.8-0.2,0.9c-0.1,0.1-0.3,0.1-0.5,0.1h-0.3c-0.2,0-0.3,0-0.4-0.1
				c-0.1-0.1-0.1-0.2-0.1-0.4v-1.1h-0.7v0.3c0,0.2,0,0.3-0.1,0.4c0.2,0.1,0.4,0.2,0.7,0.3l-0.3,0.5c-0.2-0.1-0.4-0.3-0.6-0.4
				c-0.1,0.1-0.3,0.2-0.5,0.3h0.1v0.4h3v0.6h-2.3c0.3,0.2,0.5,0.4,0.7,0.5c0.3,0.2,0.8,0.4,1.5,0.5l-0.3,0.6
				c-0.8-0.3-1.4-0.5-1.7-0.8c-0.3-0.2-0.6-0.4-0.9-0.8v1.8H11v-1.8h0c-0.2,0.3-0.5,0.5-0.7,0.7c-0.4,0.3-1.1,0.6-1.9,0.9l-0.4-0.6
				c0.9-0.3,1.5-0.5,1.8-0.7c0.2-0.1,0.3-0.2,0.5-0.3H7.9v-0.6H11z M10.8,82v0.6h-1v0.6c0.3-0.1,0.6-0.1,1-0.2v0.6
				c-0.8,0.2-1.6,0.4-2.7,0.5L8,83.4c0.4,0,0.8-0.1,1.2-0.1v-0.7h-1V82H10.8z"/>
			<path class="st0" d="M18.2,80.3V81h-1.1c-0.1,0.6-0.2,1.1-0.4,1.5h1.3v3.4h-1.3v0.7h-0.6v-2.9c-0.1,0.2-0.2,0.4-0.4,0.6l-0.4-0.6
				c0.3-0.5,0.6-1.1,0.7-1.5c0.1-0.3,0.2-0.7,0.3-1.1h-0.7v-0.6H18.2z M17.5,85.3v-2.2h-0.7v2.2H17.5z M22.1,80.4V81h-0.7v1.7h0.8
				v0.6h-0.8v3.4h-0.7v-3.4h-1c0,0.6-0.1,1.1-0.2,1.6c-0.2,0.6-0.5,1.2-0.9,1.8l-0.5-0.5c0.4-0.5,0.7-1,0.8-1.5
				c0.1-0.3,0.2-0.8,0.2-1.4h-0.9v-0.6h0.9V81h-0.7v-0.6H22.1z M20.8,81h-1v1.7h1V81z"/>
			<path class="st0" d="M26.2,81.8c-0.3,0.4-0.6,0.7-0.9,1c-0.4,0.2-0.9,0.4-1.7,0.6l-0.4-0.6c0.8-0.1,1.3-0.3,1.6-0.4
				c0.3-0.1,0.6-0.4,0.8-0.8L26.2,81.8z M25.9,83.8c0,0,0-0.1,0-0.1v-0.9h0.7v0.9c0,0,0,0.1,0,0.1h1.8l-0.1,1.7c0,0.2,0,0.3,0.1,0.4
				c0.1,0.1,0.1,0.1,0.2,0.1H29c0,0,0.1,0,0.1-0.1c0,0,0.1-0.4,0.1-1.2l0.7,0.2c-0.1,0.8-0.2,1.3-0.3,1.5c-0.1,0.1-0.3,0.2-0.6,0.2
				h-0.9c-0.2,0-0.3-0.1-0.4-0.2c-0.2-0.1-0.2-0.3-0.2-0.6l0.1-1.4h-1.1c-0.1,0.5-0.3,0.9-0.7,1.3c-0.4,0.5-1.2,0.8-2.2,1.1
				l-0.4-0.6c1-0.2,1.7-0.5,2.1-0.9c0.2-0.2,0.4-0.5,0.5-0.8h-2v-0.6H25.9z M26.8,80.7h2.7v1.5h-0.7v-0.9h-1.1v1.1
				c0,0.2,0.1,0.3,0.3,0.3h1.8v0.6h-2c-0.2,0-0.4,0-0.6-0.1c-0.1-0.1-0.2-0.3-0.2-0.5v-1.3h-2.8v0.9h-0.7v-1.5h2.5
				c-0.1-0.2-0.2-0.4-0.3-0.5l0.8-0.1C26.7,80.2,26.8,80.4,26.8,80.7z"/>
			<path class="st0" d="M34.3,80.7c-0.7,0.2-1.4,0.3-2.1,0.4v0.7h1.8v2.3h-1.8c0,0.4-0.1,0.7-0.1,1.1c-0.1,0.5-0.3,1-0.5,1.4
				l-0.5-0.5c0.2-0.4,0.3-0.7,0.3-1.1c0.1-0.4,0.1-0.9,0.1-1.4v-3.1c1,0,1.8-0.2,2.5-0.5L34.3,80.7z M33.3,83.6v-1.1h-1.2v1.1H33.3z
				 M37.6,80.7C36.8,81,36,81.1,35,81.1v1.3h2.6V83h-0.7v3.7h-0.7V83H35v0.8c0,0.5-0.1,1-0.2,1.5c-0.1,0.5-0.4,0.9-0.7,1.3l-0.5-0.5
				c0.2-0.3,0.4-0.7,0.5-1c0.1-0.4,0.2-0.8,0.2-1.3v-3.3c1.1,0,2.1-0.2,2.9-0.5L37.6,80.7z"/>
			<path class="st0" d="M39.1,83.3c0-0.2,0.2-0.4,0.4-0.4c0.2,0,0.4,0.2,0.4,0.4c0,0.3-0.2,0.4-0.4,0.4
				C39.2,83.7,39.1,83.5,39.1,83.3z"/>
			<path class="st0" d="M43.9,80.3V81h-1c-0.1,0.6-0.2,1.1-0.4,1.5c0,0,0,0,0,0h1.3v3.4h-1.2v0.7h-0.6v-3c-0.1,0.2-0.2,0.4-0.4,0.5
				l-0.4-0.6c0.3-0.5,0.6-1,0.7-1.4c0.1-0.3,0.2-0.6,0.3-1.1h-0.8v-0.6H43.9z M43.2,85.3v-2.2h-0.6v2.2H43.2z M45.7,85.7
				c-0.4,0.4-0.9,0.7-1.5,1l-0.4-0.6c0.5-0.2,1-0.5,1.5-0.8L45.7,85.7z M48.1,80.3v0.6h-1.7c-0.1,0.2-0.1,0.4-0.2,0.5h1.5v3.8h-3.5
				v-3.8h1.2c0.1-0.2,0.1-0.3,0.2-0.5h-1.5v-0.6H48.1z M47.1,82.5V82h-2.2v0.5H47.1z M47.1,83.6V83h-2.2v0.6H47.1z M47.1,84.1h-2.2
				v0.5h2.2V84.1z M48.1,86.1l-0.4,0.6c-0.5-0.4-1-0.7-1.6-0.9l0.3-0.5C47.1,85.6,47.6,85.8,48.1,86.1z"/>
			<path class="st0" d="M52,82.2v-2.1h0.8v2.1h2.9v0.7h-2.9v2.9h2.5v0.6h-5.9v-0.6H52v-2.9h-2.8v-0.7H52z"/>
		</g>
	</g>
	<g>
		<g>
			<path class="st0" d="M4.4,7.1H1.7v0.8H0.8V0.6h3.6V7.1z M3.5,3.4V1.5H1.7v1.9H3.5z M3.5,6.2v-2H1.7v2H3.5z M5.4,0.4h4.4v7.7
				c0,0.3-0.1,0.6-0.3,0.7C9.3,9,9.1,9.1,8.8,9.1H7.2L7,8.1l1.5,0.1c0.2,0,0.3-0.1,0.3-0.4V6.1H6.2C6.1,6.4,6,6.8,5.9,7
				C5.6,7.8,5,8.5,4.1,9.2L3.3,8.5C4.1,8,4.6,7.4,4.9,6.7c0.3-0.5,0.4-1.3,0.4-2.4V3.6V0.4z M8.8,5.2V3.6H6.4v0.7c0,0.3,0,0.6,0,0.9
				H8.8z M8.8,2.7V1.3H6.4v1.4H8.8z"/>
			<path class="st0" d="M19.8,9.2h-1V8.5h-5.2v0.7h-1V0.4h7.2V9.2z M18.8,3.8V1.4h-5.2v2.5H18.8z M18.8,7.5V4.8h-5.2v2.7H18.8z"/>
			<path class="st0" d="M27.9,0.7V0h0.9v0.7h2.5v1.4h0.6v0.7h-0.6v1.5h-2.5V5h2.6v0.7h-2.6v0.7h3v0.7h-3V8c0.1,0,0.3,0,0.4,0
				c1.2,0,2.1,0,2.8-0.1l-0.2,1c-3.2,0-5.2-0.1-5.9-0.2c-0.6-0.2-1.2-0.4-1.5-0.7c0,0-0.1-0.1-0.1-0.1c-0.3,0.4-0.8,0.8-1.4,1.3
				l-0.5-0.9c0.5-0.3,1-0.7,1.3-1.2c-0.3-0.5-0.6-1.2-1-2l0.8-0.3c0.2,0.6,0.5,1,0.7,1.4c0,0,0-0.1,0.1-0.1c0.1-0.4,0.2-1,0.3-1.8
				h-1.8V3.6c0.6-0.7,1.2-1.5,1.7-2.4h-1.9V0.5h3v0.9c-0.6,0.9-1.1,1.6-1.6,2.2h1.6c0,1.1-0.2,2-0.4,2.7c-0.1,0.3-0.2,0.6-0.3,0.9
				c0.3,0.3,0.6,0.5,1.1,0.6c0.4,0.1,1.1,0.2,2,0.2V7.1h-2.5V6.4h2.5V5.7h-2V5h2V4.4H26V3.7h1.9V2.9h-2.5V2.2h2.5V1.4H26V0.7H27.9z
				 M28.9,2.2h1.6V1.4h-1.6V2.2z M28.9,3.7h1.6V2.9h-1.6V3.7z"/>
			<path class="st0" d="M35.9,0.2c-0.1,0.2-0.2,0.4-0.3,0.5h2.6v0.7c0.5-0.5,0.8-1,1-1.5l0.9,0.1C40.1,0.4,40,0.6,40,0.7h3.1v0.8
				h-1.7c0.1,0.2,0.2,0.5,0.3,0.7l-1,0.1c-0.1-0.3-0.1-0.6-0.2-0.8h-1c-0.2,0.3-0.5,0.6-0.8,0.9l-0.9-0.5c0.1-0.1,0.3-0.2,0.4-0.3
				h-1.4C36.9,1.8,37,2,37.1,2.2l-1,0.1C36,2,35.9,1.8,35.9,1.6h-0.8c-0.3,0.3-0.6,0.6-0.9,0.9l-0.9-0.5C34.1,1.4,34.7,0.7,35,0
				L35.9,0.2z M37.9,5.8V5.3L37.4,5c0.5-0.2,0.9-0.3,1.1-0.5c-0.3-0.1-0.5-0.2-0.8-0.3l0.5-0.6c0.3,0.1,0.6,0.2,0.8,0.3
				c0-0.1,0-0.2,0-0.3V3.2h-1.2V2.5h3.8v1.9c0,0.2,0.1,0.3,0.3,0.3h0c0.1,0,0.2,0,0.2-0.1c0.1,0,0.1-0.3,0.1-0.8l0.8,0.2
				c-0.1,0.7-0.2,1.1-0.3,1.2c-0.1,0.1-0.4,0.2-0.7,0.2h-0.4c-0.3,0-0.5-0.1-0.6-0.2c-0.1-0.1-0.2-0.3-0.2-0.6V3.2h-1v0.3
				c0,0.2,0,0.4-0.1,0.6c0.3,0.1,0.6,0.3,1,0.5l-0.5,0.7c-0.3-0.2-0.6-0.3-0.9-0.5c-0.2,0.2-0.4,0.3-0.7,0.5h0.2v0.5h4.3v0.8h-3.3
				c0.4,0.3,0.7,0.5,1,0.6C41.4,7.5,42.1,7.8,43,8l-0.4,0.8c-1.1-0.4-2-0.7-2.5-1.1c-0.4-0.2-0.9-0.6-1.3-1.1v2.5h-0.9V6.6h0
				c-0.3,0.4-0.7,0.7-1.1,1C36.1,8,35.2,8.5,34,8.9l-0.5-0.8c1.2-0.3,2.1-0.7,2.6-1c0.3-0.1,0.5-0.3,0.7-0.5h-3.4V5.8H37.9z
				 M37.6,2.7v0.8h-1.4v0.9c0.5-0.1,0.9-0.2,1.4-0.3v0.8c-1.1,0.3-2.4,0.5-3.8,0.7l-0.2-0.9c0.6,0,1.2-0.1,1.7-0.2v-1h-1.4V2.7H37.6
				z"/>
			<path class="st0" d="M54,1.2l-0.7,0.4h4.3v0.9h-3.7v1.9h3.2v0.9h-3.2v2.4H58v0.9h-9.4V7.7h4.2V5.3h-3.3V4.5h3.3V2.6H49V1.7h3.9
				c-0.3-0.4-0.6-0.7-0.9-1.2L52.8,0C53.3,0.5,53.7,0.9,54,1.2z"/>
			<path class="st0" d="M63.1,0.7v0.9h-1.4v2h1.1v0.9h-1.1v2.2c0.5-0.2,0.9-0.3,1.3-0.5v1c-1,0.4-2.1,0.8-3.4,1.2l-0.3-1
				c0.5-0.1,1-0.3,1.4-0.4V4.4h-1.1V3.5h1.1v-2h-1.2V0.7H63.1z M68.7,0.4v4.8h-2.2v1h2.2V7h-2.2v1.1h2.7v0.8h-6.6V8.1h2.9V7h-2V6.2
				h2v-1h-2.1V0.4H68.7z M65.5,2.4V1.2h-1.2v1.2H65.5z M65.5,3.1h-1.2v1.3h1.2V3.1z M66.5,2.4h1.3V1.2h-1.3V2.4z M67.7,3.1h-1.3v1.3
				h1.3V3.1z"/>
			<path class="st0" d="M75.9,0v2.4c0.3,1.5,0.9,2.6,1.6,3.6c0.6,0.8,1.5,1.6,2.7,2.4l-0.7,0.9c-1-0.7-1.8-1.3-2.4-1.9
				c-0.7-0.8-1.3-1.7-1.7-2.8c-0.3,1.2-0.8,2-1.4,2.7c-0.6,0.7-1.6,1.4-2.8,2l-0.6-0.9c1.6-0.9,2.7-1.9,3.3-3c0.6-1,0.9-2,0.9-3V0
				H75.9z"/>
		</g>
	</g>
	<g>
		<g>
			<path class="st1" d="M11.5,20.9l2,1.4c-0.1,0.1-0.3,0.3-0.7,0.4v5.2c0,0-0.5,0.5-1.9,0.5v-0.9H1.9v0.5c0,0.1-0.3,0.7-1.9,0.7V21
				l2,0.8h2.9c0.2-0.8,0.4-2,0.5-2.9H2.9v0.3c0,0-0.3,0.6-1.8,0.6v-6.7l2,0.8h6.6l0.7-1l2,1.4c-0.1,0.1-0.3,0.3-0.7,0.4v4.4
				c0,0-0.5,0.5-1.9,0.5v-0.7H7.6c-0.6,1-1.5,2.2-2.2,2.9h5.3L11.5,20.9z M1.9,27.1h9.1v-4.9H1.9V27.1z M2.9,18.6h6.9v-4.3H2.9V18.6
				z"/>
			<path class="st1" d="M33,16.4c-0.1,0.2-0.3,0.3-0.8,0.3h-2c-0.8,2.9-2,5.3-3.9,7.2c1.9,1.4,4.2,2.3,6.8,2.9L33,27
				c-0.9,0.1-1.6,0.7-1.9,1.6c-2.4-0.8-4.4-2-6-3.6c-2,1.6-4.5,2.8-7.8,3.5l-0.1-0.2c3-1,5.3-2.4,7-4.2c-1.5-1.9-2.6-4.3-3.2-7.4
				h-3.7l-0.1-0.3h7v-3.8l2.6,0.2c0,0.3-0.2,0.4-0.7,0.4v3.1h3.8l1.1-1.5L33,16.4z M21.3,16.7c0.7,2.7,2.1,4.7,3.8,6.3
				c1.4-1.8,2.3-3.9,2.8-6.3H21.3z"/>
			<path class="st1" d="M40.2,18.2v1.9c1.9,0.6,2.5,1.5,2.5,2.1c0,0.5-0.4,1-0.9,1c-0.2,0-0.5-0.1-0.7-0.4c0-0.7-0.4-1.8-0.9-2.4V28
				c0,0.1-0.6,0.5-1.5,0.5h-0.3v-6.1c-0.7,1.1-1.5,2.2-2.5,3.1l-0.2-0.2c1.3-1.9,2.1-4.6,2.5-7.1h-2.3l-0.1-0.3h2.6v-2.8
				c-0.9,0.2-1.8,0.4-2.6,0.5l-0.1-0.2c1.7-0.8,3.9-2,5-2.8l2.1,1.7c-0.1,0.1-0.3,0.2-0.5,0.2c-0.2,0-0.4,0-0.6-0.1
				c-0.4,0.1-1,0.3-1.5,0.4v3.2h0.4l0.9-1.2l1.4,1.1v-4.5l1.8,0.7h4l0.7-0.9l1.9,1.3c-0.1,0.1-0.4,0.3-0.7,0.3v4.1
				c0,0-0.5,0.5-1.8,0.5v-0.9h-4.3V19c0,0-0.3,0.6-1.7,0.6v-1.5c-0.1,0.1-0.3,0.1-0.6,0.1H40.2z M50.2,26.2l1.8,1.3
				c-0.1,0.2-0.3,0.3-0.8,0.3h-9.7l-0.1-0.3h4.4v-3.2h-3.2L42.4,24h3.3v-2.9h-3.5l-0.1-0.3h6.7l0.9-1.2l1.7,1.3
				c-0.1,0.2-0.4,0.3-0.8,0.3h-3.2V24h1l0.9-1.2l1.7,1.2c-0.1,0.2-0.3,0.3-0.8,0.3h-2.8v3.2h1.6L50.2,26.2z M48.8,14.4h-4.3v3.8h4.3
				V14.4z"/>
		</g>
	</g>
</g>
</svg>
