<?xml version="1.0" encoding="utf-8"?>
<!-- Generator: Adobe Illustrator 27.0.0, SVG Export Plug-In . SVG Version: 6.00 Build 0)  -->
<svg version="1.1" id="圖層_1" xmlns="http://www.w3.org/2000/svg" xmlns:xlink="http://www.w3.org/1999/xlink" x="0px" y="0px"
	 viewBox="0 0 400 128" style="enable-background:new 0 0 400 128;" xml:space="preserve">
<style type="text/css">
	.st0{fill:#C9A063;}
	.st1{fill:#FFFFFF;stroke:#FFFFFF;stroke-width:0.2;stroke-miterlimit:10;}
	.st2{fill:#FFFFFF;}
	.st3{fill:none;stroke:#D8B165;stroke-width:0.35;stroke-miterlimit:10;}
</style>
<path class="st0" d="M170.3,25.9l2.4-5.7l2.5,5.7h-0.9l-0.5-1.1h-2.7l-0.5,1.1C170.6,25.9,170.3,25.9,170.3,25.9z M171.2,24.6h2.5
	l-1.3-2.9L171.2,24.6z"/>
<path class="st0" d="M180.9,25.6v0.3h-3.4V21c0-0.3-0.2-0.6-0.7-0.8h4.1v0.3h-2.6v2.3h2.2v0.4h-2.2v2.5L180.9,25.6L180.9,25.6z"/>
<path class="st0" d="M186.2,24.5c0,0.6-0.4,1.6-1.7,1.6c-1,0-1.7-0.5-1.8-1.6h0.2c0.2,1.1,1,1.3,1.5,1.3c0.9,0,1.1-0.6,1.1-0.9
	c0-0.6-0.5-0.9-1.4-1.4c-0.6-0.3-1.5-0.8-1.5-1.8c0-1.2,1.2-1.5,1.6-1.5c1,0,1.5,0.6,1.6,1.4h-0.3c-0.1-0.4-0.4-1.1-1.3-1.1
	c-0.5,0-0.9,0.4-0.9,0.9c0,0.6,0.7,0.9,1.3,1.3C185.9,23.3,186.2,23.8,186.2,24.5z"/>
<path class="st0" d="M192.2,20.6h-1.8V26h-0.8v-5.4h-1.8v-0.4h4.4L192.2,20.6L192.2,20.6z"/>
<path class="st0" d="M199.8,25.9h-1c-0.2,0-0.4-0.2-0.4-0.5v-2.3h-2.7v2.8h-0.8V21c0-0.3-0.2-0.6-0.5-0.7h-0.1h1
	c0.1,0,0.2,0,0.3,0.1s0.1,0.2,0.1,0.3v2.2h2.7v-2.7h0.8v4.9c0,0.3,0.2,0.6,0.5,0.7L199.8,25.9z"/>
<path class="st0" d="M205.5,25.6v0.3h-3.4V21c0-0.3-0.2-0.6-0.7-0.8h4.1v0.3h-2.6v2.3h2.2v0.4h-2.2v2.5L205.5,25.6L205.5,25.6z"/>
<path class="st0" d="M211.9,20.6h-1.8V26h-0.8v-5.4h-1.8v-0.4h4.4L211.9,20.6L211.9,20.6z"/>
<path class="st0" d="M215.2,20.2v5.7h-0.7V21c0-0.3-0.2-0.6-0.7-0.8H215.2z"/>
<path class="st0" d="M222,24.9c-0.1,0.1-0.7,1.2-2.2,1.2c-1.7,0-2.6-1.3-2.6-3c0-1.6,1-3,2.6-3s2.2,1.1,2.2,1.2l-0.2,0.2
	c-1.7-2.1-3.7-0.7-3.7,1.6c0,2.1,2,3.7,3.7,1.6L222,24.9z"/>
<path class="st0" d="M182.3,36l2.4-5.7l2.5,5.7h-0.9l-0.5-1.1h-2.7l-0.5,1.1H182.3z M183.3,34.6h2.5l-1.3-2.9L183.3,34.6z"/>
<path class="st0" d="M193.6,36h-0.9l-1.7-2.6c-0.2,0-0.4,0-0.6,0V36h-0.8v-4.9c0-0.4-0.2-0.7-0.7-0.8h1.5c0.9,0,2.6,0,2.6,1.6
	c0,0.9-0.5,1.3-1.1,1.5L193.6,36z M191.8,32.8c0.1-0.1,0.1-0.1,0.1-0.2s0.1-0.2,0.1-0.3s0-0.3,0-0.4c0-1.2-0.9-1.3-1.1-1.3h-0.6v2.6
	h0.6c0.1,0,0.2,0,0.3,0s0.3-0.1,0.4-0.1C191.7,32.9,191.7,32.9,191.8,32.8z"/>
<path class="st0" d="M200,35c-0.1,0.1-0.7,1.2-2.2,1.2c-1.7,0-2.6-1.3-2.6-3c0-1.6,1-3,2.6-3s2.2,1.1,2.2,1.2l-0.2,0.2
	c-1.7-2.1-3.7-0.7-3.7,1.6c0,2.1,2,3.7,3.7,1.6L200,35z"/>
<path class="st0" d="M207.3,36h-1c-0.2,0-0.4-0.2-0.4-0.5v-2.3h-2.7V36h-0.8v-4.9c0-0.3-0.2-0.6-0.5-0.7h-0.1h1c0.1,0,0.2,0,0.3,0.1
	s0.1,0.2,0.1,0.3V33h2.7v-2.7h0.8v4.9C206.7,35.5,206.9,35.8,207.3,36L207.3,36z"/>
<path class="st0" d="M209.6,35.2c0.1,0,0.2,0,0.3,0.1s0.1,0.2,0.1,0.3s0,0.2-0.1,0.3s-0.2,0.1-0.3,0.1s-0.2,0-0.3-0.1
	s-0.1-0.2-0.1-0.3s0-0.2,0.1-0.3C209.4,35.2,209.5,35.2,209.6,35.2z"/>
<path class="st1" d="M79.3,38.4h-7.1V42c0,0.3,0,0.5-0.1,0.7s-0.4,0.4-0.9,0.8c-0.6,0.4-1.2,0.7-2,0.9c-0.8,0.2-1.2,0.3-1.4,0.3
	c-0.2,0-0.2-0.2-0.2-0.5c0.2-1.9,0.3-3.9,0.3-5.9V8.5c0-1.7-0.1-3.3-0.2-5c3,1.5,5.1,2.6,6.2,3.5H79l1.4-2.3
	c0.2-0.4,0.4-0.5,0.6-0.5c0.3,0,1.2,0.6,2.6,1.8s2.2,2,2.2,2.4c0,0.3-0.7,0.8-2,1.4v24.3l0.1,5.3v0.7c-1.2,1-2.2,1.6-3,2
	c-0.8,0.3-1.2,0.5-1.4,0.5s-0.2-0.2-0.2-0.7C79.3,41.9,79.3,38.4,79.3,38.4z M72.2,22.1h7.1V8.7h-7.1C72.2,8.7,72.2,22.1,72.2,22.1z
	 M72.2,36.5h7.1V23.9h-7.1C72.2,23.9,72.2,36.5,72.2,36.5z M94.1,6.2h7.5l1.4-2.5c0.3-0.5,0.6-0.8,0.8-0.8c0.2,0,0.8,0.4,1.8,1.2
	l2.3,1.9c0.6,0.5,0.9,1,0.9,1.4s-0.8,1-2.5,1.8v37.3c0,2.5-0.2,4.2-0.5,5.1c-0.3,0.9-1.2,1.9-2.7,2.8c-1.5,0.9-2.4,1.4-2.8,1.4
	c-0.3,0-0.5-0.4-0.7-1.3c-0.1-0.9-0.4-1.6-0.7-2.1c-0.3-0.6-0.9-1.1-1.8-1.7c-0.9-0.6-2.2-1.2-4.1-2.1l0.2-0.9c3.2,0.7,5.2,1,6.1,1
	c0.9,0,1.5-0.1,1.9-0.4c0.4-0.2,0.6-0.9,0.6-2V34h-10c-0.4,6.1-1.9,10.5-4.3,13.4c-2.5,2.9-6.5,5.7-12,8.5l-0.5-1
	c2.6-2.1,4.7-3.9,6.3-5.6c1.6-1.7,2.8-3.4,3.7-5.2c0.9-1.7,1.6-3.6,2-5.7c0.4-2.1,0.7-5.2,0.9-9.4c0.2-4.2,0.3-8.5,0.3-12.9
	s-0.1-8.7-0.3-12.8C90.2,4,92.2,5,94.1,6.2z M101.9,21.1h-9.2c-0.1,3.3-0.3,7-0.7,11.1h9.9V21.1z M92.8,19.2h9.1V8h-9
	c0,1.3,0.1,2.8,0.1,4.5C92.9,14.1,92.9,16.4,92.8,19.2z"/>
<path class="st1" d="M160.4,31.2c-0.4,0.5-0.8,0.9-1.2,1.2c-0.4,0.3-0.7,0.6-1.1,0.7c-0.4,0.2-0.9,0.3-1.5,0.4s-1.3,0.1-2.2,0.1
	c-1.4,0-2.5-0.1-3.3-0.2c-0.8-0.1-1.4-0.3-1.8-0.7c-0.4-0.3-0.7-0.8-0.8-1.4s-0.2-1.4-0.2-2.4v-8.8h-3.5c-0.1,1.1-0.2,2-0.3,2.8
	c-0.2,0.8-0.4,1.6-0.6,2.4c0.9,0.4,1.5,0.8,1.9,1.1c0.4,0.3,0.7,0.7,0.9,1c0.4,0.8,0.6,1.4,0.6,2.1c-0.1,0.6-0.4,1.1-1.1,1.4
	c-1,0.4-1.8,0-2.5-1.2c-0.1-0.2-0.3-0.4-0.4-0.6c-0.2-0.2-0.3-0.4-0.5-0.6c-0.4,0.7-1.1,1.4-2,2.2c-0.9,0.8-2,1.5-3.4,2.3
	c0.7,0.2,1.3,0.4,1.8,0.5c0.5,0.2,1,0.3,1.6,0.5s1,0.4,1,0.7s-0.3,0.7-1,1.1v2h12.8l1.7-3c0.3-0.5,0.6-0.7,0.8-0.7s0.6,0.2,1.1,0.6
	c0.6,0.5,1.1,1,1.6,1.6c0.5,0.5,0.9,1.1,1.4,1.6c0.6,0.6,0.8,1,0.8,1.3s-0.4,0.4-1.2,0.4h-16.6c1.4,1.6,2.7,2.9,3.9,4
	c1.2,1,2.4,1.9,3.8,2.6c1.3,0.7,2.9,1.2,4.7,1.6c1.8,0.4,3.9,0.8,6.5,1.2v1.2c-0.9,0-1.6,0.1-2.1,0.2c-0.5,0.1-1,0.2-1.3,0.4
	s-0.6,0.5-0.8,0.8c-0.2,0.3-0.4,0.7-0.6,1.2c-0.1,0.2-0.2,0.3-0.4,0.4c-0.2,0-0.5,0-0.9-0.2c-1.6-0.5-3.1-1.1-4.4-1.8
	s-2.5-1.5-3.6-2.6c-1.1-1-2.2-2.3-3.1-3.7c-1-1.5-2-3.3-3.1-5.4h-1v7.8c0,1.4,0,2.6,0,3.5c0,1,0,2,0,3.2c0,0.5-0.2,0.8-0.5,1
	c-0.6,0.4-1.2,0.6-1.7,0.8s-1.2,0.4-1.8,0.6c-0.3,0-0.4-0.1-0.4-0.5c0-0.9,0.1-1.6,0.1-2.3s0.1-1.3,0.1-1.8c0-0.6,0-1.2,0-1.8
	s0-1.2,0-2v-6.7c-1.5,1.9-2.9,3.5-4.2,4.7c-1.3,1.3-2.6,2.4-4.1,3.3c-1.5,0.9-3.2,1.8-5.1,2.6s-4.3,1.7-7.2,2.7l-0.3-1
	c2.4-1.3,4.4-2.4,6-3.4s3-2,4.3-3c1.2-1,2.4-2.2,3.4-3.4s2.2-2.7,3.4-4.5h-13c-0.4,0-0.8,0.1-1.2,0.2c-0.4,0.1-0.7,0.2-1,0.3
	l-0.8-2.7c0.4,0.1,0.8,0.2,1.2,0.3c0.4,0.1,0.8,0.1,1.3,0.1h17.1c0-0.6-0.1-1.3-0.1-2.1s0-1.5-0.1-2.2c-1.5,0.8-3.3,1.5-5.5,2.3
	l-0.4-0.8c1.3-0.6,2.5-1.3,3.6-2c1.1-0.8,2.1-1.5,2.9-2.3s1.5-1.5,2.1-2.3c0.6-0.8,0.9-1.5,1.1-2c-0.6-0.4-1.2-0.8-1.7-1.2
	c-0.5-0.3-1.3-0.7-2.2-1.2l0.2-0.7c1,0.1,1.8,0.2,2.4,0.3c0.6,0.1,1.3,0.3,1.9,0.6c0.2-0.7,0.3-1.4,0.3-1.9c0.1-0.6,0.1-1.3,0.2-2.1
	H141c-0.8,0-1.4,0-1.8,0.1s-0.8,0.2-1.2,0.4l-1.8-2.3c0.8,0.1,1.5,0.1,2,0.1s1.1,0,1.9,0h8L149,17c-0.2-0.1-0.3-0.3-0.3-0.5
	c-0.1-0.5-0.2-1-0.3-1.4s-0.3-0.8-0.5-1.2s-0.5-0.8-0.7-1.3c-0.3-0.5-0.7-1-1.1-1.7h-2.4c-1.1,1.3-2,2.5-3,3.5c-0.9,1-2,2.1-3.2,3.2
	l-0.8-0.9c0.9-1.5,1.7-2.9,2.4-4.1c0.7-1.2,1.4-2.4,1.9-3.5c0.6-1.1,1.1-2.3,1.6-3.6c0.5-1.2,1-2.6,1.5-4.3c0.5,0.3,1,0.5,1.4,0.7
	s0.7,0.4,1,0.6s0.6,0.4,0.8,0.5c0.3,0.2,0.5,0.4,0.8,0.6c1.1,0.7,1,1.1-0.1,1.4c-0.2,0-0.3,0.1-0.5,0.3c-0.2,0.1-0.4,0.4-0.6,0.7
	c-0.2,0.3-0.5,0.7-0.9,1.2c-0.3,0.5-0.8,1.2-1.3,2h8.6l1.8-3.3c0.3-0.4,0.5-0.7,0.7-0.7s0.5,0.2,1,0.6c0.7,0.7,1.4,1.3,1.9,1.9
	c0.6,0.6,1.1,1.2,1.6,1.8c0.3,0.4,0.5,0.8,0.3,1c-0.1,0.2-0.4,0.4-0.9,0.4h-11.3c1.6,0.5,2.6,1,3.1,1.3c0.5,0.4,0.7,0.9,0.7,1.5
	s-0.1,1.2-0.4,1.8c-0.3,0.6-0.6,1-1,1.3l2.7,1.8c0.6,0.4,0.6,0.9,0,1.4l-1.5,1.1V28c0,1,0.1,1.6,0.3,1.9s0.8,0.4,1.7,0.4
	c0.6,0,1.2-0.1,1.5-0.3c0.4-0.2,0.7-0.5,0.9-1.1c0.2-0.5,0.4-1.3,0.5-2.3c0.1-1,0.2-2.3,0.3-4h1c0,1.3,0,2.4,0.1,3.3
	c0.1,0.8,0.1,1.5,0.3,2c0.1,0.5,0.3,0.9,0.6,1.1c0.3,0.3,0.6,0.5,1,0.7C160.9,30.1,160.9,30.5,160.4,31.2z M138.9,9.3
	c0.3,0.4,0.4,0.8,0.3,1c-0.1,0.3-0.4,0.4-0.8,0.4h-9.5c1.6,0.7,2.7,1.4,3.2,2.2s0.7,1.5,0.5,2.2c-0.2,0.7-0.6,1.2-1.1,1.5
	s-1,0.5-1.3,0.5c-0.2,0-0.3-0.1-0.4-0.2c-0.1-0.1-0.2-0.4-0.3-0.9c-0.2-0.9-0.5-1.7-0.8-2.5c-0.3-0.8-0.8-1.7-1.5-2.8H125
	c-0.6,0.9-1.3,1.8-1.9,2.7c-0.6,0.8-1.2,1.6-1.9,2.4s-1.4,1.6-2.1,2.3c-0.7,0.8-1.6,1.5-2.5,2.3l-0.6-0.8c0.9-1.3,1.7-2.6,2.4-3.8
	s1.5-2.6,2.2-4c0.7-1.4,1.4-3,2.1-4.8c0.7-1.7,1.4-3.7,2.1-6c1,0.6,1.8,1,2.3,1.4s1.2,0.8,1.8,1.2c0.6,0.3,0.9,0.6,0.9,0.9
	S129.4,5,128.7,5c-0.3,0-0.6,0.3-1.1,0.9c-0.4,0.6-1.1,1.6-1.8,3.1h6.9l1.6-2.7c0.3-0.5,0.5-0.8,0.7-0.8c0.2,0,0.5,0.2,0.9,0.5
	c0.7,0.6,1.2,1.2,1.7,1.7C138.1,8.3,138.5,8.8,138.9,9.3z M136.1,18.9c0.3,0.4,0.4,0.6,0.3,0.9c-0.1,0.2-0.3,0.3-0.8,0.3h-5.8v8.5
	l5.8-1l0.3,1.1l-11.6,4.5c-0.7,0.3-1.4,0.6-2,0.9c-0.6,0.3-1.3,0.7-1.9,1.1c-0.3,0.2-0.5,0.3-0.6,0.2s-0.3-0.2-0.4-0.6
	c-0.3-0.8-0.5-1.4-0.7-2.1c-0.2-0.6-0.5-1.5-0.8-2.5c0.7-0.1,1.4-0.1,2-0.2s1.2-0.1,1.9-0.2c0.6-0.1,1.3-0.2,2-0.3s1.5-0.2,2.4-0.4
	v-9h-3.3c-0.4,0-0.8,0-1.2,0.1s-0.7,0.2-0.9,0.3l-0.7-2.4c0.4,0.1,0.8,0.2,1.2,0.2s0.8,0.1,1.3,0.1h9.2l1.1-2
	c0.2-0.3,0.3-0.5,0.5-0.4c0.2,0,0.5,0.2,0.8,0.6c0.5,0.5,0.9,0.9,1.2,1.3C135.5,18.1,135.8,18.5,136.1,18.9z"/>
<path class="st1" d="M256.9,37.9c-1.3,2.1-2.4,3.8-3.3,5.3c-0.9,1.5-1.6,2.8-2.2,3.8c-0.6,1-1.1,1.9-1.4,2.6
	c-0.3,0.7-0.6,1.3-0.8,1.8c-0.2,0.4-0.3,0.6-0.5,0.6c-0.1,0-0.4-0.2-0.7-0.5c-0.5-0.6-0.9-1.1-1.4-1.7c-0.4-0.6-1-1.4-1.6-2.3
	c0.3-0.3,0.7-0.5,0.9-0.7c0.3-0.2,0.6-0.5,1-0.8V25.5h-2.8c0,3-0.1,5.6-0.2,7.8c-0.1,2.2-0.3,4.1-0.5,5.7c-0.2,1.6-0.5,3.1-0.9,4.4
	s-0.9,2.5-1.5,3.8c-0.6,1.2-1.4,2.5-2.2,3.8c-0.9,1.3-1.9,2.8-3.2,4.5l-0.9-0.7c0.8-1.6,1.5-3.1,2-4.4c0.6-1.3,1.1-2.6,1.5-3.8
	s0.8-2.5,1.1-3.9c0.3-1.3,0.5-2.8,0.7-4.4c0.2-1.6,0.3-3.5,0.4-5.5c0.1-2.1,0.1-4.5,0.1-7.3h-2.3c-0.4,0-0.7,0-1.1,0.1
	c-0.4,0.1-0.6,0.2-0.8,0.3l-1.2-2.2c0.4,0.1,0.8,0.2,1.1,0.2s0.7,0.1,1.2,0.1h6.4V7.9c0-1.4,0-2.6,0-3.5s0-1.9-0.1-2.8
	c0.8,0.2,1.5,0.4,2.1,0.6c0.5,0.2,1.2,0.5,1.9,0.8s1,0.5,0.9,0.8S248,4.5,247,5.2V24h4.2l1.1-3c0.2-0.5,0.3-0.7,0.5-0.7
	s0.5,0.2,0.8,0.7c0.5,0.6,0.9,1.1,1.3,1.6c0.4,0.5,0.8,1.1,1.3,1.7c0.4,0.6,0.5,0.9,0.5,1.1s-0.3,0.2-0.8,0.2h-5.6v17.3
	c0.7-0.7,1.5-1.4,2.4-2.3c1-0.9,2.1-1.9,3.4-3.1L256.9,37.9z M242.3,17.9c-0.3,1.1-0.6,2-1.1,2.7c-0.5,0.6-0.9,0.9-1.4,0.9
	c-0.3,0-0.5-0.2-0.6-0.5s-0.3-1.1-0.4-2.3c-0.1-1.1-0.2-2-0.4-2.9s-0.3-1.8-0.6-2.6c-0.2-0.9-0.5-1.8-0.8-2.8s-0.8-2.1-1.3-3.4
	l0.9-0.5c1.4,1.5,2.6,2.8,3.4,4c0.8,1.2,1.4,2.2,1.8,3.1c0.4,0.9,0.6,1.7,0.6,2.4C242.4,16.6,242.4,17.3,242.3,17.9z M255.8,8.8
	c0.4,0.3,0.6,0.6,0.7,0.9s-0.1,0.5-0.6,0.6c-0.3,0.1-0.7,0.2-0.9,0.2c-0.3,0.1-0.6,0.5-0.9,1.3c-0.3,0.8-0.7,1.6-1,2.3
	s-0.7,1.5-1.1,2.3c-0.4,0.8-0.8,1.6-1.3,2.5s-1,1.9-1.7,2.9l-1-0.5c0.7-2.3,1.5-4.6,2.1-7.1c0.7-2.4,1.3-5.2,1.8-8.2
	c0.4,0.3,0.8,0.5,1.1,0.7s0.6,0.4,0.9,0.6c0.3,0.2,0.6,0.4,0.9,0.6C255.1,8.3,255.4,8.6,255.8,8.8z M283.5,43.4
	c0.4,0.6,0.6,1,0.6,1.3c-0.1,0.3-0.4,0.4-1,0.4h-13.3v10c0,0.4-0.2,0.8-0.5,0.9c-0.5,0.3-1,0.6-1.4,0.7c-0.4,0.2-0.9,0.4-1.6,0.6
	c-0.3,0.1-0.4,0-0.4-0.4c0-0.8,0.1-1.5,0.1-2.1s0.1-1.2,0.1-1.7s0-1.1,0-1.6s0-1.1,0-1.8v-4.6h-8.4c-0.4,0-0.7,0-1.1,0.1
	c-0.4,0.1-0.6,0.2-0.8,0.2l-0.9-2.6c0.4,0.1,0.8,0.2,1.1,0.2c0.3,0,0.7,0.1,1.2,0.1h8.9v-5.3h-4.8v0.9c0,0.4-0.1,0.7-0.3,0.8
	c-0.6,0.3-1.1,0.6-1.6,0.7c-0.5,0.2-1,0.3-1.6,0.4c-0.2,0.1-0.3-0.1-0.3-0.4c0.1-0.7,0.1-1.3,0.1-2s0-1.2,0-1.7V24.6
	c0-0.9,0-1.7,0-2.4c0-0.7-0.1-1.4-0.1-2.2c0.7,0.3,1.5,0.7,2.2,1c0.7,0.4,1.5,0.8,2.2,1.2h4.2v-4.6H258c-0.4,0-0.7,0-1.1,0.1
	s-0.6,0.2-0.8,0.3l-1.2-2.2c0.4,0.1,0.8,0.2,1.1,0.2c0.3,0,0.7,0.1,1.2,0.1h8.9c0-3.4-0.1-5.8-0.2-7.4c0.8,0.2,1.5,0.5,2.2,0.7
	c0.6,0.2,1.3,0.5,2.1,0.9c0.6,0.3,1,0.6,0.9,0.8c0,0.2-0.5,0.5-1.3,1v4h5.7l1.5-2.2c0.2-0.4,0.4-0.5,0.6-0.6c0.2,0,0.4,0.1,0.8,0.5
	c0.5,0.5,0.9,0.9,1.2,1.2c0.3,0.3,0.7,0.7,1.1,1.2c0.4,0.5,0.6,0.9,0.6,1c-0.1,0.2-0.3,0.3-0.9,0.3h-10.6v4.6h5.1l1.1-1.8
	c0.2-0.3,0.3-0.5,0.5-0.5c0.2,0,0.4,0.1,0.6,0.3c0.5,0.4,1,0.7,1.4,1c0.4,0.3,0.8,0.6,1.2,0.9c0.6,0.5,0.8,0.9,0.8,1.2
	c-0.1,0.3-0.6,0.8-1.6,1.3V35c0,0.5,0,1,0,1.5s0,1,0.1,1.6c0,0.4-0.1,0.7-0.4,0.8c-0.5,0.2-0.9,0.4-1.4,0.5s-1.1,0.2-1.8,0.4
	c-0.3,0-0.4-0.2-0.4-0.6V38h-5.3v5.3h7.7l1.9-3c0.3-0.4,0.5-0.6,0.7-0.6c0.2,0,0.4,0.2,0.8,0.5c0.5,0.6,1,1.1,1.5,1.7
	C282.7,42.4,283.1,42.9,283.5,43.4z M282.4,6.9c0.4,0.4,0.5,0.7,0.5,1.1c0,0.4-0.3,0.6-0.9,0.7c-0.3,0-0.6,0.1-1,0.1
	c-0.3,0.1-0.7,0.2-1.1,0.6c-0.4,0.3-0.9,0.8-1.5,1.5s-1.3,1.7-2.1,2.9l-0.8-0.3c0.3-0.8,0.6-1.7,0.9-2.8c0.3-1,0.6-2,0.8-2.9h-16.7
	c0.1,1,0.1,1.8,0.1,2.4s-0.1,1.2-0.2,1.6c-0.1,0.5-0.2,0.9-0.4,1.2s-0.4,0.7-0.7,1c-0.2,0.3-0.5,0.5-0.8,0.6s-0.7,0.2-1,0.2
	c-0.4,0-0.7-0.1-1-0.2c-0.3-0.1-0.5-0.3-0.7-0.5s-0.2-0.6-0.2-1c0-0.5,0.3-1.2,0.8-2.1c0.3-0.5,0.5-1,0.8-1.5s0.5-0.9,0.7-1.5
	c0.2-0.5,0.5-1.1,0.6-1.8c0.2-0.7,0.3-1.5,0.5-2.4l1-0.1c0.1,0.3,0.1,0.6,0.2,0.9c0.1,0.3,0.1,0.6,0.1,0.9h16.5l1.1-1.7
	c0.3-0.4,0.5-0.6,0.7-0.6c0.2,0,0.4,0.2,0.8,0.5c0.5,0.4,1,0.9,1.4,1.3C281.3,5.8,281.8,6.3,282.4,6.9z M266,23.7h-4.8v5.7h4.8V23.7
	z M266,30.9h-4.8v5.6h4.8V30.9z M275,23.7h-5.3v5.7h5.3V23.7z M275,30.9h-5.3v5.6h5.3V30.9z"/>
<path class="st1" d="M306.8,34.4h-14.2c-0.9,0-1.6,0.1-2.1,0.4l-0.9-2.4c0.7,0.2,1.6,0.3,2.6,0.3h30.7l1.9-3.3
	c0.2-0.4,0.5-0.7,0.7-0.7c0.3,0,1.1,0.7,2.6,2.2c1.4,1.4,2.2,2.4,2.2,2.8c0,0.5-0.3,0.7-1,0.7h-17.4v7.8h8l1.9-3.9
	c0.3-0.1,0.6-0.2,0.8-0.2c0.4,0,1.3,0.8,2.8,2.3s2.2,2.5,2.2,2.8c0,0.4-0.3,0.5-1,0.5h-14.7v8.5h13.7l2.2-3.8
	c0.3-0.6,0.6-0.9,0.9-0.9c0.2,0,0.8,0.5,1.7,1.5s1.7,1.9,2.5,2.8c0.8,0.9,1.1,1.5,1.1,1.8s-0.3,0.4-0.9,0.4H290
	c-0.9,0-1.6,0.1-2.1,0.4L287,52c0.7,0.2,1.6,0.3,2.6,0.3h17.3v-8.5h-11.6c-0.8,0-1.5,0.1-2.1,0.4l-0.9-2.3c0.7,0.2,1.6,0.3,2.6,0.3
	H307v-7.8H306.8z M304.7,8.5c0.8-3.1,1.4-5.8,1.6-8.2c1.4,0.4,2.6,0.9,3.7,1.5s1.7,0.9,1.9,1.2c0.2,0.2,0.3,0.4,0.3,0.6
	c0,0.4-0.3,0.6-0.8,0.6s-1.1,0.4-1.7,1.1c-0.6,0.7-1.4,1.8-2.4,3.3h12.2l1.2-2.6c0.2-0.4,0.4-0.5,0.7-0.5c0.3,0,1,0.4,2.1,1.1
	c1.1,0.8,1.9,1.4,2.5,1.8c0.5,0.5,0.8,0.8,0.8,1.2c0,0.3-0.6,0.9-1.9,1.7V21c0,1.9,0,3.2,0.1,4l0.1,2.3c0,0.3-0.2,0.6-0.5,0.9
	c-0.4,0.3-1,0.7-1.9,1.1s-1.6,0.6-2.1,0.6c-0.2,0-0.3-0.2-0.3-0.7V27H299v1.1c0,0.6-0.1,0.9-0.3,1.1c-0.2,0.2-0.8,0.5-1.9,0.9
	c-1.1,0.4-1.8,0.6-2.1,0.6c-0.3,0-0.5-0.1-0.5-0.4s0-1,0.1-2.2c0.1-1.2,0.1-2.7,0.1-4.7V11.6c0-1.9-0.1-3.7-0.2-5.6
	c2,0.7,3.8,1.6,5.5,2.6h5V8.5L304.7,8.5z M320,17v-6.8h-21V17H320z M320,25.3v-6.5h-21v6.5H320z"/>
<path class="st2" d="M86.7,98.7c-0.2-0.3-0.3-0.8-0.5-1.3c0.4,0.1,1.6,0.3,3.9,0.4v-3.7c-0.1-0.8-0.1-1.5-0.2-2.2
	c0.8,0.1,1.6,0.2,2.5,0.4c0.6,0.1,1,0.3,1,0.5s-0.2,0.3-0.4,0.3c-0.5,0.2-0.7,0.3-0.7,0.4v4.4h0.4c0.6-1,1-1.5,1.2-1.5
	c0.1,0,0.4,0.3,0.8,0.8c0.4,0.5,0.6,0.9,0.7,1.1c0,0.3-0.1,0.4-0.3,0.4h-2.7v1.5c2.1,1,3.1,1.9,3.1,2.8c0,0.5-0.2,0.8-0.4,1
	s-0.4,0.2-0.7,0.2c-0.5,0-0.8-0.5-1-1.4c-0.3-0.8-0.6-1.5-1-2.1v8.3c0,2.6,0.1,4.5,0.1,5.6c0,0.4-0.5,0.6-1.6,0.6
	c-0.6,0-0.8-0.2-0.8-0.5c0.1-0.9,0.1-2.8,0.1-5.8v-5.4c-1.1,2.4-2.2,4.2-3.5,5.5c-0.2-0.1-0.3-0.1-0.3-0.3c1.8-2.9,2.9-6.3,3.5-10.1
	C87.7,98.6,86.7,98.6,86.7,98.7z M101.7,93.1c0,0.2-0.1,0.3-0.3,0.4c-0.5,0.2-0.8,0.4-0.8,0.5l-0.1,8.3c0,6.7-2.2,10.9-6.6,12.6
	c-0.1-0.1-0.2-0.3-0.2-0.4c1.7-1.5,2.8-3.1,3.5-5c0.5-1.1,0.9-2.8,1.1-5.1c-0.6,0.7-1.3,1.5-2.1,2.2c-0.1,0.2-0.1,0.5-0.1,1.1
	c0,0.2-0.1,0.3-0.2,0.3c-0.3,0-0.9-0.9-2-2.8c0.6-0.1,2.1-0.7,4.4-1.8c0.1-0.9,0.1-1.8,0.1-2.8v-5.7c0-1.1-0.1-2-0.2-2.7
	C100.5,92.5,101.7,92.8,101.7,93.1z M97.9,99.8c0,0.8-0.3,1.2-1,1.2c-0.6,0-0.9-0.3-0.9-0.9c0-0.3-0.1-0.8-0.2-1.4
	c-0.1-0.6-0.3-1.2-0.5-1.9c-0.2-0.6-0.4-1-0.5-1.3c0.2-0.1,0.3-0.2,0.3-0.2C97,96.9,97.9,98.4,97.9,99.8z M105.5,93.2
	c0,0.1-0.1,0.2-0.3,0.3c-0.5,0.2-0.8,0.3-0.9,0.4v5.9c1-1.4,1.6-2.8,2-4.5c0.4,0.3,1.1,0.7,2,1.2c0.5,0.3,0.7,0.6,0.7,0.7
	c0,0.2-0.2,0.2-0.4,0.2c-0.5,0.1-0.8,0.1-1,0.1c-0.5,0.6-1,1.2-1.6,1.7s-1.2,0.9-1.8,1.3v2.3c1.1,0.3,2,0.6,2.8,1
	c1.1,0.6,1.7,1.2,1.7,1.8s-0.1,0.9-0.3,1.1c-0.2,0.3-0.5,0.5-0.9,0.5c-0.2,0-0.6-0.4-1.1-1.3c-0.8-1.1-1.5-1.9-2.2-2.3v7.9
	c0.1,0.6,0.3,0.9,0.7,0.9h0.8c0.7,0,1.2-0.5,1.4-1.5c0.4-1.2,0.6-1.9,0.6-2.3c0.1,0,0.2,0,0.4,0c0,0,0.1,0.9,0.1,2.8
	c0,0.3,0.1,0.6,0.4,0.7c0.4,0.3,0.6,0.5,0.6,0.8c0,0.6-0.5,1-1.3,1.3c-0.5,0.2-1.1,0.3-1.9,0.3c-0.9,0-1.5-0.1-1.7-0.1
	c-1.5-0.1-2.2-0.9-2.2-2.4V94.6c0-0.7-0.1-1.5-0.2-2.2C104.3,92.6,105.5,92.9,105.5,93.2z"/>
<path class="st2" d="M115.7,100.9c0.2,0.8,0.3,1.6,0.3,2.5c0,4-1.1,6-3.4,6.1c-0.9,0-1.4-0.3-1.4-0.9c0-0.4,0.1-0.7,0.2-0.9
	c0.1-0.3,0.7-0.8,1.7-1.7c1.2-1.1,1.9-2.8,2.2-5.1C115.5,100.9,115.7,100.9,115.7,100.9z M122.3,98.2c0,0.3-0.5,0.6-1.5,0.9v11.2
	c0,0.8,0.4,1.2,1.3,1.3h3.5c1-0.1,1.7-0.5,2-1.3c0.3-0.6,0.6-1.9,1-4c0.3,0,0.5,0,0.5,0v3.9c0,0.4,0.3,0.6,0.7,0.7
	c0.5,0.3,0.8,0.6,0.8,0.9c-0.1,0.8-0.9,1.4-2.4,1.7c-1.1,0.1-2.2,0.2-3.3,0.2c-2.2,0-3.7-0.1-4.3-0.2c-1.4-0.1-2.1-1.3-2.1-3.7v-10
	c0-1.3-0.1-2.3-0.2-2.8C121,97.6,122.3,98,122.3,98.2z M126.8,95.7c0,0.8-0.2,1.3-0.4,1.5c-0.2,0.3-0.5,0.4-0.9,0.4
	c-0.6,0-1.2-0.6-1.8-1.8c-0.9-1.4-2.2-2.6-4-3.7c0.1-0.1,0.1-0.2,0.2-0.3C124.4,92.9,126.6,94.2,126.8,95.7z M134.3,106.5
	c0,0.7-0.1,1.2-0.4,1.5c-0.3,0.4-0.6,0.5-1.1,0.5c-0.7,0-1.1-0.7-1.3-2.1c-0.6-2.6-1.5-4.6-2.6-6l0.4-0.3
	C132.6,102.5,134.3,104.6,134.3,106.5z"/>
<path class="st2" d="M144.1,98.3c0.8,0.8,1.3,1.2,1.4,1.5c0,0.2-0.1,0.3-0.2,0.3H142v6.8c1.1-0.4,2.3-0.8,3.4-1.3
	c0.1,0.2,0.1,0.3,0.2,0.4c-1.8,1.7-4.1,3.1-6.7,4.3c-0.1,0.2-0.2,0.6-0.3,1.1c-0.1,0.3-0.2,0.4-0.3,0.4c-0.3,0-0.6-0.6-1.2-1.9
	c-0.2-0.7-0.5-1.2-0.7-1.6c1.1-0.2,2.2-0.4,3.3-0.7v-7.5h-0.3c-1.1,0-1.9,0.1-2.4,0.2c-0.1-0.3-0.2-0.6-0.4-1
	c0.5,0.1,1.5,0.2,2.8,0.2h0.3v-3.9c0-1.1-0.1-2-0.2-2.7c2.4,0.4,3.6,0.7,3.6,0.9c0,0.2-0.2,0.4-0.4,0.4c-0.5,0.2-0.8,0.4-0.8,0.5
	v4.8h0.4c0.3-0.5,0.7-0.8,1-1.2c0.1-0.1,0.2-0.2,0.3-0.2S143.9,98.2,144.1,98.3z M153.3,92.4c0.6,0.1,1,0.3,1,0.5s-0.2,0.3-0.4,0.3
	c-0.5,0.2-0.7,0.3-0.7,0.4v4.7c0.8-0.2,1.6-0.5,2.5-0.8c0.5-1.1,0.9-1.6,1.2-1.6c1.6,0.6,2.3,1,2.3,1.3c0,0.2-0.2,0.5-0.6,0.8
	c-0.2,0.2-0.4,0.3-0.5,0.4c-0.1,4.7-0.3,7.5-0.7,8.3c-0.6,1.2-1.4,1.7-2.6,1.7c-0.2-0.1-0.3-0.3-0.4-0.7c-0.1-0.5-0.4-0.8-0.7-1
	c-0.2-0.1-0.4-0.2-0.6-0.3c0,1.4,0.1,2.4,0.1,3.1c0,0.4-0.5,0.6-1.6,0.6c-0.6,0-0.8-0.2-0.8-0.5c0.1-0.9,0.1-2.8,0.1-5.8v-4
	c-1.1,0.3-1.9,0.6-2.7,0.9v10.6c0.3,0.6,1.5,0.9,3.7,0.9h4.1c0.6,0,1-0.5,1.2-1.5c0.3-1.2,0.5-1.9,0.5-2.3c0.1,0,0.2,0,0.4,0
	c0.1,0,0.1,0.9,0.1,2.8c0,0.3,0.2,0.6,0.5,0.7c0.5,0.3,0.8,0.5,0.8,0.8c0,0.6-0.5,1-1.3,1.2c-1.2,0.2-2.9,0.3-5.2,0.3
	c-2.5,0-4.1-0.1-4.7-0.1c-1.5-0.1-2.2-0.9-2.2-2.4v-10.2c-0.8,0.3-1.3,0.5-1.4,0.6c-0.1-0.3-0.4-0.7-0.8-1.2c0.5,0,1.2-0.1,2.2-0.4
	v-4.7c0-0.7-0.1-1.5-0.1-2.2c2.3,0.4,3.5,0.7,3.5,1c0,0.1-0.1,0.2-0.3,0.3c-0.5,0.2-0.8,0.3-0.8,0.4v4.6c0.8-0.2,1.7-0.5,2.7-0.8
	v-4.7c-0.1-0.8-0.1-1.5-0.2-2.2C151.6,92.1,152.4,92.3,153.3,92.4z M154.5,106c0.7,0,1.1-0.2,1.2-0.7c0.3-0.8,0.4-3.2,0.4-7.1
	c-1,0.3-2,0.6-2.8,0.9v4.7c0,0.7,0,1.4,0,2C153.6,105.9,154.1,106,154.5,106z"/>
<path class="st2" d="M181.8,93c1.2,1,1.7,1.6,1.7,1.9c0,0.2-0.1,0.3-0.3,0.3h-8.8v7.8h3.5c0.8-1,1.4-1.7,1.8-1.9c0.1,0,0.2,0,0.2,0
	c0.2,0.1,0.4,0.3,0.7,0.5c1.2,1,1.7,1.6,1.7,1.8c0,0.3-0.1,0.4-0.3,0.4h-7.7v8.7h5.7c0.9-1.1,1.5-1.8,1.9-2.1c0.1,0,0.2,0,0.3,0
	c0.2,0.1,0.5,0.3,0.7,0.5c1.2,1.1,1.9,1.7,1.9,2c0,0.2-0.1,0.4-0.3,0.4h-16.3c-3,0-4.9,0.1-5.6,0.3c-0.2-0.5-0.4-0.9-0.6-1.3
	c1.2,0.2,3.2,0.3,6.2,0.3h3.7v-8.7h-2.4c-2.3,0-3.7,0.1-4.3,0.3c-0.2-0.4-0.4-0.9-0.6-1.3c0.9,0.2,2.4,0.3,4.5,0.3h2.7v-7.8h-3.1
	c-2.6,0-4.3,0.1-4.9,0.3c-0.2-0.4-0.4-0.9-0.6-1.3c1.1,0.2,2.8,0.3,5.4,0.3h10.3c0.8-1,1.4-1.7,1.8-1.9c0.1,0,0.2,0,0.2,0
	C181.3,92.6,181.5,92.8,181.8,93z"/>
<path class="st2" d="M197.8,107.8l-0.5-0.5c1-0.8,1.4-1.6,1.4-2.3c0-0.1-0.1-0.2-0.3-0.3c-1.2-0.3-1.8-0.9-1.8-1.8
	c0-0.4,0.2-0.8,0.5-1.2c0.4-0.4,0.8-0.6,1.4-0.6s1.1,0.3,1.5,0.8c0.3,0.4,0.4,0.9,0.4,1.3C200.4,105.1,199.5,106.6,197.8,107.8z"/>
<path class="st2" d="M215.4,94.6h2.7c0.7-0.8,1.1-1.2,1.4-1.2c0.2,0,0.7,0.3,1.4,0.8c0.6,0.5,0.9,0.8,0.9,1s-0.2,0.3-0.4,0.5
	c-0.4,0.3-0.7,0.5-0.8,0.6v8c0.1,3.1,0.2,5.1,0.2,6c0,0.6-0.5,0.8-1.3,0.8c-0.7,0-1-0.2-1-0.5v-1.5h-2.8v2c-0.1,0.5-0.6,0.8-1.4,0.8
	c-0.5,0-0.8-0.1-0.9-0.3c0-2.8,0-5.6,0.1-8.3v-5.4c0-2.3-0.1-3.7-0.2-4.1L215.4,94.6z M218.4,101.4v-6.1h-2.8v6.1H218.4z
	 M218.4,108.5V102h-2.8v6.5H218.4z M234.7,104.2c0.4,0.4,0.5,0.6,0.5,0.8s-0.1,0.3-0.4,0.3h-3.3v6.6c0,1.5-0.9,2.4-2.6,2.9
	c-0.3,0-0.4-0.2-0.5-0.6c-0.1-0.6-0.5-1.1-1.3-1.5c-0.6-0.3-1.2-0.5-1.7-0.6c0.1-0.2,0.1-0.3,0.1-0.4c1,0.1,2.1,0.2,3.3,0.2
	c0.3,0,0.4-0.3,0.4-0.7v-5.9H224c-0.8,0-1.5,0.1-2.2,0.2c-0.2-0.4-0.4-0.8-0.5-1.2c0.7,0.2,1.5,0.3,2.4,0.3h5.6
	c-0.1-1.3-0.1-2.4-0.2-3.2c0.6,0.2,1.2,0.3,1.8,0.4c0.8,0.1,1.3,0.2,1.4,0.3c0.2,0.1,0.2,0.2,0.2,0.4s-0.3,0.3-0.7,0.4
	c-0.3,0.1-0.4,0.1-0.4,0.2v1.6h0.4c0.7-0.9,1.2-1.4,1.4-1.5c0.1,0,0.2,0,0.2,0C233.6,103.1,234,103.5,234.7,104.2z M232.2,94.6
	c1,0.9,1.5,1.4,1.6,1.7c0,0.2-0.1,0.3-0.2,0.3h-5.1v4h2.5c0.4-0.6,0.8-1.1,1.2-1.5c0.2-0.1,0.3-0.2,0.3-0.2c0.1,0,0.3,0.1,0.5,0.3
	c1,0.9,1.6,1.5,1.7,1.8c0,0.2-0.1,0.3-0.2,0.3h-10.4c-1.1,0-1.9,0.1-2.4,0.2c-0.1-0.3-0.2-0.6-0.4-1c0.6,0.1,1.5,0.2,2.8,0.2h2.1v-4
	h-1.5c-1,0-1.8,0.1-2.4,0.2c-0.1-0.3-0.2-0.6-0.4-1c0.5,0.1,1.4,0.2,2.7,0.2h1.5v-1.2c0-1.1-0.1-2-0.1-2.7c2.4,0.4,3.6,0.7,3.6,0.9
	c0,0.2-0.2,0.4-0.4,0.4c-0.5,0.2-0.8,0.4-0.8,0.5v2h1.7c0.4-0.6,0.8-1,1.2-1.4c0.1-0.1,0.2-0.2,0.3-0.2
	C231.8,94.3,232,94.4,232.2,94.6z M225.3,107c1.1,0.7,1.6,1.5,1.6,2.5c0,0.6-0.2,1-0.5,1.2c-0.2,0.2-0.4,0.2-0.8,0.2
	c-0.6,0-0.9-0.5-1.1-1.5c-0.3-0.9-0.5-1.5-0.8-1.9c-0.2-0.3-0.4-0.6-0.7-1c0.1-0.1,0.1-0.2,0.2-0.3
	C224.2,106.4,224.8,106.6,225.3,107z"/>
<path class="st2" d="M247.4,93.5c0,0.2-0.6,0.4-1.7,0.6c-0.8,1.6-1.6,3.1-2.6,4.4c1,0.3,1.5,0.5,1.5,0.7s-0.2,0.3-0.5,0.4
	c-0.3,0.2-0.5,0.3-0.5,0.4v8.1c0.1,2.2,0.1,4.3,0.1,6.3c-0.1,0.4-0.6,0.6-1.5,0.7c-0.6,0-0.9-0.2-0.9-0.5c0.1-2.1,0.1-4.3,0.1-6.4
	v-7.3c-1.1,1.3-2.3,2.4-3.6,3.3c-0.1-0.1-0.1-0.2-0.3-0.3c3.4-4,5.5-8,6.2-11.9C246.1,92.7,247.4,93.2,247.4,93.5z M253.2,93
	c0,0.2-0.1,0.3-0.3,0.4c-0.4,0.2-0.7,0.4-1,0.5c0,2.5,0.1,4.7,0.3,6.6c1.2-0.2,2.5-0.3,3.9-0.5H256c0.8-1.3,1.3-2.1,1.7-2.2
	c0.4,0.2,1,0.6,1.6,1.1c0.6,0.5,0.9,0.8,0.9,0.9c0,0.3-0.1,0.5-0.4,0.5c-3,0.4-5.5,0.7-7.6,0.9c0.1,0.8,0.2,1.5,0.3,2.1
	c1.2,4.8,2.9,7.5,5,8.2c0.3,0,0.8-1.4,1.4-4.2c0.3,0,0.4,0.1,0.4,0.1c-0.2,1.6-0.3,3-0.3,4.3c0.1,0.4,0.2,0.8,0.5,1
	c0.4,0.5,0.6,0.9,0.6,1.2c0,0.5-0.4,0.7-1.1,0.8c-1.2,0-2.5-0.5-3.9-1.5c-2.9-2.5-4.6-6.4-5.2-11.7c-2.9,0.4-4.5,0.7-4.9,0.8
	c-0.2-0.3-0.4-0.7-0.6-1.1c1.3,0,3.1-0.1,5.5-0.4c-0.1-0.4-0.1-0.9-0.1-1.3c-0.2-3.5-0.4-5.8-0.6-7.1
	C251.9,92.6,253.2,92.8,253.2,93z M258,95.9c0,0.4-0.1,0.6-0.1,0.9c-0.2,0.5-0.5,0.7-1,0.7c-0.3,0-0.8-0.4-1.3-1.3
	c-0.6-0.9-1.2-1.6-1.9-2.2c0.1-0.1,0.1-0.2,0.2-0.3C256.5,93.9,257.9,94.7,258,95.9z"/>
<path class="st2" d="M266.5,108.3c0.8-2.2,1.3-4.4,1.5-6.8h-2c-0.3,0.6-0.5,1-0.7,1.3c-0.1,0.3-0.4,0.4-0.9,0.4
	c-0.9-0.1-1.3-0.3-1.3-0.6c1.6-2.9,3-5.6,4.1-8.1H264c-0.3,0-0.6,0.1-0.9,0.2c-0.2-0.4-0.3-0.7-0.4-0.9c0.5,0.1,0.9,0.1,1.2,0.1h3.2
	c0.8-0.8,1.3-1.2,1.4-1.2c0.3,0,0.7,0.3,1.1,0.8c0.6,0.6,0.9,0.9,0.9,1.1s-0.3,0.4-0.8,0.6c-0.3,0.1-0.5,0.2-0.5,0.2
	c-1.2,2.3-2.1,4.2-2.8,5.5h1.5c0.7-0.8,1.1-1.1,1.4-1.1c0.2,0,0.6,0.3,1.1,0.8c0.6,0.5,0.9,0.9,0.9,1.1c0,0.1-0.1,0.2-0.4,0.3
	c-0.5,0.2-0.8,0.4-1,0.6c-0.5,3-1.2,5.4-2.1,7.3c0.3,0.2,0.5,0.4,0.7,0.5c1.8,1.4,5.5,2,11.2,2c2.1,0,4.1-0.1,5.7-0.3v0.5
	c-0.4,0.1-0.8,0.3-1,0.6c-0.1,0.2-0.3,0.5-0.4,0.9c-0.1,0.4-0.3,0.6-0.7,0.6c-1,0-2.2,0-3.8,0c-5.2-0.2-9-1-11.2-2.5
	c-0.5-0.3-0.8-0.6-1.2-1c-1.2,2-2.6,3.3-4.3,3.9c0-0.1-0.1-0.2-0.2-0.4c1.5-1.5,2.6-3.1,3.4-4.9c-0.9-1.4-1.6-3.1-2-5.3l0.4-0.1
	C265.1,106,265.8,107.3,266.5,108.3z M282.7,94c0.6,0.5,0.9,0.9,0.9,1.1s-0.1,0.3-0.4,0.4c-0.2,0.1-0.4,0.3-0.7,0.5v1.7h0.2
	c0.6-1,1-1.5,1.2-1.5c0.1,0,0.4,0.3,0.8,0.8c0.4,0.5,0.6,0.9,0.7,1.1c0,0.3-0.1,0.4-0.3,0.4h-2.6v1.2c0.1,0.8,0.1,1.6,0.1,2.2
	c0,0.4-0.5,0.7-1.6,0.7c-0.5,0-0.7-0.2-0.7-0.5v-0.3h-2.7v2.6h2.7c0.4-0.5,0.7-0.9,1.1-1.3c0.1-0.1,0.2-0.2,0.3-0.2
	c0.1,0,0.3,0.1,0.5,0.3c0.9,0.8,1.4,1.3,1.5,1.5c0,0.2-0.1,0.3-0.2,0.3h-5.8v0.4c0,0.9,0,1.6,0.1,2.3h3.5c0.4-0.6,0.8-1,1.2-1.4
	c0.1-0.1,0.2-0.2,0.3-0.2c0.1,0,0.3,0.1,0.5,0.3c1,0.9,1.5,1.4,1.6,1.7c0,0.2-0.1,0.3-0.2,0.3h-6.9c0,1.2,0,2.1,0.1,2.7
	c0,0.4-0.5,0.6-1.6,0.6c-0.5,0-0.8-0.2-0.8-0.5c0-0.6,0-1.5,0.1-2.8H273c-1.1,0-1.9,0.1-2.4,0.2c-0.1-0.3-0.2-0.6-0.4-1
	c0.5,0.1,1.5,0.2,2.8,0.2h2.6c0-0.7,0-1.5,0-2.4v-0.3h-1.8c-1.1,0-1.9,0.1-2.4,0.2c-0.1-0.3-0.2-0.6-0.4-1c0.6,0.1,1.5,0.2,2.8,0.2
	h1.8V102c-1.5,0.1-2.7,0.1-3.7,0.2c-0.2-0.4-0.3-0.8-0.4-1.1c0.5,0.1,1.9,0.1,4.1,0.2v-2.6h-1.3c-2.4,0.1-3.7,0.1-3.7,0.2
	c-0.2-0.3-0.3-0.8-0.5-1.3c0.4,0.1,1.7,0.3,3.9,0.4h1.6v-2.4h-0.3c-1.7,0-3,0.1-3.8,0.2c-0.1-0.3-0.2-0.6-0.3-1
	c0.7,0.1,2.1,0.2,4.3,0.2h0.1v-0.4c-0.1-0.8-0.1-1.5-0.2-2.2c0.8,0.1,1.6,0.2,2.5,0.4c0.6,0.1,1,0.3,1,0.5s-0.2,0.3-0.4,0.3
	c-0.5,0.2-0.7,0.3-0.7,0.4v1.1h2.4c0.7-0.9,1.2-1.3,1.4-1.3C281.7,93.3,282.1,93.5,282.7,94z M277.6,97.6h2.7v-2.4h-2.7V97.6z
	 M277.6,101c0.1,0,0.2,0,0.4,0h2.3v-2.6h-2.7V101z"/>
<path class="st2" d="M308.8,105.9c1.1,0.9,1.6,1.5,1.6,1.7c0,0.3-0.1,0.4-0.3,0.4h-8.5c1.2,1.1,2.4,1.9,3.8,2.4
	c1.5,0.6,3.1,0.9,5.1,0.9c0,0.2-0.1,0.4-0.1,0.5c-0.2,0.1-0.4,0.2-0.7,0.5c-0.1,0.2-0.3,0.5-0.5,1c-0.1,0.3-0.3,0.5-0.5,0.5
	c-0.8,0-2.2-0.6-4-1.7c-1.6-1-2.9-2.3-3.8-4h-0.4l0.1,6.1c-0.1,0.5-0.5,0.8-1.5,0.8c-0.8,0-1.1-0.2-1.1-0.6c0-1.9,0.1-3.7,0.1-5.3
	c-1.8,2-5.2,3.6-10.2,4.8c-0.1,0-0.2-0.2-0.3-0.4c4.1-1.5,6.8-3.1,8-4.8c0.2-0.2,0.4-0.4,0.5-0.6h-1.9c-2.9,0-4.8,0.1-5.5,0.3
	c-0.2-0.4-0.4-0.9-0.6-1.3c1.2,0.2,3.3,0.3,6.2,0.3h3.8V107c-0.1-0.8-0.1-1.5-0.1-1.9c-0.8,0.3-1.6,0.5-2.4,0.6
	c0-0.1-0.1-0.2-0.2-0.3c2-0.7,3.5-1.8,4.4-3.2c-0.7-0.5-1.3-0.8-2-1.1c0-0.1,0.1-0.2,0.2-0.4c0.9,0.1,1.6,0.3,2.3,0.4
	c0.2-0.6,0.3-1.2,0.4-1.7c-1,0.1-1.7,0.1-2,0.2c-0.2-0.4-0.4-0.8-0.5-1.2c0.4,0.2,1.2,0.3,2.4,0.3h4.3c0.3-0.4,0.5-0.7,0.7-0.9h-0.1
	c-0.5,0-0.7-0.3-0.8-0.8c-0.1-0.1-0.1-0.3-0.1-0.6c-0.1-0.2-0.1-0.4-0.2-0.7c-0.2-0.3-0.3-0.5-0.4-0.6h-1.9
	c-0.2,0.2-0.5,0.4-0.7,0.6c-0.8,0.8-1.7,1.4-2.7,1.9c0-0.1-0.1-0.2-0.2-0.3c1.6-1.9,2.6-3.7,3-5.5c2.1,0.7,3.2,1.1,3.2,1.4
	c0,0.2-0.5,0.4-1.5,0.5c-0.2,0.3-0.4,0.5-0.5,0.7h4.4c0.6-0.9,1.1-1.4,1.4-1.6c0,0,0.1-0.1,0.2-0.1c0.2,0.1,0.5,0.3,1,0.7
	c0.6,0.6,1,1,1.1,1.2c0,0.3-0.1,0.4-0.2,0.4h-5.3c1,0.4,1.5,0.9,1.5,1.5c0,0.4-0.2,0.7-0.4,0.8c0.4,0.2,0.7,0.4,1.2,0.7
	c0.6,0.5,0.9,0.8,0.9,0.9c0,0.3-0.4,0.6-1,1v2.3c0,0.6,0.3,0.9,0.7,0.9c0,0.1,0,0.1,0.1,0.1c0.6-0.1,0.9-0.2,0.9-0.4
	c0.3-0.3,0.5-1,0.6-2.1c0,0.1,0.2,0.1,0.5,0.1c0,0.4,0,0.9,0,1.4c0,0.3,0.1,0.5,0.3,0.6c0.4,0.2,0.6,0.4,0.6,0.8
	c0,0.3-0.1,0.5-0.2,0.7c-0.3,0.5-0.7,0.8-1.5,0.9c-0.3,0.1-0.6,0.1-1,0.1c-0.4,0-0.6,0-0.9-0.1c-1.4,0-2.2-0.8-2.3-2.3v-3.8H303
	c-0.2,1.1-0.4,1.8-0.6,2.2c0,0.1-0.1,0.1-0.1,0.1c1.4,0.6,2.1,1.3,2.1,2.1c0,0.2-0.1,0.4-0.1,0.6c-0.1,0.3-0.3,0.5-0.8,0.5
	c-0.3,0-0.8-0.4-1.5-1.1c-0.3-0.2-0.5-0.4-0.7-0.6c-0.8,0.8-1.7,1.4-2.9,1.8c2.4,0.4,3.6,0.8,3.6,1s-0.2,0.3-0.5,0.5
	c-0.5,0.3-0.8,0.4-0.8,0.5v0.3h5.8c0.8-1,1.3-1.5,1.6-1.7c0.1,0,0.1,0,0.2,0C308.4,105.6,308.6,105.7,308.8,105.9z M292.4,95.1
	c-1.2,1.5-2.6,2.7-4.2,3.5c-0.2-0.1-0.3-0.2-0.4-0.3c1.7-1.7,3-3.9,3.7-6.5c2.1,0.7,3.2,1.1,3.2,1.3c0,0.3-0.4,0.5-1.3,0.6
	c-0.2,0.3-0.4,0.5-0.5,0.8h3.3c0.7-0.9,1.1-1.4,1.4-1.6c0.1,0,0.1-0.1,0.2-0.1c0.2,0.1,0.5,0.3,1,0.7c0.6,0.6,1,1,1.1,1.2
	c0,0.3-0.1,0.4-0.2,0.4h-5.5c1.3,0.4,1.9,1,1.9,1.9c0,0.7-0.4,1.1-1.1,1.1c-0.5,0-0.7-0.3-0.8-0.8c-0.1-0.1-0.1-0.4-0.1-0.7
	c0-0.2-0.1-0.5-0.2-0.7c-0.2-0.4-0.3-0.6-0.5-0.8H292.4z M291.6,99.7c-1.1,0-1.9,0.1-2.4,0.2c-0.1-0.3-0.2-0.6-0.4-1
	c0.5,0.1,1.5,0.2,2.8,0.2h3.5c0.3-0.5,0.7-0.9,1-1.2c0.1-0.1,0.2-0.2,0.3-0.2s0.2,0.1,0.4,0.2c0.8,0.7,1.3,1.2,1.4,1.4
	c0,0.2-0.1,0.3-0.2,0.3h-3.6v3.2c1.3-0.1,2.5-0.3,3.4-0.5c0,0,0.1,0.1,0.1,0.2c-1.9,1-4.6,1.9-8.1,2.6c0,0.4-0.1,0.6-0.2,0.6
	s-0.3-0.2-0.5-0.6s-0.5-1-0.9-1.9c1.4-0.1,2.7-0.1,4-0.2v-3.4L291.6,99.7L291.6,99.7z"/>
<path class="st3" d="M65,75.6h268.9"/>
<path class="st3" d="M65,127.6h268.9"/>
</svg>
