<svg width="460" height="80" viewBox="0 0 460 80" fill="none" xmlns="http://www.w3.org/2000/svg">
<g clip-path="url(#clip0_515_232465)">
<path d="M460 80V0L0 0V80L460 80Z" fill="url(#paint0_linear_515_232465)"/>
<path d="M348.75 31.1699V49.0799" stroke="#703E1E" stroke-width="0.25" stroke-miterlimit="10"/>
<path d="M25 38.6805C26.48 37.0205 28.04 34.0605 29.02 31.0005L31.26 31.8605C31.18 32.0605 31.01 32.1905 30.52 32.1505C30.09 33.0505 29.6 33.9205 29.08 34.7205L29.59 34.9105C29.53 35.0905 29.34 35.2005 29 35.2605V42.3405C29 42.3405 28.77 42.8105 27.5 42.8105V36.8205C26.8 37.6205 26.04 38.3205 25.26 38.8905L25.01 38.6805H25ZM28.47 44.1205C28.57 44.5305 28.61 44.9005 28.61 45.2305C28.61 47.2005 27.24 48.2505 26.13 48.2505C25.58 48.2505 25.21 48.0005 25.21 47.5705C25.21 47.1805 25.52 46.8705 25.91 46.6905C26.9 46.3805 28.06 45.4605 28.15 44.1205H28.46H28.47ZM38.2 45.3105L38.18 47.4405C38.84 47.6505 38.94 47.7105 38.94 47.9505C38.94 48.5505 38.37 48.8705 36.48 48.8705H32.44C30.57 48.8705 30.2 48.5805 30.2 47.1505V43.8405L32.36 44.0205C32.32 44.2305 32.22 44.3505 31.74 44.4105V47.1805C31.74 47.4671 32 47.6105 32.52 47.6105H36.5C36.97 47.6105 37.12 47.6105 37.3 47.3605C37.46 47.1105 37.71 46.3705 38.02 45.3305H38.2V45.3105ZM32.1 40.2805C32.1 40.2805 31.87 40.7105 30.66 40.7105V33.7105L32.82 33.8905C32.8 34.1405 32.64 34.2605 32.1 34.3205V40.2905V40.2805ZM43.31 33.7705C43.17 34.0605 42.92 34.1405 42.39 34.1405H41.49C40.89 36.1105 39.95 37.7305 38.64 39.0505C39.89 40.0105 41.47 40.7505 43.44 41.2505L43.4 41.4605C42.74 41.6405 42.33 42.0605 42.17 42.8305C40.24 42.1105 38.8 41.1105 37.69 39.8705C35.99 41.2005 33.77 42.1505 30.9 42.7605L30.8 42.4705C33.47 41.6905 35.5 40.5605 36.98 39.0205C36.18 37.9105 35.6 36.6405 35.11 35.2205C34.41 36.1805 33.61 36.9605 32.75 37.5205L32.5 37.3405C33.65 35.9705 34.7 33.5805 35.27 30.9805L37.55 31.6805C37.45 31.8905 37.3 32.0105 36.81 32.0105C36.58 32.6105 36.32 33.1805 36.03 33.7105H40.5L41.48 32.4805L43.31 33.7705ZM31.94 42.5605C35 42.7005 36 43.9205 36 44.7605C36 45.2305 35.69 45.5805 35.28 45.5805C35.1 45.5805 34.93 45.5405 34.75 45.4205C34.26 44.4105 32.96 43.3105 31.86 42.7705L31.94 42.5605ZM35.8 34.1405C35.68 34.3505 35.55 34.5705 35.41 34.7805C35.98 36.0905 36.72 37.2405 37.69 38.2105C38.59 37.0605 39.25 35.7105 39.66 34.1305H35.8V34.1405ZM38.63 43.8305C42.12 44.5505 43.23 46.1505 43.23 47.2205C43.23 47.8405 42.86 48.2705 42.39 48.2705C42.19 48.2705 41.96 48.2105 41.75 48.0405C41.36 46.5805 39.9 44.9005 38.51 44.0005L38.63 43.8205V43.8305Z" fill="white"/>
<path d="M64.08 46.1495L65.84 47.4395C65.68 47.7095 65.45 47.8295 64.92 47.8295H58.23V48.6695C58.23 48.8095 57.74 49.1795 56.98 49.1795H56.71V38.3795C56.18 39.2595 55.58 40.0395 54.96 40.6795L54.69 40.4995C54.94 40.0895 55.18 39.6195 55.41 39.1195H53.87V47.0995C53.87 48.2295 53.58 49.0095 51.67 49.1895C51.67 47.8995 50.95 47.7895 49.62 47.6695V47.3995H52.04C52.31 47.3995 52.41 47.3195 52.41 47.1095V41.5095C51.18 43.5995 49.47 45.4295 47.4 46.8695L47.15 46.5795C49.2 44.5895 50.84 41.8195 51.77 39.1295H47.38L47.26 38.6995H48.9V33.1795H47.63L47.51 32.7495H53.4L54.34 31.4995L56.08 32.8095C55.92 33.0795 55.69 33.1795 55.16 33.1795H53.87V38.6995H53.89L54.73 37.4895L55.76 38.3095C56.6 36.2395 57.28 33.6095 57.69 31.0195L60.03 31.5895C59.97 31.8195 59.84 31.9595 59.33 31.9795C59.02 33.1495 58.65 34.2595 58.24 35.3095L58.49 35.4295H60.5C60.79 34.1795 61.08 32.5195 61.22 31.3295L63.66 31.8595C63.6 32.0895 63.41 32.1895 62.94 32.1895C62.49 33.1295 61.75 34.3895 61.03 35.4295H62.82L63.74 34.2395L65.46 35.4695C65.3 35.7395 65.07 35.8595 64.54 35.8595H61.77V39.3095H62.75L63.57 38.1595L65.13 39.3495C64.97 39.6395 64.74 39.7395 64.21 39.7395H61.77V43.2895H62.75L63.59 42.1195L65.17 43.3295C65.01 43.6195 64.76 43.7195 64.25 43.7195H61.77V47.4095H63.15L64.09 46.1795L64.08 46.1495ZM50.29 38.6795H52.4V33.1595H50.29V38.6795ZM60.27 35.8295H58.22V39.2795H60.27V35.8295ZM60.27 43.2595V39.7095H58.22V43.2595H60.27ZM58.22 43.6895V47.3795H60.27V43.6895H58.22Z" fill="white"/>
<path d="M87.92 44.2003L87.55 47.5003C87.8 48.0503 87.94 48.4403 87.94 48.7103C87.94 49.0803 87.63 49.1803 87.35 49.1803C86.8 49.1803 86.18 48.7103 85.81 48.1103C84.02 45.6703 83.88 40.6003 83.92 32.9603H73.39V37.1303C73.39 40.7603 73.14 45.6903 69.76 49.1403L69.47 48.9603C71.6 45.4103 71.83 41.0803 71.83 37.1403V31.8003L73.66 32.5203H83.68L84.44 31.5303L86.37 33.0703C86.23 33.2103 85.96 33.3603 85.51 33.4403C85.47 34.7503 85.45 36.0503 85.45 37.3003C85.45 41.5503 85.74 45.1403 86.72 46.5003C86.8 46.6003 86.86 46.6603 86.9 46.6603C87.06 46.6603 87.66 44.4803 87.74 44.1603L87.92 44.2003ZM81.89 45.9403C81.52 45.2803 81.07 44.6503 80.64 44.1903L80.82 44.0503C83.26 45.1203 84.04 46.4503 84.04 47.3503C84.04 47.9403 83.69 48.3303 83.28 48.3303C83.09 48.3303 82.87 48.2303 82.66 48.0203C82.6 47.5303 82.41 46.9703 82.13 46.4003C80.37 46.8103 78 47.2803 74.74 47.8603C74.62 48.1103 74.43 48.2503 74.23 48.2703L73.25 46.3403C74.23 46.3203 75.88 46.2603 77.85 46.1603V42.8103H75.86V43.5503C75.86 43.5503 75.66 44.0003 74.55 44.0003V37.4303L75.95 38.0503H77.84V35.8903C76.48 36.0703 75.07 36.1803 73.73 36.2403L73.65 35.9103C76.4 35.4403 79.83 34.5103 81.61 33.7603L83.19 35.2603C83.09 35.3403 82.96 35.3803 82.78 35.3803C82.6 35.3803 82.39 35.3403 82.16 35.2203C81.34 35.3803 80.35 35.5503 79.27 35.7103V38.0503H81.16L81.71 37.3703L83.27 38.4603C83.19 38.5803 82.94 38.7103 82.65 38.7503V43.1603C82.65 43.2203 82.24 43.5903 81.32 43.5903V42.8103H79.27V46.0903L81.88 45.9503L81.89 45.9403ZM75.86 42.3503H77.85V38.4903H75.86V42.3503ZM81.32 38.4903H79.27V42.3503H81.32V38.4903Z" fill="white"/>
<path d="M96.47 36.0798V38.3998C98.56 39.1998 99.2 40.2098 99.2 40.9198C99.2 41.4298 98.87 41.7798 98.48 41.7798C98.28 41.7798 98.07 41.6798 97.88 41.4898C97.7 40.6498 97.08 39.5198 96.48 38.7798V48.6298C96.48 48.6898 96.29 49.1798 94.94 49.1798V40.2498C94.2 41.8498 93.2 43.3098 91.98 44.5998L91.71 44.3298C93.23 42.0498 94.19 39.0598 94.71 36.0998H91.98L91.86 35.6498H94.94V31.0098L97.3 31.2198C97.28 31.4898 97.11 31.6498 96.48 31.7098V35.6498H97.05L97.89 34.3998L99.49 35.7098C99.33 35.9798 99.1 36.0998 98.59 36.0998H96.48L96.47 36.0798ZM107.35 32.5298L109.03 34.0498C108.89 34.2298 108.68 34.2798 108.21 34.3198C107.47 35.8598 106.47 37.2998 105.21 38.5898C106.59 39.4498 108.31 40.0898 110.38 40.4998L110.34 40.7098C109.7 40.8998 109.29 41.3498 109.13 42.1098C107.08 41.4698 105.52 40.5698 104.27 39.4598C103.16 40.4398 101.89 41.2898 100.43 42.0098L101.7 42.5398H106.69L107.35 41.6398L109.26 42.9898C109.12 43.1498 108.81 43.2998 108.42 43.3798V48.6498C108.42 48.7098 107.95 49.1198 106.88 49.1198V47.9098H101.46V48.6498C101.46 48.7698 100.97 49.1798 100.23 49.1798H99.98V42.2398C99.38 42.5298 98.75 42.7898 98.09 43.0198L97.95 42.7098C100.11 41.6798 101.97 40.2698 103.45 38.6298C102.59 37.6898 101.93 36.5998 101.38 35.3898C100.6 36.5198 99.68 37.4998 98.67 38.2198L98.4 38.0098C99.88 36.3498 101.09 33.4898 101.68 30.7598L103.96 31.3598C103.88 31.5898 103.69 31.7098 103.28 31.6698C103.07 32.2698 102.81 32.8998 102.5 33.4998H106.34L107.35 32.5198V32.5298ZM106.88 42.9798H101.46V47.4798H106.88V42.9798ZM102.28 33.9298C102.09 34.2798 101.89 34.6298 101.68 34.9598C102.3 36.0498 103.1 37.0098 104.12 37.8298C105.08 36.6198 105.84 35.2898 106.4 33.9298H102.29H102.28Z" fill="white"/>
<path d="M114.62 49.34C115.3 48.99 115.83 48.35 116 47.45C115.9 47.47 115.81 47.49 115.69 47.49C114.99 47.49 114.36 46.9 114.36 46.11C114.36 45.32 115.02 44.71 115.72 44.71C116.54 44.71 117.24 45.35 117.24 46.39C117.24 47.74 116.32 49.26 114.94 49.76L114.61 49.35L114.62 49.34Z" fill="white"/>
<path d="M144.69 42.6898C144.55 42.9398 144.32 43.0598 143.75 43.0598H136.92C138.71 44.9498 142.03 46.3998 144.93 46.9798L144.91 47.2098C144.27 47.3298 143.74 47.8298 143.56 48.6098C140.6 47.5998 137.98 45.6498 136.42 43.0498V48.6698C136.42 48.6698 136.17 49.1398 134.78 49.1398V43.7798C132.85 45.9398 129.9 47.5798 126.51 48.6398L126.35 48.3098C129.16 47.0598 131.6 45.0898 133.12 43.0598H126.68L126.56 42.6298H134.77V40.7598L137.21 40.9698C137.17 41.2398 137.01 41.3998 136.41 41.4598V42.6298H141.62L142.67 41.2798L144.66 42.6798L144.69 42.6898ZM132.72 34.8498C132.66 34.9898 132.53 35.0598 132.27 35.0598C132.19 35.0598 132.11 35.0598 132.04 35.0398C131.24 36.1898 129.8 37.9498 128.63 39.2898C129.33 39.2298 130.13 39.1498 130.95 39.0598C130.77 38.5898 130.54 38.1198 130.31 37.7698L130.5 37.6498C132.12 38.4498 132.66 39.3898 132.66 40.0498C132.66 40.6198 132.29 40.9898 131.88 40.9898C131.67 40.9898 131.45 40.8898 131.26 40.6598C131.26 40.3098 131.2 39.8998 131.08 39.4898C130.36 39.8198 129.36 40.2498 128.08 40.7598C127.98 41.0098 127.83 41.1298 127.63 41.1898L126.73 39.4498L128.1 39.3498C129.02 37.7298 130.23 35.3098 130.87 33.8498L132.72 34.8398V34.8498ZM126.95 34.1498C127.52 34.2298 127.96 34.3598 128.33 34.5198C128.72 33.4298 129.15 31.9798 129.38 31.0898L131.35 31.9298C131.29 32.1198 131.1 32.2198 130.71 32.1798C130.24 32.8598 129.42 33.8998 128.74 34.7198C129.36 35.0898 129.62 35.5398 129.62 35.9298C129.62 36.3998 129.27 36.7698 128.86 36.7698C128.66 36.7698 128.45 36.6898 128.26 36.4998C128.16 35.7198 127.5 34.7998 126.84 34.3398L126.96 34.1598L126.95 34.1498ZM134.13 39.8398V40.4298C134.13 40.4298 133.97 40.9198 132.78 40.9198V32.6298L134.22 33.2698H134.65C134.75 32.6298 134.84 31.6698 134.9 31.0098L137.1 31.3598C137.06 31.6298 136.87 31.7698 136.4 31.7898C136.11 32.2198 135.66 32.8198 135.29 33.2698H136.89L137.51 32.4698L139.23 33.6798C139.09 33.8398 138.82 33.9698 138.47 34.0498V40.2498C138.47 40.3098 138.06 40.6798 137.09 40.6798V39.8398H134.13ZM137.09 33.6998H134.13V36.2898H137.09V33.6998ZM134.13 39.3898H137.09V36.7198H134.13V39.3898ZM141.03 36.5598C140.89 36.6598 140.74 36.7198 140.56 36.7198C140.38 36.7198 140.17 36.6398 139.98 36.4698C139.86 35.6898 139.24 34.7898 138.58 34.3298L138.7 34.1498C139.15 34.2098 139.52 34.3098 139.83 34.4198C140.24 33.3698 140.75 31.9798 141.02 31.0898L143.01 31.9698C142.93 32.1498 142.76 32.2598 142.33 32.2198C141.84 32.8398 140.98 33.7998 140.26 34.5998C141.14 35.0098 141.37 35.5898 141.31 36.0398H141.33C141.76 35.2398 142.17 34.4598 142.46 33.8598L144.29 34.8498C144.23 34.9898 144.08 35.1398 143.61 35.0598C142.73 36.2298 141.17 37.9998 139.87 39.3498C140.65 39.2898 141.63 39.1698 142.62 39.0798C142.39 38.5698 142.09 38.0898 141.82 37.7298L142.01 37.5898C143.9 38.4298 144.51 39.4598 144.51 40.1798C144.51 40.7298 144.16 41.1198 143.75 41.1198C143.55 41.1198 143.32 41.0198 143.13 40.7898C143.09 40.3998 142.97 39.9498 142.8 39.4998C142.12 39.8298 141.18 40.2398 139.95 40.7498C139.87 40.9998 139.7 41.1198 139.5 41.1798L138.6 39.4398C138.8 39.4398 139.07 39.4198 139.36 39.3798C139.87 38.5598 140.49 37.5498 141.06 36.5498H141.04L141.03 36.5598Z" fill="white"/>
<path d="M148.88 36.3202C151.38 36.5302 152.18 37.5102 152.18 38.2702C152.18 38.7802 151.83 39.1702 151.38 39.1702C151.18 39.1702 150.97 39.0902 150.78 38.9402C150.49 38.0602 149.63 37.0502 148.79 36.5202L148.89 36.3302L148.88 36.3202ZM150.03 43.6302C150.28 43.6302 150.34 43.6302 150.56 43.2202C150.74 42.9302 150.95 42.5002 154.6 34.3902L154.95 34.4902C154.07 36.9902 152.43 41.6502 152.14 42.6402C151.98 43.2302 151.83 43.8302 151.83 44.3202V44.4202C151.85 45.2802 152.4 46.0802 152.4 47.5202C152.4 47.9302 152.4 49.2402 151.15 49.2402C150.76 49.2402 150.47 48.9102 150.39 48.2502C150.51 47.4902 150.57 46.7702 150.57 46.1802C150.57 44.3102 150.16 44.1502 149.15 44.0502V43.6402C149.83 43.6402 150.05 43.6202 150.05 43.6202V43.6402L150.03 43.6302ZM149.76 31.2702C152.35 31.5402 153.19 32.6002 153.19 33.3802C153.19 33.9102 152.82 34.3202 152.35 34.3202C152.16 34.3202 151.96 34.2402 151.75 34.0902C151.44 33.1502 150.52 32.0602 149.66 31.4602L149.76 31.2802V31.2702ZM165.2 36.1302L167.11 37.5502C166.95 37.8202 166.72 37.9402 166.17 37.9402H161.22V41.9602H163.54L164.24 41.0602L166.15 42.4202C166.01 42.5802 165.72 42.7302 165.31 42.8102V48.5202C165.31 48.5802 164.9 49.0302 163.73 49.0302V47.7402H157.04V48.6202C157.04 48.6202 156.81 49.1702 155.5 49.1702V41.2502L157.16 41.9502H159.6V37.9302H154.08L153.96 37.4802H159.6V33.4202C157.92 33.6302 156.17 33.8102 154.51 33.8902L154.43 33.5602C157.78 33.0102 161.94 31.8402 164.08 30.9102L165.82 32.5502C165.72 32.6302 165.59 32.6902 165.39 32.6902C165.21 32.6902 165 32.6302 164.73 32.5302C163.74 32.7402 162.53 32.9802 161.22 33.1902V37.4802H164.18L165.19 36.1102L165.2 36.1302ZM163.74 42.4102H157.05V47.3202H163.74V42.4102Z" fill="white"/>
<path d="M174.18 30.57C174.85 30.19 175.71 30 176.75 30C177.49 30 178.19 30.09 178.85 30.26C179.51 30.43 180.09 30.69 180.58 31.03C181.07 31.37 181.46 31.81 181.75 32.34C182.03 32.87 182.18 33.51 182.18 34.25C182.18 34.93 182.06 35.54 181.81 36.08C181.56 36.62 181.26 37.09 180.89 37.47C180.52 37.86 180.11 38.18 179.65 38.42C179.19 38.67 178.76 38.85 178.34 38.96V39.13C178.83 39.17 179.35 39.26 179.9 39.4C180.45 39.54 180.96 39.78 181.44 40.11C181.91 40.44 182.31 40.88 182.62 41.43C182.93 41.98 183.09 42.68 183.09 43.53C183.09 44.38 182.91 45.2 182.56 45.93C182.21 46.66 181.72 47.29 181.08 47.82C180.44 48.35 179.68 48.76 178.79 49.04C177.9 49.32 176.91 49.47 175.83 49.47C174.84 49.47 174.01 49.38 173.33 49.2C172.65 49.02 172.05 48.81 171.54 48.56C171.62 48.41 171.69 48.16 171.75 47.81C171.82 47.46 171.86 47.14 171.88 46.86L172.05 46.75C172.22 46.94 172.43 47.15 172.68 47.38C172.93 47.61 173.22 47.82 173.55 48.01C173.88 48.2 174.24 48.36 174.63 48.48C175.02 48.6 175.44 48.66 175.9 48.66C176.62 48.66 177.26 48.55 177.82 48.32C178.38 48.09 178.86 47.77 179.26 47.35C179.66 46.93 179.96 46.43 180.17 45.84C180.38 45.25 180.48 44.61 180.48 43.91C180.48 43.13 180.38 42.47 180.18 41.93C179.98 41.39 179.71 40.95 179.36 40.62C179.01 40.29 178.59 40.05 178.09 39.89C177.6 39.74 177.06 39.66 176.47 39.66C176.26 39.66 176.04 39.68 175.8 39.72C175.56 39.76 175.36 39.8 175.19 39.83C175.21 39.74 175.22 39.64 175.23 39.53C175.23 39.43 175.24 39.33 175.24 39.23C175.24 39.13 175.24 39.04 175.23 38.93C175.23 38.83 175.21 38.73 175.19 38.63C175.57 38.71 176 38.74 176.47 38.74C177.13 38.74 177.67 38.6 178.09 38.33C178.51 38.06 178.83 37.7 179.07 37.28C179.31 36.85 179.47 36.38 179.55 35.87C179.64 35.36 179.68 34.87 179.68 34.39C179.68 33.78 179.59 33.26 179.41 32.81C179.23 32.36 179 32 178.71 31.71C178.43 31.43 178.1 31.22 177.74 31.08C177.38 30.95 177.01 30.88 176.63 30.88C175.83 30.88 175.16 31.11 174.6 31.58C174.04 32.04 173.66 32.57 173.45 33.16L173.25 33.22L172.6 31.68C172.98 31.3 173.51 30.92 174.18 30.54V30.57Z" fill="white"/>
<path d="M203.12 40.9798L204.08 39.7698L205.85 41.0398C205.71 41.3098 205.46 41.4098 204.93 41.4098H197.42C197.32 42.1298 197.19 42.8698 196.95 43.5898H201.77L202.49 42.7498L204.25 44.0798C204.13 44.2198 203.88 44.3098 203.51 44.3698C203.32 46.6098 202.92 48.1698 202.18 48.6798C201.65 49.0098 201.05 49.1498 200.05 49.1498C200.05 48.2298 199.84 47.9798 197.91 47.7298L197.93 47.3998C198.65 47.4398 200.06 47.4798 200.48 47.4998C200.81 47.4998 200.99 47.4798 201.14 47.3598C201.49 47.0898 201.74 45.8598 201.94 44.0498H196.77C196.01 45.9598 194.35 47.7698 190.61 49.1998L190.38 48.9098C194.87 46.5698 195.47 43.8598 195.63 41.4198H191.59C191.3 43.9698 190.46 46.7798 188.08 48.8698L187.83 48.6598C189.94 45.5398 190.19 41.7198 190.19 38.3598V34.1098L192.02 34.8498H202.18L202.86 33.9898L204.71 35.2998C204.59 35.4398 204.3 35.6098 203.95 35.6698V38.8298C203.95 38.8898 203.48 39.2598 202.37 39.2598V38.5198H191.74C191.74 39.2798 191.72 40.1198 191.64 40.9998H196.89V38.6398L199.11 38.8398C199.07 39.0898 198.92 39.1898 198.43 39.2698V41.0098H203.11L203.12 40.9798ZM205.87 32.3798C205.73 32.6298 205.5 32.7498 204.95 32.7498H188.41L188.29 32.3198H203.01L203.99 31.0498L205.86 32.3798H205.87ZM202.38 35.2898H191.75V38.0598H202.38V35.2898Z" fill="white"/>
<path d="M364.63 35.7504L365.7 36.4904C365.63 36.6304 365.51 36.6903 365.21 36.6903H361.4V40.4004C361.4 40.4604 361.13 40.6604 360.7 40.6604H360.56V36.6804H356.34L356.28 36.4504H360.56V32.3004H356.94L356.88 32.0804H363.55L364.13 31.3604L365.2 32.1004C365.12 32.2504 365 32.3004 364.7 32.3004H361.4V36.4504H364.06L364.63 35.7404V35.7504ZM357.78 32.9104C358.94 33.7104 359.32 34.5504 359.32 35.1304C359.32 35.5704 359.09 35.8804 358.82 35.8804C358.7 35.8804 358.58 35.8104 358.46 35.6804C358.48 34.8304 358.09 33.6804 357.65 32.9904L357.78 32.9204V32.9104ZM364.7 33.2004C364.66 33.3204 364.57 33.3804 364.32 33.3704C363.81 34.3404 363.17 35.3404 362.54 36.0004L362.39 35.9204C362.74 35.1604 363.19 33.9104 363.49 32.7804L364.7 33.1904V33.2004Z" fill="#703E1E"/>
<path d="M377.28 32.1602C377.2 32.3002 377.08 32.3602 376.79 32.3602H373.07C372.74 32.9902 372.29 33.7502 371.94 34.2502H375.47L375.86 33.7402L376.83 34.4802C376.76 34.5602 376.64 34.6202 376.41 34.6602V40.3102C376.41 40.3602 376.11 40.5502 375.71 40.5502H375.57V39.9102H369.47V40.3902C369.47 40.4502 369.22 40.6502 368.8 40.6502H368.66V33.8702L369.59 34.2402H371.63C371.72 33.7302 371.84 32.9502 371.92 32.3502H367.91L367.85 32.1302H375.64L376.2 31.4102L377.27 32.1502L377.28 32.1602ZM369.47 34.4802V39.7002H370.97V34.4802H369.47ZM373.28 36.0402V34.4802H371.73V36.0402H373.28ZM373.28 37.8402V36.2602H371.73V37.8402H373.28ZM371.73 38.0702V39.7002H373.28V38.0702H371.73ZM375.56 34.4802H374.04V39.7002H375.56V34.4802Z" fill="#703E1E"/>
<path d="M383 31.9701L383.49 31.3301L384.38 32.0001C384.3 32.1401 384.18 32.1901 383.9 32.1901H382.64V34.0001H382.98L383.32 33.5701L384.22 34.2301C384.16 34.3101 384 34.3901 383.81 34.4301V40.0601C383.81 40.0601 383.61 40.3101 383.08 40.3101V39.7001H380.45V40.3801C380.45 40.3801 380.37 40.6601 379.75 40.6601V33.6501L380.51 33.9901H380.86V32.1801H379.37L379.31 31.9601H382.99L383 31.9701ZM383.08 36.6101C382.99 36.6301 382.88 36.6401 382.74 36.6401C382.05 36.6401 382.01 36.6401 382.01 35.8601V34.2301H381.47V34.6101C381.47 35.3201 381.41 36.4101 380.51 37.1601L380.45 37.1001V37.7701H383.08V36.6101ZM380.95 34.2301H380.45V36.9101C380.93 36.1401 380.95 35.2701 380.95 34.6001V34.2301ZM380.45 39.4801H383.08V37.9901H380.45V39.4801ZM382.01 34.0001V32.1901H381.47V34.0001H382.01ZM383.08 34.2301H382.54V36.0601C382.54 36.1267 382.55 36.1601 382.57 36.1601C382.75 36.1601 382.81 36.1601 382.95 35.9101H383.02L383.07 36.1501V34.2301H383.08ZM388.48 38.0601L388.46 39.5801C388.8 39.7001 388.86 39.7301 388.86 39.8501C388.86 40.1601 388.57 40.3501 387.64 40.3501H385.72C384.79 40.3501 384.6 40.1701 384.6 39.3401V35.1501L385.5 35.5201H387.43V32.2401H384.53L384.46 32.0201H387.31L387.67 31.5301L388.68 32.2701C388.61 32.3601 388.42 32.4501 388.18 32.4901V36.0701C388.18 36.0701 387.94 36.3001 387.42 36.3001V35.7301H385.37V39.3301C385.37 39.6201 385.38 39.6401 385.74 39.6401H387.57C387.76 39.6401 387.87 39.6401 387.96 39.4801C388.05 39.3201 388.19 38.8401 388.36 38.0401H388.46L388.48 38.0601Z" fill="#703E1E"/>
<path d="M399.39 33.9101L400.34 34.5201C400.26 34.6601 400.14 34.7201 399.85 34.7201H395.97C395.92 35.0301 395.86 35.3501 395.82 35.6001H397.94L398.29 35.1301L399.27 35.8301C399.2 35.9101 399.05 35.9901 398.83 36.0301V39.1301C398.83 39.1301 398.6 39.3901 398.03 39.3901V38.9901H394.26V39.1701C394.26 39.1701 394.16 39.4601 393.47 39.4601V35.2201L394.33 35.5901H395.17C395.18 35.3501 395.2 35.0301 395.22 34.7101H390.98L390.92 34.4801H395.23L395.26 33.5801H392.53V33.7701C392.53 33.7701 392.4 34.0401 391.73 34.0401V31.4301L392.6 31.7901H398.59L398.93 31.3301L399.92 32.0201C399.85 32.1001 399.69 32.1801 399.48 32.2301V33.7501C399.48 33.7501 399.24 33.9701 398.68 33.9701V33.5701H396.13L396.45 33.6001C396.43 33.7501 396.34 33.8301 396.09 33.8601C396.06 34.0401 396.03 34.2501 395.99 34.4701H398.88L399.37 33.8901L399.39 33.9101ZM398.78 39.8201L399.3 39.1501L400.27 39.8401C400.19 39.9801 400.07 40.0401 399.77 40.0401H392.41V40.4001C392.41 40.4001 392.28 40.6401 391.62 40.6401V35.5201L392.78 35.6201C392.77 35.7501 392.69 35.8201 392.41 35.8501V39.8101H398.78V39.8201ZM392.54 32.0301V33.3601H394.06V32.0301H392.54ZM398.04 35.8201H394.27V36.6401H398.04V35.8201ZM394.27 36.8601V37.6901H398.04V36.8601H394.27ZM394.27 38.7601H398.04V37.9101H394.27V38.7601ZM396.37 32.0201H394.8V33.3501H396.37V32.0201ZM398.7 32.0201H397.12V33.3501H398.7V32.0201Z" fill="#703E1E"/>
<path d="M410.81 34.7699C410.69 34.5599 410.54 34.3699 410.39 34.2199L410.47 34.1399C411.43 34.4099 411.73 34.8599 411.73 35.1999C411.73 35.4399 411.57 35.6299 411.37 35.6299C411.28 35.6299 411.18 35.5899 411.09 35.4999C411.07 35.3499 411.01 35.1699 410.93 34.9899C410.45 35.1099 409.81 35.2499 408.94 35.4299C408.92 35.4699 408.9 35.4999 408.87 35.5299C409.77 36.0699 410.85 36.4899 412 36.7499L411.98 36.8999C411.64 37.0099 411.43 37.2999 411.35 37.6099C409.56 36.9399 408.09 35.8699 407.27 34.5099C406.35 35.7299 404.54 37.1099 402.4 37.7999L402.34 37.6499C403.51 37.0999 404.63 36.2899 405.46 35.4299C405.42 35.3999 405.37 35.3699 405.33 35.3199C405.33 35.2199 405.29 35.1199 405.25 35.0099C404.76 35.1299 404.09 35.2899 403.21 35.4999C403.15 35.6299 403.06 35.6899 402.96 35.6999L402.58 34.8699C402.78 34.8699 403.08 34.8699 403.43 34.8599C403.64 34.4199 403.86 33.8699 403.99 33.4199L403.79 33.4399C403.72 33.5599 403.62 33.6299 403.52 33.6499L403.01 32.6899C403.57 32.6999 404.33 32.6999 404.98 32.6899C405.22 32.2099 405.47 31.6399 405.62 31.1699L406.78 31.6199C406.74 31.6999 406.67 31.7399 406.54 31.7399C406.5 31.7399 406.45 31.7399 406.4 31.7299C406.16 32.0199 405.79 32.3799 405.42 32.6799C406.55 32.6799 407.9 32.6499 409.33 32.6199C408.87 32.3299 408.39 32.0699 407.96 31.9099L407.98 31.7699C410.28 31.9099 411.04 32.7799 411.04 33.2799C411.04 33.4899 410.91 33.6299 410.71 33.6299C410.65 33.6299 410.58 33.6199 410.51 33.5899C410.32 33.3499 410.03 33.0999 409.7 32.8599C408.36 33.0199 406.58 33.1899 404.17 33.4099L405.04 33.6899C405 33.7999 404.89 33.8299 404.67 33.8099C404.46 34.1299 404.13 34.5199 403.79 34.8399C404.21 34.8399 404.7 34.8099 405.19 34.7899C405.09 34.5899 404.96 34.3999 404.83 34.2599L404.91 34.1699C405.57 34.3699 405.87 34.6499 405.97 34.8899C406.25 34.5499 406.48 34.1999 406.65 33.8699L407.91 34.1899C407.88 34.3199 407.77 34.3699 407.48 34.3899C407.77 34.6999 408.14 35.0099 408.54 35.2799L408.28 34.7899H408.88C409.07 34.3199 409.27 33.7499 409.4 33.2999L410.44 33.6299C410.4 33.7299 410.29 33.7699 410.07 33.7499C409.86 34.0599 409.55 34.4499 409.24 34.7699L410.86 34.7399L410.81 34.7699ZM410.63 38.4199C410.58 38.4699 410.52 38.4999 410.42 38.4999C410.36 38.4999 410.28 38.4899 410.19 38.4599C408.15 40.0699 406.06 40.4899 403.5 40.6699L403.46 40.4799C405.85 40.1099 407.9 39.5299 409.68 37.7699L410.63 38.4299V38.4199ZM408.05 36.3299C408.01 36.3899 407.95 36.4199 407.85 36.4199C407.8 36.4199 407.74 36.4099 407.66 36.3899C406.56 37.2999 405.16 37.9499 403.74 38.3499L403.64 38.1699C404.91 37.6299 406.2 36.8299 407.16 35.7599L408.05 36.3299ZM409.31 37.3299C409.27 37.3899 409.21 37.4199 409.12 37.4199C409.07 37.4199 409 37.3999 408.91 37.3799C407.46 38.4699 405.78 39.0599 403.99 39.3899L403.92 39.2099C405.56 38.7199 407.15 37.9899 408.42 36.7299L409.31 37.3299Z" fill="#703E1E"/>
<path d="M422.4 33.8002L423.39 34.5102C423.32 34.6502 423.2 34.7102 422.9 34.7102H419.74C419.05 35.1902 418.29 35.6402 417.49 36.0702L417.41 36.4102C418.81 36.1702 420.43 35.7802 421.33 35.4602L422.11 36.2402C422.11 36.2402 422.01 36.3002 421.93 36.3002C421.83 36.3002 421.71 36.2702 421.58 36.2102C420.48 36.4002 418.84 36.5802 417.37 36.6502C417.3 36.9502 417.22 37.3002 417.14 37.6202H421L421.36 37.1802L422.27 37.8802C422.2 37.9502 422.07 38.0102 421.87 38.0302C421.68 39.1802 421.32 40.1102 420.87 40.4202C420.57 40.5902 420.21 40.6602 419.69 40.6602C419.71 40.2002 419.54 40.0502 418.45 39.9002V39.7402C418.91 39.7702 419.74 39.7902 420 39.8002C420.19 39.8002 420.3 39.7902 420.4 39.7302C420.65 39.5502 420.91 38.8102 421.07 37.8502H417.08L416.91 38.5402C416.8 38.5902 416.68 38.6202 416.53 38.6202C416.4 38.6202 416.24 38.6002 416.03 38.5402C416.2 37.9402 416.39 37.2002 416.56 36.5402C415.72 36.9302 414.85 37.2802 413.95 37.5502L413.89 37.3902C414.84 37.0002 415.79 36.5102 416.69 35.9702C416.74 35.7602 416.79 35.5602 416.82 35.3902L417.32 35.5802C417.77 35.3102 418.19 35.0102 418.6 34.7102H414.09L414.03 34.4802H417.63V32.9502H415.02L414.96 32.7302H417.63V31.2402L418.85 31.3402C418.84 31.4802 418.74 31.5402 418.45 31.5902V32.7202H419.68L420.2 32.0602L421.02 32.6402C421.36 32.3002 421.68 31.9402 421.94 31.6102L422.91 32.3902C422.86 32.4402 422.81 32.4802 422.73 32.4802C422.66 32.4802 422.58 32.4602 422.48 32.4102C421.84 33.0902 421.03 33.8002 420.08 34.4702H421.88L422.41 33.7902L422.4 33.8002ZM418.44 34.4802H418.91C419.57 33.9802 420.17 33.4702 420.71 32.9502H418.44V34.4802Z" fill="#703E1E"/>
<path d="M433.87 31.4499L434.83 32.1599C434.76 32.2499 434.6 32.3299 434.4 32.3699V40.2499C434.4 40.2499 434.2 40.5299 433.6 40.5299V39.9599H426.86V40.3099C426.86 40.3099 426.8 40.6399 426.08 40.6399V31.5199L426.94 31.9099H433.5L433.87 31.4199V31.4499ZM426.86 39.7499H433.6V32.1599H426.86V39.7499ZM432.54 34.4399L433.35 34.9899C433.26 35.1299 433.15 35.1799 432.88 35.1799H427.25L427.18 34.9599H429.85V34.2199H428.87V34.3299C428.87 34.3299 428.73 34.5699 428.15 34.5699V32.5999L428.92 32.9299H431.51L431.8 32.5499L432.65 33.1499C432.6 33.2099 432.48 33.2899 432.32 33.3099V34.3099C432.32 34.3099 432.1 34.5199 431.59 34.5199V34.2199H430.58V34.9599H432.13L432.55 34.4399H432.54ZM431.88 35.8299L432.17 35.4499L433 36.0399C432.95 36.1099 432.82 36.1799 432.67 36.1999V39.0999C432.67 39.0999 432.46 39.3199 431.97 39.3199V38.8799H428.48V39.1299C428.48 39.1299 428.4 39.3699 427.79 39.3699V35.4999L428.54 35.8299H431.88ZM428.48 38.6499H431.97V36.0499H428.48V38.6499ZM428.86 33.9999H431.58V33.1599H428.86V33.9999ZM430.94 36.3699L431.63 36.8599C431.58 36.9099 431.47 36.9699 431.35 36.9999V38.1199C431.35 38.1199 431.18 38.3199 430.77 38.3199V37.9799H429.68V38.1799C429.68 38.1799 429.46 38.3599 429.2 38.3599H429.11V36.3899L429.73 36.6699H430.7L430.94 36.3699ZM429.68 37.7499H430.77V36.8999H429.68V37.7499Z" fill="#703E1E"/>
<path d="M290.64 49.3697C290.39 49.3297 290.15 49.3197 289.92 49.3197H288.49C288.26 49.3197 288.03 49.3397 287.77 49.3697C287.64 48.9597 287.47 48.4597 287.26 47.8697C287.04 47.2897 286.81 46.6697 286.54 46.0297C286.28 45.3897 286.01 44.7397 285.74 44.0897C285.47 43.4297 285.22 42.8097 284.98 42.2097C284.4 42.1897 283.82 42.1797 283.23 42.1697C282.64 42.1697 282.04 42.1597 281.45 42.1597C280.89 42.1597 280.34 42.1597 279.8 42.1697C279.26 42.1697 278.71 42.1897 278.15 42.2097C277.57 43.6097 277.05 44.9497 276.58 46.2197C276.11 47.4897 275.76 48.5397 275.53 49.3697C275.22 49.3297 274.89 49.3197 274.53 49.3197C274.17 49.3197 273.84 49.3397 273.53 49.3697C274.99 46.2197 276.41 43.0897 277.8 39.9697C279.19 36.8597 280.58 33.6897 281.98 30.4697H282.49C282.92 31.5097 283.39 32.6397 283.89 33.8597C284.39 35.0697 284.91 36.2997 285.43 37.5497C285.95 38.7997 286.47 40.0197 287 41.2497C287.52 42.4697 288.01 43.6097 288.47 44.6597C288.93 45.7097 289.34 46.6497 289.71 47.4797C290.08 48.3097 290.38 48.9397 290.61 49.3697H290.64ZM278.68 40.9697C279.15 40.9697 279.63 40.9697 280.14 40.9997C280.64 41.0197 281.13 41.0297 281.6 41.0297C282.1 41.0297 282.61 41.0297 283.11 41.0197C283.61 41.0097 284.12 40.9997 284.62 40.9797L281.62 34.1197L278.68 40.9797V40.9697Z" fill="#703E1E"/>
<path d="M296.07 34.6801C295.87 34.3201 295.6 34.0301 295.26 33.8201V33.6301C296.29 33.2201 297.33 32.7601 298.41 32.2701C299.48 31.7801 300.48 31.2901 301.42 30.8301L301.61 30.9601C301.54 32.1501 301.48 33.3201 301.45 34.4801C301.41 35.6401 301.4 36.8101 301.4 38.0001V42.5101C301.4 43.7001 301.42 44.8601 301.45 46.0101C301.49 47.1501 301.54 48.2701 301.61 49.3701C301.39 49.3301 301.18 49.3201 300.98 49.3201H299.71C299.5 49.3201 299.29 49.3401 299.08 49.3701C299.17 48.2501 299.23 47.1301 299.26 45.9901C299.29 44.8601 299.3 43.7001 299.3 42.5101V32.9001L296.09 34.6801H296.07Z" fill="#703E1E"/>
<path d="M359.58 45.6294C359.58 45.3894 359.56 45.1494 359.55 44.8994C359.6 44.8994 359.65 44.9094 359.69 44.9194C359.73 44.9194 359.78 44.9194 359.82 44.9194C359.86 44.9194 359.91 44.9194 359.96 44.9194C360 44.9194 360.05 44.9094 360.1 44.8994C360.09 45.1494 360.08 45.3894 360.07 45.6294C360.07 45.8694 360.06 46.1094 360.06 46.3594V47.3294C360.06 47.5794 360.06 47.8194 360.07 48.0594C360.07 48.2994 360.09 48.5394 360.1 48.7694C360.01 48.7694 359.92 48.7594 359.82 48.7594C359.72 48.7594 359.63 48.7594 359.54 48.7694C359.55 48.5394 359.56 48.2994 359.57 48.0594C359.57 47.8194 359.58 47.5794 359.58 47.3294V46.8194C359.38 46.8194 359.18 46.8194 358.99 46.8194C358.8 46.8194 358.6 46.8194 358.4 46.8194C358.2 46.8194 358 46.8194 357.81 46.8194C357.62 46.8194 357.42 46.8194 357.22 46.8194V47.3294C357.22 47.5794 357.22 47.8194 357.23 48.0594C357.23 48.2994 357.25 48.5394 357.26 48.7694C357.17 48.7694 357.08 48.7594 356.98 48.7594C356.88 48.7594 356.79 48.7594 356.7 48.7694C356.71 48.5394 356.72 48.2994 356.73 48.0594C356.73 47.8194 356.74 47.5794 356.74 47.3294V46.3594C356.74 46.1094 356.74 45.8694 356.73 45.6294C356.73 45.3894 356.71 45.1494 356.7 44.8994C356.75 44.8994 356.8 44.9094 356.84 44.9194C356.88 44.9194 356.93 44.9194 356.97 44.9194C357.01 44.9194 357.06 44.9194 357.11 44.9194C357.15 44.9194 357.2 44.9094 357.25 44.8994C357.24 45.1494 357.23 45.3894 357.22 45.6294C357.22 45.8694 357.21 46.1094 357.21 46.3594V46.5594C357.41 46.5594 357.61 46.5594 357.8 46.5694C357.99 46.5694 358.19 46.5694 358.39 46.5694C358.59 46.5694 358.79 46.5694 358.98 46.5694C359.17 46.5694 359.37 46.5694 359.57 46.5594V46.3594C359.57 46.1094 359.57 45.8694 359.56 45.6294H359.58Z" fill="#703E1E"/>
<path d="M361.98 47.4391C361.98 47.1891 362.02 46.9691 362.1 46.7891C362.18 46.6091 362.29 46.4691 362.42 46.3591C362.55 46.2491 362.7 46.1691 362.86 46.1191C363.02 46.0691 363.19 46.0391 363.35 46.0391C363.51 46.0391 363.68 46.0591 363.84 46.1191C364 46.1791 364.15 46.2491 364.28 46.3591C364.41 46.4691 364.52 46.6191 364.6 46.7891C364.68 46.9691 364.72 47.1891 364.72 47.4391C364.72 47.6891 364.68 47.9091 364.6 48.0891C364.52 48.2691 364.41 48.4091 364.28 48.5191C364.15 48.6291 364 48.7091 363.84 48.7491C363.68 48.7991 363.52 48.8191 363.35 48.8191C363.18 48.8191 363.03 48.7991 362.86 48.7491C362.7 48.7091 362.55 48.6291 362.42 48.5191C362.29 48.4091 362.18 48.2691 362.1 48.0891C362.02 47.9091 361.98 47.6991 361.98 47.4391ZM362.48 47.4391C362.48 47.5991 362.49 47.7491 362.52 47.8991C362.55 48.0491 362.6 48.1791 362.66 48.2891C362.73 48.3991 362.82 48.4991 362.93 48.5591C363.04 48.6291 363.18 48.6591 363.35 48.6591C363.52 48.6591 363.65 48.6291 363.77 48.5591C363.88 48.4891 363.97 48.3991 364.04 48.2891C364.11 48.1791 364.16 48.0491 364.18 47.8991C364.21 47.7491 364.22 47.5991 364.22 47.4391C364.22 47.2791 364.21 47.1291 364.18 46.9791C364.15 46.8291 364.1 46.6991 364.04 46.5891C363.97 46.4791 363.88 46.3891 363.77 46.3191C363.66 46.2491 363.52 46.2191 363.35 46.2191C363.18 46.2191 363.05 46.2491 362.93 46.3191C362.82 46.3891 362.73 46.4791 362.66 46.5891C362.59 46.6991 362.54 46.8291 362.52 46.9791C362.49 47.1291 362.48 47.2791 362.48 47.4391Z" fill="#703E1E"/>
<path d="M366.52 47.9091C366.52 47.7091 366.52 47.5391 366.52 47.3991C366.52 47.2591 366.52 47.1191 366.52 46.9791C366.52 46.8491 366.52 46.7091 366.52 46.5491C366.52 46.3991 366.52 46.2391 366.52 46.0791C366.61 46.0991 366.69 46.1091 366.76 46.1091C366.82 46.1091 366.9 46.1091 366.99 46.0791C366.97 46.2991 366.96 46.5491 366.95 46.8191C366.95 47.0891 366.94 47.3591 366.94 47.6391C366.94 47.8291 366.96 47.9791 366.99 48.0891C367.02 48.1891 367.07 48.2691 367.11 48.3191C367.16 48.3791 367.23 48.4291 367.31 48.4691C367.39 48.5091 367.49 48.5291 367.59 48.5291C367.75 48.5291 367.88 48.4991 367.98 48.4291C368.08 48.3591 368.16 48.2791 368.21 48.1691C368.24 48.1091 368.26 48.0491 368.27 48.0091C368.28 47.9591 368.3 47.8991 368.31 47.8291C368.31 47.7491 368.32 47.6491 368.33 47.5291C368.33 47.3991 368.33 47.2291 368.33 47.0091V46.5391C368.33 46.4591 368.33 46.3791 368.33 46.2991C368.33 46.2291 368.33 46.1491 368.33 46.0891C368.37 46.0891 368.41 46.0991 368.45 46.1091C368.49 46.1091 368.53 46.1091 368.57 46.1091C368.61 46.1091 368.65 46.1091 368.69 46.1091C368.73 46.1091 368.76 46.0991 368.8 46.0891C368.78 46.3791 368.77 46.6591 368.77 46.9391C368.77 47.2091 368.77 47.4991 368.77 47.7991C368.77 47.9691 368.77 48.1291 368.77 48.2991C368.77 48.4591 368.77 48.6191 368.79 48.7691C368.72 48.7691 368.64 48.7591 368.57 48.7591C368.5 48.7591 368.43 48.7591 368.35 48.7691C368.35 48.7391 368.35 48.6991 368.35 48.6591C368.35 48.6191 368.35 48.5791 368.35 48.5391V48.2991H368.34C368.24 48.4791 368.12 48.6091 367.96 48.6991C367.81 48.7791 367.64 48.8291 367.46 48.8291C367.17 48.8291 366.94 48.7491 366.77 48.5991C366.6 48.4391 366.52 48.2191 366.52 47.9291V47.9091Z" fill="#703E1E"/>
<path d="M370.89 48.3593C370.89 48.3593 370.98 48.4493 371.03 48.4893C371.08 48.5293 371.15 48.5593 371.22 48.5893C371.29 48.6193 371.36 48.6293 371.44 48.6293C371.51 48.6293 371.58 48.6193 371.65 48.5993C371.72 48.5793 371.77 48.5493 371.82 48.4993C371.87 48.4593 371.91 48.4093 371.94 48.3393C371.97 48.2793 371.98 48.1993 371.98 48.1193C371.98 47.9993 371.95 47.9093 371.88 47.8493C371.81 47.7893 371.73 47.7393 371.64 47.6993C371.54 47.6593 371.44 47.6293 371.32 47.5993C371.2 47.5693 371.1 47.5293 371 47.4693C370.9 47.4193 370.82 47.3393 370.76 47.2493C370.69 47.1593 370.66 47.0393 370.66 46.8793C370.66 46.7593 370.68 46.6393 370.72 46.5393C370.76 46.4393 370.82 46.3493 370.9 46.2693C370.98 46.1893 371.08 46.1393 371.19 46.0893C371.31 46.0493 371.44 46.0293 371.59 46.0293C371.73 46.0293 371.85 46.0493 371.94 46.0893C372.04 46.1293 372.13 46.1593 372.21 46.1893C372.18 46.2493 372.15 46.3193 372.13 46.3993C372.11 46.4793 372.09 46.5493 372.08 46.5893H372.01C371.98 46.4993 371.92 46.4193 371.84 46.3493C371.75 46.2793 371.65 46.2393 371.52 46.2393C371.46 46.2393 371.41 46.2393 371.35 46.2693C371.29 46.2893 371.24 46.3193 371.2 46.3493C371.16 46.3893 371.12 46.4393 371.09 46.4993C371.06 46.5593 371.05 46.6293 371.05 46.7093C371.05 46.8293 371.08 46.9193 371.15 46.9893C371.22 47.0593 371.3 47.1093 371.39 47.1393C371.49 47.1793 371.59 47.2093 371.71 47.2393C371.83 47.2693 371.93 47.3093 372.03 47.3593C372.13 47.4093 372.21 47.4793 372.27 47.5693C372.34 47.6593 372.37 47.7793 372.37 47.9393C372.37 48.0493 372.35 48.1593 372.3 48.2593C372.25 48.3593 372.19 48.4593 372.1 48.5393C372.01 48.6193 371.91 48.6893 371.78 48.7393C371.66 48.7893 371.52 48.8093 371.36 48.8093C371.19 48.8093 371.04 48.7893 370.93 48.7593C370.81 48.7293 370.72 48.6893 370.64 48.6393C370.66 48.5893 370.69 48.5193 370.71 48.4393C370.73 48.3593 370.75 48.2893 370.75 48.2293H370.82C370.82 48.2293 370.87 48.3093 370.91 48.3493L370.89 48.3593Z" fill="#703E1E"/>
<path d="M373.97 47.5093C373.97 47.0493 374.08 46.6893 374.3 46.4193C374.52 46.1593 374.84 46.0293 375.26 46.0293C375.46 46.0293 375.63 46.0593 375.77 46.1193C375.91 46.1793 376.04 46.2593 376.13 46.3693C376.23 46.4693 376.3 46.5893 376.35 46.7293C376.4 46.8693 376.42 47.0193 376.42 47.1693C376.42 47.2093 376.42 47.2393 376.42 47.2793C376.42 47.3193 376.42 47.3493 376.42 47.3893C376.22 47.3893 376.02 47.3893 375.82 47.3793C375.62 47.3793 375.42 47.3793 375.22 47.3793C375.1 47.3793 374.97 47.3793 374.85 47.3793C374.73 47.3793 374.61 47.3793 374.48 47.3893C374.48 47.4093 374.48 47.4393 374.48 47.4693V47.5393C374.48 47.6893 374.5 47.8193 374.54 47.9493C374.58 48.0793 374.65 48.1893 374.73 48.2793C374.81 48.3693 374.91 48.4393 375.03 48.4993C375.15 48.5493 375.29 48.5793 375.45 48.5793C375.53 48.5793 375.6 48.5693 375.68 48.5493C375.76 48.5293 375.84 48.4993 375.91 48.4693C375.99 48.4293 376.06 48.3893 376.12 48.3393C376.18 48.2893 376.24 48.2393 376.29 48.1793L376.32 48.1993L376.29 48.4793C376.18 48.5693 376.04 48.6493 375.87 48.7093C375.7 48.7693 375.53 48.8093 375.35 48.8093C375.15 48.8093 374.96 48.7793 374.8 48.7193C374.63 48.6593 374.49 48.5693 374.37 48.4493C374.25 48.3293 374.15 48.1893 374.09 48.0293C374.02 47.8693 373.99 47.6893 373.99 47.5093H373.97ZM375.27 46.2093C375.13 46.2093 375.01 46.2393 374.92 46.3093C374.82 46.3693 374.75 46.4493 374.68 46.5493C374.62 46.6493 374.57 46.7493 374.54 46.8693C374.51 46.9793 374.49 47.0893 374.48 47.1893C374.6 47.1893 374.72 47.1893 374.84 47.1993C374.96 47.2093 375.09 47.1993 375.21 47.1993C375.33 47.1993 375.46 47.1993 375.59 47.1993C375.72 47.1993 375.84 47.1993 375.96 47.1893C375.96 47.0893 375.96 46.9793 375.93 46.8693C375.91 46.7593 375.88 46.6493 375.83 46.5593C375.78 46.4593 375.71 46.3793 375.62 46.3193C375.53 46.2593 375.41 46.2193 375.27 46.2193V46.2093Z" fill="#703E1E"/>
<path d="M378.23 45.7293C378.23 45.5793 378.23 45.4293 378.23 45.2893C378.23 45.1393 378.23 44.9993 378.22 44.8693C378.22 44.7393 378.21 44.6193 378.2 44.5293C378.3 44.5493 378.39 44.5593 378.45 44.5593C378.51 44.5593 378.6 44.5593 378.7 44.5293C378.7 44.6193 378.69 44.7393 378.68 44.8693C378.68 44.9993 378.67 45.1393 378.67 45.2793C378.67 45.4193 378.67 45.5693 378.67 45.7193C378.67 45.8693 378.67 45.9993 378.67 46.1293V46.5593H378.68C378.79 46.3993 378.91 46.2693 379.06 46.1893C379.21 46.0993 379.38 46.0593 379.58 46.0593C379.69 46.0593 379.79 46.0693 379.9 46.1093C380.01 46.1393 380.1 46.1893 380.19 46.2593C380.28 46.3293 380.35 46.4293 380.4 46.5593C380.45 46.6893 380.48 46.8493 380.48 47.0393C380.48 47.1993 380.48 47.3693 380.47 47.5393C380.47 47.7093 380.46 47.8893 380.46 48.0793V48.4493C380.46 48.5093 380.46 48.5693 380.46 48.6293C380.46 48.6893 380.46 48.7393 380.46 48.7993C380.38 48.7993 380.31 48.7893 380.22 48.7893C380.13 48.7893 380.06 48.7893 379.99 48.7993C379.99 48.6093 380.01 48.3993 380.02 48.1993C380.02 47.9893 380.03 47.7793 380.03 47.5593V47.2193C380.03 46.9393 379.98 46.7293 379.87 46.5793C379.76 46.4393 379.61 46.3593 379.42 46.3593C379.16 46.3593 378.97 46.4393 378.84 46.5993C378.72 46.7593 378.66 46.9893 378.66 47.2793C378.66 47.3793 378.66 47.5093 378.66 47.6493C378.66 47.7893 378.66 47.9293 378.66 48.0693C378.66 48.2093 378.66 48.3493 378.67 48.4793C378.67 48.6093 378.68 48.7193 378.69 48.7993C378.6 48.7993 378.52 48.7893 378.44 48.7893C378.36 48.7893 378.27 48.7893 378.19 48.7993C378.19 48.7093 378.2 48.6093 378.21 48.4693C378.21 48.3393 378.22 48.1993 378.22 48.0493C378.22 47.8993 378.22 47.7593 378.22 47.6093C378.22 47.4593 378.22 47.3193 378.22 47.1893V46.1693C378.22 46.0393 378.22 45.8993 378.22 45.7493L378.23 45.7293Z" fill="#703E1E"/>
<path d="M382.27 47.4391C382.27 47.1891 382.31 46.9691 382.39 46.7891C382.47 46.6091 382.58 46.4691 382.71 46.3591C382.84 46.2491 382.99 46.1691 383.15 46.1191C383.31 46.0691 383.48 46.0391 383.64 46.0391C383.8 46.0391 383.97 46.0591 384.13 46.1191C384.29 46.1791 384.44 46.2491 384.57 46.3591C384.7 46.4691 384.81 46.6191 384.89 46.7891C384.97 46.9691 385.01 47.1891 385.01 47.4391C385.01 47.6891 384.97 47.9091 384.89 48.0891C384.81 48.2691 384.7 48.4091 384.57 48.5191C384.44 48.6291 384.29 48.7091 384.13 48.7491C383.97 48.7991 383.81 48.8191 383.64 48.8191C383.47 48.8191 383.32 48.7991 383.15 48.7491C382.99 48.7091 382.84 48.6291 382.71 48.5191C382.58 48.4091 382.47 48.2691 382.39 48.0891C382.31 47.9091 382.27 47.6991 382.27 47.4391ZM382.77 47.4391C382.77 47.5991 382.78 47.7491 382.81 47.8991C382.84 48.0491 382.89 48.1791 382.95 48.2891C383.02 48.3991 383.11 48.4991 383.22 48.5591C383.33 48.6291 383.47 48.6591 383.64 48.6591C383.81 48.6591 383.94 48.6291 384.06 48.5591C384.17 48.4891 384.26 48.3991 384.33 48.2891C384.4 48.1791 384.45 48.0491 384.47 47.8991C384.5 47.7491 384.51 47.5991 384.51 47.4391C384.51 47.2791 384.5 47.1291 384.47 46.9791C384.44 46.8291 384.39 46.6991 384.33 46.5891C384.26 46.4791 384.17 46.3891 384.06 46.3191C383.95 46.2491 383.81 46.2191 383.64 46.2191C383.47 46.2191 383.34 46.2491 383.22 46.3191C383.11 46.3891 383.02 46.4791 382.95 46.5891C382.88 46.6991 382.83 46.8291 382.81 46.9791C382.78 47.1291 382.77 47.2791 382.77 47.4391Z" fill="#703E1E"/>
<path d="M386.95 45.7293C386.95 45.5793 386.95 45.4293 386.95 45.2893C386.95 45.1393 386.95 44.9993 386.94 44.8693C386.94 44.7393 386.93 44.6193 386.92 44.5293C387.03 44.5493 387.11 44.5593 387.17 44.5593C387.23 44.5593 387.32 44.5593 387.42 44.5293C387.42 44.6193 387.41 44.7393 387.4 44.8693C387.4 44.9993 387.39 45.1393 387.39 45.2893C387.39 45.4393 387.39 45.5793 387.39 45.7293C387.39 45.8793 387.39 46.0193 387.39 46.1493V47.1693C387.39 47.2993 387.39 47.4393 387.39 47.5893C387.39 47.7393 387.39 47.8893 387.39 48.0293C387.39 48.1793 387.39 48.3093 387.4 48.4493C387.4 48.5793 387.41 48.6893 387.42 48.7793C387.33 48.7793 387.25 48.7693 387.17 48.7693C387.09 48.7693 387 48.7693 386.92 48.7793C386.92 48.6893 386.93 48.5893 386.94 48.4493C386.94 48.3193 386.95 48.1793 386.95 48.0293C386.95 47.8793 386.95 47.7393 386.95 47.5893C386.95 47.4393 386.95 47.2993 386.95 47.1693V46.1493C386.95 46.0193 386.95 45.8793 386.95 45.7293Z" fill="#703E1E"/>
<path d="M391.45 48.2293C391.42 48.2893 391.38 48.3493 391.33 48.4193C391.28 48.4893 391.22 48.5493 391.14 48.6093C391.06 48.6693 390.97 48.7193 390.87 48.7593C390.77 48.7993 390.64 48.8193 390.5 48.8193C390.36 48.8193 390.22 48.7993 390.08 48.7493C389.94 48.6993 389.82 48.6193 389.71 48.5093C389.6 48.3993 389.52 48.2593 389.45 48.0793C389.38 47.9093 389.35 47.6993 389.35 47.4493C389.35 47.1993 389.39 46.9993 389.46 46.8293C389.53 46.6493 389.62 46.5093 389.74 46.3893C389.85 46.2693 389.98 46.1793 390.13 46.1293C390.27 46.0693 390.42 46.0393 390.57 46.0393C390.99 46.0393 391.28 46.2293 391.44 46.5993H391.45V46.0493C391.45 45.9093 391.45 45.7593 391.45 45.6193C391.45 45.4793 391.45 45.3393 391.45 45.2093C391.45 45.0793 391.45 44.9593 391.45 44.8393C391.45 44.7193 391.45 44.6193 391.45 44.5293C391.49 44.5293 391.54 44.5393 391.58 44.5493C391.62 44.5493 391.66 44.5493 391.7 44.5493C391.74 44.5493 391.78 44.5493 391.82 44.5493C391.86 44.5493 391.9 44.5393 391.95 44.5293C391.94 44.6493 391.93 44.8193 391.92 45.0493C391.92 45.2793 391.91 45.5293 391.9 45.7993C391.9 46.0693 391.89 46.3593 391.89 46.6393C391.89 46.9193 391.89 47.1893 391.89 47.4293C391.89 47.6893 391.89 47.9193 391.89 48.1293C391.89 48.3393 391.89 48.5493 391.9 48.7693C391.82 48.7693 391.75 48.7593 391.68 48.7593C391.61 48.7593 391.54 48.7593 391.47 48.7693L391.49 48.2393H391.48L391.45 48.2293ZM389.85 47.4893C389.85 47.7193 389.87 47.8993 389.92 48.0493C389.97 48.1993 390.03 48.3093 390.1 48.3993C390.17 48.4893 390.26 48.5493 390.35 48.5793C390.44 48.6093 390.54 48.6293 390.63 48.6293C390.78 48.6293 390.9 48.5893 391.01 48.5193C391.12 48.4493 391.2 48.3493 391.27 48.2293C391.34 48.1093 391.39 47.9793 391.42 47.8293C391.45 47.6793 391.47 47.5293 391.47 47.3793C391.47 47.0193 391.4 46.7493 391.26 46.5593C391.12 46.3693 390.92 46.2793 390.65 46.2793C390.51 46.2793 390.4 46.3093 390.3 46.3693C390.2 46.4293 390.12 46.5193 390.05 46.6293C389.98 46.7393 389.94 46.8693 389.9 47.0193C389.87 47.1693 389.85 47.3293 389.85 47.4993V47.4893Z" fill="#703E1E"/>
<path d="M397.29 46.3594C397.29 46.1094 397.29 45.8694 397.28 45.6294C397.28 45.3894 397.26 45.1494 397.25 44.8994C397.39 44.8994 397.53 44.9094 397.67 44.9194C397.81 44.9194 397.95 44.9194 398.09 44.9194C398.23 44.9194 398.37 44.9194 398.51 44.9094C398.65 44.9094 398.79 44.8994 398.93 44.8994C399.26 44.8994 399.54 44.9394 399.78 45.0294C400.01 45.1194 400.21 45.2394 400.36 45.3994C400.51 45.5594 400.62 45.7494 400.69 45.9794C400.76 46.2094 400.79 46.4694 400.79 46.7594C400.79 47.1394 400.73 47.4494 400.6 47.7094C400.47 47.9694 400.31 48.1694 400.1 48.3294C399.9 48.4894 399.68 48.5994 399.44 48.6594C399.2 48.7294 398.97 48.7594 398.75 48.7594C398.62 48.7594 398.5 48.7594 398.37 48.7594C398.25 48.7594 398.12 48.7594 397.99 48.7594H397.61C397.49 48.7594 397.36 48.7594 397.23 48.7694C397.24 48.5394 397.25 48.2994 397.26 48.0594C397.26 47.8194 397.27 47.5794 397.27 47.3294V46.3594H397.29ZM397.75 47.3294C397.75 47.7394 397.76 48.1294 397.78 48.5194C397.86 48.5394 397.97 48.5494 398.1 48.5594C398.23 48.5594 398.37 48.5694 398.52 48.5694C398.73 48.5694 398.93 48.5494 399.14 48.4994C399.35 48.4494 399.53 48.3594 399.69 48.2194C399.85 48.0894 399.99 47.8994 400.09 47.6694C400.19 47.4394 400.24 47.1294 400.24 46.7594C400.24 46.4294 400.2 46.1694 400.12 45.9594C400.04 45.7494 399.93 45.5794 399.79 45.4594C399.65 45.3394 399.48 45.2494 399.29 45.2094C399.1 45.1594 398.88 45.1394 398.65 45.1394C398.48 45.1394 398.32 45.1394 398.18 45.1594C398.03 45.1694 397.9 45.1794 397.79 45.1994C397.78 45.3794 397.77 45.5694 397.77 45.7594C397.77 45.9594 397.77 46.1594 397.77 46.3594V47.3294H397.75Z" fill="#703E1E"/>
<path d="M402.49 47.5093C402.49 47.0493 402.6 46.6893 402.82 46.4193C403.04 46.1593 403.36 46.0293 403.78 46.0293C403.98 46.0293 404.15 46.0593 404.29 46.1193C404.43 46.1793 404.56 46.2593 404.65 46.3693C404.75 46.4693 404.82 46.5893 404.87 46.7293C404.92 46.8693 404.94 47.0193 404.94 47.1693C404.94 47.2093 404.94 47.2393 404.94 47.2793C404.94 47.3193 404.94 47.3493 404.94 47.3893C404.74 47.3893 404.54 47.3893 404.34 47.3793C404.14 47.3793 403.94 47.3793 403.74 47.3793C403.62 47.3793 403.49 47.3793 403.37 47.3793C403.25 47.3793 403.13 47.3793 403 47.3893C403 47.4093 403 47.4393 403 47.4693V47.5393C403 47.6893 403.02 47.8193 403.06 47.9493C403.1 48.0793 403.17 48.1893 403.25 48.2793C403.33 48.3693 403.43 48.4393 403.55 48.4993C403.67 48.5593 403.81 48.5793 403.97 48.5793C404.05 48.5793 404.12 48.5693 404.2 48.5493C404.28 48.5293 404.36 48.4993 404.43 48.4693C404.51 48.4293 404.58 48.3893 404.64 48.3393C404.7 48.2893 404.76 48.2393 404.81 48.1793L404.84 48.1993L404.81 48.4793C404.7 48.5693 404.56 48.6493 404.39 48.7093C404.22 48.7693 404.05 48.8093 403.87 48.8093C403.67 48.8093 403.48 48.7793 403.32 48.7193C403.15 48.6593 403.01 48.5693 402.89 48.4493C402.77 48.3293 402.67 48.1893 402.61 48.0293C402.54 47.8693 402.51 47.6893 402.51 47.5093H402.49ZM403.79 46.2093C403.65 46.2093 403.53 46.2393 403.44 46.3093C403.34 46.3693 403.27 46.4493 403.2 46.5493C403.14 46.6493 403.09 46.7493 403.06 46.8693C403.03 46.9793 403.01 47.0893 403 47.1893C403.12 47.1893 403.24 47.1893 403.36 47.1993C403.48 47.2093 403.61 47.1993 403.73 47.1993C403.85 47.1993 403.98 47.1993 404.11 47.1993C404.24 47.1993 404.36 47.1993 404.48 47.1893C404.48 47.0893 404.48 46.9793 404.45 46.8693C404.43 46.7593 404.4 46.6493 404.35 46.5593C404.3 46.4593 404.23 46.3793 404.14 46.3193C404.05 46.2593 403.93 46.2193 403.79 46.2193V46.2093Z" fill="#703E1E"/>
<path d="M406.53 47.4391C406.53 47.1991 406.57 46.9891 406.65 46.8091C406.73 46.6291 406.84 46.4891 406.97 46.3691C407.1 46.2591 407.26 46.1691 407.43 46.1191C407.6 46.0691 407.78 46.0391 407.96 46.0391C408.17 46.0391 408.35 46.0591 408.51 46.1191C408.67 46.1791 408.79 46.2291 408.86 46.2891C408.83 46.3491 408.81 46.4091 408.79 46.4691C408.77 46.5291 408.75 46.5991 408.74 46.6591H408.7C408.7 46.6591 408.64 46.5591 408.59 46.5091C408.55 46.4591 408.49 46.4091 408.43 46.3691C408.37 46.3291 408.3 46.2891 408.22 46.2591C408.15 46.2291 408.06 46.2191 407.97 46.2191C407.8 46.2191 407.66 46.2491 407.53 46.3091C407.41 46.3691 407.31 46.4591 407.23 46.5691C407.15 46.6791 407.1 46.8091 407.06 46.9591C407.02 47.1091 407.01 47.2691 407.01 47.4391C407.01 47.8291 407.09 48.1191 407.26 48.3091C407.43 48.5091 407.67 48.6091 407.99 48.6091C408.07 48.6091 408.14 48.5991 408.22 48.5791C408.3 48.5591 408.38 48.5291 408.45 48.4991C408.52 48.4591 408.59 48.4191 408.66 48.3691C408.73 48.3191 408.78 48.2691 408.83 48.2091L408.86 48.2291C408.84 48.3191 408.83 48.4091 408.83 48.5091C408.72 48.5991 408.58 48.6791 408.41 48.7391C408.24 48.7991 408.07 48.8391 407.89 48.8391C407.73 48.8391 407.57 48.8191 407.4 48.7691C407.24 48.7191 407.09 48.6391 406.96 48.5291C406.83 48.4191 406.72 48.2791 406.64 48.0991C406.56 47.9191 406.52 47.7091 406.52 47.4491L406.53 47.4391Z" fill="#703E1E"/>
<path d="M410.48 47.4391C410.48 47.1891 410.52 46.9691 410.6 46.7891C410.68 46.6091 410.79 46.4691 410.92 46.3591C411.05 46.2491 411.2 46.1691 411.36 46.1191C411.52 46.0691 411.69 46.0391 411.85 46.0391C412.01 46.0391 412.18 46.0591 412.34 46.1191C412.5 46.1691 412.65 46.2491 412.78 46.3591C412.91 46.4691 413.02 46.6191 413.1 46.7891C413.18 46.9691 413.22 47.1891 413.22 47.4391C413.22 47.6891 413.18 47.9091 413.1 48.0891C413.02 48.2691 412.91 48.4091 412.78 48.5191C412.65 48.6291 412.5 48.7091 412.34 48.7491C412.18 48.7991 412.02 48.8191 411.85 48.8191C411.68 48.8191 411.53 48.7991 411.36 48.7491C411.2 48.7091 411.05 48.6291 410.92 48.5191C410.79 48.4091 410.68 48.2691 410.6 48.0891C410.52 47.9091 410.48 47.6991 410.48 47.4391ZM410.98 47.4391C410.98 47.5991 410.99 47.7491 411.02 47.8991C411.05 48.0491 411.1 48.1791 411.16 48.2891C411.23 48.3991 411.32 48.4991 411.43 48.5591C411.54 48.6291 411.68 48.6591 411.85 48.6591C412.02 48.6591 412.15 48.6291 412.27 48.5591C412.38 48.4891 412.47 48.3991 412.54 48.2891C412.61 48.1791 412.66 48.0491 412.68 47.8991C412.71 47.7491 412.72 47.5991 412.72 47.4391C412.72 47.2791 412.71 47.1291 412.68 46.9791C412.65 46.8291 412.6 46.6991 412.54 46.5891C412.47 46.4791 412.38 46.3891 412.27 46.3191C412.16 46.2491 412.02 46.2191 411.85 46.2191C411.68 46.2191 411.55 46.2491 411.43 46.3191C411.32 46.3891 411.23 46.4791 411.16 46.5891C411.09 46.6991 411.04 46.8291 411.02 46.9791C410.99 47.1291 410.98 47.2791 410.98 47.4391Z" fill="#703E1E"/>
<path d="M416.2 46.4891C416.15 46.4691 416.09 46.4591 416.03 46.4591C415.94 46.4591 415.86 46.4791 415.79 46.5191C415.72 46.5591 415.66 46.6191 415.61 46.6891C415.56 46.7591 415.52 46.8391 415.5 46.9391C415.47 47.0391 415.46 47.1391 415.46 47.2491V47.8691C415.46 48.1191 415.46 48.3091 415.46 48.4491C415.46 48.5791 415.46 48.6891 415.48 48.7691C415.4 48.7691 415.33 48.7591 415.25 48.7591C415.17 48.7591 415.09 48.7591 415.01 48.7691C415.02 48.6391 415.03 48.4691 415.03 48.2491C415.03 48.0291 415.03 47.7591 415.03 47.4391V47.2591C415.03 47.1091 415.03 46.9391 415.03 46.7491C415.03 46.5591 415.03 46.3391 415.01 46.0891C415.05 46.0891 415.09 46.0991 415.13 46.1091C415.17 46.1091 415.21 46.1091 415.25 46.1091C415.28 46.1091 415.32 46.1091 415.36 46.1091C415.4 46.1091 415.44 46.0991 415.48 46.0891C415.46 46.2191 415.46 46.3291 415.45 46.4091C415.45 46.4891 415.45 46.5591 415.45 46.6391H415.46C415.68 46.2391 415.93 46.0391 416.2 46.0391C416.23 46.0391 416.26 46.0391 416.29 46.0391C416.32 46.0391 416.35 46.0491 416.38 46.0691C416.36 46.1091 416.35 46.1791 416.35 46.2791C416.35 46.3691 416.35 46.4591 416.35 46.5291L416.31 46.5591C416.31 46.5591 416.25 46.5191 416.2 46.4991V46.4891Z" fill="#703E1E"/>
<path d="M418.06 46.3593C418.23 46.2293 418.38 46.1493 418.53 46.0993C418.67 46.0593 418.82 46.0293 418.97 46.0293C419.11 46.0293 419.23 46.0493 419.34 46.0893C419.45 46.1293 419.55 46.1893 419.63 46.2593C419.71 46.3293 419.77 46.4193 419.82 46.5193C419.86 46.6193 419.89 46.7393 419.89 46.8593C419.89 47.0693 419.89 47.2893 419.88 47.4993C419.88 47.7093 419.87 47.9393 419.87 48.1693C419.87 48.2093 419.87 48.2593 419.87 48.3093C419.87 48.3593 419.88 48.4093 419.9 48.4393C419.91 48.4793 419.94 48.5093 419.96 48.5393C419.99 48.5693 420.03 48.5793 420.09 48.5793C420.11 48.5793 420.13 48.5793 420.15 48.5793C420.17 48.5793 420.19 48.5793 420.21 48.5593V48.6793C420.21 48.6793 420.12 48.7093 420.06 48.7193C420 48.7293 419.93 48.7393 419.85 48.7393C419.73 48.7393 419.64 48.7093 419.57 48.6493C419.51 48.5893 419.47 48.5093 419.46 48.4093C419.33 48.5393 419.19 48.6393 419.06 48.7093C418.93 48.7693 418.77 48.8093 418.58 48.8093C418.49 48.8093 418.39 48.7993 418.3 48.7693C418.21 48.7393 418.13 48.6993 418.06 48.6393C417.99 48.5793 417.93 48.5093 417.89 48.4193C417.85 48.3393 417.83 48.2393 417.83 48.1293C417.83 47.8993 417.9 47.7293 418.04 47.6093C418.18 47.4893 418.37 47.3993 418.62 47.3593C418.82 47.3293 418.98 47.2993 419.1 47.2693C419.21 47.2493 419.3 47.2193 419.35 47.1893C419.4 47.1593 419.44 47.1293 419.45 47.0993C419.46 47.0593 419.47 47.0193 419.47 46.9593C419.47 46.8693 419.46 46.7793 419.44 46.6893C419.42 46.5993 419.38 46.5293 419.33 46.4593C419.28 46.3993 419.22 46.3393 419.14 46.3093C419.06 46.2693 418.97 46.2493 418.85 46.2493C418.7 46.2493 418.56 46.2793 418.43 46.3493C418.3 46.4193 418.2 46.5093 418.14 46.6293H418.08V46.3393L418.06 46.3593ZM419.45 47.3593C419.39 47.3793 419.31 47.3993 419.23 47.4193C419.15 47.4393 419.06 47.4493 418.97 47.4693C418.88 47.4893 418.8 47.5093 418.71 47.5293C418.63 47.5593 418.55 47.5893 418.48 47.6393C418.41 47.6793 418.36 47.7393 418.32 47.8093C418.28 47.8793 418.26 47.9593 418.26 48.0693C418.26 48.2493 418.31 48.3793 418.41 48.4693C418.51 48.5593 418.62 48.5993 418.75 48.5993C418.89 48.5993 419.02 48.5593 419.14 48.4793C419.26 48.3993 419.35 48.3093 419.41 48.1993L419.43 47.3593H419.45Z" fill="#703E1E"/>
<path d="M422.51 45.3391C422.5 45.4791 422.49 45.6191 422.48 45.7591C422.48 45.8991 422.47 46.0291 422.46 46.1691C422.5 46.1691 422.58 46.1691 422.69 46.1691C422.8 46.1691 422.92 46.1691 423.06 46.1591C423.06 46.1691 423.06 46.1891 423.06 46.2191V46.3391C423.06 46.3391 423.06 46.3791 423.06 46.3991C423.01 46.3991 422.96 46.3991 422.91 46.3991C422.86 46.3991 422.8 46.3991 422.74 46.3991H422.46C422.46 46.3991 422.46 46.4791 422.45 46.5791C422.45 46.6791 422.44 46.8091 422.44 46.9491C422.44 47.0891 422.44 47.2391 422.44 47.3991C422.44 47.5591 422.44 47.6991 422.44 47.8191C422.44 47.9191 422.44 48.0291 422.44 48.1291C422.44 48.2291 422.46 48.3191 422.49 48.3991C422.52 48.4791 422.56 48.5491 422.62 48.5891C422.68 48.6391 422.77 48.6591 422.88 48.6591C422.91 48.6591 422.95 48.6591 423 48.6491C423.05 48.6491 423.09 48.6291 423.13 48.6191V48.7491C423.07 48.7591 423 48.7791 422.92 48.7891C422.84 48.8091 422.77 48.8191 422.7 48.8191C422.46 48.8191 422.29 48.7591 422.18 48.6491C422.07 48.5391 422.01 48.3591 422.01 48.1391C422.01 48.0391 422.01 47.9291 422.01 47.8091C422.01 47.6891 422.01 47.5591 422.02 47.4191C422.02 47.2791 422.03 47.1191 422.03 46.9491C422.03 46.7791 422.03 46.5891 422.03 46.3791H421.85C421.85 46.3791 421.79 46.3791 421.75 46.3791C421.72 46.3791 421.68 46.3791 421.64 46.3791C421.64 46.3591 421.64 46.3391 421.64 46.3191C421.64 46.2991 421.64 46.2791 421.64 46.2591C421.64 46.2391 421.64 46.2191 421.64 46.1991C421.64 46.1791 421.64 46.1591 421.64 46.1391C421.81 46.1491 421.93 46.1591 422.01 46.1591C422.01 46.0891 422.01 45.9891 422.01 45.8791C422.01 45.7691 422.01 45.6491 422 45.5291L422.47 45.3291H422.5L422.51 45.3391Z" fill="#703E1E"/>
<path d="M424.81 45.1091C424.81 45.0291 424.84 44.9591 424.89 44.9091C424.95 44.8491 425.01 44.8291 425.09 44.8291C425.17 44.8291 425.24 44.8591 425.29 44.9091C425.35 44.9691 425.37 45.0291 425.37 45.1091C425.37 45.1891 425.34 45.2591 425.29 45.3091C425.24 45.3591 425.17 45.3891 425.09 45.3891C425.01 45.3891 424.94 45.3591 424.89 45.3091C424.83 45.2491 424.81 45.1891 424.81 45.1091ZM424.89 47.1391C424.89 46.9691 424.89 46.7891 424.89 46.6091C424.89 46.4191 424.87 46.2491 424.85 46.0891C424.96 46.1091 425.04 46.1191 425.1 46.1191C425.16 46.1191 425.25 46.1191 425.35 46.0891C425.33 46.2491 425.32 46.4191 425.31 46.6091C425.31 46.7991 425.31 46.9691 425.31 47.1391V47.7191C425.31 47.8891 425.31 48.0691 425.31 48.2491C425.31 48.4391 425.33 48.5991 425.35 48.7491C425.26 48.7491 425.18 48.7391 425.1 48.7391C425.02 48.7391 424.93 48.7391 424.85 48.7491C424.87 48.5991 424.88 48.4291 424.89 48.2491C424.89 48.0591 424.89 47.8891 424.89 47.7191V47.1391Z" fill="#703E1E"/>
<path d="M427.26 47.4391C427.26 47.1891 427.3 46.9691 427.38 46.7891C427.46 46.6091 427.57 46.4691 427.7 46.3591C427.83 46.2491 427.98 46.1691 428.14 46.1191C428.3 46.0691 428.47 46.0391 428.63 46.0391C428.79 46.0391 428.96 46.0591 429.12 46.1191C429.28 46.1691 429.43 46.2491 429.56 46.3591C429.69 46.4691 429.8 46.6191 429.88 46.7891C429.96 46.9691 430 47.1891 430 47.4391C430 47.6891 429.96 47.9091 429.88 48.0891C429.8 48.2691 429.69 48.4091 429.56 48.5191C429.43 48.6291 429.28 48.7091 429.12 48.7491C428.96 48.7991 428.8 48.8191 428.63 48.8191C428.46 48.8191 428.31 48.7991 428.14 48.7491C427.98 48.7091 427.83 48.6291 427.7 48.5191C427.57 48.4091 427.46 48.2691 427.38 48.0891C427.3 47.9091 427.26 47.6991 427.26 47.4391ZM427.76 47.4391C427.76 47.5991 427.77 47.7491 427.8 47.8991C427.83 48.0491 427.88 48.1791 427.94 48.2891C428.01 48.3991 428.1 48.4991 428.21 48.5591C428.32 48.6291 428.46 48.6591 428.63 48.6591C428.8 48.6591 428.93 48.6291 429.05 48.5591C429.16 48.4891 429.25 48.3991 429.32 48.2891C429.39 48.1791 429.44 48.0491 429.46 47.8991C429.49 47.7491 429.5 47.5991 429.5 47.4391C429.5 47.2791 429.49 47.1291 429.46 46.9791C429.43 46.8291 429.38 46.6991 429.32 46.5891C429.25 46.4791 429.16 46.3891 429.05 46.3191C428.94 46.2491 428.8 46.2191 428.63 46.2191C428.46 46.2191 428.33 46.2491 428.21 46.3191C428.1 46.3891 428.01 46.4791 427.94 46.5891C427.87 46.6991 427.82 46.8291 427.8 46.9791C427.77 47.1291 427.76 47.2791 427.76 47.4391Z" fill="#703E1E"/>
<path d="M433.47 46.5388C433.36 46.3988 433.21 46.3188 433.02 46.3188C432.76 46.3188 432.57 46.3988 432.44 46.5588C432.32 46.7188 432.26 46.9488 432.26 47.2388V47.7188C432.26 47.8888 432.26 48.0688 432.26 48.2488C432.26 48.4388 432.28 48.5988 432.3 48.7488C432.21 48.7488 432.13 48.7388 432.05 48.7388C431.97 48.7388 431.88 48.7388 431.8 48.7488C431.82 48.5988 431.83 48.4288 431.84 48.2488C431.84 48.0588 431.84 47.8888 431.84 47.7188V47.1388C431.84 46.9688 431.84 46.7888 431.84 46.6088C431.84 46.4188 431.82 46.2488 431.8 46.0888C431.9 46.1088 431.99 46.1188 432.05 46.1188C432.08 46.1188 432.11 46.1188 432.15 46.1188C432.19 46.1188 432.23 46.1088 432.28 46.0988C432.27 46.2488 432.26 46.3988 432.26 46.5488H432.27C432.38 46.3888 432.5 46.2588 432.65 46.1788C432.8 46.0888 432.97 46.0488 433.17 46.0488C433.28 46.0488 433.38 46.0588 433.49 46.0988C433.6 46.1288 433.69 46.1788 433.78 46.2488C433.87 46.3188 433.94 46.4188 433.99 46.5488C434.04 46.6788 434.07 46.8388 434.07 47.0288C434.07 47.1888 434.07 47.3588 434.06 47.5288C434.06 47.6988 434.05 47.8788 434.05 48.0688V48.4388C434.05 48.4988 434.05 48.5588 434.05 48.6188C434.05 48.6788 434.05 48.7288 434.05 48.7888C433.97 48.7888 433.9 48.7788 433.81 48.7788C433.72 48.7788 433.65 48.7788 433.58 48.7888C433.58 48.5988 433.6 48.3888 433.61 48.1888C433.61 47.9788 433.62 47.7688 433.62 47.5488V47.2088C433.62 46.9288 433.57 46.7188 433.46 46.5688L433.47 46.5388Z" fill="#703E1E"/>
<path d="M309.93 41.0002C309.74 41.3702 309.6 41.7502 309.5 42.1302C309.4 42.5102 309.33 42.9102 309.29 43.3102C309.25 43.7202 309.24 44.1402 309.24 44.5902C309.24 45.0402 309.26 45.4702 309.29 45.8702C309.33 46.2802 309.4 46.6702 309.5 47.0502C309.61 47.4302 309.75 47.8002 309.94 48.1602C310.13 48.5202 310.36 48.8902 310.65 49.2602L310.41 49.4702C309.77 48.7802 309.29 48.0302 308.97 47.1902C308.65 46.3602 308.49 45.4902 308.49 44.5802C308.49 44.1502 308.53 43.7102 308.61 43.2702C308.69 42.8302 308.81 42.4002 308.98 41.9802C309.14 41.5602 309.34 41.1502 309.58 40.7602C309.82 40.3702 310.09 40.0002 310.41 39.6602L310.65 39.8702C310.35 40.2502 310.11 40.6202 309.92 40.9902L309.93 41.0002Z" fill="#703E1E"/>
<path d="M311.97 46.0705C311.97 45.5905 312.1 45.1505 312.37 44.7505C312.63 44.3505 313.07 44.0505 313.69 43.8405V43.7605C313.54 43.7305 313.39 43.6705 313.24 43.5805C313.09 43.4905 312.95 43.3805 312.82 43.2405C312.69 43.1005 312.59 42.9405 312.51 42.7505C312.43 42.5605 312.39 42.3605 312.39 42.1405C312.39 41.8905 312.44 41.6505 312.55 41.4305C312.66 41.2105 312.81 41.0105 313 40.8305C313.19 40.6605 313.43 40.5205 313.7 40.4205C313.97 40.3205 314.28 40.2705 314.62 40.2705C315.01 40.2705 315.35 40.3205 315.64 40.4205C315.92 40.5205 316.16 40.6505 316.34 40.8005C316.52 40.9605 316.66 41.1405 316.75 41.3505C316.84 41.5605 316.89 41.7805 316.89 42.0105C316.89 42.3905 316.78 42.7405 316.55 43.0605C316.33 43.3805 316 43.6105 315.56 43.7505V43.8305C315.69 43.8505 315.86 43.9005 316.06 43.9805C316.26 44.0605 316.44 44.1705 316.62 44.3205C316.8 44.4705 316.95 44.6705 317.07 44.9205C317.2 45.1605 317.26 45.4705 317.26 45.8305C317.26 46.2205 317.19 46.5805 317.05 46.8905C316.91 47.2005 316.72 47.4705 316.48 47.7005C316.24 47.9205 315.96 48.0905 315.64 48.2005C315.32 48.3105 314.98 48.3705 314.62 48.3705C314.26 48.3705 313.9 48.3205 313.58 48.2305C313.26 48.1405 312.98 48.0005 312.74 47.8005C312.5 47.6005 312.32 47.3605 312.19 47.0805C312.06 46.8005 311.99 46.4705 311.99 46.1005L311.97 46.0705ZM316.2 46.0105C316.2 45.7205 316.16 45.4505 316.09 45.2105C316.02 44.9705 315.91 44.7605 315.77 44.5805C315.63 44.4005 315.46 44.2705 315.27 44.1705C315.07 44.0705 314.85 44.0205 314.61 44.0205C314.37 44.0205 314.15 44.0705 313.95 44.1705C313.75 44.2705 313.59 44.4105 313.45 44.5805C313.31 44.7605 313.21 44.9705 313.13 45.2105C313.05 45.4505 313.02 45.7205 313.02 46.0105C313.02 46.3005 313.06 46.5705 313.13 46.8105C313.2 47.0505 313.31 47.2605 313.45 47.4405C313.59 47.6205 313.76 47.7605 313.95 47.8505C314.15 47.9505 314.37 48.0005 314.61 48.0005C314.85 48.0005 315.07 47.9505 315.27 47.8505C315.47 47.7505 315.63 47.6105 315.77 47.4405C315.91 47.2605 316.01 47.0505 316.09 46.8105C316.16 46.5705 316.2 46.3005 316.2 46.0105ZM315.89 42.1405C315.89 41.9405 315.87 41.7405 315.82 41.5605C315.77 41.3805 315.7 41.2205 315.59 41.0805C315.48 40.9405 315.35 40.8305 315.19 40.7505C315.03 40.6705 314.84 40.6305 314.61 40.6305C314.38 40.6305 314.2 40.6705 314.04 40.7505C313.88 40.8305 313.75 40.9405 313.64 41.0805C313.54 41.2205 313.46 41.3805 313.42 41.5605C313.37 41.7405 313.35 41.9305 313.35 42.1405C313.35 42.3505 313.37 42.5305 313.42 42.7105C313.47 42.9005 313.54 43.0605 313.64 43.1905C313.74 43.3305 313.87 43.4405 314.04 43.5205C314.2 43.6005 314.39 43.6405 314.61 43.6405C314.83 43.6405 315.03 43.6005 315.19 43.5205C315.35 43.4405 315.48 43.3305 315.59 43.1905C315.7 43.0505 315.77 42.8905 315.82 42.7105C315.87 42.5305 315.89 42.3305 315.89 42.1405Z" fill="#703E1E"/>
<path d="M321.8 43.9697V44.6997H318.86V43.9697H321.8Z" fill="#703E1E"/>
<path d="M323.52 41.7906C323.43 41.6306 323.32 41.5106 323.17 41.4106V41.3306C323.62 41.1506 324.08 40.9506 324.55 40.7306C325.02 40.5106 325.46 40.3006 325.87 40.1006L325.95 40.1606C325.92 40.6806 325.89 41.1906 325.88 41.7006C325.87 42.2106 325.86 42.7206 325.86 43.2406V45.2106C325.86 45.7306 325.86 46.2406 325.88 46.7406C325.9 47.2406 325.92 47.7306 325.95 48.2106C325.86 48.1906 325.76 48.1906 325.67 48.1906H325.11C325.02 48.1906 324.93 48.1906 324.83 48.2106C324.87 47.7206 324.89 47.2306 324.91 46.7306C324.92 46.2306 324.93 45.7306 324.93 45.2106V41.0106L323.52 41.7906Z" fill="#703E1E"/>
<path d="M329.33 40.5398C329.68 40.3498 330.1 40.2598 330.59 40.2598C330.9 40.2598 331.19 40.2998 331.46 40.3798C331.74 40.4598 331.97 40.5798 332.17 40.7598C332.37 40.9298 332.53 41.1498 332.65 41.4098C332.77 41.6698 332.83 41.9898 332.83 42.3498C332.83 42.6198 332.8 42.8698 332.74 43.0998C332.68 43.3298 332.58 43.5598 332.46 43.7798C332.34 43.9998 332.18 44.2198 332 44.4498C331.82 44.6698 331.6 44.9098 331.34 45.1598C331.19 45.3098 331.02 45.4798 330.82 45.6798C330.62 45.8798 330.42 46.0798 330.22 46.2898C330.02 46.4998 329.83 46.7098 329.65 46.9098C329.47 47.1198 329.31 47.2998 329.19 47.4798H330.31C330.88 47.4798 331.38 47.4798 331.82 47.4498C332.26 47.4298 332.64 47.4098 332.97 47.3898C332.93 47.5598 332.91 47.7098 332.91 47.8298C332.91 47.9398 332.93 48.0698 332.97 48.2298C332.54 48.2098 332.12 48.2098 331.71 48.2098H329.18C328.76 48.2098 328.34 48.2098 327.91 48.2298V48.0898C328.46 47.5498 328.94 47.0698 329.35 46.6498C329.76 46.2398 330.1 45.8598 330.38 45.5298C330.66 45.1998 330.89 44.8998 331.07 44.6298C331.25 44.3598 331.39 44.1098 331.49 43.8698C331.59 43.6298 331.66 43.3898 331.7 43.1598C331.74 42.9298 331.75 42.6798 331.75 42.4098C331.75 41.8298 331.62 41.3998 331.35 41.1198C331.09 40.8398 330.78 40.6998 330.42 40.6998C330.17 40.6998 329.95 40.7498 329.77 40.8398C329.59 40.9298 329.44 41.0398 329.32 41.1698C329.2 41.2998 329.11 41.4398 329.05 41.5898C328.99 41.7398 328.94 41.8698 328.92 41.9898L328.84 42.0098L328.43 41.4298C328.68 41.0298 328.98 40.7298 329.33 40.5398Z" fill="#703E1E"/>
<path d="M335.14 41.6306C335.12 41.1306 335.1 40.6206 335.08 40.1006C335.43 40.1206 335.79 40.1306 336.14 40.1406C336.49 40.1506 336.84 40.1606 337.2 40.1606C337.56 40.1606 337.91 40.1606 338.27 40.1406C338.63 40.1206 339.03 40.1106 339.45 40.1006C339.43 40.2206 339.41 40.3406 339.41 40.4506C339.41 40.5606 339.42 40.6906 339.45 40.8006C339.24 40.7806 338.98 40.7506 338.68 40.7406C338.38 40.7206 338.08 40.7006 337.76 40.6906C337.45 40.6806 337.15 40.6706 336.86 40.6606C336.57 40.6606 336.33 40.6506 336.15 40.6506C336.15 40.9306 336.14 41.1906 336.13 41.4406C336.13 41.6906 336.13 41.9406 336.13 42.2006C336.13 42.4806 336.13 42.7306 336.13 42.9606C336.13 43.1906 336.13 43.4306 336.13 43.6906C336.65 43.6906 337.16 43.6906 337.67 43.6706C338.18 43.6506 338.68 43.6206 339.18 43.5806C339.15 43.7006 339.13 43.8206 339.13 43.9306C339.13 44.0406 339.15 44.1706 339.18 44.2806C338.98 44.2606 338.76 44.2406 338.51 44.2306C338.26 44.2206 338 44.2106 337.74 44.2006C337.47 44.2006 337.2 44.1906 336.93 44.1906H336.14V45.1906C336.14 45.7106 336.14 46.2206 336.17 46.7306C336.19 47.2306 336.21 47.7306 336.24 48.2206C336.06 48.2006 335.87 48.2006 335.66 48.2006C335.45 48.2006 335.26 48.2006 335.08 48.2206C335.1 47.7306 335.13 47.2406 335.14 46.7306C335.15 46.2206 335.17 45.7106 335.17 45.1906V43.1606C335.17 42.6406 335.16 42.1306 335.14 41.6306Z" fill="#703E1E"/>
<path d="M341.53 48.1599C341.72 47.7999 341.86 47.4299 341.96 47.0499C342.06 46.6699 342.13 46.2699 342.17 45.8699C342.21 45.4599 342.23 45.0399 342.23 44.5899C342.23 44.1399 342.21 43.7099 342.17 43.3099C342.13 42.8999 342.06 42.5099 341.96 42.1299C341.86 41.7499 341.71 41.3699 341.53 40.9999C341.34 40.6299 341.11 40.2599 340.82 39.8799L341.06 39.6699C341.7 40.3499 342.18 41.1199 342.5 41.9699C342.82 42.8199 342.98 43.6899 342.98 44.5999C342.98 45.5099 342.82 46.3399 342.5 47.1899C342.18 48.0399 341.7 48.8099 341.07 49.4899L340.83 49.2799C341.12 48.8999 341.36 48.5299 341.54 48.1799L341.53 48.1599Z" fill="#703E1E"/>
</g>
<defs>
<linearGradient id="paint0_linear_515_232465" x1="482.89" y1="40.5496" x2="31.8794" y2="39.8894" gradientUnits="userSpaceOnUse">
<stop offset="0.27" stop-color="#9E2426" stop-opacity="0"/>
<stop offset="0.75" stop-color="#9E2426" stop-opacity="0.66"/>
<stop offset="0.99" stop-color="#9E2426"/>
</linearGradient>
<clipPath id="clip0_515_232465">
<rect width="460" height="80" fill="white"/>
</clipPath>
</defs>
</svg>
