<?xml version="1.0" encoding="utf-8"?>
<!-- Generator: Adobe Illustrator 27.0.0, SVG Export Plug-In . SVG Version: 6.00 Build 0)  -->
<svg version="1.1" id="圖層_1" xmlns="http://www.w3.org/2000/svg" xmlns:xlink="http://www.w3.org/1999/xlink" x="0px" y="0px"
	 viewBox="0 0 400 29" style="enable-background:new 0 0 400 29;" xml:space="preserve">
<style type="text/css">
	.st0{fill:#40220F;}
</style>
<path class="st0" d="M91.9,2.1l2.8,2.2C94.5,4.6,94,4.9,93.4,5v22.2c0,0-0.6,0.9-2.4,0.9v-2.6H77.7v2.1c0,0-0.2,1-2.3,1V2.4L78,3.6
	h12.8L91.9,2.1z M91.1,4.3H77.7V14h13.4L91.1,4.3L91.1,4.3z M77.7,24.7h13.4V14.7H77.7V24.7z"/>
<path class="st0" d="M115.1,4.8c-0.1,0.2-0.3,0.3-0.6,0.3c-0.1,0-0.3,0-0.5-0.1c-1.2,1.4-3.1,3.2-4.9,4.6c1.1,0.9,1.6,1.8,1.6,2.6
	c0,0.8-0.4,1.3-1,1.3c-0.2,0-0.5-0.1-0.8-0.2c-0.8-1.8-3-3.9-4.7-5l0.1-0.3c1.9,0.2,3.2,0.7,4.2,1.3c1-1.5,2.1-3.3,2.9-4.9
	c-3.2,0.3-6.5,0.5-9.7,0.5l-0.1-0.5c7.2-0.8,16.5-2.5,21.3-4l2.5,2.6c-0.1,0.1-0.3,0.2-0.6,0.2c-0.3,0-0.7-0.1-1.1-0.3
	c-2.8,0.5-6.4,1-10.1,1.3L115.1,4.8z M111,21.2c-0.1,0.2-0.3,0.4-0.6,0.4c-0.1,0-0.3,0-0.5-0.1c-1.7,2.1-4.8,4.7-7.9,6.3l-0.3-0.5
	c2.6-2.1,5.2-5.4,6.5-7.9L111,21.2z M121.1,8c-0.1,0.2-0.3,0.2-0.5,0.2s-0.5-0.1-0.7-0.2c-2.2,2.4-5.7,5.4-9,7.8
	c3.4-0.1,7.5-0.2,11.7-0.3c-1.2-1.1-2.5-2-3.7-2.7l0.1-0.4c6.1,1,8,3.7,8,5.3c0,0.8-0.4,1.3-1,1.3c-0.2,0-0.5-0.1-0.8-0.2
	c-0.4-0.8-1-1.7-1.8-2.5c-2.2,0.3-4.7,0.5-7.6,0.9V28c0,0.1-0.8,0.7-1.9,0.7h-0.4V17.4c-2.8,0.2-5.9,0.6-9.5,0.9
	c-0.2,0.4-0.5,0.6-0.8,0.6l-1.4-3c2.3,0,5.3,0,7.9-0.1c3-3,6.4-7.1,8.6-10.1L121.1,8L121.1,8z M118.7,19.8c6,1.8,7.9,4.7,7.9,6.5
	c0,0.9-0.5,1.4-1.1,1.4c-0.3,0-0.6-0.1-0.9-0.3c-0.9-2.5-3.8-5.6-6.1-7.2L118.7,19.8z"/>
<path class="st0" d="M158.8,19.4c-0.2,0.4-0.6,0.6-1.4,0.6h-10.5c2.2,4,6.6,5.5,12.2,6.1l0,0.3c-1,0.3-1.6,1.1-1.8,2.3
	c-5.7-1.4-9.2-3.6-11-8.8h-0.4c-1,4-3.8,6.9-13.2,8.8l-0.2-0.6c7.2-2.2,9.8-4.7,10.8-8.2h-10.6l-0.2-0.7h10.9
	c0.3-1.3,0.4-2.7,0.5-4.2l3.7,0.3c0,0.4-0.3,0.6-1.1,0.7c-0.1,1.1-0.2,2.2-0.4,3.2h8.4l1.5-2L158.8,19.4L158.8,19.4z M132.7,14.2
	h11.6v-3.8h-9.1L135,9.8h9.3V6.1h-10.5l-0.2-0.7h14.5c0.8-1.5,1.6-3.6,2.1-5.2l3.4,1.4c-0.1,0.2-0.3,0.3-0.7,0.3c-0.1,0-0.2,0-0.4,0
	c-0.9,1.1-2.3,2.4-3.6,3.5h4.7l1.4-2l2.8,2.1c-0.2,0.4-0.5,0.6-1.3,0.6h-9.9v3.7h5.8l1.4-1.9l2.6,2c-0.2,0.5-0.6,0.6-1.4,0.6h-8.5
	v3.8h7.7l1.5-2l2.8,2.1c-0.2,0.4-0.6,0.6-1.4,0.6h-24.3L132.7,14.2L132.7,14.2z M138.3,0.3c3,0.9,4,2.3,4,3.5c0,0.9-0.6,1.6-1.3,1.6
	c-0.3,0-0.7-0.2-1-0.5c-0.1-1.4-0.9-3.2-1.9-4.3L138.3,0.3z"/>
<path class="st0" d="M186,15.4c0.2-0.7,0.4-2,0.5-2.9h-19.9c0,0.2,0,0.4,0,0.6c0,2.4-1.6,2.9-2.1,2.9c-0.6,0-1.1-0.6-1.1-1.2
	c0-0.5,0.3-1,0.9-1.4c0.7-0.3,1.4-1.4,1.4-3h0.4c0.2,0.5,0.3,0.9,0.4,1.3h0.8l-0.4-10.3l2.5,0.6c1-0.6,2.1-1.4,2.7-1.9l2.1,1.8
	c-0.1,0.1-0.2,0.1-0.4,0.1c-0.1,0-0.3,0-0.5-0.1c-1,0.3-2.6,0.7-4.2,1l0.1,2.3h1.7l0.9-1.2l1.8,1.4c-0.2,0.4-0.5,0.6-1.2,0.6h-3.2
	l0.1,2.6h1.7l0.9-1.3l1.8,1.4c-0.2,0.4-0.5,0.6-1.2,0.6h-3.2l0.1,2.5h14.5l0.1-2.5h-3.4l-0.2-0.7h3.6l0.1-2.6h-3.4l-0.2-0.7h3.6
	l0.1-2.6h-3.8L180.3,2h3.7l1-1.3l2.3,2.1c-0.2,0.2-0.5,0.3-1,0.4l-0.3,8.6h0.2l1.4-1.5l2.4,2.5c-0.2,0.2-0.5,0.3-1.1,0.3
	c-0.7,0.7-1.8,1.8-2.7,2.5L186,15.4L186,15.4z M185.5,20.8l1.5-2.1l2.7,2.1c-0.2,0.4-0.5,0.6-1.4,0.6h-10.5v3.7
	c0,1.9-0.4,3.2-3.4,3.5c0-1.8-0.9-2.3-3.3-2.5v-0.5h3.8c0.5,0,0.6-0.2,0.6-0.6v-3.7h-11.8l-0.2-0.7h12v-1.9l2,0.1
	c1.1-0.8,2.3-1.9,3.2-2.8h-11.9l-0.2-0.7H181l1.4-1.5l2.4,2.5c-0.2,0.2-0.5,0.3-1.1,0.3c-1.4,0.7-3.4,1.6-5.2,2.2l0.5,0
	c0,0.4-0.2,0.6-1.1,0.7v1H185.5z M174.5,7c1,0.2,1.9,0.4,2.5,0.8c0.5-0.6,0.9-1.3,1.1-1.9l2.1,1.1c-0.1,0.2-0.3,0.3-0.5,0.3
	c-0.1,0-0.3,0-0.5-0.1c-0.3,0.4-0.7,0.9-1.1,1.4c0.7,0.6,1,1.3,1,1.8c0,0.5-0.3,0.9-0.7,0.9c-0.2,0-0.3-0.1-0.5-0.2
	c-0.2-0.5-0.5-0.9-0.9-1.4c-0.9,0.8-2,1.4-3.1,1.9l-0.3-0.5c0.9-0.6,1.8-1.4,2.6-2.3c-0.6-0.6-1.2-1.1-1.8-1.4L174.5,7L174.5,7z
	 M179.8,1.7c-0.1,0.2-0.3,0.3-0.5,0.3c-0.1,0-0.3,0-0.4-0.1c-0.3,0.4-0.6,0.8-0.9,1.2c0.7,0.5,1,1.2,1,1.7c0,0.5-0.3,0.8-0.7,0.8
	c-0.1,0-0.3,0-0.5-0.1c-0.2-0.4-0.6-0.8-1-1.2c-0.9,0.7-1.9,1.4-2.8,1.8l-0.3-0.5c0.8-0.6,1.6-1.4,2.2-2.2c-0.6-0.5-1.1-0.9-1.6-1.2
	l0.1-0.4c0.9,0.1,1.6,0.3,2.3,0.6c0.4-0.6,0.8-1.2,1.1-1.8L179.8,1.7L179.8,1.7z"/>
<path class="st0" d="M204.9,13.7h20.8l1.9-2.7l3.6,2.8c-0.3,0.6-0.7,0.8-1.6,0.8h-24.6L204.9,13.7L204.9,13.7z"/>
<path class="st0" d="M259.5,1.5l2.7,2.1c-0.2,0.2-0.6,0.5-1.2,0.6v21.2c0,1.8-0.5,3.1-3.3,3.3c0-2-1-2.3-3-2.5v-0.4h3.5
	c0.4,0,0.5-0.1,0.5-0.5v-8.4h-5.6c-0.4,4.4-1.8,8.6-6.3,11.6l-0.4-0.3c0.8-0.8,1.4-1.6,2-2.5c-0.1,0.1-0.3,0.1-0.5,0.1
	c-0.3,0-0.6-0.1-0.9-0.5c-0.2-1.5-1.3-3.5-2.4-4.6l0.2-0.2c3.4,1.1,4.4,2.8,4.3,4h0c0.9-1.7,1.4-3.6,1.7-5.7
	c-0.2,0.2-0.6,0.3-1.1,0.3h-13.9l-0.2-0.7h3V5.8h-2.3l-0.2-0.7h2.5V0.3l3.3,0.3c0,0.5-0.3,0.6-1.2,0.8v3.8h4.4V0.3l3.4,0.3
	c0,0.5-0.4,0.7-1.2,0.8v3.7h0.4l1-1.7l2.1,1.8c-0.2,0.4-0.5,0.6-1.3,0.6h-2.2v12.9h0.4l1.2-1.9l2.1,1.8c0.2-1.7,0.3-3.6,0.3-5.5V1.8
	l2.5,1.1h4.8L259.5,1.5L259.5,1.5z M242.6,21.8c-0.1,0.3-0.4,0.5-1.1,0.5c-1.4,2.8-3.4,5.1-5.5,6.4l-0.3-0.3
	c1.4-1.7,2.8-4.7,3.7-7.9L242.6,21.8L242.6,21.8z M245.1,5.8h-4.4v3.8h4.4V5.8z M240.7,10.3v3.8h4.4v-3.8H240.7z M240.7,14.8v4h4.4
	v-4H240.7z M253.3,13.2c0,1.1,0,2.1-0.1,3.2h5.6v-6.2h-5.5V13.2z M258.8,3.6h-5.5v5.9h5.5V3.6L258.8,3.6z"/>
<path class="st0" d="M267,13.7h20.8l1.9-2.7l3.6,2.8c-0.3,0.6-0.7,0.8-1.6,0.8h-24.6L267,13.7L267,13.7z"/>
<path class="st0" d="M297.6,11.3c4.8-2.8,10-7.6,12-11.3l3.4,1.1c-0.1,0.4-0.4,0.5-1.2,0.6c3,2.8,7.5,5.4,12.6,6.8l0,0.5
	c-1,0.3-1.5,1.2-1.7,2.2c-4.7-2.2-8.9-5.4-11.3-9.2c-2,2.4-5.4,5.3-9.2,7.5l2,0.9H318l0.9-1.2l2.5,1.8c-0.1,0.2-0.5,0.4-0.9,0.5v5.8
	c0,0.1-0.7,0.7-2.2,0.7V17h-14.4v0.5c0,0.2-0.7,0.9-1.7,0.9h-0.3V9.8c-1.3,0.7-2.6,1.4-4,2L297.6,11.3L297.6,11.3z M315.8,19.2
	l1-1.4l2.7,2.1c-0.2,0.2-0.6,0.5-1,0.5V28c0,0.1-0.6,0.8-2.3,0.8v-1.6h-10.2v0.8c0,0.1-0.3,0.9-2.3,0.9V18.1l2.5,1.1H315.8
	L315.8,19.2z M310,11.1h-6.2v5.2h6.2V11.1z M305.5,11.7c2.1,0.9,2.8,2,2.8,2.9c0,0.7-0.5,1.2-1,1.2c-0.3,0-0.5-0.1-0.8-0.5
	c0-1.1-0.6-2.6-1.3-3.5L305.5,11.7z M316.1,19.9h-10.2v2.9h10.2V19.9z M305.9,26.5h10.2v-2.9h-10.2V26.5z M312.2,7.5l1.2-1.6
	l2.3,1.7c-0.2,0.4-0.6,0.6-1.3,0.6h-7.9l-0.2-0.7H312.2L312.2,7.5z M318.2,11.1H312v5.2h1.2c0.6-1.4,1.3-3.3,1.7-4.7l2.8,1.1
	c-0.1,0.2-0.3,0.4-0.7,0.4c-0.1,0-0.3,0-0.4,0c-0.6,1-1.7,2.3-2.6,3.3h4.1L318.2,11.1L318.2,11.1z"/>
</svg>
