<svg width="173" height="103" viewBox="0 0 173 103" fill="none" xmlns="http://www.w3.org/2000/svg">
<path d="M172.48 0.200195H0V102.85H172.48V0.200195Z" fill="#E8D0A4"/>
<path d="M18.96 32.0195H155.56" stroke="#581804" stroke-width="0.25" stroke-miterlimit="10"/>
<path d="M26.3 12.5498L27.98 13.9098C27.91 14.0098 27.75 14.1298 27.52 14.1798V23.3598C27.52 23.3598 27.07 23.9098 25.73 23.9098V22.5898H21.14V23.2898C21.14 23.5498 20.45 24.0598 19.65 24.0598H19.39V12.7298L21.25 13.5198H25.62L26.31 12.5498H26.3ZM25.73 13.7398H21.14V17.8598H25.73V13.7398ZM21.14 22.3798H25.73V18.0698H21.14V22.3798Z" fill="#844E1A"/>
<path d="M41.73 15.2693C41.63 15.4093 41.48 15.4493 41.14 15.4493H37.15C38.1 17.6793 40.02 19.2793 41.88 20.0593L41.84 20.1993C41.16 20.3493 40.6 20.9593 40.35 21.8593C38.59 20.5293 37.58 18.4293 36.98 15.4493H36.92V20.9293L37.67 19.6993L39.1 21.0293C39.02 21.1693 38.84 21.2093 38.52 21.2093H36.93V23.6293C36.93 23.7793 36.22 24.1393 35.49 24.1393H35.16V21.2093H33.07L33.02 20.9993H35.16V17.8793C34.09 19.6093 32.51 21.0193 30.42 22.0093L30.31 21.8593C32.14 20.2793 33.46 17.7793 34.05 15.4493H30.49L30.43 15.2393H35.16V11.9893L37.48 12.2193C37.46 12.4493 37.35 12.5793 36.93 12.6293V15.2393H39.14L40.07 13.8393L41.74 15.2593L41.73 15.2693Z" fill="#844E1A"/>
<path d="M53.02 21.4601L54.71 22.7501C54.61 22.8901 54.45 22.9301 54.12 22.9301H45.91V23.5601C45.91 23.7001 45.37 24.1501 44.47 24.1501H44.15V12.6001L46.08 13.3501H51.71L52.6 12.1201L54.22 13.3701C54.12 13.5101 53.96 13.5501 53.64 13.5501H45.92V22.7201H52.11L53.04 21.4501L53.02 21.4601ZM51.57 21.7501C51.57 21.8401 51.08 22.1601 50.24 22.1601H49.94V17.5001H48.49C48.48 18.9701 48.22 21.0501 46.1 22.2801L46 22.1401C46.84 20.6801 46.88 18.8201 46.88 17.3001V14.7901L48.51 15.2901C49.56 14.8301 50.66 14.2401 51.28 13.8001L52.84 15.4301C52.77 15.4901 52.66 15.5301 52.52 15.5301C52.38 15.5301 52.21 15.4901 52.01 15.4001C51.11 15.5801 49.76 15.7101 48.49 15.7601V17.3001H51.57L52.38 16.2101L53.88 17.3201C53.8 17.4701 53.62 17.5001 53.31 17.5001H51.57V21.7501Z" fill="#844E1A"/>
<path d="M56.29 19.1097C57.15 17.4797 58.08 14.5997 58.54 11.9697L60.86 12.7097C60.81 12.8797 60.69 12.9797 60.36 12.9797C60.06 13.8197 59.73 14.6097 59.36 15.3197L59.86 15.5097C59.82 15.6397 59.73 15.7197 59.49 15.7697V23.6197C59.47 23.7497 58.76 24.1397 58.09 24.1397H57.77V17.7997C57.35 18.3097 56.9 18.7897 56.42 19.1997L56.29 19.1097ZM67.87 14.5797C67.77 14.7197 67.6 14.7597 67.27 14.7597H64.59V17.3497H64.97L65.79 16.1697L67.3 17.3697C67.22 17.5097 67.03 17.5497 66.72 17.5497H64.59V20.1997H65.02L65.92 18.9197L67.55 20.2297C67.45 20.3697 67.28 20.4097 66.96 20.4097H64.59V23.6697C64.59 23.7897 64.05 24.1597 63.14 24.1597H62.81V14.7997C62.07 16.1597 61.19 17.2297 60.16 18.0497L60.03 17.9597C60.73 16.5997 61.46 14.2097 61.83 11.9797L64.15 12.7397C64.1 12.9097 63.98 13.0097 63.65 13.0097C63.44 13.5597 63.2 14.0697 62.95 14.5597H65.37L66.26 13.2897L67.88 14.5797H67.87Z" fill="#844E1A"/>
<path d="M83.81 14.7596L84.95 15.9295C84.87 16.0195 84.78 16.0395 84.57 16.0595C84.24 16.3495 83.72 16.7395 83.27 16.9695L83.55 17.1895C83.47 17.2995 83.34 17.3395 83.08 17.3395H81.14C81.31 18.2095 81.62 18.9195 82.01 19.4895C82.49 18.9195 83 18.1895 83.25 17.7195L84.56 18.6996C84.52 18.7696 84.45 18.8195 84.34 18.8195C84.29 18.8195 84.24 18.8195 84.19 18.7995C83.67 19.0995 82.93 19.4695 82.21 19.7495C82.93 20.6895 83.88 21.2596 84.91 21.6996L84.88 21.8195C84.31 21.9095 83.85 22.3595 83.62 23.0595C82.16 21.8995 81.36 20.4796 81.02 17.4796C80.67 17.8096 80.24 18.1095 79.74 18.3695C80.98 19.2695 81.43 20.6596 81.43 21.7896C81.43 23.7396 80.38 23.9095 79.48 23.9095C79.46 22.8695 79.08 22.7095 78.42 22.5795V22.4796H79.61C79.75 22.4796 79.85 22.4595 79.9 22.3795C80 22.2095 80.07 21.9295 80.1 21.5895C78.91 22.2095 77.38 22.6695 75.85 22.8195L75.82 22.6795C77.47 22.1895 79.08 21.1495 79.99 19.9995L79.97 19.8795C78.9 20.4195 77.43 20.8995 76.09 21.0895L76.05 20.9796C77.34 20.4796 78.72 19.5095 79.48 18.6195L79.43 18.5396C78.49 18.9896 77.36 19.3195 76.17 19.5295L76.12 19.3795C77.39 18.8895 78.52 18.1095 79.23 17.3595H77.27L77.23 17.1895H81.68L82.35 16.2596L83.11 16.8495C83.17 16.5095 83.23 16.0295 83.26 15.6595H77.49C77.49 15.7595 77.51 15.8695 77.51 15.9595C77.51 16.6995 77.15 17.2095 76.58 17.2095C76.2 17.2095 75.85 16.9896 75.85 16.5396C75.85 16.2096 76.07 15.9495 76.36 15.8095C76.71 15.6695 77.14 15.2795 77.17 14.8395H77.29C77.37 15.0695 77.43 15.2895 77.46 15.4895H79.65V14.0195L81.47 14.2095C81.45 14.3395 81.37 14.4295 81.1 14.4695V15.4895H83.15L83.81 14.7695V14.7596Z" fill="#844E1A"/>
<path d="M88.96 15.3693L90.25 16.3693C90.18 16.4593 90.06 16.5493 89.86 16.5993V22.1793C89.86 22.1793 89.51 22.5493 88.55 22.5493V21.6793H87.51V22.4193C87.51 22.4193 87.34 22.9593 86.25 22.9593V15.5093L87.3 15.9793C87.37 15.4393 87.45 14.6493 87.49 14.0893L89.42 14.3993C89.39 14.5993 89.27 14.6793 88.98 14.6893C88.69 15.0893 88.2 15.6893 87.87 16.0793H88.45L88.95 15.3693H88.96ZM88.55 16.2393H87.51V18.7093H88.55V16.2393ZM87.51 21.5093H88.55V18.8793H87.51V21.5093ZM93.67 15.3393L95 16.4593C94.92 16.5593 94.79 16.6393 94.56 16.6793C94.48 21.0093 94.37 22.7593 93.78 23.3393C93.39 23.7393 92.98 23.8993 92.21 23.9093C92.23 23.0593 92.07 22.6593 90.94 22.3993V22.2893C91.4 22.3093 92.08 22.3193 92.35 22.3193C92.51 22.3193 92.59 22.2993 92.69 22.1993C93.05 21.8593 93.14 19.8993 93.21 16.2893H91.81C91.34 17.4593 90.74 18.4093 89.99 19.1393L89.87 19.0693C90.32 17.9093 90.73 15.8693 90.89 14.0293L92.73 14.4893C92.7 14.6293 92.61 14.7093 92.34 14.7293C92.2 15.2193 92.05 15.6893 91.88 16.1193H93.1L93.67 15.3293V15.3393ZM90.89 18.2493C92.26 18.6593 92.73 19.3093 92.73 19.8393C92.73 20.3393 92.33 20.7293 91.92 20.7293C91.7 20.7293 91.47 20.6293 91.28 20.3693C91.28 20.2693 91.3 20.1593 91.3 20.0493C91.3 19.4293 91.14 18.7493 90.83 18.2993L90.9 18.2493H90.89Z" fill="#844E1A"/>
<path d="M98.53 14.9299L99 14.2699L100.25 15.2099C100.2 15.2899 100.09 15.3799 99.91 15.4099V18.5499C99.91 18.5499 99.56 18.8699 98.62 18.8699V18.1299H97.58V23.2899C97.58 23.3399 97.41 23.9099 96.21 23.9099V14.2899L97.63 14.9099H98.52L98.53 14.9299ZM98.63 15.0999H97.59V16.4299H98.63V15.0999ZM97.59 17.9699H98.63V16.5999H97.59V17.9699ZM103.42 14.1699L104.76 15.2299C104.7 15.3199 104.58 15.4099 104.38 15.4599V22.1799C104.38 23.1199 104.12 23.8099 102.52 23.9199C102.52 22.6299 101.81 22.5099 101.08 22.4099V22.2899H102.8C102.92 22.2899 102.96 22.2399 102.96 22.1399V18.1299H101.9V18.2999C101.9 18.2999 101.7 18.8199 100.59 18.8199V14.3599L101.93 14.9299H102.86L103.4 14.1699H103.42ZM102.97 15.0999H101.91V16.4299H102.97V15.0999ZM101.91 17.9699H102.97V16.5999H101.91V17.9699Z" fill="#844E1A"/>
<path d="M114.86 15.1396C114.79 15.2496 114.67 15.2896 114.39 15.2896H111.25C110.75 15.9796 110.08 16.7796 109.51 17.3296H112.47L113.08 16.4796L114.43 17.5696C114.36 17.6596 114.26 17.7396 114.02 17.7796V23.4296C114.02 23.4996 113.57 23.8296 112.82 23.8296H112.57V23.0496H107.92V23.4896C107.92 23.5896 107.49 23.9296 106.79 23.9296H106.54V16.7496L108.04 17.3396H109.13C109.17 16.7696 109.21 15.9496 109.23 15.2996H105.77L105.72 15.1296H112.7L113.46 14.0996L114.86 15.1496V15.1396ZM107.91 17.4896V22.8696H108.6V17.4896H107.91ZM110.59 17.4896H109.85V19.0996H110.59V17.4896ZM110.59 20.9496V19.2696H109.85V20.9496H110.59ZM109.85 21.1196V22.8796H110.59V21.1196H109.85ZM112.56 17.4996H111.85V22.8796H112.56V17.4996Z" fill="#844E1A"/>
<path d="M124.71 20.6995C124.64 20.8195 124.52 20.8495 124.24 20.8495H120.83C121.6 22.0395 123.27 22.3295 124.92 22.4095V22.5295C124.39 22.7195 124.06 23.2195 123.93 23.9495C122.3 23.4395 121.21 22.6895 120.66 20.8495H120.6C120.25 22.3395 119.31 23.3695 115.83 23.9595L115.77 23.8095C118 22.9795 118.75 22.0395 119.02 20.8395H115.82L115.77 20.6695H119.06C119.15 20.1895 119.17 19.6595 119.19 19.0895L121.16 19.2295C121.16 19.3595 121.06 19.4495 120.78 19.4895C120.74 19.9195 120.7 20.3095 120.63 20.6795H122.67L123.39 19.6895L124.71 20.6995ZM115.8 18.6995H119.4V17.3695H116.64L116.59 17.1995H119.4V15.8495H116.2L116.15 15.6795H118.25C118.1 15.6295 117.97 15.5295 117.85 15.3695C117.87 14.9095 117.75 14.3795 117.49 14.0695L117.54 14.0195C118.87 14.1095 119.31 14.5595 119.31 14.9695C119.31 15.2895 119.05 15.5795 118.73 15.6895H120.97C121.12 15.1895 121.28 14.4695 121.36 13.9795L123.15 14.5695C123.11 14.6795 123.02 14.7495 122.77 14.7295C122.39 15.0295 121.78 15.4095 121.22 15.6895H122.5L123.19 14.7395L124.46 15.7095C124.39 15.8295 124.26 15.8595 124 15.8595H120.86V17.2095H122.1L122.75 16.3395L123.96 17.2295C123.89 17.3495 123.76 17.3795 123.5 17.3795H120.87V18.7095H122.77L123.48 17.6995L124.78 18.7295C124.7 18.8395 124.58 18.8795 124.3 18.8795H115.88L115.83 18.7095L115.8 18.6995Z" fill="#844E1A"/>
<path d="M134.86 15.4393C134.79 15.5593 134.67 15.5893 134.41 15.5893H131.72C131.8 16.2893 131.95 16.9493 132.22 17.5493C132.41 17.0793 132.58 16.5693 132.7 16.0293L134.33 16.7093C134.28 16.8293 134.18 16.9093 133.91 16.8893C133.63 17.5793 133.29 18.1493 132.91 18.6293C133.28 19.0093 133.66 19.2893 133.8 19.2893C133.86 19.2893 133.91 19.2593 133.95 19.1893C134.09 18.9593 134.36 18.4693 134.53 18.0893H134.58L134.43 19.5393C134.69 19.8893 134.8 20.1293 134.8 20.3193C134.8 20.5893 134.56 20.9093 134.08 20.9093C133.13 20.9093 132.16 19.8593 131.95 19.6093C131.52 19.9493 131.06 20.2093 130.57 20.4293C131.03 20.6193 131.21 20.9293 131.21 21.2293C131.21 21.6393 130.9 22.0093 130.51 22.0093C130.37 22.0093 130.21 21.9593 130.06 21.8293C129.97 21.5693 129.83 21.2993 129.66 21.0493C129.64 21.1193 129.57 21.1893 129.36 21.2193V22.4393C129.36 22.586 129.457 22.6593 129.65 22.6593H131.07C131.34 22.6593 131.43 22.6593 131.54 22.5293C131.66 22.3893 131.82 22.0693 132.05 21.5193H132.11V22.5693C132.55 22.7493 132.61 22.8093 132.61 22.9993C132.61 23.4993 132.3 23.7893 131.04 23.7893H129.53C128.3 23.7893 128 23.5393 128 22.4493V20.9093L129.61 21.0093C129.44 20.7593 129.22 20.5293 129 20.3793L129.04 20.3093C129.22 20.2893 129.4 20.2893 129.55 20.2893C129.79 20.2893 130 20.2993 130.18 20.3393C130.64 19.9893 131.07 19.5193 131.45 18.9693C131.03 18.3193 130.76 17.6093 130.59 16.8293H127.73C127.73 17.0293 127.73 17.1393 127.73 17.2893L128.91 17.7893H129.28L129.7 17.2093L130.87 18.0593C130.82 18.1193 130.72 18.1993 130.56 18.2393V19.6993C130.56 19.6993 130.23 19.9893 129.37 19.9893V19.5493H128.88V19.8393C128.88 19.8393 128.73 20.2893 127.72 20.2893V17.6493C127.62 18.7893 127.23 20.1893 125.72 21.0693L125.65 20.9893C126.41 19.7493 126.47 18.1693 126.47 16.8993V14.9293L127.94 15.4693H130.41C130.37 15.0093 130.34 14.5393 130.33 14.0593L132.02 14.1993C132.02 14.3293 131.94 14.4093 131.65 14.4493C131.65 14.7893 131.67 15.1393 131.71 15.4693H133.13L133.74 14.6493L134.87 15.4893L134.86 15.4393ZM127.35 21.0193C127.48 21.3893 127.53 21.7293 127.53 22.0193C127.53 22.9293 127 23.3793 126.45 23.3793C126.01 23.3793 125.65 23.0993 125.65 22.6793C125.65 22.2993 125.93 22.0293 126.25 21.9093C126.69 21.8293 127.19 21.4893 127.24 21.0193H127.36H127.35ZM129.89 15.7893L130.49 16.2593C130.46 16.0393 130.42 15.8193 130.4 15.5893H127.73V16.6193H129.3L129.89 15.7893ZM129.36 17.9093H128.87V19.3393H129.36V17.9093ZM132.02 14.0393C133.07 14.0493 133.42 14.3593 133.42 14.6693C133.42 14.9593 133.09 15.2493 132.74 15.2493C132.57 15.2493 132.39 15.1793 132.25 14.9893C132.25 14.6693 132.12 14.2993 131.96 14.0793L132.02 14.0293V14.0393ZM132.18 20.8893C134.1 21.0593 134.72 21.8493 134.72 22.4893C134.72 22.9693 134.37 23.3593 133.95 23.3593C133.78 23.3593 133.59 23.2993 133.41 23.1293C133.23 22.3393 132.75 21.4493 132.13 20.9393L132.18 20.8793V20.8893Z" fill="#844E1A"/>
<path d="M135.5 18.8695C137.17 17.6895 138.47 15.5495 138.77 14.0195L140.88 14.5995C140.84 14.7595 140.71 14.8195 140.35 14.8595C141.33 15.9395 143.48 16.7695 144.85 17.1095V17.2896C144.21 17.4896 143.81 18.2195 143.71 18.8195C142.29 18.2095 140.85 16.5595 140.21 14.9895C139.54 16.5495 137.65 18.1296 135.57 18.9796L135.51 18.8795L135.5 18.8695ZM142.62 23.2495L143.34 22.2395L144.66 23.2695C144.58 23.3895 144.46 23.4196 144.19 23.4196H136.01L135.96 23.2495H139.41V20.9395H136.93L136.88 20.7695H139.4V18.6095H137.34L137.3 18.4395H141.03L141.67 17.5595L142.86 18.4695C142.79 18.5895 142.66 18.6195 142.4 18.6195H140.88V20.7795H141.83L142.52 19.8395L143.79 20.7995C143.72 20.9095 143.59 20.9496 143.33 20.9496H140.89V23.2596H142.63L142.62 23.2495Z" fill="#844E1A"/>
<path d="M154.71 15.1396C154.64 15.2496 154.52 15.2896 154.24 15.2896H151.1C150.6 15.9796 149.93 16.7796 149.36 17.3296H152.32L152.93 16.4796L154.28 17.5696C154.21 17.6596 154.11 17.7396 153.87 17.7796V23.4296C153.87 23.4996 153.42 23.8296 152.67 23.8296H152.42V23.0496H147.77V23.4896C147.77 23.5896 147.34 23.9296 146.64 23.9296H146.39V16.7496L147.89 17.3396H148.98C149.02 16.7696 149.06 15.9496 149.08 15.2996H145.62L145.57 15.1296H152.55L153.31 14.0996L154.71 15.1496V15.1396ZM147.76 17.4896V22.8696H148.45V17.4896H147.76ZM150.44 17.4896H149.7V19.0996H150.44V17.4896ZM150.44 20.9496V19.2696H149.7V20.9496H150.44ZM149.7 21.1196V22.8796H150.44V21.1196H149.7ZM152.41 17.4996H151.7V22.8796H152.41V17.4996Z" fill="#844E1A"/>
<path d="M64.57 94.01H63.68V93.3H59.15V93.98H58.26V85.5H64.57V94V94.01ZM63.68 88.84V86.44H59.15V88.84H63.68ZM63.68 92.4V89.78H59.15V92.4H63.68Z" fill="#40220F"/>
<path d="M70.02 86.75V85.21H70.94V86.75H74.51V87.68H71.79C72.1 88.37 72.47 89.01 72.91 89.61C73.37 90.22 74.01 90.88 74.83 91.59L74.23 92.41C73.35 91.61 72.64 90.81 72.11 89.99C71.66 89.35 71.28 88.58 70.97 87.69H70.94V91.48H73.01V92.38H70.94V94.06H70.02V92.38H68.06V91.48H70.02V87.69H69.98C69.71 88.53 69.42 89.19 69.15 89.67C68.68 90.6 67.89 91.58 66.8 92.61L66.31 91.71C67.09 90.98 67.72 90.27 68.15 89.57C68.5 89.07 68.81 88.45 69.09 87.7H66.55V86.77H70.01L70.02 86.75Z" fill="#40220F"/>
<path d="M78.88 87.6403C78.93 87.1203 78.96 86.5503 78.96 85.9203V85.2803H79.89V85.9203C79.89 86.5303 79.85 87.1103 79.8 87.6403H83.56V88.5803H80.8C81 89.5603 81.29 90.3603 81.68 90.9703C82.18 91.7903 82.86 92.4503 83.71 92.9703L83.17 93.9103C82.16 93.1803 81.4 92.3703 80.91 91.4703C80.44 90.6803 80.1 89.7103 79.9 88.5803H79.66C79.53 89.2303 79.35 89.8103 79.13 90.3303C78.64 91.4903 77.7 92.6703 76.29 93.8703L75.51 93.1603C76.81 92.2003 77.74 91.1503 78.27 90.0403C78.47 89.6503 78.64 89.1603 78.75 88.5803H75.69V87.6403H78.88Z" fill="#40220F"/>
<path d="M89.37 85.8399V85.1699H90.19V85.8399H92.36V87.2199H92.86V87.9399H92.36V89.3599H90.19V89.9599H92.43V90.6299H90.19V91.2999H92.83V92.0099H90.19V92.8299C90.32 92.8299 90.45 92.8299 90.57 92.8299C91.64 92.8299 92.44 92.8099 92.97 92.7599L92.82 93.7299C89.99 93.7299 88.27 93.6599 87.65 93.5299C87.08 93.3799 86.64 93.1499 86.31 92.8399C86.27 92.8099 86.24 92.7799 86.21 92.7399C85.92 93.1199 85.53 93.5299 85.01 93.9599L84.55 93.0599C85.02 92.7199 85.4 92.3499 85.66 91.9499C85.39 91.4699 85.1 90.8099 84.79 89.9799L85.5 89.7199C85.71 90.2699 85.9 90.7199 86.08 91.0599C86.1 91.0199 86.11 90.9699 86.13 90.9299C86.25 90.5199 86.33 89.9399 86.38 89.1899H84.83V88.5999C85.38 87.9099 85.88 87.1399 86.34 86.3199H84.69V85.5999H87.29V86.4299C86.77 87.3099 86.3 88.0099 85.89 88.5299H87.26C87.23 89.6099 87.12 90.4699 86.94 91.1199C86.85 91.4299 86.76 91.6999 86.65 91.9499C86.87 92.2099 87.19 92.4099 87.6 92.5399C87.95 92.6599 88.54 92.7299 89.36 92.7799V91.9999H87.19V91.2899H89.36V90.6199H87.58V89.9499H89.36V89.3499H87.68V88.6799H89.36V87.9299H87.19V87.2099H89.36V86.4999H87.68V85.8299H89.36L89.37 85.8399ZM90.19 87.2199H91.54V86.5099H90.19V87.2199ZM90.19 88.6899H91.54V87.9399H90.19V88.6899Z" fill="#40220F"/>
<path d="M100.98 87.5697V88.3597H99.96C100.62 88.9897 101.17 89.6197 101.63 90.2297L101.06 90.8197C100.9 90.5697 100.71 90.3197 100.51 90.0697C99.91 90.1497 99.18 90.2097 98.31 90.2697V91.1597H101.59V91.9897H98.31V92.8397H101.99V93.6297H93.86V92.8397H97.46V91.9897H94.28V91.1597H97.46V90.3197C96.58 90.3697 95.61 90.4097 94.53 90.4397L94.32 89.5897C94.74 89.5897 95.15 89.5897 95.54 89.5897C95.92 89.2097 96.24 88.7997 96.49 88.3597H94.92V87.5697H100.98ZM98.48 86.0297H101.98V87.9897H101.12V86.8597H94.74V87.9897H93.88V86.0297H97.55C97.45 85.7797 97.34 85.5497 97.23 85.3197L98.16 85.1797C98.27 85.4397 98.37 85.7297 98.47 86.0297H98.48ZM99.31 88.7797L99.72 88.3697H97.42C97.23 88.7597 96.96 89.1697 96.62 89.5797C97.94 89.5597 99.05 89.4997 99.92 89.4097C99.73 89.2097 99.53 88.9997 99.31 88.7897V88.7797Z" fill="#40220F"/>
<path d="M110.56 92.9301C110.56 93.2601 110.48 93.5101 110.32 93.6801C110.17 93.8301 109.98 93.9102 109.74 93.9102H108.21L108.04 92.9702L109.39 93.0501C109.58 93.0301 109.68 92.9002 109.68 92.6402V91.3701L109.14 92.0302C108.62 91.5102 108.2 91.0102 107.88 90.5302C107.57 90.0602 107.31 89.5302 107.08 88.9402C106.93 89.3102 106.79 89.6401 106.62 89.9301C106.2 90.6801 105.59 91.4402 104.79 92.1902L104.43 91.5702V93.9601H103.54V87.1002H106.64V86.1602H104.68V85.4102H107.53V87.1002H110.56V92.9402V92.9301ZM105.94 89.3301C106.16 88.9401 106.37 88.4501 106.55 87.8701H104.42V91.1801C105.12 90.5101 105.62 89.8901 105.93 89.3301H105.94ZM108.28 89.4802C108.58 90.0302 109.05 90.5601 109.68 91.0801V87.8701H107.55C107.75 88.4801 107.99 89.0202 108.28 89.4802Z" fill="#40220F"/>
<path d="M114.3 85.5502C114.13 86.1702 113.95 86.7202 113.77 87.1802V93.9102H112.95V88.8202C112.71 89.2202 112.45 89.6202 112.17 90.0002L111.89 88.9502C112.23 88.4302 112.53 87.9002 112.79 87.3602C113.05 86.8602 113.31 86.1402 113.56 85.2002L114.31 85.5502H114.3ZM116.94 89.8602H115.23V93.9502H114.41V85.6602H116.94V89.8602ZM116.13 87.3502V86.3802H115.24V87.3502H116.13ZM116.13 89.1502V88.0602H115.24V89.1502H116.13ZM119.91 85.6602V93.0502C119.91 93.3702 119.82 93.6102 119.65 93.7702C119.5 93.9102 119.26 93.9902 118.91 93.9902H118.09L117.92 93.1302L118.78 93.1702C118.98 93.1702 119.09 93.0502 119.1 92.8002V89.9102H117.38V85.6702H119.92L119.91 85.6602ZM119.09 87.4302V86.3802H118.16V87.4302H119.09ZM119.09 88.1402H118.16V89.2002H119.09V88.1402Z" fill="#40220F"/>
<path d="M95.31 41.0801C96.25 41.2001 97.2 41.2901 98.13 41.4501C99.6 41.7001 101 42.1601 102.27 42.9801C104.57 44.4801 105.47 46.9801 104.68 49.6301C104.02 51.8501 102.72 53.6701 101.14 55.3101C98.36 58.2001 95.25 60.7001 91.72 62.6301C88.09 64.6201 84.25 65.8101 80.05 65.4701C77.74 65.2801 75.67 64.5901 74.24 62.6201C73.39 61.4401 73.01 60.1001 72.97 58.6501C72.87 54.6201 74.57 51.5201 77.81 49.2001C79.17 48.2201 80.62 47.4101 82.21 46.8701C82.38 46.8101 82.56 46.7701 82.74 46.7301C82.81 46.7101 82.88 46.7101 83.04 46.6901V60.4401C83.32 60.4401 83.52 60.4801 83.71 60.4401C88.56 59.2101 92.41 56.6001 94.91 52.1901C95.64 50.8901 96.08 49.4701 96.03 47.9401C95.97 46.0601 95.11 44.6901 93.47 43.8301C91.63 42.8601 89.62 42.7201 87.6 42.7301C87.44 42.7301 87.27 42.7301 87.11 42.7301C87.1 42.7301 87.08 42.7101 86.93 42.6101C88.19 42.2801 89.33 41.9101 90.5 41.6801C91.63 41.4601 92.78 41.3701 93.92 41.2201C94.13 41.1901 94.34 41.1301 94.56 41.0801H95.33H95.31Z" fill="#40220F"/>
<path d="M75.52 78.0398C75.04 77.9398 74.55 77.8598 74.08 77.7298C72.66 77.3498 72.1 76.3998 72.17 75.3398C72.27 74.0398 73.26 73.0898 74.61 73.0198C75.93 72.9498 77.25 72.9898 78.56 72.9798C78.83 72.9798 79.11 72.9798 79.38 72.9498C79.7 72.9098 80.08 72.9198 80.15 72.4898C80.23 72.0198 80.2 71.5198 79.68 71.3198C79.21 71.1398 78.7 70.9898 78.2 70.9798C76.63 70.9398 75.05 70.9698 73.48 70.9598C72.95 70.9598 72.63 70.4998 72.85 70.0198C72.9 69.9198 73.08 69.8398 73.2 69.8398C75.27 69.8198 77.34 69.7997 79.41 69.8297C80.22 69.8397 80.98 70.1198 81.5 70.7798C81.75 71.0998 82.02 71.5098 82.03 71.8898C82.06 73.9398 82.02 75.9898 82 78.0398H75.51H75.52ZM77.63 76.8398C78.34 76.8398 79.06 76.8597 79.77 76.8297C79.92 76.8297 80.17 76.6497 80.18 76.5497C80.24 75.7897 80.27 75.0198 80.25 74.2498C80.25 74.0998 79.98 73.8398 79.82 73.8398C78.41 73.8098 77 73.7998 75.6 73.8398C74.69 73.8598 74.06 74.5398 74.07 75.3798C74.07 76.3098 74.6 76.8198 75.61 76.8498C76.29 76.8698 76.96 76.8498 77.64 76.8498L77.63 76.8398Z" fill="#40220F"/>
<path d="M61.44 70.1198C62.77 70.1098 64.11 70.0998 65.44 70.0898C66.37 70.0898 67.31 70.0198 68.24 70.0698C69.98 70.1698 71.27 71.5598 71.51 73.4998C71.8 75.9298 70.05 77.9198 67.59 77.9198C65.54 77.9198 63.49 77.9198 61.44 77.9198V70.1097V70.1198ZM65.61 76.8297C65.61 76.8297 65.61 76.7897 65.61 76.7697C66.3 76.7697 67 76.7897 67.69 76.7697C68.34 76.7397 68.82 76.3998 69.18 75.8698C69.82 74.9398 69.8 73.9097 69.6 72.8597C69.38 71.6297 68.72 71.0098 67.48 70.9998C66.26 70.9898 65.03 71.0597 63.81 71.0797C63.5 71.0797 63.4 71.2197 63.4 71.5197C63.4 73.1097 63.41 74.6998 63.4 76.2898C63.4 76.6998 63.57 76.8397 63.97 76.8297C64.52 76.8097 65.07 76.8297 65.62 76.8297H65.61Z" fill="#40220F"/>
<path d="M116.42 77.71C115.98 77.7 115.54 77.65 115.11 77.67C114.69 77.69 114.58 77.52 114.59 77.13C114.61 75.48 114.59 73.83 114.59 72.18C114.59 70.99 114.09 70.44 112.91 70.41C111.57 70.38 110.24 70.41 108.9 70.4C108.49 70.4 108.43 70.59 108.43 70.95C108.45 73.02 108.45 75.09 108.45 77.16C108.45 77.78 108.44 77.76 107.56 77.78C107.09 77.79 106.88 77.69 106.88 77.14C106.91 74.85 106.91 72.56 106.88 70.27C106.88 69.76 107.04 69.59 107.54 69.6C109.61 69.62 111.68 69.6 113.75 69.62C114.74 69.63 115.58 70.03 116.1 70.9C116.27 71.18 116.31 71.55 116.41 71.88V77.71H116.42Z" fill="#40220F"/>
<path d="M83.65 78.04C83.65 75.53 83.67 73.0299 83.65 70.5199C83.65 69.9699 83.8 69.7299 84.36 69.8099C84.41 69.8099 84.47 69.8099 84.52 69.8099C85.0067 69.8099 85.2533 70.0499 85.26 70.5299C85.26 72.8399 85.26 75.14 85.26 77.45C85.26 77.65 85.29 77.8499 85.31 78.0499H83.66L83.65 78.04Z" fill="#40220F"/>
<path d="M87.06 78.04C87.07 75.64 87.08 73.24 87.09 70.85C87.09 69.78 87.3 69.6 88.37 69.84C88.51 69.87 88.66 70.17 88.67 70.35C88.69 71.96 88.68 73.57 88.69 75.18C88.69 76.13 88.71 77.08 88.72 78.03H87.07L87.06 78.04Z" fill="#40220F"/>
<path d="M101.43 69.6201C102.66 69.6201 103.89 69.6301 105.11 69.6201C105.52 69.6201 105.59 69.8001 105.61 70.1501C105.63 70.5201 105.46 70.6301 105.12 70.6301C103.29 70.6301 101.46 70.6501 99.62 70.6201C99.14 70.6201 98.98 70.7401 99 71.2301C99.05 72.8801 98.77 72.6501 100.43 72.6601C101.97 72.6701 103.51 72.6601 105.05 72.6601C105.41 72.6601 105.63 72.7101 105.63 73.1601C105.63 73.6101 105.45 73.7201 105.04 73.7201C103.21 73.7101 101.38 73.7201 99.54 73.7001C99.14 73.7001 98.95 73.7901 99.01 74.2201C99.03 74.4001 99.01 74.5901 99.01 74.7701C99.01 76.0501 99.61 76.6401 100.91 76.6501C102.28 76.6501 103.66 76.6501 105.03 76.6501C105.41 76.6501 105.65 76.6901 105.64 77.1801C105.63 77.6301 105.45 77.7301 105.04 77.7301C103.26 77.7201 101.49 77.7301 99.71 77.7201C98.46 77.7201 97.19 76.4101 97.18 75.1501C97.18 73.5201 97.19 71.8901 97.17 70.2601C97.17 69.7701 97.33 69.6201 97.8 69.6301C99.01 69.6601 100.22 69.6301 101.43 69.6301V69.6201Z" fill="#40220F"/>
<path d="M96.9 77.6696C96.15 77.6696 95.55 77.6696 94.95 77.6696C94.8 77.6696 94.61 77.6196 94.49 77.5296C92.75 76.1596 91.03 74.7696 89.3 73.3896C89.26 73.3596 89.25 73.2996 89.19 73.1796C89.69 72.8296 90.2 72.4796 90.7 72.1296C91.54 71.5396 92.44 71.0196 93.21 70.3596C94.11 69.5796 95.11 69.7096 96.31 69.7396C94.6 70.9396 93.02 72.0496 91.33 73.2296C93.21 74.7296 95 76.1596 96.9 77.6796V77.6696Z" fill="#40220F"/>
</svg>
