<?xml version="1.0" encoding="utf-8"?>
<!-- Generator: Adobe Illustrator 27.0.0, SVG Export Plug-In . SVG Version: 6.00 Build 0)  -->
<svg version="1.1" id="圖層_1" xmlns="http://www.w3.org/2000/svg" xmlns:xlink="http://www.w3.org/1999/xlink" x="0px" y="0px"
	 viewBox="0 0 173 103" style="enable-background:new 0 0 173 103;" xml:space="preserve">
<style type="text/css">
	.st0{fill:#E8D0A4;}
	.st1{fill:none;stroke:#571704;stroke-width:0.25;stroke-miterlimit:10;}
	.st2{fill:#40210F;}
	.st3{fill:#834E1A;}
</style>
<g>
	<rect x="0.1" y="0.1" class="st0" width="172.5" height="102.6"/>
	<line class="st1" x1="16.1" y1="31.9" x2="152.7" y2="31.9"/>
	<g>
		<g>
			<g>
				<path class="st2" d="M55.6,91.1H54v-6.3h1.6c1,0,1.8,0.3,2.3,0.8c0.6,0.6,0.8,1.3,0.8,2.3C58.7,90.1,57.7,91.1,55.6,91.1z
					 M55.5,85.7h-0.6v4.5h1c0.7,0,1.1-0.2,1.5-0.6c0.3-0.4,0.5-0.9,0.5-1.6C57.8,86.5,57,85.7,55.5,85.7z"/>
				<path class="st2" d="M63.5,90.6c-0.4,0.4-0.9,0.7-1.6,0.7c-0.7,0-1.3-0.2-1.6-0.7c-0.4-0.4-0.6-1-0.6-1.7v-4h0.9V89
					c0,0.4,0.1,0.8,0.4,1c0.2,0.3,0.6,0.4,1,0.4s0.7-0.1,1-0.4c0.2-0.3,0.4-0.6,0.4-1v-4.1h0.9v4C64.1,89.6,63.9,90.1,63.5,90.6z"/>
				<path class="st2" d="M68.5,91.1c-0.1-0.1-0.2-0.4-0.2-0.8c0-0.3-0.1-0.6-0.1-0.9c-0.1-0.4-0.1-0.6-0.2-0.7s-0.3-0.2-0.7-0.2
					h-1.2v2.6h-0.9v-6.3h2.1c0.6,0,1.1,0.2,1.4,0.5c0.4,0.3,0.5,0.8,0.5,1.4c0,0.3-0.1,0.5-0.2,0.8c-0.1,0.2-0.3,0.4-0.5,0.5
					c0.3,0.2,0.5,0.6,0.6,1.1c0,0.2,0.1,0.6,0.1,1.2c0,0.3,0.2,0.5,0.4,0.8H68.5z M67.2,85.7h-1.1v1.9h1c0.3,0,0.6-0.1,0.9-0.2
					c0.3-0.2,0.4-0.4,0.4-0.7C68.3,86.1,67.9,85.7,67.2,85.7z"/>
				<path class="st2" d="M72.8,91.2c-0.8,0-1.5-0.3-2-1c-0.4-0.6-0.6-1.3-0.6-2.2c0-0.9,0.2-1.6,0.6-2.2c0.5-0.7,1.1-1,1.9-1
					c0.6,0,1.1,0.2,1.5,0.5c0.4,0.4,0.6,0.9,0.6,1.6h-0.9c-0.1-0.8-0.4-1.2-1.2-1.2c-0.5,0-0.9,0.3-1.2,0.8c-0.3,0.5-0.4,1-0.4,1.6
					c0,1.6,0.6,2.4,1.9,2.4c0.3,0,0.6-0.1,1-0.2v-1.6h-1.4v-0.9h2.3v3.1C74.3,91.1,73.6,91.2,72.8,91.2z"/>
				<path class="st2" d="M80.3,90.3c-0.5,0.7-1.2,1-2,1c-0.9,0-1.6-0.3-2-1c-0.4-0.6-0.6-1.3-0.6-2.3c0-0.9,0.2-1.7,0.6-2.3
					c0.5-0.7,1.2-1,2.1-1s1.6,0.3,2,1C80.8,86.3,81,87,81,88C80.9,88.9,80.7,89.7,80.3,90.3z M79.6,86.4c-0.3-0.5-0.8-0.8-1.4-0.8
					s-1,0.2-1.3,0.7c-0.3,0.4-0.4,1-0.4,1.6c0,0.7,0.1,1.2,0.4,1.6c0.3,0.5,0.8,0.7,1.3,0.7c0.6,0,1-0.2,1.3-0.7
					c0.3-0.4,0.4-1,0.4-1.6C80,87.3,79.9,86.8,79.6,86.4z"/>
				<path class="st2" d="M84.4,90h-1.6v1H82v-7h2.5L84.4,90L84.4,90z M83.6,89.2v-4.4h-0.8v4.4H83.6z M89.3,83.7
					c-0.2,1.1-0.4,1.9-0.6,2.7h1.2c-0.3,1.6-0.7,2.9-1.3,3.7c0.4,0.5,0.9,0.9,1.5,1.2l-0.5,0.9c-0.7-0.5-1.2-0.9-1.7-1.4
					c-0.6,0.6-1.4,1-2.3,1.4L85,91.3c1.1-0.3,1.8-0.7,2.4-1.2c-0.5-0.7-0.9-1.6-1.2-2.6c-0.2,1-0.4,1.7-0.6,2.4
					c-0.3,0.7-0.8,1.5-1.4,2.3l-0.7-0.7c0.8-1,1.4-2,1.8-3.2c0.3-1,0.5-2,0.5-3.1v-0.8h-0.9v-0.8L89.3,83.7L89.3,83.7z M86.6,85.3
					c0,1.1,0.3,2.2,0.9,3.3c0.2,0.3,0.3,0.5,0.5,0.8c0.3-0.6,0.6-1.3,0.8-2.2h-1.3c0.2-0.6,0.4-1.5,0.7-2.6h-1.6V85.3z"/>
				<path class="st2" d="M93.5,83.5c-0.1,0.2-0.2,0.4-0.3,0.5h5.6v0.8h-6c-0.4,0.7-0.9,1.3-1.4,1.8l-0.6-0.8
					c0.8-0.7,1.4-1.6,1.8-2.5L93.5,83.5z M98,86.6c-0.1,0.4-0.1,0.9-0.1,1.7c0,1.2,0,2.1,0.1,2.5c0,0.2,0.1,0.3,0.2,0.3
					s0.2-0.5,0.3-1.4l0.6,0.5c-0.1,0.9-0.3,1.5-0.5,1.7c-0.1,0.2-0.3,0.2-0.5,0.2s-0.4-0.1-0.6-0.3c-0.2-0.2-0.3-0.5-0.4-1
					c-0.1-0.7-0.2-1.6-0.2-2.6c0-0.3,0-0.6,0-0.9h-2.7v1.4H95c0.2-0.4,0.4-0.8,0.6-1.2l0.8,0.3c-0.2,0.3-0.3,0.7-0.5,0.9h0.9v0.7
					h-2.4V92h-0.9v-2.6c-0.2,0.4-0.4,0.8-0.6,1c-0.4,0.5-0.9,0.9-1.7,1.3l-0.5-0.8c0.7-0.4,1.2-0.7,1.5-1c0.2-0.2,0.3-0.4,0.5-0.6
					H91v-0.7h1.2c-0.2-0.3-0.4-0.6-0.6-0.9l0.7-0.3c0.2,0.3,0.5,0.7,0.7,1.2h0.6v-1.4h-2v-0.8H98V86.6z M98.3,85.4v0.7h-5.5v-0.7
					H98.3z M96.9,91l-0.5,0.8c-0.6-0.5-1.3-0.9-1.9-1.2l0.4-0.6C95.6,90.2,96.3,90.6,96.9,91z"/>
				<path class="st2" d="M103.7,86.6h-1l0.4,0.4c-0.2,0.3-0.3,0.7-0.5,1v3.9H102V89c-0.1,0.2-0.3,0.3-0.4,0.5l-0.5-0.7
					c0.6-0.6,1.1-1.4,1.6-2.3H101v5.6h-0.8v-8.5h3.6L103.7,86.6L103.7,86.6z M102.9,84.8v-0.5h-2v0.5H102.9z M102.9,85.9v-0.5h-2
					v0.5H102.9z M108.1,83.7v7.6c0,0.3-0.1,0.6-0.3,0.7c-0.2,0.1-0.4,0.2-0.8,0.2h-0.5l-0.1-0.6l-0.1,0.1c-0.1,0.1-0.3,0.2-0.4,0.2
					c-0.3,0-0.5-0.1-0.8-0.4c-0.2-0.2-0.4-0.5-0.5-0.8c-0.4,0.2-0.8,0.4-1.4,0.5l-0.4-0.6c0.6-0.2,1.1-0.3,1.5-0.6v-0.1
					c-0.1-0.3-0.1-0.6-0.2-0.9l-1.1,0.2l-0.1-0.7l1.2-0.2c0-0.4,0-0.9,0-1.4h0.7c0,0.4,0,0.8,0,1.2l0.9-0.2
					c-0.1-0.2-0.3-0.5-0.6-0.8l0.5-0.3c0.3,0.3,0.5,0.5,0.7,0.7l-0.5,0.3l0.9-0.2l0.1,0.7l-1.9,0.4c0,0.3,0.1,0.6,0.2,0.8
					c0.3-0.2,0.6-0.5,0.9-0.9l0.6,0.3c-0.3,0.5-0.7,0.9-1.2,1.2c0.2,0.5,0.4,0.7,0.6,0.7c0.1,0,0.3-0.3,0.5-0.9l0.6,0.4
					c-0.1,0.3-0.2,0.6-0.4,0.8h0.2c0.2,0,0.4-0.1,0.4-0.4v-4.4h-2.8v-3h0.4h3.2V83.7z M107.2,84.8v-0.5h-2v0.5H107.2z M107.2,85.4
					h-2v0.5h2V85.4z"/>
			</g>
		</g>
		<g>
			<path class="st2" d="M89.6,49.6c0.6,0.6,0.4,1.1,0,1.7c-1.6,2.4-3.6,4.3-6.5,4.9c-2.3,0.5-4.5,0.2-6.6-0.7c-1-0.4-2-0.6-3.1-0.3
				c-0.9,0.3-1.6,0.1-2.4-0.4c0.1-1.2,1.5-1.7,1.9-2.7c-0.2-0.1-0.3-0.3-0.5-0.4c-0.6,0.7-1.2,1.5-1.9,2.4c-0.4-1.2-0.7-2.1-0.9-3
				c0-0.2,0.2-0.5,0.4-0.6c0.5-0.3,1.1-0.5,1.6-0.8c0.2-0.1,0.4-0.4,0.5-0.5C72,49.1,72,49,71.9,48.9c-0.8,0.4-1.6,0.7-2.5,1.1
				c0-1.1,0-2.1,0-3.1c0-0.2,0.3-0.5,0.5-0.6c0.7-0.2,1.4-0.3,2.1-0.5c0.3-0.1,0.5-0.2,0.8-0.4c0-0.1-0.1-0.3-0.1-0.4
				c-1,0.2-1.9,0.3-2.9,0.5c0-1.5,1.7-3.5,3.2-3.7c0.7-0.1,1.4,0,2.2-0.1c0.6,0,1.3,0,1.8-0.2c2-0.7,4.1-1,6.1-0.5
				c1.1,0.3,2.1,0.9,3.1,1.3c0.4,0.1,0.9,0.1,1.4,0.1c0.2,0,0.5-0.2,0.7-0.3c1.4-0.4,2.5,0.3,2.5,1.8c0,0.9,0.3,1.6,0.7,2.3
				c1.4,2.1,1,4.3,0.2,6.3c-1-2-2.1-4.1-3.1-6.2c-0.1,0-0.2,0.1-0.3,0.1c0.2,0.6,0.3,1.2,0.6,1.7c0.5,0.8,0.4,1.3-0.4,1.9
				c-1.1-1.1-1.9-2.4-2.2-3.9c-0.3-1.4-1.1-2-2.3-2.4c-2-0.7-4-0.5-6,0.7s-2.8,3.1-2.4,5.1c0.4,2.1,2,3.7,4.3,4
				c3.7,0.6,6.7-0.6,9.3-3.3C89.3,50,89.5,49.8,89.6,49.6z M89,45.6c0.7,0,1.1-0.4,1.1-1s-0.4-1-1-1.1c-0.6,0-1,0.4-1.1,1
				C88,45.2,88.4,45.5,89,45.6z"/>
			<path class="st2" d="M50.4,73.3c0-3.8,0-7.5,0-11.3c0.1-0.1,0.1-0.1,0.2-0.1c2.2,0,4.5-0.1,6.6,0.2c2.7,0.3,4.6,2.9,4.6,5.7
				c-0.1,2.9-2.2,5.3-5,5.5C54.6,73.4,52.5,73.3,50.4,73.3z M53.3,71.1c0.7,0,1.3,0,2,0c2.7,0,4.3-2.6,3.1-5.1
				c-0.8-1.6-3-2.4-5.1-1.7C53.3,66.5,53.3,68.7,53.3,71.1z"/>
			<path class="st2" d="M106.1,73.7c-3.1-0.1-5.1-1-6.3-3.3c-1.1-2.2-0.9-4.5,0.6-6.4c1.8-2.3,4.2-2.6,6.9-2
				c2.4,0.6,3.9,2.1,4.3,4.6c0.4,2.6-0.3,4.7-2.6,6.1C108,73.2,106.7,73.4,106.1,73.7z M108.8,67.7c0-2.1-1.3-3.6-3.2-3.6
				c-1.9,0-3.3,1.4-3.4,3.5c0,2,1.4,3.6,3.3,3.6C107.3,71.2,108.7,69.8,108.8,67.7z"/>
			<path class="st2" d="M97.5,65.2c-1.6-0.7-3.1-1.3-4.7-1.1c-1.4,0.1-2.5,0.8-3,2.2c-0.5,1.5-0.4,2.9,0.8,4c1.1,1,2.4,1.2,3.8,0.7
				c0.3-0.1,0.4-0.9,0.7-1.5c-0.7-0.1-1.2-0.1-1.7-0.2c0-0.7,0-1.3,0-2c1.4,0,2.8,0,4.4,0c0,1.5,0,3.1,0,4.6c0,0.2-0.3,0.4-0.5,0.5
				c-2.2,1.3-4.4,1.6-6.8,0.7c-2.6-0.9-4-3.4-3.7-6.5c0.3-2.6,2.4-4.7,5.3-5c1.6-0.2,3.2,0,4.7,0.6c0.6,0.2,1,0.5,0.9,1.3
				C97.5,64.1,97.5,64.5,97.5,65.2z"/>
			<path class="st2" d="M76.5,62c2.1,0,4-0.1,6,0c1.7,0.2,2.5,1,2.7,2.4c0.3,1.5-0.3,2.6-1.6,3.3l-0.1,0.1c1.5,1.5,1.9,3.5,3,5.4
				c-1.2,0-2.1,0-3,0c-0.2,0-0.4-0.3-0.5-0.5c-0.4-0.9-0.8-1.9-1.3-2.8c-0.2-0.4-0.4-0.8-0.7-1c-0.4-0.2-1-0.3-1.5-0.4
				c-0.1,0.4-0.2,0.8-0.3,1.2c0,1.1,0,2.3,0,3.5c-1,0-1.8,0-2.8,0C76.5,69.5,76.5,65.8,76.5,62z M79.3,66.6c1-0.1,2.1,0.4,2.7-0.7
				c0.2-0.4,0.2-1.1-0.1-1.5c-0.7-0.9-1.7-0.5-2.7-0.6C79.3,64.8,79.3,65.6,79.3,66.6z"/>
			<path class="st2" d="M63.3,61.9c0.9,0,1.8,0,2.8,0c0,1.9,0,3.8,0,5.6c0,0.6,0,1.2,0.1,1.7c0.2,1.2,1.1,1.9,2.4,1.9
				s2.2-0.6,2.5-1.8c0.1-0.4,0.1-0.9,0.2-1.4c0-2,0-4,0-6.1c1,0,1.9,0,2.9,0c0,1.2,0,2.4,0,3.6c0,1.3,0,2.7-0.1,4
				c-0.2,1.8-1.2,3-2.8,3.6c-1.8,0.7-3.6,0.6-5.3-0.1c-1.9-0.8-2.6-2.4-2.7-4.3c-0.1-2.2,0-4.3,0-6.5C63.2,62.2,63.3,62.1,63.3,61.9
				z"/>
			<path class="st2" d="M79,51.6c0-1.9,0-3.7,0-5.4c0-0.2,0.4-0.5,0.6-0.5c0.9,0,1.8,0,2.8,0.1c1.5,0.2,2.5,1.4,2.5,2.9
				c0,1.6-1.1,2.8-2.6,2.9C81.2,51.7,80.1,51.6,79,51.6z M80.5,50.4c1,0.1,2,0.2,2.6-0.8c0.4-0.6,0.3-1.7-0.2-2.2
				c-0.7-0.7-1.5-0.6-2.4-0.5C80.5,48.1,80.5,49.2,80.5,50.4z"/>
			<path class="st2" d="M94.4,44.1c-0.7,0.8-1.4,1.5-2.1,2.3c-0.4-0.3-0.5-0.7,0-1c0.6-0.5,1.3-1,1.9-1.4C94.3,44,94.3,44,94.4,44.1
				z"/>
			<path class="st2" d="M89.5,44.6c0,0.2-0.2,0.3-0.3,0.3c-0.2,0-0.3-0.2-0.3-0.3s0.2-0.3,0.3-0.3C89.3,44.2,89.5,44.4,89.5,44.6z"
				/>
		</g>
	</g>
	<g>
		<g>
			<g>
				<path class="st3" d="M24.8,20c0,0.2-0.7,0.5-1.4,0.5H23v-1.2h-1.3v1c0,0.2-0.7,0.5-1.4,0.5h-0.3v-5.2h-1.2v6.7h5.1l0.9-1.4
					l1.6,1.4c-0.1,0.1-0.3,0.2-0.6,0.2h-7v0.8c0,0.2-0.7,0.6-1.4,0.6h-0.3v-8.3h-1.7l0-0.2h1.7v-3.3l2.2,0.2c0,0.2-0.1,0.3-0.5,0.3
					v2.7h1.2V12l2.1,0.2c0,0.2-0.1,0.3-0.5,0.3v3H23v-3.3l2.2,0.2c0,0.2-0.1,0.3-0.5,0.3v2.7l0.7-1.1l1.4,1.2
					c-0.1,0.1-0.2,0.2-0.6,0.2h-1.6V20z M21.8,19.1H23v-3.4h-1.3V19.1z"/>
				<path class="st3" d="M36.6,17.3h-1.4c0.9,1.2,2.8,1.8,4.5,2l0,0.2c-0.6,0.2-1,0.8-1.2,1.7c-0.8-0.4-1.5-0.8-2-1.3v3.8
					c0,0.1-0.8,0.4-1.4,0.4h-0.3v-5.5l0.8,0.1c-0.2-0.4-0.4-0.8-0.6-1.3h-1c-0.3,0.5-0.7,1-1.2,1.4l0.7,0.1c0,0.2-0.1,0.2-0.4,0.3
					v1.2c0,1.6-0.7,3.2-4.6,3.8l0-0.1c2.5-0.9,2.9-2.4,2.9-3.7v-0.6c-0.8,0.5-1.8,0.8-3,1.1l-0.1-0.2c1.6-0.7,2.9-1.9,3.5-3.3h-0.3
					c0,0.2-0.3,0.7-1.7,0.7v-6l1.8,0.7h4.8l0.6-0.9l1.7,1.3c-0.1,0.1-0.2,0.2-0.5,0.3v4c0,0-0.5,0.4-1.7,0.4V17.3z M33.2,12.9h-1.6
					v1.9h1.6V12.9z M31.6,17.1h1.6v-2h-1.6V17.1z M36.6,12.9h-1.7v1.9h1.7V12.9z M34.9,17.1h1.7v-2h-1.7V17.1z"/>
				<path class="st3" d="M52.9,16.8c-0.1,0.1-0.3,0.2-0.6,0.2h-2.4c-0.4,0.6-0.9,1.3-1.4,1.8h1.9l0.6-0.9l1.7,1.3
					c-0.1,0.1-0.3,0.2-0.5,0.3v2.6c0,1-0.2,1.8-1.7,2c0-1,0-1.5-0.3-1.6v0.9c0,0.1-0.4,0.3-0.9,0.3H49V19h-0.3v4.4
					c0,0.1-0.4,0.3-0.9,0.3h-0.2V19h-0.4v4.4c0,0-0.2,0.6-1.5,0.6v-5.9l1.6,0.7h0.6C48,18.2,48,17.5,48,17h-2.8l0-0.1h-1.1V20
					c0.5-0.1,1-0.2,1.6-0.3l0,0.1c-0.6,0.6-1.7,1.3-3.3,2.3c-0.1,0.2-0.2,0.3-0.4,0.3l-0.8-2.1c0.3,0,0.7-0.1,1.2-0.2v-3.4h-1
					l-0.1-0.2h1v-3.3h-1.1l0-0.2h2.5l0.7-1.2l1.2,1.2v-0.5l1.9,0.2c0,0.1-0.1,0.2-0.3,0.3V15h0.7v-3.1l2.1,0.2
					c0,0.2-0.1,0.3-0.5,0.3V15h0.8v-2.4l2.1,0.2c0,0.2-0.1,0.3-0.5,0.3v2.4c0,0.1-0.2,0.1-0.5,0.2L52.9,16.8z M45.7,16.7
					C45.7,16.7,45.7,16.7,45.7,16.7l4.8,0.1l0.6-0.9c-0.2,0-0.3,0-0.6,0v-0.7h-3.1v0.6c0,0-0.3,0.4-1.6,0.4v-2.9
					c-0.1,0.1-0.3,0.1-0.5,0.1h-1.1v3.2l0.5-1L45.7,16.7z M50.5,19h-0.4v3.2h0.3c0,0,0.1-0.1,0.1-0.2V19z"/>
				<path class="st3" d="M64.7,19.4l1.2,1.2c-0.1,0.1-0.2,0.2-0.6,0.2h-11l0-0.2h1.5v-6.9l1.7,0.7h0.5v-2.5l1.9,0.2
					c0,0.1-0.1,0.2-0.4,0.3v2h0.6v-2.5l1.9,0.2c0,0.1-0.1,0.2-0.4,0.3v2h0.5l0.7-1l1.7,1.2c-0.1,0.1-0.2,0.2-0.5,0.3v5.3L64.7,19.4z
					 M59.8,21.9c-0.1,0.1-0.2,0.2-0.5,0.2c-0.1,0-0.1,0-0.2,0c-1,0.8-2.7,1.6-4.6,2l0-0.1c1.4-0.8,2.7-2.1,3.3-3.2L59.8,21.9z
					 M58.1,14.6h-0.6v2.8h0.6V14.6z M57.5,20.5h0.6v-3h-0.6V20.5z M60.2,14.6h-0.6v2.8h0.6V14.6z M60.2,20.5v-3h-0.6v3H60.2z
					 M60.9,21.3c3.6,0.2,4.6,1.1,4.6,1.9c0,0.5-0.5,0.9-1,0.9c-0.3,0-0.6-0.1-0.8-0.3c-0.5-0.7-1.3-1.6-2.9-2.3L60.9,21.3z
					 M62.4,14.6h-0.6v2.8h0.6V14.6z M61.8,17.6v3h0.6v-3H61.8z"/>
			</g>
		</g>
		<g>
			<g>
				<path class="st3" d="M81.1,14.7l1.1,1.2c-0.1,0.1-0.2,0.1-0.4,0.1c-0.3,0.2-0.7,0.6-1.1,0.8l0.3,0.2c-0.1,0.1-0.2,0.1-0.5,0.1
					h-4.1l1.3,0.4c0,0.1-0.1,0.2-0.4,0.2c-0.3,0.4-0.8,0.7-1.3,1.1c1,0,2.1,0,3.3-0.1c-0.3-0.3-0.6-0.6-0.9-0.8l0-0.1
					c2.2-0.1,2.9,0.8,2.9,1.4c0,0.4-0.3,0.8-0.7,0.8c-0.1,0-0.3,0-0.4-0.1c-0.2-0.3-0.4-0.6-0.6-0.9c-0.7,0.2-1.5,0.4-2.5,0.6
					l1.6,0.2c0,0.1-0.1,0.2-0.4,0.3v1.1h1.2l0.6-0.9l1.2,0.9c-0.1,0.1-0.2,0.1-0.5,0.1h-2.6v1.9h1.8l0.7-0.9l1.2,0.9
					c-0.1,0.1-0.2,0.1-0.5,0.1h-8.4l0-0.2h3.7v-1.9h-2.8l0-0.2h2.8v-1.4c-0.6,0.1-1.2,0.3-1.9,0.4c-0.1,0.1-0.2,0.2-0.3,0.2
					l-0.8-1.6c0.4,0,0.9,0,1.6,0c0.2-0.5,0.3-1.1,0.4-1.6h-1.5l0-0.1c-0.1,0.1-0.3,0.1-0.5,0.1c-0.4,0-0.7-0.2-0.7-0.7
					c0-0.3,0.2-0.6,0.5-0.7c0.3-0.1,0.8-0.5,0.8-1h0.1c0.1,0.2,0.1,0.4,0.2,0.6h2.2v-1.5l1.8,0.2c0,0.1-0.1,0.2-0.4,0.3v1h2.1
					L81.1,14.7z M79.8,16l0.6,0.4c0-0.3,0.1-0.6,0.1-0.9h-5.7c0,0.1,0,0.2,0,0.3c0,0.5-0.1,0.8-0.4,1.1h4.7L79.8,16z"/>
				<path class="st3" d="M91.1,15.8l1.4,1.1c-0.1,0.1-0.2,0.2-0.4,0.2v5c0,0.9-0.2,1.5-1.8,1.7c0-1.1-0.5-1.4-1.3-1.5v-0.1h1.5
					c0.1,0,0.2,0,0.2-0.2v-2.1c-0.3,0.2-0.5,0.6-0.6,1c-0.9-0.7-1.4-1.7-1.7-3c-0.4,1.1-1.1,2.2-2.6,3v2.4c0,0.1-0.2,0.6-1.4,0.6V16
					l1.5,0.6h2.2c-0.1-0.6-0.1-1.2-0.2-1.9h-1.7l0-0.2h1.5l0.4-0.6l1,0.8c-0.1,0.2-0.5,0.3-0.9,0.3c0.1,0.6,0.2,1.1,0.4,1.6h2
					L91.1,15.8z M85.7,16.8v3.8c1-1.1,1.4-2.6,1.6-3.8H85.7z M88.6,16.8L88.6,16.8c0.4,1.1,1.1,2,2.1,2.6v-2.6H88.6z"/>
				<path class="st3" d="M97.2,13.9l1.2,1.3c-0.1,0.1-0.2,0.1-0.4,0.2c-0.4,0.6-1.1,1.6-1.6,2.3c1.3,0.7,1.9,1.5,1.9,2.3
					c0,1-0.4,1.8-1.7,1.9c0-1-0.2-1.2-0.6-1.3v-0.1h0.6c0.3,0,0.4-0.4,0.4-0.6c0-0.8-0.2-1.5-0.7-2.2c0.1-0.7,0.3-2,0.4-2.8h-0.7
					v8.5c0,0.1-0.4,0.4-1.1,0.4h-0.2v-9.7l1.4,0.6h0.5L97.2,13.9z M103.4,16c-0.1,0.1-0.2,0.1-0.5,0.1h-2c0,0.1-0.1,0.2-0.4,0.2
					c0,0.6,0,1.2-0.1,1.9h0.9l0.5-0.7l1.3,1.1c-0.1,0.1-0.2,0.2-0.4,0.2c-0.1,2.9-0.3,4.1-0.8,4.5c-0.4,0.3-0.7,0.4-1.4,0.4
					c0-0.8-0.1-1.2-1-1.4v-0.1c0.3,0,0.9,0,1.1,0c0.1,0,0.2,0,0.3-0.1c0.3-0.2,0.4-1.4,0.4-3.7h-1c-0.2,1.9-0.8,3.8-3,5.3l-0.1-0.1
					c1.7-2.4,1.7-5,1.7-7.4h-1.2l0-0.2h2.1v-2.1l1.8,0.2c0,0.1-0.1,0.2-0.4,0.3V16h0.5l0.6-0.9L103.4,16z"/>
				<path class="st3" d="M112.3,19.4l0.9,0.9c-0.1,0.1-0.2,0.1-0.4,0.2c-0.3,0.6-0.7,1.1-1.2,1.5c0.7,0.1,1.5,0.2,2.3,0.2v0.1
					c-0.6,0.2-0.9,0.7-1,1.4c-1-0.2-1.9-0.5-2.6-1c-1,0.5-2.1,0.8-3.5,1l0-0.1c1.1-0.3,2.1-0.8,2.9-1.4c-0.5-0.5-0.9-1.2-1.2-2.2
					H108l0-0.2h3.3l0.5-0.5C111,19.4,111,19,111,18v-1.2h-1.3v0.9c0,0.7-0.3,1.7-2.1,2.2c-0.2,1.4-0.7,2.9-2.3,3.9l-0.1-0.1
					c0.7-1.1,1-2.4,1.1-3.7c-0.2,0.3-0.5,0.7-0.8,1.1c0,0.1-0.2,0.3-0.3,0.3l-0.5-1.7c0.3-0.1,0.9-0.2,1.6-0.4c0-0.4,0-0.7,0-1.1
					v-0.4c-0.1,0.3-0.4,0.5-0.7,0.5c-0.2,0-0.4-0.1-0.6-0.4c0-0.2,0-0.4,0-0.6c0-0.5-0.1-0.9-0.3-1.3l0.1-0.1
					c0.9,0.3,1.3,0.7,1.5,1.1V15l1.6,0.6h1.2v-1.7l1.9,0.2c0,0.2-0.1,0.2-0.4,0.3v1.2h1.6l0.7-0.9l1.2,1c-0.1,0.1-0.2,0.1-0.5,0.1
					h-5.8v2.4c0,0.5,0,1-0.1,1.6c0.7-0.6,0.8-1.3,0.8-2v-1.7l1.5,0.6h0.9l0.5-0.7l1.2,1c-0.1,0.1-0.2,0.1-0.3,0.2v1
					c0,0.1,0,0.1,0.1,0.1h0.5c0.1,0,0.1,0,0.2-0.1c0.1-0.1,0.3-0.5,0.3-0.8h0.1l0,0.8c0.3,0.1,0.3,0.2,0.3,0.5
					c0,0.5-0.3,0.8-1.1,0.8H112.3z M108.7,20.1c0.4,0.7,1,1.2,1.7,1.5c0.4-0.5,0.7-1,1-1.5H108.7z"/>
				<path class="st3" d="M123.2,17.2l1.2,1c-0.1,0.1-0.2,0.1-0.5,0.1h-1.5c-0.3,1.1-0.6,2-1.1,2.8c1.7,0.5,2.3,1.3,2.3,1.9
					c0,0.4-0.3,0.7-0.7,0.7c-0.1,0-0.3,0-0.4-0.1c-0.4-0.4-1.1-1-2-1.6c-1,0.9-2.6,1.4-5,1.7l0-0.1c1.9-0.5,3.2-1.2,4-2.1
					c-0.4-0.2-0.8-0.4-1.3-0.6c-0.1,0.2-0.2,0.4-0.3,0.6c-0.1,0.1-0.3,0.1-0.5,0.1c-0.3,0-0.6-0.1-1-0.2c0.3-0.7,0.8-1.9,1.3-3h-2.5
					l0-0.2h2.6c0.3-0.9,0.7-1.7,0.8-2.2l1.8,0.3c0,0.2-0.1,0.2-0.4,0.2c-0.1,0.4-0.4,1-0.6,1.6h3.1L123.2,17.2z M122.4,17.3
					c0.1-0.4,0.2-1,0.3-1.5h-5.7c0,0.2,0,0.3,0,0.5c0,0.6-0.3,1.3-0.9,1.3c-0.4,0-0.7-0.2-0.7-0.7c0-0.3,0.2-0.6,0.5-0.7
					c0.3-0.2,0.8-0.6,0.8-1.1h0.1c0.1,0.2,0.2,0.5,0.2,0.7h2.2v-1.7l1.8,0.2c0,0.1-0.1,0.2-0.4,0.3v1.3h2l0.7-0.7l1.2,1.2
					c-0.1,0.1-0.2,0.1-0.4,0.1C123.6,16.6,122.9,17.1,122.4,17.3L122.4,17.3z M119.3,18.4c-0.3,0.8-0.7,1.6-1,2.3
					c0.6,0,1.2,0.1,1.7,0.1c0.4-0.7,0.7-1.5,0.9-2.5H119.3z"/>
				<path class="st3" d="M127.3,18.1c0.4,0.9,0.6,1.6,0.6,2.2c0,0.9-0.4,1.8-1.2,1.8c-0.4,0-0.8-0.3-0.8-0.7c0-0.3,0.1-0.5,0.4-0.7
					C126.8,20.3,127.3,19.3,127.3,18.1L127.3,18.1z M128.3,14.4c0.3,0,0.7-0.1,1-0.1c1.8,0,2.4,0.8,2.4,1.4c0,0.5-0.3,0.9-0.8,0.9
					c-0.1,0-0.3,0-0.4-0.1c-0.3-0.6-1-1.5-2.1-2L128.3,14.4z M128.5,17.1l1.7,0.1c0,0.1-0.1,0.2-0.3,0.3v4.5c0,0.3,0,0.3,0.3,0.3
					h1.2c0.2,0,0.3,0,0.4-0.2c0.1-0.2,0.3-0.7,0.6-1.4h0.1v1.5c0.5,0.2,0.5,0.3,0.5,0.5c0,0.6-0.3,0.9-1.6,0.9h-1.2
					c-1.4,0-1.6-0.3-1.6-1.7V17.1z M132.4,17.8c1.9,0.9,2.6,2.1,2.6,3c0,0.8-0.5,1.3-1,1.3c-0.2,0-0.5-0.1-0.7-0.5
					c0-0.2,0-0.4,0-0.6C133.4,20.1,133.1,18.8,132.4,17.8L132.4,17.8z"/>
				<path class="st3" d="M143.4,15.9l1.3,1.2c-0.1,0.1-0.2,0.2-0.4,0.2c-1.2,1.8-3.1,3.3-5.4,4.3c0.7,0.5,1.8,0.6,3.4,0.6
					c0.7,0,2.4,0,3.2,0v0.1c-0.5,0.1-0.7,0.7-0.7,1.3h-2.5c-2.2,0-3.3-0.5-4-2.3c-0.3,0.6-0.6,1.5-0.9,2c0,0.1,0.1,0.1,0.1,0.2
					c0,0.1,0,0.2-0.1,0.2l-0.9-1c0.4-0.4,1.2-1.1,1.6-1.6l0.1-0.9l0.6,0.1l-0.5,0.7c0.1,0.2,0.2,0.3,0.4,0.4
					c1.6-1.1,3.1-2.9,3.9-4.6h-5.5l0-0.2h3.1V14l1.8,0.2c0,0.1-0.1,0.2-0.4,0.3v2.2h1L143.4,15.9z"/>
				<path class="st3" d="M154.9,19.3l1.2,0.9c-0.1,0.1-0.2,0.1-0.5,0.1h-4.1l1.2,0.7c-0.1,0.1-0.2,0.1-0.3,0.1c-0.1,0-0.1,0-0.2,0
					c-0.5,0.4-1.4,0.7-2.3,0.8c0.5,0.2,1.2,0.2,2.4,0.2c1.1,0,2.5,0,3.8-0.1v0.1c-0.5,0.1-0.8,0.6-0.9,1.2h-2.9
					c-1.9,0-2.6-0.3-3.3-1.9c-0.4,0.6-0.9,1.4-1.3,1.9c0,0.1-0.1,0.2-0.2,0.3l-0.7-1.5c0.3-0.1,0.6-0.2,1-0.4v-3.2h-1l0-0.2h0.9
					l0.6-0.9l1.3,1.1c-0.1,0.1-0.2,0.2-0.5,0.2v2.5c0.2,0.2,0.4,0.3,0.6,0.4c0.6-0.4,1.2-1.1,1.5-1.6h-1.7l0-0.2h1.4v-1.3h-1.1
					l0-0.2h1.1v-1.1l1.6,0.2c0,0.1-0.1,0.2-0.3,0.2v0.7h0.8v-1.1l1.6,0.2c0,0.1-0.1,0.2-0.3,0.2v0.6l0.5-0.7l1.1,0.8
					c-0.1,0.1-0.2,0.1-0.4,0.1h-1.1v1.3h0L154.9,19.3z M147.1,14.2c1.5,0.2,2,0.9,2,1.4c0,0.5-0.4,0.8-0.8,0.8
					c-0.2,0-0.4-0.1-0.6-0.3C147.7,15.5,147.5,14.7,147.1,14.2L147.1,14.2z M152.3,16l0,0.6c0.3,0.2,0.4,0.2,0.4,0.4
					c0,0.4-0.3,0.7-1.1,0.7h-0.9c-0.9,0-1.1-0.3-1.1-1.2v-1.3l1.2,0.5h0.1v-1h-1.5l0-0.2h1.5l0.4-0.6l1.1,0.8c0,0.1-0.2,0.1-0.3,0.2
					v0.9c0,0-0.3,0.3-1.1,0.3v-0.3h-0.3v0.6c0,0.2,0,0.2,0.2,0.2h0.7C151.8,16.6,151.9,16.6,152.3,16L152.3,16z M152.1,18.9v1.3h0.8
					v-1.3H152.1z M154.3,14.7h-1.6l0-0.2h1.6l0.4-0.6l1.2,0.8c0,0.1-0.2,0.1-0.3,0.2v0.9c0,0-0.3,0.3-1.2,0.3v-0.3H154v0.6
					c0,0.2,0,0.2,0.2,0.2h0.7c0.3,0,0.4,0,0.7-0.7h0.1l0,0.6c0.3,0.2,0.4,0.2,0.4,0.4c0,0.4-0.3,0.7-1.2,0.7H154
					c-0.9,0-1.1-0.3-1.1-1.2v-1.3l1.3,0.5h0.2V14.7z M152.9,20.5c2.2,0,2.8,0.5,2.8,1c0,0.3-0.4,0.6-0.9,0.6c-0.2,0-0.5-0.1-0.6-0.3
					c-0.2-0.4-0.7-0.9-1.4-1.2L152.9,20.5z"/>
			</g>
		</g>
	</g>
</g>
</svg>
