<?xml version="1.0" encoding="utf-8"?>
<!-- Generator: Adobe Illustrator 27.0.0, SVG Export Plug-In . SVG Version: 6.00 Build 0)  -->
<svg version="1.1" id="圖層_1" xmlns="http://www.w3.org/2000/svg" xmlns:xlink="http://www.w3.org/1999/xlink" x="0px" y="0px"
	 viewBox="0 0 120 92" style="enable-background:new 0 0 120 92;" xml:space="preserve">
<style type="text/css">
	.st0{fill:#3E3A39;}
	.st1{fill:#C79F62;}
</style>
<g>
	<g>
		<g>
			<path class="st0" d="M1.2,40.8v-0.6h2.6c0.5,0.8,1.5,1.5,3,2.1l-0.4,0.7c-0.2-0.1-0.4-0.2-0.6-0.3v0.4h-2v1.1h1.9v0.6H3.7v1.2
				h2.8v0.6H0.2v-0.6H3v-1.2H1.1v-0.6H3v-1.1H1v-0.4c-0.2,0.1-0.4,0.2-0.6,0.3l-0.4-0.7c0.8-0.3,1.3-0.6,1.8-0.9
				c0.3-0.2,0.6-0.4,0.8-0.7H1.2z M5.4,42.6c-0.3-0.2-0.6-0.4-0.8-0.5c-0.5-0.4-0.9-0.8-1.2-1.2c-0.2,0.4-0.5,0.6-0.7,0.9
				c-0.3,0.3-0.7,0.6-1.3,0.9H5.4z"/>
			<path class="st0" d="M10.7,40.4c-0.5,0.9-0.9,1.6-1.4,2.2c0.1,0,0.3,0,0.4,0c1.1,0,2.2-0.1,3.2-0.3c-0.3-0.4-0.6-0.7-0.9-1.1
				l0.5-0.5c0.7,0.8,1.3,1.5,1.7,2.3l-0.5,0.5c-0.1-0.2-0.2-0.4-0.4-0.6c-1.4,0.2-3.2,0.3-5.3,0.3l-0.1-0.8c0.2,0,0.5,0,0.7,0.1
				c0.5-0.6,0.9-1.4,1.4-2.4L10.7,40.4z M13.7,46.9H13v-0.4H9.1v0.4H8.4v-3.1h5.3V46.9z M13,45.8v-1.4H9.1v1.4H13z"/>
			<path class="st0" d="M18.3,42.6v-2.4h0.8v2.4H22v0.7h-2.9v3.6h-0.8v-3.6h-2.9v-0.7H18.3z"/>
			<path class="st0" d="M25.7,42.1c0-0.4,0.1-0.8,0.1-1.3v-0.5h0.7v0.5c0,0.5,0,0.9-0.1,1.3h3v0.7h-2.2c0.2,0.7,0.4,1.3,0.7,1.8
				c0.4,0.6,0.9,1.1,1.6,1.5l-0.4,0.7c-0.8-0.5-1.4-1.2-1.8-1.8c-0.4-0.6-0.6-1.3-0.8-2.2h-0.2c-0.1,0.5-0.2,0.9-0.4,1.3
				c-0.4,0.9-1.1,1.8-2.2,2.7L23,46.2c1-0.7,1.8-1.5,2.2-2.4c0.2-0.3,0.3-0.7,0.4-1.1h-2.4v-0.7H25.7z"/>
			<path class="st0" d="M34.5,40.7v-0.5h0.7v0.5h1.7v1h0.4v0.5h-0.4v1.1h-1.7v0.5h1.8v0.5h-1.8v0.5h2.1v0.5h-2.1V46
				c0.1,0,0.2,0,0.3,0c0.8,0,1.5,0,1.9-0.1l-0.1,0.7c-2.2,0-3.6-0.1-4.1-0.2c-0.4-0.1-0.8-0.3-1.1-0.5c0,0-0.1,0-0.1-0.1
				c-0.2,0.3-0.5,0.6-0.9,0.9l-0.4-0.7c0.4-0.3,0.7-0.5,0.9-0.8c-0.2-0.4-0.4-0.9-0.7-1.5l0.6-0.2c0.2,0.4,0.3,0.8,0.5,1
				c0,0,0-0.1,0-0.1c0.1-0.3,0.2-0.7,0.2-1.3h-1.2v-0.4c0.4-0.5,0.8-1.1,1.2-1.7h-1.3v-0.5h2.1v0.6c-0.4,0.7-0.8,1.2-1.1,1.6h1.1
				c0,0.8-0.1,1.5-0.3,2c-0.1,0.2-0.1,0.4-0.2,0.6c0.2,0.2,0.4,0.3,0.8,0.4c0.3,0.1,0.7,0.1,1.4,0.2v-0.6h-1.7v-0.5h1.7v-0.5H33
				v-0.5h1.4v-0.5h-1.3v-0.5h1.3v-0.6h-1.7v-0.5h1.7v-0.5h-1.3v-0.5H34.5z M35.1,41.8h1.1v-0.5h-1.1V41.8z M35.1,42.9h1.1v-0.6h-1.1
				V42.9z"/>
			<path class="st0" d="M40,40.3c-0.1,0.1-0.1,0.3-0.2,0.4h1.8v0.5c0.3-0.3,0.6-0.7,0.7-1.1l0.7,0.1c-0.1,0.2-0.1,0.3-0.2,0.4H45
				v0.6h-1.2c0.1,0.2,0.1,0.4,0.2,0.5l-0.7,0.1c-0.1-0.2-0.1-0.4-0.1-0.6h-0.7c-0.2,0.2-0.3,0.4-0.5,0.6l-0.6-0.4
				c0.1-0.1,0.2-0.2,0.3-0.3h-1c0.1,0.2,0.1,0.3,0.2,0.5l-0.7,0.1c-0.1-0.2-0.1-0.4-0.2-0.6h-0.5c-0.2,0.2-0.4,0.5-0.6,0.7l-0.6-0.4
				c0.5-0.4,0.9-0.9,1.1-1.4L40,40.3z M41.4,44.4v-0.4l-0.3-0.2c0.3-0.1,0.6-0.2,0.8-0.4c-0.2-0.1-0.4-0.2-0.6-0.2l0.3-0.5
				c0.2,0.1,0.4,0.1,0.6,0.2c0-0.1,0-0.1,0-0.2v-0.3h-0.8V42H44v1.4c0,0.1,0.1,0.2,0.2,0.2h0c0.1,0,0.1,0,0.1-0.1
				c0,0,0.1-0.2,0.1-0.6l0.5,0.2c0,0.5-0.1,0.8-0.2,0.9c-0.1,0.1-0.3,0.1-0.5,0.1H44c-0.2,0-0.3,0-0.4-0.1c-0.1-0.1-0.1-0.2-0.1-0.4
				v-1.1h-0.7v0.3c0,0.2,0,0.3-0.1,0.4c0.2,0.1,0.4,0.2,0.7,0.3L43,44.1c-0.2-0.1-0.4-0.3-0.6-0.4c-0.1,0.1-0.3,0.2-0.5,0.3H42v0.4
				h3V45h-2.3c0.3,0.2,0.5,0.4,0.7,0.5c0.3,0.2,0.8,0.4,1.5,0.5l-0.3,0.6c-0.8-0.3-1.4-0.5-1.7-0.8c-0.3-0.2-0.6-0.4-0.9-0.8v1.8
				h-0.7V45h0c-0.2,0.3-0.5,0.5-0.7,0.7c-0.4,0.3-1.1,0.6-1.9,0.9L38.3,46c0.9-0.3,1.5-0.5,1.8-0.7c0.2-0.1,0.3-0.2,0.5-0.3h-2.3
				v-0.6H41.4z M41.2,42.1v0.6h-1v0.6c0.3-0.1,0.6-0.1,1-0.2v0.6c-0.8,0.2-1.6,0.4-2.7,0.5l-0.1-0.7c0.4,0,0.8-0.1,1.2-0.1v-0.7h-1
				v-0.6H41.2z"/>
			<path class="st0" d="M48,40.3c-0.1,0.2-0.2,0.4-0.3,0.6h0.9v2.3h-1.8v0.7h2v2.8h-0.7v-0.4h-1.3v0.4h-0.7v-5.8h0.9
				c0.1-0.2,0.2-0.5,0.2-0.7L48,40.3z M48,42.6v-1.1h-1.2v1.1H48z M48.2,45.6v-1.2h-1.3v1.2H48.2z M52.6,40.5v0.6h-1.5v0.8h1.3v3.7
				c0,0.2-0.1,0.3-0.1,0.5c-0.1,0.1-0.2,0.2-0.4,0.2h-0.4l-0.2-0.7l0.4,0c0.1,0,0.1-0.1,0.1-0.2v-2.9h-0.7v4.3h-0.7v-4.3h-0.7v3.8
				h-0.6v-4.4h1.3v-0.8H49v-0.6H52.6z"/>
			<path class="st0" d="M3,52.5v-2.4h0.8v2.4h2.9v0.7H3.8v3.6H3v-3.6H0v-0.7H3z"/>
			<path class="st0" d="M10.4,52c0-0.4,0.1-0.8,0.1-1.3v-0.5h0.7v0.5c0,0.5,0,0.9-0.1,1.3h3v0.7h-2.2c0.2,0.7,0.4,1.3,0.7,1.8
				c0.4,0.6,0.9,1.1,1.6,1.5l-0.4,0.7c-0.8-0.5-1.4-1.2-1.8-1.8c-0.4-0.6-0.6-1.3-0.8-2.2H11c-0.1,0.5-0.2,0.9-0.4,1.3
				c-0.4,0.9-1.1,1.8-2.2,2.7l-0.6-0.5c1-0.7,1.8-1.5,2.2-2.4c0.2-0.3,0.3-0.7,0.4-1.1H7.9V52H10.4z"/>
			<path class="st0" d="M19.1,50.6v-0.5h0.7v0.5h1.7v1h0.4v0.5h-0.4v1.1h-1.7v0.5h1.8v0.5h-1.8v0.5h2.1v0.5h-2.1v0.6
				c0.1,0,0.2,0,0.3,0c0.8,0,1.5,0,1.9-0.1l-0.1,0.7c-2.2,0-3.6-0.1-4.1-0.2c-0.4-0.1-0.8-0.3-1.1-0.5c0,0-0.1,0-0.1-0.1
				c-0.2,0.3-0.5,0.6-0.9,0.9l-0.4-0.7c0.4-0.3,0.7-0.5,0.9-0.8c-0.2-0.4-0.4-0.9-0.7-1.5l0.6-0.2c0.2,0.4,0.3,0.8,0.5,1
				c0,0,0-0.1,0-0.1c0.1-0.3,0.2-0.7,0.2-1.3h-1.2v-0.4c0.4-0.5,0.8-1.1,1.2-1.7h-1.3v-0.5h2.1v0.6c-0.4,0.7-0.8,1.2-1.1,1.6h1.1
				c0,0.8-0.1,1.5-0.3,2c-0.1,0.2-0.1,0.4-0.2,0.6c0.2,0.2,0.4,0.3,0.8,0.4c0.3,0.1,0.7,0.1,1.4,0.2v-0.6h-1.7v-0.5h1.7v-0.5h-1.4
				v-0.5h1.4v-0.5h-1.3v-0.5h1.3v-0.6h-1.7v-0.5h1.7v-0.5h-1.3v-0.5H19.1z M19.8,51.7h1.1v-0.5h-1.1V51.7z M19.8,52.8h1.1v-0.6h-1.1
				V52.8z"/>
			<path class="st0" d="M24.8,51h1v0.6H23V51h1.1c-0.1-0.3-0.2-0.5-0.3-0.7l0.7-0.1C24.6,50.4,24.7,50.7,24.8,51z M25.5,56.2h-1.6
				v0.5h-0.7v-2.6h2.2V56.2z M25.5,52v0.6h-2.2V52H25.5z M25.5,53.1v0.6h-2.2v-0.6H25.5z M24.8,55.6v-0.9h-0.9v0.9H24.8z M28.7,52
				c0,0.2,0.1,0.3,0.3,0.3h0.6v0.6h-0.7c-0.3,0-0.5-0.1-0.6-0.2c-0.1-0.1-0.2-0.3-0.2-0.6v-1.2h-1.1c0,0.5-0.1,0.8-0.1,1
				c-0.1,0.3-0.3,0.6-0.7,1l-0.5-0.4c0.3-0.3,0.5-0.6,0.6-0.8c0.1-0.2,0.1-0.6,0.1-1.4h2.5V52z M29,53.1v0.5
				c-0.2,0.7-0.5,1.4-0.9,1.9c0.4,0.3,0.9,0.5,1.5,0.7l-0.4,0.6c-0.7-0.2-1.2-0.5-1.6-0.8c-0.4,0.3-0.9,0.6-1.6,0.8l-0.4-0.6
				c0.6-0.2,1.1-0.4,1.5-0.7c-0.4-0.4-0.8-0.9-1-1.4l0.6-0.3c0.3,0.5,0.6,0.9,1,1.3l0,0c0.3-0.4,0.5-0.8,0.7-1.4h-2.4v-0.6H29z"/>
			<path class="st0" d="M32.5,52.3c-0.2,0.4-0.3,0.7-0.5,1v3.4h-0.6v-2.6c-0.2,0.2-0.4,0.4-0.6,0.6L30.6,54c0.3-0.3,0.5-0.5,0.7-0.8
				c0.2-0.2,0.4-0.6,0.6-1.1L32.5,52.3z M32.5,50.3c-0.4,0.8-0.9,1.3-1.3,1.7l-0.5-0.6c0.5-0.4,0.9-0.8,1.1-1.3L32.5,50.3z
				 M33.8,50.3c-0.1,0.3-0.2,0.5-0.3,0.7H35v0.6h-0.7v0.9h0.9V53h-0.9v0.8H35v0.6h-0.7v1c0.3-0.1,0.5-0.1,0.8-0.2v0.6
				c-0.8,0.2-1.8,0.4-2.8,0.6l-0.1-0.7c0.2,0,0.3,0,0.5,0v-2.2h0.6v2.1c0.1,0,0.3,0,0.4-0.1V53h-1.2v-0.6h1.2v-0.9h-0.5
				c-0.1,0.2-0.3,0.4-0.4,0.6l-0.5-0.3c0.5-0.5,0.8-1.1,1-1.7L33.8,50.3z M37.2,50.5v4.9c0,0.2-0.1,0.3-0.1,0.4
				C36.9,56,36.8,56,36.6,56h-0.5L36,55.4l0.4,0c0.1,0,0.1-0.1,0.1-0.2v-4.1h-0.7v5.6h-0.6v-6.2h0.3H37.2z"/>
			<path class="st0" d="M44.7,50.4v5.5c0,0.2-0.1,0.4-0.2,0.6c-0.1,0.1-0.3,0.2-0.5,0.2h-0.9L42.9,56l0.9,0c0.1,0,0.2-0.1,0.2-0.2
				v-1.3h-1.8v2h-0.7v-2h-1.9c0,0.2-0.1,0.5-0.1,0.7c-0.1,0.5-0.3,1-0.6,1.5l-0.6-0.5c0.3-0.4,0.4-0.8,0.5-1.2
				c0.1-0.4,0.1-0.8,0.1-1.2v-3.5h0.3H44.7z M41.5,52.2V51h-1.8v1.1H41.5z M41.5,54v-1.2h-1.8V54H41.5z M42.2,52.2H44V51h-1.8V52.2z
				 M42.2,54H44v-1.2h-1.8V54z"/>
			<path class="st0" d="M49.8,50.6v-0.5h0.7v0.5h1.7v1h0.4v0.5h-0.4v1.1h-1.7v0.5h1.8v0.5h-1.8v0.5h2.1v0.5h-2.1v0.6
				c0.1,0,0.2,0,0.3,0c0.8,0,1.5,0,1.9-0.1l-0.1,0.7c-2.2,0-3.6-0.1-4.1-0.2c-0.4-0.1-0.8-0.3-1.1-0.5c0,0-0.1,0-0.1-0.1
				c-0.2,0.3-0.5,0.6-0.9,0.9L46,56.1c0.4-0.3,0.7-0.5,0.9-0.8c-0.2-0.4-0.4-0.9-0.7-1.5l0.6-0.2c0.2,0.4,0.3,0.8,0.5,1
				c0,0,0-0.1,0-0.1c0.1-0.3,0.2-0.7,0.2-1.3h-1.2v-0.4c0.4-0.5,0.8-1.1,1.2-1.7h-1.3v-0.5h2.1v0.6c-0.4,0.7-0.8,1.2-1.1,1.6h1.1
				c0,0.8-0.1,1.5-0.3,2c-0.1,0.2-0.1,0.4-0.2,0.6c0.2,0.2,0.4,0.3,0.8,0.4c0.3,0.1,0.7,0.1,1.4,0.2v-0.6H48v-0.5h1.7v-0.5h-1.4
				v-0.5h1.4v-0.5h-1.3v-0.5h1.3v-0.6H48v-0.5h1.7v-0.5h-1.3v-0.5H49.8z M50.4,51.7h1.1v-0.5h-1.1V51.7z M50.4,52.8h1.1v-0.6h-1.1
				V52.8z"/>
			<path class="st0" d="M55.4,50.2c-0.1,0.1-0.1,0.3-0.2,0.4H57v0.5c0.3-0.3,0.6-0.7,0.7-1.1l0.7,0.1c-0.1,0.2-0.1,0.3-0.2,0.4h2.2
				v0.6h-1.2c0.1,0.2,0.1,0.4,0.2,0.5l-0.7,0.1c-0.1-0.2-0.1-0.4-0.1-0.6h-0.7c-0.2,0.2-0.3,0.4-0.5,0.6l-0.6-0.4
				c0.1-0.1,0.2-0.2,0.3-0.3h-1c0.1,0.2,0.1,0.3,0.2,0.5l-0.7,0.1c-0.1-0.2-0.1-0.4-0.2-0.6h-0.5c-0.2,0.2-0.4,0.5-0.6,0.7l-0.6-0.4
				c0.5-0.4,0.9-0.9,1.1-1.4L55.4,50.2z M56.7,54.3V54l-0.3-0.2c0.3-0.1,0.6-0.2,0.8-0.4c-0.2-0.1-0.4-0.2-0.6-0.2l0.3-0.5
				c0.2,0.1,0.4,0.1,0.6,0.2c0-0.1,0-0.1,0-0.2v-0.3h-0.8v-0.5h2.6v1.4c0,0.1,0.1,0.2,0.2,0.2h0c0.1,0,0.1,0,0.1-0.1
				c0,0,0.1-0.2,0.1-0.6l0.5,0.2c0,0.5-0.1,0.8-0.2,0.9c-0.1,0.1-0.3,0.1-0.5,0.1h-0.3c-0.2,0-0.3,0-0.4-0.1
				c-0.1-0.1-0.1-0.2-0.1-0.4v-1.1h-0.7v0.3c0,0.2,0,0.3-0.1,0.4c0.2,0.1,0.4,0.2,0.7,0.3L58.3,54c-0.2-0.1-0.4-0.3-0.6-0.4
				c-0.1,0.1-0.3,0.2-0.5,0.3h0.1v0.4h3v0.6H58c0.3,0.2,0.5,0.4,0.7,0.5c0.3,0.2,0.8,0.4,1.5,0.5L60,56.5c-0.8-0.3-1.4-0.5-1.7-0.8
				c-0.3-0.2-0.6-0.4-0.9-0.8v1.8h-0.7v-1.8h0c-0.2,0.3-0.5,0.5-0.7,0.7c-0.4,0.3-1.1,0.6-1.9,0.9L53.6,56c0.9-0.3,1.5-0.5,1.8-0.7
				c0.2-0.1,0.3-0.2,0.5-0.3h-2.3v-0.6H56.7z M56.5,52.1v0.6h-1v0.6c0.3-0.1,0.6-0.1,1-0.2v0.6c-0.8,0.2-1.6,0.4-2.7,0.5l-0.1-0.7
				c0.4,0,0.8-0.1,1.2-0.1v-0.7h-1v-0.6H56.5z"/>
			<path class="st0" d="M63.3,50.2c-0.1,0.2-0.2,0.4-0.3,0.6H64v2.3h-1.8v0.7h2v2.8h-0.7v-0.4h-1.3v0.4h-0.7v-5.8h0.9
				c0.1-0.2,0.2-0.5,0.2-0.7L63.3,50.2z M63.4,52.5v-1.1h-1.2v1.1H63.4z M63.5,55.6v-1.2h-1.3v1.2H63.5z M67.9,50.5v0.6h-1.5v0.8
				h1.3v3.7c0,0.2-0.1,0.3-0.1,0.5c-0.1,0.1-0.2,0.2-0.4,0.2h-0.4l-0.2-0.7l0.4,0c0.1,0,0.1-0.1,0.1-0.2v-2.9h-0.7v4.3h-0.7v-4.3
				h-0.7v3.8h-0.6v-4.4h1.3v-0.8h-1.5v-0.6H67.9z"/>
			<path class="st0" d="M2.3,60.7c-0.3,0-0.7,0.1-1.2,0.1v0.4h1.1v0.5H1.1V62h1.1v0.5H1.1V63h4.5v-0.4H4.5V62h1.1v-0.3H4.5v-0.5h1.1
				v-0.4H4.5v-0.6h1.8l0,2.7h0.3v1.4H5.9v-0.8H0.8v0.8H0.2V63h0.3v-2.6c0.5,0,1-0.1,1.6-0.2L2.3,60.7z M5.5,63.9v0.5
				c-0.5,0.2-1,0.4-1.7,0.6h2.7v0.6H3.8v0.6c0,0.1-0.1,0.3-0.1,0.3c-0.1,0.1-0.2,0.2-0.4,0.2H2.2l-0.1-0.6c0.3,0,0.5,0,0.8,0
				c0.1,0,0.2-0.1,0.2-0.1v-0.5H0.3V65h2.8v-0.3c0.4-0.1,0.8-0.2,1.3-0.4h-3v-0.5H5.5z M4.3,60.4c-0.2,0.2-0.3,0.3-0.4,0.4
				C4,60.9,4.1,61,4.2,61.1l-0.4,0.4c-0.1-0.1-0.2-0.2-0.4-0.4c-0.2,0.1-0.5,0.3-0.9,0.4L2.3,61C2.6,61,2.8,60.9,3,60.7
				c-0.2-0.1-0.3-0.2-0.5-0.3l0.3-0.3c0.2,0.1,0.4,0.3,0.6,0.4c0.2-0.1,0.3-0.2,0.4-0.4L4.3,60.4z M4.4,61.7
				c-0.2,0.2-0.4,0.4-0.5,0.5c0.1,0.1,0.3,0.2,0.4,0.3L4,62.9c-0.1-0.1-0.3-0.3-0.5-0.4c-0.2,0.1-0.5,0.3-0.8,0.4l-0.3-0.4
				c0.2-0.1,0.4-0.2,0.7-0.3c-0.1-0.1-0.3-0.2-0.5-0.3l0.3-0.3c0.2,0.1,0.4,0.2,0.5,0.4c0.2-0.1,0.4-0.3,0.5-0.4L4.4,61.7z"/>
			<path class="st0" d="M14.3,60.9H8.8v2.5c0,0.5,0,1-0.1,1.6c-0.1,0.6-0.2,1.1-0.4,1.7l-0.6-0.5c0.2-0.4,0.3-0.9,0.4-1.4
				c0.1-0.5,0.1-1,0.1-1.4v-3.1h6.1V60.9z M11.9,64.4v0.5h1.9v0.5h-1.9v0.6h2.4v0.6H8.8v-0.6h0.9v-1.2h0.6v1.2h1v-1.6H11.9z
				 M11.5,61.5c-0.3,0.1-0.5,0.1-0.8,0.2v0.5h0.7v0.5h-0.7v0c0.3,0.2,0.6,0.4,0.9,0.6l-0.3,0.5c-0.2-0.2-0.4-0.4-0.6-0.5v1.1h-0.6
				v-1.1c-0.3,0.3-0.5,0.6-0.9,0.8L9,63.7c0.5-0.3,0.9-0.6,1.1-1h-1v-0.5h1v-0.4c-0.3,0-0.6,0-0.9,0l-0.2-0.5c0.9,0,1.6-0.1,2.2-0.2
				L11.5,61.5z M14.1,61.5c-0.3,0.1-0.7,0.2-1,0.2v0.4h1.2v0.5H13v0.1c0.4,0.3,0.8,0.6,1.2,0.9l-0.3,0.5c-0.4-0.4-0.7-0.6-0.9-0.9
				v1.1h-0.6v-1.1c-0.2,0.4-0.5,0.7-0.8,0.9l-0.3-0.5c0.4-0.3,0.8-0.6,1-1h-0.7v-0.5h0.8v-0.4c-0.2,0-0.5,0-0.7,0l-0.2-0.5
				c0.9,0,1.6-0.1,2.2-0.2L14.1,61.5z"/>
			<path class="st0" d="M18.2,62.4v-0.9h0.9v0.9H18.2z M18.2,65v-0.9h0.9V65H18.2z"/>
			<path class="st0" d="M2.7,70.8H4c0.2-0.3,0.4-0.5,0.6-0.8l0.7,0.2c-0.2,0.2-0.3,0.4-0.5,0.6h1.6v0.6H3.6v0.4H6v0.6H3.6v0.1
				c0,0.1,0,0.3,0,0.4h3v0.6h-3c0,0.2-0.1,0.4-0.1,0.6h3.1v0.6H4.2c0.1,0.2,0.2,0.4,0.4,0.5c0.2,0.1,0.4,0.3,0.8,0.4
				c0.3,0.1,0.8,0.2,1.4,0.3l-0.4,0.7c-0.6-0.1-1.1-0.3-1.5-0.5C4.5,76,4.2,75.8,4,75.6c-0.2-0.2-0.4-0.5-0.4-0.8H3.3
				C3.2,75,3.1,75.2,3,75.4c-0.5,0.6-1.4,1-2.7,1.2L0,76c1.3-0.1,2.1-0.4,2.5-1c0.1-0.1,0.1-0.2,0.2-0.3H0.1v-0.6h2.7
				c0-0.2,0.1-0.4,0.1-0.6H0.1V73H3c0-0.1,0-0.2,0-0.4v-0.1H0.7v-0.6H3v-0.4H0.4v-0.6H2c-0.1-0.2-0.3-0.4-0.5-0.6L2.2,70
				C2.4,70.2,2.5,70.5,2.7,70.8z"/>
			<path class="st0" d="M14.1,76.6h-0.6v-0.2H8.6v0.2H8v-6.4h6.1V76.6z M13.5,75.8v-5.1H8.6v5.1H13.5z M11.2,74.8
				C10.6,75,9.8,75.1,9,75.3l-0.1-0.6c0.8-0.1,1.6-0.2,2.4-0.4V74.8z M11.2,71.6c0-0.2,0-0.4,0-0.7h0.6c0,0.2,0,0.5,0,0.7h0.7
				c-0.1-0.2-0.2-0.4-0.3-0.5l0.5-0.2c0.1,0.2,0.2,0.4,0.3,0.6l-0.3,0.1h0.5v0.5h-1.5c0,0.5,0.1,0.8,0.1,1.1c0,0.2,0.1,0.5,0.2,0.7
				c0.2-0.4,0.4-0.9,0.7-1.6l0.5,0.3c-0.3,0.9-0.6,1.5-0.9,1.9c0,0,0,0,0,0c0,0,0,0.1,0.1,0.1c0.1,0.2,0.2,0.3,0.3,0.3
				c0,0,0.1-0.3,0.2-0.8l0.5,0.4c-0.2,0.5-0.3,0.9-0.3,0.9c-0.1,0.1-0.2,0.2-0.3,0.2c-0.2,0-0.4-0.1-0.6-0.4
				c-0.1-0.1-0.1-0.2-0.2-0.3c-0.2,0.3-0.5,0.5-0.8,0.7l-0.3-0.5c0.4-0.3,0.7-0.5,0.9-0.8c-0.1-0.2-0.2-0.5-0.3-0.8
				c-0.1-0.4-0.2-0.9-0.2-1.5H8.9v-0.5H11.2z M10.8,72.5v1.7H9.1v-1.7H10.8z M10.3,72.9H9.6v0.7h0.7V72.9z"/>
			<path class="st0" d="M18.5,70v0.9h2.9v0.7h-2.9v1h3.4v0.7h-3.4v0.5c0.9,0.4,1.8,0.9,2.7,1.4l-0.4,0.7c-0.9-0.6-1.7-1-2.3-1.3v2.1
				h-0.7v-3.4h-2.4v-0.7h2.4V70H18.5z"/>
			<path class="st0" d="M29.1,75.9c0,0.2-0.1,0.4-0.2,0.6c-0.1,0.1-0.3,0.2-0.5,0.2h-1.2l-0.1-0.7l1.1,0.1c0.2,0,0.2-0.1,0.2-0.3v-1
				L28,75.2c-0.4-0.4-0.7-0.8-1-1.1c-0.2-0.4-0.5-0.8-0.6-1.2c-0.1,0.3-0.2,0.5-0.4,0.7c-0.3,0.6-0.8,1.1-1.5,1.7l-0.3-0.5v1.8h-0.7
				v-5.2H26v-0.7h-1.6v-0.6h2.3v1.3h2.4V75.9z M25.5,73.1c0.2-0.3,0.3-0.7,0.5-1.1h-1.7v2.5C24.8,74,25.2,73.6,25.5,73.1z
				 M27.3,73.3c0.2,0.4,0.6,0.8,1.1,1.2V72h-1.7C26.9,72.5,27.1,72.9,27.3,73.3z"/>
			<path class="st0" d="M32,70.6V70h0.6v0.5h2.8V70H36v0.5h1.1v0.6H36v2.3h1.2V74H36c0.2,0.2,0.3,0.3,0.5,0.4c0.2,0.2,0.6,0.3,1,0.4
				l-0.3,0.6c-0.4-0.2-0.7-0.3-1-0.5v0.4h-1.9v0.6h2.6v0.6H31v-0.6h2.6v-0.6h-1.8v-0.4c-0.3,0.2-0.6,0.3-1,0.5l-0.3-0.6
				c0.5-0.2,0.9-0.3,1.2-0.5c0.1-0.1,0.3-0.2,0.4-0.3h-1.4v-0.6H32v-2.3h-1.1v-0.6H32z M33.7,74.8v-0.6h0.6v0.6H36
				c0,0-0.1-0.1-0.1-0.1c-0.2-0.2-0.4-0.4-0.7-0.7h-2.3c-0.2,0.2-0.4,0.4-0.6,0.6c-0.1,0.1-0.2,0.1-0.3,0.2H33.7z M35.4,71.5v-0.4
				h-2.8v0.4H35.4z M35.4,72.5V72h-2.8v0.4H35.4z M35.4,73.4V73h-2.8v0.4H35.4z"/>
			<path class="st0" d="M41,70.8h1.3c0.2-0.3,0.4-0.5,0.6-0.8l0.7,0.2c-0.2,0.2-0.3,0.4-0.5,0.6h1.6v0.6h-2.7v0.4h2.4v0.6h-2.4v0.1
				c0,0.1,0,0.3,0,0.4h3v0.6h-3c0,0.2-0.1,0.4-0.1,0.6h3.1v0.6h-2.4c0.1,0.2,0.2,0.4,0.4,0.5c0.2,0.1,0.4,0.3,0.8,0.4
				c0.3,0.1,0.8,0.2,1.4,0.3l-0.4,0.7c-0.6-0.1-1.1-0.3-1.5-0.5c-0.4-0.2-0.7-0.4-0.9-0.6c-0.2-0.2-0.4-0.5-0.4-0.8h-0.2
				c-0.1,0.3-0.2,0.5-0.3,0.7c-0.5,0.6-1.4,1-2.7,1.2L38.3,76c1.3-0.1,2.1-0.4,2.5-1c0.1-0.1,0.1-0.2,0.2-0.3h-2.5v-0.6h2.7
				c0-0.2,0.1-0.4,0.1-0.6h-2.8V73h2.9c0-0.1,0-0.2,0-0.4v-0.1H39v-0.6h2.3v-0.4h-2.6v-0.6h1.6c-0.1-0.2-0.3-0.4-0.5-0.6l0.7-0.3
				C40.7,70.2,40.8,70.5,41,70.8z"/>
			<path class="st0" d="M49.7,70c0.4,0.4,0.9,0.8,1.4,1.1c0.3,0.2,0.9,0.5,1.7,0.7l-0.4,0.7c-0.4-0.1-0.8-0.3-1.1-0.5v0.3h-3.9v-0.2
				c-0.3,0.2-0.7,0.3-1,0.5l-0.3-0.7c0.8-0.3,1.4-0.6,1.9-0.9c0.3-0.2,0.7-0.6,1.1-1h0.4H49.7z M52,75.9c0,0.2-0.1,0.4-0.2,0.5
				c-0.1,0.1-0.3,0.2-0.5,0.2h-0.6L50.6,76l0.5,0.1c0.1,0,0.2-0.1,0.2-0.3V75h-0.9v1.4h-0.7V75h-0.9v1.4h-0.7V75h-0.9v1.6h-0.7v-3.8
				H52V75.9z M48.2,74.4v-0.9h-0.9v0.9H48.2z M50.6,71.7c-0.4-0.3-0.9-0.6-1.3-1c-0.4,0.4-0.9,0.8-1.3,1c0,0,0,0,0,0H50.6z
				 M48.8,74.4h0.9v-0.9h-0.9V74.4z M50.4,74.4h0.9v-0.9h-0.9V74.4z"/>
			<path class="st0" d="M56.3,71.9c0-0.4,0.1-0.8,0.1-1.3v-0.5h0.7v0.5c0,0.5,0,0.9-0.1,1.3h3v0.7h-2.2c0.2,0.7,0.4,1.3,0.7,1.8
				c0.4,0.6,0.9,1.1,1.6,1.5l-0.4,0.7c-0.8-0.5-1.4-1.2-1.8-1.8c-0.4-0.6-0.6-1.3-0.8-2.2H57c-0.1,0.5-0.2,0.9-0.4,1.3
				c-0.4,0.9-1.1,1.8-2.2,2.7L53.7,76c1-0.7,1.8-1.5,2.2-2.4c0.2-0.3,0.3-0.7,0.4-1.1h-2.4v-0.7H56.3z"/>
			<path class="st0" d="M63.6,70.6c-0.3,0-0.7,0.1-1.2,0.1v0.4h1.1v0.5h-1.1V72h1.1v0.5h-1.1v0.4h4.5v-0.4h-1.1V72h1.1v-0.3h-1.1
				v-0.5h1.1v-0.4h-1.1v-0.6h1.8l0,2.7h0.3v1.4h-0.7v-0.8h-5.1v0.8h-0.7v-1.4h0.3v-2.6c0.5,0,1-0.1,1.6-0.2L63.6,70.6z M66.7,73.9
				v0.5c-0.5,0.2-1,0.4-1.7,0.6h2.7v0.6H65v0.6c0,0.1-0.1,0.3-0.1,0.3c-0.1,0.1-0.2,0.2-0.4,0.2h-1.1l-0.1-0.6c0.3,0,0.5,0,0.8,0
				c0.1,0,0.2-0.1,0.2-0.1v-0.5h-2.8V75h2.8v-0.3c0.4-0.1,0.8-0.2,1.3-0.4h-3v-0.5H66.7z M65.6,70.3c-0.2,0.2-0.3,0.3-0.4,0.4
				c0.1,0.1,0.2,0.2,0.3,0.3l-0.4,0.4c-0.1-0.1-0.2-0.2-0.4-0.4c-0.2,0.1-0.5,0.3-0.9,0.4L63.6,71c0.2-0.1,0.5-0.2,0.7-0.3
				c-0.2-0.1-0.3-0.2-0.5-0.3l0.3-0.3c0.2,0.1,0.4,0.3,0.6,0.4c0.2-0.1,0.3-0.2,0.4-0.4L65.6,70.3z M65.7,71.6
				c-0.2,0.2-0.4,0.4-0.5,0.5c0.1,0.1,0.3,0.2,0.4,0.3l-0.4,0.4c-0.1-0.1-0.3-0.3-0.5-0.4c-0.2,0.1-0.5,0.3-0.8,0.4l-0.3-0.4
				c0.2-0.1,0.4-0.2,0.7-0.3c-0.1-0.1-0.3-0.2-0.5-0.3l0.3-0.3c0.2,0.1,0.4,0.2,0.5,0.4c0.2-0.1,0.4-0.3,0.5-0.4L65.7,71.6z"/>
			<path class="st0" d="M3.8,80.5v-0.5h0.7v0.5h1.7v1h0.4V82H6.2v1.1H4.5v0.5h1.8v0.5H4.5v0.5h2.1v0.5H4.5v0.6c0.1,0,0.2,0,0.3,0
				c0.8,0,1.5,0,1.9-0.1l-0.1,0.7c-2.2,0-3.6-0.1-4.1-0.2C2,86.1,1.6,86,1.4,85.7c0,0-0.1,0-0.1-0.1c-0.2,0.3-0.5,0.6-0.9,0.9
				L0,85.9c0.4-0.3,0.7-0.5,0.9-0.8c-0.2-0.4-0.4-0.9-0.7-1.5l0.6-0.2c0.2,0.4,0.3,0.8,0.5,1c0,0,0-0.1,0-0.1
				C1.4,84,1.4,83.6,1.5,83H0.2v-0.4c0.4-0.5,0.8-1.1,1.2-1.7H0.1v-0.5h2.1v0.6c-0.4,0.7-0.8,1.2-1.1,1.6h1.1c0,0.8-0.1,1.5-0.3,2
				c-0.1,0.2-0.1,0.4-0.2,0.6c0.2,0.2,0.4,0.3,0.8,0.4c0.3,0.1,0.7,0.1,1.4,0.2v-0.6H2.1v-0.5h1.7v-0.5H2.4v-0.5h1.4v-0.5H2.5v-0.5
				h1.3V82H2.1v-0.5h1.7V81H2.5v-0.5H3.8z M4.5,81.5h1.1V81H4.5V81.5z M4.5,82.6h1.1V82H4.5V82.6z"/>
			<path class="st0" d="M9.4,80.1c-0.1,0.1-0.1,0.3-0.2,0.4H11V81c0.3-0.3,0.6-0.7,0.7-1.1l0.7,0.1c-0.1,0.2-0.1,0.3-0.2,0.4h2.2V81
				h-1.2c0.1,0.2,0.1,0.4,0.2,0.5l-0.7,0.1c-0.1-0.2-0.1-0.4-0.1-0.6h-0.7c-0.2,0.2-0.3,0.4-0.5,0.6l-0.6-0.4
				c0.1-0.1,0.2-0.2,0.3-0.3h-1c0.1,0.2,0.1,0.3,0.2,0.5l-0.7,0.1c-0.1-0.2-0.1-0.4-0.2-0.6H8.8c-0.2,0.2-0.4,0.5-0.6,0.7l-0.6-0.4
				c0.5-0.4,0.9-0.9,1.1-1.4L9.4,80.1z M10.7,84.2v-0.4l-0.3-0.2c0.3-0.1,0.6-0.2,0.8-0.4c-0.2-0.1-0.4-0.2-0.6-0.2l0.3-0.5
				c0.2,0.1,0.4,0.1,0.6,0.2c0-0.1,0-0.1,0-0.2v-0.3h-0.8v-0.5h2.6v1.4c0,0.1,0.1,0.2,0.2,0.2h0c0.1,0,0.1,0,0.1-0.1
				c0,0,0.1-0.2,0.1-0.6l0.5,0.2c0,0.5-0.1,0.8-0.2,0.9c-0.1,0.1-0.3,0.1-0.5,0.1h-0.3c-0.2,0-0.3,0-0.4-0.1
				c-0.1-0.1-0.1-0.2-0.1-0.4v-1.1h-0.7v0.3c0,0.2,0,0.3-0.1,0.4c0.2,0.1,0.4,0.2,0.7,0.3l-0.3,0.5c-0.2-0.1-0.4-0.3-0.6-0.4
				c-0.1,0.1-0.3,0.2-0.5,0.3h0.1v0.4h3v0.6h-2.3c0.3,0.2,0.5,0.4,0.7,0.5c0.3,0.2,0.8,0.4,1.5,0.5L14,86.3
				c-0.8-0.3-1.4-0.5-1.7-0.8c-0.3-0.2-0.6-0.4-0.9-0.8v1.8h-0.7v-1.8h0c-0.2,0.3-0.5,0.5-0.7,0.7c-0.4,0.3-1.1,0.6-1.9,0.9
				l-0.4-0.6c0.9-0.3,1.5-0.5,1.8-0.7c0.2-0.1,0.3-0.2,0.5-0.3H7.7v-0.6H10.7z M10.5,81.9v0.6h-1v0.6c0.3-0.1,0.6-0.1,1-0.2v0.6
				c-0.8,0.2-1.6,0.4-2.7,0.5l-0.1-0.7c0.4,0,0.8-0.1,1.2-0.1v-0.7h-1v-0.6H10.5z"/>
			<path class="st0" d="M21.5,80.1v0.5H19V81h2.9v1.6h-0.7v-1H19V83h-0.7v-1.5h-2.2v1.1h-0.7V81h2.9v-0.3h-2.5v-0.5H21.5z
				 M21.4,83.2v2.2l0.6,0.2c-0.1,0.5-0.2,0.8-0.4,0.9c-0.2,0.1-0.4,0.1-0.8,0.1h-1.9c-0.2,0-0.4-0.1-0.5-0.2
				c-0.1-0.1-0.2-0.2-0.2-0.4v-0.5h-2.4v-2.3H21.4z M18.1,81.8v0.4h-1.7v-0.4H18.1z M18.1,82.5v0.4h-1.7v-0.4H18.1z M18.3,84.1v-0.4
				h-1.7v0.4H18.3z M18.3,84.5h-1.7V85h1.7V84.5z M18.9,84.1h1.9v-0.4h-1.9V84.1z M20.8,84.5h-1.9V85h1.9V84.5z M18.9,85.8
				c0,0.1,0.1,0.2,0.3,0.2h1.6c0.2,0,0.4,0,0.4-0.1c0.1,0,0.2-0.2,0.2-0.4h-2.5V85.8z M21,81.8v0.4h-1.8v-0.4H21z M21,82.5v0.4h-1.8
				v-0.4H21z"/>
			<path class="st0" d="M25.2,80.1v5.6c0,0.2-0.1,0.4-0.1,0.5c-0.1,0.1-0.2,0.2-0.5,0.2h-0.4L24,85.8l0.4,0c0.1,0,0.2-0.1,0.2-0.2
				V84c-0.2,0.2-0.4,0.4-0.6,0.6l-0.2-0.4c0,0.3,0,0.5-0.1,0.8c-0.1,0.5-0.2,1-0.3,1.5L23,86.1c0.1-0.4,0.2-0.8,0.3-1.3
				c0-0.5,0.1-0.9,0.1-1.3v-3.4h0.3H25.2z M24.6,83.2v-0.7l-0.3,0.2c-0.1-0.3-0.2-0.5-0.4-0.9v1.7c0,0.1,0,0.3,0,0.4
				C24.1,83.8,24.4,83.5,24.6,83.2z M24.1,81.3c0.2,0.3,0.3,0.6,0.5,0.9v-1.5h-0.7v0.7L24.1,81.3z M26.9,80.2
				c-0.3,0.4-0.6,0.8-0.9,1.1c0.3,0.4,0.6,0.7,0.7,1l-0.6,0.3c-0.2-0.4-0.5-0.9-0.8-1.3c0.4-0.4,0.7-0.8,1-1.3L26.9,80.2z
				 M28.3,80.2c-0.2,0.4-0.5,0.8-0.8,1.2c0.3,0.4,0.6,0.7,0.8,1l-0.6,0.3c0-0.1-0.1-0.1-0.1-0.2c-0.1,0.1-0.1,0.3-0.2,0.4h2.2v3.8
				h-0.6v-0.3h-2.7v0.3h-0.6v-3.8h1.1c0.1-0.2,0.2-0.4,0.3-0.6l0.5,0.1c-0.2-0.3-0.4-0.6-0.6-0.9c0.3-0.4,0.6-0.9,0.9-1.4L28.3,80.2
				z M28.9,85.7v-2.3h-2.7v2.3H28.9z M28.7,83.9c-0.2,0.3-0.4,0.5-0.6,0.7c0.2,0.2,0.4,0.3,0.6,0.5l-0.5,0.4
				c-0.2-0.2-0.4-0.4-0.6-0.5c-0.3,0.2-0.7,0.4-1.1,0.6L26.3,85c0.3-0.1,0.6-0.3,0.9-0.5c-0.2-0.2-0.5-0.3-0.8-0.5l0.4-0.4
				c0.3,0.2,0.6,0.4,0.8,0.5c0.2-0.2,0.4-0.4,0.6-0.6L28.7,83.9z M29.6,80.2c-0.2,0.4-0.5,0.8-0.9,1.2c0.4,0.4,0.6,0.8,0.8,1.1
				L29,82.7c-0.2-0.4-0.5-0.9-0.9-1.4c0.3-0.4,0.6-0.8,0.9-1.3L29.6,80.2z"/>
			<path class="st0" d="M31.8,83.7v-0.9h0.9v0.9H31.8z"/>
			<path class="st0" d="M37.8,80.3v0.6h-1c-0.1,0.6-0.2,1.1-0.4,1.5c0,0,0,0,0,0h1.3v3.4h-1.2v0.7h-0.6v-3c-0.1,0.2-0.2,0.4-0.4,0.5
				l-0.4-0.6c0.3-0.5,0.6-1,0.7-1.4c0.1-0.3,0.2-0.6,0.3-1.1h-0.8v-0.6H37.8z M37.1,85.2V83h-0.6v2.2H37.1z M39.6,85.6
				c-0.4,0.4-0.9,0.7-1.5,1l-0.4-0.6c0.5-0.2,1-0.5,1.5-0.8L39.6,85.6z M41.9,80.2v0.6h-1.7c-0.1,0.2-0.1,0.4-0.2,0.5h1.5v3.8h-3.5
				v-3.8h1.2c0.1-0.2,0.1-0.3,0.2-0.5h-1.5v-0.6H41.9z M41,82.4v-0.5h-2.2v0.5H41z M41,83.5v-0.6h-2.2v0.6H41z M41,84h-2.2v0.5H41
				V84z M42,86l-0.4,0.6c-0.5-0.4-1-0.7-1.6-0.9l0.3-0.5C40.9,85.5,41.5,85.7,42,86z"/>
			<path class="st0" d="M45.9,82.1V80h0.8v2.1h2.9v0.7h-2.9v2.9h2.5v0.6h-5.9v-0.6h2.6v-2.9h-2.8v-0.7H45.9z"/>
		</g>
	</g>
	<g>
		<g>
			<path class="st0" d="M4.2,7.2H1.5v0.8H0.5V0.7h3.6V7.2z M3.2,3.4V1.6H1.5v1.9H3.2z M3.2,6.3v-2H1.5v2H3.2z M5.1,0.4h4.4v7.7
				c0,0.3-0.1,0.6-0.3,0.7C9.1,9,8.9,9.1,8.6,9.1H6.9L6.7,8.2l1.5,0.1c0.2,0,0.3-0.1,0.3-0.4V6.1H6c-0.1,0.4-0.2,0.7-0.3,1
				C5.3,7.8,4.8,8.5,3.9,9.3L3,8.6C3.8,8,4.4,7.4,4.7,6.8C5,6.2,5.1,5.4,5.1,4.3V3.7V0.4z M8.5,5.2V3.7H6.1v0.7c0,0.3,0,0.6,0,0.9
				H8.5z M8.5,2.8V1.3H6.1v1.4H8.5z"/>
			<path class="st0" d="M19.7,9.2h-1V8.5h-5.2v0.7h-1V0.4h7.2V9.2z M18.7,3.9V1.4h-5.2v2.5H18.7z M18.7,7.6V4.9h-5.2v2.7H18.7z"/>
			<path class="st0" d="M25.2,0.7c-0.2,0.5-0.3,0.9-0.4,1.2h2.2V0.1h1v1.8h3.8v0.9H28v2.1h3.4v0.9H28v2.4h4V9h-9.5V8.1h4.4V5.7h-3.3
				V4.9h3.3V2.8h-2.6c0,0,0,0,0,0c-0.2,0.5-0.6,1.1-1.2,1.7l-0.8-0.7c0.5-0.5,0.9-1.1,1.2-1.6c0.3-0.5,0.5-1.2,0.7-1.9L25.2,0.7z"/>
			<path class="st0" d="M35.8,3.8l-0.6,0.9c-0.6-0.5-1.2-0.9-1.8-1.2L34,2.8C34.7,3,35.3,3.4,35.8,3.8z M36.3,5.8
				c-0.5,1.3-1.2,2.4-1.9,3.4l-0.8-0.9c0.6-0.7,1.2-1.8,1.8-3.2L36.3,5.8z M36.1,1.1l-0.6,0.9c-0.5-0.4-1.1-0.8-1.7-1l0.5-0.8
				C34.9,0.5,35.5,0.8,36.1,1.1z M42.8,1c-0.8,0.2-1.7,0.4-2.7,0.5v1.4h3v0.9h-3v1.4h2.5v4h-1V8.6h-3.9v0.6h-1v-4h2.4V3.8h-3V2.9h3
				V1.6c-0.7,0-1.5,0.1-2.3,0.1l-0.2-0.8c2.3,0,4.2-0.2,5.8-0.6L42.8,1z M41.6,7.8V6h-3.9v1.8H41.6z"/>
			<path class="st0" d="M56.9,1.7l-0.1,1h1.5v0.6h-1.5l-0.1,1h-6.7l0.1-1h-1.5V2.7h1.5l0.1-1H56.9z M54.1,0.6h4v1.7h-0.9v-1h-7.3v1
				h-0.9V0.6h4.2c-0.1-0.2-0.3-0.3-0.4-0.5l1-0.1C53.9,0.2,54,0.4,54.1,0.6z M57.2,4.6V8h-2C56,8.1,57,8.3,57.9,8.6l-0.3,0.7
				c-1-0.3-2.1-0.6-3.3-0.8L54.6,8h-2.2l0.3,0.3c-0.5,0.2-1,0.4-1.4,0.5c-0.5,0.1-1.1,0.3-1.8,0.4l-0.5-0.8c0.7-0.1,1.3-0.2,1.8-0.3
				C51.2,8.1,51.4,8,51.6,8h-1.8V4.6H57.2z M56.3,5.6V5.2h-5.6v0.3H56.3z M56.3,6.5V6.1h-5.6v0.4H56.3z M56.3,7h-5.6v0.3h5.6V7z
				 M52.9,3.7l0-0.4H51l0,0.4H52.9z M53,2.7l0-0.4h-1.9l0,0.4H53z M53.8,3.7h2.1l0-0.4h-2.1L53.8,3.7z M53.9,2.7H56l0-0.4h-2.1
				L53.9,2.7z"/>
			<path class="st0" d="M63.5,0.5v3.2h-0.9v1.2h1v0.8h-1v1.7c0.4-0.1,0.8-0.2,1.2-0.4V8c-1.2,0.4-2.5,0.7-3.9,1L59.8,8
				c0.2,0,0.3,0,0.5,0V4.4H61v3.5c0.2,0,0.5-0.1,0.7-0.1v-4h-1.3V0.5H63.5z M62.6,1.3h-1.3v1.6h1.3V1.3z M69.2,1.8l-3,0.4
				c0.1,0.1,0.1,0.3,0.2,0.3c0.1,0.1,0.1,0.2,0.2,0.3c0.4-0.2,0.8-0.5,1.2-0.8l0.7,0.5c-0.4,0.4-0.8,0.7-1.3,0.9
				c0.1,0,0.1,0.1,0.2,0.1c0.3,0.2,0.6,0.3,0.8,0.3c0.1,0,0.3-0.3,0.6-1l0.8,0.5c-0.3,0.6-0.5,1-0.7,1.2c-0.2,0.1-0.4,0.2-0.6,0.2
				c-0.3,0-0.7-0.1-1.2-0.4c-0.3-0.1-0.5-0.3-0.7-0.5c-0.6,0.2-1.4,0.5-2.3,0.7l-0.4-0.8c0.8-0.2,1.6-0.3,2.1-0.5
				c-0.1-0.1-0.1-0.2-0.2-0.3c-0.1-0.2-0.2-0.4-0.3-0.6l-1.3,0.2l-0.1-0.7l1.2-0.1c-0.1-0.4-0.2-0.8-0.3-1.3l0.9-0.1
				c0.1,0.5,0.2,0.9,0.3,1.3L67,1.3c-0.2-0.2-0.4-0.5-0.6-0.7L67,0.1c0.3,0.3,0.6,0.5,0.8,0.7l-0.6,0.4L69.1,1L69.2,1.8z M69.3,5.7
				l-3.2,0.5c0.1,0.3,0.2,0.5,0.3,0.7c0.1,0.1,0.1,0.2,0.2,0.3C67,6.9,67.5,6.5,68,6l0.6,0.5c-0.5,0.5-0.9,0.9-1.4,1.3
				c0,0,0.1,0.1,0.1,0.1c0.4,0.2,0.6,0.4,0.8,0.4c0.1,0,0.2,0,0.3-0.1C68.5,8,68.6,7.7,68.7,7l0.9,0.4c-0.2,0.8-0.4,1.3-0.7,1.5
				c-0.1,0.1-0.3,0.2-0.6,0.2c-0.5,0-1-0.2-1.4-0.5c-0.2-0.1-0.3-0.3-0.5-0.4c-0.6,0.3-1.3,0.6-2.2,0.8l-0.4-0.8
				c0.8-0.2,1.5-0.4,2.1-0.7c-0.1-0.2-0.2-0.3-0.3-0.5c-0.1-0.2-0.2-0.4-0.3-0.7l-1.4,0.2l-0.1-0.7L65,5.6c-0.1-0.4-0.2-0.8-0.2-1.2
				h0.9c0,0.4,0.1,0.7,0.2,1l0.8-0.1c-0.2-0.2-0.3-0.4-0.6-0.7l0.6-0.4c0.3,0.3,0.6,0.5,0.7,0.7L67,5.3l2.2-0.4L69.3,5.7z"/>
			<path class="st0" d="M79,2.3v0.8h-2.2c-0.3,0.2-0.6,0.4-0.8,0.6c0.4,0.4,0.6,0.9,0.8,1.3c0.8-0.3,1.5-0.8,2.2-1.4l0.7,0.7
				c-0.4,0.4-0.9,0.7-1.4,1c0.2,0.5,0.5,1,0.9,1.4c0.3,0.4,0.8,0.9,1.4,1.3l-0.7,0.8c-0.7-0.6-1.2-1.2-1.6-1.8
				c-0.3-0.4-0.6-0.9-0.8-1.4c-0.2,0.1-0.3,0.1-0.5,0.2c0.1,0.4,0.1,0.8,0.1,1.3c0,0.8-0.1,1.3-0.3,1.6c-0.3,0.3-1,0.5-2.2,0.5
				l-0.3-1c0,0,0.2,0.1,0.6,0.1c0.5,0,0.9-0.1,1-0.2c0.2-0.2,0.3-0.5,0.3-1.1c0-0.1,0-0.3,0-0.4c-0.6,0.4-1.1,0.8-1.6,1
				c-0.8,0.4-1.7,0.7-2.9,1.1l-0.5-0.9c1.1-0.3,2.1-0.6,3-1c0.7-0.3,1.3-0.7,1.8-1.1c0-0.1-0.1-0.2-0.1-0.3c0-0.1-0.1-0.2-0.1-0.3
				c-0.6,0.4-1.1,0.7-1.5,0.9c-0.7,0.3-1.5,0.6-2.5,0.9l-0.5-0.8c1-0.2,1.9-0.5,2.7-0.8c0.6-0.2,1.1-0.5,1.5-0.8
				c-0.1-0.1-0.2-0.2-0.3-0.4c-0.9,0.4-2,0.7-3.2,1l-0.5-0.8c1.3-0.2,2.3-0.5,3.1-0.7c0.3-0.1,0.6-0.2,0.9-0.3h-2.9V2.3H79z
				 M76.2,0.8h4.1v2h-0.9V1.7h-7.2v1.2h-0.9v-2h3.9c-0.1-0.2-0.3-0.4-0.4-0.6l1.1-0.1C75.9,0.3,76.1,0.5,76.2,0.8z"/>
		</g>
	</g>
	<g>
		<g>
			<path class="st1" d="M16.3,17.1c-0.1,0.2-0.4,0.3-0.8,0.3h-2.9c0.6,2.6,2.2,5.2,3.8,6.6v0.2c-0.7,0.4-1.5,1.1-1.7,1.9
				c-1.2-1.8-1.9-4.7-2.3-7.5h0v9.7c0,0.2-0.8,0.6-1.4,0.6h-0.4v-7.4c-1,1.8-2.5,3.4-4.2,4.7l-0.2-0.2c2.1-2.2,3.5-5.4,4.1-8.5H7.4
				c-0.1,0-0.2,0-0.3,0H4.9v2.2c2,0.7,2.7,1.6,2.7,2.3c0,0.6-0.4,1-0.9,1c-0.3,0-0.5-0.1-0.7-0.4c-0.1-0.8-0.5-1.9-1-2.6v8.5
				c0,0-0.2,0.5-1.8,0.5v-7c-0.7,1.3-1.7,2.4-2.8,3.4l-0.2-0.2c1.5-2.1,2.4-4.9,2.9-7.6H0.4l-0.1-0.3h2.9v-4.2l2.4,0.2
				c0,0.2-0.2,0.4-0.7,0.4v3.5h0.5l0.9-1.2l1.6,1.2h2.8v-4.1l2.5,0.2c0,0.2-0.2,0.4-0.7,0.4v3.5h1.2l0.9-1.3L16.3,17.1z"/>
			<path class="st1" d="M35,18.2c-0.1,0.2-0.3,0.3-0.8,0.3h-6.5c0.6,3.2,2.5,6.4,7.4,8.5l0,0.2c-1,0.2-1.5,0.7-1.7,1.8
				c-4.2-2.5-5.5-6.8-5.9-10.2h0c-0.5,4.1-2.1,7.7-8.2,10.2L19,28.7c4.7-2.9,6.1-6.4,6.5-10.2h-6.4L19,18.1h6.5
				c0.1-1.5,0.1-2.7,0.1-5.2l2.7,0.2c0,0.2-0.2,0.4-0.7,0.4c0,1.5-0.1,3-0.2,4.5h4.2l1.2-1.5L35,18.2z"/>
			<path class="st1" d="M37.5,22c1.3-2.1,2.7-5.7,3.5-9.1l2.6,0.8c-0.1,0.2-0.2,0.3-0.7,0.3c-0.4,1.2-1,2.3-1.5,3.3l0.7,0.2
				c-0.1,0.2-0.2,0.3-0.5,0.3v10.4c0,0.1-0.8,0.5-1.5,0.5h-0.3V20c-0.6,0.8-1.3,1.5-2,2.2L37.5,22z M46.6,17.5l1.1,0.2
				C47.6,18,47.4,18,47,18c-0.5,1.7-1.8,3.1-4.7,3.9l-0.1-0.3c2-0.9,2.7-2.3,3-3.9L43.8,18c-0.1,0.2-0.3,0.3-0.5,0.3l-0.8-2
				c0.6,0,1.4,0,2.5,0c0.4-1.1,0.8-2.5,1.1-3.5l2.7,0.9c-0.1,0.2-0.2,0.3-0.7,0.2c-0.6,0.7-1.6,1.6-2.5,2.3c1.5,0,3.4-0.1,5.4-0.1
				c-0.4-0.6-0.9-1.1-1.4-1.4l0.1-0.1c2.8,0.4,3.7,1.5,3.7,2.4c0,0.6-0.4,1-0.9,1c-0.2,0-0.5-0.1-0.7-0.3c-0.1-0.4-0.3-0.8-0.5-1.2
				c-0.8,0.2-1.7,0.4-2.7,0.6l2,0.2c0,0.2-0.1,0.3-0.5,0.3v1.8c0,0.4,0,0.4,0.3,0.4h1.4c0.4,0,0.5,0,1.1-1.3H53l0,1.2
				c0.5,0.2,0.6,0.3,0.6,0.5c0,0.6-0.5,0.9-1.8,0.9h-1.6c-1.4,0-1.7-0.3-1.7-1.6v-2.3L46.6,17.5z M50.5,21.6l1.7,1.5
				c-0.1,0.2-0.3,0.2-0.7,0.2c-0.5,1-1.3,1.9-2.2,2.7c1.2,0.5,2.6,0.8,4.3,1l0,0.2c-0.7,0.3-1.1,0.8-1.2,1.7c-1.9-0.5-3.2-1.1-4.3-2
				c-1.5,0.9-3.4,1.6-5.7,2l-0.1-0.2c2-0.6,3.6-1.4,4.9-2.5c-0.7-0.7-1.2-1.6-1.7-2.5c-0.9,0.8-1.9,1.6-3,2.1l-0.2-0.2
				c1.4-1.2,2.8-3.2,3.3-5l2.4,0.5c-0.1,0.2-0.2,0.3-0.6,0.2c-0.3,0.4-0.6,0.9-0.9,1.3h3L50.5,21.6z M46.2,22.9
				c-0.1,0.2-0.3,0.3-0.5,0.5c0.6,0.8,1.3,1.5,2.2,2c0.6-0.7,1.2-1.6,1.6-2.5H46.2z"/>
		</g>
	</g>
</g>
</svg>
