<?xml version="1.0" encoding="utf-8"?>
<!-- Generator: Adobe Illustrator 27.0.0, SVG Export Plug-In . SVG Version: 6.00 Build 0)  -->
<svg version="1.1" id="圖層_1" xmlns="http://www.w3.org/2000/svg" xmlns:xlink="http://www.w3.org/1999/xlink" x="0px" y="0px"
	 viewBox="0 0 120 92" style="enable-background:new 0 0 120 92;" xml:space="preserve">
<style type="text/css">
	.st0{fill:#3E3A39;}
	.st1{fill:#C79F62;}
</style>
<g>
	<g>
		<g>
			<path class="st0" d="M6.4,47.5H5.8v-0.2H1v0.2H0.3v-6.4h6.1V47.5z M5.8,46.7v-5.1H1v5.1H5.8z M3.6,45.7c-0.7,0.2-1.4,0.3-2.3,0.5
				l-0.1-0.6c0.8-0.1,1.6-0.2,2.4-0.4V45.7z M3.5,42.5c0-0.2,0-0.4,0-0.7h0.6c0,0.2,0,0.5,0,0.7h0.7c-0.1-0.2-0.2-0.4-0.3-0.5
				l0.5-0.2c0.1,0.2,0.2,0.4,0.3,0.6l-0.3,0.1h0.5V43H4.2c0,0.5,0.1,0.8,0.1,1.1c0,0.2,0.1,0.5,0.2,0.7c0.2-0.4,0.4-0.9,0.7-1.6
				l0.5,0.3c-0.3,0.9-0.6,1.5-0.9,1.9c0,0,0,0,0,0c0,0,0,0.1,0.1,0.1c0.1,0.2,0.2,0.3,0.3,0.3c0,0,0.1-0.3,0.2-0.8l0.5,0.4
				c-0.2,0.5-0.3,0.9-0.3,0.9c-0.1,0.1-0.2,0.2-0.3,0.2c-0.2,0-0.4-0.1-0.6-0.4c-0.1-0.1-0.1-0.2-0.2-0.3c-0.2,0.3-0.5,0.5-0.8,0.7
				l-0.3-0.5c0.4-0.3,0.7-0.5,0.9-0.8c-0.1-0.2-0.2-0.5-0.3-0.8c-0.1-0.4-0.2-0.9-0.2-1.5H1.2v-0.5H3.5z M3.2,43.4v1.7H1.4v-1.7H3.2
				z M2.7,43.9H1.9v0.7h0.7V43.9z"/>
			<path class="st0" d="M10,41.3v0.5c-0.1,0.3-0.1,0.5-0.2,0.8c0.2-0.2,0.4-0.4,0.6-0.7c0.1-0.2,0.3-0.5,0.4-0.9l0.6,0.1
				c0,0.1-0.1,0.2-0.1,0.3h1c0.2,0.4,0.4,0.9,0.7,1.3c0.2-0.2,0.3-0.4,0.5-0.7h-0.9v-0.6h1.6v0.5c-0.2,0.5-0.5,0.9-0.8,1.2
				c0.3,0.3,0.6,0.6,1,0.9l-0.4,0.5c-0.3-0.2-0.5-0.4-0.8-0.7v0.4h-2.2V44c-0.2,0.2-0.4,0.4-0.7,0.6l-0.4-0.5
				c0.3-0.2,0.5-0.4,0.8-0.5c-0.1-0.1-0.3-0.2-0.4-0.4l0.3-0.3c0.2,0.1,0.3,0.2,0.4,0.3c0.1-0.1,0.1-0.1,0.1-0.2
				c0,0,0.1-0.1,0.1-0.1c-0.2-0.1-0.3-0.2-0.5-0.3l0.3-0.4c0.2,0.1,0.3,0.2,0.5,0.3c0.1-0.2,0.2-0.4,0.2-0.6H11
				c-0.1,0.1-0.1,0.2-0.2,0.3c-0.2,0.3-0.5,0.6-0.8,0.9l-0.3-0.4c-0.1,0.3-0.2,0.5-0.2,0.8c0.2,0.3,0.3,0.6,0.4,0.9
				c0.1,0.3,0.1,0.5,0.1,0.7c0,0.4-0.1,0.7-0.2,0.8c-0.1,0.2-0.4,0.3-0.9,0.3l-0.2-0.7c0.1,0,0.2,0,0.3,0s0.2,0,0.2-0.1
				c0.1-0.1,0.1-0.2,0.1-0.4c0-0.2,0-0.4-0.1-0.6c-0.1-0.3-0.2-0.6-0.4-0.9c0.2-0.7,0.4-1.2,0.5-1.7H8.6v5.7H8v-6.3H10z M11.3,45.8
				c-0.4,0.5-0.8,1-1.2,1.4l-0.6-0.4c0.5-0.3,0.9-0.8,1.3-1.2L11.3,45.8z M14,44.8v0.6h-1.6v1.5c0,0.2-0.1,0.4-0.2,0.5
				c-0.1,0.1-0.3,0.2-0.6,0.2h-0.5L11,46.9c0.2,0,0.3,0.1,0.5,0.1c0.2,0,0.3-0.1,0.3-0.2v-1.4h-1.6v-0.6H14z M13,43.7
				c-0.1-0.1-0.2-0.2-0.3-0.3c-0.3-0.3-0.5-0.6-0.6-1c-0.2,0.3-0.3,0.6-0.5,0.8c-0.1,0.1-0.2,0.3-0.4,0.4H13z M14.3,46.8l-0.6,0.4
				c-0.3-0.4-0.6-0.8-1-1.3l0.5-0.3C13.7,46.1,14.1,46.5,14.3,46.8z"/>
			<path class="st0" d="M19,41c0.4,0.5,0.9,0.9,1.4,1.1c0.3,0.2,0.9,0.5,1.7,0.8l-0.4,0.7c-0.3-0.1-0.7-0.2-1-0.4v0.3H19v0.8h2.6
				v0.6H19v1.8h0.7c0.2-0.5,0.4-1,0.6-1.5l0.7,0.2c-0.2,0.5-0.4,0.9-0.6,1.3h1.4v0.6h-6.3v-0.6H17c-0.1-0.4-0.3-0.8-0.5-1.3l0.7-0.2
				c0.2,0.4,0.4,0.9,0.6,1.5h0.7v-1.8h-2.6v-0.6h2.6v-0.8h-1.6v-0.3c-0.3,0.2-0.6,0.3-1,0.5L15.3,43c0.8-0.3,1.4-0.6,1.9-0.9
				c0.3-0.3,0.7-0.6,1.1-1.1h0.3H19z M20.1,42.8c-0.5-0.3-0.9-0.7-1.4-1.2c-0.4,0.4-0.8,0.8-1.2,1.1c-0.1,0-0.1,0.1-0.2,0.1H20.1z"
				/>
			<path class="st0" d="M25.9,45.3c0-0.2,0.1-0.4,0.1-0.7l0.6,0.1c0,0.2,0,0.4,0,0.6h0.8c-0.1-0.1-0.2-0.2-0.4-0.3l0.4-0.3
				c0.3,0.2,0.5,0.3,0.7,0.5l-0.1,0.1h1.5v0.6h-2.3c0.2,0.2,0.4,0.4,0.7,0.5c0.4,0.2,1,0.4,1.8,0.6l-0.4,0.6c-0.9-0.3-1.5-0.5-2-0.8
				c-0.4-0.2-0.6-0.5-0.8-0.9h0c0,0.1-0.1,0.1-0.1,0.1c-0.3,0.4-0.6,0.8-1.1,1c-0.4,0.2-0.9,0.4-1.7,0.6L23.1,47
				c0.8-0.2,1.4-0.4,1.8-0.6c0.3-0.1,0.5-0.3,0.7-0.6h-2.4v-0.6H25.9z M24.2,41.2V42h0.7v-1h0.6v4h-0.6v-1.6h-0.5
				c0,0.4-0.1,0.6-0.1,0.8c-0.1,0.3-0.2,0.6-0.5,0.9l-0.5-0.4c0.2-0.2,0.3-0.4,0.4-0.6c0-0.2,0.1-0.4,0.1-0.7h-0.5v-0.5h1.6v-0.4
				h-1.3v-1.3H24.2z M27.6,41c-0.1,0.1-0.1,0.2-0.2,0.3h1.8v0.4c-0.3,0.4-0.6,0.7-0.9,0.8c-0.3,0.2-1,0.5-2,0.7h2v-0.6H29v0.6h0.6
				v0.5H29v0.6c0,0.2-0.1,0.4-0.2,0.4c-0.1,0.1-0.3,0.1-0.5,0.1h-0.5l-0.1-0.6c0.2,0,0.3,0.1,0.5,0.1c0.2,0,0.3,0,0.3-0.1v-0.5h-1.5
				c0.2,0.2,0.4,0.3,0.6,0.5l-0.4,0.4c-0.2-0.2-0.4-0.4-0.8-0.6l0.3-0.3h-0.8v-0.5H26l-0.2-0.5c0.3,0,0.5-0.1,0.7-0.1
				c-0.1-0.2-0.2-0.3-0.3-0.5c-0.1,0-0.1,0.1-0.2,0.1l-0.4-0.4c0.3-0.1,0.6-0.2,0.9-0.4c0.2-0.1,0.4-0.2,0.5-0.4L27.6,41z M27,42.5
				c0.1,0,0.3-0.1,0.4-0.1c-0.1-0.2-0.3-0.5-0.4-0.7h0c-0.1,0.1-0.2,0.1-0.3,0.2C26.8,42.1,26.9,42.3,27,42.5z M27.9,42.2
				c0.2-0.1,0.5-0.3,0.7-0.5h-1C27.7,41.9,27.8,42.1,27.9,42.2z"/>
			<path class="st0" d="M37.2,41.2v0.6h-4.9v1h4.2v2.6h-4.2v1.2h5v0.6h-6.7v-0.6h0.9v-4.8h-0.8v-0.6H37.2z M35.8,44.9v-1.4h-3.5v1.4
				H35.8z"/>
			<path class="st0" d="M39.3,43.2c-0.1,0.3-0.3,0.6-0.5,1l-0.5-0.4c0.2-0.2,0.4-0.5,0.4-0.7c0.1-0.3,0.1-0.5,0.1-0.7v-1.1h2.5v1.4
				h-2C39.4,42.7,39.3,42.9,39.3,43.2z M44.2,44.7c-0.6,0.1-1.3,0.1-2.1,0.2v0.3h2.5v0.5h-2.5v0.4h2.8v0.5h-2.8V47
				c0,0.2-0.1,0.4-0.2,0.5c-0.1,0.1-0.3,0.1-0.6,0.1h-0.9L40.3,47c0.3,0,0.6,0.1,0.8,0.1c0.2,0,0.3-0.1,0.3-0.1v-0.3h-3v-0.5h3v-0.4
				h-2.7v-0.5h2.7v-0.3c-0.7,0-1.4,0-2.2,0l-0.1-0.5c1.9,0,3.5-0.1,4.9-0.2L44.2,44.7z M39.4,41.6v0.5h1.4v-0.5H39.4z M41.4,42.8
				v1.3h-2v-1.3H41.4z M40.8,43.3H40v0.4h0.9V43.3z M43.6,41.4h1.3v0.5h-0.5l-0.2,0.6h0.8v0.4h-1.4v0.4h1.3v0.4h-1.3v0.5h-0.6v-0.5
				h-1.3v-0.4h1.3v-0.4h-1.4v-0.4h0.8l-0.3-0.6h-0.4v-0.5h1.3c-0.1-0.1-0.2-0.3-0.2-0.4l0.7-0.1C43.4,41.1,43.5,41.2,43.6,41.4z
				 M43.5,42.4l0.2-0.6h-1l0.3,0.6H43.5z"/>
			<path class="st0" d="M3,52.3v-1.4h0.7v1.4h2.5v3.4H3.7v1.8H3v-1.8H0.4v-3.4H3z M3,52.9H1.2V55H3V52.9z M5.5,52.9H3.7V55h1.8V52.9
				z"/>
			<path class="st0" d="M8.5,52.5c0,0.7-0.1,1.4-0.3,2l-0.6-0.1c0.2-0.7,0.3-1.3,0.3-1.9L8.5,52.5z M9.4,51v1.4l0.5-0.2
				c0.2,0.5,0.3,1.1,0.5,1.7l-0.6,0.1c-0.1-0.5-0.2-1-0.4-1.5v4.9H8.7V51H9.4z M12,52.1l-0.5,0.2H13l-0.4-0.2
				c0.3-0.4,0.5-0.8,0.7-1.1l0.6,0.3c-0.2,0.4-0.4,0.7-0.6,1.1H14v2.4h-0.9v1.8c0,0.2,0.1,0.3,0.3,0.3h0.2c0.1,0,0.1,0,0.1-0.1
				c0-0.1,0.1-0.4,0.1-1l0.6,0.2c-0.1,0.8-0.1,1.2-0.2,1.3c-0.1,0.1-0.3,0.2-0.5,0.2h-0.5c-0.2,0-0.4-0.1-0.5-0.2
				c-0.1-0.1-0.2-0.3-0.2-0.5v-2h-0.5c-0.1,0.7-0.2,1.3-0.4,1.6c-0.3,0.4-0.7,0.8-1.3,1.1L9.8,57c0.5-0.3,0.9-0.5,1.1-0.9
				c0.2-0.3,0.3-0.7,0.4-1.4h-0.8v-2.4h0.8c-0.2-0.4-0.4-0.7-0.6-1l0.6-0.3C11.6,51.3,11.8,51.7,12,52.1z M13.3,52.9h-2.2v1.2h2.2
				V52.9z"/>
			<path class="st0" d="M17.4,51.1c-0.2,0.6-0.4,1.1-0.6,1.5v4.9h-0.7v-3.8c-0.2,0.3-0.4,0.5-0.6,0.8l-0.2-0.8
				c0.3-0.4,0.6-0.8,0.8-1.2c0.2-0.4,0.5-0.9,0.7-1.6L17.4,51.1z M20.2,52l-0.4,0.4h2V53h-1.9v1.3h1.7V55h-1.7v1.7H22v0.7h-4.9v-0.7
				h2.1V55h-1.6v-0.6h1.6V53h-1.9v-0.6h2.3c-0.3-0.3-0.6-0.6-1.1-1L19,51C19.5,51.3,19.9,51.6,20.2,52z"/>
			<path class="st0" d="M28.4,53.1c-0.6,0.2-1.3,0.4-2.1,0.5v1l3.1-0.4l0.1,0.6l-3.2,0.4v1.2c0,0.2,0.1,0.2,0.3,0.2h1.9
				c0.1,0,0.2,0,0.2-0.1c0.1-0.1,0.1-0.4,0.1-1.1l0.7,0.2c-0.1,0.8-0.2,1.2-0.3,1.4c-0.1,0.1-0.4,0.2-0.7,0.2h-2.3
				c-0.2,0-0.4-0.1-0.6-0.2c-0.1-0.1-0.2-0.3-0.2-0.5v-1.3l-2.3,0.3L23.2,55l2.3-0.3v-1c-0.4,0.1-0.9,0.1-1.4,0.2L24,53.3
				c1.5-0.1,2.9-0.4,4.1-0.9L28.4,53.1z M26.8,51.5h2.7v1.8h-0.7v-1.2h-4.8v1.2h-0.7v-1.8H26c-0.1-0.2-0.2-0.4-0.3-0.5l0.8-0.1
				C26.6,51.1,26.7,51.3,26.8,51.5z"/>
			<path class="st0" d="M36.6,54.8v0.6h-2.2v1.3h3v0.7h-6.7v-0.7h3v-1.3h-2.2v-0.6H36.6z M33.6,52.8c-0.3,0.5-0.6,0.8-0.9,1.1
				c-0.4,0.2-0.9,0.5-1.6,0.6l-0.4-0.7c0.8-0.1,1.3-0.3,1.5-0.5c0.3-0.2,0.5-0.4,0.8-0.9L33.6,52.8z M34.4,51.6h2.7v1.5h-0.7v-0.9
				h-1.3v1.1c0,0.2,0.1,0.3,0.3,0.3h1.9v0.6h-2c-0.3,0-0.5-0.1-0.6-0.2c-0.2-0.1-0.2-0.3-0.2-0.5v-1.4h-2.8v0.9h-0.7v-1.5h2.8
				c-0.1-0.2-0.2-0.4-0.3-0.6l0.7-0.1C34.2,51.1,34.3,51.3,34.4,51.6z"/>
			<path class="st0" d="M41.3,53.8h-2.1v3.7h-0.7v-6.4h2.8V53.8z M40.7,52.2v-0.5h-1.5v0.5H40.7z M40.7,53.2v-0.5h-1.5v0.5H40.7z
				 M43.1,54.1v2.7h-3v-2.7H43.1z M42.4,55.2v-0.5h-1.7v0.5H42.4z M42.4,55.7h-1.7v0.6h1.7V55.7z M44.7,51.1v5.7
				c0,0.3-0.1,0.4-0.2,0.6c-0.1,0.1-0.3,0.2-0.6,0.2h-0.5l-0.1-0.7l0.5,0c0.2,0,0.3-0.1,0.3-0.3v-2.8h-2.2v-2.7h0.3H44.7z M44,52.2
				v-0.5h-1.5v0.5H44z M44,52.7h-1.5v0.5H44V52.7z"/>
			<path class="st0" d="M47.7,51.7h1v0.6H46v-0.6h1.1c-0.1-0.3-0.2-0.5-0.3-0.7l0.7-0.1C47.5,51.1,47.6,51.4,47.7,51.7z M48.5,57
				h-1.6v0.5h-0.7v-2.6h2.2V57z M48.5,52.8v0.6h-2.2v-0.6H48.5z M48.5,53.8v0.6h-2.2v-0.6H48.5z M47.8,56.4v-0.9h-0.9v0.9H47.8z
				 M51.7,52.8c0,0.2,0.1,0.3,0.3,0.3h0.6v0.6h-0.7c-0.3,0-0.5-0.1-0.6-0.2c-0.1-0.1-0.2-0.3-0.2-0.6v-1.2h-1.1c0,0.5-0.1,0.8-0.1,1
				c-0.1,0.3-0.3,0.6-0.7,1l-0.5-0.4c0.3-0.3,0.5-0.6,0.6-0.8c0.1-0.2,0.1-0.6,0.1-1.4h2.5V52.8z M52,53.8v0.5
				c-0.2,0.7-0.5,1.4-0.9,1.9c0.4,0.3,0.9,0.5,1.5,0.7l-0.4,0.6c-0.7-0.2-1.2-0.5-1.6-0.8c-0.4,0.3-0.9,0.6-1.6,0.8l-0.4-0.6
				c0.6-0.2,1.1-0.4,1.5-0.7c-0.4-0.4-0.8-0.9-1-1.4l0.6-0.3c0.3,0.5,0.6,0.9,1,1.3l0,0c0.3-0.4,0.5-0.8,0.7-1.4h-2.4v-0.6H52z"/>
			<path class="st0" d="M55.6,51.7h1.2v0.6h-3.1v-0.6h1.3c-0.1-0.3-0.3-0.5-0.4-0.7l0.7-0.1C55.3,51.1,55.5,51.4,55.6,51.7z
				 M56.5,52.8v0.6h-2.6v-0.6H56.5z M56.5,53.8v0.6h-2.6v-0.6H56.5z M54.6,57.5H54v-2.6h2.5v2.5h-0.7V57h-1.2V57.5z M55.8,55.5h-1.2
				v0.9h1.2V55.5z M58.3,53v-2.1H59V53h1.4v0.7H59v3.9h-0.7v-3.9h-1.4V53H58.3z"/>
			<path class="st0" d="M63.3,51c-0.1,0.2-0.2,0.4-0.3,0.6H64v2.3h-1.8v0.7h2v2.8h-0.7v-0.4h-1.3v0.4h-0.7v-5.8h0.9
				c0.1-0.2,0.2-0.5,0.2-0.7L63.3,51z M63.4,53.3v-1.1h-1.2v1.1H63.4z M63.5,56.3v-1.2h-1.3v1.2H63.5z M67.9,51.2v0.6h-1.5v0.8h1.3
				v3.7c0,0.2-0.1,0.3-0.1,0.5c-0.1,0.1-0.2,0.2-0.4,0.2h-0.4l-0.2-0.7l0.4,0c0.1,0,0.1-0.1,0.1-0.2v-2.9h-0.7v4.3h-0.7v-4.3h-0.7
				V57h-0.6v-4.4h1.3v-0.8h-1.5v-0.6H67.9z"/>
			<path class="st0" d="M2.9,61.1c-0.4,0.9-0.9,1.6-1.4,2.2c0.1,0,0.3,0,0.3,0C3,63.2,4,63.1,5,63c-0.3-0.4-0.5-0.7-0.9-1.1l0.5-0.5
				c0.7,0.8,1.2,1.5,1.7,2.3l-0.5,0.5c-0.1-0.2-0.2-0.4-0.4-0.6c-1.4,0.2-3.1,0.3-5,0.3l-0.1-0.8c0.2,0,0.5,0,0.6,0.1
				c0.4-0.6,0.9-1.4,1.4-2.4L2.9,61.1z M5.8,67.5H5.1V67H1.4v0.4H0.7v-3.1h5V67.5z M5.1,66.4V65H1.4v1.4H5.1z"/>
			<path class="st0" d="M9.6,60.9v5c0.2-0.1,0.4-0.2,0.6-0.2v0.7c-0.9,0.3-1.9,0.7-3.1,1L7,66.6c0.7-0.1,1.4-0.3,2-0.5v-2.4H7.1
				v-0.7H9v-2.2H9.6z M11.3,60.9v2.4c0.7-0.3,1.2-0.6,1.7-1l0.4,0.6c-0.6,0.4-1.3,0.8-2.1,1.1v2.2c0,0.1,0,0.2,0.1,0.3
				c0.1,0.1,0.1,0.1,0.2,0.1h0.7c0.1,0,0.2,0,0.2-0.1c0.1-0.1,0.1-0.5,0.2-1.4l0.6,0.2c-0.1,0.9-0.2,1.5-0.3,1.6
				c-0.1,0.2-0.3,0.3-0.6,0.3h-1.1c-0.2,0-0.4-0.1-0.6-0.2c-0.2-0.2-0.3-0.4-0.3-0.7v-5.5H11.3z"/>
			<path class="st0" d="M15.3,61.6h0.9v0.6h-2.3v-0.6h0.8c0-0.2-0.1-0.5-0.1-0.7l0.7-0.1C15.3,61.1,15.3,61.3,15.3,61.6z M15.9,62.7
				v0.6h-1.9v-0.6H15.9z M16,63.7v0.6h-1.9v-0.6H16z M15.9,66.8h-1.2v0.5h-0.6v-2.5h1.8V66.8z M15.3,66.2v-0.9h-0.6v0.9H15.3z
				 M20.2,62.5H19c0,0.8,0.1,1.5,0.1,2c0.2-0.4,0.3-0.9,0.5-1.5l0.5,0.3c-0.2,0.9-0.5,1.7-0.9,2.3c0.1,0.8,0.3,1.1,0.4,1.1
				c0.1,0,0.2-0.4,0.3-1.1l0.5,0.5c-0.2,0.8-0.4,1.3-0.7,1.3c-0.2,0-0.4-0.1-0.6-0.4c-0.1-0.1-0.2-0.4-0.3-0.7c-0.3,0.4-0.6,0.7-1,1
				l-0.3-0.5c0.4-0.4,0.8-0.8,1.1-1.3c0,0,0,0,0,0c-0.1-0.6-0.2-1.6-0.2-3h-1.5v0.7h1.2c0,1.5-0.1,2.4-0.1,2.5
				c0,0.2-0.1,0.3-0.2,0.4c-0.1,0.1-0.2,0.2-0.4,0.2c-0.2,0-0.4,0-0.5,0l-0.1-0.4c-0.1,0.5-0.2,1.1-0.3,1.6l-0.5-0.5
				c0.2-0.5,0.3-1,0.3-1.5c0-0.5,0.1-1,0.1-1.5v-2.1h2c0-0.3,0-0.7,0-1H19c0,0.4,0,0.7,0,1h0.7c-0.1-0.2-0.3-0.4-0.5-0.7l0.4-0.3
				c0.2,0.3,0.4,0.5,0.5,0.7l-0.5,0.3h0.5V62.5z M17.3,65.6c0.1,0,0.1,0,0.1-0.1c0-0.1,0.1-0.6,0.1-1.6h-0.6v0.1
				c0,0.5,0,1.1-0.1,1.6C17.1,65.6,17.3,65.6,17.3,65.6z"/>
			<path class="st0" d="M23.6,67.5H23V67h-1.3v0.5h-0.6v-3.3h2.5V67.5z M23,66.4v-1.8h-1.3v1.8H23z M26.3,61.1v2.4h-4.5v-2.4H26.3z
				 M25.7,61.8h-3.2v1.2h3.2V61.8z M26.9,67.5h-0.6V67h-1.5v0.5h-0.6v-3.3h2.7V67.5z M26.3,66.4v-1.8h-1.5v1.8H26.3z"/>
			<path class="st0" d="M28.8,62.2v-1.4h0.6v1.4h0.9v0.6h-0.9v0.3c0.4,0.4,0.7,0.8,1.1,1.2l-0.4,0.6c-0.3-0.4-0.5-0.8-0.8-1.1v3.6
				h-0.6V64c0,0,0,0.1,0,0.1c-0.2,0.6-0.5,1.2-0.8,1.6L27.7,65c0.4-0.6,0.8-1.3,1-2.1h-0.9v-0.6H28.8z M31.7,61.3
				c-0.2,0.7-0.3,1.2-0.5,1.5c-0.1,0.3-0.4,0.8-0.7,1.2L30,63.6c0.3-0.4,0.5-0.8,0.7-1.1c0.2-0.4,0.3-0.8,0.4-1.4L31.7,61.3z
				 M32.3,63.4c-0.3,1.1-0.7,2.1-1.1,3c0.6-0.1,1.2-0.2,1.7-0.3c-0.2-0.4-0.3-0.8-0.5-1.2l0.6-0.2c0.4,0.7,0.7,1.5,1,2.4l-0.6,0.2
				c-0.1-0.2-0.1-0.5-0.2-0.7c-0.6,0.2-1.6,0.4-3,0.5L30,66.5c0.2,0,0.3,0,0.5,0c0.4-1,0.8-2.1,1.2-3.3L32.3,63.4z M33.1,61.2
				c0.2,0.8,0.5,1.6,1.1,2.3l-0.4,0.6c-0.3-0.3-0.5-0.7-0.7-1c-0.2-0.4-0.3-0.8-0.5-1.3h-0.8v-0.6H33.1z"/>
			<path class="st0" d="M36.4,61.3v-0.5H37v0.5h0.7V62H37v0.5h-0.7V62h-1.7v-0.6H36.4z M36.8,62.9l-0.4,0.4h1.4v0.6h-1.8v0.7h1.5
				c0,1.4,0,2.2-0.1,2.4c0,0.2-0.1,0.3-0.2,0.4c-0.1,0.1-0.3,0.1-0.7,0.1c-0.1,0-0.3,0-0.5,0l-0.1-0.7c0.2,0,0.4,0.1,0.6,0.1
				c0.2,0,0.3-0.1,0.3-0.2c0-0.2,0-0.7,0.1-1.6h-1c0,0.4-0.1,0.8-0.2,1.1c-0.1,0.4-0.3,0.9-0.7,1.4L34.7,67c0.3-0.3,0.5-0.7,0.6-1.1
				c0.1-0.3,0.2-0.8,0.2-1.5v-0.6h-0.7v-0.6h1.5c-0.2-0.2-0.5-0.3-0.8-0.5l0.4-0.4C36.3,62.5,36.6,62.7,36.8,62.9z M39.5,62.6
				c0.2,0.4,0.5,0.7,0.7,0.9c0.2,0.2,0.5,0.4,0.9,0.7l-0.4,0.6c-0.2-0.1-0.4-0.2-0.6-0.4c-0.3-0.2-0.6-0.6-0.9-1.1
				c-0.2,0.3-0.4,0.6-0.6,0.8c-0.2,0.2-0.5,0.4-0.8,0.7l-0.3-0.6c0.4-0.2,0.7-0.5,0.9-0.7c0.2-0.2,0.4-0.5,0.5-0.8h0.2H39.5z
				 M38.8,61.3v-0.5h0.7v0.5H41V62h-1.6v0.5h-0.7V62h-0.8v-0.6H38.8z M40.6,66.9l-0.4,0.6c-0.7-0.5-1.4-0.9-2.1-1.2l0.3-0.5
				C39.3,66.1,40,66.5,40.6,66.9z M40.4,65.3L40,65.9c-0.5-0.4-1-0.7-1.5-0.9l0.3-0.5C39.4,64.7,39.9,65,40.4,65.3z"/>
			<path class="st0" d="M42,61.2h1.1l1.7,5.1l1.7-5.1h1.1v6.1h-0.8v-3.6c0-0.1,0-0.3,0-0.6c0-0.3,0-0.6,0-0.9l-1.7,5.1h-0.8
				l-1.7-5.1v0.2c0,0.1,0,0.4,0,0.7c0,0.3,0,0.5,0,0.7v3.6H42V61.2z"/>
			<path class="st0" d="M48.4,61.2h4.2V62h-3.5v1.8h3.2v0.7h-3.2v2.1h3.5v0.7h-4.3V61.2z"/>
			<path class="st0" d="M53.8,63.2c-0.1-0.2-0.1-0.4-0.1-0.6c0-0.4,0.1-0.7,0.4-1c0.3-0.3,0.6-0.4,1-0.4c0.4,0,0.7,0.1,0.9,0.4
				c0.2,0.2,0.3,0.5,0.3,0.9c0,0.4-0.1,0.7-0.4,1c-0.1,0.2-0.4,0.4-0.7,0.6l1.1,1.3c0.1-0.2,0.1-0.4,0.1-0.5c0-0.1,0.1-0.3,0.1-0.5
				h0.7c0,0.4-0.1,0.8-0.3,1.1c-0.1,0.4-0.2,0.5-0.2,0.4l1,1.3h-0.9l-0.5-0.7c-0.2,0.2-0.4,0.4-0.6,0.5c-0.3,0.2-0.7,0.3-1.1,0.3
				c-0.6,0-1-0.2-1.3-0.5c-0.3-0.3-0.4-0.7-0.4-1.2c0-0.5,0.1-0.8,0.4-1.2c0.2-0.2,0.5-0.4,0.9-0.7C54,63.6,53.9,63.4,53.8,63.2z
				 M55.5,66.6c0.2-0.1,0.4-0.3,0.5-0.5l-1.3-1.7c-0.4,0.3-0.6,0.5-0.7,0.6c-0.2,0.2-0.3,0.5-0.3,0.8c0,0.3,0.1,0.6,0.3,0.7
				c0.2,0.2,0.5,0.3,0.7,0.3C55.1,66.8,55.3,66.7,55.5,66.6z M55.5,63.1c0.2-0.2,0.2-0.4,0.2-0.6c0-0.2-0.1-0.3-0.2-0.5
				c-0.1-0.1-0.3-0.2-0.5-0.2c-0.3,0-0.5,0.1-0.6,0.3c-0.1,0.1-0.1,0.2-0.1,0.3c0,0.2,0,0.3,0.1,0.5c0.1,0.2,0.2,0.4,0.4,0.6
				C55.2,63.4,55.4,63.2,55.5,63.1z"/>
			<path class="st0" d="M58.4,61.2l1.1,4.9l1.3-4.9h0.9l1.3,5l1.1-5H65l-1.5,6.1h-0.8l-1.3-5l-1.4,5h-0.8l-1.5-6.1H58.4z"/>
			<path class="st0" d="M65.3,61.2h4.2V62h-3.5v1.8h3.2v0.7h-3.2v2.1h3.5v0.7h-4.3V61.2z"/>
			<path class="st0" d="M76.4,64.6v0.6h-2.3c0.1,0.3,0.3,0.5,0.5,0.7c0.3-0.2,0.6-0.4,0.9-0.7l0.4,0.5c-0.3,0.3-0.6,0.5-0.9,0.6
				c0.3,0.3,0.8,0.5,1.4,0.6l-0.3,0.6c-0.7-0.2-1.3-0.5-1.8-0.9c-0.4-0.3-0.7-0.8-1-1.4h-0.7v1.5c0.4-0.1,0.8-0.2,1.2-0.3V67
				c-0.8,0.2-1.6,0.4-2.5,0.5l-0.1-0.7c0.2,0,0.5,0,0.8-0.1v-1.6h-0.9c0,0,0,0.1,0,0.1c-0.1,0.7-0.3,1.4-0.6,2.1l-0.6-0.5
				c0.3-0.6,0.5-1.2,0.6-1.8c0.1-0.6,0.1-1.2,0.1-1.8V61h5.5v1.8h-1.1v0.6h1.1v0.6h-1.1v0.6H76.4z M71.3,63.2c0,0.4,0,0.9-0.1,1.3
				h1.2v-0.6h-1v-0.6h1v-0.6h-1.1V63.2z M71.3,61.6v0.6h4.2v-0.6H71.3z M74.5,62.8H73v0.6h1.4V62.8z M74.5,64.6v-0.6H73v0.6H74.5z"
				/>
			<path class="st0" d="M83.3,62.8v0.7h-2.8v3.2c0,0.3-0.1,0.4-0.2,0.5c-0.1,0.1-0.3,0.2-0.6,0.2h-0.9l-0.1-0.7
				c0.3,0,0.6,0.1,0.8,0.1c0.2,0,0.3-0.1,0.3-0.2v-3.1h-3v-0.7H83.3z M78.9,64.2c-0.2,0.7-0.4,1.2-0.6,1.5c-0.2,0.3-0.4,0.8-0.8,1.2
				l-0.5-0.5c0.3-0.4,0.6-0.8,0.8-1.1c0.2-0.4,0.4-0.8,0.5-1.4L78.9,64.2z M82.5,61.1v0.6h-4.7v-0.6H82.5z M83.2,66.6l-0.7,0.3
				c-0.4-1-0.8-1.9-1.2-2.7l0.6-0.2C82.4,64.8,82.8,65.6,83.2,66.6z"/>
			<path class="st0" d="M85.8,60.9c0.3,0.4,0.6,0.7,0.9,1.1l-0.4,0.4c-0.3-0.4-0.5-0.7-0.7-1c-0.4,0.5-1,1-1.6,1.5l-0.2-0.6
				c0.5-0.4,1.1-0.9,1.5-1.4h0.2H85.8z M85.9,62.7h0.7v2.6h-1.7v1.2c0.4-0.1,0.7-0.1,1-0.2c-0.1-0.2-0.2-0.4-0.4-0.7l0.5-0.2
				c0.3,0.5,0.5,0.9,0.8,1.5l-0.5,0.3c-0.1-0.1-0.1-0.3-0.2-0.4c-0.6,0.2-1.4,0.4-2.2,0.5l-0.1-0.6c0.1,0,0.3,0,0.4-0.1v-3.9h1.1
				c-0.1-0.2-0.1-0.4-0.2-0.6l0.6-0.1C85.8,62.3,85.8,62.5,85.9,62.7z M85.9,63.8v-0.5h-1.1v0.5H85.9z M85.9,64.9v-0.6h-1.1v0.6
				H85.9z M88.8,61.5h1.4v1.4h-0.4v1.6h-2.1v0.5H90v2.4h-0.6v-0.4h-1.8v0.4H87v-4.6h-0.2v-1.4h1.4c-0.1-0.2-0.2-0.4-0.3-0.6l0.6-0.1
				C88.6,61,88.7,61.2,88.8,61.5z M89.6,62.6v-0.5h-2.2v0.5H89.6z M89.1,63.9v-0.7h-1.5v0.7H89.1z M89.4,66.5v-0.8h-1.8v0.8H89.4z"
				/>
			<path class="st0" d="M5.9,74.7v0.6H3.7v1.3h3v0.7H0v-0.7h3v-1.3H0.8v-0.6H5.9z M3,72.7c-0.3,0.5-0.6,0.8-0.9,1.1
				c-0.4,0.2-0.9,0.5-1.6,0.6l-0.4-0.7c0.8-0.1,1.3-0.3,1.5-0.5c0.3-0.2,0.5-0.4,0.8-0.9L3,72.7z M3.8,71.5h2.7V73H5.8v-0.9H4.4v1.1
				c0,0.2,0.1,0.3,0.3,0.3h1.9v0.6h-2c-0.3,0-0.5-0.1-0.6-0.2c-0.2-0.1-0.2-0.3-0.2-0.5v-1.4H0.9V73H0.2v-1.5H3
				c-0.1-0.2-0.2-0.4-0.3-0.6l0.7-0.1C3.6,71,3.7,71.2,3.8,71.5z"/>
			<path class="st0" d="M10.7,73.7H8.6v3.7H7.9V71h2.8V73.7z M10,72v-0.5H8.6V72H10z M10,73.1v-0.5H8.6v0.5H10z M12.5,74v2.7h-3V74
				H12.5z M11.8,75.1v-0.5h-1.7v0.5H11.8z M11.8,75.6h-1.7v0.6h1.7V75.6z M14.1,71v5.7c0,0.3-0.1,0.4-0.2,0.6
				c-0.1,0.1-0.3,0.2-0.6,0.2h-0.5l-0.1-0.7l0.5,0c0.2,0,0.3-0.1,0.3-0.3v-2.8h-2.2V71h0.3H14.1z M13.4,72.1v-0.5h-1.5v0.5H13.4z
				 M13.4,72.6h-1.5v0.5h1.5V72.6z"/>
			<path class="st0" d="M17.1,71.6h1v0.6h-2.7v-0.6h1.1c-0.1-0.3-0.2-0.5-0.3-0.7l0.7-0.1C16.9,71,17,71.3,17.1,71.6z M17.8,76.9
				h-1.6v0.5h-0.7v-2.6h2.2V76.9z M17.8,72.7v0.6h-2.2v-0.6H17.8z M17.8,73.7v0.6h-2.2v-0.6H17.8z M17.2,76.3v-0.9h-0.9v0.9H17.2z
				 M21.1,72.6c0,0.2,0.1,0.3,0.3,0.3h0.6v0.6h-0.7c-0.3,0-0.5-0.1-0.6-0.2c-0.1-0.1-0.2-0.3-0.2-0.6v-1.2h-1.1c0,0.5-0.1,0.8-0.1,1
				c-0.1,0.3-0.3,0.6-0.7,1l-0.5-0.4c0.3-0.3,0.5-0.6,0.6-0.8c0.1-0.2,0.1-0.6,0.1-1.4h2.5V72.6z M21.4,73.7v0.5
				c-0.2,0.7-0.5,1.4-0.9,1.9c0.4,0.3,0.9,0.5,1.5,0.7l-0.4,0.6c-0.7-0.2-1.2-0.5-1.6-0.8c-0.4,0.3-0.9,0.6-1.6,0.8l-0.4-0.6
				c0.6-0.2,1.1-0.4,1.5-0.7c-0.4-0.4-0.8-0.9-1-1.4l0.6-0.3c0.3,0.5,0.6,0.9,1,1.3l0,0c0.3-0.4,0.5-0.8,0.7-1.4h-2.4v-0.6H21.4z"/>
			<path class="st0" d="M25,71.6h1.2v0.6H23v-0.6h1.3c-0.1-0.3-0.3-0.5-0.4-0.7l0.7-0.1C24.7,71,24.8,71.3,25,71.6z M25.9,72.7v0.6
				h-2.6v-0.6H25.9z M25.9,73.7v0.6h-2.6v-0.6H25.9z M24,77.4h-0.6v-2.6h2.5v2.5h-0.7v-0.4H24V77.4z M25.2,75.4H24v0.9h1.2V75.4z
				 M27.6,72.8v-2.1h0.7v2.1h1.4v0.7h-1.4v3.9h-0.7v-3.9h-1.4v-0.7H27.6z"/>
			<path class="st0" d="M32.7,70.8c-0.1,0.2-0.2,0.4-0.3,0.6h0.9v2.3h-1.8v0.7h2v2.8h-0.7v-0.4h-1.3v0.4h-0.7v-5.8h0.9
				c0.1-0.2,0.2-0.5,0.2-0.7L32.7,70.8z M32.7,73.1v-1.1h-1.2v1.1H32.7z M32.9,76.2v-1.2h-1.3v1.2H32.9z M37.3,71.1v0.6h-1.5v0.8
				h1.3v3.7c0,0.2-0.1,0.3-0.1,0.5c-0.1,0.1-0.2,0.2-0.4,0.2h-0.4L36,76.2l0.4,0c0.1,0,0.1-0.1,0.1-0.2v-2.9h-0.7v4.3h-0.7v-4.3
				h-0.7v3.8h-0.6v-4.4h1.3v-0.8h-1.5v-0.6H37.3z"/>
			<path class="st0" d="M2,81.3c-0.2,0-0.6,0.1-1.1,0.1v0.4h1v0.5h-1v0.4h1v0.5h-1v0.4H5v-0.4h-1v-0.5h1v-0.3h-1v-0.5h1v-0.4H4v-0.6
				h1.6l0,2.7h0.3V85H5.3v-0.8H0.7V85H0.1v-1.4h0.3V81c0.5,0,0.9-0.1,1.4-0.2L2,81.3z M4.9,84.5V85c-0.4,0.2-0.9,0.4-1.5,0.6h2.4
				v0.6H3.3v0.6c0,0.1,0,0.3-0.1,0.3c-0.1,0.1-0.2,0.2-0.3,0.2h-1l-0.1-0.6c0.2,0,0.5,0,0.7,0c0.1,0,0.2-0.1,0.2-0.1v-0.5H0.2v-0.6
				h2.5v-0.3c0.4-0.1,0.8-0.2,1.2-0.4H1.2v-0.5H4.9z M3.9,81c-0.1,0.2-0.3,0.3-0.4,0.4c0.1,0.1,0.2,0.2,0.3,0.3l-0.3,0.4
				c-0.1-0.1-0.2-0.2-0.4-0.4c-0.2,0.1-0.5,0.3-0.8,0.4l-0.3-0.5c0.2-0.1,0.4-0.2,0.7-0.3c-0.1-0.1-0.3-0.2-0.5-0.3l0.3-0.3
				c0.2,0.1,0.4,0.3,0.5,0.4c0.1-0.1,0.3-0.2,0.4-0.4L3.9,81z M4,82.3c-0.2,0.2-0.3,0.4-0.5,0.5c0.1,0.1,0.3,0.2,0.4,0.3l-0.3,0.4
				c-0.1-0.1-0.3-0.3-0.4-0.4c-0.2,0.1-0.4,0.3-0.7,0.4L2.1,83c0.2-0.1,0.4-0.2,0.6-0.3c-0.1-0.1-0.3-0.2-0.4-0.3l0.3-0.3
				c0.2,0.1,0.3,0.2,0.5,0.4c0.2-0.1,0.3-0.3,0.5-0.4L4,82.3z"/>
			<path class="st0" d="M12.4,81.5H7.5v2.5c0,0.5,0,1-0.1,1.6c-0.1,0.6-0.2,1.1-0.4,1.7l-0.5-0.5c0.2-0.4,0.3-0.9,0.3-1.4
				c0-0.5,0.1-1,0.1-1.4v-3.1h5.5V81.5z M10.3,85v0.5h1.7V86h-1.7v0.6h2.1v0.6H7.5v-0.6h0.8v-1.2h0.6v1.2h0.9V85H10.3z M10,82.2
				c-0.2,0.1-0.5,0.1-0.8,0.2v0.5h0.7v0.5H9.2v0c0.3,0.2,0.5,0.4,0.8,0.6l-0.3,0.5c-0.2-0.2-0.4-0.4-0.5-0.5V85H8.7V84
				c-0.2,0.3-0.5,0.6-0.8,0.8l-0.3-0.5c0.4-0.3,0.8-0.6,1-1H7.7v-0.5h0.9v-0.4c-0.2,0-0.5,0-0.8,0l-0.1-0.5c0.8,0,1.4-0.1,2-0.2
				L10,82.2z M12.2,82.2c-0.3,0.1-0.6,0.2-0.9,0.2v0.4h1.1v0.5h-1.1v0.1c0.4,0.3,0.7,0.6,1.1,0.9l-0.3,0.5c-0.3-0.4-0.6-0.6-0.8-0.9
				V85h-0.5v-1.1c-0.2,0.4-0.5,0.7-0.7,0.9l-0.3-0.5c0.4-0.3,0.7-0.6,0.9-1h-0.7v-0.5h0.7v-0.4c-0.2,0-0.4,0-0.7,0L10,81.9
				c0.8,0,1.4-0.1,2-0.2L12.2,82.2z"/>
			<path class="st0" d="M15.6,83v-0.9h0.8V83H15.6z M15.6,85.7v-0.9h0.8v0.9H15.6z"/>
			<path class="st0" d="M22.5,82.1v-1.4h0.7v1.4h2.3v3.4h-2.3v1.8h-0.7v-1.8h-2.3v-3.4H22.5z M22.5,82.7h-1.6v2.1h1.6V82.7z
				 M24.8,82.7h-1.6v2.1h1.6V82.7z"/>
			<path class="st0" d="M32.4,81.6h-2.2c-0.1,0.2-0.1,0.4-0.2,0.6h1.9V85h-1.6v1.6c0,0.2-0.1,0.4-0.2,0.5c-0.1,0.1-0.3,0.2-0.5,0.2
				H29l-0.1-0.7c0.2,0,0.4,0.1,0.6,0.1c0.2,0,0.3-0.1,0.3-0.2V85H28v-2.8h1.3c0.1-0.2,0.2-0.4,0.2-0.6h-2v2.2c0,0.5,0,1.1-0.1,1.7
				c-0.1,0.6-0.3,1.2-0.5,1.8l-0.5-0.5c0.2-0.5,0.4-1,0.5-1.5c0.1-0.5,0.1-1,0.1-1.5V81h5.4V81.6z M29,85.5c-0.3,0.6-0.6,1.1-1,1.5
				l-0.5-0.4c0.4-0.4,0.7-0.9,1-1.4L29,85.5z M31.3,83.3v-0.5h-2.7v0.5H31.3z M31.3,83.9h-2.7v0.6h2.7V83.9z M32.4,86.6l-0.6,0.4
				c-0.2-0.4-0.6-0.9-1-1.5l0.5-0.3C31.8,85.8,32.1,86.2,32.4,86.6z"/>
			<path class="st0" d="M35.3,82.6c0-0.4,0.1-0.8,0.1-1.3v-0.5h0.7v0.5c0,0.5,0,0.9-0.1,1.3h2.7v0.7h-2c0.1,0.7,0.4,1.3,0.6,1.8
				c0.4,0.6,0.8,1.1,1.4,1.5l-0.4,0.7c-0.7-0.5-1.3-1.2-1.6-1.8c-0.3-0.6-0.6-1.3-0.7-2.2h-0.2c-0.1,0.5-0.2,0.9-0.4,1.3
				c-0.4,0.9-1,1.8-2,2.7l-0.6-0.5c0.9-0.7,1.6-1.5,2-2.4c0.1-0.3,0.3-0.7,0.3-1.1h-2.2v-0.7H35.3z"/>
			<path class="st0" d="M41.4,81.3c-0.2,0-0.6,0.1-1.1,0.1v0.4h1v0.5h-1v0.4h1v0.5h-1v0.4h4.1v-0.4h-1v-0.5h1v-0.3h-1v-0.5h1v-0.4
				h-1v-0.6H45l0,2.7h0.3V85h-0.6v-0.8h-4.6V85h-0.6v-1.4h0.3V81c0.5,0,0.9-0.1,1.4-0.2L41.4,81.3z M44.3,84.5V85
				c-0.4,0.2-0.9,0.4-1.5,0.6h2.4v0.6h-2.5v0.6c0,0.1,0,0.3-0.1,0.3c-0.1,0.1-0.2,0.2-0.3,0.2h-1l-0.1-0.6c0.2,0,0.5,0,0.7,0
				c0.1,0,0.2-0.1,0.2-0.1v-0.5h-2.5v-0.6h2.5v-0.3c0.4-0.1,0.8-0.2,1.2-0.4h-2.7v-0.5H44.3z M43.3,81c-0.1,0.2-0.3,0.3-0.4,0.4
				c0.1,0.1,0.2,0.2,0.3,0.3l-0.3,0.4c-0.1-0.1-0.2-0.2-0.4-0.4c-0.2,0.1-0.5,0.3-0.8,0.4l-0.3-0.5c0.2-0.1,0.4-0.2,0.7-0.3
				c-0.1-0.1-0.3-0.2-0.5-0.3l0.3-0.3c0.2,0.1,0.4,0.3,0.5,0.4c0.1-0.1,0.3-0.2,0.4-0.4L43.3,81z M43.4,82.3
				c-0.2,0.2-0.3,0.4-0.5,0.5c0.1,0.1,0.3,0.2,0.4,0.3l-0.3,0.4c-0.1-0.1-0.3-0.3-0.4-0.4c-0.2,0.1-0.4,0.3-0.7,0.4L41.5,83
				c0.2-0.1,0.4-0.2,0.6-0.3c-0.1-0.1-0.3-0.2-0.4-0.3l0.3-0.3c0.2,0.1,0.3,0.2,0.5,0.4c0.2-0.1,0.3-0.3,0.5-0.4L43.4,82.3z"/>
			<path class="st0" d="M51.1,82.5v0.6h-0.7c0.5,0.5,0.9,0.9,1.2,1.4L51.1,85c-0.1-0.2-0.2-0.4-0.4-0.6c-0.4,0.1-0.9,0.1-1.6,0.2
				v0.7h2.3v0.6h-2.3v0.6h2.6v0.6H46v-0.6h2.6v-0.6h-2.3v-0.6h2.3v-0.6c-0.6,0-1.3,0.1-2.1,0.1L46.3,84c0.3,0,0.6,0,0.9,0
				c0.3-0.3,0.5-0.6,0.7-0.9h-1.1v-0.6H51.1z M49.3,81.3h2.5v1.5h-0.6V82h-4.5v0.9H46v-1.5h2.6c-0.1-0.2-0.1-0.4-0.2-0.5l0.7-0.1
				C49.2,80.9,49.2,81.1,49.3,81.3z M49.9,83.4l0.3-0.3h-1.6c-0.1,0.3-0.3,0.6-0.6,0.9c0.9,0,1.7-0.1,2.4-0.1
				C50.2,83.7,50.1,83.6,49.9,83.4z"/>
			<path class="st0" d="M57.9,86.5c0,0.2-0.1,0.4-0.2,0.6c-0.1,0.1-0.2,0.2-0.4,0.2h-1.1l-0.1-0.7l1,0.1c0.1,0,0.2-0.1,0.2-0.3v-1
				l-0.4,0.5c-0.4-0.4-0.7-0.8-0.9-1.1c-0.2-0.4-0.4-0.8-0.6-1.2c-0.1,0.3-0.2,0.5-0.3,0.7c-0.3,0.6-0.7,1.1-1.3,1.7l-0.3-0.5v1.8
				h-0.6v-5.2h2.2v-0.7h-1.4v-0.6h2v1.3h2.2V86.5z M54.6,83.8c0.2-0.3,0.3-0.7,0.4-1.1h-1.5v2.5C54.1,84.7,54.4,84.3,54.6,83.8z
				 M56.3,83.9c0.2,0.4,0.5,0.8,1,1.2v-2.4h-1.5C55.9,83.2,56.1,83.6,56.3,83.9z"/>
			<path class="st0" d="M60.5,81.5h0.9v0.6h-2.5v-0.6h1c-0.1-0.3-0.2-0.5-0.3-0.7l0.6-0.1C60.3,80.9,60.4,81.2,60.5,81.5z
				 M61.2,86.8h-1.4v0.5h-0.6v-2.6h2V86.8z M61.2,82.6v0.6h-2v-0.6H61.2z M61.2,83.6v0.6h-2v-0.6H61.2z M60.6,86.2v-0.9h-0.8v0.9
				H60.6z M64.1,82.6c0,0.2,0.1,0.3,0.2,0.3h0.5v0.6h-0.6c-0.2,0-0.4-0.1-0.6-0.2c-0.1-0.1-0.2-0.3-0.2-0.6v-1.2h-1
				c0,0.5-0.1,0.8-0.1,1c-0.1,0.3-0.3,0.6-0.6,1l-0.5-0.4c0.3-0.3,0.4-0.6,0.5-0.8c0.1-0.2,0.1-0.6,0.1-1.4h2.2V82.6z M64.3,83.6
				v0.5c-0.2,0.7-0.4,1.4-0.8,1.9c0.4,0.3,0.8,0.5,1.4,0.7l-0.4,0.6c-0.6-0.2-1.1-0.5-1.5-0.8c-0.4,0.3-0.9,0.6-1.5,0.8l-0.4-0.6
				c0.5-0.2,1-0.4,1.3-0.7c-0.4-0.4-0.7-0.9-0.9-1.4l0.5-0.3c0.2,0.5,0.5,0.9,0.9,1.3l0,0c0.3-0.4,0.5-0.8,0.6-1.4h-2.2v-0.6H64.3z"
				/>
			<path class="st0" d="M67.2,81.5h1.1v0.6h-2.8v-0.6h1.1c-0.1-0.3-0.2-0.5-0.4-0.7l0.6-0.1C66.9,80.9,67,81.2,67.2,81.5z M68,82.6
				v0.6h-2.3v-0.6H68z M68,83.6v0.6h-2.3v-0.6H68z M66.3,87.3h-0.6v-2.6H68v2.5h-0.6v-0.4h-1.1V87.3z M67.4,85.3h-1.1v0.9h1.1V85.3z
				 M69.6,82.8v-2.1h0.6v2.1h1.2v0.7h-1.2v3.9h-0.6v-3.9h-1.2v-0.7H69.6z"/>
			<path class="st0" d="M74.1,85.5c-0.4,0.6-1,1.1-1.7,1.6L72,86.5c0.6-0.4,1.1-0.8,1.6-1.4L74.1,85.5z M77.6,81.4
				c-0.8,0.2-1.7,0.3-2.8,0.4c-0.2,0.3-0.4,0.6-0.7,1c0.5,0,1-0.1,1.5-0.1c0.3-0.3,0.5-0.5,0.8-0.8l0.6,0.3
				c-0.8,0.9-1.7,1.6-2.5,2.2c0.9,0,1.7-0.1,2.3-0.2c-0.1-0.3-0.3-0.5-0.4-0.8l0.5-0.3c0.5,0.7,0.8,1.4,1.1,1.9l-0.6,0.4
				c-0.1-0.2-0.2-0.4-0.3-0.7c-0.4,0.1-1,0.1-1.6,0.2v1.7c0,0.3-0.1,0.5-0.2,0.6c-0.1,0.1-0.3,0.2-0.6,0.2H74l-0.1-0.7
				c0.2,0,0.4,0.1,0.5,0.1c0.2,0,0.3-0.1,0.3-0.2V85c-0.7,0-1.4,0.1-2.3,0.1l-0.2-0.7c0.4,0,0.8,0,1.2,0c0.5-0.3,1-0.7,1.5-1.2
				c-0.7,0.1-1.5,0.1-2.3,0.2l-0.1-0.6c0.2,0,0.5,0,0.7,0c0.4-0.3,0.6-0.6,0.9-1c-0.6,0-1.2,0-1.8,0l-0.2-0.6c2,0,3.8-0.1,5.2-0.4
				L77.6,81.4z M77.8,86.5l-0.5,0.5c-0.4-0.5-0.9-1-1.6-1.5l0.4-0.5C76.9,85.6,77.4,86.1,77.8,86.5z"/>
			<path class="st0" d="M80.8,81v0.6h-1c-0.1,0.6-0.2,1.1-0.4,1.5h1.2v3.4h-1.2v0.7H79v-2.9c-0.1,0.2-0.2,0.4-0.3,0.6l-0.3-0.6
				c0.3-0.5,0.5-1.1,0.7-1.5c0.1-0.3,0.2-0.7,0.2-1.1h-0.7V81H80.8z M80.2,86v-2.2h-0.6V86H80.2z M84.3,81v0.6h-0.6v1.7h0.7V84h-0.7
				v3.4h-0.6V84h-0.9c0,0.6-0.1,1.1-0.2,1.6c-0.1,0.6-0.4,1.2-0.8,1.8l-0.5-0.5c0.4-0.5,0.6-1,0.7-1.5c0.1-0.3,0.2-0.8,0.2-1.4h-0.8
				v-0.6h0.8v-1.7H81V81H84.3z M83.1,81.6h-0.9v1.7h0.9V81.6z"/>
			<path class="st0" d="M87.6,82.4c-0.2,0.4-0.5,0.7-0.9,1c-0.3,0.2-0.8,0.4-1.5,0.6l-0.3-0.6c0.7-0.1,1.2-0.3,1.4-0.4
				c0.3-0.1,0.5-0.4,0.7-0.8L87.6,82.4z M87.3,84.4c0,0,0-0.1,0-0.1v-0.9H88v0.9c0,0,0,0.1,0,0.1h1.6l-0.1,1.7c0,0.2,0,0.3,0.1,0.4
				c0.1,0.1,0.1,0.1,0.2,0.1h0.5c0,0,0.1,0,0.1-0.1c0,0,0.1-0.4,0.1-1.2l0.6,0.2c-0.1,0.8-0.2,1.3-0.3,1.5c-0.1,0.1-0.3,0.2-0.5,0.2
				h-0.8c-0.1,0-0.3-0.1-0.4-0.2c-0.1-0.1-0.2-0.3-0.2-0.6l0.1-1.4h-1c-0.1,0.5-0.3,0.9-0.6,1.3c-0.4,0.5-1.1,0.8-2,1.1l-0.3-0.6
				c0.9-0.2,1.6-0.5,1.9-0.9c0.2-0.2,0.4-0.5,0.4-0.8h-1.8v-0.6H87.3z M88.2,81.3h2.5v1.5H90v-0.9h-1V83c0,0.2,0.1,0.3,0.2,0.3h1.6
				v0.6h-1.8c-0.2,0-0.4,0-0.5-0.1c-0.1-0.1-0.2-0.3-0.2-0.5v-1.3h-2.5v0.9h-0.6v-1.5h2.3c-0.1-0.2-0.2-0.4-0.3-0.5l0.7-0.1
				C88,80.9,88.1,81.1,88.2,81.3z"/>
			<path class="st0" d="M94.4,81.4c-0.6,0.2-1.2,0.3-1.9,0.4v0.7h1.6v2.3h-1.6c0,0.4-0.1,0.7-0.1,1.1c-0.1,0.5-0.2,1-0.4,1.4
				l-0.5-0.5c0.1-0.4,0.2-0.7,0.3-1.1c0.1-0.4,0.1-0.9,0.1-1.4v-3.1c0.9,0,1.6-0.2,2.2-0.5L94.4,81.4z M93.5,84.2v-1.1h-1v1.1H93.5z
				 M97.4,81.4c-0.7,0.2-1.4,0.4-2.3,0.4V83h2.3v0.7h-0.7v3.7h-0.6v-3.7h-1v0.8c0,0.5-0.1,1-0.2,1.5c-0.1,0.5-0.3,0.9-0.6,1.3
				l-0.5-0.5c0.2-0.3,0.4-0.7,0.5-1c0.1-0.4,0.2-0.8,0.2-1.3v-3.3c1,0,1.9-0.2,2.6-0.5L97.4,81.4z"/>
		</g>
	</g>
	<g>
		<g>
			<path class="st0" d="M4.2,7.1H1.5v0.8H0.5V0.6h3.6V7.1z M3.2,3.3V1.5H1.5v1.9H3.2z M3.2,6.2v-2H1.5v2H3.2z M5.1,0.3h4.4V8
				c0,0.3-0.1,0.6-0.3,0.7C9.1,8.9,8.9,9,8.6,9H6.9L6.7,8.1l1.5,0.1c0.2,0,0.3-0.1,0.3-0.4V6H6C5.9,6.4,5.8,6.7,5.6,7
				C5.3,7.7,4.8,8.5,3.9,9.2L3,8.5c0.8-0.6,1.3-1.2,1.7-1.8C5,6.2,5.1,5.4,5.1,4.3V3.6V0.3z M8.5,5.1V3.6H6.1v0.7c0,0.3,0,0.6,0,0.9
				H8.5z M8.5,2.7V1.2H6.1v1.4H8.5z"/>
			<path class="st0" d="M19.7,9.2h-1V8.4h-5.2v0.7h-1V0.3h7.2V9.2z M18.7,3.8V1.3h-5.2v2.5H18.7z M18.7,7.5V4.8h-5.2v2.7H18.7z"/>
			<path class="st0" d="M30.8,0.3v5.4c0,1.2,0.1,1.8,0.2,1.9C31,7.8,31,7.9,31.1,7.9c0.1,0,0.2-0.4,0.4-1.1l0.7,0.4
				C32,8,31.9,8.5,31.7,8.8C31.5,8.9,31.4,9,31.2,9c-0.3,0-0.6-0.1-0.8-0.3c-0.4-0.4-0.5-1.4-0.5-2.9V1.2h-5.7v3.3
				c0,0.7-0.1,1.5-0.2,2.3c-0.1,0.8-0.4,1.6-0.7,2.4l-0.8-0.7c0.3-0.6,0.5-1.3,0.6-2c0.1-0.7,0.1-1.4,0.1-2V0.3h0.5H30.8z M29.5,1.7
				v0.8h-2.1v0.8h1.8v3h-1.8v1.2c0.4,0,0.8-0.1,1.1-0.1c-0.1-0.2-0.2-0.4-0.4-0.6l0.8-0.2c0.4,0.6,0.7,1.2,1,1.9l-0.8,0.3
				c-0.1-0.2-0.2-0.4-0.3-0.6c-1,0.2-2.5,0.3-4.5,0.5l-0.3-0.9c0.9,0,1.7,0,2.4-0.1V6.4h-1.8v-3h1.8V2.6h-2V1.7H29.5z M26.5,4.2
				h-0.9v1.5h0.9V4.2z M28.4,4.2h-1v1.5h1V4.2z"/>
			<path class="st0" d="M35,1.9V0h0.9v1.9h1.1v0.4c0.4-0.3,0.6-0.6,0.9-1C38.2,1,38.4,0.6,38.6,0l1,0.1c-0.1,0.3-0.2,0.5-0.3,0.7
				h3.1v0.7c-0.5,0.8-1.1,1.5-1.7,2c0.6,0.3,1.4,0.6,2.4,0.9l-0.6,0.8c-1.1-0.3-2-0.7-2.6-1.1c-0.7,0.5-1.6,0.8-2.6,1.2L37,4.6
				L36.7,5c-0.3-0.4-0.6-0.8-0.8-1.1v5.2H35V4.5c-0.3,0.8-0.7,1.5-1.2,2.1l-0.4-1c0.6-0.8,1.1-1.8,1.6-2.9v0h-1.5V1.9H35z M39.2,3.6
				c-0.4-0.3-0.7-0.7-1-1C38,2.8,37.7,3,37.5,3.2l-0.4-0.5v0.1h-1.1V3c0.4,0.4,0.9,0.8,1.3,1.3l-0.1,0.1C38,4.2,38.7,3.9,39.2,3.6z
				 M42.4,9.1h-1V8.6h-2.7v0.5h-1V5.3h4.7V9.1z M41.4,7.8V6.1h-2.7v1.6H41.4z M40,3.1c0.4-0.3,0.8-0.8,1.3-1.4h-2.4
				c0,0.1-0.1,0.1-0.1,0.1C39.1,2.3,39.5,2.7,40,3.1z"/>
			<path class="st0" d="M51.3,0.5V0h0.9v0.5h1.1v0.7h-1.1v0.3h-0.9V1.2h-2.7V0.5H51.3z M51,1.8V1.6h0.9v0.3h1.6v0.5h-1.6v0.3h2v0.6
				h-0.9v0.1c0,0.1,0.1,0.2,0.3,0.2h0.6V4H53c-0.3,0-0.5,0-0.6-0.1c-0.2-0.1-0.2-0.2-0.2-0.4V3.3h-1.5c-0.1,0.3-0.2,0.5-0.4,0.7
				C50.2,4,50.1,4.1,50,4.2h0.9V3.7h0.9v0.5h1.5v0.5h-1.5v0.4C52.5,5.1,53,5,53.5,5v0.5c-0.9,0.1-2.3,0.2-4.5,0.3L49,5.2
				c0.7,0,1.4,0,2,0V4.7h-1.3V4.4c-0.2,0.1-0.3,0.1-0.5,0.2L48.8,4c0.4-0.1,0.7-0.2,0.9-0.3c0.1-0.1,0.2-0.2,0.3-0.3h-1V2.7H51V2.4
				h-1.8V1.8H51z M58.2,6.9v0.7h-1.7c0.5,0.4,0.9,0.8,1.3,1.2L57,9.2c-0.1-0.1-0.2-0.3-0.3-0.4c-1.5,0.1-4,0.2-7.4,0.3l-0.1-0.7
				c0.4,0,0.9,0,1.3,0c0.3-0.2,0.5-0.5,0.6-0.7h-2.3V6.9H58.2z M57.2,5.9v0.6H50V5.9H57.2z M55.7,7.7l0.5-0.2h-3.9
				c-0.1,0.2-0.3,0.5-0.6,0.7c1.7,0,3.1-0.1,4.5-0.1C56,8,55.8,7.9,55.7,7.7z M55.1,2.3V1.7h0.8v0.6h1.5v2.2
				c0.1,0.3,0.1,0.4,0.2,0.4c0.1,0,0.2-0.3,0.2-0.9l0.6,0.4c-0.1,0.7-0.3,1.1-0.4,1.2c-0.1,0.1-0.3,0.2-0.5,0.2
				c-0.3,0-0.5-0.1-0.6-0.2c-0.2-0.2-0.3-0.5-0.3-1.1V3h-0.7c0,0.5-0.1,0.8-0.2,1.2c0.3,0.2,0.5,0.4,0.8,0.6l-0.4,0.6
				c-0.2-0.2-0.5-0.4-0.7-0.5c-0.2,0.4-0.5,0.7-1,1l-0.6-0.5c0.4-0.3,0.8-0.6,1-1c-0.3-0.2-0.5-0.3-0.8-0.4l0.4-0.5
				c0.2,0.1,0.5,0.2,0.7,0.4c0-0.2,0.1-0.5,0.1-0.8h-1.1V2.3H55.1z M55,0.5V0h0.9v0.5h2.4v0.7h-2.4v0.4H55V1.2h-1.1V0.5H55z"/>
			<path class="st0" d="M62.5,0.6c-0.6,0.7-1.2,1.3-2.1,1.9l-0.6-0.8c0.8-0.4,1.4-1,2-1.6L62.5,0.6z M62.4,2.8
				c-0.2,0.5-0.5,0.9-0.7,1.3v5h-0.9v-4c-0.2,0.2-0.5,0.4-0.7,0.6l-0.3-1.1c0.4-0.3,0.7-0.6,1-1C61,3.5,61.3,3,61.6,2.4L62.4,2.8z
				 M63.4,3.6c0,1.6-0.2,3.1-0.5,4.5L62,7.9c0.3-1.5,0.5-2.9,0.5-4.4L63.4,3.6z M63.8,1.9V0h0.9v1.9h1.6v0.8h-1.6v6.5h-0.9V2.7h-1.4
				V1.9H63.8z M66.3,1.3l-0.8,0.4c-0.2-0.5-0.4-0.9-0.6-1.2l0.8-0.2C65.9,0.6,66.1,0.9,66.3,1.3z M66,3.5v2.9c0,0.2,0.1,0.3,0.3,0.3
				h0.4v0.8h-0.6c-0.3,0-0.6-0.1-0.7-0.2c-0.2-0.1-0.3-0.3-0.3-0.6V3.5H66z M69.4,3.3v0.9h-0.9v3.9c0,0.4-0.1,0.6-0.3,0.7
				c-0.1,0.1-0.4,0.2-0.8,0.2h-0.9l-0.2-1c0.3,0.1,0.6,0.1,0.9,0.1c0.2,0,0.4-0.1,0.4-0.2V4.2h-1.1V3.3H69.4z M69.2,0.6v0.9h-2.7
				V0.6H69.2z"/>
			<path class="st0" d="M79,2.2v0.8h-2.2c-0.3,0.2-0.6,0.4-0.8,0.6c0.4,0.4,0.6,0.9,0.8,1.3c0.8-0.3,1.5-0.8,2.2-1.4l0.7,0.7
				c-0.4,0.4-0.9,0.7-1.4,1c0.2,0.5,0.5,1,0.9,1.4c0.3,0.4,0.8,0.9,1.4,1.3l-0.7,0.8c-0.7-0.6-1.2-1.2-1.6-1.8
				c-0.3-0.4-0.6-0.9-0.8-1.4c-0.2,0.1-0.3,0.1-0.5,0.2c0.1,0.4,0.1,0.8,0.1,1.3c0,0.8-0.1,1.3-0.3,1.6c-0.3,0.3-1,0.5-2.2,0.5
				l-0.3-1c0,0,0.2,0.1,0.6,0.1c0.5,0,0.9-0.1,1-0.2c0.2-0.2,0.3-0.5,0.3-1.1c0-0.1,0-0.3,0-0.4c-0.6,0.4-1.1,0.8-1.6,1
				c-0.8,0.4-1.7,0.7-2.9,1.1l-0.5-0.9c1.1-0.3,2.1-0.6,3-1c0.7-0.3,1.3-0.7,1.8-1.1c0-0.1-0.1-0.2-0.1-0.3c0-0.1-0.1-0.2-0.1-0.3
				c-0.6,0.4-1.1,0.7-1.5,0.9c-0.7,0.3-1.5,0.6-2.5,0.9L71.2,6c1-0.2,1.9-0.5,2.7-0.8c0.6-0.2,1.1-0.5,1.5-0.8
				c-0.1-0.1-0.2-0.2-0.3-0.4c-0.9,0.4-2,0.7-3.2,1l-0.5-0.8c1.3-0.2,2.3-0.5,3.1-0.7c0.3-0.1,0.6-0.2,0.9-0.3h-2.9V2.2H79z
				 M76.2,0.7h4.1v2h-0.9V1.6h-7.2v1.2h-0.9v-2h3.9c-0.1-0.2-0.3-0.4-0.4-0.6L75.8,0C75.9,0.2,76.1,0.5,76.2,0.7z"/>
		</g>
	</g>
	<g>
		<g>
			<path class="st1" d="M14.1,20.2v2.3c0,0.1-0.2,0.2-0.4,0.2l1.7,1.1c-0.1,0.1-0.2,0.2-0.4,0.2c-0.1,0-0.2,0-0.3-0.1
				c-0.6,0.4-1.5,0.9-2.4,1.3c1.1,0.8,2.4,1.4,3.8,1.7l0,0.2c-0.6,0.2-1.1,0.7-1.3,1.5c-2.6-1-4.1-2.8-5-5.6v3.9
				c0,1.1-0.3,2-2.4,2.1c0-1.2-0.5-1.4-1.8-1.6v-0.2h2.1c0.2,0,0.3-0.1,0.3-0.3v-4.6H4.6L4.5,22h3.7v-1.8H3.4c0,2.8-0.3,6.3-3,8.7
				l-0.2-0.1c1.4-2.6,1.4-6,1.4-8.9v-5l2.1,0.7h4v-2.6l2.5,0.2c0,0.2-0.2,0.4-0.7,0.4v1.9h3.9l1-1.4l1.8,1.4
				c-0.1,0.2-0.3,0.3-0.8,0.3h-6l1.2,0.1c0,0.2-0.1,0.4-0.7,0.4v1.3h2.3l0.7-0.9l1.8,1.3c-0.1,0.1-0.3,0.3-0.6,0.3v1.4h0.2l0.7-1.1
				l1.3,1.2c-0.1,0.2-0.3,0.3-0.8,0.3H14.1z M8.1,25.5c-0.9,0.6-2.2,1.5-4,2.6c-0.1,0.2-0.2,0.4-0.4,0.4l-1.2-1.8
				c1-0.2,3.2-0.8,5.5-1.4L8.1,25.5z M3.4,19.8h4.7V18H4.7l-0.1-0.3h3.6v-1.8H3.4V19.8z M4.1,22.7c2.1,0.3,2.8,1.1,2.8,1.8
				c0,0.5-0.4,0.9-0.8,0.9c-0.2,0-0.4-0.1-0.6-0.3c-0.2-0.8-0.7-1.7-1.4-2.2L4.1,22.7z M12.4,18H9.9v1.8h2.4V18z M9.9,20.2V22h2.4
				v-1.8H9.9z M12.4,22.3h-2.3c0.5,1,1.1,1.9,1.9,2.6c0.6-0.7,1.2-1.5,1.5-2.1c-0.5,0.2-0.7,0.2-1.2,0.2V22.3z"/>
			<path class="st1" d="M23.3,21V26c0.9-0.1,1.9-0.2,2.8-0.4l0,0.2c-1.3,0.6-3.1,1.3-5.8,2.3c-0.1,0.2-0.3,0.4-0.5,0.4L19,26.5
				c0.6-0.1,1.5-0.2,2.7-0.3V21h-2.6L19,20.7h2.7v-2.5h-1.6L20,18c-0.3,0.3-0.6,0.6-1,0.8l-0.2-0.1c1.1-1.4,2.1-3.9,2.5-5.7l2.5,0.2
				c0,0.2-0.2,0.3-0.6,0.4c2.3,0.7,3,1.6,3,2.3c0,0.6-0.4,1-0.9,1c-0.2,0-0.5-0.1-0.7-0.3c-0.2-0.8-0.6-1.9-1.5-2.8
				c-0.7,1.3-1.8,2.9-3.1,4.1h3.2l0.8-1.1l1.6,1.2c-0.1,0.2-0.4,0.3-0.8,0.3h-1.6v2.5h0.6l0.8-1.1l1.5,1.2c-0.1,0.2-0.3,0.3-0.8,0.3
				H23.3z M19.5,21.8c1.3,0.9,1.7,1.9,1.7,2.6c0,0.7-0.4,1.2-0.9,1.2c-0.2,0-0.4-0.1-0.6-0.4c0-0.2,0.1-0.4,0.1-0.7
				c0-0.9-0.2-1.9-0.5-2.6L19.5,21.8z M26.4,22.3c-0.1,0.2-0.2,0.3-0.6,0.3c-0.5,1-1.2,2.1-1.8,2.8l-0.3-0.1
				c0.2-0.9,0.5-2.3,0.7-3.5L26.4,22.3z M33.1,21.3l1.8,1.3c-0.1,0.1-0.3,0.2-0.7,0.3v5.3c0,0.1-0.5,0.5-1.4,0.5h-0.3v-1.1h-3.3v0.9
				c0,0.1-0.5,0.5-1.3,0.5h-0.3v-5.6c-0.7,0.4-1.4,0.8-2.1,1.2l-0.1-0.2c1.6-1.1,3-2.5,4.1-4.1c-0.1,0-0.1,0-0.2,0
				c-0.2,0-0.4-0.1-0.7-0.3c-0.1-0.7-0.6-1.5-1.2-2c-0.6,0.6-1.2,1.1-1.8,1.5l-0.2-0.2c1.3-1.5,2.4-4.1,2.8-6.3l2.5,0.3
				c-0.1,0.2-0.2,0.3-0.6,0.3c-0.2,0.5-0.5,1-0.8,1.5h2.3l1-1l1.7,1.5c-0.1,0.2-0.3,0.2-0.7,0.3c-1,2.3-2.5,4.4-4.6,6.2l0.3,0.1h2.9
				L33.1,21.3z M29.3,15.5c-0.4,0.7-0.9,1.4-1.5,2c1.6,0.2,2.3,0.9,2.4,1.5c0.7-1.2,1.2-2.3,1.6-3.5H29.3z M29.3,27.2h3.3v-4.7h-3.3
				V27.2z"/>
			<path class="st1" d="M53.7,20.3c-0.1,0.2-0.3,0.3-0.8,0.3h-2.7v2.5h0.3l0.9-1.1l1.6,1.2c-0.1,0.2-0.3,0.3-0.8,0.3h-5.8v2.1h4.1
				l1-1.2l1.9,1.3c-0.1,0.2-0.4,0.3-0.8,0.3h-6.1v2.6c0,0.1-0.5,0.5-1.5,0.5h-0.3v-3H38l-0.1-0.3h6.7v-2.1h-5.9l-0.1-0.3H41v-2.5
				h-3.3l-0.1-0.3H41v-2.4h-2l-0.1-0.3H50l0.9-1.1l1.7,1.1c-0.1,0.2-0.3,0.3-0.8,0.3h-1.5v2.4H51l1-1.2L53.7,20.3z M42,15.3h-4.2
				L37.7,15H42v-2l2.4,0.2c0,0.2-0.2,0.3-0.6,0.4V15h3.7v-2l2.4,0.2c0,0.2-0.2,0.3-0.6,0.4V15h1.7l0.9-1.3l1.8,1.4
				c-0.1,0.2-0.3,0.3-0.8,0.3h-3.6v1.3c0,0-0.2,0.5-1.8,0.5v-1.7h-3.7v1.3c0,0-0.2,0.5-1.8,0.5V15.3z M42.7,17.9v2.4h2v-2.4H42.7z
				 M42.7,23.1h2v-2.5h-2V23.1z M48.5,17.9h-2v2.4h2V17.9z M48.5,23.1v-2.5h-2v2.5H48.5z"/>
		</g>
	</g>
</g>
</svg>
