<?xml version="1.0" encoding="utf-8"?>
<!-- Generator: Adobe Illustrator 27.0.0, SVG Export Plug-In . SVG Version: 6.00 Build 0)  -->
<svg version="1.1" id="圖層_1" xmlns="http://www.w3.org/2000/svg" xmlns:xlink="http://www.w3.org/1999/xlink" x="0px" y="0px"
	 viewBox="0 0 400 24" style="enable-background:new 0 0 400 24;" xml:space="preserve">
<style type="text/css">
	.st0{fill:#D8B167;}
</style>
<path class="st0" d="M130.6,2.6c0-0.3,0-0.7,0-1c0-0.3,0-0.7,0-1c0.1,0,0.3,0,0.4,0c0.1,0,0.3,0,0.4,0c0.1,0,0.3,0,0.4,0
	c0.1,0,0.3,0,0.4,0c0.2,0,0.4,0,0.6,0c0.2,0,0.4,0.1,0.5,0.2c0.1,0.1,0.3,0.2,0.4,0.4s0.1,0.3,0.1,0.6c0,0.4-0.1,0.7-0.4,0.9
	c-0.2,0.2-0.6,0.4-1,0.5v0c0.5,0,0.9,0.1,1.1,0.3c0.3,0.2,0.4,0.5,0.4,1c0,0.3-0.1,0.5-0.2,0.8c-0.1,0.2-0.3,0.4-0.5,0.5
	c-0.2,0.1-0.4,0.2-0.6,0.3c-0.2,0-0.5,0.1-0.7,0.1c-0.1,0-0.3,0-0.4,0c-0.1,0-0.3,0-0.4,0h-0.4c-0.1,0-0.3,0-0.4,0c0-0.3,0-0.7,0-1
	c0-0.3,0-0.7,0-1L130.6,2.6L130.6,2.6z M131.7,3c0.2,0,0.4,0,0.6-0.1c0.2,0,0.4-0.1,0.5-0.2c0.1-0.1,0.3-0.2,0.3-0.4
	c0.1-0.2,0.1-0.3,0.1-0.6s0-0.4-0.1-0.5c-0.1-0.1-0.2-0.2-0.3-0.3c-0.1-0.1-0.3-0.1-0.4-0.1c-0.2,0-0.3,0-0.5,0c-0.1,0-0.3,0-0.3,0
	c-0.1,0-0.2,0-0.3,0c0,0.3,0,0.5,0,0.8s0,0.5,0,0.8V3H131.7z M131.3,4.1c0,0.3,0,0.5,0,0.8c0,0.3,0,0.5,0,0.8c0.1,0,0.2,0,0.4,0
	c0.1,0,0.3,0,0.4,0c0.2,0,0.3,0,0.5-0.1s0.3-0.2,0.4-0.3c0.1-0.1,0.2-0.3,0.3-0.4c0.1-0.2,0.1-0.4,0.1-0.6c0-0.2,0-0.4-0.1-0.6
	c-0.1-0.1-0.2-0.3-0.4-0.3c-0.1-0.1-0.3-0.1-0.6-0.2c-0.2,0-0.5,0-0.7,0h-0.4L131.3,4.1L131.3,4.1z"/>
<path class="st0" d="M135,4.3c0-0.7,0.2-1.2,0.5-1.5s0.8-0.6,1.4-0.6c0.3,0,0.5,0,0.7,0.1c0.2,0.1,0.4,0.2,0.5,0.3
	c0.1,0.2,0.2,0.3,0.3,0.5c0.1,0.2,0.1,0.4,0.1,0.6c0,0,0,0.1,0,0.2c0,0.1,0,0.1,0,0.2c-0.3,0-0.6,0-0.9,0c-0.3,0-0.6,0-0.9,0
	c-0.2,0-0.3,0-0.5,0s-0.4,0-0.5,0c0,0,0,0.1,0,0.1v0.1c0,0.2,0,0.4,0.1,0.6s0.1,0.3,0.3,0.5c0.1,0.1,0.3,0.2,0.4,0.3
	c0.2,0.1,0.4,0.1,0.6,0.1c0.1,0,0.2,0,0.3,0c0.1,0,0.2-0.1,0.3-0.1c0.1-0.1,0.2-0.1,0.3-0.2c0.1-0.1,0.2-0.1,0.2-0.2l0,0l-0.1,0.4
	c-0.2,0.1-0.4,0.2-0.6,0.3c-0.2,0.1-0.5,0.1-0.7,0.1c-0.3,0-0.6,0-0.8-0.1c-0.2-0.1-0.4-0.2-0.6-0.4c-0.2-0.2-0.3-0.4-0.4-0.6
	S135,4.5,135,4.3L135,4.3z M136.8,2.4c-0.2,0-0.4,0-0.5,0.1c-0.1,0.1-0.2,0.2-0.3,0.3c-0.1,0.1-0.1,0.3-0.2,0.5s-0.1,0.3-0.1,0.5
	c0.2,0,0.3,0,0.5,0s0.4,0,0.5,0s0.4,0,0.5,0c0.2,0,0.4,0,0.5,0c0-0.1,0-0.3,0-0.5c0-0.2-0.1-0.3-0.1-0.5c-0.1-0.1-0.2-0.2-0.3-0.3
	C137.2,2.5,137,2.4,136.8,2.4L136.8,2.4z"/>
<path class="st0" d="M139.4,2.6c0.2-0.2,0.5-0.3,0.7-0.4c0.2-0.1,0.4-0.1,0.6-0.1c0.2,0,0.4,0,0.5,0.1c0.2,0.1,0.3,0.1,0.4,0.2
	s0.2,0.2,0.3,0.4c0.1,0.1,0.1,0.3,0.1,0.5c0,0.3,0,0.6,0,0.9c0,0.3,0,0.6,0,1c0,0.1,0,0.1,0,0.2s0,0.1,0,0.2c0,0.1,0.1,0.1,0.1,0.1
	c0,0,0.1,0.1,0.2,0.1c0,0,0.1,0,0.1,0s0.1,0,0.1,0V6c-0.1,0-0.1,0.1-0.2,0.1c-0.1,0-0.2,0-0.3,0c-0.2,0-0.3,0-0.4-0.1
	c-0.1-0.1-0.1-0.2-0.2-0.3c-0.2,0.2-0.4,0.3-0.6,0.4c-0.2,0.1-0.4,0.1-0.7,0.1c-0.1,0-0.3,0-0.4-0.1c-0.1,0-0.2-0.1-0.3-0.2
	c-0.1-0.1-0.2-0.2-0.2-0.3S139,5.3,139,5.2c0-0.3,0.1-0.6,0.3-0.7c0.2-0.2,0.5-0.3,0.8-0.4c0.3,0,0.5-0.1,0.7-0.1
	c0.2,0,0.3-0.1,0.4-0.1c0.1,0,0.1-0.1,0.1-0.1c0,0,0-0.1,0-0.2c0-0.1,0-0.3-0.1-0.4c0-0.1-0.1-0.2-0.1-0.3c-0.1-0.1-0.2-0.2-0.3-0.2
	c-0.1-0.1-0.2-0.1-0.4-0.1c-0.2,0-0.4,0-0.6,0.1c-0.2,0.1-0.3,0.2-0.4,0.4h-0.1L139.4,2.6L139.4,2.6z M141.4,4.1
	c-0.1,0-0.2,0.1-0.3,0.1s-0.2,0-0.4,0.1c-0.1,0-0.2,0.1-0.4,0.1s-0.2,0.1-0.3,0.1c-0.1,0.1-0.2,0.1-0.2,0.2
	c-0.1,0.1-0.1,0.2-0.1,0.4c0,0.2,0.1,0.4,0.2,0.6c0.1,0.1,0.3,0.2,0.5,0.2c0.2,0,0.4-0.1,0.6-0.2s0.3-0.2,0.4-0.4L141.4,4.1
	L141.4,4.1z"/>
<path class="st0" d="M143.3,4.8c0-0.3,0-0.5,0-0.7c0-0.2,0-0.4,0-0.6c0-0.2,0-0.4,0-0.6s0-0.4,0-0.7c0.1,0,0.2,0,0.3,0
	c0.1,0,0.2,0,0.3,0c0,0.3-0.1,0.7-0.1,1c0,0.4,0,0.8,0,1.2c0,0.3,0,0.5,0.1,0.6s0.1,0.3,0.2,0.3c0.1,0.1,0.2,0.2,0.3,0.2
	c0.1,0.1,0.2,0.1,0.4,0.1c0.2,0,0.4-0.1,0.6-0.2c0.2-0.1,0.3-0.2,0.3-0.4c0-0.1,0.1-0.2,0.1-0.2c0-0.1,0-0.1,0.1-0.3
	c0-0.1,0-0.3,0-0.4c0-0.2,0-0.4,0-0.7V2.9c0-0.1,0-0.2,0-0.3c0-0.1,0-0.2,0-0.3c0.1,0,0.1,0,0.2,0c0.1,0,0.1,0,0.2,0s0.1,0,0.2,0
	c0.1,0,0.1,0,0.2,0c0,0.4,0,0.8-0.1,1.2c0,0.4,0,0.8,0,1.2c0,0.2,0,0.5,0,0.7s0,0.5,0,0.7c-0.1,0-0.2,0-0.3,0c-0.1,0-0.2,0-0.3,0
	c0-0.1,0-0.1,0-0.2c0,0,0-0.1,0-0.2V5.4h0c-0.1,0.3-0.3,0.4-0.5,0.6c-0.2,0.1-0.5,0.2-0.7,0.2c-0.4,0-0.7-0.1-1-0.3
	C143.4,5.6,143.3,5.2,143.3,4.8L143.3,4.8z"/>
<path class="st0" d="M148.5,1.2c0,0.2,0,0.4,0,0.6c0,0.2,0,0.4,0,0.6c0.1,0,0.2,0,0.3,0c0.2,0,0.3,0,0.5,0c0,0,0,0,0,0.1v0.2
	c0,0,0,0.1,0,0.1c-0.1,0-0.1,0-0.2,0c-0.1,0-0.1,0-0.2,0h-0.4c0,0,0,0.1,0,0.3c0,0.2,0,0.3,0,0.5c0,0.2,0,0.4,0,0.6
	c0,0.2,0,0.4,0,0.6c0,0.2,0,0.3,0,0.4c0,0.1,0,0.3,0.1,0.4c0,0.1,0.1,0.2,0.2,0.3c0.1,0.1,0.2,0.1,0.4,0.1c0,0,0.1,0,0.2,0
	c0.1,0,0.1,0,0.2,0v0.2c-0.1,0-0.2,0-0.3,0.1s-0.2,0-0.3,0c-0.3,0-0.6-0.1-0.7-0.2s-0.2-0.4-0.2-0.7c0-0.1,0-0.3,0-0.5
	c0-0.2,0-0.4,0-0.6c0-0.2,0-0.4,0-0.7c0-0.2,0-0.5,0-0.8h-0.3c0,0-0.1,0-0.1,0c0,0-0.1,0-0.1,0c0,0,0-0.1,0-0.1c0,0,0-0.1,0-0.1
	s0-0.1,0-0.1s0,0,0-0.1c0.2,0,0.4,0,0.5,0c0-0.1,0-0.2,0-0.4c0-0.2,0-0.3,0-0.5L148.5,1.2L148.5,1.2L148.5,1.2z"/>
<path class="st0" d="M151.2,6.1c-0.1-0.1-0.1-0.3-0.2-0.6c-0.1-0.2-0.2-0.5-0.3-0.7s-0.2-0.5-0.3-0.8c-0.1-0.3-0.2-0.5-0.3-0.7
	c-0.1-0.2-0.2-0.4-0.3-0.6c-0.1-0.2-0.1-0.3-0.2-0.4c0.1,0,0.1,0,0.2,0c0.1,0,0.1,0,0.2,0s0.1,0,0.2,0c0.1,0,0.1,0,0.2,0
	c0.2,0.5,0.3,1,0.5,1.5c0.2,0.5,0.4,1,0.6,1.5c0.2-0.5,0.4-1,0.6-1.5c0.2-0.5,0.4-1.1,0.6-1.6c0.1,0,0.2,0,0.3,0c0.1,0,0.2,0,0.3,0
	c0,0.1-0.1,0.2-0.2,0.4s-0.2,0.4-0.3,0.6c-0.1,0.2-0.2,0.5-0.4,0.8s-0.3,0.6-0.4,0.9c-0.1,0.3-0.3,0.6-0.4,0.9s-0.3,0.6-0.4,0.9
	c-0.1,0.3-0.2,0.5-0.3,0.8c-0.1,0.2-0.2,0.4-0.2,0.5c-0.1,0-0.2,0-0.3,0c-0.1,0-0.2,0-0.3,0C150.5,7.5,150.8,6.8,151.2,6.1
	L151.2,6.1z"/>
<path class="st0" d="M156.4,1.7c0-0.2,0-0.4,0-0.6c0-0.2,0-0.4,0-0.6c0-0.2,0-0.4,0-0.5c0.1,0,0.3,0,0.4,0s0.2,0,0.4,0
	c0,0.1,0,0.3,0,0.5c0,0.2,0,0.4,0,0.6c0,0.2,0,0.4,0,0.6c0,0.2,0,0.4,0,0.6v1.4c0,0.2,0,0.4,0,0.6s0,0.4,0,0.6c0,0.2,0,0.4,0,0.6
	c0,0.2,0,0.3,0,0.5c-0.1,0-0.2,0-0.4,0s-0.2,0-0.4,0c0-0.1,0-0.3,0-0.5c0-0.2,0-0.4,0-0.6c0-0.2,0-0.4,0-0.6c0-0.2,0-0.4,0-0.6V2.3
	C156.4,2.1,156.4,1.9,156.4,1.7z"/>
<path class="st0" d="M158.5,0.9c0-0.1,0-0.2,0.1-0.3s0.2-0.1,0.3-0.1s0.2,0,0.3,0.1s0.1,0.2,0.1,0.3s0,0.2-0.1,0.3
	c-0.1,0.1-0.2,0.1-0.3,0.1s-0.2,0-0.3-0.1C158.6,1.1,158.5,1,158.5,0.9z M158.6,3.8c0-0.2,0-0.5,0-0.8c0-0.3,0-0.5-0.1-0.7
	c0.2,0,0.3,0,0.4,0c0.1,0,0.2,0,0.4,0c0,0.2,0,0.5-0.1,0.7c0,0.3,0,0.5,0,0.8v0.8c0,0.2,0,0.5,0,0.8c0,0.3,0,0.5,0.1,0.7
	c-0.1,0-0.2,0-0.4,0c-0.1,0-0.2,0-0.4,0c0-0.2,0-0.5,0.1-0.7c0-0.3,0-0.5,0-0.8V3.8z"/>
<path class="st0" d="M160.3,4.3c0-0.7,0.2-1.2,0.5-1.5c0.3-0.4,0.8-0.6,1.4-0.6c0.3,0,0.5,0,0.7,0.1c0.2,0.1,0.4,0.2,0.5,0.3
	c0.1,0.2,0.2,0.3,0.3,0.5c0.1,0.2,0.1,0.4,0.1,0.6c0,0,0,0.1,0,0.2c0,0.1,0,0.1,0,0.2c-0.3,0-0.6,0-0.9,0c-0.3,0-0.6,0-0.9,0
	c-0.2,0-0.4,0-0.5,0s-0.3,0-0.5,0c0,0,0,0.1,0,0.1v0.1c0,0.2,0,0.4,0.1,0.6s0.1,0.3,0.3,0.5c0.1,0.1,0.3,0.2,0.4,0.3
	c0.2,0.1,0.4,0.1,0.6,0.1c0.1,0,0.2,0,0.3,0c0.1,0,0.2-0.1,0.3-0.1c0.1-0.1,0.2-0.1,0.3-0.2c0.1-0.1,0.2-0.1,0.2-0.2l0,0l-0.1,0.4
	c-0.2,0.1-0.4,0.2-0.6,0.3c-0.2,0.1-0.5,0.1-0.7,0.1c-0.3,0-0.6,0-0.8-0.1c-0.2-0.1-0.4-0.2-0.6-0.4c-0.2-0.2-0.3-0.4-0.4-0.6
	S160.3,4.5,160.3,4.3L160.3,4.3z M162.2,2.4c-0.2,0-0.4,0-0.5,0.1c-0.1,0.1-0.2,0.2-0.3,0.3c-0.1,0.1-0.1,0.3-0.2,0.5
	s-0.1,0.3-0.1,0.5c0.2,0,0.3,0,0.5,0c0.2,0,0.3,0,0.5,0c0.2,0,0.3,0,0.5,0c0.2,0,0.4,0,0.5,0c0-0.1,0-0.3,0-0.5
	c0-0.2-0.1-0.3-0.1-0.5c-0.1-0.1-0.2-0.2-0.3-0.3C162.6,2.5,162.4,2.4,162.2,2.4L162.2,2.4z"/>
<path class="st0" d="M164.8,5.5c0.1,0.1,0.1,0.1,0.2,0.2c0.1,0.1,0.2,0.1,0.3,0.1c0.1,0,0.2,0.1,0.3,0.1c0.1,0,0.2,0,0.3,0
	c0.1,0,0.2-0.1,0.2-0.1c0.1-0.1,0.1-0.1,0.2-0.2c0-0.1,0.1-0.2,0.1-0.3c0-0.2-0.1-0.3-0.1-0.4c-0.1-0.1-0.2-0.2-0.4-0.2
	s-0.3-0.1-0.5-0.1c-0.2,0-0.3-0.1-0.5-0.2s-0.2-0.2-0.3-0.3c-0.1-0.1-0.1-0.3-0.1-0.5c0-0.2,0-0.3,0.1-0.5c0.1-0.2,0.1-0.3,0.3-0.4
	c0.1-0.1,0.2-0.2,0.4-0.2c0.2-0.1,0.4-0.1,0.6-0.1c0.2,0,0.4,0,0.5,0.1c0.1,0,0.3,0.1,0.4,0.1c0,0.1-0.1,0.2-0.1,0.3
	c0,0.1-0.1,0.2-0.1,0.3h-0.1c0-0.1-0.1-0.2-0.2-0.3s-0.3-0.1-0.5-0.1c-0.1,0-0.2,0-0.2,0c-0.1,0-0.1,0.1-0.2,0.1
	c-0.1,0-0.1,0.1-0.2,0.2c0,0.1-0.1,0.2-0.1,0.3c0,0.2,0.1,0.3,0.1,0.4c0.1,0.1,0.2,0.2,0.4,0.2c0.1,0.1,0.3,0.1,0.5,0.1
	c0.2,0,0.3,0.1,0.5,0.2s0.2,0.2,0.3,0.3c0.1,0.1,0.1,0.3,0.1,0.5c0,0.2,0,0.3-0.1,0.5s-0.2,0.3-0.3,0.4C166.3,5.9,166.2,6,166,6
	c-0.2,0.1-0.4,0.1-0.6,0.1c-0.2,0-0.5,0-0.6-0.1c-0.2-0.1-0.3-0.1-0.4-0.2c0-0.1,0.1-0.2,0.1-0.3c0-0.1,0.1-0.2,0.1-0.3h0.1
	C164.6,5.4,164.7,5.4,164.8,5.5L164.8,5.5z"/>
<path class="st0" d="M170.1,0.9c0-0.1,0-0.2,0.1-0.3c0.1-0.1,0.2-0.1,0.3-0.1s0.2,0,0.3,0.1s0.1,0.2,0.1,0.3s0,0.2-0.1,0.3
	c-0.1,0.1-0.2,0.1-0.3,0.1s-0.2,0-0.3-0.1C170.1,1.1,170.1,1,170.1,0.9z M170.2,3.8c0-0.2,0-0.5,0-0.8c0-0.3,0-0.5-0.1-0.7
	c0.1,0,0.3,0,0.4,0s0.2,0,0.4,0c0,0.2,0,0.5-0.1,0.7c0,0.3,0,0.5,0,0.8v0.8c0,0.2,0,0.5,0,0.8c0,0.3,0,0.5,0.1,0.7
	c-0.1,0-0.2,0-0.4,0s-0.2,0-0.4,0c0-0.2,0-0.5,0.1-0.7c0-0.3,0-0.5,0-0.8V3.8z"/>
<path class="st0" d="M174.6,2.9c-0.1-0.2-0.4-0.3-0.6-0.3c-0.4,0-0.6,0.1-0.8,0.3c-0.2,0.2-0.3,0.5-0.3,1v0.7c0,0.2,0,0.5,0,0.8
	c0,0.3,0,0.5,0,0.7c-0.1,0-0.2,0-0.4,0c-0.1,0-0.2,0-0.4,0c0-0.2,0-0.4,0.1-0.7c0-0.3,0-0.5,0-0.8V3.7c0-0.2,0-0.5,0-0.8
	c0-0.3,0-0.5-0.1-0.7c0.2,0,0.3,0,0.4,0c0,0,0.1,0,0.1,0c0.1,0,0.1,0,0.2,0c0,0.2,0,0.4,0,0.6h0c0.1-0.2,0.3-0.4,0.5-0.5
	c0.2-0.1,0.5-0.2,0.7-0.2c0.2,0,0.3,0,0.4,0.1c0.2,0,0.3,0.1,0.4,0.2c0.1,0.1,0.2,0.2,0.3,0.4c0.1,0.2,0.1,0.4,0.1,0.7
	c0,0.2,0,0.5,0,0.7c0,0.2,0,0.5,0,0.8v0.5c0,0.1,0,0.2,0,0.2c0,0.1,0,0.2,0,0.2c-0.1,0-0.2,0-0.3,0c-0.1,0-0.2,0-0.3,0
	c0-0.3,0-0.6,0-0.9c0-0.3,0-0.6,0-0.9V3.8C174.8,3.4,174.7,3.1,174.6,2.9L174.6,2.9z"/>
<path class="st0" d="M179.6,1.2c0,0.2,0,0.4,0,0.6c0,0.2,0,0.4,0,0.6c0.1,0,0.2,0,0.3,0s0.3,0,0.5,0c0,0,0,0,0,0.1v0.2
	c0,0,0,0.1,0,0.1c-0.1,0-0.1,0-0.2,0c-0.1,0-0.1,0-0.2,0h-0.4c0,0,0,0.1,0,0.3c0,0.2,0,0.3,0,0.5c0,0.2,0,0.4,0,0.6
	c0,0.2,0,0.4,0,0.6c0,0.2,0,0.3,0,0.4c0,0.1,0,0.3,0.1,0.4c0,0.1,0.1,0.2,0.2,0.3c0.1,0.1,0.2,0.1,0.4,0.1c0,0,0.1,0,0.2,0
	c0.1,0,0.1,0,0.2,0v0.2c-0.1,0-0.2,0-0.3,0.1c-0.1,0-0.2,0-0.3,0c-0.3,0-0.6-0.1-0.7-0.2c-0.2-0.2-0.2-0.4-0.2-0.7
	c0-0.1,0-0.3,0-0.5c0-0.2,0-0.4,0-0.6c0-0.2,0-0.4,0-0.7c0-0.2,0-0.5,0-0.8h-0.3c0,0-0.1,0-0.1,0s-0.1,0-0.2,0c0,0,0-0.1,0-0.1
	c0,0,0-0.1,0-0.1s0-0.1,0-0.1s0,0,0-0.1c0.2,0,0.4,0,0.5,0c0-0.1,0-0.2,0-0.4c0-0.2,0-0.3,0-0.5L179.6,1.2L179.6,1.2L179.6,1.2z"/>
<path class="st0" d="M181.2,1.7c0-0.2,0-0.4,0-0.6c0-0.2,0-0.4,0-0.6c0-0.2,0-0.4,0-0.5c0.2,0,0.3,0,0.4,0c0.1,0,0.2,0,0.4,0
	c0,0.1,0,0.3,0,0.5c0,0.2,0,0.4,0,0.6c0,0.2,0,0.4,0,0.6c0,0.2,0,0.4,0,0.6v0.6h0c0.1-0.2,0.3-0.4,0.5-0.5c0.2-0.1,0.5-0.2,0.7-0.2
	c0.1,0,0.3,0,0.4,0.1s0.3,0.1,0.4,0.2s0.2,0.3,0.3,0.4c0.1,0.2,0.1,0.4,0.1,0.7c0,0.2,0,0.5,0,0.7c0,0.2,0,0.5,0,0.8v0.5
	c0,0.1,0,0.2,0,0.2c0,0.1,0,0.2,0,0.2c-0.1,0-0.2,0-0.3,0c-0.1,0-0.2,0-0.3,0c0-0.3,0-0.6,0-0.9c0-0.3,0-0.6,0-0.9V3.8
	c0-0.4-0.1-0.7-0.2-0.9c-0.2-0.2-0.4-0.3-0.6-0.3c-0.4,0-0.7,0.1-0.8,0.3s-0.3,0.5-0.3,1c0,0.2,0,0.3,0,0.5c0,0.2,0,0.4,0,0.6
	c0,0.2,0,0.4,0,0.6c0,0.2,0,0.3,0,0.5c-0.1,0-0.2,0-0.4,0s-0.2,0-0.4,0c0-0.1,0-0.3,0-0.5c0-0.2,0-0.4,0-0.6c0-0.2,0-0.4,0-0.6
	c0-0.2,0-0.4,0-0.6V2.3C181.2,2.2,181.2,2,181.2,1.7L181.2,1.7z"/>
<path class="st0" d="M185.2,4.3c0-0.7,0.2-1.2,0.5-1.5c0.3-0.4,0.8-0.6,1.4-0.6c0.3,0,0.5,0,0.7,0.1c0.2,0.1,0.4,0.2,0.5,0.3
	c0.1,0.2,0.2,0.3,0.3,0.5c0.1,0.2,0.1,0.4,0.1,0.6c0,0,0,0.1,0,0.2c0,0.1,0,0.1,0,0.2c-0.3,0-0.6,0-0.9,0c-0.3,0-0.6,0-0.9,0
	c-0.2,0-0.4,0-0.5,0s-0.3,0-0.5,0c0,0,0,0.1,0,0.1v0.1c0,0.2,0,0.4,0.1,0.6s0.1,0.3,0.3,0.5c0.1,0.1,0.3,0.2,0.4,0.3
	c0.2,0.1,0.4,0.1,0.6,0.1c0.1,0,0.2,0,0.3,0c0.1,0,0.2-0.1,0.3-0.1c0.1-0.1,0.2-0.1,0.3-0.2c0.1-0.1,0.2-0.1,0.2-0.2l0,0l-0.1,0.4
	c-0.2,0.1-0.4,0.2-0.6,0.3c-0.2,0.1-0.5,0.1-0.7,0.1c-0.3,0-0.6,0-0.8-0.1c-0.2-0.1-0.4-0.2-0.6-0.4c-0.2-0.2-0.3-0.4-0.4-0.6
	S185.2,4.5,185.2,4.3L185.2,4.3z M187.1,2.4c-0.2,0-0.4,0-0.5,0.1c-0.1,0.1-0.2,0.2-0.3,0.3c-0.1,0.1-0.1,0.3-0.2,0.5
	S186,3.7,186,3.8c0.2,0,0.3,0,0.5,0c0.2,0,0.3,0,0.5,0s0.4,0,0.5,0c0.2,0,0.4,0,0.5,0c0-0.1,0-0.3,0-0.5c0-0.2-0.1-0.3-0.1-0.5
	c-0.1-0.1-0.2-0.2-0.3-0.3C187.5,2.5,187.3,2.4,187.1,2.4L187.1,2.4z"/>
<path class="st0" d="M191.5,4.2c0-0.4,0.1-0.7,0.2-0.9c0.1-0.2,0.3-0.5,0.5-0.6c0.2-0.2,0.4-0.3,0.6-0.4c0.2-0.1,0.5-0.1,0.8-0.1
	c0.3,0,0.6,0,0.8,0.1c0.2,0.1,0.4,0.2,0.5,0.2c0,0.1-0.1,0.2-0.1,0.2s-0.1,0.2-0.1,0.3h-0.1c0-0.1-0.1-0.1-0.2-0.2
	c-0.1-0.1-0.1-0.1-0.2-0.2c-0.1-0.1-0.2-0.1-0.3-0.2c-0.1,0-0.2-0.1-0.4-0.1c-0.2,0-0.4,0-0.6,0.1c-0.2,0.1-0.3,0.2-0.4,0.4
	c-0.1,0.1-0.2,0.3-0.2,0.5s-0.1,0.4-0.1,0.7c0,0.5,0.1,1,0.4,1.2c0.2,0.3,0.6,0.4,1,0.4c0.1,0,0.2,0,0.3,0c0.1,0,0.2-0.1,0.3-0.1
	c0.1-0.1,0.2-0.1,0.3-0.2c0.1-0.1,0.2-0.1,0.2-0.2l0,0c0,0.1,0,0.3-0.1,0.4c-0.2,0.1-0.4,0.2-0.6,0.3c-0.2,0.1-0.5,0.1-0.7,0.1
	c-0.2,0-0.5,0-0.7-0.1c-0.2-0.1-0.4-0.2-0.6-0.3s-0.3-0.4-0.4-0.6S191.5,4.5,191.5,4.2L191.5,4.2z"/>
<path class="st0" d="M195.5,4.2c0-0.4,0.1-0.7,0.2-0.9c0.1-0.2,0.3-0.5,0.5-0.6c0.2-0.2,0.4-0.3,0.6-0.3c0.2-0.1,0.5-0.1,0.7-0.1
	s0.5,0,0.7,0.1c0.2,0.1,0.4,0.2,0.6,0.3c0.2,0.2,0.3,0.4,0.5,0.6c0.1,0.2,0.2,0.6,0.2,0.9c0,0.4-0.1,0.7-0.2,0.9
	c-0.1,0.2-0.3,0.5-0.5,0.6c-0.2,0.2-0.4,0.3-0.6,0.3c-0.2,0.1-0.5,0.1-0.7,0.1s-0.5,0-0.7-0.1c-0.2-0.1-0.4-0.2-0.6-0.3
	c-0.2-0.2-0.3-0.4-0.5-0.6C195.5,4.8,195.5,4.5,195.5,4.2z M196.2,4.2c0,0.2,0,0.4,0.1,0.6c0,0.2,0.1,0.4,0.2,0.6
	c0.1,0.2,0.2,0.3,0.4,0.4c0.2,0.1,0.4,0.1,0.6,0.1c0.2,0,0.4,0,0.6-0.1c0.2-0.1,0.3-0.2,0.4-0.4c0.1-0.2,0.2-0.3,0.2-0.6
	c0-0.2,0.1-0.4,0.1-0.6c0-0.2,0-0.4-0.1-0.6c0-0.2-0.1-0.4-0.2-0.6c-0.1-0.2-0.2-0.3-0.4-0.4c-0.2-0.1-0.4-0.1-0.6-0.1
	c-0.2,0-0.4,0-0.6,0.1c-0.2,0.1-0.3,0.2-0.4,0.4c-0.1,0.2-0.2,0.4-0.2,0.6C196.2,3.7,196.2,3.9,196.2,4.2z"/>
<path class="st0" d="M200.2,3c0-0.3,0-0.5-0.1-0.7c0.2,0,0.3,0,0.4,0c0,0,0.1,0,0.1,0c0.1,0,0.1,0,0.2,0c0,0.2,0,0.4,0,0.6h0
	c0.3-0.5,0.7-0.7,1.2-0.7c0.1,0,0.3,0,0.4,0.1c0.1,0,0.2,0.1,0.4,0.2c0.1,0.1,0.2,0.2,0.3,0.2c0.1,0.1,0.1,0.2,0.1,0.3h0
	c0.1-0.3,0.3-0.4,0.5-0.6s0.5-0.2,0.8-0.2c0.2,0,0.3,0,0.5,0.1c0.1,0,0.3,0.1,0.4,0.2c0.1,0.1,0.2,0.2,0.3,0.4
	c0.1,0.2,0.1,0.3,0.1,0.6c0,0.1,0,0.2,0,0.3c0,0.1,0,0.2,0,0.4c0,0.1,0,0.3,0,0.5c0,0.2,0,0.4,0,0.6c0,0.1,0,0.3,0,0.4
	c0,0.1,0,0.3,0,0.4c-0.1,0-0.1,0-0.2,0h-0.3c-0.1,0-0.1,0-0.2,0c0-0.1,0-0.4,0.1-0.8c0-0.4,0-1,0-1.7c0-0.1,0-0.3,0-0.4
	c0-0.1-0.1-0.2-0.1-0.3c-0.1-0.1-0.2-0.1-0.3-0.2c-0.1,0-0.2-0.1-0.4-0.1c-0.2,0-0.4,0-0.5,0.1c-0.1,0.1-0.2,0.2-0.3,0.3
	c0,0.1-0.1,0.1-0.1,0.2s0,0.1-0.1,0.3c0,0.1,0,0.3,0,0.5c0,0.2,0,0.5,0,0.9c0,0.2,0,0.4,0,0.6c0,0.2,0,0.4,0,0.6c-0.1,0-0.2,0-0.4,0
	c-0.1,0-0.2,0-0.3,0c0-0.3,0.1-0.6,0.1-0.9c0-0.3,0-0.6,0-0.9c0-0.2,0-0.5,0-0.6c0-0.1,0-0.2,0-0.3c0-0.1,0-0.2,0-0.2
	c0,0,0-0.1-0.1-0.2c-0.1-0.1-0.1-0.2-0.3-0.3c-0.1-0.1-0.2-0.1-0.4-0.1c-0.4,0-0.6,0.1-0.8,0.3c-0.2,0.2-0.2,0.5-0.2,1v0.7
	c0,0.2,0,0.5,0,0.8c0,0.3,0,0.5,0.1,0.7c-0.1,0-0.2,0-0.4,0c-0.1,0-0.2,0-0.4,0c0-0.2,0-0.5,0-0.7c0-0.3,0-0.5,0-0.8V3.7
	C200.3,3.5,200.3,3.2,200.2,3L200.2,3z"/>
<path class="st0" d="M210.4,4.1c0,0.3-0.1,0.6-0.1,0.8c-0.1,0.3-0.2,0.5-0.4,0.7c-0.2,0.2-0.3,0.3-0.6,0.4c-0.2,0.1-0.5,0.1-0.7,0.1
	c-0.3,0-0.5,0-0.7-0.2c-0.2-0.1-0.4-0.2-0.5-0.4c-0.2,0.2-0.4,0.3-0.5,0.5h-0.1c0-0.1,0-0.3,0-0.5c0-0.2,0-0.4,0-0.6
	c0-0.2,0-0.4,0-0.6c0-0.2,0-0.4,0-0.6V2.3c0-0.2,0-0.4,0-0.6s0-0.4,0-0.6c0-0.2,0-0.4,0-0.6c0-0.2,0-0.4,0-0.5c0.1,0,0.3,0,0.4,0
	c0.1,0,0.1,0,0.2,0c0.1,0,0.1,0,0.2,0c0,0.1,0,0.3,0,0.5c0,0.2,0,0.5,0,0.8s0,0.6,0,0.9c0,0.3,0,0.6,0,0.8h0
	c0.2-0.3,0.4-0.5,0.6-0.6c0.2-0.1,0.5-0.2,0.8-0.2s0.5,0.1,0.7,0.2c0.2,0.1,0.4,0.2,0.5,0.4s0.2,0.4,0.3,0.6
	C210.4,3.6,210.4,3.8,210.4,4.1L210.4,4.1z M209.7,4c0-0.2,0-0.5-0.1-0.6c-0.1-0.2-0.1-0.4-0.2-0.5c-0.1-0.1-0.2-0.2-0.3-0.3
	c-0.1-0.1-0.3-0.1-0.4-0.1c-0.2,0-0.3,0-0.5,0.1c-0.2,0.1-0.3,0.2-0.4,0.3c-0.1,0.1-0.2,0.3-0.3,0.6c-0.1,0.2-0.1,0.5-0.1,0.8
	c0,1.1,0.4,1.6,1.2,1.6c0.2,0,0.3,0,0.5-0.1c0.1-0.1,0.3-0.2,0.4-0.4s0.2-0.4,0.2-0.6C209.7,4.6,209.7,4.3,209.7,4z"/>
<path class="st0" d="M211.5,0.9c0-0.1,0-0.2,0.1-0.3s0.2-0.1,0.3-0.1c0.1,0,0.2,0,0.3,0.1s0.1,0.2,0.1,0.3s0,0.2-0.1,0.3
	c-0.1,0.1-0.2,0.1-0.3,0.1c-0.1,0-0.2,0-0.3-0.1C211.5,1.1,211.5,1,211.5,0.9z M211.6,3.8c0-0.2,0-0.5,0-0.8c0-0.3,0-0.5-0.1-0.7
	c0.2,0,0.3,0,0.4,0s0.2,0,0.4,0c0,0.2,0,0.5,0,0.7c0,0.3,0,0.5,0,0.8v0.8c0,0.2,0,0.5,0,0.8c0,0.3,0,0.5,0,0.7c-0.1,0-0.2,0-0.4,0
	c-0.1,0-0.2,0-0.4,0c0-0.2,0-0.5,0.1-0.7c0-0.3,0-0.5,0-0.8V3.8z"/>
<path class="st0" d="M216,2.9c-0.1-0.2-0.4-0.3-0.6-0.3c-0.4,0-0.6,0.1-0.8,0.3s-0.3,0.5-0.3,1v0.7c0,0.2,0,0.5,0,0.8
	c0,0.3,0,0.5,0.1,0.7c-0.1,0-0.2,0-0.4,0s-0.2,0-0.4,0c0-0.2,0-0.4,0.1-0.7c0-0.3,0-0.5,0-0.8V3.7c0-0.2,0-0.5,0-0.8
	c0-0.3,0-0.5-0.1-0.7c0.1,0,0.3,0,0.4,0c0,0,0.1,0,0.1,0c0.1,0,0.1,0,0.2,0c0,0.2,0,0.4,0,0.6h0c0.2-0.2,0.3-0.4,0.5-0.5
	c0.2-0.1,0.5-0.2,0.7-0.2c0.2,0,0.3,0,0.5,0.1s0.3,0.1,0.4,0.2c0.1,0.1,0.2,0.2,0.3,0.4c0.1,0.2,0.1,0.4,0.1,0.7c0,0.2,0,0.5,0,0.7
	c0,0.2,0,0.5,0,0.8v0.5c0,0.1,0,0.2,0,0.2c0,0.1,0,0.2,0,0.2c-0.1,0-0.2,0-0.3,0s-0.2,0-0.3,0c0-0.3,0-0.6,0-0.9c0-0.3,0-0.6,0-0.9
	V3.8C216.2,3.4,216.1,3.1,216,2.9L216,2.9z"/>
<path class="st0" d="M218.1,2.6c0.2-0.2,0.5-0.3,0.7-0.4c0.2-0.1,0.4-0.1,0.6-0.1c0.2,0,0.4,0,0.5,0.1c0.2,0.1,0.3,0.1,0.4,0.2
	c0.1,0.1,0.2,0.2,0.3,0.4c0.1,0.1,0.1,0.3,0.1,0.5c0,0.3,0,0.6,0,0.9c0,0.3,0,0.6,0,1c0,0.1,0,0.1,0,0.2s0,0.1,0,0.2
	c0,0.1,0.1,0.1,0.1,0.1c0,0,0.1,0.1,0.2,0.1c0,0,0.1,0,0.1,0s0.1,0,0.1,0V6C221.1,6,221,6,220.9,6c-0.1,0-0.2,0-0.3,0
	c-0.2,0-0.3,0-0.4-0.1c-0.1-0.1-0.1-0.2-0.2-0.3c-0.2,0.2-0.4,0.3-0.6,0.4c-0.2,0.1-0.4,0.1-0.7,0.1c-0.1,0-0.3,0-0.4-0.1
	s-0.2-0.1-0.3-0.2c-0.1-0.1-0.2-0.2-0.2-0.3s-0.1-0.3-0.1-0.4c0-0.3,0.1-0.6,0.3-0.7c0.2-0.2,0.5-0.3,0.8-0.4c0.3,0,0.5-0.1,0.7-0.1
	c0.2,0,0.3-0.1,0.4-0.1c0.1,0,0.1-0.1,0.1-0.1c0,0,0-0.1,0-0.2c0-0.1,0-0.3,0-0.4c0-0.1-0.1-0.2-0.2-0.3c-0.1-0.1-0.2-0.2-0.3-0.2
	c-0.1-0.1-0.2-0.1-0.4-0.1c-0.2,0-0.4,0-0.6,0.1c-0.2,0.1-0.3,0.2-0.4,0.4h-0.1L218.1,2.6L218.1,2.6z M220.1,4.1
	c-0.1,0-0.2,0.1-0.3,0.1c-0.1,0-0.2,0-0.4,0.1c-0.1,0-0.2,0.1-0.4,0.1c-0.1,0-0.2,0.1-0.3,0.1c-0.1,0.1-0.2,0.1-0.2,0.2
	c-0.1,0.1-0.1,0.2-0.1,0.4c0,0.2,0.1,0.4,0.2,0.6c0.1,0.1,0.3,0.2,0.5,0.2c0.2,0,0.4-0.1,0.6-0.2c0.2-0.1,0.3-0.2,0.4-0.4L220.1,4.1
	L220.1,4.1z"/>
<path class="st0" d="M222.8,1.2c0,0.2,0,0.4,0,0.6c0,0.2,0,0.4,0,0.6c0.1,0,0.2,0,0.3,0c0.2,0,0.3,0,0.5,0c0,0,0,0,0,0.1v0.2
	c0,0,0,0.1,0,0.1c-0.1,0-0.1,0-0.2,0c-0.1,0-0.1,0-0.2,0h-0.4c0,0,0,0.1,0,0.3c0,0.2,0,0.3,0,0.5c0,0.2,0,0.4,0,0.6
	c0,0.2,0,0.4,0,0.6c0,0.2,0,0.3,0,0.4c0,0.1,0,0.3,0.1,0.4c0,0.1,0.1,0.2,0.2,0.3c0.1,0.1,0.2,0.1,0.4,0.1c0,0,0.1,0,0.2,0
	c0.1,0,0.1,0,0.2,0v0.2c-0.1,0-0.2,0-0.3,0.1c-0.1,0-0.2,0-0.3,0c-0.3,0-0.6-0.1-0.7-0.2S222,5.5,222,5.2c0-0.1,0-0.3,0-0.5
	c0-0.2,0-0.4,0-0.6c0-0.2,0-0.4,0-0.7c0-0.2,0-0.5,0-0.8h-0.3c0,0-0.1,0-0.1,0c0,0-0.1,0-0.1,0c0,0,0-0.1,0-0.1c0,0,0-0.1,0-0.1
	s0-0.1,0-0.1s0,0,0-0.1c0.2,0,0.4,0,0.5,0c0-0.1,0-0.2,0-0.4c0-0.2,0-0.3,0-0.5L222.8,1.2L222.8,1.2L222.8,1.2z"/>
<path class="st0" d="M224.3,0.9c0-0.1,0-0.2,0.1-0.3s0.2-0.1,0.3-0.1c0.1,0,0.2,0,0.3,0.1s0.1,0.2,0.1,0.3s0,0.2-0.1,0.3
	c-0.1,0.1-0.2,0.1-0.3,0.1c-0.1,0-0.2,0-0.3-0.1C224.4,1.1,224.3,1,224.3,0.9z M224.5,3.8c0-0.2,0-0.5,0-0.8c0-0.3,0-0.5,0-0.7
	c0.1,0,0.3,0,0.4,0c0.1,0,0.2,0,0.4,0c0,0.2,0,0.5-0.1,0.7c0,0.3,0,0.5,0,0.8v0.8c0,0.2,0,0.5,0,0.8c0,0.3,0,0.5,0.1,0.7
	c-0.1,0-0.2,0-0.4,0c-0.1,0-0.2,0-0.4,0c0-0.2,0-0.5,0-0.7c0-0.3,0-0.5,0-0.8V3.8z"/>
<path class="st0" d="M226.1,4.2c0-0.4,0.1-0.7,0.2-0.9s0.3-0.5,0.5-0.6c0.2-0.2,0.4-0.3,0.6-0.3c0.2-0.1,0.5-0.1,0.7-0.1
	s0.5,0,0.7,0.1c0.2,0.1,0.4,0.2,0.6,0.3c0.2,0.2,0.3,0.4,0.5,0.6c0.1,0.3,0.2,0.6,0.2,0.9c0,0.4-0.1,0.7-0.2,0.9
	c-0.1,0.2-0.3,0.5-0.5,0.6C229.2,5.9,229,6,228.8,6c-0.2,0.1-0.5,0.1-0.7,0.1s-0.5,0-0.7-0.1c-0.2-0.1-0.4-0.2-0.6-0.3
	c-0.2-0.2-0.3-0.4-0.5-0.6C226.2,4.8,226.1,4.5,226.1,4.2z M226.8,4.2c0,0.2,0,0.4,0.1,0.6c0,0.2,0.1,0.4,0.2,0.6
	c0.1,0.2,0.2,0.3,0.4,0.4c0.2,0.1,0.4,0.1,0.6,0.1c0.2,0,0.4,0,0.6-0.1c0.2-0.1,0.3-0.2,0.4-0.4c0.1-0.2,0.2-0.3,0.2-0.6
	c0-0.2,0.1-0.4,0.1-0.6c0-0.2,0-0.4-0.1-0.6c0-0.2-0.1-0.4-0.2-0.6c-0.1-0.2-0.2-0.3-0.4-0.4c-0.2-0.1-0.4-0.1-0.6-0.1
	c-0.2,0-0.4,0-0.6,0.1c-0.2,0.1-0.3,0.2-0.4,0.4c-0.1,0.2-0.2,0.4-0.2,0.6C226.9,3.7,226.8,3.9,226.8,4.2z"/>
<path class="st0" d="M233.3,2.9c-0.2-0.2-0.4-0.3-0.6-0.3c-0.4,0-0.6,0.1-0.8,0.3c-0.2,0.2-0.3,0.5-0.3,1v0.7c0,0.2,0,0.5,0,0.8
	c0,0.3,0,0.5,0.1,0.7c-0.1,0-0.2,0-0.4,0s-0.2,0-0.4,0c0-0.2,0-0.4,0.1-0.7c0-0.3,0-0.5,0-0.8V3.7c0-0.2,0-0.5,0-0.8
	c0-0.3,0-0.5-0.1-0.7c0.2,0,0.3,0,0.4,0c0,0,0.1,0,0.1,0c0.1,0,0.1,0,0.2,0c0,0.2,0,0.4,0,0.6h0c0.1-0.2,0.3-0.4,0.5-0.5
	c0.2-0.1,0.5-0.2,0.7-0.2c0.1,0,0.3,0,0.4,0.1s0.3,0.1,0.4,0.2c0.1,0.1,0.2,0.2,0.3,0.4c0.1,0.2,0.1,0.4,0.1,0.7c0,0.2,0,0.5,0,0.7
	c0,0.2,0,0.5,0,0.8v0.5c0,0.1,0,0.2,0,0.2c0,0.1,0,0.2,0,0.2c-0.1,0-0.2,0-0.3,0c-0.1,0-0.2,0-0.3,0c0-0.3,0-0.6,0-0.9
	c0-0.3,0-0.6,0-0.9V3.8C233.5,3.4,233.4,3.1,233.3,2.9L233.3,2.9z"/>
<path class="st0" d="M237.3,4.2c0-0.4,0.1-0.7,0.2-0.9s0.3-0.5,0.4-0.6c0.2-0.2,0.4-0.3,0.6-0.3c0.2-0.1,0.5-0.1,0.7-0.1
	c0.2,0,0.5,0,0.7,0.1c0.2,0.1,0.4,0.2,0.6,0.3c0.2,0.2,0.3,0.4,0.5,0.6c0.1,0.3,0.2,0.6,0.2,0.9c0,0.4-0.1,0.7-0.2,0.9
	c-0.1,0.2-0.3,0.5-0.5,0.6c-0.2,0.2-0.4,0.3-0.6,0.3c-0.2,0.1-0.5,0.1-0.7,0.1c-0.2,0-0.5,0-0.7-0.1c-0.2-0.1-0.4-0.2-0.6-0.3
	c-0.2-0.2-0.3-0.4-0.4-0.6C237.3,4.8,237.3,4.5,237.3,4.2z M238,4.2c0,0.2,0,0.4,0.1,0.6s0.1,0.4,0.2,0.6c0.1,0.2,0.2,0.3,0.4,0.4
	c0.2,0.1,0.4,0.1,0.6,0.1s0.4,0,0.6-0.1c0.2-0.1,0.3-0.2,0.4-0.4c0.1-0.2,0.2-0.3,0.2-0.6c0-0.2,0.1-0.4,0.1-0.6
	c0-0.2,0-0.4-0.1-0.6c0-0.2-0.1-0.4-0.2-0.6c-0.1-0.2-0.2-0.3-0.4-0.4c-0.2-0.1-0.4-0.1-0.6-0.1s-0.4,0-0.6,0.1
	c-0.2,0.1-0.3,0.2-0.4,0.4c-0.1,0.2-0.2,0.4-0.2,0.6C238,3.7,238,3.9,238,4.2z"/>
<path class="st0" d="M243.3,0.6c-0.1,0-0.2,0-0.3,0.1c-0.1,0-0.1,0.1-0.2,0.2s-0.1,0.2-0.1,0.2c0,0.1,0,0.2,0,0.3s0,0.2,0,0.4
	c0,0.2,0,0.4,0.1,0.5c0.1,0,0.3,0,0.4,0c0.1,0,0.3,0,0.4,0c0,0,0,0.1,0,0.1c0,0,0,0,0,0.1c0,0,0,0.1,0,0.1s0,0,0,0.1
	c-0.1,0-0.3,0-0.4,0c-0.1,0-0.3,0-0.4,0c0,0.6,0,1.2,0,1.7s0,1.2,0,1.7c-0.1,0-0.1,0-0.2,0h-0.2c-0.1,0-0.2,0-0.3,0
	c0-0.6,0.1-1.2,0.1-1.7c0-0.6,0-1.1,0-1.7c-0.1,0-0.2,0-0.3,0s-0.2,0-0.3,0c0,0,0,0,0-0.1c0,0,0-0.1,0-0.1c0,0,0,0,0-0.1
	s0-0.1,0-0.1c0.1,0,0.2,0,0.3,0s0.2,0,0.3,0c0-0.2,0-0.3,0.1-0.5s0.1-0.4,0.1-0.5s0.1-0.3,0.2-0.5c0.1-0.2,0.2-0.3,0.3-0.4
	c0.1-0.1,0.2-0.2,0.4-0.3c0.2-0.1,0.3-0.1,0.5-0.1c0.1,0,0.1,0,0.2,0c0,0.1,0,0.2,0,0.3c0,0.1,0,0.2,0,0.3l-0.1,0
	C243.6,0.6,243.4,0.6,243.3,0.6L243.3,0.6z"/>
<path class="st0" d="M248.9,2.9c-0.1-0.2-0.4-0.3-0.6-0.3c-0.4,0-0.7,0.1-0.8,0.3c-0.2,0.2-0.3,0.5-0.3,1v0.7c0,0.2,0,0.5,0,0.8
	c0,0.3,0,0.5,0,0.7c-0.1,0-0.2,0-0.4,0s-0.2,0-0.4,0c0-0.2,0-0.4,0.1-0.7c0-0.3,0-0.5,0-0.8V3.7c0-0.2,0-0.5,0-0.8
	c0-0.3,0-0.5-0.1-0.7c0.2,0,0.3,0,0.4,0c0,0,0.1,0,0.1,0c0.1,0,0.1,0,0.2,0c0,0.2,0,0.4,0,0.6h0c0.2-0.2,0.3-0.4,0.5-0.5
	c0.2-0.1,0.5-0.2,0.7-0.2c0.2,0,0.3,0,0.4,0.1c0.2,0,0.3,0.1,0.4,0.2c0.1,0.1,0.2,0.2,0.3,0.4c0.1,0.2,0.1,0.4,0.1,0.7
	c0,0.2,0,0.5,0,0.7c0,0.2,0,0.5,0,0.8v0.5c0,0.1,0,0.2,0,0.2c0,0.1,0,0.2,0,0.2c-0.1,0-0.2,0-0.3,0s-0.2,0-0.3,0c0-0.3,0-0.6,0-0.9
	c0-0.3,0-0.6,0-0.9V3.8C249.1,3.4,249,3.1,248.9,2.9L248.9,2.9z"/>
<path class="st0" d="M251,2.6c0.2-0.2,0.5-0.3,0.7-0.4c0.2-0.1,0.4-0.1,0.6-0.1c0.2,0,0.4,0,0.5,0.1c0.2,0.1,0.3,0.1,0.4,0.2
	c0.1,0.1,0.2,0.2,0.3,0.4c0.1,0.1,0.1,0.3,0.1,0.5c0,0.3,0,0.6,0,0.9c0,0.3,0,0.6,0,1c0,0.1,0,0.1,0,0.2s0,0.1,0,0.2
	c0,0.1,0,0.1,0.1,0.1s0.1,0.1,0.2,0.1c0,0,0.1,0,0.1,0c0,0,0.1,0,0.1,0V6C254,6,253.9,6,253.8,6c-0.1,0-0.2,0-0.3,0
	c-0.2,0-0.3,0-0.4-0.1C253,5.8,253,5.7,253,5.6c-0.2,0.2-0.4,0.3-0.6,0.4c-0.2,0.1-0.4,0.1-0.7,0.1c-0.1,0-0.3,0-0.4-0.1
	c-0.1,0-0.2-0.1-0.3-0.2c-0.1-0.1-0.2-0.2-0.2-0.3c-0.1-0.1-0.1-0.3-0.1-0.4c0-0.3,0.1-0.6,0.3-0.7c0.2-0.2,0.5-0.3,0.8-0.4
	c0.3,0,0.5-0.1,0.7-0.1c0.2,0,0.3-0.1,0.4-0.1c0.1,0,0.1-0.1,0.1-0.1c0,0,0-0.1,0-0.2c0-0.1,0-0.3-0.1-0.4c0-0.1-0.1-0.2-0.1-0.3
	c-0.1-0.1-0.2-0.2-0.3-0.2c-0.1-0.1-0.2-0.1-0.4-0.1c-0.2,0-0.4,0-0.6,0.1c-0.2,0.1-0.3,0.2-0.4,0.4H251L251,2.6L251,2.6z M253,4.1
	c-0.1,0-0.2,0.1-0.3,0.1c-0.1,0-0.2,0-0.4,0.1c-0.1,0-0.2,0.1-0.4,0.1c-0.1,0-0.2,0.1-0.3,0.1c-0.1,0.1-0.2,0.1-0.2,0.2
	c-0.1,0.1-0.1,0.2-0.1,0.4c0,0.2,0.1,0.4,0.2,0.6c0.1,0.1,0.3,0.2,0.5,0.2c0.2,0,0.4-0.1,0.6-0.2c0.2-0.1,0.3-0.2,0.4-0.4L253,4.1
	L253,4.1z"/>
<path class="st0" d="M255.7,1.2c0,0.2,0,0.4,0,0.6c0,0.2,0,0.4,0,0.6c0.1,0,0.2,0,0.3,0s0.3,0,0.5,0c0,0,0,0,0,0.1v0.2
	c0,0,0,0.1,0,0.1c-0.1,0-0.1,0-0.2,0c-0.1,0-0.1,0-0.2,0h-0.4c0,0,0,0.1,0,0.3c0,0.2,0,0.3,0,0.5c0,0.2,0,0.4,0,0.6
	c0,0.2,0,0.4,0,0.6c0,0.2,0,0.3,0,0.4c0,0.1,0,0.3,0.1,0.4c0,0.1,0.1,0.2,0.2,0.3c0.1,0.1,0.2,0.1,0.4,0.1c0,0,0.1,0,0.2,0
	c0.1,0,0.1,0,0.2,0v0.2c-0.1,0-0.2,0-0.3,0.1c-0.1,0-0.2,0-0.3,0c-0.3,0-0.6-0.1-0.7-0.2C255,5.7,255,5.5,255,5.2c0-0.1,0-0.3,0-0.5
	c0-0.2,0-0.4,0-0.6c0-0.2,0-0.4,0-0.7c0-0.2,0-0.5,0-0.8h-0.3c0,0-0.1,0-0.1,0c-0.1,0-0.1,0-0.2,0c0,0,0-0.1,0-0.1c0,0,0-0.1,0-0.1
	s0-0.1,0-0.1s0,0,0-0.1c0.2,0,0.4,0,0.5,0c0-0.1,0-0.2,0-0.4c0-0.2,0-0.3,0-0.5L255.7,1.2L255.7,1.2L255.7,1.2z"/>
<path class="st0" d="M257.2,4.8c0-0.3,0-0.5,0-0.7c0-0.2,0-0.4,0-0.6c0-0.2,0-0.4,0-0.6s0-0.4,0-0.7c0.1,0,0.2,0,0.3,0
	c0.1,0,0.2,0,0.3,0c0,0.3,0,0.7-0.1,1s0,0.8,0,1.2c0,0.3,0,0.5,0.1,0.6c0,0.2,0.1,0.3,0.2,0.3c0.1,0.1,0.2,0.2,0.3,0.2
	c0.1,0.1,0.2,0.1,0.4,0.1c0.2,0,0.4-0.1,0.6-0.2s0.3-0.2,0.3-0.4c0-0.1,0.1-0.2,0.1-0.2c0-0.1,0-0.1,0.1-0.3s0-0.3,0-0.4
	c0-0.2,0-0.4,0-0.7V2.9c0-0.1,0-0.2,0-0.3c0-0.1,0-0.2,0-0.3c0.1,0,0.1,0,0.2,0c0.1,0,0.1,0,0.2,0s0.1,0,0.2,0c0,0,0.1,0,0.2,0
	c0,0.4,0,0.8,0,1.2c0,0.4,0,0.8,0,1.2c0,0.2,0,0.5,0,0.7s0,0.5,0,0.7c-0.1,0-0.2,0-0.3,0c-0.1,0-0.2,0-0.3,0c0-0.1,0-0.1,0-0.2
	c0,0,0-0.1,0-0.2V5.4h0c-0.1,0.3-0.3,0.4-0.5,0.6c-0.2,0.1-0.5,0.2-0.7,0.2c-0.4,0-0.7-0.1-1-0.3C257.3,5.6,257.1,5.2,257.2,4.8
	L257.2,4.8z"/>
<path class="st0" d="M263.3,2.8c-0.1,0-0.2,0-0.2,0c-0.1,0-0.2,0-0.3,0.1c-0.1,0.1-0.2,0.1-0.3,0.2s-0.1,0.2-0.2,0.4
	c0,0.1-0.1,0.3-0.1,0.4v0.9c0,0.4,0,0.6,0,0.8c0,0.2,0,0.3,0,0.5c-0.1,0-0.2,0-0.3,0c-0.1,0-0.2,0-0.3,0c0-0.2,0-0.4,0-0.7
	s0-0.7,0-1.2V3.9c0-0.2,0-0.5,0-0.7s0-0.6,0-0.9c0.1,0,0.1,0,0.2,0c0,0,0.1,0,0.2,0c0,0,0.1,0,0.1,0c0.1,0,0.1,0,0.2,0
	c0,0.2,0,0.3,0,0.5c0,0.1,0,0.2,0,0.3h0c0.3-0.6,0.7-0.9,1.1-0.9c0.1,0,0.1,0,0.1,0c0,0,0.1,0,0.1,0c0,0.1,0,0.2,0,0.3
	c0,0.1,0,0.2,0,0.4l-0.1,0C263.4,2.9,263.4,2.8,263.3,2.8L263.3,2.8z"/>
<path class="st0" d="M264.3,2.6c0.2-0.2,0.5-0.3,0.7-0.4c0.2-0.1,0.4-0.1,0.6-0.1c0.2,0,0.4,0,0.5,0.1c0.2,0.1,0.3,0.1,0.4,0.2
	c0.1,0.1,0.2,0.2,0.3,0.4c0.1,0.1,0.1,0.3,0.1,0.5c0,0.3,0,0.6,0,0.9c0,0.3,0,0.6,0,1c0,0.1,0,0.1,0,0.2s0,0.1,0,0.2
	c0,0.1,0.1,0.1,0.1,0.1c0,0,0.1,0.1,0.2,0.1c0,0,0.1,0,0.1,0s0.1,0,0.1,0V6C267.2,6,267.1,6,267,6c-0.1,0-0.2,0-0.3,0
	c-0.2,0-0.3,0-0.4-0.1c-0.1-0.1-0.1-0.2-0.2-0.3c-0.2,0.2-0.4,0.3-0.6,0.4c-0.2,0.1-0.4,0.1-0.7,0.1c-0.1,0-0.3,0-0.4-0.1
	s-0.2-0.1-0.3-0.2c-0.1-0.1-0.2-0.2-0.2-0.3s-0.1-0.3-0.1-0.4c0-0.3,0.1-0.6,0.3-0.7c0.2-0.2,0.5-0.3,0.8-0.4c0.3,0,0.5-0.1,0.7-0.1
	c0.2,0,0.3-0.1,0.4-0.1c0.1,0,0.1-0.1,0.1-0.1c0,0,0-0.1,0-0.2c0-0.1,0-0.3-0.1-0.4c0-0.1-0.1-0.2-0.1-0.3c-0.1-0.1-0.2-0.2-0.3-0.2
	c-0.1-0.1-0.2-0.1-0.4-0.1c-0.2,0-0.4,0-0.6,0.1c-0.2,0.1-0.3,0.2-0.4,0.4h-0.1L264.3,2.6L264.3,2.6z M266.2,4.1
	c-0.1,0-0.2,0.1-0.3,0.1s-0.2,0-0.4,0.1c-0.1,0-0.2,0.1-0.4,0.1s-0.2,0.1-0.3,0.1c-0.1,0.1-0.2,0.1-0.2,0.2
	c-0.1,0.1-0.1,0.2-0.1,0.4c0,0.2,0.1,0.4,0.2,0.6c0.1,0.1,0.3,0.2,0.5,0.2c0.2,0,0.4-0.1,0.6-0.2s0.3-0.2,0.4-0.4L266.2,4.1
	L266.2,4.1z"/>
<path class="st0" d="M268.4,1.7c0-0.2,0-0.4,0-0.6c0-0.2,0-0.4,0-0.6c0-0.2,0-0.4,0-0.5c0.1,0,0.3,0,0.4,0c0.1,0,0.2,0,0.4,0
	c0,0.1,0,0.3,0,0.5c0,0.2,0,0.4,0,0.6c0,0.2,0,0.4,0,0.6c0,0.2,0,0.4,0,0.6v1.4c0,0.2,0,0.4,0,0.6s0,0.4,0,0.6s0,0.4,0,0.6
	c0,0.2,0,0.3,0,0.5c-0.1,0-0.2,0-0.4,0s-0.2,0-0.4,0c0-0.1,0-0.3,0-0.5c0-0.2,0-0.4,0-0.6s0-0.4,0-0.6c0-0.2,0-0.4,0-0.6V2.3
	C268.4,2.1,268.4,1.9,268.4,1.7z"/>
<path class="st0" d="M142.8,16.9c0-0.2,0-0.4,0-0.6c0-0.2,0-0.4,0-0.6c0-0.2,0-0.3,0-0.5c0.2,0,0.3,0,0.4,0c0.1,0,0.2,0,0.4,0
	c0,0.1,0,0.3,0,0.5c0,0.2,0,0.4,0,0.6c0,0.2,0,0.4,0,0.6c0,0.2,0,0.4,0,0.6V19c0,0.2,0,0.4,0,0.6c0,0.2,0,0.4,0,0.6
	c0,0.2,0,0.4,0,0.6c0,0.2,0,0.3,0,0.5c-0.1,0-0.2,0-0.4,0c-0.1,0-0.2,0-0.4,0c0-0.1,0-0.3,0-0.5c0-0.2,0-0.4,0-0.6
	c0-0.2,0-0.4,0-0.6c0-0.2,0-0.4,0-0.6v-1.4C142.8,17.3,142.8,17.1,142.8,16.9z"/>
<path class="st0" d="M144.9,17.8c0.2-0.2,0.5-0.3,0.7-0.4c0.2-0.1,0.4-0.1,0.6-0.1c0.2,0,0.4,0,0.5,0.1c0.2,0.1,0.3,0.1,0.4,0.2
	c0.1,0.1,0.2,0.2,0.3,0.4s0.1,0.3,0.1,0.5c0,0.3,0,0.6,0,0.9c0,0.3,0,0.6,0,1c0,0.1,0,0.1,0,0.2c0,0.1,0,0.1,0,0.2
	c0,0.1,0.1,0.1,0.1,0.1c0,0,0.1,0.1,0.2,0.1c0,0,0.1,0,0.1,0s0.1,0,0.1,0v0.2c-0.1,0-0.1,0-0.2,0.1c-0.1,0-0.2,0-0.3,0
	c-0.2,0-0.3,0-0.4-0.1c-0.1-0.1-0.1-0.2-0.2-0.3c-0.2,0.2-0.4,0.3-0.6,0.4c-0.2,0.1-0.4,0.1-0.7,0.1c-0.1,0-0.3,0-0.4-0.1
	c-0.1,0-0.2-0.1-0.3-0.2c-0.1-0.1-0.2-0.2-0.2-0.3c-0.1-0.1-0.1-0.3-0.1-0.4c0-0.3,0.1-0.6,0.3-0.7c0.2-0.2,0.5-0.3,0.8-0.4
	c0.3,0,0.5-0.1,0.7-0.1c0.2,0,0.3-0.1,0.4-0.1c0.1,0,0.1-0.1,0.1-0.1c0-0.1,0-0.1,0-0.2c0-0.1,0-0.3-0.1-0.4c0-0.1-0.1-0.2-0.2-0.3
	c-0.1-0.1-0.2-0.2-0.3-0.2c-0.1-0.1-0.2-0.1-0.4-0.1c-0.2,0-0.4,0.1-0.6,0.1c-0.2,0.1-0.3,0.2-0.4,0.4h-0.1L144.9,17.8L144.9,17.8z
	 M146.9,19.3c-0.1,0-0.2,0.1-0.3,0.1s-0.2,0-0.4,0.1c-0.1,0-0.2,0-0.4,0.1c-0.1,0-0.2,0.1-0.3,0.1c-0.1,0.1-0.2,0.1-0.2,0.2
	c-0.1,0.1-0.1,0.2-0.1,0.4c0,0.2,0.1,0.4,0.2,0.6c0.1,0.1,0.3,0.2,0.5,0.2c0.2,0,0.4-0.1,0.6-0.2c0.2-0.1,0.3-0.2,0.4-0.4
	L146.9,19.3L146.9,19.3z"/>
<path class="st0" d="M151.2,18.1c-0.1-0.2-0.4-0.3-0.6-0.3c-0.4,0-0.6,0.1-0.8,0.3c-0.2,0.2-0.3,0.6-0.3,1v0.7c0,0.2,0,0.5,0,0.8
	c0,0.3,0,0.5,0.1,0.7c-0.1,0-0.2,0-0.4,0c-0.1,0-0.2,0-0.4,0c0-0.2,0-0.5,0.1-0.7c0-0.3,0-0.5,0-0.8v-0.8c0-0.2,0-0.5,0-0.8
	c0-0.3,0-0.5-0.1-0.7c0.1,0,0.3,0,0.4,0c0,0,0.1,0,0.1,0s0.1,0,0.2,0c0,0.2,0,0.4,0,0.6h0c0.2-0.2,0.3-0.4,0.5-0.5
	c0.2-0.1,0.5-0.2,0.7-0.2c0.2,0,0.3,0,0.4,0.1c0.2,0,0.3,0.1,0.4,0.2c0.1,0.1,0.2,0.2,0.3,0.4c0.1,0.2,0.1,0.4,0.1,0.7
	c0,0.2,0,0.5,0,0.7c0,0.2,0,0.5,0,0.8v0.5c0,0.1,0,0.2,0,0.2s0,0.2,0,0.2c-0.1,0-0.2,0-0.3,0s-0.2,0-0.3,0c0-0.3,0-0.6,0-0.9
	c0-0.3,0-0.6,0-0.9V19C151.4,18.6,151.4,18.3,151.2,18.1L151.2,18.1z"/>
<path class="st0" d="M156,20.5c0,0.1-0.1,0.2-0.2,0.3c-0.1,0.1-0.2,0.2-0.3,0.3s-0.2,0.2-0.4,0.2c-0.2,0-0.3,0.1-0.5,0.1
	s-0.4,0-0.6-0.1c-0.2-0.1-0.4-0.2-0.5-0.3c-0.2-0.2-0.3-0.4-0.4-0.6c-0.1-0.2-0.1-0.5-0.1-0.9c0-0.3,0.1-0.6,0.2-0.9
	c0.1-0.2,0.2-0.5,0.4-0.6c0.2-0.2,0.4-0.3,0.6-0.4c0.2-0.1,0.4-0.1,0.6-0.1c0.6,0,1,0.3,1.2,0.8h0v-0.8c0-0.2,0-0.4,0-0.6
	c0-0.2,0-0.4,0-0.6c0-0.2,0-0.4,0-0.5s0-0.3,0-0.4c0.1,0,0.1,0,0.2,0c0.1,0,0.1,0,0.2,0s0.1,0,0.2,0c0.1,0,0.1,0,0.2,0
	c0,0.2,0,0.4,0,0.7c0,0.3,0,0.7,0,1.1c0,0.4,0,0.8,0,1.2c0,0.4,0,0.8,0,1.1c0,0.4,0,0.7,0,1c0,0.3,0,0.6,0,0.9c-0.1,0-0.2,0-0.3,0
	s-0.2,0-0.3,0L156,20.5L156,20.5L156,20.5z M153.7,19.4c0,0.3,0,0.6,0.1,0.8c0.1,0.2,0.1,0.4,0.3,0.5c0.1,0.1,0.2,0.2,0.4,0.3
	c0.1,0.1,0.3,0.1,0.4,0.1c0.2,0,0.4,0,0.5-0.2c0.2-0.1,0.3-0.2,0.4-0.4c0.1-0.2,0.2-0.4,0.2-0.6c0.1-0.2,0.1-0.4,0.1-0.6
	c0-0.5-0.1-0.9-0.3-1.2s-0.5-0.4-0.9-0.4c-0.2,0-0.4,0-0.5,0.1s-0.3,0.2-0.4,0.4c-0.1,0.2-0.2,0.3-0.2,0.5
	C153.8,19,153.7,19.2,153.7,19.4L153.7,19.4z"/>
<path class="st0" d="M157.8,20.7c0.1,0.1,0.1,0.1,0.2,0.2s0.2,0.1,0.3,0.1c0.1,0,0.2,0.1,0.3,0.1c0.1,0,0.2,0,0.3-0.1
	c0.1,0,0.2-0.1,0.2-0.1c0.1-0.1,0.1-0.1,0.2-0.2c0-0.1,0.1-0.2,0.1-0.3c0-0.2-0.1-0.3-0.1-0.4s-0.2-0.2-0.4-0.2
	c-0.1-0.1-0.3-0.1-0.5-0.2c-0.2,0-0.3-0.1-0.5-0.2c-0.1-0.1-0.2-0.2-0.3-0.3c-0.1-0.1-0.1-0.3-0.1-0.5c0-0.2,0-0.3,0.1-0.5
	c0.1-0.1,0.1-0.3,0.3-0.4c0.1-0.1,0.2-0.2,0.4-0.2c0.2-0.1,0.4-0.1,0.6-0.1c0.2,0,0.4,0,0.5,0.1s0.3,0.1,0.4,0.1
	c0,0.1-0.1,0.2-0.1,0.3c0,0.1-0.1,0.2-0.1,0.3h-0.1c0-0.1-0.1-0.2-0.2-0.3c-0.1-0.1-0.3-0.2-0.5-0.2c-0.1,0-0.2,0-0.2,0
	s-0.1,0.1-0.2,0.1c-0.1,0.1-0.1,0.1-0.2,0.2c0,0.1-0.1,0.2-0.1,0.3c0,0.2,0.1,0.3,0.1,0.4c0.1,0.1,0.2,0.2,0.4,0.2s0.3,0.1,0.5,0.1
	c0.2,0,0.3,0.1,0.5,0.2s0.2,0.2,0.4,0.3c0.1,0.1,0.1,0.3,0.1,0.5c0,0.1,0,0.3-0.1,0.5s-0.2,0.3-0.3,0.4c-0.1,0.1-0.3,0.2-0.5,0.3
	c-0.2,0.1-0.4,0.1-0.6,0.1c-0.2,0-0.4,0-0.6-0.1c-0.2,0-0.3-0.1-0.4-0.2c0-0.1,0.1-0.2,0.1-0.3c0-0.1,0.1-0.2,0.1-0.3h0.1
	C157.7,20.6,157.8,20.6,157.8,20.7L157.8,20.7z"/>
<path class="st0" d="M160.6,19.4c0-0.3,0.1-0.6,0.2-0.9s0.3-0.5,0.5-0.6c0.2-0.2,0.4-0.3,0.7-0.4c0.2-0.1,0.5-0.1,0.8-0.1
	c0.3,0,0.6,0,0.8,0.1c0.2,0.1,0.4,0.1,0.5,0.2c0,0.1-0.1,0.2-0.1,0.2s-0.1,0.2-0.1,0.3h-0.1c0-0.1-0.1-0.1-0.2-0.2
	c-0.1-0.1-0.1-0.1-0.2-0.2c-0.1-0.1-0.2-0.1-0.3-0.1c-0.1,0-0.2-0.1-0.3-0.1c-0.2,0-0.4,0-0.6,0.1s-0.3,0.2-0.4,0.4
	c-0.1,0.2-0.2,0.3-0.2,0.6c-0.1,0.2-0.1,0.4-0.1,0.7c0,0.5,0.1,1,0.4,1.2c0.2,0.3,0.6,0.4,1,0.4c0.1,0,0.2,0,0.3,0
	c0.1,0,0.2-0.1,0.3-0.1c0.1-0.1,0.2-0.1,0.3-0.2s0.2-0.1,0.2-0.2l0,0c0,0.1,0,0.3,0,0.4c-0.2,0.1-0.4,0.2-0.6,0.3
	c-0.2,0.1-0.5,0.1-0.7,0.1c-0.2,0-0.5,0-0.7-0.1c-0.2-0.1-0.4-0.2-0.6-0.3s-0.3-0.4-0.5-0.6C160.6,20,160.6,19.7,160.6,19.4
	L160.6,19.4z"/>
<path class="st0" d="M164.9,17.8c0.2-0.2,0.5-0.3,0.7-0.4c0.2-0.1,0.4-0.1,0.6-0.1c0.2,0,0.4,0,0.5,0.1c0.2,0.1,0.3,0.1,0.4,0.2
	c0.1,0.1,0.2,0.2,0.3,0.4s0.1,0.3,0.1,0.5c0,0.3,0,0.6,0,0.9c0,0.3,0,0.6,0,1c0,0.1,0,0.1,0,0.2c0,0.1,0,0.1,0,0.2
	c0,0.1,0.1,0.1,0.1,0.1c0,0,0.1,0.1,0.2,0.1c0,0,0.1,0,0.1,0s0.1,0,0.1,0v0.2c-0.1,0-0.1,0-0.2,0.1c-0.1,0-0.2,0-0.3,0
	c-0.2,0-0.3,0-0.4-0.1c-0.1-0.1-0.1-0.2-0.2-0.3c-0.2,0.2-0.4,0.3-0.6,0.4c-0.2,0.1-0.4,0.1-0.7,0.1c-0.1,0-0.3,0-0.4-0.1
	c-0.1,0-0.2-0.1-0.3-0.2c-0.1-0.1-0.2-0.2-0.2-0.3c-0.1-0.1-0.1-0.3-0.1-0.4c0-0.3,0.1-0.6,0.3-0.7c0.2-0.2,0.5-0.3,0.8-0.4
	c0.3,0,0.5-0.1,0.7-0.1c0.2,0,0.3-0.1,0.4-0.1c0.1,0,0.1-0.1,0.1-0.1c0-0.1,0-0.1,0-0.2c0-0.1,0-0.3-0.1-0.4c0-0.1-0.1-0.2-0.2-0.3
	c-0.1-0.1-0.2-0.2-0.3-0.2c-0.1-0.1-0.2-0.1-0.4-0.1c-0.2,0-0.4,0.1-0.6,0.1c-0.2,0.1-0.3,0.2-0.4,0.4h-0.1L164.9,17.8L164.9,17.8z
	 M166.9,19.3c-0.1,0-0.2,0.1-0.3,0.1c-0.1,0-0.2,0-0.4,0.1c-0.1,0-0.2,0-0.4,0.1c-0.1,0-0.2,0.1-0.3,0.1c-0.1,0.1-0.2,0.1-0.2,0.2
	c-0.1,0.1-0.1,0.2-0.1,0.4c0,0.2,0.1,0.4,0.2,0.6c0.1,0.1,0.3,0.2,0.5,0.2c0.2,0,0.4-0.1,0.6-0.2c0.2-0.1,0.3-0.2,0.4-0.4
	L166.9,19.3L166.9,19.3z"/>
<path class="st0" d="M168.8,19.8c0-0.2,0-0.4,0-0.6c0-0.2,0-0.4,0-0.6c0-0.2,0-0.4,0-0.6c0-0.2,0-0.4,0-0.5c0.1,0,0.3,0,0.4,0
	c0.1,0,0.2,0,0.4,0c0,0.1,0,0.3-0.1,0.4c0,0.1,0,0.3,0,0.4h0c0-0.1,0.1-0.2,0.2-0.3c0.1-0.1,0.2-0.2,0.3-0.3s0.2-0.2,0.4-0.2
	c0.1-0.1,0.3-0.1,0.5-0.1s0.4,0,0.6,0.1c0.2,0.1,0.4,0.2,0.5,0.4s0.3,0.4,0.4,0.6c0.1,0.2,0.1,0.5,0.1,0.9s-0.1,0.6-0.2,0.9
	c-0.1,0.2-0.2,0.5-0.4,0.6c-0.2,0.2-0.4,0.3-0.6,0.4c-0.2,0.1-0.4,0.1-0.6,0.1c-0.6,0-1-0.2-1.3-0.8h0v0.5c0,0.2,0,0.4,0,0.6
	c0,0.2,0,0.4,0,0.6c0,0.2,0,0.4,0,0.6c0,0.2,0,0.4,0,0.5c-0.1,0-0.3,0-0.4,0c-0.1,0-0.2,0-0.4,0c0-0.1,0-0.3,0-0.5
	c0-0.2,0-0.4,0-0.6c0-0.2,0-0.4,0-0.6c0-0.2,0-0.4,0-0.6L168.8,19.8L168.8,19.8z M171.7,19.3c0-0.3,0-0.6-0.1-0.8
	c-0.1-0.2-0.1-0.4-0.3-0.5c-0.1-0.1-0.2-0.2-0.4-0.3c-0.1,0-0.3-0.1-0.4-0.1c-0.2,0-0.4,0.1-0.6,0.1c-0.1,0.1-0.3,0.2-0.4,0.4
	c-0.1,0.1-0.2,0.3-0.2,0.5c0,0.2-0.1,0.4-0.1,0.6c0,1.1,0.4,1.7,1.2,1.7c0.2,0,0.4,0,0.5-0.1c0.1-0.1,0.3-0.2,0.4-0.4
	s0.2-0.3,0.2-0.5C171.6,19.8,171.7,19.6,171.7,19.3z"/>
<path class="st0" d="M173,19.5c0-0.7,0.2-1.2,0.5-1.5c0.3-0.4,0.8-0.6,1.4-0.6c0.3,0,0.5,0,0.7,0.1c0.2,0.1,0.4,0.2,0.5,0.4
	c0.1,0.1,0.2,0.3,0.3,0.5c0.1,0.2,0.1,0.4,0.1,0.6c0,0.1,0,0.1,0,0.2c0,0,0,0.1,0,0.2c-0.3,0-0.6,0-0.9,0c-0.3,0-0.6,0-0.9,0
	c-0.2,0-0.4,0-0.5,0s-0.3,0-0.5,0c0,0,0,0.1,0,0.1v0.1c0,0.2,0,0.4,0.1,0.6c0.1,0.2,0.1,0.3,0.3,0.5c0.1,0.1,0.3,0.2,0.4,0.3
	s0.4,0.1,0.6,0.1c0.1,0,0.2,0,0.3,0c0.1,0,0.2-0.1,0.3-0.1c0.1,0,0.2-0.1,0.3-0.2c0.1-0.1,0.2-0.1,0.2-0.2l0,0l-0.1,0.4
	c-0.2,0.1-0.4,0.2-0.6,0.3c-0.2,0.1-0.5,0.1-0.7,0.1c-0.3,0-0.6,0-0.8-0.1c-0.2-0.1-0.4-0.2-0.6-0.4c-0.2-0.2-0.3-0.4-0.4-0.6
	C173,20,173,19.8,173,19.5L173,19.5z M174.8,17.6c-0.2,0-0.4,0-0.5,0.1c-0.1,0.1-0.2,0.2-0.3,0.3c-0.1,0.1-0.1,0.3-0.2,0.5
	s-0.1,0.3-0.1,0.5c0.2,0,0.3,0,0.5,0c0.2,0,0.4,0,0.5,0s0.4,0,0.5,0c0.2,0,0.4,0,0.5,0c0-0.1,0-0.3,0-0.5c0-0.2-0.1-0.3-0.1-0.5
	c-0.1-0.1-0.2-0.2-0.3-0.3C175.2,17.7,175,17.6,174.8,17.6L174.8,17.6z"/>
<path class="st0" d="M179.6,17.8c0.2-0.2,0.5-0.3,0.7-0.4c0.2-0.1,0.4-0.1,0.6-0.1c0.2,0,0.4,0,0.5,0.1c0.2,0.1,0.3,0.1,0.4,0.2
	c0.1,0.1,0.2,0.2,0.3,0.4s0.1,0.3,0.1,0.5c0,0.3,0,0.6,0,0.9c0,0.3,0,0.6,0,1c0,0.1,0,0.1,0,0.2c0,0.1,0,0.1,0,0.2
	c0,0.1,0.1,0.1,0.1,0.1c0,0,0.1,0.1,0.2,0.1c0,0,0.1,0,0.1,0s0.1,0,0.1,0v0.2c-0.1,0-0.1,0-0.2,0.1c-0.1,0-0.2,0-0.3,0
	c-0.2,0-0.3,0-0.4-0.1c-0.1-0.1-0.1-0.2-0.2-0.3c-0.2,0.2-0.4,0.3-0.6,0.4c-0.2,0.1-0.4,0.1-0.7,0.1c-0.1,0-0.3,0-0.4-0.1
	c-0.1,0-0.2-0.1-0.3-0.2c-0.1-0.1-0.2-0.2-0.2-0.3c-0.1-0.1-0.1-0.3-0.1-0.4c0-0.3,0.1-0.6,0.3-0.7c0.2-0.2,0.5-0.3,0.8-0.4
	c0.3,0,0.5-0.1,0.7-0.1c0.2,0,0.3-0.1,0.4-0.1c0.1,0,0.1-0.1,0.1-0.1c0-0.1,0-0.1,0-0.2c0-0.1,0-0.3-0.1-0.4c0-0.1-0.1-0.2-0.1-0.3
	s-0.2-0.2-0.3-0.2c-0.1-0.1-0.2-0.1-0.4-0.1c-0.2,0-0.4,0.1-0.6,0.1c-0.2,0.1-0.3,0.2-0.4,0.4h-0.1L179.6,17.8L179.6,17.8z
	 M181.6,19.3c-0.1,0-0.2,0.1-0.3,0.1c-0.1,0-0.2,0-0.4,0.1c-0.1,0-0.2,0-0.4,0.1c-0.1,0-0.2,0.1-0.3,0.1s-0.2,0.1-0.2,0.2
	c-0.1,0.1-0.1,0.2-0.1,0.4c0,0.2,0.1,0.4,0.2,0.6c0.1,0.1,0.3,0.2,0.5,0.2c0.2,0,0.4-0.1,0.6-0.2c0.2-0.1,0.3-0.2,0.4-0.4
	L181.6,19.3L181.6,19.3z"/>
<path class="st0" d="M185.9,18.1c-0.1-0.2-0.4-0.3-0.6-0.3c-0.4,0-0.6,0.1-0.8,0.3c-0.2,0.2-0.3,0.6-0.3,1v0.7c0,0.2,0,0.5,0,0.8
	c0,0.3,0,0.5,0.1,0.7c-0.1,0-0.2,0-0.4,0c-0.1,0-0.2,0-0.4,0c0-0.2,0-0.5,0.1-0.7c0-0.3,0-0.5,0-0.8v-0.8c0-0.2,0-0.5,0-0.8
	c0-0.3,0-0.5-0.1-0.7c0.1,0,0.3,0,0.4,0c0,0,0.1,0,0.1,0s0.1,0,0.2,0c0,0.2,0,0.4,0,0.6h0c0.2-0.2,0.3-0.4,0.5-0.5
	c0.2-0.1,0.5-0.2,0.7-0.2c0.2,0,0.3,0,0.4,0.1c0.2,0,0.3,0.1,0.4,0.2s0.2,0.2,0.3,0.4c0.1,0.2,0.1,0.4,0.1,0.7c0,0.2,0,0.5,0,0.7
	c0,0.2,0,0.5,0,0.8v0.5c0,0.1,0,0.2,0,0.2s0,0.2,0,0.2c-0.1,0-0.2,0-0.3,0s-0.2,0-0.3,0c0-0.3,0-0.6,0-0.9c0-0.3,0-0.6,0-0.9V19
	C186.1,18.6,186,18.3,185.9,18.1L185.9,18.1z"/>
<path class="st0" d="M190.7,20.5c0,0.1-0.1,0.2-0.2,0.3c-0.1,0.1-0.2,0.2-0.3,0.3s-0.2,0.2-0.4,0.2c-0.2,0-0.3,0.1-0.5,0.1
	s-0.4,0-0.6-0.1c-0.2-0.1-0.4-0.2-0.5-0.3c-0.2-0.2-0.3-0.4-0.4-0.6c-0.1-0.2-0.1-0.5-0.1-0.9c0-0.3,0.1-0.6,0.2-0.9
	c0.1-0.2,0.2-0.5,0.4-0.6c0.2-0.2,0.4-0.3,0.6-0.4c0.2-0.1,0.4-0.1,0.6-0.1c0.6,0,1,0.3,1.2,0.8h0v-0.8c0-0.2,0-0.4,0-0.6
	c0-0.2,0-0.4,0-0.6c0-0.2,0-0.4,0-0.5s0-0.3,0-0.4c0.1,0,0.1,0,0.2,0c0,0,0.1,0,0.2,0s0.1,0,0.2,0c0.1,0,0.1,0,0.2,0
	c0,0.2,0,0.4,0,0.7c0,0.3,0,0.7,0,1.1c0,0.4,0,0.8,0,1.2c0,0.4,0,0.8,0,1.1c0,0.4,0,0.7,0,1c0,0.3,0,0.6,0,0.9c-0.1,0-0.2,0-0.3,0
	c-0.1,0-0.2,0-0.3,0L190.7,20.5L190.7,20.5L190.7,20.5z M188.4,19.4c0,0.3,0,0.6,0.1,0.8c0.1,0.2,0.2,0.4,0.3,0.5
	c0.1,0.1,0.2,0.2,0.4,0.3c0.1,0.1,0.3,0.1,0.4,0.1c0.2,0,0.4,0,0.5-0.2c0.2-0.1,0.3-0.2,0.4-0.4c0.1-0.2,0.2-0.4,0.2-0.6
	c0-0.2,0.1-0.4,0.1-0.6c0-0.5-0.1-0.9-0.3-1.2c-0.2-0.3-0.5-0.4-0.9-0.4c-0.2,0-0.4,0-0.5,0.1s-0.3,0.2-0.4,0.4
	c-0.1,0.2-0.2,0.3-0.2,0.5C188.4,19,188.4,19.2,188.4,19.4L188.4,19.4z"/>
<path class="st0" d="M194.7,17.8c0.2-0.2,0.5-0.3,0.7-0.4c0.2-0.1,0.4-0.1,0.6-0.1c0.2,0,0.4,0,0.5,0.1c0.2,0.1,0.3,0.1,0.4,0.2
	c0.1,0.1,0.2,0.2,0.3,0.4s0.1,0.3,0.1,0.5c0,0.3,0,0.6,0,0.9c0,0.3,0,0.6,0,1c0,0.1,0,0.1,0,0.2c0,0.1,0,0.1,0,0.2
	c0,0.1,0,0.1,0.1,0.1c0,0,0.1,0.1,0.2,0.1c0,0,0.1,0,0.1,0s0.1,0,0.1,0v0.2c-0.1,0-0.1,0-0.2,0.1c-0.1,0-0.2,0-0.3,0
	c-0.2,0-0.3,0-0.4-0.1c-0.1-0.1-0.1-0.2-0.2-0.3c-0.2,0.2-0.4,0.3-0.6,0.4c-0.2,0.1-0.4,0.1-0.7,0.1c-0.1,0-0.3,0-0.4-0.1
	c-0.1,0-0.2-0.1-0.3-0.2c-0.1-0.1-0.2-0.2-0.2-0.3c-0.1-0.1-0.1-0.3-0.1-0.4c0-0.3,0.1-0.6,0.3-0.7c0.2-0.2,0.5-0.3,0.8-0.4
	c0.3,0,0.5-0.1,0.7-0.1c0.2,0,0.3-0.1,0.4-0.1c0.1,0,0.1-0.1,0.1-0.1c0-0.1,0-0.1,0-0.2c0-0.1,0-0.3-0.1-0.4c0-0.1-0.1-0.2-0.1-0.3
	s-0.2-0.2-0.3-0.2c-0.1-0.1-0.2-0.1-0.4-0.1c-0.2,0-0.4,0.1-0.6,0.1c-0.2,0.1-0.3,0.2-0.4,0.4h-0.1L194.7,17.8L194.7,17.8z
	 M196.7,19.3c-0.1,0-0.2,0.1-0.3,0.1s-0.2,0-0.4,0.1c-0.1,0-0.2,0-0.4,0.1c-0.1,0-0.2,0.1-0.3,0.1c-0.1,0.1-0.2,0.1-0.2,0.2
	c-0.1,0.1-0.1,0.2-0.1,0.4c0,0.2,0.1,0.4,0.2,0.6c0.1,0.1,0.3,0.2,0.5,0.2c0.2,0,0.4-0.1,0.6-0.2c0.2-0.1,0.3-0.2,0.4-0.4
	L196.7,19.3L196.7,19.3z"/>
<path class="st0" d="M200.3,18c-0.1,0-0.2,0-0.2,0c-0.1,0-0.2,0-0.3,0.1c-0.1,0.1-0.2,0.1-0.3,0.2c-0.1,0.1-0.1,0.2-0.2,0.4
	c0,0.1-0.1,0.3-0.1,0.4V20c0,0.4,0,0.6,0,0.8s0,0.3,0,0.5c-0.1,0-0.2,0-0.3,0c-0.1,0-0.2,0-0.3,0c0-0.2,0-0.4,0-0.7s0-0.7,0-1.1
	v-0.3c0-0.2,0-0.4,0-0.7s0-0.6,0-0.9c0.1,0,0.1,0,0.2,0c0.1,0,0.1,0,0.2,0c0,0,0.1,0,0.1,0c0.1,0,0.1,0,0.2,0c0,0.2,0,0.3,0,0.5
	c0,0.1,0,0.2,0,0.3h0c0.3-0.6,0.7-0.9,1.1-0.9c0.1,0,0.1,0,0.1,0c0,0,0.1,0,0.1,0c0,0.1,0,0.2-0.1,0.3c0,0.1,0,0.2,0,0.4l-0.1,0
	C200.5,18.1,200.4,18,200.3,18L200.3,18z"/>
<path class="st0" d="M202,16.4c0,0.2,0,0.4,0,0.6c0,0.2,0,0.4,0,0.6c0.1,0,0.2,0,0.3,0s0.3,0,0.5,0c0,0,0,0,0,0.1v0.2
	c0,0,0,0.1,0,0.1c-0.1,0-0.1,0-0.2,0c-0.1,0-0.2,0-0.2,0H202c0,0,0,0.1,0,0.3c0,0.1,0,0.3,0,0.5c0,0.2,0,0.4,0,0.6
	c0,0.2,0,0.4,0,0.6c0,0.1,0,0.3,0,0.4c0,0.1,0,0.3,0.1,0.4c0,0.1,0.1,0.2,0.2,0.3c0.1,0.1,0.2,0.1,0.4,0.1c0,0,0.1,0,0.2,0
	c0.1,0,0.1,0,0.2,0v0.2c-0.1,0-0.2,0-0.3,0.1s-0.2,0-0.3,0c-0.3,0-0.6-0.1-0.7-0.2c-0.2-0.2-0.2-0.4-0.2-0.7c0-0.1,0-0.3,0-0.5
	s0-0.4,0-0.6c0-0.2,0-0.4,0-0.7c0-0.2,0-0.5,0-0.8h-0.3c0,0-0.1,0-0.1,0s-0.1,0-0.2,0c0,0,0-0.1,0-0.1c0,0,0-0.1,0-0.1s0,0,0-0.1
	s0,0,0-0.1c0.2,0,0.4,0,0.5,0c0-0.1,0-0.2,0-0.4c0-0.2,0-0.3,0-0.5L202,16.4L202,16.4L202,16.4z"/>
<path class="st0" d="M203.6,16.1c0-0.1,0-0.2,0.1-0.3c0.1-0.1,0.2-0.1,0.3-0.1s0.2,0,0.3,0.1c0.1,0.1,0.1,0.2,0.1,0.3
	c0,0.1,0,0.2-0.1,0.3c-0.1,0.1-0.2,0.1-0.3,0.1s-0.2,0-0.3-0.1C203.7,16.3,203.6,16.2,203.6,16.1z M203.7,19c0-0.2,0-0.5,0-0.8
	c0-0.3,0-0.5-0.1-0.7c0.2,0,0.3,0,0.4,0s0.2,0,0.4,0c0,0.2,0,0.5-0.1,0.7c0,0.3,0,0.5,0,0.8v0.8c0,0.2,0,0.5,0,0.8
	c0,0.3,0,0.5,0.1,0.7c-0.1,0-0.2,0-0.4,0s-0.2,0-0.4,0c0-0.2,0-0.5,0.1-0.7c0-0.3,0-0.5,0-0.8V19z"/>
<path class="st0" d="M205.8,20.7c0.1,0.1,0.1,0.1,0.2,0.2s0.2,0.1,0.3,0.1c0.1,0,0.2,0.1,0.3,0.1c0.1,0,0.2,0,0.3-0.1
	c0.1,0,0.2-0.1,0.2-0.1c0.1-0.1,0.1-0.1,0.2-0.2c0-0.1,0.1-0.2,0.1-0.3c0-0.2-0.1-0.3-0.1-0.4c-0.1-0.1-0.2-0.2-0.3-0.2
	c-0.1-0.1-0.3-0.1-0.5-0.2c-0.2,0-0.3-0.1-0.5-0.2c-0.1-0.1-0.2-0.2-0.4-0.3c-0.1-0.1-0.1-0.3-0.1-0.5c0-0.2,0-0.3,0.1-0.5
	c0.1-0.1,0.1-0.3,0.3-0.4c0.1-0.1,0.2-0.2,0.4-0.2c0.2-0.1,0.4-0.1,0.6-0.1c0.2,0,0.4,0,0.5,0.1c0.1,0,0.3,0.1,0.4,0.1
	c0,0.1-0.1,0.2-0.1,0.3c0,0.1-0.1,0.2-0.1,0.3h-0.1c0-0.1-0.1-0.2-0.2-0.3c-0.1-0.1-0.3-0.2-0.5-0.2c-0.1,0-0.2,0-0.2,0
	c-0.1,0-0.1,0.1-0.2,0.1c-0.1,0.1-0.1,0.1-0.2,0.2s-0.1,0.2-0.1,0.3c0,0.2,0.1,0.3,0.1,0.4c0.1,0.1,0.2,0.2,0.3,0.2
	c0.1,0,0.3,0.1,0.5,0.1c0.2,0,0.3,0.1,0.5,0.2c0.1,0.1,0.2,0.2,0.4,0.3c0.1,0.1,0.1,0.3,0.1,0.5c0,0.1,0,0.3-0.1,0.5
	s-0.2,0.3-0.3,0.4c-0.1,0.1-0.3,0.2-0.5,0.3c-0.2,0.1-0.4,0.1-0.6,0.1c-0.2,0-0.4,0-0.6-0.1c-0.2,0-0.3-0.1-0.4-0.2
	c0-0.1,0.1-0.2,0.1-0.3c0-0.1,0.1-0.2,0.1-0.3h0.1C205.7,20.6,205.8,20.6,205.8,20.7L205.8,20.7z"/>
<path class="st0" d="M209.6,16.4c0,0.2,0,0.4,0,0.6c0,0.2,0,0.4,0,0.6c0.1,0,0.2,0,0.3,0s0.3,0,0.5,0c0,0,0,0,0,0.1v0.2
	c0,0,0,0.1,0,0.1c-0.1,0-0.1,0-0.2,0c-0.1,0-0.1,0-0.2,0h-0.4c0,0,0,0.1,0,0.3c0,0.1,0,0.3,0,0.5c0,0.2,0,0.4,0,0.6
	c0,0.2,0,0.4,0,0.6c0,0.1,0,0.3,0,0.4c0,0.1,0,0.3,0.1,0.4c0,0.1,0.1,0.2,0.2,0.3c0.1,0.1,0.2,0.1,0.4,0.1c0,0,0.1,0,0.2,0
	c0.1,0,0.1,0,0.2,0v0.2c-0.1,0-0.2,0-0.3,0.1c-0.1,0-0.2,0-0.3,0c-0.3,0-0.6-0.1-0.7-0.2s-0.2-0.4-0.2-0.7c0-0.1,0-0.3,0-0.5
	s0-0.4,0-0.6c0-0.2,0-0.4,0-0.7c0-0.2,0-0.5,0-0.8h-0.3c0,0-0.1,0-0.1,0c0,0-0.1,0-0.1,0c0,0,0-0.1,0-0.1c0,0,0-0.1,0-0.1s0,0,0-0.1
	s0,0,0-0.1c0.2,0,0.4,0,0.5,0c0-0.1,0-0.2,0-0.4c0-0.2,0-0.3,0-0.5L209.6,16.4L209.6,16.4L209.6,16.4z"/>
<path class="st0" d="M211.2,16.1c0-0.1,0-0.2,0.1-0.3c0.1-0.1,0.2-0.1,0.3-0.1s0.2,0,0.3,0.1c0.1,0.1,0.1,0.2,0.1,0.3
	c0,0.1,0,0.2-0.1,0.3c-0.1,0.1-0.2,0.1-0.3,0.1s-0.2,0-0.3-0.1C211.2,16.3,211.2,16.2,211.2,16.1z M211.3,19c0-0.2,0-0.5,0-0.8
	c0-0.3,0-0.5,0-0.7c0.1,0,0.3,0,0.4,0c0.1,0,0.2,0,0.4,0c0,0.2,0,0.5-0.1,0.7c0,0.3,0,0.5,0,0.8v0.8c0,0.2,0,0.5,0,0.8
	c0,0.3,0,0.5,0.1,0.7c-0.1,0-0.2,0-0.4,0c-0.1,0-0.2,0-0.4,0c0-0.2,0-0.5,0-0.7c0-0.3,0-0.5,0-0.8V19z"/>
<path class="st0" d="M213,19.4c0-0.3,0.1-0.6,0.2-0.9s0.3-0.5,0.5-0.6s0.4-0.3,0.7-0.4c0.2-0.1,0.5-0.1,0.8-0.1c0.3,0,0.6,0,0.8,0.1
	c0.2,0.1,0.4,0.1,0.5,0.2c0,0.1-0.1,0.2-0.1,0.2c0,0.1-0.1,0.2-0.1,0.3h-0.1c0-0.1-0.1-0.1-0.2-0.2c-0.1-0.1-0.1-0.1-0.2-0.2
	c-0.1-0.1-0.2-0.1-0.3-0.1c-0.1,0-0.2-0.1-0.4-0.1c-0.2,0-0.4,0-0.6,0.1s-0.3,0.2-0.4,0.4c-0.1,0.2-0.2,0.3-0.2,0.6
	c-0.1,0.2-0.1,0.4-0.1,0.7c0,0.5,0.1,1,0.4,1.2c0.2,0.3,0.6,0.4,1,0.4c0.1,0,0.2,0,0.3,0c0.1,0,0.2-0.1,0.3-0.1
	c0.1-0.1,0.2-0.1,0.3-0.2s0.2-0.1,0.2-0.2l0,0c0,0.1,0,0.3,0,0.4c-0.2,0.1-0.4,0.2-0.6,0.3c-0.2,0.1-0.5,0.1-0.7,0.1
	c-0.2,0-0.5,0-0.7-0.1c-0.2-0.1-0.4-0.2-0.6-0.3s-0.3-0.4-0.4-0.6S213,19.7,213,19.4L213,19.4z"/>
<path class="st0" d="M219.2,19.5c0-0.7,0.2-1.2,0.5-1.5c0.3-0.4,0.8-0.6,1.4-0.6c0.3,0,0.5,0,0.7,0.1c0.2,0.1,0.4,0.2,0.5,0.4
	c0.1,0.1,0.2,0.3,0.3,0.5s0.1,0.4,0.1,0.6c0,0.1,0,0.1,0,0.2c0,0,0,0.1,0,0.2c-0.3,0-0.6,0-0.9,0c-0.3,0-0.6,0-0.9,0
	c-0.2,0-0.3,0-0.5,0c-0.2,0-0.4,0-0.5,0c0,0,0,0.1,0,0.1v0.1c0,0.2,0,0.4,0.1,0.6c0.1,0.2,0.1,0.3,0.3,0.5c0.1,0.1,0.3,0.2,0.4,0.3
	c0.2,0.1,0.4,0.1,0.6,0.1c0.1,0,0.2,0,0.3,0c0.1,0,0.2-0.1,0.3-0.1c0.1,0,0.2-0.1,0.3-0.2c0.1-0.1,0.2-0.1,0.2-0.2l0,0l-0.1,0.4
	c-0.2,0.1-0.4,0.2-0.6,0.3s-0.5,0.1-0.7,0.1c-0.3,0-0.5,0-0.8-0.1s-0.4-0.2-0.6-0.4c-0.2-0.2-0.3-0.4-0.4-0.6
	C219.3,20,219.2,19.8,219.2,19.5L219.2,19.5z M221.1,17.6c-0.2,0-0.4,0-0.5,0.1c-0.1,0.1-0.2,0.2-0.3,0.3c-0.1,0.1-0.1,0.3-0.2,0.5
	c-0.1,0.2-0.1,0.3-0.1,0.5c0.2,0,0.3,0,0.5,0c0.2,0,0.3,0,0.5,0c0.2,0,0.4,0,0.5,0c0.2,0,0.4,0,0.5,0c0-0.1,0-0.3,0-0.5
	c0-0.2-0.1-0.3-0.1-0.5c-0.1-0.1-0.2-0.2-0.3-0.3S221.3,17.6,221.1,17.6L221.1,17.6z"/>
<path class="st0" d="M225,18.9c0.2-0.3,0.4-0.5,0.6-0.8c0.2-0.2,0.4-0.5,0.5-0.8c0,0,0.1,0,0.1,0c0.1,0,0.1,0,0.1,0
	c0.1,0,0.1,0,0.3,0c-0.3,0.3-0.5,0.6-0.8,0.9c-0.2,0.3-0.5,0.6-0.7,0.9c0.2,0.3,0.5,0.7,0.8,1c0.3,0.3,0.5,0.7,0.8,1
	c-0.1,0-0.2,0-0.2,0h-0.4c-0.1,0-0.1,0-0.2,0c-0.2-0.3-0.4-0.5-0.5-0.8c-0.2-0.3-0.4-0.5-0.6-0.8c-0.2,0.3-0.4,0.5-0.6,0.8
	c-0.2,0.3-0.4,0.5-0.6,0.8c-0.1,0-0.2,0-0.3,0c-0.1,0-0.2,0-0.3,0c0.3-0.3,0.5-0.6,0.8-0.9c0.2-0.3,0.5-0.6,0.7-0.9
	c-0.2-0.3-0.5-0.6-0.7-1s-0.5-0.7-0.8-1c0.1,0,0.1,0,0.2,0c0.1,0,0.1,0,0.2,0s0.1,0,0.2,0c0.1,0,0.1,0,0.2,0
	c0.1,0.3,0.3,0.5,0.5,0.8C224.6,18.4,224.8,18.7,225,18.9L225,18.9z"/>
<path class="st0" d="M227.4,19.8c0-0.2,0-0.4,0-0.6c0-0.2,0-0.4,0-0.6c0-0.2,0-0.4,0-0.6c0-0.2,0-0.4,0-0.5c0.2,0,0.3,0,0.4,0
	s0.2,0,0.4,0c0,0.1,0,0.3-0.1,0.4c0,0.1,0,0.3,0,0.4h0c0-0.1,0.1-0.2,0.2-0.3c0.1-0.1,0.2-0.2,0.3-0.3c0.1-0.1,0.2-0.2,0.4-0.2
	c0.2-0.1,0.3-0.1,0.5-0.1s0.4,0,0.6,0.1c0.2,0.1,0.4,0.2,0.5,0.4c0.1,0.2,0.3,0.4,0.4,0.6c0.1,0.2,0.1,0.5,0.1,0.9s-0.1,0.6-0.2,0.9
	c-0.1,0.2-0.2,0.5-0.4,0.6c-0.2,0.2-0.4,0.3-0.6,0.4c-0.2,0.1-0.4,0.1-0.6,0.1c-0.6,0-1-0.2-1.3-0.8h0v0.5c0,0.2,0,0.4,0,0.6
	c0,0.2,0,0.4,0,0.6c0,0.2,0,0.4,0,0.6c0,0.2,0,0.4,0,0.5c-0.2,0-0.3,0-0.4,0c-0.1,0-0.2,0-0.4,0c0-0.1,0-0.3,0-0.5
	c0-0.2,0-0.4,0-0.6c0-0.2,0-0.4,0-0.6c0-0.2,0-0.4,0-0.6L227.4,19.8L227.4,19.8z M230.3,19.3c0-0.3,0-0.6-0.1-0.8
	c-0.1-0.2-0.1-0.4-0.3-0.5c-0.1-0.1-0.2-0.2-0.4-0.3c-0.1,0-0.3-0.1-0.4-0.1c-0.2,0-0.4,0.1-0.6,0.1c-0.1,0.1-0.3,0.2-0.4,0.4
	c-0.1,0.1-0.2,0.3-0.2,0.5c0,0.2-0.1,0.4-0.1,0.6c0,1.1,0.4,1.7,1.2,1.7c0.2,0,0.4,0,0.5-0.1c0.1-0.1,0.3-0.2,0.4-0.4
	s0.2-0.3,0.2-0.5C230.3,19.8,230.3,19.6,230.3,19.3z"/>
<path class="st0" d="M233.7,18c-0.1,0-0.2,0-0.2,0c-0.1,0-0.2,0-0.3,0.1c-0.1,0.1-0.2,0.1-0.3,0.2c-0.1,0.1-0.1,0.2-0.2,0.4
	c0,0.1-0.1,0.3-0.1,0.4V20c0,0.4,0,0.6,0,0.8s0,0.3,0,0.5c-0.1,0-0.2,0-0.3,0c-0.1,0-0.2,0-0.3,0c0-0.2,0-0.4,0-0.7s0-0.7,0-1.1
	v-0.3c0-0.2,0-0.4,0-0.7s0-0.6,0-0.9c0.1,0,0.1,0,0.2,0s0.1,0,0.2,0c0.1,0,0.1,0,0.1,0c0.1,0,0.1,0,0.2,0c0,0.2,0,0.3,0,0.5
	c0,0.1,0,0.2,0,0.3h0c0.3-0.6,0.7-0.9,1.1-0.9c0.1,0,0.1,0,0.1,0s0.1,0,0.1,0c0,0.1,0,0.2-0.1,0.3c0,0.1,0,0.2,0,0.4l-0.1,0
	C233.8,18.1,233.7,18,233.7,18L233.7,18z"/>
<path class="st0" d="M234.3,19.5c0-0.7,0.2-1.2,0.5-1.5c0.3-0.4,0.8-0.6,1.4-0.6c0.3,0,0.5,0,0.7,0.1c0.2,0.1,0.4,0.2,0.5,0.4
	c0.1,0.1,0.2,0.3,0.3,0.5c0.1,0.2,0.1,0.4,0.1,0.6c0,0.1,0,0.1,0,0.2c0,0,0,0.1,0,0.2c-0.3,0-0.6,0-0.9,0c-0.3,0-0.6,0-0.9,0
	c-0.2,0-0.3,0-0.5,0c-0.2,0-0.4,0-0.5,0c0,0,0,0.1,0,0.1v0.1c0,0.2,0,0.4,0.1,0.6s0.1,0.3,0.3,0.5c0.1,0.1,0.3,0.2,0.4,0.3
	s0.4,0.1,0.6,0.1c0.1,0,0.2,0,0.3,0c0.1,0,0.2-0.1,0.3-0.1c0.1,0,0.2-0.1,0.3-0.2s0.2-0.1,0.2-0.2l0,0l-0.1,0.4
	c-0.2,0.1-0.4,0.2-0.6,0.3c-0.2,0.1-0.5,0.1-0.7,0.1c-0.3,0-0.5,0-0.8-0.1c-0.2-0.1-0.4-0.2-0.6-0.4c-0.2-0.2-0.3-0.4-0.4-0.6
	C234.4,20,234.3,19.8,234.3,19.5L234.3,19.5z M236.2,17.6c-0.2,0-0.4,0-0.5,0.1c-0.1,0.1-0.2,0.2-0.3,0.3c-0.1,0.1-0.2,0.3-0.2,0.5
	c-0.1,0.2-0.1,0.3-0.1,0.5c0.2,0,0.3,0,0.5,0c0.2,0,0.3,0,0.5,0c0.2,0,0.4,0,0.5,0c0.2,0,0.4,0,0.5,0c0-0.1,0-0.3,0-0.5
	c0-0.2-0.1-0.3-0.1-0.5c-0.1-0.1-0.2-0.2-0.3-0.3C236.6,17.7,236.4,17.6,236.2,17.6L236.2,17.6z"/>
<path class="st0" d="M238.7,20.7c0.1,0.1,0.1,0.1,0.2,0.2c0.1,0.1,0.2,0.1,0.3,0.1c0.1,0,0.2,0.1,0.3,0.1c0.1,0,0.2,0,0.3-0.1
	c0.1,0,0.2-0.1,0.2-0.1s0.1-0.1,0.2-0.2s0.1-0.2,0.1-0.3c0-0.2,0-0.3-0.1-0.4c-0.1-0.1-0.2-0.2-0.3-0.2c-0.1-0.1-0.3-0.1-0.5-0.2
	c-0.2,0-0.3-0.1-0.5-0.2c-0.1-0.1-0.2-0.2-0.4-0.3c-0.1-0.1-0.1-0.3-0.1-0.5c0-0.2,0-0.3,0.1-0.5c0.1-0.1,0.1-0.3,0.3-0.4
	c0.1-0.1,0.2-0.2,0.4-0.2c0.2-0.1,0.4-0.1,0.6-0.1c0.2,0,0.4,0,0.5,0.1s0.3,0.1,0.4,0.1c0,0.1-0.1,0.2-0.1,0.3
	c0,0.1-0.1,0.2-0.1,0.3h-0.1c0-0.1-0.1-0.2-0.2-0.3c-0.1-0.1-0.3-0.2-0.5-0.2c-0.1,0-0.2,0-0.2,0c-0.1,0-0.1,0.1-0.2,0.1
	c-0.1,0.1-0.1,0.1-0.2,0.2c0,0.1-0.1,0.2-0.1,0.3c0,0.2,0.1,0.3,0.1,0.4c0.1,0.1,0.2,0.2,0.3,0.2s0.3,0.1,0.5,0.1
	c0.2,0,0.3,0.1,0.5,0.2c0.1,0.1,0.2,0.2,0.4,0.3c0.1,0.1,0.1,0.3,0.1,0.5c0,0.1,0,0.3-0.1,0.5c-0.1,0.1-0.2,0.3-0.3,0.4
	c-0.1,0.1-0.3,0.2-0.5,0.3c-0.2,0.1-0.4,0.1-0.6,0.1c-0.2,0-0.4,0-0.6-0.1c-0.2,0-0.3-0.1-0.4-0.2c0-0.1,0.1-0.2,0.1-0.3
	c0-0.1,0.1-0.2,0.1-0.3h0.1C238.6,20.6,238.7,20.6,238.7,20.7L238.7,20.7z"/>
<path class="st0" d="M241.8,20.7c0.1,0.1,0.1,0.1,0.2,0.2c0.1,0.1,0.2,0.1,0.3,0.1c0.1,0,0.2,0.1,0.3,0.1c0.1,0,0.2,0,0.3-0.1
	c0.1,0,0.2-0.1,0.2-0.1s0.1-0.1,0.2-0.2s0.1-0.2,0.1-0.3c0-0.2-0.1-0.3-0.1-0.4s-0.2-0.2-0.4-0.2c-0.1-0.1-0.3-0.1-0.5-0.2
	c-0.2,0-0.3-0.1-0.5-0.2c-0.1-0.1-0.2-0.2-0.4-0.3c-0.1-0.1-0.1-0.3-0.1-0.5c0-0.2,0-0.3,0.1-0.5c0.1-0.1,0.1-0.3,0.3-0.4
	c0.1-0.1,0.2-0.2,0.4-0.2c0.2-0.1,0.3-0.1,0.6-0.1c0.2,0,0.4,0,0.5,0.1s0.3,0.1,0.4,0.1c0,0.1-0.1,0.2-0.1,0.3
	c0,0.1-0.1,0.2-0.1,0.3h-0.1c0-0.1-0.1-0.2-0.2-0.3c-0.1-0.1-0.3-0.2-0.5-0.2c-0.1,0-0.2,0-0.2,0c-0.1,0-0.2,0.1-0.2,0.1
	c-0.1,0.1-0.1,0.1-0.2,0.2c0,0.1-0.1,0.2-0.1,0.3c0,0.2,0,0.3,0.1,0.4c0.1,0.1,0.2,0.2,0.4,0.2s0.3,0.1,0.5,0.1
	c0.2,0,0.3,0.1,0.5,0.2s0.2,0.2,0.4,0.3c0.1,0.1,0.1,0.3,0.1,0.5c0,0.1,0,0.3-0.1,0.5s-0.2,0.3-0.3,0.4c-0.1,0.1-0.3,0.2-0.4,0.3
	c-0.2,0.1-0.4,0.1-0.6,0.1c-0.2,0-0.4,0-0.6-0.1c-0.2,0-0.3-0.1-0.4-0.2c0-0.1,0.1-0.2,0.1-0.3c0-0.1,0.1-0.2,0.1-0.3h0.1
	C241.7,20.6,241.8,20.6,241.8,20.7L241.8,20.7z"/>
<path class="st0" d="M245,16.1c0-0.1,0-0.2,0.1-0.3c0.1-0.1,0.2-0.1,0.3-0.1c0.1,0,0.2,0,0.3,0.1s0.1,0.2,0.1,0.3
	c0,0.1,0,0.2-0.1,0.3c-0.1,0.1-0.2,0.1-0.3,0.1c-0.1,0-0.2,0-0.3-0.1C245,16.3,245,16.2,245,16.1z M245.1,19c0-0.2,0-0.5,0-0.8
	c0-0.3,0-0.5-0.1-0.7c0.2,0,0.3,0,0.4,0s0.2,0,0.4,0c0,0.2,0,0.5,0,0.7c0,0.3,0,0.5,0,0.8v0.8c0,0.2,0,0.5,0,0.8c0,0.3,0,0.5,0,0.7
	c-0.1,0-0.2,0-0.4,0s-0.2,0-0.4,0c0-0.2,0-0.5,0.1-0.7c0-0.3,0-0.5,0-0.8V19z"/>
<path class="st0" d="M246.8,19.4c0-0.4,0.1-0.7,0.2-0.9s0.3-0.5,0.4-0.6c0.2-0.2,0.4-0.3,0.6-0.3c0.2-0.1,0.5-0.1,0.7-0.1
	c0.2,0,0.5,0,0.7,0.1c0.2,0.1,0.4,0.2,0.6,0.3c0.2,0.2,0.3,0.4,0.5,0.6c0.1,0.2,0.2,0.6,0.2,0.9s-0.1,0.7-0.2,0.9
	c-0.1,0.2-0.3,0.5-0.5,0.6c-0.2,0.2-0.4,0.3-0.6,0.3c-0.2,0.1-0.5,0.1-0.7,0.1c-0.2,0-0.5,0-0.7-0.1c-0.2-0.1-0.4-0.2-0.6-0.3
	s-0.3-0.4-0.4-0.6C246.8,20,246.8,19.7,246.8,19.4z M247.5,19.4c0,0.2,0,0.4,0.1,0.6c0,0.2,0.1,0.4,0.2,0.6c0.1,0.2,0.2,0.3,0.4,0.4
	c0.2,0.1,0.4,0.1,0.6,0.1s0.4,0,0.6-0.1c0.2-0.1,0.3-0.2,0.4-0.4c0.1-0.2,0.2-0.4,0.2-0.6c0-0.2,0.1-0.4,0.1-0.6s0-0.4-0.1-0.6
	c0-0.2-0.1-0.4-0.2-0.6c-0.1-0.2-0.2-0.3-0.4-0.4c-0.2-0.1-0.4-0.1-0.6-0.1s-0.4,0-0.6,0.1c-0.2,0.1-0.3,0.2-0.4,0.4
	c-0.1,0.2-0.2,0.3-0.2,0.6C247.5,18.9,247.5,19.1,247.5,19.4z"/>
<path class="st0" d="M253.9,18.1c-0.2-0.2-0.4-0.3-0.6-0.3c-0.4,0-0.6,0.1-0.8,0.3c-0.2,0.2-0.3,0.6-0.3,1v0.7c0,0.2,0,0.5,0,0.8
	c0,0.3,0,0.5,0.1,0.7c-0.1,0-0.2,0-0.4,0s-0.2,0-0.4,0c0-0.2,0-0.5,0-0.7c0-0.3,0-0.5,0-0.8v-0.8c0-0.2,0-0.5,0-0.8
	c0-0.3,0-0.5,0-0.7c0.1,0,0.3,0,0.4,0c0,0,0.1,0,0.1,0c0,0,0.1,0,0.2,0c0,0.2,0,0.4,0,0.6h0c0.1-0.2,0.3-0.4,0.5-0.5
	c0.2-0.1,0.5-0.2,0.7-0.2c0.1,0,0.3,0,0.4,0.1c0.2,0,0.3,0.1,0.4,0.2s0.2,0.2,0.3,0.4c0.1,0.2,0.1,0.4,0.1,0.7c0,0.2,0,0.5,0,0.7
	c0,0.2,0,0.5,0,0.8v0.5c0,0.1,0,0.2,0,0.2s0,0.2,0,0.2c-0.1,0-0.2,0-0.3,0s-0.2,0-0.3,0c0-0.3,0-0.6,0-0.9c0-0.3,0-0.6,0-0.9V19
	C254.1,18.6,254.1,18.3,253.9,18.1L253.9,18.1z"/>
<path class="st0" d="M256,20.9c0-0.1,0-0.2,0.1-0.3s0.2-0.1,0.3-0.1s0.2,0,0.3,0.1c0.1,0.1,0.1,0.2,0.1,0.3s0,0.2-0.1,0.3
	s-0.2,0.1-0.3,0.1s-0.2,0-0.3-0.1S256,21,256,20.9z"/>
</svg>
