<?xml version="1.0" encoding="utf-8"?>
<!-- Generator: Adobe Illustrator 27.0.0, SVG Export Plug-In . SVG Version: 6.00 Build 0)  -->
<svg version="1.1" id="圖層_1" xmlns="http://www.w3.org/2000/svg" xmlns:xlink="http://www.w3.org/1999/xlink" x="0px" y="0px"
	 viewBox="0 0 400 215" style="enable-background:new 0 0 400 215;" xml:space="preserve">
<style type="text/css">
	.st0{fill:#40220F;}
	.st1{fill:none;stroke:#FFFFFF;stroke-width:0.25;stroke-miterlimit:10;}
</style>
<path class="st0" d="M97.5,35.4h-1.1v-0.9h-5.7v0.8h-1.1V24.8h7.9V35.4z M96.4,28.9v-3h-5.7v3H96.4z M96.4,33.4v-3.3h-5.7v3.3H96.4z
	"/>
<path class="st0" d="M104.3,26.3v-1.9h1.1v1.9h4.5v1.2h-3.4c0.4,0.9,0.8,1.7,1.4,2.4c0.6,0.8,1.4,1.6,2.4,2.5l-0.8,1
	c-1.1-1-2-2-2.6-3c-0.6-0.8-1-1.8-1.4-2.9h0v4.7h2.6v1.1h-2.6v2.1h-1.2v-2.1h-2.4v-1.1h2.4v-4.7h0c-0.3,1-0.7,1.9-1,2.5
	c-0.6,1.2-1.6,2.4-2.9,3.7l-0.6-1.1c1-0.9,1.8-1.8,2.3-2.7c0.4-0.6,0.8-1.4,1.2-2.3H100v-1.2H104.3L104.3,26.3z"/>
<path class="st0" d="M115.8,25.3v-0.9h1.1v0.9h4.5v1.1h-4.5v0.7h3.7v4.6H118c0.5,0.5,0.9,0.9,1.3,1.2c0.6,0.4,1.4,0.8,2.4,1.1
	l-0.5,1.1c-1.2-0.6-2.1-1.1-2.7-1.6c-0.5-0.4-1-1-1.5-1.8h-0.1v3.7h-1.1v-3.7h0c-0.3,0.6-0.7,1.1-1.2,1.5c-0.7,0.6-1.6,1.2-2.9,1.9
	l-0.6-1c1.3-0.5,2.2-1.1,2.7-1.5c0.3-0.2,0.6-0.5,0.9-0.9h-2.4v-4.6h3.5v-0.7h-4.5v-1.1L115.8,25.3L115.8,25.3z M115.8,28.9v-0.8
	h-2.5v0.8H115.8z M115.8,29.8h-2.5v0.8h2.5V29.8z M116.9,28.9h2.6v-0.8h-2.6V28.9z M119.6,29.8h-2.6v0.8h2.6V29.8z"/>
<path class="st0" d="M128.4,25.5h4.6v1h-10.4v-1h4.7c-0.2-0.3-0.4-0.6-0.6-0.9l1.2-0.2C128,24.7,128.2,25.1,128.4,25.5z M125.6,31.9
	c-0.6,1.1-1.2,2.1-2.1,2.9l-0.7-1c0.8-0.7,1.4-1.6,2-2.7L125.6,31.9L125.6,31.9z M131.9,27.3v3.5h-3.6v3.3c0,0.4-0.1,0.7-0.3,0.9
	c-0.2,0.2-0.5,0.3-1,0.3h-1.2l-0.2-1.2c0.4,0.1,0.8,0.1,1.1,0.1c0.3,0,0.5-0.1,0.5-0.3v-3.1h-3.4v-3.5L131.9,27.3L131.9,27.3z
	 M130.8,28.4h-6v1.4h6V28.4z M132.5,33.9l-0.9,0.9c-0.5-0.8-1.1-1.7-2-2.7l0.8-0.8C131.3,32.2,131.9,33.1,132.5,33.9L132.5,33.9z"/>
<path class="st0" d="M136.3,25.5v-1.2h1v1.2h1.5v0.9h-1.5v1.3h0.7c0.6-0.6,1.1-1.5,1.7-2.5l0.8,0.4c-0.4,0.8-0.8,1.5-1.3,2.1h0.8
	v0.9h-1.6c-0.2,0.2-0.4,0.4-0.6,0.6c-0.2,0.2-0.4,0.4-0.7,0.6h2.4v5.4h-1v-0.7h-2.5v0.7h-1v-4.2c-0.2,0.1-0.4,0.2-0.7,0.3l-0.5-0.8
	c1.3-0.5,2.3-1.1,3.2-1.9h-2.9v-0.9h2.1v-1.3h-1.8v-0.9L136.3,25.5L136.3,25.5z M138.5,31.8v-1h-2.5v1H138.5z M138.5,33.8v-1.1h-2.5
	v1.1H138.5z M144.3,24.9v0.9c-0.4,1.3-0.7,2.4-1.1,3.5c0.5,0.7,0.8,1.3,1,1.6c0.2,0.4,0.3,0.8,0.3,1.2c0,0.7-0.1,1.3-0.4,1.7
	c-0.3,0.4-1,0.6-2,0.6l-0.3-1.2c0.3,0.1,0.7,0.1,1,0.1c0.3,0,0.5-0.1,0.6-0.3c0.1-0.1,0.1-0.4,0.1-0.8c0-0.2-0.1-0.6-0.2-1
	c-0.2-0.4-0.5-1-1.1-1.9c0.4-1.2,0.8-2.3,1-3.3h-1.6v9.4h-1V24.9H144.3L144.3,24.9z"/>
<path class="st0" d="M155,24.7v0.8h-4V26h4.6v2.5h-1v-1.7h-3.6V29H150v-2.2h-3.5v1.7h-1V26h4.5v-0.5h-3.9v-0.8H155L155,24.7z
	 M150.2,31.5h-3.4v0.5h3.4v0.8h-3.4v0.5h3.6v0.8h-3.6v1.1h-1v-6h4.4V31.5L150.2,31.5z M149.2,30.8V30h-2.5v0.8H149.2z M149.6,27.2
	v0.6h-2.7v-0.6H149.6z M149.6,28.3v0.6h-2.7v-0.6H149.6z M155.3,32v0.6c-0.4,0.5-0.9,1-1.6,1.5c0.6,0.2,1.2,0.4,2,0.5l-0.5,0.8
	c-1.1-0.2-1.9-0.5-2.4-0.8c-0.7,0.3-1.5,0.6-2.4,0.8l-0.3-0.8c0.7-0.1,1.4-0.2,1.9-0.4c-0.5-0.3-0.8-0.7-1.1-1.1l0.6-0.3h-0.8V32
	H155.3L155.3,32z M155.3,29.3v2.1h-4.6v-0.7h3.6v-0.7h-3.6v-0.7L155.3,29.3L155.3,29.3z M154.2,27.2v0.6h-2.8v-0.6H154.2z
	 M154.2,28.3v0.6h-2.8v-0.6H154.2z M152.9,33.6c0.5-0.3,0.9-0.6,1.2-1h-2.5C152,33.1,152.4,33.4,152.9,33.6z"/>
<path class="st0" d="M161.5,28.2h-1.2l0.6,0.2c-0.2,0.4-0.5,0.8-0.7,1.1c0.2,0,0.4,0,0.6-0.1c0.2-0.2,0.4-0.5,0.6-0.7l0.8,0.3
	c-0.6,0.7-1.3,1.4-1.9,1.9c0.3,0,0.6-0.1,0.9-0.1c0-0.2-0.1-0.3-0.1-0.4l0.7-0.1c0.1,0.5,0.2,1,0.4,1.5l-0.8,0.1c0-0.1,0-0.3,0-0.4
	c-0.6,0.1-1.4,0.2-2.5,0.3l-0.2-0.8c0.2,0,0.4,0,0.6,0c0.3-0.2,0.6-0.5,0.9-0.8c-0.4,0.1-0.9,0.1-1.4,0.2l-0.1-0.7
	c0.2,0,0.4,0,0.6-0.1c0.3-0.3,0.5-0.8,0.8-1.4h-2v7.2h-1V24.8h4.5L161.5,28.2L161.5,28.2z M160.6,26.1v-0.5h-2.5v0.5H160.6z
	 M160.6,27.4v-0.6h-2.5v0.6H160.6z M159.7,32v0.7h1.1V32h0.8v1.3c0,0.5-0.2,0.9-0.6,1.2c-0.3,0.3-0.9,0.5-1.6,0.7l-0.4-0.8
	c0.7-0.1,1.2-0.3,1.4-0.4c0.2-0.1,0.3-0.3,0.4-0.5h-1.9V32H159.7z M166.9,24.8v9.4c0,0.4-0.1,0.7-0.3,0.9c-0.2,0.2-0.5,0.3-0.9,0.3
	h-0.8l-0.2-1.1l0.8,0c0.3,0,0.4-0.2,0.4-0.5v-5.7h-2.5l0.5,0.2c-0.2,0.4-0.5,0.8-0.8,1.2c0.3,0,0.5,0,0.8-0.1
	c0.1-0.2,0.3-0.4,0.4-0.6l0.9,0.3c-0.5,0.6-1,1.2-1.5,1.7c0.3,0,0.6-0.1,0.8-0.1c-0.1-0.1-0.1-0.3-0.1-0.4l0.6-0.2
	c0.2,0.5,0.4,0.9,0.6,1.3l-0.8,0.3c-0.1-0.1-0.1-0.3-0.1-0.4c-0.6,0.2-1.5,0.3-2.5,0.4L162,31c0.2,0,0.4,0,0.6,0
	c0.3-0.3,0.5-0.5,0.7-0.8c-0.5,0.1-1,0.1-1.5,0.2l-0.1-0.7c0.1,0,0.3,0,0.5,0c0.3-0.4,0.6-0.9,0.8-1.4h-0.8v-3.4L166.9,24.8
	L166.9,24.8z M163.1,31.9v1h1V32h0.8v1.7h-1.9v1.5h-0.9v-3.3L163.1,31.9L163.1,31.9z M165.8,26.1v-0.5h-2.6v0.5H165.8z M165.8,26.8
	h-2.6v0.6h2.6V26.8z"/>
<path class="st0" d="M173.8,31.1c-0.2,0.2-0.5,0.5-0.9,0.8l-0.4-0.6c0.5-0.3,0.8-0.6,0.9-1.1h-0.7v-1.5h1.4V30
	C174.1,30.4,174,30.8,173.8,31.1z"/>
<path class="st0" d="M184.2,26.6v-2.3h1.1v2.3h4v5.7h-4v3h-1.1v-3h-4v-5.7H184.2z M184.2,27.7h-2.8v3.5h2.8V27.7z M188.2,27.7h-2.9
	v3.5h2.9V27.7z"/>
<path class="st0" d="M200.2,29.7h1.1v1.1h-3.7c0.2,0.7,0.6,1.3,1.1,1.8c0.7,0.7,1.6,1.2,2.7,1.6l-0.7,1.2c-1.3-0.7-2.3-1.4-3-2.2
	c-0.6-0.7-1-1.5-1.3-2.4h-0.2c-0.2,0.7-0.5,1.3-0.9,1.9c-0.8,1.2-2,2.1-3.8,2.7l-0.6-1c1.8-0.7,3-1.5,3.7-2.5c0.2-0.3,0.4-0.6,0.5-1
	h-4v-1.1h1.1v-3.8h3.5v-1.6h1.1v1.6h3.5L200.2,29.7L200.2,29.7z M195.4,29.7c0.1-0.7,0.2-1.4,0.2-2.1V27h-2.4v2.7H195.4L195.4,29.7z
	 M196.7,27.6c0,0.8-0.1,1.5-0.2,2.1h2.6V27h-2.4V27.6z"/>
<path class="st0" d="M205.8,27.8c-0.3,0.5-0.5,0.9-0.8,1.3v6.2h-1v-4.9c-0.3,0.3-0.6,0.7-0.9,1l-0.7-1c1-0.9,1.9-2,2.8-3.3
	L205.8,27.8z M205.6,24.9c-0.7,1-1.6,1.8-2.6,2.6l-0.7-0.9c0.9-0.6,1.8-1.4,2.5-2.3L205.6,24.9z M212.8,28.1v1h-1.6v5
	c0,0.4-0.1,0.7-0.3,0.9c-0.2,0.2-0.5,0.3-1,0.3H208l-0.2-1.1c0.7,0.1,1.4,0.1,1.8,0.1c0.3,0,0.4-0.1,0.4-0.3v-4.8h-4v-1L212.8,28.1
	L212.8,28.1z M212.2,24.9V26h-5.6v-1.1H212.2z"/>
<path class="st0" d="M219.1,25.1v1h-1.8v2.6h1c0.3-0.5,0.6-1.1,0.9-1.8c0.2-0.6,0.5-1.4,0.7-2.5l1.1,0.1c-0.1,0.6-0.2,1.1-0.4,1.6
	h3.6v1.1h-0.9c-0.1,2-0.5,3.6-1.2,4.8c-0.1,0.1-0.1,0.2-0.2,0.3c0.6,0.6,1.3,1.3,2.3,2l-0.6,1.1c-1-0.7-1.8-1.4-2.4-2.1
	c-0.6,0.7-1.5,1.4-2.5,2.1l-0.6-1c1-0.6,1.9-1.2,2.5-2c-0.5-0.8-0.9-2-1.2-3.4c-0.2,0.4-0.4,0.7-0.7,1l-0.2-0.3h-1.2v2.9
	c0.6-0.2,1.1-0.4,1.6-0.6V33c-1.4,0.6-3,1.2-4.8,1.8l-0.3-1.1c0.2,0,0.4-0.1,0.6-0.2v-6h1v5.7c0.3-0.1,0.6-0.2,0.9-0.3v-6.9h-2.4v-1
	H219.1L219.1,25.1z M221.3,31.4c0.6-1,0.9-2.4,1-4.2h-2.1c-0.1,0.1-0.1,0.2-0.1,0.3v0C220.4,29.3,220.8,30.6,221.3,31.4z"/>
<path class="st0" d="M226.4,26.6v-2.2h1v2.2h0.9v1h-0.9v0.6c0.4,0.5,0.8,1.1,1.2,1.7l-0.2,0.3h1c0-0.3,0-0.5,0-0.9
	c-0.2,0-0.5,0.1-0.8,0.1l-0.2-0.8c0.2,0,0.3,0,0.5,0c0.2-0.4,0.5-0.8,0.8-1.3c-0.4,0.1-0.8,0.2-1.2,0.2l-0.2-0.8
	c0.1,0,0.3,0,0.4-0.1c0.4-0.7,0.6-1.4,0.8-2.2l0.8,0.1c-0.2,0.7-0.4,1.4-0.8,2c0.2,0,0.3-0.1,0.5-0.1c0.1-0.3,0.3-0.6,0.4-1l0.8,0.3
	c-0.5,1.1-1,2-1.5,2.7c0.3,0,0.5,0,0.8-0.1c-0.1-0.2-0.1-0.5-0.2-0.7l0.6-0.1c0.2,0.6,0.4,1.2,0.6,1.8l-0.7,0.3
	c0-0.2-0.1-0.4-0.1-0.5c-0.2,0-0.3,0.1-0.5,0.1c0,0.4,0,0.7,0,1h1.5c-0.2-1.2-0.3-3.2-0.3-6h0.9c0.1,2.8,0.2,4.8,0.3,6h1.1
	c-0.1-0.2-0.2-0.5-0.3-0.7c-0.2,0-0.4,0-0.6,0.1l-0.2-0.8c0.2,0,0.4,0,0.5,0c0.2-0.4,0.5-0.9,0.8-1.4c-0.4,0.1-0.8,0.2-1.2,0.2
	l-0.2-0.8c0.1,0,0.3,0,0.4,0c0.3-0.7,0.6-1.4,0.7-2.2l0.8,0.1c-0.2,0.7-0.4,1.4-0.7,2c0.2,0,0.3,0,0.5-0.1c0.1-0.2,0.2-0.5,0.3-0.8
	l0.8,0.3c-0.4,1.1-0.9,2-1.3,2.6c0.3,0,0.5-0.1,0.7-0.1c-0.1-0.2-0.1-0.4-0.2-0.6l0.6-0.1c0.2,0.6,0.4,1.2,0.6,1.7l-0.7,0.3
	c0-0.2-0.1-0.4-0.1-0.5c-0.2,0-0.4,0.1-0.6,0.1c0.1,0.3,0.2,0.5,0.3,0.9h1v0.9h-2.8c0.1,0.5,0.2,1,0.4,1.4c0.2-0.3,0.5-0.7,0.8-1.1
	l0.8,0.4c-0.3,0.6-0.7,1.1-1.1,1.6c0.4,0.6,0.7,0.9,0.9,0.9c0.1,0,0.1,0,0.1-0.1c0.1-0.1,0.1-0.6,0.1-1.6l0.9,0.5
	c-0.1,0.9-0.3,1.5-0.4,1.8c-0.2,0.2-0.4,0.4-0.7,0.4c-0.5,0-1-0.4-1.5-1.3c0,0,0,0,0,0c-0.5,0.4-1.2,0.8-2.1,1.2l-0.5-0.8
	c0.8-0.3,1.5-0.7,2-1.1c0,0,0.1-0.1,0.1-0.1c-0.2-0.6-0.5-1.2-0.6-2h-1.7c0,0.2,0,0.3,0,0.4c0.5,0.4,1,0.8,1.5,1.2l-0.5,0.8
	c-0.4-0.4-0.8-0.8-1.1-1.1c-0.1,0.6-0.3,1.1-0.5,1.5c-0.2,0.4-0.6,0.9-1,1.3l-0.7-0.9c0.5-0.5,0.8-0.9,1-1.3
	c0.2-0.3,0.3-0.9,0.5-1.7c0-0.1,0-0.2,0-0.2h-1.1v-0.6L228,31c-0.3-0.5-0.5-1-0.7-1.3v5.8h-1v-5.2c-0.3,0.8-0.6,1.5-0.9,2.1
	l-0.4-1.2c0.5-0.9,1-2,1.3-3.2v-0.3h-1.2v-1L226.4,26.6L226.4,26.6z"/>
<path class="st0" d="M241.3,28.2h-1.2l0.6,0.2c-0.2,0.4-0.5,0.8-0.7,1.1c0.2,0,0.4,0,0.6-0.1c0.2-0.2,0.4-0.5,0.6-0.7L242,29
	c-0.6,0.7-1.3,1.4-1.9,1.9c0.3,0,0.6-0.1,0.9-0.1c0-0.2-0.1-0.3-0.1-0.4l0.7-0.1c0.1,0.5,0.2,1,0.4,1.5l-0.8,0.1
	c0-0.1,0-0.3-0.1-0.4c-0.6,0.1-1.4,0.2-2.4,0.3l-0.2-0.8c0.2,0,0.4,0,0.6,0c0.3-0.2,0.6-0.5,0.9-0.8c-0.4,0.1-0.9,0.1-1.4,0.2
	l-0.1-0.7c0.2,0,0.4,0,0.6-0.1c0.3-0.3,0.5-0.8,0.8-1.4h-2v7.2h-1V24.8h4.5L241.3,28.2L241.3,28.2z M240.4,26.1v-0.5h-2.5v0.5H240.4
	z M240.4,27.4v-0.6h-2.5v0.6H240.4z M239.5,32v0.7h1.1V32h0.8v1.3c0,0.5-0.2,0.9-0.6,1.2c-0.3,0.3-0.9,0.5-1.6,0.7l-0.4-0.8
	c0.7-0.1,1.2-0.3,1.4-0.4c0.2-0.1,0.3-0.3,0.4-0.5h-1.9V32H239.5z M246.7,24.8v9.4c0,0.4-0.1,0.7-0.3,0.9c-0.2,0.2-0.5,0.3-0.9,0.3
	h-0.8l-0.2-1.1l0.8,0c0.3,0,0.4-0.2,0.4-0.5v-5.7h-2.5l0.5,0.2c-0.2,0.4-0.5,0.8-0.8,1.2c0.3,0,0.5,0,0.8-0.1
	c0.1-0.2,0.3-0.4,0.4-0.6l0.9,0.3c-0.5,0.6-1,1.2-1.5,1.7c0.3,0,0.6-0.1,0.8-0.1c-0.1-0.1-0.1-0.3-0.1-0.4l0.6-0.2
	c0.2,0.5,0.4,0.9,0.6,1.3l-0.8,0.3c-0.1-0.1-0.1-0.3-0.1-0.4c-0.6,0.2-1.4,0.3-2.5,0.4l-0.2-0.8c0.2,0,0.4,0,0.6,0
	c0.3-0.3,0.5-0.5,0.7-0.8c-0.5,0.1-1,0.1-1.5,0.2l-0.1-0.7c0.2,0,0.3,0,0.5,0c0.3-0.4,0.6-0.9,0.8-1.4h-0.8v-3.4L246.7,24.8
	L246.7,24.8z M242.9,31.9v1h1V32h0.8v1.7h-1.9v1.5H242v-3.3L242.9,31.9L242.9,31.9z M245.6,26.1v-0.5h-2.6v0.5H245.6z M245.6,26.8
	h-2.6v0.6h2.6V26.8z"/>
<path class="st0" d="M250.8,24.7c-0.4,1.2-0.9,2.2-1.4,3c0.3,0,0.6-0.1,0.9-0.1c0.3-0.6,0.5-1.2,0.8-1.8l0.9,0.3
	c-0.8,1.9-1.6,3.4-2.5,4.6c0.6,0,1.2-0.1,1.6-0.2c-0.1-0.4-0.2-0.8-0.3-1.2l0.8-0.2c0.3,0.7,0.5,1.6,0.7,2.5l-0.8,0.2
	c0-0.2-0.1-0.3-0.1-0.5c-0.7,0.2-1.8,0.4-3.1,0.5l-0.3-1c0.2,0,0.4,0,0.6,0c0.4-0.6,0.9-1.3,1.3-2.2c-0.6,0.1-1.2,0.2-1.9,0.2
	l-0.2-1c0.2,0,0.4,0,0.6,0c0.5-1,1-2.2,1.4-3.4L250.8,24.7L250.8,24.7z M249.2,32.3c-0.1,1.2-0.2,2.2-0.4,3.1l-0.9-0.3
	c0.2-0.9,0.4-1.9,0.4-2.9L249.2,32.3z M250.6,34.9l-0.9,0.1c0-1.2-0.1-2.1-0.1-2.7l0.8-0.1C250.4,32.9,250.5,33.8,250.6,34.9
	L250.6,34.9z M252,33.8c0.2-0.7,0.4-1.4,0.6-2.2l0.9,0.2c-0.2,1.1-0.5,2.1-0.8,3l-0.9-0.3c0,0,0-0.1,0.1-0.1l-0.6,0.2
	c-0.1-0.8-0.2-1.6-0.4-2.3l0.8-0.2C251.7,32.5,251.9,33.1,252,33.8z M255.8,24.5c-0.1,0.3-0.3,0.6-0.5,0.8h2.7v5.4h-2.9
	c0.5,0.5,0.9,1,1.3,1.4l-0.7,0.7c-0.3-0.5-0.8-1.1-1.4-1.6l0.5-0.5h-2.6v-5.4h2c0.2-0.3,0.4-0.6,0.5-0.9L255.8,24.5L255.8,24.5z
	 M257,26.2h-3.8v3.6h1.3l-0.2-0.4c0.3-0.3,0.6-0.6,0.9-0.9c-0.1-0.1-0.3-0.2-0.4-0.3c-0.3,0.4-0.6,0.7-1.1,1.1l-0.4-0.8
	c0.3-0.3,0.6-0.6,0.8-0.8c-0.3-0.2-0.6-0.4-0.8-0.6l0.5-0.5c0.3,0.2,0.5,0.3,0.7,0.5c0.1-0.2,0.2-0.5,0.3-0.7h0.7
	c-0.2,0.5-0.3,0.9-0.4,1.1c0.1,0.1,0.3,0.2,0.4,0.3c0.2-0.3,0.3-0.7,0.5-1.1h0.8c-0.2,0.7-0.4,1.2-0.6,1.6v0
	c0.2,0.2,0.5,0.4,0.7,0.6l-0.6,0.6c-0.2-0.2-0.4-0.4-0.6-0.6c-0.2,0.3-0.4,0.5-0.6,0.8h1.9V26.2L257,26.2z M254.6,31.6v2.2
	c0,0.2,0.1,0.3,0.3,0.3h0.7c0.2,0,0.3,0,0.4-0.1c0.1-0.1,0.1-0.4,0.2-1l0.9,0.3c-0.1,0.9-0.2,1.4-0.4,1.5c-0.2,0.2-0.5,0.2-0.9,0.2
	h-1.2c-0.3,0-0.6-0.1-0.7-0.3c-0.2-0.2-0.3-0.4-0.3-0.7v-2.5L254.6,31.6L254.6,31.6z M258.5,34.1l-0.8,0.4c-0.3-1.1-0.7-2-1.1-2.9
	l0.9-0.3C257.8,32.2,258.2,33.1,258.5,34.1z"/>
<path class="st0" d="M261.8,28.8h1c0.3-0.6,0.5-1.3,0.7-2.1l1,0.3c-0.2,0.6-0.4,1.2-0.6,1.7h1.5v1.1h-6.1v-1.1h1.5
	c-0.2-0.5-0.4-1.1-0.7-1.7l1-0.4C261.3,27.3,261.6,28,261.8,28.8z M263,25.5h2.3v1h-5.8v-1h2.4c-0.2-0.4-0.4-0.7-0.6-1l1.1-0.1
	C262.6,24.7,262.8,25.1,263,25.5z M264.7,35.3h-1v-0.7h-2.9v0.7h-1v-4.5h4.9V35.3z M263.7,33.7v-1.9h-2.9v1.9H263.7z M269.7,24.9
	v0.9c-0.4,1.3-0.8,2.5-1.2,3.6c0.5,0.7,0.8,1.3,0.9,1.6c0.2,0.4,0.3,0.8,0.3,1.2c0,0.7-0.1,1.3-0.4,1.6c-0.2,0.4-0.9,0.5-1.9,0.5
	l-0.3-1.2c0.3,0.1,0.6,0.1,1,0.1c0.2,0,0.4-0.1,0.5-0.3c0.1-0.1,0.1-0.4,0.1-0.8c0-0.3-0.1-0.6-0.2-1c-0.2-0.4-0.5-1-1-1.9
	c0.5-1.2,0.9-2.3,1.2-3.4h-1.9v9.4h-1V24.9H269.7L269.7,24.9z"/>
<path class="st0" d="M277.2,25.5h4.1v1h-8.7v3.2c0,0.8-0.1,1.7-0.2,2.6c-0.2,1-0.4,1.9-0.8,2.8l-0.9-0.8c0.3-0.7,0.5-1.5,0.7-2.3
	c0.1-0.8,0.2-1.6,0.2-2.3v-4.3h4.4c-0.2-0.3-0.4-0.7-0.7-1l1.2-0.2C276.7,24.7,276.9,25.1,277.2,25.5L277.2,25.5z M276.3,31.8v-5.1
	h1v5.1h3.4v1h-3.4v1.3h3.8v1h-8.7v-1h3.8v-1.3h-3.2v-1H276.3z M275.1,27.3c-0.1,0.4-0.2,0.8-0.3,1.1c0.5,0.5,0.9,1.1,1.3,1.7l-0.6,1
	c-0.3-0.6-0.7-1.1-1-1.6c-0.2,0.6-0.6,1.2-1.1,1.8l-0.7-1c0.4-0.5,0.7-1,0.9-1.4c0.2-0.4,0.3-1,0.5-1.8L275.1,27.3L275.1,27.3z
	 M279.9,27.2c-0.1,0.6-0.2,1-0.3,1.4c0.5,0.5,1.1,1.1,1.6,1.7l-0.6,0.9c-0.6-0.8-1-1.3-1.4-1.8c-0.2,0.6-0.6,1.3-1.1,2l-0.7-0.9
	c0.4-0.5,0.7-1,0.9-1.6c0.2-0.5,0.3-1.1,0.5-1.9L279.9,27.2z"/>
<path class="st0" d="M284.8,32.4c-0.5,1-1.2,2-1.9,2.9l-0.8-0.9c0.8-0.8,1.4-1.8,2-2.8L284.8,32.4L284.8,32.4z M284.8,25.2v-0.8h1.1
	v0.8h1.3v1h-1.3v0.7h-1.1v-0.7h-2.6v-1H284.8z M284.7,30.1l-0.6,1c-0.6-0.5-1.2-1-1.8-1.3l0.5-0.9C283.5,29.3,284.2,29.7,284.7,30.1
	z M285.1,27.8l-0.6,0.9c-0.6-0.5-1.2-0.9-1.8-1.2l0.5-0.8C283.8,27,284.5,27.4,285.1,27.8L285.1,27.8z M288.8,26.7
	c-0.2,0.2-0.4,0.5-0.6,0.7h3.6v0.7c-0.7,0.7-1.4,1.4-2.1,1.8c0.8,0.3,1.7,0.6,2.9,0.8l-0.6,0.9c-1.5-0.3-2.6-0.7-3.4-1.1
	c-0.9,0.5-2.2,0.9-3.7,1.2l-0.5-1c1.2-0.2,2.3-0.5,3.2-0.8c-0.4-0.3-0.8-0.6-1.1-1c-0.3,0.3-0.7,0.5-1,0.7l-0.7-0.9
	c1.3-0.7,2.3-1.4,2.9-2.2L288.8,26.7L288.8,26.7z M291.7,35.3h-1v-0.6h-3.9v0.6h-1v-3.7h5.8V35.3z M290.7,33.8v-1.3h-3.9v1.3H290.7z
	 M288.7,29.4c0.5-0.3,1-0.7,1.6-1.2h-3c0,0,0,0.1-0.1,0.1C287.6,28.7,288.1,29.1,288.7,29.4L288.7,29.4z M288.9,25.2v-0.8h1.1v0.8
	h2.5v1H290v0.7h-1.1v-0.7h-1.3v-1H288.9z"/>
<path class="st0" d="M299.6,26.1h4v1c-0.9,1.5-1.7,2.6-2.6,3.4c-0.7,0.7-1.9,1.6-3.7,2.6c0.2,0.2,0.5,0.4,0.9,0.5
	c0.5,0.2,1.6,0.3,3.2,0.3c1.2,0,2,0,2.6-0.1l-0.2,1.3c-3.1,0-5-0.1-5.6-0.2c-0.6-0.1-1.1-0.4-1.5-0.7c-0.3-0.2-0.6-0.7-1-1.5
	c-0.3,0.8-0.7,1.6-1.3,2.4l-0.7-1.2c0.4-0.6,0.7-1.2,1-1.8c0.2-0.5,0.4-1.1,0.6-1.9h1.1c-0.1,0.4-0.2,0.8-0.2,1.1
	c0.1,0.3,0.3,0.6,0.4,0.8c1-0.5,2.1-1.2,3.1-1.9c0.6-0.6,1.5-1.6,2.6-3h-7.8v-1.1h3.8c-0.4-0.5-0.8-1.1-1.3-1.6l1.4-0.2
	C298.8,24.9,299.2,25.5,299.6,26.1L299.6,26.1z"/>
<path class="st0" d="M310.3,24.3v0.5h4.4v0.9h-4.4v0.6h5c-0.2,0.8-0.5,1.5-0.9,2.3l-1.1-0.3c0.2-0.3,0.5-0.7,0.6-1.1h-4v0.6l2.9-0.1
	l0.1,0.8l-3,0.1V29c0,0.2,0.1,0.3,0.4,0.3h3.8v0.8h-4c-0.4,0-0.7-0.1-0.9-0.2c-0.2-0.1-0.3-0.3-0.3-0.6v-0.5l-1.4,0.1l-0.1-0.9
	l1.5-0.1v-0.6h-2v2.4c0,0.9-0.1,1.8-0.2,2.7c-0.2,1-0.4,1.9-0.8,2.9l-0.9-0.8c0.3-0.8,0.6-1.5,0.7-2.4c0.1-0.8,0.2-1.6,0.2-2.4v-3.3
	h3.4v-2L310.3,24.3L310.3,24.3z M309.2,30.2c-0.1,0.1-0.1,0.3-0.2,0.4h1.8v0.7c-0.2,0.9-0.5,1.7-1,2.4c0,0,0.1,0.1,0.1,0.1
	c0.6,0.3,1.6,0.5,3.1,0.5c0.9,0,1.7,0,2.4,0l-0.3,1c-3.1,0-5-0.2-5.6-0.5c-0.2-0.1-0.3-0.2-0.5-0.3c-0.5,0.4-1.1,0.7-1.8,1l-0.5-0.8
	c0.7-0.2,1.3-0.5,1.7-0.9c-0.2-0.3-0.4-0.7-0.6-1.1c-0.2,0.3-0.5,0.5-0.7,0.8l-0.5-0.8c0.3-0.3,0.7-0.7,1-1.2
	c0.2-0.4,0.5-0.9,0.7-1.6L309.2,30.2L309.2,30.2z M309.1,33.1c0.3-0.5,0.6-1,0.8-1.7h-1.2c-0.1,0.2-0.2,0.4-0.3,0.5
	C308.6,32.4,308.8,32.8,309.1,33.1z M314,32.4c0,0.2,0.1,0.3,0.3,0.3h0.8v0.8h-1c-0.4,0-0.6-0.1-0.8-0.2c-0.2-0.1-0.3-0.4-0.3-0.8
	v-1h-0.7c0,0.6-0.1,1-0.2,1.2c-0.1,0.3-0.4,0.7-0.9,1.2l-0.7-0.7c0.4-0.4,0.6-0.7,0.7-1c0.1-0.2,0.1-0.8,0.1-1.7h2.5L314,32.4
	L314,32.4z"/>
<path class="st0" d="M81.6,56v1.1H77V58h3.7v4.8h-3.9c-0.2,0.7-0.4,1.2-0.7,1.7c0.3,0.1,0.7,0.3,1,0.4c0.9,0.3,2.5,0.5,4.6,0.6
	l-0.3,1.1c-2-0.1-3.5-0.4-4.6-0.7c-0.5-0.1-1-0.3-1.4-0.5c-0.8,0.7-2,1.1-3.7,1.3l-0.5-1.1c1.4-0.1,2.5-0.3,3.2-0.8
	c-0.6-0.3-1.2-0.7-1.7-1.1l0.8-0.6c0.6,0.4,1.1,0.7,1.7,1c0.2-0.3,0.4-0.8,0.6-1.2h-3.4V58H76v-0.9h-4.5V56H81.6z M76,59.9V59h-2.6
	v0.9H76z M75.9,60.9h-2.6v1h2.6C75.9,61.5,75.9,61.2,75.9,60.9z M79.6,60.9H77c0,0.4,0,0.7-0.1,1h2.6L79.6,60.9L79.6,60.9z M77,59.9
	h2.6V59H77V59.9z"/>
<path class="st0" d="M84.6,62.3c-0.2,1.1-0.5,2.1-0.9,2.9l-1-0.4c0.3-0.7,0.6-1.7,0.9-2.8L84.6,62.3z M86.1,56.7h2v1h-5.3v-1H85
	c-0.2-0.3-0.3-0.7-0.5-1l1.1-0.1C85.7,56,85.9,56.3,86.1,56.7L86.1,56.7z M87.6,58.5v3.2h-1.6v3.6c0,0.4-0.1,0.7-0.3,0.9
	c-0.2,0.2-0.5,0.3-0.9,0.3h-0.7L84,65.3c0.2,0.1,0.4,0.1,0.6,0.1c0.3,0,0.4-0.1,0.4-0.3v-3.4h-1.8v-3.2L87.6,58.5L87.6,58.5z
	 M86.6,59.4h-2.4v1.3h2.4V59.4z M87.9,64.2l-1,0.4c-0.1-0.7-0.2-1.5-0.4-2.2l0.8-0.2C87.6,62.9,87.8,63.6,87.9,64.2L87.9,64.2z
	 M89.3,58.3v-2.7h1v2.7H93v1h-2.8c-0.1,1.4-0.2,2.5-0.5,3.5c-0.3,1.3-1,2.5-1.9,3.8L87,65.8c0.8-1,1.5-2.1,1.8-3.3
	c0.2-0.7,0.4-1.8,0.4-3.1h-1.4v-1L89.3,58.3L89.3,58.3z M91.4,60.5V65c0,0.2,0.1,0.3,0.3,0.3c0.3,0,0.4-0.1,0.4-0.4v-1.8l0.9,0.4
	c0,1.3-0.1,2.2-0.3,2.5c-0.2,0.2-0.5,0.4-1.1,0.4c-0.5,0-0.8-0.1-1-0.3c-0.2-0.2-0.3-0.4-0.3-0.8v-4.8H91.4z M92.9,57.4L92,58
	c-0.3-0.5-0.7-1-1.1-1.5l0.8-0.5C92.1,56.5,92.6,57,92.9,57.4L92.9,57.4z"/>
<path class="st0" d="M97.1,58.4v0.8c-0.4,0.7-0.9,1.3-1.5,2.1h1.4V62c-0.2,0.9-0.4,1.5-0.6,1.9c0.4,0.5,0.8,0.8,1.1,0.9
	c0.2,0.1,0.6,0.2,1.1,0.3c0.5,0.1,1.6,0.1,3.2,0.1c1.2,0,2.1,0,2.6-0.1l-0.1,1.1c-3.1,0-5,0-5.7-0.1c-0.6-0.1-1.1-0.2-1.5-0.4
	c-0.3-0.2-0.7-0.5-1.1-1c-0.3,0.6-0.8,1.2-1.3,1.8L94,65.7c0.6-0.6,1.1-1.2,1.3-1.6c0.2-0.3,0.4-0.9,0.7-1.8h-1.7v-0.9
	c0.5-0.5,1-1.2,1.5-2h-1.8v-0.9L97.1,58.4L97.1,58.4z M97,57.2l-0.8,0.9c-0.3-0.5-0.8-1.1-1.5-1.8l0.8-0.8
	C96,56.1,96.5,56.7,97,57.2L97,57.2z M103.9,56.6c-1.4,0.3-2.9,0.5-4.6,0.5v1.6h5v1h-2v5h-1.1v-5h-2v0c0,0.8-0.1,1.6-0.3,2.5
	c-0.2,0.7-0.5,1.5-0.8,2.1l-0.8-0.9c0.3-0.5,0.5-1.1,0.6-1.6c0.1-0.6,0.2-1.3,0.2-2.1v-3.7c2,0,3.7-0.2,5.1-0.7L103.9,56.6
	L103.9,56.6z"/>
<path class="st0" d="M114.6,66.6h-1.1v-0.9h-5.7v0.8h-1.1V56h7.9V66.6z M113.5,60.1v-3h-5.7v3H113.5z M113.5,64.6v-3.3h-5.7v3.3
	H113.5z"/>
<path class="st0" d="M121.4,57.5v-1.9h1.2v1.9h4.5v1.2h-3.4c0.4,0.9,0.9,1.7,1.4,2.4c0.6,0.8,1.4,1.6,2.4,2.5l-0.8,1
	c-1.1-1-2-2-2.6-3c-0.6-0.8-1-1.8-1.4-2.9h0v4.7h2.6v1.1h-2.6v2.1h-1.1v-2.1H119v-1.1h2.4v-4.7h-0.1c-0.3,1-0.7,1.9-1,2.5
	c-0.6,1.2-1.6,2.4-2.9,3.7l-0.6-1.1c1-0.9,1.8-1.8,2.3-2.7c0.4-0.6,0.8-1.4,1.2-2.3h-3.2v-1.2H121.4L121.4,57.5z"/>
<path class="st0" d="M138.2,61.7v1H134v0.8h4v0.9h-4v0.8h4.6v1h-10.3v-1h4.5v-0.8h-4v-0.9h4v-0.8h-4.2v-1H138.2z M134.1,55.7
	c-0.1,0.3-0.2,0.6-0.2,0.9h4V61h-8.7v-4.4h3.5c0.1-0.3,0.2-0.7,0.2-1L134.1,55.7L134.1,55.7z M136.8,58.3v-0.7h-6.6v0.7H136.8z
	 M136.8,59.2h-6.6V60h6.6V59.2z"/>
<path class="st0" d="M146.3,60.4h3.6v1h-3.6v1.2h3.2v4h-1.1V66h-5.1v0.5h-1.1v-4h3.1v-1.2h-3.6c-0.1,0.6-0.1,1.2-0.2,1.8
	c-0.2,1.2-0.5,2.3-1,3.4l-0.9-0.8c0.4-0.9,0.7-1.9,0.9-2.9c0.1-1,0.2-2,0.2-2.9V56h8.9V59h-3.3L146.3,60.4L146.3,60.4z M141.7,59.9
	c0,0.2,0,0.3,0,0.5h3.5V59h-3.5V59.9z M141.7,57v1h6.8v-1H141.7z M148.4,65v-1.5h-5.1V65H148.4z"/>
<path class="st0" d="M156.7,62.3c-0.2,0.2-0.5,0.5-0.9,0.8l-0.4-0.6c0.5-0.3,0.8-0.6,0.9-1.1h-0.7V60h1.4v1.2
	C157,61.6,156.9,62,156.7,62.3z"/>
<path class="st0" d="M172.7,56.9h-8.6v2.6l0.5-0.5c0.5,0.4,1,0.8,1.3,1.3l-0.7,0.8c-0.3-0.4-0.7-0.8-1.2-1.2v5.3h8.6v1h-8.6v0.5h-1
	V56h9.6V56.9L172.7,56.9z M166.6,62.4c-0.5,1-1.1,1.8-1.8,2.4l-0.6-1c0.7-0.5,1.3-1.3,2-2.3L166.6,62.4z M166.7,58.5l-0.7,0.7
	c-0.3-0.4-0.7-0.9-1.3-1.4l0.7-0.7C165.9,57.6,166.3,58.1,166.7,58.5L166.7,58.5z M168.8,57.3c-0.1,0.4-0.3,0.7-0.4,1.1h1.5
	c-0.2-0.3-0.3-0.7-0.5-1l1-0.1c0.2,0.3,0.3,0.7,0.5,1.1h1.7v0.8h-1.9v0.9h1.7v0.8h-1.7v0.9h1.7v0.8h-1.7v1h2v0.8h-5.4v-3.8
	c-0.2,0.3-0.4,0.6-0.6,0.8l-0.7-0.9c0.9-1,1.5-2.2,2-3.5L168.8,57.3L168.8,57.3z M169.6,59.2h-1.6v0.9h1.6V59.2z M169.6,60.9h-1.6
	v0.9h1.6V60.9z M169.6,62.7h-1.6v1h1.6V62.7z"/>
<path class="st0" d="M176.9,63c-0.1,0.4-0.2,0.7-0.4,1c0.6,0.4,1.1,0.8,1.6,1.3l-0.5,0.9c-0.5-0.6-1-1-1.5-1.4c-0.4,0.5-1,1-1.8,1.4
	l-0.5-1c0.6-0.3,1-0.6,1.4-1c0.3-0.3,0.5-0.7,0.7-1.4L176.9,63L176.9,63z M179.3,56v0.9h-0.5v4.6h-0.9v-0.7
	c-1.2,0.1-2.5,0.2-3.9,0.3l-0.1-0.9c0.2,0,0.4,0,0.7,0v-3.3h-0.4v-0.9L179.3,56L179.3,56z M183.7,62.1c-1.2,0.2-2.6,0.4-4.2,0.5v4
	h-1.1v-3.9c-1.2,0.1-2.6,0.1-4.1,0.1l-0.3-0.9c3.6,0,6.6-0.2,9.1-0.6L183.7,62.1z M177.9,57.4v-0.5h-2.4v0.5H177.9z M177.9,58.7
	v-0.6h-2.4v0.6H177.9z M177.9,60v-0.5h-2.4v0.7C176.2,60.1,177,60.1,177.9,60z M183.8,56.2V57c-0.3,1-0.7,1.7-1.2,2.3
	c-0.1,0.1-0.2,0.2-0.2,0.3c0.5,0.3,1.2,0.6,1.9,0.8l-0.6,0.9c-0.9-0.3-1.6-0.7-2.2-1c-0.6,0.4-1.3,0.8-2.1,1.2l-0.4-1.1
	c0.7-0.2,1.2-0.5,1.7-0.8c-0.6-0.5-1-1.1-1.4-1.8l0.8-0.5c0.4,0.7,0.8,1.3,1.3,1.7c0.1,0,0.1-0.1,0.1-0.1c0.3-0.3,0.7-0.9,1-1.7
	h-3.3v-0.9H183.8z M182.5,62.7c-0.1,0.4-0.2,0.8-0.3,1.1c0.8,0.5,1.5,1,2.1,1.6l-0.6,0.9c-0.6-0.7-1.3-1.2-1.9-1.6v0
	c-0.3,0.5-0.8,1.1-1.5,1.6l-0.5-1c0.5-0.3,0.9-0.7,1.1-1.1c0.2-0.3,0.4-0.8,0.6-1.6L182.5,62.7L182.5,62.7z"/>
<path class="st0" d="M188.7,59c-0.3,0.5-0.6,0.9-0.8,1.3v6.2h-1v-4.9c-0.3,0.3-0.6,0.7-0.9,1l-0.7-1c1-0.9,1.9-2,2.8-3.3L188.7,59z
	 M188.5,56.1c-0.7,1-1.6,1.8-2.6,2.6l-0.7-0.9c0.9-0.6,1.8-1.4,2.5-2.3L188.5,56.1z M195.7,59.3v1H194v5c0,0.4-0.1,0.7-0.3,0.9
	c-0.2,0.2-0.5,0.3-1,0.3h-1.9l-0.2-1.1c0.7,0.1,1.3,0.1,1.8,0.1c0.3,0,0.4-0.1,0.4-0.3v-4.8h-4.1v-1L195.7,59.3L195.7,59.3z
	 M195.1,56.1v1.1h-5.7v-1.1H195.1z"/>
<path class="st0" d="M202,56.3v1h-1.8v2.6h1c0.3-0.5,0.6-1.1,0.9-1.8c0.2-0.6,0.5-1.4,0.7-2.5l1.1,0.1c-0.1,0.6-0.2,1.2-0.4,1.6h3.6
	v1.1h-0.9c-0.1,2-0.5,3.6-1.2,4.9c-0.1,0.1-0.1,0.2-0.2,0.3c0.5,0.6,1.3,1.3,2.3,2l-0.6,1.1c-1-0.7-1.8-1.4-2.4-2.1
	c-0.6,0.7-1.5,1.4-2.5,2.1l-0.6-1c1.1-0.6,1.9-1.2,2.5-2c-0.5-0.9-0.9-2-1.2-3.4c-0.2,0.4-0.4,0.7-0.7,1l-0.2-0.3h-1.2v2.9
	c0.6-0.2,1.1-0.4,1.6-0.6v1.1c-1.4,0.7-3,1.2-4.8,1.8l-0.3-1.1c0.2-0.1,0.4-0.1,0.6-0.2v-6h1v5.7c0.3-0.1,0.6-0.2,0.9-0.3v-6.9h-2.4
	v-1H202L202,56.3z M204.2,62.6c0.6-1,0.9-2.4,1-4.2h-2.1c0,0.1-0.1,0.2-0.1,0.3v0C203.3,60.5,203.7,61.8,204.2,62.6z"/>
<path class="st0" d="M214.1,62.7c-0.2-0.4-0.6-0.8-1-1.4c-0.3-0.3-0.7-0.7-1.3-1.2l0.7-0.6c0.4,0.3,0.8,0.7,1.3,1.2
	c0.3,0.3,0.7,0.8,1.1,1.4L214.1,62.7L214.1,62.7z"/>
<path class="st0" d="M223.2,56.5c-0.4,1.2-0.8,2.1-1.1,2.6c-0.3,0.6-0.8,1.3-1.5,2.1l-0.9-0.8c0.6-0.7,1.1-1.3,1.5-1.9
	c0.3-0.7,0.6-1.4,0.9-2.4L223.2,56.5L223.2,56.5z M224.9,59.7c-0.7,2-1.5,3.7-2.2,4.9c1.7-0.1,3.2-0.2,4.5-0.3
	c-0.3-0.8-0.7-1.6-1.1-2.4l1.1-0.4c0.8,1.4,1.5,2.9,2.1,4.6l-1.2,0.3c-0.1-0.4-0.3-0.8-0.4-1.2c-1.5,0.2-4,0.4-7.3,0.6l-0.2-1.2
	c0.4,0,0.9,0,1.3,0c0.8-1.3,1.5-3.1,2.3-5.5L224.9,59.7L224.9,59.7z M227.4,55.8c0.4,1.5,1.3,2.9,2.6,4.2l-0.8,1.1
	c-0.7-0.6-1.2-1.3-1.6-1.9c-0.5-0.7-0.9-1.5-1.1-2.4h-2.3v-1H227.4L227.4,55.8z"/>
<path class="st0" d="M241,66.5h-1V66h-7.8v0.4h-1V55.9h9.8V66.5z M240,65.1v-8.3h-7.8v8.3H240z M239.1,60.2v2.2H236
	c-0.1,0.1-0.1,0.1-0.1,0.2v2.3h-0.9v-1.4c-0.6,0.4-1.3,0.8-2,1.1l-0.5-0.8c0.8-0.2,1.4-0.5,1.8-0.8c0.2-0.2,0.5-0.3,0.6-0.5h-1.6
	v-2.2H239.1z M235.5,57.5v-0.5h0.9v0.5h2.7v0.7h-2.7v0.6h3.2v0.8h-7.2v-0.8h3v-0.6h-2.5v-0.7H235.5L235.5,57.5z M238.2,60.9h-4.1
	v0.7h4.1V60.9z M237.7,63.1c0.2-0.2,0.4-0.5,0.5-0.7l0.8,0.5c-0.1,0.2-0.3,0.4-0.5,0.6c0.4,0.2,0.8,0.4,1.1,0.6l-0.5,0.8
	c-1-0.7-2-1.2-3.1-1.6l0.4-0.7C236.9,62.8,237.3,63,237.7,63.1L237.7,63.1z"/>
<path class="st0" d="M248.2,62.7c-0.2-0.4-0.6-0.8-1-1.4c-0.3-0.3-0.7-0.7-1.3-1.2l0.7-0.6c0.4,0.3,0.8,0.7,1.3,1.2
	c0.3,0.3,0.7,0.8,1.1,1.4L248.2,62.7L248.2,62.7z"/>
<path class="st0" d="M255,58.7v-3h1.1v3h1.2v1.1h-1.2v3.6c0.4-0.2,0.8-0.4,1.2-0.6v1.2c-1,0.5-2.1,1-3.3,1.3l-0.1-1.3
	c0.4-0.1,0.8-0.1,1.2-0.3v-4h-1.2v-1.1H255z M263.8,61.5c0,0.5-0.1,0.9-0.3,1.2c-0.2,0.3-0.7,0.4-1.5,0.4l-0.4-1.1h0.7
	c0.2,0,0.4-0.1,0.4-0.2c0-0.1,0.1-0.3,0.1-0.6V59l-1.4,0.6v4.5h-1V60l-1.2,0.5v4.2c0,0.3,0.1,0.4,0.4,0.4h3c0.2,0,0.4-0.1,0.5-0.1
	c0.1-0.1,0.2-0.6,0.2-1.4l1,0.3c-0.1,1.1-0.3,1.8-0.5,2c-0.2,0.2-0.6,0.3-1.1,0.3h-3.5c-0.3,0-0.6-0.1-0.8-0.3
	c-0.2-0.2-0.3-0.5-0.3-0.8V61l-0.9,0.4v-1.1l0.9-0.4v-3h1.1v2.5l1.2-0.5v-3.2h1v2.8l2.5-1C263.9,60.2,263.8,61.5,263.8,61.5
	L263.8,61.5z"/>
<path class="st0" d="M267.7,55.6c0.5,0.6,0.9,1.3,1.2,2l-0.7,0.7c-0.3-0.7-0.6-1.3-0.8-1.6c-0.4,0.6-0.8,1.2-1.2,1.8h2.3v0.9h-0.8v1
	h1.2v0.9h-1.2v3.4c0.4-0.1,0.7-0.2,1.1-0.4v1c-1,0.4-2.2,0.7-3.4,0.9l-0.1-1c0.5,0,1.1-0.1,1.6-0.2v-3.6h-1.4v-0.9h1.4v-1h-0.9v-0.5
	c-0.1,0.2-0.2,0.3-0.4,0.4l-0.3-1.1c0.6-0.7,1.2-1.6,1.7-2.6L267.7,55.6L267.7,55.6z M266.4,64.3l-0.8,0.2c-0.1-0.8-0.2-1.6-0.3-2.3
	l0.7-0.2C266.2,62.7,266.3,63.5,266.4,64.3z M268.6,62c0,0.7-0.1,1.4-0.2,2.1l-0.7-0.2c0.1-0.7,0.2-1.3,0.2-2L268.6,62z M270.2,56.5
	v-0.8h0.9v0.8h1.3v0.8h-1.3V58h1.5c0-0.8,0-1.6,0-2.5h0.9c0,0.9,0,1.7,0,2.5h2v0.9h-1.9c0,1.5,0.1,2.6,0.1,3.5
	c0.3-0.8,0.6-1.9,0.8-3.2l0.8,0.1c-0.3,1.6-0.7,2.8-1.1,3.7c-0.1,0.3-0.3,0.6-0.4,1c0,0,0,0.1,0,0.1c0.2,0.7,0.3,1.1,0.5,1.1
	c0.2,0,0.4-0.5,0.5-1.6l0.7,0.6c-0.2,1-0.4,1.6-0.6,1.8c-0.2,0.2-0.4,0.3-0.6,0.3c-0.3,0-0.5-0.1-0.7-0.4c-0.2-0.3-0.3-0.6-0.5-1
	c-0.3,0.5-0.7,1-1.1,1.4l-0.6-0.8c0.1-0.2,0.2-0.3,0.4-0.4c-0.8,0.2-1.8,0.5-2.9,0.7l-0.2-0.9c0.4,0,0.8-0.1,1.2-0.2V64h-1v-0.8h1
	v-0.7h-1.2v-0.8h3.2v0.8H271v0.7h1.1V64H271v0.7c0.4-0.1,0.8-0.2,1.2-0.3v0.5c0.3-0.4,0.5-0.7,0.7-1.1c-0.2-1-0.3-2.7-0.3-5h-3.9V58
	h1.5v-0.7H269v-0.8L270.2,56.5L270.2,56.5z M272.2,59.4v2H269v-2H272.2z M271.4,60h-1.6v0.6h1.6V60z M275.4,57.3l-0.8,0.6
	c-0.2-0.4-0.5-0.9-0.9-1.5l0.7-0.4C274.8,56.4,275.1,56.9,275.4,57.3z"/>
<path class="st0" d="M282.5,62.7c-0.2-0.4-0.6-0.8-1-1.4c-0.3-0.3-0.7-0.7-1.3-1.2l0.7-0.6c0.4,0.3,0.8,0.7,1.3,1.2
	c0.3,0.3,0.7,0.8,1.1,1.4L282.5,62.7L282.5,62.7z"/>
<path class="st0" d="M293.8,56.4h4.3v1h-10v-1h4.6c-0.2-0.2-0.3-0.4-0.5-0.7l1.1-0.1C293.4,55.8,293.6,56.1,293.8,56.4z M297.8,65.4
	c0,0.4-0.1,0.7-0.3,0.9c-0.2,0.2-0.4,0.3-0.7,0.3h-1.2l-0.2-1.1l1,0.1c0.2,0,0.3-0.2,0.3-0.5v-3h-7.3v4.5h-1.1v-5.4h9.5L297.8,65.4
	L297.8,65.4z M296.7,57.9v2.6h-7.2v-2.6H296.7z M295.7,62.7v2.7h-5.3v-2.7H295.7z M295.6,58.8h-5.1v0.8h5.1V58.8z M294.7,63.6h-3.2
	v0.9h3.2V63.6z"/>
<path class="st0" d="M302.2,58.4v0.8c-0.4,0.7-0.8,1.4-1.4,2.1h1.4V62c-0.2,0.8-0.3,1.4-0.5,1.8c0.4,0.5,0.8,0.8,1,0.9
	c0.2,0.2,0.6,0.3,1.1,0.3c0.5,0.1,1.6,0.1,3.3,0.2c1.2,0,2.1,0,2.7-0.1l-0.1,1.1c-3.2,0-5.1-0.1-5.8-0.1c-0.6-0.1-1.1-0.2-1.5-0.4
	c-0.3-0.2-0.7-0.5-1.1-1c-0.3,0.6-0.7,1.2-1.2,1.8l-0.8-0.9c0.6-0.6,1-1.2,1.2-1.6c0.2-0.3,0.4-0.9,0.7-1.7h-1.6v-0.9
	c0.5-0.5,0.9-1.2,1.4-2h-1.7v-1L302.2,58.4L302.2,58.4z M301.8,57.3l-0.7,0.8c-0.3-0.5-0.7-1.1-1.2-1.7l0.7-0.7
	C301.1,56.2,301.5,56.8,301.8,57.3z M305.4,56.5v-0.9h1v0.9h2.9v1h-2.9v0.7h2.5v3.1h-2.5v0.2c1.1,0.5,2.1,1.1,3.1,1.7l-0.6,0.9
	c-0.8-0.6-1.6-1.2-2.5-1.6v2.2h-1v-2.3c-0.2,0.2-0.5,0.4-0.7,0.6c-0.5,0.4-1.2,0.8-2,1.2l-0.5-0.9c0.8-0.3,1.5-0.7,2.1-1.1
	c0.4-0.2,0.7-0.5,1-0.9h-2.4v-3.1h2.5v-0.7h-2.8v-1H305.4L305.4,56.5z M305.4,59.1h-1.6v1.3h1.6V59.1z M308,59.1h-1.6v1.3h1.6V59.1z
	"/>
<path class="st0" d="M314.4,56.5c-0.4,1.2-0.8,2.1-1.1,2.6c-0.3,0.6-0.8,1.3-1.5,2.1l-0.9-0.8c0.6-0.7,1.1-1.3,1.5-1.9
	c0.3-0.7,0.6-1.4,0.9-2.4L314.4,56.5z M316.1,59.7c-0.7,2-1.5,3.7-2.2,4.9c1.7-0.1,3.2-0.2,4.5-0.3c-0.3-0.8-0.7-1.6-1.1-2.4
	l1.1-0.4c0.8,1.4,1.5,2.9,2.1,4.6l-1.2,0.3c-0.1-0.4-0.3-0.8-0.4-1.2c-1.5,0.2-4,0.4-7.3,0.6l-0.2-1.2c0.4,0,0.9,0,1.3,0
	c0.8-1.3,1.5-3.1,2.3-5.5L316.1,59.7L316.1,59.7z M318.6,55.8c0.4,1.5,1.3,2.9,2.6,4.2l-0.8,1.1c-0.7-0.6-1.2-1.3-1.6-1.9
	c-0.5-0.7-0.9-1.5-1.1-2.4h-2.3v-1H318.6L318.6,55.8z"/>
<path class="st0" d="M326.2,56v2c0.5-0.3,0.9-0.6,1.2-1c0.3-0.3,0.6-0.8,0.9-1.4l1.1,0.1c-0.1,0.3-0.3,0.6-0.4,0.8h3v0.8
	c-0.6,1-1.2,1.7-1.8,2.3c0.6,0.4,1.5,0.8,2.5,1.2l-0.4,1c-1.2-0.5-2.1-1-2.8-1.5c-0.8,0.6-1.8,1.1-3.1,1.5l-0.1-0.2v0.9H325v2
	c0.5-0.1,0.9-0.3,1.3-0.4v1c-1.2,0.5-2.6,0.9-4.2,1.3l-0.3-1c0.2,0,0.4-0.1,0.6-0.1v-4.6h0.8V65c0.2-0.1,0.5-0.1,0.7-0.2v-5h-1.5V56
	L326.2,56L326.2,56z M325.2,56.9h-1.7v2h1.7V56.9z M325.8,60.9c1.1-0.3,2-0.7,2.8-1.2c-0.4-0.3-0.7-0.8-1.1-1.3
	c-0.3,0.2-0.5,0.4-0.9,0.6l-0.4-0.6v1.4H325v1.6h1.1L325.8,60.9z M331.8,66.5h-1v-0.5h-2.9v0.5h-1v-4.6h4.9L331.8,66.5L331.8,66.5z
	 M330.8,65v-2h-2.9v2H330.8z M329.3,59.1c0.4-0.4,0.9-0.9,1.3-1.5h-2.4c-0.1,0.1-0.1,0.1-0.2,0.2C328.5,58.3,328.9,58.8,329.3,59.1z
	"/>
<path class="st0" d="M136.4,88.5h1.1v1c-0.4,1-0.8,1.8-1.2,2.4c0.1,0.1,0.1,0.1,0.2,0.2c0.3-0.2,0.6-0.6,0.8-1.1l0.7,0.7
	c-0.3,0.4-0.6,0.8-0.9,1c0.3,0.3,0.5,0.6,0.8,0.9l-0.5,0.9c-0.4-0.6-0.8-1-1.1-1.5v4.7h-1v-4.4c-0.3,0.4-0.7,0.7-1,1.1l-0.3-1.1
	c0.6-0.6,1.1-1.1,1.4-1.6c0.4-0.4,0.8-1.2,1.2-2.2h-2.4v-1h1.3c-0.2-0.6-0.4-1.1-0.7-1.6l1-0.1C136,87.2,136.2,87.8,136.4,88.5
	L136.4,88.5z M140.7,88v-1.3h1V88h2.5c-0.1,0.9-0.3,1.8-0.7,2.7l-1-0.3c0.2-0.4,0.4-0.9,0.5-1.5h-1.4v2.2h1.9v0.7
	c-0.2,1.2-0.6,2.3-1.2,3.2c-0.1,0.1-0.1,0.1-0.1,0.2c0.6,0.6,1.3,1.1,2.1,1.5l-0.5,1c-0.9-0.5-1.7-1.1-2.3-1.7
	c-0.7,0.6-1.5,1.2-2.6,1.7l-0.5-1c1-0.4,1.8-0.9,2.4-1.4c-0.1,0-0.1-0.1-0.1-0.1c-0.6-0.9-1.1-1.9-1.3-3.1h-0.2
	c-0.1,0.7-0.2,1.5-0.3,2.2c-0.3,1.1-0.8,2.2-1.5,3.3l-0.8-0.8c0.7-0.9,1.2-1.8,1.4-2.8c0.2-1,0.3-1.9,0.3-2.8V88L140.7,88L140.7,88z
	 M140.7,91.2V89h-1.4v2.2H140.7z M141.6,94.6c0.4-0.6,0.8-1.4,1.1-2.5h-2.2C140.8,93.1,141.1,93.9,141.6,94.6z"/>
<path class="st0" d="M148.8,87.6c-0.4,0.1-1.1,0.2-1.9,0.3v0.3h1.8v0.6h-1.8v0.5h1.8v0.6H147v0.5h2.2v-1.1h0.9v1.1h0.8v-1.4h-1.6
	v-2.2h0.9v0.4h1.8v0.7h-1.8v0.5h1.6v2.1h2.3l0-0.6h-1.7v-0.6h1.7l0-0.5h-1.7v-0.6h1.8l0-0.4h-1.8v-0.7h2.8l-0.1,3.3h0.8v0.8h-2.2
	c0.2,0.2,0.4,0.4,0.7,0.6c0.4,0.3,0.9,0.5,1.6,0.8l-0.6,0.8c-0.4-0.2-0.8-0.5-1.1-0.7h-7.1c-0.4,0.3-0.8,0.5-1.3,0.8l-0.5-0.9
	c0.7-0.3,1.3-0.6,1.7-0.9c0.2-0.2,0.4-0.3,0.7-0.6h-2.3v-0.8h0.7l-0.1-3.1c0.8,0,1.7-0.2,2.6-0.4L148.8,87.6L148.8,87.6z
	 M154.6,97.8h-1v-0.3h-6.1v0.3h-1v-2.2h8.1L154.6,97.8L154.6,97.8z M154.5,93.2v0.7h-7.8v-0.7H154.5z M154.5,94.3V95h-7.8v-0.7
	H154.5z M153.6,96.8v-0.7h-6.1v0.7H153.6z M150.2,92c-0.1-0.2-0.3-0.4-0.4-0.6l1-0.1c0.1,0.2,0.3,0.5,0.4,0.7h2.1
	c-0.2-0.2-0.5-0.5-0.7-0.8h-4.1c-0.2,0.4-0.4,0.6-0.6,0.8H150.2L150.2,92z"/>
<path class="st0" d="M158.5,88.4c-0.1-0.4-0.3-0.8-0.5-1.2l1-0.1c0.2,0.4,0.3,0.9,0.4,1.3h0.8c0.1-0.5,0.2-1.1,0.3-1.6l1,0.1
	c-0.1,0.5-0.2,1-0.3,1.5h4.5c-0.1,0.8-0.2,1.5-0.3,2.1h1.1c-0.1,0.8-0.2,1.5-0.3,2.1h0.9c0,2.7-0.3,4.2-0.7,4.6
	c-0.2,0.3-1,0.5-2.3,0.5l-0.2-1.2c0.3,0.1,0.6,0.1,0.9,0.1c0.4,0,0.8-0.1,1-0.3c0.2-0.2,0.3-1.1,0.4-2.8h-6.9c-0.5,0.8-1,1.4-1.6,2
	l-0.9-0.7c1.5-1.5,2.6-3.3,3.3-5.4h-2.7v-1L158.5,88.4L158.5,88.4z M160,94.6c-0.3,1.2-0.7,2.2-1.2,3l-0.9-0.6
	c0.6-0.8,0.9-1.7,1.2-2.6L160,94.6z M159.8,92.6h5.4c0.1-0.3,0.1-0.7,0.2-1.1h-5C160.1,91.9,160,92.3,159.8,92.6z M161.8,97.4
	l-1.1,0.1c0-1.3-0.1-2.3-0.2-3l0.9-0.1C161.5,95.2,161.7,96.2,161.8,97.4L161.8,97.4z M160.7,90.5h3.7c0.1-0.3,0.1-0.7,0.2-1.1H161
	C160.9,89.8,160.8,90.2,160.7,90.5z M163.7,96.6l-1,0.2c-0.2-0.8-0.4-1.6-0.6-2.3l0.9-0.3C163.2,94.9,163.5,95.7,163.7,96.6z
	 M165.3,95.8l-0.9,0.3c-0.2-0.7-0.4-1.3-0.6-2l0.8-0.2C164.9,94.7,165.1,95.3,165.3,95.8L165.3,95.8z"/>
<path class="st0" d="M173.8,93.5c-0.2,0.2-0.5,0.5-0.9,0.8l-0.4-0.6c0.5-0.3,0.8-0.6,0.9-1.1h-0.7v-1.5h1.4v1.2
	C174.1,92.8,174,93.2,173.8,93.5z"/>
<path class="st0" d="M184.2,87.7v-0.9h1.1v0.9h4.5v1.1h-4.5v0.7h3.7v4.6h-2.6c0.5,0.5,0.9,0.9,1.3,1.2c0.6,0.4,1.4,0.8,2.4,1.1
	l-0.5,1.1c-1.2-0.6-2.1-1.1-2.7-1.6c-0.5-0.4-1-1-1.5-1.8h-0.1v3.7h-1.1v-3.7h0c-0.3,0.6-0.7,1.1-1.2,1.5c-0.7,0.6-1.6,1.2-2.9,1.9
	l-0.6-1c1.3-0.6,2.2-1.1,2.7-1.5c0.3-0.2,0.6-0.6,0.8-0.9h-2.4v-4.6h3.5v-0.7h-4.5v-1.1L184.2,87.7L184.2,87.7z M184.2,91.3v-0.8
	h-2.5v0.8H184.2z M184.2,92.2h-2.5v0.8h2.5V92.2z M185.3,91.3h2.6v-0.8h-2.6V91.3z M187.9,92.2h-2.6v0.8h2.6V92.2z"/>
<path class="st0" d="M196.8,87.9h4.6v1H191v-1h4.7c-0.2-0.3-0.4-0.6-0.6-0.9l1.1-0.2C196.4,87.1,196.6,87.5,196.8,87.9z M194,94.3
	c-0.6,1.1-1.2,2.1-2.1,2.9l-0.7-1c0.8-0.7,1.4-1.6,2-2.7L194,94.3L194,94.3z M200.3,89.7v3.5h-3.6v3.3c0,0.4-0.1,0.7-0.3,0.9
	c-0.2,0.2-0.5,0.3-1,0.3h-1.2l-0.2-1.2c0.4,0.1,0.8,0.1,1.1,0.1c0.3,0,0.5-0.1,0.5-0.3v-3.1h-3.4v-3.5H200.3L200.3,89.7z
	 M199.2,90.8h-6v1.4h6V90.8z M200.9,96.3l-0.9,0.9c-0.5-0.8-1.1-1.7-2-2.7l0.8-0.8C199.7,94.6,200.3,95.5,200.9,96.3L200.9,96.3z"/>
<path class="st0" d="M204.7,88v-1.2h1V88h1.5v0.9h-1.5v1.3h0.7c0.6-0.6,1.1-1.5,1.7-2.5l0.8,0.4c-0.4,0.8-0.8,1.5-1.3,2.1h0.8v0.9
	h-1.6c-0.2,0.2-0.4,0.4-0.6,0.6c-0.2,0.2-0.4,0.4-0.7,0.6h2.4v5.5h-1v-0.7h-2.5v0.7h-1v-4.2c-0.2,0.1-0.4,0.2-0.7,0.3l-0.5-0.8
	c1.3-0.5,2.3-1.2,3.2-1.9h-2.9v-0.9h2.1v-1.3h-1.8V88H204.7z M206.9,94.2v-1h-2.5v1H206.9z M206.9,96.2V95h-2.5v1.1H206.9z
	 M212.7,87.3v0.9c-0.3,1.3-0.7,2.4-1.1,3.5c0.5,0.7,0.8,1.3,1,1.6c0.2,0.4,0.3,0.8,0.3,1.2c0,0.7-0.1,1.3-0.4,1.7
	c-0.3,0.4-1,0.6-2,0.6l-0.3-1.2c0.3,0.1,0.6,0.1,1,0.1c0.3,0,0.5-0.1,0.6-0.3c0.1-0.1,0.1-0.4,0.1-0.8c0-0.2-0.1-0.6-0.2-1
	c-0.2-0.4-0.5-1-1-1.9c0.4-1.2,0.8-2.3,1-3.3h-1.6v9.4h-1V87.3L212.7,87.3L212.7,87.3z"/>
<path class="st0" d="M216.1,90.4c-0.3,2.3-0.7,4.4-1.2,6l-1.1-0.7c0.5-1.7,0.9-3.6,1.1-5.6L216.1,90.4L216.1,90.4z M218,89.7v6.4
	c0,0.3,0.1,0.4,0.4,0.4h2.1c0.1,0,0.2-0.1,0.3-0.3c0.1-0.2,0.1-1,0.2-2.5L222,94c-0.1,1.8-0.2,2.8-0.4,3.1c-0.2,0.3-0.5,0.5-1,0.5
	H218c-0.3,0-0.6-0.1-0.8-0.3c-0.2-0.2-0.3-0.5-0.3-0.9v-6.7L218,89.7L218,89.7z M220.9,89.9l-1.1,0.8c-0.5-0.9-1.2-1.8-2.1-2.9
	l0.9-0.6C219.6,88.2,220.4,89.1,220.9,89.9L220.9,89.9z M224.1,95.4L223,96c-0.4-2-0.9-3.8-1.5-5.4l1.1-0.4
	C223.2,91.9,223.7,93.6,224.1,95.4L224.1,95.4z"/>
<path class="st0" d="M235.4,87.2v1.1h-3.9v3.2h3.4v1.1h-3.4v3.6h4.2v1.1h-10.5v-1.1h1.9v-6h1.1v6h2.1v-7.9h-4.6v-1.1H235.4z"/>
<path class="st0" d="M238.3,90.9v-4h1v4h1.5v1h-1.5v0.3c0.5,0.6,1.1,1.3,1.6,2l-0.6,0.9c-0.4-0.7-0.8-1.3-1.1-1.7v4.3h-1v-4.2
	c0,0,0,0.1-0.1,0.1c-0.4,0.9-0.8,1.7-1.3,2.3l-0.4-1.2c0.7-0.8,1.2-1.8,1.7-2.9h-1.7v-1H238.3L238.3,90.9z M238.2,90.1l-0.9,0.2
	c-0.1-0.8-0.3-1.6-0.5-2.3l0.8-0.3C237.8,88.4,238,89.2,238.2,90.1z M241,87.9c-0.2,0.9-0.4,1.7-0.7,2.4l-0.9-0.3
	c0.3-0.6,0.5-1.4,0.7-2.3L241,87.9z M243.3,87.6v-0.8h1v0.8h2.3v0.9h-2.3v0.6h2.1v0.8h-2.1v0.6h2.5v0.9H241v-0.9h2.4v-0.6h-2v-0.8h2
	v-0.6h-2.2v-0.9H243.3z M246.5,96.7c0,0.3-0.1,0.6-0.3,0.8c-0.2,0.2-0.4,0.2-0.6,0.2h-1.2l-0.2-0.9l1,0c0.2,0,0.3-0.2,0.3-0.4v-0.6
	h-3.1v1.9h-1V92h5.1L246.5,96.7L246.5,96.7z M245.5,93.5v-0.7h-3.1v0.7H245.5z M245.5,95v-0.7h-3.1V95H245.5z"/>
<path class="st0" d="M250.6,87.8v-1h1.1v1h1.3v0.9h-1.3v0.9h3v-0.9h-1.2v-0.9h1.2v-1h1.1v1h2.6v0.9h-2.6v0.9h2v0.9h-1.2v1h1.5v0.9
	h-1.5v1.2h1.7v0.9h-4.6v1h4.2v0.9h-4.2v1.4h-1.1v-1.4h-4.2v-0.9h4.2v-1h-4.6v-0.9h1.8v-1.2h-1.6v-0.9h1.6v-1h-1.4v-0.9h2.1v-0.9H248
	v-0.9H250.6z M252.7,90.5h-1.7v1h1.7V90.5z M252.7,93.6v-1.2h-1.7v1.2H252.7z M255.6,90.5h-1.8v1h1.8V90.5z M253.7,93.6h1.8v-1.2
	h-1.8V93.6z"/>
<path class="st0" d="M269.5,88.1h-8.4v8.1h8.4v1h-8.4v0.5H260V87.1h9.5V88.1z M264.9,92.4v3.1h-3.3v-3.1H264.9z M264,93.3h-1.6v1.3
	h1.6V93.3z M268,88.8v2.9h-5.4v-2.9H268z M267,89.8h-3.5v1h3.5V89.8z M269.3,92.4v3.1h-3.5v-3.1H269.3z M268.4,93.4h-1.7v1.3h1.7
	V93.4z"/>
<path class="st0" d="M89.9,120.2v-2.3h1v2.3H92v1h-1.1v0.2c0.4,0.5,0.9,1.1,1.3,1.7l-0.6,0.9c-0.3-0.5-0.5-1-0.7-1.3v6.2h-1v-5.4
	c-0.3,1-0.7,1.8-1.1,2.5l-0.4-1.3c0.6-1,1.1-2.2,1.5-3.6h-1.3v-1L89.9,120.2L89.9,120.2z M94.8,117.9v5.5c0,1.2-0.2,2.2-0.5,3.1
	c-0.3,0.8-0.9,1.6-1.8,2.5l-0.8-0.8c0.8-0.6,1.3-1.3,1.7-2c0.2-0.4,0.3-1,0.4-1.7c-0.5,0.4-1.1,0.8-1.7,1.1l-0.5-0.9
	c0.8-0.3,1.5-0.8,2.3-1.5v-5.2L94.8,117.9L94.8,117.9z M93.7,122l-0.9,0.4c-0.3-1-0.5-1.9-0.8-2.7l0.9-0.3
	C93.1,120.3,93.4,121.1,93.7,122z M96.4,117.9v4.6c0.9,0.5,1.7,1.2,2.4,1.9l-0.6,1c-0.6-0.7-1.2-1.2-1.8-1.7v3.7
	c0,0.2,0.1,0.3,0.4,0.3h0.4c0.1,0,0.2-0.1,0.3-0.2s0.1-0.7,0.2-1.7l1,0.3c-0.1,1.2-0.2,1.9-0.4,2.2c-0.2,0.2-0.5,0.3-0.9,0.3h-1
	c-0.3,0-0.6-0.1-0.8-0.2c-0.2-0.2-0.3-0.4-0.3-0.7v-9.7H96.4L96.4,117.9z M98.6,119.9c-0.3,1-0.7,1.8-1.2,2.5l-0.8-0.7
	c0.4-0.6,0.8-1.4,1.2-2.2L98.6,119.9L98.6,119.9z"/>
<path class="st0" d="M109.9,128.9h-1v-0.4h-7.8v0.4h-1v-10.6h9.8V128.9z M108.9,127.5v-8.3h-7.8v8.3H108.9z M108,122.6v2.2h-3.1
	c-0.1,0.1-0.1,0.1-0.2,0.2v2.3h-0.9v-1.4c-0.6,0.4-1.3,0.8-2.1,1.1l-0.5-0.8c0.8-0.2,1.4-0.5,1.8-0.8c0.2-0.2,0.5-0.3,0.6-0.5h-1.6
	v-2.2H108z M104.4,119.9v-0.5h0.9v0.5h2.7v0.7h-2.7v0.6h3.2v0.8h-7.2v-0.8h3v-0.6h-2.5v-0.7H104.4L104.4,119.9z M107.1,123.3H103
	v0.7h4.1V123.3z M106.6,125.6c0.2-0.2,0.4-0.5,0.5-0.7l0.8,0.5c-0.1,0.2-0.3,0.4-0.5,0.6c0.4,0.2,0.8,0.4,1.1,0.6l-0.5,0.8
	c-1-0.7-2-1.2-3.1-1.6l0.4-0.7C105.8,125.2,106.2,125.4,106.6,125.6L106.6,125.6z"/>
<path class="st0" d="M116.9,119.4h4.8v1.1h-4.7v1.6h4v4.4c0,0.4-0.1,0.8-0.3,1c-0.2,0.2-0.4,0.3-0.7,0.3h-1.5l-0.3-1.2l1.4,0.1
	c0.2,0,0.3-0.2,0.3-0.5v-3h-2.9v5.8h-1.1v-5.8h-2.9v4.6h-1.1v-5.7h4v-1.6h-4.6v-1.1h4.7c-0.2-0.4-0.4-0.8-0.6-1.2l1-0.4
	C116.4,118.3,116.7,118.8,116.9,119.4L116.9,119.4z"/>
<path class="st0" d="M127.9,118.7v1h-1.8v2.6h0.9c0.3-0.5,0.6-1.1,0.9-1.8c0.2-0.6,0.5-1.4,0.7-2.5l1.1,0.1
	c-0.1,0.6-0.2,1.2-0.4,1.6h3.6v1.1h-0.9c-0.1,2-0.5,3.6-1.2,4.8c-0.1,0.1-0.1,0.2-0.2,0.3c0.6,0.6,1.3,1.3,2.3,2l-0.6,1.1
	c-1-0.7-1.8-1.4-2.4-2.1c-0.6,0.7-1.5,1.4-2.5,2.1l-0.6-1c1.1-0.6,1.9-1.2,2.5-2c-0.5-0.8-0.9-2-1.2-3.4c-0.2,0.4-0.4,0.7-0.7,1
	l-0.2-0.3h-1.2v2.9c0.6-0.2,1.1-0.4,1.6-0.6v1.1c-1.4,0.7-3,1.2-4.8,1.8l-0.3-1.1c0.2-0.1,0.4-0.1,0.6-0.2v-6h1v5.7
	c0.3-0.1,0.6-0.2,0.9-0.3v-6.9h-2.4v-1H127.9L127.9,118.7z M130.1,125c0.6-1,0.9-2.4,1-4.2H129c-0.1,0.1-0.1,0.2-0.1,0.3v0
	C129.2,122.9,129.6,124.2,130.1,125z"/>
<path class="st0" d="M136.3,121.6c-0.3,2.3-0.7,4.4-1.2,6l-1.1-0.7c0.5-1.7,0.9-3.6,1.1-5.6L136.3,121.6L136.3,121.6z M138.2,120.9
	v6.4c0,0.3,0.1,0.4,0.4,0.4h2.1c0.1,0,0.2-0.1,0.3-0.3c0.1-0.2,0.1-1,0.2-2.5l1.1,0.3c-0.1,1.8-0.2,2.8-0.4,3.1
	c-0.2,0.3-0.5,0.5-1,0.5h-2.6c-0.3,0-0.6-0.1-0.8-0.3c-0.2-0.2-0.3-0.5-0.3-0.9v-6.7L138.2,120.9L138.2,120.9z M141.1,121.1
	l-1.1,0.8c-0.5-0.9-1.2-1.8-2.1-2.9l0.9-0.6C139.8,119.4,140.6,120.3,141.1,121.1L141.1,121.1z M144.3,126.6l-1.1,0.5
	c-0.4-2-0.9-3.8-1.5-5.4l1.1-0.4C143.4,123.1,143.9,124.8,144.3,126.6L144.3,126.6z"/>
<path class="st0" d="M155,118.3v0.8h-4v0.5h4.6v2.5h-1v-1.7h-3.6v2.2H150v-2.2h-3.5v1.7h-1v-2.5h4.5v-0.5h-3.9v-0.8H155L155,118.3z
	 M150.2,125.1h-3.4v0.5h3.4v0.8h-3.4v0.6h3.6v0.8h-3.6v1.1h-1v-6h4.4V125.1L150.2,125.1z M149.2,124.4v-0.8h-2.5v0.8H149.2z
	 M149.6,120.8v0.7h-2.7v-0.7H149.6z M149.6,121.9v0.7h-2.7v-0.7H149.6z M155.3,125.6v0.6c-0.4,0.5-0.9,1-1.6,1.5
	c0.6,0.2,1.2,0.4,2,0.5l-0.5,0.8c-1.1-0.2-1.9-0.5-2.4-0.8c-0.7,0.3-1.5,0.6-2.4,0.8l-0.3-0.8c0.7-0.1,1.4-0.2,1.9-0.4
	c-0.5-0.3-0.8-0.7-1.1-1.1l0.6-0.3h-0.8v-0.7H155.3L155.3,125.6z M155.3,122.9v2.1h-4.6v-0.7h3.6v-0.7h-3.6v-0.7L155.3,122.9
	L155.3,122.9z M154.2,120.8v0.7h-2.8v-0.7H154.2z M154.2,121.9v0.7h-2.8v-0.7H154.2z M152.9,127.2c0.5-0.3,0.9-0.6,1.2-1h-2.5
	C152,126.7,152.4,127,152.9,127.2z"/>
<path class="st0" d="M158,118.8v-0.8h0.9v0.8h0.8v0.8h-0.8v0.7h0.6v2.2h-1.3l0.6,0.2c-0.1,0.2-0.2,0.4-0.2,0.6h1.2
	c-0.1-0.2-0.1-0.4-0.2-0.6l0.6-0.2h-0.3v-2.3h0.7v-0.7h-0.8v-0.8h0.8v-0.8h0.9v0.8h1.1v0.8h-1.1v0.7h0.8v2.3h-1.9
	c0.1,0.2,0.2,0.5,0.3,0.8h1.6v0.8h-1.7v0.7h1.5v0.7h-1.5v0.7h1.5v0.7h-1.5v0.7h1.7v0.3c0.4-0.3,0.6-0.7,0.8-1.1
	c0.2-0.4,0.3-1,0.3-1.7h-0.7v-6.9h4v6.9h-1.1v2.4c0,0.2,0.1,0.3,0.3,0.3h0.2c0.1,0,0.2,0,0.2-0.1c0.1-0.1,0.1-0.5,0.1-1.4l0.8,0.3
	c-0.1,1-0.2,1.6-0.3,1.8c-0.1,0.2-0.4,0.3-0.7,0.3h-0.6c-0.3,0-0.5-0.1-0.6-0.2c-0.2-0.2-0.2-0.4-0.2-0.6v-2.7h-0.5
	c0,0.9-0.2,1.6-0.4,2.1c-0.2,0.6-0.6,1.1-1.2,1.6l-0.4-0.7v0.2h-3.9v0.5h-0.9v-3.8c-0.2,0.2-0.3,0.4-0.5,0.5l-0.2-1.1
	c0.6-0.5,1-1.2,1.2-2h-0.7v-2.2h0.8v-0.7h-1.2v-0.8H158L158,118.8z M158.7,121h-0.7v0.9h0.7V121z M159.6,124.2h-1.3v0.7h1.3V124.2z
	 M159.6,125.6h-1.3v0.7h1.3V125.6z M159.6,127.7V127h-1.3v0.7H159.6z M161.5,121h-0.8v0.9h0.8V121z M165.8,120.4v-1.1h-2.2v1.1
	H165.8z M165.8,122.4v-1.1h-2.2v1.1H165.8z M165.8,123.2h-2.2v1.1h2.2V123.2z"/>
<path class="st0" d="M173.8,124.7c-0.2,0.2-0.5,0.5-0.9,0.8l-0.4-0.6c0.5-0.3,0.8-0.6,0.9-1.1h-0.7v-1.4h1.4v1.2
	C174.1,124,174,124.4,173.8,124.7z"/>
<path class="st0" d="M183.3,119.5c0.2-0.5,0.4-1,0.6-1.6l1.2,0.1c-0.2,0.5-0.3,1-0.5,1.4h5.3v1.1h-5.9c-0.2,0.5-0.5,0.9-0.8,1.3
	c-0.3,0.4-0.6,0.9-1,1.2v5.8h-1.1v-4.7c-0.3,0.2-0.5,0.5-0.8,0.7l-0.7-0.9c1.1-0.8,2-1.8,2.7-2.8c0.1-0.2,0.3-0.4,0.4-0.6h-3.1v-1.1
	L183.3,119.5L183.3,119.5z M185.8,123.5v-2.4h1.1v2.4h2.5v1h-2.5v2.9h3v1.1h-7.3v-1.1h3.2v-2.9h-2.7v-1H185.8z"/>
<path class="st0" d="M194.2,118.4c-0.3,1-0.6,1.8-0.9,2.5v8h-1v-6.2c-0.3,0.4-0.6,0.8-0.9,1.2l-0.4-1.4c0.5-0.6,0.9-1.3,1.2-2
	c0.4-0.6,0.7-1.5,1.1-2.6L194.2,118.4z M195.6,119.2V118h1v1.2h2v-1.3h1v1.3h1.5v1h-1.5v1.3h1.8v1h-7.7v-1h1.8v-1.3H194v-1H195.6z
	 M200.6,128.9h-1v-0.5h-3.9v0.5h-1v-5.5h5.9V128.9z M199.6,125.4v-1h-3.9v1H199.6z M199.6,127.5v-1.1h-3.9v1.1H199.6z M198.6,121.5
	v-1.3h-2v1.3H198.6z"/>
<path class="st0" d="M205,118c0.6,0.7,1.1,1.3,1.6,2.1l-0.7,0.7c-0.5-0.8-0.9-1.3-1.2-1.7c-0.4,0.6-0.8,1.2-1.3,1.8h2.8v1h-1.1v1
	h1.3v1h-1.3v3.4c0.4-0.1,0.9-0.3,1.4-0.4v1c-1.2,0.4-2.5,0.7-3.9,1l-0.1-1.1c0.6,0,1.1-0.1,1.7-0.3v-3.7h-1.6v-1h1.6v-1H203v-0.6
	c-0.1,0.1-0.2,0.3-0.4,0.4l-0.3-1.1c0.7-0.7,1.3-1.6,1.8-2.6H205L205,118z M203.7,126.7l-0.9,0.2c-0.1-0.8-0.2-1.6-0.3-2.4l0.8-0.2
	C203.4,125.1,203.6,125.8,203.7,126.7L203.7,126.7z M206.4,124.6c-0.1,0.7-0.2,1.4-0.3,1.9l-0.8-0.2c0.2-0.5,0.3-1.1,0.4-1.7
	L206.4,124.6z M212.3,122v3.7h-1.5v1.7c0,0.2,0.1,0.3,0.4,0.3h0.3c0.2,0,0.3,0,0.4-0.1c0.1-0.1,0.1-0.5,0.2-1.3l0.9,0.3
	c-0.1,1-0.2,1.6-0.4,1.8c-0.2,0.2-0.5,0.3-0.9,0.3h-0.8c-0.3,0-0.5-0.1-0.7-0.2c-0.2-0.2-0.2-0.4-0.2-0.7v-2h-0.7
	c-0.1,0.8-0.3,1.4-0.6,1.9c-0.3,0.5-0.9,1-1.7,1.4l-0.6-0.9c0.7-0.3,1.1-0.6,1.5-1c0.3-0.3,0.4-0.8,0.5-1.4h-1.3V122L212.3,122
	L212.3,122z M210,118.8h2.4v0.9h-0.9c-0.1,0.3-0.2,0.6-0.3,0.9h1.5v0.9h-6.2v-0.9h1.5c-0.1-0.3-0.2-0.6-0.3-0.9h-1v-0.9h2.3
	c-0.1-0.2-0.3-0.5-0.4-0.7l0.9-0.3C209.7,118.1,209.9,118.4,210,118.8z M211.4,123.5v-0.6h-3.5v0.6H211.4z M211.4,124.2h-3.5v0.6
	h3.5V124.2z M210.2,120.6c0.1-0.3,0.3-0.6,0.4-0.9h-1.9c0.1,0.3,0.2,0.6,0.3,0.9H210.2z"/>
<path class="st0" d="M218.4,122.8h-3.3v6.2h-1v-10.6h4.4V122.8z M217.4,120v-0.8h-2.3v0.8H217.4z M217.4,121.8v-0.9h-2.3v0.9H217.4z
	 M221.2,123.3v4.5h-4.7v-4.5H221.2z M220.2,125.1v-0.8h-2.6v0.8H220.2z M220.2,126h-2.6v0.9h2.6V126z M223.8,118.3v9.5
	c0,0.4-0.1,0.7-0.3,0.9c-0.2,0.2-0.5,0.3-1,0.3h-0.8l-0.2-1.1l0.8,0.1c0.3,0,0.4-0.2,0.4-0.5v-4.6h-3.4v-4.5H223.8L223.8,118.3z
	 M222.7,120.1v-0.8h-2.4v0.8H222.7z M222.7,120.9h-2.4v0.9h2.4V120.9z"/>
<path class="st0" d="M233.9,123.3v3.8h-2.1v0.4c0,0.2,0.1,0.3,0.4,0.3h1.8c0.1,0,0.3-0.1,0.3-0.1c0.1-0.1,0.1-0.5,0.2-1.3l1,0.3
	c-0.1,1-0.2,1.6-0.4,1.7c-0.2,0.2-0.5,0.3-0.9,0.3h-2.4c-0.3,0-0.6-0.1-0.7-0.2c-0.2-0.2-0.3-0.4-0.3-0.7v-0.7h-1.2
	c-0.3,0.5-0.7,0.9-1.1,1.1c-0.7,0.4-1.7,0.7-2.9,0.7l-0.5-1c1.2,0,2-0.1,2.4-0.3c0.4-0.2,0.7-0.3,0.9-0.6h-1.7v-3.8L233.9,123.3
	L233.9,123.3z M228.7,118.9c-0.4,0.1-1,0.2-1.9,0.2v0.4h1.8v0.7h-1.8l0,0.6h1.7v0.7h-1.7l0,0.6h7.1l0-0.6h-1.6v-0.7h1.7l0-0.6h-1.7
	v-0.7h1.8l0-0.5h-1.9v-0.8h2.8l-0.2,3.9h0.7v2.4h-1v-1.6h-8.3v1.6h-1v-2.4h0.7l-0.1-3.7c0.8,0,1.6-0.1,2.5-0.3L228.7,118.9
	L228.7,118.9z M232.9,124.5V124h-5.2v0.5H232.9z M232.9,125.5V125h-5.2v0.5H232.9z M232.9,126h-5.2v0.5h5.2V126z M231.9,118.4
	c-0.2,0.2-0.5,0.4-0.7,0.6c0.2,0.2,0.5,0.3,0.6,0.5l-0.7,0.5c-0.2-0.2-0.4-0.4-0.6-0.6c-0.4,0.2-0.8,0.4-1.3,0.6l-0.4-0.7
	c0.4-0.1,0.7-0.2,1.1-0.4c-0.2-0.2-0.5-0.3-0.7-0.5l0.6-0.4c0.3,0.2,0.5,0.4,0.8,0.5c0.2-0.2,0.5-0.3,0.7-0.6L231.9,118.4
	L231.9,118.4z M232.1,120.4c-0.2,0.2-0.5,0.4-0.7,0.5c0.2,0.2,0.4,0.3,0.6,0.4l-0.6,0.6c-0.2-0.2-0.5-0.4-0.8-0.6
	c-0.4,0.2-0.9,0.4-1.4,0.6l-0.4-0.7c0.4-0.1,0.8-0.2,1.1-0.4c-0.2-0.1-0.4-0.3-0.7-0.4l0.5-0.5c0.3,0.2,0.6,0.4,0.9,0.5
	c0.2-0.1,0.5-0.3,0.7-0.5L232.1,120.4L232.1,120.4z"/>
<path class="st0" d="M242.3,118.6h4.4v2.5h-0.9c-0.3,0.6-0.7,1-1.1,1.4c0.6,0.3,1.4,0.6,2.3,0.9l-0.5,0.9c-0.8-0.3-1.6-0.6-2.1-0.9
	v0.7h-4.9v-0.5c-0.6,0.4-1.4,0.7-2.3,1l-0.4-0.8c0.6-0.2,1.2-0.4,1.7-0.6c-0.2-0.3-0.4-0.5-0.6-0.8c-0.2,0.1-0.3,0.2-0.5,0.3
	l-0.6-0.8c1.3-0.7,2.2-1.4,2.9-2.2l0.9,0.2c-0.1,0.1-0.2,0.3-0.3,0.4h2.1c0.1,0.2,0.3,0.4,0.4,0.5v-0.5h3v-0.7h-7.9v1.5h-1v-2.4h4.3
	c-0.2-0.2-0.3-0.3-0.5-0.5l1.1-0.1C242,118.1,242.1,118.3,242.3,118.6L242.3,118.6z M240.1,126.6c-0.4,0.5-0.8,0.8-1.1,1
	c-0.4,0.3-1,0.6-1.6,0.9l-0.5-0.9c0.5-0.1,1-0.4,1.4-0.7c0.3-0.2,0.7-0.5,1-0.8L240.1,126.6L240.1,126.6z M246.8,124.9v1h-4.4v2
	c0,0.4-0.1,0.6-0.3,0.8c-0.2,0.2-0.5,0.2-0.9,0.2h-1l-0.2-1c0.4,0.1,0.7,0.1,0.9,0.1c0.3,0,0.4-0.1,0.4-0.2v-1.8h-4.5v-1
	L246.8,124.9L246.8,124.9z M239.1,122.8c0.2-0.1,0.3-0.2,0.5-0.3c0,0,0,0,0,0c-0.2-0.3-0.5-0.5-0.8-0.8c-0.1,0.1-0.3,0.2-0.4,0.3
	C238.6,122.3,238.9,122.6,239.1,122.8L239.1,122.8z M240.1,122c0.2-0.3,0.5-0.6,0.8-0.9h-1.6c0,0-0.1,0.1-0.1,0.1
	C239.6,121.4,239.9,121.7,240.1,122z M243.9,123.2c-0.1-0.1-0.2-0.2-0.4-0.2c-0.6-0.4-1.1-1-1.6-1.7c-0.6,0.9-1.2,1.5-1.8,2H243.9
	L243.9,123.2z M243.9,122c0.3-0.3,0.6-0.6,0.8-1h-1.8C243.3,121.5,243.6,121.8,243.9,122L243.9,122z M246.8,127.7l-0.6,0.9
	c-0.9-0.7-1.8-1.3-2.7-1.7l0.5-0.8C245,126.6,245.9,127.1,246.8,127.7L246.8,127.7z"/>
<path class="st0" d="M253.9,118.1c-0.1,0.2-0.1,0.5-0.2,0.7h4.4v0.9h-4.6c-0.1,0.2-0.1,0.4-0.2,0.6h3.7v5.7h1.2v0.9h-10.2v-0.9h1.3
	v-5.7h2.8c0.1-0.2,0.1-0.4,0.2-0.6h-4.1v-0.9h4.3c0-0.3,0.1-0.5,0.1-0.8L253.9,118.1L253.9,118.1z M252.3,127.7
	c-1.3,0.6-2.5,1-3.8,1.3l-0.4-1c1.4-0.2,2.6-0.5,3.6-1L252.3,127.7L252.3,127.7z M256,121.7v-0.6h-5.6v0.6H256z M256,123.1v-0.7
	h-5.6v0.7H256z M256,124.5v-0.7h-5.6v0.7H256z M256,125.9v-0.7h-5.6v0.7H256z M258.4,128l-0.6,0.9c-1.2-0.5-2.4-0.9-3.7-1.2l0.5-0.8
	C256,127.3,257.3,127.6,258.4,128z"/>
<path class="st0" d="M269.6,118.4v1.1h-3.9v3.2h3.4v1.1h-3.4v3.6h4.1v1.1h-10.5v-1.1h1.9v-6h1.1v6h2.1v-7.9h-4.6v-1.1H269.6z"/>
<path class="st0" d="M276.7,118.8v-0.8h1v0.8h2.7v1.7h0.6v0.9h-0.6v1.8h-2.7v0.8h2.8v0.8h-2.8v0.8h3.3v0.9h-3.3v1c0.2,0,0.3,0,0.5,0
	c1.3,0,2.3,0,3-0.1l-0.2,1.2c-3.5,0-5.7-0.1-6.5-0.2c-0.7-0.2-1.3-0.5-1.7-0.9c0,0-0.1-0.1-0.1-0.1c-0.4,0.5-0.9,1-1.5,1.5l-0.6-1.1
	c0.6-0.4,1.1-0.9,1.4-1.4c-0.3-0.6-0.7-1.4-1.1-2.5l0.9-0.3c0.3,0.7,0.5,1.2,0.7,1.7c0,0,0-0.1,0.1-0.2c0.1-0.5,0.2-1.2,0.3-2.2
	h-1.9v-0.7c0.7-0.9,1.3-1.8,1.9-2.8h-2.1v-0.9h3.2v1c-0.6,1.1-1.2,2-1.7,2.6h1.7c0,1.3-0.2,2.4-0.4,3.2c-0.1,0.4-0.2,0.7-0.4,1
	c0.3,0.3,0.7,0.6,1.2,0.7c0.4,0.1,1.2,0.2,2.2,0.3v-1H274v-0.9h2.7v-0.8h-2.2V124h2.2v-0.8h-2.1v-0.8h2.1v-0.9H274v-0.9h2.7v-0.9
	h-2.1v-0.8L276.7,118.8L276.7,118.8z M277.7,120.5h1.7v-0.9h-1.7V120.5z M277.7,122.3h1.7v-0.9h-1.7V122.3z"/>
<path class="st0" d="M284.8,118.1c-0.1,0.2-0.2,0.5-0.3,0.7h2.9v0.9c0.5-0.6,0.9-1.2,1.1-1.8l1,0.2c-0.1,0.2-0.2,0.5-0.3,0.7h3.4v1
	h-1.9c0.1,0.3,0.2,0.6,0.3,0.9l-1.1,0.1c-0.1-0.4-0.2-0.7-0.2-1h-1.1c-0.2,0.4-0.5,0.7-0.8,1l-0.9-0.6c0.2-0.1,0.3-0.3,0.4-0.4h-1.5
	c0.1,0.3,0.2,0.5,0.3,0.8l-1.1,0.1c-0.1-0.3-0.2-0.7-0.2-0.9h-0.8c-0.3,0.4-0.6,0.8-1,1.1l-0.9-0.6c0.8-0.7,1.4-1.5,1.8-2.3
	L284.8,118.1L284.8,118.1z M286.9,124.9v-0.6l-0.4-0.4c0.5-0.2,1-0.4,1.2-0.6c-0.3-0.1-0.6-0.3-0.9-0.4l0.5-0.8
	c0.3,0.1,0.6,0.2,0.9,0.3c0-0.1,0-0.2,0-0.3v-0.4H287v-0.8h4.1v2.3c0,0.2,0.1,0.3,0.3,0.3h0c0.1,0,0.2,0,0.2-0.1
	c0.1-0.1,0.1-0.4,0.1-1l0.8,0.3c-0.1,0.8-0.2,1.3-0.3,1.4c-0.1,0.2-0.4,0.2-0.8,0.2h-0.4c-0.3,0-0.5-0.1-0.7-0.2
	c-0.2-0.2-0.2-0.4-0.2-0.7v-1.8h-1.1v0.4c0,0.3,0,0.5-0.1,0.7c0.4,0.2,0.7,0.4,1,0.5l-0.5,0.9c-0.3-0.2-0.7-0.4-1-0.6
	c-0.2,0.2-0.5,0.4-0.8,0.6h0.2v0.6h4.7v1h-3.6c0.4,0.3,0.8,0.6,1.1,0.8c0.5,0.3,1.3,0.6,2.4,0.9l-0.4,1c-1.2-0.5-2.1-0.9-2.7-1.3
	c-0.5-0.3-0.9-0.7-1.4-1.3v3.1h-1v-3.1h0c-0.3,0.5-0.7,0.8-1.2,1.2c-0.7,0.5-1.7,1-3,1.5l-0.6-1c1.4-0.4,2.3-0.8,2.9-1.2
	c0.3-0.2,0.5-0.3,0.8-0.6h-3.7v-1L286.9,124.9L286.9,124.9z M286.6,121.1v1h-1.5v1c0.5-0.1,1-0.2,1.5-0.3v0.9
	c-1.2,0.3-2.6,0.6-4.2,0.9l-0.2-1.1c0.6-0.1,1.2-0.1,1.9-0.2v-1.2h-1.5v-1L286.6,121.1L286.6,121.1z"/>
<path class="st0" d="M296.3,118.4L296.3,118.4l7.7,0v0.8h-2.5v0.6h2.1v2.4h-7.2v-2.4h2.1v-0.6h-2.3v-0.6c-0.2,0.8-0.4,1.4-0.6,2v8.4
	h-1v-6.3c-0.2,0.4-0.5,0.9-0.8,1.3l-0.3-1.3c0.4-0.6,0.7-1.3,1-2c0.3-0.6,0.6-1.5,0.9-2.7L296.3,118.4L296.3,118.4z M299.4,128
	c-0.5,0.3-0.9,0.5-1.3,0.6c-0.4,0.1-1,0.3-1.6,0.4L296,128c0.6-0.1,1.2-0.2,1.7-0.4c0.4-0.1,0.8-0.3,1.2-0.5L299.4,128L299.4,128z
	 M303.4,122.6v4.6h-6.6v-4.6H303.4z M298.6,120.6h-1.2v0.8h1.2V120.6z M302.5,123.9v-0.5h-4.8v0.5H302.5z M302.5,125.1v-0.5h-4.8
	v0.5H302.5z M302.5,125.8h-4.8v0.5h4.8V125.8z M300.6,119.2h-1.2v0.6h1.2V119.2z M300.6,120.6h-1.2v0.8h1.2V120.6z M304,128l-0.4,1
	c-0.9-0.4-1.9-0.7-2.9-0.9l0.4-0.8C302.1,127.4,303,127.7,304,128L304,128z M302.7,120.6h-1.2v0.8h1.2V120.6z"/>
<path class="st0" d="M308.2,118.4c-0.3,1-0.6,1.8-0.9,2.5v8h-1v-6.3c-0.3,0.4-0.6,0.8-0.9,1.2l-0.4-1.3c0.5-0.6,0.9-1.3,1.2-1.9
	c0.4-0.6,0.7-1.5,1-2.6L308.2,118.4z M310.8,118.9c0-0.3,0.1-0.7,0.1-1l1.2,0.1c0,0.3-0.1,0.6-0.1,0.8h3.1v0.9h-3.2
	c-0.1,0.3-0.1,0.6-0.1,0.8h2.8v6.8h0.8v0.9h-7.7v-0.9h0.9v-6.8h2c0-0.3,0.1-0.5,0.1-0.8h-2.6v-0.9H310.8z M313.5,122.4v-0.8h-3.9
	v0.8H313.5z M313.5,124.1v-0.8h-3.9v0.8H313.5z M313.5,125.8v-0.8h-3.9v0.8H313.5z M313.5,127.4v-0.9h-3.9v0.9H313.5z"/>
<path class="st0" d="M99.8,150.6h4.8v1.1h-4.7v1.6h4v4.4c0,0.4-0.1,0.8-0.3,1c-0.2,0.2-0.4,0.3-0.7,0.3h-1.5l-0.3-1.2l1.4,0.1
	c0.2,0,0.3-0.2,0.3-0.5v-2.9h-2.9v5.8h-1.2v-5.8h-2.9v4.6h-1.1v-5.7h4v-1.6H94v-1.1h4.7c-0.2-0.4-0.4-0.8-0.6-1.2l1-0.4
	C99.3,149.5,99.5,150,99.8,150.6L99.8,150.6z"/>
<path class="st0" d="M110.8,149.9v1H109v2.6h0.9c0.3-0.5,0.6-1.1,0.9-1.8c0.2-0.6,0.5-1.4,0.7-2.5l1.1,0.1c-0.1,0.6-0.2,1.2-0.4,1.6
	h3.6v1.1H115c-0.1,2-0.5,3.6-1.2,4.9c-0.1,0.1-0.1,0.2-0.2,0.3c0.6,0.6,1.3,1.3,2.3,1.9l-0.6,1.1c-1-0.7-1.8-1.4-2.4-2.1
	c-0.7,0.7-1.5,1.4-2.5,2.1l-0.6-1c1.1-0.6,1.9-1.2,2.5-2c-0.5-0.9-0.9-2-1.2-3.4c-0.2,0.4-0.4,0.7-0.7,1l-0.2-0.3h-1.2v2.9
	c0.6-0.2,1.1-0.4,1.6-0.6v1.1c-1.4,0.6-3,1.2-4.8,1.8l-0.3-1.1c0.2-0.1,0.4-0.1,0.6-0.2v-6h1v5.7c0.3-0.1,0.6-0.2,0.9-0.3v-6.9h-2.4
	v-1H110.8L110.8,149.9z M113,156.2c0.6-1,0.9-2.4,1-4.2h-2.1c-0.1,0.1-0.1,0.2-0.1,0.3v0C112.1,154.1,112.5,155.4,113,156.2z"/>
<path class="st0" d="M122.7,150.2h4.4v2.9H126v-1.9h-7.8v1.9h-1.1v-2.9h4.4c-0.1-0.3-0.3-0.6-0.4-0.9l1.2-0.2
	C122.4,149.4,122.5,149.8,122.7,150.2L122.7,150.2z M125.7,155.4h-6.2v0.9h6.7v3.8h-1v-0.4h-5.7v0.4h-1.1v-7.9h7.3L125.7,155.4
	L125.7,155.4z M124.6,154.4v-1.1h-5.2v1.1H124.6z M125.2,158.7v-1.4h-5.7v1.4H125.2z"/>
<path class="st0" d="M132,149.5v9.3c0,0.4-0.1,0.6-0.2,0.9c-0.2,0.2-0.4,0.3-0.7,0.3h-0.8l-0.3-1.1l0.8,0.1c0.2,0,0.3-0.1,0.3-0.4
	v-2.9c-0.3,0.5-0.6,0.9-0.9,1.2l-0.3-0.8c0,0.5-0.1,1.1-0.1,1.6c-0.1,0.8-0.3,1.6-0.6,2.4l-0.8-0.8c0.2-0.6,0.4-1.3,0.5-2
	c0.1-0.7,0.1-1.4,0.1-2v-5.9H132L132,149.5z M131.1,154.2v-0.9l-0.6,0.5c-0.2-0.5-0.4-1-0.6-1.6v3.3c0,0.1,0,0.3,0,0.4
	C130.2,155.4,130.6,154.9,131.1,154.2z M130.3,151.6c0.3,0.6,0.6,1.1,0.8,1.5v-2.6h-1.2v1.4L130.3,151.6z M138.4,150
	c-1.3,0.5-2.8,0.9-4.7,1.1v4.4c0,0.7-0.1,1.5-0.2,2.3c-0.1,0.8-0.3,1.5-0.6,2.4l-0.8-0.9c0.2-0.6,0.4-1.3,0.5-2
	c0.1-0.7,0.1-1.2,0.1-1.7v-5.3c2.3-0.2,3.9-0.5,4.9-1L138.4,150L138.4,150z M138.6,152.2c-0.6,0.2-1.1,0.5-1.7,0.6
	c0,1,0.1,1.9,0.3,2.6c0.4-0.4,0.7-0.7,1-1.1l0.6,0.8c-0.4,0.4-0.8,0.8-1.4,1.2c0.2,1,0.7,1.9,1.4,3l-0.8,0.8
	c-0.8-1.3-1.3-2.5-1.5-3.7c-0.3-1-0.4-2.2-0.5-3.5c-0.2,0-0.5,0.1-0.7,0.1v5.5c0.5-0.2,0.9-0.3,1.4-0.5v1c-0.8,0.4-1.7,0.7-2.8,1.1
	l-0.3-1c0.3-0.1,0.5-0.1,0.8-0.2v-6.7c1.4-0.1,2.6-0.3,3.7-0.9L138.6,152.2L138.6,152.2z"/>
<path class="st0" d="M145.3,155.9c-0.2,0.2-0.5,0.5-0.9,0.8l-0.4-0.6c0.5-0.3,0.8-0.6,0.9-1.1h-0.7v-1.4h1.4v1.2
	C145.6,155.2,145.5,155.6,145.3,155.9z"/>
<path class="st0" d="M153.2,150v3.2h2.4v-4.1h1.2v4.1h2.6V150h1.1v4.3h-3.7v4h3v-3.1h1.1v4.9h-1.1v-0.8h-7.1v0.8h-1.1v-4.9h1.1v3.1
	h2.9v-4h-3.5V150H153.2L153.2,150z"/>
<path class="st0" d="M164,150v2.2h1.2v-2.9h1v10.8h-1v-4.7h-0.8c0,1.1-0.1,1.9-0.2,2.3c-0.1,0.8-0.4,1.6-0.8,2.3l-0.9-0.7
	c0.3-0.5,0.6-1.1,0.7-1.6c0.1-0.5,0.1-1.3,0.2-2.2h-0.9v-1h2.7v-1.1H163V150H164z M169.6,149.5c-0.1,0.2-0.3,0.4-0.4,0.6h3.5v0.8
	c-0.5,0.9-1.2,1.7-2,2.3c-1.1,0.9-2.3,1.5-3.8,1.8l-0.4-0.9c0.5-0.1,0.9-0.2,1.4-0.4c-0.3-0.3-0.7-0.6-1-1l0.7-0.4
	c0.5,0.4,0.9,0.7,1.3,1c0.2-0.1,0.5-0.2,0.7-0.4c-0.4-0.3-0.9-0.6-1.4-1l0.6-0.6c0.6,0.3,1.1,0.7,1.6,1c0.4-0.4,0.8-0.9,1.2-1.4
	h-2.9c-0.4,0.5-0.9,0.9-1.3,1.3l-0.7-0.9c1-0.6,1.7-1.3,2.1-2.1L169.6,149.5L169.6,149.5z M170.7,155.1v-1.3h1.1v1.3h1.1v1.1h-1.1
	v2.7c0,0.4-0.1,0.7-0.3,0.9c-0.2,0.2-0.5,0.3-0.9,0.3h-1.2l-0.2-1.1c0.5,0.1,0.8,0.1,1.1,0.1s0.4-0.1,0.4-0.3v-2.5h-4.1v-1.1
	L170.7,155.1L170.7,155.1z M169.3,158.3l-1,0.8c-0.3-0.6-0.7-1.2-1.1-2l0.8-0.6C168.5,157.2,169,157.8,169.3,158.3L169.3,158.3z"/>
<path class="st0" d="M178.6,150.8h-3.1v-1.1h4.2c0.2,2.3,0.6,4.1,1.4,5.4c0.7,1.4,1.8,2.6,3.2,3.8l-0.8,1.2
	c-1.6-1.5-2.8-2.9-3.4-4.3c-0.4-0.8-0.7-1.6-1-2.5c-0.4,1.3-0.8,2.3-1.2,3.1c-0.7,1.2-1.8,2.4-3.3,3.7l-0.8-1.1
	c1.5-1.2,2.5-2.3,3.2-3.6c0.6-1.1,1.1-2.5,1.6-4.2C178.6,151.1,178.6,150.9,178.6,150.8L178.6,150.8z"/>
<path class="st0" d="M187.3,151.3v-2.2h1v2.2h1.6v1h-1.6v0.5c0.6,0.7,1.2,1.4,1.9,2.2l-0.7,1c-0.5-0.8-0.9-1.4-1.2-1.9v5.9h-1v-5.8
	c0,0,0,0.1,0,0.1c-0.4,1.1-0.9,2-1.5,2.7l-0.5-1.3c0.8-1,1.5-2.2,2-3.6h-1.9v-1H187.3L187.3,151.3z M195.3,160.2h-1v-0.8h-3v0.8h-1
	v-10.6h5L195.3,160.2L195.3,160.2z M194.3,152.4v-1.8h-3v1.8H194.3z M194.3,155.3v-1.9h-3v1.9H194.3z M194.3,158.3v-2h-3v2H194.3z"
	/>
<path class="st0" d="M202.7,156.3c-0.2-0.4-0.6-0.8-1-1.4c-0.3-0.3-0.7-0.7-1.3-1.2l0.7-0.6c0.4,0.3,0.8,0.7,1.3,1.2
	c0.3,0.3,0.7,0.8,1.1,1.4L202.7,156.3L202.7,156.3z"/>
<path class="st0" d="M213.9,150h4.4v1h-10.1v-1h4.5c-0.2-0.2-0.3-0.4-0.5-0.7l1.1-0.2C213.5,149.4,213.7,149.7,213.9,150z
	 M211.8,152.5h2.7c0.3-0.4,0.5-0.9,0.7-1.4l1,0.4c-0.2,0.4-0.4,0.8-0.7,1.1h2.2v6.4c0,0.4-0.1,0.7-0.3,0.9c-0.2,0.2-0.4,0.3-0.6,0.3
	h-1l-0.2-1l0.8,0.1c0.2,0,0.3-0.2,0.3-0.4v-3.1H215c-0.3,0-0.6-0.1-0.8-0.2c-0.2-0.1-0.3-0.3-0.3-0.6v-1.2h-1.2
	c-0.1,0.6-0.2,1.1-0.4,1.4c-0.2,0.4-0.8,0.8-1.7,1.1l-0.7-0.8c0.7-0.2,1.1-0.4,1.4-0.7c0.2-0.2,0.4-0.6,0.4-1h-2v6.7h-1v-7.6h2.1
	c-0.2-0.3-0.4-0.7-0.6-1.1l1-0.4C211.4,151.5,211.6,151.9,211.8,152.5L211.8,152.5z M215.7,155.9v2.9h-4.8v-2.9H215.7z M214.8,156.9
	h-2.9v1h2.9V156.9z M214.8,154.3c0,0.2,0.1,0.3,0.4,0.3h1.6v-1.2h-2V154.3z"/>
<path class="st0" d="M229.5,160.1h-1v-0.4h-7.8v0.4h-1v-10.6h9.8V160.1z M227.4,154.7c0.3,0.2,0.6,0.5,1.1,0.7v-5.1h-7.8v5
	c0.7-0.4,1.2-0.8,1.7-1.2h-1.3v-0.9h2.1c0.1-0.1,0.2-0.3,0.3-0.5h-2.1v-0.8h0.9c-0.2-0.4-0.4-0.7-0.7-1.1l0.9-0.1
	c0.2,0.4,0.5,0.8,0.7,1.2h0.6c0.2-0.4,0.3-0.9,0.5-1.4l0.9,0.1c-0.1,0.5-0.3,1-0.4,1.4h1c0.3-0.4,0.5-0.8,0.7-1.2l0.8,0.3
	c-0.2,0.4-0.4,0.7-0.7,0.9h1.1v0.8h-3.3c-0.1,0.2-0.2,0.4-0.2,0.5h4v0.9h-1.4C227.1,154.3,227.2,154.5,227.4,154.7L227.4,154.7z
	 M228.6,158.7v-3l-0.4,0.5c-0.6-0.4-1.2-0.8-1.6-1.2c-0.1-0.1-0.1-0.1-0.1-0.1v1.1c0,0.3-0.1,0.5-0.3,0.6c-0.2,0.1-0.4,0.2-0.6,0.2
	h-1.2l-0.2-0.8l1,0c0.2,0,0.3-0.1,0.3-0.3v-0.3h-2.2v1.5c0,0.1,0,0.3,0.1,0.3c0.1,0.1,0.2,0.1,0.3,0.1h2.4c0.2,0,0.3,0,0.4-0.1
	c0.1-0.1,0.2-0.4,0.4-1l0.9,0.3c-0.1,0.8-0.3,1.2-0.5,1.4c-0.2,0.2-0.6,0.2-1,0.2h-2.9c-0.3,0-0.6-0.1-0.8-0.2
	c-0.2-0.2-0.3-0.5-0.3-0.9v-1.8c-0.4,0.3-0.8,0.6-1.3,0.9l-0.4-0.7v3.1L228.6,158.7L228.6,158.7z M226.2,154.7
	c-0.2-0.2-0.3-0.4-0.4-0.6h-2.2c-0.2,0.2-0.3,0.4-0.5,0.6H226.2L226.2,154.7z"/>
<path class="st0" d="M236.5,149.1c0.7,0.8,1.4,1.4,2.1,1.9c0.5,0.4,1.4,0.8,2.7,1.3l-0.7,1.1c-0.5-0.2-1-0.4-1.5-0.7v0.5h-2.6v1.3
	h4.1v1.1h-4.1v3.1h1.1c0.3-0.8,0.6-1.6,0.9-2.6l1.1,0.4c-0.3,0.8-0.6,1.6-0.9,2.2h2.2v1h-9.9v-1h2.2c-0.2-0.6-0.5-1.3-0.9-2.1l1-0.4
	c0.3,0.7,0.7,1.5,0.9,2.5h1v-3.1h-4.1v-1.1h4.1v-1.3H233v-0.6c-0.5,0.3-1,0.6-1.6,0.9l-0.6-1.1c1.3-0.5,2.3-1,2.9-1.6
	c0.6-0.4,1.1-1,1.8-1.8L236.5,149.1L236.5,149.1z M238.3,152.2c-0.7-0.5-1.5-1.2-2.2-2c-0.7,0.7-1.3,1.3-1.9,1.8
	c-0.1,0.1-0.2,0.1-0.3,0.2H238.3z"/>
<path class="st0" d="M246,149.5v9.3c0,0.4-0.1,0.6-0.2,0.9c-0.1,0.2-0.4,0.3-0.7,0.3h-0.8l-0.3-1.1l0.8,0.1c0.2,0,0.3-0.1,0.3-0.4
	v-2.9c-0.3,0.5-0.6,0.9-0.9,1.2l-0.3-0.8c0,0.5-0.1,1.1-0.1,1.6c-0.1,0.8-0.3,1.6-0.6,2.4l-0.8-0.8c0.2-0.6,0.4-1.3,0.5-2
	c0.1-0.7,0.1-1.4,0.1-2v-5.9H246L246,149.5z M245.1,154.2v-0.9l-0.6,0.5c-0.2-0.5-0.4-1-0.6-1.6v3.3c0,0.1,0,0.3,0,0.4
	C244.2,155.4,244.6,154.9,245.1,154.2z M244.3,151.6c0.3,0.6,0.6,1.1,0.8,1.5v-2.6h-1.2v1.4L244.3,151.6z M252.4,150
	c-1.3,0.5-2.8,0.9-4.7,1.1v4.4c0,0.7-0.1,1.5-0.2,2.3c-0.1,0.8-0.3,1.5-0.6,2.4l-0.8-0.9c0.2-0.6,0.4-1.3,0.5-2
	c0.1-0.7,0.1-1.2,0.1-1.7v-5.3c2.3-0.2,3.9-0.5,4.9-1L252.4,150L252.4,150z M252.6,152.2c-0.6,0.2-1.1,0.5-1.7,0.6
	c0,1,0.1,1.9,0.3,2.6c0.4-0.4,0.7-0.7,1-1.1l0.6,0.8c-0.4,0.4-0.8,0.8-1.3,1.2c0.2,1,0.7,1.9,1.4,3l-0.8,0.8
	c-0.8-1.3-1.3-2.5-1.5-3.7c-0.3-1-0.4-2.2-0.5-3.5c-0.2,0-0.5,0.1-0.7,0.1v5.5c0.5-0.2,0.9-0.3,1.4-0.5v1c-0.8,0.4-1.7,0.7-2.8,1.1
	l-0.3-1c0.3-0.1,0.5-0.1,0.8-0.2v-6.7c1.4-0.1,2.6-0.3,3.7-0.9L252.6,152.2L252.6,152.2z"/>
<path class="st0" d="M259.2,155.9c-0.2,0.2-0.5,0.5-0.9,0.8l-0.4-0.6c0.5-0.3,0.8-0.6,0.9-1.1h-0.7v-1.4h1.4v1.2
	C259.6,155.2,259.5,155.6,259.2,155.9z"/>
<path class="st0" d="M269.7,149.1v5.5c0,1.2-0.2,2.2-0.7,3c-0.4,0.8-1.3,1.6-2.5,2.4l-0.9-0.9c1.2-0.6,2-1.3,2.4-2
	c0.2-0.2,0.3-0.5,0.4-0.8c-0.9,0.3-1.9,0.6-3,0.8l-0.3-1.1c1.3-0.2,2.5-0.6,3.6-0.9c0-0.2,0-0.5,0-0.7v-0.3h-3.2v-1h3.2v-1.5h-3.3
	v-1.1h3.3v-1.6L269.7,149.1L269.7,149.1z M272.2,149.1v1.6h3.2v1.1h-3.2v1.7h3v1h-3v1.8h3.3v1h-3.3v2.8h-1.1v-11L272.2,149.1
	L272.2,149.1z"/>
<path class="st0" d="M282.3,149.9h4.3v2.5h-1.1v-1.6h-7.7v1.6h-1.1v-2.5h4.2c-0.2-0.2-0.3-0.4-0.5-0.6l1.3-0.2
	C282,149.4,282.2,149.6,282.3,149.9z M286.4,160.2h-1.1v-0.4h-7.1v0.4h-1.1v-4.3h9.3L286.4,160.2L286.4,160.2z M285.6,152.9v2.2
	h-7.7v-2.2H285.6z M281.2,157.4v-0.7h-3v0.7H281.2z M281.2,158.9v-0.7h-3v0.7H281.2z M285.1,151.5v0.9h-6.8v-0.9H285.1z
	 M284.5,153.7h-5.6v0.7h5.6V153.7z M282.2,157.4h3.1v-0.7h-3.1V157.4z M285.3,158.9v-0.7h-3.1v0.7H285.3z"/>
<path class="st0" d="M293,155.4h-3.4v2.9c0.7-0.2,1.4-0.4,2.1-0.6c-0.2-0.6-0.4-1.1-0.6-1.6l1-0.3c0.5,1.1,0.9,2.3,1.2,3.7l-1.1,0.3
	c-0.1-0.4-0.2-0.7-0.3-1.1c-1.1,0.4-2.4,0.8-3.8,1.1l-0.3-1.2c0.2,0,0.4-0.1,0.6-0.1v-9h4.5L293,155.4L293,155.4z M292,151.9v-1.4
	h-2.4v1.4H292z M292,154.3V153h-2.4v1.4H292z M298,157.7c0,0.4-0.1,0.7-0.3,0.9c-0.2,0.2-0.4,0.3-0.7,0.3h-1.4l-0.2-1.2l1.2,0.1
	c0.2,0,0.4-0.2,0.4-0.5v-6.8h-2v9.6h-1.1v-10.7h4.1V157.7z"/>
<path class="st0" d="M304,149.7v-0.6h1.1v0.6h3.7v2.2H305v0.5h4.7v0.8h-10.5v-0.8h4.8V152h-3.6v-2.2H304z M308.5,153.8v4.6h-2.4
	c1.1,0.2,2.3,0.4,3.5,0.8l-0.4,0.9c-1.2-0.4-2.5-0.7-3.8-0.9l0.4-0.8h-2.8l0.5,0.7c-0.6,0.2-1.2,0.4-1.6,0.6
	c-0.6,0.1-1.3,0.3-2.1,0.4l-0.5-0.9c0.8-0.1,1.5-0.2,2.2-0.3c0.5-0.1,1-0.2,1.4-0.4h-2.4v-4.6L308.5,153.8L308.5,153.8z M304,150.5
	h-2.6v0.7h2.6V150.5z M307.5,155.1v-0.6h-6v0.6H307.5z M307.5,156.4v-0.6h-6v0.6H307.5z M307.5,157h-6v0.6h6V157z M307.7,150.5H305
	v0.7h2.7V150.5z"/>
<path class="st0" d="M99.9,180.3v2.9c0.4,1.8,0.9,3.2,1.7,4.3c0.6,0.9,1.6,1.9,3,2.9l-0.8,1.1c-1.1-0.8-2-1.6-2.6-2.3
	c-0.8-0.9-1.4-2-1.8-3.4c-0.4,1.4-0.9,2.5-1.5,3.2c-0.7,0.8-1.7,1.7-3.1,2.5l-0.7-1.1c1.7-1.1,2.9-2.3,3.6-3.6c0.7-1.2,1-2.4,1-3.6
	v-2.8L99.9,180.3L99.9,180.3z"/>
<path class="st0" d="M111.7,182l-0.6,0.5h4.8v1.1h-1.7c-0.5,1.4-1.1,2.6-1.8,3.6c-0.2,0.4-0.5,0.7-0.8,1c1,0.7,2.4,1.4,4.3,2.1
	l-0.6,1.2c-1.9-0.8-3.4-1.6-4.5-2.5c-0.2,0.2-0.4,0.3-0.6,0.5c-1.1,0.7-2.5,1.4-4.1,1.9l-0.6-1.1c1.7-0.5,3-1,3.9-1.6
	c0.2-0.1,0.4-0.2,0.6-0.4c-1.1-1.1-1.9-2.7-2.5-4.7h-1.9v-1.1h4.9c-0.4-0.5-0.8-1-1.4-1.6l0.8-0.6C110.6,181,111.2,181.6,111.7,182
	L111.7,182z M110.8,187.5c0.3-0.3,0.6-0.7,0.9-1.2c0.5-0.7,0.9-1.7,1.3-2.7h-4.5C109.1,185.4,109.8,186.6,110.8,187.5L110.8,187.5z"
	/>
<path class="st0" d="M120,181.2h1.8v0.9h-0.6l-0.5,1.4h1.2v0.9h-5.2v-0.9h1.2l-0.4-1.4H117v-0.9h2c-0.1-0.3-0.2-0.6-0.3-0.9l1-0.1
	C119.8,180.5,119.9,180.8,120,181.2L120,181.2z M121.6,190.3c0,0.3-0.1,0.6-0.3,0.7c-0.2,0.1-0.4,0.2-0.6,0.2h-1l-0.2-0.9l0.8,0.1
	c0.2,0,0.3-0.1,0.3-0.4v-0.7h-2.4v2.1h-0.9v-6.3h4.3V190.3L121.6,190.3z M120.6,186.8v-0.8h-2.4v0.8H120.6z M120.6,188.4v-0.7h-2.4
	v0.7H120.6z M119.8,183.6l0.5-1.4h-1.6l0.4,1.4H119.8z M123.3,182.5h3.5v2.5h-3.5v0.6h3.5v0.8h-3.5v0.6h3.5v0.8h-3.5v0.6h3.5v0.8
	h-3.5v0.6c0,0.2,0.1,0.3,0.4,0.3h2.2c0.2,0,0.3,0,0.4-0.1c0.1-0.1,0.2-0.3,0.2-0.7l0.9,0.3c-0.1,0.7-0.2,1.1-0.4,1.3
	c-0.2,0.1-0.5,0.2-1,0.2h-2.7c-0.3,0-0.6-0.1-0.7-0.3c-0.2-0.2-0.3-0.4-0.3-0.7v-6.1h3.5v-0.8h-3.5v-3h1v0.6h3.8v0.9h-3.8
	L123.3,182.5L123.3,182.5z"/>
<path class="st0" d="M132,180.7v9.3c0,0.4-0.1,0.7-0.2,0.9c-0.2,0.2-0.4,0.3-0.7,0.3h-0.8l-0.3-1.1l0.8,0c0.2,0,0.3-0.1,0.3-0.4
	v-2.9c-0.3,0.5-0.6,0.9-0.9,1.2l-0.3-0.8c0,0.5-0.1,1.1-0.1,1.6c-0.1,0.8-0.3,1.6-0.6,2.5l-0.8-0.8c0.2-0.6,0.4-1.3,0.5-2
	c0.1-0.7,0.1-1.4,0.1-2v-5.9H132L132,180.7z M131.1,185.4v-0.9l-0.6,0.5c-0.2-0.5-0.4-1-0.6-1.6v3.3c0,0.1,0,0.3,0,0.4
	C130.2,186.6,130.6,186.1,131.1,185.4z M130.3,182.8c0.3,0.6,0.6,1.1,0.8,1.5v-2.6h-1.2v1.4L130.3,182.8z M138.4,181.2
	c-1.3,0.5-2.8,0.9-4.7,1.1v4.4c0,0.7-0.1,1.5-0.2,2.3c-0.1,0.8-0.3,1.5-0.6,2.3l-0.8-0.9c0.2-0.6,0.4-1.3,0.5-2
	c0.1-0.7,0.1-1.2,0.1-1.7v-5.3c2.3-0.2,3.9-0.5,4.9-1L138.4,181.2L138.4,181.2z M138.6,183.4c-0.6,0.2-1.1,0.5-1.7,0.6
	c0,1,0.1,1.9,0.3,2.6c0.4-0.4,0.7-0.7,1-1.1l0.6,0.8c-0.4,0.4-0.8,0.8-1.4,1.2c0.2,1,0.7,1.9,1.4,3l-0.8,0.8
	c-0.8-1.3-1.3-2.5-1.5-3.7c-0.3-1-0.4-2.2-0.5-3.5c-0.2,0.1-0.5,0.1-0.7,0.1v5.5c0.5-0.2,0.9-0.3,1.4-0.5v1
	c-0.8,0.4-1.7,0.7-2.8,1.1l-0.3-1c0.3-0.1,0.5-0.1,0.8-0.2v-6.7c1.4-0.1,2.6-0.3,3.7-0.8L138.6,183.4L138.6,183.4z"/>
<path class="st0" d="M145.3,187.1c-0.2,0.2-0.5,0.5-0.9,0.8l-0.4-0.6c0.5-0.3,0.8-0.6,0.9-1.1h-0.7v-1.4h1.4v1.2
	C145.6,186.4,145.5,186.8,145.3,187.1z"/>
<path class="st0" d="M155.7,180.9v-0.5h1v0.5h3.8v1.3h0.9v0.8h-0.9v1.3h-3.8v0.5h3.9v0.8h-3.9v0.5h4.8v0.9h-10.2v-0.9h4.5v-0.5h-3.7
	v-0.8h3.7v-0.5h-3.5v-0.8h3.5V183h-4.5v-0.8h4.5v-0.5h-3.5v-0.8H155.7z M160.4,191.2h-1v-0.3h-6.3v0.2h-1v-3.8h8.2V191.2
	L160.4,191.2z M159.4,188.7v-0.6h-6.3v0.6H159.4z M159.4,190.1v-0.6h-6.3v0.6H159.4z M156.7,182.2h2.8v-0.5h-2.8V182.2z
	 M156.7,183.5h2.8V183h-2.8V183.5z"/>
<path class="st0" d="M171.9,181.4c-1.1,0.2-2.3,0.3-3.8,0.4v1h4.7v1h-3.4c0.4,0.4,0.8,0.7,1.1,0.8c0.6,0.3,1.4,0.6,2.4,0.9l-0.5,1.1
	c-0.4-0.1-0.7-0.3-1-0.4v5.1h-1v-0.5h-5.5v0.5h-1v-5.1c-0.3,0.1-0.6,0.3-0.9,0.4l-0.6-1.1c1.3-0.4,2.2-0.8,2.7-1.2
	c0.3-0.2,0.5-0.4,0.7-0.6h-3.3v-1h4.6v-1c-1.1,0.1-2.3,0.1-3.6,0.1l-0.3-1c3.2,0,6-0.2,8.2-0.5L171.9,181.4L171.9,181.4z M167.1,186
	v-2.2H167c-0.3,0.5-0.7,0.9-1.1,1.3c-0.4,0.3-0.8,0.6-1.3,0.9H167.1z M170.4,187.9V187h-5.5v0.8H170.4z M170.4,189.8v-1h-5.5v1
	H170.4z M170.8,186c-0.5-0.2-0.8-0.5-1.1-0.7c-0.5-0.3-1-0.8-1.4-1.5h-0.1v2.1L170.8,186L170.8,186z"/>
<path class="st0" d="M176.9,180.8c0,0.1-0.1,0.2-0.1,0.2h2.9v-0.7h1v0.7h3.3v0.9h-3.3v0.6h2.7v3.4c0.3,0.5,0.6,1,0.8,1.4l-0.8,0.6
	c-0.1-0.2-0.2-0.4-0.2-0.6c-0.2,0-0.3,0-0.4,0v0.7h1.5v0.9h-1.5v1.3c0,0.4-0.1,0.7-0.3,0.8c-0.2,0.2-0.5,0.3-0.9,0.3h-1.1l-0.2-1.1
	c0.4,0.1,0.7,0.1,1,0.1c0.3,0,0.4-0.1,0.4-0.3v-1.1h-3.2c0.5,0.5,0.8,0.9,1.1,1.3l-1,0.7c-0.3-0.5-0.7-1-1.1-1.6l0.5-0.3h-1.5V188
	h5.2v-0.7c-1.5,0.1-3.1,0.2-4.9,0.2l-0.2-0.9c1.1,0,2.1,0,3.2-0.1v-0.6H177v-3.5h2.7v-0.6h-2.9v-0.7c-0.2,0.7-0.5,1.4-0.7,1.9v8.1
	h-1v-6.3c-0.3,0.5-0.6,0.9-0.9,1.3l-0.4-1.3c0.4-0.6,0.8-1.3,1.2-2c0.3-0.6,0.7-1.5,1-2.6L176.9,180.8z M179.7,183.9v-0.6H178v0.6
	H179.7z M179.7,184.6H178v0.6h1.7V184.6z M180.7,183.9h1.7v-0.6h-1.7V183.9z M182.5,184.6h-1.7v0.6h1.7V184.6z M180.7,186.5
	c0.7,0,1.4-0.1,2-0.1c0-0.1-0.1-0.2-0.1-0.3l0.4-0.2h-2.3L180.7,186.5L180.7,186.5z"/>
<path class="st0" d="M194,183.1v1h-2.4c-0.3,0.3-0.6,0.5-0.9,0.7c0.4,0.5,0.7,1.1,0.9,1.6c0.8-0.4,1.6-1,2.4-1.7l0.8,0.8
	c-0.5,0.5-1,0.9-1.5,1.2c0.2,0.6,0.6,1.2,0.9,1.7c0.4,0.5,0.9,1,1.5,1.6l-0.7,1c-0.7-0.7-1.3-1.4-1.8-2.1c-0.3-0.5-0.6-1.1-0.8-1.7
	c-0.2,0.1-0.3,0.2-0.5,0.2c0.1,0.5,0.2,1,0.2,1.5c0,0.9-0.1,1.6-0.4,1.9c-0.3,0.4-1.1,0.6-2.4,0.6l-0.4-1.2c0,0.1,0.2,0.1,0.6,0.1
	c0.6,0,1-0.1,1.1-0.2c0.2-0.2,0.3-0.6,0.3-1.3c0-0.2,0-0.4,0-0.5c-0.6,0.5-1.2,0.9-1.7,1.2c-0.8,0.5-1.9,0.9-3.1,1.3l-0.6-1
	c1.2-0.4,2.3-0.8,3.3-1.3c0.7-0.4,1.4-0.8,2-1.4c0-0.1-0.1-0.2-0.1-0.3c0-0.1-0.1-0.2-0.1-0.3c-0.6,0.5-1.2,0.8-1.7,1
	c-0.7,0.4-1.7,0.7-2.8,1.1l-0.5-1c1.1-0.3,2.1-0.6,2.9-1c0.6-0.3,1.2-0.6,1.7-1c-0.1-0.1-0.2-0.3-0.3-0.5c-1,0.5-2.1,0.8-3.4,1.2
	l-0.6-1c1.4-0.3,2.5-0.6,3.3-0.9c0.3-0.1,0.7-0.3,1-0.4h-3.2v-1H194L194,183.1z M191,181.2h4.5v2.4h-1v-1.4h-7.8v1.4h-1v-2.4h4.2
	c-0.1-0.2-0.3-0.5-0.4-0.7l1.2-0.2C190.7,180.6,190.8,180.9,191,181.2z"/>
<path class="st0" d="M202.7,187.5c-0.2-0.4-0.6-0.8-1-1.4c-0.3-0.3-0.7-0.7-1.3-1.2l0.7-0.6c0.4,0.3,0.8,0.7,1.3,1.2
	c0.3,0.3,0.7,0.8,1.1,1.4L202.7,187.5L202.7,187.5z"/>
<path class="st0" d="M216.1,185.6c-0.7,1.2-1.3,2.1-1.9,2.8c0,0,0.1,0,0.1,0.1c1,0.7,2.4,1.3,4.3,1.9l-0.7,1.1
	c-2-0.6-3.5-1.4-4.5-2.1c0,0-0.1,0-0.1-0.1c-1.1,0.9-2.6,1.6-4.5,2.2l-0.7-1.1c1.8-0.5,3.3-1.2,4.3-1.9c-0.8-0.8-1.4-1.6-2-2.5
	l1-0.6c0.5,0.9,1.1,1.7,1.9,2.4c0.6-0.6,1.2-1.5,1.8-2.5L216.1,185.6L216.1,185.6z M214,181.7h4.3v1h-10.2v-1h4.6
	c-0.2-0.4-0.4-0.7-0.6-1.1l1.2-0.2C213.6,180.9,213.8,181.3,214,181.7L214,181.7z M212.3,183.3c-0.9,1.3-1.9,2.4-3.1,3.4l-1-0.8
	c1.2-0.9,2.2-1.9,3.2-3L212.3,183.3z M218.5,186.1l-0.9,0.9c-0.8-1-2-2.1-3.5-3.3l0.8-0.8C216.4,184,217.5,185,218.5,186.1
	L218.5,186.1z"/>
<path class="st0" d="M222.4,183.2v0.8c-0.4,0.7-0.9,1.3-1.4,2.1h1.4v0.7c-0.2,0.8-0.3,1.4-0.5,1.8c0.4,0.5,0.8,0.8,1.1,0.9
	c0.2,0.1,0.6,0.2,1.1,0.3c0.6,0.1,1.6,0.1,3.2,0.1c1.2,0,2.1,0,2.7-0.1l-0.2,1.2c-3.1,0-5.1,0-5.7-0.1c-0.6-0.1-1.1-0.2-1.5-0.4
	c-0.3-0.1-0.7-0.5-1.1-0.9c-0.3,0.6-0.7,1.1-1.2,1.8l-0.8-0.8c0.6-0.6,1-1.2,1.2-1.6c0.2-0.3,0.4-0.9,0.7-1.7h-1.6v-0.9
	c0.5-0.5,1-1.1,1.5-2h-1.6v-1L222.4,183.2L222.4,183.2z M222.1,182.2l-0.7,0.7c-0.3-0.6-0.7-1.1-1.2-1.8l0.7-0.7
	C221.3,181.1,221.7,181.6,222.1,182.2L222.1,182.2z M229.1,180.8v0.8c-0.6,0.4-1.2,0.8-1.9,1.1c0.2,0.1,0.3,0.1,0.4,0.2l-0.2,0.2
	h1.9v5.2c0,0.4-0.1,0.6-0.3,0.8c-0.2,0.2-0.4,0.2-0.7,0.2h-0.8l-0.2-1l0.6,0.1c0.2,0,0.3-0.2,0.3-0.4v-0.7h-1.6v1.9h-1v-1.9h-1.5v2
	h-1v-6.3h2.6c-0.5-0.2-1.1-0.4-1.8-0.7l0.6-0.6c0.5,0.2,1,0.3,1.4,0.5c0.4-0.1,0.9-0.4,1.4-0.6h-4.5v-0.9H229.1L229.1,180.8z
	 M225.7,184.9V184h-1.5v0.9H225.7z M225.7,186.6v-0.8h-1.5v0.8H225.7z M226.7,184.9h1.6V184h-1.6V184.9z M226.7,186.6h1.6v-0.8h-1.6
	V186.6z"/>
<path class="st0" d="M236.4,181.4c-0.6,0.1-1.3,0.2-2.1,0.2v0.8h2.3v0.9h-2.3v0.6h2.2v3.7h-2.2v0.7h2v0.8h-2v0.9
	c0.7-0.1,1.4-0.1,2-0.2v0.4c0.7-1.1,1.2-2.2,1.5-3.4c0.2-0.8,0.3-1.9,0.4-3.3h-1.2v-1h1.2v-2.2h1v2.2h2c0,4.1-0.1,6.5-0.1,7.2
	c-0.1,0.6-0.2,1-0.4,1.1c-0.2,0.2-0.6,0.4-1.1,0.4c-0.2,0-0.5,0-0.8-0.1l-0.2-1.2c0.3,0.1,0.7,0.1,1,0.1c0.3,0,0.5-0.2,0.5-0.7
	c0.1-0.6,0.1-2.6,0.1-5.9h-1.1c-0.1,1.4-0.2,2.6-0.4,3.6c-0.3,1.3-0.9,2.7-1.7,4.1l-0.7-0.6v0.1c-1,0.2-2.8,0.4-5.3,0.5l-0.1-1
	c0.9,0,1.7-0.1,2.5-0.1v-1h-2v-0.8h2v-0.7h-2.1V184h2.1v-0.6h-2.6v-0.9h2.6v-0.7c-0.6,0-1.3,0-2,0l-0.3-0.9c1.9,0,3.5-0.1,4.9-0.3
	L236.4,181.4L236.4,181.4z M233.4,185.5v-0.8h-1.1v0.8H233.4z M233.4,186.2h-1.1v0.7h1.1V186.2z M234.3,185.5h1.2v-0.8h-1.2V185.5z
	 M235.5,186.2h-1.2v0.7h1.2V186.2z"/>
<path class="st0" d="M246,180.7v9.3c0,0.4-0.1,0.7-0.2,0.9c-0.1,0.2-0.4,0.3-0.7,0.3h-0.8l-0.3-1.1l0.8,0c0.2,0,0.3-0.1,0.3-0.4
	v-2.9c-0.3,0.5-0.6,0.9-0.9,1.2l-0.3-0.8c0,0.5-0.1,1.1-0.1,1.6c-0.1,0.8-0.3,1.6-0.6,2.5l-0.8-0.8c0.2-0.6,0.4-1.3,0.5-2
	c0.1-0.7,0.1-1.4,0.1-2v-5.9H246L246,180.7z M245.1,185.4v-0.9l-0.6,0.5c-0.2-0.5-0.4-1-0.6-1.6v3.3c0,0.1,0,0.3,0,0.4
	C244.2,186.6,244.6,186.1,245.1,185.4z M244.3,182.8c0.3,0.6,0.6,1.1,0.8,1.5v-2.6h-1.2v1.4L244.3,182.8z M252.4,181.2
	c-1.3,0.5-2.8,0.9-4.7,1.1v4.4c0,0.7-0.1,1.5-0.2,2.3c-0.1,0.8-0.3,1.5-0.6,2.3l-0.8-0.9c0.2-0.6,0.4-1.3,0.5-2
	c0.1-0.7,0.1-1.2,0.1-1.7v-5.3c2.3-0.2,3.9-0.5,4.9-1L252.4,181.2L252.4,181.2z M252.6,183.4c-0.6,0.2-1.1,0.5-1.7,0.6
	c0,1,0.1,1.9,0.3,2.6c0.4-0.4,0.7-0.7,1-1.1l0.6,0.8c-0.4,0.4-0.8,0.8-1.3,1.2c0.2,1,0.7,1.9,1.4,3l-0.8,0.8
	c-0.8-1.3-1.3-2.5-1.5-3.7c-0.3-1-0.4-2.2-0.5-3.5c-0.2,0.1-0.5,0.1-0.7,0.1v5.5c0.5-0.2,0.9-0.3,1.4-0.5v1
	c-0.8,0.4-1.7,0.7-2.8,1.1l-0.3-1c0.3-0.1,0.5-0.1,0.8-0.2v-6.7c1.4-0.1,2.6-0.3,3.7-0.8L252.6,183.4L252.6,183.4z"/>
<path class="st0" d="M259.2,187.1c-0.2,0.2-0.5,0.5-0.9,0.8l-0.4-0.6c0.5-0.3,0.8-0.6,0.9-1.1h-0.7v-1.4h1.4v1.2
	C259.6,186.4,259.5,186.8,259.2,187.1z"/>
<path class="st0" d="M274.9,191.1h-1.1v-0.9h-7.2v0.9h-1.1V181h9.4L274.9,191.1L274.9,191.1z M273.8,189.2v-2h-1.7
	c-0.4,0-0.7-0.1-0.9-0.2c-0.2-0.2-0.3-0.4-0.3-0.8V182h-1.6v1.5c0,1-0.1,1.8-0.3,2.5c-0.2,0.6-0.6,1.3-1.2,2l-0.9-0.8
	c0.5-0.5,0.9-1,1.1-1.6c0.2-0.5,0.3-1.1,0.3-2.1V182h-1.6v7.2H273.8L273.8,189.2z M272,185.8c0,0.2,0.1,0.4,0.4,0.4h1.5V182H272
	V185.8z"/>
<path class="st0" d="M277.7,183c0,1.2-0.2,2.3-0.4,3.4l-0.9-0.2c0.3-1.1,0.4-2.1,0.4-3.2L277.7,183z M279.1,180.5v2.3l0.7-0.2
	c0.4,0.7,0.7,1.5,1,2.3l-0.9,0.2c-0.2-0.7-0.5-1.4-0.8-2.1v8.2h-1v-10.8H279.1z M282.5,182.1v-1.6h1.1v1.6h2.5v3.5h0.8v1h-2.6
	c0.2,0.8,0.5,1.4,0.8,1.9c0.5,0.7,1.1,1.2,2,1.7l-0.6,1.1c-1-0.7-1.8-1.4-2.3-2.2c-0.4-0.6-0.7-1.4-0.9-2.2
	c-0.2,0.7-0.3,1.4-0.6,1.9c-0.5,1.1-1.4,2-2.6,2.6l-0.6-1c1.1-0.6,1.9-1.5,2.3-2.5c0.2-0.4,0.3-0.8,0.4-1.3h-2.3v-1h2.5
	c0.1-0.5,0.1-1.1,0.1-1.7v-0.7h-2v-1H282.5L282.5,182.1z M283.6,183.9c0,0.6-0.1,1.2-0.1,1.7h1.5v-2.4h-1.4V183.9L283.6,183.9z"/>
<path class="st0" d="M298,184.9v1.1h-9.9v-1.1H298z"/>
<path class="st0" d="M301.9,180.4c0.5,0.6,0.9,1.3,1.2,2l-0.7,0.7c-0.3-0.7-0.6-1.3-0.8-1.6c-0.4,0.6-0.8,1.2-1.2,1.8h2.3v0.9h-0.8
	v1h1.2v0.9h-1.2v3.4c0.4-0.1,0.7-0.2,1.1-0.4v1c-1,0.4-2.2,0.7-3.4,0.9l-0.1-1c0.5,0,1.1-0.1,1.6-0.2v-3.6h-1.4v-0.9h1.4v-1H300
	v-0.5c-0.1,0.2-0.2,0.3-0.3,0.4l-0.3-1.1c0.6-0.7,1.2-1.6,1.7-2.6L301.9,180.4L301.9,180.4z M300.6,189.1l-0.8,0.2
	c-0.1-0.8-0.2-1.6-0.3-2.4l0.7-0.2C300.4,187.4,300.5,188.2,300.6,189.1z M302.8,186.8c0,0.7-0.1,1.4-0.2,2.1l-0.7-0.2
	c0.1-0.7,0.2-1.3,0.2-2L302.8,186.8z M304.4,181.3v-0.8h0.9v0.8h1.3v0.8h-1.3v0.7h1.5c0-0.8,0-1.6,0-2.5h0.9c0,0.9,0,1.7,0,2.5h1.9
	v0.9h-1.9c0,1.4,0.1,2.6,0.1,3.5c0.3-0.8,0.6-1.9,0.8-3.2l0.8,0.1c-0.3,1.6-0.7,2.8-1.1,3.7c-0.1,0.3-0.3,0.6-0.4,1c0,0,0,0.1,0,0.1
	c0.2,0.7,0.4,1.1,0.5,1.1c0.2,0,0.4-0.5,0.5-1.6l0.7,0.6c-0.2,1-0.4,1.6-0.6,1.8c-0.2,0.2-0.4,0.3-0.6,0.3c-0.3,0-0.5-0.1-0.7-0.4
	c-0.2-0.3-0.3-0.6-0.5-1c-0.3,0.5-0.7,0.9-1.1,1.4l-0.6-0.8c0.1-0.2,0.2-0.3,0.4-0.4c-0.8,0.2-1.8,0.5-2.9,0.7l-0.2-0.9
	c0.4-0.1,0.8-0.1,1.2-0.2v-0.9h-1V188h1v-0.7h-1.2v-0.8h3.2v0.8h-1.2v0.7h1.1v0.8h-1.1v0.7c0.4-0.1,0.8-0.2,1.2-0.3v0.5
	c0.3-0.4,0.5-0.7,0.7-1.1c-0.2-1-0.3-2.7-0.3-4.9h-3.9v-0.9h1.5v-0.7h-1.2v-0.8L304.4,181.3L304.4,181.3z M306.4,184.2v2h-3.2v-2
	H306.4z M305.6,184.8H304v0.6h1.6V184.8z M309.6,182.1l-0.8,0.6c-0.2-0.4-0.5-0.9-0.8-1.5l0.7-0.4
	C309,181.2,309.3,181.7,309.6,182.1z"/>
<path class="st1" d="M63.9,0.6h272.5"/>
<path class="st1" d="M63.9,214.4h272.5"/>
</svg>
