<?xml version="1.0" encoding="utf-8"?>
<!-- Generator: Adobe Illustrator 27.0.0, SVG Export Plug-In . SVG Version: 6.00 Build 0)  -->
<svg version="1.1" id="圖層_1" xmlns="http://www.w3.org/2000/svg" xmlns:xlink="http://www.w3.org/1999/xlink" x="0px" y="0px"
	 viewBox="0 0 173 103" style="enable-background:new 0 0 173 103;" xml:space="preserve">
<style type="text/css">
	.st0{fill:#E8D0A4;}
	.st1{fill:none;stroke:#571704;stroke-width:0.25;stroke-miterlimit:10;}
	.st2{fill:#834E1A;}
	.st3{fill:#40210F;}
</style>
<g>
	<rect x="0.1" class="st0" width="172.5" height="102.6"/>
	<line class="st1" x1="16.1" y1="31.8" x2="152.7" y2="31.8"/>
	<g>
		<g>
			<g>
				<path class="st2" d="M15.2,15.4c0.8-1,1.7-2.6,2-3.6l1.8,1.2c0,0.1-0.1,0.2-0.3,0.2c0,0-0.1,0-0.2,0c-0.8,0.8-2,1.8-3.3,2.4
					L15.2,15.4z M26.5,15.4c-0.1,0.1-0.2,0.2-0.4,0.2v2.3c0,0-0.1,0.1-0.2,0.2l0.9,0.6c-0.1,0.2-0.2,0.2-0.6,0.2h-7.4l-0.1-0.2h5.7
					l0.3-0.4h-0.3v-0.4h-3.5v0.1c0,0.1-0.5,0.4-1.2,0.4h-0.3v-2.7c-0.1,0-0.1,0-0.2,0c-0.3,0.4-0.6,0.9-1,1.4l0.5,0.2
					c0,0.1-0.1,0.2-0.4,0.2v4.8c0.1-0.3,0.3-0.6,0.7-0.7c0.4-0.2,0.9-0.6,0.9-1.2H20c0.2,0.5,0.3,1,0.3,1.4c0,0.9-0.5,1.5-1.1,1.5
					c-0.4,0-0.8-0.2-0.9-0.6v0.7c0,0.2-0.6,0.6-1.4,0.6h-0.3v-5.3c-0.4,0.4-0.9,0.7-1.3,1.1l-0.1-0.1c1-1.5,1.9-3.9,2.3-5.3l1.8,1
					v-0.9l1.6,0.7h0.9c0-0.4,0-0.9,0.1-1.4h-3l-0.1-0.2h3.1c0-0.6,0-1.3,0-1.8l2.2,0.2c0,0.2-0.2,0.3-0.5,0.4
					c-0.1,0.3-0.2,0.7-0.3,1.2h0.9l0.8-1.1l1.5,1.2c-0.1,0.2-0.2,0.2-0.6,0.2h-2.7c-0.1,0.5-0.2,1-0.4,1.4h1.3l0.6-0.9L26.5,15.4z
					 M24.1,21.3l0,0.9c0.5,0.2,0.5,0.3,0.5,0.5c0,0.6-0.4,0.9-1.5,0.9h-0.9c-1.3,0-1.6-0.3-1.6-1.6v-2l1.5,0.1
					c-0.2-0.4-0.5-0.8-0.9-1l0-0.1c0.2,0,0.4,0,0.6,0c1.4,0,1.9,0.6,1.9,1.1c0,0.5-0.4,0.9-0.9,0.9c-0.2,0-0.4-0.1-0.6-0.2
					c0-0.1-0.1-0.3-0.1-0.4h0V22c0,0.3,0,0.3,0.2,0.3h0.7C23.4,22.3,23.5,22.3,24.1,21.3L24.1,21.3z M20.9,15.3v2.3h0.4v-2.3H20.9z
					 M22.9,15.3h-0.5v2.3h0.5V15.3z M24,20.2c2,0.3,2.6,1.2,2.6,1.9c0,0.6-0.4,1.1-0.9,1.1c-0.2,0-0.5-0.1-0.7-0.3
					C25,21.9,24.6,20.9,24,20.2L24,20.2z M24,17.6h0.5v-2.3H24V17.6z"/>
				<path class="st2" d="M37.9,12l1.6,1.3c-0.1,0.1-0.2,0.2-0.5,0.3v9.8c0,0-0.4,0.5-1.6,0.5v-1h-7v0.4c0,0.1-0.2,0.7-1.6,0.7V12.2
					l1.7,0.7h6.8L37.9,12z M30.4,22.6h7v-9.5h-7V22.6z M30.6,19.8c0.6-0.1,2-0.3,3.3-0.5l0,0.2c-0.5,0.4-1.3,0.9-2.4,1.5
					c-0.1,0.2-0.2,0.3-0.3,0.3L30.6,19.8z M37.3,15.3c-0.1,0.2-0.2,0.2-0.5,0.2H35c0,0.8,0,1.5,0.1,2.1c0.2-0.5,0.3-1,0.4-1.5
					l1.7,0.6c-0.1,0.2-0.2,0.2-0.5,0.2c-0.3,1-0.7,1.8-1.1,2.4c0.2,0.5,0.5,0.9,0.6,0.9c0.1,0,0.5-1,0.7-1.4l0.1,0l-0.2,1.7
					c0.2,0.4,0.3,0.7,0.3,0.9c0,0.4-0.4,0.5-0.6,0.5c-1,0-1.6-1.3-1.7-1.6c-0.7,0.7-1.5,1.2-2.5,1.6L32.1,22
					c0.8-0.5,1.6-1.3,2.2-2.4c-0.2-0.8-0.4-1.7-0.5-2.6c-0.1,0.1-0.2,0.1-0.3,0.1v1.5c0,0-0.3,0.4-1.1,0.4v-0.5H32v0.4
					c0,0-0.1,0.4-1,0.4v-3.1l1.1,0.5h0.3l0.4-0.5l1,0.8c0-0.4-0.1-0.9-0.1-1.3h-3.1l0-0.2h3.2c0-0.6,0-1.2,0-1.8l1.8,0.2
					c0,0.2-0.1,0.2-0.4,0.3c0,0.4,0,0.9,0,1.3h0.4l0.5-0.6c0,0-0.1-0.1-0.1-0.1c0-0.3-0.1-0.7-0.2-0.9l0.1-0.1c1,0,1.4,0.3,1.4,0.7
					c0,0.2-0.2,0.5-0.5,0.6L37.3,15.3z M32,18.3h0.5v-1.5H32V18.3z"/>
				<path class="st2" d="M50.8,21.2l1.8,1.4c-0.1,0.1-0.2,0.2-0.6,0.2H41.3l-0.1-0.2h4.7v-8.5h-3.8L42,13.9h7.1l1-1.4l1.8,1.4
					c-0.1,0.1-0.3,0.2-0.6,0.2h-3.5v8.5h2L50.8,21.2z"/>
				<path class="st2" d="M65.3,17l-0.1,1.2c0.2,0.2,0.3,0.5,0.3,0.7c0,0.2-0.1,0.8-0.8,0.8c-0.2,0-0.5-0.1-0.7-0.2
					c-1.1-0.7-1.3-1.9-1.3-4h-0.4c0,0.5-0.1,0.9-0.2,1.3c0.5,0.3,0.7,0.7,0.7,1c0,0.4-0.3,0.8-0.7,0.8c-0.1,0-0.3,0-0.4-0.1
					c0-0.1-0.1-0.3-0.2-0.4c-0.5,0.7-1.3,1.2-2.5,1.7L59,19.6c1-0.7,1.5-1.5,1.8-2.5c-0.2-0.2-0.5-0.5-0.8-0.7l0.1-0.2
					c0.3,0,0.6,0,0.9,0.1c0-0.3,0-0.6,0.1-0.9h-1l-0.1-0.2H61c0-0.4,0-0.8,0-1.2h-0.1v-0.9h-2.1v0.6c0,0-0.1,0.1-0.2,0.1l1,0.7
					c-0.1,0.2-0.2,0.2-0.5,0.2h-1.3v0.8h0.5l0.6-0.8l1.1,0.8c-0.1,0.2-0.2,0.2-0.5,0.2h-1v0.3c0,0.1,0,0.1,0.1,0.1h0.4
					c0.2,0,0.4-0.1,0.5-0.2h0.1l0.1,0.2c0.3,0.2,0.4,0.2,0.4,0.4c0,0.4-0.3,0.6-0.9,0.6l0.8,0.6C59.6,18,59.4,18,59.2,18h-1.3v0.6
					c0.7,0,1.4-0.1,2.1-0.1l0,0.2c-1,0.3-2.4,0.7-4.4,1.3c-0.1,0.2-0.2,0.2-0.3,0.3l-0.7-1.5c0.4,0,1.1,0,1.9-0.1V18h-1.5l-0.1-0.2
					h1.6v-0.9l1.1,0.1c-0.1-0.2-0.1-0.6-0.1-1.1h-1.1l0.8,0.2c0,0.2-0.2,0.2-0.5,0.2c-0.3,0.6-1,1.1-2.3,1.4l-0.1-0.2
					c0.8-0.3,1.1-0.9,1.3-1.6h-1l-0.1-0.2h2v-0.8h-1.5l-0.1-0.2h1.5v-0.9l0.7,0.1v-0.6h-2.9l0-0.2h2.9v-1.3l2.1,0.2
					c0,0.2-0.1,0.3-0.4,0.3V13h2.1v-1.3l2.1,0.2c0,0.2-0.1,0.3-0.4,0.3V13h0.9l0.7-1l1.3,1c-0.1,0.1-0.2,0.2-0.5,0.2h-2.4v0.5
					c0,0.1-0.2,0.2-0.5,0.2l0.9,0.1c0,0.2-0.1,0.2-0.4,0.3c0,0.3,0,0.6,0,0.9h0.2l0.6-0.7l1.4,1c-0.1,0.1-0.2,0.2-0.4,0.2
					c0,0.2,0,0.4,0,0.5c0,1.6,0.4,1.8,0.5,1.8C64.8,18.1,65.1,17.3,65.3,17L65.3,17z M63.2,21l0.8-1l1.4,1c-0.1,0.2-0.2,0.2-0.6,0.2
					h-5c-0.5,0.4-1.2,0.8-1.8,1.1c1.1,0,2.3,0,3.6,0c-0.2-0.2-0.5-0.4-0.7-0.6l0-0.1c0.2,0,0.4,0,0.6,0c2,0,2.7,0.8,2.7,1.5
					c0,0.5-0.4,0.9-0.9,0.9c-0.1,0-0.3,0-0.5-0.1c-0.1-0.3-0.5-0.7-0.9-1.2c-1.3,0.3-3.2,0.7-5.9,1.1C56.1,23.9,56,24,55.8,24
					L55,22.3c0.5,0,1.2,0,2.1,0c0.1-0.4,0.3-0.8,0.4-1.1h-3.2L54.3,21H63.2z M62.3,18.8l1.4,1C63.7,20,63.5,20,63.2,20h-6.9
					l-0.1-0.2h5.3L62.3,18.8z M58,14.7l0.5-0.7c-0.1,0-0.5,0.2-0.7,0.2v0.5H58z M58.5,17.3l-0.5,0l-0.2,0v0.5h0.2L58.5,17.3z"/>
			</g>
		</g>
		<g>
			<g>
				<path class="st2" d="M72.9,16.8c0.7-0.9,1.4-2.2,1.7-3l1.5,1c0,0.1-0.1,0.1-0.3,0.1c0,0-0.1,0-0.1,0c-0.7,0.6-1.7,1.4-2.7,1.9
					L72.9,16.8z M82,16.8c-0.1,0.1-0.1,0.1-0.4,0.2v1.8c0,0-0.1,0.1-0.2,0.1l0.7,0.5c-0.1,0.1-0.2,0.1-0.5,0.1h-6l0-0.2h4.6l0.3-0.3
					h-0.2v-0.4h-2.9v0.1c0,0.1-0.4,0.4-1,0.4h-0.2V17c0,0-0.1,0-0.2,0c-0.2,0.3-0.5,0.7-0.8,1.1l0.4,0.2c0,0.1-0.1,0.2-0.3,0.2v3.9
					c0.1-0.3,0.3-0.5,0.5-0.6c0.3-0.1,0.7-0.5,0.7-1h0.1c0.2,0.4,0.3,0.8,0.3,1.2c0,0.7-0.4,1.2-0.9,1.2c-0.3,0-0.6-0.2-0.7-0.5v0.6
					c0,0.1-0.5,0.5-1.1,0.5H74v-4.3c-0.3,0.3-0.7,0.6-1.1,0.9l-0.1-0.1c0.8-1.2,1.6-3.1,1.9-4.3l1.5,0.8V16l1.3,0.5h0.7
					c0-0.3,0-0.7,0-1.1h-2.5l0-0.2h2.5c0-0.5,0-1,0-1.5l1.8,0.2c0,0.2-0.1,0.3-0.4,0.3c-0.1,0.3-0.1,0.6-0.2,0.9h0.7l0.7-0.9
					l1.2,0.9c-0.1,0.1-0.2,0.1-0.5,0.1h-2.2c-0.1,0.4-0.2,0.8-0.3,1.1h1.1l0.5-0.7L82,16.8z M80.1,21.5l0,0.8
					c0.4,0.2,0.4,0.2,0.4,0.4c0,0.5-0.3,0.7-1.2,0.7h-0.7c-1.1,0-1.3-0.3-1.3-1.3v-1.6l1.2,0.1c-0.2-0.3-0.4-0.6-0.7-0.9l0-0.1
					c0.2,0,0.3,0,0.5,0c1.2,0,1.6,0.5,1.6,0.9c0,0.4-0.3,0.8-0.7,0.8c-0.1,0-0.3-0.1-0.5-0.2c0-0.1-0.1-0.2-0.1-0.3h0v1.3
					c0,0.2,0,0.2,0.2,0.2h0.5C79.5,22.4,79.6,22.4,80.1,21.5L80.1,21.5z M77.5,16.7v1.9h0.4v-1.9H77.5z M79.1,16.7h-0.4v1.9h0.4
					V16.7z M80,20.7c1.6,0.3,2.1,1,2.1,1.6c0,0.5-0.3,0.9-0.7,0.9c-0.2,0-0.4-0.1-0.6-0.3C80.8,22.1,80.5,21.2,80,20.7L80,20.7z
					 M80,18.6h0.4v-1.9H80V18.6z"/>
				<path class="st2" d="M90.7,14l1.3,1c-0.1,0.1-0.2,0.2-0.4,0.2v7.9c0,0-0.3,0.4-1.3,0.4v-0.8h-5.7v0.3c0,0-0.2,0.6-1.3,0.6v-9.6
					l1.4,0.6h5.5L90.7,14z M84.6,22.6h5.7v-7.7h-5.7V22.6z M84.7,20.4c0.5,0,1.6-0.2,2.7-0.4l0,0.1c-0.4,0.3-1,0.7-2,1.3
					c0,0.1-0.1,0.2-0.2,0.2L84.7,20.4z M90.2,16.7c-0.1,0.1-0.2,0.1-0.4,0.1h-1.4c0,0.6,0,1.2,0.1,1.7c0.1-0.4,0.2-0.8,0.3-1.2
					l1.4,0.5c0,0.1-0.1,0.2-0.4,0.2c-0.3,0.8-0.6,1.4-0.9,2c0.2,0.4,0.4,0.8,0.5,0.8c0.1,0,0.4-0.8,0.5-1.1l0.1,0l-0.1,1.4
					c0.2,0.3,0.3,0.6,0.3,0.7c0,0.3-0.3,0.4-0.5,0.4c-0.8,0-1.3-1.1-1.4-1.3c-0.6,0.6-1.3,1-2,1.3L86,22.1c0.7-0.4,1.3-1.1,1.8-1.9
					c-0.2-0.6-0.3-1.4-0.4-2.2c0,0-0.1,0.1-0.2,0.1v1.3c0,0-0.2,0.3-0.9,0.3v-0.4h-0.4v0.3c0,0-0.1,0.3-0.8,0.3v-2.5l0.9,0.4h0.3
					l0.3-0.4l0.9,0.6c0-0.3,0-0.7-0.1-1.1h-2.5l0-0.2h2.6c0-0.5,0-0.9,0-1.4l1.4,0.1c0,0.1-0.1,0.2-0.3,0.2c0,0.4,0,0.7,0,1.1h0.3
					l0.4-0.5c0,0-0.1-0.1-0.1-0.1c0-0.3-0.1-0.6-0.2-0.7l0.1-0.1c0.8,0,1.1,0.3,1.1,0.5c0,0.2-0.2,0.4-0.4,0.5L90.2,16.7z
					 M85.9,19.1h0.4v-1.2h-0.4V19.1z"/>
				<path class="st2" d="M92.8,18.7c1.7-1.2,3-3.3,3.3-4.8l2.1,0.6c0,0.2-0.2,0.2-0.5,0.3c1,1.1,3.1,1.9,4.5,2.2l0,0.2
					c-0.6,0.2-1,0.9-1.1,1.5c-1.4-0.6-2.9-2.3-3.5-3.8c-0.7,1.6-2.6,3.1-4.6,4L92.8,18.7z M99.9,23.1l0.7-1l1.3,1
					c-0.1,0.1-0.2,0.1-0.5,0.1h-8.2l0-0.2h3.5v-2.3h-2.5l0-0.2h2.5v-2.2h-2.1l0-0.2h3.7l0.6-0.9l1.2,0.9c-0.1,0.1-0.2,0.1-0.5,0.1
					h-1.5v2.2h0.9l0.7-0.9l1.3,1c-0.1,0.1-0.2,0.1-0.5,0.1h-2.4v2.3H99.9z"/>
				<path class="st2" d="M110.3,19.8H110c0.5,0.9,1.3,1.6,2.2,2l0,0.1c-0.5,0.1-0.8,0.6-1,1.3c-0.7-0.7-1.1-1.8-1.3-3.2v3.2
					c0,0.1-0.6,0.5-1.1,0.5h-0.3v-2.2c-0.6,0.7-1.5,1.2-2.5,1.7l-0.1-0.2c1-0.8,1.7-2,2.1-3.2h0c0,0.1-0.4,0.4-1,0.4h-0.2v-0.5
					c-0.1,0.2-0.3,0.2-0.5,0.2s-0.4-0.1-0.5-0.3c0-0.5-0.1-1-0.3-1.4v5.1c0,0.1-0.6,0.4-1.1,0.4h-0.3v-4c-0.4,0.5-0.8,1-1.3,1.5
					l-0.1-0.1c0.7-1.2,1.1-2.9,1.3-4.4h-1.2l0-0.2h1.4v-2.6l1.7,0.2c0,0.1-0.1,0.2-0.4,0.3v2.2h0l0.5-0.9l0.8,0.8v-0.2l1.4,0.6h0.3
					v-1.2h-1.9l0-0.2h2v-1.5l1.7,0.2c0,0.1-0.1,0.2-0.4,0.3v1.1h0.5l0.6-0.9l1.1,1c-0.1,0.1-0.2,0.1-0.5,0.1h-1.8v1.2h0.3l0.5-0.7
					l1.3,1c-0.1,0.1-0.2,0.2-0.4,0.2v2.5c0,0-0.4,0.3-1.3,0.3V19.8z M105.5,16.7V18c0.7,0.2,1.1,0.5,1.3,0.8v-2.1
					c-0.1,0-0.2,0-0.3,0H105.5z M108.5,16.9h-0.4v1.2h0.4V16.9z M108.5,19.6v-1.3h-0.4v1.3H108.5z M110.3,16.9h-0.4v1.2h0.4V16.9z
					 M109.8,19.6h0.4v-1.3h-0.4V19.6z"/>
				<path class="st2" d="M112.8,16.6c1.3,0.2,1.7,0.7,1.7,1.1c0,0.4-0.3,0.7-0.7,0.7c-0.2,0-0.4-0.1-0.6-0.3
					C113.2,17.6,113,17,112.8,16.6L112.8,16.6z M113.4,20.5c0.2,0,0.2,0,0.3-0.2c0.2-0.4,0.2-0.4,1.9-5l0.1,0
					c-0.4,1.6-1.1,4.7-1.1,5.6c0,0.6,0.5,0.9,0.5,1.9c0,0.7-0.4,1-0.9,1c-0.2,0-0.5-0.1-0.6-0.5c0.1-0.5,0.1-1,0.1-1.4
					c0-1-0.2-1.1-0.7-1.2v-0.2C113.3,20.5,113.4,20.5,113.4,20.5L113.4,20.5z M113.2,14c1.5,0.1,1.9,0.6,1.9,1.1
					c0,0.4-0.3,0.8-0.7,0.8c-0.2,0-0.4-0.1-0.5-0.2C113.8,15,113.5,14.4,113.2,14L113.2,14z M121.3,18.3l0.8,0.9
					c-0.1,0.1-0.2,0.1-0.5,0.1H121v1.9c0,0-0.3,0.3-1.3,0.3v-0.6H119v1.1c0,0.9-0.2,1.5-1.7,1.6c0-1.1-0.5-1.3-1.3-1.4v-0.1h1.5
					c0.1,0,0.1-0.1,0.1-0.1v-1.1h-1.5l0-0.2h1.6v-1.5h-2.4l0-0.2h2.5v-1.5h-1.4l0-0.2h3.3l0.4-0.6l1.2,0.9c0,0.1-0.1,0.1-0.3,0.1v1
					L121.3,18.3z M121.3,15c-0.1,0.1-0.1,0.1-0.3,0.1c-0.1,0-0.3,0-0.4-0.1c-0.8,0.1-2.1,0.3-3.2,0.3c-0.4,1.1-1.1,2-1.8,2.6
					l-0.1-0.1c0.3-0.7,0.6-2,0.7-3.2l1.5,0.4c0.9-0.4,1.9-0.8,2.5-1.2L121.3,15z M118.1,15.5c0.9,0.4,1.3,0.8,1.3,1.2
					c0,0.4-0.3,0.7-0.7,0.7c-0.2,0-0.4-0.1-0.6-0.4c0-0.2,0-0.3,0-0.5C118.1,16.1,118.1,15.8,118.1,15.5L118.1,15.5z M119,17.7v1.5
					h0.6v-1.5H119z M119.6,20.8v-1.5H119v1.5H119.6z M119.8,15.3c1.6,0.2,2.2,0.9,2.2,1.4c0,0.4-0.3,0.8-0.6,0.8
					c-0.2,0-0.3-0.1-0.5-0.2C120.7,16.7,120.3,15.9,119.8,15.3L119.8,15.3z"/>
				<path class="st2" d="M125.3,16.2l1.2,1.1c-0.1,0.1-0.1,0.2-0.4,0.2c-0.4,2-1.4,4-3.4,5.3l-0.1-0.1c1.2-1.4,1.8-3.5,2.1-5.5h-1.9
					l0-0.2h1.8L125.3,16.2z M128,15.5c0.2,1.1,0.5,2,0.9,2.8c0.6-0.9,1.1-2,1.4-2.7l1.6,1.1c0,0.1-0.1,0.2-0.4,0.1
					c-0.6,0.5-1.5,1.2-2.4,1.7c0.8,1.4,1.8,2.1,2.9,2.6l0,0.1c-0.6,0.1-1,0.7-1.2,1.4c-1.5-1.4-2.3-3-2.7-6.5h0v5.7
					c0,0.9-0.2,1.7-1.8,1.8c0-1-0.3-1.4-1.3-1.5v-0.1h1.5c0.1,0,0.2-0.1,0.2-0.2v-8l1.8,0.2c0,0.1,0,0.2-0.4,0.3V15.5z"/>
				<path class="st2" d="M140.5,18.6c0,0.1-0.3,0.2-0.6,0.3c1.1,0.2,1.5,0.6,1.5,0.9c0,0.1,0,0.2-0.1,0.3l0.7,0.6
					c-0.1,0.1-0.2,0.1-0.5,0.1h-1.9v1.2c0,0.9-0.2,1.5-1.6,1.7c0-1-0.3-1.3-1.1-1.4v-0.1h1.2c0.1,0,0.1-0.1,0.1-0.2v-1.2h-5.6l0-0.2
					h5.6v-0.8L140,20c0,0.1,0,0.2-0.3,0.2v0.5h0.6l0.2-0.3c-0.1,0-0.3-0.1-0.4-0.2c-0.1-0.2-0.3-0.4-0.5-0.7
					c-1.2,0.3-2.9,0.5-5.4,0.9c-0.1,0.1-0.2,0.2-0.3,0.2l-0.7-1.4c0.7,0,1.9,0,3.4,0v-0.7h-1.2v0.1c0,0-0.2,0.5-1.3,0.5v-3.5
					l1.3,0.6h1.2v-0.9h-3.7l0-0.2h3.8v-1.2l1.7,0.2c0,0.1-0.1,0.2-0.4,0.3V15h2l0.6-0.9l1.2,0.9c-0.1,0.1-0.2,0.1-0.5,0.1h-3.3V16
					h1.2l0.5-0.7l1.3,1c-0.1,0.1-0.2,0.2-0.4,0.2V18.6z M134.3,21.1c1.6-0.1,2.2,0.5,2.2,1.1c0,0.4-0.3,0.8-0.8,0.8
					c-0.2,0-0.3-0.1-0.5-0.2C135.1,22.2,134.7,21.6,134.3,21.1L134.3,21.1z M136.6,16.2h-1.2v1h1.2V16.2z M135.4,18.3h1.2v-1h-1.2
					V18.3z M139.2,16.2h-1.3v1h1.3V16.2z M139.2,18.3v-1h-1.3v1H139.2z M137.9,19.2l1.3,0c-0.2-0.1-0.4-0.2-0.6-0.3l0-0.1
					c0.2,0,0.4,0,0.6,0v-0.3h-1.3V19.2z"/>
				<path class="st2" d="M150.7,14.6l1.1,1.2c-0.1,0.1-0.2,0.1-0.4,0.1c-0.3,0.3-0.9,0.7-1.3,0.9l0.3,0.2c-0.1,0.1-0.2,0.1-0.5,0.1
					H148c0.2,0.9,0.5,1.6,0.9,2.2c0.5-0.6,1-1.3,1.2-1.8l1.3,1c0,0.1-0.1,0.1-0.2,0.1c0,0-0.1,0-0.2,0c-0.5,0.3-1.3,0.7-2,0.9
					c0.7,0.9,1.7,1.5,2.7,1.9l0,0.1c-0.6,0.1-1,0.5-1.3,1.2c-1.5-1.2-2.3-2.6-2.6-5.6c-0.3,0.3-0.8,0.6-1.3,0.9
					c1.2,0.9,1.7,2.3,1.7,3.4c0,1.9-1.1,2.1-2,2.1c0-1-0.4-1.2-1.1-1.3v-0.1h1.2c0.1,0,0.2,0,0.3-0.1c0.1-0.2,0.2-0.4,0.2-0.8
					c-1.2,0.6-2.7,1.1-4.2,1.2l0-0.1c1.7-0.5,3.3-1.5,4.2-2.7l0-0.1c-1.1,0.5-2.5,1-3.9,1.2l0-0.1c1.3-0.5,2.7-1.5,3.4-2.4l0-0.1
					c-0.9,0.4-2.1,0.8-3.3,1l0-0.1c1.3-0.5,2.4-1.3,3.1-2h-2l0-0.2h4.4l0.7-0.9l0.8,0.6c0.1-0.3,0.1-0.8,0.1-1.2h-5.8
					c0,0.1,0,0.2,0,0.3c0,0.7-0.4,1.2-0.9,1.2c-0.4,0-0.7-0.2-0.7-0.7c0-0.3,0.2-0.6,0.5-0.7c0.3-0.1,0.8-0.5,0.8-1h0.1
					c0.1,0.2,0.1,0.4,0.2,0.6h2.2v-1.5l1.8,0.2c0,0.1-0.1,0.2-0.4,0.3v1h2.1L150.7,14.6z"/>
			</g>
		</g>
	</g>
	<g>
		<g>
			<g>
				<path class="st3" d="M38.7,83.6h1.6c0.2-0.4,0.4-0.8,0.6-1.2l0.9,0.3c-0.2,0.3-0.4,0.6-0.6,0.9h2.4v0.8h-8.4v-0.8h2.5
					c-0.2-0.3-0.3-0.7-0.5-1l1-0.2C38.3,82.8,38.5,83.2,38.7,83.6z M39.3,90.2c0,0.3-0.1,0.5-0.2,0.7c-0.1,0.1-0.3,0.2-0.5,0.2h-0.9
					l-0.2-0.9l0.8,0.1c0.2,0,0.2-0.1,0.2-0.4v-0.7h-2.1v2.1h-0.8V85h3.6V90.2z M38.5,86.8v-0.9h-2.1v0.9H38.5z M38.5,88.5v-0.9h-2.1
					v0.9H38.5z M41,85.3v4.4h-0.9v-4.4H41z M43,84.9v5.5c0,0.3-0.1,0.6-0.2,0.7c-0.1,0.1-0.4,0.2-0.8,0.2h-1.2l-0.2-0.9
					c0.4,0,0.8,0.1,1.1,0.1c0.2,0,0.4-0.1,0.4-0.2v-5.3H43z"/>
				<path class="st3" d="M52.3,82.8v1.9h-3.2c0,0.2-0.1,0.3-0.1,0.5h3.5v0.7h-3.7c0,0.2-0.1,0.3-0.1,0.5h2.9v4.2h1v0.7h-8.2v-0.7h1
					v-4.2h2.4c0-0.1,0.1-0.3,0.1-0.5h-3.4v-0.7h3.6c0-0.2,0.1-0.3,0.1-0.5h-3.4v-1.9H52.3z M47.1,83.4h-1.5v0.6h1.5V83.4z
					 M50.9,87.4v-0.5h-4.6v0.5H50.9z M50.9,88.4V88h-4.6v0.5H50.9z M50.9,89.4V89h-4.6v0.5H50.9z M50.9,90.4V90h-4.6v0.4H50.9z
					 M49.3,83.4h-1.5v0.6h1.5V83.4z M51.6,83.4h-1.5v0.6h1.5V83.4z"/>
				<path class="st3" d="M55.1,84.3c-0.1,0.3-0.1,0.6-0.2,0.8c0.2,0.1,0.5,0.3,0.7,0.4l-0.4,0.6c-0.2-0.2-0.4-0.3-0.5-0.5
					c-0.2,0.3-0.4,0.7-0.7,1.1l-0.5-0.6c0.3-0.3,0.5-0.6,0.6-0.9c0.1-0.3,0.2-0.6,0.3-1.1L55.1,84.3z M56.8,84.3
					c-0.1,0.4-0.1,0.7-0.2,0.9c0.3,0.2,0.5,0.5,0.7,0.8l-0.4,0.7c-0.2-0.3-0.4-0.5-0.5-0.7c-0.1,0.3-0.3,0.6-0.5,0.9H56v0.6h1.5v0.7
					H56v0.3c0.5,0.3,1,0.6,1.5,0.9L57,90c-0.3-0.3-0.7-0.6-1-0.8v2h-0.7V89c0,0,0,0.1-0.1,0.1c-0.3,0.5-0.8,1-1.3,1.3l-0.3-0.9
					c0.6-0.4,1.1-0.9,1.5-1.4h-1.5v-0.7h1.6v-0.6h0.6l-0.4-0.6c0.2-0.3,0.4-0.6,0.5-0.9c0.1-0.3,0.2-0.6,0.3-1.1L56.8,84.3z
					 M56,83.3h1.4v0.7h-3.8v-0.7h1.6c-0.1-0.2-0.2-0.5-0.4-0.7l0.8-0.1C55.8,82.7,55.9,83,56,83.3z M59.4,82.9
					c-0.1,0.5-0.3,1-0.5,1.4h1.3c-0.2-0.5-0.4-0.9-0.5-1.2l0.7-0.2c0.2,0.4,0.4,0.8,0.6,1.2l-0.5,0.3h1.4V85h-1.2v1.1h1.1v0.7h-1.1
					V88h1.1v0.7h-1.1V90h1.2v0.7h-3.1v0.5H58V86c-0.1,0.2-0.3,0.4-0.4,0.6l-0.2-1c0.6-0.8,1-1.8,1.2-3L59.4,82.9z M59.9,85h-1.1v1.1
					h1.1V85z M59.9,86.8h-1.1V88h1.1V86.8z M59.9,90v-1.3h-1.1V90H59.9z"/>
				<path class="st3" d="M66,90.5c-0.5,0.2-0.9,0.3-1.3,0.4c-0.4,0.1-1,0.2-1.7,0.3l-0.4-0.8c0.7-0.1,1.2-0.2,1.7-0.2
					c0.5-0.1,0.9-0.2,1.2-0.3L66,90.5z M66.6,83.3c-0.8,0.1-1.7,0.1-2.6,0.1v0.3c0,0.1,0,0.1,0,0.2h2.8v0.7h-1v1h1.2l-0.4-0.4
					c0.2-0.2,0.4-0.4,0.5-0.6c0.1-0.2,0.1-0.5,0.2-0.7v-1.1c1.2,0,2.2-0.1,3.1-0.3l0.4,0.8c-0.8,0.1-1.7,0.2-2.7,0.2v0.5h2.8v0.7
					h-1.2v1.1H70v4.1h-6.3v-4.1h1.3v-1h-1c0,0.2-0.1,0.3-0.1,0.5c-0.1,0.4-0.3,0.8-0.6,1.2l-0.6-0.6c0.2-0.3,0.4-0.6,0.5-0.9
					c0.1-0.3,0.1-0.7,0.2-1.1v-1c1.2,0,2.2-0.1,3-0.2L66.6,83.3z M69.2,86.8v-0.5h-4.8v0.5H69.2z M69.2,88v-0.5h-4.8V88H69.2z
					 M69.2,88.5h-4.8v0.6h4.8V88.5z M68.8,85.6v-1.1h-1c0,0.1-0.1,0.3-0.1,0.4c-0.1,0.2-0.2,0.5-0.4,0.7H68.8z M70.9,90.5l-0.3,0.8
					c-1-0.3-2-0.6-3.1-0.7l0.4-0.7C68.8,90,69.8,90.2,70.9,90.5z"/>
				<path class="st3" d="M76.3,82.6c-0.1,0.3-0.2,0.6-0.3,0.9h3.3v7.7h-0.9v-0.5h-5.1v0.5h-0.8v-7.7h2.7c0.1-0.3,0.2-0.6,0.3-1
					L76.3,82.6z M78.4,85.4v-1.1h-5.1v1.1H78.4z M78.4,87.5v-1.3h-5.1v1.3H78.4z M78.4,89.8v-1.4h-5.1v1.4H78.4z"/>
				<path class="st3" d="M85.3,83.4c-0.5,0.1-1,0.2-1.7,0.2v0.6h1.9v0.7h-1.9v0.5h1.8v3h-1.8v0.6h1.6v0.6h-1.6v0.7
					c0.6,0,1.1-0.1,1.6-0.2v0.3c0.5-0.9,0.9-1.8,1.2-2.7c0.2-0.6,0.3-1.5,0.3-2.6h-1v-0.8h1c0-0.1,0-0.3,0-0.5v-1.3h0.8v1.3
					c0,0.2,0,0.3,0,0.5h1.6c0,3.3,0,5.2-0.1,5.8c-0.1,0.5-0.2,0.8-0.3,0.9c-0.2,0.2-0.5,0.3-0.9,0.3c-0.2,0-0.4,0-0.7,0L87,90.3
					c0.3,0.1,0.5,0.1,0.8,0.1c0.2,0,0.4-0.2,0.4-0.6c0-0.5,0.1-2,0.1-4.7h-0.9c-0.1,1.1-0.2,2.1-0.3,2.9c-0.2,1.1-0.7,2.2-1.3,3.3
					l-0.6-0.5v0.1c-0.8,0.1-2.2,0.3-4.2,0.4l-0.1-0.8c0.7,0,1.4,0,2-0.1v-0.8h-1.6v-0.6h1.6v-0.6h-1.7v-3h1.7v-0.5h-2.1v-0.7h2.1
					v-0.6c-0.5,0-1,0-1.6,0L81,82.9c1.5,0,2.8-0.1,3.9-0.2L85.3,83.4z M82.9,86.6V86H82v0.6H82.9z M82.9,87.2H82v0.6h0.9V87.2z
					 M83.6,86.6h1V86h-1V86.6z M84.6,87.2h-1v0.6h1V87.2z"/>
				<path class="st3" d="M98,83.4c-1.8,0.3-3.9,0.5-6.2,0.5v1.2h5.7v0.7c-0.3,1.3-0.9,2.4-1.7,3.3c0.7,0.5,1.5,0.9,2.5,1.3l-0.5,0.9
					c-1.1-0.5-2-1-2.6-1.5c-0.8,0.6-1.8,1.1-3.2,1.5l-0.5-0.9c1.2-0.4,2.2-0.8,3-1.3c-0.1-0.1-0.2-0.2-0.2-0.2
					c-0.8-0.8-1.3-1.8-1.6-2.9h-0.8v0.7c0,0.8-0.1,1.6-0.3,2.4c-0.2,0.7-0.5,1.4-0.9,2.1l-0.6-0.7c0.3-0.5,0.6-1.1,0.7-1.6
					c0.1-0.6,0.2-1.3,0.3-2.1v-3.6c2.6,0,4.8-0.2,6.6-0.6L98,83.4z M94.9,88.5c0.1,0.1,0.1,0.1,0.2,0.2c0,0,0.1-0.1,0.1-0.1
					c0.6-0.7,1-1.5,1.3-2.5h-3.1C93.8,87,94.3,87.8,94.9,88.5z"/>
				<path class="st3" d="M101.1,86l-0.5,0.9c-0.5-0.5-0.9-0.9-1.4-1.1l0.5-0.7C100.1,85.3,100.6,85.6,101.1,86z M101.3,87.8
					c-0.4,1.3-0.9,2.4-1.5,3.4l-0.6-0.7c0.5-0.7,0.9-1.8,1.4-3.2L101.3,87.8z M101.5,83.7l-0.5,0.9c-0.5-0.5-0.9-0.9-1.4-1.2
					l0.5-0.7C100.5,83,101,83.3,101.5,83.7z M103.3,83c-0.1,0.3-0.2,0.6-0.3,0.8h0.9v-1.3h0.9v1.3h2.2v0.9h-2.2v1.5h2.5v0.9h-2.1
					v2.7c0,0.2,0.1,0.3,0.3,0.3h0.5c0.1,0,0.2,0,0.3-0.1c0.1-0.1,0.1-0.6,0.2-1.4l0.8,0.3c-0.1,1.1-0.2,1.7-0.4,1.8
					c-0.1,0.2-0.4,0.3-0.8,0.3h-1c-0.3,0-0.5-0.1-0.6-0.2c-0.2-0.2-0.2-0.4-0.2-0.7v-3h-0.8v0.1c0,1.1-0.2,2-0.6,2.7
					c-0.3,0.6-0.9,1.1-1.7,1.4l-0.5-0.8c0.7-0.3,1.2-0.7,1.5-1.2c0.3-0.5,0.4-1.2,0.4-2.1v-0.1h-1.5v-0.9h2.7v-1.5h-1.3
					c-0.2,0.4-0.5,0.8-0.9,1.3l-0.7-0.6c0.4-0.4,0.7-0.8,0.9-1.2c0.2-0.4,0.4-0.9,0.6-1.5L103.3,83z"/>
				<path class="st3" d="M110.6,84.8v0.6c-0.3,0.5-0.7,1.1-1.1,1.7h1.1v0.5c-0.1,0.6-0.3,1.1-0.4,1.5c0.3,0.4,0.6,0.7,0.8,0.8
					c0.2,0.1,0.5,0.2,0.9,0.3c0.4,0.1,1.3,0.1,2.6,0.1c0.9,0,1.7,0,2.1-0.1l-0.1,0.9c-2.5,0-4,0-4.6-0.1c-0.5-0.1-0.9-0.2-1.2-0.4
					c-0.3-0.1-0.5-0.4-0.9-0.8c-0.3,0.5-0.6,1-1,1.5l-0.6-0.7c0.5-0.5,0.8-0.9,1-1.3c0.2-0.2,0.3-0.7,0.5-1.4h-1.2v-0.7
					c0.4-0.4,0.8-0.9,1.2-1.6h-1.4v-0.7H110.6z M110.3,83.9l-0.6,0.6c-0.3-0.4-0.6-0.9-1.1-1.5l0.6-0.6
					C109.6,83,110,83.4,110.3,83.9z M115.8,85.6h0.4v3.5c0,0.3-0.1,0.5-0.2,0.7c-0.1,0.1-0.3,0.2-0.5,0.2h-0.9l-0.2-0.8l0.7,0
					c0.2,0,0.3-0.1,0.3-0.3v-2.5h-3.6v3.4h-0.8v-4.2h0.5v-2.9h4.4V85.6z M112.9,85.6v-1.4h2.1v-0.7h-2.9v2.1H112.9z M114.7,86.9V89
					h-2.4v-2.2H114.7z M114,87.5h-0.9v0.9h0.9V87.5z M115,85.6v-0.7h-1.4v0.7H115z"/>
				<path class="st3" d="M119.1,86l-0.5,0.8c-0.4-0.4-0.8-0.8-1.2-1.1l0.4-0.7C118.2,85.3,118.7,85.6,119.1,86z M119.1,87.8
					c-0.3,1.4-0.7,2.6-1.1,3.5l-0.6-0.6c0.4-0.8,0.7-1.9,1-3.3L119.1,87.8z M119.3,83.7l-0.6,0.6c-0.3-0.3-0.7-0.7-1.3-1.1l0.6-0.6
					C118.5,83.1,119,83.4,119.3,83.7z M122.6,82.5v0.3h2.8v0.6h-2.8v0.4h3.1c-0.1,0.5-0.2,1-0.4,1.5l-0.8-0.2
					c0.1-0.2,0.2-0.4,0.3-0.7h-2.2v0.4l1.7-0.1l0.1,0.6l-1.8,0.1v0.1c0,0.1,0.1,0.2,0.3,0.2h2.4v0.6h-2.6c-0.3,0-0.5,0-0.7-0.1
					c-0.2-0.1-0.2-0.2-0.2-0.4v-0.2l-1.5,0.1V87c0,0.7-0.1,1.3-0.2,2c-0.1,0.7-0.4,1.4-0.7,2.2l-0.6-0.6c0.3-0.6,0.5-1.2,0.6-1.8
					c0.1-0.6,0.1-1.2,0.1-1.8v-3.2h2.2v-1.3H122.6z M121.3,89.5c-0.2,0.6-0.5,1.1-0.8,1.5l-0.6-0.5c0.3-0.4,0.6-0.8,0.8-1.3
					L121.3,89.5z M121.8,84.4h-1.5V85l1.5-0.1V84.4z M125.1,86.6v2.3h-2.1c0.3,0.2,0.6,0.4,0.8,0.6l-0.5,0.6c-0.2-0.2-0.6-0.5-1-0.8
					l0.4-0.4h-2.2v-2.3H125.1z M122.5,87.5v-0.4h-1.2v0.4H122.5z M122.5,88h-1.2v0.4h1.2V88z M122.1,89.2v1.1c0,0.1,0.1,0.2,0.2,0.2
					h0.6c0.3,0,0.5,0,0.6-0.1c0.1,0,0.2-0.2,0.3-0.6l0.7,0.2c-0.1,0.5-0.2,0.8-0.5,0.9c-0.2,0.1-0.5,0.1-1,0.1h-1
					c-0.2,0-0.4-0.1-0.5-0.2c-0.1-0.1-0.2-0.3-0.2-0.5v-1.3H122.1z M123.2,87.5h1.2v-0.4h-1.2V87.5z M124.4,88h-1.2v0.4h1.2V88z
					 M125.8,90.5l-0.7,0.5c-0.2-0.4-0.4-0.9-0.7-1.5l0.6-0.4C125.3,89.6,125.6,90.1,125.8,90.5z"/>
				<path class="st3" d="M130.2,82.8v2.3l0.7,0.1c-0.1,0.3-0.2,0.6-0.4,0.8h2.2c-0.1-0.2-0.3-0.3-0.4-0.5l0.7-0.3
					c0.3,0.2,0.5,0.5,0.7,0.7h1v0.7h-2.4c0.3,0.3,0.5,0.5,0.8,0.6c0.4,0.2,0.9,0.4,1.6,0.7l-0.4,0.8c-0.1,0-0.2-0.1-0.3-0.1v2.6
					h-0.8v-0.3h-1.6v0.3H131v-3.1h2c-0.2-0.1-0.4-0.2-0.6-0.4c-0.3-0.2-0.7-0.6-1-1H130c-0.1,0.2-0.2,0.3-0.4,0.4
					c-0.3,0.3-0.8,0.7-1.4,1h2v3.1h-0.8v-0.3h-1.4v0.3h-0.8v-2.6c-0.1,0.1-0.2,0.1-0.4,0.2l-0.4-0.8c1-0.4,1.8-0.7,2.3-1.2
					c0,0,0.1,0,0.1-0.1h-2.4V86h3c0.2-0.2,0.3-0.5,0.4-0.8h-2.8v-2.4H130.2z M129.4,83.5H128v0.9h1.4V83.5z M129.5,90.2v-1.3h-1.4
					v1.3H129.5z M134.1,82.8v2.4H131v-2.4H134.1z M133.3,83.5h-1.6v0.9h1.6V83.5z M133.3,90.2v-1.3h-1.6v1.3H133.3z"/>
			</g>
		</g>
		<g>
			<g>
				<path class="st3" d="M57.1,45.3c0.1,0.1,0.2,0.2,0.3,0.2c0.7,0.4,1.4,0.8,2.1,1.2c0.8,0.4,1.6,0.9,2.3,1.3
					c0.6,0.3,1.2,0.7,1.8,1c0.7,0.4,1.4,0.8,2.1,1.2c0.5,0.3,1,0.6,1.5,0.8c0.5,0.3,0.9,0.7,1.3,1.1c0.3,0.4,0.6,0.8,0.8,1.2
					c0.4,0.6,0.6,1.3,0.7,2.1c0,0.3,0.1,0.7,0.1,1c0,0.6-0.1,1.2-0.3,1.8c-0.2,0.7-0.5,1.4-1,2c-0.6,0.8-1.4,1.5-2.3,2
					c-0.6,0.3-1.2,0.5-1.8,0.6c-0.3,0.1-0.7,0.1-1,0.1c-0.6,0-1.2,0.1-1.7,0.2c-0.3,0.1-0.6,0.1-1,0.1c-0.2,0-0.4,0-0.6,0
					c-0.8,0-1.6-0.2-2.4-0.5c-0.7-0.3-1.4-0.8-1.9-1.3c-0.6-0.6-1.1-1.2-1.4-2c-0.2-0.5-0.4-1.1-0.5-1.7c-0.1-0.8-0.1-1.5-0.1-2.3
					c0-3.3,0-6.5,0-9.8c0,0,0-0.1,0-0.2c0.1,0.1,0.3,0.1,0.4,0.2c0.5,0.3,1,0.6,1.6,0.8c0.2,0.1,0.4,0.2,0.6,0.3
					c0.1,0,0.1,0,0.1-0.1C57,46.4,57,45.8,57.1,45.3C57.1,45.3,57.1,45.3,57.1,45.3z M61.5,51.2C61.5,51.2,61.5,51.3,61.5,51.2
					c0,1.1,0,2.1,0,3.1c0,0.1,0.1,0.1,0.1,0.2c0.4,0.2,0.7,0.4,1,0.7c0.5,0.6,0.7,1.3,0.6,2.1c-0.1,0.7-0.6,1.2-1.1,1.6
					c-0.6,0.4-1.3,0.4-1.9,0.2c-0.6-0.1-1-0.5-1.4-1c-0.2-0.3-0.4-0.6-0.4-0.9c0-1.5,0-2.9,0-4.4c0-1.2,0-2.5,0-3.7
					c0-0.1,0-0.2-0.1-0.2c-0.3-0.1-0.6-0.3-0.8-0.5c-0.5-0.3-0.9-0.5-1.4-0.8c-0.2-0.1-0.5-0.3-0.7-0.4c0,0.1,0,0.1,0,0.1
					c0,2.7,0,5.4,0,8.1c0,0.7,0,1.4,0,2.2c0,0.5,0.1,1,0.3,1.4c0.3,0.7,0.8,1.4,1.4,1.9c0.7,0.6,1.5,1.1,2.4,1.3
					c0.5,0.1,0.9,0.1,1.4,0.2c0.2,0,0.5,0,0.7-0.1c0.6-0.1,1.1-0.2,1.7-0.5c1-0.4,1.7-1.2,2.3-2.1c0.6-0.8,0.8-1.7,0.8-2.7
					c0-0.5,0-1-0.1-1.5c-0.1-1-0.7-1.8-1.4-2.6c-0.5-0.5-1-1-1.6-1.3C62.8,51.5,62.2,51.3,61.5,51.2z"/>
				<path class="st3" d="M115.8,53.4c-0.1,0-0.3,0-0.4,0c-0.7,0-1.3,0-2,0c-0.1,0-0.1,0-0.2,0c0,0.1,0,0.1,0,0.2c0,1.6,0,3.3,0,4.9
					c0,1.4,0,2.8,0,4.2c0,0.2,0,0.2-0.2,0.2c-1.6,0-3.1,0-4.7,0c-0.2,0-0.2-0.1-0.2-0.2c0-3,0-6,0-9c0-0.1,0-0.2,0-0.2
					c-0.8,0-1.6,0-2.5-0.1c0.1-0.2,0.1-0.4,0.2-0.5c0.3-0.8,0.6-1.6,0.8-2.4c0.2-0.5,0.3-1,0.5-1.4c0-0.1,0.1-0.2,0.3-0.2
					c2.5,0,5.1,0,7.6,0c0.3,0,0.6,0,0.8,0C115.8,50.4,115.8,51.9,115.8,53.4z"/>
				<path class="st3" d="M84.7,48.9c0.1,0,0.1,0,0.2,0c1.6,0,3.2,0,4.8,0c0.1,0,0.2,0,0.2,0.2c0.4,1.3,0.9,2.6,1.3,3.9
					c0.2,0.6,0.4,1.3,0.7,1.9c0,0.1,0.1,0.1,0.1,0.2c0.1-0.4,0.2-0.7,0.3-1c0.3-1.3,0.7-2.6,1-3.8c0.1-0.4,0.2-0.8,0.3-1.2
					c0-0.1,0.1-0.1,0.2-0.1c1.2,0,2.5,0,3.7,0c0.2,0,0.2,0.1,0.2,0.2c0.1,0.7,0.3,1.3,0.4,2c0.3,1.3,0.6,2.6,0.9,4c0,0,0,0,0,0
					c0-0.1,0.1-0.1,0.1-0.1c0.3-0.7,0.5-1.5,0.8-2.2c0.4-1.2,0.9-2.4,1.3-3.7c0.1-0.2,0.1-0.2,0.3-0.2c1.6,0,3.2,0,4.7,0
					c0.1,0,0.1,0,0.2,0c-0.1,0.3-0.2,0.5-0.3,0.8c-0.3,0.7-0.5,1.5-0.8,2.2c-0.5,1.3-0.9,2.6-1.4,3.9c-0.4,1-0.7,2-1.1,3.1
					c-0.4,1.3-0.9,2.5-1.3,3.8c-0.1,0.2-0.1,0.3-0.4,0.3c-1.3,0-2.6,0-3.9,0c-0.2,0-0.2,0-0.3-0.2c-0.3-1.3-0.5-2.6-0.8-3.9
					c-0.2-1-0.4-2-0.7-3.1c0,0,0,0,0-0.1c-0.1,0.3-0.2,0.6-0.2,0.8c-0.3,1.3-0.7,2.6-1,3.9c-0.2,0.8-0.4,1.6-0.6,2.4
					c0,0.1-0.1,0.2-0.2,0.2c-1.3,0-2.6,0-3.9,0c-0.1,0-0.2-0.1-0.2-0.2c-0.3-0.9-0.6-1.9-1-2.8c-0.5-1.6-1.1-3.1-1.6-4.7
					c-0.3-1-0.7-2-1-2.9C85.5,51.2,85.1,50.1,84.7,48.9C84.7,49,84.7,49,84.7,48.9z"/>
				<path class="st3" d="M83.1,55.8c0.2,0.1,0.4,0.3,0.6,0.4c0.4,0.2,0.8,0.4,1.1,0.8c0.4,0.5,0.6,1,0.7,1.6c0,0.3,0,0.5,0,0.8
					c0,0.9-0.3,1.6-0.9,2.3c-0.6,0.7-1.4,1.1-2.4,1.3c-0.2,0-0.5,0-0.7,0c-2.6,0-5.3,0-7.9,0c-0.2,0-0.2,0-0.2-0.2
					c0-4.5,0-9.1,0-13.6c0-0.2,0-0.2,0.2-0.2c0.4,0,0.7,0,1.1,0c2.3,0,4.5,0,6.8,0c0.7,0,1.4,0.3,2,0.7c0.7,0.5,1.1,1.2,1.2,2.1
					c0.2,1.3-0.2,2.4-0.9,3.4c-0.1,0.1-0.2,0.2-0.3,0.3C83.4,55.6,83.3,55.7,83.1,55.8z M77.8,59.9c0.7,0,1.5,0,2.2,0
					c0.3,0,0.5-0.2,0.6-0.5c0.1-0.3,0.1-0.7,0.1-1c0-0.2-0.2-0.4-0.4-0.5c-0.2-0.1-0.3-0.1-0.5-0.1c-0.6,0-1.2,0-1.8,0
					c-0.1,0-0.1,0-0.2,0C77.8,58.5,77.8,59.2,77.8,59.9z M77.8,54.3c0.5,0,1,0.1,1.5-0.1c0.2-0.1,0.4-0.1,0.5-0.3
					c0.2-0.4,0.2-0.8,0-1.1c-0.1-0.1-0.2-0.2-0.3-0.2c-0.2-0.1-0.4-0.1-0.7-0.1c-0.3,0-0.7,0-1.1,0C77.8,53.1,77.8,53.7,77.8,54.3z"
					/>
				<path class="st3" d="M69.5,67.5c0-0.2,0.1-0.4,0.1-0.6c0.1-0.4,0.2-0.8,0.3-1.2c0-0.1,0.1-0.1,0.2-0.1c0.1,0,0.2,0,0.2,0.1
					c0.1,0.4,0.2,0.7,0.2,1.1c0.1,0.2,0.1,0.5,0.2,0.7c0.1-0.2,0.1-0.5,0.2-0.7c0.1-0.4,0.1-0.7,0.2-1.1c0-0.2,0.1-0.2,0.3-0.1
					c-0.1,0.4-0.2,0.8-0.3,1.2c-0.1,0.3-0.2,0.7-0.2,1c0,0.1-0.1,0.1-0.2,0.2c-0.1,0-0.2-0.1-0.2-0.2c-0.1-0.6-0.3-1.1-0.4-1.7
					c0,0,0,0,0-0.1c0,0.1-0.1,0.3-0.1,0.4c-0.1,0.5-0.2,0.9-0.3,1.4c0,0.1-0.1,0.1-0.2,0.1c-0.1,0-0.1-0.1-0.2-0.2
					c-0.1-0.7-0.3-1.4-0.5-2.1c0-0.1,0-0.2,0.1-0.2c0.1,0,0.2,0,0.2,0.1C69.2,66.3,69.3,66.8,69.5,67.5
					C69.4,67.4,69.4,67.5,69.5,67.5C69.4,67.5,69.4,67.5,69.5,67.5z"/>
				<path class="st3" d="M56.8,66.7c0.3,0.2,0.4,0.5,0.3,0.9C57,67.9,56.8,68,56.5,68c-0.3,0-0.6,0-0.8,0c-0.1,0-0.1,0-0.1-0.2
					c0-0.7,0-1.4,0-2.1c0-0.1,0-0.2,0.2-0.2c0.3,0,0.6,0,1,0c0.2,0,0.3,0.1,0.3,0.3C57.1,66.2,57.1,66.5,56.8,66.7z M55.8,67.7
					c0.2,0,0.4,0,0.6,0c0.2,0,0.4-0.1,0.4-0.3c0-0.3-0.1-0.5-0.3-0.5c-0.2,0-0.5,0-0.7,0C55.8,67.2,55.8,67.5,55.8,67.7z M55.8,65.9
					c0,0.3,0,0.5,0,0.8c0.2,0,0.5,0,0.7,0c0.2,0,0.3-0.2,0.3-0.3c0-0.2-0.1-0.3-0.2-0.4C56.3,65.9,56.1,65.9,55.8,65.9z"/>
				<path class="st3" d="M111.5,67c-0.2,0-0.3,0-0.5,0c-0.1,0-0.1,0-0.1-0.1c0-0.1,0-0.2,0.2-0.1c0.2,0,0.4,0,0.6,0
					c0.1,0,0.2,0,0.2,0.2c0,0.3,0,0.6,0,1c0,0.1,0,0.1-0.1,0.2c0,0-0.1-0.1-0.1-0.1c0,0,0-0.1,0-0.1c0,0-0.1,0-0.1,0.1
					c-0.3,0.4-1,0.3-1.3-0.2c-0.3-0.6-0.3-1.2,0-1.7c0.2-0.3,0.5-0.4,0.9-0.4c0.4,0.1,0.6,0.3,0.7,0.6c0,0.1,0,0.2,0,0.2
					c-0.1,0-0.2,0.1-0.2-0.1c-0.1-0.2-0.2-0.4-0.5-0.4c-0.3,0-0.5,0.1-0.7,0.3c-0.2,0.4-0.2,0.8-0.1,1.2c0.1,0.3,0.4,0.6,0.8,0.5
					C111.4,67.7,111.6,67.4,111.5,67z"/>
				<path class="st3" d="M97.9,66.2c0,0.3,0,0.5,0,0.8c0,0.3,0,0.6,0,0.9c0,0.1,0,0.2-0.1,0.1c0,0-0.1-0.1-0.1-0.1
					c0-0.7,0-1.5,0-2.2c0,0,0-0.1,0.1-0.1c0.1,0,0.2,0,0.2,0.1c0.1,0.1,0.2,0.3,0.3,0.5c0.2,0.4,0.5,0.8,0.7,1.3c0,0,0,0,0.1,0.1
					c0-0.1,0-0.2,0-0.2c0-0.5,0-1,0-1.5c0-0.1,0-0.2,0.1-0.2c0.1,0,0.1,0.1,0.1,0.2c0,0.7,0,1.4,0,2.1c0,0.1,0,0.2-0.1,0.2
					c-0.1,0-0.2,0.1-0.3-0.1c-0.2-0.3-0.3-0.6-0.5-0.9c-0.1-0.3-0.3-0.5-0.4-0.8C98,66.2,98,66.2,97.9,66.2
					C98,66.2,97.9,66.2,97.9,66.2z"/>
				<path class="st3" d="M82.2,66.8c0.2,0.2,0.2,0.4,0.2,0.7c0,0.2,0,0.3,0.1,0.5c-0.3,0-0.3,0-0.3-0.3c0-0.2,0-0.4-0.1-0.5
					c0-0.1-0.1-0.2-0.3-0.2c-0.2,0-0.4,0-0.7,0c0,0.3,0,0.6,0,0.9c0,0.1,0,0.2-0.1,0.2c-0.2,0-0.2-0.1-0.2-0.2c0-0.7,0-1.4,0-2.1
					c0-0.1,0-0.2,0.2-0.2c0.3,0,0.6,0,0.9,0c0.5,0.1,0.7,0.6,0.4,1C82.3,66.7,82.2,66.8,82.2,66.8z M81.1,66.7c0.2,0,0.5,0,0.7,0
					c0.2,0,0.3-0.2,0.3-0.4c0-0.3-0.1-0.4-0.3-0.5c-0.2,0-0.5,0-0.7,0C81.1,66.1,81.1,66.4,81.1,66.7z"/>
				<path class="st3" d="M108.6,66.8c0,0.3-0.1,0.7-0.3,1c-0.3,0.4-1.1,0.4-1.4-0.2c-0.3-0.5-0.3-1.3,0.1-1.8
					c0.3-0.4,1.1-0.4,1.4,0.1C108.5,66.2,108.6,66.5,108.6,66.8z M108.4,66.8c-0.1-0.2-0.1-0.5-0.2-0.7c-0.2-0.4-0.9-0.4-1,0
					c-0.2,0.4-0.3,0.9-0.1,1.3c0.1,0.2,0.3,0.4,0.6,0.4c0.2,0,0.4-0.1,0.5-0.3C108.3,67.3,108.3,67,108.4,66.8z"/>
				<path class="st3" d="M101.8,65.5c0.4,0,0.7,0.3,0.8,0.8c0.1,0.5,0.1,0.9-0.1,1.3c-0.2,0.3-0.5,0.5-0.8,0.5
					c-0.3,0-0.6-0.1-0.7-0.4c-0.3-0.6-0.4-1.2,0-1.8C101.1,65.7,101.4,65.5,101.8,65.5z M100.9,66.8c0.1,0.2,0.1,0.4,0.2,0.6
					c0.1,0.2,0.3,0.4,0.6,0.4c0.3,0,0.5-0.1,0.6-0.4c0.2-0.4,0.2-0.8,0-1.2c-0.1-0.2-0.3-0.4-0.5-0.4c-0.3,0-0.5,0.1-0.6,0.3
					C101.1,66.3,101,66.6,100.9,66.8z"/>
				<path class="st3" d="M62.1,65.6c0.4,0,0.7,0.2,0.7,0.6c0,0,0,0.1-0.1,0.1c-0.1,0-0.2,0.1-0.2-0.1c-0.1-0.4-0.4-0.5-0.7-0.3
					c-0.1,0.1-0.2,0.2-0.2,0.3c0,0.2,0,0.3,0.2,0.3c0.2,0.1,0.3,0.1,0.5,0.2c0.1,0.1,0.3,0.1,0.4,0.2c0.3,0.2,0.3,0.5,0.2,0.8
					c-0.1,0.3-0.3,0.4-0.6,0.4c-0.2,0-0.5,0-0.7-0.1c-0.2-0.1-0.3-0.4-0.3-0.6c0,0,0-0.1,0.1-0.1c0.1,0,0.2,0,0.2,0.1
					c0,0.2,0.1,0.3,0.3,0.4c0.2,0.1,0.6,0.1,0.8-0.1c0.1-0.2,0.1-0.5-0.1-0.6c-0.2-0.1-0.3-0.1-0.5-0.2c-0.1-0.1-0.3-0.1-0.4-0.2
					c-0.3-0.2-0.3-0.8,0-1C61.7,65.6,61.9,65.6,62.1,65.6C62.1,65.5,62.1,65.5,62.1,65.6z"/>
				<path class="st3" d="M94.8,66.6c0.4,0,0.7,0,1.1,0c0-0.3,0-0.6,0-0.9c0-0.1,0-0.2,0.1-0.2c0.2,0,0.1,0.1,0.1,0.2
					c0,0.7,0,1.4,0,2.1c0,0.1,0,0.2-0.1,0.2c-0.1,0-0.1-0.1-0.1-0.2c0-0.3,0-0.6,0-0.9c-0.4,0-0.7,0-1.1,0c0,0.1,0,0.2,0,0.3
					c0,0.2,0,0.5,0,0.7c0,0.1,0,0.2-0.1,0.2c-0.1,0-0.1-0.1-0.1-0.2c0-0.7,0-1.4,0-2.1c0-0.1,0-0.2,0.1-0.2c0.1,0,0.1,0,0.1,0.2
					C94.8,66,94.8,66.3,94.8,66.6z"/>
				<path class="st3" d="M88.8,65.9c0,0.3,0,0.5,0,0.8c0.3,0,0.6,0,0.9,0c0.1,0,0.2,0,0.1,0.2c0,0.1-0.1,0.1-0.2,0.1
					c-0.3,0-0.6,0-0.9,0c0,0.3,0,0.5,0,0.8c0.1,0,0.1,0,0.2,0c0.3,0,0.5,0,0.8,0c0.1,0,0.1,0,0.1,0.1c0,0.1,0,0.1-0.1,0.1
					c-0.4,0-0.8,0-1.2,0c0,0-0.1-0.1-0.1-0.1c0-0.7,0-1.5,0-2.2c0,0,0.1-0.1,0.1-0.1c0.4,0,0.8,0,1.2,0c0.1,0,0.1,0,0.1,0.1
					c0,0.1,0,0.1-0.1,0.1C89.5,65.9,89.2,65.9,88.8,65.9z"/>
				<path class="st3" d="M78.3,65.9c0,0.3,0,0.5,0,0.8c0.1,0,0.3,0,0.4,0c0.2,0,0.3,0,0.5,0c0.1,0,0.2,0,0.2,0.1
					c0,0.1-0.1,0.1-0.2,0.1c-0.3,0-0.6,0-0.9,0c0,0.3,0,0.5,0,0.8c0.3,0,0.7,0,1,0c0.1,0,0.2,0.1,0.2,0.2c0,0-0.1,0.1-0.1,0.1
					c-0.4,0-0.8,0-1.2,0c0,0-0.1-0.1-0.1-0.1c0-0.7,0-1.5,0-2.2c0,0,0.1-0.1,0.1-0.1c0.4,0,0.8,0,1.2,0c0.1,0,0.1,0.1,0.1,0.1
					c0,0.1,0,0.1-0.1,0.1C79,65.9,78.6,65.9,78.3,65.9z"/>
				<path class="st3" d="M58.8,66.6c0.3,0,0.6,0,0.9,0c0.1,0,0.2,0,0.2,0.1c0,0.1-0.1,0.1-0.2,0.1c-0.3,0-0.6,0-0.9,0
					c0,0.3,0,0.5,0,0.8c0.3,0,0.7,0,1,0c0.1,0,0.2,0.1,0.2,0.2c0,0-0.1,0.1-0.1,0.1c-0.4,0-0.8,0-1.2,0c-0.1,0-0.1-0.1-0.1-0.2
					c0-0.6,0-1.3,0-1.9c0-0.4,0-0.4,0.4-0.4c0.3,0,0.6,0,0.9,0c0.1,0,0.2,0,0.2,0.1c0,0.1-0.1,0.1-0.2,0.1c-0.3,0-0.6,0-1,0
					C58.8,66.1,58.8,66.4,58.8,66.6z"/>
				<path class="st3" d="M93.1,66.3c-0.1,0-0.2,0.1-0.3-0.1c-0.1-0.2-0.2-0.3-0.4-0.4c-0.3,0-0.5,0.1-0.6,0.3
					c-0.2,0.5-0.2,0.9,0.1,1.4c0.1,0.2,0.3,0.3,0.5,0.3c0.2,0,0.4-0.1,0.5-0.4c0,0,0-0.1,0-0.1c0.1-0.2,0.1-0.2,0.3-0.2
					c0,0.3-0.1,0.5-0.3,0.8c-0.4,0.3-1.1,0.2-1.3-0.3c-0.2-0.5-0.2-1,0-1.4c0.2-0.4,0.5-0.6,1-0.6C92.7,65.6,93,65.7,93.1,66.3z"/>
				<path class="st3" d="M74.3,68c-0.3,0-0.3,0-0.3-0.2c0-0.1,0-0.1-0.1-0.2c-0.1-0.3-0.1-0.3-0.5-0.3c0,0,0,0,0,0
					c-0.5,0-0.5,0-0.6,0.5C72.7,68,72.7,68,72.4,68c0-0.1,0-0.1,0.1-0.2c0.2-0.7,0.4-1.3,0.7-2c0-0.1,0.1-0.2,0.2-0.2
					c0.1,0,0.2,0.1,0.2,0.2C73.8,66.5,74,67.2,74.3,68C74.2,67.9,74.3,68,74.3,68z M73.7,67c-0.1-0.4-0.2-0.7-0.3-1c0,0,0,0,0,0
					c-0.1,0.3-0.2,0.7-0.3,1C73.2,67,73.4,67,73.7,67z"/>
				<path class="st3" d="M113.1,65.6c0.2-0.1,0.3,0,0.4,0.2c0.1,0.3,0.3,0.5,0.4,0.7c0,0.1,0.1,0.1,0.1,0.2c0,0,0.1-0.1,0.1-0.1
					c0.1-0.3,0.3-0.5,0.4-0.8c0.1-0.2,0.2-0.2,0.4-0.2c-0.1,0.3-0.3,0.5-0.4,0.8c-0.1,0.2-0.2,0.4-0.3,0.6c0,0.1,0,0.1,0,0.2
					c0,0.2,0,0.5,0,0.7c0,0.1-0.1,0.1-0.1,0.1c-0.1,0-0.1,0-0.1-0.1c0-0.1,0-0.3,0-0.4c0.1-0.4-0.1-0.6-0.3-0.9
					C113.4,66.2,113.2,65.9,113.1,65.6z"/>
				<path class="st3" d="M86.5,65.9c0,0.7,0,1.3,0,1.9c0,0,0,0.1,0,0.1c0,0.1-0.1,0.1-0.1,0.1c-0.1,0-0.1-0.1-0.1-0.1
					c0-0.2,0-0.5,0-0.7c0-0.4,0-0.9,0-1.3c-0.2,0-0.4,0-0.5,0c-0.1,0-0.2,0-0.2-0.1c0-0.1,0.1-0.1,0.2-0.1c0.4,0,0.9,0,1.3,0
					c0.1,0,0.2,0,0.2,0.1c0,0.1,0,0.1-0.2,0.1C86.9,65.9,86.7,65.9,86.5,65.9z"/>
				<path class="st3" d="M76,65.9c0,0.6,0,1.2,0,1.8c0,0.1,0,0.1,0,0.2c0,0.1,0,0.2-0.2,0.1c-0.1,0-0.1-0.1-0.1-0.2
					c0-0.6,0-1.2,0-1.8c0,0,0-0.1,0-0.2c-0.2,0-0.3,0-0.5,0c-0.1,0-0.2,0-0.2-0.1c0-0.1,0.1-0.1,0.2-0.1c0.4,0,0.9,0,1.3,0
					c0.1,0,0.2,0,0.2,0.1c0,0.1,0,0.1-0.2,0.1C76.4,65.9,76.2,65.9,76,65.9z"/>
				<path class="st3" d="M65.1,65.9c0,0.1,0,0.2,0,0.2c0,0.6,0,1.2,0,1.8c0,0.1,0,0.2-0.1,0.2c-0.1,0-0.1-0.1-0.1-0.2
					c0-0.6,0-1.2,0-1.8c0-0.1,0-0.1,0-0.2c-0.2,0-0.3,0-0.5,0c-0.1,0-0.1,0-0.1-0.1c0-0.1,0-0.2,0.2-0.1c0.4,0,0.9,0,1.3,0
					c0.1,0,0.2,0,0.2,0.1c0,0.1-0.1,0.1-0.2,0.1C65.4,65.9,65.3,65.9,65.1,65.9z"/>
				<path class="st3" d="M104.3,67.7c0.3,0,0.6,0,0.9,0c0.1,0,0.2,0,0.2,0.1c0,0.1-0.1,0.1-0.2,0.1c-0.3,0-0.7,0-1,0
					c-0.1,0-0.2,0-0.2-0.2c0-0.7,0-1.4,0-2.1c0-0.1,0-0.2,0.1-0.2c0.1,0,0.1,0.1,0.1,0.2c0,0.6,0,1.2,0,1.7
					C104.3,67.6,104.3,67.6,104.3,67.7z"/>
			</g>
		</g>
	</g>
</g>
</svg>
