<svg width="173" height="103" viewBox="0 0 173 103" fill="none" xmlns="http://www.w3.org/2000/svg">
<path d="M172.48 0.0703125H0V102.72H172.48V0.0703125Z" fill="#E8D0A4"/>
<path d="M18.96 31.8896H155.56" stroke="#581804" stroke-width="0.25" stroke-miterlimit="10"/>
<path d="M26.3 12.4199L27.98 13.7799C27.91 13.8799 27.75 13.9999 27.52 14.0499V23.2299C27.52 23.2299 27.07 23.7799 25.73 23.7799V22.4599H21.14V23.1599C21.14 23.4199 20.45 23.9299 19.65 23.9299H19.39V12.5999L21.25 13.3899H25.62L26.31 12.4199H26.3ZM25.73 13.6099H21.14V17.7299H25.73V13.6099ZM21.14 22.2499H25.73V17.9399H21.14V22.2499Z" fill="#844E1A"/>
<path d="M41.73 15.1401C41.63 15.2801 41.48 15.3201 41.14 15.3201H37.15C38.1 17.5501 40.02 19.1501 41.88 19.9301L41.84 20.0701C41.16 20.2201 40.6 20.8201 40.35 21.7301C38.59 20.4001 37.58 18.3001 36.98 15.3201H36.92V20.8001L37.67 19.5701L39.1 20.9001C39.02 21.0401 38.84 21.0801 38.52 21.0801H36.93V23.5001C36.93 23.6501 36.22 24.0101 35.49 24.0101H35.16V21.0801H33.07L33.02 20.8701H35.16V17.7501C34.09 19.4801 32.51 20.8901 30.42 21.8801L30.31 21.7301C32.14 20.1601 33.46 17.6501 34.05 15.3201H30.49L30.43 15.1201H35.16V11.8701L37.48 12.1001C37.46 12.3301 37.35 12.4601 36.93 12.5101V15.1201H39.14L40.07 13.7201L41.74 15.1401H41.73Z" fill="#844E1A"/>
<path d="M52.93 12.36L54.55 13.59C54.48 13.69 54.32 13.81 54.07 13.86V17.41C54.07 17.41 53.62 17.81 52.44 17.81V16.82H51.1V17.47C51.1 17.47 50.85 18.11 49.49 18.11V15.55C49.39 15.61 49.24 15.63 49.03 15.63H47.3C47.24 15.9 47.17 16.14 47.07 16.38C48.52 16.44 49.02 17.05 49.02 17.6C49.02 18.06 48.66 18.47 48.23 18.47C48.06 18.47 47.88 18.41 47.71 18.25C47.57 17.74 47.26 17.19 46.88 16.78C46.59 17.33 46.14 17.82 45.48 18.24L47.13 18.93H50.93L51.56 18.03L53.24 19.3C53.17 19.4 53.03 19.53 52.78 19.58V23.52C52.78 23.52 52.32 23.93 51.05 23.93V23.02H47.04V23.34C47.04 23.34 46.79 24.02 45.35 24.02V18.31C44.91 18.58 44.37 18.81 43.72 19.03L43.61 18.86C45.12 17.95 45.61 16.89 45.78 15.62H43.52L43.47 15.41H45.8C45.86 14.85 45.86 14.26 45.87 13.61H45.81C45.35 14.33 44.79 14.86 44.17 15.22L44.03 15.12C44.42 14.38 44.73 13.07 44.85 11.79L46.79 12.37C46.74 12.54 46.64 12.63 46.33 12.64C46.21 12.91 46.08 13.16 45.94 13.41H47.21L47.94 12.35L49.3 13.44C49.22 13.58 49.04 13.62 48.74 13.62H47.5C47.48 14.27 47.44 14.87 47.35 15.42H47.52L48.26 14.36L49.51 15.36V12.52L51.16 13.22H52.34L52.95 12.36H52.93ZM51.05 19.13H47.04V20.81H51.05V19.13ZM47.04 22.82H51.05V21.02H47.04V22.82ZM51.1 16.61H52.44V13.42H51.1V16.61Z" fill="#844E1A"/>
<path d="M58.53 21.0798C58.66 21.4798 58.72 21.8298 58.72 22.1398C58.72 23.1798 58.09 23.7099 57.45 23.7099C56.94 23.7099 56.45 23.3898 56.45 22.8398C56.45 22.3698 56.82 22.0498 57.21 21.9198C57.72 21.8398 58.32 21.5498 58.39 21.0798H58.53ZM57.61 16.4799C57.53 16.6499 57.41 16.7398 57.29 16.7598L56.54 15.2898C56.98 15.2898 57.68 15.2599 58.52 15.2299V14.5098H57.15L57.09 14.3098H58.52V13.3898H56.83L56.77 13.1798H58.52V11.8398L60.5 12.0198C60.48 12.1698 60.4 12.2598 60.1 12.3098V13.1798H60.15L60.77 12.3398L61.95 13.2098V13.1798H63.53V11.8398L65.54 12.0198C65.52 12.1698 65.44 12.2798 65.14 12.3098V13.1798H65.53L66.17 12.2999L67.4 13.2098C67.32 13.3598 67.15 13.3898 66.85 13.3898H65.14V14.3098H65.35L65.96 13.4898L67.09 14.3298C67.01 14.4798 66.84 14.5098 66.55 14.5098H65.13V15.4799H65.74L66.38 14.5998L67.61 15.5098C67.53 15.6598 67.36 15.6898 67.06 15.6898H65.13V16.2999C65.13 16.2999 65.08 16.3598 65.01 16.4198L66.34 17.4099C66.28 17.4999 66.14 17.5998 65.92 17.6498V20.1998C65.92 20.1998 65.5 20.6599 64.25 20.6599V20.1098H57.6L57.54 19.9099H64.25V18.6698H58.04L57.98 18.4598H64.25V17.2598H57.69L57.63 17.0499H64.13L64.44 16.6098C64.04 16.6898 63.96 16.6898 63.51 16.6898V15.6898H61.86L61.8 15.4799H63.51V14.5098H62.31L62.25 14.3098H63.51V13.3898H61.97L61.92 13.2098C61.84 13.3598 61.67 13.3898 61.38 13.3898H60.07V14.3098H60.11L60.69 13.5198L61.8 14.3398C61.72 14.4898 61.55 14.5198 61.26 14.5198H60.07V15.1498L61.8 15.0598V15.2498C61.35 15.4198 60.79 15.5999 60.07 15.7999V16.4298C60.07 16.4298 59.76 16.8098 58.5 16.8098V16.2498L57.6 16.4898L57.61 16.4799ZM64.38 21.4599V22.4099C64.93 22.6299 65 22.6998 65 22.9298C65 23.5298 64.61 23.8499 63.1 23.8499H61.15C59.65 23.8499 59.32 23.5598 59.32 22.2598V20.8398L61.26 20.9698C61.11 20.7298 60.93 20.5098 60.74 20.3398L60.8 20.2598C60.98 20.2498 61.15 20.2298 61.29 20.2298C62.67 20.2298 63.15 20.7699 63.15 21.2699C63.15 21.7299 62.76 22.1698 62.29 22.1698C62.11 22.1698 61.91 22.1098 61.73 21.9398C61.63 21.6498 61.48 21.3098 61.3 21.0298C61.28 21.1198 61.19 21.1798 60.93 21.2198V22.2699C60.93 22.4299 61.05 22.5098 61.29 22.5098H63.13C63.64 22.5098 63.77 22.5098 64.32 21.4498H64.39L64.38 21.4599ZM64.52 20.9298C66.81 20.9898 67.55 21.8999 67.55 22.6599C67.55 23.2099 67.15 23.6798 66.66 23.6798C66.46 23.6798 66.24 23.5998 66.04 23.4198C65.78 22.5398 65.18 21.5598 64.46 21.0098L64.52 20.9198V20.9298Z" fill="#844E1A"/>
<path d="M83.35 18.1701L84.74 19.4201C84.65 19.5401 84.5 19.5901 84.22 19.6101C82.51 22.1901 80.39 23.4301 76.14 23.7601L76.11 23.6101C79.23 22.7801 81.32 21.3901 82.61 19.1201H80.77C80.34 19.4401 79.87 19.7501 79.35 20.0401C80.36 20.0801 80.71 20.5201 80.71 20.9201C80.71 21.3201 80.37 21.7201 79.97 21.7201C79.82 21.7201 79.65 21.6601 79.49 21.5101C79.39 21.0701 79.16 20.6201 78.84 20.2901C78.12 20.6301 77.34 20.9201 76.51 21.1201L76.46 21.0501C77.58 20.4901 78.62 19.5801 79.38 18.6801C78.47 18.9701 77.42 19.1701 76.2 19.2801L76.16 19.1301C78.79 18.3501 80.76 17.1101 82 15.3501H79.9C79.52 15.6301 79.1 15.8901 78.63 16.1401C78.78 16.1401 78.9 16.1401 79.03 16.1401C79.8 16.1401 80.09 16.4801 80.09 16.8401C80.09 17.2001 79.78 17.5801 79.4 17.5801C79.26 17.5801 79.13 17.5401 78.98 17.4301C78.83 17.0201 78.54 16.6101 78.22 16.3601C77.61 16.6501 76.95 16.8901 76.26 17.0601L76.21 16.9901C77.54 16.2601 78.73 14.9101 79.31 13.8301L81.35 14.3401C81.3 14.4901 81.17 14.5701 80.82 14.5801C80.61 14.7901 80.37 15.0001 80.11 15.2001H82L82.75 14.4301L84.12 15.6601C84.03 15.7701 83.88 15.8201 83.59 15.8401C82.94 16.6301 82.22 17.2901 81.35 17.8101L82.3 18.0501C82.24 18.2001 82.11 18.2901 81.76 18.2901C81.53 18.5201 81.28 18.7501 81 18.9701H82.59L83.35 18.1801V18.1701Z" fill="#844E1A"/>
<path d="M94.49 20.4404L94.47 22.0904C94.91 22.3004 94.97 22.3804 94.97 22.5904C94.97 23.1404 94.66 23.4804 93.47 23.4804H92.37C91.03 23.4804 90.75 23.1904 90.75 21.8604V18.0004H89.9C89.88 18.1704 89.78 18.2404 89.5 18.2604C89.35 20.6704 88.64 22.7504 85.81 23.7104L85.74 23.5904C87.72 22.3904 88.05 20.2304 88.02 18.0004H85.79L85.74 17.8304H92.82L93.57 16.7704L94.94 17.8504C94.87 17.9604 94.74 18.0004 94.47 18.0004H92.5C92.5 18.1004 92.42 18.1704 92.18 18.2104V21.8904C92.18 22.1804 92.18 22.2004 92.44 22.2004H93.47C93.68 22.2004 93.75 22.2004 93.87 21.9904C93.99 21.7904 94.17 21.2304 94.43 20.4304H94.49V20.4404ZM93.86 14.9604C93.78 15.0704 93.65 15.1104 93.39 15.1104H86.94L86.9 14.9404H91.8L92.53 13.9404L93.87 14.9604H93.86Z" fill="#844E1A"/>
<path d="M100.22 19.8097V19.9097C99.51 20.3997 98.36 21.0897 96.6 21.9597C96.54 22.0897 96.44 22.1997 96.31 22.2297L95.71 20.5097C96.03 20.4797 96.58 20.3897 97.24 20.2997V15.7897H95.78L95.74 15.6197H98.43L99.07 14.6597L100.22 15.6397C100.15 15.7497 100.01 15.7897 99.76 15.7897H98.62V20.0797L100.23 19.7997L100.22 19.8097ZM103.58 16.0397L104.9 17.1397C104.83 17.2297 104.7 17.3197 104.48 17.3597C104.38 21.2697 104.23 22.7297 103.66 23.2597C103.27 23.6197 102.9 23.7697 102.17 23.7797C102.19 23.0097 102.09 22.5697 101.1 22.3097V22.1997C101.47 22.2197 102.06 22.2197 102.29 22.2297C102.44 22.2297 102.51 22.2097 102.61 22.1297C102.93 21.8197 103.06 20.1897 103.14 16.9797H102.21C102.06 19.9897 101.4 22.2897 97.75 23.7897L97.66 23.6397C100.22 21.8497 100.74 19.7097 100.83 16.9797H99.46L99.41 16.8097H100.84C100.84 16.5097 100.84 14.3697 100.84 13.9297L102.65 14.0997C102.65 14.2497 102.55 14.3297 102.25 14.3697C102.25 15.2297 102.23 16.0397 102.2 16.8197H103L103.56 16.0497L103.58 16.0397Z" fill="#844E1A"/>
<path d="M108.89 14.3599C108.86 14.4799 108.77 14.5499 108.51 14.5499C108.19 14.9999 107.73 15.5799 107.23 16.1199C107.76 16.1099 108.37 16.0899 109.01 16.0799C108.85 15.7599 108.63 15.4699 108.4 15.2499L108.46 15.1899C110.14 15.3899 110.69 16.0799 110.69 16.6599C110.69 17.1199 110.35 17.4999 109.95 17.4999C109.78 17.4999 109.58 17.4299 109.41 17.2499C109.36 16.9699 109.27 16.6699 109.16 16.3899C108.55 16.6599 107.71 16.9999 106.54 17.4299C106.52 17.4699 106.49 17.4999 106.47 17.5299L107.6 18.0199H108.62L109.13 17.2899L110.47 18.3199C110.41 18.3999 110.29 18.5099 110.08 18.5499V22.1299C110.08 22.9899 109.95 23.6399 108.57 23.8099C108.57 22.7299 108.39 22.4699 107.85 22.3499V22.2299H108.62C108.68 22.2299 108.7 22.1999 108.7 22.0999V21.0799H107.54V23.2299C107.54 23.2299 107.35 23.7699 106.23 23.7699V17.6699L105.66 16.1399H106.68C106.82 15.3899 106.94 14.5199 107.01 13.8799L108.9 14.3699L108.89 14.3599ZM108.71 18.1799H107.55V19.4499H108.71V18.1799ZM107.55 20.8999H108.71V19.6199H107.55V20.8999ZM114.35 17.2499C114.78 17.4499 114.81 17.5199 114.81 17.7199C114.81 18.2499 114.45 18.5299 113.4 18.5299H112.36C111.14 18.5299 110.9 18.2299 110.9 17.0399V13.8899L112.59 14.0099C112.59 14.1299 112.52 14.1999 112.27 14.2399V15.6899C112.78 15.2899 113.36 14.7599 113.66 14.4299L114.92 15.4999C114.85 15.5599 114.76 15.5899 114.63 15.5899C114.53 15.5899 114.43 15.5699 114.3 15.5399C113.81 15.6899 112.99 15.8499 112.27 15.9799V17.0599C112.27 17.3099 112.27 17.3299 112.48 17.3299H113.39C113.72 17.3299 113.81 17.3299 114.26 16.3099H114.32L114.34 17.2499H114.35ZM114.44 21.3799V22.3399C114.88 22.5499 114.93 22.6199 114.93 22.8199C114.93 23.3599 114.57 23.6499 113.49 23.6499H112.41C111.17 23.6499 110.92 23.3399 110.92 22.1299V18.8099L112.63 18.9299C112.61 19.0399 112.56 19.1199 112.3 19.1699V20.5099C112.81 20.0799 113.37 19.5299 113.67 19.1699L115.06 20.2599C114.99 20.3299 114.89 20.3699 114.73 20.3699C114.64 20.3699 114.54 20.3599 114.42 20.3299C113.9 20.5099 113.07 20.7099 112.29 20.8499V22.1399C112.29 22.3999 112.29 22.4099 112.52 22.4099H113.48C113.64 22.4099 113.76 22.4099 113.88 22.2899C114 22.1699 114.16 21.8299 114.37 21.3599H114.43L114.44 21.3799Z" fill="#844E1A"/>
<path d="M118.14 14.7104L118.69 13.9404L119.95 14.9504C119.88 15.0404 119.78 15.1204 119.54 15.1504V20.8004C119.54 20.8704 119.12 21.1604 118.47 21.1604H118.24V20.5304H117.43V20.8504C117.43 20.9104 117.28 21.0604 116.99 21.1604L118.16 21.7804C118.11 21.8804 118.02 21.9604 117.79 21.9404C117.33 22.6204 116.58 23.3504 115.7 23.7904L115.62 23.6704C116.11 22.9904 116.48 22.0004 116.66 21.2404C116.49 21.2604 116.46 21.2604 116.17 21.2604V14.1704L117.52 14.7104H118.13H118.14ZM118.24 14.8804H117.43V16.5804H118.24V14.8804ZM118.24 16.7404H117.43V18.4604H118.24V16.7404ZM117.43 20.3604H118.24V18.6204H117.43V20.3604ZM117.95 21.1604C119.38 21.3704 119.86 21.9504 119.86 22.4404C119.86 22.8804 119.49 23.2504 119.1 23.2504C118.91 23.2504 118.7 23.1604 118.53 22.9504C118.5 22.3504 118.27 21.6404 117.9 21.2104L117.96 21.1604H117.95ZM124.97 16.5904C124.89 16.7004 124.75 16.7404 124.5 16.7404H122.81V19.2204H122.93L123.48 18.4604L124.75 19.4604C124.68 19.5404 124.6 19.6204 124.36 19.6504V23.3904C124.36 23.4504 123.94 23.7204 123.26 23.7204H123.03V22.8504H121.32V23.4104C121.32 23.5004 120.93 23.8104 120.28 23.8104H120.05V18.6804L121.43 19.2304H121.45V13.9404L123.2 14.1204C123.18 14.2704 123.09 14.3504 122.82 14.3904V16.5904H123.22L123.86 15.5404L124.99 16.6104L124.97 16.5904ZM123.02 19.3804H121.31V22.6704H123.02V19.3804Z" fill="#844E1A"/>
<path d="M127.16 18.06C127.57 18.94 127.73 19.67 127.73 20.28C127.73 21.16 127.32 22.1 126.49 22.1C126.05 22.1 125.74 21.8 125.74 21.38C125.74 21.11 125.89 20.85 126.1 20.66C126.6 20.28 127.11 19.27 127.07 18.07H127.17L127.16 18.06ZM128.1 14.35C128.45 14.31 128.77 14.29 129.06 14.29C130.82 14.29 131.43 15.05 131.43 15.7C131.43 16.19 131.09 16.61 130.62 16.61C130.49 16.61 130.36 16.58 130.21 16.51C129.96 15.93 129.24 15.03 128.09 14.46V14.36L128.1 14.35ZM128.36 17.05L130.1 17.19C130.1 17.31 130.03 17.4 129.76 17.45V21.91C129.76 22.23 129.79 22.25 130.06 22.25H131.24C131.43 22.25 131.54 22.25 131.66 22.07C131.79 21.89 131.97 21.38 132.22 20.68H132.28V22.15C132.73 22.36 132.79 22.45 132.79 22.65C132.79 23.23 132.45 23.54 131.23 23.54H130C128.65 23.54 128.36 23.23 128.36 21.87V17.04V17.05ZM132.25 17.78C134.19 18.7 134.83 19.9 134.83 20.82C134.83 21.6 134.37 22.16 133.87 22.16C133.63 22.16 133.37 22.03 133.15 21.7C133.17 21.52 133.18 21.34 133.18 21.13C133.18 20.11 132.94 18.82 132.17 17.85L132.24 17.78H132.25Z" fill="#844E1A"/>
<path d="M142.66 15.8402L143.92 17.0502C143.85 17.1702 143.76 17.2202 143.5 17.2402C142.27 19.0502 140.43 20.5502 138.14 21.5002C138.86 22.0002 139.89 22.0802 141.57 22.0802C142.28 22.0802 144 22.0802 144.76 22.0602V22.1702C144.3 22.2902 144.08 22.8502 144.08 23.4302H141.54C139.31 23.4302 138.23 22.9602 137.58 21.0902C137.33 21.7002 136.95 22.6202 136.72 23.0802C136.77 23.1502 136.79 23.2102 136.79 23.2802C136.79 23.3702 136.75 23.4502 136.69 23.5102L135.79 22.5002C136.22 22.1502 136.96 21.4302 137.39 20.9402L137.52 20.0902L138.1 20.2402L137.63 20.9902C137.75 21.1602 137.87 21.2902 138.02 21.4102C139.63 20.2802 141.11 18.5202 141.91 16.8402H136.37L136.32 16.6702H139.43V13.9902L141.25 14.1802C141.23 14.3102 141.15 14.4002 140.88 14.4402V16.6802H141.86L142.67 15.8702L142.66 15.8402Z" fill="#844E1A"/>
<path d="M148.5 18.7299C148.41 18.8299 148.27 18.9198 147.99 18.9698V21.4498C148.65 22.1198 149.26 22.1998 151.06 22.1998C152.11 22.1998 153.53 22.1999 154.73 22.1599V22.2699C154.22 22.4199 153.92 22.8598 153.86 23.5398H151.07C149.22 23.5398 148.52 23.2098 147.89 21.5898C147.46 22.2298 146.83 23.0598 146.41 23.5098C146.41 23.6598 146.33 23.7298 146.24 23.7798L145.54 22.1599C145.85 22.0799 146.26 21.9298 146.69 21.7798V18.6798H145.57L145.54 18.4799H146.54L147.17 17.5798L148.51 18.7198L148.5 18.7299ZM145.83 14.2098C147.41 14.3998 147.93 15.0298 147.93 15.5698C147.93 16.0398 147.55 16.4298 147.13 16.4298C146.94 16.4298 146.72 16.3398 146.54 16.1298C146.48 15.4698 146.21 14.7198 145.78 14.2598L145.84 14.2098H145.83ZM148.29 15.9498L148.25 15.7798H149.96C149.79 15.7498 149.61 15.6298 149.48 15.4398C149.51 14.9198 149.37 14.3098 149.11 13.9298L149.17 13.8798C150.48 14.0998 150.91 14.5998 150.91 15.0398C150.91 15.3998 150.6 15.7198 150.25 15.7898H151.72C151.81 15.2098 151.88 14.3998 151.92 13.8398L153.83 14.3098C153.8 14.4498 153.71 14.5098 153.45 14.4998C153.08 14.8798 152.49 15.3798 151.94 15.7898H152.88L153.54 14.8298L154.74 15.8098C154.67 15.9198 154.54 15.9598 154.28 15.9598H152.07C151.78 16.3398 151.39 16.8098 151.05 17.1498H152.22L152.72 16.4498L154.03 17.4398C153.98 17.5098 153.88 17.5998 153.69 17.6398V21.4798C153.69 21.4798 153.32 21.8298 152.32 21.8298V21.1299H150.38V21.3698C150.38 21.3698 150.17 21.9198 149.03 21.9198V16.5499L150.44 17.1398H150.53C150.55 16.7798 150.55 16.2898 150.53 15.9498H148.29ZM152.32 17.2999H150.38V18.3898H152.32V17.2999ZM150.38 18.5598V19.6599H152.32V18.5598H150.38ZM150.38 20.9498H152.32V19.8298H150.38V20.9498Z" fill="#844E1A"/>
<path d="M61.13 88.7701C60.75 89.2101 60.2 89.42 59.49 89.42C58.78 89.42 58.23 89.2101 57.85 88.7701C57.46 88.3401 57.27 87.76 57.27 87.03V83.04H58.16V87.09C58.16 87.52 58.28 87.87 58.52 88.14C58.76 88.41 59.09 88.53 59.51 88.53C59.93 88.53 60.25 88.41 60.49 88.14C60.73 87.87 60.85 87.53 60.85 87.09V83.04H61.74V87.03C61.74 87.76 61.55 88.3301 61.17 88.7701H61.13Z" fill="#40220F"/>
<path d="M64.33 89.4104C63.73 89.4104 63.27 89.2304 62.94 88.8404C62.6 88.4604 62.43 87.9404 62.43 87.2904H63.36C63.36 87.7504 63.47 88.0704 63.65 88.2504C63.83 88.4404 64.12 88.5304 64.54 88.5304C64.85 88.5304 65.12 88.4504 65.34 88.2804C65.56 88.1204 65.67 87.8904 65.67 87.5804C65.67 87.3004 65.49 87.0604 65.14 86.8704C64.84 86.7604 64.55 86.6304 64.25 86.5204C63.72 86.3104 63.34 86.1104 63.11 85.9204C62.74 85.6104 62.55 85.2304 62.55 84.7504C62.55 84.1904 62.74 83.7504 63.13 83.4104C63.5 83.1004 63.94 82.9404 64.49 82.9404C65.07 82.9404 65.55 83.0904 65.9 83.3804C66.28 83.7104 66.48 84.2004 66.5 84.8304H65.58C65.55 84.1604 65.22 83.8204 64.56 83.8204C64.27 83.8204 64.02 83.9004 63.82 84.0404C63.59 84.1904 63.48 84.4204 63.48 84.6804C63.48 84.9404 63.61 85.1704 63.87 85.3304C63.93 85.3804 64.17 85.4804 64.58 85.6504C65.28 85.9504 65.73 86.1604 65.91 86.2804C66.36 86.6104 66.59 87.0304 66.59 87.5604C66.59 88.8104 65.82 89.4204 64.31 89.4204L64.33 89.4104Z" fill="#40220F"/>
<path d="M70.88 88.84C70.52 89.15 70.07 89.3 69.51 89.3H67.34V83.04H69.39C69.9 83.04 70.33 83.1901 70.68 83.4901C71.04 83.8201 71.23 84.23 71.23 84.75C71.23 85.27 71.02 85.67 70.6 86C71.17 86.33 71.45 86.83 71.45 87.51C71.45 88.08 71.26 88.52 70.88 88.84ZM69.25 83.94H68.23V85.64H69.27C69.56 85.64 69.81 85.57 69.99 85.44C70.19 85.3 70.3 85.09 70.3 84.81C70.3 84.23 69.94 83.95 69.25 83.95V83.94ZM70.03 86.67C69.81 86.57 69.46 86.53 68.98 86.53H68.22V88.43H69.28C70.1 88.43 70.52 88.1 70.52 87.45C70.52 87.08 70.36 86.82 70.03 86.67Z" fill="#40220F"/>
<path d="M82.47 83.9398V84.7298H81.45C82.11 85.3598 82.66 85.9898 83.12 86.5998L82.55 87.1998C82.39 86.9498 82.2 86.6998 82 86.4498C81.4 86.5298 80.67 86.5898 79.8 86.6498V87.5398H83.08V88.3698H79.8V89.2198H83.48V90.0098H75.35V89.2198H78.95V88.3698H75.77V87.5398H78.95V86.6998C78.07 86.7498 77.1 86.7898 76.02 86.8198L75.81 85.9698C76.23 85.9698 76.64 85.9698 77.03 85.9698C77.41 85.5898 77.73 85.1798 77.98 84.7398H76.41V83.9498H82.47V83.9398ZM79.97 82.3998H83.47V84.3598H82.61V83.2298H76.23V84.3598H75.37V82.3998H79.04C78.94 82.1498 78.83 81.9198 78.72 81.6898L79.65 81.5498C79.76 81.8098 79.86 82.0998 79.96 82.3998H79.97ZM80.8 85.1398L81.21 84.7298H78.91C78.72 85.1198 78.45 85.5298 78.11 85.9398C79.43 85.9198 80.54 85.8598 81.41 85.7698C81.22 85.5698 81.02 85.3598 80.8 85.1498V85.1398Z" fill="#40220F"/>
<path d="M92.05 89.3005C92.05 89.6305 91.97 89.8805 91.81 90.0505C91.66 90.2005 91.47 90.2805 91.23 90.2805H89.7L89.53 89.3405L90.88 89.4205C91.07 89.4005 91.17 89.2705 91.17 89.0105V87.7405L90.63 88.4005C90.11 87.8805 89.69 87.3805 89.37 86.9005C89.06 86.4305 88.8 85.9005 88.57 85.3105C88.42 85.6905 88.28 86.0105 88.11 86.3005C87.69 87.0505 87.08 87.8105 86.28 88.5505L85.92 87.9305V90.3205H85.03V83.4605H88.13V82.5205H86.17V81.7705H89.02V83.4605H92.05V89.3005ZM87.43 85.7005C87.65 85.3105 87.86 84.8205 88.04 84.2405H85.91V87.5505C86.61 86.8805 87.11 86.2605 87.42 85.7005H87.43ZM89.77 85.8505C90.07 86.4005 90.54 86.9305 91.17 87.4505V84.2405H89.04C89.24 84.8505 89.48 85.3905 89.77 85.8505Z" fill="#40220F"/>
<path d="M94.55 83.26V81.54H95.37V83.26H96.29V84.09H95.37V85.89C95.65 85.72 95.94 85.5301 96.22 85.3201V86.26C95.95 86.46 95.66 86.64 95.37 86.8V89.33C95.37 89.68 95.3 89.92 95.15 90.05C95.02 90.19 94.79 90.2701 94.44 90.2701H93.8L93.62 89.33C93.86 89.39 94.07 89.41 94.23 89.41C94.44 89.41 94.55 89.33 94.55 89.18V87.22C94.24 87.36 93.91 87.4901 93.58 87.6001L93.47 86.6301C93.82 86.5701 94.18 86.47 94.55 86.3V84.0701H93.51V83.2401H94.55V83.26ZM101.53 82.4C100.89 82.56 100.14 82.6801 99.29 82.7401V83.5701H101.64V84.39H99.29V89.16H100.58V87.81H99.61V87.06H100.58V86.04H99.61V85.25H101.4V90.36H100.58V89.91H97.12V90.39H96.34V85.48C96.86 85.31 97.33 85.0801 97.76 84.7701L98.26 85.5201C97.9 85.7101 97.52 85.8801 97.12 86.0201V87.06H98.08V87.81H97.12V89.16H98.47V84.39H96.41V83.5701H98.47V82.8C97.9 82.84 97.29 82.8501 96.65 82.8501L96.4 82.06C98.26 82.06 99.84 81.93 101.14 81.65L101.53 82.4Z" fill="#40220F"/>
<path d="M107.71 82.4698H110.97V83.2998H104.03V85.8898C104.03 86.5598 103.98 87.2598 103.88 87.9898C103.75 88.7598 103.55 89.4998 103.28 90.2398L102.57 89.5698C102.83 88.9798 103 88.3698 103.09 87.7298C103.16 87.0798 103.21 86.4598 103.21 85.8998V82.4798H106.72C106.55 82.1998 106.36 81.9398 106.16 81.6898L107.15 81.5498C107.34 81.8298 107.52 82.1298 107.71 82.4798V82.4698ZM107.05 87.4998V83.4498H107.87V87.4998H110.61V88.2898H107.87V89.3398H110.94V90.1698H103.99V89.3398H107.06V88.2898H104.46V87.4998H107.06H107.05ZM106.08 83.8998C106.01 84.2398 105.94 84.5498 105.87 84.7998C106.24 85.1898 106.59 85.6398 106.9 86.1398L106.4 86.9298C106.13 86.4298 105.86 86.0098 105.59 85.6498C105.41 86.1098 105.12 86.5998 104.73 87.1198L104.16 86.3598C104.48 85.9798 104.72 85.5898 104.88 85.2098C105.04 84.8498 105.16 84.3798 105.26 83.7798L106.08 83.8998ZM109.86 83.8198C109.78 84.2598 109.7 84.6398 109.61 84.9398C110.05 85.3498 110.49 85.7998 110.93 86.2898L110.46 87.0398C110.01 86.4298 109.65 85.9598 109.37 85.6398C109.19 86.1498 108.9 86.6798 108.49 87.2198L107.95 86.5098C108.27 86.0898 108.51 85.6798 108.67 85.2498C108.83 84.8698 108.95 84.3498 109.05 83.6998L109.83 83.8198H109.86Z" fill="#40220F"/>
<path d="M47.05 56.4797C47.41 56.5397 47.78 56.5797 48.13 56.6697C50.42 57.2597 51.5 59.1897 51.73 60.6597C52 62.4697 51.5 64.0097 50.08 65.2197C49.34 65.8497 48.45 66.1497 47.5 66.2797C46.27 66.4597 45.03 66.3497 43.79 66.3797C43.7 66.3797 43.62 66.3797 43.52 66.3797V70.7597C43.46 70.7597 43.41 70.7797 43.37 70.7797C42.01 70.7797 40.66 70.7797 39.3 70.7797C39.26 70.7797 39.21 70.7797 39.17 70.7597V56.4697H47.04L47.05 56.4797ZM43.54 63.0197C43.54 63.0197 43.62 63.0197 43.65 63.0197C44.34 63.0197 45.02 63.0197 45.71 63.0197C45.93 63.0197 46.16 63.0197 46.38 62.9697C47.05 62.8397 47.48 62.2997 47.52 61.5397C47.57 60.5997 46.94 59.9197 46 59.9197C45.24 59.9197 44.49 59.9197 43.73 59.9197H43.53C43.53 60.9497 43.53 61.9397 43.53 62.9397C43.53 62.9597 43.53 62.9897 43.54 63.0197Z" fill="#40220F"/>
<path d="M123.84 56.4795V59.1595H120.02V56.4795H123.84Z" fill="#40220F"/>
<path d="M66.99 70.7796H63.07V60.5796H66.74C66.77 60.9196 66.8 61.2596 66.83 61.6296C66.9 61.5796 66.94 61.5396 66.99 61.5096C67.73 60.9196 68.52 60.4296 69.46 60.2896C70.95 60.0596 72.27 60.3896 73.23 61.6496C73.76 62.3496 73.95 63.1796 73.96 64.0396C73.98 66.2396 73.96 68.4396 73.96 70.6396C73.96 70.6796 73.96 70.7196 73.95 70.7796H69.9V70.5296C69.9 68.6796 69.9 66.8396 69.9 64.9896C69.9 64.8296 69.9 64.6796 69.87 64.5196C69.7 63.4096 68.41 63.1796 67.67 63.7196C67.22 64.0496 66.99 64.4896 66.99 65.0496C66.99 65.6496 66.99 66.2496 66.99 66.8496C66.99 68.0796 66.99 69.3096 66.99 70.5296V70.7796Z" fill="#40220F"/>
<path d="M115.15 70.7798V70.5398C115.15 68.6898 115.15 66.8498 115.15 64.9998C115.15 64.8398 115.15 64.6898 115.12 64.5298C114.96 63.4798 113.88 63.2698 113.21 63.5598C112.63 63.8198 112.31 64.2799 112.25 64.9099C112.22 65.2599 112.24 65.6099 112.24 65.9599C112.24 67.4899 112.24 69.0198 112.24 70.5398V70.7699H108.32V60.5699H111.99C112.02 60.9099 112.05 61.2499 112.08 61.6299C112.15 61.5799 112.2 61.5398 112.25 61.4998C112.99 60.9098 113.78 60.4198 114.72 60.2798C116.21 60.0498 117.52 60.3798 118.48 61.6398C119.01 62.3398 119.2 63.1698 119.21 64.0298C119.23 66.2398 119.21 68.4398 119.21 70.6498C119.21 70.6898 119.21 70.7199 119.21 70.7699H115.15V70.7798Z" fill="#40220F"/>
<path d="M55.49 64.0997C55.17 64.0997 54.87 64.0997 54.56 64.0997C53.78 64.0797 53 64.0497 52.22 64.0397C52.06 64.0397 52.01 63.9797 52 63.8397C51.92 62.6497 52.41 61.7497 53.37 61.0897C53.96 60.6897 54.64 60.5297 55.34 60.4197C56.78 60.1997 58.22 60.2497 59.63 60.6297C60.02 60.7397 60.4 60.9197 60.75 61.1197C61.5 61.5697 61.87 62.2897 62.01 63.1297C62.07 63.5297 62.12 63.9297 62.13 64.3397C62.17 65.9197 62.2 67.5097 62.24 69.0897C62.24 69.4197 62.26 69.7497 62.31 70.0797C62.34 70.3197 62.43 70.5397 62.5 70.7997H62.32C61.21 70.7997 60.1 70.7997 58.98 70.7997C58.76 70.7997 58.65 70.7097 58.59 70.5397C58.51 70.3197 58.44 70.1097 58.36 69.8897C58.35 69.8497 58.33 69.8097 58.31 69.7697C58.14 69.9297 57.99 70.0897 57.81 70.2297C57.07 70.7997 56.22 71.0397 55.3 71.0997C54.68 71.1397 54.08 71.0497 53.49 70.8597C52.14 70.4297 51.37 69.1597 51.48 67.7797C51.58 66.4497 52.38 65.6797 53.59 65.2797C54.55 64.9597 55.54 64.8297 56.53 64.6397C56.89 64.5697 57.25 64.4797 57.6 64.3797C58 64.2597 58.24 63.9897 58.25 63.6697C58.25 63.3297 57.98 62.9797 57.61 62.8497C57.12 62.6797 56.64 62.6997 56.16 62.8897C55.7 63.0797 55.53 63.4697 55.48 63.9297C55.48 63.9897 55.48 64.0397 55.47 64.1097L55.49 64.0997ZM58.37 66.1997C58.1 66.3097 57.85 66.4097 57.6 66.4997C57.34 66.5897 57.08 66.6597 56.82 66.7497C56.49 66.8597 56.17 66.9497 55.84 67.0697C55.55 67.1797 55.3 67.3297 55.2 67.6497C55.07 68.0697 55.37 68.5497 55.85 68.6997C56.17 68.7997 56.49 68.7997 56.81 68.7497C57.54 68.6197 58.09 68.2597 58.31 67.5197C58.43 67.0997 58.42 66.6597 58.38 66.2097L58.37 66.1997Z" fill="#40220F"/>
<path d="M78.46 64.0993C78.11 64.0993 77.78 64.0993 77.45 64.0993C76.7 64.0793 75.95 64.0593 75.2 64.0493C75.03 64.0493 74.97 63.9893 74.96 63.8293C74.88 63.0293 75.15 62.3293 75.64 61.7193C76.18 61.0493 76.92 60.7193 77.74 60.5393C79.37 60.1793 81 60.2093 82.62 60.6393C83.33 60.8293 83.96 61.1593 84.42 61.7493C84.8 62.2393 84.95 62.8193 85.03 63.4093C85.08 63.7893 85.1 64.1693 85.11 64.5493C85.15 66.1593 85.18 67.7793 85.23 69.3893C85.24 69.8593 85.23 70.3393 85.54 70.7993H85.31C84.19 70.7993 83.06 70.7993 81.94 70.7993C81.77 70.7993 81.67 70.7393 81.61 70.5893C81.53 70.3793 81.45 70.1593 81.37 69.9393C81.35 69.8793 81.33 69.8293 81.31 69.7593C81.28 69.7793 81.26 69.7793 81.25 69.7993C80.24 70.8793 78.96 71.1793 77.55 71.0693C76.85 71.0193 76.17 70.8293 75.6 70.3893C74.3 69.3993 74.08 67.3693 75.13 66.1693C75.62 65.6093 76.26 65.3093 76.96 65.1493C77.87 64.9493 78.79 64.7693 79.71 64.5793C80.01 64.5193 80.32 64.4393 80.62 64.3493C81.01 64.2293 81.25 63.9593 81.25 63.6493C81.25 63.3193 80.99 62.9693 80.65 62.8393C80.15 62.6493 79.64 62.6593 79.15 62.8793C78.71 63.0693 78.54 63.4393 78.49 63.8893C78.49 63.9493 78.49 64.0093 78.48 64.0893L78.46 64.0993ZM81.31 66.2393C80.53 66.4993 79.74 66.7493 78.96 67.0193C78.78 67.0793 78.6 67.1593 78.44 67.2693C78.07 67.5293 78.02 67.9493 78.27 68.3193C78.41 68.5193 78.59 68.6393 78.82 68.7093C79.13 68.7993 79.43 68.7993 79.75 68.7493C81.05 68.5293 81.51 67.5493 81.3 66.2393H81.31Z" fill="#40220F"/>
<path d="M101.94 71.12C100.88 71.11 99.77 70.9 98.78 70.25C97.35 69.31 96.58 67.97 96.39 66.29C96.26 65.12 96.4 63.98 97.03 62.96C97.93 61.5 99.23 60.63 100.94 60.37C102.11 60.2 103.27 60.23 104.37 60.68C106.1 61.39 107.29 62.62 107.65 64.49C108.07 66.63 107.37 69.11 105.04 70.42C104.11 70.94 103.1 71.11 101.94 71.11V71.12ZM103.83 65.63C103.82 65.5 103.81 65.26 103.78 65.03C103.72 64.53 103.61 64.05 103.33 63.62C102.72 62.68 101.4 62.69 100.79 63.62C100.58 63.94 100.45 64.3 100.39 64.68C100.23 65.66 100.24 66.63 100.64 67.56C100.9 68.18 101.39 68.5 102.05 68.52C102.68 68.54 103.23 68.16 103.49 67.57C103.75 66.98 103.82 66.36 103.83 65.63Z" fill="#40220F"/>
<path d="M85.64 67.3693H89.41C89.43 67.5093 89.44 67.6393 89.47 67.7693C89.59 68.3193 90 68.6893 90.64 68.7693C90.91 68.8093 91.21 68.7993 91.47 68.7293C91.67 68.6793 91.88 68.5393 92.03 68.3893C92.41 67.9993 92.24 67.3693 91.73 67.2193C91.27 67.0893 90.79 67.0093 90.32 66.9093C89.41 66.7193 88.49 66.6093 87.61 66.2793C85.6 65.5093 85.16 62.7893 86.82 61.4193C87.6 60.7793 88.51 60.4693 89.49 60.3393C90.73 60.1793 91.96 60.2093 93.17 60.5193C93.6 60.6293 94.03 60.8193 94.42 61.0393C95.15 61.4393 95.52 62.0993 95.64 62.9093C95.67 63.0993 95.68 63.2893 95.7 63.4993H92.1C92.08 63.3993 92.07 63.2893 92.04 63.1893C91.9 62.7493 91.56 62.5793 91.14 62.4993C90.81 62.4393 90.47 62.4393 90.16 62.5693C89.99 62.6393 89.81 62.7693 89.7 62.9193C89.49 63.1793 89.59 63.5293 89.91 63.6293C90.26 63.7393 90.62 63.7993 90.99 63.8693C91.98 64.0393 92.95 64.2493 93.89 64.5793C94.44 64.7793 94.95 65.0793 95.34 65.5193C96.19 66.4493 96.32 67.5393 95.89 68.6893C95.54 69.6093 94.83 70.1793 93.95 70.5693C92.9 71.0393 91.79 71.1493 90.65 71.1193C89.73 71.0893 88.83 70.9493 87.98 70.6093C86.93 70.1893 86.14 69.4893 85.8 68.3693C85.7 68.0493 85.69 67.7093 85.63 67.3593L85.64 67.3693Z" fill="#40220F"/>
<path d="M135 64.4295C134.9 64.4295 134.85 64.4395 134.79 64.4395C133.75 64.4395 132.7 64.4395 131.66 64.4395C131.52 64.4395 131.47 64.3995 131.44 64.2695C131.22 63.3795 130.34 62.8195 129.52 63.0695C129 63.2295 128.63 63.5795 128.46 64.0895C128.12 65.0795 128.11 66.0795 128.43 67.0795C128.53 67.3995 128.71 67.6795 128.95 67.9095C129.39 68.3495 129.91 68.4995 130.49 68.3095C131.07 68.1195 131.32 67.6495 131.41 67.0695C131.43 66.9095 131.45 66.7495 131.47 66.5795H135.15C135.2 67.1395 135.13 67.6795 134.92 68.1895C134.44 69.3795 133.55 70.1895 132.38 70.6495C130.59 71.3395 128.79 71.3695 127.09 70.3795C125.69 69.5695 124.75 68.3495 124.47 66.7295C124.12 64.6895 124.64 62.9095 126.23 61.5095C126.97 60.8695 127.86 60.5295 128.82 60.3695C130.08 60.1595 131.32 60.2495 132.49 60.7795C133.72 61.3295 134.58 62.2395 134.91 63.5795C134.98 63.8495 134.97 64.1295 135 64.4195V64.4295Z" fill="#40220F"/>
<path d="M123.82 70.7801H120.02V60.5801H123.82V70.7801Z" fill="#40220F"/>
</svg>
