<svg width="173" height="103" viewBox="0 0 173 103" fill="none" xmlns="http://www.w3.org/2000/svg">
<path d="M172.59 0H0.109985V102.65H172.59V0Z" fill="#E8D0A4"/>
<path d="M16.07 31.8203H152.67" stroke="#581804" stroke-width="0.25" stroke-miterlimit="10"/>
<path d="M15.22 15.41C16.04 14.36 16.89 12.76 17.27 11.77L19.11 13C19.06 13.09 18.98 13.17 18.8 13.17C18.75 13.17 18.7 13.17 18.65 13.16C17.84 13.94 16.6 14.91 15.31 15.55L15.23 15.41H15.22ZM26.47 15.41C26.4 15.53 26.29 15.59 26.03 15.64V17.91C26.03 17.91 25.95 18 25.79 18.06L26.67 18.69C26.59 18.84 26.42 18.87 26.11 18.87H18.73L18.67 18.66H24.37L24.69 18.25H24.43V17.81H20.88V17.89C20.88 17.99 20.42 18.33 19.64 18.33H19.37V15.64C19.31 15.65 19.24 15.67 19.14 15.65C18.85 16.07 18.52 16.55 18.14 17.02L18.68 17.24C18.63 17.36 18.54 17.45 18.31 17.48V22.26C18.38 21.93 18.66 21.68 18.96 21.56C19.39 21.41 19.86 20.93 19.85 20.34H19.99C20.22 20.88 20.31 21.36 20.31 21.76C20.31 22.62 19.86 23.25 19.17 23.25C18.78 23.25 18.38 23.06 18.3 22.62V23.35C18.29 23.52 17.66 23.95 16.94 23.95H16.63V18.66C16.21 19.04 15.77 19.4 15.31 19.72L15.23 19.6C16.24 18.06 17.16 15.75 17.55 14.31L19.36 15.32V14.45L20.99 15.12H21.85C21.87 14.75 21.9 14.26 21.91 13.75H18.88L18.82 13.54H21.93C21.95 12.93 21.97 12.29 21.98 11.75L24.21 11.99C24.19 12.22 24.03 12.34 23.7 12.39C23.63 12.72 23.53 13.13 23.43 13.54H24.32L25.14 12.41L26.68 13.56C26.6 13.71 26.43 13.74 26.11 13.74H23.38C23.26 14.24 23.13 14.74 23.02 15.11H24.34L24.96 14.24L26.47 15.39V15.41ZM24.1 21.27V22.22C24.58 22.44 24.61 22.51 24.61 22.73C24.61 23.33 24.19 23.65 23.1 23.65H22.2C20.89 23.65 20.64 23.32 20.64 22.04V20.08L22.12 20.17C21.89 19.76 21.6 19.38 21.25 19.12L21.3 19.03C21.5 19.02 21.69 19 21.87 19C23.31 19 23.81 19.58 23.81 20.13C23.81 20.62 23.43 21.06 22.95 21.06C22.77 21.06 22.58 21 22.39 20.84C22.35 20.71 22.31 20.58 22.26 20.47H22.24V22.03C22.24 22.2033 22.3033 22.29 22.43 22.29H23.1C23.43 22.29 23.55 22.29 24.03 21.27H24.11H24.1ZM20.89 15.33V17.61H21.33V15.33H20.89ZM22.89 15.33H22.44V17.61H22.89V15.33ZM24.02 20.21C26.01 20.54 26.65 21.43 26.65 22.14C26.65 22.72 26.22 23.2 25.73 23.2C25.5 23.2 25.27 23.1 25.04 22.85C24.99 21.94 24.58 20.89 23.95 20.28L24.02 20.2V20.21ZM23.98 17.61H24.43V15.33H23.98V17.61Z" fill="#844E1A"/>
<path d="M37.91 12.0002L39.49 13.2502C39.41 13.3702 39.25 13.4702 39.01 13.5302V23.2902C39.01 23.2902 38.59 23.8102 37.39 23.8102V22.8202H30.36V23.2302C30.36 23.2802 30.16 23.9502 28.78 23.9502V12.1502L30.51 12.8902H37.28L37.91 11.9902V12.0002ZM30.36 22.6302H37.39V13.1002H30.36V22.6202V22.6302ZM30.55 19.8502C31.15 19.8002 32.53 19.5902 33.89 19.3802L33.91 19.5302C33.4 19.8902 32.62 20.4102 31.51 21.0802C31.45 21.2502 31.34 21.3502 31.21 21.3902L30.54 19.8502H30.55ZM37.25 15.3302C37.17 15.4802 37 15.5102 36.7 15.5102H35.01C35.02 16.2702 35.06 16.9902 35.15 17.6502C35.3 17.1902 35.44 16.6802 35.54 16.1502L37.21 16.7402C37.15 16.8902 37.04 16.9802 36.72 16.9702C36.41 17.9302 36.02 18.7202 35.58 19.4002C35.77 19.9102 36.09 20.3302 36.16 20.3302C36.29 20.3302 36.7 19.2902 36.83 18.9202L36.91 18.9502L36.73 20.6902C36.93 21.1002 37.04 21.3902 37.04 21.6102C37.04 21.9902 36.66 22.1502 36.41 22.1502C35.43 22.1502 34.82 20.8402 34.66 20.5202C33.95 21.2402 33.11 21.7402 32.17 22.1102L32.06 21.9702C32.89 21.4502 33.66 20.6302 34.27 19.5802C34.02 18.7902 33.87 17.8902 33.78 16.9302C33.72 16.9802 33.63 17.0302 33.51 17.0602V18.6102C33.51 18.6102 33.24 18.9802 32.45 18.9802V18.4802H31.96V18.8802C31.96 18.8802 31.83 19.2502 30.94 19.2502V16.1102L32.02 16.6002H32.37L32.74 16.0802L33.79 16.8402C33.75 16.4202 33.73 15.9702 33.72 15.5202H30.6L30.55 15.3102H33.7C33.69 14.7502 33.68 14.1602 33.68 13.5602L35.44 13.7302C35.43 13.9002 35.33 13.9702 35.01 14.0202C35 14.4602 35 14.8902 35 15.3102H35.42L35.88 14.6702C35.88 14.6702 35.78 14.5802 35.75 14.5302C35.77 14.2102 35.68 13.8402 35.5 13.6302L35.58 13.5502C36.59 13.5802 36.94 13.9002 36.94 14.2002C36.94 14.4402 36.74 14.6702 36.49 14.7602L37.24 15.3202L37.25 15.3302ZM31.98 18.2702H32.47V16.8002H31.98V18.2702Z" fill="#844E1A"/>
<path d="M50.78 21.18L52.55 22.58C52.45 22.72 52.3 22.76 51.94 22.76H41.31L41.25 22.56H45.9V14.06H42.08L42.02 13.86H49.11L50.07 12.5L51.83 13.88C51.73 14.02 51.57 14.06 51.23 14.06H47.73V22.55H49.77L50.76 21.18H50.78Z" fill="#844E1A"/>
<path d="M65.26 16.9898L65.2 18.2298C65.39 18.4698 65.52 18.6998 65.52 18.9298C65.52 19.1098 65.39 19.6898 64.72 19.6898C64.49 19.6898 64.27 19.6098 64.07 19.5098C62.99 18.8298 62.8 17.5898 62.77 15.4998H62.4C62.36 15.9598 62.3 16.3998 62.2 16.8098C62.7 17.1198 62.89 17.5098 62.89 17.8598C62.89 18.2798 62.6 18.6198 62.21 18.6198C62.08 18.6198 61.95 18.5898 61.82 18.5198C61.77 18.3998 61.69 18.2598 61.59 18.1198C61.1 18.7698 60.33 19.3198 59.09 19.7698L58.98 19.5998C60.03 18.8998 60.52 18.0798 60.75 17.1298C60.5 16.8998 60.21 16.6598 59.9 16.4498L59.97 16.2998C60.3 16.3098 60.6 16.3398 60.87 16.3798C60.91 16.0998 60.92 15.8198 60.93 15.5098H59.92L59.86 15.2998H60.94C60.95 14.9298 60.95 14.5298 60.95 14.1198H60.82V13.2198H58.74V13.8298C58.74 13.8298 58.68 13.9098 58.57 13.9598L59.59 14.6898C59.52 14.8398 59.35 14.8698 59.07 14.8698H57.78V15.6498H58.24L58.81 14.8798L59.92 15.6698C59.84 15.8198 59.67 15.8498 59.38 15.8498H58.37V16.1398C58.37 16.2331 58.4033 16.2798 58.47 16.2798H58.86C59.07 16.2798 59.22 16.2298 59.36 16.0998H59.42L59.48 16.2698C59.81 16.4498 59.84 16.4998 59.84 16.6698C59.84 17.0898 59.54 17.2498 58.9 17.2498L59.66 17.7998C59.58 17.9498 59.41 17.9798 59.12 17.9798H57.79V18.6098C58.44 18.5798 59.15 18.5298 59.85 18.4898V18.6798C58.9 18.9998 57.51 19.3998 55.45 19.9298C55.37 20.0998 55.25 20.1698 55.12 20.2098L54.45 18.7398C54.88 18.7398 55.55 18.7098 56.35 18.6798V17.9798H54.84L54.78 17.7798H56.35V16.8798L57.45 16.9998C57.32 16.7798 57.32 16.3898 57.32 15.8598H56.26L57.07 16.0598C57.02 16.2098 56.9 16.2898 56.62 16.2698C56.3 16.8998 55.57 17.3798 54.31 17.6498L54.21 17.4298C54.98 17.0798 55.33 16.4998 55.47 15.8598H54.43L54.37 15.6498H56.35V14.8698H54.9L54.84 14.6598H56.35V13.7398L57.1 13.8198V13.2198H54.24L54.19 13.0098H57.09V11.7598L59.16 11.9398C59.14 12.1098 59.05 12.2098 58.72 12.2598V13.0198H60.8V11.7698L62.91 11.9498C62.9 12.1298 62.8 12.2198 62.47 12.2698V13.0298H63.4L64.11 12.0098L65.43 13.0598C65.35 13.1998 65.22 13.2398 64.91 13.2398H62.47V13.7798C62.47 13.8398 62.29 13.9498 62.01 14.0198L62.87 14.0798C62.86 14.2498 62.77 14.3198 62.43 14.3698C62.42 14.6898 62.41 14.9998 62.38 15.2998H62.61L63.19 14.5598L64.59 15.5798C64.53 15.6698 64.38 15.7498 64.19 15.7698C64.18 15.9498 64.18 16.1298 64.18 16.2898C64.18 17.8498 64.55 18.0698 64.64 18.0698C64.76 18.0698 65.06 17.2598 65.16 16.9798H65.22L65.26 16.9898ZM63.24 20.9998L64.01 19.9998L65.45 21.0198C65.37 21.1698 65.21 21.1998 64.89 21.1998H59.87C59.32 21.5798 58.69 21.9698 58.1 22.2998C59.17 22.2898 60.42 22.2898 61.73 22.2598C61.5 22.0598 61.25 21.8598 60.99 21.6798L61.04 21.5398C61.25 21.5298 61.46 21.5098 61.65 21.5098C63.63 21.5098 64.32 22.2998 64.32 22.9798C64.32 23.4898 63.94 23.9298 63.44 23.9298C63.3 23.9298 63.14 23.8898 62.98 23.7998C62.84 23.4898 62.53 23.0598 62.1 22.6098C60.76 22.9198 58.87 23.2598 56.18 23.7098C56.1 23.8598 55.97 23.9498 55.83 23.9798L55.01 22.2598C55.51 22.2698 56.24 22.2898 57.12 22.2898C57.25 21.9298 57.38 21.5198 57.48 21.1898H54.33L54.27 20.9798H63.26L63.24 20.9998ZM62.34 18.8498L63.76 19.8598C63.68 20.0098 63.51 20.0398 63.2 20.0398H56.33L56.27 19.8398H61.58L62.34 18.8498ZM58.02 14.6798L58.52 14.0098C58.45 14.0398 57.98 14.1598 57.82 14.1898V14.6798H58.02ZM58.46 17.2698H58L57.83 17.2998V17.7998H58.07L58.46 17.2798V17.2698Z" fill="#844E1A"/>
<path d="M72.86 16.78C73.53 15.93 74.21 14.63 74.52 13.82L76.02 14.82C75.98 14.89 75.91 14.96 75.77 14.96C75.73 14.96 75.69 14.96 75.64 14.95C74.98 15.58 73.98 16.38 72.92 16.9L72.85 16.79L72.86 16.78ZM82 16.78C81.94 16.87 81.85 16.93 81.64 16.97V18.81C81.64 18.81 81.57 18.88 81.45 18.93L82.17 19.44C82.1 19.56 81.97 19.59 81.72 19.59H75.72L75.67 19.42H80.3L80.56 19.09H80.35V18.74H77.47V18.8C77.47 18.88 77.09 19.15 76.46 19.15H76.24V16.96C76.24 16.96 76.13 16.98 76.06 16.97C75.83 17.31 75.56 17.7 75.25 18.08L75.69 18.26C75.65 18.35 75.57 18.43 75.39 18.46V22.34C75.45 22.07 75.67 21.87 75.92 21.77C76.27 21.65 76.66 21.26 76.65 20.78H76.77C76.95 21.22 77.03 21.61 77.03 21.93C77.03 22.63 76.66 23.14 76.1 23.14C75.78 23.14 75.46 22.98 75.39 22.63V23.22C75.39 23.36 74.87 23.71 74.29 23.71H74.04V19.41C73.7 19.72 73.34 20.01 72.97 20.27L72.9 20.18C73.72 18.93 74.47 17.05 74.79 15.88L76.26 16.7V15.99L77.59 16.53H78.29C78.31 16.23 78.33 15.83 78.34 15.42H75.87L75.82 15.25H78.34C78.36 14.75 78.37 14.23 78.38 13.79L80.19 13.99C80.17 14.18 80.04 14.27 79.77 14.31C79.71 14.58 79.63 14.91 79.55 15.25H80.28L80.95 14.33L82.2 15.27C82.13 15.39 82 15.42 81.74 15.42H79.52C79.42 15.83 79.32 16.23 79.23 16.53H80.3L80.8 15.82L82.03 16.76L82 16.78ZM80.07 21.55V22.32C80.46 22.5 80.49 22.56 80.49 22.74C80.49 23.23 80.15 23.49 79.26 23.49H78.52C77.46 23.49 77.25 23.22 77.25 22.18V20.59L78.45 20.66C78.27 20.33 78.02 20.01 77.74 19.81L77.78 19.74C77.94 19.73 78.1 19.72 78.24 19.72C79.41 19.72 79.82 20.19 79.82 20.64C79.82 21.04 79.51 21.4 79.12 21.4C78.98 21.4 78.82 21.35 78.67 21.22C78.64 21.12 78.6 21.01 78.56 20.92H78.54V22.19C78.54 22.33 78.59 22.4 78.69 22.4H79.23C79.5 22.4 79.6 22.4 79.98 21.57H80.05L80.07 21.55ZM77.46 16.72V18.57H77.82V16.72H77.46ZM79.09 16.72H78.72V18.57H79.09V16.72ZM80.01 20.68C81.63 20.95 82.15 21.67 82.15 22.25C82.15 22.72 81.8 23.11 81.4 23.11C81.22 23.11 81.02 23.03 80.84 22.83C80.8 22.09 80.46 21.24 79.95 20.74L80.01 20.68ZM79.98 18.57H80.35V16.72H79.98V18.57Z" fill="#844E1A"/>
<path d="M90.71 14.01L92 15.03C91.93 15.12 91.81 15.21 91.61 15.26V23.19C91.61 23.19 91.27 23.62 90.29 23.62V22.82H84.57V23.15C84.57 23.15 84.41 23.73 83.28 23.73V14.13L84.68 14.73H90.18L90.69 14L90.71 14.01ZM84.58 22.65H90.3V14.91H84.58V22.65ZM84.73 20.39C85.21 20.35 86.34 20.18 87.45 20L87.47 20.12C87.05 20.41 86.43 20.84 85.52 21.38C85.47 21.52 85.38 21.6 85.28 21.63L84.74 20.38L84.73 20.39ZM90.18 16.72C90.11 16.84 89.98 16.87 89.73 16.87H88.36C88.36 17.48 88.4 18.08 88.48 18.61C88.61 18.24 88.71 17.82 88.8 17.39L90.15 17.87C90.1 17.99 90.01 18.07 89.75 18.06C89.5 18.84 89.18 19.49 88.82 20.04C88.97 20.46 89.24 20.8 89.29 20.8C89.4 20.8 89.73 19.96 89.83 19.66L89.9 19.68L89.75 21.09C89.91 21.42 90 21.66 90 21.84C90 22.15 89.69 22.28 89.49 22.28C88.7 22.28 88.19 21.22 88.07 20.96C87.49 21.54 86.81 21.95 86.05 22.25L85.96 22.14C86.64 21.71 87.26 21.05 87.76 20.19C87.56 19.54 87.43 18.82 87.36 18.04C87.31 18.08 87.23 18.12 87.14 18.14V19.4C87.14 19.4 86.92 19.7 86.28 19.7V19.29H85.88V19.61C85.88 19.61 85.77 19.91 85.05 19.91V17.36L85.93 17.76H86.21L86.51 17.33L87.36 17.94C87.33 17.6 87.31 17.23 87.3 16.87H84.77L84.73 16.7H87.29C87.29 16.24 87.27 15.76 87.27 15.27L88.7 15.41C88.7 15.55 88.61 15.61 88.35 15.65C88.35 16 88.35 16.36 88.35 16.7H88.69L89.07 16.18C89.07 16.18 88.99 16.11 88.96 16.07C88.98 15.81 88.9 15.51 88.76 15.34L88.83 15.28C89.65 15.3 89.93 15.56 89.93 15.81C89.93 16.01 89.77 16.19 89.56 16.27L90.17 16.73L90.18 16.72ZM85.89 19.11H86.29V17.91H85.89V19.11Z" fill="#844E1A"/>
<path d="M92.76 18.6703C94.43 17.4903 95.73 15.3503 96.03 13.8203L98.14 14.4003C98.1 14.5603 97.97 14.6203 97.61 14.6603C98.59 15.7403 100.74 16.5703 102.11 16.9103V17.0903C101.47 17.2903 101.06 18.0203 100.97 18.6203C99.55 18.0103 98.11 16.3603 97.47 14.7903C96.8 16.3503 94.91 17.9303 92.83 18.7803L92.77 18.6803L92.76 18.6703ZM99.88 23.0503L100.6 22.0403L101.92 23.0703C101.84 23.1803 101.72 23.2203 101.45 23.2203H93.27L93.22 23.0503H96.67V20.7403H94.19L94.14 20.5703H96.66V18.4103H94.6L94.56 18.2403H98.29L98.93 17.3603L100.12 18.2703C100.05 18.3903 99.92 18.4203 99.66 18.4203H98.14V20.5803H99.09L99.78 19.6403L101.05 20.6003C100.98 20.7103 100.85 20.7503 100.59 20.7503H98.15V23.0603H99.89L99.88 23.0503Z" fill="#844E1A"/>
<path d="M110.28 19.7705H109.96C110.41 20.7105 111.3 21.4105 112.16 21.7605L112.14 21.8705C111.67 22.0105 111.33 22.4505 111.16 23.1705C110.44 22.4505 110.08 21.4105 109.84 20.0105V23.1905C109.84 23.3405 109.26 23.6905 108.75 23.6905H108.5V21.5405C107.85 22.2305 107.03 22.7905 106.04 23.2305L105.96 23.0705C106.97 22.2605 107.69 21.0505 108.07 19.8205C108.02 19.9105 107.65 20.1705 107.06 20.1705H106.83V19.6405C106.7 19.8005 106.52 19.8905 106.34 19.8905C106.16 19.8905 105.97 19.8105 105.83 19.6005C105.83 19.1305 105.7 18.5705 105.49 18.1605V23.3005C105.49 23.4205 104.92 23.7105 104.41 23.7105H104.14V19.7305C103.77 20.2705 103.35 20.7605 102.86 21.2105L102.74 21.0905C103.41 19.8905 103.83 18.2005 104.05 16.6505H102.82L102.78 16.4805H104.13V13.8405L105.85 14.0205C105.83 14.1705 105.76 14.2505 105.48 14.2905V16.4905H105.51L106.02 15.5605L106.82 16.3905V16.2205L108.19 16.7705H108.49V15.5205H106.55L106.51 15.3505H108.49V13.8105L110.2 13.9905C110.18 14.1405 110.11 14.2205 109.83 14.2605V15.3505H110.37L110.98 14.4005L112.09 15.3705C112.01 15.4805 111.88 15.5205 111.63 15.5205H109.83V16.7705H110.17L110.65 16.0805L111.97 17.0705C111.9 17.1405 111.78 17.2505 111.58 17.2905V19.8005C111.58 19.8005 111.21 20.1005 110.26 20.1005V19.7705H110.28ZM105.48 16.6505V17.9805C106.22 18.1805 106.62 18.4705 106.82 18.7505V16.6105C106.74 16.6405 106.63 16.6505 106.47 16.6505H105.47H105.48ZM108.5 16.9405H108.06V18.1605H108.5V16.9405ZM108.5 19.6005V18.3205H108.06V19.6005H108.5ZM110.28 16.9405H109.84V18.1605H110.28V16.9405ZM109.84 19.6005H110.28V18.3205H109.84V19.6005Z" fill="#844E1A"/>
<path d="M112.77 16.5903C114.07 16.7803 114.49 17.2903 114.49 17.7203C114.49 18.1303 114.14 18.4703 113.76 18.4703C113.57 18.4703 113.37 18.3803 113.21 18.1703C113.21 17.6403 113.01 17.0103 112.71 16.6403L112.77 16.5903ZM113.4 20.4803C113.55 20.4803 113.59 20.4803 113.7 20.2603C113.84 19.9803 114.483 18.3236 115.63 15.2903L115.78 15.3203C115.38 16.9503 114.67 20.0703 114.67 20.8803C114.69 21.4803 115.12 21.8103 115.12 22.7303C115.12 23.3903 114.69 23.7403 114.18 23.7403C113.94 23.7403 113.65 23.6203 113.55 23.2003C113.64 22.7103 113.69 22.2303 113.69 21.8403C113.69 20.8603 113.52 20.7303 112.97 20.6703V20.4803C113.3 20.4803 113.41 20.4703 113.41 20.4703L113.4 20.4803ZM113.18 13.9903C114.64 14.0803 115.12 14.6203 115.12 15.1003C115.12 15.5103 114.77 15.8603 114.38 15.8603C114.21 15.8603 114.01 15.7903 113.85 15.6103C113.75 15.0603 113.48 14.4203 113.12 14.0403L113.18 13.9903ZM121.32 18.2803L122.1 19.1803C122.03 19.2903 121.9 19.3303 121.65 19.3303H120.99V21.2103C120.99 21.2103 120.64 21.5503 119.65 21.5503V20.9603H119.02V22.0803C119.02 22.9703 118.79 23.6103 117.3 23.7103C117.3 22.6203 116.8 22.4303 116.03 22.3403V22.2203H117.53C117.64 22.2203 117.68 22.1703 117.68 22.0703V20.9603H116.15L116.1 20.7903H117.68V19.3203H115.25L115.21 19.1503H117.68V17.6803H116.31L116.26 17.5103H119.58L120.02 16.8903L121.25 17.7803C121.21 17.8303 121.13 17.8903 121 17.9303V18.9303L121.33 18.2703L121.32 18.2803ZM121.29 15.0603C121.23 15.1103 121.14 15.1403 121.03 15.1403C120.92 15.1403 120.78 15.1103 120.62 15.0403C119.8 15.1903 118.55 15.3003 117.42 15.3203C116.97 16.4703 116.37 17.3503 115.6 17.8903L115.47 17.8203C115.8 17.0803 116.06 15.8003 116.16 14.5803L117.62 14.9803C118.54 14.6303 119.53 14.1403 120.08 13.7803L121.29 15.0603ZM118.06 15.4903C119.01 15.8503 119.33 16.3103 119.33 16.6803C119.33 17.0603 118.99 17.3503 118.64 17.3503C118.43 17.3503 118.2 17.2503 118.07 16.9803C118.11 16.8103 118.12 16.6403 118.12 16.4503C118.12 16.1203 118.07 15.7803 117.97 15.5403L118.06 15.5003V15.4903ZM119.02 17.6903V19.1603H119.65V17.6903H119.02ZM119.65 20.7903V19.3203H119.02V20.7903H119.65ZM119.79 15.3703C121.43 15.5403 121.98 16.2403 121.98 16.8203C121.98 17.2503 121.69 17.5903 121.33 17.5903C121.18 17.5903 121.01 17.5303 120.86 17.3803C120.73 16.6803 120.29 15.8803 119.74 15.4403L119.8 15.3703H119.79Z" fill="#844E1A"/>
<path d="M125.29 16.2098L126.46 17.2698C126.4 17.3798 126.31 17.4298 126.09 17.4498C125.64 19.4498 124.7 21.4698 122.69 22.7198L122.63 22.6098C123.87 21.2298 124.48 19.0898 124.71 17.1298H122.82L122.77 16.9598H124.61L125.28 16.2198L125.29 16.2098ZM128.02 15.5198C128.19 16.6298 128.49 17.5398 128.88 18.2798C129.44 17.4098 130.01 16.2898 130.29 15.6098L131.86 16.6998C131.81 16.7998 131.72 16.8698 131.47 16.8398C130.84 17.3598 129.95 18.0398 129.03 18.5598C129.8 19.9198 130.88 20.6898 131.92 21.1998L131.87 21.3098C131.29 21.4298 130.86 21.9798 130.67 22.6698C129.22 21.2898 128.41 19.6298 128.02 16.2098V21.8698C128.02 22.8198 127.81 23.5498 126.2 23.7098C126.18 22.6898 125.93 22.3498 124.89 22.1898V22.0498H126.42C126.55 22.0498 126.58 21.9898 126.58 21.8698V13.8398L128.38 14.0098C128.38 14.1498 128.33 14.2298 128.01 14.2798V15.5298L128.02 15.5198Z" fill="#844E1A"/>
<path d="M140.51 18.5605C140.51 18.6205 140.22 18.7705 139.91 18.8505C140.99 19.0405 141.36 19.4405 141.36 19.7905C141.36 19.9105 141.32 20.0305 141.24 20.1205L141.94 20.7005C141.86 20.8105 141.74 20.8505 141.48 20.8505H139.61V22.0605C139.61 22.9705 139.42 23.5905 137.99 23.7205C137.99 22.7105 137.68 22.4605 136.91 22.3705V22.2305H138.16C138.27 22.2305 138.3 22.1805 138.3 22.0705V20.8405H132.72L132.68 20.6705H138.3V19.8705L139.95 19.9705C139.95 20.0905 139.9 20.1705 139.6 20.2105V20.6705H140.25L140.45 20.3705C140.32 20.3305 140.19 20.2605 140.08 20.1305C139.97 19.9205 139.82 19.6905 139.59 19.4705C138.36 19.7305 136.66 20.0105 134.18 20.3805C134.1 20.5005 134 20.5805 133.89 20.6005L133.23 19.1805C133.94 19.2005 135.14 19.2005 136.6 19.2005V18.4805H135.35V18.5305C135.35 18.5305 135.15 19.0105 134.08 19.0105V15.4605L135.42 16.0105H136.59V15.1605H132.87L132.83 14.9905H136.59V13.8105L138.28 13.9905C138.26 14.1305 138.16 14.2105 137.89 14.2505V14.9905H139.9L140.53 14.0805L141.68 15.0105C141.6 15.1205 141.48 15.1605 141.22 15.1605H137.89V16.0105H139.1L139.57 15.3305L140.87 16.3005C140.81 16.3805 140.68 16.4805 140.48 16.5305V18.5405L140.51 18.5605ZM134.27 21.1305C135.91 21.0505 136.47 21.6405 136.47 22.1805C136.47 22.6105 136.12 23.0005 135.72 23.0005C135.56 23.0005 135.38 22.9405 135.22 22.7905C135.08 22.2005 134.72 21.5505 134.24 21.1905L134.28 21.1305H134.27ZM136.61 16.2105H135.36V17.1905H136.61V16.2105ZM135.36 18.3305H136.61V17.3505H135.36V18.3305ZM139.22 16.2105H137.91V17.1905H139.22V16.2105ZM139.22 18.3305V17.3505H137.91V18.3305H139.22ZM137.91 19.2105H139.25C139.07 19.0705 138.86 18.9605 138.63 18.8705L138.67 18.7505C138.86 18.7505 139.05 18.7605 139.22 18.7705V18.5005H137.91V19.2205V19.2105Z" fill="#844E1A"/>
<path d="M150.65 14.5698L151.79 15.7398C151.71 15.8298 151.62 15.8498 151.41 15.8798C151.08 16.1698 150.56 16.5598 150.11 16.7898L150.39 17.0098C150.31 17.1198 150.18 17.1598 149.92 17.1598H147.98C148.15 18.0298 148.46 18.7398 148.85 19.3098C149.33 18.7398 149.84 18.0098 150.09 17.5398L151.4 18.5198C151.36 18.5898 151.29 18.6398 151.18 18.6398C151.13 18.6398 151.08 18.6298 151.03 18.6198C150.51 18.9198 149.77 19.2898 149.05 19.5698C149.77 20.5098 150.72 21.0798 151.75 21.5198L151.72 21.6298C151.15 21.7198 150.69 22.1698 150.46 22.8698C149 21.7098 148.2 20.2898 147.86 17.2898C147.51 17.6198 147.08 17.9198 146.58 18.1898C147.82 19.0798 148.27 20.4798 148.27 21.6098C148.27 23.5598 147.22 23.7298 146.32 23.7298C146.3 22.6898 145.92 22.5298 145.26 22.3998V22.2998H146.45C146.59 22.2998 146.69 22.2798 146.74 22.1998C146.84 22.0298 146.91 21.7498 146.94 21.4098C145.75 22.0298 144.22 22.4898 142.69 22.6398L142.66 22.4998C144.31 22.0098 145.92 20.9698 146.83 19.8198L146.81 19.6998C145.74 20.2398 144.27 20.7198 142.93 20.9098L142.89 20.7998C144.18 20.2998 145.56 19.3298 146.32 18.4398L146.27 18.3598C145.33 18.8098 144.2 19.1398 143.01 19.3498L142.96 19.1998C144.23 18.7098 145.36 17.9298 146.07 17.1798H144.11L144.07 17.0098H148.52L149.19 16.0798L149.95 16.6698C150.01 16.3298 150.07 15.8498 150.09 15.4798H144.32C144.32 15.5798 144.34 15.6898 144.34 15.7798C144.34 16.5198 143.98 17.0298 143.41 17.0298C143.03 17.0298 142.68 16.8098 142.68 16.3598C142.68 16.0298 142.9 15.7698 143.19 15.6298C143.54 15.4898 143.97 15.0998 144 14.6598H144.12C144.2 14.8898 144.26 15.1098 144.29 15.3098H146.48V13.8398L148.3 14.0298C148.28 14.1698 148.2 14.2498 147.93 14.2898V15.3098H149.98L150.64 14.5898L150.65 14.5698Z" fill="#844E1A"/>
<path d="M38.67 83.6404H40.26C40.5 83.2804 40.71 82.8804 40.9 82.4404L41.78 82.7404C41.6 83.0804 41.41 83.3704 41.21 83.6404H43.61V84.4704H35.23V83.6404H37.68C37.52 83.2904 37.34 82.9704 37.15 82.6604L38.14 82.5104C38.32 82.8504 38.5 83.2204 38.66 83.6404H38.67ZM39.29 90.2304C39.29 90.5404 39.21 90.7804 39.06 90.9504C38.93 91.0904 38.76 91.1704 38.54 91.1704H37.61L37.44 90.2704L38.26 90.3504C38.42 90.3304 38.51 90.2104 38.51 89.9804V89.2304H36.44V91.2904H35.65V85.0204H39.29V90.2304ZM38.51 86.7804V85.8404H36.44V86.7804H38.51ZM38.51 88.4704V87.5304H36.44V88.4704H38.51ZM41 85.3104V89.6704H40.12V85.3104H41ZM43.04 84.8704V90.3404C43.04 90.6904 42.96 90.9304 42.81 91.0604C42.66 91.2004 42.41 91.2804 42.04 91.2804H40.86L40.68 90.3404C41.13 90.3904 41.49 90.4204 41.78 90.4204C42.02 90.4204 42.14 90.3404 42.14 90.1904V84.8704H43.03H43.04Z" fill="#40220F"/>
<path d="M52.33 82.7803V84.6903H49.11C49.08 84.8403 49.06 85.0003 49.03 85.1403H52.54V85.8103H48.86C48.81 85.9703 48.77 86.1303 48.73 86.2603H51.68V90.4303H52.68V91.1003H44.44V90.4303H45.48V86.2603H47.84C47.89 86.1203 47.93 85.9603 47.98 85.8103H44.55V85.1403H48.14C48.18 84.9903 48.2 84.8403 48.23 84.6903H44.83V82.7803H52.32H52.33ZM47.08 83.4103H45.62V84.0503H47.08V83.4103ZM50.86 87.3803V86.9303H46.3V87.3803H50.86ZM50.86 88.4003V87.9503H46.3V88.4003H50.86ZM50.86 89.4503V88.9603H46.3V89.4503H50.86ZM50.86 90.4303V90.0203H46.3V90.4303H50.86ZM49.3 83.4103H47.83V84.0503H49.3V83.4103ZM51.54 83.4103H50.04V84.0503H51.54V83.4103Z" fill="#40220F"/>
<path d="M55.1 84.27C55.03 84.6 54.95 84.88 54.88 85.11C55.11 85.24 55.34 85.39 55.56 85.54L55.17 86.17C54.95 85.99 54.78 85.83 54.63 85.72C54.47 86.06 54.23 86.41 53.92 86.78L53.43 86.14C53.7 85.84 53.91 85.54 54.05 85.26C54.19 84.99 54.3 84.62 54.39 84.16L55.1 84.28V84.27ZM56.82 84.27C56.75 84.63 56.68 84.93 56.62 85.18C56.88 85.41 57.12 85.67 57.35 85.96L56.92 86.63C56.74 86.34 56.55 86.1 56.38 85.89C56.26 86.17 56.11 86.46 55.91 86.74H55.96V87.37H57.42V88.12H55.96V88.41C56.49 88.68 56.98 88.98 57.42 89.32L56.99 90C56.64 89.68 56.31 89.41 55.96 89.19V91.2H55.21V88.98C55.21 88.98 55.17 89.05 55.16 89.07C54.81 89.59 54.38 90.03 53.89 90.41L53.57 89.47C54.19 89.07 54.7 88.62 55.11 88.12H53.6V87.37H55.21V86.74H55.79L55.35 86.17C55.56 85.86 55.72 85.57 55.83 85.27C55.93 85 56.02 84.63 56.09 84.15L56.8 84.27H56.82ZM56.04 83.3H57.46V84.05H53.68V83.3H55.23C55.11 83.06 54.98 82.83 54.86 82.62L55.68 82.5C55.81 82.74 55.93 83.01 56.04 83.3ZM59.39 82.85C59.24 83.39 59.09 83.85 58.93 84.23H60.22C60.05 83.77 59.86 83.36 59.67 82.99L60.38 82.77C60.6 83.14 60.79 83.55 60.96 83.97L60.41 84.23H61.82V85.02H60.64V86.1H61.71V86.82H60.64V87.98H61.71V88.73H60.64V90.01H61.88V90.76H58.79V91.29H57.97V86.04C57.84 86.22 57.71 86.4 57.58 86.6L57.36 85.59C57.93 84.76 58.35 83.76 58.61 82.59L59.39 82.86V82.85ZM59.86 85.02H58.79V86.1H59.86V85.02ZM59.86 86.82H58.79V87.98H59.86V86.82ZM59.86 90.01V88.73H58.79V90.01H59.86Z" fill="#40220F"/>
<path d="M66.01 90.46C65.52 90.65 65.08 90.79 64.7 90.88C64.25 90.99 63.69 91.09 63.01 91.21L62.59 90.42C63.25 90.35 63.83 90.27 64.33 90.17C64.8 90.09 65.22 89.99 65.58 89.85L66.01 90.45V90.46ZM66.61 83.26C65.83 83.34 64.96 83.38 64.01 83.4V83.7C64.01 83.77 64.01 83.83 63.99 83.89H66.75V84.6H65.71V85.62H66.91L66.54 85.21C66.75 85.02 66.91 84.83 67.01 84.63C67.1 84.42 67.16 84.17 67.18 83.89V82.77C68.4 82.77 69.42 82.68 70.25 82.5L70.64 83.26C69.82 83.36 68.92 83.41 67.94 83.43V83.89H70.79V84.56H69.58V85.62H69.97V89.74H63.63V85.62H64.94V84.6H63.91C63.87 84.77 63.84 84.94 63.8 85.09C63.67 85.51 63.47 85.92 63.2 86.29L62.63 85.66C62.85 85.38 63 85.09 63.1 84.81C63.19 84.49 63.25 84.13 63.28 83.71V82.74C64.47 82.74 65.45 82.66 66.24 82.51L66.63 83.27L66.61 83.26ZM69.17 86.82V86.29H64.4V86.82H69.17ZM69.17 87.94V87.41H64.4V87.94H69.17ZM69.17 88.5H64.4V89.07H69.17V88.5ZM68.78 85.62V84.56H67.82C67.78 84.69 67.75 84.82 67.71 84.93C67.62 85.18 67.48 85.4 67.31 85.61H68.78V85.62ZM70.85 90.5L70.53 91.32C69.54 90.98 68.5 90.73 67.43 90.57L67.79 89.86C68.77 90 69.79 90.22 70.86 90.5H70.85Z" fill="#40220F"/>
<path d="M76.34 82.5905C76.26 82.9005 76.15 83.1905 76 83.4505H79.27V91.1405H78.41V90.6505H73.27V91.1405H72.42V83.4505H75.1C75.24 83.1405 75.34 82.8305 75.41 82.4805L76.33 82.5905H76.34ZM78.41 85.4005V84.3205H73.27V85.4005H78.41ZM78.41 87.5405V86.2605H73.27V87.5405H78.41ZM78.41 89.7905V88.4105H73.27V89.7905H78.41Z" fill="#40220F"/>
<path d="M85.28 83.3708C84.79 83.4608 84.23 83.5208 83.6 83.5608V84.1908H85.45V84.9008H83.6V85.3908H85.39V88.3608H83.6V88.9208H85.21V89.5608H83.6V90.3008C84.18 90.2508 84.71 90.1908 85.21 90.1208V90.4408C85.76 89.5908 86.14 88.6708 86.38 87.7008C86.54 87.0808 86.64 86.2008 86.69 85.0708H85.71V84.2808H86.7V82.5508H87.48V84.2808H89.12C89.12 87.5308 89.08 89.4608 89.02 90.0608C88.97 90.5208 88.86 90.8308 88.73 90.9808C88.57 91.1608 88.27 91.2608 87.84 91.2608C87.64 91.2608 87.42 91.2408 87.16 91.2208L87.01 90.2808C87.27 90.3408 87.55 90.3608 87.83 90.3608C88.08 90.3608 88.21 90.1708 88.24 89.7708C88.29 89.2908 88.31 87.7308 88.33 85.0708H87.45C87.39 86.1808 87.29 87.1408 87.11 87.9308C86.87 89.0108 86.43 90.1108 85.77 91.2208L85.2 90.7108V90.8108C84.39 90.9508 82.97 91.0908 80.96 91.2208L80.85 90.4308C81.56 90.4108 82.23 90.3908 82.85 90.3508V89.5608H81.24V88.9208H82.85V88.3608H81.18V85.3908H82.85V84.9008H80.79V84.1908H82.85V83.6008C82.35 83.6208 81.81 83.6308 81.24 83.6308L81.03 82.9108C82.55 82.9108 83.85 82.8408 84.92 82.6908L85.28 83.3608V83.3708ZM82.85 86.6308V86.0008H81.97V86.6308H82.85ZM82.85 87.1608H81.97V87.7608H82.85V87.1608ZM83.6 86.6308H84.6V86.0008H83.6V86.6308ZM84.6 87.1608H83.6V87.7608H84.6V87.1608Z" fill="#40220F"/>
<path d="M98 83.4507C96.16 83.7607 94.09 83.9307 91.8 83.9707V85.2207H97.5V85.8907C97.17 87.1807 96.61 88.2707 95.81 89.1707C96.51 89.6707 97.33 90.0807 98.28 90.4307L97.78 91.3207C96.71 90.8507 95.83 90.3507 95.13 89.8007C94.35 90.3907 93.3 90.8907 91.96 91.3207L91.43 90.4707C92.67 90.1107 93.66 89.6707 94.4 89.1707C94.32 89.0907 94.24 89.0207 94.18 88.9407C93.41 88.1507 92.88 87.1807 92.57 86.0407H91.79V86.7107C91.76 87.4707 91.65 88.2607 91.46 89.1107C91.27 89.8407 90.96 90.5207 90.54 91.1707L89.9 90.4607C90.24 89.9207 90.48 89.3807 90.65 88.8207C90.8 88.2207 90.89 87.5107 90.93 86.7107V83.1507C93.56 83.1507 95.74 82.9407 97.49 82.5107L97.98 83.4507H98ZM94.93 88.4607C94.98 88.5207 95.05 88.5807 95.1 88.6107C95.14 88.5707 95.17 88.5407 95.2 88.5007C95.8 87.8407 96.25 87.0107 96.53 86.0307H93.46C93.78 87.0207 94.27 87.8207 94.93 88.4507V88.4607Z" fill="#40220F"/>
<path d="M101.06 86.0007L100.53 86.8607C100.06 86.3807 99.59 86.0107 99.1 85.7307L99.57 85.0207C100.12 85.3007 100.61 85.6207 101.07 86.0007H101.06ZM101.28 87.8307C100.84 89.1407 100.36 90.2807 99.82 91.2507L99.17 90.5007C99.63 89.7507 100.1 88.6907 100.6 87.3007L101.28 87.8307ZM101.49 83.7007L100.96 84.6007C100.49 84.1207 100.02 83.7307 99.53 83.4407L100 82.6907C100.54 82.9807 101.04 83.3107 101.5 83.7007H101.49ZM103.34 82.9507C103.23 83.2807 103.13 83.5507 103.04 83.7807H103.99V82.4707H104.88V83.7807H107.09V84.6407H104.88V86.1807H107.42V87.0807H105.35V89.8207C105.35 90.0507 105.45 90.1607 105.67 90.1607H106.21C106.35 90.1607 106.45 90.1107 106.52 90.0207C106.59 89.9207 106.64 89.4607 106.68 88.6307L107.49 88.9007C107.42 89.9607 107.29 90.5607 107.13 90.7407C106.98 90.9307 106.71 91.0307 106.33 91.0307H105.36C105.1 91.0307 104.89 90.9407 104.74 90.7907C104.58 90.6207 104.5 90.4007 104.5 90.1307V87.1007H103.65V87.1807C103.63 88.2907 103.43 89.1807 103.06 89.8407C102.71 90.4507 102.15 90.9307 101.37 91.2707L100.9 90.4807C101.62 90.1507 102.11 89.7407 102.38 89.2407C102.65 88.7007 102.79 88.0207 102.79 87.1807V87.1007H101.29V86.2007H104V84.6607H102.66C102.46 85.0207 102.15 85.4607 101.72 85.9407L101.01 85.3107C101.4 84.9107 101.72 84.5007 101.96 84.1007C102.18 83.7007 102.37 83.2207 102.54 82.6407L103.36 82.9807L103.34 82.9507Z" fill="#40220F"/>
<path d="M110.57 84.8V85.43C110.28 85.96 109.9 86.51 109.45 87.08H110.57V87.61C110.43 88.23 110.3 88.72 110.15 89.07C110.48 89.51 110.75 89.78 110.97 89.89C111.16 90.02 111.45 90.12 111.84 90.18C112.28 90.26 113.14 90.3 114.44 90.31C115.39 90.31 116.09 90.29 116.57 90.23L116.46 91.13C113.95 91.13 112.42 91.09 111.86 91.01C111.36 90.93 110.96 90.81 110.66 90.65C110.4 90.52 110.11 90.25 109.79 89.82C109.53 90.28 109.18 90.77 108.75 91.29L108.11 90.57C108.58 90.07 108.92 89.64 109.12 89.26C109.27 89.03 109.46 88.56 109.67 87.84H108.43V87.13C108.8 86.74 109.19 86.21 109.59 85.56H108.21V84.81H110.56L110.57 84.8ZM110.32 83.9L109.72 84.53C109.46 84.09 109.08 83.6 108.61 83.07L109.19 82.5C109.64 82.97 110.02 83.43 110.33 83.89L110.32 83.9ZM115.78 85.63H116.17V89.15C116.17 89.44 116.09 89.66 115.94 89.81C115.81 89.94 115.64 90.01 115.42 90.01H114.53L114.35 89.22L115.1 89.26C115.26 89.26 115.36 89.14 115.36 88.91V86.37H111.72V89.78H110.9V85.62H111.37V82.77H115.8V85.62L115.78 85.63ZM112.89 85.63V84.24H115V83.49H112.14V85.63H112.89ZM114.74 86.87V89.04H112.32V86.87H114.74ZM113.99 87.5H113.07V88.4H113.99V87.5ZM114.99 85.63V84.91H113.59V85.63H114.99Z" fill="#40220F"/>
<path d="M119.09 85.9607L118.59 86.7907C118.19 86.3507 117.77 85.9907 117.34 85.7307L117.77 85.0207C118.24 85.2907 118.69 85.6007 119.09 85.9607ZM119.09 87.7507C118.79 89.1607 118.42 90.3407 117.99 91.2807L117.34 90.6407C117.7 89.8007 118.03 88.7007 118.34 87.3807L119.09 87.7507ZM119.34 83.7407L118.74 84.3807C118.43 84.0507 118 83.7107 117.45 83.3207L118.02 82.7607C118.53 83.0907 118.97 83.4107 119.33 83.7307L119.34 83.7407ZM122.55 82.4707V82.7707H125.32V83.3607H122.55V83.7707H125.65C125.58 84.2807 125.46 84.7807 125.29 85.2807L124.51 85.0507C124.62 84.8707 124.71 84.6507 124.78 84.3807H122.54V84.8107L124.28 84.6807L124.35 85.2507L122.53 85.3807V85.4707C122.53 85.6007 122.63 85.6607 122.85 85.6607H125.2V86.2207H122.64C122.36 86.2207 122.14 86.1807 121.98 86.0907C121.82 86.0007 121.74 85.8607 121.74 85.6707V85.4507L120.21 85.5707V87.0207C120.21 87.6707 120.15 88.3407 120.03 89.0507C119.88 89.7807 119.65 90.5007 119.32 91.2207L118.68 90.6207C118.99 90.0507 119.2 89.4607 119.33 88.8307C119.42 88.1907 119.47 87.5807 119.47 87.0307V83.8007H121.72V82.4907H122.54L122.55 82.4707ZM121.26 89.5107C121.04 90.1107 120.78 90.6107 120.47 91.0507L119.83 90.5607C120.12 90.1807 120.4 89.7307 120.65 89.2207L121.25 89.5207L121.26 89.5107ZM121.76 84.3807H120.23V84.9807L121.76 84.8607V84.3707V84.3807ZM125.11 86.5507V88.8807H123.06C123.39 89.0807 123.66 89.2807 123.9 89.4707L123.37 90.0407C123.13 89.8007 122.8 89.5407 122.37 89.2507L122.75 88.8807H120.55V86.5507H125.11ZM122.47 87.4507V87.0807H121.26V87.4507H122.47ZM122.47 87.9407H121.26V88.3507H122.47V87.9407ZM122.11 89.1807V90.3007C122.11 90.4407 122.19 90.5207 122.36 90.5207H123.01C123.27 90.5207 123.48 90.5007 123.6 90.4607C123.75 90.4107 123.84 90.2307 123.89 89.8807L124.57 90.1007C124.48 90.6207 124.32 90.9207 124.1 91.0107C123.91 91.1107 123.56 91.1507 123.07 91.1507H122.11C121.89 91.1507 121.72 91.0807 121.59 90.9707C121.46 90.8407 121.4 90.6707 121.4 90.4807V89.1707H122.11V89.1807ZM123.14 87.4507H124.39V87.0807H123.14V87.4507ZM124.39 87.9407H123.14V88.3507H124.39V87.9407ZM125.78 90.4507L125.11 90.9307C124.93 90.5007 124.67 90.0207 124.36 89.4707L124.94 89.1007C125.3 89.6307 125.59 90.0807 125.79 90.4507H125.78Z" fill="#40220F"/>
<path d="M130.17 82.7805V85.0705L130.85 85.1405C130.72 85.4505 130.6 85.7205 130.48 85.9705H132.71C132.56 85.8105 132.43 85.6505 132.28 85.5205L133.03 85.2605C133.29 85.4905 133.52 85.7205 133.71 85.9705H134.74V86.7205H132.39C132.66 86.9905 132.93 87.1905 133.17 87.3105C133.53 87.5405 134.06 87.7505 134.75 87.9605L134.39 88.7505C134.28 88.7105 134.19 88.6705 134.1 88.6305V91.2305H133.31V90.9205H131.75V91.2305H130.97V88.1205H133.01C132.79 88.0005 132.6 87.8805 132.45 87.7605C132.12 87.5405 131.78 87.1905 131.44 86.7205H130.01C129.88 86.8705 129.76 87.0105 129.64 87.1205C129.32 87.4605 128.86 87.7805 128.26 88.1105H130.25V91.2205H129.47V90.9105H128.07V91.2205H127.29V88.5905C127.16 88.6505 127.04 88.7005 126.93 88.7405L126.54 87.9505C127.53 87.5905 128.29 87.2105 128.84 86.7905C128.87 86.7705 128.89 86.7405 128.93 86.7105H126.54V85.9605H129.58C129.74 85.7305 129.88 85.4605 130.02 85.1705H127.19V82.7705H130.18L130.17 82.7805ZM129.39 83.5305H127.97V84.4305H129.39V83.5305ZM129.46 90.1605V88.8505H128.06V90.1605H129.46ZM134.09 82.7805V85.1805H130.96V82.7805H134.09ZM133.3 83.5305H131.74V84.4305H133.3V83.5305ZM133.3 90.1605V88.8505H131.74V90.1605H133.3Z" fill="#40220F"/>
<path d="M57.1 45.2903C57.2 45.3603 57.29 45.4503 57.39 45.5103C58.1 45.9103 58.82 46.3103 59.54 46.7103C60.32 47.1503 61.11 47.6003 61.89 48.0403C62.49 48.3803 63.1 48.7203 63.71 49.0603C64.4 49.4503 65.09 49.8403 65.78 50.2303C66.28 50.5103 66.78 50.8103 67.3 51.0703C67.83 51.3403 68.24 51.7503 68.62 52.1903C68.94 52.5503 69.22 52.9603 69.47 53.3703C69.85 54.0003 70.1 54.6903 70.21 55.4303C70.26 55.7603 70.31 56.0903 70.31 56.4203C70.31 57.0303 70.22 57.6403 70.05 58.2303C69.85 58.9703 69.51 59.6503 69.05 60.2503C68.42 61.0703 67.65 61.7503 66.72 62.2403C66.15 62.5403 65.55 62.7703 64.91 62.8803C64.57 62.9403 64.23 62.9903 63.89 63.0003C63.31 63.0203 62.74 63.0703 62.17 63.2203C61.86 63.3003 61.53 63.3203 61.2 63.3503C60.99 63.3703 60.77 63.3903 60.56 63.3803C59.72 63.3403 58.91 63.2003 58.14 62.8603C57.41 62.5503 56.77 62.1103 56.23 61.5403C55.67 60.9503 55.14 60.3503 54.82 59.5803C54.59 59.0303 54.44 58.4703 54.34 57.8803C54.21 57.1103 54.24 56.3403 54.24 55.5703C54.24 52.3103 54.26 49.0503 54.27 45.7803C54.27 45.7403 54.27 45.6903 54.27 45.6203C54.42 45.6903 54.55 45.7503 54.68 45.8203C55.2 46.1003 55.72 46.3703 56.25 46.6503C56.46 46.7603 56.68 46.8803 56.89 46.9903C56.98 47.0403 57.04 47.0203 57.04 46.9103C57.04 46.3703 57.04 45.8303 57.03 45.2803H57.1V45.2903ZM61.54 51.2103C61.54 51.2103 61.53 51.2703 61.53 51.2903C61.53 52.3003 61.53 53.3003 61.53 54.3103C61.53 54.3603 61.59 54.4403 61.65 54.4603C62.03 54.6303 62.37 54.8503 62.65 55.1703C63.2 55.8003 63.38 56.5103 63.21 57.3103C63.06 58.0003 62.64 58.5103 62.08 58.9003C61.49 59.3003 60.82 59.2803 60.17 59.1503C59.57 59.0303 59.14 58.6503 58.79 58.1703C58.59 57.9003 58.42 57.6003 58.42 57.2603C58.4 55.7903 58.39 54.3303 58.38 52.8603C58.38 51.6203 58.38 50.3803 58.38 49.1303C58.38 49.0203 58.36 48.9503 58.25 48.9003C57.97 48.7603 57.7 48.5903 57.42 48.4403C56.95 48.1703 56.47 47.9103 55.99 47.6403C55.75 47.5103 55.51 47.3803 55.26 47.2503C55.26 47.3103 55.25 47.3403 55.25 47.3803C55.26 50.0703 55.27 52.7603 55.29 55.4503C55.29 56.1703 55.32 56.8903 55.32 57.6103C55.32 58.1103 55.46 58.5803 55.66 59.0403C55.99 59.7803 56.46 60.4103 57.06 60.9603C57.75 61.6003 58.52 62.0903 59.45 62.2703C59.9 62.3603 60.37 62.4003 60.83 62.4303C61.07 62.4503 61.31 62.3903 61.55 62.3703C62.14 62.3203 62.69 62.1403 63.23 61.9003C64.21 61.4503 64.95 60.7203 65.57 59.8503C66.13 59.0503 66.37 58.1403 66.42 57.1903C66.44 56.6803 66.38 56.1603 66.31 55.6503C66.17 54.6303 65.62 53.8203 64.96 53.0703C64.5 52.5603 63.98 52.1203 63.38 51.7803C62.81 51.4703 62.22 51.2803 61.56 51.2203L61.54 51.2103Z" fill="#40220F"/>
<path d="M115.84 53.4399C115.7 53.4399 115.56 53.4299 115.43 53.4299C114.76 53.4299 114.09 53.4299 113.42 53.4299H113.21C113.21 53.4899 113.2 53.5399 113.2 53.5799C113.19 55.2199 113.17 56.8599 113.17 58.4999C113.17 59.9099 113.17 61.3199 113.17 62.7299C113.17 62.8899 113.13 62.9399 112.97 62.9399C111.4 62.9399 109.84 62.9399 108.27 62.9399C108.1 62.9399 108.06 62.8899 108.06 62.7199C108.06 59.7199 108.06 56.7299 108.06 53.7299V53.4799C107.23 53.4599 106.43 53.4399 105.6 53.4199C105.66 53.2299 105.71 53.0499 105.77 52.8799C106.04 52.0899 106.32 51.2999 106.6 50.5099C106.77 50.0299 106.94 49.5499 107.1 49.0699C107.15 48.9299 107.21 48.8899 107.36 48.8899C109.91 48.8899 112.46 48.8899 115.01 48.8899C115.29 48.8899 115.58 48.8899 115.86 48.8799V53.4599L115.84 53.4399Z" fill="#40220F"/>
<path d="M84.68 48.9102H84.87C86.47 48.9102 88.07 48.9102 89.67 48.9102C89.81 48.9102 89.87 48.9502 89.91 49.0802C90.35 50.3702 90.81 51.6702 91.26 52.9602C91.48 53.5902 91.7 54.2202 91.93 54.8602C91.95 54.9202 91.98 54.9802 92.03 55.0902C92.13 54.7302 92.21 54.4202 92.3 54.1002C92.64 52.8202 92.99 51.5402 93.33 50.2602C93.44 49.8602 93.55 49.4602 93.65 49.0502C93.68 48.9402 93.73 48.9202 93.83 48.9202C95.07 48.9202 96.3 48.9202 97.54 48.9202C97.69 48.9202 97.71 48.9802 97.73 49.1102C97.85 49.7802 97.99 50.4602 98.13 51.1202C98.42 52.4402 98.72 53.7602 99.01 55.0802C99.01 55.0802 99.02 55.1002 99.05 55.1302C99.08 55.0802 99.12 55.0402 99.14 54.9902C99.4 54.2602 99.66 53.5402 99.92 52.8102C100.35 51.5902 100.79 50.3702 101.21 49.1502C101.27 48.9802 101.36 48.9102 101.56 48.9102C103.14 48.9202 104.72 48.9102 106.3 48.9102H106.53C106.44 49.1902 106.36 49.4402 106.28 49.6802C106.02 50.4302 105.75 51.1702 105.5 51.9202C105.04 53.2302 104.59 54.5402 104.14 55.8502C103.78 56.8702 103.43 57.8902 103.07 58.9102C102.63 60.1702 102.19 61.4402 101.75 62.7102C101.69 62.8902 101.61 62.9702 101.4 62.9602C100.1 62.9502 98.81 62.9602 97.51 62.9602C97.36 62.9602 97.28 62.9402 97.25 62.7602C96.99 61.4602 96.71 60.1602 96.43 58.8502C96.21 57.8302 95.99 56.8102 95.77 55.7902C95.77 55.7702 95.76 55.7502 95.73 55.6902C95.65 55.9902 95.57 56.2502 95.5 56.5102C95.15 57.8002 94.81 59.0802 94.47 60.3702C94.26 61.1702 94.04 61.9702 93.84 62.7702C93.8 62.9102 93.75 62.9602 93.61 62.9602C92.32 62.9602 91.03 62.9602 89.74 62.9602C89.6 62.9602 89.54 62.9102 89.5 62.7902C89.17 61.8502 88.85 60.9102 88.52 59.9602C87.98 58.3902 87.43 56.8202 86.88 55.2602C86.54 54.2802 86.19 53.3002 85.85 52.3302C85.46 51.2202 85.07 50.1002 84.68 48.9902C84.68 48.9802 84.68 48.9602 84.68 48.9102Z" fill="#40220F"/>
<path d="M83.11 55.7606C83.33 55.8906 83.52 56.0106 83.71 56.1306C84.1 56.3506 84.5 56.5606 84.8 56.9006C85.21 57.3606 85.44 57.9006 85.52 58.5006C85.55 58.7706 85.56 59.0406 85.56 59.3106C85.54 60.1806 85.26 60.9406 84.68 61.6006C84.05 62.3206 83.24 62.7206 82.32 62.9106C82.08 62.9606 81.83 62.9506 81.58 62.9506C78.95 62.9506 76.33 62.9506 73.7 62.9506C73.53 62.9506 73.48 62.9106 73.48 62.7306C73.48 58.1906 73.48 53.6606 73.48 49.1206C73.48 48.9506 73.51 48.8906 73.7 48.8906C74.06 48.9006 74.42 48.8906 74.78 48.8906C77.04 48.9006 79.3 48.8906 81.56 48.9306C82.28 48.9406 82.94 49.2006 83.51 49.6506C84.18 50.1806 84.58 50.8806 84.7 51.7306C84.89 53.0106 84.53 54.1406 83.77 55.1606C83.69 55.2706 83.58 55.3606 83.48 55.4606C83.38 55.5506 83.26 55.6206 83.11 55.7406V55.7606ZM77.77 59.8606C78.52 59.8606 79.25 59.8706 79.97 59.8606C80.26 59.8606 80.46 59.6706 80.56 59.3906C80.68 59.0706 80.68 58.7406 80.61 58.4106C80.56 58.1806 80.42 57.9806 80.2 57.8906C80.05 57.8306 79.86 57.8306 79.69 57.8306C79.11 57.8306 78.52 57.8306 77.94 57.8306C77.88 57.8306 77.82 57.8306 77.76 57.8306V59.8606H77.77ZM77.77 54.2806C78.29 54.2706 78.8 54.3406 79.28 54.1706C79.45 54.1106 79.67 54.0206 79.73 53.8906C79.9 53.5306 79.96 53.1306 79.73 52.7606C79.68 52.6706 79.57 52.5906 79.47 52.5606C79.26 52.5006 79.04 52.4406 78.82 52.4306C78.47 52.4106 78.12 52.4306 77.77 52.4306V54.2906V54.2806Z" fill="#40220F"/>
<path d="M69.46 67.48C69.51 67.29 69.56 67.1 69.6 66.91C69.69 66.52 69.79 66.12 69.87 65.72C69.89 65.61 69.93 65.58 70.04 65.58C70.15 65.58 70.2 65.61 70.22 65.71C70.3 66.07 70.39 66.43 70.47 66.8C70.52 67.03 70.57 67.27 70.66 67.51C70.71 67.28 70.76 67.05 70.81 66.81C70.88 66.45 70.95 66.09 71.03 65.74C71.07 65.57 71.11 65.55 71.33 65.62C71.24 66.02 71.15 66.43 71.05 66.83C70.97 67.18 70.89 67.52 70.82 67.87C70.8 67.99 70.75 68.02 70.64 68.02C70.51 68.02 70.48 67.95 70.46 67.86C70.33 67.29 70.2 66.72 70.07 66.16C70.07 66.15 70.06 66.14 70.02 66.09C69.98 66.24 69.94 66.36 69.91 66.48C69.8 66.95 69.7 67.42 69.59 67.88C69.57 67.99 69.51 68.03 69.39 68.02C69.27 68.01 69.25 67.97 69.23 67.86C69.08 67.16 68.92 66.46 68.76 65.75C68.74 65.68 68.71 65.59 68.83 65.58C68.91 65.58 69 65.54 69.03 65.69C69.13 66.26 69.26 66.83 69.37 67.4C69.37 67.42 69.38 67.44 69.39 67.46C69.4 67.46 69.42 67.46 69.43 67.46L69.46 67.48Z" fill="#40220F"/>
<path d="M56.77 66.7301C57.11 66.9701 57.21 67.2601 57.07 67.6301C56.97 67.8901 56.77 68.0101 56.51 68.0201C56.23 68.0301 55.94 68.0201 55.66 68.0201C55.55 68.0201 55.51 67.9801 55.51 67.8701C55.51 67.1601 55.51 66.4501 55.51 65.7401C55.51 65.6301 55.55 65.5801 55.66 65.5901C55.98 65.6101 56.3 65.6001 56.63 65.6301C56.8 65.6401 56.92 65.7601 56.98 65.9201C57.1 66.2401 57.05 66.5101 56.77 66.7301ZM55.81 67.7401C56.03 67.7401 56.24 67.7401 56.45 67.7401C56.67 67.7401 56.82 67.6101 56.83 67.4101C56.85 67.1201 56.74 66.9401 56.5 66.9201C56.27 66.9001 56.04 66.9201 55.81 66.9201V67.7501V67.7401ZM55.81 65.8601V66.6301C56.04 66.6301 56.27 66.6401 56.49 66.6301C56.65 66.6201 56.76 66.4701 56.77 66.2901C56.77 66.0901 56.71 65.9501 56.54 65.9201C56.31 65.8801 56.07 65.8801 55.82 65.8701L55.81 65.8601Z" fill="#40220F"/>
<path d="M111.53 67.0099C111.36 67.0099 111.2 67.0099 111.04 67.0099C110.94 67.0099 110.89 66.9799 110.89 66.8699C110.89 66.7499 110.93 66.7199 111.04 66.7199C111.24 66.7199 111.44 66.7199 111.65 66.7199C111.76 66.7199 111.8 66.7599 111.8 66.8699C111.8 67.1899 111.8 67.5199 111.8 67.8399C111.8 67.8999 111.75 67.9499 111.73 68.0099C111.68 67.9599 111.64 67.9199 111.59 67.8699C111.57 67.8499 111.56 67.8099 111.54 67.7699C111.5 67.7899 111.47 67.8099 111.45 67.8299C111.15 68.1899 110.43 68.1399 110.14 67.6399C109.81 67.0799 109.83 66.4899 110.16 65.9299C110.36 65.5899 110.71 65.4999 111.08 65.5499C111.43 65.5999 111.66 65.8199 111.74 66.1699C111.75 66.2199 111.72 66.3399 111.7 66.3399C111.62 66.3399 111.51 66.4099 111.47 66.2499C111.41 66.0099 111.25 65.8699 111 65.8399C110.71 65.7999 110.48 65.9099 110.34 66.1699C110.15 66.5399 110.14 66.9399 110.27 67.3199C110.38 67.6199 110.69 67.8899 111.07 67.7699C111.36 67.6799 111.57 67.3499 111.52 67.0099H111.53Z" fill="#40220F"/>
<path d="M97.92 66.2103V67.0003C97.92 67.2903 97.92 67.5903 97.92 67.8803C97.92 67.9703 97.89 68.0403 97.79 68.0103C97.74 68.0003 97.67 67.9303 97.67 67.8903C97.67 67.1603 97.67 66.4403 97.67 65.7103C97.67 65.6703 97.71 65.5903 97.73 65.5903C97.81 65.5903 97.92 65.6003 97.96 65.6503C98.07 65.7903 98.14 65.9503 98.23 66.1103C98.46 66.5303 98.7 66.9503 98.93 67.3703C98.94 67.3903 98.96 67.4103 99 67.4703C99 67.3703 99.01 67.3103 99.01 67.2503C99.01 66.7503 99.01 66.2603 99.01 65.7603C99.01 65.6603 99.01 65.5703 99.16 65.5703C99.3 65.5703 99.3 65.6503 99.3 65.7503C99.3 66.4403 99.3 67.1303 99.3 67.8303C99.3 67.8903 99.26 67.9903 99.23 67.9903C99.13 67.9903 99.01 68.0503 98.94 67.9203C98.78 67.6203 98.6 67.3203 98.44 67.0203C98.3 66.7603 98.16 66.5103 98.02 66.2503C98.01 66.2203 97.98 66.2003 97.96 66.1803C97.95 66.1803 97.93 66.1803 97.92 66.1903V66.2103Z" fill="#40220F"/>
<path d="M82.17 66.8499C82.39 67.0299 82.4 67.2799 82.41 67.5299C82.41 67.6899 82.45 67.8399 82.47 67.9999C82.19 68.0499 82.17 68.0199 82.16 67.7499C82.16 67.5699 82.12 67.3899 82.09 67.2099C82.07 67.0599 81.96 66.9899 81.82 66.9899C81.6 66.9799 81.37 66.9899 81.12 66.9899C81.12 67.2899 81.12 67.5699 81.12 67.8499C81.12 67.9399 81.13 68.0299 80.99 68.0299C80.84 68.0299 80.84 67.9499 80.84 67.8399C80.84 67.1499 80.84 66.4699 80.84 65.7799C80.84 65.6399 80.87 65.5799 81.02 65.5899C81.32 65.6099 81.62 65.5899 81.92 65.6299C82.42 65.7099 82.62 66.2399 82.34 66.6599C82.3 66.7199 82.24 66.7799 82.17 66.8599V66.8499ZM81.14 66.6999C81.39 66.6999 81.62 66.7099 81.86 66.6999C82.06 66.6899 82.16 66.5499 82.17 66.3299C82.17 66.0699 82.08 65.8999 81.87 65.8799C81.63 65.8599 81.39 65.8799 81.14 65.8799V66.6999Z" fill="#40220F"/>
<path d="M108.61 66.8304C108.58 67.1704 108.52 67.5104 108.26 67.8004C107.93 68.1704 107.14 68.1804 106.83 67.6204C106.54 67.1004 106.56 66.2904 106.96 65.8304C107.3 65.4304 108.02 65.4504 108.36 65.9304C108.54 66.1904 108.6 66.4904 108.61 66.8304ZM108.37 66.8004C108.3 66.5704 108.25 66.3404 108.15 66.1304C107.94 65.6904 107.29 65.7604 107.11 66.0804C106.87 66.5104 106.85 66.9504 107.04 67.3904C107.15 67.6404 107.35 67.7804 107.62 67.7904C107.86 67.7904 108.06 67.6704 108.16 67.4504C108.25 67.2504 108.3 67.0204 108.38 66.7904L108.37 66.8004Z" fill="#40220F"/>
<path d="M101.75 65.55C102.13 65.53 102.46 65.84 102.59 66.3C102.72 66.75 102.68 67.19 102.46 67.61C102.29 67.92 102.01 68.07 101.67 68.07C101.37 68.07 101.1 67.94 100.94 67.68C100.6 67.1 100.59 66.5 100.96 65.91C101.13 65.65 101.38 65.54 101.75 65.54V65.55ZM100.93 66.8C101 67.02 101.04 67.23 101.12 67.42C101.22 67.66 101.43 67.8 101.69 67.8C101.95 67.8 102.15 67.66 102.26 67.42C102.45 67.02 102.45 66.61 102.26 66.21C102.17 66 102.01 65.86 101.77 65.84C101.5 65.82 101.27 65.89 101.15 66.15C101.05 66.36 101 66.59 100.93 66.81V66.8Z" fill="#40220F"/>
<path d="M62.08 65.5507C62.46 65.5507 62.76 65.7107 62.82 66.1707C62.82 66.2107 62.78 66.3007 62.76 66.3007C62.69 66.3007 62.59 66.3607 62.56 66.2207C62.47 65.8007 62.13 65.7507 61.81 65.8707C61.68 65.9207 61.63 66.0307 61.62 66.1707C61.62 66.3207 61.65 66.4307 61.8 66.4907C61.96 66.5507 62.13 66.5907 62.29 66.6507C62.43 66.7007 62.59 66.7507 62.71 66.8407C62.97 67.0307 62.96 67.3207 62.88 67.5907C62.8 67.8607 62.58 67.9907 62.31 68.0307C62.07 68.0607 61.83 68.0607 61.6 67.9107C61.39 67.7707 61.31 67.5607 61.28 67.3307C61.28 67.2907 61.33 67.2207 61.37 67.2007C61.46 67.1707 61.53 67.2207 61.54 67.3107C61.57 67.4907 61.66 67.6107 61.81 67.7007C62.05 67.8407 62.43 67.7807 62.56 67.5807C62.67 67.4107 62.66 67.1007 62.42 67.0107C62.26 66.9507 62.08 66.9007 61.92 66.8407C61.78 66.7907 61.63 66.7407 61.52 66.6507C61.24 66.4307 61.27 65.8707 61.56 65.6807C61.71 65.5907 61.89 65.5407 62.05 65.4707C62.05 65.4907 62.06 65.5007 62.07 65.5207L62.08 65.5507Z" fill="#40220F"/>
<path d="M94.8 66.6199H95.87C95.87 66.3299 95.87 66.0498 95.87 65.7698C95.87 65.6698 95.87 65.5898 96.01 65.5898C96.16 65.5898 96.16 65.6698 96.16 65.7798C96.16 66.4698 96.16 67.1498 96.16 67.8398C96.16 67.9498 96.16 68.0298 96.01 68.0298C95.86 68.0298 95.87 67.9398 95.87 67.8498C95.87 67.5498 95.87 67.2498 95.87 66.9398H94.8V67.2098C94.8 67.4398 94.8 67.6598 94.8 67.8898C94.8 67.9998 94.77 68.0499 94.65 68.0499C94.53 68.0499 94.51 67.9898 94.51 67.8898C94.51 67.1898 94.51 66.4798 94.51 65.7798C94.51 65.6798 94.52 65.6199 94.65 65.6199C94.77 65.6199 94.8 65.6698 94.8 65.7798C94.8 66.0698 94.8 66.3499 94.8 66.6599V66.6199Z" fill="#40220F"/>
<path d="M88.8 65.8706V66.6306C89.11 66.6306 89.42 66.6306 89.72 66.6306C89.84 66.6306 89.87 66.6706 89.87 66.7806C89.87 66.8906 89.82 66.9106 89.72 66.9106C89.42 66.9106 89.12 66.9106 88.81 66.9106V67.7306C88.87 67.7306 88.93 67.7306 88.99 67.7306C89.26 67.7306 89.53 67.7306 89.8 67.7306C89.91 67.7306 89.94 67.7806 89.93 67.8806C89.93 67.9706 89.9 68.0206 89.8 68.0206C89.41 68.0206 89.01 68.0206 88.62 68.0206C88.58 68.0206 88.5 67.9406 88.5 67.9006C88.5 67.1706 88.5 66.4506 88.5 65.7206C88.5 65.6806 88.58 65.6006 88.62 65.6006C89.01 65.6006 89.41 65.6006 89.8 65.6006C89.9 65.6006 89.93 65.6506 89.93 65.7406C89.93 65.8406 89.91 65.8906 89.79 65.8906C89.46 65.8906 89.13 65.8906 88.79 65.8906L88.8 65.8706Z" fill="#40220F"/>
<path d="M78.29 65.8706V66.6306C78.43 66.6306 78.56 66.6306 78.7 66.6306C78.87 66.6306 79.04 66.6306 79.2 66.6306C79.3 66.6306 79.36 66.6506 79.36 66.7706C79.36 66.8906 79.31 66.9106 79.2 66.9106C78.9 66.9106 78.6 66.9106 78.29 66.9106V67.7406C78.63 67.7406 78.97 67.7406 79.3 67.7406C79.44 67.7406 79.48 67.8006 79.46 67.9106C79.45 67.9506 79.39 68.0206 79.35 68.0206C78.95 68.0206 78.55 68.0206 78.15 68.0206C78.11 68.0206 78.04 67.9506 78.04 67.9106C78.04 67.1806 78.04 66.4406 78.04 65.7106C78.04 65.6706 78.11 65.6006 78.15 65.6006C78.54 65.6006 78.92 65.6006 79.31 65.6006C79.42 65.6006 79.43 65.6606 79.43 65.7506C79.43 65.8406 79.41 65.8906 79.3 65.8906C78.97 65.8906 78.64 65.8906 78.29 65.8906V65.8706Z" fill="#40220F"/>
<path d="M58.83 66.6301C59.13 66.6301 59.43 66.6301 59.72 66.6301C59.82 66.6301 59.9 66.6301 59.9 66.7701C59.9 66.9101 59.83 66.9201 59.72 66.9101C59.43 66.9101 59.13 66.9101 58.83 66.9101V67.7401C59.17 67.7401 59.5 67.7401 59.84 67.7401C59.97 67.7401 60.03 67.7901 60 67.9101C59.99 67.9501 59.93 68.0201 59.89 68.0201C59.49 68.0201 59.09 68.0201 58.69 68.0201C58.56 68.0201 58.58 67.9401 58.58 67.8501C58.58 67.2201 58.58 66.5901 58.58 65.9601C58.58 65.7067 58.7033 65.5801 58.95 65.5801C59.24 65.5801 59.53 65.5801 59.82 65.5801C59.93 65.5801 59.98 65.6001 59.98 65.7201C59.98 65.8401 59.92 65.8601 59.82 65.8601C59.5 65.8601 59.18 65.8601 58.84 65.8601V66.6201L58.83 66.6301Z" fill="#40220F"/>
<path d="M93.06 66.2899C92.93 66.3199 92.81 66.3599 92.75 66.1899C92.68 65.9899 92.55 65.8499 92.32 65.8299C92.03 65.7999 91.81 65.8999 91.68 66.1599C91.46 66.6199 91.47 67.0999 91.73 67.5399C91.84 67.7299 92.05 67.8099 92.26 67.7899C92.49 67.7699 92.65 67.6399 92.74 67.4199C92.76 67.3799 92.77 67.3299 92.78 67.2899C92.83 67.0799 92.85 67.0699 93.09 67.1299C93.05 67.4099 92.98 67.6799 92.74 67.8799C92.35 68.2099 91.62 68.0799 91.4 67.5399C91.21 67.0599 91.19 66.5799 91.4 66.0999C91.58 65.6799 91.91 65.4899 92.37 65.5499C92.66 65.5899 92.98 65.7399 93.07 66.2899H93.06Z" fill="#40220F"/>
<path d="M74.26 68.0003C74.08 68.0336 73.9633 67.9703 73.91 67.8103C73.89 67.7503 73.87 67.6903 73.85 67.6303C73.7767 67.4036 73.6167 67.2903 73.37 67.2903H73.35C73.0167 67.2903 72.81 67.4536 72.73 67.7803C72.67 68.0303 72.65 68.0403 72.38 67.9903C72.4 67.9203 72.42 67.8503 72.44 67.7803C72.66 67.1103 72.88 66.4303 73.1 65.7603C73.13 65.6603 73.16 65.5803 73.3 65.5703C73.45 65.5703 73.48 65.6503 73.52 65.7603C73.75 66.4703 73.99 67.1803 74.23 67.8903C74.24 67.9203 74.24 67.9503 74.25 67.9903L74.26 68.0003ZM73.65 67.0003C73.54 66.6303 73.44 66.2903 73.33 65.9503C73.32 65.9503 73.31 65.9503 73.29 65.9503C73.18 66.2903 73.08 66.6403 72.97 66.9903H73.64L73.65 67.0003Z" fill="#40220F"/>
<path d="M113.07 65.6201C113.3 65.5401 113.42 65.6201 113.5 65.7901C113.62 66.0401 113.76 66.2901 113.89 66.5401C113.92 66.5901 113.95 66.6501 113.99 66.7201C114.03 66.6801 114.05 66.6501 114.07 66.6201C114.21 66.3501 114.37 66.0801 114.49 65.7901C114.58 65.5901 114.7 65.5601 114.9 65.6101C114.75 65.8801 114.61 66.1501 114.46 66.4101C114.36 66.6001 114.25 66.7801 114.15 66.9701C114.12 67.0301 114.11 67.1101 114.11 67.1801C114.11 67.4201 114.11 67.6501 114.11 67.8901C114.11 68.0001 114.06 68.0201 113.96 68.0201C113.87 68.0201 113.82 67.9901 113.82 67.8901C113.82 67.7401 113.8 67.5901 113.82 67.4401C113.87 67.0901 113.72 66.8101 113.55 66.5201C113.38 66.2301 113.22 65.9201 113.04 65.6101L113.07 65.6201Z" fill="#40220F"/>
<path d="M86.54 65.8699C86.54 66.5199 86.54 67.1498 86.54 67.7698C86.54 67.8198 86.54 67.8599 86.54 67.9099C86.54 68.0199 86.47 68.0398 86.39 68.0198C86.34 68.0098 86.27 67.9499 86.26 67.9099C86.25 67.6799 86.26 67.4498 86.26 67.2198C86.26 66.7798 86.26 66.3398 86.26 65.8798C86.08 65.8798 85.91 65.8798 85.74 65.8798C85.63 65.8798 85.56 65.8799 85.57 65.7299C85.57 65.6099 85.63 65.5898 85.73 65.5898C86.17 65.5898 86.61 65.5898 87.05 65.5898C87.15 65.5898 87.21 65.6099 87.21 65.7299C87.21 65.8499 87.16 65.8798 87.05 65.8798C86.89 65.8798 86.73 65.8798 86.54 65.8798V65.8699Z" fill="#40220F"/>
<path d="M76.03 65.8703V67.6603C76.03 67.7303 76.03 67.8003 76.03 67.8703C76.04 67.9803 75.99 68.0203 75.88 68.0203C75.77 68.0203 75.75 67.9703 75.75 67.8703C75.75 67.2603 75.75 66.6503 75.75 66.0303C75.75 65.9803 75.75 65.9403 75.75 65.8603C75.58 65.8603 75.42 65.8603 75.25 65.8603C75.14 65.8603 75.09 65.8303 75.09 65.7103C75.09 65.5903 75.15 65.5703 75.25 65.5703C75.69 65.5703 76.13 65.5703 76.57 65.5703C76.67 65.5703 76.73 65.5803 76.73 65.7103C76.73 65.8303 76.68 65.8603 76.57 65.8603C76.4 65.8603 76.23 65.8603 76.03 65.8603V65.8703Z" fill="#40220F"/>
<path d="M65.06 65.8701V66.1001C65.06 66.6901 65.06 67.2801 65.06 67.8701C65.06 67.9701 65.04 68.0301 64.92 68.0301C64.8 68.0301 64.78 67.9801 64.78 67.8701C64.78 67.2801 64.78 66.6901 64.78 66.1001V65.8701C64.6 65.8701 64.43 65.8701 64.27 65.8701C64.17 65.8701 64.12 65.8501 64.12 65.7301C64.12 65.6201 64.16 65.5801 64.27 65.5801C64.71 65.5801 65.16 65.5801 65.6 65.5801C65.71 65.5801 65.75 65.6101 65.75 65.7301C65.75 65.8601 65.69 65.8701 65.59 65.8701C65.42 65.8701 65.26 65.8701 65.06 65.8701Z" fill="#40220F"/>
<path d="M104.34 67.7406C104.67 67.7406 104.98 67.7406 105.28 67.7406C105.39 67.7406 105.45 67.7606 105.45 67.8906C105.45 68.0206 105.38 68.0306 105.28 68.0306C104.93 68.0306 104.59 68.0306 104.24 68.0306C104.12 68.0306 104.08 67.9906 104.08 67.8706C104.08 67.1706 104.08 66.4606 104.08 65.7606C104.08 65.6706 104.08 65.6006 104.2 65.6006C104.34 65.6006 104.33 65.6806 104.33 65.7706C104.33 66.3506 104.33 66.9406 104.33 67.5206V67.7506L104.34 67.7406Z" fill="#40220F"/>
</svg>
