<svg width="1920" height="132" viewBox="0 0 1920 132" fill="none" xmlns="http://www.w3.org/2000/svg">
<g clip-path="url(#clip0_538_237640)">
<path d="M1920 132V0L0 0V132L1920 132Z" fill="url(#paint0_linear_538_237640)"/>
<path d="M1195.71 51.8164V87.2781" stroke="#703E1E" stroke-width="0.25" stroke-miterlimit="10"/>
<path d="M553 66.6874C555.938 63.4006 559.035 57.5398 560.981 51.481L565.427 53.1838C565.269 53.5798 564.931 53.8372 563.958 53.758C563.105 55.54 562.132 57.2626 561.1 58.8466L562.112 59.2228C561.993 59.5792 561.616 59.797 560.941 59.9158V73.9342C560.941 73.9342 560.484 74.8648 557.963 74.8648V63.0046C556.573 64.5886 555.065 65.9746 553.516 67.1032L553.02 66.6874H553ZM559.889 77.4586C560.087 78.2704 560.167 79.003 560.167 79.6563C560.167 83.5569 557.447 85.6359 555.243 85.6359C554.151 85.6359 553.417 85.1409 553.417 84.2895C553.417 83.5173 554.032 82.9035 554.807 82.5471C556.772 81.9333 559.075 80.1117 559.253 77.4586H559.869H559.889ZM579.205 79.8148L579.165 84.0321C580.475 84.4479 580.674 84.5667 580.674 85.0419C580.674 86.2299 579.542 86.8635 575.79 86.8635H567.77C564.058 86.8635 563.323 86.2893 563.323 83.4579V76.9042L567.611 77.2606C567.532 77.6764 567.333 77.914 566.38 78.0328V83.5173C566.38 84.0849 566.896 84.3687 567.929 84.3687H575.83C576.763 84.3687 577.061 84.3687 577.418 83.8737C577.736 83.3787 578.232 81.9135 578.847 79.8544H579.205V79.8148ZM567.095 69.8554C567.095 69.8554 566.638 70.7068 564.236 70.7068V56.8468L568.524 57.2032C568.485 57.6982 568.167 57.9358 567.095 58.0546V69.8752V69.8554ZM589.349 56.9656C589.071 57.5398 588.575 57.6982 587.523 57.6982H585.736C584.545 61.5988 582.679 64.8064 580.078 67.42C582.56 69.3208 585.696 70.786 589.607 71.776L589.528 72.1918C588.218 72.5482 587.404 73.3798 587.086 74.9044C583.255 73.4788 580.396 71.4988 578.192 69.0436C574.817 71.677 570.41 73.558 564.713 74.7658L564.514 74.1916C569.815 72.6472 573.845 70.4098 576.783 67.3606C575.195 65.1628 574.043 62.6482 573.071 59.8366C571.681 61.7374 570.093 63.2818 568.385 64.3906L567.889 64.0342C570.172 61.3216 572.257 56.5894 573.388 51.4414L577.914 52.8274C577.716 53.2432 577.418 53.4808 576.445 53.4808C575.989 54.6688 575.473 55.7974 574.897 56.8468H583.771L585.716 54.4114L589.349 56.9656ZM566.777 74.3698C572.852 74.647 574.837 77.0626 574.837 78.7258C574.837 79.6564 574.222 80.3494 573.408 80.3494C573.051 80.3494 572.713 80.2702 572.356 80.0326C571.383 78.0328 568.802 75.8548 566.619 74.7856L566.777 74.3698ZM574.44 57.6982C574.202 58.114 573.944 58.5496 573.666 58.9654C574.798 61.5592 576.267 63.8362 578.192 65.7568C579.979 63.4798 581.289 60.8068 582.103 57.6784H574.44V57.6982ZM580.058 76.8844C586.987 78.31 589.19 81.4779 589.19 83.5965C589.19 84.8241 588.456 85.6755 587.523 85.6755C587.126 85.6755 586.669 85.5567 586.252 85.2201C585.478 82.3293 582.58 79.003 579.82 77.221L580.058 76.8646V76.8844Z" fill="white"/>
<path d="M630.582 81.4769L634.076 84.0311C633.758 84.5657 633.302 84.8033 632.25 84.8033H618.969V86.4665C618.969 86.7437 617.996 87.4763 616.487 87.4763H615.951V66.0923C614.899 67.8347 613.708 69.3791 612.477 70.6463L611.941 70.2899C612.437 69.4781 612.914 68.5475 613.37 67.5575H610.313V83.3579C610.313 85.5953 609.737 87.1397 605.946 87.4961C605.946 84.9419 604.516 84.7241 601.876 84.4865V83.9519H606.68C607.216 83.9519 607.415 83.7935 607.415 83.3777V72.2897C604.973 76.4279 601.578 80.0513 597.469 82.9025L596.972 82.3283C601.042 78.3881 604.298 72.9035 606.144 67.5773H597.429L597.191 66.7259H600.447V55.7963H597.925L597.687 54.9449H609.38L611.246 52.4699L614.7 55.0637C614.383 55.5983 613.926 55.7963 612.874 55.7963H610.313V66.7259H610.353L612.02 64.3301L614.065 65.9537C615.733 61.8551 617.083 56.6477 617.897 51.5195L622.542 52.6481C622.423 53.1035 622.165 53.3807 621.152 53.4203C620.537 55.7369 619.802 57.9347 618.988 60.0137L619.485 60.2513H623.475C624.051 57.7763 624.626 54.4895 624.904 52.1333L629.748 53.1827C629.629 53.6381 629.252 53.8361 628.319 53.8361C627.426 55.6973 625.957 58.1921 624.527 60.2513H628.081L629.907 57.8951L633.322 60.3305C633.004 60.8651 632.547 61.1027 631.495 61.1027H625.996V67.9337H627.942L629.57 65.6567L632.667 68.0129C632.349 68.5871 631.892 68.7851 630.84 68.7851H625.996V75.8141H627.942L629.609 73.4975L632.746 75.8933C632.428 76.4675 631.932 76.6655 630.92 76.6655H625.996V83.9717H628.736L630.602 81.5363L630.582 81.4769ZM603.206 66.6863H607.395V55.7567H603.206V66.6863ZM623.018 61.0433H618.949V67.8743H623.018V61.0433ZM623.018 75.7547V68.7257H618.949V75.7547H623.018ZM618.949 76.6061V83.9123H623.018V76.6061H618.949Z" fill="white"/>
<path d="M677.91 77.6178L677.175 84.1518C677.671 85.2408 677.949 86.013 677.949 86.5476C677.949 87.2802 677.334 87.4782 676.778 87.4782C675.686 87.4782 674.455 86.5476 673.721 85.3596C670.167 80.5284 669.889 70.4898 669.969 55.3626H649.065V63.6192C649.065 70.8066 648.568 80.568 641.858 87.399L641.282 87.0426C645.511 80.0136 645.968 71.4402 645.968 63.639V53.0658L649.601 54.4914H669.492L671.001 52.5312L674.833 55.5804C674.555 55.8576 674.019 56.1546 673.125 56.313C673.046 58.9068 673.006 61.4808 673.006 63.9558C673.006 72.3708 673.582 79.479 675.527 82.1718C675.686 82.3698 675.805 82.4886 675.885 82.4886C676.202 82.4886 677.393 78.1722 677.552 77.5386L677.91 77.6178ZM665.939 81.063C665.204 79.7562 664.311 78.5088 663.457 77.598L663.815 77.3208C668.659 79.4394 670.207 82.0728 670.207 83.8548C670.207 85.023 669.512 85.7952 668.698 85.7952C668.321 85.7952 667.884 85.5972 667.467 85.1814C667.348 84.2112 666.971 83.1024 666.415 81.9738C662.921 82.7856 658.216 83.7162 651.745 84.8646C651.506 85.3596 651.129 85.6368 650.732 85.6764L648.787 81.855C650.732 81.8154 654.008 81.6966 657.919 81.4986V74.8656H653.968V76.3308C653.968 76.3308 653.571 77.2218 651.367 77.2218V64.2132L654.147 65.4408H657.899V61.164C655.199 61.5204 652.4 61.7382 649.739 61.857L649.581 61.2036C655.04 60.273 661.849 58.4316 665.383 56.9466L668.52 59.9166C668.321 60.075 668.063 60.1542 667.706 60.1542C667.348 60.1542 666.931 60.075 666.475 59.8374C664.847 60.1542 662.882 60.4908 660.738 60.8076V65.4408H664.49L665.581 64.0944L668.678 66.2526C668.52 66.4902 668.023 66.7476 667.448 66.8268V75.5586C667.448 75.6774 666.634 76.41 664.807 76.41V74.8656H660.738V81.36L665.919 81.0828L665.939 81.063ZM653.968 73.9548H657.919V66.312H653.968V73.9548ZM664.807 66.312H660.738V73.9548H664.807V66.312Z" fill="white"/>
<path d="M694.883 61.5375V66.1311C699.032 67.7151 700.303 69.7149 700.303 71.1207C700.303 72.1305 699.648 72.8235 698.873 72.8235C698.476 72.8235 698.06 72.6255 697.682 72.2493C697.325 70.5861 696.094 68.3487 694.903 66.8835V86.3864C694.903 86.5052 694.526 87.4754 691.846 87.4754V69.7941C690.377 72.9621 688.392 75.8529 685.97 78.407L685.434 77.8725C688.451 73.3581 690.357 67.4379 691.389 61.5771H685.97L685.731 60.6861H691.846V51.4989L696.531 51.9147C696.491 52.4493 696.154 52.7661 694.903 52.8849V60.6861H696.035L697.702 58.2111L700.879 60.8049C700.561 61.3395 700.104 61.5771 699.092 61.5771H694.903L694.883 61.5375ZM716.482 54.5085L719.817 57.5181C719.54 57.8745 719.123 57.9735 718.19 58.0527C716.721 61.1019 714.735 63.9531 712.234 66.5073C714.974 68.2101 718.388 69.4773 722.498 70.2891L722.418 70.7049C721.148 71.0811 720.334 71.9721 720.016 73.4769C715.946 72.2097 712.849 70.4277 710.368 68.2299C708.164 70.1703 705.643 71.8533 702.745 73.2789L705.266 74.3283H715.172L716.482 72.5463L720.274 75.2193C719.996 75.5361 719.381 75.8331 718.607 75.9915V86.426C718.607 86.5448 717.673 87.3566 715.549 87.3566V84.9608H704.789V86.426C704.789 86.6636 703.817 87.4754 702.348 87.4754H701.851V73.7343C700.66 74.3085 699.41 74.8233 698.099 75.2787L697.821 74.6649C702.109 72.6255 705.802 69.8337 708.74 66.5865C707.033 64.7253 705.722 62.5671 704.631 60.1713C703.082 62.4087 701.256 64.3491 699.251 65.7747L698.715 65.3589C701.653 62.0721 704.055 56.4093 705.226 51.0039L709.752 52.1919C709.594 52.6473 709.216 52.8849 708.403 52.8057C707.986 53.9937 707.469 55.2411 706.854 56.4291H714.477L716.482 54.4887V54.5085ZM715.549 75.1995H704.789V84.1094H715.549V75.1995ZM706.417 57.2805C706.04 57.9735 705.643 58.6665 705.226 59.3199C706.457 61.4781 708.045 63.3789 710.07 65.0025C711.976 62.6067 713.485 59.9733 714.596 57.2805H706.437H706.417Z" fill="white"/>
<path d="M730.915 87.7924C732.265 87.0994 733.317 85.8322 733.654 84.0502C733.456 84.0898 733.277 84.1294 733.039 84.1294C731.649 84.1294 730.399 82.9612 730.399 81.397C730.399 79.8328 731.709 78.625 733.099 78.625C734.726 78.625 736.116 79.8922 736.116 81.9514C736.116 84.6244 734.29 87.634 731.55 88.624L730.895 87.8122L730.915 87.7924Z" fill="white"/>
<path d="M790.61 74.6264C790.332 75.1214 789.876 75.359 788.744 75.359H775.185C778.739 79.1011 785.33 81.9721 791.087 83.1205L791.047 83.5759C789.776 83.8135 788.724 84.8035 788.367 86.3479C782.491 84.3481 777.289 80.4871 774.192 75.3392V86.4667C774.192 86.4667 773.696 87.3973 770.937 87.3973V76.7845C767.105 81.0613 761.249 84.3085 754.519 86.4073L754.201 85.7539C759.78 83.2789 764.624 79.3783 767.641 75.359H754.857L754.618 74.5076H770.917V70.805L775.761 71.2208C775.681 71.7554 775.364 72.0722 774.173 72.191V74.5076H784.516L786.6 71.8346L790.551 74.6066L790.61 74.6264ZM766.847 59.1032C766.728 59.3804 766.47 59.519 765.954 59.519C765.795 59.519 765.636 59.519 765.497 59.4794C763.909 61.7564 761.05 65.2412 758.728 67.8944C760.117 67.7756 761.706 67.6172 763.333 67.439C762.976 66.5084 762.519 65.5778 762.063 64.8848L762.44 64.6472C765.656 66.2312 766.728 68.0924 766.728 69.3992C766.728 70.5278 765.994 71.2604 765.18 71.2604C764.763 71.2604 764.326 71.0624 763.949 70.607C763.949 69.914 763.83 69.1022 763.591 68.2904C762.162 68.9438 760.177 69.7952 757.636 70.805C757.437 71.3 757.14 71.5376 756.742 71.6564L754.956 68.2112L757.676 68.0132C759.502 64.8056 761.904 60.014 763.175 57.1232L766.847 59.0834V59.1032ZM755.393 57.7172C756.524 57.8756 757.398 58.133 758.132 58.4498C758.906 56.2916 759.76 53.4206 760.217 51.6584L764.127 53.3216C764.008 53.6978 763.631 53.8958 762.857 53.8166C761.924 55.163 760.296 57.2222 758.946 58.8458C760.177 59.5784 760.693 60.4694 760.693 61.2416C760.693 62.1722 759.998 62.9048 759.184 62.9048C758.787 62.9048 758.37 62.7464 757.993 62.3702C757.795 60.8258 756.484 59.0042 755.174 58.0934L755.412 57.737L755.393 57.7172ZM769.646 68.9834V70.1516C769.646 70.1516 769.329 71.1218 766.966 71.1218V54.7076L769.825 55.9748H770.679C770.877 54.7076 771.056 52.8068 771.175 51.5L775.542 52.193C775.463 52.7276 775.086 53.0048 774.153 53.0444C773.577 53.8958 772.684 55.0838 771.949 55.9748H775.126L776.356 54.3908L779.771 56.7866C779.493 57.1034 778.957 57.3608 778.262 57.5192V69.7952C778.262 69.914 777.448 70.6466 775.523 70.6466V68.9834H769.646ZM775.523 56.8262H769.646V61.9544H775.523V56.8262ZM769.646 68.0924H775.523V62.8058H769.646V68.0924ZM783.344 62.489C783.066 62.687 782.769 62.8058 782.411 62.8058C782.054 62.8058 781.637 62.6474 781.26 62.3108C781.022 60.7664 779.791 58.9844 778.481 58.0736L778.719 57.7172C779.612 57.836 780.347 58.034 780.962 58.2518C781.776 56.1728 782.788 53.4206 783.324 51.6584L787.275 53.4008C787.116 53.7572 786.779 53.975 785.925 53.8958C784.952 55.1234 783.245 57.0242 781.816 58.6082C783.563 59.42 784.019 60.5684 783.9 61.4594H783.94C784.794 59.8754 785.607 58.331 786.183 57.143L789.816 59.1032C789.697 59.3804 789.399 59.6774 788.466 59.519C786.719 61.8356 783.622 65.3402 781.041 68.0132C782.59 67.8944 784.535 67.6568 786.501 67.4786C786.044 66.4688 785.449 65.5184 784.913 64.8056L785.29 64.5284C789.042 66.1916 790.253 68.231 790.253 69.6566C790.253 70.7456 789.558 71.5178 788.744 71.5178C788.347 71.5178 787.89 71.3198 787.513 70.8644C787.434 70.0922 787.196 69.2012 786.858 68.3102C785.508 68.9636 783.642 69.7754 781.2 70.7852C781.041 71.2802 780.704 71.5178 780.307 71.6366L778.52 68.1914C778.917 68.1914 779.453 68.1518 780.029 68.0726C781.041 66.449 782.272 64.4492 783.404 62.4692H783.364L783.344 62.489Z" fill="white"/>
<path d="M798.928 62.0145C803.891 62.4303 805.479 64.3707 805.479 65.8755C805.479 66.8853 804.785 67.6575 803.891 67.6575C803.494 67.6575 803.077 67.4991 802.7 67.2021C802.124 65.4597 800.417 63.4599 798.75 62.4105L798.948 62.0343L798.928 62.0145ZM801.211 76.4883C801.707 76.4883 801.827 76.4883 802.263 75.6765C802.621 75.1023 803.038 74.2509 810.284 58.1931L810.978 58.3911C809.231 63.3411 805.976 72.5679 805.4 74.5281C805.082 75.6963 804.785 76.8843 804.785 77.8545V78.0525C804.824 79.7553 805.916 81.3393 805.916 84.1905C805.916 85.0023 805.916 87.5961 803.435 87.5961C802.66 87.5961 802.085 86.9427 801.926 85.6359C802.164 84.1311 802.283 82.7055 802.283 81.5373C802.283 77.8347 801.469 77.5179 799.464 77.3199V76.5081C800.814 76.5081 801.251 76.4685 801.251 76.4685V76.5081L801.211 76.4883ZM800.675 52.0155C805.817 52.5501 807.484 54.6489 807.484 56.1933C807.484 57.2427 806.75 58.0545 805.817 58.0545C805.44 58.0545 805.043 57.8961 804.626 57.5991C804.01 55.7379 802.184 53.5797 800.477 52.3917L800.675 52.0353V52.0155ZM831.327 61.6383L835.119 64.4499C834.801 64.9845 834.344 65.2221 833.253 65.2221H823.426V73.1817H828.031L829.421 71.3997L833.213 74.0925C832.935 74.4093 832.359 74.7063 831.545 74.8647V86.1705C831.545 86.2893 830.731 87.1803 828.409 87.1803V84.6261H815.128V86.3685C815.128 86.3685 814.671 87.4575 812.07 87.4575V71.7759L815.366 73.1619H820.21V65.2023H809.251L809.013 64.3113H820.21V56.2725C816.875 56.6883 813.4 57.0447 810.105 57.2031L809.946 56.5497C816.597 55.4607 824.855 53.1441 829.103 51.3027L832.558 54.5499C832.359 54.7083 832.101 54.8271 831.704 54.8271C831.347 54.8271 830.93 54.7083 830.394 54.5103C828.428 54.9261 826.026 55.4013 823.426 55.8171V64.3113H829.302L831.307 61.5987L831.327 61.6383ZM828.428 74.0727H815.147V83.7945H828.428V74.0727Z" fill="white"/>
<path d="M849.154 50.6286C850.484 49.8762 852.192 49.5 854.256 49.5C855.725 49.5 857.115 49.6782 858.425 50.0148C859.736 50.3514 860.887 50.8662 861.86 51.5394C862.832 52.2126 863.607 53.0838 864.182 54.1332C864.738 55.1826 865.036 56.4498 865.036 57.915C865.036 59.2614 864.798 60.4692 864.301 61.5384C863.805 62.6076 863.21 63.5382 862.475 64.2906C861.741 65.0628 860.927 65.6964 860.013 66.1716C859.1 66.6666 858.247 67.023 857.413 67.2408V67.5774C858.386 67.6566 859.418 67.8348 860.51 68.112C861.602 68.3892 862.614 68.8644 863.567 69.5178C864.5 70.1712 865.294 71.0424 865.909 72.1314C866.525 73.2204 866.843 74.6063 866.843 76.2893C866.843 77.9723 866.485 79.5959 865.79 81.0413C865.096 82.4867 864.123 83.7341 862.852 84.7835C861.582 85.8329 860.073 86.6447 858.306 87.1991C856.539 87.7535 854.574 88.0505 852.43 88.0505C850.465 88.0505 848.817 87.8723 847.467 87.5159C846.117 87.1595 844.926 86.7437 843.913 86.2487C844.072 85.9517 844.211 85.4567 844.33 84.7637C844.469 84.0707 844.549 83.4371 844.588 82.8827L844.926 82.6649C845.263 83.0411 845.68 83.4569 846.177 83.9123C846.673 84.3677 847.249 84.7835 847.904 85.1597C848.559 85.5359 849.273 85.8527 850.048 86.0903C850.822 86.3279 851.656 86.4467 852.569 86.4467C853.998 86.4467 855.269 86.2289 856.38 85.7735C857.492 85.3181 858.445 84.6845 859.239 83.8529C860.033 83.0213 860.629 82.0313 861.046 80.8631C861.463 79.6949 861.661 78.4277 861.661 77.0417C861.661 75.4973 861.463 74.1906 861.066 73.1214C860.669 72.0522 860.133 71.181 859.438 70.5276C858.743 69.8742 857.909 69.399 856.916 69.0822C855.944 68.7852 854.872 68.6268 853.7 68.6268C853.284 68.6268 852.847 68.6664 852.37 68.7456C851.894 68.8248 851.497 68.904 851.159 68.9634C851.199 68.7852 851.219 68.5872 851.239 68.3694C851.239 68.1714 851.259 67.9734 851.259 67.7754C851.259 67.5774 851.259 67.3992 851.239 67.1814C851.239 66.9834 851.199 66.7854 851.159 66.5874C851.914 66.7458 852.767 66.8052 853.7 66.8052C855.011 66.8052 856.083 66.528 856.916 65.9934C857.75 65.4588 858.386 64.746 858.862 63.9144C859.338 63.063 859.656 62.1324 859.815 61.1226C859.994 60.1128 860.073 59.1426 860.073 58.1922C860.073 56.9844 859.894 55.9548 859.537 55.0638C859.18 54.1728 858.723 53.46 858.147 52.8858C857.591 52.3314 856.936 51.9156 856.222 51.6384C855.507 51.381 854.772 51.2424 854.018 51.2424C852.43 51.2424 851.1 51.6978 849.988 52.6284C848.876 53.5392 848.122 54.5886 847.705 55.7568L847.308 55.8756L846.018 52.8264C846.772 52.074 847.824 51.3216 849.154 50.5692V50.6286Z" fill="white"/>
<path d="M906.606 71.2395L908.512 68.8437L912.026 71.3583C911.748 71.8929 911.252 72.0909 910.199 72.0909H895.29C895.092 73.5165 894.834 74.9817 894.357 76.4073H903.926L905.355 74.7441L908.849 77.3775C908.611 77.6547 908.115 77.8329 907.38 77.9517C907.003 82.3869 906.209 85.4757 904.74 86.4855C903.688 87.1389 902.497 87.4161 900.512 87.4161C900.512 85.5945 900.095 85.0995 896.263 84.6045L896.303 83.9511C897.732 84.0303 900.531 84.1095 901.365 84.1491C902.02 84.1491 902.378 84.1095 902.675 83.8719C903.37 83.3373 903.867 80.9019 904.264 77.3181H894C892.491 81.0999 889.196 84.6837 881.771 87.5151L881.314 86.9409C890.228 82.3077 891.419 76.9419 891.737 72.1107H883.717C883.141 77.1597 881.473 82.7235 876.749 86.8617L876.252 86.4459C880.441 80.2683 880.937 72.7047 880.937 66.0519V57.6369L884.57 59.1021H904.74L906.09 57.3993L909.763 59.9931C909.524 60.2703 908.949 60.6069 908.254 60.7257V66.9825C908.254 67.1013 907.321 67.8339 905.117 67.8339V66.3687H884.014C884.014 67.8735 883.975 69.5367 883.816 71.2791H894.238V66.6063L898.645 67.0023C898.566 67.4973 898.268 67.6953 897.295 67.8537V71.2989H906.586L906.606 71.2395ZM912.065 54.2115C911.787 54.7065 911.331 54.9441 910.239 54.9441H877.404L877.165 54.0927H906.388L908.333 51.5781L912.046 54.2115H912.065ZM905.137 59.9733H884.034V65.4579H905.137V59.9733Z" fill="white"/>
<path d="M1227.24 60.8836L1229.36 62.3488C1229.22 62.626 1228.99 62.7448 1228.39 62.7448H1220.83V70.0906C1220.83 70.2094 1220.29 70.6054 1219.44 70.6054H1219.16V62.725H1210.78L1210.66 62.2696H1219.16V54.0526H1211.97L1211.85 53.617H1225.09L1226.25 52.1914L1228.37 53.6566C1228.21 53.9536 1227.97 54.0526 1227.38 54.0526H1220.83V62.2696H1226.11L1227.24 60.8638V60.8836ZM1213.64 55.2604C1215.94 56.8444 1216.7 58.5076 1216.7 59.656C1216.7 60.5272 1216.24 61.141 1215.7 61.141C1215.47 61.141 1215.23 61.0024 1214.99 60.745C1215.03 59.062 1214.25 56.785 1213.38 55.4188L1213.64 55.2802V55.2604ZM1227.38 55.8346C1227.3 56.0722 1227.12 56.191 1226.62 56.1712C1225.61 58.0918 1224.34 60.0718 1223.09 61.3786L1222.79 61.2202C1223.49 59.7154 1224.38 57.2404 1224.97 55.003L1227.38 55.8148V55.8346Z" fill="#703E1E"/>
<path d="M1252.35 53.776C1252.19 54.0532 1251.95 54.172 1251.38 54.172H1243.99C1243.34 55.4194 1242.44 56.9242 1241.75 57.9142H1248.76L1249.53 56.9044L1251.46 58.3696C1251.32 58.528 1251.08 58.6468 1250.62 58.726V69.913C1250.62 70.012 1250.03 70.3882 1249.23 70.3882H1248.96V69.121H1236.85V70.0714C1236.85 70.1902 1236.35 70.5862 1235.52 70.5862H1235.24V57.1618L1237.08 57.8944H1241.13C1241.31 56.8846 1241.55 55.3402 1241.71 54.1522H1233.75L1233.63 53.7166H1249.1L1250.21 52.291L1252.33 53.7562L1252.35 53.776ZM1236.85 58.3696V68.7052H1239.82V58.3696H1236.85ZM1244.41 61.4584V58.3696H1241.33V61.4584H1244.41ZM1244.41 65.0224V61.894H1241.33V65.0224H1244.41ZM1241.33 65.4778V68.7052H1244.41V65.4778H1241.33ZM1248.94 58.3696H1245.92V68.7052H1248.94V58.3696Z" fill="#703E1E"/>
<path d="M1263.71 53.3981L1264.68 52.1309L1266.45 53.4575C1266.29 53.7347 1266.05 53.8337 1265.49 53.8337H1262.99V57.4174H1263.67L1264.34 56.566L1266.13 57.8728C1266.01 58.0312 1265.69 58.1896 1265.31 58.2688V69.4162C1265.31 69.4162 1264.92 69.9112 1263.87 69.9112V68.7034H1258.64V70.0498C1258.64 70.0498 1258.49 70.6042 1257.25 70.6042V56.7244L1258.76 57.3976H1259.46V53.8139H1256.5L1256.38 53.3783H1263.69L1263.71 53.3981ZM1263.87 62.5852C1263.69 62.6248 1263.47 62.6446 1263.19 62.6446C1261.82 62.6446 1261.74 62.6446 1261.74 61.1002V57.8728H1260.67V58.6252C1260.67 60.031 1260.55 62.1892 1258.76 63.6742L1258.64 63.5554V64.882H1263.87V62.5852ZM1259.64 57.8728H1258.64V63.1792C1259.6 61.6546 1259.64 59.932 1259.64 58.6054V57.8728ZM1258.64 68.2678H1263.87V65.3176H1258.64V68.2678ZM1261.74 57.4174V53.8337H1260.67V57.4174H1261.74ZM1263.87 57.8728H1262.79V61.4962C1262.79 61.6282 1262.81 61.6942 1262.85 61.6942C1263.21 61.6942 1263.33 61.6942 1263.61 61.1992H1263.75L1263.85 61.6744V57.8728H1263.87ZM1274.59 65.4562L1274.55 68.4658C1275.22 68.7034 1275.34 68.7628 1275.34 69.0004C1275.34 69.6142 1274.76 69.9904 1272.92 69.9904H1269.11C1267.26 69.9904 1266.88 69.634 1266.88 67.9906V59.6944L1268.67 60.427H1272.5V53.9327H1266.74L1266.6 53.4971H1272.26L1272.98 52.5269L1274.98 53.9921C1274.84 54.1703 1274.47 54.3485 1273.99 54.4277V61.516C1273.99 61.516 1273.51 61.9714 1272.48 61.9714V60.8428H1268.41V67.9708C1268.41 68.545 1268.43 68.5846 1269.15 68.5846H1272.78C1273.16 68.5846 1273.37 68.5846 1273.55 68.2678C1273.73 67.951 1274.01 67.0006 1274.35 65.4166H1274.55L1274.59 65.4562Z" fill="#703E1E"/>
<path d="M1296.24 57.2392L1298.13 58.447C1297.97 58.7242 1297.73 58.843 1297.16 58.843H1289.45C1289.36 59.4568 1289.24 60.0904 1289.16 60.5854H1293.37L1294.06 59.6548L1296.01 61.0408C1295.87 61.1992 1295.57 61.3576 1295.13 61.4368V67.5748C1295.13 67.5748 1294.68 68.0896 1293.54 68.0896V67.2976H1286.06V67.654C1286.06 67.654 1285.86 68.2282 1284.49 68.2282V59.833L1286.2 60.5656H1287.87C1287.89 60.0904 1287.93 59.4568 1287.97 58.8232H1279.55L1279.43 58.3678H1287.99L1288.05 56.5859H1282.63V56.9621C1282.63 56.9621 1282.37 57.4967 1281.04 57.4967V52.3289L1282.76 53.0417H1294.66L1295.33 52.1309L1297.3 53.4971C1297.16 53.6555 1296.84 53.8139 1296.42 53.9129V56.9224C1296.42 56.9224 1295.95 57.3581 1294.83 57.3581V56.566H1289.77L1290.41 56.6255C1290.37 56.9225 1290.19 57.0809 1289.69 57.1403C1289.63 57.4966 1289.57 57.9125 1289.49 58.348H1295.23L1296.2 57.1996L1296.24 57.2392ZM1295.03 68.941L1296.07 67.6144L1297.99 68.9806C1297.83 69.2578 1297.59 69.3766 1297 69.3766H1282.39V70.0894C1282.39 70.0894 1282.13 70.5646 1280.82 70.5646V60.427L1283.12 60.625C1283.1 60.8824 1282.94 61.021 1282.39 61.0804V68.9212H1295.03V68.941ZM1282.65 53.5169V56.1503H1285.66V53.5169H1282.65ZM1293.56 61.021H1286.08V62.6446H1293.56V61.021ZM1286.08 63.0802V64.7236H1293.56V63.0802H1286.08ZM1286.08 66.8422H1293.56V65.1592H1286.08V66.8422ZM1290.25 53.4971H1287.13V56.1305H1290.25V53.4971ZM1294.87 53.4971H1291.74V56.1305H1294.87V53.4971Z" fill="#703E1E"/>
<path d="M1318.92 58.9424C1318.68 58.5266 1318.38 58.1504 1318.08 57.8534L1318.24 57.695C1320.15 58.2296 1320.74 59.1206 1320.74 59.7938C1320.74 60.269 1320.42 60.6452 1320.03 60.6452C1319.85 60.6452 1319.65 60.566 1319.47 60.3878C1319.43 60.0908 1319.31 59.7344 1319.15 59.378C1318.2 59.6156 1316.93 59.8928 1315.2 60.2492C1315.16 60.3284 1315.12 60.3878 1315.06 60.4472C1316.85 61.5164 1318.99 62.348 1321.28 62.8628L1321.24 63.1598C1320.56 63.3776 1320.15 63.9518 1319.99 64.5656C1316.43 63.239 1313.52 61.1204 1311.89 58.4276C1310.06 60.8432 1306.47 63.5756 1302.22 64.9418L1302.1 64.6448C1304.42 63.5558 1306.65 61.952 1308.29 60.2492C1308.22 60.1898 1308.12 60.1304 1308.04 60.0314C1308.04 59.8334 1307.96 59.6354 1307.88 59.4176C1306.9 59.6552 1305.57 59.972 1303.83 60.3878C1303.71 60.6452 1303.53 60.764 1303.33 60.7838L1302.58 59.1404C1302.97 59.1404 1303.57 59.1404 1304.26 59.1206C1304.68 58.2494 1305.12 57.1604 1305.38 56.2694L1304.98 56.309C1304.84 56.5466 1304.64 56.6852 1304.44 56.7248L1303.43 54.824C1304.54 54.8438 1306.05 54.8438 1307.34 54.824C1307.82 53.8736 1308.31 52.7451 1308.61 51.8145L1310.91 52.7055C1310.84 52.8639 1310.7 52.9431 1310.44 52.9431C1310.36 52.9431 1310.26 52.943 1310.16 52.9232C1309.68 53.4974 1308.95 54.2102 1308.22 54.8042C1310.46 54.8042 1313.14 54.7448 1315.98 54.6854C1315.06 54.1112 1314.11 53.5964 1313.26 53.2796L1313.3 53.0025C1317.86 53.2797 1319.37 55.0022 1319.37 55.9922C1319.37 56.408 1319.11 56.6852 1318.72 56.6852C1318.6 56.6852 1318.46 56.6654 1318.32 56.606C1317.94 56.1308 1317.37 55.6358 1316.71 55.1606C1314.05 55.4774 1310.52 55.814 1305.73 56.2496L1307.46 56.804C1307.38 57.0218 1307.16 57.0812 1306.73 57.0416C1306.31 57.6752 1305.65 58.4474 1304.98 59.081C1305.81 59.081 1306.79 59.0216 1307.76 58.982C1307.56 58.586 1307.3 58.2098 1307.04 57.9326L1307.2 57.7544C1308.51 58.1504 1309.11 58.7048 1309.31 59.18C1309.86 58.5068 1310.32 57.8138 1310.66 57.1604L1313.16 57.794C1313.1 58.0514 1312.88 58.1504 1312.3 58.19C1312.88 58.8038 1313.61 59.4176 1314.41 59.9522L1313.89 58.982H1315.08C1315.46 58.0514 1315.86 56.9228 1316.12 56.0318L1318.18 56.6852C1318.1 56.8832 1317.88 56.9624 1317.45 56.9228C1317.03 57.5366 1316.41 58.3088 1315.8 58.9424L1319.01 58.883L1318.92 58.9424ZM1318.56 66.1694C1318.46 66.2684 1318.34 66.3278 1318.14 66.3278C1318.02 66.3278 1317.86 66.308 1317.68 66.2486C1313.63 69.4364 1309.49 70.268 1304.4 70.6244L1304.32 70.2482C1309.07 69.5156 1313.14 68.3672 1316.67 64.8824L1318.56 66.1892V66.1694ZM1313.44 62.0312C1313.36 62.15 1313.24 62.2094 1313.04 62.2094C1312.94 62.2094 1312.82 62.1896 1312.66 62.15C1310.48 63.9518 1307.7 65.2388 1304.88 66.0308L1304.68 65.6744C1307.2 64.6052 1309.76 63.0212 1311.67 60.9026L1313.44 62.0312ZM1315.94 64.0112C1315.86 64.13 1315.74 64.1894 1315.56 64.1894C1315.46 64.1894 1315.32 64.1498 1315.14 64.1102C1312.26 66.2684 1308.93 67.4366 1305.38 68.09L1305.24 67.7336C1308.49 66.7634 1311.65 65.318 1314.17 62.8232L1315.94 64.0112Z" fill="#703E1E"/>
<path d="M1341.92 57.0219L1343.89 58.4277C1343.75 58.7049 1343.51 58.8237 1342.92 58.8237H1336.64C1335.27 59.7741 1333.76 60.6651 1332.18 61.5165L1332.02 62.1897C1334.8 61.7145 1338.01 60.9423 1339.8 60.3087L1341.35 61.8531C1341.35 61.8531 1341.15 61.9719 1340.99 61.9719C1340.79 61.9719 1340.55 61.9125 1340.3 61.7937C1338.11 62.1699 1334.86 62.5263 1331.94 62.6649C1331.8 63.2589 1331.64 63.9519 1331.48 64.5855H1339.14L1339.86 63.7143L1341.67 65.1003C1341.53 65.2389 1341.27 65.3577 1340.87 65.3973C1340.49 67.6743 1339.78 69.5157 1338.89 70.1295C1338.29 70.4661 1337.58 70.6047 1336.54 70.6047C1336.58 69.6939 1336.25 69.3969 1334.08 69.0999V68.7831C1335 68.8425 1336.64 68.8821 1337.16 68.9019C1337.54 68.9019 1337.75 68.8821 1337.95 68.7633C1338.45 68.4069 1338.97 66.9417 1339.28 65.0409H1331.36L1331.02 66.4071C1330.81 66.5061 1330.57 66.5655 1330.27 66.5655C1330.01 66.5655 1329.69 66.5259 1329.28 66.4071C1329.62 65.2191 1329.99 63.7539 1330.33 62.4471C1328.66 63.2193 1326.94 63.9123 1325.15 64.4469L1325.03 64.1301C1326.92 63.3579 1328.8 62.3877 1330.59 61.3185C1330.69 60.9027 1330.79 60.5067 1330.85 60.1701L1331.84 60.5463C1332.73 60.0117 1333.57 59.4177 1334.38 58.8237H1325.43L1325.31 58.3683H1332.45V55.3389H1327.27L1327.15 54.9033H1332.45V51.9531L1334.88 52.1511C1334.86 52.4283 1334.66 52.5471 1334.08 52.6461V54.8835H1336.52L1337.56 53.5767L1339.18 54.7251C1339.86 54.0519 1340.49 53.3391 1341.01 52.6857L1342.94 54.2301C1342.84 54.3291 1342.74 54.4083 1342.58 54.4083C1342.44 54.4083 1342.28 54.3687 1342.08 54.2697C1340.81 55.6161 1339.2 57.0219 1337.32 58.3485H1340.89L1341.94 57.0021L1341.92 57.0219ZM1334.06 58.3683H1335C1336.31 57.3783 1337.5 56.3685 1338.57 55.3389H1334.06V58.3683Z" fill="#703E1E"/>
<path d="M1364.69 52.368L1366.6 53.7738C1366.46 53.952 1366.14 54.1104 1365.75 54.1896V69.792C1365.75 69.792 1365.35 70.3464 1364.16 70.3464V69.2178H1350.78V69.9108C1350.78 69.9108 1350.66 70.5642 1349.23 70.5642V52.5066L1350.94 53.2788H1363.96L1364.69 52.3086V52.368ZM1350.78 68.802H1364.16V53.7738H1350.78V68.802ZM1362.05 58.2882L1363.66 59.3772C1363.48 59.6544 1363.26 59.7534 1362.73 59.7534H1351.55L1351.41 59.3178H1356.71V57.8526H1354.77V58.0704C1354.77 58.0704 1354.49 58.5456 1353.34 58.5456V54.645L1354.87 55.2984H1360.01L1360.58 54.546L1362.27 55.734C1362.17 55.8528 1361.93 56.0112 1361.62 56.0508V58.0308C1361.62 58.0308 1361.18 58.4466 1360.17 58.4466V57.8526H1358.16V59.3178H1361.24L1362.07 58.2882H1362.05ZM1360.74 61.0404L1361.32 60.288L1362.97 61.4562C1362.87 61.5948 1362.61 61.7334 1362.31 61.773V67.515C1362.31 67.515 1361.9 67.9506 1360.92 67.9506V67.0794H1353.99V67.5744C1353.99 67.5744 1353.84 68.0496 1352.62 68.0496V60.387L1354.11 61.0404H1360.74ZM1353.99 66.624H1360.92V61.476H1353.99V66.624ZM1354.75 57.417H1360.15V55.7538H1354.75V57.417ZM1358.88 62.1096L1360.25 63.0798C1360.15 63.1788 1359.93 63.2976 1359.69 63.357V65.5746C1359.69 65.5746 1359.35 65.9706 1358.54 65.9706V65.2974H1356.38V65.6934C1356.38 65.6934 1355.94 66.0498 1355.42 66.0498H1355.24V62.1492L1356.48 62.7036H1358.4L1358.88 62.1096ZM1356.38 64.842H1358.54V63.159H1356.38V64.842Z" fill="#703E1E"/>
<path d="M1080.35 87.8536C1079.86 87.7744 1079.38 87.7546 1078.92 87.7546H1076.08C1075.63 87.7546 1075.17 87.7942 1074.65 87.8536C1074.4 87.0418 1074.06 86.0518 1073.64 84.8836C1073.21 83.7352 1072.75 82.5076 1072.21 81.2404C1071.7 79.9732 1071.16 78.6862 1070.62 77.3992C1070.09 76.0924 1069.59 74.8648 1069.12 73.6768C1067.96 73.6372 1066.81 73.6174 1065.64 73.5976C1064.47 73.5976 1063.28 73.5778 1062.11 73.5778C1061 73.5778 1059.9 73.5778 1058.83 73.5976C1057.76 73.5976 1056.67 73.6372 1055.56 73.6768C1054.41 76.4488 1053.37 79.102 1052.44 81.6166C1051.51 84.1312 1050.81 86.2102 1050.36 87.8536C1049.74 87.7744 1049.09 87.7546 1048.37 87.7546C1047.66 87.7546 1047 87.7942 1046.39 87.8536C1049.28 81.6166 1052.1 75.4192 1054.86 69.2416C1057.62 63.0838 1060.38 56.8072 1063.16 50.4316H1064.17C1065.03 52.4908 1065.96 54.7282 1066.95 57.1438C1067.94 59.5396 1068.98 61.975 1070.01 64.45C1071.04 66.925 1072.07 69.3406 1073.13 71.776C1074.16 74.1916 1075.13 76.4488 1076.04 78.5278C1076.96 80.6068 1077.77 82.468 1078.51 84.1114C1079.24 85.7548 1079.84 87.0022 1080.29 87.8536H1080.35ZM1056.61 71.2216C1057.54 71.2216 1058.5 71.2216 1059.51 71.281C1060.5 71.3206 1061.47 71.3404 1062.41 71.3404C1063.4 71.3404 1064.41 71.3404 1065.4 71.3206C1066.4 71.3008 1067.41 71.281 1068.4 71.2414L1062.45 57.6586L1056.61 71.2414V71.2216Z" fill="#703E1E"/>
<path d="M1091.13 58.7675C1090.73 58.0547 1090.2 57.4805 1089.52 57.0647V56.6885C1091.57 55.8767 1093.63 54.9659 1095.78 53.9957C1097.9 53.0255 1099.89 52.0553 1101.75 51.1445L1102.13 51.4019C1101.99 53.7581 1101.87 56.0747 1101.81 58.3715C1101.73 60.6683 1101.71 62.9849 1101.71 65.3411V74.2709C1101.71 76.6271 1101.75 78.9239 1101.81 81.2009C1101.89 83.4581 1101.99 85.6757 1102.13 87.8537C1101.69 87.7745 1101.28 87.7547 1100.88 87.7547H1098.36C1097.94 87.7547 1097.52 87.7943 1097.11 87.8537C1097.29 85.6361 1097.41 83.4185 1097.46 81.1613C1097.52 78.9239 1097.54 76.6271 1097.54 74.2709V55.2431L1091.17 58.7675H1091.13Z" fill="#703E1E"/>
<path d="M1217.21 80.4473C1217.21 79.9722 1217.17 79.497 1217.15 79.002C1217.25 79.002 1217.35 79.0218 1217.43 79.0416C1217.51 79.0416 1217.61 79.0416 1217.69 79.0416C1217.77 79.0416 1217.87 79.0416 1217.97 79.0416C1218.05 79.0416 1218.15 79.0218 1218.24 79.002C1218.22 79.497 1218.21 79.9722 1218.19 80.4473C1218.19 80.9225 1218.17 81.3977 1218.17 81.8927V83.8133C1218.17 84.3083 1218.17 84.7835 1218.19 85.2587C1218.19 85.7339 1218.22 86.2091 1218.24 86.6645C1218.07 86.6645 1217.89 86.6447 1217.69 86.6447C1217.49 86.6447 1217.31 86.6447 1217.13 86.6645C1217.15 86.2091 1217.17 85.7339 1217.19 85.2587C1217.19 84.7835 1217.21 84.3083 1217.21 83.8133V82.8035C1216.82 82.8035 1216.42 82.8035 1216.04 82.8035C1215.66 82.8035 1215.27 82.8035 1214.87 82.8035C1214.47 82.8035 1214.08 82.8035 1213.7 82.8035C1213.32 82.8035 1212.92 82.8035 1212.53 82.8035V83.8133C1212.53 84.3083 1212.53 84.7835 1212.55 85.2587C1212.55 85.7339 1212.59 86.2091 1212.61 86.6645C1212.43 86.6645 1212.25 86.6447 1212.05 86.6447C1211.85 86.6447 1211.67 86.6447 1211.5 86.6645C1211.51 86.2091 1211.53 85.7339 1211.55 85.2587C1211.55 84.7835 1211.57 84.3083 1211.57 83.8133V81.8927C1211.57 81.3977 1211.57 80.9225 1211.55 80.4473C1211.55 79.9722 1211.51 79.497 1211.5 79.002C1211.59 79.002 1211.69 79.0218 1211.77 79.0416C1211.85 79.0416 1211.95 79.0416 1212.03 79.0416C1212.11 79.0416 1212.21 79.0416 1212.31 79.0416C1212.39 79.0416 1212.49 79.0218 1212.59 79.002C1212.57 79.497 1212.55 79.9722 1212.53 80.4473C1212.53 80.9225 1212.51 81.3977 1212.51 81.8927V82.2887C1212.9 82.2887 1213.3 82.2887 1213.68 82.3085C1214.06 82.3085 1214.45 82.3085 1214.85 82.3085C1215.25 82.3085 1215.64 82.3085 1216.02 82.3085C1216.4 82.3085 1216.8 82.3085 1217.19 82.2887V81.8927C1217.19 81.3977 1217.19 80.9225 1217.17 80.4473H1217.21Z" fill="#703E1E"/>
<path d="M1221.98 84.0298C1221.98 83.5348 1222.06 83.0992 1222.22 82.7428C1222.37 82.3864 1222.59 82.1092 1222.85 81.8914C1223.11 81.6736 1223.41 81.5152 1223.72 81.4162C1224.04 81.3172 1224.38 81.2578 1224.7 81.2578C1225.01 81.2578 1225.35 81.2974 1225.67 81.4162C1225.99 81.535 1226.28 81.6736 1226.54 81.8914C1226.8 82.1092 1227.02 82.4062 1227.18 82.7428C1227.34 83.0992 1227.42 83.5348 1227.42 84.0298C1227.42 84.5248 1227.34 84.9604 1227.18 85.3168C1227.02 85.6732 1226.8 85.9504 1226.54 86.1682C1226.28 86.386 1225.99 86.5444 1225.67 86.6236C1225.35 86.7226 1225.03 86.7622 1224.7 86.7622C1224.36 86.7622 1224.06 86.7226 1223.72 86.6236C1223.41 86.5444 1223.11 86.386 1222.85 86.1682C1222.59 85.9504 1222.37 85.6732 1222.22 85.3168C1222.06 84.9604 1221.98 84.5446 1221.98 84.0298ZM1222.97 84.0298C1222.97 84.3466 1222.99 84.6436 1223.05 84.9406C1223.11 85.2376 1223.21 85.495 1223.33 85.7128C1223.47 85.9306 1223.64 86.1286 1223.86 86.2474C1224.08 86.386 1224.36 86.4454 1224.7 86.4454C1225.03 86.4454 1225.29 86.386 1225.53 86.2474C1225.75 86.1088 1225.93 85.9306 1226.07 85.7128C1226.21 85.495 1226.3 85.2376 1226.34 84.9406C1226.4 84.6436 1226.42 84.3466 1226.42 84.0298C1226.42 83.713 1226.4 83.416 1226.34 83.119C1226.28 82.822 1226.19 82.5646 1226.07 82.3468C1225.93 82.129 1225.75 81.9508 1225.53 81.8122C1225.31 81.6736 1225.03 81.6142 1224.7 81.6142C1224.36 81.6142 1224.1 81.6736 1223.86 81.8122C1223.64 81.9508 1223.47 82.129 1223.33 82.3468C1223.19 82.5646 1223.09 82.822 1223.05 83.119C1222.99 83.416 1222.97 83.713 1222.97 84.0298Z" fill="#703E1E"/>
<path d="M1230.99 84.9593C1230.99 84.5633 1230.99 84.2267 1230.99 83.9495C1230.99 83.6723 1230.99 83.3951 1230.99 83.1179C1230.99 82.8605 1230.99 82.5833 1230.99 82.2665C1230.99 81.9695 1230.99 81.6527 1230.99 81.3359C1231.17 81.3755 1231.33 81.3953 1231.47 81.3953C1231.59 81.3953 1231.74 81.3953 1231.92 81.3359C1231.88 81.7715 1231.86 82.2665 1231.84 82.8011C1231.84 83.3357 1231.82 83.8703 1231.82 84.4247C1231.82 84.8009 1231.86 85.0979 1231.92 85.3157C1231.98 85.5137 1232.08 85.6721 1232.16 85.7711C1232.26 85.8899 1232.4 85.9889 1232.56 86.0681C1232.72 86.1473 1232.92 86.1869 1233.11 86.1869C1233.43 86.1869 1233.69 86.1275 1233.89 85.9889C1234.09 85.8503 1234.25 85.6919 1234.34 85.4741C1234.4 85.3553 1234.44 85.2365 1234.46 85.1573C1234.48 85.0583 1234.52 84.9395 1234.54 84.8009C1234.54 84.6425 1234.56 84.4445 1234.58 84.2069C1234.58 83.9495 1234.58 83.6129 1234.58 83.1773V82.2467C1234.58 82.0883 1234.58 81.9299 1234.58 81.7715C1234.58 81.6329 1234.58 81.4745 1234.58 81.3557C1234.66 81.3557 1234.74 81.3755 1234.82 81.3953C1234.9 81.3953 1234.98 81.3953 1235.06 81.3953C1235.14 81.3953 1235.22 81.3953 1235.3 81.3953C1235.38 81.3953 1235.44 81.3755 1235.52 81.3557C1235.48 81.9299 1235.46 82.4843 1235.46 83.0387C1235.46 83.5733 1235.46 84.1475 1235.46 84.7415C1235.46 85.0781 1235.46 85.3949 1235.46 85.7315C1235.46 86.0483 1235.46 86.3651 1235.5 86.6621C1235.36 86.6621 1235.2 86.6423 1235.06 86.6423C1234.92 86.6423 1234.78 86.6423 1234.62 86.6621C1234.62 86.6027 1234.62 86.5235 1234.62 86.4443C1234.62 86.3651 1234.62 86.2859 1234.62 86.2067V85.7315H1234.6C1234.4 86.0879 1234.17 86.3453 1233.85 86.5235C1233.55 86.6819 1233.21 86.7809 1232.86 86.7809C1232.28 86.7809 1231.82 86.6225 1231.49 86.3255C1231.15 86.0087 1230.99 85.5731 1230.99 84.9989V84.9593Z" fill="#703E1E"/>
<path d="M1239.67 85.8497C1239.67 85.8497 1239.84 86.0279 1239.94 86.1071C1240.04 86.1863 1240.18 86.2457 1240.32 86.3051C1240.46 86.3645 1240.6 86.3843 1240.76 86.3843C1240.9 86.3843 1241.04 86.3645 1241.17 86.3249C1241.31 86.2853 1241.41 86.2259 1241.51 86.1269C1241.61 86.0477 1241.69 85.9487 1241.75 85.8101C1241.81 85.6913 1241.83 85.5329 1241.83 85.3745C1241.83 85.1369 1241.77 84.9587 1241.63 84.8399C1241.49 84.7211 1241.33 84.6221 1241.15 84.5429C1240.96 84.4637 1240.76 84.4043 1240.52 84.3449C1240.28 84.2855 1240.08 84.2063 1239.88 84.0875C1239.69 83.9885 1239.53 83.8301 1239.41 83.6519C1239.27 83.4737 1239.21 83.2361 1239.21 82.9193C1239.21 82.6817 1239.25 82.4441 1239.33 82.2461C1239.41 82.0481 1239.53 81.8699 1239.69 81.7115C1239.84 81.5531 1240.04 81.4541 1240.26 81.3551C1240.5 81.2759 1240.76 81.2363 1241.05 81.2363C1241.33 81.2363 1241.57 81.2759 1241.75 81.3551C1241.95 81.4343 1242.13 81.4937 1242.29 81.5531C1242.23 81.6719 1242.17 81.8105 1242.13 81.9689C1242.09 82.1273 1242.05 82.2659 1242.03 82.3451H1241.89C1241.83 82.1669 1241.71 82.0085 1241.55 81.8699C1241.37 81.7313 1241.17 81.6521 1240.92 81.6521C1240.8 81.6521 1240.7 81.6521 1240.58 81.7115C1240.46 81.7511 1240.36 81.8105 1240.28 81.8699C1240.2 81.9491 1240.12 82.0481 1240.06 82.1669C1240 82.2857 1239.98 82.4243 1239.98 82.5827C1239.98 82.8203 1240.04 82.9985 1240.18 83.1371C1240.32 83.2757 1240.48 83.3747 1240.66 83.4341C1240.86 83.5133 1241.05 83.5727 1241.29 83.6321C1241.53 83.6915 1241.73 83.7707 1241.93 83.8697C1242.13 83.9687 1242.29 84.1073 1242.4 84.2855C1242.54 84.4637 1242.6 84.7013 1242.6 85.0181C1242.6 85.2359 1242.56 85.4537 1242.46 85.6517C1242.37 85.8497 1242.25 86.0477 1242.07 86.2061C1241.89 86.3645 1241.69 86.5031 1241.43 86.6021C1241.19 86.7011 1240.92 86.7407 1240.6 86.7407C1240.26 86.7407 1239.96 86.7011 1239.74 86.6417C1239.51 86.5823 1239.33 86.5031 1239.17 86.4041C1239.21 86.3051 1239.27 86.1665 1239.31 86.0081C1239.35 85.8497 1239.39 85.7111 1239.39 85.5923H1239.53C1239.53 85.5923 1239.63 85.7507 1239.7 85.8299L1239.67 85.8497Z" fill="#703E1E"/>
<path d="M1245.78 84.1667C1245.78 83.2559 1246 82.5431 1246.43 82.0085C1246.87 81.4937 1247.51 81.2363 1248.34 81.2363C1248.74 81.2363 1249.08 81.2957 1249.35 81.4145C1249.63 81.5333 1249.89 81.6917 1250.07 81.9095C1250.27 82.1075 1250.41 82.3451 1250.5 82.6223C1250.6 82.8995 1250.64 83.1965 1250.64 83.4935C1250.64 83.5727 1250.64 83.6321 1250.64 83.7113C1250.64 83.7905 1250.64 83.8499 1250.64 83.9291C1250.25 83.9291 1249.85 83.9291 1249.45 83.9093C1249.06 83.9093 1248.66 83.9093 1248.26 83.9093C1248.02 83.9093 1247.77 83.9093 1247.53 83.9093C1247.29 83.9093 1247.05 83.9093 1246.79 83.9291C1246.79 83.9687 1246.79 84.0281 1246.79 84.0875V84.2261C1246.79 84.5231 1246.83 84.7805 1246.91 85.0379C1246.99 85.2953 1247.13 85.5131 1247.29 85.6913C1247.45 85.8695 1247.65 86.0081 1247.88 86.1269C1248.12 86.2259 1248.4 86.2853 1248.72 86.2853C1248.88 86.2853 1249.02 86.2655 1249.17 86.2259C1249.33 86.1863 1249.49 86.1269 1249.63 86.0675C1249.79 85.9883 1249.93 85.9091 1250.05 85.8101C1250.17 85.7111 1250.29 85.6121 1250.39 85.4933L1250.45 85.5329L1250.39 86.0873C1250.17 86.2655 1249.89 86.4239 1249.55 86.5427C1249.21 86.6615 1248.88 86.7407 1248.52 86.7407C1248.12 86.7407 1247.75 86.6813 1247.43 86.5625C1247.09 86.4437 1246.81 86.2655 1246.57 86.0279C1246.34 85.7903 1246.14 85.5131 1246.02 85.1963C1245.88 84.8795 1245.82 84.5231 1245.82 84.1667H1245.78ZM1248.36 81.5927C1248.08 81.5927 1247.84 81.6521 1247.67 81.7907C1247.47 81.9095 1247.33 82.0679 1247.19 82.2659C1247.07 82.4639 1246.97 82.6619 1246.91 82.8995C1246.85 83.1173 1246.81 83.3351 1246.79 83.5331C1247.03 83.5331 1247.27 83.5331 1247.51 83.5529C1247.75 83.5727 1248 83.5529 1248.24 83.5529C1248.48 83.5529 1248.74 83.5529 1249 83.5529C1249.25 83.5529 1249.49 83.5529 1249.73 83.5331C1249.73 83.3351 1249.73 83.1173 1249.67 82.8995C1249.63 82.6817 1249.57 82.4639 1249.47 82.2857C1249.37 82.0877 1249.23 81.9293 1249.06 81.8105C1248.88 81.6917 1248.64 81.6125 1248.36 81.6125V81.5927Z" fill="#703E1E"/>
<path d="M1254.24 80.6436C1254.24 80.3466 1254.24 80.0496 1254.24 79.7724C1254.24 79.4754 1254.24 79.1982 1254.22 78.9408C1254.22 78.6834 1254.2 78.4458 1254.18 78.2676C1254.38 78.3072 1254.55 78.327 1254.67 78.327C1254.79 78.327 1254.97 78.327 1255.17 78.2676C1255.17 78.4458 1255.15 78.6834 1255.13 78.9408C1255.13 79.1982 1255.11 79.4754 1255.11 79.7526C1255.11 80.0298 1255.11 80.3268 1255.11 80.6238C1255.11 80.9208 1255.11 81.1782 1255.11 81.4356V82.287H1255.13C1255.35 81.9702 1255.59 81.7128 1255.88 81.5544C1256.18 81.3762 1256.52 81.297 1256.92 81.297C1257.14 81.297 1257.33 81.3168 1257.55 81.396C1257.77 81.4554 1257.95 81.5544 1258.13 81.693C1258.31 81.8316 1258.45 82.0296 1258.54 82.287C1258.64 82.5444 1258.7 82.8612 1258.7 83.2374C1258.7 83.5542 1258.7 83.8908 1258.68 84.2274C1258.68 84.564 1258.66 84.9204 1258.66 85.2966V86.0292C1258.66 86.148 1258.66 86.2668 1258.66 86.3856C1258.66 86.5044 1258.66 86.6034 1258.66 86.7222C1258.51 86.7222 1258.37 86.7024 1258.19 86.7024C1258.01 86.7024 1257.87 86.7024 1257.73 86.7222C1257.73 86.346 1257.77 85.9302 1257.79 85.5342C1257.79 85.1184 1257.81 84.7026 1257.81 84.267V83.5938C1257.81 83.0394 1257.71 82.6236 1257.49 82.3266C1257.27 82.0494 1256.98 81.891 1256.6 81.891C1256.08 81.891 1255.71 82.0494 1255.45 82.3662C1255.21 82.683 1255.09 83.1384 1255.09 83.7126C1255.09 83.9106 1255.09 84.168 1255.09 84.4452C1255.09 84.7224 1255.09 84.9996 1255.09 85.2768C1255.09 85.554 1255.09 85.8312 1255.11 86.0886C1255.11 86.346 1255.13 86.5638 1255.15 86.7222C1254.97 86.7222 1254.81 86.7024 1254.65 86.7024C1254.49 86.7024 1254.32 86.7024 1254.16 86.7222C1254.16 86.544 1254.18 86.346 1254.2 86.0688C1254.2 85.8114 1254.22 85.5342 1254.22 85.2372C1254.22 84.9402 1254.22 84.663 1254.22 84.366C1254.22 84.069 1254.22 83.7918 1254.22 83.5344V81.5148C1254.22 81.2574 1254.22 80.9802 1254.22 80.6832L1254.24 80.6436Z" fill="#703E1E"/>
<path d="M1262.26 84.0298C1262.26 83.5348 1262.34 83.0992 1262.5 82.7428C1262.65 82.3864 1262.87 82.1092 1263.13 81.8914C1263.39 81.6736 1263.69 81.5152 1264 81.4162C1264.32 81.3172 1264.66 81.2578 1264.98 81.2578C1265.29 81.2578 1265.63 81.2974 1265.95 81.4162C1266.27 81.535 1266.56 81.6736 1266.82 81.8914C1267.08 82.1092 1267.3 82.4062 1267.46 82.7428C1267.62 83.0992 1267.7 83.5348 1267.7 84.0298C1267.7 84.5248 1267.62 84.9604 1267.46 85.3168C1267.3 85.6732 1267.08 85.9504 1266.82 86.1682C1266.56 86.386 1266.27 86.5444 1265.95 86.6236C1265.63 86.7226 1265.31 86.7622 1264.98 86.7622C1264.64 86.7622 1264.34 86.7226 1264 86.6236C1263.69 86.5444 1263.39 86.386 1263.13 86.1682C1262.87 85.9504 1262.65 85.6732 1262.5 85.3168C1262.34 84.9604 1262.26 84.5446 1262.26 84.0298ZM1263.25 84.0298C1263.25 84.3466 1263.27 84.6436 1263.33 84.9406C1263.39 85.2376 1263.49 85.495 1263.61 85.7128C1263.75 85.9306 1263.92 86.1286 1264.14 86.2474C1264.36 86.386 1264.64 86.4454 1264.98 86.4454C1265.31 86.4454 1265.57 86.386 1265.81 86.2474C1266.03 86.1088 1266.21 85.9306 1266.35 85.7128C1266.49 85.495 1266.58 85.2376 1266.62 84.9406C1266.68 84.6436 1266.7 84.3466 1266.7 84.0298C1266.7 83.713 1266.68 83.416 1266.62 83.119C1266.56 82.822 1266.47 82.5646 1266.35 82.3468C1266.21 82.129 1266.03 81.9508 1265.81 81.8122C1265.59 81.6736 1265.31 81.6142 1264.98 81.6142C1264.64 81.6142 1264.38 81.6736 1264.14 81.8122C1263.92 81.9508 1263.75 82.129 1263.61 82.3468C1263.47 82.5646 1263.37 82.822 1263.33 83.119C1263.27 83.416 1263.25 83.713 1263.25 84.0298Z" fill="#703E1E"/>
<path d="M1271.55 80.6436C1271.55 80.3466 1271.55 80.0496 1271.55 79.7724C1271.55 79.4754 1271.55 79.1982 1271.53 78.9408C1271.53 78.6834 1271.51 78.4458 1271.49 78.2676C1271.71 78.3072 1271.87 78.327 1271.98 78.327C1272.1 78.327 1272.28 78.327 1272.48 78.2676C1272.48 78.4458 1272.46 78.6834 1272.44 78.9408C1272.44 79.1982 1272.42 79.4754 1272.42 79.7724C1272.42 80.0694 1272.42 80.3466 1272.42 80.6436C1272.42 80.9406 1272.42 81.2178 1272.42 81.4752V83.4948C1272.42 83.7522 1272.42 84.0294 1272.42 84.3264C1272.42 84.6234 1272.42 84.9204 1272.42 85.1976C1272.42 85.4946 1272.42 85.752 1272.44 86.0292C1272.44 86.2866 1272.46 86.5044 1272.48 86.6826C1272.3 86.6826 1272.14 86.6628 1271.98 86.6628C1271.83 86.6628 1271.65 86.6628 1271.49 86.6826C1271.49 86.5044 1271.51 86.3064 1271.53 86.0292C1271.53 85.7718 1271.55 85.4946 1271.55 85.1976C1271.55 84.9006 1271.55 84.6234 1271.55 84.3264C1271.55 84.0294 1271.55 83.7522 1271.55 83.4948V81.4752C1271.55 81.2178 1271.55 80.9406 1271.55 80.6436Z" fill="#703E1E"/>
<path d="M1280.48 85.5936C1280.42 85.7124 1280.34 85.8312 1280.24 85.9698C1280.14 86.1084 1280.02 86.2272 1279.87 86.346C1279.71 86.4648 1279.53 86.5638 1279.33 86.643C1279.13 86.7222 1278.87 86.7618 1278.6 86.7618C1278.32 86.7618 1278.04 86.7222 1277.76 86.6232C1277.48 86.5242 1277.25 86.3658 1277.03 86.148C1276.81 85.9302 1276.65 85.653 1276.51 85.2966C1276.37 84.96 1276.31 84.5442 1276.31 84.0492C1276.31 83.5542 1276.39 83.1582 1276.53 82.8216C1276.67 82.4652 1276.85 82.188 1277.09 81.9504C1277.3 81.7128 1277.56 81.5346 1277.86 81.4356C1278.14 81.3168 1278.44 81.2574 1278.73 81.2574C1279.57 81.2574 1280.14 81.6336 1280.46 82.3662H1280.48V81.2772C1280.48 81 1280.48 80.703 1280.48 80.4258C1280.48 80.1486 1280.48 79.8714 1280.48 79.614C1280.48 79.3566 1280.48 79.119 1280.48 78.8814C1280.48 78.6438 1280.48 78.4458 1280.48 78.2676C1280.56 78.2676 1280.66 78.2874 1280.74 78.3072C1280.82 78.3072 1280.9 78.3072 1280.98 78.3072C1281.06 78.3072 1281.14 78.3072 1281.22 78.3072C1281.3 78.3072 1281.37 78.2874 1281.47 78.2676C1281.45 78.5052 1281.43 78.8418 1281.41 79.2972C1281.41 79.7526 1281.39 80.2476 1281.37 80.7822C1281.37 81.3168 1281.35 81.891 1281.35 82.4454C1281.35 82.9998 1281.35 83.5344 1281.35 84.0096C1281.35 84.5244 1281.35 84.9798 1281.35 85.3956C1281.35 85.8114 1281.35 86.2272 1281.37 86.6628C1281.22 86.6628 1281.08 86.643 1280.94 86.643C1280.8 86.643 1280.66 86.643 1280.52 86.6628L1280.56 85.6134H1280.54L1280.48 85.5936ZM1277.3 84.1284C1277.3 84.5838 1277.34 84.9402 1277.44 85.2372C1277.54 85.5342 1277.66 85.752 1277.8 85.9302C1277.94 86.1084 1278.12 86.2272 1278.3 86.2866C1278.48 86.346 1278.67 86.3856 1278.85 86.3856C1279.15 86.3856 1279.39 86.3064 1279.61 86.1678C1279.83 86.0292 1279.98 85.8312 1280.12 85.5936C1280.26 85.356 1280.36 85.0986 1280.42 84.8016C1280.48 84.5046 1280.52 84.2076 1280.52 83.9106C1280.52 83.1978 1280.38 82.6632 1280.1 82.287C1279.83 81.9108 1279.43 81.7326 1278.89 81.7326C1278.62 81.7326 1278.4 81.792 1278.2 81.9108C1278 82.0296 1277.84 82.2078 1277.7 82.4256C1277.56 82.6434 1277.48 82.9008 1277.4 83.1978C1277.34 83.4948 1277.3 83.8116 1277.3 84.1482V84.1284Z" fill="#703E1E"/>
<path d="M1292.07 81.8927C1292.07 81.3977 1292.07 80.9225 1292.06 80.4473C1292.06 79.9722 1292.02 79.497 1292 79.002C1292.27 79.002 1292.55 79.0218 1292.83 79.0416C1293.11 79.0416 1293.39 79.0416 1293.66 79.0416C1293.94 79.0416 1294.22 79.0415 1294.5 79.0217C1294.77 79.0217 1295.05 79.002 1295.33 79.002C1295.99 79.002 1296.54 79.0811 1297.02 79.2593C1297.47 79.4375 1297.87 79.6752 1298.17 79.992C1298.47 80.3088 1298.69 80.6849 1298.82 81.1403C1298.96 81.5957 1299.02 82.1105 1299.02 82.6847C1299.02 83.4371 1298.9 84.0509 1298.65 84.5657C1298.39 85.0805 1298.07 85.4765 1297.65 85.7933C1297.26 86.1101 1296.82 86.3279 1296.34 86.4467C1295.87 86.5853 1295.41 86.6447 1294.97 86.6447C1294.72 86.6447 1294.48 86.6447 1294.22 86.6447C1293.98 86.6447 1293.72 86.6447 1293.46 86.6447H1292.71C1292.47 86.6447 1292.21 86.6447 1291.96 86.6645C1291.98 86.2091 1292 85.7339 1292.02 85.2587C1292.02 84.7835 1292.04 84.3083 1292.04 83.8133V81.8927H1292.07ZM1292.99 83.8133C1292.99 84.6251 1293.01 85.3973 1293.05 86.1695C1293.21 86.2091 1293.42 86.2289 1293.68 86.2487C1293.94 86.2487 1294.22 86.2685 1294.52 86.2685C1294.93 86.2685 1295.33 86.2289 1295.75 86.1299C1296.16 86.0309 1296.52 85.8527 1296.84 85.5755C1297.16 85.3181 1297.44 84.9419 1297.63 84.4865C1297.83 84.0311 1297.93 83.4173 1297.93 82.6847C1297.93 82.0313 1297.85 81.5165 1297.69 81.1007C1297.53 80.6849 1297.32 80.3483 1297.04 80.1107C1296.76 79.8731 1296.42 79.6949 1296.05 79.6157C1295.67 79.5167 1295.23 79.4771 1294.77 79.4771C1294.44 79.4771 1294.12 79.4771 1293.84 79.5167C1293.54 79.5365 1293.29 79.5564 1293.07 79.596C1293.05 79.9523 1293.03 80.3286 1293.03 80.7048C1293.03 81.1007 1293.03 81.4967 1293.03 81.8927V83.8133H1292.99Z" fill="#703E1E"/>
<path d="M1302.4 84.1667C1302.4 83.2559 1302.62 82.5431 1303.05 82.0085C1303.49 81.4937 1304.13 81.2363 1304.96 81.2363C1305.36 81.2363 1305.69 81.2957 1305.97 81.4145C1306.25 81.5333 1306.51 81.6917 1306.69 81.9095C1306.88 82.1075 1307.02 82.3451 1307.12 82.6223C1307.22 82.8995 1307.26 83.1965 1307.26 83.4935C1307.26 83.5727 1307.26 83.6321 1307.26 83.7113C1307.26 83.7905 1307.26 83.8499 1307.26 83.9291C1306.86 83.9291 1306.47 83.9291 1306.07 83.9093C1305.67 83.9093 1305.28 83.9093 1304.88 83.9093C1304.64 83.9093 1304.38 83.9093 1304.15 83.9093C1303.91 83.9093 1303.67 83.9093 1303.41 83.9291C1303.41 83.9687 1303.41 84.0281 1303.41 84.0875V84.2261C1303.41 84.5231 1303.45 84.7805 1303.53 85.0379C1303.61 85.2953 1303.75 85.5131 1303.91 85.6913C1304.07 85.8695 1304.26 86.0081 1304.5 86.1269C1304.74 86.2457 1305.02 86.2853 1305.34 86.2853C1305.5 86.2853 1305.63 86.2655 1305.79 86.2259C1305.95 86.1863 1306.11 86.1269 1306.25 86.0675C1306.41 85.9883 1306.55 85.9091 1306.67 85.8101C1306.79 85.7111 1306.9 85.6121 1307 85.4933L1307.06 85.5329L1307 86.0873C1306.79 86.2655 1306.51 86.4239 1306.17 86.5427C1305.83 86.6615 1305.5 86.7407 1305.14 86.7407C1304.74 86.7407 1304.36 86.6813 1304.05 86.5625C1303.71 86.4437 1303.43 86.2655 1303.19 86.0279C1302.95 85.7903 1302.76 85.5131 1302.64 85.1963C1302.5 84.8795 1302.44 84.5231 1302.44 84.1667H1302.4ZM1304.98 81.5927C1304.7 81.5927 1304.46 81.6521 1304.28 81.7907C1304.09 81.9095 1303.95 82.0679 1303.81 82.2659C1303.69 82.4639 1303.59 82.6619 1303.53 82.8995C1303.47 83.1173 1303.43 83.3351 1303.41 83.5331C1303.65 83.5331 1303.89 83.5331 1304.13 83.5529C1304.36 83.5727 1304.62 83.5529 1304.86 83.5529C1305.1 83.5529 1305.36 83.5529 1305.61 83.5529C1305.87 83.5529 1306.11 83.5529 1306.35 83.5331C1306.35 83.3351 1306.35 83.1173 1306.29 82.8995C1306.25 82.6817 1306.19 82.4639 1306.09 82.2857C1305.99 82.0877 1305.85 81.9293 1305.67 81.8105C1305.5 81.6917 1305.26 81.6125 1304.98 81.6125V81.5927Z" fill="#703E1E"/>
<path d="M1310.42 84.0298C1310.42 83.5546 1310.5 83.1388 1310.66 82.7824C1310.82 82.426 1311.03 82.1488 1311.29 81.9112C1311.55 81.6934 1311.87 81.5152 1312.2 81.4162C1312.54 81.3172 1312.9 81.2578 1313.26 81.2578C1313.67 81.2578 1314.03 81.2974 1314.35 81.4162C1314.67 81.535 1314.9 81.634 1315.04 81.7528C1314.98 81.8716 1314.94 81.9904 1314.9 82.1092C1314.87 82.228 1314.83 82.3666 1314.81 82.4854H1314.73C1314.73 82.4854 1314.61 82.2874 1314.51 82.1884C1314.43 82.0894 1314.31 81.9904 1314.19 81.9112C1314.07 81.832 1313.93 81.7528 1313.77 81.6934C1313.63 81.634 1313.46 81.6142 1313.28 81.6142C1312.94 81.6142 1312.66 81.6736 1312.4 81.7924C1312.17 81.9112 1311.97 82.0894 1311.81 82.3072C1311.65 82.525 1311.55 82.7824 1311.47 83.0794C1311.39 83.3764 1311.37 83.6932 1311.37 84.0298C1311.37 84.802 1311.53 85.3762 1311.87 85.7524C1312.2 86.1484 1312.68 86.3464 1313.32 86.3464C1313.48 86.3464 1313.61 86.3266 1313.77 86.287C1313.93 86.2474 1314.09 86.188 1314.23 86.1286C1314.37 86.0494 1314.51 85.9702 1314.65 85.8712C1314.79 85.7722 1314.89 85.6732 1314.98 85.5544L1315.04 85.594C1315 85.7722 1314.98 85.9504 1314.98 86.1484C1314.77 86.3266 1314.49 86.485 1314.15 86.6038C1313.81 86.7226 1313.48 86.8018 1313.12 86.8018C1312.8 86.8018 1312.48 86.7622 1312.15 86.6632C1311.83 86.5642 1311.53 86.4058 1311.27 86.188C1311.01 85.9702 1310.8 85.693 1310.64 85.3366C1310.48 84.9802 1310.4 84.5644 1310.4 84.0496L1310.42 84.0298Z" fill="#703E1E"/>
<path d="M1318.26 84.0298C1318.26 83.5348 1318.34 83.0992 1318.5 82.7428C1318.66 82.3864 1318.88 82.1092 1319.13 81.8914C1319.39 81.6736 1319.69 81.5152 1320.01 81.4162C1320.32 81.3172 1320.66 81.2578 1320.98 81.2578C1321.3 81.2578 1321.63 81.2974 1321.95 81.4162C1322.27 81.5152 1322.57 81.6736 1322.83 81.8914C1323.08 82.1092 1323.3 82.4062 1323.46 82.7428C1323.62 83.0992 1323.7 83.5348 1323.7 84.0298C1323.7 84.5248 1323.62 84.9604 1323.46 85.3168C1323.3 85.6732 1323.08 85.9504 1322.83 86.1682C1322.57 86.386 1322.27 86.5444 1321.95 86.6236C1321.63 86.7226 1321.32 86.7622 1320.98 86.7622C1320.64 86.7622 1320.34 86.7226 1320.01 86.6236C1319.69 86.5444 1319.39 86.386 1319.13 86.1682C1318.88 85.9504 1318.66 85.6732 1318.5 85.3168C1318.34 84.9604 1318.26 84.5446 1318.26 84.0298ZM1319.25 84.0298C1319.25 84.3466 1319.27 84.6436 1319.33 84.9406C1319.39 85.2376 1319.49 85.495 1319.61 85.7128C1319.75 85.9306 1319.93 86.1286 1320.15 86.2474C1320.36 86.386 1320.64 86.4454 1320.98 86.4454C1321.32 86.4454 1321.58 86.386 1321.81 86.2474C1322.03 86.1088 1322.21 85.9306 1322.35 85.7128C1322.49 85.495 1322.59 85.2376 1322.63 84.9406C1322.69 84.6436 1322.71 84.3466 1322.71 84.0298C1322.71 83.713 1322.69 83.416 1322.63 83.119C1322.57 82.822 1322.47 82.5646 1322.35 82.3468C1322.21 82.129 1322.03 81.9508 1321.81 81.8122C1321.6 81.6736 1321.32 81.6142 1320.98 81.6142C1320.64 81.6142 1320.38 81.6736 1320.15 81.8122C1319.93 81.9508 1319.75 82.129 1319.61 82.3468C1319.47 82.5646 1319.37 82.822 1319.33 83.119C1319.27 83.416 1319.25 83.713 1319.25 84.0298Z" fill="#703E1E"/>
<path d="M1329.62 82.1488C1329.52 82.1092 1329.4 82.0894 1329.28 82.0894C1329.1 82.0894 1328.94 82.129 1328.8 82.2082C1328.66 82.2874 1328.54 82.4062 1328.44 82.5448C1328.34 82.6834 1328.27 82.8418 1328.23 83.0398C1328.17 83.2378 1328.15 83.4358 1328.15 83.6536V84.8812C1328.15 85.3762 1328.15 85.7524 1328.15 86.0296C1328.15 86.287 1328.15 86.5048 1328.19 86.6632C1328.03 86.6632 1327.89 86.6434 1327.73 86.6434C1327.57 86.6434 1327.41 86.6434 1327.25 86.6632C1327.27 86.4058 1327.29 86.0692 1327.29 85.6336C1327.29 85.198 1327.29 84.6634 1327.29 84.0298V83.6734C1327.29 83.3764 1327.29 83.0398 1327.29 82.6636C1327.29 82.2874 1327.29 81.8518 1327.25 81.3568C1327.33 81.3568 1327.41 81.3766 1327.49 81.3964C1327.57 81.3964 1327.65 81.3964 1327.73 81.3964C1327.79 81.3964 1327.87 81.3964 1327.95 81.3964C1328.03 81.3964 1328.11 81.3766 1328.19 81.3568C1328.15 81.6142 1328.15 81.832 1328.13 81.9904C1328.13 82.1488 1328.13 82.2874 1328.13 82.4458H1328.15C1328.58 81.6538 1329.08 81.2578 1329.62 81.2578C1329.67 81.2578 1329.73 81.2578 1329.79 81.2578C1329.85 81.2578 1329.91 81.2776 1329.97 81.3172C1329.93 81.3964 1329.91 81.535 1329.91 81.733C1329.91 81.9112 1329.91 82.0894 1329.91 82.228L1329.83 82.2874C1329.83 82.2874 1329.71 82.2082 1329.62 82.1686V82.1488Z" fill="#703E1E"/>
<path d="M1333.31 81.8897C1333.65 81.6323 1333.94 81.4739 1334.24 81.3749C1334.52 81.2957 1334.82 81.2363 1335.11 81.2363C1335.39 81.2363 1335.63 81.2759 1335.85 81.3551C1336.07 81.4343 1336.27 81.5531 1336.42 81.6917C1336.58 81.8303 1336.7 82.0085 1336.8 82.2065C1336.88 82.4045 1336.94 82.6421 1336.94 82.8797C1336.94 83.2955 1336.94 83.7311 1336.92 84.1469C1336.92 84.5627 1336.9 85.0181 1336.9 85.4735C1336.9 85.5527 1336.9 85.6517 1336.9 85.7507C1336.9 85.8497 1336.92 85.9487 1336.96 86.0081C1336.98 86.0873 1337.04 86.1467 1337.08 86.2061C1337.14 86.2655 1337.22 86.2853 1337.34 86.2853C1337.38 86.2853 1337.42 86.2853 1337.46 86.2853C1337.5 86.2853 1337.54 86.2853 1337.58 86.2457V86.4833C1337.58 86.4833 1337.4 86.5427 1337.28 86.5625C1337.16 86.5823 1337.02 86.6021 1336.86 86.6021C1336.62 86.6021 1336.44 86.5427 1336.31 86.4239C1336.19 86.3051 1336.11 86.1467 1336.09 85.9487C1335.83 86.2061 1335.55 86.4041 1335.29 86.5427C1335.04 86.6615 1334.72 86.7407 1334.34 86.7407C1334.16 86.7407 1333.96 86.7209 1333.78 86.6615C1333.61 86.6021 1333.45 86.5229 1333.31 86.4041C1333.17 86.2853 1333.05 86.1467 1332.97 85.9685C1332.89 85.8101 1332.85 85.6121 1332.85 85.3943C1332.85 84.9389 1332.99 84.6023 1333.27 84.3647C1333.55 84.1271 1333.92 83.9489 1334.42 83.8697C1334.82 83.8103 1335.13 83.7509 1335.37 83.6915C1335.59 83.6519 1335.77 83.5925 1335.87 83.5331C1335.97 83.4737 1336.05 83.4143 1336.07 83.3549C1336.09 83.2757 1336.11 83.1965 1336.11 83.0777C1336.11 82.8995 1336.09 82.7213 1336.05 82.5431C1336.01 82.3649 1335.93 82.2263 1335.83 82.0877C1335.73 81.9689 1335.61 81.8501 1335.45 81.7907C1335.29 81.7115 1335.11 81.6719 1334.88 81.6719C1334.58 81.6719 1334.3 81.7313 1334.04 81.8699C1333.78 82.0085 1333.59 82.1867 1333.47 82.4243H1333.35V81.8501L1333.31 81.8897ZM1336.07 83.8697C1335.95 83.9093 1335.79 83.9489 1335.63 83.9885C1335.47 84.0281 1335.29 84.0479 1335.11 84.0875C1334.94 84.1271 1334.78 84.1667 1334.6 84.2063C1334.44 84.2657 1334.28 84.3251 1334.14 84.4241C1334 84.5033 1333.9 84.6221 1333.82 84.7607C1333.74 84.8993 1333.7 85.0577 1333.7 85.2755C1333.7 85.6319 1333.8 85.8893 1334 86.0675C1334.2 86.2457 1334.42 86.3249 1334.68 86.3249C1334.96 86.3249 1335.21 86.2457 1335.45 86.0873C1335.69 85.9289 1335.87 85.7507 1335.99 85.5329L1336.03 83.8697H1336.07Z" fill="#703E1E"/>
<path d="M1342.14 79.8714C1342.12 80.1486 1342.1 80.4258 1342.08 80.703C1342.08 80.9802 1342.06 81.2376 1342.04 81.5148C1342.12 81.5148 1342.28 81.5148 1342.5 81.5148C1342.72 81.5148 1342.96 81.5148 1343.23 81.495C1343.23 81.5148 1343.23 81.5544 1343.23 81.6138V81.8514C1343.23 81.8514 1343.23 81.9306 1343.23 81.9702C1343.13 81.9702 1343.04 81.9702 1342.94 81.9702C1342.84 81.9702 1342.72 81.9702 1342.6 81.9702H1342.04C1342.04 81.9702 1342.04 82.1286 1342.02 82.3266C1342.02 82.5246 1342 82.782 1342 83.0592C1342 83.3364 1342 83.6334 1342 83.9502C1342 84.267 1342 84.5441 1342 84.7817C1342 84.9797 1342 85.1976 1342 85.3955C1342 85.5935 1342.04 85.7717 1342.1 85.9301C1342.16 86.0885 1342.24 86.2271 1342.36 86.3063C1342.48 86.4053 1342.66 86.4449 1342.88 86.4449C1342.94 86.4449 1343.02 86.4449 1343.11 86.4251C1343.21 86.4251 1343.29 86.3855 1343.37 86.3657V86.6231C1343.25 86.6429 1343.11 86.6825 1342.96 86.7023C1342.8 86.7419 1342.66 86.7617 1342.52 86.7617C1342.04 86.7617 1341.71 86.6429 1341.49 86.4251C1341.27 86.2073 1341.15 85.8509 1341.15 85.4153C1341.15 85.2173 1341.15 84.9996 1341.15 84.762C1341.15 84.5244 1341.15 84.267 1341.17 83.9898C1341.17 83.7126 1341.19 83.3958 1341.19 83.0592C1341.19 82.7226 1341.19 82.3464 1341.19 81.9306H1340.83C1340.83 81.9306 1340.71 81.9306 1340.63 81.9306C1340.57 81.9306 1340.49 81.9306 1340.41 81.9306C1340.41 81.891 1340.41 81.8514 1340.41 81.8118C1340.41 81.7722 1340.41 81.7326 1340.41 81.693C1340.41 81.6534 1340.41 81.6138 1340.41 81.5742C1340.41 81.5346 1340.41 81.495 1340.41 81.4554C1340.75 81.4752 1340.99 81.495 1341.15 81.495C1341.15 81.3564 1341.15 81.1584 1341.15 80.9406C1341.15 80.7228 1341.15 80.4852 1341.13 80.2476L1342.06 79.8516H1342.12L1342.14 79.8714Z" fill="#703E1E"/>
<path d="M1346.71 79.4157C1346.71 79.2573 1346.77 79.1187 1346.87 79.0197C1346.99 78.9009 1347.11 78.8613 1347.26 78.8613C1347.42 78.8613 1347.56 78.9207 1347.66 79.0197C1347.78 79.1385 1347.82 79.2573 1347.82 79.4157C1347.82 79.5741 1347.76 79.7127 1347.66 79.8117C1347.56 79.9107 1347.42 79.9701 1347.26 79.9701C1347.11 79.9701 1346.97 79.9107 1346.87 79.8117C1346.75 79.6929 1346.71 79.5741 1346.71 79.4157ZM1346.87 83.4351C1346.87 83.0985 1346.87 82.7421 1346.87 82.3857C1346.87 82.0095 1346.83 81.6729 1346.79 81.3561C1347.01 81.3957 1347.16 81.4155 1347.28 81.4155C1347.4 81.4155 1347.58 81.4155 1347.78 81.3561C1347.74 81.6729 1347.72 82.0095 1347.7 82.3857C1347.7 82.7619 1347.7 83.0985 1347.7 83.4351V84.5835C1347.7 84.9201 1347.7 85.2765 1347.7 85.6329C1347.7 86.0091 1347.74 86.3259 1347.78 86.6229C1347.6 86.6229 1347.44 86.6031 1347.28 86.6031C1347.12 86.6031 1346.95 86.6031 1346.79 86.6229C1346.83 86.3259 1346.85 85.9893 1346.87 85.6329C1346.87 85.2567 1346.87 84.9201 1346.87 84.5835V83.4351Z" fill="#703E1E"/>
<path d="M1351.57 84.0298C1351.57 83.5348 1351.65 83.0992 1351.81 82.7428C1351.97 82.3864 1352.19 82.1092 1352.45 81.8914C1352.7 81.6736 1353 81.5152 1353.32 81.4162C1353.64 81.3172 1353.97 81.2578 1354.29 81.2578C1354.61 81.2578 1354.95 81.2974 1355.26 81.4162C1355.58 81.5152 1355.88 81.6736 1356.14 81.8914C1356.4 82.1092 1356.61 82.4062 1356.77 82.7428C1356.93 83.0992 1357.01 83.5348 1357.01 84.0298C1357.01 84.5248 1356.93 84.9604 1356.77 85.3168C1356.61 85.6732 1356.4 85.9504 1356.14 86.1682C1355.88 86.386 1355.58 86.5444 1355.26 86.6236C1354.95 86.7226 1354.63 86.7622 1354.29 86.7622C1353.95 86.7622 1353.66 86.7226 1353.32 86.6236C1353 86.5444 1352.7 86.386 1352.45 86.1682C1352.19 85.9504 1351.97 85.6732 1351.81 85.3168C1351.65 84.9604 1351.57 84.5446 1351.57 84.0298ZM1352.56 84.0298C1352.56 84.3466 1352.58 84.6436 1352.64 84.9406C1352.7 85.2376 1352.8 85.495 1352.92 85.7128C1353.06 85.9306 1353.24 86.1286 1353.46 86.2474C1353.68 86.386 1353.95 86.4454 1354.29 86.4454C1354.63 86.4454 1354.89 86.386 1355.13 86.2474C1355.34 86.1088 1355.52 85.9306 1355.66 85.7128C1355.8 85.495 1355.9 85.2376 1355.94 84.9406C1356 84.6436 1356.02 84.3466 1356.02 84.0298C1356.02 83.713 1356 83.416 1355.94 83.119C1355.88 82.822 1355.78 82.5646 1355.66 82.3468C1355.52 82.129 1355.34 81.9508 1355.13 81.8122C1354.91 81.6736 1354.63 81.6142 1354.29 81.6142C1353.95 81.6142 1353.7 81.6736 1353.46 81.8122C1353.24 81.9508 1353.06 82.129 1352.92 82.3468C1352.78 82.5646 1352.68 82.822 1352.64 83.119C1352.58 83.416 1352.56 83.713 1352.56 84.0298Z" fill="#703E1E"/>
<path d="M1363.9 82.2475C1363.68 81.9703 1363.38 81.8119 1363.01 81.8119C1362.49 81.8119 1362.11 81.9703 1361.85 82.2871C1361.62 82.6039 1361.5 83.0593 1361.5 83.6335V84.5839C1361.5 84.9205 1361.5 85.2769 1361.5 85.6333C1361.5 86.0095 1361.54 86.3263 1361.58 86.6233C1361.4 86.6233 1361.24 86.6035 1361.08 86.6035C1360.92 86.6035 1360.74 86.6035 1360.58 86.6233C1360.62 86.3263 1360.64 85.9897 1360.66 85.6333C1360.66 85.2571 1360.66 84.9205 1360.66 84.5839V83.4355C1360.66 83.0989 1360.66 82.7425 1360.66 82.3861C1360.66 82.0099 1360.62 81.6733 1360.58 81.3565C1360.78 81.3961 1360.96 81.4159 1361.08 81.4159C1361.14 81.4159 1361.2 81.4159 1361.28 81.4159C1361.36 81.4159 1361.44 81.3961 1361.54 81.3763C1361.52 81.6733 1361.5 81.9703 1361.5 82.2673H1361.52C1361.74 81.9505 1361.97 81.6931 1362.27 81.5347C1362.57 81.3565 1362.91 81.2773 1363.3 81.2773C1363.52 81.2773 1363.72 81.2971 1363.94 81.3763C1364.16 81.4357 1364.34 81.5347 1364.52 81.6733C1364.69 81.8119 1364.83 82.0099 1364.93 82.2673C1365.03 82.5247 1365.09 82.8415 1365.09 83.2177C1365.09 83.5345 1365.09 83.8711 1365.07 84.2077C1365.07 84.5443 1365.05 84.9007 1365.05 85.2769V86.0095C1365.05 86.1283 1365.05 86.2471 1365.05 86.3659C1365.05 86.4847 1365.05 86.5837 1365.05 86.7025C1364.89 86.7025 1364.75 86.6827 1364.57 86.6827C1364.4 86.6827 1364.26 86.6827 1364.12 86.7025C1364.12 86.3263 1364.16 85.9105 1364.18 85.5145C1364.18 85.0987 1364.2 84.6829 1364.2 84.2473V83.5741C1364.2 83.0197 1364.1 82.6039 1363.88 82.3069L1363.9 82.2475Z" fill="#703E1E"/>
<path d="M1118.65 71.2801C1118.27 72.0127 1117.99 72.7651 1117.79 73.5175C1117.59 74.2699 1117.46 75.0619 1117.38 75.8539C1117.3 76.6657 1117.28 77.4973 1117.28 78.3883C1117.28 79.2793 1117.32 80.1307 1117.38 80.9227C1117.46 81.7345 1117.59 82.5067 1117.79 83.2591C1118.01 84.0115 1118.29 84.7441 1118.67 85.4569C1119.04 86.1697 1119.5 86.9023 1120.08 87.6349L1119.6 88.0507C1118.33 86.6845 1117.38 85.1995 1116.74 83.5363C1116.11 81.8929 1115.79 80.1703 1115.79 78.3685C1115.79 77.5171 1115.87 76.6459 1116.03 75.7747C1116.18 74.9035 1116.42 74.0521 1116.76 73.2205C1117.08 72.3889 1117.48 71.5772 1117.95 70.805C1118.43 70.0328 1118.96 69.3002 1119.6 68.627L1120.08 69.0428C1119.48 69.7951 1119 70.5278 1118.63 71.2604L1118.65 71.2801Z" fill="#703E1E"/>
<path d="M1122.7 81.318C1122.7 80.3676 1122.95 79.4964 1123.49 78.7044C1124.01 77.9124 1124.88 77.3184 1126.11 76.9026V76.7442C1125.81 76.6848 1125.52 76.566 1125.22 76.3878C1124.92 76.2096 1124.64 75.9918 1124.38 75.7146C1124.13 75.4374 1123.93 75.1206 1123.77 74.7444C1123.61 74.3682 1123.53 73.9722 1123.53 73.5366C1123.53 73.0416 1123.63 72.5664 1123.85 72.1308C1124.07 71.6952 1124.36 71.2992 1124.74 70.9428C1125.12 70.6062 1125.59 70.329 1126.13 70.131C1126.67 69.933 1127.28 69.834 1127.96 69.834C1128.73 69.834 1129.41 69.933 1129.98 70.131C1130.54 70.329 1131.01 70.5864 1131.37 70.8834C1131.73 71.2002 1132.01 71.5566 1132.19 71.9724C1132.36 72.3882 1132.46 72.8238 1132.46 73.2792C1132.46 74.0316 1132.25 74.7246 1131.79 75.3582C1131.35 75.9918 1130.7 76.4472 1129.82 76.7244V76.8828C1130.08 76.9224 1130.42 77.0214 1130.82 77.1798C1131.21 77.3382 1131.57 77.556 1131.93 77.853C1132.28 78.15 1132.58 78.546 1132.82 79.041C1133.08 79.5162 1133.2 80.13 1133.2 80.8428C1133.2 81.615 1133.06 82.3278 1132.78 82.9416C1132.5 83.5554 1132.13 84.09 1131.65 84.5454C1131.17 84.981 1130.62 85.3176 1129.98 85.5354C1129.35 85.7532 1128.67 85.872 1127.96 85.872C1127.24 85.872 1126.53 85.773 1125.89 85.5948C1125.26 85.4166 1124.7 85.1394 1124.22 84.7434C1123.75 84.3474 1123.39 83.8722 1123.13 83.3178C1122.87 82.7634 1122.74 82.11 1122.74 81.3774L1122.7 81.318ZM1131.09 81.1992C1131.09 80.625 1131.01 80.0904 1130.88 79.6152C1130.74 79.14 1130.52 78.7242 1130.24 78.3678C1129.96 78.0114 1129.62 77.754 1129.25 77.556C1128.85 77.358 1128.41 77.259 1127.94 77.259C1127.46 77.259 1127.02 77.358 1126.63 77.556C1126.23 77.754 1125.91 78.0312 1125.63 78.3678C1125.36 78.7242 1125.16 79.14 1125 79.6152C1124.84 80.0904 1124.78 80.625 1124.78 81.1992C1124.78 81.7734 1124.86 82.308 1125 82.7832C1125.14 83.2584 1125.36 83.6742 1125.63 84.0306C1125.91 84.387 1126.25 84.6642 1126.63 84.8424C1127.02 85.0404 1127.46 85.1394 1127.94 85.1394C1128.41 85.1394 1128.85 85.0404 1129.25 84.8424C1129.64 84.6444 1129.96 84.3672 1130.24 84.0306C1130.52 83.6742 1130.72 83.2584 1130.88 82.7832C1131.01 82.308 1131.09 81.7734 1131.09 81.1992ZM1130.48 73.5366C1130.48 73.1406 1130.44 72.7446 1130.34 72.3882C1130.24 72.0318 1130.1 71.715 1129.88 71.4378C1129.66 71.1606 1129.41 70.9428 1129.09 70.7844C1128.77 70.626 1128.39 70.5468 1127.94 70.5468C1127.48 70.5468 1127.12 70.626 1126.81 70.7844C1126.49 70.9428 1126.23 71.1606 1126.01 71.4378C1125.81 71.715 1125.65 72.0318 1125.57 72.3882C1125.48 72.7446 1125.44 73.1208 1125.44 73.5366C1125.44 73.9524 1125.48 74.3088 1125.57 74.6652C1125.67 75.0414 1125.81 75.3582 1126.01 75.6156C1126.21 75.8928 1126.47 76.1106 1126.81 76.269C1127.12 76.4274 1127.5 76.5066 1127.94 76.5066C1128.37 76.5066 1128.77 76.4274 1129.09 76.269C1129.41 76.1106 1129.66 75.8928 1129.88 75.6156C1130.1 75.3384 1130.24 75.0216 1130.34 74.6652C1130.44 74.3088 1130.48 73.9128 1130.48 73.5366Z" fill="#703E1E"/>
<path d="M1142.21 77.1602V78.6056H1136.37V77.1602H1142.21Z" fill="#703E1E"/>
<path d="M1145.63 72.8442C1145.45 72.5274 1145.23 72.2898 1144.93 72.0918V71.9334C1145.82 71.577 1146.74 71.181 1147.67 70.7454C1148.6 70.3098 1149.48 69.894 1150.29 69.498L1150.45 69.6168C1150.39 70.6464 1150.33 71.6562 1150.31 72.666C1150.29 73.6758 1150.27 74.6856 1150.27 75.7152V79.6158C1150.27 80.6454 1150.27 81.6552 1150.31 82.6452C1150.35 83.6352 1150.39 84.6054 1150.45 85.5558C1150.27 85.5162 1150.07 85.5162 1149.89 85.5162H1148.78C1148.6 85.5162 1148.42 85.5162 1148.23 85.5558C1148.31 84.5856 1148.35 83.6154 1148.39 82.6254C1148.41 81.6354 1148.42 80.6454 1148.42 79.6158V71.2999L1145.63 72.8442Z" fill="#703E1E"/>
<path d="M1157.16 70.3688C1157.85 69.9927 1158.69 69.8145 1159.66 69.8145C1160.28 69.8145 1160.85 69.8937 1161.39 70.0521C1161.94 70.2105 1162.4 70.4481 1162.8 70.8045C1163.19 71.1411 1163.51 71.5766 1163.75 72.0914C1163.99 72.6062 1164.11 73.2398 1164.11 73.9526C1164.11 74.4872 1164.05 74.9822 1163.93 75.4376C1163.81 75.893 1163.61 76.3484 1163.37 76.784C1163.14 77.2196 1162.82 77.6552 1162.46 78.1106C1162.1 78.5462 1161.67 79.0214 1161.15 79.5164C1160.85 79.8134 1160.51 80.15 1160.12 80.546C1159.72 80.942 1159.32 81.338 1158.93 81.7538C1158.53 82.1696 1158.15 82.5854 1157.79 82.9814C1157.44 83.3972 1157.12 83.7536 1156.88 84.11H1159.11C1160.24 84.11 1161.23 84.11 1162.1 84.0506C1162.98 84.011 1163.73 83.9714 1164.39 83.9318C1164.31 84.2684 1164.27 84.5654 1164.27 84.803C1164.27 85.0208 1164.31 85.2782 1164.39 85.595C1163.53 85.5554 1162.7 85.5554 1161.88 85.5554H1156.86C1156.03 85.5554 1155.19 85.5554 1154.34 85.595V85.3178C1155.43 84.2486 1156.39 83.2982 1157.2 82.4666C1158.01 81.6548 1158.69 80.9024 1159.24 80.249C1159.8 79.5956 1160.26 79.0016 1160.61 78.467C1160.97 77.9324 1161.25 77.4374 1161.45 76.9622C1161.65 76.487 1161.79 76.0118 1161.86 75.5564C1161.94 75.101 1161.96 74.606 1161.96 74.0714C1161.96 72.923 1161.71 72.0716 1161.17 71.5172C1160.65 70.9628 1160.04 70.6856 1159.32 70.6856C1158.83 70.6856 1158.39 70.7846 1158.03 70.9628C1157.68 71.141 1157.38 71.3588 1157.14 71.6162C1156.9 71.8736 1156.72 72.1508 1156.6 72.4478C1156.48 72.7448 1156.39 73.0022 1156.35 73.2398L1156.19 73.2794L1155.37 72.131C1155.87 71.339 1156.46 70.745 1157.16 70.3688Z" fill="#703E1E"/>
<path d="M1168.69 72.5274C1168.65 71.5374 1168.61 70.5276 1168.57 69.498C1169.27 69.5376 1169.98 69.5574 1170.68 69.5772C1171.37 69.597 1172.07 69.6168 1172.78 69.6168C1173.5 69.6168 1174.19 69.6168 1174.91 69.5772C1175.62 69.5376 1176.42 69.5178 1177.25 69.498C1177.21 69.7356 1177.17 69.9733 1177.17 70.1911C1177.17 70.4088 1177.19 70.6662 1177.25 70.884C1176.83 70.8444 1176.32 70.7851 1175.72 70.7653C1175.13 70.7257 1174.53 70.686 1173.89 70.6662C1173.28 70.6464 1172.68 70.6266 1172.11 70.6068C1171.53 70.6068 1171.06 70.5871 1170.7 70.5871C1170.7 71.1414 1170.68 71.6562 1170.66 72.1512C1170.66 72.6462 1170.66 73.1412 1170.66 73.656C1170.66 74.2104 1170.66 74.7054 1170.66 75.1608C1170.66 75.6162 1170.66 76.0914 1170.66 76.6062C1171.69 76.6062 1172.7 76.6062 1173.72 76.5666C1174.73 76.527 1175.72 76.4676 1176.71 76.3884C1176.65 76.626 1176.61 76.8636 1176.61 77.0814C1176.61 77.2992 1176.65 77.5566 1176.71 77.7744C1176.32 77.7348 1175.88 77.6952 1175.38 77.6754C1174.89 77.6556 1174.37 77.6358 1173.86 77.616C1173.32 77.616 1172.78 77.5962 1172.25 77.5962H1170.68V79.5762C1170.68 80.6058 1170.68 81.6156 1170.74 82.6254C1170.78 83.6154 1170.82 84.6054 1170.88 85.5756C1170.52 85.536 1170.14 85.536 1169.73 85.536C1169.31 85.536 1168.93 85.536 1168.57 85.5756C1168.61 84.6054 1168.67 83.6352 1168.69 82.6254C1168.71 81.6156 1168.75 80.6058 1168.75 79.5762V75.5568C1168.75 74.5272 1168.73 73.5174 1168.69 72.5274Z" fill="#703E1E"/>
<path d="M1181.38 85.4566C1181.76 84.7438 1182.03 84.0112 1182.23 83.2588C1182.43 82.5065 1182.57 81.7145 1182.65 80.9225C1182.73 80.1107 1182.77 79.2791 1182.77 78.3881C1182.77 77.4971 1182.73 76.6457 1182.65 75.8537C1182.57 75.0419 1182.43 74.2697 1182.23 73.5173C1182.03 72.7649 1181.74 72.0125 1181.38 71.2799C1181 70.5473 1180.55 69.8147 1179.97 69.0623L1180.45 68.6465C1181.72 69.9929 1182.67 71.5175 1183.3 73.2005C1183.94 74.8835 1184.26 76.6061 1184.26 78.4079C1184.26 80.2097 1183.94 81.8531 1183.3 83.536C1182.67 85.219 1181.72 86.7436 1180.47 88.09L1179.99 87.6742C1180.57 86.9218 1181.04 86.1892 1181.4 85.4962L1181.38 85.4566Z" fill="#703E1E"/>
</g>
<defs>
<linearGradient id="paint0_linear_538_237640" x1="2015.54" y1="66.9069" x2="133.083" y2="59.9364" gradientUnits="userSpaceOnUse">
<stop offset="0.27" stop-color="#9E2426" stop-opacity="0"/>
<stop offset="0.75" stop-color="#9E2426" stop-opacity="0.66"/>
<stop offset="0.99" stop-color="#9E2426"/>
</linearGradient>
<clipPath id="clip0_538_237640">
<rect width="1920" height="132" fill="white"/>
</clipPath>
</defs>
</svg>
