<?xml version="1.0" encoding="utf-8"?>
<!-- Generator: Adobe Illustrator 27.0.0, SVG Export Plug-In . SVG Version: 6.00 Build 0)  -->
<svg version="1.1" id="圖層_1" xmlns="http://www.w3.org/2000/svg" xmlns:xlink="http://www.w3.org/1999/xlink" x="0px" y="0px"
	 viewBox="0 0 173 103" style="enable-background:new 0 0 173 103;" xml:space="preserve">
<style type="text/css">
	.st0{fill:#E8D0A4;}
	.st1{fill:none;stroke:#571704;stroke-width:0.25;stroke-miterlimit:10;}
	.st2{fill:#834E1A;}
	.st3{fill:#40210F;}
</style>
<g>
	<rect y="0.3" class="st0" width="172.5" height="102.6"/>
	<line class="st1" x1="19" y1="32.1" x2="155.6" y2="32.1"/>
	<g>
		<g>
			<g>
				<path class="st2" d="M27.1,15.1l0,0.4c0.2,3.3,0.9,5.4,2.6,6.6l0,0.2c-0.8,0.2-1.2,1-1.4,2c-0.8-1.2-1.2-3.5-1.3-6.3h0
					c-0.2,2.5-0.9,4.7-3.2,6.2L23.6,24c0.4-0.5,0.7-1,0.9-1.5c-0.1,0-0.1,0-0.2,0H20v0.9c0,0.1-0.4,0.5-1.2,0.5h-0.3V12.7l1.6,0.6
					h2.2l0.7-1l1.4,1.1c-0.1,0.1-0.3,0.2-0.6,0.2h-4v8.8h2.7l0.8-1.1l1.2,0.9c0.8-1.9,0.8-4,0.8-6.4c-0.4,0.8-0.9,1.5-1.5,2.1
					l-0.2-0.1c0.5-1.3,0.8-3.6,0.9-5.8l2.2,0.5c0,0.2-0.1,0.3-0.5,0.3c-0.2,0.7-0.4,1.4-0.6,2h1.7l0.8-0.8l1.3,1.4
					c-0.1,0.1-0.2,0.2-0.5,0.2c-0.4,0.7-1,1.8-1.5,2.5L27.7,18c0.1-0.7,0.1-2.1,0.1-2.9H27.1z M22.1,20.9c0,0.1-0.4,0.3-0.6,0.3
					h-0.1v-0.4H21v0.4c0,0.1-0.2,0.3-0.6,0.3h-0.1v-3.6l0.9,0.4h0.1l0.3-0.4l0.8,0.6c0,0.1-0.2,0.1-0.3,0.2V20.9z M22.9,14.2
					l1.2,0.9c-0.1,0.1-0.2,0.2-0.4,0.2v1.8c0,0-0.3,0.3-1.2,0.3V17H22v0.2c0,0.1-0.4,0.4-1,0.4h-0.2v-3.2l1.3,0.6h0.3L22.9,14.2z
					 M21,20.5h0.3v-2.1H21V20.5z M22,16.8h0.6v-1.7H22V16.8z M24.3,20.9c0,0.1-0.4,0.3-0.7,0.3h-0.1v-0.4h-0.3V21
					c0,0.1-0.2,0.3-0.6,0.3h-0.1v-3.5l0.9,0.4h0.1l0.3-0.4l0.9,0.7c0,0.1-0.2,0.1-0.3,0.2V20.9z M23.2,20.5h0.3v-2.1h-0.3V20.5z"/>
				<path class="st2" d="M35,16.1c0.2,0.6,0.2,1,0.2,1.4c0,1.2-0.6,1.7-1.1,1.7c-0.3,0-0.6-0.2-0.7-0.4l-0.1,0.5
					c-0.1,0.4-0.1,0.9-0.1,1.2v0.1c0,0.7,0.5,1.1,0.5,2.3c0,0.9-0.6,1.3-1.1,1.3c-0.3,0-0.6-0.2-0.7-0.7c0.1-0.6,0.2-1.2,0.2-1.7
					c0-1.1-0.2-1.3-0.9-1.4v-0.2c0.4,0,0.5,0,0.5,0v0c0.2,0,0.2,0,0.4-0.3c0.2-0.4,0.2-0.4,1-2.6c-0.2,0.3-0.4,0.4-0.7,0.4
					c-0.2,0-0.5-0.1-0.7-0.4c0-0.7-0.2-1.4-0.6-1.9l0.1-0.1c1.7,0.3,2.2,1,2.1,1.5l1-2.8l0.2,0.1c-0.2,1-0.6,2.7-0.8,3.9l0-0.1
					c0.5-0.3,1.1-1,1.2-1.9L35,16.1z M31.6,12.1c1.7,0.3,2.2,0.9,2.2,1.5c0,0.5-0.4,0.9-0.9,0.9c-0.2,0-0.5-0.1-0.7-0.4
					C32.2,13.5,32,12.7,31.6,12.1L31.6,12.1z M40.6,12.3l1.9,0.2c0,0.1-0.1,0.2-0.4,0.3v10.8c0,0.2-0.7,0.6-1.2,0.6h-0.3V19
					c-0.1,0-0.2,0.1-0.2,0.1c-0.2,0-0.5-0.1-0.6-0.4c0-0.2,0-0.3,0-0.5c0-0.6-0.1-1.3-0.3-1.8v7.2c0,0.2-0.6,0.5-1.1,0.5H38v-5
					c-0.1,0-0.1,0-0.2,0c-0.2,0-0.4-0.1-0.6-0.4c0-0.2,0.1-0.4,0.1-0.7c0-0.5-0.1-1.1-0.2-1.5v0.8c0,2.8-0.6,5.5-3.1,6.9l-0.1-0.1
					c1.4-1.8,1.7-4.3,1.7-6.8v-4.9l2,0.2c0,0.2-0.1,0.3-0.5,0.3v3.3l0,0c0.4,0.2,0.7,0.4,1,0.7v-4.1l1.8,0.2c0,0.1-0.1,0.2-0.4,0.3
					V16c0.5,0.3,0.9,0.5,1.2,0.8V12.3z"/>
				<path class="st2" d="M53.3,18l1.8,1.4c-0.1,0.1-0.2,0.2-0.5,0.3v4c0,0-0.5,0.5-1.8,0.5v-1h-3.5v0.5c0,0.1-0.5,0.5-1.4,0.5h-0.3
					V20c-1,0.5-2,0.9-3.2,1.2l0-0.1c1.7-0.8,3.2-1.8,4.4-3.1c-0.2,0-0.5,0-0.7-0.3c-0.1-0.6-0.4-1.3-0.8-1.7
					c-0.8,0.7-1.7,1.3-2.6,1.6l-0.1-0.1c1.5-1.2,2.7-3.4,3.3-5.5l2.4,0.5c0,0.1-0.1,0.2-0.5,0.2c-0.2,0.4-0.4,0.7-0.6,1.1h2.1l1.1-1
					l1.6,1.6c-0.1,0.2-0.2,0.2-0.6,0.2c-1,1.7-2.2,3.2-3.9,4.3l0.1,0h3.2L53.3,18z M48.8,14c-0.4,0.6-0.9,1.1-1.4,1.6
					c1.6,0.1,2,0.8,2,1.4c0.7-0.9,1.3-1.9,1.7-3H48.8z M49.2,23h3.5v-3.8h-3.5V23z"/>
				<path class="st2" d="M60.4,18.7l0.6-0.9l1.6,1.2c-0.1,0.1-0.2,0.2-0.5,0.3v4.1c0,0-0.4,0.5-1.7,0.5v-1.1h-1.2v0.7
					c0,0-0.2,0.7-1.6,0.7V18l1.7,0.7H60.4z M59.3,22.7h1.2v-3.7h-1.2V22.7z M61.4,16.7V17c0,0.1-0.2,0.7-1.7,0.7v-5.4l1.7,0.7h2.5
					l0.6-0.9l1.7,1.3c-0.1,0.1-0.2,0.2-0.5,0.3v3.5c0,0-0.4,0.5-1.7,0.5v-0.9H61.4z M64,13.2h-2.7v3.3H64V13.2z M66.6,17.9l1.7,1.3
					c-0.1,0.1-0.2,0.2-0.5,0.3v4.2c0,0-0.5,0.4-1.7,0.4v-1.2h-1.4v0.7c0,0-0.2,0.7-1.6,0.7V18l1.7,0.7H66L66.6,17.9z M64.7,22.7h1.4
					v-3.7h-1.4V22.7z"/>
			</g>
		</g>
		<g>
			<g>
				<path class="st2" d="M83.8,14.8l1.1,1.2c-0.1,0.1-0.2,0.1-0.4,0.1c-0.3,0.3-0.9,0.7-1.3,0.9l0.3,0.2c-0.1,0.1-0.2,0.1-0.5,0.1
					h-1.9c0.2,0.9,0.5,1.6,0.9,2.2c0.5-0.6,1-1.3,1.2-1.8l1.3,1c0,0.1-0.1,0.1-0.2,0.1c0,0-0.1,0-0.2,0c-0.5,0.3-1.3,0.7-2,0.9
					c0.7,0.9,1.7,1.5,2.7,1.9l0,0.1c-0.6,0.1-1,0.5-1.3,1.2c-1.5-1.2-2.3-2.6-2.6-5.6c-0.3,0.3-0.8,0.6-1.3,0.9
					c1.2,0.9,1.7,2.3,1.7,3.4c0,1.9-1.1,2.1-2,2.1c0-1-0.4-1.2-1.1-1.3v-0.1h1.2c0.1,0,0.2,0,0.3-0.1c0.1-0.2,0.2-0.4,0.2-0.8
					c-1.2,0.6-2.7,1.1-4.2,1.2l0-0.1c1.7-0.5,3.3-1.5,4.2-2.7l0-0.1c-1.1,0.5-2.5,1-3.9,1.2l0-0.1c1.3-0.5,2.7-1.5,3.4-2.4l0-0.1
					c-0.9,0.4-2.1,0.8-3.3,1l0-0.1c1.3-0.5,2.4-1.3,3.1-2h-2l0-0.2h4.5l0.7-0.9l0.8,0.6c0.1-0.3,0.1-0.8,0.1-1.2h-5.8
					c0,0.1,0,0.2,0,0.3c0,0.7-0.4,1.2-0.9,1.2c-0.4,0-0.7-0.2-0.7-0.7c0-0.3,0.2-0.6,0.5-0.7c0.3-0.1,0.8-0.5,0.8-1h0.1
					c0.1,0.2,0.1,0.4,0.2,0.6h2.2v-1.5l1.8,0.2c0,0.1-0.1,0.2-0.4,0.3v1h2.1L83.8,14.8z"/>
				<path class="st2" d="M89,15.4l1.3,1c-0.1,0.1-0.2,0.2-0.4,0.2v5.6c0,0-0.3,0.4-1.3,0.4v-0.9h-1v0.7c0,0-0.2,0.5-1.3,0.5v-7.5
					l1.1,0.5c0.1-0.5,0.2-1.3,0.2-1.9l1.9,0.3c0,0.2-0.1,0.3-0.4,0.3c-0.3,0.4-0.8,1-1.1,1.4h0.6L89,15.4z M88.6,16.3h-1v2.5h1V16.3
					z M87.5,21.6h1v-2.6h-1V21.6z M93.7,15.4l1.3,1.1c-0.1,0.1-0.2,0.2-0.4,0.2c-0.1,4.3-0.2,6.1-0.8,6.7C93.4,23.8,93,24,92.2,24
					c0-0.9-0.1-1.2-1.3-1.5v-0.1c0.5,0,1.1,0,1.4,0c0.2,0,0.2,0,0.3-0.1c0.4-0.3,0.5-2.3,0.5-5.9h-1.4c-0.5,1.2-1.1,2.1-1.8,2.9
					l-0.1-0.1c0.5-1.2,0.9-3.2,1-5l1.8,0.5c0,0.1-0.1,0.2-0.4,0.2c-0.1,0.5-0.3,1-0.5,1.4h1.2L93.7,15.4z M90.9,18.3
					c1.4,0.4,1.8,1.1,1.8,1.6c0,0.5-0.4,0.9-0.8,0.9c-0.2,0-0.5-0.1-0.6-0.4c0-0.1,0-0.2,0-0.3C91.3,19.5,91.1,18.8,90.9,18.3
					L90.9,18.3z"/>
				<path class="st2" d="M103.7,17.4l1.2,1c-0.1,0.1-0.2,0.1-0.5,0.1h-1.5c-0.3,1.1-0.6,2-1.1,2.8c1.7,0.5,2.3,1.3,2.3,1.9
					c0,0.4-0.3,0.7-0.7,0.7c-0.1,0-0.3,0-0.4-0.1c-0.4-0.4-1.1-1-2-1.6c-1,0.9-2.6,1.4-5,1.7l0-0.1c1.9-0.5,3.2-1.2,4-2.1
					c-0.4-0.2-0.8-0.4-1.3-0.6c-0.1,0.2-0.2,0.4-0.3,0.6c-0.1,0.1-0.3,0.1-0.5,0.1c-0.3,0-0.6-0.1-1-0.2c0.3-0.7,0.8-1.9,1.3-3h-2.5
					l0-0.2h2.6c0.3-0.9,0.7-1.7,0.8-2.2l1.8,0.3c0,0.2-0.1,0.2-0.4,0.2c-0.1,0.4-0.4,1-0.6,1.6h3.1L103.7,17.4z M102.8,17.5
					c0.1-0.4,0.2-1,0.3-1.5h-5.7c0,0.2,0,0.3,0,0.5c0,0.6-0.3,1.3-0.9,1.3c-0.4,0-0.7-0.2-0.7-0.7c0-0.3,0.2-0.6,0.5-0.7
					c0.3-0.2,0.8-0.6,0.8-1.1h0.1c0.1,0.2,0.2,0.5,0.2,0.7h2.2v-1.7l1.8,0.2c0,0.1-0.1,0.2-0.4,0.3v1.3h2l0.7-0.7l1.2,1.2
					c-0.1,0.1-0.2,0.1-0.4,0.1C104.1,16.8,103.4,17.3,102.8,17.5L102.8,17.5z M99.8,18.6c-0.3,0.8-0.7,1.6-1,2.3
					c0.6,0,1.2,0.1,1.7,0.1c0.4-0.7,0.7-1.5,0.9-2.5H99.8z"/>
				<path class="st2" d="M107.2,18.3c0.4,0.9,0.6,1.6,0.6,2.2c0,0.9-0.4,1.8-1.2,1.8c-0.4,0-0.8-0.3-0.8-0.7c0-0.3,0.1-0.5,0.4-0.7
					C106.7,20.5,107.2,19.5,107.2,18.3L107.2,18.3z M108.2,14.5c0.3,0,0.7-0.1,1-0.1c1.8,0,2.4,0.8,2.4,1.4c0,0.5-0.3,0.9-0.8,0.9
					c-0.1,0-0.3,0-0.4-0.1c-0.3-0.6-1-1.5-2.1-2L108.2,14.5z M108.4,17.2l1.7,0.1c0,0.1-0.1,0.2-0.3,0.3v4.5c0,0.3,0,0.3,0.3,0.3
					h1.2c0.2,0,0.3,0,0.4-0.2c0.1-0.2,0.3-0.7,0.6-1.4h0.1v1.5c0.5,0.2,0.5,0.3,0.5,0.5c0,0.6-0.3,0.9-1.6,0.9h-1.2
					c-1.4,0-1.6-0.3-1.6-1.7V17.2z M112.3,18c1.9,0.9,2.6,2.1,2.6,3c0,0.8-0.5,1.3-1,1.3c-0.2,0-0.5-0.1-0.7-0.5c0-0.2,0-0.4,0-0.6
					C113.2,20.3,113,19,112.3,18L112.3,18z"/>
				<path class="st2" d="M122.9,14.3l1.4,1.1c-0.1,0.1-0.2,0.2-0.4,0.2v6.6c0,0.9-0.2,1.6-1.7,1.7c0-1.2-0.4-1.4-1-1.5v-0.1h1.2
					c0.1,0,0.1-0.1,0.1-0.1v-2.2h-1.5v3.4c0,0.1-0.4,0.4-1.1,0.4h-0.3v-3.8h-1.4c-0.2,1.4-0.7,2.9-2.4,3.9l-0.1-0.1
					c1.1-1.6,1.2-3.6,1.2-5.6v-3.8l1.6,0.6h3.9L122.9,14.3z M118.2,18.3c0,0.5,0,1.1-0.1,1.6h1.4v-2.3h-1.3V18.3z M119.6,15.2h-1.3
					v2.2h1.3V15.2z M122.4,15.2h-1.5v2.2h1.5V15.2z M120.9,19.9h1.5v-2.3h-1.5V19.9z"/>
				<path class="st2" d="M127.2,18.3c0.4,0.9,0.6,1.6,0.6,2.2c0,0.9-0.4,1.8-1.2,1.8c-0.4,0-0.8-0.3-0.8-0.7c0-0.3,0.1-0.5,0.4-0.7
					C126.6,20.5,127.1,19.5,127.2,18.3L127.2,18.3z M128.1,14.5c0.3,0,0.7-0.1,1-0.1c1.8,0,2.4,0.8,2.4,1.4c0,0.5-0.3,0.9-0.8,0.9
					c-0.1,0-0.3,0-0.4-0.1c-0.3-0.6-1-1.5-2.1-2L128.1,14.5z M128.3,17.2l1.7,0.1c0,0.1-0.1,0.2-0.3,0.3v4.5c0,0.3,0,0.3,0.3,0.3
					h1.2c0.2,0,0.3,0,0.4-0.2c0.1-0.2,0.3-0.7,0.6-1.4h0.1v1.5c0.5,0.2,0.5,0.3,0.5,0.5c0,0.6-0.3,0.9-1.6,0.9H130
					c-1.4,0-1.6-0.3-1.6-1.7V17.2z M132.2,18c1.9,0.9,2.6,2.1,2.6,3c0,0.8-0.5,1.3-1,1.3c-0.2,0-0.5-0.1-0.7-0.5c0-0.2,0-0.4,0-0.6
					C133.2,20.3,132.9,19,132.2,18L132.2,18z"/>
				<path class="st2" d="M138.9,15.4l1,0.8c-0.1,0.1-0.2,0.1-0.5,0.1h-3.9l0-0.2h2.9L138.9,15.4z M139.7,20.7c0,0.1-0.2,0.2-0.3,0.2
					v2.4c0,0-0.3,0.4-1.3,0.4v-0.8h-0.8v0.7c0,0-0.2,0.5-1.2,0.5v-4.1l1.3,0.5h0.6l0.5-0.6L139.7,20.7z M138.4,16.8l1,0.8
					c-0.1,0.1-0.2,0.1-0.5,0.1h-2.9l0-0.2h1.8L138.4,16.8z M137.9,18.9l0.5-0.8l1,0.8c-0.1,0.1-0.2,0.1-0.5,0.1h-2.9l0-0.2H137.9z
					 M139.4,14.9c-0.1,0.1-0.2,0.1-0.5,0.1h-2.8l0-0.2h1.7l0.6-0.8L139.4,14.9z M137.3,22.6h0.8v-2.1h-0.8V22.6z M143.1,18.2
					l1.2,1.1c-0.1,0.1-0.2,0.2-0.4,0.2c-0.3,0.8-0.7,1.6-1.3,2.2c0.7,0.4,1.4,0.6,2.2,0.8l0,0.1c-0.6,0.1-1,0.6-1.2,1.3
					c-0.7-0.4-1.4-0.8-1.9-1.4c-0.8,0.6-1.7,1.1-2.9,1.4l0-0.1c1-0.5,1.8-1.2,2.4-2c-0.4-0.7-0.7-1.6-0.9-2.7h-0.5l0-0.2h2.6
					L143.1,18.2c-0.9,0-0.9-0.4-0.9-1.4v-1.7h-0.8v0.6c0,0.8-0.2,2.2-1.9,3l-0.1-0.1c0.6-0.9,0.7-2.1,0.7-2.9v-1.3l1.5,0.5h0.5
					l0.5-0.7l1.2,0.9c-0.1,0.1-0.2,0.1-0.3,0.2v1.5c0,0.1,0,0.2,0.1,0.2h0.3c0.1,0,0.1,0,0.2-0.1c0.1-0.2,0.2-0.6,0.3-0.9h0.1l0,0.9
					c0.3,0.1,0.3,0.2,0.3,0.5c0,0.5-0.3,0.8-1,0.8H143.1z M140.4,19.1c0.3,0.8,0.7,1.5,1.3,2c0.3-0.6,0.6-1.3,0.7-2H140.4z"/>
				<path class="st2" d="M147.2,18.3c-0.4,0.5-1,1-1.6,1.4l-0.1-0.1c0.7-0.9,1.1-2.1,1.4-3.4h-1.2l0-0.2h1.6v-1.9l1.7,0.2
					c0,0.1-0.1,0.2-0.3,0.2V16l0.5-0.9l1,0.9v-1.6l1.4,0.6h1.1l0.5-0.7l1.4,1c-0.1,0.1-0.2,0.2-0.4,0.2v4.4c0,0-0.4,0.4-1.4,0.4
					v-0.7h-1.3v0.3c0,0-0.2,0.5-1.3,0.5v-2.2c-0.1,0.3-0.4,0.6-0.7,0.6c-0.2,0-0.4-0.1-0.5-0.3c0-0.4-0.1-0.9-0.3-1.3v2.9
					c0,0-0.3,0.4-1.3,0.4V18.3z M147.3,21.1c0.1,0.4,0.2,0.7,0.2,1c0,0.9-0.5,1.4-1.1,1.4c-0.4,0-0.8-0.3-0.8-0.7
					c0-0.4,0.3-0.6,0.6-0.8c0.4-0.1,0.9-0.4,1-0.9H147.3z M152,21.6l0,1.1c0.4,0.2,0.5,0.2,0.5,0.4c0,0.5-0.3,0.8-1.6,0.8h-1.5
					c-1.2,0-1.5-0.2-1.5-1.3v-1.5l1.6,0.1c-0.2-0.2-0.4-0.5-0.6-0.6l0-0.1c0.2,0,0.4,0,0.5,0c1.2,0,1.6,0.5,1.6,1
					c0,0.4-0.3,0.8-0.7,0.8c-0.1,0-0.3-0.1-0.4-0.2c-0.1-0.3-0.2-0.5-0.4-0.8c0,0.1-0.1,0.1-0.3,0.2v1.2c0,0.2,0,0.2,0.3,0.2h1.4
					c0.3,0,0.4,0,0.5-0.1C151.6,22.4,151.8,22.1,152,21.6L152,21.6z M150.1,16.1c-0.1,0.1-0.2,0.1-0.4,0.1h-1.1V17
					c1.1,0.2,1.5,0.6,1.5,0.9V16.1z M152.6,15.1h-1.3v1.3h1.3V15.1z M151.4,17.8h1.3v-1.3h-1.3V17.8z M151.4,19.3h1.3V18h-1.3V19.3z
					 M152.1,20.9c1.9,0.2,2.5,1,2.5,1.6c0,0.5-0.3,0.9-0.8,0.9c-0.2,0-0.4-0.1-0.5-0.2C153.2,22.4,152.7,21.5,152.1,20.9L152.1,20.9
					z"/>
			</g>
		</g>
	</g>
	<g>
		<g>
			<g>
				<path class="st3" d="M54.7,80.1v0.8h-0.5v7.6h-0.9v-1.8c-0.9,0.2-1.9,0.5-3,0.7l-0.2-0.9c0.2,0,0.4,0,0.6-0.1v-5.5h-0.5v-0.8
					H54.7z M53.3,82.1v-1.2h-1.7v1.2H53.3z M53.3,84.1v-1.2h-1.7v1.2H53.3z M53.3,85.9v-1.1h-1.7v1.5C52.1,86.2,52.7,86.1,53.3,85.9
					z M58.3,80.1v0.7c-0.3,0.9-0.7,1.8-1.1,2.6c0.5,0.7,0.7,1.2,0.9,1.6c0.2,0.4,0.2,0.8,0.2,1.2c0,0.5-0.1,0.9-0.4,1.2
					c-0.2,0.3-0.8,0.4-1.8,0.4l-0.3-0.9c0.3,0.1,0.5,0.1,0.8,0.1c0.3,0,0.5-0.1,0.6-0.2c0.1-0.1,0.1-0.2,0.1-0.5
					c0-0.2,0-0.5-0.2-0.9c-0.1-0.4-0.4-1-0.9-1.8c0.4-0.9,0.7-1.7,1-2.4h-1.5v7.6H55v-8.4H58.3z"/>
				<path class="st3" d="M62.7,79.8c-0.1,0.1-0.2,0.2-0.3,0.3h3.4v0.5c-0.2,0.2-0.3,0.4-0.5,0.6h1.6v2.9h-6.9v-2
					c-0.2,0.1-0.3,0.2-0.5,0.3l-0.5-0.7c1.2-0.6,2.2-1.3,2.8-2.1L62.7,79.8z M61.1,84.6c-0.2,0.3-0.4,0.6-0.6,0.8h6.2
					c-0.2-0.2-0.5-0.5-0.8-0.8l0.6-0.4c0.5,0.4,0.9,0.7,1.2,1l-0.7,0.5c-0.1-0.1-0.1-0.1-0.2-0.2v3.1h-0.8v-0.3h-4.8v0.3h-0.8v-3
					c-0.1,0.1-0.2,0.2-0.3,0.3l-0.7-0.5c0.4-0.3,0.8-0.7,1.1-1.1L61.1,84.6z M63.2,82.4v-0.5H61v0.5H63.2z M63.2,83H61v0.6h2.2V83z
					 M65.9,86.5V86h-4.8v0.5H65.9z M65.9,87.6v-0.5h-4.8v0.5H65.9z M64.5,81.3c0.2-0.1,0.3-0.3,0.5-0.5h-3.2
					c-0.2,0.2-0.4,0.3-0.5,0.5H64.5z M62.9,85.2l-1,0.1c0-0.3,0-0.6-0.1-0.9l0.8-0.1C62.8,84.5,62.8,84.9,62.9,85.2z M64.9,85.2
					L64,85.3c0-0.4-0.1-0.7-0.2-0.9l0.8-0.1C64.8,84.5,64.9,84.8,64.9,85.2z M63.9,82.4h2.3v-0.5h-2.3V82.4z M66.3,83h-2.3v0.6h2.3
					V83z"/>
				<path class="st3" d="M76.2,88.4h-0.9v-0.7h-5.8v0.7h-0.9v-8.1h7.5V88.4z M75.4,86.9v-1.6H74c-0.3,0-0.6-0.1-0.7-0.2
					C73.1,85,73,84.7,73,84.5v-3.3h-1.3v1.2c0,0.8-0.1,1.5-0.3,2c-0.2,0.5-0.5,1-1,1.6l-0.7-0.7c0.4-0.4,0.7-0.8,0.9-1.2
					c0.1-0.4,0.2-0.9,0.2-1.7v-1.2h-1.3v5.7H75.4z M73.9,84.2c0,0.2,0.1,0.3,0.3,0.3h1.2v-3.3h-1.5V84.2z"/>
				<path class="st3" d="M82,79.8c0.5,0.7,1.1,1.2,1.7,1.6c0.4,0.3,1.1,0.7,2.1,1.1l-0.6,0.9c-0.4-0.2-0.8-0.3-1.2-0.6v0.6h-4.9
					v-0.6c-0.4,0.2-0.8,0.5-1.3,0.8l-0.5-0.9c1-0.4,1.8-0.9,2.4-1.3c0.4-0.4,0.9-0.9,1.4-1.5h0.4H82z M84.7,88.6h-0.9v-0.5h-4.3v0.5
					h-0.9v-4.1h6.1V88.6z M83.8,87.2v-1.9h-4.3v1.9H83.8z M83.7,82.6c-0.7-0.5-1.4-1.1-2.1-2c-0.5,0.6-1.1,1.2-1.6,1.6
					c-0.2,0.1-0.3,0.2-0.5,0.4H83.7z"/>
				<path class="st3" d="M94.7,83.4v0.9h-7.9v-0.9H94.7z"/>
				<path class="st3" d="M103.5,80v0.7h-3.2v0.4h3.7v2.1h-0.9v-1.4h-2.8v1.9h-0.8v-1.9h-2.8v1.5h-0.9v-2.2h3.6v-0.4h-3.2V80H103.5z
					 M103.4,84v2.9l0.7,0.2c-0.1,0.7-0.3,1.1-0.5,1.2c-0.2,0.1-0.5,0.2-1.1,0.2h-2.4c-0.3,0-0.5-0.1-0.6-0.2
					c-0.1-0.1-0.2-0.3-0.2-0.5v-0.6h-3V84H103.4z M99.1,82.2v0.6H97v-0.6H99.1z M99.1,83.1v0.6H97v-0.6H99.1z M99.4,85.3v-0.6h-2.2
					v0.6H99.4z M99.4,85.9h-2.2v0.6h2.2V85.9z M100.2,85.3h2.4v-0.6h-2.4V85.3z M102.6,85.9h-2.4v0.6h2.4V85.9z M100.2,87.6
					c0,0.2,0.1,0.3,0.3,0.3h2c0.3,0,0.4,0,0.6-0.1c0.1-0.1,0.2-0.2,0.3-0.6h-3.1V87.6z M102.8,82.2v0.6h-2.2v-0.6H102.8z
					 M102.8,83.1v0.6h-2.2v-0.6H102.8z"/>
				<path class="st3" d="M112.2,80.2V81c-0.5,0.6-1.4,1.3-2.6,2.1v0.7h3.5v0.9h-3.5v3c0,0.3-0.1,0.5-0.2,0.6
					c-0.2,0.2-0.4,0.3-0.6,0.3h-1.7l-0.1-1c0.6,0.1,1,0.1,1.4,0.1c0.2,0,0.2-0.1,0.2-0.3v-2.7h-3.7v-0.9h3.7v-1.2
					c0.9-0.5,1.7-1,2.4-1.5h-5.2v-0.9H112.2z"/>
				<path class="st3" d="M116.2,79.8c0.6,0.5,1.1,1.1,1.5,1.6l-0.6,0.6c-0.5-0.6-0.8-1.1-1.1-1.4c-0.3,0.5-0.6,1-1,1.5h2.3v0.7h-1
					v0.8h1.2v0.7h-1.2v2.7c0.4-0.1,0.8-0.2,1.2-0.4v0.8c-1,0.3-2.1,0.6-3.3,0.8l-0.1-0.9c0.5,0,0.9-0.1,1.4-0.2v-2.9h-1.4v-0.7h1.4
					v-0.8h-0.9v-0.2c-0.1,0.1-0.2,0.3-0.3,0.4l-0.3-0.9c0.6-0.6,1.1-1.4,1.6-2.3h0.4H116.2z M115.1,86.8l-0.7,0.2
					c-0.1-0.6-0.1-1.3-0.2-1.9l0.6-0.2C114.9,85.5,115,86.1,115.1,86.8z M117.4,85c-0.1,0.7-0.2,1.2-0.3,1.7l-0.7-0.2
					c0.2-0.5,0.3-1,0.4-1.5L117.4,85z M120.2,79.8v2.4h1.7V87h-1c0.5,0.3,1,0.6,1.5,0.9l-0.4,0.7c-0.5-0.5-1.1-0.9-1.6-1.1l0.3-0.5
					h-1.4l0.4,0.4c-0.5,0.4-1.1,0.8-1.9,1.2l-0.5-0.7c0.6-0.2,1.2-0.6,1.7-0.9h-1.2v-4.8h1.7v-2.4H120.2z M119.1,81.4l-0.7,0.5
					c-0.2-0.4-0.5-0.9-0.9-1.5l0.6-0.4C118.5,80.6,118.9,81.1,119.1,81.4z M121.1,83.5v-0.6h-2.6v0.6H121.1z M121.1,84.8v-0.6h-2.6
					v0.6H121.1z M121.1,85.5h-2.6v0.7h2.6V85.5z M122,80.4c-0.2,0.6-0.5,1.2-0.8,1.6l-0.6-0.5c0.3-0.4,0.6-0.9,0.9-1.4L122,80.4z"/>
			</g>
		</g>
		<g>
			<path class="st3" d="M54.6,47.9c2,0,3.9,0,5.9,0c0.2,0,0.4,0.3,0.5,0.5c1.7,2.8,3.3,5.6,5,8.4c0.2,0.3,0.3,0.5,0.6,0.9
				c0.5-0.9,1-1.7,1.5-2.6c1.3-2.3,2.7-4.5,4-6.8c0.1-0.2,0.4-0.4,0.6-0.4c1.9,0,3.8,0,5.8,0c-0.2,0.4-0.4,0.7-0.6,1
				c-2.8,4.7-5.7,9.4-8.5,14.1c-0.2,0.3-0.2,0.6-0.2,0.9c0,2.7,0,5.4,0,8.1c0,0.3,0,0.5,0,0.8c-1.9,0-3.7,0-5.5,0c0-0.3,0-0.5,0-0.8
				c0-2.3-0.1-4.7,0-7c0.1-1.5-0.4-2.6-1.2-3.8c-2.7-4.4-5.3-8.8-7.9-13.1C54.7,48.2,54.7,48.1,54.6,47.9z"/>
			<path class="st3" d="M78.6,60.4c-1.7,0-3.3,0-4.9,0c-0.1-2.5,1.6-4.7,4.3-5.5c2.8-0.9,5.7-0.8,8.6,0c2.4,0.7,3.6,2.3,3.6,4.8
				c0,2.7,0,5.3,0,8c0,1.7-0.1,3.5,0.6,5.3c-1.1,0-2.1,0-3.1,0c0,0-0.1,0-0.1,0c-0.6,0-1.2,0.2-1.6-0.1c-0.4-0.2-0.4-0.9-0.6-1.5
				c-1.9,1.7-4.2,2.1-6.7,2c-2.5-0.1-4.5-1.4-5.1-3.5c-0.6-2.1-0.5-4.2,1.3-5.8c0.9-0.8,2.1-1.2,3.3-1.4c1.7-0.3,3.3-0.5,5-0.8
				c0.2,0,0.4-0.1,0.6-0.2c1.1-0.3,1.5-0.9,1.5-1.8c0-1.2-0.6-2-1.7-2.2c-0.7-0.1-1.4-0.2-2.1-0.1C79.7,57.9,78.8,58.8,78.6,60.4z
				 M85,64.3c-0.6,0.2-1,0.3-1.5,0.5c-0.5,0.1-1,0.1-1.5,0.2c-0.8,0.2-1.6,0.3-2.3,0.5c-1.1,0.3-1.6,1.1-1.7,2.1
				c0,1.1,0.3,1.8,1.3,2.2C79.9,70,80.4,70,81,70c2.1,0.1,3.6-1,3.9-2.8C85,66.3,85,65.3,85,64.3z"/>
			<path class="st3" d="M116.5,65.1c-4.4,0-8.7,0-13,0c-0.2,2.2,1.1,4.3,3.5,4.5c1.9,0.1,3.5-0.3,4.6-2c0.1-0.1,0.3-0.2,0.4-0.2
				c1.3,0,2.6,0,4.1,0c-0.3,0.8-0.6,1.4-0.9,2.1c-1.3,2.3-3.3,3.6-5.9,4c-2.4,0.3-4.7,0.1-6.8-1.2c-2.3-1.4-3.6-3.6-4-6.3
				c-0.5-3.1,0.1-6,2.1-8.4c1.9-2.3,4.5-3.2,7.4-3.1c4.6,0.2,7.5,3.4,8.2,7.7C116.4,63,116.4,64,116.5,65.1z M111.4,61.9
				c-0.3-1.4-0.6-2.6-1.9-3.3c-1.5-0.8-3.1-0.7-4.5,0.3c-1,0.7-1.5,1.7-1.5,3C106.1,61.9,108.7,61.9,111.4,61.9z"/>
			<path class="st3" d="M92.1,47.9c1.5,0,3,0,4.4,0c0.1,0,0.3,0,0.5,0c0,8.3,0,16.6,0,24.9c-1.6,0-3.3,0-4.9,0
				C92.1,64.6,92.1,56.3,92.1,47.9z"/>
			<path class="st3" d="M117.8,51.3c0,1.8-1.5,3.4-3.3,3.4c-1.9,0-3.4-1.5-3.4-3.4c0-1.9,1.5-3.4,3.3-3.4
				C116.3,48,117.8,49.5,117.8,51.3z M111.7,51.3c0,1.6,1.2,2.8,2.7,2.9c1.6,0,2.8-1.3,2.8-2.8c0-1.5-1.3-2.8-2.8-2.8
				C113,48.5,111.7,49.7,111.7,51.3z"/>
			<g>
				<path class="st3" d="M115.7,53l-0.9-1.6h-1.3V53h-0.2v-3.4h1.5c0.4,0,0.6,0.1,0.8,0.2c0.2,0.2,0.3,0.4,0.3,0.7
					c0,0.5-0.3,0.8-0.8,0.9L116,53H115.7z M115.5,50.1c-0.2-0.1-0.4-0.2-0.7-0.2h-1.2v1.4h1.2c0.3,0,0.5-0.1,0.7-0.2
					c0.1-0.1,0.2-0.3,0.2-0.5C115.7,50.3,115.6,50.2,115.5,50.1z"/>
			</g>
		</g>
	</g>
</g>
</svg>
