<?xml version="1.0" encoding="utf-8"?>
<!-- Generator: Adobe Illustrator 27.0.0, SVG Export Plug-In . SVG Version: 6.00 Build 0)  -->
<svg version="1.1" id="圖層_1" xmlns="http://www.w3.org/2000/svg" xmlns:xlink="http://www.w3.org/1999/xlink" x="0px" y="0px"
	 viewBox="0 0 400 29" style="enable-background:new 0 0 400 29;" xml:space="preserve">
<style type="text/css">
	.st0{fill:#40220F;}
</style>
<path class="st0" d="M79.2,2.5c-0.2,0.5-0.6,0.6-1.3,0.6h-1.4v24.8c0,0.2-0.7,0.7-1.7,0.7h-0.3v-7.2c-1.3,0.6-2.9,1.3-5,2.2
	c-0.2,0.4-0.4,0.6-0.7,0.7l-1-2.9l1.7-0.1V3.1H68l-0.2-0.7h7.4l1.3-1.8L79.2,2.5z M74.5,8.3V3.1h-3v5.2H74.5z M74.5,14.6V9h-3v5.6
	H74.5z M71.5,15.2V21c0.9-0.1,2-0.2,3-0.4v-5.3H71.5z M94.9,11.3c-0.2,0.4-0.6,0.6-1.3,0.6h-4.1c0.1,2.3,0.3,4.5,0.7,6.5
	c0.7-1.6,1.2-3.3,1.6-4.9l2.9,1c-0.1,0.4-0.4,0.5-1.1,0.5c-0.6,2-1.5,4.1-2.8,6c0.8,2.7,1.9,4,2,4c0.2,0,1.1-2.3,1.4-4l0.3,0.1
	L94,25.8c0.5,0.9,0.7,1.6,0.7,2c0,0.6-0.6,0.7-0.9,0.7c-2.4,0-4.2-4.8-4.5-5.7C87.4,25.1,85,27,82,28.2l-0.2-0.5c3-1.6,5.3-4,7-6.7
	c-0.7-2.7-1.1-5.7-1.3-9.1H76.9l-0.2-0.7H83c0.3-1.6,0.6-3.9,0.7-5.5l3,0.6c-0.1,0.3-0.4,0.5-1,0.5c-0.5,1.3-1.3,3-2.1,4.4h3.8
	c-0.1-2-0.1-4.1-0.2-6.2c-0.2,0.1-0.5,0.2-1,0.2h-8.7l-0.2-0.7h3.6V0.1l3.3,0.3c-0.1,0.5-0.3,0.7-1.2,0.8v3.3h1.2l1.1-1.7l1.8,1.5
	c0-1.4,0-2.8,0-4.2l3.2,0.4c0,0.4-0.3,0.6-1.1,0.6c0,1.6-0.1,3.2-0.1,4.8c0,1.8,0,3.6,0.1,5.3H91l1.3-1.9L94.9,11.3L94.9,11.3z
	 M83.9,23.6h-3.6v1.9c0,0-0.3,0.7-1.9,0.7V13.8l2,1h3.2l0.8-1.1l2.3,1.7c-0.1,0.2-0.5,0.4-0.9,0.5v8.3c0,0.1-0.6,0.6-1.9,0.6V23.6
	L83.9,23.6z M79.1,5.8c1.6,1.3,2.2,2.5,2.2,3.5c0,1-0.6,1.7-1.2,1.7c-0.3,0-0.7-0.2-0.9-0.6c0.1-0.4,0.1-0.8,0.1-1.3
	C79.2,8,79,6.8,78.8,6L79.1,5.8L79.1,5.8z M84,15.5h-3.6v3.3H84V15.5z M80.4,22.9H84v-3.4h-3.6V22.9z M90.2,2.6c3,0.6,4,2,4,3.1
	c0,0.8-0.5,1.4-1.1,1.4c-0.3,0-0.6-0.1-0.8-0.4c-0.1-1.4-1.1-3-2.2-3.8L90.2,2.6z"/>
<path class="st0" d="M99,28.1c11.2-7.8,11-17.9,11-27.2l3.7,0.4c0,0.4-0.3,0.6-1.2,0.7c0.7,9.5,3.5,18.4,12.9,24.2l-0.1,0.4
	c-1.2,0.1-2,0.8-2.4,2.1c-7.2-5.5-9.7-13.6-10.6-21.8h0c-0.5,7.8-2.4,15.9-13.1,21.8L99,28.1z"/>
<path class="st0" d="M154.1,9.4l2.5,1.9c-0.2,0.5-0.6,0.6-1.3,0.6h-14.6v0c-0.2,0-0.4,0.1-0.7,0.1h-3.5v3c3.2,1.4,4.2,3.2,4.2,4.4
	c0,0.9-0.5,1.5-1.1,1.5c-0.3,0-0.6-0.1-0.9-0.5c-0.2-1.5-1.2-3.5-2.2-4.8v12.3c0,0.1-0.3,0.8-2.2,0.8V17.7c-1,2.3-2.3,4.4-3.9,6.3
	l-0.4-0.4c1.8-3.2,3-7.5,3.7-11.6h-3.4l-0.2-0.7h4.2V0.1l3.3,0.3c0,0.4-0.3,0.6-1.1,0.7v10.1h1.1l1.3-1.8l2.3,1.8h5.9v-3h-5
	l-0.2-0.7h5.2V4.6h-5.8L141.1,4h5.9V0.1l3.5,0.3c-0.1,0.5-0.3,0.7-1.3,0.8V4h2.9l1.3-1.9l2.5,2c-0.2,0.5-0.6,0.6-1.3,0.6h-5.4v2.9h2
	l1.2-1.8l2.4,1.9c-0.2,0.4-0.6,0.6-1.3,0.6h-4.4v3h3.5L154.1,9.4L154.1,9.4z M130.5,2.3c2,1.9,2.6,3.7,2.6,5c0,1.2-0.6,1.9-1.2,1.9
	c-0.3,0-0.6-0.2-0.9-0.6c0.1-1.9-0.4-4.5-1-6.2L130.5,2.3L130.5,2.3z M141.7,2.9c-0.1,0.4-0.3,0.6-1,0.6c-0.9,2-2,4.3-3,5.9
	l-0.5-0.2c0.4-1.8,0.9-4.7,1.3-7.2L141.7,2.9L141.7,2.9z M151.7,14.4l1-1.4l2.7,2.1c-0.2,0.2-0.6,0.5-1.2,0.6v9.6
	c0,1.6-0.3,2.8-3,3.1c0-1.8-0.7-2.1-2.3-2.4v-0.4h2.7c0.3,0,0.5-0.1,0.5-0.4v-2.9h-7.6v5.3c0,0-0.2,0.9-2.1,0.9V13.4l2.3,1.1
	L151.7,14.4L151.7,14.4z M152,15.1h-7.6V18h7.6V15.1z M144.3,21.7h7.6v-3h-7.6V21.7z"/>
<path class="st0" d="M169.9,5.1l2.3,2.4c-0.2,0.2-0.6,0.3-1.2,0.3c-0.8,2-2.1,4.2-3.6,6.2v0.2c3.4,0.9,4.4,2.6,4.4,3.8
	c0,0.8-0.5,1.4-1.1,1.4c-0.3,0-0.6-0.1-0.9-0.4c-0.3-1.4-1.4-3.2-2.5-4.3v13.1c0,0.2-0.8,0.8-1.8,0.8h-0.4V16.7
	c-1.3,1.3-2.7,2.5-4.1,3.3l-0.3-0.3c3.2-2.7,6.5-8.1,7.9-12.4h-7.4L161,6.5h4.1V0.2l3.5,0.3c0,0.5-0.3,0.7-1.3,0.8v5.2h1.1
	L169.9,5.1z M184.9,5l2.6,2c-0.2,0.2-0.6,0.5-1,0.6v12.9c0,0.1-0.6,0.7-2.2,0.7v-2h-3.7v8.5c0,0.1-0.3,0.9-2.2,0.9v-9.4h-3.6v1.6
	c0,0.1-0.3,0.9-2.1,0.9V5.2l2.3,1.1h3.4V0.2l3.4,0.3c-0.1,0.4-0.3,0.6-1.2,0.8v5h3.5L184.9,5L184.9,5z M178.2,7h-3.6v5.3h3.6V7z
	 M174.6,18.4h3.6V13h-3.6V18.4z M184.2,7h-3.7v5.3h3.7V7z M180.4,18.4h3.7V13h-3.7V18.4z"/>
<path class="st0" d="M236.9,9.4l2.5,1.9c-0.2,0.5-0.6,0.6-1.3,0.6h-14.6v0c-0.2,0-0.4,0.1-0.7,0.1h-3.5v3c3.2,1.4,4.2,3.2,4.2,4.4
	c0,0.9-0.5,1.5-1.1,1.5c-0.3,0-0.6-0.1-0.9-0.5c-0.2-1.5-1.2-3.5-2.2-4.8v12.3c0,0.1-0.3,0.8-2.2,0.8V17.7c-1,2.3-2.3,4.4-3.9,6.3
	l-0.4-0.4c1.8-3.2,3-7.5,3.7-11.6H213l-0.2-0.7h4.2V0.1l3.3,0.3c0,0.4-0.3,0.6-1.1,0.7v10.1h1.1l1.3-1.8l2.3,1.8h5.9v-3h-5l-0.2-0.7
	h5.1V4.6h-5.8L224,4h5.9V0.1l3.5,0.3c-0.1,0.5-0.3,0.7-1.3,0.8V4h2.9l1.3-1.9l2.5,2c-0.2,0.5-0.6,0.6-1.3,0.6h-5.4v2.9h2l1.2-1.8
	l2.4,1.9c-0.2,0.4-0.6,0.6-1.3,0.6h-4.4v3h3.5L236.9,9.4L236.9,9.4z M213.4,2.3c2,1.9,2.6,3.7,2.6,5c0,1.2-0.6,1.9-1.2,1.9
	c-0.3,0-0.6-0.2-0.8-0.6c0.1-1.9-0.4-4.5-1-6.2L213.4,2.3L213.4,2.3z M224.5,2.9c-0.1,0.4-0.3,0.6-1,0.6c-0.9,2-2,4.3-3,5.9L220,9.2
	c0.4-1.8,0.9-4.7,1.3-7.2L224.5,2.9L224.5,2.9z M234.5,14.4l1-1.4l2.7,2.1c-0.2,0.2-0.6,0.5-1.2,0.6v9.6c0,1.6-0.3,2.8-3,3.1
	c0-1.8-0.7-2.1-2.3-2.4v-0.4h2.7c0.3,0,0.5-0.1,0.5-0.4v-2.9h-7.7v5.3c0,0-0.2,0.9-2.1,0.9V13.4l2.3,1.1L234.5,14.4L234.5,14.4z
	 M234.8,15.1h-7.7V18h7.7V15.1z M227.1,21.7h7.7v-3h-7.7V21.7z"/>
<path class="st0" d="M267.4,22.8l3.1,2.4c-0.2,0.4-0.6,0.6-1.4,0.6h-25l-0.2-0.7h11.9V5.3H246l-0.2-0.7h18.1l1.6-2.3l3,2.3
	c-0.2,0.5-0.6,0.6-1.4,0.6h-8.9v19.8h7.5L267.4,22.8L267.4,22.8z"/>
<path class="st0" d="M299.4,18.3l2.5,2.1c-0.2,0.4-0.5,0.6-1.4,0.6h-25.6l-0.2-0.7h3.5v-16l2.5,1.1h3.3V0.1l3.1,0.3
	c0,0.4-0.3,0.5-1,0.6v4.5h3.6V0.1l3.2,0.3c0,0.4-0.3,0.5-1,0.6v4.5h3.4l1.1-1.6l2.8,2.2c-0.2,0.3-0.6,0.5-1.3,0.6v13.7h0.1
	L299.4,18.3L299.4,18.3z M286.1,23.4c-0.1,0.2-0.4,0.4-0.9,0.4c-0.1,0-0.3,0-0.5-0.1c-2.1,1.8-5.8,3.8-9.4,4.8l-0.2-0.4
	c3.1-1.6,6.4-4.3,7.9-6.4L286.1,23.4z M284,6.2h-3.6v6.5h3.6V6.2z M280.5,13.4v6.9h3.6v-6.9H280.5z M289.8,6.2h-3.6v6.5h3.6V6.2z
	 M289.8,20.3v-6.9h-3.6v6.9H289.8z M291.2,22.2c7.5,1.4,9.6,3.7,9.6,5.2c0,0.7-0.5,1.2-1.2,1.2c-0.4,0-0.7-0.1-1.1-0.5
	c-1.3-1.7-3.8-3.8-7.5-5.4L291.2,22.2z M295.7,6.2H292v6.5h3.7V6.2z M292,13.4v6.9h3.7v-6.9H292z"/>
<path class="st0" d="M316.5,23.5l1.2-1.7l2.4,1.8c-0.3,0.5-0.6,0.6-1.3,0.6h-4.9v3.6c0,0.1-0.3,0.8-2.1,0.8v-4.4H306l-0.2-0.7h5.9
	v-3h-2.5v0.6c0,0.1-0.3,0.8-2,0.8V11.4l2.2,1h2.4V9.7h-5.4l-0.2-0.7h5.6V6.4l0.9,0.1c-0.1-0.9-0.6-2-1.1-2.7h-1.4
	c-1.1,1.7-2.4,3.2-3.8,4.1l-0.4-0.3c1.3-1.6,2.6-4.5,3.4-7.5l3,1.2c-0.1,0.3-0.4,0.5-1,0.5c-0.2,0.5-0.5,1-0.7,1.4h4.9l1.2-1.7
	l2.4,1.8c-0.2,0.4-0.6,0.6-1.3,0.6h-5c1.4,0.7,1.9,1.6,1.9,2.3c0,0.2-0.1,0.5-0.1,0.6l0.4,0c-0.1,0.4-0.3,0.6-1.1,0.7v1.7h2.4
	l1.2-1.6l2.3,1.7c-0.2,0.4-0.6,0.6-1.3,0.6h-4.7v2.7h2.4l0.9-1.2l2.6,1.9c-0.2,0.2-0.6,0.5-1.1,0.6V21c0,0.1-0.7,0.7-2.1,0.7v-1.1
	h-2.6v3L316.5,23.5L316.5,23.5z M311.8,13.1h-2.5v3.1h2.5V13.1z M309.3,19.8h2.5v-3h-2.5V19.8z M316.5,13.1h-2.7v3.1h2.7V13.1z
	 M313.9,19.8h2.7v-3h-2.7V19.8z M324.8,3.8c1.5,0.6,2,1.5,2,2.3s-0.5,1.3-1.2,1.3c-0.3,0-0.6-0.1-0.9-0.5c-0.1-1-0.8-2.3-1.5-3.1
	h-1.9c-1.3,1.6-2.8,2.8-4.3,3.7L316.6,7c1.4-1.5,3-4.1,4.1-7l3,1.5c-0.1,0.3-0.4,0.5-1.1,0.4c-0.3,0.4-0.5,0.8-0.8,1.1h6.5l1.4-1.9
	l2.6,2c-0.2,0.4-0.6,0.6-1.4,0.6L324.8,3.8L324.8,3.8z M331.3,22.1l0,3.4c1,0.4,1.1,0.5,1.1,0.9c0,1-0.9,1.5-3.4,1.5h-5
	c-2.5,0-3-0.6-3-3.3V7.5l2.5,1.1h4.8l1-1.4l2.7,2.1c-0.2,0.2-0.6,0.5-1.2,0.6v7.6c0,1.6-0.3,2.8-3.1,3.1c0-1.7-0.6-2.2-2.5-2.3v-0.4
	h2.9c0.4,0,0.5-0.1,0.5-0.4V9.3h-5.4v15.3c0,1.1,0.1,1.2,1,1.2h4.7c0.4,0,0.8,0,1.1-0.4c0.3-0.4,0.7-1.4,1.1-3.2L331.3,22.1
	L331.3,22.1z"/>
</svg>
