<?xml version="1.0" encoding="utf-8"?>
<!-- Generator: Adobe Illustrator 27.0.0, SVG Export Plug-In . SVG Version: 6.00 Build 0)  -->
<svg version="1.1" id="圖層_1" xmlns="http://www.w3.org/2000/svg" xmlns:xlink="http://www.w3.org/1999/xlink" x="0px" y="0px"
	 viewBox="0 0 400 154" style="enable-background:new 0 0 400 154;" xml:space="preserve">
<style type="text/css">
	.st0{fill:#40220F;}
	.st1{fill:none;stroke:#D8B167;stroke-width:0.25;stroke-miterlimit:10;}
</style>
<path class="st0" d="M126.7,29.1v1.1h-9.9v-1.1H126.7z"/>
<path class="st0" d="M130.9,25.7v-1.1h1.1v1.1h2.7v-1.1h1v1.1h2.1v1h-2.1v1.1h2.5v1h-2.5c0.4,0.4,0.7,0.7,1.1,0.9
	c0.5,0.3,1,0.6,1.7,0.9l-0.6,1.1c-0.6-0.3-1.1-0.6-1.6-0.9v2.1H131V34c0,0.2,0.1,0.4,0.4,0.4h4.7c0.4,0,0.6,0,0.8-0.1
	c0.2-0.1,0.3-0.6,0.4-1.4l1,0.3c-0.1,1.1-0.3,1.8-0.6,2c-0.2,0.2-0.7,0.3-1.4,0.3H131c-0.3,0-0.6-0.1-0.7-0.3
	c-0.2-0.2-0.3-0.5-0.3-0.8v-3.5c-0.4,0.3-0.9,0.6-1.5,0.9l-0.6-1c1-0.4,1.7-0.8,2.2-1.2c0.2-0.2,0.4-0.4,0.6-0.6h-2.5v-1h2.7v-1.1
	h-2.1v-1L130.9,25.7L130.9,25.7z M131,31.9h4.3v-1H131V31.9z M135.3,29.9c-0.2-0.2-0.5-0.5-0.7-0.7l0.2-0.3h-3.1
	c-0.2,0.4-0.5,0.7-0.7,1H135.3L135.3,29.9z M134.6,27.8v-1.1h-2.7v1.1H134.6z"/>
<path class="st0" d="M140.6,25.4v-0.8h0.9v0.8h0.8v0.8h-0.8V27h0.6v2.2h-1.3l0.6,0.2c-0.1,0.2-0.2,0.4-0.2,0.6h1.2
	c-0.1-0.2-0.1-0.4-0.2-0.6l0.6-0.2h-0.3v-2.3h0.7v-0.7h-0.8v-0.8h0.8v-0.8h0.9v0.8h1.1v0.8h-1.1v0.7h0.8v2.3h-1.9
	c0.1,0.2,0.2,0.5,0.3,0.8h1.6v0.8h-1.7v0.7h1.6v0.7h-1.6v0.7h1.6v0.7h-1.6v0.7h1.7v0.3c0.4-0.3,0.6-0.7,0.8-1.1
	c0.2-0.4,0.3-1,0.3-1.7h-0.7V25h4v6.9h-1.1v2.4c0,0.2,0.1,0.3,0.3,0.3h0.2c0.1,0,0.2,0,0.2-0.1c0-0.1,0.1-0.5,0.1-1.4l0.8,0.3
	c-0.1,1-0.2,1.6-0.3,1.8c-0.1,0.2-0.4,0.3-0.7,0.3h-0.6c-0.3,0-0.5-0.1-0.6-0.2c-0.2-0.2-0.2-0.4-0.2-0.6V32h-0.5
	c0,0.9-0.2,1.6-0.4,2.1c-0.2,0.5-0.6,1.1-1.2,1.6l-0.4-0.7v0.2h-3.9v0.5H140v-3.8c-0.2,0.2-0.3,0.4-0.5,0.5l-0.2-1.1
	c0.5-0.5,0.9-1.2,1.2-2h-0.7V27h0.8v-0.7h-1.2v-0.8L140.6,25.4L140.6,25.4z M141.3,27.7h-0.7v0.9h0.7V27.7z M142.2,30.8h-1.3v0.7
	h1.3V30.8z M142.2,32.2h-1.3v0.7h1.3V32.2z M142.2,34.3v-0.7h-1.3v0.7H142.2z M144,27.6h-0.8v0.9h0.8V27.6z M148.4,27.1v-1.1h-2.2
	v1.1H148.4z M148.4,29v-1.1h-2.2V29H148.4z M148.4,29.9h-2.2V31h2.2V29.9z"/>
<path class="st0" d="M156.6,25.7c-0.6,0.2-1.1,0.3-1.7,0.4c0,0.9,0,1.6,0,2.3h1.7v1H155c0.1,1.6,0.2,2.6,0.4,3.1
	c0.2,0.6,0.4,0.9,0.6,0.9c0.1,0,0.2-0.5,0.4-1.6l0.8,0.7c-0.2,1.1-0.4,1.7-0.6,1.9c-0.1,0.2-0.3,0.3-0.6,0.3c-0.3,0-0.6-0.1-0.8-0.4
	c-0.4-0.4-0.6-0.9-0.8-1.5c-0.2-0.7-0.3-1.8-0.4-3.4h-1.7v2.7c0.5-0.2,1-0.3,1.5-0.5v1.1c-0.8,0.4-1.8,0.7-2.9,1l-0.3-1.1
	c0.2,0,0.4-0.1,0.6-0.2v-7c1.8,0,3.4-0.3,4.8-0.7L156.6,25.7L156.6,25.7z M154.4,34v1.1h-3.3V34H154.4z M153.9,26.3
	c-0.5,0.1-1.1,0.2-1.7,0.2v1.9h1.7C154,27.7,153.9,27,153.9,26.3L153.9,26.3z M161.1,25.1V26c-0.4,1.3-0.9,2.4-1.4,3.5
	c0.6,0.8,0.9,1.4,1.1,1.8c0.2,0.5,0.3,0.9,0.3,1.3c0,0.7-0.1,1.2-0.4,1.5c-0.3,0.3-1,0.5-2,0.5l-0.3-1.2c0.3,0.1,0.7,0.1,1,0.1
	c0.2,0,0.4-0.1,0.6-0.2c0.1-0.1,0.1-0.4,0.1-0.7c0-0.3-0.1-0.6-0.2-1c-0.2-0.4-0.5-1.1-1.1-2.1c0.5-1.2,0.9-2.3,1.2-3.3h-1.7v9.5h-1
	V25.1L161.1,25.1L161.1,25.1z"/>
<path class="st0" d="M167.7,31.4c-0.2,0.2-0.5,0.5-0.9,0.8l-0.4-0.6c0.5-0.3,0.8-0.6,0.9-1.1h-0.7V29h1.4v1.2
	C168,30.7,167.9,31.1,167.7,31.4z"/>
<path class="st0" d="M177.3,25.1v0.8c-0.3,0.9-0.6,1.9-0.9,2.9c0.3,0.6,0.5,1,0.6,1.5c0.2,0.5,0.2,0.8,0.2,1.2
	c0,0.6-0.1,1.1-0.4,1.3c-0.2,0.3-0.7,0.5-1.5,0.5l-0.3-1.1c0.2,0,0.4,0,0.5,0c0.2,0,0.3,0,0.4-0.2c0.1-0.1,0.2-0.3,0.2-0.6
	c0-0.4-0.1-0.7-0.2-1c-0.1-0.4-0.3-0.9-0.7-1.5c0.4-1.1,0.7-2.1,0.9-2.8h-1.3v9.5h-1.1V25.1H177.3L177.3,25.1z M178.1,33.4
	c-0.3,0.8-0.6,1.4-1,1.9l-0.7-0.7c0.3-0.4,0.6-1,0.9-1.7L178.1,33.4z M179.1,27h1c-0.1-0.3-0.2-0.6-0.2-0.8l0.8-0.1
	c0.1,0.3,0.1,0.6,0.2,0.9h0.7c0.2-0.4,0.3-0.8,0.4-1.2l0.8,0.3c-0.1,0.4-0.3,0.7-0.4,0.9h0.6v0.7h-2.2v0.5h2.8v0.8h-6.4v-0.8h2.7
	v-0.5h-2.1v-0.7h0.6c-0.1-0.2-0.1-0.4-0.2-0.7l0.8-0.3C178.9,26.4,179,26.7,179.1,27L179.1,27z M183.1,29.5v1.2h0.8v0.7h-0.8v1.3
	h-2.7c0.4,0.3,0.7,0.5,1,0.8l-0.6,0.7c-0.2-0.3-0.6-0.6-1-0.9l0.6-0.5h-2.6v-0.7h4.5v-0.5h-4.8v-0.7h4.8v-0.5h-4.4v-0.7H183.1z
	 M183.4,25.5c-1.4,0.3-3.4,0.5-5.7,0.5l-0.3-0.9c2.2,0,4.1-0.1,5.6-0.4L183.4,25.5z M179.4,33v1.3c0,0.2,0.1,0.3,0.4,0.3h0.9
	c0.2,0,0.3,0,0.4-0.1c0.1-0.1,0.2-0.3,0.2-0.8l0.9,0.3c-0.1,0.7-0.2,1.1-0.4,1.3c-0.2,0.1-0.5,0.2-0.9,0.2h-1.4
	c-0.3,0-0.5-0.1-0.7-0.2c-0.2-0.2-0.3-0.4-0.3-0.6V33H179.4z M183.9,34.6l-0.8,0.6c-0.2-0.6-0.6-1.2-1-1.9l0.7-0.5
	C183.3,33.5,183.6,34.1,183.9,34.6L183.9,34.6z"/>
<path class="st0" d="M190.8,25.3h4.3v2.5H194v-1.6h-7.7v1.6h-1.1v-2.5h4.2c-0.2-0.2-0.3-0.4-0.5-0.6l1.3-0.2
	C190.4,24.8,190.6,25.1,190.8,25.3z M194.8,35.6h-1.1v-0.4h-7.1v0.4h-1.1v-4.3h9.3L194.8,35.6L194.8,35.6z M194,28.4v2.2h-7.7v-2.2
	H194z M189.6,32.8v-0.7h-3v0.7H189.6z M189.6,34.3v-0.7h-3v0.7H189.6z M193.6,26.9v0.9h-6.9v-0.9H193.6z M192.9,29.2h-5.6v0.7h5.6
	V29.2z M190.6,32.8h3.1v-0.7h-3.1V32.8z M193.7,34.3v-0.7h-3.1v0.7H193.7z"/>
<path class="st0" d="M205.9,31h0.8v0.9h-10.4V31h0.8v-1.6h8.8V31z M206.5,32.5v1h-4.2v1.1c0,0.4-0.1,0.6-0.3,0.7
	c-0.2,0.2-0.5,0.2-0.9,0.2h-1.6l-0.2-1c0.6,0.1,1.1,0.1,1.5,0.1c0.3,0,0.4-0.1,0.4-0.2v-0.9h-4.7v-1L206.5,32.5L206.5,32.5z
	 M202.2,25.3h4.3v2.2h-0.9c0.2,0.3,0.5,0.5,0.7,0.8l-0.7,0.8c-0.4-0.6-0.9-1.2-1.6-1.9l0.7-0.6c0.3,0.3,0.6,0.6,0.8,0.8v-1.2h-7.7
	v1.4h-1.1v-2.2h4.4c-0.1-0.2-0.3-0.4-0.4-0.6l1.2-0.2C201.9,24.9,202,25.1,202.2,25.3L202.2,25.3z M199.2,27.4
	c-0.4,0.7-0.9,1.3-1.6,1.8l-0.6-0.8c0.6-0.4,1.1-1,1.6-1.6L199.2,27.4z M199.6,31v-0.8h-1.5V31H199.6z M200.3,26.7v1.1
	c0,0.2,0.1,0.3,0.3,0.3h1.7c0.2,0,0.4,0,0.5-0.1c0.1,0,0.2-0.3,0.3-0.7l0.9,0.3c-0.1,0.7-0.3,1.1-0.5,1.2c-0.2,0.1-0.6,0.2-1.1,0.2
	h-2.1c-0.3,0-0.6-0.1-0.7-0.2c-0.2-0.2-0.3-0.4-0.3-0.7v-1.4L200.3,26.7L200.3,26.7z M202.2,31v-0.8h-1.6V31H202.2z M202.9,27.2
	l-0.8,0.6c-0.3-0.3-0.7-0.7-1.2-1l0.7-0.5C202.1,26.7,202.5,27,202.9,27.2z M204.9,31v-0.8h-1.6V31H204.9z"/>
<path class="st0" d="M208.9,27.8v-3.2h1v3.2h1v1h-1V32c0.4-0.2,0.8-0.4,1.2-0.7v1.1c-0.9,0.6-1.9,1.2-3.1,1.8l-0.3-1.3
	c0.4-0.1,0.8-0.3,1.2-0.4v-3.7h-1.2v-1H208.9z M217.5,28.8v3.8h-1.6v1.5c0,0.2,0.1,0.4,0.4,0.4h0.5c0.1,0,0.2,0,0.3-0.1
	c0.1-0.1,0.1-0.5,0.1-1.4l1,0.3c-0.1,1.1-0.2,1.7-0.4,1.9c-0.2,0.2-0.4,0.3-0.9,0.3h-1.1c-0.3,0-0.6-0.1-0.7-0.3
	c-0.2-0.2-0.3-0.4-0.3-0.8v-1.9h-1c-0.1,0.8-0.4,1.4-0.8,1.9c-0.4,0.5-1.2,0.9-2.3,1.2l-0.4-1c0.9-0.2,1.6-0.5,1.9-0.9
	c0.3-0.3,0.5-0.7,0.6-1.2h-1.3v-3.8L217.5,28.8L217.5,28.8z M215.1,25.5h2.7v0.9h-1.1c-0.1,0.3-0.2,0.6-0.3,0.9h1.7v0.9H211v-0.9
	h1.8c-0.1-0.3-0.2-0.6-0.4-0.9h-1v-0.9h2.5c-0.1-0.3-0.3-0.5-0.4-0.8l1.2-0.2C214.8,24.9,214.9,25.2,215.1,25.5L215.1,25.5z
	 M216.5,30.3v-0.6h-4.1v0.6H216.5z M216.5,31.1h-4.1v0.6h4.1V31.1z M215.3,27.3c0.1-0.3,0.2-0.6,0.3-0.9h-2.1
	c0.1,0.3,0.2,0.6,0.3,0.9H215.3z"/>
<path class="st0" d="M224.7,31.4c-0.2,0.2-0.5,0.5-0.9,0.8l-0.4-0.6c0.5-0.3,0.8-0.6,0.9-1.1h-0.7V29h1.4v1.2
	C225,30.7,224.9,31.1,224.7,31.4z"/>
<path class="st0" d="M232,26.9v-2.3h1v2.3h1.2v1H233v0.4c0.5,0.6,1,1.3,1.4,2l-0.6,0.9c-0.3-0.7-0.6-1.2-0.8-1.6v6.1h-1v-5.5
	c-0.3,0.9-0.7,1.8-1.2,2.5l-0.4-1.3c0.6-1,1.2-2.1,1.6-3.4h-1.4v-1H232z M236.9,25.6c0.1-0.3,0.1-0.7,0.1-1l1,0.1
	c-0.1,0.3-0.1,0.6-0.1,0.9h2.8v1h-3c-0.1,0.3-0.1,0.5-0.2,0.7h2.5v6.9h0.9v1h-7.2v-1h1v-6.9h1.8c0.1-0.2,0.1-0.5,0.2-0.7h-2.6v-1
	H236.9z M239.1,29.2v-0.8h-3.3v0.8H239.1z M239.1,30.9V30h-3.3v0.8H239.1z M239.1,32.6v-0.9h-3.3v0.9H239.1z M239.1,34.3v-0.8h-3.3
	v0.8H239.1z"/>
<path class="st0" d="M243.2,26.9v-2.3h1v2.3h1.1v1h-1.1v0.7c0.4,0.5,0.8,1,1.2,1.6v-1.2h3.5v2.9h-3.5v-1.3l-0.4,0.7
	c-0.3-0.5-0.6-1-0.8-1.4v5.8h-1v-5.3c-0.3,0.8-0.6,1.6-1,2.2l-0.4-1.2c0.6-1,1-2.1,1.4-3.4v-0.1H242v-1L243.2,26.9L243.2,26.9z
	 M248.7,32.4c-0.2,0.5-0.3,1-0.6,1.5c0.4-0.1,0.8-0.1,1.2-0.2v1c-1.3,0.3-2.8,0.5-4.5,0.7l-0.1-1c0.8,0,1.6-0.1,2.5-0.2
	c0.2-0.6,0.5-1.2,0.7-2L248.7,32.4L248.7,32.4z M246.7,25.5v-0.9h0.9v0.9h1.6v0.9h-1.6v0.9h1.2v0.9h-3.5v-0.9h1.3v-0.9h-1.6v-0.9
	H246.7L246.7,25.5z M246.8,33.7l-0.9,0.2c-0.1-0.5-0.3-1.1-0.5-1.6l0.8-0.3C246.4,32.6,246.6,33.1,246.8,33.7L246.8,33.7z M248,29.9
	h-1.7v1h1.7V29.9z M250.7,31.8l-1,0.2c-0.2-0.9-0.4-1.9-0.6-2.7L250,29C250.2,29.8,250.5,30.8,250.7,31.8z M250.9,26.7v-2.1h0.9v2.1
	h0.6v1h-0.6v6.7c0,0.4-0.1,0.7-0.2,0.9c-0.1,0.2-0.4,0.3-0.8,0.3h-1l-0.2-1.2c0.4,0.1,0.7,0.1,1,0.1s0.4-0.1,0.4-0.3v-6.5h-1.6v-1
	L250.9,26.7L250.9,26.7z"/>
<path class="st0" d="M257.3,25.8c-0.4,0.1-0.9,0.3-1.4,0.4v1.7h1.3v1h-1.3v0.5c0.5,0.6,1,1.2,1.5,1.8l-0.6,0.9
	c-0.4-0.6-0.7-1.1-0.9-1.5v5h-1v-4.7c-0.4,0.9-0.8,1.8-1.3,2.5l-0.4-1.2c0.7-0.9,1.2-2,1.7-3.3l-1.5,0v-1h1.5v-1.5
	c-0.4,0.1-0.7,0.1-1.1,0.1l-0.2-1c1.2-0.1,2.3-0.4,3.3-0.7L257.3,25.8z M263.4,25.5c-0.7,0.2-1.6,0.3-2.5,0.4v0.7h2.8v0.9h-2.8v0.6
	h2.4v4.1h-2.4v0.7h2.6v0.8h-2.6v0.8h2.8v0.9h-6.9v-0.9h3.1v-0.8h-2.6v-0.8h2.6v-0.7h-2.4v-4.1h2.4v-0.6h-2.8v-0.9h2.8v-0.6
	c-0.7,0.1-1.5,0.1-2.3,0.1l-0.3-0.9c2.2,0,4-0.1,5.6-0.4L263.4,25.5z M260,29.7v-0.8h-1.4v0.8H260z M260,30.5h-1.4v0.8h1.4V30.5z
	 M260.9,29.7h1.4v-0.8h-1.4V29.7z M262.4,30.5h-1.4v0.8h1.4V30.5z"/>
<path class="st0" d="M267.5,25.2v-0.6h1v0.6h1.2V26h-1.2v0.3h-1V26h-2.9v-0.9H267.5z M267.2,26.8v-0.3h0.9v0.3h1.8v0.7h-1.8v0.4h2.1
	v0.7h-1v0.1c0,0.1,0.1,0.2,0.3,0.2h0.7v0.6h-0.8c-0.3,0-0.5,0-0.7-0.1c-0.2-0.1-0.2-0.2-0.2-0.4v-0.3h-1.6c-0.1,0.3-0.2,0.6-0.4,0.8
	c-0.1,0.1-0.2,0.2-0.3,0.3h1V29h1v0.6h1.6v0.7h-1.6v0.4c0.7,0,1.3-0.1,1.8-0.2v0.6c-0.9,0.2-2.5,0.3-4.9,0.4l-0.1-0.8
	c0.8,0,1.5,0,2.1-0.1v-0.5h-1.4v-0.4c-0.2,0.1-0.3,0.2-0.5,0.2l-0.4-0.8c0.4-0.1,0.8-0.2,1-0.4c0.1-0.1,0.2-0.2,0.3-0.4h-1.1v-0.7
	h2.3v-0.4h-1.9v-0.7L267.2,26.8L267.2,26.8z M275,32.9v0.8h-1.8c0.5,0.5,1,1,1.4,1.5l-0.9,0.4c-0.1-0.2-0.2-0.3-0.3-0.4
	c-1.6,0.1-4.3,0.2-8,0.3l-0.1-0.9c0.5,0,1,0,1.4,0c0.3-0.3,0.5-0.6,0.7-0.9h-2.5v-0.8H275L275,32.9z M273.9,31.8v0.8h-7.8v-0.8
	H273.9z M272.2,33.9l0.6-0.2h-4.2c-0.2,0.3-0.4,0.6-0.6,0.9c1.8,0,3.4-0.1,4.8-0.1C272.6,34.3,272.4,34.1,272.2,33.9L272.2,33.9z
	 M271.6,27.4v-0.8h0.8v0.8h1.6V30c0.1,0.4,0.1,0.5,0.2,0.5c0.1,0,0.2-0.4,0.2-1.1l0.6,0.5c-0.1,0.8-0.3,1.3-0.4,1.4
	c-0.1,0.2-0.3,0.2-0.5,0.2c-0.3,0-0.5-0.1-0.6-0.3c-0.2-0.2-0.3-0.7-0.4-1.3v-1.8h-0.8c0,0.5-0.1,1-0.2,1.4c0.3,0.2,0.6,0.5,0.9,0.7
	l-0.4,0.8c-0.2-0.2-0.5-0.5-0.7-0.7c-0.2,0.4-0.6,0.9-1,1.3l-0.7-0.6c0.5-0.4,0.8-0.7,1.1-1.2c-0.3-0.2-0.6-0.4-0.9-0.5l0.4-0.7
	c0.2,0.1,0.5,0.3,0.8,0.4c0.1-0.3,0.1-0.6,0.1-0.9h-1.2v-0.8L271.6,27.4L271.6,27.4z M271.5,25.2v-0.6h1v0.6h2.6V26h-2.6v0.5h-1V26
	h-1.2v-0.9H271.5z"/>
<path class="st0" d="M281.7,31.4c-0.2,0.2-0.5,0.5-0.9,0.8l-0.4-0.6c0.5-0.3,0.8-0.6,0.9-1.1h-0.7V29h1.4v1.2
	C282,30.7,281.9,31.1,281.7,31.4z"/>
<path class="st0" d="M91.4,66.8h-1.1v-0.9h-5.7v0.9h-1.1V56.2h7.9V66.8z M90.3,60.4v-3h-5.7v3H90.3z M90.3,64.8v-3.3h-5.7v3.3H90.3z
	"/>
<path class="st0" d="M99.4,57.9c0-0.6,0-1.3,0-2h1.1c0,0.7,0,1.4,0,2h3.4v0.9h-3.4c0.1,2,0.4,3.4,0.9,4.4c0.7,1.5,1.1,2.2,1.4,2.2
	c0.2,0,0.4-0.8,0.6-2.3l0.9,0.7c-0.3,1.5-0.6,2.3-0.8,2.6c-0.2,0.2-0.4,0.4-0.6,0.4c-0.5,0-1-0.3-1.5-0.8c-0.6-0.8-1.2-1.9-1.6-3.4
	c-0.2-1-0.4-2.2-0.5-3.7h-5.6v-0.9H99.4L99.4,57.9z M99.2,60.3v0.9h-2v3c0.8-0.2,1.6-0.4,2.4-0.8v1.1C97.9,65.2,96,65.6,94,66
	l-0.1-1.1c0.7-0.1,1.5-0.2,2.3-0.3v-3.3h-1.8v-0.9L99.2,60.3L99.2,60.3z M103.2,57.1l-0.9,0.7c-0.3-0.4-0.7-0.8-1.2-1.4l0.8-0.5
	C102.4,56.3,102.9,56.7,103.2,57.1z"/>
<path class="st0" d="M115.2,66.7h-1v-0.4h-7.8v0.4h-1V56.1h9.8V66.7z M114.2,65.3v-8.3h-7.8v8.3H114.2z M113.4,60.4v2.2h-3.1
	c-0.1,0.1-0.1,0.1-0.2,0.2v2.3h-0.9v-1.5c-0.6,0.4-1.3,0.8-2,1.1l-0.5-0.8c0.8-0.2,1.4-0.5,1.8-0.8c0.2-0.2,0.5-0.3,0.6-0.5h-1.6
	v-2.2H113.4z M109.7,57.8v-0.5h0.9v0.5h2.7v0.7h-2.7v0.6h3.2v0.8h-7.2v-0.8h3v-0.6h-2.5v-0.7H109.7L109.7,57.8z M112.5,61.2h-4.1
	v0.6h4.1V61.2z M111.9,63.4c0.2-0.2,0.4-0.5,0.5-0.7l0.8,0.5c-0.1,0.2-0.3,0.4-0.5,0.6c0.4,0.2,0.8,0.4,1.1,0.6l-0.5,0.8
	c-1-0.7-2-1.2-3.1-1.6l0.4-0.7C111.1,63.1,111.5,63.2,111.9,63.4L111.9,63.4z"/>
<path class="st0" d="M118.3,58.1v-2.3h1.1v2.3h1.6v1h-1.6v0.4c0.7,0.7,1.3,1.4,2,2.2l-0.6,1c-0.6-0.8-1-1.5-1.4-1.9v6.1h-1.1v-6
	c0,0.2-0.1,0.3-0.1,0.4c-0.3,1.1-0.8,2-1.2,2.8l-0.4-1.3c0.6-1,1.2-2.2,1.6-3.6h-1.5v-1H118.3z M123.3,58.1v-2.3h1.1v2.3h2.4v1h-1.9
	c0.2,0.8,0.5,1.6,0.8,2.3c0.3,0.7,0.9,1.6,1.5,2.4l-0.8,1c-0.6-1-1.1-2-1.5-3c-0.2-0.5-0.3-1-0.5-1.5v6.4h-1.1v-6.1
	c-0.6,1.7-1.3,3.1-2.1,4.3l-0.7-1.1c1-1.3,1.8-2.9,2.4-4.8h-1.6v-1H123.3L123.3,58.1z"/>
<path class="st0" d="M133.5,62.6c-0.2,0.2-0.5,0.5-0.9,0.8l-0.4-0.6c0.5-0.3,0.8-0.6,0.9-1.1h-0.7v-1.5h1.4v1.2
	C133.8,61.9,133.7,62.3,133.5,62.6z"/>
<path class="st0" d="M148.6,58.8v4.5h-3.6v0.9h4.7v1h-4.7v1.6H144v-1.6h-4.8v-1h4.8v-0.9h-3.6v-4.5H148.6z M141.8,56.8v-1h1.1v1h1.3
	v1h-1.3v0.7h-1.1v-0.7h-2.5v-1H141.8z M147.6,60.6v-0.8h-6.1v0.8H147.6z M147.6,61.5h-6.1v0.9h6.1V61.5z M146,56.8v-1h1.1v1h2.5v1
	h-2.5v0.7H146v-0.7h-1.3v-1H146z"/>
<path class="st0" d="M152,58.9v-3h1.1v3h1.2v1.1h-1.2v3.6c0.4-0.2,0.8-0.4,1.2-0.6v1.2c-1,0.5-2.1,1-3.3,1.3l-0.1-1.3
	c0.4,0,0.8-0.1,1.2-0.3v-4h-1.2v-1.1H152z M160.9,61.8c0,0.5-0.1,0.9-0.3,1.2c-0.2,0.3-0.7,0.4-1.5,0.4l-0.4-1.1h0.7
	c0.2,0,0.4,0,0.4-0.2c0-0.1,0.1-0.3,0.1-0.7v-2.2l-1.4,0.6v4.5h-1v-4.1l-1.2,0.5V65c0,0.3,0.1,0.4,0.4,0.4h3c0.2,0,0.4,0,0.5-0.1
	c0.1-0.1,0.2-0.6,0.2-1.4l1,0.3c-0.1,1.1-0.3,1.8-0.5,2c-0.2,0.2-0.6,0.3-1.1,0.3h-3.5c-0.3,0-0.6-0.1-0.8-0.3
	c-0.2-0.2-0.3-0.5-0.3-0.8v-4.2l-0.9,0.4v-1.1l0.9-0.4v-3h1.1v2.5l1.2-0.5v-3.2h1v2.8l2.5-1C160.9,60.4,160.9,61.8,160.9,61.8
	L160.9,61.8z"/>
<path class="st0" d="M168.1,63c-0.2-0.4-0.6-0.8-1-1.4c-0.3-0.3-0.7-0.7-1.3-1.2l0.7-0.6c0.4,0.3,0.8,0.7,1.3,1.2
	c0.3,0.3,0.7,0.8,1.1,1.4L168.1,63L168.1,63z"/>
<path class="st0" d="M176.3,56.4v-0.6h1v0.6h1.2v0.9h-1.2v0.3h-1v-0.3h-2.9v-0.9H176.3z M176,58v-0.3h0.9V58h1.8v0.7h-1.8v0.4h2.1
	v0.7h-1v0.1c0,0.1,0.1,0.2,0.3,0.2h0.7v0.6h-0.8c-0.3,0-0.5,0-0.7-0.1c-0.2-0.1-0.2-0.2-0.2-0.4v-0.3h-1.6c-0.1,0.3-0.2,0.6-0.4,0.8
	c-0.1,0.1-0.2,0.2-0.3,0.3h1v-0.7h1v0.7h1.6v0.7h-1.6v0.4c0.7,0,1.3-0.1,1.8-0.2v0.7c-0.9,0.2-2.6,0.3-4.9,0.4l-0.1-0.8
	c0.8,0,1.5,0,2.1-0.1v-0.5h-1.4v-0.4c-0.2,0.1-0.4,0.2-0.5,0.2l-0.4-0.8c0.4-0.1,0.8-0.2,1-0.4c0.1-0.1,0.2-0.2,0.3-0.4h-1.1v-0.7
	h2.3v-0.4h-1.9V58L176,58L176,58z M183.9,64.1v0.8h-1.8c0.5,0.5,1,1,1.4,1.5l-0.9,0.4c-0.1-0.2-0.2-0.3-0.3-0.4
	c-1.6,0.1-4.3,0.2-8,0.3l-0.1-0.9c0.5,0,0.9,0,1.4,0c0.3-0.3,0.5-0.6,0.7-0.9h-2.5v-0.8H183.9L183.9,64.1z M182.7,63v0.8h-7.8V63
	H182.7z M181.1,65.1l0.6-0.2h-4.2c-0.2,0.3-0.4,0.6-0.6,0.9c1.8,0,3.4-0.1,4.8-0.1C181.4,65.5,181.2,65.3,181.1,65.1L181.1,65.1z
	 M180.4,58.6v-0.8h0.8v0.8h1.6v2.6c0.1,0.4,0.1,0.5,0.2,0.5c0.1,0,0.2-0.4,0.2-1.1l0.6,0.5c-0.1,0.8-0.3,1.3-0.4,1.4
	c-0.2,0.2-0.3,0.2-0.5,0.2c-0.3,0-0.5-0.1-0.6-0.3c-0.2-0.2-0.3-0.7-0.3-1.3v-1.8h-0.8c0,0.6-0.1,1-0.2,1.4c0.3,0.2,0.6,0.5,0.9,0.7
	l-0.4,0.8c-0.2-0.2-0.5-0.5-0.7-0.7c-0.2,0.4-0.6,0.9-1.1,1.3l-0.7-0.7c0.5-0.4,0.8-0.7,1.1-1.2c-0.3-0.2-0.6-0.4-0.9-0.5l0.4-0.7
	c0.2,0.1,0.5,0.3,0.8,0.4c0.1-0.3,0.1-0.6,0.1-0.9h-1.2v-0.8L180.4,58.6L180.4,58.6z M180.3,56.4v-0.6h1v0.6h2.6v0.9h-2.6v0.5h-1
	v-0.5h-1.2v-0.9H180.3z"/>
<path class="st0" d="M187.8,56.5c-0.6,0.8-1.4,1.6-2.3,2.2l-0.7-1c0.8-0.5,1.6-1.2,2.2-2L187.8,56.5L187.8,56.5z M187.7,59.2
	c-0.2,0.6-0.5,1.1-0.8,1.6v6.1h-1V62c-0.2,0.3-0.5,0.5-0.8,0.8l-0.4-1.3c0.4-0.4,0.7-0.8,1.1-1.2c0.3-0.4,0.6-0.9,0.9-1.6
	L187.7,59.2L187.7,59.2z M188.8,60.1c0,1.9-0.2,3.8-0.5,5.5l-0.9-0.2c0.3-1.8,0.5-3.6,0.5-5.3L188.8,60.1z M189.2,58v-2.2h1V58h1.7
	v1h-1.7v7.8h-1V59h-1.5v-1H189.2z M191.9,57.4l-0.9,0.4c-0.2-0.5-0.4-1-0.6-1.5l0.9-0.3C191.5,56.5,191.7,56.9,191.9,57.4z
	 M191.6,60.1v3.5c0,0.2,0.1,0.3,0.4,0.3h0.4v0.9h-0.7c-0.3,0-0.6-0.1-0.8-0.2c-0.2-0.1-0.3-0.4-0.3-0.7V60L191.6,60.1L191.6,60.1z
	 M195.3,59.8v1.1h-1v4.7c0,0.4-0.1,0.7-0.3,0.9c-0.2,0.2-0.5,0.3-0.9,0.3h-1l-0.2-1.2c0.4,0.1,0.7,0.1,0.9,0.1s0.4-0.1,0.4-0.3v-4.5
	h-1.2v-1.1H195.3L195.3,59.8z M195.1,56.5v1.1h-2.9v-1.1H195.1z"/>
<path class="st0" d="M202.3,63c-0.2-0.4-0.6-0.8-1-1.4c-0.3-0.3-0.7-0.7-1.3-1.2l0.7-0.6c0.4,0.3,0.8,0.7,1.3,1.2
	c0.3,0.3,0.7,0.8,1.1,1.4L202.3,63L202.3,63z"/>
<path class="st0" d="M209.8,61.6v-0.9h1v0.9h1.8v1h-1.8v4.2h-1v-3.1c0,0.1-0.1,0.1-0.1,0.2c-0.4,0.7-0.9,1.4-1.5,1.9l-0.4-1
	c0.8-0.7,1.4-1.4,2-2.2h-2v-1H209.8z M210.8,56.8h1.7v1H212l-0.4,1.7h1v1h-4.8v-1h1.1l-0.5-1.7h-0.5v-1h1.8
	c-0.1-0.3-0.3-0.6-0.4-0.8l1.1-0.1C210.5,56.1,210.6,56.5,210.8,56.8L210.8,56.8z M210.6,59.5l0.4-1.7h-1.7l0.5,1.7H210.6
	L210.6,59.5z M212.9,64.8l-1,0.4c-0.3-0.7-0.7-1.4-1.1-2.1l0.8-0.2C212.2,63.5,212.6,64.2,212.9,64.8z M217.6,56.2V63h-1.2v2.2
	c0,0.2,0.1,0.4,0.4,0.4h0.2c0.1,0,0.2,0,0.3-0.2c0.1-0.1,0.1-0.6,0.2-1.6l0.9,0.3c-0.1,1.2-0.2,1.9-0.4,2.1
	c-0.2,0.2-0.4,0.3-0.9,0.3h-0.7c-0.3,0-0.5-0.1-0.7-0.3c-0.2-0.2-0.3-0.4-0.3-0.8V63h-0.6c-0.1,0.9-0.2,1.6-0.5,2.1
	c-0.3,0.6-0.9,1.1-1.9,1.6l-0.7-0.9c0.8-0.3,1.3-0.7,1.5-1.1c0.3-0.4,0.5-1,0.5-1.8H213v-6.8L217.6,56.2L217.6,56.2z M216.6,58.2
	v-0.9h-2.7v0.9H216.6z M216.6,60v-0.9h-2.7V60H216.6z M216.6,60.9h-2.7V62h2.7V60.9z"/>
<path class="st0" d="M228.3,56.3v1c-0.6,0.7-1.7,1.6-3.2,2.7v0.8h4.3v1.1h-4.3v3.7c0,0.3-0.1,0.6-0.2,0.8c-0.2,0.2-0.5,0.3-0.8,0.3
	h-2.1l-0.1-1.2c0.7,0.1,1.3,0.1,1.7,0.1c0.2,0,0.3-0.1,0.3-0.4v-3.3h-4.6v-1.1h4.6v-1.5c1.1-0.6,2.1-1.2,2.9-1.9h-6.4v-1.1
	L228.3,56.3L228.3,56.3z"/>
<path class="st0" d="M236.7,56.5h4.2v0.9h-1.8V58h1.3v0.8h-1.3v1.3h-4.9v-1.3h-1.4V58h1.4v-0.6h-1.9v2.7c0,1-0.1,2-0.2,3.1
	c-0.2,1.1-0.5,2.3-0.9,3.4l-0.8-0.8c0.4-0.9,0.6-1.8,0.8-2.8c0.1-1,0.2-2,0.2-2.8v-3.7h4.2c-0.1-0.2-0.3-0.4-0.4-0.6l1.1-0.1
	C236.4,56,236.5,56.3,236.7,56.5L236.7,56.5z M235.9,65.9c-1.1,0.4-2.2,0.7-3.2,0.9l-0.4-1c1.2-0.1,2.2-0.3,3.1-0.7L235.9,65.9
	L235.9,65.9z M240.8,60.5v0.8h-8.4v-0.8H240.8z M240.1,61.8v3.4H233v-3.4H240.1z M236.1,63.1v-0.6H234v0.6H236.1z M236.1,63.8H234
	v0.6h2.1V63.8z M235.2,58h2.9v-0.6h-2.9V58z M235.2,59.4h2.9v-0.6h-2.9V59.4z M237.1,63.1h2.1v-0.6h-2.1V63.1z M239.2,63.7h-2.1v0.6
	h2.1V63.7z M240.6,65.9l-0.5,0.9c-1-0.4-2-0.7-3-0.8l0.5-0.7C238.7,65.4,239.7,65.6,240.6,65.9L240.6,65.9z"/>
<path class="st0" d="M243.1,58.8v-2.9h1v2.9h1.1v1h-1.1v3.1c0.4-0.2,0.7-0.4,1.1-0.6v0.5c0.3-0.2,0.6-0.4,0.8-0.7
	c0.2-0.2,0.4-0.5,0.6-0.8h-1.5v-0.9h7.2v0.9h-4.6c-0.1,0.2-0.2,0.4-0.3,0.6h4.5c0,2.5-0.2,3.9-0.6,4.3c-0.2,0.3-0.9,0.5-2.1,0.5
	l-0.2-1.1c0.3,0.1,0.6,0.1,0.8,0.1c0.3,0,0.6-0.1,0.8-0.3c0.2-0.2,0.3-1,0.3-2.5h-0.3c-0.4,0.8-0.7,1.4-1.1,1.9
	c-0.5,0.7-1.3,1.3-2.5,2.1l-0.7-0.9c1-0.5,1.7-1,2.2-1.6c0.4-0.4,0.7-0.9,1-1.5h-0.8c-0.3,0.5-0.7,1-1.2,1.4c-0.6,0.5-1.4,1-2.3,1.4
	l-0.6-0.8c0.8-0.4,1.5-0.7,2.1-1.1c0.3-0.2,0.6-0.5,0.9-0.9h-0.9c-0.4,0.4-0.9,0.8-1.5,1.1l-0.4-0.5c-0.8,0.5-1.7,0.9-2.8,1.4
	l-0.3-1.2c0.4-0.1,0.9-0.2,1.3-0.4v-3.5H242v-1L243.1,58.8L243.1,58.8z M251.7,56.1V60h-6v-3.8H251.7z M250.7,57.7V57h-3.9v0.7
	H250.7z M250.7,58.5h-3.9v0.6h3.9V58.5z"/>
<path class="st0" d="M254,62.1v-1.5h1.4v1.5H254z M257.8,62.1v-1.5h1.4v1.5H257.8z M261.6,62.1v-1.5h1.4v1.5H261.6z"/>
<path class="st0" d="M266,63.7c-0.1,1.2-0.3,2.2-0.5,3.1l-1-0.3c0.3-0.9,0.5-1.8,0.6-2.8L266,63.7z M267.5,56.1
	c-0.4,1.1-0.8,2.1-1.2,2.9c0.3,0,0.7-0.1,1-0.1c0.2-0.5,0.5-1.1,0.8-1.7l0.9,0.4c-0.8,1.9-1.7,3.4-2.5,4.6c0.6,0,1.1-0.1,1.5-0.2
	c-0.1-0.4-0.2-0.8-0.3-1.2l0.8-0.3c0.2,0.8,0.5,1.6,0.7,2.6l-0.9,0.2c0-0.2-0.1-0.4-0.1-0.5c-0.8,0.2-1.8,0.4-3.2,0.5l-0.3-1
	c0.2,0,0.5,0,0.7,0c0.5-0.7,0.9-1.5,1.4-2.4c-0.6,0.1-1.3,0.2-2,0.2l-0.2-1c0.2,0,0.4,0,0.6,0c0.5-1,0.9-2.1,1.3-3.3L267.5,56.1z
	 M267.6,66.2l-0.9,0.1c0-1.1-0.1-1.9-0.2-2.5l0.8-0.1C267.4,64.3,267.5,65.2,267.6,66.2L267.6,66.2z M269.1,65.3l-0.9,0.3
	c-0.1-0.7-0.3-1.4-0.4-2.1l0.8-0.2C268.8,64.1,269,64.8,269.1,65.3L269.1,65.3z M271.1,56.6c-0.3,1-0.6,1.7-0.8,2.2
	c-0.2,0.5-0.6,1.1-1.1,1.7l-0.8-0.7c0.4-0.5,0.8-1.1,1.1-1.6c0.2-0.5,0.5-1.2,0.7-1.9L271.1,56.6L271.1,56.6z M274.3,60.2
	c-0.1,3.2-0.2,4.9-0.3,5.1c-0.1,0.4-0.3,0.7-0.5,0.8c-0.2,0.2-0.5,0.3-1,0.3c-0.4,0-0.7,0-0.9-0.1l-0.2-1.1c0.5,0.1,0.8,0.1,0.9,0.1
	c0.3,0,0.5-0.1,0.6-0.3c0.2-0.2,0.3-1.5,0.4-4h-1.6c-0.2,1.3-0.4,2.4-0.7,3.2c-0.3,0.9-0.8,1.7-1.5,2.4l-0.7-0.9
	c0.5-0.6,1-1.3,1.2-2c0.2-0.7,0.4-1.6,0.6-2.7h-1.2v-1L274.3,60.2L274.3,60.2z M273.4,56.1c0.3,1.2,0.9,2.3,1.9,3.4l-0.6,0.9
	c-0.5-0.5-0.9-1-1.2-1.5c-0.3-0.5-0.6-1.2-0.8-1.9h-1.1v-0.9H273.4L273.4,56.1z"/>
<path class="st0" d="M277.5,63.7c-0.1,1.2-0.3,2.2-0.5,3.1l-1-0.3c0.3-0.9,0.5-1.8,0.6-2.8L277.5,63.7L277.5,63.7z M279,56.1
	c-0.4,1.1-0.8,2.1-1.2,2.9c0.4,0,0.7-0.1,1-0.1c0.2-0.5,0.5-1.1,0.8-1.7l0.9,0.4c-0.8,1.9-1.7,3.4-2.5,4.6c0.6,0,1-0.1,1.5-0.2
	c-0.1-0.4-0.2-0.8-0.3-1.2l0.8-0.3c0.2,0.8,0.5,1.6,0.7,2.6l-0.9,0.2c0-0.2-0.1-0.4-0.1-0.5c-0.8,0.2-1.8,0.4-3.2,0.5l-0.3-1
	c0.2,0,0.5,0,0.7,0c0.5-0.7,1-1.5,1.4-2.4c-0.6,0.1-1.3,0.2-2,0.2l-0.2-1c0.2,0,0.4,0,0.6,0c0.5-1,0.9-2.1,1.3-3.3L279,56.1z
	 M279,66.2l-0.9,0.1c0-1.1-0.1-1.9-0.2-2.5l0.8-0.1C278.8,64.3,279,65.2,279,66.2L279,66.2z M280.5,65.3l-0.9,0.3
	c-0.1-0.7-0.3-1.4-0.4-2.1l0.8-0.2C280.2,64.1,280.4,64.8,280.5,65.3L280.5,65.3z M282.5,56.6c-0.3,1-0.6,1.7-0.8,2.2
	c-0.2,0.5-0.6,1.1-1.1,1.7l-0.8-0.7c0.4-0.5,0.8-1.1,1.1-1.6c0.2-0.5,0.5-1.2,0.6-1.9L282.5,56.6L282.5,56.6z M285.7,60.2
	c-0.1,3.2-0.2,4.9-0.3,5.1c-0.1,0.4-0.3,0.7-0.5,0.8c-0.2,0.2-0.5,0.3-1,0.3c-0.4,0-0.6,0-0.9-0.1l-0.2-1.1c0.5,0.1,0.8,0.1,0.9,0.1
	c0.3,0,0.5-0.1,0.6-0.3c0.2-0.2,0.3-1.5,0.4-4h-1.6c-0.2,1.3-0.4,2.4-0.6,3.2c-0.3,0.9-0.8,1.7-1.5,2.4l-0.7-0.9
	c0.5-0.6,1-1.3,1.2-2c0.2-0.7,0.4-1.6,0.6-2.7h-1.2v-1L285.7,60.2L285.7,60.2z M284.8,56.1c0.3,1.2,0.9,2.3,1.9,3.4l-0.6,0.9
	c-0.5-0.5-0.9-1-1.2-1.5c-0.3-0.5-0.6-1.2-0.8-1.9h-1.1v-0.9H284.8L284.8,56.1z"/>
<path class="st0" d="M292.2,57.4h-3.1v-1.1h4.2c0.2,2.3,0.6,4.1,1.4,5.4c0.7,1.4,1.8,2.6,3.2,3.8l-0.8,1.2c-1.6-1.5-2.8-2.9-3.4-4.3
	c-0.4-0.8-0.7-1.6-1-2.5c-0.4,1.3-0.8,2.3-1.2,3.1c-0.7,1.2-1.8,2.4-3.3,3.7l-0.8-1.1c1.5-1.2,2.5-2.3,3.2-3.5
	c0.6-1.1,1.1-2.5,1.6-4.2C292.3,57.7,292.2,57.6,292.2,57.4z"/>
<path class="st0" d="M304.2,60.5v0.9h-1.9v1.2h1.5v0.9h-1.5v1.6c0.2,0.1,0.3,0.1,0.5,0.2c0.9,0.3,2.4,0.4,4.3,0.4
	c0.8,0,1.6,0,2.2-0.1l-0.2,1.2c-3.3,0-5.5-0.2-6.5-0.5c-0.9-0.3-1.7-0.8-2.4-1.5c-0.2,0.6-0.4,1.2-0.7,1.9l-0.7-0.9
	c0.2-0.6,0.4-1.2,0.6-1.8c0.1-0.5,0.2-1.3,0.3-2.2l1,0.1c-0.1,0.7-0.2,1.2-0.2,1.7c0.2,0.3,0.5,0.5,0.8,0.7v-3H299v-0.9H304.2z
	 M303.8,56.1v3.8h-4.2v-3.8H303.8z M302.8,57.6V57h-2.3v0.6H302.8z M302.8,58.4h-2.3V59h2.3V58.4z M306.3,64.1
	c-0.7,0.6-1.4,1-2.1,1.3l-0.4-0.9c0.7-0.2,1.4-0.5,1.9-1L306.3,64.1z M309.1,56.2v0.9h-1.9c-0.1,0.3-0.2,0.6-0.2,0.8h1.8v5.4h-4.2
	V58h1.4c0.1-0.3,0.2-0.5,0.3-0.8h-2.1v-0.9H309.1L309.1,56.2z M307.8,59.4v-0.7h-2.3v0.7H307.8z M307.8,60.9v-0.7h-2.3v0.7H307.8z
	 M307.8,61.7h-2.3v0.7h2.3V61.7z M309.3,64.5l-0.5,0.8c-0.6-0.5-1.2-0.9-1.9-1.2l0.4-0.7C308,63.8,308.7,64.1,309.3,64.5L309.3,64.5
	z"/>
<path class="st0" d="M315.9,62.6c-0.2,0.2-0.5,0.5-0.9,0.8l-0.4-0.6c0.5-0.3,0.8-0.6,0.9-1.1h-0.7v-1.5h1.4v1.2
	C316.2,61.9,316.1,62.3,315.9,62.6z"/>
<path class="st0" d="M106.3,95c-0.1,1.2-0.2,2.1-0.4,2.9l-1-0.3c0.3-0.8,0.4-1.7,0.5-2.7L106.3,95L106.3,95z M108,87.3
	c-0.4,1.1-0.8,2-1.3,2.9c0.3,0,0.7-0.1,1-0.1c0.2-0.5,0.5-1.1,0.7-1.7l0.9,0.4c-0.8,1.9-1.7,3.5-2.5,4.7c0.6,0,1.1-0.1,1.5-0.2
	c-0.1-0.4-0.2-0.8-0.3-1.2l0.8-0.3c0.3,0.8,0.5,1.6,0.7,2.6l-0.9,0.2c0-0.2-0.1-0.3-0.1-0.5c-0.8,0.2-1.8,0.3-3.2,0.5l-0.3-1
	c0.2,0,0.5,0,0.7,0c0.5-0.7,1-1.5,1.5-2.5c-0.6,0.1-1.3,0.2-2.1,0.3l-0.2-1c0.2,0,0.4,0,0.6,0c0.5-1,1-2.1,1.4-3.3L108,87.3z
	 M107.9,97.4l-0.9,0.1c0-1.1-0.1-1.9-0.2-2.5l0.8-0.1C107.7,95.6,107.8,96.4,107.9,97.4L107.9,97.4z M109.4,96.9l-0.9,0.3
	c-0.2-0.8-0.3-1.6-0.5-2.4l0.8-0.2C109,95.5,109.3,96.2,109.4,96.9L109.4,96.9z M115.1,98h-0.9v-0.7h-3.4V98h-0.9V87.5h5.3L115.1,98
	L115.1,98z M112,91.8v-3.2h-1.2v3.2H112z M112,96.2v-3.4h-1.2v3.4H112z M112.9,91.8h1.2v-3.2h-1.2V91.8z M114.2,96.2v-3.4h-1.2v3.4
	H114.2z"/>
<path class="st0" d="M119.9,87.3v9.3c0,0.4-0.1,0.7-0.2,0.9c-0.1,0.2-0.4,0.3-0.7,0.3h-0.7l-0.3-1.1l0.7,0c0.2,0,0.3-0.1,0.3-0.4
	v-2.8c-0.3,0.5-0.6,0.9-0.8,1.2l-0.3-0.7c0,0.5-0.1,0.9-0.1,1.4c-0.1,0.8-0.3,1.6-0.5,2.4l-0.8-0.7c0.2-0.6,0.3-1.3,0.4-2
	c0.1-0.7,0.1-1.4,0.1-2v-5.9H119.9z M119,92.1v-1l-0.5,0.4c-0.2-0.4-0.3-0.9-0.6-1.4v3.2c0,0.1,0,0.3,0,0.4
	C118.2,93.3,118.6,92.8,119,92.1L119,92.1z M118.4,89.3c0.2,0.4,0.4,0.7,0.6,1v-2.1h-1.1v1.4L118.4,89.3z M122,97.1
	c-0.6,0.4-1.2,0.7-1.7,0.9l-0.4-0.8c0.6-0.1,1.1-0.4,1.6-0.7L122,97.1L122,97.1z M124.2,88.4V87h0.9v1.4h0.8
	c-0.2-0.3-0.4-0.6-0.6-0.9l0.6-0.4c0.4,0.3,0.6,0.7,0.8,0.9l-0.6,0.4h0.7v0.9h-1.8c0,3.3,0.2,5.4,0.3,6.2c0.2,0.7,0.3,1.1,0.5,1.1
	c0.1,0,0.2-0.7,0.3-2l0.8,0.7c-0.2,1.2-0.3,2-0.5,2.3c-0.1,0.3-0.3,0.4-0.5,0.4c-0.3,0-0.5-0.1-0.7-0.4c-0.3-0.5-0.6-1.1-0.7-1.8
	c-0.2-1.1-0.3-3.2-0.4-6.4h-4.1v-0.9H124.2L124.2,88.4z M124.1,91v0.8h-3.9V91H124.1z M123.9,92.3v4.1h-3.4v-4.1H123.9z M123.8,89.8
	v0.8h-3.2v-0.8H123.8z M123.1,93.5V93h-1.7v0.5H123.1z M123.1,94.6v-0.5h-1.7v0.5H123.1z M123.1,95.2h-1.7v0.5h1.7V95.2z
	 M124.7,97.2l-0.3,0.8c-0.6-0.3-1.2-0.6-1.8-0.8l0.3-0.7C123.4,96.7,124,96.9,124.7,97.2L124.7,97.2z"/>
<path class="st0" d="M131.8,88.5c0.2-0.4,0.4-0.9,0.6-1.4l1.1,0.1c-0.1,0.5-0.3,0.9-0.5,1.3h5.4v1.1h-5.9c-0.3,0.5-0.6,1-0.9,1.4
	c-0.2,0.2-0.4,0.5-0.6,0.7h2.2v-1.5h1.1v1.5h3.4V96c0,0.4-0.1,0.7-0.3,0.9c-0.2,0.2-0.4,0.3-0.7,0.3h-1.3l-0.2-1l1.1,0.1
	c0.2,0,0.4-0.2,0.4-0.4v-2.9h-2.3V98h-1.1v-5.2h-2.3v4.5h-1.1V93c-0.4,0.4-0.8,0.7-1.3,1.1l-0.6-0.9c1.1-0.9,2-1.8,2.8-2.8
	c0.2-0.2,0.3-0.5,0.5-0.8h-3.4v-1.1H131.8L131.8,88.5z"/>
<path class="st0" d="M141.4,91.4h8.1c0,3.4-0.2,5.4-0.6,5.9c-0.2,0.4-1,0.6-2.2,0.6l-0.2-1.2c0.4,0.1,0.6,0.1,0.9,0.1
	c0.3,0,0.6-0.1,0.8-0.4c0.2-0.3,0.3-1.6,0.3-4h-7c0,0.7-0.1,1.4-0.2,2.1c-0.2,1.2-0.5,2.3-1,3.4l-0.9-0.8c0.4-0.9,0.7-1.9,0.9-2.9
	c0.1-1,0.2-2,0.2-2.9v-3.9h8.9v3.1h-7.8L141.4,91.4L141.4,91.4z M141.4,88.4v1h6.8v-1H141.4z M147.1,93.2v3.1h-4.9v-3.1H147.1z
	 M146.1,94.2h-2.8v1.1h2.8V94.2z"/>
<path class="st0" d="M160.6,97.8h-1.1v-0.9h-7.2v0.9h-1.1V87.6h9.4L160.6,97.8L160.6,97.8z M159.5,95.8v-2h-1.7
	c-0.4,0-0.7-0.1-0.9-0.2c-0.2-0.2-0.3-0.4-0.3-0.8v-4.2H155v1.5c0,1-0.1,1.8-0.3,2.5c-0.2,0.7-0.6,1.3-1.2,2l-0.9-0.8
	c0.5-0.5,0.9-1,1.1-1.5c0.2-0.5,0.3-1.1,0.3-2.1v-1.5h-1.6v7.2H159.5L159.5,95.8z M157.6,92.5c0,0.2,0.1,0.4,0.4,0.4h1.5v-4.2h-1.9
	V92.5z"/>
<path class="st0" d="M171.3,88c-1,0.2-2.2,0.4-3.6,0.5v0.8h4.7v1h-3.6c0.4,0.4,0.8,0.7,1.2,0.8c0.6,0.3,1.4,0.7,2.5,0.9l-0.5,1
	c-1.3-0.5-2.2-0.9-2.8-1.4c-0.5-0.3-1-0.8-1.5-1.4v2h2.3v0.9c-0.6,0.5-1.3,0.9-2.1,1.3v0.1h4.5v1h-4.5v1.2c0,0.3-0.1,0.5-0.2,0.7
	c-0.2,0.2-0.4,0.3-0.7,0.3h-1.8l-0.2-1.1c0.4,0,0.9,0.1,1.4,0.1c0.2,0,0.4-0.1,0.4-0.3v-0.9h-4.6v-1h4.6V94c0.5-0.2,1.1-0.5,1.7-0.8
	h-4.1v-0.9h2.3v-2h0c-0.3,0.5-0.7,0.9-1.1,1.2c-0.7,0.5-1.7,1.1-3,1.6l-0.6-1c1.3-0.4,2.2-0.8,2.8-1.2c0.3-0.2,0.5-0.4,0.8-0.6h-3.5
	v-1h4.6v-0.7c-1.1,0.1-2.2,0.1-3.5,0.1l-0.3-0.9c3.1,0,5.7-0.2,7.8-0.7L171.3,88L171.3,88z"/>
<path class="st0" d="M179.5,94.2c-0.2-0.4-0.6-0.8-1-1.4c-0.3-0.3-0.7-0.7-1.3-1.2l0.7-0.6c0.4,0.3,0.8,0.7,1.3,1.2
	c0.3,0.3,0.7,0.8,1.1,1.4L179.5,94.2L179.5,94.2z"/>
<path class="st0" d="M188.5,96.8h-1V96h-1.3v1.2h-1v-9.3h3.3V96.8z M187.5,91.4v-2.5h-1.3v2.5H187.5z M187.5,95v-2.5h-1.3V95H187.5z
	 M191.3,87.8V87h1.1v0.8h2.8v0.9h-2.8v0.5h2.5v0.9h-2.5v0.6h3v0.9h-6.6v-0.9h2.5v-0.6H189v-0.9h2.3v-0.5h-2.5v-0.9H191.3z
	 M194.9,96.9c0,0.3-0.1,0.6-0.3,0.7c-0.2,0.1-0.4,0.2-0.7,0.2h-1.3l-0.2-0.9l1.1,0c0.2,0,0.3-0.1,0.3-0.4v-0.5h-3.8V98h-1v-5.7h5.8
	V96.9L194.9,96.9z M193.9,93.8v-0.6h-3.8v0.6H193.9z M193.9,95.3v-0.7h-3.8v0.7H193.9z"/>
<path class="st0" d="M206.6,87.5v1h-4.6v1.2h4.2v7.2c0,0.4-0.1,0.7-0.3,0.9c-0.2,0.2-0.4,0.3-0.6,0.3H204l-0.2-1l1.1,0
	c0.2,0,0.3-0.2,0.3-0.4v-5.9h-3.2v7.1H201v-7.1h-3.2V98h-1v-8.3h4.2v-1.2h-4.6v-1H206.6L206.6,87.5z M200.6,95.5l-0.8,0.8
	c-0.4-0.5-1-1.1-1.7-1.6l0.7-0.7C199.6,94.5,200.1,95,200.6,95.5z M200.6,92.7l-0.8,0.8c-0.3-0.5-0.8-1-1.5-1.5l0.7-0.7
	C199.7,91.7,200.2,92.2,200.6,92.7L200.6,92.7z M204.9,95.4l-0.8,0.8c-0.4-0.5-0.9-1-1.6-1.6l0.7-0.7
	C203.8,94.4,204.4,94.9,204.9,95.4L204.9,95.4z M204.9,92.7l-0.8,0.8c-0.4-0.5-0.9-1-1.6-1.5l0.7-0.7
	C203.9,91.8,204.4,92.2,204.9,92.7L204.9,92.7z"/>
<path class="st0" d="M213.7,94.2c-0.2-0.4-0.6-0.8-1-1.4c-0.3-0.3-0.7-0.7-1.3-1.2l0.7-0.6c0.4,0.3,0.8,0.7,1.3,1.2
	c0.3,0.3,0.7,0.8,1.1,1.4L213.7,94.2L213.7,94.2z"/>
<path class="st0" d="M224.9,87v4.3h4.4v1h-3.2v4.1c0,0.2,0.1,0.4,0.4,0.4h1.4c0.2,0,0.3-0.1,0.4-0.2c0.1-0.1,0.1-0.8,0.2-2l1.1,0.3
	c-0.1,1.4-0.3,2.2-0.5,2.5c-0.2,0.2-0.5,0.4-1,0.4h-2c-0.3,0-0.6-0.1-0.8-0.3c-0.2-0.2-0.3-0.5-0.3-0.8v-4.4h-1.6
	c-0.1,1.5-0.4,2.7-0.9,3.4c-0.5,0.9-1.4,1.6-2.7,2.3l-0.8-1c1.2-0.5,2-1.1,2.4-1.8c0.4-0.6,0.7-1.5,0.8-2.9h-3v-1h4.5V87L224.9,87
	L224.9,87z M222.6,90.3l-1.1,0.5c-0.4-1-0.8-1.9-1.2-2.7l1.1-0.4C221.8,88.5,222.2,89.4,222.6,90.3L222.6,90.3z M228.4,88.2
	c-0.3,0.9-0.8,1.8-1.3,2.7l-1.1-0.6c0.5-0.9,1-1.8,1.3-2.7L228.4,88.2L228.4,88.2z"/>
<path class="st0" d="M232.5,95.6c-0.3,0.8-0.7,1.5-1.2,2.1l-0.8-0.6c0.5-0.5,0.9-1.1,1.2-1.8L232.5,95.6L232.5,95.6z M236.4,87.2
	v3.3h-2.5l0.3,0.7h2.5v0.9h-6.1v-0.9h2.6l-0.3-0.7H231v-3.3H236.4z M236.2,92.6v2.2h-2.1v2.1c0,0.4-0.1,0.7-0.3,0.8
	c-0.2,0.2-0.4,0.3-0.9,0.3h-0.7l-0.2-1.1c0.3,0.1,0.5,0.1,0.7,0.1c0.3,0,0.4-0.1,0.4-0.3v-1.9H231v-2.2H236.2L236.2,92.6z
	 M235.4,88.5V88h-3.4v0.6H235.4z M235.4,89.2h-3.4v0.6h3.4V89.2z M235.2,93.4H232v0.7h3.2V93.4z M236.4,97.1l-0.8,0.6
	c-0.2-0.6-0.6-1.2-1-2l0.7-0.5C235.7,95.9,236.1,96.5,236.4,97.1L236.4,97.1z M241,94.5c-1.3,1.5-2.6,2.7-3.9,3.4l-0.5-1.2
	c1.4-0.7,2.7-1.7,3.7-3L241,94.5L241,94.5z M240.9,91c-1.2,1.3-2.4,2.3-3.7,2.9l-0.5-1.1c1.3-0.5,2.5-1.4,3.5-2.6L240.9,91L240.9,91
	z M240.7,88c-1.1,1.1-2.2,1.8-3.3,2.3l-0.5-1.1c1.2-0.4,2.2-1.1,3.1-2.1L240.7,88z"/>
<path class="st0" d="M244.6,87.1v7.5c0.8-0.3,1.6-0.7,2.4-1.1l0.3,1.1c-1.3,0.8-2.9,1.5-4.9,2.1l-0.5-1.2c0.5-0.1,1-0.3,1.5-0.5v-8
	L244.6,87.1L244.6,87.1z M250.7,87.1c0,2.5-0.3,4.5-0.8,6c0.9,1.2,1.7,2.3,2.3,3.4l-0.9,1c-0.5-1-1.1-2-1.9-3.1
	c-0.6,1.2-1.8,2.4-3.4,3.5l-0.8-1c1.6-1,2.6-2,3.2-3.1c0.7-1.4,1.1-3.6,1.1-6.7L250.7,87.1L250.7,87.1z M248.2,91.5l-1.1,0.8
	c-0.4-1-0.9-2.2-1.6-3.5l0.9-0.6C247.2,89.5,247.8,90.6,248.2,91.5L248.2,91.5z"/>
<path class="st0" d="M262,87.4c-0.3,1.3-0.6,2.4-0.9,3.3h2.1c-0.5,2.1-1.1,3.7-2,4.8c0.7,0.5,1.6,1,2.5,1.3l-0.6,1.2
	c-1.1-0.5-2.1-1.1-2.8-1.6c-0.8,0.7-1.9,1.2-3.2,1.6l-0.8-1.2c1.3-0.3,2.4-0.7,3.1-1.2c-1-1-1.8-2.1-2.3-3.5
	c-0.3,1.2-0.6,2.1-0.9,2.9c-0.4,0.9-1.1,1.8-2,2.8l-0.9-0.8c1.2-1.2,2-2.5,2.6-3.9c0.4-1.2,0.6-2.5,0.6-3.8v-0.8h-2.3v-1.1H262
	L262,87.4z M257.5,89.3c0,1.4,0.5,2.8,1.6,4.2c0.4,0.5,0.8,0.9,1.3,1.3c0.6-0.7,1.1-1.7,1.5-3h-2.2c0.3-0.7,0.6-1.8,0.9-3.3h-3V89.3
	z"/>
<path class="st0" d="M269.2,87.5V87h1.1v0.5h3.8v1.2h0.9v0.8h-0.9v1.2h-3.8v0.5h4.1v0.7h-4.1v0.5h4.7V93h-10.2v-0.8h4.4v-0.5h-3.9
	v-0.7h3.9v-0.5h-3.7v-0.7h3.7v-0.5h-4.5v-0.8h4.5v-0.5h-3.7v-0.7L269.2,87.5L269.2,87.5z M275,96.9v0.9h-10.2v-0.9H275z M274,93.4v3
	h-8.2v-3H274z M272.9,94.7v-0.6h-6.2v0.6H272.9z M272.9,95.3h-6.2v0.5h6.2V95.3z M270.3,88.7h2.8v-0.5h-2.8V88.7z M270.3,89.9h2.8
	v-0.5h-2.8V89.9z"/>
<path class="st0" d="M279.5,90c-0.3,0.8-0.6,1.4-0.8,1.9V98h-1v-4.5c-0.3,0.3-0.6,0.7-0.8,1l-0.6-1.1c0.5-0.4,1-1,1.4-1.7
	c0.3-0.6,0.7-1.3,1-2.2L279.5,90L279.5,90z M282,88.2h4.5v1.1h-10.2v-1.1h4.6c-0.2-0.4-0.3-0.7-0.5-1l1.1-0.1
	C281.6,87.4,281.8,87.8,282,88.2z M282.4,89.8c-0.1,0.3-0.2,0.5-0.3,0.7h3.6v1c-0.2,1.1-0.5,2-0.9,2.8c-0.3,0.5-0.7,1-1.1,1.4
	c0.8,0.5,1.7,0.9,2.9,1.3l-0.6,1c-1.3-0.5-2.4-1-3.1-1.6c-0.7,0.5-1.7,1-3,1.5l-0.8-0.9c1.2-0.4,2.2-0.9,3-1.4
	c-0.7-0.7-1.3-1.4-1.7-2.2c-0.2,0.2-0.4,0.4-0.6,0.6l-0.8-0.8c0.7-0.6,1.2-1.2,1.6-1.8c0.4-0.6,0.7-1.3,1-2.1L282.4,89.8z
	 M282.9,95.1c0.2-0.1,0.3-0.3,0.4-0.4c0.7-0.7,1.2-1.8,1.4-3.2h-3c-0.1,0.3-0.3,0.5-0.4,0.6c-0.1,0.2-0.2,0.3-0.3,0.5
	C281.5,93.7,282.1,94.5,282.9,95.1z M283.7,93.3l-0.8,0.8c-0.3-0.4-0.8-0.9-1.4-1.4l0.7-0.7C282.9,92.4,283.4,92.9,283.7,93.3z"/>
<path class="st0" d="M293.1,93.8c-0.2,0.2-0.5,0.5-0.9,0.8l-0.4-0.6c0.5-0.3,0.8-0.6,0.9-1.1H292v-1.4h1.4v1.2
	C293.4,93.1,293.3,93.5,293.1,93.8z"/>
<path class="st0" d="M124.7,122.3l-0.7,1.1c-0.6-0.5-1.2-1-1.8-1.3l0.6-0.9C123.5,121.5,124.1,121.9,124.7,122.3z M124.6,124.8
	c-0.4,1.7-0.9,3.2-1.5,4.4l-0.8-0.8c0.5-1,0.9-2.4,1.4-4L124.6,124.8L124.6,124.8z M125,119.5l-0.7,1.1c-0.6-0.6-1.1-1-1.7-1.3
	l0.6-0.9C123.9,118.7,124.5,119.1,125,119.5z M131.7,125.6v0.7c-0.5,0.6-1.1,1.1-1.7,1.5c0.7,0.2,1.6,0.3,2.7,0.5l-0.4,1
	c-1.3-0.2-2.5-0.5-3.5-0.9c-0.9,0.3-2.2,0.6-3.8,0.9l-0.4-1c1.2-0.2,2.2-0.3,3-0.5c-0.6-0.4-1.1-0.8-1.5-1.2h-0.9v-0.9L131.7,125.6
	L131.7,125.6z M132.3,122.6v2.5h-7.3v-2.5H132.3z M131.8,118.6v3.5h-6.3v-3.5H131.8z M127.2,123.4h-1.3v0.8h1.3V123.4z M130.8,120
	v-0.6h-4.4v0.6H130.8z M130.8,120.7h-4.4v0.6h4.4V120.7z M128.8,127.4C128.8,127.4,128.9,127.3,128.8,127.4c0.6-0.2,1-0.5,1.5-0.9
	h-3C127.8,126.8,128.3,127.1,128.8,127.4z M129.3,123.4h-1.2v0.8h1.2V123.4z M131.4,123.4h-1.2v0.8h1.2V123.4z"/>
<path class="st0" d="M136.1,122.3l-0.7,1.1c-0.6-0.5-1.2-1-1.8-1.3l0.6-0.9C134.9,121.5,135.5,121.9,136.1,122.3z M136,124.8
	c-0.4,1.7-0.9,3.2-1.5,4.4l-0.9-0.8c0.5-1,0.9-2.4,1.4-4L136,124.8L136,124.8z M136.4,119.5l-0.7,1.1c-0.6-0.6-1.1-1-1.7-1.3
	l0.6-0.9C135.3,118.7,135.9,119.1,136.4,119.5z M143.1,125.6v0.7c-0.5,0.6-1.1,1.1-1.7,1.5c0.7,0.2,1.6,0.3,2.7,0.5l-0.4,1
	c-1.3-0.2-2.5-0.5-3.5-0.9c-0.9,0.3-2.2,0.6-3.8,0.9l-0.4-1c1.2-0.2,2.2-0.3,3-0.5c-0.6-0.4-1.1-0.8-1.5-1.2h-0.9v-0.9L143.1,125.6
	L143.1,125.6z M143.7,122.6v2.5h-7.3v-2.5H143.7z M143.2,118.6v3.5h-6.3v-3.5H143.2z M138.6,123.4h-1.3v0.8h1.3V123.4z M142.2,120
	v-0.6h-4.4v0.6H142.2z M142.2,120.7h-4.4v0.6h4.4V120.7z M140.2,127.4C140.2,127.4,140.3,127.3,140.2,127.4c0.6-0.2,1-0.5,1.5-0.9
	h-3C139.2,126.8,139.7,127.1,140.2,127.4z M140.7,123.4h-1.2v0.8h1.2V123.4z M142.8,123.4h-1.2v0.8h1.2V123.4z"/>
<path class="st0" d="M148.7,128h-1v-0.9h-1.4v1.2h-1V119h3.4L148.7,128L148.7,128z M147.7,122.6v-2.5h-1.4v2.5H147.7z M147.7,126.1
	v-2.5h-1.4v2.5H147.7z M151.6,119.4v-1.1h1v1.1h2.5v1h-2.5v1.2h2.9v1.1h-1.1v1.3h1.2v1h-1.2v2.9c0,0.4-0.1,0.7-0.3,0.9
	c-0.2,0.2-0.5,0.3-0.9,0.3h-1.4l-0.2-1.2c0.6,0.1,1,0.1,1.4,0.1c0.3,0,0.4-0.1,0.4-0.3V125h-4.4v-1h4.4v-1.3H149v-1.1h2.6v-1.2h-2.4
	v-1H151.6z M152.1,127l-1,0.7c-0.4-0.6-0.9-1.2-1.6-1.9l0.8-0.6C151,126,151.6,126.6,152.1,127L152.1,127z"/>
<path class="st0" d="M162.3,118.2v4.4h4.4v1h-3.2v4.1c0,0.2,0.1,0.4,0.4,0.4h1.4c0.2,0,0.3-0.1,0.3-0.2c0.1-0.1,0.2-0.8,0.2-1.9
	l1.1,0.3c-0.1,1.4-0.3,2.2-0.5,2.5c-0.2,0.2-0.5,0.4-1,0.4h-2c-0.3,0-0.6-0.1-0.8-0.3c-0.2-0.2-0.3-0.5-0.3-0.8v-4.4h-1.6
	c-0.1,1.5-0.4,2.7-0.8,3.4c-0.5,0.9-1.4,1.6-2.7,2.3l-0.8-1c1.2-0.5,2-1.1,2.4-1.8c0.4-0.6,0.7-1.5,0.8-2.9h-3v-1h4.5v-4.3
	L162.3,118.2L162.3,118.2z M159.9,121.5l-1.2,0.5c-0.4-1-0.8-1.9-1.2-2.7l1.1-0.4C159.1,119.7,159.5,120.6,159.9,121.5L159.9,121.5z
	 M165.7,119.4c-0.3,0.9-0.8,1.8-1.3,2.7l-1.1-0.6c0.5-0.9,1-1.8,1.3-2.7L165.7,119.4L165.7,119.4z"/>
<path class="st0" d="M173.4,125c-0.2,0.2-0.5,0.5-0.9,0.8l-0.4-0.6c0.5-0.3,0.8-0.6,0.9-1.1h-0.7v-1.5h1.4v1.2
	C173.7,124.3,173.6,124.7,173.4,125z"/>
<path class="st0" d="M181.5,121.8c-0.3,2.4-0.7,4.4-1.2,6l-1.1-0.7c0.5-1.7,0.9-3.6,1.1-5.6L181.5,121.8L181.5,121.8z M183.4,121.1
	v6.4c0,0.3,0.1,0.4,0.4,0.4h2.1c0.1,0,0.2-0.1,0.3-0.3c0.1-0.2,0.1-1,0.2-2.5l1.1,0.3c-0.1,1.8-0.2,2.8-0.4,3.1
	c-0.2,0.3-0.5,0.5-1,0.5h-2.6c-0.3,0-0.6-0.1-0.8-0.3c-0.2-0.2-0.3-0.5-0.3-0.9v-6.7L183.4,121.1L183.4,121.1z M186.3,121.3
	l-1.1,0.8c-0.5-0.9-1.2-1.9-2.1-3l0.9-0.6C185.1,119.6,185.8,120.6,186.3,121.3L186.3,121.3z M189.6,126.9l-1.1,0.5
	c-0.4-2-0.9-3.8-1.5-5.4l1.1-0.4C188.6,123.3,189.1,125.1,189.6,126.9L189.6,126.9z"/>
<path class="st0" d="M194,118.7v0.8c-0.2,0.9-0.5,1.8-0.8,2.8c0.2,0.6,0.4,1,0.6,1.5c0.1,0.5,0.2,0.8,0.2,1.2c0,0.6-0.1,1.1-0.3,1.4
	c-0.2,0.3-0.6,0.5-1.3,0.5l-0.3-1.1c0.2,0,0.4,0.1,0.5,0.1c0.1,0,0.2-0.1,0.3-0.2c0.1-0.1,0.1-0.3,0.1-0.6c0-0.4-0.1-0.7-0.1-1
	c-0.1-0.4-0.3-0.9-0.6-1.5c0.3-1.1,0.6-2,0.8-2.8H192v9.5h-1v-10.5H194z M197.4,118.9c0.1-0.2,0.1-0.5,0.2-0.7l0.8,0.1
	c0,0.2-0.1,0.4-0.1,0.6h2.6v0.8h-2.9c-0.1,0.2-0.1,0.4-0.2,0.5h2.7v0.7h-1.2v0.6h1.5v0.7h-3.8v-0.7c-0.1,0.2-0.3,0.4-0.4,0.5
	l-0.5-0.6c-0.3,0.7-0.6,1.5-1,2.3h1.2v0.6c-0.2,1-0.4,1.7-0.6,2.2c0,0,0,0.1,0,0.1c0.4,0.4,0.8,0.7,1.2,0.9c0.6,0.2,1.4,0.3,2.6,0.3
	c0.5,0,0.9,0,1.4-0.1l-0.2,1.1c-2,0-3.3-0.1-3.9-0.4c-0.6-0.2-1.1-0.6-1.5-1c-0.2,0.5-0.6,1.1-1,1.7l-0.7-0.7
	c0.5-0.7,0.9-1.3,1.1-1.8c0.2-0.3,0.4-1,0.6-2h-1.2v-0.8c0.3-0.5,0.6-1.3,1-2.2h-1.2v-0.9h2.1v0.5c0.4-0.4,0.7-0.9,0.9-1.3
	c0-0.1,0.1-0.1,0.1-0.2H196v-0.8L197.4,118.9L197.4,118.9z M195.9,120l-0.8,0.6c-0.2-0.5-0.5-1.1-0.8-1.8l0.7-0.4
	C195.3,119,195.6,119.6,195.9,120z M200.5,126.6c0,0.3-0.1,0.5-0.2,0.7c-0.1,0.1-0.3,0.2-0.6,0.2h-0.8l-0.2-0.9l0.7,0.1
	c0.2,0,0.3-0.1,0.3-0.4V126h-2v1.5h-0.9v-4.7h3.8L200.5,126.6L200.5,126.6z M198.4,121.6V121h-1c-0.1,0.2-0.3,0.4-0.4,0.6H198.4z
	 M199.6,124v-0.6h-2v0.6H199.6z M199.6,125.3v-0.6h-2v0.6H199.6z"/>
<path class="st0" d="M208,120h4v1c-0.9,1.5-1.7,2.6-2.6,3.4c-0.7,0.7-2,1.6-3.7,2.6c0.2,0.2,0.6,0.4,0.9,0.5
	c0.5,0.2,1.6,0.2,3.2,0.3c1.2,0,2,0,2.6-0.1l-0.2,1.3c-3.1,0-5-0.1-5.7-0.2c-0.6-0.1-1.1-0.4-1.5-0.7c-0.3-0.2-0.6-0.7-1-1.5
	c-0.3,0.8-0.7,1.6-1.3,2.4l-0.7-1.2c0.4-0.6,0.7-1.2,0.9-1.8c0.2-0.5,0.4-1.2,0.6-2h1.1c-0.1,0.4-0.2,0.8-0.2,1.1
	c0.1,0.3,0.3,0.6,0.4,0.8c1.1-0.5,2.1-1.2,3.1-1.9c0.6-0.6,1.5-1.6,2.6-3h-7.8V120h3.8c-0.4-0.6-0.8-1.1-1.3-1.6l1.4-0.2
	C207.2,118.7,207.7,119.3,208,120L208,120z"/>
<path class="st0" d="M216.5,118.3c0.7,0.7,1.4,1.4,2.1,2.2l-0.5,1.1c-0.1-0.1-0.2-0.3-0.3-0.4v0.7h-1.3v1.1h1.9v0.9h-1.9v1.2h1.5
	v4.1h-1v-0.6H215v0.7h-1V125h1.6v-1.2h-1.9v-0.9h1.9v-1.1h-1.2v-0.4c-0.2,0.2-0.4,0.4-0.5,0.5l-0.5-1c0.9-0.7,1.6-1.6,2.2-2.6
	L216.5,118.3L216.5,118.3z M217.7,120.9c-0.5-0.7-1.1-1.2-1.6-1.8c-0.4,0.6-0.8,1.2-1.4,1.8H217.7z M217.1,127.6v-1.7H215v1.7H217.1
	z M223.4,118.8v0.9c-0.3,0.6-0.6,1.1-0.9,1.5c-0.2,0.3-0.4,0.5-0.7,0.8c0.1,0.1,0.3,0.3,0.4,0.4l-0.3,0.3h1.9c-0.1,1-0.2,1.7-0.4,2
	c-0.2,0.5-0.4,1-0.8,1.4l-0.8-0.7c0.3-0.4,0.6-1,0.7-1.8h-1.1v4.3c0,0.4-0.1,0.7-0.3,0.9c-0.2,0.2-0.5,0.3-0.9,0.3h-1.2l-0.2-1.2
	c0.5,0.1,0.9,0.1,1.2,0.1c0.3,0,0.4-0.1,0.4-0.3v-4.1h-1.9v-1h2.5c-0.5-0.5-1.2-1.1-1.9-1.6l0.7-0.7c0.5,0.3,0.9,0.7,1.3,1
	c0.2-0.2,0.5-0.5,0.7-0.8c0.1-0.2,0.3-0.4,0.4-0.7h-3.6v-1L223.4,118.8L223.4,118.8z"/>
<path class="st0" d="M230.8,125.4c-0.2-0.4-0.6-0.8-1-1.4c-0.3-0.3-0.7-0.7-1.3-1.2l0.7-0.6c0.4,0.3,0.8,0.7,1.3,1.2
	c0.3,0.3,0.7,0.8,1.1,1.4L230.8,125.4L230.8,125.4z"/>
<path class="st0" d="M242,119h4.4v2h-0.7v0.4h-2.2v0.6h1.9v4.5h-2.6v1.3c0,0.2,0.1,0.3,0.4,0.3h1.8c0.2,0,0.4-0.1,0.5-0.1
	c0.1-0.1,0.2-0.5,0.2-1.4l1,0.3c-0.1,1-0.3,1.6-0.5,1.7c-0.2,0.2-0.6,0.3-1.1,0.3h-2.4c-0.3,0-0.6-0.1-0.8-0.2
	c-0.2-0.2-0.3-0.4-0.3-0.6v-1.6h-1.2c-0.3,0.7-0.6,1.2-0.9,1.5c-0.5,0.5-1.5,0.8-2.9,1l-0.4-1c1.2-0.1,2-0.3,2.4-0.6
	c0.3-0.2,0.5-0.5,0.7-0.9h-2V122h1.8v-0.6h-2.1V121h-0.7v-2h4.3c-0.2-0.2-0.4-0.4-0.6-0.6l1.2-0.2C241.6,118.4,241.8,118.7,242,119
	L242,119z M239.3,119.9h-1.7v0.7h1.7V119.9z M244.3,123.3v-0.5h-5.8v0.5H244.3z M244.3,124.6V124h-5.8v0.6H244.3z M244.3,125.2h-5.8
	v0.5h5.8V125.2z M242.4,122v-0.6h-0.9v-0.8h0.9v-0.7h-2.2v0.7h0.9v0.8h-0.9v0.6H242.4z M245,127.3l-0.6,0.7
	c-0.2-0.2-0.6-0.5-1.1-0.8l0.6-0.6C244.4,126.9,244.7,127.1,245,127.3L245,127.3z M243.5,120.6h1.9v-0.7h-1.9V120.6z"/>
<path class="st0" d="M253.6,125.4c-0.2-0.4-0.6-0.8-1-1.4c-0.3-0.3-0.7-0.7-1.3-1.2l0.7-0.6c0.4,0.3,0.8,0.7,1.3,1.2
	c0.3,0.3,0.7,0.8,1.1,1.4L253.6,125.4L253.6,125.4z"/>
<path class="st0" d="M261.1,118.9v-0.7h1v0.7h1.8v0.9H262v0.6h1.7v0.8H262v0.7h1.9v0.9H259v-0.9h2.1v-0.7h-1.6v-0.8h1.6v-0.6h-1.9
	v-0.9H261.1z M263.6,128.1c0,0.3-0.1,0.5-0.3,0.7c-0.2,0.1-0.4,0.2-0.6,0.2h-1.3l-0.2-0.9l1.1,0.1c0.2,0,0.3-0.1,0.3-0.4v-0.7h-2.4
	v2h-1v-5.9h4.3L263.6,128.1L263.6,128.1z M262.7,124.9v-0.7h-2.4v0.7H262.7z M262.7,126.3v-0.6h-2.4v0.6H262.7z M268.8,122v1.8h0.7
	v0.9h-0.7v2h-2v1.4c0,0.4-0.1,0.6-0.2,0.8c-0.2,0.2-0.4,0.2-0.9,0.2h-1.1l-0.2-1c0.4,0.1,0.8,0.1,1,0.1c0.3,0,0.4-0.1,0.4-0.2v-1.3
	h-1.6v-0.9h1.6v-1.1H264v-0.9h1.8v-0.9h-1.6V122L268.8,122L268.8,122z M269.2,119.1c-1.2,0.3-2.9,0.5-4.9,0.5l-0.3-0.9
	c1.8,0,3.4-0.2,4.7-0.5L269.2,119.1z M265.7,121.6l-1,0.2c-0.1-0.5-0.3-1-0.5-1.6l0.9-0.3C265.4,120.4,265.6,121,265.7,121.6z
	 M267.5,121.4l-1,0.2c-0.2-0.6-0.3-1.1-0.6-1.6l0.9-0.3C267,120.2,267.3,120.8,267.5,121.4z M266.8,123.8h1.1v-0.9h-1.1V123.8z
	 M266.8,125.8h1.1v-1.1h-1.1V125.8z M269.2,119.8c-0.2,0.7-0.3,1.4-0.5,2l-0.9-0.3c0.2-0.5,0.4-1.1,0.5-1.9L269.2,119.8L269.2,119.8
	z"/>
<path class="st0" d="M276.8,124.9c-0.3,0.3-0.7,0.5-1.1,0.5s-0.8-0.2-1.1-0.5c-0.3-0.3-0.5-0.7-0.5-1.1c0-0.5,0.2-0.8,0.5-1.1
	c0.3-0.3,0.7-0.5,1.1-0.5s0.8,0.2,1.1,0.5c0.3,0.3,0.5,0.7,0.5,1.1C277.2,124.2,277.1,124.6,276.8,124.9z M276.2,123.2
	c-0.2-0.2-0.3-0.2-0.5-0.2c-0.2,0-0.4,0.1-0.5,0.2c-0.2,0.2-0.2,0.3-0.2,0.6c0,0.2,0.1,0.4,0.2,0.5c0.1,0.2,0.3,0.2,0.5,0.2
	c0.2,0,0.4-0.1,0.5-0.2c0.2-0.1,0.2-0.3,0.2-0.5C276.4,123.5,276.3,123.3,276.2,123.2z"/>
<path class="st1" d="M63.5,0.9H336"/>
<path class="st1" d="M63.5,153.2H336"/>
</svg>
