<svg width="173" height="103" viewBox="0 0 173 103" fill="none" xmlns="http://www.w3.org/2000/svg">
<path d="M172.59 0.0703125H0.109985V102.72H172.59V0.0703125Z" fill="#E8D0A4"/>
<path d="M16.07 31.8896H152.67" stroke="#581804" stroke-width="0.25" stroke-miterlimit="10"/>
<path d="M24.6 20.0202C24.6 20.1702 23.85 20.5302 23.18 20.5302H22.87V19.3402H21.61V20.3302C21.61 20.4802 20.87 20.8602 20.23 20.8602H19.92V15.7002H18.71V22.4502H23.77L24.67 21.0902L26.3 22.4702C26.22 22.6102 26.04 22.6502 25.71 22.6502H18.71V23.4002C18.71 23.5802 17.96 24.0302 17.31 24.0302H16.99V15.7002H15.32L15.27 15.4902H16.98V12.2302L19.16 12.4502C19.14 12.6302 19.05 12.7402 18.71 12.8002V15.5002H19.92V11.9502L22.06 12.1502C22.04 12.3302 21.95 12.4302 21.61 12.4802V15.4902H22.87V12.1502L25.05 12.3602C25.03 12.5402 24.94 12.6402 24.6 12.6902V15.3802L25.33 14.2802L26.77 15.5202C26.67 15.6602 26.52 15.7002 26.19 15.7002H24.61V20.0302L24.6 20.0202ZM21.61 19.1402H22.87V15.7002H21.61V19.1402Z" fill="#844E1A"/>
<path d="M36.44 17.26H35.01C35.93 18.5 37.85 19.04 39.54 19.26V19.41C38.9 19.6 38.49 20.19 38.31 21.07C37.54 20.71 36.86 20.29 36.29 19.74V23.57C36.29 23.69 35.5 24.02 34.93 24.02H34.6V18.52L35.37 18.6C35.14 18.2 34.94 17.77 34.77 17.27H33.81C33.51 17.81 33.12 18.28 32.64 18.69L33.34 18.75C33.33 18.92 33.23 18.98 32.92 19.03V20.21C32.9 21.79 32.18 23.37 28.35 24.03L28.3 23.91C30.82 22.96 31.23 21.55 31.23 20.2V19.65C30.39 20.11 29.39 20.46 28.27 20.71L28.2 20.52C29.84 19.78 31.06 18.61 31.7 17.27H31.4C31.4 17.44 31.06 17.99 29.71 17.99V11.95L31.52 12.69H36.3L36.93 11.79L38.61 13.06C38.54 13.16 38.4 13.29 38.15 13.34V17.39C38.15 17.39 37.67 17.81 36.42 17.81V17.27L36.44 17.26ZM33.04 12.88H31.42V14.83H33.04V12.88ZM31.42 17.05H33.04V15.03H31.42V17.05ZM36.44 12.88H34.7V14.83H36.44V12.88ZM34.7 17.05H36.44V15.03H34.7V17.05Z" fill="#844E1A"/>
<path d="M52.69 16.7596C52.61 16.8996 52.43 16.9396 52.11 16.9396H49.72C49.33 17.4996 48.78 18.2296 48.3 18.7496H50.23L50.85 17.8696L52.5 19.1196C52.42 19.2396 52.24 19.3596 51.96 19.4296V22.0696C51.96 23.1096 51.76 23.8996 50.31 24.0396C50.31 23.0496 50.31 22.5796 50 22.3996V23.3296C49.99 23.3896 49.64 23.6096 49.07 23.6096H48.87V18.9496H48.52V23.3896C48.51 23.4396 48.16 23.6696 47.59 23.6696H47.39V18.9496H47.03V23.3896C47.03 23.3896 46.82 23.9896 45.54 23.9896V18.0696L47.11 18.7396H47.73C47.79 18.1896 47.84 17.4496 47.85 16.9296H45.08L45.06 16.8296H43.94V20.0096C44.45 19.9296 44.99 19.8296 45.52 19.7396V19.8596C44.89 20.4096 43.85 21.1796 42.27 22.1896C42.2 22.3696 42.07 22.4996 41.91 22.5396L41.12 20.4396C41.39 20.3996 41.81 20.3496 42.32 20.2696V16.8396H41.33L41.27 16.6396H42.32V13.3396H41.2L41.15 13.1396H43.63L44.34 11.9496L45.59 13.1296V12.5996L47.52 12.7696C47.5 12.9096 47.44 12.9896 47.17 13.0396V14.9896H47.91V11.8496L49.97 12.0696C49.95 12.2396 49.85 12.3496 49.52 12.3896V14.9896H50.28V12.6196L52.34 12.7996C52.32 12.9696 52.23 13.0796 51.89 13.1296V15.5496C51.89 15.5996 51.69 15.6896 51.41 15.7696L52.67 16.7796L52.69 16.7596ZM45.53 16.6596C45.53 16.6596 45.49 16.7096 45.46 16.7396H50.3L50.92 15.8396C50.68 15.8696 50.65 15.8696 50.3 15.8696V15.1796H47.19V15.7896C47.19 15.7896 46.88 16.1496 45.61 16.1496V13.2096C45.5 13.3096 45.34 13.3396 45.09 13.3396H43.95V16.5196L44.47 15.5596L45.53 16.6696V16.6596ZM50.36 18.9496H50V22.1496H50.3C50.3 22.1496 50.36 22.0896 50.36 21.9596V18.9496Z" fill="#844E1A"/>
<path d="M64.5 19.3896L65.74 20.5496C65.66 20.6896 65.5 20.7296 65.17 20.7296H54.21L54.16 20.5196H55.66V13.6296L57.41 14.3296H57.91V11.8496L59.83 12.0396C59.81 12.1796 59.72 12.2596 59.46 12.2996V14.3396H60.08V11.8596L62.01 12.0496C61.99 12.1896 61.9 12.2696 61.64 12.3196V14.3396H62.16L62.86 13.3696L64.54 14.5996C64.46 14.7396 64.31 14.8196 64 14.8696V20.2096L64.5 19.3896ZM59.63 21.8496C59.56 21.9896 59.4 22.0696 59.13 22.0696C59.06 22.0696 58.99 22.0696 58.9 22.0596C57.89 22.8896 56.16 23.6296 54.34 24.0196L54.29 23.8996C55.65 23.1096 56.97 21.7596 57.56 20.7396L59.62 21.8496H59.63ZM57.9 14.5496H57.31V17.3696H57.9V14.5496ZM57.31 20.5296H57.9V17.5696H57.31V20.5296ZM60.07 14.5496H59.45V17.3696H60.07V14.5496ZM60.07 20.5296V17.5696H59.45V20.5296H60.07ZM60.69 21.2496C64.25 21.4396 65.32 22.3896 65.32 23.1196C65.32 23.6096 64.83 23.9996 64.3 23.9996C64.03 23.9996 63.74 23.8996 63.5 23.6496C63.05 22.9996 62.17 22.0396 60.64 21.3796L60.69 21.2396V21.2496ZM62.26 14.5496H61.63V17.3696H62.26V14.5496ZM61.63 17.5696V20.5296H62.26V17.5696H61.63Z" fill="#844E1A"/>
<path d="M80.92 14.6301L82.06 15.7902C81.98 15.8802 81.89 15.9002 81.68 15.9302C81.41 16.1702 81 16.4802 80.62 16.7102L80.91 16.9202C80.83 17.0402 80.7 17.0702 80.44 17.0702H76.3L77.62 17.4501C77.59 17.5701 77.5 17.6401 77.25 17.6301C76.93 17.9801 76.46 18.3702 75.94 18.7102C76.9 18.7102 78.03 18.6802 79.25 18.6602C78.97 18.3702 78.66 18.1002 78.36 17.9002L78.4 17.8202C80.56 17.7602 81.27 18.5802 81.27 19.2402C81.27 19.6602 80.98 20.0101 80.58 20.0101C80.45 20.0101 80.32 19.9702 80.17 19.8902C80.01 19.6002 79.78 19.3002 79.54 19.0102C78.87 19.2002 78.06 19.3902 77.02 19.6202L78.58 19.7802C78.56 19.9102 78.48 20.0001 78.21 20.0401V21.1002H79.41L80.06 20.2301L81.25 21.1201C81.17 21.2401 81.05 21.2702 80.79 21.2702H78.22V23.2202H80.05L80.72 22.3102L81.94 23.2402C81.86 23.3602 81.74 23.3902 81.48 23.3902H73.12L73.07 23.2202H76.78V21.2702H73.98L73.93 21.1002H76.77V19.6702C76.19 19.7902 75.54 19.9302 74.83 20.0802C74.76 20.2102 74.65 20.2902 74.54 20.3102L73.77 18.7302C74.15 18.7402 74.69 18.7402 75.33 18.7302C75.5 18.2202 75.64 17.6002 75.72 17.1002H74.25L74.22 16.9902C74.09 17.0702 73.96 17.1402 73.75 17.1402C73.37 17.1402 73.02 16.9202 73.02 16.4702C73.02 16.1402 73.24 15.8802 73.53 15.7402C73.88 15.6102 74.31 15.2101 74.34 14.7701H74.46C74.54 14.9901 74.59 15.2001 74.62 15.3801H76.78V13.9102L78.6 14.1002C78.58 14.2402 78.5 14.3202 78.23 14.3602V15.3801H80.28L80.94 14.6602L80.92 14.6301ZM79.66 15.9902L80.25 16.4302C80.3 16.1402 80.34 15.7902 80.36 15.5102H74.63C74.63 15.6202 74.65 15.7302 74.65 15.8302C74.65 16.3202 74.51 16.6702 74.26 16.8902H78.99L79.66 15.9802V15.9902Z" fill="#844E1A"/>
<path d="M90.95 15.8196L92.3 16.8796C92.24 16.9596 92.12 17.0596 91.92 17.0996V22.0596C91.92 22.9696 91.74 23.5997 90.11 23.7997C90.11 22.6997 89.65 22.4296 88.8 22.2896V22.1796H90.34C90.45 22.1796 90.49 22.1397 90.49 22.0197V19.8997C90.19 20.1497 89.96 20.5097 89.86 20.8797C89.01 20.1297 88.48 19.1396 88.15 17.8596C87.76 18.9896 87.05 20.0997 85.54 20.8297V23.1897C85.54 23.2397 85.34 23.7796 84.14 23.7796V15.9296L85.65 16.5596H87.89C87.81 15.9896 87.74 15.3597 87.71 14.6897H86.06L86.01 14.5196H87.46L87.84 13.8896L88.87 14.6597C88.73 14.8297 88.41 14.9196 87.98 14.9496C88.07 15.5196 88.2 16.0596 88.38 16.5596H90.41L90.95 15.8096V15.8196ZM85.55 16.7297V20.5096C86.57 19.4396 86.96 17.9097 87.12 16.7297H85.55ZM88.45 16.7297V16.7496C88.88 17.8496 89.53 18.7496 90.5 19.3396V16.7297H88.45Z" fill="#844E1A"/>
<path d="M97.03 13.9102L98.25 15.2502C98.17 15.3702 98.05 15.4002 97.8 15.4102C97.44 15.9802 96.74 17.0302 96.23 17.6702C97.53 18.3402 98.1 19.1702 98.1 19.9602C98.1 20.9702 97.66 21.7302 96.37 21.8502C96.37 20.8302 96.13 20.6902 95.78 20.5802V20.4702H96.38C96.73 20.4702 96.76 20.0902 96.76 19.8602C96.76 19.1102 96.58 18.3302 96.07 17.7102C96.18 17.0202 96.34 15.6802 96.44 14.8902H95.73V23.3602C95.73 23.4602 95.33 23.8102 94.67 23.8102H94.43V14.1502L95.87 14.7202H96.34L97.03 13.9202V13.9102ZM103.22 16.0302C103.15 16.1402 103.01 16.1802 102.76 16.1802H100.75C100.75 16.3002 100.65 16.3902 100.38 16.4202C100.36 17.0302 100.34 17.6702 100.28 18.3002H101.17L101.7 17.5802L103.01 18.6301C102.94 18.7201 102.82 18.8001 102.61 18.8401C102.52 21.7501 102.36 22.9102 101.85 23.3502C101.49 23.6502 101.14 23.7802 100.47 23.7802C100.47 23.0002 100.39 22.6202 99.47 22.3902V22.2802C99.8 22.3002 100.35 22.3002 100.54 22.3002C100.69 22.3002 100.76 22.2902 100.83 22.2202C101.08 21.9902 101.19 20.8102 101.27 18.4802H100.26C100.06 20.4102 99.46 22.3202 97.31 23.7502L97.2 23.6302C98.92 21.2802 98.87 18.6701 98.88 16.2001H97.66L97.62 16.0302H99.7V13.9202L101.45 14.1002C101.43 14.2502 101.34 14.3202 101.07 14.3602V16.0302H101.52L102.12 15.1202L103.2 16.0502L103.22 16.0302Z" fill="#844E1A"/>
<path d="M112.16 19.4199L113.08 20.3099C113.01 20.4199 112.92 20.4599 112.67 20.4899C112.34 21.0599 111.93 21.5499 111.43 21.9799C112.16 22.1299 112.95 22.1899 113.76 22.2099V22.3299C113.19 22.5299 112.85 23.0399 112.72 23.7799C111.71 23.5599 110.86 23.2799 110.17 22.7899C109.2 23.2799 108.04 23.5999 106.71 23.7999L106.68 23.6799C107.8 23.3599 108.77 22.8799 109.54 22.2499C109.04 21.7199 108.65 21.0199 108.39 20.0899H107.86L107.81 19.9199H111.14L111.65 19.4099C110.86 19.3599 110.79 18.9999 110.79 17.9699V16.7799H109.53V17.7099C109.53 18.4599 109.28 19.4099 107.38 19.8799C107.2 21.2999 106.64 22.7599 105.04 23.7799L104.97 23.7099C105.69 22.5999 105.95 21.2699 106.04 19.9599C105.84 20.2699 105.58 20.6399 105.29 21.0299C105.25 21.1799 105.14 21.3099 105.01 21.3399L104.5 19.5899C104.77 19.5399 105.4 19.3899 106.09 19.2299C106.11 18.8599 106.11 18.4899 106.11 18.1399V17.7199C105.98 18.0199 105.7 18.2199 105.4 18.2199C105.18 18.2199 104.96 18.1099 104.79 17.8399C104.83 17.6599 104.84 17.4799 104.84 17.2899C104.84 16.8299 104.74 16.3499 104.56 16.0299L104.64 15.9799C105.53 16.2999 105.97 16.7199 106.11 17.0999V14.9999L107.69 15.5699H108.85V13.8799L110.77 14.0799C110.75 14.2399 110.65 14.3199 110.36 14.3599V15.5699H111.93L112.59 14.6199L113.8 15.5899C113.73 15.6999 113.6 15.7399 113.34 15.7399H107.5V18.1299C107.5 18.6299 107.5 19.1699 107.42 19.7199C108.16 19.1599 108.23 18.4099 108.23 17.7099V16.0499L109.74 16.5999H110.69L111.22 15.8499L112.47 16.8199C112.41 16.8999 112.3 16.9499 112.15 16.9799V17.9899C112.15 18.1099 112.15 18.1299 112.27 18.1299H112.77C112.84 18.1299 112.91 18.1299 112.96 18.0599C113.07 17.9099 113.21 17.5399 113.31 17.2999H113.38L113.41 18.0899C113.72 18.2399 113.75 18.3299 113.75 18.5699C113.75 19.0799 113.46 19.4099 112.67 19.4099H112.19L112.16 19.4199ZM108.54 20.0899C108.92 20.8099 109.5 21.2899 110.22 21.6099C110.63 21.1499 110.95 20.6499 111.19 20.0899H108.54Z" fill="#844E1A"/>
<path d="M123.01 17.2294L124.25 18.2294C124.18 18.3394 124.06 18.3794 123.78 18.3794H122.31C122.06 19.4994 121.74 20.4094 121.26 21.1494C122.96 21.6494 123.55 22.4694 123.55 23.0594C123.55 23.4894 123.25 23.7894 122.83 23.7894C122.7 23.7894 122.57 23.7594 122.42 23.6994C122.01 23.2594 121.31 22.6794 120.39 22.1194C119.35 22.9894 117.8 23.5094 115.35 23.7994L115.3 23.6794C117.18 23.1594 118.46 22.4994 119.33 21.5494C118.92 21.3394 118.49 21.1394 118.04 20.9794C117.94 21.1894 117.87 21.3794 117.79 21.5394C117.66 21.6094 117.49 21.6394 117.3 21.6394C117 21.6394 116.65 21.5694 116.3 21.4094C116.63 20.7094 117.14 19.5194 117.59 18.3894H115.11L115.06 18.2194H117.65C118 17.3194 118.31 16.4894 118.44 16.0194L120.25 16.3294C120.22 16.4894 120.11 16.5694 119.82 16.5794C119.67 16.9394 119.44 17.5494 119.17 18.2094H122.3L122.99 17.2294H123.01ZM122.19 17.2694C122.3 16.8894 122.4 16.2394 122.46 15.7694H116.77C116.8 15.9394 116.81 16.0794 116.81 16.2294C116.81 16.8594 116.52 17.4894 115.88 17.4894C115.5 17.4894 115.14 17.2694 115.14 16.8094C115.14 16.4894 115.37 16.2194 115.65 16.0694C115.99 15.8994 116.41 15.4394 116.42 14.9394H116.54C116.63 15.1794 116.69 15.3994 116.73 15.6094H118.92V13.8994L120.74 14.0894C120.72 14.2194 120.64 14.3094 120.37 14.3494V15.6094H122.36L123.04 14.8794L124.21 16.0694C124.13 16.1594 124.04 16.1894 123.83 16.1994C123.43 16.5794 122.77 17.0594 122.24 17.3294L122.17 17.2694H122.19ZM119.12 18.3694C118.8 19.1494 118.44 19.9994 118.15 20.6994C118.78 20.7194 119.34 20.7694 119.84 20.8494C120.27 20.1594 120.55 19.3494 120.72 18.3694H119.11H119.12Z" fill="#844E1A"/>
<path d="M127.17 18.06C127.58 18.94 127.74 19.67 127.74 20.28C127.74 21.16 127.33 22.1 126.5 22.1C126.05 22.1 125.75 21.8 125.75 21.38C125.75 21.11 125.9 20.85 126.11 20.66C126.61 20.28 127.12 19.27 127.08 18.07H127.18L127.17 18.06ZM128.11 14.35C128.46 14.31 128.78 14.29 129.07 14.29C130.83 14.29 131.44 15.05 131.44 15.7C131.44 16.19 131.1 16.61 130.63 16.61C130.5 16.61 130.37 16.58 130.22 16.51C129.97 15.93 129.25 15.03 128.1 14.46V14.36L128.11 14.35ZM128.37 17.05L130.11 17.19C130.11 17.31 130.04 17.4 129.77 17.45V21.91C129.77 22.23 129.8 22.25 130.07 22.25H131.25C131.44 22.25 131.55 22.25 131.67 22.07C131.8 21.89 131.98 21.38 132.23 20.68H132.29V22.15C132.74 22.36 132.8 22.45 132.8 22.65C132.8 23.23 132.46 23.54 131.24 23.54H130.01C128.66 23.54 128.37 23.23 128.37 21.87V17.04V17.05ZM132.26 17.78C134.2 18.7 134.84 19.9 134.84 20.82C134.84 21.6 134.38 22.16 133.88 22.16C133.64 22.16 133.38 22.03 133.16 21.7C133.18 21.52 133.19 21.34 133.19 21.13C133.19 20.11 132.95 18.82 132.18 17.85L132.25 17.78H132.26Z" fill="#844E1A"/>
<path d="M143.25 15.8402L144.51 17.0502C144.44 17.1702 144.35 17.2202 144.09 17.2402C142.86 19.0502 141.02 20.5502 138.73 21.5002C139.45 22.0002 140.48 22.0802 142.16 22.0802C142.87 22.0802 144.59 22.0802 145.35 22.0602V22.1702C144.89 22.2902 144.67 22.8502 144.67 23.4302H142.13C139.9 23.4302 138.82 22.9602 138.17 21.0902C137.92 21.7002 137.54 22.6202 137.31 23.0802C137.36 23.1502 137.38 23.2102 137.38 23.2802C137.38 23.3702 137.34 23.4502 137.28 23.5102L136.38 22.5002C136.81 22.1502 137.55 21.4302 137.98 20.9402L138.11 20.0902L138.69 20.2402L138.22 20.9902C138.34 21.1602 138.46 21.2902 138.61 21.4102C140.22 20.2802 141.7 18.5202 142.5 16.8402H136.96L136.91 16.6702H140.02V13.9902L141.84 14.1802C141.82 14.3102 141.74 14.4002 141.47 14.4402V16.6802H142.45L143.26 15.8702L143.25 15.8402Z" fill="#844E1A"/>
<path d="M154.76 19.2999L155.93 20.1699C155.86 20.2899 155.73 20.3199 155.47 20.3199H151.35L152.6 21.0599C152.54 21.1499 152.44 21.2099 152.25 21.2099C152.19 21.2099 152.11 21.2099 152.03 21.1899C151.51 21.5499 150.67 21.8699 149.77 22.0299C150.29 22.2399 150.98 22.2799 152.13 22.2799C153.21 22.2799 154.67 22.2799 155.9 22.2299V22.3499C155.39 22.4899 155.11 22.9099 155.04 23.5599H152.15C150.26 23.5599 149.52 23.2399 148.87 21.6199C148.49 22.2499 147.92 23.0699 147.54 23.5199C147.54 23.6699 147.47 23.7399 147.38 23.7799L146.7 22.2399C146.97 22.1499 147.34 21.9999 147.72 21.8499V18.6999H146.74L146.71 18.4999H147.56L148.18 17.6199L149.48 18.7399C149.4 18.8399 149.26 18.9399 148.98 18.9799V21.4699C149.16 21.6599 149.34 21.7999 149.54 21.9199C150.13 21.5099 150.72 20.8599 151.04 20.3299H149.33L149.28 20.1599H150.69V18.8599H149.64L149.6 18.6899H150.69V17.6299L152.27 17.7899C152.25 17.8999 152.19 17.9699 151.98 17.9999V18.6999H152.79V17.6399L154.4 17.8099C154.38 17.9099 154.31 17.9799 154.1 18.0199V18.6499L154.62 17.9299L155.68 18.7199C155.61 18.8399 155.48 18.8699 155.24 18.8699H154.1V20.1699H154.15L154.78 19.3199L154.76 19.2999ZM146.95 14.2199C148.48 14.4399 148.99 15.0699 148.99 15.5999C148.99 16.0599 148.61 16.4399 148.2 16.4399C148.01 16.4399 147.79 16.3599 147.61 16.1399C147.57 15.4799 147.31 14.7299 146.89 14.2699L146.95 14.2199ZM152.09 15.9399L152.11 16.5599C152.45 16.7199 152.48 16.7699 152.48 16.9199C152.48 17.3399 152.18 17.6199 151.35 17.6199H150.47C149.55 17.6199 149.38 17.3499 149.38 16.4299V15.1299L150.63 15.6399H150.78V14.6499H149.27L149.22 14.4799H150.69L151.1 13.9199L152.23 14.7399C152.18 14.8099 152.08 14.8899 151.91 14.9299V15.8199C151.91 15.8199 151.62 16.1399 150.78 16.1399V15.7999H150.5V16.4199C150.5 16.5466 150.553 16.6099 150.66 16.6099H151.32C151.6 16.6099 151.71 16.6099 152.04 15.9199H152.11L152.09 15.9399ZM151.96 18.8499V20.1499H152.77V18.8499H151.96ZM154.17 14.6599H152.53L152.48 14.4899H154.09L154.5 13.9199L155.66 14.7599C155.61 14.8199 155.51 14.9099 155.34 14.9399V15.8299C155.34 15.8299 155.04 16.1499 154.18 16.1499V15.8099H153.84V16.4299C153.84 16.5999 153.84 16.6199 154 16.6199H154.71C154.98 16.6199 155.12 16.6199 155.43 15.9299H155.5L155.52 16.5499C155.87 16.7099 155.9 16.7599 155.9 16.9099C155.9 17.3299 155.6 17.6199 154.75 17.6199H153.83C152.9 17.6199 152.72 17.3399 152.72 16.4199V15.1099L153.98 15.6299H154.19V14.6399L154.17 14.6599ZM152.69 20.5099C154.85 20.5499 155.52 21.0399 155.52 21.4799C155.52 21.8199 155.09 22.1299 154.65 22.1299C154.42 22.1299 154.2 22.0499 154.01 21.8599C153.8 21.4799 153.34 20.9799 152.65 20.6299L152.69 20.5199V20.5099Z" fill="#844E1A"/>
<path d="M55.6 91.0999H53.99V84.8398H55.58C56.57 84.8398 57.33 85.1098 57.89 85.6498C58.46 86.2098 58.74 86.9798 58.74 87.9798C58.74 90.0598 57.69 91.0999 55.6 91.0999ZM55.5 85.7298H54.88V90.2099H55.85C56.51 90.2099 57 90.0099 57.34 89.5999C57.65 89.2199 57.81 88.6799 57.81 87.9899C57.81 86.4899 57.03 85.7298 55.5 85.7298Z" fill="#40220F"/>
<path d="M63.52 90.5796C63.14 91.0196 62.59 91.2296 61.88 91.2296C61.17 91.2296 60.62 91.0196 60.24 90.5796C59.85 90.1496 59.66 89.5696 59.66 88.8396V84.8496H60.55V88.8996C60.55 89.3296 60.67 89.6796 60.91 89.9496C61.15 90.2196 61.48 90.3396 61.9 90.3396C62.32 90.3396 62.64 90.2196 62.88 89.9496C63.12 89.6796 63.24 89.3396 63.24 88.8996V84.8496H64.13V88.8396C64.13 89.5696 63.94 90.1496 63.56 90.5796H63.52Z" fill="#40220F"/>
<path d="M68.52 91.0999C68.43 90.9799 68.36 90.7098 68.3 90.2798C68.26 89.9698 68.23 89.6698 68.19 89.3598C68.14 88.9798 68.08 88.7499 68.01 88.6599C67.92 88.5599 67.68 88.5098 67.31 88.5098H66.07V91.0999H65.18V84.8398H67.29C67.89 84.8398 68.36 84.9898 68.7 85.2898C69.06 85.6198 69.25 86.0898 69.25 86.6998C69.25 86.9698 69.18 87.2199 69.04 87.4599C68.89 87.6999 68.71 87.8798 68.49 88.0098C68.84 88.1998 69.04 88.5698 69.09 89.1098C69.11 89.3398 69.15 89.7299 69.23 90.2999C69.27 90.5899 69.4 90.8499 69.66 91.0999H68.52ZM67.21 85.7399H66.07V87.6198H67.06C67.41 87.6198 67.7 87.5499 67.93 87.4099C68.19 87.2499 68.32 87.0098 68.32 86.6998C68.32 86.0698 67.95 85.7399 67.21 85.7399Z" fill="#40220F"/>
<path d="M72.78 91.2297C71.93 91.2297 71.27 90.8897 70.81 90.1997C70.41 89.6097 70.21 88.8797 70.21 87.9797C70.21 87.0797 70.4 86.3597 70.79 85.7597C71.25 85.0697 71.89 84.7197 72.73 84.7197C73.35 84.7197 73.85 84.8897 74.22 85.2197C74.6 85.5797 74.81 86.0997 74.83 86.7697H73.92C73.87 85.9897 73.47 85.5997 72.73 85.5997C72.2 85.5997 71.79 85.8697 71.5 86.3897C71.24 86.8397 71.13 87.3697 71.13 87.9697C71.13 89.5497 71.75 90.3397 73 90.3397C73.33 90.3397 73.65 90.2697 73.97 90.1397V88.5497H72.58V87.6597H74.86V90.7397C74.34 91.0697 73.65 91.2197 72.78 91.2197V91.2297Z" fill="#40220F"/>
<path d="M80.31 90.2497C79.83 90.8997 79.14 91.2297 78.27 91.2297C77.4 91.2297 76.71 90.8997 76.24 90.2497C75.81 89.6697 75.6 88.9197 75.6 87.9897C75.6 87.0597 75.81 86.3097 76.23 85.7197C76.7 85.0597 77.39 84.7197 78.28 84.7197C79.17 84.7197 79.85 85.0597 80.32 85.7197C80.74 86.3097 80.95 87.0597 80.95 87.9897C80.95 88.9197 80.73 89.6597 80.31 90.2497ZM79.62 86.3697C79.3 85.8697 78.85 85.6097 78.27 85.6097C77.69 85.6097 77.24 85.8597 76.93 86.3597C76.66 86.7997 76.53 87.3397 76.53 87.9897C76.53 88.6397 76.67 89.1797 76.94 89.5997C77.25 90.0997 77.7 90.3397 78.28 90.3397C78.86 90.3397 79.3 90.0997 79.62 89.5997C79.88 89.1797 80.02 88.6397 80.02 87.9897C80.02 87.3397 79.88 86.7997 79.62 86.3697Z" fill="#40220F"/>
<path d="M84.4 89.9799H82.77V90.9599H81.95V84.0199H84.4V89.9799ZM83.59 89.1899V84.7999H82.77V89.1899H83.59ZM89.26 83.6399C89.06 84.6999 88.85 85.5899 88.63 86.2999H89.86C89.55 87.9399 89.11 89.1799 88.55 90.0199C88.99 90.4999 89.49 90.8899 90.05 91.2099L89.58 92.1499C88.9 91.6999 88.35 91.2399 87.93 90.7799C87.35 91.3499 86.57 91.8099 85.62 92.1499L85.02 91.2899C86.08 90.9599 86.86 90.5599 87.37 90.0799C86.86 89.3499 86.47 88.4999 86.19 87.4999C86.01 88.4599 85.8 89.2499 85.54 89.8599C85.24 90.5899 84.77 91.3499 84.15 92.1499L83.4 91.4699C84.23 90.5099 84.82 89.4599 85.19 88.3099C85.49 87.3399 85.65 86.3199 85.65 85.2499V84.4599H84.73V83.6299H89.26V83.6399ZM86.59 85.2499C86.59 86.3599 86.88 87.4599 87.47 88.5299C87.63 88.8199 87.79 89.0799 87.97 89.3199C88.32 88.7499 88.6 88.0099 88.82 87.0799H87.55C87.75 86.4799 87.97 85.6099 88.22 84.4599H86.6V85.2499H86.59Z" fill="#40220F"/>
<path d="M93.46 83.5296C93.37 83.7196 93.28 83.8896 93.2 84.0596H98.78V84.8496H92.76C92.32 85.5796 91.87 86.1596 91.4 86.6096L90.8 85.8196C91.59 85.0796 92.2 84.2596 92.62 83.3496L93.48 83.5296H93.46ZM98.02 86.5996C97.97 86.9896 97.95 87.5396 97.95 88.2496C97.95 89.4696 97.99 90.2996 98.06 90.7496C98.11 90.9796 98.16 91.0996 98.23 91.0996C98.32 91.0996 98.42 90.6396 98.55 89.7196L99.19 90.1696C99.04 91.0896 98.89 91.6696 98.71 91.9196C98.58 92.0696 98.42 92.1596 98.24 92.1596C98.01 92.1596 97.8 92.0496 97.62 91.8596C97.46 91.7096 97.35 91.3796 97.26 90.8996C97.15 90.1796 97.1 89.2996 97.1 88.2496C97.1 87.9296 97.1 87.6396 97.14 87.3596H94.43V88.7796H95.03C95.26 88.4196 95.46 88.0196 95.64 87.5796L96.42 87.8396C96.26 88.1896 96.07 88.4996 95.87 88.7796H96.81V89.5296H94.42V92.1596H93.56V89.5896C93.36 90.0096 93.15 90.3596 92.91 90.6296C92.53 91.0796 91.97 91.5196 91.24 91.9696L90.78 91.1796C91.49 90.7996 91.99 90.4496 92.29 90.1296C92.45 89.9696 92.61 89.7696 92.76 89.5296H91.04V88.7796H92.2C92.04 88.4996 91.83 88.1996 91.58 87.8796L92.29 87.6196C92.54 87.9496 92.76 88.3396 92.97 88.7796H93.56V87.3596H91.57V86.5996H98.02ZM98.27 85.3696V86.0796H92.81V85.3696H98.27ZM96.91 90.9796L96.45 91.7396C95.82 91.2196 95.18 90.8096 94.52 90.4996L94.91 89.8596C95.63 90.1896 96.3 90.5596 96.9 90.9796H96.91Z" fill="#40220F"/>
<path d="M103.74 86.5994H102.78L103.21 87.0094C103.05 87.3594 102.86 87.6894 102.67 87.9994V91.8894H101.96V89.0194C101.81 89.1894 101.68 89.3694 101.53 89.5294L101.04 88.8594C101.64 88.2494 102.19 87.4994 102.67 86.5994H100.96V92.1594H100.14V83.6494H103.74V86.6094V86.5994ZM102.93 84.8094V84.3194H100.97V84.8094H102.93ZM102.93 85.9294V85.3994H100.97V85.9294H102.93ZM108.06 83.6494V91.2194C108.06 91.5394 107.97 91.7794 107.8 91.9394C107.64 92.0794 107.38 92.1594 107.03 92.1594H106.56L106.44 91.5594C106.44 91.5594 106.36 91.6394 106.33 91.6694C106.2 91.7694 106.07 91.8194 105.92 91.8194C105.66 91.8194 105.39 91.6894 105.13 91.4294C104.93 91.2294 104.76 90.9794 104.62 90.6694C104.24 90.8594 103.78 91.0294 103.25 91.1894L102.86 90.5594C103.43 90.4094 103.93 90.2094 104.34 89.9994C104.32 89.9494 104.3 89.8994 104.29 89.8594C104.22 89.5794 104.15 89.2694 104.12 88.9294L103 89.1694L102.9 88.4594L104.05 88.2094C104.01 87.7994 104 87.3494 104 86.8494H104.71C104.71 87.2894 104.71 87.6894 104.75 88.0594L105.63 87.8694C105.48 87.6394 105.29 87.3894 105.07 87.1094L105.57 86.7694C105.86 87.0494 106.1 87.2894 106.28 87.4794L105.81 87.8294L106.67 87.6394L106.77 88.3494L104.83 88.7794C104.87 89.0994 104.93 89.3694 105 89.5994C105.28 89.3794 105.57 89.0894 105.89 88.7294L106.49 89.0694C106.14 89.5494 105.74 89.9394 105.29 90.2694C105.54 90.7494 105.72 90.9894 105.85 90.9894C105.99 90.9894 106.15 90.6994 106.35 90.1294L106.95 90.5394C106.82 90.8894 106.7 91.1494 106.59 91.3494L106.84 91.3694C107.08 91.3694 107.2 91.2494 107.2 90.9994V86.6394H104.43V83.6794H108.06V83.6494ZM107.2 84.8094V84.3194H105.21V84.8094H107.2ZM107.2 85.4094H105.21V85.9394H107.2V85.4094Z" fill="#40220F"/>
<path d="M89.64 49.5896C90.27 50.1896 90.07 50.6796 89.68 51.2396C88.06 53.6196 86.1 55.5496 83.17 56.1796C80.9 56.6696 78.68 56.4096 76.57 55.4996C75.54 55.0496 74.53 54.9196 73.46 55.2496C72.6 55.5096 71.81 55.3296 71.07 54.8496C71.16 53.6196 72.61 53.1996 72.94 52.1396C72.78 52.0096 72.62 51.8896 72.46 51.7596C71.87 52.4896 71.28 53.2096 70.52 54.1496C70.15 52.9896 69.84 52.0796 69.59 51.1596C69.55 50.9996 69.77 50.6896 69.95 50.5796C70.47 50.2696 71.04 50.0496 71.56 49.7596C71.78 49.6396 71.93 49.3996 72.11 49.2096C72.03 49.1096 71.95 48.9996 71.87 48.8996C71.08 49.2596 70.29 49.6196 69.42 50.0196C69.42 48.9596 69.39 47.9396 69.44 46.9196C69.45 46.7096 69.74 46.4096 69.96 46.3496C70.65 46.1496 71.36 46.0496 72.06 45.8796C72.33 45.8096 72.58 45.6496 72.84 45.5196C72.8 45.3896 72.76 45.2696 72.72 45.1396C71.75 45.2996 70.79 45.4496 69.83 45.6096C69.86 44.1296 71.54 42.0796 73.03 41.8696C73.74 41.7696 74.47 41.8396 75.19 41.7996C75.81 41.7696 76.46 41.8196 77.03 41.6296C79.04 40.9596 81.08 40.5896 83.15 41.0996C84.22 41.3696 85.2 41.9996 86.25 42.3796C86.66 42.5296 87.15 42.4696 87.61 42.4296C87.86 42.4096 88.08 42.2196 88.33 42.1596C89.75 41.7796 90.81 42.4996 90.8 43.9596C90.8 44.8496 91.05 45.5396 91.53 46.2596C92.91 48.3596 92.53 50.5296 91.73 52.5596C90.71 50.5396 89.66 48.4596 88.61 46.3696C88.51 46.4096 88.41 46.4396 88.31 46.4796C88.52 47.0596 88.62 47.7096 88.96 48.1996C89.48 48.9596 89.38 49.5096 88.6 50.0796C87.52 48.9696 86.71 47.6696 86.43 46.1696C86.18 44.7896 85.36 44.1896 84.17 43.7696C82.02 43.0196 79.97 43.1896 78.04 44.3996C76.08 45.6296 75.23 47.4496 75.61 49.5296C75.99 51.5896 77.63 53.1796 79.86 53.5396C83.55 54.1196 86.61 52.8996 89.12 50.1896C89.29 49.9996 89.45 49.7996 89.64 49.5796V49.5896ZM88.99 45.6096C89.71 45.6096 90.1 45.2096 90.12 44.6096C90.14 43.9996 89.75 43.5696 89.12 43.5496C88.5 43.5296 88.09 43.8996 88.07 44.5396C88.05 45.1796 88.45 45.5096 89 45.5996L88.99 45.6096Z" fill="#40220F"/>
<path d="M50.36 73.2794V62.0194C50.43 61.9594 50.47 61.8994 50.52 61.8994C52.74 61.9394 54.97 61.8094 57.16 62.0794C59.88 62.4094 61.81 64.9894 61.71 67.7594C61.61 70.6494 59.5 73.0694 56.72 73.2594C54.63 73.3994 52.53 73.2894 50.36 73.2894V73.2794ZM53.25 71.0594C53.97 71.0594 54.6 71.0594 55.22 71.0594C57.95 71.0594 59.56 68.4494 58.37 65.9794C57.58 64.3494 55.36 63.6194 53.25 64.3194V71.0694V71.0594Z" fill="#40220F"/>
<path d="M106.1 73.6396C102.99 73.5196 100.96 72.6296 99.84 70.3596C98.74 68.1396 98.9 65.9096 100.43 63.9396C102.2 61.6696 104.68 61.2896 107.3 61.8996C109.7 62.4596 111.21 64.0496 111.63 66.5096C112.07 69.0796 111.28 71.2396 109.02 72.5996C107.98 73.2296 106.68 73.4396 106.09 73.6496L106.1 73.6396ZM108.75 67.6796C108.77 65.5696 107.45 64.0896 105.52 64.0796C103.58 64.0696 102.18 65.4996 102.14 67.5596C102.1 69.5796 103.5 71.1396 105.4 71.1796C107.31 71.2196 108.73 69.7396 108.75 67.6696V67.6796Z" fill="#40220F"/>
<path d="M97.53 65.1795C95.92 64.4795 94.44 63.9095 92.8 64.0795C91.39 64.2295 90.31 64.8596 89.84 66.2396C89.35 67.6996 89.48 69.1395 90.63 70.2595C91.69 71.2995 93.06 71.4895 94.4 70.9395C94.73 70.7995 94.81 70.0495 95.07 69.4295C94.32 69.3595 93.85 69.3195 93.32 69.2795V67.3095H97.73C97.73 68.8295 97.75 70.3696 97.71 71.9096C97.71 72.0896 97.4 72.2995 97.19 72.4295C95.03 73.7195 92.74 73.9896 90.38 73.1596C87.76 72.2396 86.37 69.7096 86.71 66.7096C87.01 64.0596 89.16 62.0395 92.02 61.7295C93.62 61.5595 95.18 61.7296 96.69 62.3196C97.31 62.5596 97.64 62.8695 97.55 63.5795C97.49 64.0595 97.54 64.5495 97.54 65.1895L97.53 65.1795Z" fill="#40220F"/>
<path d="M76.51 62.0094C78.57 62.0094 80.53 61.8794 82.48 62.0494C84.19 62.1994 84.95 63.0294 85.21 64.4794C85.48 65.9594 84.95 67.0794 83.62 67.8094C83.57 67.8394 83.54 67.8894 83.49 67.9594C85.01 69.4194 85.39 71.4694 86.53 73.3894C85.36 73.3894 84.42 73.4194 83.49 73.3694C83.32 73.3694 83.1 73.0694 83 72.8594C82.55 71.9194 82.16 70.9594 81.71 70.0294C81.54 69.6794 81.32 69.2494 81.01 69.0794C80.58 68.8394 80.04 68.8094 79.55 68.6794C79.46 69.0694 79.3 69.4594 79.29 69.8594C79.25 71.0094 79.28 72.1494 79.28 73.3494H76.52V62.0194L76.51 62.0094ZM79.33 66.6094C80.33 66.4694 81.44 66.9894 82.07 65.9494C82.29 65.5794 82.26 64.7994 82.01 64.4494C81.35 63.5394 80.31 63.9394 79.34 63.8894V66.6094H79.33Z" fill="#40220F"/>
<path d="M63.29 61.9094H66.06C66.06 63.8194 66.05 65.6894 66.06 67.5494C66.06 68.1194 66.1 68.7094 66.2 69.2694C66.43 70.4894 67.3 71.1694 68.6 71.2094C69.87 71.2494 70.82 70.5894 71.1 69.3994C71.21 68.9594 71.25 68.4894 71.25 68.0294C71.27 66.0094 71.25 63.9994 71.25 61.9194H74.12C74.12 63.1494 74.14 64.3594 74.12 65.5594C74.1 66.8894 74.12 68.2194 73.99 69.5294C73.81 71.2794 72.83 72.5194 71.17 73.1494C69.4 73.8094 67.6 73.7894 65.86 73.0394C64 72.2394 63.25 70.6494 63.19 68.7394C63.12 66.5794 63.17 64.4094 63.18 62.2494C63.18 62.1394 63.24 62.0294 63.27 61.8994L63.29 61.9094Z" fill="#40220F"/>
<path d="M78.96 51.5894C78.96 49.7094 78.94 47.9294 78.99 46.1594C78.99 45.9794 79.36 45.6594 79.56 45.6594C80.48 45.6394 81.4 45.6594 82.31 45.7494C83.82 45.9194 84.82 47.1294 84.8 48.6594C84.78 50.2294 83.73 51.4594 82.19 51.5694C81.16 51.6494 80.12 51.5894 78.95 51.5894H78.96ZM80.46 50.3994C81.5 50.4594 82.47 50.5894 83.06 49.5794C83.44 48.9294 83.36 47.9194 82.85 47.3994C82.17 46.6994 81.33 46.7694 80.45 46.8694V50.3994H80.46Z" fill="#40220F"/>
<path d="M94.35 44.1094C93.67 44.8694 92.98 45.6194 92.29 46.3794C91.86 46.0394 91.82 45.6794 92.27 45.3394C92.91 44.8494 93.57 44.3794 94.21 43.8994C94.26 43.9694 94.3 44.0394 94.35 44.1094Z" fill="#40220F"/>
<path d="M89.48 44.5795C89.48 44.7695 89.32 44.9295 89.13 44.9295C88.94 44.9295 88.78 44.7695 88.78 44.5795C88.78 44.3895 88.94 44.2295 89.13 44.2295C89.32 44.2295 89.48 44.3895 89.48 44.5795Z" fill="#40220F"/>
</svg>
