<?xml version="1.0" encoding="utf-8"?>
<!-- Generator: Adobe Illustrator 27.0.0, SVG Export Plug-In . SVG Version: 6.00 Build 0)  -->
<svg version="1.1" id="圖層_1" xmlns="http://www.w3.org/2000/svg" xmlns:xlink="http://www.w3.org/1999/xlink" x="0px" y="0px"
	 viewBox="0 0 120 92" style="enable-background:new 0 0 120 92;" xml:space="preserve">
<style type="text/css">
	.st0{fill:#3E3A39;}
	.st1{fill:#C79F62;}
</style>
<g>
	<g>
		<g>
			<path class="st0" d="M2.9,40.7c-0.5,0.9-0.9,1.6-1.4,2.2c0.1,0,0.3,0,0.4,0c1.1,0,2.2-0.1,3.2-0.3c-0.3-0.4-0.6-0.7-0.9-1.1
				l0.5-0.5c0.7,0.8,1.3,1.5,1.7,2.3l-0.5,0.5c-0.1-0.2-0.2-0.4-0.4-0.6c-1.4,0.2-3.2,0.3-5.3,0.3l-0.1-0.8c0.2,0,0.5,0,0.7,0.1
				c0.5-0.6,0.9-1.4,1.4-2.4L2.9,40.7z M5.9,47.2H5.2v-0.4H1.3v0.4H0.6v-3.1h5.3V47.2z M5.2,46.1v-1.4H1.3v1.4H5.2z"/>
			<path class="st0" d="M10.3,40.6v5c0.2-0.1,0.4-0.2,0.7-0.2v0.7c-0.9,0.3-2,0.7-3.3,1l-0.2-0.8C8.2,46.2,9,46,9.7,45.8v-2.4h-2
				v-0.7h2v-2.2H10.3z M12,40.6V43c0.7-0.3,1.3-0.6,1.7-1l0.4,0.6c-0.6,0.4-1.3,0.8-2.1,1.1v2.2c0,0.1,0,0.2,0.1,0.3
				c0.1,0.1,0.1,0.1,0.2,0.1h0.8c0.1,0,0.2,0,0.2-0.1c0.1-0.1,0.1-0.5,0.2-1.4l0.7,0.2c-0.1,0.9-0.2,1.5-0.3,1.6
				c-0.2,0.2-0.4,0.3-0.6,0.3h-1.1c-0.3,0-0.5-0.1-0.6-0.2c-0.2-0.2-0.3-0.4-0.3-0.7v-5.5H12z"/>
			<path class="st0" d="M15.7,42.8v-0.6c0.5-0.1,0.9-0.1,1.1-0.3c0.2-0.1,0.4-0.4,0.5-0.9h0.6V47h-0.8v-4.2H15.7z"/>
			<path class="st0" d="M23.4,42c0.3,0.5,0.4,1.2,0.4,2c0,0.8-0.1,1.5-0.4,2c-0.3,0.8-0.9,1.1-1.7,1.1c-0.7,0-1.2-0.3-1.6-0.9
				c-0.3-0.5-0.4-1.2-0.4-2.1c0-0.7,0.1-1.3,0.3-1.7c0.3-0.9,0.9-1.4,1.8-1.4C22.5,41.1,23.1,41.4,23.4,42z M22.7,46
				c0.2-0.3,0.3-1,0.3-1.9c0-0.7-0.1-1.2-0.2-1.7c-0.2-0.4-0.5-0.7-1-0.7c-0.4,0-0.8,0.2-1,0.6c-0.2,0.4-0.3,1-0.3,1.8
				c0,0.6,0.1,1.1,0.2,1.5c0.2,0.6,0.5,0.8,1,0.8C22.1,46.5,22.4,46.3,22.7,46z"/>
			<path class="st0" d="M25,42.8v-0.6c0.5-0.1,0.9-0.1,1.1-0.3c0.2-0.1,0.4-0.4,0.5-0.9h0.6V47h-0.8v-4.2H25z"/>
			<path class="st0" d="M30.1,45.4c0,0.7-0.1,1.3-0.3,1.8l-0.6-0.2c0.2-0.5,0.3-1,0.3-1.6L30.1,45.4z M31.2,40.7
				c-0.2,0.6-0.5,1.2-0.8,1.7c0.2,0,0.4,0,0.7-0.1c0.2-0.3,0.3-0.6,0.5-1l0.6,0.2c-0.5,1.1-1.1,2.1-1.6,2.8c0.4,0,0.7-0.1,1-0.2
				c-0.1-0.3-0.1-0.5-0.2-0.7l0.5-0.2c0.2,0.5,0.3,1,0.4,1.6L31.7,45c0-0.1,0-0.2-0.1-0.3c-0.5,0.1-1.2,0.2-2.1,0.3l-0.2-0.6
				c0.2,0,0.3,0,0.4,0c0.3-0.4,0.6-0.9,1-1.5c-0.4,0.1-0.9,0.1-1.4,0.2l-0.1-0.6c0.1,0,0.3,0,0.4,0c0.3-0.6,0.6-1.3,0.9-2L31.2,40.7
				z M31.1,46.8l-0.6,0.1c0-0.6-0.1-1.1-0.1-1.5l0.5-0.1C31,45.7,31.1,46.2,31.1,46.8z M32.2,46.5l-0.6,0.2c-0.1-0.5-0.2-1-0.3-1.4
				l0.5-0.1C32,45.6,32.1,46.1,32.2,46.5z M33.8,41.4v-0.9h0.7v0.9H36V42h-1.5v1h1.3v0.6h-3.3V43h1.3v-1h-1.6v-0.6H33.8z M35.7,47.2
				h-0.6v-0.3h-1.9v0.3h-0.6v-2.9h3.2V47.2z M35.1,46.2v-1.4h-1.9v1.4H35.1z"/>
			<path class="st0" d="M37.8,41.9v-1.4h0.6v1.4h0.7v0.6h-0.7v0.2c0.2,0.3,0.5,0.6,0.7,1l-0.4,0.6c-0.1-0.3-0.3-0.5-0.4-0.7v3.6
				h-0.6v-3.3c-0.2,0.5-0.4,0.9-0.6,1.3L37,44.3c0.3-0.5,0.6-1.1,0.8-1.8H37v-0.6H37.8z M40.1,41.1v-0.5h0.6v0.5h1.2v-0.5h0.6v0.5h1
				v0.5h-1v0.3h0.8v0.5h-0.8v0.4h1.1v0.5h-2v0.3h1.6v1.8h0.4v0.5h-0.4v0.6c0,0.2-0.1,0.4-0.2,0.5c-0.1,0.1-0.2,0.1-0.4,0.1h-0.9
				l-0.1-0.6l0.8,0c0.1,0,0.2-0.1,0.2-0.3v-0.4h-2.6v1.2h-0.6v-1.2h-0.6v-0.5h0.6v-1.8H41v-0.3h-1.9v-0.5h1v-0.4h-0.7v-0.5h0.7v-0.3
				h-0.9v-0.5H40.1z M41,44.5v-0.4h-0.9v0.4H41z M41,45.4V45h-0.9v0.4H41z M41.9,41.6h-1.2v0.3h1.2V41.6z M41.9,42.8v-0.4h-1.2v0.4
				H41.9z M41.6,44.5h1v-0.4h-1V44.5z M42.6,45.4V45h-1v0.4H42.6z"/>
			<path class="st0" d="M48.1,41.1c-0.8,0.1-1.6,0.2-2.5,0.2v0.3h2.5v1.5h-1.8l0.3,0.1c-0.1,0.2-0.1,0.3-0.2,0.4h0.7
				c-0.1-0.1-0.1-0.2-0.2-0.4l0.5-0.2c0.1,0.2,0.2,0.3,0.3,0.5h0.6v0.5h-0.7v0.3h0.6V45h-0.6v0.4h0.6v0.4h-0.6v0.4h0.7v0.5h-1.9V47
				h-0.5v-2.5c-0.1,0.1-0.2,0.2-0.2,0.3l-0.1-0.4c0,0.4-0.1,0.8-0.1,1.2c-0.1,0.5-0.2,1.1-0.3,1.6l-0.4-0.5c0.1-0.4,0.2-0.8,0.2-1.3
				c0-0.5,0.1-1,0.1-1.6v-2.9c1.1,0,2-0.1,2.8-0.3L48.1,41.1z M45.9,43.7c0.1-0.1,0.2-0.3,0.3-0.6h-0.6v0.7c0,0.1,0,0.2,0,0.3
				C45.7,43.9,45.8,43.8,45.9,43.7z M47.5,42.6v-0.5h-1.9v0.5H47.5z M47.1,44.2h-0.7v0.3h0.7V44.2z M47.1,45h-0.7v0.4h0.7V45z
				 M47.1,46.2v-0.4h-0.7v0.4H47.1z M51.3,40.7v0.6h-1.2c0,0.2-0.1,0.4-0.1,0.6h1.1v3.8h-2.6v-3.8h0.9c0.1-0.2,0.1-0.4,0.2-0.6h-1.2
				v-0.6H51.3z M49.5,46c-0.2,0.4-0.4,0.8-0.7,1.1l-0.5-0.4c0.3-0.3,0.5-0.6,0.7-1L49.5,46z M50.4,43v-0.5h-1.4V43H50.4z M50.4,44
				v-0.6h-1.4V44H50.4z M50.4,44.5h-1.4v0.6h1.4V44.5z M51.3,46.7l-0.5,0.5c-0.2-0.3-0.5-0.6-0.9-1l0.4-0.4
				C50.8,46.1,51.1,46.4,51.3,46.7z"/>
			<path class="st0" d="M55.4,43.5h-2.1v3.7h-0.6v-6.4h2.8V43.5z M54.8,41.8v-0.5h-1.5v0.5H54.8z M54.8,42.9v-0.5h-1.5v0.5H54.8z
				 M57.1,44v2h-2.9v-2H57.1z M56.5,44.6h-1.6v0.9h1.6V44.6z M55.9,40.7h2.8v5.6c0,0.2-0.1,0.4-0.2,0.6c-0.1,0.1-0.2,0.2-0.4,0.2H57
				l-0.1-0.7l1,0.1c0.1,0,0.2-0.1,0.2-0.3v-2.7h-2.2v-0.3V40.7z M58.1,41.8v-0.5h-1.5v0.5H58.1z M58.1,42.4h-1.5v0.5h1.5V42.4z"/>
			<path class="st0" d="M2.1,51.1c-0.3,0-0.7,0.1-1.2,0.1v0.4H2V52H0.9v0.4H2v0.5H0.9v0.4h4.5v-0.4H4.4v-0.5h1.1v-0.3H4.4v-0.5h1.1
				v-0.4H4.3v-0.6h1.8l0,2.7h0.3v1.4H5.7v-0.8H0.7v0.8H0v-1.4h0.3v-2.6c0.5,0,1-0.1,1.6-0.2L2.1,51.1z M5.3,54.3v0.5
				c-0.5,0.2-1,0.4-1.7,0.6h2.7V56H3.6v0.6c0,0.1-0.1,0.3-0.1,0.3c-0.1,0.1-0.2,0.2-0.4,0.2H2l-0.1-0.6c0.3,0,0.5,0,0.8,0
				c0.1,0,0.2-0.1,0.2-0.1V56H0.1v-0.6h2.8v-0.3c0.4-0.1,0.8-0.2,1.3-0.4h-3v-0.5H5.3z M4.2,50.8c-0.2,0.2-0.3,0.3-0.4,0.4
				c0.1,0.1,0.2,0.2,0.3,0.3l-0.4,0.4c-0.1-0.1-0.2-0.2-0.4-0.4c-0.2,0.1-0.5,0.3-0.9,0.4l-0.3-0.5c0.2-0.1,0.5-0.2,0.7-0.3
				c-0.2-0.1-0.3-0.2-0.5-0.3l0.3-0.3c0.2,0.1,0.4,0.3,0.6,0.4c0.2-0.1,0.3-0.2,0.4-0.4L4.2,50.8z M4.3,52.1
				c-0.2,0.2-0.4,0.4-0.5,0.5c0.1,0.1,0.3,0.2,0.4,0.3l-0.4,0.4c-0.1-0.1-0.3-0.3-0.5-0.4c-0.2,0.1-0.5,0.3-0.8,0.4l-0.3-0.4
				c0.2-0.1,0.4-0.2,0.7-0.3c-0.1-0.1-0.3-0.2-0.5-0.3l0.3-0.3C3,52,3.2,52.2,3.3,52.3c0.2-0.1,0.4-0.3,0.5-0.4L4.3,52.1z"/>
			<path class="st0" d="M14.1,51.2H8.7v2.5c0,0.5,0,1-0.1,1.6c-0.1,0.6-0.2,1.1-0.4,1.7l-0.6-0.5c0.2-0.4,0.3-0.9,0.4-1.4
				C8,54.6,8,54.1,8,53.7v-3.1h6.1V51.2z M11.8,54.8v0.5h1.9v0.5h-1.9v0.6h2.4v0.6H8.7v-0.6h0.9v-1.2h0.6v1.2h1v-1.6H11.8z
				 M11.4,51.9c-0.3,0.1-0.5,0.1-0.8,0.2v0.5h0.7v0.5h-0.7v0c0.3,0.2,0.6,0.4,0.9,0.6l-0.3,0.5c-0.2-0.2-0.4-0.4-0.6-0.5v1.1H10
				v-1.1c-0.3,0.3-0.5,0.6-0.9,0.8l-0.3-0.5c0.5-0.3,0.9-0.6,1.1-1h-1v-0.5h1v-0.4c-0.3,0-0.6,0-0.9,0l-0.2-0.5
				c0.9,0,1.6-0.1,2.2-0.2L11.4,51.9z M13.9,51.9c-0.3,0.1-0.7,0.2-1,0.2v0.4h1.2v0.5h-1.2v0.1c0.4,0.3,0.8,0.6,1.2,0.9l-0.3,0.5
				c-0.4-0.4-0.7-0.6-0.9-0.9v1.1h-0.6v-1.1c-0.2,0.4-0.5,0.7-0.8,0.9l-0.3-0.5c0.4-0.3,0.8-0.6,1-1h-0.7v-0.5h0.8v-0.4
				c-0.2,0-0.5,0-0.7,0l-0.2-0.5c0.9,0,1.6-0.1,2.2-0.2L13.9,51.9z"/>
			<path class="st0" d="M18.1,52.8v-0.9H19v0.9H18.1z M18.1,55.4v-0.9H19v0.9H18.1z"/>
			<path class="st0" d="M6.2,67H5.6v-0.2H0.8V67H0.2v-6.4h6V67z M5.6,66.2v-5.1H0.8v5.1H5.6z M3.4,65.2c-0.6,0.2-1.4,0.3-2.2,0.5
				L1,65.1c0.8-0.1,1.6-0.2,2.4-0.4V65.2z M3.3,61.9c0-0.2,0-0.4,0-0.7h0.6c0,0.2,0,0.5,0,0.7h0.7c-0.1-0.2-0.2-0.4-0.3-0.5l0.5-0.2
				c0.1,0.2,0.2,0.4,0.3,0.6l-0.3,0.1h0.5v0.5H4c0,0.5,0.1,0.8,0.1,1.1c0,0.2,0.1,0.5,0.2,0.7c0.2-0.4,0.4-0.9,0.7-1.6L5.3,63
				c-0.3,0.9-0.6,1.5-0.9,1.9c0,0,0,0,0,0c0,0,0,0.1,0.1,0.1c0.1,0.2,0.2,0.3,0.3,0.3c0,0,0.1-0.3,0.2-0.8l0.5,0.4
				c-0.2,0.5-0.3,0.9-0.3,0.9C5.1,66,5,66,4.9,66c-0.2,0-0.4-0.1-0.6-0.4c-0.1-0.1-0.1-0.2-0.2-0.3c-0.2,0.3-0.5,0.5-0.8,0.7
				l-0.3-0.5c0.4-0.3,0.7-0.5,0.9-0.8c-0.1-0.2-0.2-0.5-0.3-0.8c-0.1-0.4-0.2-0.9-0.2-1.5H1v-0.5H3.3z M3,62.8v1.7H1.3v-1.7H3z
				 M2.5,63.3H1.8V64h0.7V63.3z"/>
			<path class="st0" d="M13.5,66.1v0.7H7.2v-0.7H13.5z M13.4,61.8v0.7H7.3v-0.7H13.4z M9.7,65.7L9,65.9c-0.2-1-0.4-2-0.7-2.9L9,62.7
				C9.3,63.6,9.5,64.6,9.7,65.7z M10.9,61.3l-0.5,0.5c-0.3-0.3-0.7-0.6-1.2-0.9l0.5-0.4C10.2,60.7,10.6,61,10.9,61.3z M12.4,62.9
				c-0.2,1.1-0.5,2.1-0.8,3l-0.7-0.3c0.3-0.8,0.6-1.7,0.8-2.9L12.4,62.9z"/>
			<path class="st0" d="M17.1,61.8v-1.4h0.7v1.4h2.5v3.4h-2.5V67h-0.7v-1.8h-2.5v-3.4H17.1z M17.1,62.4h-1.8v2.1h1.8V62.4z
				 M19.6,62.4h-1.8v2.1h1.8V62.4z"/>
			<path class="st0" d="M23.1,61.2c-0.2,0.1-0.5,0.1-0.8,0.2l0,0.7h0.6v0.6h-0.6l0,0.8H23v0.6h-0.7l0,0.8h0.8v-4.2H26v4.2h1l0-0.8
				h-0.7v-0.6H27l0-0.7h-0.7v-0.6H27l0-0.7h-0.8v-0.7h1.4l-0.1,4.1h0.3v0.6h-6.6v-0.6h0.4l0-4c0.4,0,0.8-0.1,1.3-0.3L23.1,61.2z
				 M24,66c-0.6,0.4-1.3,0.7-2.1,1l-0.5-0.6c0.8-0.2,1.5-0.5,2.1-0.9L24,66z M25.4,64.9v-3.6h-1.7v3.6H25.4z M25.3,61.6v0.5h-1.3
				v-0.5H25.3z M25.2,62.5v2H24v-2H25.2z M24.8,63h-0.4v1h0.4V63z M27.9,66.4L27.5,67c-0.7-0.4-1.4-0.7-2.2-1l0.3-0.5
				C26.4,65.8,27.2,66.1,27.9,66.4z"/>
			<path class="st0" d="M31.2,62.3c0-0.4,0.1-0.8,0.1-1.3v-0.5H32V61c0,0.5,0,0.9-0.1,1.3h2.9V63h-2.2c0.2,0.7,0.4,1.3,0.7,1.8
				c0.4,0.6,0.9,1.1,1.6,1.5L34.5,67c-0.8-0.5-1.4-1.2-1.8-1.8c-0.4-0.6-0.6-1.3-0.8-2.2h-0.2c-0.1,0.5-0.2,0.9-0.4,1.3
				c-0.4,0.9-1.1,1.8-2.2,2.7l-0.6-0.5c1-0.7,1.7-1.5,2.2-2.4c0.2-0.3,0.3-0.7,0.4-1.1h-2.4v-0.7H31.2z"/>
			<path class="st0" d="M37.9,61c-0.3,0-0.7,0.1-1.2,0.1v0.4h1.1V62h-1.1v0.4h1.1v0.5h-1.1v0.4h4.5v-0.4h-1.1v-0.5h1.1V62h-1.1v-0.5
				h1.1v-0.4h-1.1v-0.6h1.8l0,2.7h0.3v1.4h-0.6v-0.8h-5v0.8h-0.6v-1.4h0.3v-2.6c0.5,0,1-0.1,1.6-0.2L37.9,61z M41,64.2v0.5
				c-0.5,0.2-1,0.4-1.6,0.6H42v0.6h-2.7v0.6c0,0.1,0,0.3-0.1,0.3c-0.1,0.1-0.2,0.2-0.4,0.2h-1.1l-0.1-0.6c0.3,0,0.5,0,0.8,0
				c0.1,0,0.2-0.1,0.2-0.1v-0.5h-2.8v-0.6h2.8v-0.3c0.4-0.1,0.8-0.2,1.3-0.4h-3v-0.5H41z M39.9,60.7c-0.2,0.2-0.3,0.3-0.4,0.4
				c0.1,0.1,0.2,0.2,0.3,0.3l-0.4,0.4c-0.1-0.1-0.2-0.2-0.4-0.4c-0.2,0.1-0.5,0.3-0.9,0.4l-0.3-0.5c0.2-0.1,0.5-0.2,0.7-0.3
				c-0.2-0.1-0.3-0.2-0.5-0.3l0.3-0.3c0.2,0.1,0.4,0.3,0.6,0.4c0.2-0.1,0.3-0.2,0.4-0.4L39.9,60.7z M40,62c-0.2,0.2-0.4,0.4-0.5,0.5
				c0.1,0.1,0.3,0.2,0.4,0.3l-0.4,0.4c-0.1-0.1-0.3-0.3-0.5-0.4c-0.2,0.1-0.5,0.3-0.8,0.4L38,62.7c0.2-0.1,0.4-0.2,0.6-0.3
				c-0.1-0.1-0.3-0.2-0.5-0.3l0.3-0.3c0.2,0.1,0.4,0.2,0.5,0.4c0.2-0.1,0.4-0.3,0.5-0.4L40,62z"/>
			<path class="st0" d="M45.6,62.5v-2.1h0.8v2.1h2.4v0.7h-2.4v2.6h2.9v0.7h-6.4v-0.7h2.7v-2.6h-2.3v-0.7H45.6z"/>
			<path class="st0" d="M52.9,61.7v-1.4h0.8v1.4h2.9v0.7h-2.2c0.2,0.5,0.5,1,0.9,1.5c0.3,0.5,0.8,1,1.4,1.5l-0.5,0.7
				c-0.7-0.6-1.2-1.2-1.6-1.9c-0.3-0.5-0.6-1.1-0.9-1.8v4.6h-0.8v-4.6c-0.2,0.6-0.4,1.1-0.7,1.5c-0.4,0.7-1,1.4-1.9,2.2l-0.4-0.7
				c0.6-0.5,1.1-1.1,1.5-1.6c0.3-0.4,0.5-0.8,0.7-1.4H50v-0.7H52.9z"/>
			<path class="st0" d="M59.4,65.2c-0.5,0.6-1.1,1.1-1.8,1.6l-0.5-0.6c0.7-0.4,1.3-0.8,1.8-1.4L59.4,65.2z M63.4,61.1
				c-0.9,0.2-1.9,0.3-3.1,0.4c-0.2,0.3-0.5,0.6-0.8,1c0.5,0,1.1-0.1,1.6-0.1c0.3-0.3,0.6-0.5,0.8-0.8l0.6,0.3
				c-0.9,0.9-1.8,1.6-2.7,2.2c1,0,1.9-0.1,2.6-0.2c-0.2-0.3-0.3-0.5-0.5-0.8l0.5-0.3c0.5,0.7,0.9,1.4,1.2,1.9L63,65.1
				c-0.1-0.2-0.2-0.4-0.3-0.7c-0.5,0.1-1.1,0.1-1.8,0.2v1.7c0,0.3-0.1,0.5-0.2,0.6C60.5,66.9,60.3,67,60,67h-0.6l-0.1-0.7
				c0.2,0,0.4,0.1,0.6,0.1c0.2,0,0.3-0.1,0.3-0.2v-1.5c-0.7,0-1.6,0.1-2.5,0.1l-0.2-0.7c0.5,0,0.9,0,1.3,0c0.6-0.3,1.1-0.7,1.6-1.2
				c-0.8,0.1-1.6,0.1-2.5,0.2l-0.1-0.6c0.3,0,0.5,0,0.8,0c0.4-0.3,0.7-0.6,1-1c-0.6,0-1.3,0-2,0l-0.2-0.6c2.2,0,4.2-0.1,5.7-0.4
				L63.4,61.1z M63.6,66.2l-0.5,0.5c-0.4-0.5-1-1-1.7-1.5l0.5-0.5C62.5,65.2,63.1,65.7,63.6,66.2z"/>
			<path class="st0" d="M65.3,64.2v-0.9h0.9v0.9H65.3z"/>
			<path class="st0" d="M70.5,61c-0.3,0-0.7,0.1-1.2,0.1v0.4h1.1V62h-1.1v0.4h1.1v0.5h-1.1v0.4h4.5v-0.4h-1.1v-0.5h1.1V62h-1.1v-0.5
				h1.1v-0.4h-1.1v-0.6h1.8l0,2.7h0.3v1.4h-0.6v-0.8h-5v0.8h-0.6v-1.4h0.3v-2.6c0.5,0,1-0.1,1.6-0.2L70.5,61z M73.6,64.2v0.5
				c-0.5,0.2-1,0.4-1.6,0.6h2.7v0.6h-2.7v0.6c0,0.1-0.1,0.3-0.1,0.3c-0.1,0.1-0.2,0.2-0.4,0.2h-1.1l-0.1-0.6c0.3,0,0.5,0,0.8,0
				c0.1,0,0.2-0.1,0.2-0.1v-0.5h-2.8v-0.6h2.8v-0.3c0.4-0.1,0.8-0.2,1.3-0.4h-3v-0.5H73.6z M72.5,60.7c-0.2,0.2-0.3,0.3-0.4,0.4
				c0.1,0.1,0.2,0.2,0.3,0.3l-0.4,0.4c-0.1-0.1-0.2-0.2-0.4-0.4c-0.2,0.1-0.5,0.3-0.9,0.4l-0.3-0.5c0.2-0.1,0.5-0.2,0.7-0.3
				c-0.2-0.1-0.3-0.2-0.5-0.3l0.3-0.3c0.2,0.1,0.4,0.3,0.6,0.4c0.2-0.1,0.3-0.2,0.4-0.4L72.5,60.7z M72.6,62
				c-0.2,0.2-0.4,0.4-0.5,0.5c0.1,0.1,0.3,0.2,0.4,0.3l-0.4,0.4c-0.1-0.1-0.3-0.3-0.5-0.4c-0.2,0.1-0.5,0.3-0.8,0.4l-0.3-0.4
				c0.2-0.1,0.4-0.2,0.6-0.3c-0.1-0.1-0.3-0.2-0.5-0.3l0.3-0.3c0.2,0.1,0.4,0.2,0.5,0.4c0.2-0.1,0.4-0.3,0.5-0.4L72.6,62z"/>
			<path class="st0" d="M78.3,62.6v-2.1h0.8v2.1h2.9v0.7h-2.9v2.9h2.5v0.6h-5.8v-0.6h2.5v-2.9h-2.8v-0.7H78.3z"/>
			<path class="st0" d="M5.9,76.9H5.4v-0.2H0.7v0.2H0.2v-6.4h5.8V76.9z M5.4,76.1v-5.1H0.7v5.1H5.4z M3.2,75.1
				c-0.6,0.2-1.3,0.3-2.1,0.5L1,75c0.8-0.1,1.5-0.2,2.3-0.4V75.1z M3.2,71.9c0-0.2,0-0.4,0-0.7h0.6c0,0.2,0,0.5,0,0.7h0.6
				c-0.1-0.2-0.2-0.4-0.2-0.5l0.5-0.2c0.1,0.2,0.2,0.4,0.3,0.6l-0.3,0.1h0.5v0.5H3.8c0,0.5,0.1,0.8,0.1,1.1C3.9,73.8,4,74,4,74.2
				c0.2-0.4,0.4-0.9,0.6-1.6l0.5,0.3c-0.3,0.9-0.6,1.5-0.9,1.9c0,0,0,0,0,0c0,0,0,0.1,0.1,0.1c0.1,0.2,0.2,0.3,0.3,0.3
				c0,0,0.1-0.3,0.2-0.8l0.5,0.4C5.2,75.4,5,75.7,5,75.8C4.9,75.9,4.8,76,4.7,76c-0.2,0-0.4-0.1-0.6-0.4C4,75.5,4,75.4,3.9,75.3
				c-0.2,0.3-0.5,0.5-0.8,0.7l-0.3-0.5c0.3-0.3,0.6-0.5,0.9-0.8c-0.1-0.2-0.2-0.5-0.2-0.8c-0.1-0.4-0.2-0.9-0.2-1.5H1v-0.5H3.2z
				 M2.8,72.8v1.7H1.2v-1.7H2.8z M2.4,73.3H1.7V74h0.7V73.3z"/>
			<path class="st0" d="M12.9,76.1v0.7H6.9v-0.7H12.9z M12.8,71.7v0.7H7v-0.7H12.8z M9.3,75.6l-0.7,0.2c-0.2-1-0.4-2-0.6-2.9
				l0.6-0.2C8.9,73.5,9.1,74.5,9.3,75.6z M10.4,71.2L10,71.7c-0.3-0.3-0.6-0.6-1.1-0.9l0.4-0.4C9.7,70.6,10.1,70.9,10.4,71.2z
				 M11.9,72.8c-0.2,1.1-0.5,2.1-0.8,3l-0.7-0.3c0.3-0.8,0.6-1.7,0.8-2.9L11.9,72.8z"/>
			<path class="st0" d="M16.5,70.6c-0.4,0.9-0.9,1.6-1.4,2.2c0.1,0,0.3,0,0.3,0c1,0,2.1-0.1,3.1-0.3c-0.3-0.4-0.5-0.7-0.9-1.1
				l0.5-0.5c0.6,0.8,1.2,1.5,1.6,2.3l-0.5,0.5c-0.1-0.2-0.2-0.4-0.4-0.6c-1.4,0.2-3,0.3-5,0.3l-0.1-0.8c0.2,0,0.4,0,0.6,0.1
				c0.4-0.6,0.9-1.4,1.4-2.4L16.5,70.6z M19.3,77h-0.7v-0.4H15V77h-0.7v-3.1h5V77z M18.6,75.9v-1.4H15v1.4H18.6z"/>
			<path class="st0" d="M21.7,72.8l-0.4,0.6c-0.3-0.3-0.6-0.5-0.9-0.7l0.3-0.5C21.1,72.4,21.4,72.6,21.7,72.8z M21.8,74.1
				c-0.2,1.1-0.5,2.1-0.8,2.9l-0.5-0.5c0.2-0.7,0.5-1.6,0.7-2.7L21.8,74.1z M21.8,71.1l-0.4,0.6c-0.3-0.3-0.5-0.5-0.8-0.7l0.3-0.5
				C21.3,70.6,21.6,70.9,21.8,71.1z M22.3,73c-0.1,0.3-0.2,0.6-0.3,0.8l-0.4-0.1c0.1-0.2,0.2-0.5,0.3-0.8L22.3,73z M22.8,70.5
				c-0.1,0.4-0.3,0.7-0.4,0.9c0.1,0,0.2,0,0.3,0c0.1-0.2,0.2-0.4,0.3-0.5l0.3,0.2v-0.2H24c-0.1-0.1-0.1-0.3-0.2-0.4l0.5-0.1
				c0.1,0.1,0.2,0.3,0.2,0.4h0.6v0.4h-1.8V71c-0.2,0.5-0.5,1-0.7,1.3c0.1,0,0.2,0,0.4-0.1c0-0.1,0-0.2-0.1-0.2l0.3-0.1
				c0.1,0.2,0.1,0.5,0.2,0.8l-0.4,0.1c0-0.1,0-0.1,0-0.2c-0.3,0.1-0.7,0.2-1.2,0.2l-0.1-0.4c0.1,0,0.2,0,0.3,0
				c0.1-0.2,0.3-0.4,0.4-0.6c-0.2,0-0.4,0-0.7,0.1l-0.1-0.5H22c0.1-0.3,0.3-0.6,0.4-1.1L22.8,70.5z M26.4,74.1v1.2h-3.6l-0.1,0.3h4
				c0,0.6-0.1,1-0.2,1.1c-0.1,0.2-0.4,0.3-0.9,0.3h-1.2l-0.1-0.5c0.6,0,1,0,1.3,0c0.2,0,0.3,0,0.4-0.1c0.1-0.1,0.1-0.2,0.1-0.3h-4
				l0.3-1.2h3.6v-0.3H22v-0.5H26.4z M22.8,73.8l-0.4,0c0-0.3,0-0.6-0.1-0.8l0.3,0C22.8,73.2,22.8,73.5,22.8,73.8z M23.4,73.7
				l-0.3,0.1c0-0.3-0.1-0.5-0.2-0.8l0.3-0.1C23.3,73.1,23.3,73.4,23.4,73.7z M24.9,71.4v0.3h-1.4v-0.3H24.9z M24.9,72v0.3h-1.4V72
				H24.9z M24.9,72.6v1.2h-1.4v-1.2H24.9z M24.5,73h-0.6v0.4h0.6V73z M25.5,73.1c-0.1,0.3-0.1,0.6-0.2,0.9L25,73.8
				c0.1-0.2,0.1-0.5,0.2-0.8L25.5,73.1z M26.1,70.5c-0.1,0.4-0.3,0.7-0.4,0.9c0.1,0,0.2,0,0.3,0c0.1-0.1,0.2-0.3,0.2-0.4l0.4,0.2
				c-0.3,0.5-0.6,0.9-0.9,1.2c0.2,0,0.3,0,0.5-0.1c0-0.1-0.1-0.2-0.1-0.3l0.3-0.1c0.1,0.3,0.2,0.6,0.2,0.9l-0.4,0.1
				c0-0.1,0-0.1,0-0.2c-0.3,0.1-0.7,0.1-1.3,0.2L25,72.4c0.1,0,0.2,0,0.3,0c0.2-0.2,0.3-0.4,0.5-0.6c-0.2,0-0.4,0.1-0.7,0.1L25,71.4
				h0.2c0.1-0.3,0.3-0.6,0.4-1.1L26.1,70.5z M26.1,73.8l-0.4,0c0-0.3,0-0.6-0.1-0.8l0.4,0C26.1,73.2,26.1,73.5,26.1,73.8z
				 M26.8,73.7l-0.4,0.1c0-0.3-0.1-0.5-0.2-0.8l0.4-0.1C26.7,73.2,26.7,73.4,26.8,73.7z"/>
			<path class="st0" d="M29.9,72.2c0-0.4,0.1-0.8,0.1-1.3v-0.5h0.7v0.5c0,0.5,0,0.9-0.1,1.3h2.8v0.7h-2.1c0.2,0.7,0.4,1.3,0.7,1.8
				c0.4,0.6,0.9,1.1,1.5,1.5l-0.4,0.7c-0.8-0.5-1.3-1.2-1.7-1.8c-0.4-0.6-0.6-1.3-0.8-2.2h-0.2c-0.1,0.5-0.2,0.9-0.4,1.3
				c-0.4,0.9-1.1,1.8-2.1,2.7l-0.6-0.5c1-0.7,1.7-1.5,2.1-2.4c0.2-0.3,0.3-0.7,0.4-1.1h-2.3v-0.7H29.9z"/>
			<path class="st0" d="M36.3,70.9c-0.2,0-0.6,0.1-1.2,0.1v0.4h1.1v0.5h-1.1v0.4h1.1v0.5h-1.1v0.4h4.3v-0.4h-1v-0.5h1v-0.3h-1v-0.5
				h1v-0.4h-1.1v-0.6h1.7l0,2.7h0.3v1.4h-0.6v-0.8h-4.8v0.8h-0.6v-1.4h0.3v-2.6c0.5,0,1-0.1,1.5-0.2L36.3,70.9z M39.3,74.2v0.5
				c-0.5,0.2-1,0.4-1.6,0.6h2.6v0.6h-2.6v0.6c0,0.1,0,0.3-0.1,0.3c-0.1,0.1-0.2,0.2-0.4,0.2h-1l-0.1-0.6c0.2,0,0.5,0,0.8,0
				c0.1,0,0.2-0.1,0.2-0.1v-0.5h-2.7v-0.6h2.7V75c0.4-0.1,0.8-0.2,1.2-0.4h-2.9v-0.5H39.3z M38.3,70.6c-0.2,0.2-0.3,0.3-0.4,0.4
				c0.1,0.1,0.2,0.2,0.3,0.3l-0.4,0.4c-0.1-0.1-0.2-0.2-0.4-0.4c-0.2,0.1-0.5,0.3-0.8,0.4l-0.3-0.5c0.2-0.1,0.5-0.2,0.7-0.3
				c-0.2-0.1-0.3-0.2-0.5-0.3l0.3-0.3c0.2,0.1,0.4,0.3,0.6,0.4c0.1-0.1,0.3-0.2,0.4-0.4L38.3,70.6z M38.4,72
				c-0.2,0.2-0.3,0.4-0.5,0.5c0.1,0.1,0.3,0.2,0.4,0.3l-0.3,0.4c-0.1-0.1-0.3-0.3-0.4-0.4c-0.2,0.1-0.5,0.3-0.8,0.4l-0.3-0.4
				c0.2-0.1,0.4-0.2,0.6-0.3c-0.1-0.1-0.3-0.2-0.4-0.3l0.3-0.3c0.2,0.1,0.4,0.2,0.5,0.4c0.2-0.1,0.3-0.3,0.5-0.4L38.4,72z"/>
			<path class="st0" d="M43.8,72.5v-2.1h0.7v2.1h2.3v0.7h-2.3v2.6h2.8v0.7h-6.2v-0.7h2.6v-2.6h-2.2v-0.7H43.8z"/>
			<path class="st0" d="M50.7,71.7v-1.4h0.7v1.4h2.7v0.7h-2.1c0.2,0.5,0.5,1,0.8,1.5c0.3,0.5,0.8,1,1.4,1.5L53.8,76
				c-0.6-0.6-1.1-1.2-1.5-1.9c-0.3-0.5-0.6-1.1-0.8-1.8V77h-0.7v-4.6c-0.2,0.6-0.4,1.1-0.6,1.5c-0.4,0.7-1,1.4-1.8,2.2l-0.4-0.7
				c0.6-0.5,1.1-1.1,1.4-1.6c0.3-0.4,0.5-0.8,0.7-1.4H48v-0.7H50.7z"/>
			<path class="st0" d="M57,75.1c-0.5,0.6-1.1,1.1-1.7,1.6l-0.4-0.6c0.6-0.4,1.2-0.8,1.7-1.4L57,75.1z M60.8,71
				c-0.8,0.2-1.8,0.3-3,0.4c-0.2,0.3-0.4,0.6-0.8,1c0.5,0,1-0.1,1.5-0.1c0.3-0.3,0.5-0.5,0.8-0.8l0.6,0.3c-0.9,0.9-1.7,1.6-2.6,2.2
				c1,0,1.8-0.1,2.5-0.2c-0.2-0.3-0.3-0.5-0.5-0.8l0.5-0.3c0.5,0.7,0.9,1.4,1.2,1.9l-0.6,0.4c-0.1-0.2-0.2-0.4-0.3-0.7
				c-0.5,0.1-1,0.1-1.7,0.2v1.7c0,0.3-0.1,0.5-0.2,0.6c-0.1,0.1-0.3,0.2-0.6,0.2h-0.6l-0.1-0.7c0.2,0,0.4,0.1,0.6,0.1
				c0.2,0,0.3-0.1,0.3-0.2v-1.5c-0.7,0-1.5,0.1-2.4,0.1l-0.2-0.7c0.4,0,0.8,0,1.2,0c0.5-0.3,1.1-0.7,1.6-1.2
				c-0.7,0.1-1.5,0.1-2.4,0.2l-0.1-0.6c0.3,0,0.5,0,0.8,0c0.4-0.3,0.7-0.6,0.9-1c-0.6,0-1.2,0-1.9,0L55,70.9c2.2,0,4-0.1,5.5-0.4
				L60.8,71z M61,76.2l-0.5,0.5c-0.4-0.5-0.9-1-1.6-1.5l0.5-0.5C60,75.2,60.5,75.7,61,76.2z"/>
			<path class="st0" d="M64.1,70.6v0.6h-1c-0.1,0.6-0.2,1.1-0.4,1.5H64v3.4h-1.2v0.7h-0.6v-2.9c-0.1,0.2-0.2,0.4-0.4,0.6l-0.4-0.6
				c0.3-0.5,0.6-1.1,0.7-1.5c0.1-0.3,0.2-0.7,0.3-1.1h-0.7v-0.6H64.1z M63.5,75.6v-2.2h-0.7v2.2H63.5z M67.8,70.7v0.6h-0.6V73H68
				v0.6h-0.7V77h-0.6v-3.4h-0.9c0,0.6-0.1,1.1-0.2,1.6c-0.2,0.6-0.4,1.2-0.9,1.8l-0.5-0.5c0.4-0.5,0.6-1,0.8-1.5
				c0.1-0.3,0.2-0.8,0.2-1.4h-0.8V73H65v-1.7h-0.7v-0.6H67.8z M66.6,71.3h-0.9V73h0.9V71.3z"/>
			<path class="st0" d="M71.3,72.1c-0.3,0.4-0.6,0.7-0.9,1c-0.4,0.2-0.9,0.4-1.6,0.6L68.5,73c0.7-0.1,1.2-0.3,1.5-0.4
				c0.3-0.1,0.5-0.4,0.8-0.8L71.3,72.1z M71,74.1c0,0,0-0.1,0-0.1v-0.9h0.6v0.9c0,0,0,0.1,0,0.1h1.7l-0.1,1.7c0,0.2,0,0.3,0.1,0.4
				c0.1,0.1,0.1,0.1,0.2,0.1H74c0,0,0.1,0,0.1-0.1c0,0,0.1-0.4,0.1-1.2l0.6,0.2c-0.1,0.8-0.2,1.3-0.3,1.5c-0.1,0.1-0.3,0.2-0.5,0.2
				h-0.8c-0.2,0-0.3-0.1-0.4-0.2c-0.1-0.1-0.2-0.3-0.2-0.6l0.1-1.4h-1c-0.1,0.5-0.3,0.9-0.7,1.3c-0.4,0.5-1.1,0.8-2.1,1.1l-0.3-0.6
				c1-0.2,1.6-0.5,2-0.9c0.2-0.2,0.4-0.5,0.5-0.8h-1.9v-0.6H71z M71.9,71h2.6v1.5h-0.7v-0.9h-1.1v1.1c0,0.2,0.1,0.3,0.2,0.3h1.7v0.6
				h-1.9c-0.2,0-0.4,0-0.5-0.1c-0.1-0.1-0.2-0.3-0.2-0.5v-1.3h-2.7v0.9h-0.7V71h2.4c-0.1-0.2-0.2-0.4-0.3-0.5l0.7-0.1
				C71.7,70.5,71.8,70.7,71.9,71z"/>
			<path class="st0" d="M78.5,71c-0.6,0.2-1.3,0.3-2,0.4v0.7h1.7v2.3h-1.7c0,0.4-0.1,0.7-0.1,1.1c-0.1,0.5-0.2,1-0.5,1.4l-0.5-0.5
				c0.2-0.4,0.3-0.7,0.3-1.1c0.1-0.4,0.1-0.9,0.1-1.4v-3.1c0.9,0,1.7-0.2,2.4-0.5L78.5,71z M77.6,73.9v-1.1h-1.1v1.1H77.6z M81.7,71
				c-0.7,0.2-1.5,0.4-2.4,0.4v1.3h2.4v0.7H81V77h-0.6v-3.7h-1.1v0.8c0,0.5-0.1,1-0.2,1.5c-0.1,0.5-0.4,0.9-0.7,1.3l-0.5-0.5
				c0.2-0.3,0.4-0.7,0.5-1c0.1-0.4,0.2-0.8,0.2-1.3v-3.3c1.1,0,2-0.2,2.7-0.5L81.7,71z"/>
			<path class="st0" d="M1,85.1c0,0.7-0.1,1.3-0.3,1.8l-0.6-0.2c0.2-0.5,0.3-1,0.3-1.6L1,85.1z M2,80.5c-0.2,0.6-0.5,1.2-0.8,1.7
				c0.2,0,0.4,0,0.7-0.1c0.2-0.3,0.3-0.6,0.5-1L3,81.3c-0.5,1.1-1.1,2.1-1.6,2.8c0.4,0,0.7-0.1,1-0.2c-0.1-0.3-0.1-0.5-0.2-0.7
				l0.5-0.2c0.2,0.5,0.3,1,0.4,1.6l-0.6,0.1c0-0.1,0-0.2-0.1-0.3c-0.5,0.1-1.2,0.2-2.1,0.3l-0.2-0.6c0.2,0,0.3,0,0.4,0
				c0.3-0.4,0.6-0.9,1-1.5c-0.4,0.1-0.9,0.1-1.4,0.2l-0.1-0.6c0.1,0,0.3,0,0.4,0c0.3-0.6,0.6-1.3,0.9-2L2,80.5z M1.9,86.6l-0.6,0.1
				c0-0.6-0.1-1.1-0.1-1.5l0.5-0.1C1.8,85.4,1.9,85.9,1.9,86.6z M3,86.2l-0.6,0.2c-0.1-0.5-0.2-1-0.3-1.4l0.5-0.1
				C2.8,85.4,2.9,85.8,3,86.2z M4.6,81.1v-0.9h0.7v0.9h1.5v0.6H5.2v1h1.3v0.6H3.2v-0.6h1.3v-1H3v-0.6H4.6z M6.5,86.9H5.9v-0.3H4v0.3
				H3.4V84h3.2V86.9z M5.9,86v-1.4H4V86H5.9z"/>
			<path class="st0" d="M8.6,81.6v-1.4h0.6v1.4h0.7v0.6H9.3v0.2c0.2,0.3,0.5,0.6,0.7,1L9.6,84c-0.1-0.3-0.3-0.5-0.4-0.7v3.6H8.6
				v-3.3C8.5,84,8.3,84.5,8,84.8l-0.3-0.8c0.3-0.5,0.6-1.1,0.8-1.8H7.8v-0.6H8.6z M10.9,80.8v-0.5h0.6v0.5h1.2v-0.5h0.6v0.5h1v0.5
				h-1v0.3h0.8v0.5h-0.8v0.4h1.1V83h-2v0.3h1.6v1.8h0.4v0.5h-0.4v0.6c0,0.2-0.1,0.4-0.2,0.5c-0.1,0.1-0.2,0.1-0.4,0.1h-0.9l-0.1-0.6
				l0.8,0c0.1,0,0.2-0.1,0.2-0.3v-0.4h-2.6v1.2h-0.6v-1.2H9.7v-0.5h0.6v-1.8h1.5V83H9.9v-0.5h1v-0.4h-0.7v-0.5h0.7v-0.3H10v-0.5
				H10.9z M11.8,84.2v-0.4h-0.9v0.4H11.8z M11.8,85.1v-0.4h-0.9v0.4H11.8z M12.7,81.3h-1.2v0.3h1.2V81.3z M12.7,82.5v-0.4h-1.2v0.4
				H12.7z M12.5,84.2h1v-0.4h-1V84.2z M13.4,85.1v-0.4h-1v0.4H13.4z"/>
			<path class="st0" d="M17.4,80.5c-0.3,0.7-0.5,1.3-0.9,1.8c0.2,0,0.4-0.1,0.7-0.1c0.2-0.3,0.3-0.6,0.5-1l0.6,0.2
				c-0.5,1.1-1.1,2-1.7,2.7c0.4,0,0.7-0.1,1-0.2c-0.1-0.3-0.1-0.5-0.2-0.8l0.5-0.1c0.2,0.5,0.3,1,0.5,1.6l-0.5,0.1
				c0-0.1,0-0.2-0.1-0.3c-0.5,0.1-1.2,0.2-2.1,0.3l-0.2-0.6c0.2,0,0.3,0,0.4,0c0.3-0.4,0.6-0.8,0.9-1.4c-0.4,0.1-0.8,0.2-1.3,0.3
				l-0.1-0.6c0.1,0,0.3,0,0.4-0.1c0.4-0.6,0.7-1.3,0.9-2.1L17.4,80.5z M16.4,85c-0.1,0.7-0.1,1.3-0.3,1.8l-0.6-0.2
				c0.2-0.5,0.3-1.1,0.3-1.7L16.4,85z M17.3,86.6l-0.6,0.1c0-0.7-0.1-1.2-0.1-1.6l0.5-0.1C17.2,85.4,17.3,85.9,17.3,86.6z M18.3,86
				l-0.5,0.1c-0.1-0.4-0.2-0.8-0.3-1.2l0.5-0.1C18.1,85.1,18.2,85.5,18.3,86z M21.6,86.1h0.5v0.6h-3.9v-0.6h0.5v-5.5h3V86.1z
				 M21,82.4v-1.2h-1.7v1.2H21z M21,84.3V83h-1.7v1.3H21z M21,86.1v-1.2h-1.7v1.2H21z"/>
			<path class="st0" d="M24.2,84v-0.9h0.9V84H24.2z"/>
			<path class="st0" d="M29.8,80.6v0.6h-1c-0.1,0.6-0.2,1.1-0.4,1.5c0,0,0,0,0,0h1.3v3.4h-1.2v0.7H28v-3c-0.1,0.2-0.2,0.4-0.4,0.5
				l-0.4-0.6c0.3-0.5,0.6-1,0.7-1.4c0.1-0.3,0.2-0.6,0.3-1.1h-0.8v-0.6H29.8z M29.1,85.5v-2.2h-0.6v2.2H29.1z M31.6,85.9
				c-0.4,0.4-0.9,0.7-1.5,1l-0.4-0.6c0.5-0.2,1-0.5,1.5-0.8L31.6,85.9z M34,80.5v0.6h-1.7c-0.1,0.2-0.1,0.4-0.2,0.5h1.5v3.8h-3.5
				v-3.8h1.2c0.1-0.2,0.1-0.3,0.2-0.5h-1.5v-0.6H34z M33,82.7v-0.5h-2.2v0.5H33z M33,83.8v-0.6h-2.2v0.6H33z M33,84.3h-2.2v0.5H33
				V84.3z M34,86.4l-0.4,0.6c-0.5-0.4-1-0.7-1.6-0.9l0.3-0.5C33,85.8,33.5,86.1,34,86.4z"/>
			<path class="st0" d="M37.9,82.4v-2.1h0.8v2.1h2.9v0.7h-2.9V86h2.5v0.6h-5.9V86h2.6v-2.9h-2.8v-0.7H37.9z"/>
		</g>
	</g>
	<g>
		<g>
			<path class="st0" d="M4,7.1H1.3v0.8H0.4V0.6H4V7.1z M3.1,3.3V1.5H1.3v1.9H3.1z M3.1,6.2v-2H1.3v2H3.1z M4.9,0.3h4.4V8
				c0,0.3-0.1,0.6-0.3,0.7C8.9,8.9,8.7,9,8.4,9H6.8L6.6,8.1L8,8.2c0.2,0,0.3-0.1,0.3-0.4V6H5.8C5.7,6.4,5.6,6.7,5.5,7
				C5.2,7.7,4.6,8.5,3.7,9.2L2.9,8.5c0.8-0.6,1.3-1.2,1.7-1.8c0.3-0.5,0.4-1.3,0.4-2.4V3.6V0.3z M8.3,5.1V3.6H6v0.7
				c0,0.3,0,0.6,0,0.9H8.3z M8.3,2.7V1.2H6v1.4H8.3z"/>
			<path class="st0" d="M19.5,9.2h-1V8.4h-5.2v0.7h-1V0.3h7.2V9.2z M18.4,3.8V1.3h-5.2v2.5H18.4z M18.4,7.5V4.8h-5.2v2.7H18.4z"/>
			<path class="st0" d="M25.5,8.2h-0.9V7.4h-1.3v1h-0.9V0.7h3.1V8.2z M24.6,3.7V1.6h-1.3v2.1H24.6z M24.6,6.6V4.5h-1.3v2.1H24.6z
				 M28.2,1V0h0.9V1h2.3v0.9h-2.3v1h2.6v0.9h-1v1h1.1v0.9h-1.1V8c0,0.4-0.1,0.6-0.3,0.7C30.3,8.9,30,9,29.6,9h-1.3l-0.2-1
				c0.5,0.1,0.9,0.1,1.3,0.1c0.2,0,0.4-0.1,0.4-0.2V5.6h-4.1V4.8h4.1v-1h-4V2.8h2.4v-1H26V1H28.2z M28.6,7.3L27.6,8
				c-0.4-0.5-0.8-1-1.4-1.6L27,5.9C27.6,6.5,28.2,6.9,28.6,7.3z"/>
			<path class="st0" d="M38.5,0v3.6h4.1v0.8h-3v3.4c0,0.2,0.1,0.3,0.4,0.3h1.3c0.1,0,0.3,0,0.3-0.2c0.1-0.1,0.1-0.7,0.2-1.6l1,0.3
				c-0.1,1.2-0.2,1.8-0.4,2C42.1,8.9,41.8,9,41.4,9h-1.8c-0.3,0-0.6-0.1-0.8-0.2c-0.2-0.2-0.3-0.4-0.3-0.7V4.4h-1.5
				c-0.1,1.3-0.4,2.2-0.8,2.8C35.8,8,35,8.6,33.8,9.1l-0.7-0.9c1.1-0.4,1.8-0.9,2.2-1.5c0.4-0.5,0.6-1.3,0.7-2.4h-2.8V3.6h4.1V0
				H38.5z M36.3,2.7l-1.1,0.4c-0.4-0.8-0.7-1.6-1.2-2.2l1-0.3C35.6,1.3,36,2,36.3,2.7z M41.7,1c-0.3,0.8-0.7,1.5-1.2,2.3l-1-0.5
				C40,2,40.4,1.3,40.7,0.5L41.7,1z"/>
			<path class="st0" d="M52.6,1.3c-0.5,0.2-1.1,0.3-1.8,0.4v0.8h1.6v0.8h-1.6v0.9h1.7V5h-1.7v0.1c0.5,0.4,1.1,0.9,1.6,1.4l-0.5,0.7
				c-0.4-0.5-0.8-0.9-1.1-1.2v3.1h-0.9v-3c0,0.1-0.1,0.2-0.1,0.3c-0.3,0.7-0.8,1.3-1.3,1.8l-0.4-1.1c0.6-0.6,1.2-1.4,1.6-2.2h-1.6
				V4.2h1.8V3.3h-1.6V2.5h1.6V1.8c-0.5,0-1,0-1.5,0L48.2,1c0.6,0,1.2,0,1.7-0.1V0h0.9v0.8c0.5-0.1,0.9-0.2,1.3-0.3L52.6,1.3z
				 M53.6,1.9V0h0.9v1.9H56V0h0.9v1.9h0.8v0.9h-0.8v1.9h1v0.9h-1v3.6H56V5.6h-1.5c-0.1,0.6-0.2,1-0.3,1.5c-0.2,0.6-0.7,1.3-1.4,2
				l-0.8-0.7c0.6-0.5,1-1,1.3-1.6c0.1-0.3,0.2-0.7,0.3-1.2h-0.9V4.7h1V2.8h-0.9V1.9H53.6z M56,2.8h-1.4v1.9H56V2.8z"/>
			<path class="st0" d="M63.9,1.4c-0.5,0.2-1.2,0.3-1.8,0.3v0.8h1.6v0.8H62v0.8h1.8V5H62v0c0.6,0.5,1.2,1.1,1.8,1.7l-0.5,0.7
				C62.8,6.8,62.4,6.3,62,6v3.2h-0.9V6c-0.1,0.1-0.1,0.2-0.2,0.4c-0.4,0.7-0.9,1.3-1.4,1.8l-0.4-1C59.9,6.6,60.5,5.9,61,5h-1.8V4.2
				h1.9V3.3h-1.7V2.5h1.7V1.8c-0.5,0-1.1,0-1.7,0L59.2,1c0.7,0,1.3,0,1.9-0.1V0H62v0.9c0.5-0.1,1-0.1,1.4-0.3L63.9,1.4z M68.9,3.2
				v0.9h-2.6c-0.2,1.3-0.6,2.5-1.1,3.6c0.7,0,1.5-0.1,2.2-0.2c-0.3-0.7-0.5-1.3-0.8-1.9l0.9-0.3c0.5,1.1,0.9,2.2,1.3,3.5l-0.9,0.4
				c-0.1-0.3-0.2-0.5-0.2-0.8c-1.3,0.1-2.6,0.3-4.1,0.3l-0.1-0.9c0.2,0,0.5,0,0.7,0c0.5-1.2,0.9-2.4,1.1-3.7h-1.5V3.2H68.9z
				 M68.4,0.7v0.9h-4.2V0.7H68.4z"/>
			<path class="st0" d="M78.3,2.2v0.8h-2.2c-0.3,0.2-0.6,0.4-0.8,0.6c0.4,0.4,0.6,0.9,0.8,1.3c0.8-0.3,1.5-0.8,2.2-1.4L79,4.2
				c-0.4,0.4-0.9,0.7-1.4,1c0.2,0.5,0.5,1,0.9,1.4c0.3,0.4,0.8,0.9,1.4,1.3l-0.7,0.8C78.5,8.2,78,7.6,77.6,7
				c-0.3-0.4-0.6-0.9-0.8-1.4c-0.2,0.1-0.3,0.1-0.5,0.2c0.1,0.4,0.1,0.8,0.1,1.3c0,0.8-0.1,1.3-0.3,1.6c-0.3,0.3-1,0.5-2.2,0.5
				l-0.3-1c0,0,0.2,0.1,0.6,0.1c0.5,0,0.9-0.1,1-0.2c0.2-0.2,0.3-0.5,0.3-1.1c0-0.1,0-0.3,0-0.4c-0.6,0.4-1.1,0.8-1.6,1
				c-0.8,0.4-1.7,0.7-2.9,1.1l-0.5-0.9c1.1-0.3,2.1-0.6,3-1c0.7-0.3,1.3-0.7,1.8-1.1c0-0.1-0.1-0.2-0.1-0.3c0-0.1-0.1-0.2-0.1-0.3
				C74.5,5.5,74,5.8,73.6,6C72.9,6.3,72,6.6,71,6.8L70.5,6c1-0.2,1.9-0.5,2.7-0.8c0.6-0.2,1.1-0.5,1.5-0.8c-0.1-0.1-0.2-0.2-0.3-0.4
				c-0.9,0.4-2,0.7-3.2,1l-0.5-0.8c1.3-0.2,2.3-0.5,3.1-0.7c0.3-0.1,0.6-0.2,0.9-0.3h-2.9V2.2H78.3z M75.5,0.7h4.1v2h-0.9V1.6h-7.2
				v1.2h-0.9v-2h3.9c-0.1-0.2-0.3-0.4-0.4-0.6L75.1,0C75.3,0.2,75.4,0.5,75.5,0.7z"/>
		</g>
	</g>
	<g>
		<g>
			<path class="st1" d="M13.6,24.5l0.7-0.9l1.8,1.3c-0.1,0.1-0.3,0.2-0.7,0.3c-0.3,4.6-1,5.5-3.2,5.5c0-1-0.2-1.3-1.4-1.6l0-0.2
				l1.6,0c0.3,0,0.4,0,0.5-0.1c0.4-0.3,0.6-1.6,0.8-4h-0.6c-0.9,2.5-2.5,4.5-5.2,5.8l-0.2-0.3c1.8-1.4,3-3.3,3.6-5.5h-0.6
				c-1,2-2.6,3.7-4.8,4.9l-0.2-0.3c1.5-1.2,2.7-2.9,3.3-4.7H8.4c-0.8,1-1.8,1.8-2.9,2.4l-0.2-0.2c1-1,2-2.8,2.6-4.3H6.5
				c0.2,0.3,0.3,0.6,0.3,0.8c0,0.5-0.4,0.9-0.8,0.9c-0.2,0-0.5-0.1-0.7-0.3c-0.1-0.7-0.5-1.7-1-2.4v8.3c0,0-0.2,0.5-1.8,0.5v-7.1
				c-0.6,1.1-1.4,2.2-2.4,3.1L0,26.4c1.3-2,2-4.6,2.4-7.2H0.2l-0.1-0.3h2.5v-4.2L5.1,15c0,0.3-0.2,0.4-0.7,0.4v3.5h0.3l0.8-1.3L7,19
				c-0.1,0.2-0.4,0.3-0.8,0.3H4.4v2.3c0.8,0.3,1.4,0.6,1.8,0.9h7.4l0.9-1.2l1.7,1.2c-0.1,0.2-0.3,0.3-0.8,0.3H9.9l0.4,0.1
				c-0.1,0.2-0.2,0.3-0.6,0.3c-0.3,0.5-0.6,0.9-1,1.4H13.6z M8.9,20.7v0.4c0,0.1-0.5,0.5-1.4,0.5H7.2v-6.5l1.9,0.7h3.6l0.7-1
				l1.9,1.3c-0.1,0.1-0.3,0.2-0.7,0.3V21c0,0.1-0.6,0.4-1.5,0.4h-0.3v-0.8H8.9z M12.8,16.1H8.9V18h3.9V16.1z M8.9,20.3h3.9v-1.9H8.9
				V20.3z"/>
			<path class="st1" d="M23.7,20.8l1.6,1.4c-0.1,0.2-0.3,0.2-0.6,0.3c-0.8,2.8-2.6,5.3-5.8,6.8l-0.1-0.3c2.3-1.7,3.6-4.4,4.1-7.1H19
				l-0.1-0.3h4L23.7,20.8z M28.5,19.1c-0.1,0.1-0.3,0.3-0.7,0.3c0,0.1,0.4,2.1,1.7,4c1.2-1.2,2.4-2.9,3.1-4l2.1,1.4
				c-0.1,0.1-0.2,0.2-0.4,0.2c-0.1,0-0.2,0-0.3,0c-1,0.9-2.7,2-4.3,2.8c1.4,1.9,3.3,3,5.2,3.7l-0.1,0.2c-0.7,0.2-1.3,0.8-1.5,1.7
				c-2.7-1.8-4.6-4.1-5.5-8.9v8c0,1.2-0.4,2.1-2.6,2.3c0-1.6-0.9-1.7-2.1-1.9v-0.2h2.6c0.2,0,0.3-0.1,0.3-0.3V19h-4.6l-0.1-0.3h4.5
				l0.7-1L28.5,19.1z M23.6,14.7c0.3,0,0.6,0,0.9,0c3.6,0,4.8,1.3,4.8,2.2c0,0.5-0.3,0.9-0.9,0.9c-0.1,0-0.3,0-0.4-0.1
				c-0.6-0.9-2.2-2.1-4.4-2.8L23.6,14.7z"/>
			<path class="st1" d="M51.6,28.5l1.8,1.3c-0.1,0.2-0.3,0.3-0.8,0.3h-15l-0.1-0.3h5.4v0c-0.3,0-0.5-0.2-0.7-0.5c0-0.1,0-0.2,0-0.3
				c0-0.5-0.2-1.1-0.4-1.5c-0.5,0.4-1.2,0.4-1.6,0.4v-4l1.9,0.7h6.8l0.7-0.9l1.8,1.3c-0.1,0.2-0.3,0.2-0.6,0.3v2.1
				c0,0.1-0.6,0.4-1.5,0.4H49v-0.5h-7.1v0.1l0,0c1.6,0.4,2.1,1,2.1,1.5c0,0.5-0.4,0.8-0.9,0.9v0h3.7c0.2-0.7,0.5-1.7,0.6-2.4
				l2.3,0.7c-0.1,0.2-0.2,0.3-0.6,0.2c-0.5,0.4-1.2,1-1.9,1.5h3.4L51.6,28.5z M38,22.9h12.4l0.6-0.7h-0.4v-0.7H40.3v0.5
				c0,0-0.3,0.4-1.6,0.4v-7.1l2.2,0.2c0,0.2-0.2,0.3-0.6,0.4V21h1.4v-1.3h-1l-0.1-0.3h1.1v-1.2H41l-0.1-0.3h0.9v-1.1h-1l-0.1-0.3h1
				V15l1.7,0.2c0,0.2-0.2,0.3-0.6,0.3v0.9h0.3l0.4-0.5l0.9,0.6c-0.1,0.2-0.3,0.3-0.7,0.3h-0.8v1.1h0.3l0.4-0.5l0.7,0.5
				c-0.1,0.2-0.3,0.3-0.7,0.3h-0.7v1.2h0.4l0.4-0.6l0.8,0.6c-0.1,0.2-0.3,0.3-0.7,0.3h-0.9V21h1.7v-6.3l2.3,0.2
				c0,0.2-0.2,0.3-0.7,0.4V21h1.5v-1.3h-1.1l-0.1-0.3h1.2v-1.2h-0.9l-0.1-0.3h1v-1.1h-1.1l-0.1-0.3h1.1V15l1.7,0.1
				c0,0.2-0.2,0.3-0.5,0.3v0.9h0.3l0.4-0.5l0.8,0.6c-0.1,0.2-0.3,0.3-0.7,0.3h-0.9v1.1h0.2l0.4-0.5l0.8,0.6
				c-0.1,0.2-0.3,0.3-0.7,0.3h-0.7v1.2h0.4l0.4-0.6l0.9,0.6c-0.1,0.2-0.3,0.3-0.7,0.3h-0.9V21h1.7v-5.9l2.2,0.2
				c0,0.2-0.1,0.3-0.6,0.4v5.9c0,0.1-0.2,0.2-0.5,0.3l1.4,1c-0.1,0.2-0.3,0.3-0.8,0.3H38.1L38,22.9z M49,24.9h-7.1v1.9H49V24.9z"/>
		</g>
	</g>
</g>
</svg>
