<?xml version="1.0" encoding="utf-8"?>
<!-- Generator: Adobe Illustrator 27.0.0, SVG Export Plug-In . SVG Version: 6.00 Build 0)  -->
<svg version="1.1" id="圖層_1" xmlns="http://www.w3.org/2000/svg" xmlns:xlink="http://www.w3.org/1999/xlink" x="0px" y="0px"
	 viewBox="0 0 173 103" style="enable-background:new 0 0 173 103;" xml:space="preserve">
<style type="text/css">
	.st0{fill:#E8D0A4;}
	.st1{fill:none;stroke:#571704;stroke-width:0.25;stroke-miterlimit:10;}
	.st2{fill:#834E1A;}
	.st3{fill:#40210F;}
</style>
<g>
	<rect y="0.2" class="st0" width="172.5" height="102.6"/>
	<line class="st1" x1="19" y1="32" x2="155.6" y2="32"/>
	<g>
		<g>
			<g>
				<path class="st2" d="M26.3,12.6l1.7,1.4c-0.1,0.1-0.2,0.2-0.5,0.3v9.2c0,0-0.5,0.6-1.8,0.6v-1.3h-4.6v0.7c0,0.3-0.7,0.8-1.5,0.8
					h-0.3V12.7l1.9,0.8h4.4L26.3,12.6z M25.7,13.7h-4.6v4.1h4.6V13.7z M21.1,22.4h4.6v-4.3h-4.6V22.4z"/>
				<path class="st2" d="M41.7,15.3c-0.1,0.1-0.2,0.2-0.6,0.2h-4c1,2.2,2.9,3.8,4.7,4.6l0,0.1c-0.7,0.2-1.2,0.8-1.5,1.7
					c-1.8-1.3-2.8-3.4-3.4-6.4h-0.1v5.5l0.7-1.2l1.4,1.3c-0.1,0.1-0.3,0.2-0.6,0.2h-1.6v2.4c0,0.2-0.7,0.5-1.4,0.5h-0.3v-2.9h-2.1
					l0-0.2h2.1v-3.1c-1.1,1.7-2.7,3.1-4.7,4.1l-0.1-0.2c1.8-1.6,3.2-4.1,3.7-6.4h-3.6l-0.1-0.2h4.7V12l2.3,0.2
					c0,0.2-0.1,0.4-0.5,0.4v2.6h2.2l0.9-1.4L41.7,15.3z"/>
				<path class="st2" d="M53,21.5l1.7,1.3c-0.1,0.1-0.3,0.2-0.6,0.2h-8.2v0.6c0,0.1-0.5,0.6-1.4,0.6h-0.3V12.6l1.9,0.8h5.6l0.9-1.2
					l1.6,1.3c-0.1,0.1-0.3,0.2-0.6,0.2h-7.7v9.2h6.2L53,21.5z M51.6,21.8c0,0.1-0.5,0.4-1.3,0.4h-0.3v-4.7h-1.5
					c0,1.5-0.3,3.5-2.4,4.8L46,22.1c0.8-1.5,0.9-3.3,0.9-4.8v-2.5l1.6,0.5c1-0.5,2.2-1,2.8-1.5l1.6,1.6c-0.1,0.1-0.2,0.1-0.3,0.1
					s-0.3,0-0.5-0.1c-0.9,0.2-2.2,0.3-3.5,0.4v1.5h3.1l0.8-1.1l1.5,1.1c-0.1,0.2-0.3,0.2-0.6,0.2h-1.7V21.8z"/>
				<path class="st2" d="M56.3,19.1c0.9-1.6,1.8-4.5,2.2-7.1l2.3,0.7c0,0.2-0.2,0.3-0.5,0.3c-0.3,0.8-0.6,1.6-1,2.3l0.5,0.2
					c0,0.1-0.1,0.2-0.4,0.3v7.8c0,0.1-0.7,0.5-1.4,0.5h-0.3v-6.3c-0.4,0.5-0.9,1-1.3,1.4L56.3,19.1z M67.9,14.6
					c-0.1,0.1-0.3,0.2-0.6,0.2h-2.7v2.6H65l0.8-1.2l1.5,1.2c-0.1,0.1-0.3,0.2-0.6,0.2h-2.1v2.6H65l0.9-1.3l1.6,1.3
					c-0.1,0.1-0.3,0.2-0.6,0.2h-2.4v3.3c0,0.1-0.5,0.5-1.5,0.5h-0.3v-9.4c-0.7,1.4-1.6,2.4-2.7,3.3L60,18c0.7-1.4,1.4-3.8,1.8-6
					l2.3,0.8c0,0.2-0.2,0.3-0.5,0.3c-0.2,0.6-0.5,1.1-0.7,1.5h2.4l0.9-1.3L67.9,14.6z"/>
			</g>
		</g>
		<g>
			<g>
				<path class="st2" d="M83.8,14.8l1.1,1.2c-0.1,0.1-0.2,0.1-0.4,0.1c-0.3,0.3-0.9,0.7-1.3,0.9l0.3,0.2c-0.1,0.1-0.2,0.1-0.5,0.1
					h-1.9c0.2,0.9,0.5,1.6,0.9,2.2c0.5-0.6,1-1.3,1.2-1.8l1.3,1c0,0.1-0.1,0.1-0.2,0.1c0,0-0.1,0-0.2,0c-0.5,0.3-1.3,0.7-2,0.9
					c0.7,0.9,1.7,1.5,2.7,1.9l0,0.1c-0.6,0.1-1,0.5-1.3,1.2c-1.5-1.2-2.3-2.6-2.6-5.6c-0.3,0.3-0.8,0.6-1.3,0.9
					c1.2,0.9,1.7,2.3,1.7,3.4c0,1.9-1.1,2.1-2,2.1c0-1-0.4-1.2-1.1-1.3v-0.1h1.2c0.1,0,0.2,0,0.3-0.1c0.1-0.2,0.2-0.4,0.2-0.8
					c-1.2,0.6-2.7,1.1-4.2,1.2l0-0.1c1.7-0.5,3.3-1.5,4.2-2.7l0-0.1c-1.1,0.5-2.5,1-3.9,1.2l0-0.1c1.3-0.5,2.7-1.5,3.4-2.4l0-0.1
					c-0.9,0.4-2.1,0.8-3.3,1l0-0.1c1.3-0.5,2.4-1.3,3.1-2h-2l0-0.2h4.5l0.7-0.9l0.8,0.6c0.1-0.3,0.1-0.8,0.1-1.2h-5.8
					c0,0.1,0,0.2,0,0.3c0,0.7-0.4,1.2-0.9,1.2c-0.4,0-0.7-0.2-0.7-0.7c0-0.3,0.2-0.6,0.5-0.7c0.3-0.1,0.8-0.5,0.8-1h0.1
					c0.1,0.2,0.1,0.4,0.2,0.6h2.2V14l1.8,0.2c0,0.1-0.1,0.2-0.4,0.3v1h2.1L83.8,14.8z"/>
				<path class="st2" d="M89,15.4l1.3,1c-0.1,0.1-0.2,0.2-0.4,0.2v5.6c0,0-0.3,0.4-1.3,0.4v-0.9h-1v0.7c0,0-0.2,0.5-1.3,0.5v-7.5
					l1.1,0.5c0.1-0.5,0.2-1.3,0.2-1.9l1.9,0.3c0,0.2-0.1,0.3-0.4,0.3c-0.3,0.4-0.8,1-1.1,1.4h0.6L89,15.4z M88.6,16.2h-1v2.5h1V16.2
					z M87.5,21.5h1v-2.6h-1V21.5z M93.7,15.3l1.3,1.1c-0.1,0.1-0.2,0.2-0.4,0.2c-0.1,4.3-0.2,6.1-0.8,6.7c-0.4,0.4-0.8,0.6-1.6,0.6
					c0-0.9-0.1-1.2-1.3-1.5v-0.1c0.5,0,1.1,0,1.4,0c0.2,0,0.2,0,0.3-0.1c0.4-0.3,0.5-2.3,0.5-5.9h-1.4c-0.5,1.2-1.1,2.1-1.8,2.9
					l-0.1-0.1c0.5-1.2,0.9-3.2,1-5l1.8,0.5c0,0.1-0.1,0.2-0.4,0.2c-0.1,0.5-0.3,1-0.5,1.4h1.2L93.7,15.3z M90.9,18.3
					c1.4,0.4,1.8,1.1,1.8,1.6c0,0.5-0.4,0.9-0.8,0.9c-0.2,0-0.5-0.1-0.6-0.4c0-0.1,0-0.2,0-0.3C91.3,19.4,91.1,18.8,90.9,18.3
					L90.9,18.3z"/>
				<path class="st2" d="M98.5,14.9l0.5-0.7l1.2,0.9c0,0.1-0.2,0.2-0.3,0.2v3.1c0,0-0.3,0.3-1.3,0.3v-0.7h-1v5.2
					c0,0.1-0.2,0.6-1.4,0.6v-9.6l1.4,0.6H98.5z M98.6,15.1h-1v1.3h1V15.1z M97.6,18h1v-1.4h-1V18z M103.4,14.2l1.3,1.1
					c-0.1,0.1-0.2,0.2-0.4,0.2v6.7c0,0.9-0.3,1.6-1.9,1.7c0-1.3-0.7-1.4-1.4-1.5v-0.1h1.7c0.1,0,0.2-0.1,0.2-0.1v-4h-1.1v0.2
					c0,0-0.2,0.5-1.3,0.5v-4.5l1.3,0.6h0.9L103.4,14.2z M103,15.1h-1.1v1.3h1.1V15.1z M101.9,18h1.1v-1.4h-1.1V18z"/>
				<path class="st2" d="M114.9,15.1c-0.1,0.1-0.2,0.1-0.5,0.1h-3.1c-0.5,0.7-1.2,1.5-1.7,2h3l0.6-0.9l1.4,1.1
					c-0.1,0.1-0.2,0.2-0.4,0.2v5.7c0,0.1-0.5,0.4-1.2,0.4h-0.3V23h-4.7v0.4c0,0.1-0.4,0.4-1.1,0.4h-0.3v-7.2l1.5,0.6h1.1
					c0-0.6,0.1-1.4,0.1-2h-3.5l0-0.2h7l0.8-1L114.9,15.1z M107.9,17.5v5.4h0.7v-5.4H107.9z M110.6,17.5h-0.7v1.6h0.7V17.5z
					 M110.6,21v-1.7h-0.7V21H110.6z M109.9,21.1v1.8h0.7v-1.8H109.9z M112.6,17.5h-0.7v5.4h0.7V17.5z"/>
				<path class="st2" d="M124.7,20.7c-0.1,0.1-0.2,0.1-0.5,0.1h-3.4c0.8,1.2,2.4,1.5,4.1,1.6v0.1c-0.5,0.2-0.9,0.7-1,1.4
					c-1.6-0.5-2.7-1.3-3.3-3.1h-0.1c-0.3,1.5-1.3,2.5-4.8,3.1l-0.1-0.1c2.2-0.8,3-1.8,3.3-3h-3.2l0-0.2h3.3c0.1-0.5,0.1-1,0.1-1.6
					l2,0.1c0,0.1-0.1,0.2-0.4,0.3c0,0.4-0.1,0.8-0.2,1.2h2l0.7-1L124.7,20.7z M115.8,18.7h3.6v-1.3h-2.8l0-0.2h2.8v-1.4h-3.2l0-0.2
					h2.1c-0.1-0.1-0.3-0.1-0.4-0.3c0-0.5-0.1-1-0.4-1.3l0-0.1c1.3,0.1,1.8,0.5,1.8,0.9c0,0.3-0.3,0.6-0.6,0.7h2.2
					c0.2-0.5,0.3-1.2,0.4-1.7l1.8,0.6c0,0.1-0.1,0.2-0.4,0.2c-0.4,0.3-1,0.7-1.5,1h1.3l0.7-0.9l1.3,1c-0.1,0.1-0.2,0.1-0.5,0.1h-3.1
					v1.4h1.2l0.6-0.9l1.2,0.9c-0.1,0.1-0.2,0.1-0.5,0.1h-2.6v1.3h1.9l0.7-1l1.3,1c-0.1,0.1-0.2,0.1-0.5,0.1h-8.4L115.8,18.7z"/>
				<path class="st2" d="M134.9,15.4c-0.1,0.1-0.2,0.1-0.5,0.1h-2.7c0.1,0.7,0.2,1.4,0.5,2c0.2-0.5,0.4-1,0.5-1.5l1.6,0.7
					c0,0.1-0.2,0.2-0.4,0.2c-0.3,0.7-0.6,1.3-1,1.7c0.4,0.4,0.8,0.7,0.9,0.7c0.1,0,0.1,0,0.2-0.1c0.1-0.2,0.4-0.7,0.6-1.1l0,0
					l-0.2,1.4c0.3,0.4,0.4,0.6,0.4,0.8c0,0.3-0.2,0.6-0.7,0.6c-0.9,0-1.9-1.1-2.1-1.3c-0.4,0.3-0.9,0.6-1.4,0.8
					c0.5,0.2,0.6,0.5,0.6,0.8c0,0.4-0.3,0.8-0.7,0.8c-0.1,0-0.3-0.1-0.5-0.2c-0.1-0.3-0.2-0.5-0.4-0.8c0,0.1-0.1,0.1-0.3,0.2v1.2
					c0,0.2,0,0.2,0.3,0.2h1.4c0.3,0,0.4,0,0.5-0.1c0.1-0.1,0.3-0.5,0.5-1h0.1l0,1.1c0.4,0.2,0.5,0.2,0.5,0.4c0,0.5-0.3,0.8-1.6,0.8
					h-1.5c-1.2,0-1.5-0.2-1.5-1.3v-1.5l1.6,0.1c-0.2-0.2-0.4-0.5-0.6-0.6l0-0.1c0.2,0,0.4,0,0.5,0c0.2,0,0.4,0,0.6,0.1
					c0.5-0.4,0.9-0.8,1.3-1.4c-0.4-0.6-0.7-1.4-0.9-2.1h-2.9c0,0.2,0,0.3,0,0.5l1.2,0.5h0.4l0.4-0.6l1.2,0.9c0,0.1-0.2,0.1-0.3,0.2
					v1.5c0,0-0.3,0.3-1.2,0.3v-0.4h-0.5v0.3c0,0-0.2,0.4-1.2,0.4v-2.6h0c-0.1,1.1-0.5,2.5-2,3.4l-0.1-0.1c0.8-1.2,0.8-2.8,0.8-4.1
					v-2l1.5,0.5h2.5c0-0.5-0.1-0.9-0.1-1.4l1.7,0.1c0,0.1-0.1,0.2-0.4,0.2c0,0.3,0,0.7,0.1,1h1.4l0.6-0.8L134.9,15.4z M127.3,21
					c0.1,0.4,0.2,0.7,0.2,1c0,0.9-0.5,1.4-1.1,1.4c-0.4,0-0.8-0.3-0.8-0.7c0-0.4,0.3-0.6,0.6-0.8c0.4-0.1,0.9-0.4,1-0.9H127.3z
					 M129.9,15.8l0.6,0.5c0-0.2-0.1-0.4-0.1-0.7h-2.7v1h1.6L129.9,15.8z M129.4,17.9h-0.5v1.4h0.5V17.9z M132,14
					c1.1,0,1.4,0.3,1.4,0.6c0,0.3-0.3,0.6-0.7,0.6c-0.2,0-0.3-0.1-0.5-0.3C132.2,14.7,132.1,14.3,132,14L132,14z M132.2,20.9
					c1.9,0.2,2.5,1,2.5,1.6c0,0.5-0.3,0.9-0.8,0.9c-0.2,0-0.4-0.1-0.5-0.2C133.2,22.3,132.8,21.5,132.2,20.9L132.2,20.9z"/>
				<path class="st2" d="M135.5,18.9c1.7-1.2,3-3.3,3.3-4.8l2.1,0.6c0,0.2-0.2,0.2-0.5,0.3c1,1.1,3.1,1.9,4.5,2.2l0,0.2
					c-0.6,0.2-1,0.9-1.1,1.5c-1.4-0.6-2.9-2.3-3.5-3.8c-0.7,1.6-2.6,3.1-4.6,4L135.5,18.9z M142.6,23.3l0.7-1l1.3,1
					c-0.1,0.1-0.2,0.1-0.5,0.1H136l0-0.2h3.5v-2.3h-2.5l0-0.2h2.5v-2.2h-2.1l0-0.2h3.7l0.6-0.9l1.2,0.9c-0.1,0.1-0.2,0.1-0.5,0.1
					h-1.5v2.2h0.9l0.7-0.9l1.3,1c-0.1,0.1-0.2,0.1-0.5,0.1h-2.4v2.3H142.6z"/>
				<path class="st2" d="M154.7,15.1c-0.1,0.1-0.2,0.1-0.5,0.1h-3.1c-0.5,0.7-1.2,1.5-1.7,2h3l0.6-0.9l1.4,1.1
					c-0.1,0.1-0.2,0.2-0.4,0.2v5.7c0,0.1-0.5,0.4-1.2,0.4h-0.3V23h-4.7v0.4c0,0.1-0.4,0.4-1.1,0.4h-0.3v-7.2l1.5,0.6h1.1
					c0-0.6,0.1-1.4,0.1-2h-3.5l0-0.2h7l0.8-1L154.7,15.1z M147.8,17.5v5.4h0.7v-5.4H147.8z M150.4,17.5h-0.7v1.6h0.7V17.5z
					 M150.4,21v-1.7h-0.7V21H150.4z M149.7,21.1v1.8h0.7v-1.8H149.7z M152.4,17.5h-0.7v5.4h0.7V17.5z"/>
			</g>
		</g>
	</g>
	<g>
		<g>
			<g>
				<path class="st3" d="M64.6,94h-0.9v-0.7h-4.5V94h-0.9v-8.5h6.3V94z M63.7,88.8v-2.4h-4.5v2.4H63.7z M63.7,92.4v-2.6h-4.5v2.6
					H63.7z"/>
				<path class="st3" d="M70,86.7v-1.5h0.9v1.5h3.6v0.9h-2.7c0.3,0.7,0.7,1.3,1.1,1.9c0.5,0.6,1.1,1.3,1.9,2l-0.6,0.8
					c-0.9-0.8-1.6-1.6-2.1-2.4c-0.4-0.6-0.8-1.4-1.1-2.3h0v3.8H73v0.9h-2.1v1.7H70v-1.7h-2v-0.9h2v-3.8h0c-0.3,0.8-0.6,1.5-0.8,2
					c-0.5,0.9-1.3,1.9-2.3,2.9l-0.5-0.9c0.8-0.7,1.4-1.4,1.8-2.1c0.3-0.5,0.7-1.1,0.9-1.9h-2.5v-0.9H70z"/>
				<path class="st3" d="M78.9,87.6c0.1-0.5,0.1-1.1,0.1-1.7v-0.6h0.9v0.6c0,0.6,0,1.2-0.1,1.7h3.8v0.9h-2.8c0.2,1,0.5,1.8,0.9,2.4
					c0.5,0.8,1.2,1.5,2,2l-0.5,0.9c-1-0.7-1.8-1.5-2.3-2.4c-0.5-0.8-0.8-1.8-1-2.9h-0.2c-0.1,0.7-0.3,1.2-0.5,1.7
					c-0.5,1.2-1.4,2.3-2.8,3.5l-0.8-0.7c1.3-1,2.2-2,2.8-3.1c0.2-0.4,0.4-0.9,0.5-1.5h-3.1v-0.9H78.9z"/>
				<path class="st3" d="M89.4,85.8v-0.7h0.8v0.7h2.2v1.4h0.5V88h-0.5v1.4h-2.2V90h2.2v0.7h-2.2v0.7h2.6V92h-2.6v0.8
					c0.1,0,0.3,0,0.4,0c1.1,0,1.9,0,2.4-0.1l-0.1,1c-2.8,0-4.6-0.1-5.2-0.2c-0.6-0.2-1-0.4-1.3-0.7c0,0-0.1-0.1-0.1-0.1
					c-0.3,0.4-0.7,0.8-1.2,1.2l-0.5-0.9c0.5-0.3,0.8-0.7,1.1-1.1c-0.3-0.5-0.6-1.1-0.9-2l0.7-0.3c0.2,0.5,0.4,1,0.6,1.3
					c0,0,0-0.1,0-0.1c0.1-0.4,0.2-1,0.2-1.7h-1.6v-0.6c0.5-0.7,1-1.5,1.5-2.3h-1.7v-0.7h2.6v0.8c-0.5,0.9-1,1.6-1.4,2.1h1.4
					c0,1.1-0.1,1.9-0.3,2.6c-0.1,0.3-0.2,0.6-0.3,0.8c0.2,0.3,0.5,0.5,0.9,0.6c0.3,0.1,0.9,0.2,1.8,0.2V92h-2.2v-0.7h2.2v-0.7h-1.8
					V90h1.8v-0.6h-1.7v-0.7h1.7V88h-2.2v-0.7h2.2v-0.7h-1.7v-0.7H89.4z M90.2,87.2h1.4v-0.7h-1.4V87.2z M90.2,88.7h1.4V88h-1.4V88.7
					z"/>
				<path class="st3" d="M101,87.6v0.8h-1c0.7,0.6,1.2,1.3,1.7,1.9l-0.6,0.6c-0.2-0.2-0.3-0.5-0.5-0.7c-0.6,0.1-1.3,0.1-2.2,0.2v0.9
					h3.3V92h-3.3v0.9h3.7v0.8h-8.1v-0.8h3.6V92h-3.2v-0.8h3.2v-0.8c-0.9,0-1.9,0.1-2.9,0.1l-0.2-0.9c0.4,0,0.8,0,1.2,0
					c0.4-0.4,0.7-0.8,0.9-1.2h-1.6v-0.8H101z M98.5,86h3.5v2h-0.9v-1.1h-6.4V88h-0.9v-2h3.7c-0.1-0.2-0.2-0.5-0.3-0.7l0.9-0.1
					C98.3,85.4,98.4,85.7,98.5,86z M99.3,88.8l0.4-0.4h-2.3c-0.2,0.4-0.5,0.8-0.8,1.2c1.3,0,2.4-0.1,3.3-0.2
					C99.7,89.2,99.5,89,99.3,88.8z"/>
				<path class="st3" d="M110.6,92.9c0,0.3-0.1,0.6-0.2,0.7c-0.1,0.2-0.3,0.2-0.6,0.2h-1.5L108,93l1.4,0.1c0.2,0,0.3-0.2,0.3-0.4
					v-1.3l-0.5,0.7c-0.5-0.5-0.9-1-1.3-1.5c-0.3-0.5-0.6-1-0.8-1.6c-0.1,0.4-0.3,0.7-0.5,1c-0.4,0.7-1,1.5-1.8,2.3l-0.4-0.6v2.4
					h-0.9v-6.9h3.1v-0.9h-2v-0.7h2.8v1.7h3V92.9z M105.9,89.3c0.2-0.4,0.4-0.9,0.6-1.5h-2.1v3.3C105.1,90.5,105.6,89.9,105.9,89.3z
					 M108.3,89.5c0.3,0.5,0.8,1.1,1.4,1.6v-3.2h-2.1C107.8,88.5,108,89,108.3,89.5z"/>
				<path class="st3" d="M114.3,85.6c-0.2,0.6-0.3,1.2-0.5,1.6v6.7h-0.8v-5.1c-0.2,0.4-0.5,0.8-0.8,1.2l-0.3-1
					c0.3-0.5,0.6-1,0.9-1.6c0.3-0.5,0.5-1.2,0.8-2.2L114.3,85.6z M116.9,89.9h-1.7v4.1h-0.8v-8.3h2.5V89.9z M116.1,87.3v-1h-0.9v1
					H116.1z M116.1,89.1v-1.1h-0.9v1.1H116.1z M119.9,85.7V93c0,0.3-0.1,0.6-0.3,0.7c-0.1,0.1-0.4,0.2-0.7,0.2h-0.8l-0.2-0.9l0.9,0
					c0.2,0,0.3-0.1,0.3-0.4v-2.9h-1.7v-4.2h0.4H119.9z M119.1,87.4v-1h-0.9v1H119.1z M119.1,88.1h-0.9v1.1h0.9V88.1z"/>
			</g>
		</g>
		<g>
			<path class="st3" d="M95.3,41.1c0.9,0.1,1.9,0.2,2.8,0.4c1.5,0.3,2.9,0.7,4.1,1.5c2.3,1.5,3.2,4,2.4,6.7c-0.7,2.2-2,4-3.5,5.7
				c-2.8,2.9-5.9,5.4-9.4,7.3c-3.6,2-7.5,3.2-11.7,2.8c-2.3-0.2-4.4-0.9-5.8-2.8c-0.9-1.2-1.2-2.5-1.3-4c-0.1-4,1.6-7.1,4.8-9.4
				c1.4-1,2.8-1.8,4.4-2.3c0.2-0.1,0.4-0.1,0.5-0.1c0.1,0,0.1,0,0.3,0c0,4.6,0,9.2,0,13.8c0.3,0,0.5,0,0.7,0
				c4.8-1.2,8.7-3.8,11.2-8.3c0.7-1.3,1.2-2.7,1.1-4.3c-0.1-1.9-0.9-3.2-2.6-4.1c-1.8-1-3.8-1.1-5.9-1.1c-0.2,0-0.3,0-0.5,0
				c0,0,0,0-0.2-0.1c1.3-0.3,2.4-0.7,3.6-0.9c1.1-0.2,2.3-0.3,3.4-0.5c0.2,0,0.4-0.1,0.6-0.1C94.8,41.1,95.1,41.1,95.3,41.1z"/>
			<path class="st3" d="M75.5,78c-0.5-0.1-1-0.2-1.4-0.3c-1.4-0.4-2-1.3-1.9-2.4c0.1-1.3,1.1-2.3,2.4-2.3c1.3-0.1,2.6,0,4,0
				c0.3,0,0.6,0,0.8,0c0.3,0,0.7,0,0.8-0.5c0.1-0.5,0.1-1-0.5-1.2c-0.5-0.2-1-0.3-1.5-0.3c-1.6,0-3.1,0-4.7,0
				c-0.5,0-0.9-0.5-0.6-0.9c0-0.1,0.2-0.2,0.3-0.2c2.1,0,4.1,0,6.2,0c0.8,0,1.6,0.3,2.1,0.9c0.3,0.3,0.5,0.7,0.5,1.1
				c0,2,0,4.1,0,6.2C79.8,78,77.7,78,75.5,78z M77.6,76.9c0.7,0,1.4,0,2.1,0c0.1,0,0.4-0.2,0.4-0.3c0.1-0.8,0.1-1.5,0.1-2.3
				c0-0.1-0.3-0.4-0.4-0.4c-1.4,0-2.8,0-4.2,0c-0.9,0-1.5,0.7-1.5,1.5c0,0.9,0.5,1.4,1.5,1.5C76.3,76.9,76.9,76.9,77.6,76.9z"/>
			<path class="st3" d="M61.4,70.1c1.3,0,2.7,0,4,0c0.9,0,1.9-0.1,2.8,0c1.7,0.1,3,1.5,3.3,3.4c0.3,2.4-1.5,4.4-3.9,4.4
				c-2,0-4.1,0-6.1,0C61.4,75.3,61.4,72.7,61.4,70.1z M65.6,76.8C65.6,76.8,65.6,76.8,65.6,76.8c0.7-0.1,1.4,0,2.1-0.1
				c0.6,0,1.1-0.4,1.5-0.9c0.6-0.9,0.6-2,0.4-3c-0.2-1.2-0.9-1.8-2.1-1.9c-1.2,0-2.4,0.1-3.7,0.1c-0.3,0-0.4,0.1-0.4,0.4
				c0,1.6,0,3.2,0,4.8c0,0.4,0.2,0.6,0.6,0.5C64.5,76.8,65.1,76.8,65.6,76.8z"/>
			<path class="st3" d="M116.4,77.7c-0.4,0-0.9-0.1-1.3,0c-0.4,0-0.5-0.1-0.5-0.5c0-1.6,0-3.3,0-4.9c0-1.2-0.5-1.7-1.7-1.8
				c-1.3,0-2.7,0-4,0c-0.4,0-0.5,0.2-0.5,0.5c0,2.1,0,4.1,0,6.2c0,0.6,0,0.6-0.9,0.6c-0.5,0-0.7-0.1-0.7-0.6c0-2.3,0-4.6,0-6.9
				c0-0.5,0.2-0.7,0.7-0.7c2.1,0,4.1,0,6.2,0c1,0,1.8,0.4,2.3,1.3c0.2,0.3,0.2,0.6,0.3,1C116.4,73.8,116.4,75.8,116.4,77.7z"/>
			<path class="st3" d="M83.7,78c0-2.5,0-5,0-7.5c0-0.5,0.1-0.8,0.7-0.7c0.1,0,0.1,0,0.2,0c0.7,0,0.7,0,0.7,0.7c0,2.3,0,4.6,0,6.9
				c0,0.2,0,0.4,0,0.6C84.8,78,84.2,78,83.7,78z"/>
			<path class="st3" d="M87.1,78c0-2.4,0-4.8,0-7.2c0-1.1,0.2-1.3,1.3-1c0.1,0,0.3,0.3,0.3,0.5c0,1.6,0,3.2,0,4.8c0,1,0,1.9,0,2.9
				C88.2,78,87.6,78,87.1,78z"/>
			<path class="st3" d="M101.4,69.6c1.2,0,2.5,0,3.7,0c0.4,0,0.5,0.2,0.5,0.5c0,0.4-0.2,0.5-0.5,0.5c-1.8,0-3.7,0-5.5,0
				c-0.5,0-0.6,0.1-0.6,0.6c0.1,1.6-0.2,1.4,1.4,1.4c1.5,0,3.1,0,4.6,0c0.4,0,0.6,0,0.6,0.5c0,0.4-0.2,0.6-0.6,0.6
				c-1.8,0-3.7,0-5.5,0c-0.4,0-0.6,0.1-0.5,0.5c0,0.2,0,0.4,0,0.5c0,1.3,0.6,1.9,1.9,1.9c1.4,0,2.7,0,4.1,0c0.4,0,0.6,0,0.6,0.5
				c0,0.5-0.2,0.6-0.6,0.5c-1.8,0-3.6,0-5.3,0c-1.3,0-2.5-1.3-2.5-2.6c0-1.6,0-3.3,0-4.9c0-0.5,0.2-0.6,0.6-0.6
				C99,69.6,100.2,69.6,101.4,69.6z"/>
			<path class="st3" d="M96.9,77.7c-0.7,0-1.3,0-1.9,0c-0.2,0-0.3,0-0.5-0.1c-1.7-1.4-3.5-2.8-5.2-4.1c0,0-0.1-0.1-0.1-0.2
				c0.5-0.4,1-0.7,1.5-1.1c0.8-0.6,1.7-1.1,2.5-1.8c0.9-0.8,1.9-0.7,3.1-0.6c-1.7,1.2-3.3,2.3-5,3.5C93.2,74.7,95,76.1,96.9,77.7z"
				/>
		</g>
	</g>
</g>
</svg>
