<?xml version="1.0" encoding="utf-8"?>
<!-- Generator: Adobe Illustrator 27.0.0, SVG Export Plug-In . SVG Version: 6.00 Build 0)  -->
<svg version="1.1" id="圖層_1" xmlns="http://www.w3.org/2000/svg" xmlns:xlink="http://www.w3.org/1999/xlink" x="0px" y="0px"
	 viewBox="0 0 400 121" style="enable-background:new 0 0 400 121;" xml:space="preserve">
<style type="text/css">
	.st0{fill:#FFFFFF;}
</style>
<path class="st0" d="M145.7,11.3h-3.9v1.2h-1.3v-11h5.2V11.3z M144.4,5.7V2.9h-2.5v2.8H144.4z M144.4,10V7h-2.5v3H144.4z M147.1,1.2
	h6.3v11.6c0,0.5-0.1,0.9-0.4,1.1c-0.2,0.2-0.6,0.3-1,0.3h-2.4l-0.3-1.4l2.1,0.1c0.3,0,0.5-0.2,0.5-0.6V9.7h-3.6
	c-0.1,0.6-0.3,1.1-0.5,1.5c-0.4,1.1-1.3,2.2-2.5,3.3l-1.2-1.1c1.1-0.8,1.9-1.8,2.4-2.7c0.4-0.8,0.6-2,0.6-3.6L147.1,1.2L147.1,1.2z
	 M151.9,8.4V6h-3.4v1.1c0,0.5,0,0.9-0.1,1.3H151.9z M151.9,4.7V2.5h-3.4v2.2H151.9z"/>
<path class="st0" d="M168.9,1.5h5.8v3.2h-1.2c-0.4,0.7-0.9,1.3-1.4,1.7c0.8,0.4,1.8,0.8,3.1,1.2l-0.7,1.1c-1.1-0.4-2-0.7-2.8-1.1
	v0.8h-6.5V7.7c-0.8,0.5-1.8,0.9-3,1.2l-0.6-1c0.8-0.2,1.6-0.5,2.2-0.7c-0.2-0.3-0.5-0.7-0.8-1c-0.2,0.2-0.4,0.3-0.7,0.4l-0.8-1
	c1.7-0.8,3-1.8,3.8-2.8l1.2,0.2c-0.1,0.2-0.3,0.4-0.5,0.5h2.8c0.2,0.2,0.4,0.5,0.6,0.7V3.5h4V2.6H163v1.9h-1.3v-3h5.7
	c-0.2-0.2-0.4-0.4-0.6-0.6l1.5-0.2C168.4,0.9,168.7,1.2,168.9,1.5L168.9,1.5z M166,11.5c-0.5,0.6-1,1-1.5,1.3
	c-0.5,0.4-1.3,0.8-2.1,1.1l-0.7-1.2c0.6-0.2,1.3-0.4,1.9-0.8c0.4-0.3,0.9-0.6,1.4-1.1L166,11.5L166,11.5z M174.8,9.3v1.2H169V13
	c0,0.5-0.1,0.8-0.3,1c-0.2,0.2-0.6,0.3-1.2,0.3h-1.3L166,13c0.5,0.1,0.9,0.1,1.2,0.1c0.4,0,0.5-0.1,0.5-0.3v-2.3h-6V9.3H174.8
	L174.8,9.3z M164.6,6.8c0.2-0.1,0.4-0.3,0.6-0.4c0,0,0,0,0.1,0c-0.3-0.3-0.7-0.7-1.1-1.1c-0.2,0.2-0.4,0.3-0.5,0.4
	C164.1,6.1,164.4,6.4,164.6,6.8L164.6,6.8z M166.1,5.7c0.3-0.3,0.7-0.7,1-1.1H165c0,0-0.1,0.1-0.1,0.1C165.3,5,165.7,5.4,166.1,5.7z
	 M171,7.2c-0.2-0.1-0.3-0.2-0.5-0.3c-0.8-0.5-1.5-1.2-2.1-2.2c-0.8,1.1-1.6,1.9-2.4,2.5H171L171,7.2z M171.1,5.8
	c0.4-0.3,0.8-0.7,1.1-1.2h-2.4C170.2,5.1,170.6,5.5,171.1,5.8z M174.8,12.8L174,14c-1.2-0.9-2.4-1.6-3.6-2.1l0.7-1
	C172.4,11.4,173.7,12.1,174.8,12.8L174.8,12.8z"/>
<path class="st0" d="M186.5,2.5L186,3h2.1v1.3h-2.6v0.5c0,0.5,0,1,0,1.4h2.5c-0.1,3.9-0.2,6-0.3,6.4c-0.1,0.5-0.3,0.8-0.5,1
	c-0.2,0.2-0.5,0.4-1,0.4c-0.4,0-0.8,0-1.1-0.1l-0.2-1.3c0.7,0.1,1.1,0.1,1.2,0.1c0.2,0,0.4-0.1,0.5-0.4c0.1-0.2,0.2-1.8,0.3-4.9
	h-1.3c-0.1,1-0.2,1.8-0.3,2.5c-0.3,1.4-0.8,2.8-1.5,4.2l-1.1-0.9c0.6-1.1,1.1-2.3,1.4-3.6c0.2-1.1,0.3-2.7,0.3-4.8V4.3h-1.4V3h2.6
	c-0.3-0.5-0.8-1.1-1.2-1.7l0.9-0.8C185.6,1.2,186.1,1.8,186.5,2.5L186.5,2.5z M191.7,0.9c-0.1,0.5-0.3,1-0.5,1.4h5v1.3h-5.6
	c-0.1,0.1-0.1,0.2-0.2,0.3c-0.3,0.5-0.6,1-1,1.4h0.9v1.3l1.4-0.4v-2h1.2v1.7l2.9-0.8c0,2.6-0.1,4.2-0.2,4.8
	c-0.1,0.4-0.3,0.6-0.5,0.7c-0.3,0.2-0.8,0.3-1.7,0.3l-0.2-1.3c0.2,0.1,0.4,0.1,0.5,0.1c0.2,0,0.4,0,0.6-0.1c0.1-0.1,0.2-1,0.2-2.7
	L193,7.2V12h-1.2V7.5l-1.4,0.4v4.5c0,0.3,0.2,0.5,0.5,0.5h3.3c0.3,0,0.5,0,0.7-0.2c0.2-0.1,0.3-0.6,0.3-1.6l1.2,0.4
	c-0.1,1.3-0.4,2.1-0.6,2.3c-0.3,0.2-0.7,0.4-1.4,0.4h-4c-0.4,0-0.7-0.1-0.9-0.4c-0.2-0.2-0.4-0.6-0.4-1V8.3l-0.9,0.3V7.2l0.9-0.2
	V5.7c-0.2,0.2-0.4,0.4-0.6,0.6l-0.8-1.1c0.6-0.6,1.2-1.3,1.7-2c0.3-0.5,0.7-1.3,1-2.4L191.7,0.9L191.7,0.9z"/>
<path class="st0" d="M208.3,1.1c-0.4,1.2-0.8,2.2-1.2,3.1v10.1h-1.4V6.4c-0.4,0.6-0.9,1.2-1.4,1.7l-0.5-1.6c0.6-0.8,1.2-1.7,1.7-2.5
	c0.5-0.8,1-1.9,1.5-3.4L208.3,1.1L208.3,1.1z M212.1,0.9c-0.2,0.7-0.5,1.3-0.7,1.9h6.2v1.3h-5.2v2h4.9v1.4h-4.9v2.3h4.9v1.3h-4.9
	v3.2h-1.4V4.1h-0.2c-0.6,1.3-1.3,2.4-1.9,3.3l-1.1-1.2c1.3-1.7,2.2-3.5,2.9-5.6L212.1,0.9L212.1,0.9z"/>
<path class="st0" d="M226.8,10.7c-0.1,1.4-0.3,2.7-0.5,3.7L225,14c0.4-1,0.6-2.1,0.7-3.3L226.8,10.7L226.8,10.7z M229.1,1.1
	c-0.5,1.4-1.1,2.6-1.7,3.6c0.5,0,0.9-0.1,1.3-0.1c0.3-0.7,0.7-1.4,1-2.1l1.2,0.5c-1.1,2.4-2.2,4.3-3.3,5.8c0.8-0.1,1.4-0.2,1.9-0.3
	c-0.1-0.5-0.3-1-0.4-1.5l1.1-0.4c0.3,1,0.7,2,0.9,3.3l-1.2,0.3c-0.1-0.2-0.1-0.4-0.1-0.6c-1,0.2-2.4,0.4-4.2,0.6l-0.4-1.3
	c0.3,0,0.6,0,0.9,0c0.6-0.8,1.3-1.9,1.9-3.1c-0.8,0.2-1.7,0.3-2.7,0.4l-0.3-1.2c0.3,0,0.6,0,0.8-0.1c0.7-1.2,1.3-2.6,1.8-4.2
	L229.1,1.1L229.1,1.1z M228.9,13.7l-1.2,0.1c0-1.3-0.1-2.4-0.2-3.1l1.1-0.1C228.7,11.4,228.8,12.4,228.9,13.7z M230.9,13l-1.2,0.4
	c-0.2-1-0.4-2-0.7-3l1-0.2C230.4,11.2,230.7,12.2,230.9,13z M238.4,14.4h-1.2v-0.9h-4.5v0.9h-1.2V1.3h7V14.4z M234.3,6.6v-4h-1.6v4
	H234.3z M234.3,12.2V8h-1.6v4.2H234.3z M235.5,6.6h1.6v-4h-1.6V6.6z M237.1,12.2V8h-1.6v4.2H237.1z"/>
<path class="st0" d="M250.2,0.9c-0.1,0.4-0.3,0.7-0.4,1h3.5v1.2h-2.1c0.2,0.4,0.4,0.9,0.5,1.3l-1.4,0.1c-0.1-0.5-0.3-1-0.4-1.5h-0.8
	c-0.4,0.6-0.9,1.2-1.4,1.7l-1.2-0.8c1.2-1.1,2-2.2,2.5-3.5L250.2,0.9L250.2,0.9z M253.5,10.4h-4.7v2c1-0.1,2-0.3,3-0.6
	c-0.2-0.3-0.4-0.6-0.5-0.9l1.3-0.4c0.6,0.9,1.1,1.8,1.6,2.9l-1.3,0.6c-0.1-0.3-0.3-0.7-0.4-1c-1.7,0.4-3.6,0.7-5.6,1l-0.2-1.4
	c0.3,0,0.6,0,0.8-0.1V5h6L253.5,10.4L253.5,10.4z M252.2,7.2V6.2h-3.4v0.9H252.2z M252.2,9.2v-1h-3.4v1H252.2z M256.3,0.9
	c-0.1,0.4-0.3,0.7-0.4,1h4.5v1.2h-2.8c0.2,0.5,0.4,0.9,0.6,1.4l-1.5,0.1c-0.1-0.6-0.3-1.1-0.5-1.6h-1c-0.4,0.6-0.8,1.1-1.3,1.6
	L252.6,4c1.1-1,1.9-2.1,2.3-3.3L256.3,0.9z M259.7,11.8c0,0.5-0.1,0.9-0.4,1.1c-0.2,0.2-0.5,0.3-0.9,0.3h-1.6l-0.3-1.4l1.4,0.1
	c0.3,0,0.4-0.2,0.4-0.6V6.5h-2.6v7.9h-1.4V5.3h5.3L259.7,11.8L259.7,11.8z"/>
<path class="st0" d="M145.1,36.8v1.3h-1.9v3h1.5v1.4h-1.5v3.3c0.6-0.2,1.3-0.5,1.8-0.8v1.5c-1.4,0.7-3,1.3-4.8,1.8l-0.4-1.5
	c0.7-0.2,1.4-0.4,2-0.6v-3.8h-1.6v-1.4h1.6v-3h-1.7v-1.3H145.1z M148.3,36.7c0-0.3,0.1-0.6,0.1-0.9l1.4,0.2
	c-0.1,0.2-0.1,0.5-0.1,0.7h3V39h1v1h-8.8v-1h2.8c0.1-0.4,0.2-0.8,0.4-1.2h-2.4v-1.1H148.3L148.3,36.7z M152.9,40.8v3h-2.3v0.8h2.8v1
	h-2.8v1.2h3.2V48h-3.2v1.6h-1.3V48H145l0.5-3.3h3.8v-0.8h-3.8v-3H152.9z M149.3,45.7h-2.6l-0.2,1.2h2.8V45.7z M151.6,41.8h-4.7v1
	h4.7V41.8z M151.4,39v-1.2h-2c-0.1,0.4-0.2,0.8-0.4,1.2H151.4L151.4,39z"/>
<path class="st0" d="M165.1,36.6v-0.8h1.3v0.8h1.6v1.1h-1.6v0.4h-1.3v-0.4h-3.8v-1.1H165.1z M164.6,38.6v-0.4h1.2v0.4h2.3v0.8h-2.3
	v0.5h2.8v0.9h-1.3V41c0,0.2,0.1,0.2,0.4,0.2h0.9v0.7h-1.1c-0.4,0-0.7,0-0.9-0.2c-0.2-0.1-0.3-0.3-0.3-0.5v-0.4h-2.1
	c-0.1,0.4-0.2,0.7-0.5,1c-0.1,0.1-0.2,0.2-0.4,0.3h1.3v-0.8h1.3v0.8h2.1V43h-2.1v0.5c0.9,0,1.7-0.1,2.4-0.2v0.8
	c-1.2,0.2-3.4,0.4-6.4,0.5l-0.1-1c1,0,1.9,0,2.8-0.1V43h-1.8v-0.5c-0.2,0.1-0.5,0.2-0.7,0.3l-0.6-0.9c0.6-0.2,1-0.3,1.3-0.5
	c0.2-0.1,0.3-0.3,0.4-0.5h-1.5v-0.9h3v-0.5h-2.5v-0.8H164.6L164.6,38.6z M174.9,46.3v1h-2.4c0.7,0.6,1.3,1.2,1.9,1.9l-1.2,0.5
	c-0.2-0.2-0.3-0.4-0.4-0.5c-2.1,0.1-5.7,0.3-10.6,0.4l-0.2-1.1c0.6,0,1.2,0,1.8,0c0.4-0.4,0.7-0.7,0.9-1.1h-3.3v-1H174.9z
	 M173.4,44.8v1h-10.3v-1H173.4z M171.3,47.5l0.8-0.2h-5.6c-0.2,0.4-0.5,0.7-0.8,1.1c2.4,0,4.5-0.1,6.4-0.1
	C171.8,48,171.5,47.7,171.3,47.5L171.3,47.5z M170.4,39.4v-0.9h1.1v0.9h2.1v3.3c0.1,0.4,0.2,0.7,0.3,0.7c0.1,0,0.2-0.5,0.3-1.4
	l0.8,0.6c-0.2,1-0.4,1.6-0.5,1.8c-0.2,0.2-0.4,0.3-0.7,0.3c-0.4,0-0.7-0.1-0.8-0.3c-0.3-0.3-0.4-0.8-0.5-1.6v-2.3h-1
	c0,0.7-0.1,1.3-0.2,1.8c0.4,0.3,0.8,0.6,1.1,0.9l-0.6,1c-0.3-0.3-0.7-0.6-1-0.8c-0.3,0.5-0.8,1.1-1.4,1.6l-0.9-0.8
	c0.6-0.5,1.1-0.9,1.4-1.4c-0.4-0.3-0.8-0.5-1.2-0.7l0.5-0.8c0.3,0.2,0.7,0.4,1,0.5c0.1-0.3,0.1-0.7,0.1-1.1h-1.6v-1L170.4,39.4
	L170.4,39.4z M170.3,36.6v-0.8h1.3v0.8h3.4v1.1h-3.4v0.6h-1.3v-0.6h-1.6v-1.1H170.3z"/>
<path class="st0" d="M184.9,41v-5h1.3v5h2v1.2h-2v0.4c0.7,0.8,1.4,1.6,2.2,2.5l-0.8,1.2c-0.6-0.9-1-1.6-1.4-2.2v5.4h-1.3v-5.3
	c0,0.1,0,0.1-0.1,0.1c-0.5,1.1-1.1,2.1-1.8,2.9l-0.5-1.4c0.9-1.1,1.6-2.3,2.2-3.6h-2.2V41H184.9z M184.8,40.1l-1.2,0.3
	c-0.2-1-0.4-2-0.7-2.9l1.1-0.3C184.3,38,184.6,39,184.8,40.1L184.8,40.1z M188.4,37.3c-0.2,1.1-0.6,2.1-0.9,3l-1.2-0.4
	c0.4-0.8,0.7-1.7,0.9-2.9L188.4,37.3z M191.6,36.9v-1h1.3v1h3v1.2h-3v0.7h2.8v1h-2.8v0.8h3.3v1.2h-7.8v-1.2h3.1v-0.8h-2.6v-1h2.6
	v-0.7h-2.9v-1.2H191.6z M195.7,48.3c0,0.4-0.1,0.8-0.4,1c-0.2,0.2-0.5,0.3-0.9,0.3H193l-0.2-1.2l1.3,0.1c0.3,0,0.4-0.2,0.4-0.5v-0.7
	h-4.1v2.4H189v-7.2h6.7L195.7,48.3L195.7,48.3z M194.4,44.3v-0.8h-4.1v0.8H194.4z M194.4,46.2v-0.8h-4.1v0.8H194.4z"/>
<path class="st0" d="M217,37.1v1.4h-5.4v8.8h6v1.4h-13.5v-1.4h5.9v-8.8h-5.3v-1.4H217L217,37.1z"/>
<path class="st0" d="M237.9,44.8h1.2V46h-13.9v-1.2h1.2v-7.3h3.3v-1.6h1.4v1.6h1.9v-1.6h1.4v1.6h3.4V44.8z M230.7,46.9
	c-0.7,0.6-1.3,1.1-1.9,1.5c-0.7,0.4-1.6,0.8-2.7,1.2l-0.8-1.4c0.8-0.2,1.6-0.5,2.4-0.9c0.6-0.3,1.2-0.7,1.7-1.2L230.7,46.9
	L230.7,46.9z M229.7,41v-2.3h-1.9V41H229.7z M229.7,44.8v-2.6h-1.9v2.6H229.7z M231.1,41h1.9v-2.3h-1.9V41z M233.1,44.8v-2.6h-1.9
	v2.6H233.1z M238.9,48.4l-1.2,1.2c-1.1-0.8-2.5-1.5-4.5-2.4l1.1-1C236.1,46.9,237.7,47.7,238.9,48.4L238.9,48.4z M234.5,41h2v-2.3
	h-2V41z M236.4,44.8v-2.6h-2v2.6H236.4z"/>
<path class="st0" d="M250.1,36.1c-0.2,0.3-0.3,0.6-0.5,0.9h3.6v1.2h-1.9c0.2,0.3,0.3,0.6,0.4,1l-1.4,0.2c-0.1-0.5-0.2-0.8-0.3-1.2
	h-1.1c-0.4,0.5-0.8,1-1.2,1.3l-1.2-0.8c1.1-0.9,1.9-1.8,2.3-2.9L250.1,36.1L250.1,36.1z M249.7,40v-0.6h1.3V40h2.7v1.1h-2.7v0.7h2.6
	v4.3h-2.6v0.8h2.8V48h-2.8v1.6h-1.3V48h-2.8v-1.2h2.8v-0.8h-2.5v-4.3h2.5v-0.7H247V40H249.7z M249.7,43.5v-0.8h-1.3v0.8H249.7z
	 M249.7,44.4h-1.3v0.8h1.3V44.4z M250.9,43.5h1.4v-0.8h-1.4V43.5z M252.3,44.4h-1.4v0.8h1.4V44.4z M256.2,36.1
	c-0.1,0.3-0.3,0.6-0.4,0.9h4.5v1.2h-2.6c0.2,0.3,0.4,0.7,0.5,1.1l-1.4,0.2c-0.1-0.5-0.2-0.9-0.4-1.2h-1.3c-0.4,0.5-0.7,1-1.1,1.4
	l-1.2-0.8c1-0.9,1.7-1.8,2.2-2.9L256.2,36.1L256.2,36.1z M255.5,41.1v6.6c0,0.3,0.2,0.5,0.5,0.5h1.8c0.4,0,0.6-0.1,0.8-0.2
	c0.2-0.1,0.3-0.7,0.4-1.8l1.3,0.4c-0.2,1.4-0.4,2.2-0.7,2.5c-0.3,0.2-0.8,0.4-1.5,0.4h-2.5c-0.4,0-0.7-0.1-1-0.3
	c-0.2-0.2-0.4-0.6-0.4-0.9V40h5.2c-0.1,2.9-0.2,4.4-0.3,4.7c-0.1,0.4-0.3,0.6-0.5,0.8c-0.2,0.2-0.5,0.3-1,0.3c-0.5,0-0.8,0-1.2-0.1
	l-0.2-1.5c0.7,0.1,1.1,0.1,1.2,0.1c0.2,0,0.4-0.1,0.4-0.3c0.1-0.1,0.2-1.1,0.3-2.9H255.5L255.5,41.1z"/>
<path class="st0" d="M147.8,72.1V71h1.3v1.1h3.6v2.2h0.8v1.1h-0.8v2.2h-3.6v0.9h3.7v1.1h-3.7v1.1h4.3v1.1h-4.3V83c0.2,0,0.4,0,0.6,0
	c1.8,0,3.1,0,3.9-0.1l-0.2,1.5c-4.6,0-7.5-0.1-8.5-0.3c-0.9-0.2-1.7-0.6-2.2-1.1c-0.1,0-0.1-0.1-0.2-0.2c-0.5,0.6-1.1,1.2-2,1.9
	l-0.8-1.4c0.8-0.5,1.4-1.1,1.8-1.7c-0.4-0.8-0.9-1.8-1.4-3.1l1.2-0.4c0.3,0.8,0.7,1.6,1,2.1c0-0.1,0-0.1,0.1-0.2
	c0.2-0.6,0.3-1.5,0.4-2.7h-2.5v-0.9c0.9-1.1,1.7-2.3,2.5-3.6h-2.7v-1.1h4.3V73c-0.9,1.4-1.6,2.5-2.3,3.3h2.2c-0.1,1.7-0.2,3-0.5,4
	c-0.2,0.5-0.3,0.9-0.5,1.3c0.4,0.4,0.9,0.7,1.6,0.9c0.6,0.2,1.5,0.3,2.9,0.4v-1.2h-3.6v-1.1h3.6v-1.1h-2.9v-1h2.9v-1h-2.8v-1h2.8
	v-1.2h-3.6v-1.1h3.6v-1.1h-2.8v-1.1L147.8,72.1L147.8,72.1z M149.2,74.3h2.2v-1.1h-2.2V74.3z M149.2,76.5h2.2v-1.2h-2.2V76.5z"/>
<path class="st0" d="M163,73.9v-2.9h1.3v2.9h1.3v1.2h-1.3v0.4c0.5,0.6,1,1.3,1.5,2.1l-0.8,1.2c-0.3-0.6-0.6-1.1-0.8-1.6v7.5H163
	v-6.9c-0.4,1-0.8,1.9-1.2,2.6l-0.6-1.6c0.7-1.1,1.3-2.4,1.7-3.8h-1.6v-1.2L163,73.9L163,73.9z M167.7,72.2v-1.1h1.3v1.1h2.5v-1.1
	h1.3v1.1h2.1v1.1h-2.1v0.7h1.6v1h-1.6v0.8h2.2v1.1h-4.1v0.7h3.3v3.6h0.8v1.1h-0.8v1.2c0,0.4-0.1,0.8-0.4,1c-0.2,0.2-0.5,0.3-0.9,0.3
	h-1.8l-0.2-1.2l1.6,0.1c0.3,0,0.4-0.2,0.4-0.5v-0.9h-5.3v2.6h-1.3v-2.6h-1.2v-1.1h1.2v-3.6h3.2v-0.7h-3.9v-1h2v-0.8h-1.4v-1h1.4
	v-0.7h-1.9v-1.1L167.7,72.2L167.7,72.2z M169.6,79.3v-0.8h-1.9v0.8H169.6z M169.6,81.1v-0.8h-1.9v0.8H169.6z M171.5,73.2H169v0.7
	h2.5V73.2z M171.5,75.7v-0.8H169v0.8H171.5z M170.9,79.3h2.1v-0.8h-2.1V79.3z M172.9,81.1v-0.8h-2.1v0.8H172.9z"/>
<path class="st0" d="M187.6,71.5v0.8h1.8c-0.2-0.4-0.4-0.7-0.6-1.1l1.2-0.2c0.2,0.4,0.4,0.8,0.5,1.2h1.8v1.1h-0.6l-0.5,1.9h1.4v-4.2
	h1.2v4.2h2.5v1.2h-2.5c0,1.1,0,2.1,0.1,3c0.3-0.7,0.7-1.5,1-2.3l1.1,0.4c-0.7,1.7-1.3,3-1.9,3.8c0.1,0.5,0.2,1,0.4,1.4
	c0.2,0.6,0.3,0.8,0.5,0.8s0.3-0.7,0.5-2.2l1.1,0.8c-0.3,1.3-0.6,2.2-0.8,2.5c-0.2,0.2-0.4,0.3-0.7,0.3c-0.4,0-0.8-0.4-1.2-1.2
	c-0.2-0.4-0.4-0.8-0.5-1.3c-0.5,0.6-1.1,1.2-1.9,1.9l-0.9-0.8c0.2-0.2,0.4-0.4,0.7-0.6h-2.5v0.7h-1.2v-6.4h4.2v5.2
	c0.5-0.5,0.9-1,1.3-1.4c0-0.1,0-0.2,0-0.3c-0.2-1.2-0.3-2.6-0.3-4.3H187v8.4h-1.2v-2.5c-0.9,0.4-1.9,0.7-3,1.1l-0.3-1.4
	c0.2,0,0.4-0.1,0.7-0.1v-9.2h-0.6v-1.2L187.6,71.5L187.6,71.5z M185.8,74.5v-1.8h-1.5v1.8H185.8z M185.8,77.7v-2h-1.5v2H185.8z
	 M185.8,81.1v-2.3h-1.5v2.8C184.9,81.5,185.4,81.3,185.8,81.1L185.8,81.1z M188.4,75.3l-0.4-1.9h-0.6v-0.7H187v2.6H188.4z
	 M190.6,79.6v-1.2h-1.9v1.2H190.6z M190.6,81.9v-1.3h-1.9v1.3H190.6z M190.3,75.3l0.4-1.9h-1.6l0.4,1.9H190.3z M196.4,74.3l-1.1,0.5
	c-0.3-0.9-0.6-1.7-0.9-2.4l1.1-0.4C195.8,72.7,196.1,73.4,196.4,74.3z"/>
<path class="st0" d="M211.6,71v3.6c0.5,2.2,1.2,4,2.2,5.4c0.8,1.2,2.1,2.4,3.9,3.6l-1,1.3c-1.5-1-2.6-1.9-3.4-2.9
	c-1-1.1-1.8-2.5-2.4-4.2c-0.5,1.7-1.2,3.1-2,4c-0.9,1.1-2.2,2.1-4.1,3.1l-0.9-1.3c2.2-1.3,3.8-2.8,4.7-4.4c0.8-1.5,1.3-3,1.4-4.5V71
	L211.6,71L211.6,71z"/>
<path class="st0" d="M227.5,76.2v-5h1.3v5h2v1.2h-2v0.4c0.7,0.8,1.4,1.6,2.2,2.5l-0.8,1.2c-0.6-0.9-1-1.6-1.4-2.2v5.4h-1.3v-5.3
	c0,0.1,0,0.1-0.1,0.2c-0.5,1.1-1.1,2.1-1.8,2.9l-0.5-1.5c0.9-1.1,1.7-2.3,2.2-3.6h-2.2v-1.2L227.5,76.2L227.5,76.2z M227.4,75.3
	l-1.2,0.3c-0.2-1-0.4-2-0.7-2.9l1.1-0.3C226.9,73.2,227.2,74.2,227.4,75.3z M231.1,72.5c-0.2,1.1-0.6,2.1-0.9,3l-1.2-0.4
	c0.4-0.8,0.7-1.7,0.9-2.9L231.1,72.5L231.1,72.5z M234.2,72.1V71h1.4v1.1h3v1.2h-3V74h2.8v1h-2.8v0.8h3.3v1.2h-7.8v-1.2h3.1V75h-2.6
	v-1h2.6v-0.7h-2.9v-1.2H234.2z M238.3,83.5c0,0.4-0.1,0.8-0.4,1c-0.2,0.2-0.5,0.3-0.8,0.3h-1.5l-0.2-1.2l1.3,0.1
	c0.3,0,0.4-0.2,0.4-0.5v-0.7h-4.1v2.4h-1.3v-7.2h6.7V83.5z M237,79.5v-0.8h-4.1v0.8H237z M237,81.4v-0.8h-4.1v0.8H237z"/>
<path class="st0" d="M250.2,73.3h1.6v1.3c-0.6,1.2-1.1,2.2-1.7,2.9c0.7,0.5,1.4,1.1,2,1.7l-0.8,1.2c-0.4-0.5-0.9-0.9-1.3-1.3v5.8
	h-1.4v-5.6c-0.5,0.5-1.1,1-1.7,1.6l-0.4-1.5c0.9-0.7,1.6-1.4,2.1-2c0.5-0.5,1.1-1.4,1.7-2.7h-3.5v-1.3h2.1c-0.2-0.7-0.5-1.4-0.7-2.1
	l1.4-0.2C249.8,71.7,250,72.5,250.2,73.3L250.2,73.3z M255.4,73.2V71h1.4v2.2h3.2v8.4h-3.2v3.2h-1.4v-3.2h-3.2v-8.4H255.4z
	 M255.4,76.7v-2.1h-1.8v2.1H255.4z M255.4,78h-1.8v2.3h1.8V78z M256.8,76.7h1.8v-2.1h-1.8V76.7z M258.6,78h-1.8v2.3h1.8V78z"/>
<path class="st0" d="M143.6,106.5c-0.1,0.3-0.3,0.6-0.4,0.8h3.8v1.1c0.7-0.7,1.2-1.5,1.5-2.2l1.4,0.2c-0.1,0.3-0.3,0.6-0.4,0.9h4.5
	v1.2h-2.5c0.1,0.4,0.3,0.7,0.4,1.1l-1.5,0.1c-0.1-0.4-0.2-0.8-0.3-1.2h-1.4c-0.3,0.5-0.7,0.9-1.1,1.3l-1.2-0.8
	c0.2-0.2,0.4-0.3,0.6-0.5h-2c0.2,0.3,0.3,0.7,0.4,1l-1.5,0.1c-0.1-0.4-0.2-0.8-0.3-1.2h-1.1c-0.4,0.5-0.8,0.9-1.2,1.3l-1.2-0.8
	c1.1-0.9,1.9-1.8,2.3-2.9L143.6,106.5z M146.3,115v-0.7l-0.6-0.5c0.7-0.2,1.3-0.5,1.6-0.8c-0.4-0.2-0.8-0.3-1.2-0.5l0.6-0.9
	c0.4,0.2,0.8,0.3,1.2,0.4c0-0.1,0-0.3,0-0.4v-0.5h-1.6V110h5.4v2.9c0,0.3,0.1,0.4,0.4,0.4h0.1c0.1,0,0.2,0,0.3-0.1
	c0.1-0.1,0.1-0.5,0.2-1.2l1.1,0.4c-0.1,1-0.2,1.6-0.4,1.8c-0.2,0.2-0.5,0.3-1,0.3h-0.6c-0.4,0-0.7-0.1-0.9-0.3
	c-0.2-0.2-0.3-0.5-0.3-0.9v-2.2h-1.5v0.5c0,0.3,0,0.6-0.1,0.9c0.5,0.2,0.9,0.4,1.4,0.7l-0.7,1.1c-0.5-0.3-0.9-0.5-1.3-0.8
	c-0.3,0.2-0.6,0.5-1,0.7h0.3v0.8h6.2v1.2h-4.7c0.5,0.4,1,0.8,1.5,0.9c0.7,0.4,1.8,0.8,3.1,1.1l-0.6,1.2c-1.6-0.6-2.8-1.1-3.6-1.6
	c-0.6-0.4-1.2-0.9-1.9-1.7v3.8h-1.3v-3.8h-0.1c-0.4,0.6-1,1.1-1.5,1.4c-0.9,0.7-2.2,1.3-4,1.9l-0.8-1.2c1.8-0.5,3-1,3.8-1.4
	c0.4-0.2,0.7-0.4,1-0.7h-4.9V115L146.3,115L146.3,115z M145.9,110.2v1.2h-2v1.3c0.7-0.1,1.3-0.2,2-0.4v1.2c-1.6,0.4-3.4,0.8-5.5,1.1
	l-0.3-1.3c0.8-0.1,1.7-0.2,2.5-0.3v-1.5h-2v-1.2L145.9,110.2L145.9,110.2z"/>
<path class="st0" d="M164.8,107.2v-0.9h1.4v0.9h1.8v1.2h-1.8v0.8h4.1v-0.8h-1.7v-1.2h1.7v-0.9h1.4v0.9h3.4v1.2h-3.4v0.8h2.4v3h-11.4
	v-3h2.1v-0.8h-3.3v-1.2H164.8L164.8,107.2z M174.8,115.6h-1.4V114h-5.5c-0.2,0.4-0.5,0.7-0.8,0.9h5.2v1.1c-0.8,1-1.7,1.7-2.8,2.3
	c-1.3,0.7-3.4,1.3-6.3,1.8l-0.5-1.3c1.5-0.2,2.8-0.4,3.9-0.7c-0.3-0.4-0.7-0.8-1.2-1.2l1-0.7c0.7,0.5,1.2,0.9,1.6,1.3
	c0.1-0.1,0.3-0.1,0.4-0.2c0.8-0.3,1.4-0.8,2-1.4h-4.7c-0.9,0.6-1.9,1.1-3,1.5l-0.6-1.1c1.3-0.5,2.3-1,3-1.5c0.4-0.3,0.8-0.6,1.2-1
	h-3.4v1.6h-1.4v-2.8h13.2V115.6z M165.9,110.2H164v0.9h1.9V110.2z M169.2,110.2h-2v0.9h2V110.2z M172.7,110.2h-2.2v0.9h2.2V110.2z"
	/>
<path class="st0" d="M186.5,109.9v1.1c-0.5,0.8-1.1,1.7-1.9,2.6h1.8v0.9c-0.2,1-0.4,1.7-0.7,2.2c0.6,0.7,1.1,1.1,1.4,1.2
	c0.3,0.2,0.8,0.3,1.4,0.4c0.7,0.1,2.1,0.2,4.3,0.2c1.5,0,2.7,0,3.5-0.1l-0.2,1.3c-4.1,0-6.6-0.1-7.5-0.2c-0.8-0.1-1.5-0.3-1.9-0.5
	c-0.4-0.2-0.9-0.6-1.4-1.3c-0.4,0.8-1,1.5-1.7,2.3l-1-1c0.8-0.8,1.3-1.5,1.6-2.1c0.2-0.4,0.6-1.1,0.9-2.2H183v-1.1
	c0.6-0.6,1.2-1.4,1.9-2.5h-2.2v-1.3H186.5L186.5,109.9z M186.1,108.5l-1,1c-0.4-0.7-1-1.5-1.8-2.3l0.9-0.9
	C184.9,107.1,185.6,107.8,186.1,108.5L186.1,108.5z M188.9,107v-0.8h1.2v0.8h1.1v0.9h-1.1v0.6h2.6v-0.6h-1.1V107h1.1v-0.8h1.2v0.8
	h2.2v0.9h-2.2v0.6h1.2v4.2H192v0.8h3.9v3.3c0,0.3-0.1,0.6-0.3,0.8c-0.2,0.2-0.5,0.3-0.9,0.3h-1.6l-0.2-1l1.5,0
	c0.2,0,0.4-0.1,0.4-0.3v-2.1H192v1c0.4,0,0.8-0.1,1.2-0.2c0-0.2-0.1-0.5-0.1-0.7l0.8-0.1c0.2,0.6,0.3,1.3,0.5,2l-0.9,0.1
	c0-0.1,0-0.3,0-0.4c-0.9,0.2-2.2,0.3-4.1,0.5l-0.2-1.1c0.6,0,1.2,0,1.8-0.1v-1.1h-2.2v3.3h-1.2v-3.3h-0.7v-1h0.7V113h1.2v0.5h2.2
	v-0.8h-3.1v-4.2h1.2v-0.6h-2.2V107L188.9,107L188.9,107z M190.8,110.2v-0.8h-1.9v0.8H190.8z M190.8,111.1h-1.9v0.8h1.9V111.1z
	 M192,110.2h1.9v-0.8H192V110.2z M193.9,111.1H192v0.8h1.9V111.1z"/>
<path class="st0" d="M211.7,106.5c-0.2,0.6-0.5,1.2-0.9,1.8h6.1v10c0,0.5-0.1,0.9-0.4,1.2c-0.2,0.2-0.6,0.4-1,0.4h-2l-0.3-1.5
	l1.7,0.1c0.3,0,0.5-0.2,0.5-0.6v-8.2h-9.1V120h-1.5v-11.7h4.4c0.4-0.6,0.7-1.3,0.9-2L211.7,106.5L211.7,106.5z M213.9,111.3v5.5
	h-6.2v-5.5H213.9z M212.4,112.6h-3.2v2.9h3.2V112.6z"/>
<path class="st0" d="M238.6,109.7h-4.2c0.1,2.1,0.4,3.8,0.8,5.1c0.7-1,1.3-2.4,1.9-4l1.3,0.5c-0.8,2.2-1.7,3.9-2.6,5
	c0.7,1.3,1.1,2,1.4,2c0.1,0,0.3-0.7,0.6-2.1l1.2,0.8c-0.3,1.4-0.7,2.3-0.9,2.6c-0.2,0.2-0.4,0.4-0.6,0.4c-0.6,0-1.3-0.4-1.9-1.1
	c-0.3-0.4-0.6-0.8-0.9-1.3c-0.9,0.9-2.1,1.7-3.6,2.3l-0.8-1.3c1.5-0.7,2.8-1.5,3.8-2.5c-0.2-0.5-0.4-1-0.5-1.6
	c-0.3-1.3-0.5-2.9-0.6-4.8h-5v1.8h4.1c0,2.7-0.2,4.4-0.4,5.1c-0.2,0.8-0.7,1.3-1.5,1.3h-2l-0.2-1.4c1,0.1,1.8,0.1,2.2,0.1
	c0.1,0,0.2-0.2,0.3-0.6c0-0.5,0.1-1.5,0.1-3.1H228c0,1.1-0.1,2.2-0.3,3.3c-0.3,1.4-0.7,2.7-1.3,4.1l-1.2-1.1c0.6-1.1,1-2.2,1.2-3.4
	c0.2-1.2,0.2-2.4,0.2-3.4v-4h6.4c0-0.7,0-1.4,0-2.1h1.4c0,0.8,0,1.4,0,2.1h2.1c-0.4-0.4-0.9-0.8-1.5-1.2l0.9-0.9
	c0.7,0.4,1.3,0.9,1.8,1.3l-0.8,0.8h1.6L238.6,109.7L238.6,109.7z"/>
<path class="st0" d="M252.1,107.7v1.3h-1.9v6.8c0.7-0.2,1.4-0.5,2-0.8v1.3c-1.5,0.7-3.3,1.3-5.4,1.9l-0.4-1.5
	c0.8-0.1,1.5-0.3,2.2-0.5v-7.2h-2v-1.3L252.1,107.7L252.1,107.7z M254.8,109.2v-3h1.4v3h3.8c0,5-0.1,8-0.2,8.9
	c-0.1,0.7-0.4,1.2-0.7,1.4c-0.4,0.3-1.1,0.4-2.2,0.4c-0.3,0-0.7,0-1.1-0.1l-0.2-1.5c0.4,0.1,0.9,0.1,1.4,0.1c0.8,0,1.3-0.3,1.4-0.9
	c0.1-0.7,0.2-3.1,0.3-7.1h-2.4c-0.1,1.9-0.4,3.5-0.8,4.8c-0.5,1.5-1.5,3.1-3,4.7l-1.2-1.1c1.4-1.2,2.3-2.6,2.9-4
	c0.4-1,0.7-2.4,0.7-4.3h-2.4v-1.3H254.8z"/>
</svg>
