<?xml version="1.0" encoding="utf-8"?>
<!-- Generator: Adobe Illustrator 27.0.0, SVG Export Plug-In . SVG Version: 6.00 Build 0)  -->
<svg version="1.1" id="圖層_1" xmlns="http://www.w3.org/2000/svg" xmlns:xlink="http://www.w3.org/1999/xlink" x="0px" y="0px"
	 viewBox="0 0 120 92" style="enable-background:new 0 0 120 92;" xml:space="preserve">
<style type="text/css">
	.st0{fill:#3E3A39;}
	.st1{fill:#C9A063;}
</style>
<path class="st0" d="M1.6,40.8v-0.6h2.6c0.5,0.8,1.5,1.5,3,2.1l-0.4,0.6c-0.2-0.1-0.4-0.2-0.6-0.3V43h-2v1.1h1.9v0.6H4.2v1.2H7v0.6
	H0.8v-0.6h2.7v-1.2h-2v-0.6h1.9V43h-2v-0.4c-0.2,0.1-0.4,0.2-0.6,0.3l-0.4-0.7c0.8-0.3,1.3-0.6,1.8-0.9c0.3-0.2,0.6-0.4,0.8-0.7
	L1.6,40.8L1.6,40.8z M5.8,42.6c-0.3-0.2-0.6-0.3-0.8-0.5c-0.5-0.4-0.9-0.8-1.2-1.2c-0.2,0.4-0.5,0.6-0.7,0.8
	c-0.3,0.3-0.7,0.6-1.3,0.9H5.8L5.8,42.6z"/>
<path class="st0" d="M11.1,40.4c-0.5,0.9-0.9,1.6-1.4,2.2c0.1,0,0.3,0,0.4,0c1.1,0,2.2-0.1,3.2-0.3c-0.3-0.4-0.6-0.7-0.9-1.1
	l0.5-0.5c0.7,0.8,1.3,1.5,1.7,2.3l-0.5,0.5c-0.1-0.2-0.2-0.4-0.4-0.6c-1.4,0.2-3.2,0.3-5.2,0.3l-0.1-0.8c0.3,0,0.5,0,0.7,0.1
	c0.5-0.6,1-1.4,1.5-2.4L11.1,40.4L11.1,40.4z M14,46.9h-0.7v-0.5H9.5v0.4H8.8v-3.1h5.3v3.2H14z M13.3,45.8v-1.4H9.5v1.4H13.3z"/>
<path class="st0" d="M18.6,42.6v-2.3h0.8v2.3h2.9v0.7h-2.9v3.6h-0.8v-3.6h-2.9v-0.7H18.6z"/>
<path class="st0" d="M26.1,42c0-0.4,0.1-0.8,0.1-1.3v-0.5h0.7v0.5c0,0.5,0,0.9-0.1,1.3h3v0.7h-2.2c0.2,0.7,0.4,1.3,0.7,1.8
	c0.4,0.6,0.9,1.1,1.6,1.5l-0.4,0.7c-0.8-0.5-1.4-1.2-1.8-1.8c-0.4-0.6-0.6-1.3-0.8-2.2h-0.2c-0.1,0.5-0.2,0.9-0.4,1.3
	c-0.4,0.9-1.1,1.8-2.2,2.7l-0.6-0.5c1-0.7,1.8-1.5,2.2-2.4c0.2-0.3,0.3-0.7,0.4-1.1h-2.6V42H26.1L26.1,42z"/>
<path class="st0" d="M34.8,40.7v-0.5h0.7v0.5h1.7v1h0.4v0.5h-0.4v1.1h-1.7v0.5h1.8v0.5h-1.8v0.5h2.1v0.5h-2.1v0.6c0.1,0,0.2,0,0.3,0
	c0.9,0,1.5,0,1.9,0l-0.2,0.7c-2.2,0-3.6,0-4.1-0.1c-0.4-0.1-0.8-0.3-1.1-0.5c0,0-0.1,0-0.1-0.1c-0.2,0.3-0.5,0.6-0.9,0.9l-0.4-0.7
	c0.4-0.2,0.7-0.5,0.9-0.8c-0.2-0.4-0.4-0.9-0.7-1.5l0.6-0.2c0.2,0.4,0.3,0.8,0.5,1v-0.1c0.1-0.3,0.2-0.8,0.2-1.3h-1.2v-0.5
	c0.4-0.5,0.8-1.1,1.2-1.7h-1.3v-0.5h2.1v0.6c-0.4,0.7-0.8,1.2-1.1,1.6h1.1c0,0.8-0.1,1.5-0.2,2c-0.1,0.2-0.1,0.4-0.2,0.6
	c0.2,0.2,0.4,0.3,0.8,0.5c0.3,0.1,0.7,0.1,1.4,0.2v-0.6h-1.7v-0.5H35v-0.5h-1.4v-0.5H35v-0.5h-1.5v-0.5h1.3v-0.6h-1.7v-0.5h1.7v-0.5
	h-1.3v-0.5L34.8,40.7L34.8,40.7z M35.5,41.7h1.1v-0.5h-1.1V41.7z M35.5,42.8h1.1v-0.6h-1.1V42.8z"/>
<path class="st0" d="M40.4,40.3c-0.1,0.1-0.1,0.3-0.2,0.4H42v0.5c0.3-0.3,0.6-0.7,0.7-1.1l0.7,0.1c-0.1,0.1-0.1,0.3-0.2,0.4h2.2v0.6
	h-1.2c0.1,0.2,0.1,0.3,0.2,0.5l-0.7,0.1c-0.1-0.2-0.1-0.4-0.1-0.6h-0.7c-0.2,0.2-0.3,0.4-0.5,0.6l-0.6-0.4c0.1-0.1,0.2-0.2,0.3-0.2
	h-1c0.1,0.2,0.1,0.3,0.2,0.5l-0.7,0.1c-0.1-0.2-0.1-0.4-0.2-0.6h-0.5c-0.2,0.2-0.4,0.5-0.6,0.7l-0.6-0.4c0.5-0.4,0.9-0.9,1.1-1.4
	L40.4,40.3L40.4,40.3z M41.7,44.4v-0.3l-0.3-0.2c0.4-0.1,0.6-0.2,0.8-0.4c-0.2-0.1-0.4-0.2-0.6-0.2l0.3-0.5c0.2,0.1,0.4,0.1,0.6,0.2
	c0-0.1,0-0.1,0-0.2v-0.2h-0.8v-0.5h2.6v1.4c0,0.1,0.1,0.2,0.2,0.2l0,0c0.1,0,0.1,0,0.1-0.1c0,0,0.1-0.2,0.1-0.6l0.5,0.2
	c0,0.5-0.1,0.8-0.2,0.9c-0.1,0.1-0.3,0.1-0.5,0.1h-0.3c-0.2,0-0.3,0-0.4-0.2c-0.1-0.1-0.1-0.2-0.1-0.4v-1.1H43v0.2
	c0,0.2,0,0.3-0.1,0.4c0.2,0.1,0.5,0.2,0.7,0.3l-0.3,0.5c-0.2-0.1-0.4-0.2-0.6-0.4c-0.1,0.1-0.3,0.2-0.5,0.3h0.1v0.4h3v0.6H43
	c0.3,0.2,0.5,0.4,0.7,0.5c0.3,0.2,0.8,0.4,1.5,0.5l-0.3,0.6c-0.8-0.3-1.4-0.5-1.7-0.8c-0.3-0.2-0.6-0.4-0.9-0.8v1.8h-0.7v-1.8l0,0
	c-0.2,0.3-0.5,0.5-0.7,0.7c-0.4,0.3-1.1,0.6-1.9,0.9l-0.4-0.6c0.9-0.2,1.5-0.5,1.8-0.7c0.2-0.1,0.3-0.2,0.5-0.3h-2.3v-0.6h3.1V44.4z
	 M41.5,42.1v0.6h-1v0.6c0.3-0.1,0.6-0.1,1-0.2v0.6c-0.8,0.2-1.6,0.4-2.6,0.5l-0.1-0.6c0.4,0,0.8-0.1,1.2-0.1v-0.7h-1v-0.6L41.5,42.1
	L41.5,42.1z"/>
<path class="st0" d="M48.4,40.3c-0.1,0.2-0.2,0.4-0.2,0.6h0.9v2.3h-1.8v0.7h2v2.7h-0.8v-0.4h-1.3v0.5h-0.6v-5.8h0.8
	c0.1-0.2,0.2-0.5,0.2-0.7L48.4,40.3z M48.4,42.6v-1.1h-1.2v1.1H48.4z M48.5,45.6v-1.2h-1.3v1.2H48.5z M53,40.5v0.6h-1.5v0.8h1.3v3.7
	c0,0.2-0.1,0.3-0.1,0.5c-0.1,0.1-0.2,0.2-0.4,0.2h-0.4l-0.2-0.7h0.4c0.1,0,0.1-0.1,0.1-0.2v-2.9h-0.7v4.3h-0.7v-4.3h-0.7v3.8h-0.6
	v-4.4h1.3v-0.8h-1.5v-0.6L53,40.5L53,40.5z"/>
<path class="st0" d="M4.1,50.5H7V51H0.5v-0.5h2.9c-0.1-0.1-0.2-0.2-0.3-0.3l0.8-0.1C3.9,50.3,4,50.4,4.1,50.5z M6.9,54H6.2v-0.8h-5
	V54H0.5v-1.2h6.4V54z M5.9,53.5V54h-2c-0.1,0-0.1,0.1-0.2,0.1c0.2,0.2,0.4,0.4,0.5,0.6c0.6-0.1,1.2-0.3,1.7-0.6l0.6,0.5
	c-0.3,0.1-0.7,0.3-1,0.4c0.1,0.2,0.3,0.4,0.5,0.5c0.2,0.2,0.5,0.4,0.9,0.6l-0.4,0.5c-0.4-0.3-0.8-0.6-1.1-0.9
	C5.2,55.5,5,55.3,4.9,55c-0.1,0-0.3,0.1-0.4,0.1c0.1,0.2,0.1,0.5,0.1,0.7c0,0.3-0.1,0.5-0.2,0.7c-0.1,0.2-0.6,0.2-1.2,0.2L3,56.1
	c0,0,0.1,0,0.3,0c0.3,0,0.4,0,0.5,0s0.1-0.1,0.1-0.3c0-0.1,0-0.2,0-0.3c-0.4,0.2-0.8,0.4-1.1,0.5c-0.5,0.2-1.1,0.4-1.9,0.5L0.6,56
	c0.8-0.1,1.4-0.3,2-0.5C3,55.4,3.5,55.2,3.8,55l0,0c0-0.1-0.1-0.1-0.1-0.2c-0.4,0.2-0.8,0.3-1.1,0.5c-0.5,0.1-1,0.3-1.7,0.4
	l-0.2-0.5c0.7-0.1,1.2-0.2,1.8-0.4c0.4-0.1,0.7-0.2,1-0.4c-0.1,0-0.1-0.1-0.2-0.1l0,0c-0.6,0.2-1.4,0.4-2.2,0.5l-0.3-0.5
	c0.8-0.1,1.5-0.2,2-0.3c0.2,0,0.3-0.1,0.4-0.1H1.5v-0.5L5.9,53.5L5.9,53.5z M6.3,51.4v1.2H1.1v-1.2H6.3z M5.6,51.8H1.8v0.3h3.8V51.8
	z"/>
<path class="st0" d="M13.4,52.3c-0.6,0.2-1.3,0.4-2.1,0.5v1l3.1-0.4l0.1,0.6l-3.2,0.4v1.2c0,0.2,0.1,0.2,0.3,0.2h1.9
	c0.1,0,0.2,0,0.2-0.1c0.1-0.1,0.1-0.4,0.1-1.1l0.7,0.2c-0.1,0.8-0.2,1.2-0.3,1.4c-0.1,0.1-0.4,0.2-0.7,0.2h-2.3
	c-0.2,0-0.4-0.1-0.6-0.2c-0.1-0.1-0.2-0.3-0.2-0.5v-1.1l-2.3,0.3L8,54.2l2.3-0.3v-1C9.9,53,9.4,53,8.9,53.1l-0.1-0.6
	c1.6-0.1,2.9-0.4,4.1-0.8L13.4,52.3L13.4,52.3z M11.8,50.8h2.7v1.8h-0.7v-1.2H9v1.2H8.3v-1.8h2.8c-0.1-0.2-0.2-0.4-0.3-0.5l0.8-0.1
	C11.6,50.3,11.7,50.5,11.8,50.8L11.8,50.8z"/>
<path class="st0" d="M19.5,50.6v-0.5h0.7v0.5h1.7v1h0.4v0.5h-0.4v1.1h-1.7v0.5H22v0.5h-1.8v0.5h2.1v0.5h-2.1v0.6c0.1,0,0.2,0,0.3,0
	c0.9,0,1.5,0,1.9,0l-0.1,0.7c-2.2,0-3.6-0.1-4.1-0.2c-0.4-0.1-0.8-0.3-1.1-0.5c0,0-0.1,0-0.1-0.1c-0.2,0.3-0.5,0.6-0.9,0.9l-0.4-0.7
	c0.4-0.2,0.7-0.5,0.9-0.8c-0.2-0.4-0.4-0.9-0.7-1.5l0.6-0.2c0.2,0.4,0.3,0.8,0.5,1v-0.1c0.1-0.3,0.2-0.8,0.2-1.3H16v-0.5
	c0.4-0.5,0.8-1.1,1.2-1.7h-1.3v-0.5H18v0.6c-0.4,0.7-0.8,1.2-1.1,1.6H18c0,0.8-0.1,1.5-0.2,2c-0.1,0.2-0.1,0.4-0.2,0.6
	c0.2,0.2,0.4,0.4,0.8,0.5c0.3,0.1,0.8,0.1,1.4,0.2v-0.6h-1.7v-0.5h1.7v-0.5h-1.4v-0.5h1.4v-0.5h-1.3v-0.5h1.3v-0.6h-1.7v-0.5h1.7
	v-0.5h-1.3v-0.5H19.5L19.5,50.6z M20.1,51.7h1.1v-0.5h-1.1V51.7z M20.1,52.8h1.1v-0.6h-1.1V52.8z"/>
<path class="st0" d="M25.1,50.2c-0.1,0.1-0.1,0.3-0.2,0.4h1.8v0.5c0.3-0.4,0.6-0.7,0.7-1.1l0.6,0.1c-0.1,0.2-0.1,0.3-0.2,0.4H30v0.6
	h-1.2c0.1,0.2,0.1,0.3,0.2,0.5l-0.7,0.1c-0.1-0.2-0.1-0.4-0.1-0.6h-0.7c-0.2,0.2-0.3,0.4-0.5,0.6l-0.6-0.4c0.1-0.1,0.2-0.2,0.3-0.2
	h-1c0.1,0.2,0.1,0.3,0.2,0.5l-0.7,0.1c0-0.2-0.1-0.4-0.2-0.6h-0.5c-0.2,0.2-0.4,0.5-0.6,0.6l-0.6-0.4c0.5-0.4,0.9-0.9,1.1-1.4
	L25.1,50.2L25.1,50.2z M26.4,54.3v-0.4l-0.3-0.2c0.3-0.1,0.6-0.2,0.8-0.4c-0.2-0.1-0.4-0.2-0.6-0.2l0.3-0.5c0.2,0.1,0.4,0.1,0.6,0.2
	c0-0.1,0-0.1,0-0.2v-0.2h-0.7v-0.5h2.6v1.4c0,0.1,0.1,0.2,0.2,0.2l0,0c0.1,0,0.1,0,0.1-0.1c0,0,0.1-0.2,0.1-0.6L30,53
	c0,0.5-0.1,0.8-0.2,0.9C29.7,54,29.6,54,29.3,54H29c-0.2,0-0.3,0-0.4-0.2c-0.1-0.1-0.1-0.3-0.1-0.4v-1.1h-0.7v0.2
	c0,0.2,0,0.3-0.1,0.4c0.2,0.1,0.5,0.2,0.7,0.3l-0.3,0.5c-0.2-0.1-0.4-0.3-0.6-0.4c-0.1,0.1-0.3,0.2-0.5,0.3h0.1V54h3v0.6h-2.3
	c0.3,0.2,0.5,0.4,0.7,0.5c0.4,0.2,0.9,0.4,1.5,0.5l-0.3,0.6c-0.8-0.3-1.4-0.5-1.7-0.8c-0.3-0.2-0.6-0.4-0.9-0.8v1.8h-0.6v-1.8l0,0
	c-0.2,0.3-0.5,0.5-0.7,0.7c-0.4,0.3-1.1,0.6-1.9,0.9l-0.4-0.6c0.8-0.2,1.5-0.5,1.8-0.7c0.2-0.1,0.3-0.2,0.5-0.3h-2.3V54L26.4,54.3
	L26.4,54.3z M26.2,52v0.6h-1v0.6c0.3-0.1,0.6-0.1,1-0.2v0.6c-0.8,0.2-1.6,0.4-2.7,0.5l-0.1-0.7c0.4,0,0.8-0.1,1.2-0.1v-0.7h-1V52
	H26.2L26.2,52z"/>
<path class="st0" d="M33.1,50.2c-0.1,0.2-0.2,0.4-0.2,0.6h0.9v2.3H32v0.7h2v2.8h-0.6v-0.4h-1.3v0.4h-0.7v-5.8h0.9
	c0.1-0.2,0.2-0.5,0.2-0.7L33.1,50.2z M33.1,52.5v-1.1h-1.2v1.1H33.1z M33.2,55.6v-1.2h-1.3v1.2H33.2z M37.7,50.4V51h-1.5v0.8h1.3
	v3.7c0,0.2-0.1,0.3-0.1,0.5c-0.1,0.1-0.2,0.2-0.4,0.2h-0.5l-0.2-0.7h0.4c0.1,0,0.1-0.1,0.1-0.2v-2.9h-0.7v4.3h-0.6v-4.3h-0.7v3.8
	h-0.6v-4.4h1.3V51H34v-0.6L37.7,50.4L37.7,50.4z"/>
<path class="st0" d="M2.6,60.7c-0.2,0-0.7,0.1-1.2,0.1v0.4h1.1v0.4H1.4V62h1.1v0.5H1.4v0.4H6v-0.4H4.9V62H6v-0.3H4.9v-0.5H6v-0.4
	H4.9v-0.6h1.8v2.7H7v1.4H6.3v-0.9H1.2v0.9H0.5v-1.4h0.3v-2.6c0.5,0,1-0.1,1.6-0.2L2.6,60.7L2.6,60.7z M5.8,63.9v0.5
	c-0.5,0.2-1,0.4-1.7,0.6h2.7v0.6H4.1v0.6c0,0.1-0.1,0.3-0.1,0.3c-0.1,0.1-0.2,0.2-0.4,0.2H2.5l-0.1-0.6c0.2,0,0.5,0,0.8,0
	c0.1,0,0.2-0.1,0.2-0.1v-0.4H0.6V65h2.8v-0.2c0.4-0.1,0.8-0.2,1.3-0.4h-3v-0.5H5.8L5.8,63.9z M4.7,60.4c-0.2,0.2-0.3,0.3-0.5,0.4
	c0.1,0.1,0.2,0.2,0.3,0.3l-0.4,0.4c-0.1-0.1-0.3-0.2-0.4-0.4c-0.2,0.1-0.5,0.3-0.9,0.4L2.5,61c0.2-0.1,0.5-0.2,0.7-0.3
	c-0.2-0.1-0.3-0.2-0.5-0.3L3,60.1c0.2,0.1,0.4,0.3,0.6,0.4c0.2-0.1,0.3-0.2,0.4-0.4L4.7,60.4z M4.8,61.7c-0.2,0.2-0.4,0.4-0.5,0.5
	c0.1,0.1,0.3,0.2,0.4,0.3l-0.4,0.4c-0.1-0.1-0.3-0.3-0.5-0.4c-0.2,0.1-0.5,0.3-0.8,0.4l-0.3-0.4c0.2-0.1,0.4-0.2,0.7-0.3
	c-0.1-0.1-0.3-0.2-0.5-0.3l0.3-0.3c0.2,0.1,0.4,0.2,0.5,0.3c0.2-0.1,0.3-0.3,0.5-0.4L4.8,61.7L4.8,61.7z"/>
<path class="st0" d="M14.6,60.9H9.1v2.5c0,0.5,0,1-0.1,1.6s-0.2,1.1-0.4,1.7L8,66.2c0.2-0.4,0.3-0.9,0.4-1.4
	c0.1-0.5,0.1-0.9,0.1-1.4v-3.1h6.1V60.9L14.6,60.9z M12.3,64.4v0.5h1.9v0.5h-1.9V66h2.4v0.6H9.2V66h0.9v-1.2h0.6V66h0.9v-1.6H12.3
	L12.3,64.4z M11.9,61.5c-0.2,0.1-0.5,0.1-0.8,0.1v0.5h0.7v0.5h-0.7l0,0c0.3,0.2,0.6,0.4,0.9,0.6l-0.3,0.5c-0.2-0.2-0.4-0.4-0.6-0.5
	v1.2h-0.6v-1.1c-0.2,0.3-0.5,0.6-0.8,0.9l-0.3-0.5c0.5-0.3,0.9-0.6,1.1-1h-1v-0.5h1.1v-0.4c-0.3,0-0.6,0-0.9,0l-0.2-0.5
	c0.9,0,1.6-0.1,2.2-0.2L11.9,61.5L11.9,61.5z M14.4,61.5c-0.3,0.1-0.6,0.1-1,0.2v0.4h1.2v0.5h-1.2v0.1c0.4,0.3,0.8,0.6,1.2,0.9
	l-0.3,0.5c-0.4-0.4-0.7-0.6-0.9-0.9v1.1h-0.6v-1.1c-0.2,0.4-0.5,0.7-0.8,0.9l-0.3-0.5c0.4-0.3,0.8-0.6,1-1H12v-0.5h0.8v-0.4
	c-0.2,0-0.5,0-0.7,0l-0.2-0.5c0.9,0,1.6-0.1,2.2-0.2L14.4,61.5z"/>
<path class="st0" d="M18.6,62.4v-0.9h0.9v0.9H18.6z M18.6,65v-0.9h0.9V65H18.6z"/>
<path class="st0" d="M3.1,70.8h1.3C4.6,70.5,4.8,70.3,5,70l0.7,0.2c-0.2,0.2-0.3,0.4-0.5,0.6h1.6v0.6H4.1v0.5h2.4v0.6H4.1v0.1
	c0,0.1,0,0.2,0,0.4h3v0.6h-3C4.1,73.8,4,74,4,74.2h3.1v0.6H4.7c0.1,0.2,0.2,0.4,0.4,0.5s0.4,0.3,0.8,0.4c0.3,0.1,0.8,0.2,1.4,0.3
	l-0.4,0.7c-0.6-0.1-1.1-0.3-1.5-0.5s-0.7-0.4-0.9-0.6S4.1,75.1,4,74.8H3.8c-0.1,0.2-0.2,0.5-0.3,0.7c-0.5,0.6-1.4,1.1-2.7,1.2
	L0.5,76c1.2-0.1,2.1-0.4,2.5-1c0.1-0.1,0.1-0.2,0.1-0.2H0.5v-0.6h2.7c0-0.2,0.1-0.4,0.1-0.6H0.5V73h2.9c0-0.1,0-0.3,0-0.4v-0.2H1.1
	v-0.6h2.3v-0.4H0.8v-0.6h1.6c-0.1-0.2-0.3-0.4-0.5-0.6L2.6,70C2.7,70.2,2.9,70.5,3.1,70.8L3.1,70.8z"/>
<path class="st0" d="M14.4,76.6h-0.6v-0.2H8.9v0.2H8.3v-6.4h6.1V76.6L14.4,76.6z M13.8,75.8v-5.1H8.9v5.1H13.8z M11.6,74.8
	c-0.7,0.2-1.4,0.3-2.3,0.5l-0.1-0.6c0.8-0.1,1.6-0.2,2.4-0.4L11.6,74.8L11.6,74.8z M11.5,71.5c0-0.2,0-0.4,0-0.7h0.6
	c0,0.2,0,0.5,0,0.7h0.7c-0.1-0.2-0.2-0.4-0.3-0.5l0.5-0.2c0.1,0.2,0.2,0.4,0.3,0.6L13,71.5h0.6V72h-1.5c0,0.5,0.1,0.8,0.1,1.1
	c0,0.2,0.1,0.5,0.1,0.7c0.2-0.4,0.4-0.9,0.7-1.6l0.5,0.3c-0.3,0.9-0.6,1.5-0.9,1.9l0,0c0,0,0,0.1,0.1,0.1c0.1,0.2,0.2,0.3,0.3,0.3
	c0,0,0.1-0.3,0.2-0.8l0.5,0.4c-0.2,0.5-0.3,0.8-0.4,0.9c-0.1,0.1-0.2,0.2-0.3,0.2c-0.2,0-0.4-0.1-0.6-0.4c-0.1-0.1-0.1-0.2-0.2-0.3
	c-0.2,0.3-0.5,0.5-0.8,0.7L11.1,75c0.4-0.3,0.7-0.5,0.9-0.8c-0.1-0.2-0.2-0.5-0.3-0.8c-0.1-0.4-0.2-0.9-0.2-1.5H9.1v-0.5h2.4V71.5z
	 M11.2,72.4v1.7H9.5v-1.7H11.2z M10.7,72.9H10v0.7h0.7V72.9z"/>
<path class="st0" d="M17.6,70.2c-0.2,0.5-0.3,1-0.5,1.4v5h-0.6v-3.7c-0.2,0.3-0.4,0.6-0.6,0.9L15.7,73c0.3-0.4,0.5-0.8,0.7-1.3
	c0.2-0.4,0.4-1,0.6-1.7L17.6,70.2L17.6,70.2z M21.9,70.5V72h0.6v0.6h-0.6v1.6h-2c-0.1,0.4-0.2,0.7-0.4,1c-0.3,0.6-0.9,1.1-1.6,1.5
	l-0.4-0.6c0.7-0.3,1.2-0.8,1.5-1.3c0.1-0.2,0.1-0.3,0.2-0.5h-1.4v-0.7h1.5c0-0.3,0.1-0.6,0.1-0.9h-1.9v-0.6h1.9v-0.9h-1.6v-0.6
	L21.9,70.5L21.9,70.5z M20,73.6h1.3v-1h-1.2C20,73,20,73.3,20,73.6z M20.1,72h1.2v-0.9h-1.2V72z"/>
<path class="st0" d="M26.8,70.7c-0.4,0.1-0.8,0.2-1.2,0.3v1h1.3v0.6h-1.3v0.1c0.5,0.5,0.9,0.9,1.4,1.5l-0.4,0.6
	c-0.4-0.6-0.7-1-1-1.3v3.1H25v-3.1c-0.1,0.3-0.3,0.6-0.4,0.8c-0.2,0.4-0.5,0.8-0.9,1.2l-0.4-0.6c0.3-0.3,0.6-0.7,0.9-1.1
	c0.2-0.3,0.4-0.7,0.5-1.1h-1.3v-0.6h1.5v-0.9c-0.4,0.1-0.8,0.1-1.2,0.2l-0.2-0.8c1.1-0.1,2.1-0.3,3-0.6L26.8,70.7L26.8,70.7z
	 M28,70.6v4.6h-0.7v-4.6H28z M29.7,70v5.8c0,0.3-0.1,0.5-0.2,0.6c-0.1,0.1-0.3,0.2-0.6,0.2h-1.2l-0.1-0.7c0.4,0,0.8,0.1,1.1,0.1
	c0.2,0,0.3,0,0.3-0.2v-5.7L29.7,70L29.7,70z"/>
<path class="st0" d="M32.6,70.8h0.9v0.6h-2.4v-0.6H32c0-0.2-0.1-0.5-0.2-0.7l0.7-0.1C32.5,70.2,32.5,70.5,32.6,70.8z M31.9,76.6
	h-0.7V74h2v2.4h-0.6v-0.3h-0.7V76.6z M33.2,71.9v0.6h-1.9v-0.6H33.2z M33.2,72.9v0.6h-1.9v-0.6H33.2z M32.6,74.6h-0.7v0.9h0.7V74.6z
	 M34.9,72.5c0.1-0.3,0.2-0.6,0.3-0.9l0.6,0.1c-0.1,0.3-0.2,0.6-0.2,0.8h2v0.6h-2.3c-0.1,0.1-0.1,0.3-0.2,0.4
	c-0.1,0.1-0.2,0.3-0.2,0.4h2.4v2.7h-0.7v-0.4h-1.7v0.4h-0.7v-2c-0.2,0.2-0.3,0.3-0.5,0.5l-0.5-0.6c0.6-0.4,1-0.9,1.2-1.3l0.1-0.1
	h-1.3v-0.6H34.9z M34.2,70.8V70h0.7v0.8h0.6v0.6h-0.6v0.7h-0.7v-0.7h-0.7v-0.6H34.2z M36.7,75.6v-1.1H35v1.1H36.7z M36.3,70.8V70H37
	v0.8h0.7v0.6H37v0.7h-0.7v-0.7h-0.6v-0.6H36.3z"/>
<path class="st0" d="M41.2,70.4V71h-0.9v1.4h0.8v0.7h-0.8v1.6c0.3-0.1,0.6-0.2,0.9-0.4V75c-0.7,0.3-1.5,0.6-2.3,0.9l-0.2-0.7
	c0.3-0.1,0.7-0.2,1-0.3v-1.8h-0.8v-0.7h0.8V71h-0.9v-0.7L41.2,70.4L41.2,70.4z M45,70.2v3.5h-1.5v0.7h1.6V75h-1.6v0.8h1.9v0.6h-4.6
	v-0.6h2V75h-1.4v-0.6h1.4v-0.7h-1.5v-3.5H45L45,70.2z M42.8,71.7v-0.9H42v0.9H42.8z M42.8,72.2H42v0.9h0.8V72.2z M43.5,71.7h0.9
	v-0.9h-0.9V71.7z M44.4,72.2h-0.9v0.9h0.9V72.2z"/>
<path class="st0" d="M52.6,70.6v0.7H50v4.3h2.9v0.7h-6.5v-0.7h2.9v-4.3h-2.6v-0.7H52.6L52.6,70.6z"/>
<path class="st0" d="M56.3,70.6c-0.2,0-0.7,0.1-1.2,0.1v0.4h1.1v0.5h-1.1V72h1.1v0.5h-1.1v0.4h4.6v-0.4h-1.2V72h1.1v-0.4h-1.1v-0.5
	h1.1v-0.4h-1.1v-0.6h1.8v2.7h0.3v1.4h-0.7v-0.8h-5.1v0.8h-0.7v-1.4h0.3v-2.6c0.5,0,1-0.1,1.6-0.2L56.3,70.6L56.3,70.6z M59.4,73.8
	v0.5c-0.5,0.2-1,0.4-1.7,0.6h2.7v0.6h-2.7v0.6c0,0.2-0.1,0.3-0.1,0.3c-0.1,0.1-0.2,0.2-0.4,0.2h-1.1L56,76c0.2,0,0.5,0,0.8,0
	c0.1,0,0.2-0.1,0.2-0.1v-0.5h-2.8v-0.6H57v-0.2c0.4-0.1,0.8-0.2,1.3-0.4h-3v-0.5L59.4,73.8L59.4,73.8z M58.3,70.3
	c-0.2,0.2-0.3,0.3-0.5,0.4c0.1,0.1,0.2,0.2,0.3,0.3l-0.4,0.4c-0.1-0.1-0.2-0.2-0.4-0.3c-0.2,0.1-0.5,0.3-0.9,0.4L56.1,71
	c0.2-0.1,0.5-0.2,0.7-0.3c-0.2-0.1-0.3-0.2-0.5-0.3l0.3-0.3c0.2,0.1,0.4,0.3,0.6,0.4c0.1-0.1,0.3-0.2,0.4-0.4L58.3,70.3z M58.4,71.6
	c-0.2,0.2-0.4,0.4-0.5,0.5c0.1,0.1,0.3,0.2,0.4,0.3l-0.4,0.4c-0.1-0.1-0.3-0.3-0.5-0.4c-0.2,0.1-0.5,0.3-0.8,0.4l-0.3-0.4
	c0.2-0.1,0.4-0.2,0.6-0.3c-0.1-0.1-0.3-0.2-0.5-0.3l0.3-0.3c0.2,0.1,0.4,0.2,0.6,0.4c0.2-0.1,0.3-0.3,0.5-0.4L58.4,71.6L58.4,71.6z"
	/>
<path class="st0" d="M64.2,70.3v0.5c-0.2,0.5-0.3,1.1-0.5,1.8c0.2,0.3,0.3,0.6,0.4,0.9c0.1,0.3,0.1,0.5,0.1,0.7
	c0,0.4-0.1,0.7-0.2,0.8c-0.2,0.2-0.5,0.3-1,0.3l-0.2-0.7c0.1,0,0.2,0,0.3,0s0.2,0,0.3-0.1s0.1-0.2,0.1-0.3c0-0.2,0-0.4-0.1-0.6
	s-0.2-0.5-0.4-0.9c0.2-0.7,0.4-1.2,0.5-1.7h-0.9v5.7h-0.7v-6.4L64.2,70.3L64.2,70.3z M68.3,73.3v0.6h-1.4v1.8c0,0.2,0.1,0.2,0.2,0.2
	h0.3c0.1,0,0.1,0,0.2-0.1c0-0.1,0.1-0.4,0.1-1.1l0.6,0.2c-0.1,0.8-0.1,1.2-0.2,1.4c-0.1,0.1-0.3,0.2-0.5,0.2H67
	c-0.2,0-0.4-0.1-0.5-0.2s-0.2-0.3-0.2-0.5v-2h-0.5c0,0.7-0.2,1.2-0.4,1.6s-0.6,0.8-1.3,1.2L63.6,76c0.6-0.2,0.9-0.5,1.1-0.8
	c0.2-0.3,0.4-0.8,0.4-1.4h-0.9v-0.6L68.3,73.3L68.3,73.3z M66.5,70.7h1.6v1.6h-0.4v0.3h-3.2v-0.3h-0.4v-1.6h1.6
	c-0.1-0.2-0.2-0.4-0.3-0.6l0.7-0.1C66.3,70.2,66.4,70.4,66.5,70.7L66.5,70.7z M67.5,72v-0.7h-2.6V72H67.5z"/>
<path class="st0" d="M4.2,80.4v-0.5h0.7v0.5h1.7v1H7v0.5H6.5V83H4.8v0.5h1.8V84H4.8v0.6h2.1v0.5H4.8v0.6c0.1,0,0.2,0,0.3,0
	c0.9,0,1.5,0,1.9,0l-0.1,0.7c-2.2,0-3.6,0-4.1-0.2c-0.4-0.1-0.8-0.3-1.1-0.5c0,0-0.1,0-0.1-0.1c-0.2,0.3-0.5,0.6-1,0.9l-0.4-0.7
	c0.4-0.2,0.7-0.5,0.9-0.8c-0.2-0.4-0.4-0.9-0.7-1.5L1,83.3c0.2,0.4,0.3,0.8,0.5,1v-0.1c0.1-0.3,0.2-0.8,0.2-1.3H0.5v-0.4
	c0.4-0.5,0.8-1.1,1.2-1.7H0.4v-0.5h2.1v0.6c-0.4,0.7-0.8,1.2-1.1,1.6h1.1c0,0.8-0.1,1.5-0.2,2c-0.1,0.2-0.1,0.4-0.2,0.6
	c0.2,0.2,0.4,0.3,0.8,0.4c0.3,0.1,0.7,0.1,1.4,0.2v-0.6H2.6v-0.5h1.7v-0.5H2.9v-0.5h1.4v-0.5H3v-0.5h1.3V82H2.6v-0.5h1.7V81H3v-0.5
	L4.2,80.4L4.2,80.4z M4.8,81.5h1.1V81H4.8V81.5z M4.8,82.6h1.1V82H4.8V82.6z"/>
<path class="st0" d="M9.8,80c-0.1,0.1-0.1,0.3-0.2,0.4h1.8v0.5c0.3-0.4,0.6-0.7,0.7-1.1l0.6,0.1c-0.1,0.2-0.1,0.3-0.2,0.4h2.2v0.6
	h-1.2c0.1,0.2,0.1,0.3,0.2,0.5L13,81.5c-0.1-0.2-0.1-0.4-0.1-0.6h-0.7c-0.2,0.2-0.3,0.4-0.5,0.6l-0.6-0.4c0.1-0.1,0.2-0.2,0.3-0.2
	h-1c0.1,0.2,0.1,0.3,0.2,0.5l-0.7,0.1c-0.1-0.2-0.1-0.4-0.2-0.6H9.2c-0.2,0.2-0.4,0.5-0.6,0.7L8,81.2c0.5-0.4,0.9-0.9,1.1-1.4
	L9.8,80L9.8,80z M11.1,84.1v-0.3l-0.3-0.2c0.3-0.1,0.6-0.2,0.8-0.4C11.4,83.1,11.2,83,11,83l0.3-0.5c0.2,0.1,0.4,0.1,0.6,0.2
	c0-0.1,0-0.1,0-0.2v-0.2h-0.8v-0.5h2.6v1.4c0,0.1,0.1,0.2,0.2,0.2l0,0c0.1,0,0.1,0,0.1-0.1c0,0,0.1-0.2,0.1-0.6l0.5,0.2
	c0,0.5-0.1,0.8-0.2,0.9c-0.1,0.1-0.2,0.1-0.5,0.1h-0.3c-0.2,0-0.3,0-0.4-0.1c-0.1-0.1-0.1-0.2-0.1-0.4v-1.1h-0.6v0.2
	c0,0.2,0,0.3-0.1,0.4c0.2,0.1,0.4,0.2,0.7,0.3l-0.3,0.5c-0.2-0.1-0.4-0.2-0.6-0.4c-0.1,0.1-0.3,0.2-0.5,0.3h0.1V84h3v0.6h-2.3
	c0.3,0.2,0.5,0.4,0.7,0.5c0.3,0.2,0.8,0.4,1.5,0.5l-0.3,0.6c-0.8-0.3-1.4-0.5-1.7-0.8c-0.3-0.2-0.6-0.4-0.9-0.8v2h-0.6v-1.8l0,0
	c-0.2,0.3-0.5,0.5-0.7,0.7c-0.4,0.3-1.1,0.6-1.9,0.9l-0.4-0.6c0.9-0.2,1.5-0.5,1.8-0.7c0.2-0.1,0.3-0.2,0.5-0.3H8.2v-0.6L11.1,84.1
	L11.1,84.1z M10.9,81.9v0.6h-1v0.6c0.3-0.1,0.6-0.1,1-0.2v0.6c-0.8,0.2-1.6,0.4-2.7,0.5l-0.1-0.7c0.4,0,0.8-0.1,1.2-0.1v-0.7h-1
	v-0.6L10.9,81.9L10.9,81.9z"/>
<path class="st0" d="M18.3,80.2v0.6h-1.1c-0.1,0.6-0.3,1.1-0.4,1.5h1.4v3.4h-1.3v0.6h-0.6v-2.9c-0.1,0.2-0.2,0.4-0.4,0.6l-0.4-0.6
	c0.3-0.5,0.6-1.1,0.7-1.5c0.1-0.3,0.2-0.7,0.3-1.1h-0.7v-0.6H18.3L18.3,80.2z M17.6,85.2V83h-0.7v2.2H17.6z M22.2,80.3v0.6h-0.6v1.7
	h0.8v0.6h-0.8v3.4h-0.7v-3.4h-1c0,0.6-0.1,1.1-0.2,1.6c-0.2,0.6-0.5,1.2-0.9,1.8l-0.5-0.5c0.4-0.5,0.7-0.9,0.8-1.5
	c0.1-0.3,0.2-0.8,0.2-1.4h-0.9v-0.6h0.9v-1.7h-0.7v-0.6L22.2,80.3L22.2,80.3z M20.9,80.9h-1v1.7h1V80.9z"/>
<path class="st0" d="M26.3,81.7c-0.3,0.4-0.6,0.8-0.9,1c-0.4,0.2-0.9,0.4-1.7,0.6l-0.4-0.6c0.8-0.1,1.3-0.3,1.6-0.4s0.6-0.4,0.8-0.8
	L26.3,81.7z M26,83.7L26,83.7v-1h0.7v0.9v0.1h1.8l-0.1,1.7c0,0.2,0,0.3,0.1,0.3s0.1,0.1,0.2,0.1h0.5c0,0,0.1,0,0.1-0.1
	c0,0,0.1-0.4,0.1-1.2l0.7,0.2c-0.1,0.8-0.2,1.3-0.3,1.4s-0.3,0.2-0.6,0.2h-0.9c-0.2,0-0.3-0.1-0.4-0.2c-0.2-0.1-0.2-0.3-0.2-0.6
	l0.1-1.4h-1.1c-0.1,0.5-0.4,0.9-0.7,1.3c-0.5,0.5-1.2,0.8-2.2,1.1l-0.4-0.6c1-0.2,1.7-0.5,2.1-0.9c0.2-0.2,0.4-0.5,0.5-0.8h-2v-0.6
	L26,83.7L26,83.7z M26.9,80.6h2.7v1.5h-0.7v-0.9h-1.1v1.1c0,0.2,0.1,0.2,0.2,0.2h1.8v0.6h-1.9c-0.2,0-0.4,0-0.6-0.1
	c-0.1-0.1-0.2-0.2-0.2-0.5v-1.3h-2.8v0.9h-0.7v-1.5h2.6c-0.1-0.2-0.2-0.4-0.3-0.5l0.8-0.1C26.7,80.1,26.9,80.3,26.9,80.6z"/>
<path class="st0" d="M34.4,80.6c-0.7,0.2-1.4,0.3-2.1,0.4v0.7h1.8V84h-1.8c0,0.4-0.1,0.7-0.1,1.1c-0.1,0.5-0.3,1-0.5,1.4L31.2,86
	c0.2-0.4,0.3-0.7,0.4-1.1c0.1-0.4,0.1-0.9,0.1-1.4v-3.1c1,0,1.8-0.2,2.5-0.5L34.4,80.6L34.4,80.6z M33.4,83.5v-1.1h-1.2v1.1H33.4z
	 M37.7,80.6c-0.8,0.2-1.6,0.3-2.5,0.4v1.2h2.6v0.7h-0.7v3.7h-0.7v-3.7h-1.2v0.8c0,0.5-0.1,1-0.2,1.5c-0.1,0.5-0.4,0.9-0.7,1.3
	L33.8,86c0.2-0.3,0.4-0.7,0.6-1c0.1-0.4,0.2-0.8,0.2-1.3v-3.3c1.1,0,2.1-0.2,2.9-0.5L37.7,80.6L37.7,80.6z"/>
<path class="st0" d="M39.2,83.2c0-0.2,0.2-0.4,0.4-0.4S40,83,40,83.2s-0.2,0.4-0.4,0.4C39.3,83.6,39.2,83.4,39.2,83.2z"/>
<path class="st0" d="M44,80.2v0.6h-0.9c-0.1,0.6-0.2,1.1-0.4,1.5l0,0h1.2v3.4h-1.2v0.7h-0.6v-3c-0.1,0.2-0.2,0.4-0.4,0.6l-0.4-0.6
	c0.4-0.5,0.6-1,0.7-1.4c0.1-0.3,0.2-0.6,0.3-1.1h-0.8v-0.6L44,80.2L44,80.2z M43.3,85.2V83h-0.6v2.2H43.3z M45.8,85.6
	c-0.4,0.4-0.9,0.7-1.5,1L43.9,86c0.5-0.2,1-0.5,1.5-0.8L45.8,85.6z M48.2,80.2v0.6h-1.7c-0.1,0.2-0.1,0.4-0.2,0.5h1.5v3.8h-3.5v-3.8
	h1.2c0.1-0.2,0.1-0.4,0.2-0.5h-1.5v-0.6H48.2L48.2,80.2z M47.2,82.4v-0.5H45v0.5H47.2z M47.2,83.5v-0.6H45v0.6H47.2z M47.2,84H45
	v0.6h2.2V84z M48.2,86l-0.4,0.6c-0.5-0.4-1-0.7-1.6-0.9l0.3-0.5C47.1,85.5,47.7,85.7,48.2,86L48.2,86z"/>
<path class="st0" d="M52.1,82.1v-2.2h0.8v2.2h2.9v0.7h-2.9v2.8h2.5v0.6h-5.9v-0.6h2.6v-2.9h-2.8V82L52.1,82.1L52.1,82.1z"/>
<path class="st0" d="M4.5,7.1H1.8v0.8H0.9V0.7h3.6L4.5,7.1L4.5,7.1z M3.6,3.4V1.5H1.8v1.9H3.6z M3.6,6.3v-2H1.8v2H3.6z M5.5,0.4h4.4
	v7.7c0,0.3-0.1,0.6-0.3,0.8C9.4,9,9.2,9.1,8.9,9.1H7.2L7,8.2l1.5,0.1c0.2,0,0.3-0.1,0.3-0.4V6.1H6.3C6.2,6.5,6.1,6.8,6,7.1
	C5.7,7.8,5.1,8.5,4.2,9.3L3.4,8.6C4.2,8,4.7,7.4,5.1,6.8c0.3-0.5,0.4-1.3,0.4-2.4L5.5,0.4L5.5,0.4z M8.9,5.2V3.7H6.5v0.7
	c0,0.3,0,0.6,0,0.9L8.9,5.2L8.9,5.2z M8.9,2.8V1.3H6.5v1.4h2.4V2.8z"/>
<path class="st0" d="M19.9,9.2h-1V8.5h-5.2v0.7h-1V0.4h7.2V9.2L19.9,9.2z M18.9,3.9V1.4h-5.2v2.5H18.9z M18.9,7.6V4.9h-5.2v2.7H18.9
	z"/>
<path class="st0" d="M28,0.8V0.1h0.9v0.7h2.5v1.4H32V3h-0.6v1.5h-2.5v0.6h2.6v0.7h-2.6v0.7h3v0.7h-3V8c0.1,0,0.3,0,0.4,0
	c1.2,0,2.1,0,2.8-0.1l-0.2,1c-3.2,0-5.2-0.1-5.9-0.2c-0.6-0.2-1.2-0.4-1.5-0.7l-0.1-0.1c-0.3,0.4-0.8,0.8-1.4,1.3l-0.5-0.9
	c0.6-0.4,1-0.7,1.3-1.2c-0.3-0.5-0.6-1.2-1-2l0.8-0.3c0.2,0.6,0.5,1,0.7,1.4c0,0,0-0.1,0.1-0.1c0.1-0.4,0.2-1,0.3-1.8h-1.8V3.6
	c0.6-0.7,1.2-1.5,1.7-2.4h-1.9V0.5h3v0.9c-0.6,0.9-1.1,1.6-1.6,2.2h1.6c0,1.1-0.2,2-0.4,2.7c-0.1,0.3-0.2,0.6-0.3,0.9
	c0.2,0.3,0.6,0.5,1.1,0.6c0.4,0.1,1.1,0.2,2,0.2V7.2h-2.6V6.4H28V5.7h-2V5h2V4.4h-1.9V3.7H28V2.9h-2.5V2.2H28V1.4h-1.9V0.7L28,0.8
	L28,0.8z M29,2.2h1.5V1.5H29V2.2z M29,3.7h1.5V2.9H29V3.7z"/>
<path class="st0" d="M36,0.2c-0.1,0.2-0.2,0.4-0.3,0.6h2.6v0.8c0.5-0.5,0.8-1,1-1.5l0.9,0.1c-0.1,0.2-0.2,0.4-0.3,0.6H43v0.8h-1.5
	c0.1,0.2,0.2,0.5,0.3,0.7l-1,0.1c-0.1-0.3-0.1-0.6-0.2-0.8h-1c-0.2,0.3-0.5,0.6-0.8,0.9L37.9,2c0.2-0.1,0.3-0.2,0.4-0.4h-1.4
	c0.1,0.2,0.2,0.5,0.3,0.7l-1,0.1c-0.1-0.3-0.1-0.5-0.2-0.8h-0.8c-0.3,0.3-0.6,0.6-0.9,0.9L33.4,2c0.8-0.6,1.3-1.2,1.6-1.9L36,0.2
	L36,0.2z M38,5.9V5.4L37.5,5c0.5-0.2,0.9-0.3,1.1-0.5c-0.3-0.1-0.6-0.2-0.8-0.3l0.4-0.6c0.3,0.1,0.6,0.2,0.8,0.3c0-0.1,0-0.2,0-0.3
	V3.2h-1.1V2.5h3.8v1.9c0,0.2,0.1,0.3,0.3,0.3l0,0c0.1,0,0.2,0,0.2-0.1c0,0,0.1-0.3,0.1-0.8L43.1,4c-0.1,0.7-0.2,1.1-0.3,1.2
	c-0.1,0.1-0.4,0.2-0.7,0.2h-0.4c-0.3,0-0.5-0.1-0.6-0.2c-0.2-0.1-0.2-0.3-0.2-0.6V3.2h-1v0.4c0,0.2,0,0.4-0.1,0.6
	c0.3,0.1,0.6,0.3,0.9,0.5l-0.5,0.7c-0.3-0.2-0.6-0.3-0.9-0.5c-0.2,0.2-0.4,0.3-0.7,0.5h0.2v0.5h4.3v0.8h-3.3
	c0.4,0.3,0.7,0.5,1.1,0.6c0.5,0.3,1.2,0.5,2.2,0.7l-0.4,0.8c-1.1-0.4-2-0.7-2.5-1.1c-0.4-0.2-0.9-0.6-1.3-1.1v2.5H38V6.7l0,0
	c-0.3,0.4-0.7,0.7-1.1,1c-0.6,0.4-1.6,0.9-2.8,1.3l-0.5-0.8c1.2-0.4,2.1-0.7,2.6-1c0.2-0.1,0.5-0.3,0.7-0.5h-3.4V5.9H38L38,5.9z
	 M37.7,2.7v0.8h-1.4v0.9c0.5-0.1,0.9-0.2,1.4-0.3v0.8c-1.1,0.3-2.4,0.5-3.9,0.7l-0.2-0.9c0.6-0.1,1.1-0.1,1.7-0.2v-1h-1.4V2.7H37.7
	L37.7,2.7z"/>
<path class="st0" d="M54.1,1.3l-0.7,0.4h4.3v0.9H54v1.9h3.2v0.9H54v2.4h4.1v0.9h-9.4V7.8h4.2V5.4h-3.3V4.5h3.3V2.6H49V1.7h3.9
	c-0.2-0.4-0.6-0.8-0.9-1.2L52.8,0C53.4,0.5,53.8,0.9,54.1,1.3L54.1,1.3z"/>
<path class="st0" d="M63.2,0.7v0.9h-1.3v2H63v0.9h-1.1v2.2c0.5-0.2,0.9-0.3,1.3-0.5v1c-1,0.4-2.1,0.8-3.4,1.2l-0.3-1
	c0.5-0.1,1-0.3,1.4-0.4V4.5h-1.1V3.6h1.1v-2h-1.2V0.7H63.2L63.2,0.7z M68.8,0.4v4.8h-2.3v1h2.2V7h-2.2v1.1h2.7v0.8h-6.6V8.2h3V7h-2
	V6.2h2v-1h-2.1V0.4H68.8z M65.6,2.4V1.2h-1.2v1.2C64.4,2.4,65.6,2.4,65.6,2.4z M65.6,3.2h-1.2v1.3h1.2V3.2z M66.5,2.4h1.3V1.2h-1.3
	V2.4z M67.8,3.2h-1.3v1.3h1.3V3.2z"/>
<path class="st0" d="M76,0v2.4C76.3,3.9,76.9,5,77.6,6c0.6,0.8,1.5,1.6,2.7,2.4l-0.7,0.9c-1-0.7-1.9-1.3-2.4-1.9
	c-0.7-0.8-1.3-1.7-1.7-2.9c-0.4,1.1-0.8,2-1.4,2.7c-0.6,0.7-1.6,1.4-2.8,2l-0.6-0.9c1.6-0.9,2.7-1.9,3.3-2.9s0.9-2,0.9-3V0H76L76,0z
	"/>
<path class="st1" d="M11.6,20.8l2,1.4c-0.1,0.1-0.3,0.3-0.7,0.4v5.2c0,0-0.5,0.5-1.9,0.5v-0.9H1.9v0.5c0,0.1-0.3,0.7-1.9,0.7v-7.5
	l2,0.8h2.9c0.2-0.8,0.4-2,0.5-2.9H2.9v0.3c0,0-0.3,0.6-1.8,0.6v-6.7l2,0.8h6.6l0.7-1l2,1.4c-0.1,0.1-0.3,0.3-0.7,0.4v4.4
	c0,0-0.5,0.5-1.8,0.5V19H7.7c-0.6,1-1.5,2.2-2.2,2.9h5.3L11.6,20.8L11.6,20.8z M2,27h9.1v-4.9H2V27z M3,18.5h6.9v-4.3H3V18.5z"/>
<path class="st1" d="M33.1,16.3c-0.1,0.2-0.3,0.3-0.8,0.3h-2c-0.8,2.9-2,5.3-3.9,7.2c1.9,1.4,4.3,2.3,6.8,2.9v0.2
	c-0.9,0.1-1.6,0.7-1.9,1.6c-2.4-0.8-4.4-2-6-3.5c-2,1.6-4.5,2.8-7.8,3.5l-0.1-0.2c3-1,5.3-2.4,7-4.2c-1.5-1.9-2.6-4.3-3.2-7.4h-3.7
	l-0.1-0.3h6.9v-3.8l2.6,0.2c0,0.2-0.2,0.4-0.7,0.4v3.1H30l1.1-1.5L33.1,16.3L33.1,16.3z M21.4,16.6c0.7,2.7,2.1,4.7,3.8,6.3
	c1.4-1.8,2.3-3.9,2.8-6.3H21.4z"/>
<path class="st1" d="M40.3,18.1V20c1.9,0.6,2.5,1.5,2.5,2.1c0,0.5-0.4,1-0.9,1c-0.2,0-0.5-0.1-0.7-0.4c0-0.8-0.4-1.8-0.9-2.4v7.6
	c0,0.1-0.6,0.5-1.5,0.5h-0.3v-6.1c-0.7,1.1-1.6,2.2-2.5,3.1l-0.2-0.2c1.3-1.9,2.1-4.6,2.5-7.1H36l-0.1-0.3h2.6V15
	c-0.9,0.2-1.8,0.4-2.6,0.5l-0.1-0.2c1.7-0.8,3.9-2,5-2.8l2.1,1.7c-0.1,0.1-0.3,0.1-0.5,0.1s-0.4,0-0.6-0.1c-0.4,0.1-1,0.3-1.5,0.4
	v3.2h0.4l0.8-1.2l1.4,1.1v-4.4l1.8,0.7h4l0.7-0.9l1.9,1.3c-0.1,0.1-0.4,0.3-0.7,0.3v4.1c0,0-0.5,0.5-1.8,0.5v-0.9h-4.3v0.5
	c0,0-0.3,0.6-1.7,0.6V18c-0.1,0.1-0.3,0.1-0.6,0.1L40.3,18.1L40.3,18.1z M50.3,26.1l1.8,1.3c-0.1,0.2-0.3,0.3-0.8,0.3h-9.7l-0.1-0.3
	h4.4v-3.2h-3.2l-0.1-0.3h3.3V21h-3.5l-0.1-0.3h6.8l0.9-1.2l1.7,1.3c-0.1,0.2-0.4,0.3-0.8,0.3h-3.2V24h1l0.9-1.2l1.7,1.2
	c-0.1,0.2-0.3,0.3-0.8,0.3h-2.8v3.2h1.6L50.3,26.1L50.3,26.1z M48.9,14.3h-4.3v3.8h4.3V14.3z"/>
</svg>
