<?xml version="1.0" encoding="utf-8"?>
<!-- Generator: Adobe Illustrator 27.0.0, SVG Export Plug-In . SVG Version: 6.00 Build 0)  -->
<svg version="1.1" id="圖層_1" xmlns="http://www.w3.org/2000/svg" xmlns:xlink="http://www.w3.org/1999/xlink" x="0px" y="0px"
	 viewBox="0 0 173 103" style="enable-background:new 0 0 173 103;" xml:space="preserve">
<style type="text/css">
	.st0{fill:#E8D0A4;}
	.st1{fill:none;stroke:#571704;stroke-width:0.25;stroke-miterlimit:10;}
	.st2{fill:#834E1A;}
	.st3{fill:#40210F;}
</style>
<g>
	<rect x="0.1" y="0.2" class="st0" width="172.5" height="102.6"/>
	<line class="st1" x1="16.1" y1="32" x2="152.7" y2="32"/>
	<g>
		<g>
			<g>
				<path class="st2" d="M21.5,12.8c0,0.1-0.2,0.2-0.5,0.2c-0.6,0.9-1.6,2.1-2.7,3.1c1.5,0,3.4,0,5.4,0c-0.5-0.7-1.1-1.2-1.7-1.7
					l0.1-0.1c3.3,0.4,4.3,1.9,4.3,2.9c0,0.6-0.4,1.1-0.9,1.1c-0.2,0-0.4-0.1-0.6-0.2c-0.2-0.5-0.5-1-0.8-1.5c-1.7,0.4-4,0.8-7.4,1.4
					c-0.1,0.2-0.2,0.2-0.4,0.3l-0.8-2.1l2.1,0c0.6-1.3,1.2-3,1.5-4.2L21.5,12.8z M22.9,19l0.7-1l1.8,1.4c-0.1,0.1-0.3,0.3-0.6,0.3
					v3.9c0,0-0.5,0.4-1.8,0.4v-1h-4.3v0.5c0,0.1-0.2,0.7-1.7,0.7v-5.9l1.8,0.7H22.9z M18.7,22.8H23v-3.6h-4.3V22.8z"/>
				<path class="st2" d="M30.8,14.3l0.2,0c-0.3,1.8-0.8,5.2-0.8,6.1v0.1c0,0.7,0.5,1.2,0.5,2.3c0,1.1-0.7,1.3-1,1.3
					c-0.3,0-0.6-0.2-0.7-0.7c0.1-0.6,0.2-1.2,0.2-1.7c0-1.2-0.2-1.3-0.8-1.4v-0.2c0.4,0,0.5,0,0.5,0v0c0.2,0,0.2,0,0.3-0.3
					c0.1-0.3,0.2-0.4,0.8-2.6c-0.1,0.2-0.4,0.4-0.6,0.4c-0.2,0-0.4-0.1-0.6-0.3c0-0.7-0.2-1.5-0.5-2l0.1-0.1c1.4,0.4,1.8,1,1.9,1.6
					L30.8,14.3z M28.6,12.1c1.5,0.4,2,1,2,1.6c0,0.5-0.4,0.9-0.8,0.9c-0.2,0-0.4-0.1-0.6-0.3C29.2,13.5,28.9,12.6,28.6,12.1
					L28.6,12.1z M38.4,16.6l0.1-0.1c0.8,0.4,1.1,0.9,1.1,1.3c0,0.3-0.2,0.6-0.5,0.6c-0.1,0-0.3-0.1-0.4-0.2
					C38.8,17.7,38.6,17,38.4,16.6v2c0,0.1-0.3,0.2-0.8,0.2l1,0.7c-0.1,0.1-0.2,0.2-0.4,0.2v1c0,0-0.2,0.1-0.4,0.2l1.3,1
					c-0.1,0.1-0.2,0.2-0.4,0.2c-0.3,1.7-0.8,2-2.3,2c0-0.8-0.2-1.2-1.6-1.4v-0.2c0.6,0,1.5,0.1,1.8,0.1c0.4,0,0.5,0,0.7-0.9h-4.4
					c-0.1,0.2-0.1,0.5-0.2,0.7c-0.2,0.1-0.3,0.1-0.6,0.1c-0.2,0-0.5-0.1-0.9-0.2c0.3-0.8,0.6-2,0.7-2.7l1.5,0.7h3.3v-1.1h-5.1
					l-0.1-0.2h5.1l0.5-0.7l0.3,0.2v-1.5c-0.2,0.5-0.6,1-0.9,1.4l-0.2-0.1c0.2-0.4,0.3-1.2,0.4-1.8l0.7,0.2v-0.7L37,16.2
					c-0.1,0.2-0.2,0.2-0.3,0.3l-0.4-0.8c-0.1,0-0.2,0.1-0.4,0.1H34c0,0.1,0,0.2-0.1,0.3l1,0.4h0.2l0.3-0.5l1,0.7
					c0,0.1-0.2,0.1-0.3,0.2v1.4c0,0-0.3,0.3-1,0.3V18h-0.4v0.5c0,0.1-0.3,0.3-0.8,0.3h-0.2v-1h0c0,0.3-0.2,0.4-0.4,0.4
					c-0.1,0-0.2-0.1-0.3-0.2c0-0.4-0.1-0.9-0.2-1.2v1.8c0,0.1-0.3,0.2-0.8,0.2h-0.2v-1.4c-0.3,0.5-0.7,1-1.1,1.3l-0.2-0.1
					c0.2-0.5,0.5-1.3,0.7-2.1l0.6,0.2v-0.7l-0.4,0.1c-0.1,0.2-0.2,0.2-0.3,0.3l-0.4-1.1c0.2,0,0.4,0,0.7,0c0.1-0.2,0.2-0.4,0.3-0.6
					c-0.1,0-0.1,0.1-0.2,0.1c-0.1,0-0.2,0-0.3-0.2c0-0.4-0.2-0.9-0.5-1.2l0.1-0.1c0.2,0,0.4,0.1,0.6,0.2c0.2-0.4,0.3-1,0.5-1.6
					l1.3,0.5c-0.1,0.1-0.2,0.2-0.4,0.2c-0.3,0.3-0.7,0.7-1,1c0.2,0.2,0.3,0.4,0.3,0.5c0.2-0.4,0.4-0.8,0.5-1.1l0.8,0.5l0-0.1h1.7
					l0.5-0.7l0.5,0.4l0,0c0.3,0,0.5,0.1,0.7,0.2c0.1-0.4,0.3-1,0.4-1.5l1.3,0.6c0,0.1-0.2,0.2-0.4,0.2c-0.3,0.3-0.6,0.7-1,1
					c0.2,0.2,0.3,0.4,0.3,0.5c0,0.1,0,0.1,0,0.2h0c0.2-0.4,0.4-0.8,0.6-1.1l1.2,0.7c0,0.1-0.1,0.1-0.2,0.1c-0.1,0-0.1,0-0.2,0
					c-0.4,0.4-0.9,0.9-1.5,1.3l1.2,0c-0.1-0.2-0.2-0.4-0.3-0.6l0.1-0.1c0.9,0.3,1.2,0.7,1.2,1c0,0.3-0.2,0.5-0.5,0.5
					c-0.1,0-0.3-0.1-0.4-0.2c0-0.1,0-0.2-0.1-0.4l-0.3,0.1V16.6z M35.5,14.9l0.7,0.5c0.2,0,0.5,0,0.8,0c0.1-0.3,0.3-0.5,0.4-0.8h0
					c-0.1,0.1-0.2,0.2-0.3,0.2c-0.1,0-0.2,0-0.3-0.2c0-0.2-0.2-0.5-0.3-0.7c-0.1,0-0.2,0-0.3,0h-2.4l0.1,0.1c0,0.1-0.1,0.1-0.2,0.1
					c-0.1,0-0.1,0-0.2,0c-0.4,0.4-0.9,0.9-1.4,1.4c0.3,0,0.7,0,1.1,0c-0.1-0.2-0.1-0.4-0.2-0.6l0.1-0.1c0.6,0.2,1,0.5,1,0.8h1.1
					L35.5,14.9z M37.1,21.5l0.4-0.5c-0.3,0.1-0.4,0.1-0.8,0.1v-0.5h-3.6c-0.1,0.2-0.1,0.6-0.2,0.9H37.1z M33.9,17.5v-1.4
					c-0.1,0.1-0.2,0.2-0.3,0.2c-0.1,0-0.3-0.1-0.4-0.2c0-0.1,0-0.2,0-0.3l-0.2,0.1v0.9l0.1-0.1C33.6,16.9,33.9,17.2,33.9,17.5
					L33.9,17.5z M36.5,12.8c-0.1,0.1-0.2,0.2-0.5,0.2h-2.1l-0.1-0.2h1.2l0.5-0.7L36.5,12.8z M35.1,14.6l0.5-0.6l0.9,0.7
					c-0.1,0.1-0.2,0.2-0.5,0.2h-2l-0.1-0.2H35.1z M35.2,16.6h-0.4v1.1h0.4V16.6z"/>
				<path class="st2" d="M42,20.2c0.2,0.7,0.3,1.2,0.3,1.6c0,0.9-0.4,1.2-0.7,1.2c-0.3,0-0.5-0.2-0.5-0.5c0-0.2,0.1-0.3,0.2-0.6
					c0.3-0.3,0.5-0.9,0.6-1.8H42z M50.6,19.1l0.5-0.7l1.4,1c-0.1,0.1-0.2,0.2-0.4,0.2v2.7c0,1-0.2,1.7-1.6,1.8
					c0-1.1-0.2-1.4-0.9-1.5v-0.2h1c0.1,0,0.1-0.1,0.1-0.2v-3h-3v4.4c0,0-0.2,0.5-1.3,0.5V19c-0.1,0.1-0.2,0.1-0.3,0.1
					c-0.1,3.1-0.3,4.2-0.8,4.6c-0.4,0.3-0.7,0.4-1.3,0.4c0-0.8-0.1-1.1-0.8-1.3v-0.2l0.9,0c0.2,0,0.2,0,0.3-0.1
					c0.2-0.2,0.3-0.6,0.3-1.6c-0.1,0-0.2-0.1-0.3-0.1c-0.1-0.4-0.4-1-0.8-1.3l0.1-0.1c0.5,0.1,0.8,0.2,1,0.4l0-1.1h-1.9V19
					c0,0.1-0.4,0.4-1.1,0.4h-0.2v-7l1.4,0.6h1.4l0.6-0.9l1.2,0.9c-0.1,0.2-0.3,0.2-0.5,0.2h-1.2v1.6h0l0.5-0.8l1,0.8
					c-0.1,0.2-0.2,0.2-0.5,0.2h-1v1.6h0l0.5-0.8l1,0.8c-0.1,0.2-0.2,0.2-0.5,0.2h-1v1.7h0.1l0.5-0.7l1.2,1v-0.3l1.4,0.6H50.6z
					 M42.5,20c0.6,0.6,0.8,1.2,0.8,1.6c0,0.5-0.3,0.8-0.5,0.8c-0.1,0-0.2-0.1-0.3-0.2c0.1-0.3,0.1-0.6,0.1-0.8c0-0.5-0.1-1-0.2-1.3
					L42.5,20z M43.3,13.3h-0.4v1.6h0.4V13.3z M43.3,16.7v-1.6h-0.4v1.6H43.3z M42.9,16.9v1.7h0.4v-1.7H42.9z M43.2,19.7
					c0.8,0.6,1.1,1.2,1.1,1.6c0,0.4-0.2,0.6-0.4,0.6c-0.1,0-0.2-0.1-0.3-0.2c0-0.6-0.2-1.5-0.5-2L43.2,19.7z M52.5,14.6
					c-0.1,0.2-0.3,0.2-0.6,0.2h-1.8c0.6,0.5,1.5,0.9,2.4,1l0,0.1c-0.5,0.1-0.8,0.6-0.9,1.3c-0.2-0.1-0.4-0.3-0.6-0.5v1.3
					c0,0-0.4,0.3-1.3,0.3v-0.5h-1.2V18c0,0-0.2,0.5-1.3,0.5v-2c-0.4,0.2-0.8,0.5-1.3,0.7L45.9,17c0.8-0.6,1.4-1.3,1.9-2.2h-1.7
					L46,14.5h1.8c0.1-0.3,0.3-0.6,0.4-0.9c-0.6,0-1.1,0.1-1.7,0.1l0-0.2c1.4-0.3,3.2-1,4.1-1.5l1.3,1.4c-0.1,0.1-0.2,0.1-0.3,0.1
					c-0.1,0-0.3,0-0.5-0.1c-0.4,0.1-0.8,0.1-1.3,0.2c-0.2,0.4-0.3,0.7-0.5,1.1h1.3l0.7-0.9L52.5,14.6z M50.3,15.7
					c-0.1-0.3-0.3-0.6-0.4-0.9h-0.8c-0.3,0.4-0.6,0.8-1,1.1l0.6,0.3h1.1l0.4-0.6L50.3,15.7z M50.6,20.4c0,0.1-0.2,0.1-0.3,0.2v1.5
					c0,0-0.2,0.3-0.9,0.3V22H49v0.4c0,0-0.1,0.3-0.9,0.3v-2.9l0.9,0.4h0.3l0.3-0.4L50.6,20.4z M48.6,17.7h1.2v-1.3h-1.2V17.7z
					 M49,21.8h0.4v-1.4H49V21.8z"/>
				<path class="st2" d="M57.8,12.5c0,0.2-0.1,0.3-0.5,0.3c-0.2,0.9-0.5,1.7-0.9,2.5l0.6,0.2c0,0.1-0.1,0.2-0.4,0.2v7.8
					c0,0.1-0.7,0.5-1.3,0.5h-0.3v-6.2c-0.3,0.4-0.6,0.8-0.9,1.2L54.1,19c0.6-1.7,1.3-4.5,1.6-7.1L57.8,12.5z M65.7,14.9
					c-0.1,0.1-0.3,0.2-0.6,0.2h-0.1c-0.2,2.1-0.4,3.9-1.1,5.5c0.5,0.7,1.1,1.3,1.8,1.8l0,0.1c-0.8,0.2-1.2,0.7-1.5,1.5
					c-0.5-0.6-0.8-1.2-1.1-2c-0.5,0.8-1.3,1.5-2.2,2L60.8,24c0.9-0.9,1.5-2.1,1.8-3.3c-0.3-1.2-0.4-2.5-0.5-3.9
					c-0.3,0.4-0.5,0.8-0.9,1.1l0.5,0.4c-0.1,0.1-0.3,0.2-0.6,0.2h-1.4l0.1,0c0,0.2-0.1,0.3-0.5,0.3c0,0.4-0.1,0.7-0.1,1.1h0.3
					l0.6-0.7l1.4,1.1c-0.1,0.1-0.2,0.2-0.4,0.2c0,2.2-0.1,3-0.6,3.3c-0.4,0.3-0.7,0.4-1.3,0.4c0-0.8-0.1-1.2-0.8-1.4v-0.2
					c0.2,0,0.6,0,0.8,0c0.1,0,0.2,0,0.3-0.1c0.1-0.2,0.2-0.9,0.2-2.5h-0.4c-0.3,1.6-1,3.2-2.5,4.1L56.8,24c1.1-1.3,1.3-3.5,1.3-5.5
					h-1L57,18.3h1.5v-1.9l1.9,0.2c0,0.1-0.1,0.2-0.4,0.3v1.3l0.6-0.9l0.5,0.4c0.2-0.4,0.3-1,0.4-1.6h-4.4l0-0.2h1.5V14h-1.1
					l-0.1-0.2h1.2V12l1.9,0.2c0,0.1-0.1,0.2-0.4,0.3v1.3l0.5-0.9l1.1,1C61.7,14,61.6,14,61.3,14h-1.1V16h0l0.6-1l0.8,0.8
					c0.2-1.2,0.4-2.5,0.5-3.7l2.2,0.5c0,0.2-0.1,0.3-0.5,0.3c-0.2,0.8-0.4,1.5-0.7,2.1h0.7l0.7-1.1L65.7,14.9z M63.1,15.1
					c-0.2,0.5-0.4,0.9-0.6,1.3c0.1,1,0.4,1.8,0.7,2.6c0.2-1.2,0.3-2.5,0.4-3.9H63.1z"/>
			</g>
		</g>
		<g>
			<g>
				<path class="st2" d="M81.6,21.2l0,1.3c0.4,0.2,0.5,0.3,0.5,0.5c0,0.5-0.3,0.8-1.5,0.8h-1.2c-1.3,0-1.5-0.3-1.5-1.5v-2.8h-0.8
					c0,0.1-0.1,0.2-0.4,0.2c-0.1,2-0.8,3.5-3.7,4.2l0-0.1c2.1-0.9,2.4-2.5,2.4-4.3h-2.2l0-0.2h7.2l0.7-0.9l1.2,0.9
					c-0.1,0.1-0.2,0.1-0.5,0.1h-2c0,0.1-0.1,0.1-0.3,0.2v2.6c0,0.2,0,0.3,0.3,0.3h1.1c0.2,0,0.3,0,0.4-0.2
					C81.1,22.3,81.3,21.8,81.6,21.2L81.6,21.2z M80,17.2c0-0.4,0.1-0.9,0.1-1.3h-5.4c0,0.1,0,0.3,0,0.4c0,0.8-0.4,1.4-1,1.4
					c-0.4,0-0.7-0.2-0.7-0.7c0-0.3,0.2-0.6,0.5-0.7c0.4-0.2,0.8-0.7,0.8-1.2h0.1c0.1,0.2,0.1,0.4,0.2,0.6h2V14l1.8,0.2
					c0,0.1-0.1,0.2-0.4,0.3v1.3h1.8l0.7-0.7l1.2,1.2c-0.1,0.1-0.2,0.1-0.4,0.1c-0.3,0.3-0.9,0.7-1.3,1l0.1,0.1
					c-0.1,0.1-0.2,0.1-0.5,0.1h-5.2l0-0.2h3.9l0.6-0.9L80,17.2z"/>
				<path class="st2" d="M92.1,20.7c-0.1,0.1-0.2,0.1-0.5,0.1h-3.4c0.8,1.2,2.4,1.5,4.1,1.6v0.1c-0.5,0.2-0.9,0.7-1,1.4
					c-1.6-0.5-2.7-1.3-3.3-3.1H88c-0.3,1.5-1.3,2.5-4.8,3.1l-0.1-0.1c2.2-0.8,3-1.8,3.3-3h-3.2l0-0.2h3.3c0.1-0.5,0.1-1,0.1-1.6
					l2,0.1c0,0.1-0.1,0.2-0.4,0.3c0,0.4-0.1,0.8-0.2,1.2h2l0.7-1L92.1,20.7z M83.2,18.7h3.6v-1.3h-2.8l0-0.2h2.8v-1.4h-3.2l0-0.2
					h2.1c-0.1-0.1-0.3-0.1-0.4-0.3c0-0.5-0.1-1-0.4-1.3l0-0.1c1.3,0.1,1.8,0.5,1.8,0.9c0,0.3-0.3,0.6-0.6,0.7h2.2
					c0.2-0.5,0.3-1.2,0.4-1.7l1.8,0.6c0,0.1-0.1,0.2-0.4,0.2c-0.4,0.3-1,0.7-1.5,1h1.3l0.7-0.9l1.3,1c-0.1,0.1-0.2,0.1-0.5,0.1h-3.1
					v1.4h1.2l0.6-0.9l1.2,0.9c-0.1,0.1-0.2,0.1-0.5,0.1h-2.6v1.3h1.9l0.7-1l1.3,1c-0.1,0.1-0.2,0.1-0.5,0.1h-8.4L83.2,18.7z"/>
				<path class="st2" d="M101.2,18.5l1.3,0.9c-0.1,0.1-0.2,0.1-0.5,0.1h-6.2v0.4c0,0.1-0.2,0.3-0.5,0.4l0.8,0.3h3.6l0.5-0.8l1.4,1.1
					c-0.1,0.1-0.2,0.2-0.5,0.3v2.3c0,0-0.4,0.3-1.4,0.3v-0.8H96v0.4c0,0-0.2,0.5-1.3,0.5v-3.5h-0.3v-3.3c-0.4,0.3-0.8,0.5-1.2,0.7
					l-0.1-0.1c0.8-0.9,1.6-2.4,2-3.8l1.8,0.8c0,0.1-0.1,0.2-0.3,0.2c0,0-0.1,0-0.1,0c-0.2,0.3-0.4,0.6-0.6,0.8l0,0h1.4
					c0.1-0.5,0.1-1.2,0.1-1.7l1.9,0.4c0,0.1-0.1,0.2-0.4,0.2c-0.4,0.3-0.9,0.7-1.5,1.1h2.3l0.7-0.9l1.2,0.9
					c-0.1,0.1-0.2,0.1-0.5,0.1h-2.7v1h0.9l0.6-0.8l1.1,0.8c-0.1,0.1-0.2,0.1-0.5,0.1h-2.2v1.1h1l0.6-0.8l1.1,0.9
					c-0.1,0.1-0.2,0.1-0.5,0.1h-2.3v1.1h1.9L101.2,18.5z M97.3,15.9h-1.5v1h1.5V15.9z M97.3,18.2v-1.1h-1.5v1.1H97.3z M95.8,18.3
					v1.1h1.5v-1.1H95.8z M99.7,20.8H96v2.1h3.8V20.8z"/>
				<path class="st2" d="M105.7,14.7l0.5-0.7l1.2,1c-0.1,0.1-0.2,0.2-0.3,0.2v7c0,0.9-0.2,1.5-1.5,1.7c0-1.1-0.2-1.3-0.8-1.4v-0.1
					h0.9c0.1,0,0.1-0.1,0.1-0.2v-2.4h-0.7c-0.1,1.4-0.5,2.9-1.7,4.1l-0.1-0.1c0.6-1.7,0.6-3.9,0.6-6.1v-3.5l1.5,0.5H105.7z
					 M105.2,17.7c0,0.6,0,1.3-0.1,1.9h0.6v-2.3h-0.6V17.7z M105.8,14.9h-0.6v2.3h0.6V14.9z M111.3,17.9l1.2,1
					c-0.1,0.1-0.1,0.2-0.4,0.2c-0.2,0.9-0.5,1.7-1,2.5c0.5,0.4,1,0.7,1.5,0.9l0,0.1c-0.5,0.1-1,0.5-1.2,1.2c-0.4-0.4-0.8-0.8-1-1.2
					c-0.4,0.4-0.8,0.8-1.3,1.1l-0.1-0.1c0.4-0.5,0.7-1,1-1.6c-0.4-0.8-0.6-1.9-0.8-3.2h-0.3v4.7c0,0.1-0.4,0.4-1.1,0.4h-0.2v-9.7
					l1.4,0.6h1.5l0.5-0.7l1.3,1c-0.1,0.1-0.2,0.2-0.4,0.2v1.2c0,0.9-0.2,1.5-1.5,1.6c0-1.2-0.3-1.3-0.8-1.4v-0.1h0.9
					c0.1,0,0.1-0.1,0.1-0.1v-1.5h-1.7v3.7h1.7L111.3,17.9z M109.3,18.8c0.2,0.9,0.6,1.5,1,2.1c0.2-0.7,0.3-1.4,0.4-2.1H109.3z"/>
				<path class="st2" d="M120.9,15.2l1.5,1.2c-0.1,0.1-0.3,0.2-0.5,0.3v6.2c0,0-0.4,0.4-1.5,0.4v-1.2h-4.7v0.7
					c0,0.1-0.2,0.6-1.4,0.6v-8.1l1.5,0.6h4.5L120.9,15.2z M115.7,22h4.7v-5.8h-4.7V22z"/>
				<path class="st2" d="M131.9,20.3l1.1,1c-0.1,0.1-0.2,0.1-0.5,0.1h-1.3v2.1c0,0-0.2,0.3-1.3,0.3v-2.4h-2.7v1c0,0-0.3,0.3-1.2,0.3
					v-0.7h-0.6v0.9c0,0.1-0.4,0.4-0.9,0.4h-0.2v-3.2c-0.2,0.3-0.4,0.5-0.6,0.8l-0.1-0.1c0.7-1.5,1-3.7,1.1-5.7h-1.1l0-0.2h2.5
					l0.6-0.9l0.9,0.7v0l1.3,0.5h0.2c0-0.4,0.1-1,0.2-1.4l2,0.3c0,0.2-0.1,0.3-0.4,0.3c-0.3,0.2-0.7,0.5-1.1,0.8h1.2l0.5-0.6l1.2,0.9
					c-0.1,0.1-0.2,0.2-0.3,0.2V19c0,0-0.3,0.3-1.3,0.3v-0.4h-2.2c0,0.2-0.3,0.5-1.2,0.5v-4.3c-0.1,0-0.2,0-0.3,0h-1.3
					c-0.1,1.1-0.3,2.1-0.7,3l0.2,0.1h0.3l0.4-0.6l1.2,0.9c-0.1,0.1-0.2,0.2-0.3,0.2v2.5h0.6c0.1-0.5,0.3-1.2,0.4-1.7l1.7,0.3
					c0,0.2-0.1,0.3-0.4,0.3c-0.3,0.3-0.7,0.8-1,1.1h1.5v-2l1.6,0.1c0,0.1-0.1,0.2-0.3,0.2v1.7h0.1L131.9,20.3z M125.5,22h0.6v-3.5
					h-0.6V22z M129.5,15.6h-0.6v1.5h0.6V15.6z M128.9,18.8h0.6v-1.6h-0.6V18.8z M131.2,15.6h-0.6v1.5h0.6V15.6z M130.6,18.8h0.6
					v-1.6h-0.6V18.8z"/>
				<path class="st2" d="M143,19.5c-0.1,0.1-0.2,0.1-0.5,0.1h-2c0.5,1,1.6,1.8,2.5,2.2l0,0.1c-0.5,0.1-0.8,0.6-1,1.3
					c-0.9-0.8-1.3-2-1.6-3.5v3.8c0,0.1-0.6,0.4-1.1,0.4H139v-2.5c-0.6,0.7-1.5,1.3-2.5,1.8l-0.1-0.1c0.9-0.9,1.6-2.2,2-3.4h-1.8
					l0-0.2h2.4v-1.7h-0.4V18c0,0.1-0.4,0.4-1.1,0.4h-0.2v-3.7c-0.1,0.1-0.2,0.1-0.3,0.1c-0.2,0.7-0.5,1.4-0.8,2l0.4,0.2
					c0,0.1-0.1,0.2-0.3,0.2v6.4c0,0.1-0.6,0.4-1.1,0.4h-0.3v-5.1c-0.3,0.4-0.6,0.7-1,1.1l-0.1-0.1c0.7-1.3,1.4-3.6,1.7-5.8l1.8,0.6
					v-0.2l1.4,0.6h2l0.6-0.8l1.3,1c-0.1,0.1-0.1,0.1-0.4,0.2V18c0,0.1-0.4,0.3-1.2,0.3h-0.3v-0.6h-0.1c0,0.1-0.1,0.2-0.3,0.2v1.5
					h0.6l0.7-1L143,19.5z M138.6,17.6h2.2v-2.5h-2.2V17.6z"/>
				<path class="st2" d="M152.8,15.1c0,0.1-0.1,0.1-0.2,0.1c0,0-0.1,0-0.2,0c-0.3,0.1-0.8,0.3-1.2,0.5c0.2,0.2,0.3,0.4,0.6,0.6
					c0.2-0.3,0.4-0.8,0.5-1l1,0.9c0,0.1-0.1,0.1-0.1,0.1c0,0-0.1,0-0.2,0c-0.2,0.1-0.6,0.2-1,0.3c0.4,0.3,0.8,0.6,1.3,0.8l0,0.1
					c-0.5,0.1-0.8,0.4-0.9,1.1c-0.3-0.2-0.5-0.5-0.8-0.8c-0.1,0-0.2,0.1-0.3,0.1h-2.6l0-0.1c-0.4,0.4-0.8,0.7-1.3,0.9l-0.1-0.1
					c0.5-0.5,0.9-1.1,1.2-1.7c-0.2,0-0.3-0.1-0.4-0.2c0-0.1,0-0.2,0-0.3c-0.1,0.1-0.2,0.1-0.4,0.1h-3.6l0-0.2h2.6l0.5-0.8l1,0.8
					c-0.1-0.2-0.2-0.5-0.3-0.6l0.1-0.1c0.5,0,0.9,0.2,1.1,0.3c0.1-0.2,0.1-0.5,0.2-0.7h-1.3l0-0.2h1.2l0.6-0.6l1,0.9
					c-0.1,0.1-0.2,0.1-0.4,0.2c-0.3,0.9-0.8,1.7-1.5,2.4h1.6l0.5-0.8l0.6,0.5c-0.6-1-0.9-2.3-1-3.2l0.1,0c0.1,0.4,0.3,0.8,0.5,1.2
					c0.2-0.4,0.5-0.9,0.6-1.2L152.8,15.1z M146.6,19.7l1.2,0.9c-0.1,0.1-0.2,0.2-0.3,0.2v2.4c0,0-0.3,0.4-1.2,0.4v-0.8h-0.7v0.7
					c0,0-0.2,0.5-1.2,0.5v-4.1l1.2,0.5h0.6L146.6,19.7z M146.6,16.7l1,0.8c-0.1,0.1-0.2,0.1-0.4,0.1h-2.7l0-0.2h1.7L146.6,16.7z
					 M144.4,19l0-0.2h1.7l0.5-0.8l1,0.8c-0.1,0.1-0.2,0.1-0.4,0.1H144.4z M147.6,14.9c-0.1,0.1-0.2,0.1-0.4,0.1h-2.7l0-0.2h1.6
					l0.5-0.8L147.6,14.9z M145.6,22.6h0.7v-2.1h-0.7V22.6z M151.4,23.2l0.6-0.9l1.2,0.9c-0.1,0.1-0.2,0.1-0.5,0.1h-5.2l0-0.2h3
					c0.1-0.6,0.1-1.5,0.2-2.2l1.7,0.4c0,0.1-0.1,0.2-0.4,0.2c-0.3,0.5-0.8,1.1-1.2,1.6H151.4z M152.4,20.7c0,0.1-0.6,0.4-1.1,0.4
					H151v-0.4h-1.7v0.1c0,0-0.2,0.5-1.3,0.5v-3l1.3,0.6h1.6l0.5-0.7l1.3,0.9c-0.1,0.1-0.2,0.2-0.3,0.2V20.7z M148.8,21.1
					c1,0.4,1.4,0.9,1.4,1.3c0,0.4-0.4,0.7-0.7,0.7c-0.2,0-0.4-0.1-0.6-0.4c0-0.2,0-0.4,0-0.5C148.9,21.9,148.8,21.5,148.8,21.1
					L148.8,21.1z M149.3,20.5h1.7v-1.6h-1.7V20.5z"/>
			</g>
		</g>
	</g>
	<g>
		<g>
			<g>
				<path class="st3" d="M30.4,70.5v-1.8h0.8v1.8h0.8v0.8h-0.8v0.6c0.3,0.4,0.6,0.8,0.9,1.2c0.2-0.2,0.4-0.4,0.5-0.7h-0.4v-3.5h2.4
					v3.5H34c0.2,0.2,0.4,0.4,0.6,0.6l-0.4,0.4l0.5,0.1c-0.1,0.2-0.2,0.4-0.3,0.6h3.3v0.7h-1.1c-0.2,0.5-0.5,0.9-0.8,1.3
					c0.5,0.2,1.1,0.5,1.7,0.8L37,77.5c-0.6-0.3-1.2-0.6-1.8-0.9c-0.6,0.4-1.7,0.7-3.1,0.9l-0.3-0.8c1.1-0.1,1.9-0.2,2.5-0.4
					c-0.6-0.2-1.2-0.4-1.9-0.6c0.2-0.3,0.4-0.6,0.7-0.9h-1.1v-0.7h1.6c0.1-0.2,0.3-0.5,0.5-0.8c-0.1-0.2-0.3-0.4-0.5-0.6l0.4-0.3
					h-0.9l0.4,0.3c-0.2,0.4-0.5,0.8-0.8,1.1l-0.3-0.4l-0.3,0.5c-0.2-0.4-0.4-0.8-0.6-1v4.6h-0.8v-4.2c-0.2,0.7-0.5,1.3-0.8,1.8
					l-0.3-0.9c0.4-0.8,0.8-1.7,1.1-2.7v-0.1h-1v-0.8H30.4z M33.9,69.8v-0.5h-1v0.5H33.9z M33.9,70.8v-0.5h-1v0.5H33.9z M33.9,71.3
					h-1v0.5h1V71.3z M33.9,74.8c-0.1,0.2-0.2,0.4-0.4,0.5c0.5,0.1,1,0.3,1.5,0.5c0.3-0.2,0.5-0.6,0.7-1H33.9z M37.4,68.8v3.5h-0.5
					c0.3,0.3,0.5,0.6,0.7,0.9l-0.5,0.5c-0.2-0.3-0.5-0.7-0.8-1.1l0.3-0.3h-0.9l0.3,0.3c-0.2,0.4-0.5,0.8-0.8,1.2l-0.5-0.6
					c0.2-0.2,0.5-0.5,0.6-0.8H35v-3.5H37.4z M36.8,69.8v-0.5h-1.1v0.5H36.8z M36.8,70.8v-0.5h-1.1v0.5H36.8z M36.8,71.3h-1.1v0.5
					h1.1V71.3z"/>
				<path class="st3" d="M41.6,71.7c-0.3,0.7-0.6,1.2-0.9,1.6v4.2h-0.9v-3.1c-0.3,0.3-0.5,0.5-0.9,0.8l-0.5-0.9
					c0.5-0.3,0.9-0.7,1.4-1.3c0.3-0.4,0.7-1,1-1.7L41.6,71.7z M40.6,69.5v-0.9h0.8v0.9h1v0.9h-1v0.7h-0.8v-0.7h-2.1v-0.9H40.6z
					 M43.3,71.2v2.2c1.1-0.5,2-1,2.7-1.6l0.5,0.8c-0.9,0.7-2,1.3-3.2,1.8v1.8c0,0.2,0.1,0.3,0.3,0.3h1.8c0.2,0,0.3,0,0.4-0.2
					c0.1-0.1,0.1-0.6,0.2-1.6l0.9,0.3c-0.1,1.1-0.2,1.8-0.4,1.9c-0.2,0.2-0.5,0.3-0.9,0.3h-2.2c-0.3,0-0.5-0.1-0.6-0.2
					c-0.2-0.2-0.2-0.4-0.2-0.6v-5.2H43.3z M43.9,69.5v-0.9h0.8v0.9h2.1v0.9h-2.1v0.9h-0.8v-0.9h-1v-0.9H43.9z"/>
				<path class="st3" d="M55.9,75.9v0.9h-8.2v-0.9H55.9z M55.4,69.4v0.9h-7.3v-0.9H55.4z M54.9,72.6v0.9h-6.4v-0.9H54.9z"/>
				<path class="st3" d="M57.7,70.5v-1.8h0.8v1.8h0.7v0.8h-0.7v0.5c0.3,0.4,0.7,0.9,1,1.4l-0.1,0.2h0.8c0-0.2,0-0.4,0-0.7
					c-0.2,0-0.4,0.1-0.6,0.1l-0.1-0.7c0.1,0,0.3,0,0.4,0c0.2-0.3,0.4-0.6,0.6-1c-0.3,0.1-0.6,0.1-1,0.2l-0.1-0.6c0.1,0,0.2,0,0.3,0
					c0.3-0.6,0.5-1.2,0.6-1.8l0.6,0.1c-0.1,0.6-0.3,1.1-0.6,1.6c0.1,0,0.3,0,0.4-0.1c0.1-0.2,0.2-0.5,0.3-0.8l0.6,0.2
					c-0.4,0.9-0.8,1.6-1.2,2.2c0.2,0,0.4,0,0.6-0.1c0-0.2-0.1-0.4-0.1-0.5l0.5-0.1c0.2,0.5,0.4,1,0.5,1.4L61.3,73
					c0-0.1-0.1-0.3-0.1-0.4c-0.1,0-0.3,0-0.4,0.1c0,0.3,0,0.5,0,0.8H62c-0.1-1-0.2-2.6-0.3-4.8h0.7c0.1,2.2,0.1,3.8,0.3,4.8h0.8
					c-0.1-0.2-0.1-0.4-0.2-0.6c-0.2,0-0.3,0-0.5,0.1l-0.2-0.7c0.1,0,0.3,0,0.4,0c0.2-0.3,0.4-0.7,0.6-1.1c-0.3,0.1-0.6,0.1-1,0.2
					l-0.1-0.6c0.1,0,0.2,0,0.3,0c0.3-0.6,0.4-1.2,0.6-1.8l0.6,0.1c-0.1,0.6-0.3,1.1-0.5,1.6c0.1,0,0.3,0,0.4-0.1
					c0.1-0.2,0.2-0.4,0.3-0.6l0.6,0.2c-0.4,0.9-0.7,1.6-1.1,2.1c0.2,0,0.4-0.1,0.6-0.1c0-0.2-0.1-0.3-0.1-0.5l0.5-0.1
					c0.2,0.5,0.3,1,0.5,1.4L64.5,73c0-0.1-0.1-0.3-0.1-0.4c-0.1,0-0.3,0.1-0.5,0.1c0.1,0.2,0.2,0.4,0.2,0.7h0.8v0.7h-2.3
					c0.1,0.4,0.2,0.8,0.3,1.1c0.2-0.2,0.4-0.5,0.6-0.9l0.6,0.3c-0.3,0.5-0.6,0.9-0.9,1.2c0.3,0.5,0.5,0.7,0.7,0.7c0,0,0.1,0,0.1-0.1
					c0-0.1,0.1-0.5,0.1-1.2l0.7,0.4c-0.1,0.7-0.2,1.2-0.3,1.4c-0.1,0.2-0.3,0.3-0.5,0.3c-0.4,0-0.8-0.3-1.2-1c0,0,0,0,0,0
					c-0.4,0.4-1,0.7-1.7,0.9l-0.4-0.6c0.7-0.2,1.2-0.5,1.6-0.9c0,0,0.1,0,0.1-0.1c-0.2-0.5-0.4-1-0.5-1.6h-1.4c0,0.1,0,0.2,0,0.3
					c0.4,0.3,0.8,0.6,1.2,1l-0.4,0.7c-0.3-0.4-0.6-0.7-0.9-0.9c-0.1,0.5-0.3,0.9-0.4,1.2c-0.2,0.3-0.5,0.7-0.8,1.1l-0.5-0.7
					c0.4-0.4,0.7-0.7,0.8-1.1c0.1-0.3,0.3-0.7,0.4-1.4c0-0.1,0-0.1,0-0.2h-0.9v-0.5L59,73.9c-0.2-0.4-0.4-0.8-0.5-1.1v4.6h-0.8v-4.1
					C57.5,74,57.2,74.5,57,75l-0.3-0.9c0.4-0.7,0.8-1.6,1.1-2.6v-0.2h-0.9v-0.8H57.7z"/>
				<path class="st3" d="M68.8,75c-0.6,0.8-1.4,1.5-2.3,2.1l-0.6-0.8c0.8-0.5,1.6-1.1,2.3-1.9L68.8,75z M73.8,69.5
					c-1.1,0.2-2.4,0.4-4,0.5c-0.2,0.4-0.6,0.9-1,1.3c0.7,0,1.4-0.1,2-0.1c0.4-0.3,0.7-0.7,1.1-1.1l0.8,0.4c-1.2,1.2-2.3,2.2-3.4,2.9
					c1.3,0,2.4-0.1,3.3-0.2c-0.2-0.4-0.4-0.7-0.6-1.1l0.6-0.4c0.7,1,1.2,1.8,1.6,2.5l-0.8,0.6c-0.1-0.3-0.3-0.6-0.4-0.9
					c-0.6,0.1-1.4,0.2-2.3,0.2v2.2c0,0.4-0.1,0.6-0.2,0.7c-0.1,0.2-0.4,0.2-0.8,0.2h-0.8l-0.2-1c0.3,0.1,0.5,0.1,0.7,0.1
					c0.3,0,0.4-0.1,0.4-0.2v-2c-0.9,0.1-2,0.1-3.2,0.2l-0.2-0.9c0.6,0,1.1,0,1.6,0c0.7-0.5,1.4-1,2.1-1.6c-1,0.1-2,0.2-3.2,0.2
					l-0.2-0.8c0.3,0,0.7,0,1,0c0.5-0.4,0.9-0.8,1.2-1.3c-0.8,0-1.6,0-2.5,0l-0.2-0.8c2.9,0,5.3-0.2,7.3-0.6L73.8,69.5z M74.1,76.4
					l-0.6,0.7c-0.5-0.6-1.2-1.3-2.2-2.1l0.6-0.6C72.8,75.1,73.5,75.8,74.1,76.4z"/>
				<path class="st3" d="M77.2,68.9c-0.3,0.9-0.6,1.7-1,2.4c0.3,0,0.5-0.1,0.7-0.1c0.2-0.4,0.4-0.9,0.6-1.4l0.7,0.3
					c-0.6,1.5-1.3,2.7-1.9,3.6c0.5-0.1,0.9-0.1,1.2-0.2c-0.1-0.3-0.2-0.5-0.2-0.8l0.6-0.2c0.2,0.6,0.4,1.3,0.6,2l-0.7,0.2
					c0-0.2-0.1-0.3-0.1-0.5c-0.6,0.2-1.4,0.3-2.5,0.5L75,73.7c0.2,0,0.4,0,0.6,0c0.3-0.5,0.7-1.1,1-1.8c-0.5,0.1-1,0.2-1.5,0.3
					l-0.2-0.8c0.2,0,0.3,0,0.5,0c0.4-0.8,0.8-1.7,1.1-2.8L77.2,68.9z M75.9,75c-0.1,1-0.1,1.7-0.3,2.4l-0.7-0.2
					c0.2-0.7,0.3-1.4,0.4-2.2L75.9,75z M77.2,77L76.4,77c0-0.9-0.1-1.6-0.1-2.1l0.6-0.1C77.1,75.4,77.2,76.1,77.2,77z M78.4,76.3
					l-0.7,0.2c-0.1-0.6-0.2-1.1-0.3-1.7l0.6-0.2C78.2,75.2,78.3,75.7,78.4,76.3z M81.3,69.7h1.9v0.7h-2.6c-0.2,0.7-0.4,1.3-0.7,1.9
					c0.8,0,1.5-0.1,2-0.3c-0.1-0.2-0.2-0.5-0.4-0.7l0.6-0.4c0.5,0.8,0.9,1.5,1.1,2l-0.7,0.5c-0.1-0.2-0.2-0.5-0.3-0.7
					c-0.2,0-0.4,0.1-0.6,0.1v3.4c0,0.2,0.1,0.3,0.3,0.3h0.4c0.1,0,0.1,0,0.2-0.2c0-0.1,0.1-0.6,0.1-1.6l0.7,0.2
					c-0.1,1.1-0.2,1.8-0.3,1.9c-0.1,0.2-0.3,0.3-0.6,0.3h-0.7c-0.2,0-0.4-0.1-0.6-0.2c-0.1-0.2-0.2-0.4-0.2-0.6V73
					c-0.2,0-0.4,0.1-0.6,0.1c-0.1,1.2-0.2,2.1-0.4,2.7c-0.3,0.7-0.7,1.3-1.4,1.8L78,76.8c0.6-0.4,0.9-0.9,1.2-1.4
					c0.2-0.4,0.3-1.2,0.4-2.2c-0.3,0-0.6,0.1-1,0.1l-0.2-0.9c0.2,0,0.4,0,0.6,0c0.3-0.6,0.6-1.2,0.8-1.9h-1.4v-0.7h2.1
					c-0.1-0.2-0.3-0.5-0.4-0.8l0.8-0.3C81,68.9,81.1,69.3,81.3,69.7z"/>
				<path class="st3" d="M88.8,76.4l-0.6-0.7c-0.6,0.5-1.2,0.8-1.8,0.8c-0.6,0-1.2-0.1-1.6-0.5c-0.5-0.3-0.7-0.8-0.7-1.5
					c0-0.7,0.4-1.3,1.3-2c-0.5-0.5-0.7-1-0.7-1.4c0-0.4,0.2-0.7,0.5-1c0.3-0.2,0.6-0.3,1-0.3c0.4,0,0.7,0.1,1,0.3
					c0.3,0.2,0.5,0.5,0.5,0.9c0,0.5-0.3,1-1,1.5l1.4,1.6c0.2-0.4,0.3-1.1,0.3-2.1h0.9c0,1.2-0.2,2.1-0.5,2.8l1.3,1.4H88.8z M86,73.3
					c-0.7,0.5-1,0.9-1,1.3c0,0.3,0.1,0.6,0.4,0.8c0.3,0.2,0.6,0.3,0.9,0.3c0.5,0,0.9-0.2,1.3-0.6L86,73.3z M86.2,70.8
					c-0.4,0-0.6,0.2-0.6,0.5c0,0.2,0.2,0.5,0.5,0.9c0.5-0.3,0.7-0.6,0.7-0.9C86.8,71,86.6,70.8,86.2,70.8z"/>
				<path class="st3" d="M91.5,70.5v-1.8h0.8v1.8h0.8v0.8h-0.8v0.6c0.3,0.4,0.6,0.8,0.9,1.2c0.2-0.2,0.4-0.4,0.5-0.7h-0.4v-3.5h2.4
					v3.5h-0.6c0.2,0.2,0.4,0.4,0.6,0.6l-0.4,0.4l0.5,0.1c-0.1,0.2-0.2,0.4-0.3,0.6h3.3v0.7h-1.1c-0.2,0.5-0.5,0.9-0.8,1.3
					c0.5,0.2,1.1,0.5,1.7,0.8l-0.5,0.7c-0.6-0.3-1.2-0.6-1.8-0.9c-0.6,0.4-1.7,0.7-3.1,0.9l-0.3-0.8c1.1-0.1,1.9-0.2,2.5-0.4
					c-0.6-0.2-1.2-0.4-1.9-0.6c0.2-0.3,0.4-0.6,0.7-0.9H93v-0.7h1.6c0.1-0.2,0.3-0.5,0.5-0.8c-0.1-0.2-0.3-0.4-0.5-0.6l0.4-0.3H94
					l0.4,0.3c-0.2,0.4-0.5,0.8-0.8,1.1l-0.3-0.4l-0.3,0.5c-0.2-0.4-0.4-0.8-0.6-1v4.6h-0.8v-4.2c-0.2,0.7-0.5,1.3-0.8,1.8l-0.3-0.9
					c0.4-0.8,0.8-1.7,1.1-2.7v-0.1h-1v-0.8H91.5z M95,69.8v-0.5h-1v0.5H95z M95,70.8v-0.5h-1v0.5H95z M95,71.3h-1v0.5h1V71.3z
					 M95.1,74.8c-0.1,0.2-0.2,0.4-0.4,0.5c0.5,0.1,1,0.3,1.5,0.5c0.3-0.2,0.5-0.6,0.7-1H95.1z M98.5,68.8v3.5H98
					c0.3,0.3,0.5,0.6,0.7,0.9l-0.5,0.5c-0.2-0.3-0.5-0.7-0.8-1.1l0.3-0.3h-0.9l0.3,0.3c-0.2,0.4-0.5,0.8-0.8,1.2l-0.5-0.6
					c0.2-0.2,0.5-0.5,0.6-0.8h-0.4v-3.5H98.5z M97.9,69.8v-0.5h-1.1v0.5H97.9z M97.9,70.8v-0.5h-1.1v0.5H97.9z M97.9,71.3h-1.1v0.5
					h1.1V71.3z"/>
				<path class="st3" d="M102.7,71.7c-0.3,0.7-0.6,1.2-0.9,1.6v4.2h-0.9v-3.1c-0.3,0.3-0.5,0.5-0.9,0.8l-0.5-0.9
					c0.5-0.3,0.9-0.7,1.4-1.3c0.3-0.4,0.7-1,1-1.7L102.7,71.7z M101.8,69.5v-0.9h0.8v0.9h1v0.9h-1v0.7h-0.8v-0.7h-2.1v-0.9H101.8z
					 M104.4,71.2v2.2c1.1-0.5,2-1,2.7-1.6l0.5,0.8c-0.9,0.7-2,1.3-3.2,1.8v1.8c0,0.2,0.1,0.3,0.3,0.3h1.8c0.2,0,0.3,0,0.4-0.2
					c0.1-0.1,0.1-0.6,0.2-1.6l0.9,0.3c-0.1,1.1-0.2,1.8-0.4,1.9c-0.2,0.2-0.5,0.3-0.9,0.3h-2.2c-0.3,0-0.5-0.1-0.6-0.2
					c-0.2-0.2-0.2-0.4-0.2-0.6v-5.2H104.4z M105,69.5v-0.9h0.8v0.9h2.1v0.9h-2.1v0.9H105v-0.9h-1v-0.9H105z"/>
				<path class="st3" d="M110.5,74.1c-0.3,1.3-0.7,2.4-1.1,3.3l-0.6-0.7c0.3-0.7,0.7-1.8,1.1-3.1L110.5,74.1z M110.6,72.1l-0.5,0.9
					c-0.4-0.5-0.8-0.9-1.3-1.2l0.5-0.8C109.7,71.4,110.2,71.7,110.6,72.1z M110.9,69.9l-0.5,0.9c-0.4-0.5-0.8-0.9-1.3-1.2l0.5-0.7
					C110.1,69.1,110.5,69.5,110.9,69.9z M112.7,71.3l-0.6,0.3h4.2v1.6h0.8v0.8h-0.8v1.6h-2.3v1.1c0,0.3-0.1,0.5-0.2,0.6
					c-0.1,0.1-0.4,0.2-0.7,0.2h-0.9l-0.1-0.8c0.3,0,0.6,0.1,0.9,0.1c0.2,0,0.3-0.1,0.3-0.2v-0.9h-2v-0.8h2v-0.8h-2.6v-0.8h2.6v-0.8
					h-2v-0.8h0.7c-0.2-0.5-0.4-0.9-0.6-1.3l0.8-0.3C112.3,70.4,112.5,70.8,112.7,71.3z M116.5,69.4c-1.3,0.3-3.1,0.4-5.3,0.4
					l-0.2-0.7c2,0,3.7-0.1,5.1-0.4L116.5,69.4z M114.5,71.2l-0.9,0.1c-0.2-0.5-0.4-0.9-0.6-1.3l0.9-0.1
					C114.2,70.3,114.4,70.7,114.5,71.2z M114.1,73.1h1.5v-0.8h-1.5V73.1z M114.1,74.8h1.5v-0.8h-1.5V74.8z M116.6,70
					c-0.2,0.5-0.5,0.9-0.9,1.4l-0.8-0.4c0.4-0.5,0.7-0.9,0.9-1.4L116.6,70z"/>
				<path class="st3" d="M121,70.7v0.7c-0.3,1.2-0.6,2.1-0.9,2.7c-0.4,0.8-1,1.5-1.6,2.1l-0.5-0.7c0.7-0.7,1.2-1.4,1.6-2
					c0.3-0.5,0.5-1.1,0.6-1.9h-2.1v-0.8H121z M122.6,68.6v1.7c0.2,0.5,0.4,1,0.6,1.4c0.7-0.5,1.4-1.2,2.2-2l0.6,0.5
					c-0.7,0.9-1.5,1.7-2.4,2.3c0.1,0.2,0.3,0.5,0.4,0.6c0.5,0.8,1.3,1.5,2.2,2.2l-0.4,0.9c-1.1-0.9-1.9-1.8-2.4-2.6
					c-0.3-0.4-0.5-0.9-0.8-1.5v4.3c0,0.3-0.1,0.6-0.2,0.7c-0.1,0.1-0.4,0.2-0.8,0.2h-1l-0.2-0.9c0.4,0,0.7,0.1,1,0.1
					c0.3,0,0.4-0.1,0.4-0.2v-7.7H122.6z"/>
				<path class="st3" d="M130.7,68.9v2.3l0.7,0.1c-0.1,0.3-0.2,0.6-0.4,0.8h2.2c-0.1-0.2-0.3-0.3-0.4-0.5l0.7-0.3
					c0.3,0.2,0.5,0.5,0.7,0.7h1v0.7h-2.4c0.3,0.3,0.5,0.5,0.8,0.6c0.4,0.2,0.9,0.4,1.6,0.7l-0.4,0.8c-0.1,0-0.2-0.1-0.3-0.1v2.6
					h-0.8v-0.3h-1.6v0.3h-0.8v-3.1h2c-0.2-0.1-0.4-0.2-0.6-0.4c-0.3-0.2-0.7-0.6-1-1h-1.4c-0.1,0.2-0.2,0.3-0.4,0.4
					c-0.3,0.3-0.8,0.7-1.4,1h2v3.1H130v-0.3h-1.4v0.3h-0.8v-2.6c-0.1,0.1-0.2,0.1-0.4,0.2l-0.4-0.8c1-0.4,1.8-0.7,2.3-1.2
					c0,0,0.1,0,0.1-0.1H127v-0.7h3c0.2-0.2,0.3-0.5,0.4-0.8h-2.8v-2.4H130.7z M129.9,69.7h-1.4v0.9h1.4V69.7z M130,76.3V75h-1.4v1.3
					H130z M134.6,68.9v2.4h-3.1v-2.4H134.6z M133.8,69.7h-1.6v0.9h1.6V69.7z M133.8,76.3V75h-1.6v1.3H133.8z"/>
				<path class="st3" d="M63.8,84.1V85h-2.9v1.2h2.4v6.3h-0.9v-0.6h-5.6v0.6h-0.9v-6.3H58V85h-2.7v-0.9H63.8z M62.3,91v-1.3h-1.4
					c-0.3,0-0.5-0.1-0.7-0.2c-0.2-0.1-0.3-0.3-0.3-0.6v-2h-1.1V87c0,0.8-0.1,1.5-0.3,2c-0.2,0.5-0.6,1-1.1,1.6l-0.7-0.7
					c0.5-0.4,0.8-0.8,1-1.2c0.2-0.4,0.3-0.9,0.3-1.6v-0.1h-1.3V91H62.3z M60,85h-1.1v1.2H60V85z M60.8,88.6c0,0.2,0.1,0.3,0.3,0.3
					h1.2v-2h-1.5V88.6z"/>
				<path class="st3" d="M67.2,84.2V85h-0.9V87h0.8v0.8h-0.8V90c0.3-0.1,0.7-0.3,1-0.5v0.9c-0.8,0.4-1.7,0.8-2.7,1.2l-0.2-0.9
					c0.4-0.1,0.8-0.3,1.2-0.4v-2.5h-0.9V87h0.9V85h-1v-0.8H67.2z M69.6,83.7v3.5c0,1.2-0.2,2.1-0.5,2.9c-0.3,0.8-0.8,1.5-1.7,2.3
					l-0.7-0.6c0.8-0.6,1.3-1.3,1.6-2c0.3-0.6,0.4-1.5,0.4-2.6v-3.5H69.6z M68.2,84.7v0.6c0,0.9-0.1,1.7-0.1,2.3
					c-0.1,0.6-0.3,1.2-0.5,1.8L67,88.9c0.2-0.5,0.4-1,0.5-1.5c0.1-0.4,0.1-1.1,0.1-2v-0.6H68.2z M72.7,84.2v0.8h-1v2.4h0.9v0.8h-0.9
					v3.1h1.2v0.8h-3.3v-0.8h1.3v-3.1h-0.9v-0.8h0.9v-2.4h-1.1v-0.8H72.7z"/>
				<path class="st3" d="M81.6,84v0.9h-1.8v1.9H82v0.9h-2.2v3.6c0,0.4-0.1,0.6-0.2,0.8c-0.1,0.2-0.4,0.2-0.8,0.2h-1.4l-0.2-1
					c0.6,0.1,1,0.1,1.4,0.1c0.3,0,0.4-0.1,0.4-0.2v-3.5H78c-0.3,0.8-0.7,1.4-1.2,1.9c-0.6,0.7-1.5,1.4-2.7,2.1l-0.5-0.9
					c1.2-0.6,2-1.2,2.5-1.7c0.3-0.3,0.7-0.8,0.9-1.3h-2.9c0.2-0.9,0.3-1.6,0.4-2.3l1,0.1c-0.1,0.5-0.1,1-0.2,1.4h3.5v-1.9h-4.6V84
					H81.6z"/>
				<path class="st3" d="M87.4,84.2h3.4v1.6H90v-0.9h-1.5v0.4h1.2v0.6h-1.2v0.4H90v0.5h-1.6v0.4h2.5v0.6h-2c0.3,0.2,0.5,0.3,0.7,0.4
					c0.4,0.2,0.9,0.4,1.6,0.5l-0.3,0.7c-0.3-0.1-0.7-0.2-0.9-0.3v2.2h-1.6c0.9,0.1,1.8,0.2,2.7,0.4l-0.3,0.7c-0.9-0.2-1.9-0.4-3-0.5
					l0.3-0.6h-2.4l0.4,0.5c-0.5,0.2-0.9,0.3-1.3,0.4c-0.4,0.1-1,0.2-1.6,0.3l-0.4-0.7c0.6-0.1,1.2-0.1,1.7-0.2
					c0.4-0.1,0.8-0.1,1.1-0.2h-1.7V89c-0.3,0.1-0.6,0.2-0.8,0.3l-0.4-0.7c0.7-0.2,1.3-0.4,1.7-0.6c0.2-0.1,0.4-0.2,0.5-0.3h-1.9
					v-0.6h2.4v-0.4h-1.5v-0.5h1.5v-0.4h-1.1v-0.6h1.1v-0.4h-1.4v0.9H83v-1.6h3.5c-0.1-0.2-0.2-0.3-0.3-0.5l0.9-0.1
					C87.2,83.8,87.3,84,87.4,84.2z M84.6,89h4.5v-0.3c0,0-0.1,0-0.1,0h-4.4c0,0,0,0,0,0V89z M84.6,89.5v0.4h4.5v-0.4H84.6z
					 M84.6,90.3v0.4h4.5v-0.4H84.6z M88.3,88.1c-0.1-0.1-0.2-0.2-0.4-0.4h-2.2c-0.1,0.1-0.2,0.3-0.4,0.4H88.3z M87.7,84.9H86v0.4
					h1.7V84.9z M87.7,85.8H86v0.4h1.7V85.8z M87.7,87.1v-0.4H86v0.4H87.7z"/>
				<path class="st3" d="M95.9,86.1l0.5-0.1c0.1,0.2,0.2,0.4,0.3,0.6h3.4v0.6h-2.4v0.6h2.1v1.8h-2.2v0.7c0.8-0.2,1.5-0.3,2.1-0.5
					l0.4,0.6c-0.7,0.3-1.6,0.5-2.5,0.6v0.4c0,0.1,0.1,0.2,0.3,0.2h1.3c0.1,0,0.2,0,0.2-0.1c0.1-0.1,0.1-0.3,0.1-0.8l0.7,0.2
					c-0.1,0.6-0.2,1-0.3,1.1c-0.1,0.1-0.4,0.2-0.7,0.2h-1.7c-0.2,0-0.4-0.1-0.6-0.2c-0.1-0.1-0.2-0.3-0.2-0.5v-2h-2.2v0.6h1.8v0.6
					h-1.8v0.7c0.7,0,1.3-0.1,1.9-0.2v0.7c-0.6,0.1-1.7,0.3-3.2,0.4l-0.1-0.8c0.2,0,0.5,0,0.7,0v-1.9h-0.7c0,0.4-0.1,0.7-0.1,1.1
					c-0.1,0.6-0.3,1.2-0.6,1.8l-0.7-0.7c0.3-0.5,0.4-0.9,0.5-1.4c0.1-0.5,0.1-1,0.1-1.4v-2.4h3.4c-0.1-0.1-0.1-0.2-0.2-0.3h-0.5
					v-0.9h-2v0.9h-0.7v-1.5h3.5V86.1z M96,83.8v0.7h-3.8v-0.7H96z M94.7,87.2h-1.5v0.6h1.5V87.2z M94.7,89v-0.6h-1.5V89H94.7z
					 M94.5,86.2l-0.6,0.2c-0.1-0.2-0.2-0.5-0.2-0.7l0.6-0.2C94.3,85.7,94.4,86,94.5,86.2z M96.9,87.2h-1.4v0.6h1.4V87.2z M95.5,89
					h1.4v-0.6h-1.4V89z M100.1,83.8v0.7h-3.7v-0.7H100.1z M99.9,86.3h-0.7v-0.9h-1.9v0.9h-0.7v-1.5h3.4V86.3z M97.6,89H99v-0.6h-1.4
					V89z M98.6,86.3L98,86.4c-0.1-0.2-0.2-0.5-0.3-0.7l0.6-0.2C98.4,85.7,98.5,86,98.6,86.3z"/>
				<path class="st3" d="M109.1,84.2v0.9h-4.1c-0.3,0.9-0.6,1.5-0.9,2c0,0,0,0.1,0,0.1h4.4v5.2h-0.9v-0.6h-3.7v0.6h-0.9v-3.8
					c-0.4,0.5-0.9,1-1.5,1.4l-0.5-0.9c0.9-0.7,1.5-1.4,2-2.2c0.4-0.5,0.7-1.1,1-1.9h-3v-0.9H109.1z M107.7,91v-2.9h-3.7V91H107.7z"
					/>
			</g>
		</g>
		<g>
			<path class="st3" d="M98.2,43.9c0.1,0,0.2,0,0.3,0c2.9,0,5.9,0,8.8,0c2.4,0,4.4,1.8,4.7,4c0.3,2.7-1.4,4.7-3.5,5.2
				c0,0-0.1,0-0.1,0c1.2,1.6,2.4,3.2,3.6,4.8c0-0.1,0.1-0.1,0.1-0.2c1.9-4.4,3.8-8.7,5.8-13.1c0.1-0.2,0.2-0.5,0.3-0.7
				c0-0.1,0.1-0.1,0.2-0.1c1,0,2,0,3,0c0.1,0,0.2,0.1,0.2,0.2c0.9,2,1.7,3.9,2.6,5.9c1.3,2.8,2.5,5.7,3.8,8.5c0,0.1,0.1,0.1,0.1,0.2
				c-0.1,0-0.2,0-0.2,0c-0.9,0-1.8,0-2.8,0c-0.2,0-0.2-0.1-0.3-0.2c-0.4-1.1-0.9-2.1-1.3-3.2c-0.1-0.1-0.1-0.2-0.3-0.2
				c-2.2,0-4.4,0-6.6,0c-0.2,0-0.2,0.1-0.3,0.2c-0.4,1.1-0.9,2.1-1.4,3.2c-0.1,0.1-0.1,0.2-0.3,0.2c-1.9,0-3.9,0-5.8,0
				c-0.1,0-0.2,0-0.3-0.1c-2.1-2.7-4.2-5.4-6.3-8.1c-0.1-0.1-0.1-0.2-0.2-0.3c0.1,0,0.2,0,0.2,0c1.6,0,3.3,0,4.9,0
				c0.8,0,1.5-0.6,1.6-1.4c0.1-0.8-0.4-1.6-1.2-1.8c-0.1,0-0.2,0-0.3,0c-1.9,0-3.9,0-5.8,0c-0.1,0-0.1,0-0.2,0c0,3.9,0,7.9,0,11.8
				c-1,0-2.1,0-3.1,0C98.2,53.8,98.2,48.8,98.2,43.9z M119.9,47.2C119.9,47.2,119.9,47.2,119.9,47.2c-0.8,1.6-1.5,3.3-2.2,5
				c1.5,0,2.9,0,4.3,0C121.3,50.5,120.6,48.9,119.9,47.2z"/>
			<path class="st3" d="M36.6,58.7c0-0.5,0-0.9,0-1.4c0-0.4,0-0.9,0-1.3c0-0.2,0.1-0.2,0.2-0.2c0.1,0,0.1,0,0.2,0c2.7,0,5.4,0,8.1,0
				c1,0,1.6-0.7,1.7-1.5c0.1-0.8-0.7-1.6-1.6-1.6c-1.6,0-3.2,0-4.7,0c-0.9,0-1.8-0.2-2.6-0.7c-2.1-1.4-2.6-4.4-1-6.4
				c0.9-1.1,2.1-1.7,3.5-1.7c2.8,0,5.6,0,8.4,0c0.1,0,0.1,0,0.2,0c0,0.1,0,0.2,0,0.2c0,0.8,0,1.7,0,2.5c0,0.2-0.1,0.2-0.2,0.2
				c-2.7,0-5.5,0-8.2,0c-0.8,0-1.5,0.6-1.5,1.4c0,0.8,0.6,1.5,1.5,1.5c1.6,0,3.2,0,4.8,0c1.1,0,2.2,0.3,3,1c1.2,1,1.6,2.2,1.5,3.7
				c-0.1,1-0.4,2-1.1,2.8c-0.7,0.8-1.7,1.3-2.8,1.4c-0.3,0-0.6,0-0.9,0c-2.8,0-5.5,0-8.3,0C36.8,58.7,36.7,58.7,36.6,58.7z"/>
			<path class="st3" d="M66.8,58.7c-0.1,0-0.2,0-0.2,0c-0.9,0-1.8,0-2.8,0c-0.2,0-0.2-0.1-0.3-0.2c-0.4-1.1-0.9-2.1-1.3-3.2
				c-0.1-0.1-0.1-0.2-0.3-0.2c-2.2,0-4.4,0-6.6,0c-0.2,0-0.2,0-0.3,0.2c-0.4,1.1-0.9,2.1-1.3,3.2c-0.1,0.2-0.1,0.2-0.3,0.2
				c-0.9,0-1.8,0-2.7,0c-0.1,0-0.1,0-0.3,0c0.2-0.4,0.4-0.8,0.5-1.2c2-4.5,3.9-8.9,5.9-13.4c0.1-0.2,0.2-0.2,0.4-0.2
				c0.9,0,1.9,0,2.8,0c0.1,0,0.2,0,0.3,0.2c2.1,4.8,4.3,9.6,6.4,14.4C66.8,58.5,66.8,58.6,66.8,58.7z M58.6,47.2
				c-0.7,1.7-1.4,3.4-2.1,5c1.5,0,2.9,0,4.3,0C60.1,50.5,59.4,48.9,58.6,47.2z"/>
			<path class="st3" d="M81.5,43.9c1,0,2.1,0,3.1,0c0,0.1,0,0.2,0,0.3c0,3.2,0,6.3,0,9.5c0,1,0.7,1.8,1.5,2.1c0.2,0,0.4,0.1,0.6,0.1
				c1.2,0,2.4,0,3.6,0c1.2,0,2.2-0.9,2.2-2.2c0-3.1,0-6.3,0-9.4c0-0.1,0-0.2,0-0.3c1,0,2.1,0,3.1,0c0,0.1,0,0.2,0,0.2
				c0,3.1,0,6.2,0,9.3c0,2.5-2,4.8-4.5,5.2c-0.2,0-0.5,0-0.7,0c-1.3,0-2.5,0-3.8,0c-2,0-3.5-1-4.4-2.8c-0.5-0.8-0.7-1.7-0.7-2.7
				c0-3,0-6,0-9C81.5,44.1,81.5,44,81.5,43.9z"/>
			<path class="st3" d="M80.8,58.7c-0.5,0-0.9,0-1.3,0c-0.8,0-1.6,0-2.4,0c-0.2,0-0.3,0-0.4-0.2c-1.8-2.1-3.6-4.3-5.4-6.4
				C71.2,52,71.1,52,71,51.8c0,2.3,0,4.6,0,6.8c-1,0-2.1,0-3.1,0c0-4.9,0-9.9,0-14.8c1,0,2,0,3.1,0c0,1.9,0,3.9,0,5.8c0,0,0,0,0.1,0
				c0-0.1,0.1-0.1,0.1-0.2c1.6-1.8,3.3-3.7,4.9-5.5c0.1-0.1,0.2-0.2,0.4-0.2c1.1,0,2.3,0,3.4,0c0.1,0,0.1,0,0.2,0
				c-2.1,2.4-4.1,4.7-6.1,7C76.3,53.5,78.5,56.1,80.8,58.7z"/>
		</g>
	</g>
</g>
</svg>
