<?xml version="1.0" encoding="utf-8"?>
<!-- Generator: Adobe Illustrator 27.0.0, SVG Export Plug-In . SVG Version: 6.00 Build 0)  -->
<svg version="1.1" id="圖層_1" xmlns="http://www.w3.org/2000/svg" xmlns:xlink="http://www.w3.org/1999/xlink" x="0px" y="0px"
	 viewBox="0 0 400 17" style="enable-background:new 0 0 400 17;" xml:space="preserve">
<style type="text/css">
	.st0{fill:#D8B167;}
</style>
<path class="st0" d="M126.5,8.2c3.2,0.3,4.1,1.1,4.1,1.7c0,0.1-0.1,0.3-0.2,0.4l1.2,0.8c-0.1,0.2-0.3,0.3-0.8,0.3h-3.2v2.4
	c0,1-0.2,1.6-2,1.8c0-0.9-0.5-1.1-1.9-1.2v-0.2h2.3c0.3,0,0.4-0.1,0.4-0.3v-2.4h-9.6l-0.1-0.4h9.7V9.9l1.9,0.1
	c0,0.2-0.1,0.3-0.6,0.4v0.7h1.8l0.5-0.6c-0.1,0-0.3-0.1-0.4-0.2c-0.2-0.3-0.5-0.6-1-0.8c-2.3,0.3-5.5,0.5-10,0.8
	c-0.1,0.2-0.3,0.3-0.5,0.3l-0.8-1.5c1.3,0,3.4,0,6.1,0V7.9H120v0.3c0,0-0.2,0.4-1.2,0.4V3.5l1.3,0.6h3.3V2.8h-6.6l-0.1-0.4h6.7V0.8
	l2,0.2c0,0.3-0.2,0.4-0.7,0.4v1h4.5l0.8-1l1.5,1.1c-0.1,0.2-0.3,0.3-0.8,0.3h-6v1.3h3.3l0.5-0.7l1.5,1c-0.1,0.1-0.3,0.2-0.6,0.3V8
	c0,0-0.4,0.4-1.2,0.4V7.9h-3.5v1.3c1,0,2.1,0,3.3,0c-0.4-0.2-0.9-0.4-1.4-0.6L126.5,8.2L126.5,8.2z M119.2,12.1
	c2.4,0.2,3.1,1.1,3.1,1.8c0,0.4-0.3,0.8-0.7,0.8c-0.1,0-0.3-0.1-0.5-0.2c-0.3-0.8-1.2-1.7-2.1-2.2L119.2,12.1z M123.4,4.4H120v1.3
	h3.4V4.4z M120,7.5h3.4V6.1H120V7.5z M128.1,4.4h-3.5v1.3h3.5V4.4z M124.6,7.5h3.5V6.1h-3.5V7.5z"/>
<path class="st0" d="M132.7,5.1c2,0.2,2.7,1,2.7,1.6c0,0.4-0.3,0.8-0.7,0.8c-0.1,0-0.3-0.1-0.5-0.2c-0.2-0.7-0.9-1.5-1.6-2
	L132.7,5.1z M146,13.6l1.6,1.1c-0.1,0.2-0.3,0.3-0.8,0.3h-10.2l-0.1-0.4h4.8V9.6h-3.6l-0.1-0.3h3.7V4.8h-3.9l0-0.2
	c-0.8,2.1-1.8,5-1.9,5.7c-0.1,0.5-0.3,1.1-0.3,1.5c0,0.7,0.5,1.4,0.5,2.5c0,0.3,0,1.4-1,1.4c-0.3,0-0.6-0.3-0.6-0.8
	c0.1-0.6,0.1-1.2,0.1-1.7c0-1.3-0.2-1.7-1.2-1.7v-0.4c0.5,0,0.7,0,0.7,0v0c0.2,0,0.3,0,0.4-0.3c0.1-0.2,0.3-0.6,3.3-7.3l0.3,0.1
	l-0.3,0.9h7.6l0.8-1.1l1.5,1.1c-0.1,0.2-0.3,0.3-0.8,0.3h-4v4.4h1.9l0.8-1l1.5,1.1c-0.1,0.2-0.3,0.3-0.8,0.3h-3.4v5.1h2.6L146,13.6
	L146,13.6z M133.4,1c2.1,0.2,2.8,1.1,2.8,1.7c0,0.4-0.3,0.8-0.7,0.8c-0.2,0-0.3-0.1-0.5-0.2c-0.3-0.8-1-1.7-1.7-2.2L133.4,1L133.4,1
	z M139.8,0.8c2.4,0.5,3.1,1.5,3.1,2.3c0,0.5-0.3,0.9-0.7,0.9c-0.2,0-0.4-0.1-0.5-0.2c-0.2-1-1.1-2.2-2-2.8L139.8,0.8L139.8,0.8z"/>
<path class="st0" d="M153.9,6.2l1.4,1.1c-0.1,0.1-0.3,0.2-0.6,0.3c-0.1,4.7-0.3,6.9-0.9,7.5c-0.4,0.4-0.9,0.5-1.7,0.5
	c0-0.7-0.1-1-1.4-1.2v-0.2c0.5,0,1.3,0,1.7,0c0.3,0,0.4,0,0.5-0.1c0.4-0.4,0.6-2.6,0.6-6.7h-2c-0.3,3.1-1.1,6.3-2.8,8.3l-0.2-0.2
	c1.4-2.7,1.8-7.3,1.8-11.1h-1.7L148.6,4h2.9V0.8l2,0.2c0,0.2-0.2,0.3-0.6,0.4V4h0.9l0.8-1.1L156,4c-0.1,0.2-0.3,0.3-0.8,0.3h-2.9
	c-0.1,0.1-0.3,0.2-0.6,0.2c0,0.8-0.1,1.6-0.2,2.5h1.8L153.9,6.2L153.9,6.2z M155,8c1.5-1.7,2.8-4.8,3.2-7.2l1.9,0.4
	c-0.1,0.2-0.2,0.3-0.6,0.3c0.9,2.2,2.4,4.1,4.1,5.2l0,0.2c-0.5,0.2-0.7,0.6-0.9,1.1c-1.6-1.5-2.8-3.8-3.5-6.3
	c-0.8,2.5-2.3,4.9-4.2,6.4L155,8L155,8z M156.2,11.5c4.3,0.8,5.6,2.5,5.6,3.5c0,0.4-0.2,0.7-0.6,0.7c-0.1,0-0.3,0-0.4-0.1
	c-0.8-1.4-2.9-3.1-4.7-3.9L156.2,11.5L156.2,11.5z M157.4,7.2c2.6,0.3,3.5,1.5,3.5,2.2c0,0.4-0.3,0.8-0.6,0.8
	c-0.1,0-0.3-0.1-0.5-0.2c-0.3-1-1.4-2.1-2.5-2.7L157.4,7.2z"/>
<path class="st0" d="M170.8,2.5c-0.1,0.1-0.4,0.3-0.7,0.3v10.5c0,0-0.3,0.4-1.2,0.4v-1.3h-2.6V14c0,0-0.1,0.5-1.2,0.5v-13l1.3,0.6
	h2.3l0.6-0.8L170.8,2.5L170.8,2.5z M168.8,2.5h-2.6v2.9h2.6V2.5z M168.8,8.7v-3h-2.6v3H168.8z M166.3,12.1h2.6V9h-2.6V12.1z
	 M174.7,7.9c0.3,1.2,0.7,2.3,1.3,3.3c0.7-0.8,1.6-1.8,2.1-2.4l1.3,1.2c-0.1,0.1-0.1,0.1-0.2,0.1c-0.1,0-0.2,0-0.3-0.1
	c-0.6,0.4-1.8,1-2.7,1.5c0.8,1.3,2,2.3,3.5,2.8l0,0.2c-0.5,0.1-0.9,0.5-1.1,1.2c-1-0.6-1.8-1.3-2.4-2.2c-1.2,0.4-2.8,1-4.9,1.7
	c-0.1,0.2-0.2,0.3-0.4,0.4l-0.8-1.7c0.4,0,0.9-0.1,1.6-0.2V1.3l1.4,0.6h3.9l0.6-0.8l1.6,1.1c-0.1,0.1-0.4,0.3-0.7,0.3v5.8
	c0,0-0.4,0.4-1.3,0.4V8L174.7,7.9L174.7,7.9z M177.1,2.2h-4.2v2.5h4.2V2.2z M172.8,7.6h4.2V5h-4.2V7.6z M172.8,7.9v5.6
	c0.9-0.1,2-0.3,3.1-0.4c-0.8-1.4-1.3-3.1-1.6-5.2H172.8L172.8,7.9z"/>
<path class="st0" d="M193.8,3l1.6,1.2c-0.1,0.2-0.3,0.3-0.8,0.3h-14.1l-0.1-0.4h8.8c0.6-1,1.2-2.3,1.6-3.3l1.9,0.8
	c-0.1,0.1-0.2,0.2-0.3,0.2c-0.1,0-0.2,0-0.3,0c-0.6,0.7-1.6,1.7-2.5,2.4h3.2L193.8,3L193.8,3z M185.7,6.4l0.6-0.7l1.5,1.1
	c-0.1,0.1-0.4,0.3-0.7,0.3v7c0,0.8-0.2,1.4-1.6,1.6c0-0.8-0.3-1.1-1.2-1.2v-0.2h1.4c0.2,0,0.2-0.1,0.2-0.2v-2.4h-2.8v3.6
	c0,0-0.1,0.5-1.2,0.5V5.8l1.3,0.6L185.7,6.4L185.7,6.4z M185.9,6.7h-2.8v2h2.8V6.7z M183.1,11.2h2.8V9.1h-2.8V11.2z M183.5,0.8
	c2,0.6,2.6,1.5,2.6,2.2c0,0.5-0.3,0.9-0.7,0.9c-0.2,0-0.4-0.1-0.6-0.3c-0.1-0.9-0.7-2.1-1.4-2.7L183.5,0.8z M191,6.3
	c0,0.2-0.2,0.3-0.7,0.4v6.1c0,0-0.2,0.4-1.2,0.4v-7L191,6.3L191,6.3z M192.4,14.2c0.3,0,0.3-0.1,0.3-0.3V5.7l1.9,0.1
	c0,0.2-0.1,0.3-0.7,0.4v7.7c0,0.9-0.2,1.6-1.9,1.8c0-0.9-0.5-1.1-1.8-1.2v-0.3L192.4,14.2L192.4,14.2z"/>
<path class="st0" d="M196.9,15.8c0.6-0.3,1-0.8,1.1-1.6c-0.1,0-0.2,0-0.3,0c-0.6,0-1.1-0.5-1.1-1.1c0-0.6,0.5-1.1,1.1-1.1
	c0.7,0,1.2,0.5,1.2,1.4c0,1.1-0.8,2.3-1.9,2.8L196.9,15.8L196.9,15.8z"/>
<path class="st0" d="M214.4,8.2c3.2,0.3,4.1,1.1,4.1,1.7c0,0.1-0.1,0.3-0.2,0.4l1.2,0.8c-0.1,0.2-0.3,0.3-0.8,0.3h-3.2v2.4
	c0,1-0.2,1.6-2,1.8c0-0.9-0.5-1.1-1.9-1.2v-0.2h2.3c0.3,0,0.4-0.1,0.4-0.3v-2.4h-9.6l-0.1-0.4h9.7V9.9l1.9,0.1
	c0,0.2-0.1,0.3-0.6,0.4v0.7h1.8l0.5-0.6c-0.1,0-0.3-0.1-0.4-0.2c-0.2-0.3-0.5-0.6-1-0.8c-2.3,0.3-5.5,0.5-10,0.8
	c-0.1,0.2-0.3,0.3-0.4,0.3l-0.8-1.5c1.3,0,3.4,0,6.1,0V7.9h-3.4v0.3c0,0-0.2,0.4-1.2,0.4V3.5l1.3,0.6h3.3V2.8h-6.6l-0.1-0.4h6.7V0.8
	l2,0.2c0,0.3-0.2,0.4-0.7,0.4v1h4.5l0.8-1l1.5,1.1c-0.1,0.2-0.3,0.3-0.8,0.3h-6v1.3h3.4l0.5-0.7l1.5,1c-0.1,0.1-0.3,0.2-0.6,0.3V8
	c0,0-0.3,0.4-1.2,0.4V7.9h-3.5v1.3c1,0,2.1,0,3.3,0c-0.4-0.2-0.9-0.4-1.4-0.6L214.4,8.2L214.4,8.2z M207.1,12.1
	c2.4,0.2,3.1,1.1,3.1,1.8c0,0.4-0.3,0.8-0.7,0.8c-0.1,0-0.3-0.1-0.5-0.2c-0.3-0.8-1.2-1.7-2.1-2.2L207.1,12.1z M211.3,4.4h-3.4v1.3
	h3.4V4.4z M207.9,7.5h3.4V6.1h-3.4V7.5z M216,4.4h-3.5v1.3h3.5V4.4z M212.5,7.5h3.5V6.1h-3.5V7.5z"/>
<path class="st0" d="M228.9,10.4l1.3,0.9c-0.1,0.1-0.3,0.2-0.6,0.3v2.8c0,0-0.3,0.3-1,0.3v-0.8h-1.2v0.6c0,0-0.1,0.3-1,0.3v-1.7
	c-1.2,0.4-2.8,1-4.9,1.7c-0.1,0.2-0.2,0.3-0.4,0.4l-0.7-1.6c0.5-0.1,1.4-0.2,2.5-0.3V8.3h-2.4L220.5,8h2.5V5.7h-1.7l0-0.2
	c-0.2,0.2-0.5,0.5-0.7,0.7L220.3,6c1.1-1.3,2-3.6,2.3-5.2l1.9,0.2c0,0.2-0.2,0.3-0.6,0.3c2,0.8,2.7,1.7,2.7,2.3
	c0,0.4-0.3,0.7-0.7,0.7c-0.2,0-0.3-0.1-0.5-0.2c-0.2-0.7-0.8-1.8-1.6-2.6c-0.6,1.2-1.5,2.6-2.5,3.8h3l0.7-0.9l1.3,0.9l-0.1,0.1h7.3
	l0.7-0.7l1.2,1.2c-0.1,0.1-0.3,0.2-0.6,0.2c-0.3,0.3-0.9,0.7-1.3,0.9L233.4,7c0.1-0.3,0.3-0.7,0.4-1.1h-7.6l-0.1-0.2
	c-0.1,0.1-0.3,0.1-0.5,0.1h-1.5V8h0.6l0.7-0.9l1.3,1c-0.1,0.2-0.3,0.3-0.7,0.3h-1.9v4.8c0.7-0.1,1.5-0.2,2.3-0.4v-2.3l1,0.5h0.9
	L228.9,10.4L228.9,10.4z M221.1,9.2c1,0.9,1.4,1.8,1.4,2.4c0,0.6-0.3,1-0.6,1c-0.1,0-0.3-0.1-0.4-0.3c0-0.1,0-0.3,0-0.5
	c0-0.9-0.2-1.9-0.5-2.6L221.1,9.2z M233.5,9.6l0.7-0.8l1.3,0.8c-0.1,0.2-0.3,0.3-0.8,0.3h-8.1l-0.1-0.2c-0.1,0.1-0.2,0.1-0.4,0.1
	c-0.4,0.9-0.9,2-1.4,2.7l-0.3-0.1c0.2-0.9,0.4-2.2,0.6-3.3l1.6,0.4c0,0,0,0.1-0.1,0.1L233.5,9.6L233.5,9.6z M226.5,2.9l-0.1-0.3h3.4
	V0.8l1.9,0.2c0,0.2-0.2,0.3-0.6,0.4v1.2h2.4l0.7-1l1.3,1c-0.1,0.2-0.3,0.3-0.7,0.3h-3.7v1.3h1.7l0.7-0.9l1.3,1
	c-0.1,0.2-0.3,0.3-0.7,0.3h-7l-0.1-0.3h2.9V2.9L226.5,2.9L226.5,2.9z M226.7,8.3h3V7.1h-2.4l-0.1-0.4h4.3l0.6-0.7l1.2,0.7
	c-0.1,0.2-0.3,0.3-0.7,0.3h-1.7v1.2h1.7l0.7-0.8l1.3,0.8c-0.1,0.2-0.3,0.3-0.7,0.3h-7.1L226.7,8.3L226.7,8.3z M227.4,13.5h1.2v-2.2
	h-1.2V13.5z M233.8,11.5l0.5-0.7l1.1,0.7c-0.1,0.2-0.3,0.3-0.7,0.3h-0.9v2.4c0,0.8-0.2,1.4-1.6,1.5c0-0.8-0.5-0.9-1.4-0.9v-0.2h1.5
	c0.2,0,0.3-0.1,0.3-0.3v-2.4h-2.5l-0.1-0.4h2.6V10l1.8,0.1c0,0.2-0.1,0.3-0.6,0.4L233.8,11.5L233.8,11.5L233.8,11.5z M230.2,12.2
	c1.3,0.2,1.7,0.7,1.7,1.1c0,0.4-0.3,0.6-0.6,0.6c-0.2,0-0.3-0.1-0.5-0.2c0-0.5-0.3-1.1-0.7-1.4L230.2,12.2L230.2,12.2z"/>
<path class="st0" d="M241.8,6.2l1.4,1.1c-0.1,0.1-0.3,0.2-0.6,0.3c-0.1,4.7-0.3,6.9-0.9,7.5c-0.4,0.4-0.9,0.5-1.7,0.5
	c0-0.7-0.1-1-1.4-1.2v-0.2c0.5,0,1.3,0,1.7,0c0.3,0,0.4,0,0.5-0.1c0.4-0.4,0.6-2.6,0.6-6.7h-2c-0.3,3.1-1.1,6.3-2.8,8.3l-0.2-0.2
	c1.4-2.7,1.8-7.3,1.8-11.1h-1.6L236.4,4h2.9V0.8l2,0.2c0,0.2-0.2,0.3-0.6,0.4V4h0.9l0.8-1.1l1.5,1.1c-0.1,0.2-0.3,0.3-0.8,0.3h-2.9
	c-0.1,0.1-0.3,0.2-0.6,0.2c0,0.8-0.1,1.6-0.2,2.5h1.8L241.8,6.2L241.8,6.2z M242.9,8c1.5-1.7,2.8-4.8,3.2-7.2l1.9,0.4
	c-0.1,0.2-0.2,0.3-0.6,0.3c0.9,2.2,2.4,4.1,4.1,5.2l0,0.2c-0.5,0.2-0.7,0.6-0.9,1.1c-1.6-1.5-2.8-3.8-3.5-6.3
	c-0.8,2.5-2.3,4.9-4.2,6.4L242.9,8L242.9,8z M244,11.5c4.3,0.8,5.6,2.5,5.6,3.5c0,0.4-0.2,0.7-0.6,0.7c-0.1,0-0.3,0-0.4-0.1
	c-0.8-1.4-2.9-3.1-4.7-3.9L244,11.5L244,11.5z M245.2,7.2c2.6,0.3,3.5,1.5,3.5,2.2c0,0.4-0.3,0.8-0.6,0.8c-0.1,0-0.3-0.1-0.5-0.2
	c-0.3-1-1.4-2.1-2.5-2.7L245.2,7.2z"/>
<path class="st0" d="M265.6,13.3l1.7,1.2c-0.1,0.2-0.3,0.3-0.8,0.3h-14l-0.1-0.4h6.7V9.7h-4.7l-0.1-0.4h4.8V5h-3.5
	c-0.8,1.4-1.7,2.6-2.7,3.4l-0.2-0.1c1.1-1.5,2.2-4.3,2.8-7l2,0.6c-0.1,0.2-0.2,0.3-0.6,0.3c-0.3,0.9-0.7,1.7-1.1,2.5h3.3V0.8l2,0.2
	c0,0.3-0.2,0.4-0.7,0.4v3.2h3.3l0.9-1.1l1.7,1.2C266.2,4.9,266,5,265.6,5h-5.1v4.3h2.8l0.9-1.1l1.6,1.1c-0.1,0.2-0.3,0.3-0.8,0.3
	h-4.5v4.8h4.2L265.6,13.3z"/>
<path class="st0" d="M268.5,5.1c2,0.2,2.7,1,2.7,1.6c0,0.4-0.3,0.7-0.6,0.7c-0.2,0-0.3-0.1-0.5-0.2c-0.2-0.7-0.9-1.5-1.6-2
	L268.5,5.1z M269.4,11.1c0.2,0,0.3,0,0.4-0.3c0.1-0.2,0.3-0.6,3.3-7.2l0.3,0.1c-0.7,2-2.1,5.9-2.3,6.7c-0.1,0.5-0.3,1-0.3,1.4v0.1
	c0,0.7,0.5,1.4,0.5,2.5c0,0.3,0,1.4-1,1.4c-0.3,0-0.6-0.3-0.6-0.8c0.1-0.6,0.1-1.2,0.1-1.7c0-1.5-0.3-1.7-1.2-1.7v-0.3
	C269.2,11.1,269.4,11.1,269.4,11.1L269.4,11.1L269.4,11.1z M269.2,1c2.1,0.2,2.8,1.1,2.8,1.7c0,0.4-0.3,0.8-0.7,0.8
	c-0.2,0-0.3-0.1-0.5-0.2c-0.3-0.8-1-1.7-1.7-2.2L269.2,1L269.2,1z M281.8,5l1.6,1.2c-0.1,0.2-0.3,0.3-0.8,0.3h-4.1v3.3h1.9l0.6-0.7
	l1.6,1.1c-0.1,0.1-0.4,0.3-0.7,0.3v4.7c0,0-0.3,0.4-1.3,0.4v-1.1h-5.5v0.7c0,0-0.2,0.4-1.3,0.4V9.2l1.4,0.6h2V6.5h-4.5l-0.1-0.4h4.6
	V2.8c-1.4,0.2-2.8,0.3-4.2,0.4L273,2.9c2.8-0.5,6.2-1.4,7.9-2.2l1.4,1.3c-0.1,0.1-0.2,0.1-0.3,0.1c-0.1,0-0.3,0-0.5-0.1
	c-0.8,0.2-1.8,0.4-2.9,0.5v3.5h2.4L281.8,5L281.8,5z M280.6,10.1h-5.5v4h5.5V10.1z"/>
</svg>
