<?xml version="1.0" encoding="utf-8"?>
<!-- Generator: Adobe Illustrator 27.0.0, SVG Export Plug-In . SVG Version: 6.00 Build 0)  -->
<svg version="1.1" id="圖層_1" xmlns="http://www.w3.org/2000/svg" xmlns:xlink="http://www.w3.org/1999/xlink" x="0px" y="0px"
	 viewBox="0 0 400 154" style="enable-background:new 0 0 400 154;" xml:space="preserve">
<style type="text/css">
	.st0{fill:#40220F;}
	.st1{fill:none;stroke:#D8B167;stroke-width:0.25;stroke-miterlimit:10;}
</style>
<path class="st0" d="M133.8,25.6v-0.8h1v0.8h2.7v1.7h0.6v0.9h-0.6V30h-2.7v0.8h2.8v0.8h-2.8v0.8h3.3v0.9h-3.3v1c0.2,0,0.3,0,0.5,0
	c1.3,0,2.3,0,3-0.1l-0.2,1.2c-3.5,0-5.7-0.1-6.5-0.2c-0.7-0.2-1.3-0.5-1.7-0.9c-0.1,0-0.1-0.1-0.1-0.1c-0.4,0.5-0.9,1-1.5,1.5
	l-0.6-1.1c0.6-0.4,1.1-0.9,1.4-1.4c-0.3-0.6-0.7-1.4-1.1-2.5l0.9-0.3c0.3,0.7,0.5,1.2,0.7,1.7c0-0.1,0-0.1,0.1-0.2
	c0.2-0.5,0.2-1.2,0.3-2.2h-1.9v-0.7c0.7-0.9,1.3-1.8,1.9-2.9H128v-0.9h3.2v1c-0.6,1.1-1.2,2-1.7,2.6h1.7c0,1.3-0.2,2.4-0.4,3.2
	c-0.1,0.4-0.2,0.7-0.4,1c0.3,0.3,0.7,0.6,1.2,0.7c0.4,0.1,1.2,0.2,2.2,0.3v-1h-2.7v-0.9h2.7v-0.8h-2.2v-0.8h2.2V30h-2.1v-0.8h2.1
	v-0.9h-2.7v-0.9h2.7v-0.9h-2.1v-0.8H133.8L133.8,25.6z M134.8,27.4h1.7v-0.9h-1.7V27.4z M134.8,29.2h1.7v-0.9h-1.7V29.2z"/>
<path class="st0" d="M141.9,25c-0.1,0.2-0.2,0.5-0.3,0.7h2.9v0.9c0.5-0.6,0.9-1.2,1.1-1.8l1,0.2c-0.1,0.2-0.2,0.5-0.3,0.7h3.4v1
	h-1.9c0.1,0.3,0.2,0.6,0.3,0.9l-1.1,0.1c-0.1-0.4-0.2-0.7-0.2-1h-1.1c-0.2,0.4-0.5,0.7-0.8,1L144,27c0.2-0.1,0.3-0.3,0.4-0.4h-1.5
	c0.1,0.3,0.2,0.5,0.3,0.8l-1.1,0.1c-0.1-0.3-0.2-0.7-0.2-0.9H141c-0.3,0.4-0.6,0.8-1,1.1l-0.9-0.6c0.8-0.7,1.4-1.5,1.8-2.3L141.9,25
	L141.9,25z M144,31.8v-0.6l-0.4-0.4c0.6-0.2,1-0.4,1.2-0.6c-0.3-0.1-0.6-0.3-0.9-0.4l0.5-0.8c0.3,0.1,0.6,0.2,0.9,0.4
	c0-0.1,0-0.2,0-0.4v-0.4h-1.2v-0.8h4.1v2.3c0,0.2,0.1,0.3,0.3,0.3h0.1c0.1,0,0.2,0,0.2-0.1c0.1-0.1,0.1-0.4,0.1-1l0.8,0.3
	c-0.1,0.8-0.2,1.3-0.3,1.5c-0.1,0.2-0.4,0.2-0.8,0.2h-0.4c-0.3,0-0.5-0.1-0.7-0.2s-0.2-0.4-0.2-0.7v-1.8h-1.1V29
	c0,0.3,0,0.5-0.1,0.7c0.4,0.2,0.7,0.4,1,0.6l-0.5,0.9c-0.3-0.2-0.7-0.4-1-0.6c-0.2,0.2-0.5,0.4-0.8,0.6h0.2v0.6h4.7v1h-3.6
	c0.4,0.3,0.8,0.6,1.1,0.8c0.5,0.3,1.3,0.6,2.4,0.9l-0.4,1c-1.2-0.5-2.1-0.9-2.7-1.3c-0.5-0.3-0.9-0.7-1.4-1.3v3h-1v-3h0
	c-0.3,0.5-0.7,0.9-1.2,1.2c-0.7,0.5-1.7,1-3,1.5l-0.6-1c1.4-0.4,2.3-0.8,2.9-1.2c0.3-0.2,0.5-0.3,0.8-0.6h-3.7v-1H144L144,31.8z
	 M143.7,28v1h-1.5v1c0.5-0.1,1-0.2,1.5-0.3v0.9c-1.2,0.3-2.6,0.6-4.2,0.9l-0.2-1.1c0.6-0.1,1.2-0.1,1.9-0.2V29h-1.6v-1L143.7,28
	L143.7,28z"/>
<path class="st0" d="M156.2,31.6c-0.2,0.2-0.5,0.5-0.9,0.8l-0.4-0.6c0.5-0.3,0.8-0.6,0.9-1.1h-0.7v-1.5h1.4v1.2
	C156.6,30.9,156.5,31.3,156.2,31.6z"/>
<path class="st0" d="M167.8,24.9c-0.1,0.4-0.2,0.7-0.4,1.1h4.1v9.6h-1.1V35H164v0.6h-1.1V26h3.4c0.2-0.4,0.3-0.8,0.4-1.2L167.8,24.9
	z M170.4,28.4v-1.4H164v1.4H170.4z M170.4,31.1v-1.6H164v1.6H170.4z M170.4,33.9v-1.7H164v1.7H170.4z"/>
<path class="st0" d="M176.7,25c-0.1,0.3-0.2,0.5-0.2,0.8h2.8v0.8c-0.1,0.3-0.2,0.7-0.3,0.9h1.3c0-0.4,0.1-0.8,0.1-1.2V25h1v1.3
	c0,0.4,0,0.8-0.1,1.2h2.6v1h-2.4c0.2,0.6,0.4,1.1,0.8,1.5c0.5,0.6,1.1,1,1.8,1.4l-0.6,1c-1-0.5-1.6-1.2-2.1-1.9
	c-0.2-0.3-0.4-0.7-0.6-1.1c-0.1,0.3-0.2,0.5-0.4,0.8c-0.5,0.9-1.4,1.7-2.6,2.2l-0.5-0.9c1.2-0.5,2-1.2,2.4-2c0.2-0.3,0.3-0.7,0.4-1
	h-1.5c-0.2,0.5-0.5,0.9-0.8,1.2c-0.8,1-2,1.9-3.7,2.6l-0.4-1.1c0.8-0.2,1.5-0.6,2-1c-0.3-0.3-0.7-0.5-1-0.7l0.5-0.8
	c0.4,0.2,0.9,0.5,1.2,0.8c0.1-0.1,0.3-0.3,0.4-0.5c0.1-0.1,0.1-0.2,0.2-0.2c-0.5-0.3-0.9-0.5-1.4-0.7l0.5-0.8c0.5,0.2,1,0.4,1.4,0.6
	c0.2-0.4,0.4-0.9,0.6-1.4h-1.9c-0.2,0.4-0.3,0.8-0.5,1.1c-0.4,0.8-1,1.5-1.7,2.1l-0.6-0.9c0.6-0.6,1-1.2,1.4-1.9
	c0.3-0.5,0.6-1.2,0.8-2.2L176.7,25L176.7,25z M175.8,32.9c-0.4,1.1-0.9,2.1-1.4,2.9l-1-0.8c0.5-0.7,1-1.6,1.5-2.6L175.8,32.9z
	 M178.1,35.5l-1.2,0.1c0-1-0.1-1.8-0.2-2.6l1-0.1C177.8,33.7,177.9,34.6,178.1,35.5L178.1,35.5z M180.9,35.5l-1.2,0.1
	c-0.1-1-0.3-1.9-0.4-2.6l1-0.1C180.5,33.7,180.7,34.6,180.9,35.5L180.9,35.5z M183.9,35.2l-1.1,0.5c-0.4-1.1-0.9-2-1.4-2.8l1.1-0.4
	C183,33.4,183.5,34.3,183.9,35.2L183.9,35.2z M183.4,26.8l-0.9,0.6c-0.2-0.4-0.5-0.9-0.9-1.4l0.7-0.5
	C182.8,26,183.1,26.5,183.4,26.8z"/>
<path class="st0" d="M195.3,25.5v1.1h-4.6c-0.1,0.5-0.3,1-0.5,1.5h4.4v6.5c0,0.4-0.1,0.7-0.3,0.9c-0.2,0.2-0.4,0.3-0.7,0.3h-1.1
	l-0.2-1.1l0.9,0.1c0.2,0,0.4-0.2,0.4-0.5v-5.1h-1.6v6.3h-1.1v-6.3h-1.5v6.3h-1.1v-6.3h-1.4v6.7h-1.1v-7.7h3.3c0.2-0.5,0.4-1,0.5-1.5
	h-4.7v-1.1H195.3L195.3,25.5z"/>
<path class="st0" d="M199.5,25c-0.1,0.3-0.1,0.5-0.2,0.8h2.8v0.8c-0.1,0.3-0.2,0.7-0.3,0.9h1.3c0-0.4,0.1-0.8,0.1-1.2V25h1v1.3
	c0,0.4,0,0.8-0.1,1.2h2.6v1h-2.4c0.2,0.6,0.4,1.1,0.8,1.5c0.5,0.6,1.1,1,1.8,1.4l-0.6,1c-1-0.5-1.7-1.2-2.1-1.9
	c-0.2-0.3-0.4-0.7-0.6-1.1c-0.1,0.3-0.2,0.5-0.4,0.8c-0.5,0.9-1.4,1.7-2.6,2.2l-0.5-0.9c1.2-0.5,2-1.2,2.4-2c0.2-0.3,0.3-0.7,0.4-1
	h-1.5c-0.2,0.5-0.5,0.9-0.8,1.2c-0.8,1-2,1.9-3.7,2.6l-0.4-1.1c0.8-0.2,1.4-0.6,2-1c-0.3-0.3-0.7-0.5-1-0.7l0.5-0.8
	c0.4,0.2,0.9,0.5,1.2,0.8c0.1-0.1,0.3-0.3,0.4-0.5c0.1-0.1,0.1-0.2,0.2-0.2c-0.5-0.3-0.9-0.5-1.4-0.7l0.5-0.8c0.5,0.2,1,0.4,1.4,0.6
	c0.2-0.4,0.4-0.9,0.6-1.4H199c-0.2,0.4-0.3,0.8-0.5,1.1c-0.4,0.8-1,1.5-1.7,2.1l-0.6-0.9c0.6-0.6,1-1.2,1.4-1.9
	c0.3-0.5,0.6-1.2,0.8-2.2L199.5,25L199.5,25z M198.6,32.9c-0.4,1.1-0.9,2.1-1.4,2.9l-1-0.8c0.6-0.7,1.1-1.6,1.5-2.6L198.6,32.9z
	 M200.9,35.5l-1.2,0.1c-0.1-1-0.1-1.8-0.2-2.6l1-0.1C200.6,33.7,200.7,34.6,200.9,35.5L200.9,35.5z M203.7,35.5l-1.2,0.1
	c-0.1-1-0.3-1.9-0.4-2.6l1-0.1C203.3,33.7,203.5,34.6,203.7,35.5L203.7,35.5z M206.7,35.2l-1.1,0.5c-0.4-1.1-0.9-2-1.4-2.8l1.1-0.4
	C205.8,33.4,206.3,34.3,206.7,35.2L206.7,35.2z M206.2,26.8l-0.8,0.6c-0.2-0.4-0.5-0.9-0.9-1.4l0.7-0.5
	C205.6,26,206,26.5,206.2,26.8L206.2,26.8z"/>
<path class="st0" d="M211,25c-0.1,0.6-0.3,1.2-0.6,1.7h1.6v2.5c0.3-0.6,0.6-1.1,0.8-1.7c0.2-0.7,0.4-1.6,0.6-2.7l1.1,0.2
	c-0.1,0.6-0.2,1.2-0.3,1.7h3.5c0,4.2-0.1,6.7-0.2,7.5c-0.1,0.6-0.3,1-0.6,1.2c-0.3,0.2-0.9,0.4-1.8,0.4c-0.2,0-0.5,0-0.9,0l-0.2-1.2
	c0.3,0.1,0.7,0.1,1,0.1c0.7,0,1.1-0.2,1.2-0.8c0.1-0.6,0.2-2.7,0.2-6.1H214c0,0.1-0.1,0.2-0.1,0.2c-0.2,0.9-0.7,1.8-1.3,2.8
	l-0.5-0.7v4.9h-1v-0.6H209v0.9h-1v-8.5h1.4c0.2-0.6,0.4-1.2,0.5-1.9L211,25L211,25z M211.1,30v-2.3H209V30H211.1z M211.1,33.3V31
	H209v2.4H211.1z M215.9,32.2l-1.1,0.7c-0.3-0.9-0.8-1.9-1.3-3l0.9-0.6C215,30.4,215.5,31.4,215.9,32.2L215.9,32.2z"/>
<path class="st0" d="M222.9,27.4v0.9c-0.3,1.5-0.7,2.6-1.1,3.4c-0.6,1-1.2,1.9-2,2.6l-0.7-0.9c0.9-0.9,1.5-1.8,1.9-2.5
	c0.3-0.6,0.6-1.4,0.8-2.4h-2.7v-1H222.9z M224.9,24.8v2.2c0.2,0.6,0.5,1.2,0.7,1.7c0.9-0.7,1.8-1.5,2.7-2.6l0.8,0.6
	c-0.9,1.1-1.9,2.1-3,2.9c0.2,0.3,0.3,0.6,0.5,0.8c0.7,1,1.6,1.9,2.8,2.8l-0.5,1.1c-1.4-1.1-2.4-2.2-3-3.2c-0.3-0.5-0.6-1.1-1-1.9
	v5.4c0,0.4-0.1,0.7-0.3,0.9c-0.2,0.2-0.5,0.3-1,0.3h-1.3l-0.2-1.1c0.5,0.1,0.9,0.1,1.2,0.1c0.3,0,0.5-0.1,0.5-0.3v-9.6H224.9
	L224.9,24.8z"/>
<path class="st0" d="M236.5,25.1v1h-2.9l-1,2.4c0.9,0,1.7-0.1,2.5-0.2c-0.2-0.4-0.3-0.8-0.5-1.2l0.8-0.5c0.5,1.1,1,2,1.3,2.8l-1,0.7
	c-0.1-0.2-0.2-0.5-0.3-0.8c-0.4,0.1-0.9,0.1-1.4,0.2V31h2.1v1H234v1.8c0.9-0.1,1.7-0.2,2.5-0.4v1c-1.6,0.3-3.6,0.6-5.8,0.9l-0.3-1.2
	c0.8-0.1,1.7-0.1,2.5-0.2v-2h-2.1v-1h2.1v-1.4c-0.6,0-1.3,0.1-2.1,0.1l-0.2-1.2c0.2,0,0.5,0,0.7,0l1-2.4h-1.8v-1L236.5,25.1
	L236.5,25.1z M238.2,25.6v7.6h-1.1v-7.6H238.2z M240.4,24.8v9.5c0,0.5-0.1,0.8-0.3,1c-0.2,0.2-0.5,0.3-0.9,0.3h-1.5l-0.3-1.3
	c0.6,0.1,1.1,0.1,1.5,0.1c0.3,0,0.4-0.1,0.4-0.3v-9.4H240.4L240.4,24.8z"/>
<path class="st0" d="M244.1,27.7l-0.6,1c-0.6-0.5-1.1-0.8-1.7-1.1l0.5-0.9C243,27,243.6,27.3,244.1,27.7L244.1,27.7z M251.9,25.2
	v0.9h-5.1v0.6h4.6v2.5h-4.6v0.7h5.1v1h-4.4v0.7h4.6v1h-3.4c0.4,0.4,0.8,0.7,1.2,0.9c0.6,0.3,1.3,0.7,2.3,1l-0.4,1
	c-1.2-0.5-2.1-0.9-2.7-1.4c-0.5-0.3-0.9-0.8-1.4-1.5h0v3.3h-1v-3.2c-0.3,0.5-0.7,0.9-1.1,1.2c-0.7,0.5-1.6,1.1-2.9,1.7l-0.6-1
	c1.3-0.5,2.2-0.9,2.8-1.3c0.3-0.2,0.6-0.4,0.8-0.7h-3.5v-1h4.6v-0.7H245v-1h0.8v-3.7H245v-0.9L251.9,25.2L251.9,25.2z M245.2,29
	c-0.7,0.9-1.6,1.6-2.6,2.2l-0.4-1.1c0.9-0.5,1.8-1.2,2.8-2.2L245.2,29L245.2,29z M244.8,25.9l-0.6,1c-0.6-0.5-1.2-0.8-1.8-1.1
	l0.5-0.9C243.6,25.2,244.2,25.5,244.8,25.9L244.8,25.9z M250.5,28.3v-0.7h-3.7v0.7H250.5z"/>
<path class="st0" d="M263.4,27.5h-3.2c0.1,1.7,0.3,3.1,0.6,4c0.5-0.8,1-1.9,1.5-3.2l1,0.4c-0.6,1.8-1.3,3.1-1.9,4
	c0.5,1.1,0.9,1.6,1.1,1.6c0.1,0,0.3-0.5,0.4-1.7l0.9,0.7c-0.3,1.1-0.5,1.8-0.7,2.1c-0.1,0.2-0.3,0.3-0.5,0.3c-0.5,0-1-0.3-1.4-0.9
	c-0.2-0.3-0.5-0.6-0.6-1c-0.7,0.7-1.6,1.3-2.7,1.9l-0.6-1c1.2-0.6,2.1-1.2,2.9-2c-0.2-0.4-0.3-0.8-0.4-1.3c-0.2-1-0.4-2.3-0.5-3.8
	h-3.8V29h3.1c0,2.2-0.1,3.5-0.3,4.1c-0.2,0.7-0.5,1-1.1,1h-1.5l-0.2-1.1c0.8,0.1,1.3,0.1,1.7,0.1c0.1,0,0.2-0.2,0.2-0.5
	c0-0.4,0.1-1.2,0.1-2.5h-2.1c0,0.9-0.1,1.7-0.2,2.6c-0.2,1.1-0.6,2.2-1,3.3l-0.9-0.8c0.4-0.9,0.7-1.8,0.9-2.8c0.1-1,0.2-1.9,0.2-2.7
	v-3.2h4.8c0-0.5,0-1.1,0-1.7h1.1c0,0.6,0,1.1,0,1.7h1.6c-0.3-0.3-0.7-0.6-1.1-1l0.7-0.7c0.5,0.4,1,0.7,1.3,1.1l-0.6,0.6h1.2
	L263.4,27.5L263.4,27.5z"/>
<path class="st0" d="M270.2,31.6c-0.2,0.2-0.5,0.5-0.9,0.8l-0.4-0.6c0.5-0.3,0.8-0.6,0.9-1.1h-0.7v-1.5h1.4v1.2
	C270.6,30.9,270.5,31.3,270.2,31.6z"/>
<path class="st0" d="M129.6,60.1v-4h1v4h1.5v1h-1.5v0.3c0.5,0.6,1.1,1.3,1.6,2l-0.6,0.9c-0.4-0.7-0.8-1.3-1.1-1.7v4.3h-1v-4.2
	c0,0,0,0.1-0.1,0.1c-0.4,0.9-0.8,1.7-1.3,2.3l-0.4-1.2c0.7-0.8,1.2-1.8,1.7-2.9h-1.7v-1H129.6L129.6,60.1z M129.5,59.4l-0.9,0.2
	c-0.1-0.8-0.3-1.6-0.5-2.3l0.8-0.3C129.1,57.7,129.3,58.5,129.5,59.4z M132.3,57.2c-0.2,0.9-0.4,1.7-0.7,2.4l-0.9-0.3
	c0.3-0.6,0.5-1.4,0.7-2.3L132.3,57.2L132.3,57.2z M134.6,56.8V56h1v0.8h2.3v0.9h-2.3v0.6h2.1v0.8h-2.1v0.6h2.5v0.9h-5.9v-0.9h2.4
	v-0.6h-2v-0.8h2v-0.6h-2.2v-0.9H134.6z M137.8,66c0,0.3-0.1,0.6-0.3,0.8c-0.2,0.2-0.4,0.2-0.6,0.2h-1.2l-0.2-0.9l1,0
	c0.2,0,0.3-0.2,0.3-0.4v-0.6h-3.1V67h-1v-5.8h5.1L137.8,66L137.8,66z M136.8,62.8v-0.7h-3.1v0.7H136.8z M136.8,64.3v-0.7h-3.1v0.7
	H136.8z"/>
<path class="st0" d="M149.1,57v1.1h-4.1v7.1h4.6v1.1h-10.2v-1.1h4.5v-7.1h-4.1V57H149.1z"/>
<path class="st0" d="M156.2,62.8c-0.2,0.2-0.5,0.5-0.9,0.8l-0.4-0.6c0.5-0.3,0.8-0.6,0.9-1.1h-0.7v-1.5h1.4v1.2
	C156.6,62.1,156.5,62.5,156.2,62.8z"/>
<path class="st0" d="M170.9,58.9c-0.9,0.1-1.9,0.2-3.1,0.3v1.2h1.4c0.2-0.3,0.4-0.7,0.5-1.1l1.1,0.1c-0.1,0.3-0.3,0.6-0.5,0.9h2.2
	v0.9h-3.2c0.3,0.2,0.7,0.4,1.1,0.6c0.6,0.3,1.4,0.5,2.4,0.9l-0.6,0.8c-0.2-0.1-0.4-0.1-0.6-0.2V67h-1v-0.5h-6.2V67h-1v-3.7
	c-0.2,0.1-0.5,0.2-0.7,0.2l-0.5-0.8c1.1-0.3,2-0.6,2.6-0.9c0.3-0.2,0.6-0.3,0.9-0.5h-3.3v-0.9h2.3c-0.2-0.3-0.3-0.5-0.5-0.8l1.1-0.1
	c0.2,0.3,0.3,0.6,0.5,0.9h1.3v-1.1c-0.9,0-1.8,0-2.9,0l-0.3-0.9c2.7,0,4.9-0.1,6.8-0.3L170.9,58.9L170.9,58.9z M167.9,56.8h4.2v2.4
	h-1.1v-1.5h-7.7v1.5h-1.1v-2.4h4.5c-0.1-0.2-0.3-0.4-0.4-0.7l1.2-0.2C167.6,56.3,167.8,56.5,167.9,56.8L167.9,56.8z M166.7,64.1
	v-0.7h-2.5v0.7H166.7z M166.7,65.7v-0.8h-2.5v0.8H166.7z M169.8,62.6c-0.2-0.1-0.4-0.2-0.6-0.3c-0.5-0.3-0.9-0.6-1.3-1h-0.1v1.1h-1
	v-1.1h-0.1c-0.4,0.4-0.8,0.7-1.2,1c-0.2,0.1-0.4,0.2-0.7,0.4L169.8,62.6L169.8,62.6z M170.4,64.1v-0.7h-2.7v0.7H170.4z M170.4,65.7
	v-0.8h-2.7v0.8H170.4z"/>
<path class="st0" d="M174.6,58.6c0,1.2-0.2,2.4-0.4,3.5l-0.9-0.2c0.3-1.1,0.4-2.2,0.4-3.3L174.6,58.6z M175.9,56.1v2.2l0.6-0.2
	c0.2,0.8,0.5,1.7,0.7,2.7l-0.9,0.2c-0.1-0.7-0.3-1.5-0.4-2.2v8h-1V56.1L175.9,56.1L175.9,56.1z M179.3,65.7c-0.9,0.6-1.8,1-2.7,1.3
	l-0.4-1c1-0.2,1.8-0.6,2.5-1L179.3,65.7L179.3,65.7z M180.9,56.1c0,0.2-0.1,0.4-0.1,0.6h2.9v0.8h-3.1c-0.1,0.2-0.1,0.5-0.1,0.7h2.6
	v5.7h0.8v0.9h-7.5v-0.9h0.9v-5.7h2.1c0.1-0.2,0.1-0.4,0.2-0.7h-2.9v-0.8h3c0-0.2,0.1-0.5,0.1-0.7L180.9,56.1L180.9,56.1z
	 M182.1,59.7V59h-3.8v0.7H182.1z M182.1,61v-0.6h-3.8V61H182.1z M182.1,62.5v-0.6h-3.8v0.6H182.1z M182.1,63.9v-0.7h-3.8v0.7H182.1z
	 M184,66.1l-0.6,0.9c-0.8-0.5-1.6-0.9-2.5-1.2l0.5-0.8C182.3,65.3,183.2,65.7,184,66.1L184,66.1z"/>
<path class="st0" d="M187.1,63.1c-0.3,1.2-0.7,2.2-1.2,3l-1-0.6c0.5-0.8,0.9-1.7,1.1-2.6L187.1,63.1z M194.5,56.5v5.4h-8.2v-5.4
	H194.5z M189.8,58.8v-1.3h-2.4v1.3H189.8z M189.8,59.7h-2.4v1.2h2.4V59.7z M188.6,62.5v2.9c0,0.2,0.1,0.4,0.4,0.4h3.3
	c0.1,0,0.2,0,0.3-0.1c0.1-0.1,0.1-0.5,0.2-1.3l1,0.3c-0.1,1-0.2,1.6-0.4,1.8c-0.2,0.2-0.5,0.3-1,0.3h-3.8c-0.3,0-0.6-0.1-0.8-0.3
	c-0.2-0.2-0.3-0.4-0.3-0.8v-3.2H188.6L188.6,62.5z M191.9,64l-1,0.5c-0.4-0.7-0.8-1.3-1.2-1.9l1-0.3C191.1,62.8,191.5,63.4,191.9,64
	L191.9,64z M190.9,58.8h2.6v-1.3h-2.6V58.8z M193.4,59.7h-2.6v1.2h2.6V59.7z M195.5,65.3l-1,0.5c-0.4-1.1-0.9-2-1.4-2.8l1-0.3
	C194.7,63.5,195.1,64.4,195.5,65.3L195.5,65.3z"/>
<path class="st0" d="M205.8,61v3.1h-3.9v0.6h4.1v0.7h-4.1V66h4.8v0.8h-10.5V66h4.8v-0.6h-4v-0.7h4v-0.6h-3.8V61H205.8L205.8,61z
	 M206.6,59.7v0.8h-10.2v-0.8H206.6z M205.8,56.3v3h-8.7v-3H205.8z M200.9,62.3v-0.5h-2.8v0.5H200.9z M200.9,62.9h-2.8v0.5h2.8V62.9z
	 M204.8,57.4V57h-6.6v0.5H204.8z M204.8,58.1h-6.6v0.5h6.6V58.1z M201.9,62.3h2.9v-0.5h-2.9V62.3z M204.9,62.9h-2.9v0.5h2.9V62.9z"
	/>
<path class="st0" d="M211,56.2c-0.1,0.6-0.3,1.2-0.6,1.7h1.6v2.5c0.3-0.6,0.6-1.1,0.8-1.7c0.2-0.7,0.4-1.6,0.6-2.7l1.1,0.2
	c-0.1,0.7-0.2,1.2-0.3,1.7h3.5c0,4.2-0.1,6.7-0.2,7.5c-0.1,0.6-0.3,1-0.6,1.2c-0.3,0.2-0.9,0.4-1.8,0.4c-0.2,0-0.5,0-0.9-0.1
	l-0.2-1.2c0.3,0.1,0.7,0.1,1,0.1c0.7,0,1.1-0.2,1.2-0.8c0.1-0.6,0.2-2.7,0.2-6.1H214c0,0.1-0.1,0.2-0.1,0.2
	c-0.2,0.9-0.7,1.8-1.3,2.8l-0.5-0.7v4.9h-1v-0.6H209v0.9h-1v-8.5h1.4c0.2-0.6,0.4-1.2,0.5-1.9L211,56.2L211,56.2z M211.1,61.2v-2.3
	H209v2.3H211.1z M211.1,64.5v-2.4H209v2.4H211.1z M215.9,63.4l-1.1,0.7c-0.3-0.9-0.8-1.9-1.3-3l0.9-0.6
	C215,61.6,215.5,62.6,215.9,63.4L215.9,63.4z"/>
<path class="st0" d="M223.2,56.9c-0.5,1.1-1,2-1.4,2.6c-0.2,0.3-0.5,0.6-0.8,1h6.8c-0.2-0.2-0.3-0.4-0.5-0.7
	c-0.5-0.7-0.9-1.5-1.2-2.4h-2.2v-1.1h3c0.5,1.5,1.4,3,2.9,4.3l-0.7,1.1c-0.3-0.2-0.6-0.5-0.8-0.7c-0.1,2.9-0.2,4.6-0.5,5.2
	c-0.3,0.5-0.8,0.8-1.7,0.8c-0.7,0-1.2,0-1.6,0l-0.3-1.3c0.6,0.1,1.2,0.1,1.9,0.1c0.4,0,0.6-0.2,0.7-0.7c0.1-0.3,0.2-1.5,0.2-3.5
	h-2.6c-0.3,1.3-0.7,2.4-1.2,3.2c-0.6,0.9-1.5,1.7-2.7,2.4l-0.7-1c1.1-0.6,1.9-1.3,2.5-2c0.5-0.6,0.8-1.5,1.1-2.6h-2.4v-0.8
	c-0.3,0.4-0.7,0.7-1.1,1l-0.6-1.1c0.6-0.4,1.2-1,1.8-1.9c0.4-0.6,0.9-1.4,1.3-2.4L223.2,56.9L223.2,56.9z"/>
<path class="st0" d="M237.4,58.2v-2.1h1.2v2.1h2.1v1.1h-2.1v6.3c0,0.5-0.1,0.8-0.3,1c-0.2,0.2-0.5,0.3-1,0.3h-2l-0.3-1.3
	c0.8,0.1,1.4,0.1,1.9,0.1c0.3,0,0.5-0.1,0.5-0.3v-6.1h-6.7v-1.1H237.4z M235,63.1l-0.9,1c-0.5-0.9-1.2-1.9-2.2-2.9l0.9-0.8
	C233.6,61.3,234.4,62.2,235,63.1z"/>
<path class="st0" d="M247.5,55.9c1.4,0.9,3.1,1.6,5,2.3l-0.4,1.1c-0.9-0.4-1.6-0.8-2.4-1.1v0.3h-5.3v-0.2c-0.8,0.4-1.5,0.8-2.2,1
	l-0.4-1.1c1.7-0.6,3.3-1.4,4.9-2.4H247.5L247.5,55.9z M251.2,62.3c-1,0.1-2.2,0.2-3.5,0.2v0.6h3.7V64h-3.7v0.6h4.5v0.9h-4.5V66
	c0,0.4-0.1,0.6-0.3,0.7c-0.2,0.2-0.5,0.2-0.9,0.2h-1.4l-0.2-1c0.5,0.1,0.9,0.1,1.3,0.1c0.3,0,0.4-0.1,0.4-0.2v-0.5H242v-0.9h4.6
	v-0.6h-4v-0.9h4v-0.6c-1.1,0-2.4,0-3.7,0l-0.2-0.8c3.1,0,5.8-0.1,8-0.3L251.2,62.3L251.2,62.3z M250.8,59.1v2.2h-7.6v-2.2H250.8z
	 M249.8,59.9h-5.7v0.6h5.7V59.9z M248.7,57.7c-0.6-0.3-1.2-0.7-1.6-1c-0.6,0.4-1.1,0.7-1.6,1H248.7z"/>
<path class="st0" d="M254.7,58.2V56h1v2.2h1.3v1h-1.3v2.3c0.4-0.2,0.8-0.5,1.2-0.7v1.2c-0.4,0.3-0.8,0.5-1.2,0.7v3.1
	c0,0.4-0.1,0.7-0.3,0.9c-0.2,0.2-0.5,0.3-0.9,0.3h-0.9l-0.2-1.1c0.3,0.1,0.6,0.1,0.8,0.1c0.3,0,0.4-0.1,0.4-0.3v-2.5
	c-0.4,0.2-0.9,0.4-1.3,0.5l-0.1-1.2c0.5-0.1,0.9-0.2,1.4-0.4v-2.8h-1.4v-1H254.7L254.7,58.2z M259.6,63.2v-1.1h1v1.1h2.5v1h-2.5v1.4
	h3v1h-7.2v-1h3.1v-1.4h-2.5v-1H259.6z M262.9,56.5v5.3h-5.4v-5.3H262.9z M261.9,58.7v-1.2h-3.5v1.2H261.9z M261.9,59.7h-3.5v1.2h3.5
	V59.7z"/>
<path class="st0" d="M270.2,62.8c-0.2,0.2-0.5,0.5-0.9,0.8l-0.4-0.6c0.5-0.3,0.8-0.6,0.9-1.1h-0.7v-1.5h1.4v1.2
	C270.6,62.1,270.5,62.5,270.2,62.8z"/>
<path class="st0" d="M98.2,87.8v1h-4.5v1h4.1V97c0,0.4-0.1,0.7-0.3,0.9c-0.2,0.2-0.4,0.3-0.7,0.3h-1.2L95.4,97l1,0.1
	c0.2,0,0.3-0.2,0.3-0.5v-1l-0.4,0.7c-0.4-0.9-0.8-1.6-0.9-2.3c-0.3,0.9-0.7,1.7-1.2,2.4l-0.5-0.7V98h-1.1v-2.3l-0.5,0.9
	c-0.4-0.9-0.8-1.7-0.9-2.3c-0.3,0.9-0.6,1.6-1.1,2.3l-0.4-0.6v2.2h-1.1v-8.3h4.1v-1h-4.6v-1L98.2,87.8L98.2,87.8z M90.3,94.4
	c0.3-0.6,0.5-1.2,0.5-1.8h-0.7v-0.9h1.7c0,1,0.1,1.8,0.3,2.2c0.1,0.4,0.3,0.8,0.6,1.2v-4.4h-2.9v4.4C90,94.9,90.2,94.6,90.3,94.4
	L90.3,94.4z M94.4,94.4c0.3-0.6,0.5-1.1,0.5-1.7h-0.8v-0.9h1.7c0,1,0.1,1.7,0.3,2.2c0.1,0.3,0.2,0.7,0.5,1v-4.2h-3v4.5
	C94.1,94.9,94.3,94.6,94.4,94.4L94.4,94.4z"/>
<path class="st0" d="M103.7,88.4v-1.3h1.1v1.3h2.5v1h-2.5v1.3h1.2c1-0.8,2-1.8,3-3l0.8,0.6c-0.7,0.9-1.4,1.7-2.2,2.4h2.3v1h-3.6
	c-0.1,0.1-0.3,0.2-0.4,0.3c-0.3,0.2-0.7,0.4-1,0.7h3.8v5.5h-1.1v-0.6h-5.1v0.6h-1.1v-3.9c-0.5,0.2-1,0.4-1.6,0.6l-0.5-1.1
	c2-0.6,3.7-1.3,5.1-2.1h-5v-1h4.2v-1.3h-3.4v-1L103.7,88.4L103.7,88.4z M107.6,94.6v-1H103c-0.2,0.1-0.3,0.1-0.5,0.2v0.8L107.6,94.6
	L107.6,94.6z M107.6,96.7v-1.1h-5.1v1.1H107.6z"/>
<path class="st0" d="M112.8,89.4v-2.2h1v2.2h1.7v1h-1.7v0.5c0.6,0.7,1.2,1.4,1.9,2.2l-0.7,1c-0.5-0.8-0.9-1.4-1.2-1.9v5.9h-1v-5.8
	c0,0,0,0.1,0,0.1c-0.4,1.1-0.9,2-1.5,2.7l-0.5-1.4c0.8-1,1.5-2.2,2-3.6h-1.9v-1L112.8,89.4L112.8,89.4z M120.8,98.2h-1v-0.8h-3v0.8
	h-1V87.7h5L120.8,98.2L120.8,98.2z M119.8,90.5v-1.8h-3v1.8H119.8z M119.8,93.4v-1.9h-3v1.9H119.8z M119.8,96.4v-2h-3v2H119.8z"/>
<path class="st0" d="M124,89.2v-2h1.1v2h2.4c0,4.2-0.1,6.6-0.1,7.4c-0.1,0.6-0.2,1-0.4,1.2c-0.2,0.2-0.7,0.4-1.3,0.4
	c-0.2,0-0.6,0-0.9,0l-0.2-1.2c0.3,0.1,0.7,0.1,1.1,0.1s0.6-0.2,0.6-0.7c0.1-0.6,0.1-2.6,0.1-6H125c0,1.5-0.2,2.8-0.4,3.8
	c-0.3,1.3-0.8,2.7-1.7,4.1l-0.9-0.8c0.7-1.1,1.2-2.3,1.6-3.5c0.2-0.8,0.3-2,0.4-3.5h-1.9v-1.1L124,89.2L124,89.2z M132.3,98.2h-1.1
	v-0.8H129v0.9h-1.1v-9.5h4.4L132.3,98.2L132.3,98.2z M131.2,96.2v-6.5H129v6.5H131.2z"/>
<path class="st0" d="M135.9,88.5h1.4v1h-3.7v-1h1.4c-0.1-0.4-0.1-0.8-0.2-1.2l1.1-0.1C135.8,87.6,135.8,88,135.9,88.5L135.9,88.5z
	 M136.9,97.3h-2v0.9h-1v-4.3h3L136.9,97.3L136.9,97.3z M136.8,90.3v0.9h-2.9v-0.9H136.8z M136.8,92.1V93h-2.9v-0.9H136.8z
	 M135.8,96.3v-1.5h-1v1.5H135.8z M139.7,87.7v0.9c-0.5,1-0.9,1.8-1.2,2.4h1.2c0,1.4-0.1,2.5-0.3,3.3c-0.1,0.5-0.2,0.9-0.3,1.2
	c0.3,0.4,0.7,0.7,1.1,0.9c0.5,0.2,1.1,0.3,2,0.3c0.6,0,1.3,0,1.9-0.1l-0.2,1.1c-2.2,0-3.7-0.2-4.2-0.5c-0.4-0.1-0.7-0.4-1.1-0.8
	c-0.3,0.5-0.7,1-1.1,1.5l-0.5-1c0.4-0.4,0.8-0.9,1.1-1.4c-0.4-0.7-0.7-1.5-1-2.6l0.8-0.3c0.2,0.7,0.3,1.3,0.6,1.8
	c0-0.1,0.1-0.2,0.1-0.3c0.1-0.5,0.2-1.3,0.2-2.2h-1.4v-0.8c0.5-0.7,0.9-1.5,1.4-2.4h-1.3v-1L139.7,87.7L139.7,87.7z M143.8,88.2
	c-0.3,0.2-0.7,0.4-1.1,0.5V91h1v1.1h-1v2.4h1.2v1h-2.7c-0.3,0-0.6-0.1-0.8-0.2c-0.2-0.2-0.3-0.4-0.3-0.8v-4.4h0.9v4
	c0,0.2,0.1,0.4,0.3,0.4h0.4v-5.6c-0.5,0.1-1.1,0.1-1.7,0.1l-0.3-1c1.4,0,2.6-0.3,3.5-0.8L143.8,88.2L143.8,88.2z"/>
<path class="st0" d="M148,87.9c-0.2,0.6-0.3,1-0.5,1.5h2.4v-2.2h1.1v2.2h4.2v1.1H151v2.5h3.7v1H151v2.8h4.4v1.1h-10.3v-1.1h4.8V94
	h-3.6v-1h3.6v-2.5h-2.8c0,0,0,0.1,0,0.1c-0.2,0.6-0.7,1.3-1.3,2.1l-0.9-0.8c0.6-0.7,1-1.3,1.3-1.9c0.3-0.7,0.6-1.4,0.8-2.3L148,87.9
	L148,87.9z"/>
<path class="st0" d="M166.5,91.7v1.1h-9.9v-1.1H166.5z"/>
<path class="st0" d="M170.7,90.1v0.8c-0.4,0.7-0.9,1.3-1.4,2h1.4v0.7c-0.2,0.7-0.3,1.3-0.5,1.7c0.5,0.6,1.1,1,1.8,1.1
	c0.7,0.2,1.8,0.3,3.6,0.3c1.1,0,2,0,2.7-0.1l-0.3,1.2c-3.6,0-5.7-0.1-6.4-0.3c-0.7-0.2-1.3-0.6-1.8-1.2c-0.3,0.6-0.8,1.2-1.3,1.9
	l-0.8-0.8c0.6-0.6,1-1.2,1.2-1.6c0.2-0.3,0.4-0.8,0.7-1.7H168V93c0.5-0.5,1-1.1,1.5-1.9h-1.6v-1L170.7,90.1L170.7,90.1z M170.3,89
	l-0.7,0.8c-0.3-0.6-0.7-1.1-1.3-1.8l0.7-0.7C169.5,87.8,169.9,88.4,170.3,89L170.3,89z M173.7,88.4h1.4c0.3-0.4,0.5-0.8,0.7-1.3
	l1,0.3c-0.2,0.3-0.4,0.7-0.7,0.9h1.8v1h-3.1c-0.1,0.3-0.2,0.6-0.3,0.8h2.9v5.8h-6v-5.8h2c0.1-0.3,0.3-0.6,0.4-0.8H171v-1h1.7
	c-0.2-0.3-0.4-0.6-0.7-0.9l0.9-0.3C173.1,87.6,173.4,88,173.7,88.4L173.7,88.4z M176.5,91.9v-0.7h-4.1v0.7H176.5z M176.5,93.5v-0.8
	h-4.1v0.8H176.5z M176.5,94.3h-4.1v0.8h4.1V94.3z"/>
<path class="st0" d="M184.9,88.6h4.8v1.1h-4.7v1.6h4v4.4c0,0.4-0.1,0.8-0.3,1c-0.2,0.2-0.4,0.3-0.7,0.3h-1.5l-0.3-1.2l1.4,0.1
	c0.2,0,0.4-0.2,0.4-0.5v-2.9h-2.9v5.8h-1.1v-5.8h-2.9V97h-1.1v-5.7h4v-1.6h-4.6v-1.1h4.7c-0.2-0.4-0.4-0.8-0.6-1.2l1-0.4
	C184.4,87.5,184.6,88,184.9,88.6L184.9,88.6z"/>
<path class="st0" d="M195.9,87.9v1h-1.8v2.6h1c0.3-0.6,0.6-1.1,0.9-1.8c0.2-0.6,0.5-1.4,0.7-2.5l1.1,0.1c-0.1,0.6-0.2,1.1-0.4,1.6
	h3.6V90h-0.9c-0.1,2-0.5,3.6-1.2,4.9c-0.1,0.1-0.1,0.2-0.2,0.3c0.6,0.6,1.3,1.3,2.3,2l-0.6,1.1c-1-0.7-1.8-1.4-2.4-2.1
	c-0.6,0.7-1.5,1.4-2.5,2.1l-0.6-1c1.1-0.6,1.9-1.2,2.5-2c-0.5-0.9-0.9-2-1.2-3.4c-0.2,0.4-0.4,0.7-0.7,1l-0.2-0.3h-1.2v2.9
	c0.6-0.2,1.1-0.4,1.6-0.6v1.1c-1.4,0.7-3,1.2-4.8,1.8l-0.3-1.1c0.2-0.1,0.4-0.1,0.6-0.2v-6h1v5.7c0.3-0.1,0.6-0.2,0.9-0.3v-6.9h-2.4
	v-1L195.9,87.9L195.9,87.9z M198.1,94.2c0.6-1,0.9-2.4,1-4.2H197c0,0.1-0.1,0.2-0.1,0.3v0C197.2,92.1,197.6,93.4,198.1,94.2z"/>
<path class="st0" d="M205.3,88h2v1h-1.1l0.5,0.2c-0.2,0.7-0.4,1.2-0.6,1.7h1.2v0.9h-2.1v0.9h2v0.9h-1.9c0.8,0.6,1.4,1.2,1.9,1.7
	l-0.7,0.7c-0.4-0.4-0.8-0.9-1.4-1.4v3.4h-1v-3.2c-0.5,0.9-1.1,1.6-1.7,2.2l-0.6-1c0.9-0.7,1.7-1.6,2.2-2.6h-1.9v-0.9h2.1v-0.9H202
	v-0.9h1.3c-0.1-0.5-0.3-1-0.5-1.6l0.6-0.2h-1.3v-1h2c-0.2-0.3-0.3-0.5-0.5-0.7l1-0.1C204.9,87.4,205.1,87.7,205.3,88L205.3,88z
	 M205.2,90.9c0.2-0.5,0.4-1.1,0.6-1.9h-2.1c0.2,0.5,0.4,1.2,0.6,1.9H205.2z M212.4,88.6c-1.1,0.3-2.2,0.5-3.5,0.5v1.9h3.5v1h-1.2
	v6.1h-1v-6.1h-1.3v1c0,0.9-0.2,1.8-0.4,2.7c-0.2,0.8-0.6,1.6-1.1,2.3l-0.8-0.8c0.4-0.6,0.7-1.2,0.8-1.8c0.2-0.7,0.3-1.5,0.3-2.3
	v-4.9c1.6,0,2.9-0.2,3.9-0.7L212.4,88.6L212.4,88.6z"/>
<path class="st0" d="M222.4,87.6v6.6c0,1.4,0.1,2.2,0.2,2.3c0.1,0.2,0.1,0.3,0.2,0.3c0.1,0,0.2-0.4,0.4-1.4l0.8,0.5
	c-0.1,1-0.3,1.6-0.5,1.9c-0.2,0.2-0.3,0.3-0.5,0.3c-0.4,0-0.7-0.1-0.9-0.4c-0.4-0.5-0.6-1.6-0.6-3.5v-5.5h-6.2v4
	c0,0.9-0.1,1.8-0.2,2.8c-0.2,1-0.4,2-0.8,2.9l-0.9-0.8c0.3-0.8,0.6-1.6,0.7-2.4c0.1-0.9,0.1-1.7,0.1-2.4v-5L222.4,87.6L222.4,87.6z
	 M221.1,89.3v1h-2.3v1h2v3.7h-2v1.5c0.4,0,0.8-0.1,1.2-0.2c-0.1-0.3-0.3-0.5-0.4-0.7l0.9-0.3c0.4,0.7,0.8,1.4,1.1,2.2l-0.8,0.4
	c-0.1-0.2-0.2-0.5-0.3-0.7c-1.1,0.2-2.8,0.4-4.9,0.6l-0.3-1.1c1,0,1.8,0,2.6-0.1v-1.6h-2v-3.7h2v-1h-2.2v-1L221.1,89.3L221.1,89.3z
	 M217.8,92.2h-1V94h1V92.2z M219.9,92.2h-1.1V94h1.1V92.2z"/>
<path class="st0" d="M234.3,87.5v3.5h-3.9c0.1,0.2,0.1,0.3,0.2,0.5h4.6v0.9h-10.3v-0.9h4.6c-0.1-0.2-0.2-0.3-0.3-0.5h-3.4v-3.5
	H234.3L234.3,87.5z M228.1,96.1c-0.5,0.5-0.9,0.8-1.2,1c-0.4,0.2-0.9,0.5-1.5,0.8l-0.5-1c0.6-0.2,1.2-0.4,1.6-0.7
	c0.4-0.2,0.8-0.5,1.1-0.9L228.1,96.1L228.1,96.1z M234.2,92.8v2.3h-3.5V97c0,0.4-0.1,0.7-0.3,0.8c-0.2,0.2-0.5,0.3-0.9,0.3h-1.2
	L228,97c0.5,0.1,0.8,0.1,1.2,0.1s0.4-0.1,0.4-0.3v-1.6h-3.7v-2.3H234.2z M233.2,88.9v-0.6h-6.5v0.6H233.2z M233.2,89.6h-6.5v0.6h6.5
	V89.6z M233.2,93.7h-6.4v0.6h6.4V93.7z M235.1,96.9l-0.4,1c-0.9-0.8-1.9-1.3-2.9-1.7l0.4-0.9C233.2,95.7,234.1,96.2,235.1,96.9
	L235.1,96.9z"/>
<path class="st0" d="M241.7,94c-0.2,0.2-0.5,0.5-0.9,0.8l-0.4-0.6c0.5-0.3,0.8-0.6,0.9-1.1h-0.7v-1.4h1.4v1.2
	C242.1,93.3,242,93.7,241.7,94z"/>
<path class="st0" d="M258,91.6v0.9h-5.2v5.8h-1v-1.2c-1.2,0.1-2.5,0.3-4.1,0.5l-0.2-1c0.3,0,0.6,0,1-0.1v-3.9h-1v-0.9L258,91.6
	L258,91.6z M256.9,87.5v3.7h-8.2v-3.7H256.9z M251.8,93.3v-0.7h-2.3v0.7H251.8z M251.8,94.8v-0.7h-2.3v0.7H251.8z M251.8,96.2v-0.6
	h-2.3v0.8C250.3,96.4,251,96.3,251.8,96.2z M255.8,88.9v-0.6h-5.9v0.6H255.8z M255.8,89.6h-5.9v0.7h5.9V89.6z M257.6,93.1v0.7
	c-0.2,1.1-0.7,2-1.3,2.7c0.5,0.3,1.1,0.6,1.8,0.8l-0.5,0.8c-0.8-0.3-1.5-0.7-2-1c-0.6,0.4-1.2,0.7-2.1,1l-0.5-0.9
	c0.7-0.2,1.3-0.5,1.8-0.8c-0.5-0.5-0.9-1.1-1.3-1.8l0.8-0.5c0.3,0.7,0.7,1.3,1.2,1.7c0.1-0.1,0.1-0.1,0.2-0.2
	c0.4-0.5,0.7-1.1,0.9-1.8h-3.4v-0.9H257.6L257.6,93.1z"/>
<path class="st0" d="M260.1,88.2v-1h0.9v1h1.6v-1h0.9v1h1v0.8h-1v1.4h-1.3v0.5h1.9l0-0.1c0.3-0.5,0.6-1,0.8-1.6
	c0.2-0.5,0.5-1.2,0.7-2.1l0.8,0.4c-0.2,0.7-0.4,1.4-0.6,1.9h3.4v0.9H268v1.4h1.1v0.9H268v1.5h1.1V95H268v1.7h1.4v0.9h-3.6v0.6h-0.9
	v-6.9c-0.1,0.2-0.3,0.5-0.4,0.7l-0.2-0.8v2.1h-2v0.6h2v0.9h-2v0.2c0,0.1,0,0.2,0,0.3h2.1v0.9H262l0,0c0.9,0.3,1.6,0.7,2.4,1.1
	l-0.5,0.9c-0.7-0.5-1.5-0.9-2.3-1.2c-0.1,0.1-0.1,0.1-0.1,0.1c-0.4,0.5-1.1,0.9-2.1,1.2l-0.5-0.8c0.9-0.2,1.5-0.5,1.9-0.9
	c0.1-0.1,0.2-0.2,0.2-0.4h-2v-0.9h2.3c0-0.1,0-0.2,0-0.3v-0.2h-2.1v-0.9h2.1v-0.6h-2v-2.3h2v-0.5h-1.2v-1.4h-1v-0.8H260.1z
	 M261.3,91.7h-1.1v0.8h1.1V91.7z M261,89.7h1.6v-0.7H261V89.7z M263.3,91.7h-1.1v0.8h1.1V91.7z M267,90.3h-1.2v1.4h1.2V90.3z
	 M267,92.6h-1.2v1.5h1.2V92.6z M267,96.7V95h-1.2v1.7H267z M268.2,89l-0.9,0.2c-0.2-0.6-0.3-1.1-0.6-1.7l0.8-0.3
	C267.8,87.8,268,88.4,268.2,89L268.2,89z"/>
<path class="st0" d="M274,87.9c-0.8,1-1.7,1.9-2.9,2.8l-0.7-1c1.1-0.7,2-1.5,2.8-2.5L274,87.9L274,87.9z M274.1,90.6
	c-0.4,0.8-0.7,1.5-1.1,2v5.5h-1.1v-4.2c-0.3,0.4-0.7,0.7-1.1,1l-0.4-1.4c0.6-0.5,1.1-1,1.5-1.5c0.4-0.4,0.8-1.1,1.2-2L274.1,90.6
	L274.1,90.6z M280.5,92.4v0.9h-1.2V94h1.5v1h-1.5V97c0,0.4-0.1,0.7-0.3,0.9c-0.2,0.2-0.5,0.3-0.9,0.3h-1.3l-0.2-1.1
	c0.5,0.1,1,0.1,1.3,0.1c0.3,0,0.4-0.1,0.4-0.3v-1.9h-4.8v-1h4.8v-0.7h-4.5v-0.9L280.5,92.4L280.5,92.4z M280.2,87.6v4h-6v-4H280.2z
	 M276.5,96.6l-1,0.5c-0.3-0.6-0.6-1.1-1-1.6l1-0.3C276,95.6,276.3,96.1,276.5,96.6L276.5,96.6z M279.2,89.3v-0.8h-3.9v0.8H279.2z
	 M279.2,90.1h-3.9v0.7h3.9V90.1z"/>
<path class="st0" d="M285.1,87.4c-0.1,0.6-0.3,1.2-0.6,1.7h1.6v2.5c0.3-0.6,0.6-1.2,0.8-1.7c0.2-0.7,0.4-1.6,0.6-2.7l1.1,0.2
	c-0.1,0.6-0.2,1.2-0.3,1.7h3.5c0,4.2-0.1,6.7-0.2,7.5c-0.1,0.6-0.3,1-0.6,1.2c-0.3,0.2-0.9,0.4-1.8,0.4c-0.2,0-0.5,0-0.9,0l-0.2-1.2
	c0.3,0.1,0.7,0.1,1,0.1c0.7,0,1.1-0.2,1.2-0.8c0.1-0.6,0.2-2.7,0.2-6.1h-2.7c0,0.1-0.1,0.2-0.1,0.2c-0.2,0.9-0.7,1.8-1.3,2.8
	l-0.5-0.7v4.9h-1v-0.6h-2.1v0.9h-1v-8.5h1.4c0.2-0.6,0.4-1.2,0.5-1.9L285.1,87.4L285.1,87.4z M285.2,92.4v-2.3h-2.1v2.3H285.2z
	 M285.2,95.7v-2.4h-2.1v2.4H285.2z M290,94.6l-1.1,0.7c-0.3-0.9-0.8-1.9-1.3-3l0.9-0.6C289.1,92.8,289.6,93.8,290,94.6L290,94.6z"/>
<path class="st0" d="M303.5,92.5v1h-4.5v1.1h3.9v1h-3.9v1.2c0.6,0.1,1.2,0.1,2,0.1c1.1,0,1.9,0,2.7-0.1l-0.3,1.2
	c-3.5,0-5.5-0.1-6.2-0.4c-0.7-0.2-1.2-0.7-1.7-1.4c-0.3,0.7-0.9,1.3-1.6,2.1l-0.8-1c0.6-0.5,1.1-1.1,1.4-1.6
	c0.3-0.5,0.5-1.1,0.7-1.9l1.1,0.2c-0.1,0.5-0.3,1-0.4,1.3c0.5,0.7,1,1.2,1.7,1.4c0.1,0.1,0.3,0.1,0.4,0.1v-3.2h-4.9v-1H303.5z
	 M302.5,87.5v4.3h-8.1v-4.3H302.5z M301.4,89.2v-0.8h-5.9v0.8H301.4z M301.4,90h-5.9v0.8h5.9V90z"/>
<path class="st0" d="M310.1,94c-0.2,0.2-0.5,0.5-0.9,0.8l-0.4-0.6c0.5-0.3,0.8-0.6,0.9-1.1h-0.7v-1.4h1.4v1.2
	C310.5,93.3,310.4,93.7,310.1,94z"/>
<path class="st0" d="M61.2,120.6v-2.2h1.1v2.2h1.5v1h-1.5v2.3c0.5-0.2,1-0.4,1.5-0.6v1.1c-0.5,0.2-1,0.4-1.5,0.6v3.1
	c0,0.4-0.1,0.8-0.3,0.9c-0.2,0.2-0.5,0.3-1,0.3H60l-0.2-1.2c0.4,0.1,0.7,0.1,1,0.1c0.3,0,0.4-0.1,0.4-0.3v-2.5
	c-0.5,0.2-1,0.3-1.6,0.4l-0.1-1.2c0.5,0,1.1-0.2,1.7-0.3v-2.7h-1.6v-1L61.2,120.6L61.2,120.6z M69.7,122l-3.4,0.5
	c0.1,0.9,0.2,1.8,0.4,2.4c0.6-0.6,1.2-1.3,1.8-2.1l0.9,0.6c-0.8,1.1-1.6,2-2.3,2.6c0.6,1.3,1,2,1.2,2c0.2,0,0.4-0.6,0.7-1.9l0.9,0.7
	c-0.3,1.2-0.6,2-0.9,2.2c-0.2,0.2-0.4,0.3-0.6,0.3c-0.5,0-0.9-0.3-1.4-0.9c-0.4-0.5-0.7-1-0.9-1.7c-0.7,0.5-1.5,1-2.4,1.5l-0.6-1
	c0.9-0.4,1.8-0.9,2.6-1.5c-0.1-0.2-0.1-0.4-0.2-0.7c-0.2-0.7-0.3-1.5-0.4-2.4l-1.4,0.2l-0.1-1.1l1.5-0.2c-0.1-1-0.1-2-0.1-3.2h1.1
	c0,1.1,0,2.1,0.1,3l3.3-0.5L69.7,122L69.7,122z M69,120l-1,0.8c-0.3-0.4-0.7-0.9-1.2-1.4l0.8-0.6C68.2,119.3,68.7,119.7,69,120
	L69,120z"/>
<path class="st0" d="M76.9,118.7v1H74l-1,2.4c0.9,0,1.7-0.1,2.5-0.2c-0.2-0.4-0.3-0.8-0.5-1.2l0.8-0.5c0.5,1.1,1,2,1.3,2.8l-1,0.7
	c-0.1-0.2-0.2-0.5-0.3-0.8c-0.4,0.1-0.9,0.1-1.4,0.2v1.6h2.1v1h-2.1v1.8c0.9-0.1,1.7-0.2,2.5-0.4v1c-1.6,0.3-3.6,0.6-5.8,0.9
	l-0.3-1.2c0.8-0.1,1.7-0.1,2.5-0.2v-1.9h-2.1v-1h2.1v-1.5c-0.6,0.1-1.3,0.1-2.1,0.1l-0.2-1.2c0.2,0,0.5,0,0.7,0l1-2.4h-1.8v-1
	L76.9,118.7L76.9,118.7z M78.6,119.2v7.6h-1.1v-7.6H78.6z M80.8,118.4v9.6c0,0.5-0.1,0.8-0.3,1c-0.2,0.2-0.5,0.3-0.9,0.3H78
	l-0.3-1.3c0.6,0.1,1.1,0.1,1.5,0.1c0.3,0,0.4-0.1,0.4-0.3v-9.4H80.8L80.8,118.4z"/>
<path class="st0" d="M92.4,122.9v1.1h-9.9v-1.1H92.4z"/>
<path class="st0" d="M98.6,118.7v2.1h0.5v0.9h-0.5v2.1H96c0,0.1-0.1,0.2-0.1,0.3c-0.1,0.2-0.2,0.5-0.2,0.7h2.9v4.5h-1v-0.6h-1.7v0.7
	h-1v-3.3c-0.2,0.3-0.5,0.6-0.8,0.9l-0.7-0.9c0.7-0.7,1.2-1.4,1.5-2.2c0,0,0-0.1,0-0.1h-1.1v-0.9h1.3c0.1-0.4,0.1-0.7,0.2-1.2h-1.6
	v-0.9h1.7c0-0.4,0-0.7,0.1-1.1h-1.3v-0.9H98.6L98.6,118.7z M97.6,127.7v-1.9h-1.7v1.9H97.6z M96.2,122.9h1.4v-1.2h-1.2
	C96.3,122.1,96.3,122.5,96.2,122.9z M96.4,120.8h1.2v-1.1h-1.1C96.5,120.1,96.4,120.4,96.4,120.8L96.4,120.8z M103.9,120.9v1h-1.8
	v1.5h1.7v1h-1.7v1.5h2v1h-2v2.6h-1v-2.6h-2v-1h2v-1.5h-1.7v-1h1.7v-1.5h-1.8v-1H103.9z M101.2,120.3l-0.9,0.4
	c-0.3-0.7-0.5-1.3-0.9-1.9l1-0.3C100.6,119,100.9,119.6,101.2,120.3z M103.7,118.7c-0.2,0.7-0.5,1.4-0.9,2l-1-0.4
	c0.3-0.5,0.6-1.1,0.9-1.8L103.7,118.7L103.7,118.7z"/>
<path class="st0" d="M109.6,129.4h-1v-0.8h-2.2v0.8h-1v-5.5h4.1V129.4z M108.6,127.7v-2.9h-2.2v2.9H108.6z M114,118.9v4h-7.3v-4H114
	z M112.9,119.9h-5.2v1.9h5.2V119.9z M115,129.4h-1v-0.8h-2.4v0.8h-1v-5.5h4.4L115,129.4L115,129.4z M114.1,127.7v-2.9h-2.4v2.9
	H114.1z"/>
<path class="st0" d="M120,127h-2.1v1.3h-1v-9.1h3.1V127z M119,125.9v-5.8h-1.2v5.8H119z M123,120v-1.6h1.1v1.6h2.4v1h-2.4v1.6h2.7v1
	h-2.1c0.2,0.7,0.5,1.2,0.8,1.8c0.3,0.6,0.8,1.2,1.4,1.9l-0.8,1c-0.6-0.8-1.1-1.6-1.5-2.4c-0.2-0.4-0.4-0.9-0.6-1.5v4.9H123v-4.8
	c-0.7,1.5-1.5,2.8-2.4,3.8l-0.7-1c1.1-1,2-2.2,2.6-3.7h-2.2v-1h2.7V121h-2.2v-1H123L123,120z"/>
<path class="st0" d="M129.9,120.6v-2.2h1v2.2h1.7v1h-1.7v0.5c0.6,0.7,1.2,1.4,1.9,2.2l-0.7,1c-0.5-0.8-0.9-1.4-1.2-1.9v5.9h-1v-5.8
	c0,0,0,0.1,0,0.1c-0.4,1.1-0.9,2-1.5,2.7l-0.5-1.4c0.8-1,1.5-2.2,2-3.6h-1.9v-1L129.9,120.6L129.9,120.6z M137.9,129.4h-1v-0.8h-3
	v0.8h-1v-10.6h5L137.9,129.4L137.9,129.4z M136.9,121.7v-1.8h-3v1.8H136.9z M136.9,124.6v-1.9h-3v1.9H136.9z M136.9,127.6v-2h-3v2
	H136.9z"/>
<path class="st0" d="M142.3,121.3v0.8c-0.4,0.7-0.9,1.3-1.5,2.1h1.4v0.7c-0.2,0.9-0.4,1.5-0.6,1.9c0.4,0.5,0.8,0.8,1.1,0.9
	c0.2,0.1,0.6,0.2,1.1,0.3c0.6,0.1,1.6,0.1,3.2,0.1c1.2,0,2,0,2.6-0.1l-0.1,1.1c-3.1,0-5-0.1-5.7-0.1c-0.6-0.1-1.1-0.2-1.5-0.4
	c-0.3-0.2-0.7-0.5-1.1-1c-0.3,0.6-0.8,1.1-1.3,1.8l-0.8-0.8c0.6-0.6,1.1-1.2,1.4-1.7c0.2-0.3,0.4-0.9,0.7-1.8h-1.7v-0.9
	c0.5-0.5,1-1.2,1.5-2h-1.8v-0.9L142.3,121.3L142.3,121.3z M142.1,120.1l-0.8,0.9c-0.4-0.5-0.9-1.1-1.5-1.8l0.8-0.8
	C141.2,118.9,141.7,119.5,142.1,120.1L142.1,120.1z M149.1,119.4c-1.4,0.3-2.9,0.5-4.6,0.6v1.6h5v1h-2v5h-1.1v-5h-2v0.1
	c0,0.8-0.1,1.6-0.3,2.5c-0.2,0.7-0.5,1.4-0.8,2.1l-0.8-0.9c0.3-0.5,0.5-1.1,0.6-1.6c0.1-0.6,0.2-1.3,0.2-2.1V119
	c2,0,3.7-0.2,5.1-0.7L149.1,119.4z"/>
<path class="st0" d="M154,118.6c-0.1,0.6-0.3,1.2-0.6,1.7h1.6v2.5c0.3-0.6,0.6-1.1,0.8-1.7c0.2-0.7,0.4-1.6,0.6-2.7l1.1,0.2
	c-0.1,0.7-0.2,1.2-0.3,1.7h3.5c0,4.2-0.1,6.7-0.2,7.5c-0.1,0.6-0.3,1-0.6,1.2c-0.3,0.2-0.9,0.4-1.8,0.4c-0.2,0-0.5,0-0.9-0.1
	l-0.2-1.2c0.3,0.1,0.7,0.1,1,0.1c0.7,0,1.1-0.2,1.2-0.7c0.1-0.6,0.2-2.7,0.2-6.1H157c0,0.1-0.1,0.2-0.1,0.2
	c-0.2,0.9-0.7,1.8-1.3,2.8l-0.5-0.7v4.9h-1v-0.6H152v0.9h-1v-8.5h1.4c0.2-0.6,0.4-1.2,0.6-1.9L154,118.6L154,118.6z M154.1,123.6
	v-2.3H152v2.3H154.1z M154.1,126.9v-2.4H152v2.4H154.1z M158.9,125.8l-1.1,0.7c-0.3-0.9-0.8-1.9-1.3-3l0.9-0.6
	C158,124,158.5,125,158.9,125.8L158.9,125.8z"/>
<path class="st0" d="M167.8,118.3v2.8c0.4,1.8,1,3.2,1.7,4.3c0.6,0.9,1.6,1.9,3,2.9l-0.8,1.1c-1.1-0.8-2-1.5-2.6-2.3
	c-0.8-0.9-1.4-2-1.8-3.4c-0.4,1.4-0.9,2.5-1.5,3.2c-0.7,0.8-1.7,1.7-3.1,2.5l-0.7-1.1c1.7-1.1,2.9-2.3,3.6-3.6c0.7-1.2,1-2.4,1-3.6
	v-2.9L167.8,118.3L167.8,118.3z"/>
<path class="st0" d="M179,125.2c-0.2,0.2-0.5,0.5-0.9,0.8l-0.4-0.6c0.5-0.3,0.8-0.6,0.9-1.1H178v-1.4h1.4v1.2
	C179.4,124.5,179.3,124.9,179,125.2z"/>
<path class="st0" d="M195,122.9v1.1h-9.9v-1.1H195z"/>
<path class="st0" d="M198.7,119.8v-1.4h1v1.4h1.7v1h-1.7v1.3h1.7v1h-1.7v1.4h1.7v1h-1.7v2c0.2,0.1,0.4,0.1,0.6,0.2
	c0.6,0.1,1.8,0.2,3.6,0.2c1.3,0,2.3,0,2.9-0.1l-0.1,1.1c-3.4,0-5.5-0.1-6.3-0.2c-0.7-0.1-1.2-0.3-1.6-0.6c-0.3-0.2-0.7-0.6-1.1-1.2
	c-0.2,0.8-0.4,1.5-0.6,2.2l-0.8-0.7c0.2-0.9,0.4-1.6,0.6-2.3c0.1-0.6,0.2-1.4,0.2-2.3l1,0.1c-0.1,0.7-0.1,1.3-0.1,1.8
	c0.3,0.5,0.6,0.9,0.8,1.2v-3.8h-2.3v-1h2.3v-1.3h-2v-1H198.7z M206.1,123.2h-3.3v2.3c0,0.2,0.1,0.4,0.4,0.4h1.8
	c0.1,0,0.2-0.1,0.3-0.2c0.1-0.1,0.1-0.7,0.1-1.7l1,0.3c-0.1,1.2-0.2,2-0.4,2.2c-0.2,0.2-0.5,0.3-0.9,0.3h-2.4
	c-0.3,0-0.6-0.1-0.8-0.3c-0.2-0.2-0.3-0.4-0.3-0.8V119h4.3L206.1,123.2L206.1,123.2z M202.8,122.2h2.3V120h-2.3V122.2z"/>
<path class="st0" d="M212.8,119.7c-1,0.3-2.1,0.5-3.3,0.5v1.8h3.1v0.4c0.6-1.1,1-2.4,1.2-4l1,0.1c-0.1,0.6-0.2,1.2-0.3,1.6h3.4
	c-0.2,1.3-0.4,2.6-0.8,3.8l-1.1-0.3c0.3-0.6,0.5-1.4,0.7-2.4h-2.4c-0.2,0.8-0.6,1.5-0.9,2l-0.8-0.6v0.3h-0.8v6.3h-1.1v-6.3h-1.2v0.9
	c0,0.9-0.1,1.9-0.3,2.9c-0.2,0.9-0.4,1.7-0.8,2.5l-0.9-0.9c0.3-0.7,0.5-1.3,0.6-2c0.1-0.7,0.2-1.6,0.2-2.5v-4.6
	c1.5,0,2.8-0.2,3.8-0.7L212.8,119.7L212.8,119.7z M215.5,122.1v0.7c0,0.4,0,0.8-0.1,1.2c0.2,1.1,0.6,2,1,2.6
	c0.4,0.7,0.9,1.3,1.6,1.8l-0.6,1c-0.8-0.6-1.4-1.3-1.8-2c-0.2-0.4-0.4-0.8-0.6-1.3c-0.1,0.1-0.1,0.3-0.1,0.4c-0.4,1-1,1.9-2.1,2.9
	l-0.9-0.9c0.9-0.8,1.6-1.6,1.9-2.5c0.3-0.7,0.5-1.8,0.5-3.2v-0.7H215.5L215.5,122.1z"/>
<path class="st0" d="M223.3,128.6c-0.6,0.2-1.2,0.3-1.6,0.4c-0.6,0.1-1.2,0.2-2.1,0.3l-0.5-1c0.8-0.1,1.6-0.1,2.2-0.2
	c0.6-0.1,1.1-0.2,1.5-0.3L223.3,128.6L223.3,128.6z M222.3,119.6h1.4v-1.3h1.1v1.3h1.4c0.3-0.3,0.5-0.7,0.6-1l1.2,0.1
	c-0.2,0.3-0.4,0.6-0.6,0.9h2v2.3h-1.1v-1.5h-8v1.5h-1.1v-2.3h2c-0.2-0.3-0.4-0.6-0.6-0.9l1.1-0.1
	C221.9,118.9,222.1,119.2,222.3,119.6z M228.3,123.4v4.3h-8.1v-4.3H228.3z M227.6,120.9v2h-6.8v-2H227.6z M227.2,124.6v-0.5h-6.1
	v0.5H227.2z M227.2,125.8v-0.5h-6.1v0.5H227.2z M227.2,126.4h-6.1v0.6h6.1V126.4z M226.7,121.7h-4.8v0.6h4.8V121.7z M229.4,128.5
	l-0.4,1c-1.2-0.3-2.4-0.6-3.8-0.7l0.4-0.8C226.8,128,228.1,128.2,229.4,128.5z"/>
<path class="st0" d="M233.4,121.2v0.8c-0.4,0.7-0.9,1.4-1.4,2.1h1.4v0.7c-0.2,0.7-0.3,1.3-0.5,1.8c0.4,0.5,0.8,0.8,1.1,1
	c0.2,0.2,0.6,0.3,1.1,0.3c0.6,0.1,1.6,0.1,3.2,0.2c1.2,0,2.1,0,2.7-0.1l-0.1,1.1c-3.1,0-5.1,0-5.7-0.1c-0.6-0.1-1.1-0.2-1.5-0.4
	c-0.3-0.2-0.7-0.5-1.1-1c-0.3,0.6-0.8,1.2-1.3,1.8l-0.8-0.8c0.6-0.6,1-1.2,1.2-1.6c0.2-0.3,0.4-0.8,0.7-1.7h-1.6v-0.9
	c0.5-0.5,1-1.2,1.5-2h-1.7v-1L233.4,121.2L233.4,121.2z M233.1,120.1l-0.8,0.8c-0.3-0.5-0.7-1.1-1.2-1.7l0.7-0.7
	C232.4,119.1,232.8,119.6,233.1,120.1L233.1,120.1z M237.6,119.5h3.1v1h-7.1v-1h2.9c-0.1-0.3-0.3-0.6-0.4-0.9l1.1-0.1
	C237.3,118.7,237.5,119.1,237.6,119.5L237.6,119.5z M240.2,121.1v0.9h-5.9v-0.9H240.2z M240.2,122.7v0.9h-5.9v-0.9H240.2z
	 M240.2,124.3v2.9h-5.8v-2.9H240.2z M239.1,125.3h-3.7v1h3.7V125.3z"/>
<path class="st0" d="M244.8,121.3v0.8c-0.4,0.6-0.8,1.3-1.4,2h1.4v0.7c-0.2,0.7-0.3,1.3-0.5,1.7c0.5,0.6,1.1,0.9,1.8,1.1
	c0.7,0.2,1.8,0.3,3.6,0.3c1.1,0,2,0,2.7-0.1l-0.3,1.2c-3.6,0-5.7-0.1-6.4-0.3c-0.7-0.2-1.3-0.6-1.8-1.2c-0.3,0.6-0.8,1.2-1.3,1.9
	l-0.8-0.9c0.6-0.6,1-1.2,1.2-1.6c0.2-0.3,0.4-0.8,0.7-1.7h-1.6v-0.9c0.5-0.5,0.9-1.1,1.5-1.9h-1.6v-1L244.8,121.3L244.8,121.3z
	 M244.4,120.2l-0.7,0.8c-0.3-0.6-0.7-1.1-1.3-1.8l0.7-0.7C243.6,119,244,119.6,244.4,120.2L244.4,120.2z M247.8,119.6h1.5
	c0.3-0.4,0.5-0.8,0.7-1.3l1,0.3c-0.2,0.3-0.4,0.7-0.6,0.9h1.8v1H249c-0.1,0.3-0.2,0.6-0.3,0.8h2.9v5.8h-6v-5.8h2
	c0.1-0.3,0.3-0.5,0.4-0.8h-2.8v-1h1.7c-0.2-0.3-0.4-0.6-0.7-0.9l0.9-0.3C247.2,118.8,247.5,119.2,247.8,119.6L247.8,119.6z
	 M250.6,123.1v-0.7h-4.1v0.7H250.6z M250.6,124.7v-0.8h-4.1v0.8H250.6z M250.6,125.5h-4.1v0.8h4.1V125.5z"/>
<path class="st0" d="M262.3,118.8v6.6c0,1.4,0.1,2.2,0.2,2.3c0.1,0.2,0.1,0.3,0.2,0.3c0.1,0,0.2-0.4,0.4-1.4l0.8,0.5
	c-0.1,1-0.3,1.6-0.5,1.9c-0.2,0.2-0.3,0.3-0.6,0.3c-0.4,0-0.6-0.1-0.9-0.4c-0.4-0.5-0.6-1.6-0.6-3.5v-5.5h-6.2v4
	c0,0.9-0.1,1.8-0.2,2.8c-0.2,1-0.4,2-0.8,3l-0.9-0.8c0.3-0.8,0.6-1.6,0.7-2.4c0.1-0.9,0.2-1.7,0.2-2.4v-5L262.3,118.8L262.3,118.8z
	 M261,120.5v1h-2.3v1h2v3.7h-2v1.5c0.4-0.1,0.8-0.1,1.2-0.2c-0.1-0.3-0.3-0.5-0.4-0.7l0.9-0.3c0.4,0.7,0.8,1.4,1.1,2.2l-0.8,0.4
	c-0.1-0.2-0.2-0.5-0.3-0.7c-1.1,0.2-2.8,0.4-4.9,0.6l-0.3-1.1c1,0,1.8,0,2.6-0.1v-1.6h-2v-3.7h2v-1h-2.2v-1L261,120.5L261,120.5z
	 M257.7,123.4h-1v1.8h1V123.4z M259.8,123.4h-1.1v1.8h1.1V123.4z"/>
<path class="st0" d="M274.2,118.7v3.5h-3.9c0.1,0.2,0.1,0.4,0.2,0.5h4.6v0.9h-10.3v-0.9h4.6c-0.1-0.2-0.2-0.3-0.3-0.5h-3.5v-3.5
	H274.2L274.2,118.7z M268,127.3c-0.5,0.5-0.9,0.8-1.2,1c-0.4,0.2-0.9,0.5-1.6,0.8l-0.5-1c0.6-0.2,1.2-0.4,1.6-0.7
	c0.4-0.2,0.8-0.5,1.1-0.9L268,127.3L268,127.3z M274.1,124v2.3h-3.5v1.8c0,0.4-0.1,0.7-0.3,0.8c-0.2,0.2-0.5,0.3-0.9,0.3h-1.2
	l-0.2-1.1c0.5,0.1,0.8,0.1,1.1,0.1s0.4-0.1,0.4-0.3v-1.6h-3.7V124H274.1z M273.1,120.1v-0.6h-6.5v0.6H273.1z M273.1,120.8h-6.5v0.6
	h6.5V120.8z M273.1,124.9h-6.4v0.6h6.4V124.9z M275,128.1l-0.4,1c-0.9-0.8-1.9-1.3-2.9-1.7l0.4-0.9C273.1,126.9,274,127.4,275,128.1
	L275,128.1z"/>
<path class="st0" d="M281.6,125.2c-0.2,0.2-0.5,0.5-0.9,0.8l-0.4-0.6c0.5-0.3,0.8-0.6,0.9-1.1h-0.7v-1.4h1.4v1.2
	C282,124.5,281.9,124.9,281.6,125.2z"/>
<path class="st0" d="M288.6,121c0,1.2-0.2,2.4-0.4,3.5l-0.9-0.2c0.3-1.1,0.4-2.2,0.4-3.3L288.6,121z M290,118.5v2.2l0.7-0.2
	c0.2,0.4,0.3,0.9,0.4,1.3v-3.1h6.2v4.3h-2.4v1.1h2.6v1h-2.6v1h2.5v0.9h-2.5v1h3v0.9h-7.4v-0.9h3.3v-1h-2.4v-0.9h2.4v-1h-2.1
	c-0.2,0.3-0.4,0.7-0.8,1.1l-0.8-0.8c0.4-0.4,0.6-0.8,0.9-1.1c0.2-0.4,0.3-0.8,0.5-1.3H291v-0.2l-0.6,0.2c-0.1-0.7-0.3-1.4-0.5-2.1
	v8.3h-1v-10.8H290L290,118.5z M293.8,123.1h-2l0.7,0.3c-0.1,0.3-0.2,0.6-0.3,0.8h1.6L293.8,123.1L293.8,123.1z M296.3,120.5v-0.8
	h-4.2v0.8H296.3z M296.3,121.3h-4.2v0.9h4.2V121.3z"/>
<path class="st0" d="M300,121c0,1.2-0.2,2.4-0.4,3.5l-0.9-0.2c0.3-1.1,0.4-2.2,0.4-3.3L300,121z M301.3,118.5v2.2l0.7-0.2
	c0.2,0.4,0.3,0.9,0.4,1.3v-3.1h6.2v4.3h-2.4v1.1h2.6v1h-2.6v1h2.5v0.9h-2.5v1h3v0.9h-7.4v-0.9h3.3v-1h-2.4v-0.9h2.4v-1h-2.1
	c-0.2,0.3-0.4,0.7-0.8,1.1l-0.8-0.8c0.4-0.4,0.6-0.8,0.9-1.1c0.2-0.4,0.4-0.8,0.5-1.3h-0.5v-0.2l-0.6,0.2c-0.1-0.7-0.3-1.4-0.5-2.1
	v8.3h-1v-10.8H301.3L301.3,118.5z M305.2,123.1h-2l0.7,0.3c-0.1,0.3-0.2,0.6-0.3,0.8h1.6L305.2,123.1L305.2,123.1z M307.7,120.5
	v-0.8h-4.2v0.8H307.7z M307.7,121.3h-4.2v0.9h4.2V121.3z"/>
<path class="st0" d="M312.3,120.6v-2.2h1v2.2h1.7v1h-1.7v0.5c0.6,0.7,1.2,1.4,1.9,2.2l-0.7,1c-0.5-0.8-0.9-1.4-1.2-1.9v5.9h-1v-5.8
	c0,0,0,0.1,0,0.1c-0.4,1.1-0.9,2-1.5,2.7l-0.5-1.4c0.8-1,1.5-2.2,2-3.6h-1.9v-1L312.3,120.6L312.3,120.6z M320.3,129.4h-1v-0.8h-3
	v0.8h-1v-10.6h5L320.3,129.4L320.3,129.4z M319.3,121.7v-1.8h-3v1.8H319.3z M319.3,124.6v-1.9h-3v1.9H319.3z M319.3,127.6v-2h-3v2
	H319.3z"/>
<path class="st0" d="M322.8,121c0,1.2-0.2,2.4-0.4,3.5l-0.8-0.2c0.3-1.1,0.4-2.2,0.4-3.3L322.8,121z M324.1,118.5v2.3l0.7-0.2
	c0.2,0.5,0.3,1,0.5,1.5h1.4v-1.3h-1.2v-1h1.2v-1.3h1v1.3h1.8v-1.3h1v1.3h1.4v1h-1.4v1.3h1.6v1h-6.6c0,0.1,0.1,0.2,0.1,0.4l-0.8,0.2
	c-0.2-0.9-0.4-1.8-0.6-2.6v8.2h-1v-10.8H324.1z M331.5,129.4h-1v-0.5h-3.7v0.5h-1v-5.5h5.8L331.5,129.4L331.5,129.4z M330.4,125.9
	v-1.1h-3.7v1.1H330.4z M330.4,127.9v-1h-3.7v1H330.4z M329.5,122.1v-1.3h-1.8v1.3H329.5z"/>
<path class="st0" d="M339.4,125.1c-0.3,0.3-0.7,0.5-1.1,0.5s-0.8-0.2-1.1-0.5c-0.3-0.3-0.5-0.7-0.5-1.1c0-0.5,0.1-0.8,0.5-1.1
	c0.3-0.3,0.7-0.5,1.1-0.5c0.5,0,0.8,0.2,1.1,0.5c0.3,0.3,0.5,0.7,0.5,1.1C339.9,124.4,339.7,124.7,339.4,125.1z M338.8,123.4
	c-0.2-0.2-0.3-0.2-0.6-0.2c-0.2,0-0.4,0.1-0.5,0.2c-0.2,0.2-0.2,0.3-0.2,0.6c0,0.2,0.1,0.4,0.2,0.5c0.1,0.2,0.3,0.2,0.5,0.2
	c0.2,0,0.4-0.1,0.6-0.2c0.1-0.1,0.2-0.3,0.2-0.5C339,123.7,339,123.5,338.8,123.4z"/>
<path class="st1" d="M63.4,1.1h272.5"/>
<path class="st1" d="M63.4,153.4h272.5"/>
</svg>
