<?xml version="1.0" encoding="utf-8"?>
<!-- Generator: Adobe Illustrator 27.0.0, SVG Export Plug-In . SVG Version: 6.00 Build 0)  -->
<svg version="1.1" id="圖層_1" xmlns="http://www.w3.org/2000/svg" xmlns:xlink="http://www.w3.org/1999/xlink" x="0px" y="0px"
	 viewBox="0 0 400 29" style="enable-background:new 0 0 400 29;" xml:space="preserve">
<style type="text/css">
	.st0{fill:#40220F;}
</style>
<path class="st0" d="M91.7,9.5l2.5,1.9C94,11.8,93.7,12,92.9,12H78.3v0c-0.2,0-0.4,0.1-0.7,0.1h-3.5v3c3.2,1.4,4.2,3.2,4.2,4.4
	c0,0.9-0.5,1.5-1.1,1.5c-0.3,0-0.6-0.2-0.9-0.5c-0.2-1.5-1.2-3.5-2.2-4.8v12.3c0,0.1-0.3,0.8-2.2,0.8V17.8c-1,2.3-2.3,4.4-3.9,6.3
	l-0.4-0.4c1.8-3.2,3-7.5,3.7-11.6h-3.5l-0.2-0.7h4.2V0.2l3.3,0.3c0,0.4-0.3,0.6-1.1,0.7v10.1h1.1l1.3-1.8l2.3,1.8h5.9v-3h-5
	l-0.2-0.7h5.2V4.7h-5.8L78.8,4h5.9V0.2l3.5,0.3c-0.1,0.5-0.3,0.7-1.3,0.8V4h2.9l1.3-1.9l2.5,2c-0.2,0.5-0.6,0.6-1.3,0.6h-5.4v2.9
	h2.1l1.2-1.8l2.4,1.9c-0.2,0.4-0.6,0.6-1.3,0.6h-4.4v3h3.5L91.7,9.5L91.7,9.5z M68.2,2.4c2,1.9,2.7,3.7,2.7,5c0,1.2-0.6,1.9-1.2,1.9
	c-0.3,0-0.6-0.2-0.8-0.6c0.1-1.9-0.4-4.5-1-6.2L68.2,2.4L68.2,2.4z M79.3,3c-0.1,0.4-0.3,0.6-1,0.6c-0.9,2-2,4.3-3,5.9l-0.5-0.2
	c0.4-1.8,0.9-4.7,1.3-7.2L79.3,3L79.3,3z M89.3,14.5l1-1.4l2.7,2.1c-0.2,0.2-0.6,0.5-1.2,0.6v9.6c0,1.6-0.3,2.8-3,3.1
	c0-1.8-0.7-2.1-2.3-2.4v-0.4h2.7c0.3,0,0.5-0.1,0.5-0.4v-2.9h-7.6v5.3c0,0-0.2,0.9-2.1,0.9V13.4l2.3,1.1H89.3L89.3,14.5z M89.6,15.2
	h-7.7v2.9h7.7V15.2z M81.9,21.8h7.7v-3h-7.7V21.8z"/>
<path class="st0" d="M107.5,15.6l1-1.4l2.7,2.1c-0.2,0.2-0.6,0.5-1.2,0.6v10.3c0,0.1-0.6,0.8-2.2,0.8v-2.1h-5.5v1.8
	c0,0-0.3,0.9-2.2,0.9v-14l2.4,1.1H107.5z M102.3,25.2h5.5v-8.9h-5.5V25.2z M106.8,11.2v1.1c0,0-0.3,0.9-2.2,0.9V0.9l2.4,1.1h9.7
	l1-1.4l2.8,2.1c-0.2,0.2-0.6,0.5-1.2,0.6v9c0,0.1-0.7,0.8-2.3,0.8v-1.8L106.8,11.2L106.8,11.2z M116.9,2.7h-10.1v7.9h10.1V2.7z
	 M122.2,14.2l2.8,2.1c-0.2,0.2-0.6,0.5-1.2,0.6v10.5c0,0.1-0.6,0.7-2.3,0.7v-2.2h-5.9v1.8c0,0-0.3,0.9-2.2,0.9v-14l2.4,1.1h5.5
	L122.2,14.2L122.2,14.2z M115.5,25.2h5.9v-8.9h-5.9V25.2z"/>
<path class="st0" d="M136.9,10.3l2.3,2.1c-0.2,0.3-0.5,0.4-1,0.5c-0.4,3.2-1.1,6.4-2.5,9.2c3.1,2.8,7.5,3.4,13.9,3.4
	c1.5,0,4.9,0,6.7-0.1V26c-0.9,0.2-1.4,1-1.5,2h-5.4c-6.8,0-11.3-0.9-14.3-4.6c-1.2,2-2.9,3.8-5.2,5.2l-0.2-0.5
	c2-1.7,3.4-3.9,4.4-6.2c-1-1.6-1.8-3.6-2.5-6.1l0.4-0.2c0.7,2.1,1.5,3.8,2.5,5.1c0.9-2.6,1.3-5.4,1.5-8.3h-2.7l-0.8,1.7
	c-0.2,0.1-0.4,0.1-0.7,0.1c-0.4,0-0.9-0.1-1.4-0.3c1.5-3.3,3.2-7.7,4.3-10.6h-4.6l-0.2-0.7h4.7l1.1-1.3l2.4,2.2
	c-0.2,0.2-0.7,0.4-1.3,0.5c-0.7,1.9-2,4.9-3.2,7.6h2.2L136.9,10.3z M154.4,5.7l2.2,2c-0.2,0.4-0.5,0.6-1.3,0.6h-2.5v4.6
	c0,0.1-0.6,0.7-2.2,0.7v-1.2H147v3.4h3.4l1.3-1.9l2.5,1.9c-0.2,0.5-0.6,0.6-1.3,0.6H147v3.5h4.5l1.4-2l2.8,2.1
	c-0.2,0.4-0.6,0.6-1.3,0.6H147V24c0,0.1-0.3,0.8-2.2,0.8v-4.2h-6.9l-0.2-0.7h7.1v-3.5h-5.7l-0.2-0.7h5.9v-3.4h-5.1l-0.2-0.7h5.4V8.3
	h-7.4l-0.2-0.7h7.6V4.2h-5.1l-0.2-0.7h5.3V0l3.4,0.3c-0.1,0.4-0.3,0.7-1.2,0.8v2.4h3.5l0.9-1.4l2.7,2.1c-0.2,0.2-0.6,0.5-1.2,0.6
	v2.7h0.4L154.4,5.7L154.4,5.7z M147,4.2v3.3h3.8V4.2H147z M150.7,11.7V8.3H147v3.4H150.7z"/>
<path class="st0" d="M185.1,5.4l2.4,2.1c-0.2,0.5-0.5,0.6-1.3,0.6h-3.2v17.1c0,1.7-0.5,3.1-3.6,3.4c0-1.8-1.2-2-3.6-2.2v-0.5h4.1
	c0.5,0,0.7-0.2,0.7-0.7V12.9c-2.3,4.4-5.6,8.2-9.8,11.1l-0.3-0.5c4.3-3.9,7.6-9.8,9.3-15.4h-6.3l-0.1-0.4c-0.2,0.3-0.6,0.4-1.2,0.4
	h-4v4.1c3.4,1.3,4.5,3.1,4.5,4.3c0,0.9-0.5,1.5-1.2,1.5c-0.3,0-0.6-0.1-0.9-0.5c-0.3-1.5-1.3-3.5-2.4-4.8v15.1
	c0,0.1-0.3,0.9-2.2,0.9V14.6c-1.2,2.7-2.9,5.2-5,7.4l-0.4-0.4c2.5-3.7,4.2-8.6,5.1-13.5h-4.8l-0.2-0.7h5.3V0.2l3.4,0.3
	c-0.1,0.4-0.3,0.7-1.2,0.8v6.2h1.4l1.3-2l2.4,2h7.2V0.2l3.5,0.3c0,0.5-0.2,0.7-1.2,0.9v6.1h0.9L185.1,5.4L185.1,5.4z"/>
<path class="st0" d="M236.5,9.5l2.5,1.9c-0.2,0.5-0.6,0.6-1.3,0.6h-14.6v0c-0.2,0-0.4,0.1-0.7,0.1h-3.5v3c3.2,1.4,4.2,3.2,4.2,4.4
	c0,0.9-0.5,1.5-1.1,1.5c-0.3,0-0.6-0.2-0.9-0.5c-0.2-1.5-1.2-3.5-2.2-4.8v12.3c0,0.1-0.3,0.8-2.2,0.8V17.8c-1,2.3-2.3,4.4-3.9,6.3
	l-0.4-0.4c1.8-3.2,3-7.5,3.7-11.6h-3.4l-0.2-0.7h4.2V0.2l3.3,0.3c0,0.4-0.3,0.6-1.1,0.7v10.1h1.1l1.3-1.8l2.3,1.8h5.9v-3h-5
	l-0.2-0.7h5.1V4.7h-5.8L223.6,4h5.9V0.2l3.5,0.3c-0.1,0.5-0.3,0.7-1.3,0.8V4h2.9l1.3-1.9l2.5,2c-0.2,0.5-0.6,0.6-1.3,0.6h-5.4v2.9
	h2.1l1.2-1.8l2.4,1.9c-0.2,0.4-0.6,0.6-1.3,0.6h-4.4v3h3.5L236.5,9.5L236.5,9.5z M213,2.4c2,1.9,2.7,3.7,2.7,5
	c0,1.2-0.6,1.9-1.2,1.9c-0.3,0-0.6-0.1-0.9-0.6c0.1-1.9-0.4-4.5-1-6.1L213,2.4L213,2.4z M224.1,3c-0.1,0.4-0.3,0.6-1,0.6
	c-0.9,2-2,4.3-3,5.9l-0.5-0.2c0.4-1.8,0.9-4.7,1.3-7.2L224.1,3L224.1,3z M234.2,14.5l1-1.4l2.7,2.1c-0.2,0.2-0.6,0.5-1.2,0.6v9.6
	c0,1.6-0.3,2.8-3,3.1c0-1.8-0.7-2.1-2.3-2.4v-0.4h2.6c0.3,0,0.5-0.1,0.5-0.4v-2.9h-7.7v5.3c0,0-0.2,0.9-2.1,0.9V13.4l2.3,1.1
	L234.2,14.5L234.2,14.5z M234.4,15.2h-7.7v2.9h7.7V15.2z M226.8,21.8h7.7v-3h-7.7V21.8z"/>
<path class="st0" d="M249.8,11c2.4,1.4,3.2,2.9,3.2,4c0,0.9-0.5,1.5-1.1,1.5c-0.3,0-0.6-0.1-0.9-0.5c0-0.6-0.1-1.2-0.3-1.9l-1.7,0.5
	v13.3c0,0.2-0.7,0.7-1.8,0.7H247v-9.9c-0.1,0.1-0.4,0.2-0.7,0.2c-0.5,2.6-1.3,5.3-2.4,7l-0.5-0.2c0.5-2,0.9-5.1,1-8l2.6,0.6v-3.2
	c-0.6,0.1-1.2,0.3-1.9,0.5c-0.1,0.4-0.4,0.6-0.7,0.6l-0.9-2.7c0.5,0,1.3,0,2.3,0c1.4-2.9,3-6.7,4-9.5l3,1.2
	c-0.1,0.3-0.3,0.4-0.8,0.4c-0.1,0-0.2,0-0.4,0c-1.2,2.2-3.1,5.4-5,7.9c1.2-0.1,2.6-0.1,4-0.2c-0.3-0.8-0.7-1.6-1.1-2.2L249.8,11
	L249.8,11z M243.6,5.2c0.7,0.2,1.2,0.5,1.7,0.7c0.5-1.6,1.1-3.8,1.6-5.8l3,1.1c-0.1,0.3-0.4,0.6-1.1,0.5c-0.9,1.6-2,3.4-3,4.7
	c0.8,0.7,1.1,1.4,1.1,2c0,0.7-0.5,1.3-1.1,1.3c-0.3,0-0.6-0.1-0.8-0.4c-0.1-1.3-1-2.9-1.9-3.8L243.6,5.2L243.6,5.2z M250.2,17.7
	c2.1,1.6,2.8,3.2,2.8,4.3c0,1.1-0.6,1.8-1.2,1.8c-0.3,0-0.6-0.2-0.8-0.5c0.1-1.6-0.5-4-1.1-5.4L250.2,17.7z M251.8,9.4
	c0.5,0,1.2-0.1,2.1-0.1c0.4-1.9,0.9-4.4,1.2-6.2h-3l-0.2-0.7h6.7l1.2-1.8l2.4,1.9c-0.2,0.4-0.6,0.6-1.3,0.6h-3.3
	c-0.7,1.8-1.8,4.3-2.7,6.1c1.2-0.1,2.6-0.2,4-0.3c-0.3-1-0.7-1.9-1.1-2.5l0.3-0.2c2.5,1.4,3.3,3,3.3,4.1c0,0.9-0.5,1.6-1.1,1.6
	c-0.3,0-0.6-0.2-0.9-0.5c0-0.6-0.1-1.2-0.3-1.8c-1.4,0.5-3.2,1.1-5.6,1.8c-0.1,0.4-0.4,0.6-0.7,0.6L251.8,9.4L251.8,9.4z
	 M261.9,22.4l0.1,0.5c-1.8,0.9-4.4,2.1-7.9,3.6c-0.1,0.4-0.4,0.6-0.7,0.7l-1.3-3c0.8-0.1,2-0.3,3.5-0.6v-6h-3.1l-0.2-0.7h3.3v-4.7
	l3.3,0.3c-0.1,0.4-0.4,0.6-1.2,0.7v3.6h0.7l1.2-1.7l2.2,1.8c-0.2,0.4-0.5,0.6-1.3,0.6h-2.8v5.6L261.9,22.4L261.9,22.4z M270.4,7
	c-0.2,0.4-0.6,0.6-1.3,0.6h-0.3c-0.4,4.9-1.1,9.2-2.8,12.8c1.1,2.4,2.6,4.5,4.5,6l-0.1,0.3c-1,0.2-1.7,0.8-2,1.9
	c-1.5-1.7-2.6-3.8-3.4-6.2c-1.5,2.4-3.6,4.5-6.5,6.2l-0.2-0.5c2.8-2.2,4.7-4.9,6-8.2c-0.6-2.6-1-5.4-1.2-8.4
	c-0.5,1.4-1.1,2.5-1.8,3.5l-0.5-0.2c1.3-3.3,2.2-9.2,2.4-14.7l3.3,0.6c-0.1,0.4-0.3,0.6-1,0.7c-0.3,1.9-0.6,3.8-1,5.5h2.6l1.2-1.9
	L270.4,7L270.4,7z M264.1,7.6c-0.2,1-0.5,1.8-0.8,2.7c0.3,2.6,0.9,5.1,1.6,7.4c0.9-3,1.3-6.4,1.5-10.1L264.1,7.6L264.1,7.6z"/>
<path class="st0" d="M298.1,24.1l3,2.3c-0.2,0.4-0.5,0.6-1.4,0.6h-25l-0.2-0.7h11.9v-9.1h-8.4l-0.2-0.7h8.6V8.2h-6.2
	c-1.4,2.7-3,4.9-4.8,6.5l-0.4-0.3c2-2.9,3.9-8.2,4.9-13.4l3.6,1.1c-0.1,0.4-0.3,0.6-1.1,0.5c-0.5,1.7-1.2,3.3-1.9,4.8h5.9V0.1
	l3.6,0.4c0,0.5-0.3,0.7-1.2,0.8v6.2h5.9l1.6-2.1l3,2.2c-0.2,0.4-0.6,0.6-1.4,0.6h-9.2v8.3h4.9l1.6-2.1l2.9,2.2
	c-0.2,0.4-0.6,0.6-1.4,0.6h-8v9.1h7.5L298.1,24.1L298.1,24.1z"/>
<path class="st0" d="M305.7,8.5c3.6,0.3,4.8,1.9,4.8,3.1c0,0.8-0.5,1.4-1.2,1.4c-0.3,0-0.6-0.1-0.9-0.4c-0.4-1.4-1.7-3-2.9-3.8
	L305.7,8.5z M307.4,19.9c0.4,0,0.5,0,0.8-0.6c0.3-0.5,0.6-1.1,5.9-13.9l0.5,0.2c-1.3,3.9-3.7,11.2-4.1,12.8
	c-0.2,0.9-0.5,1.9-0.5,2.6v0.1c0,1.4,0.8,2.6,0.8,4.9c0,0.6,0,2.7-1.8,2.7c-0.6,0-1-0.5-1.1-1.6c0.2-1.2,0.3-2.3,0.3-3.2
	c0-2.9-0.6-3.2-2.1-3.3v-0.6C307.1,19.9,307.4,19.9,307.4,19.9L307.4,19.9z M307,0.5c3.8,0.4,5,2.1,5,3.3c0,0.8-0.5,1.5-1.2,1.5
	c-0.3,0-0.6-0.1-0.9-0.4c-0.5-1.5-1.8-3.2-3-4.1L307,0.5L307,0.5z M329.5,8.2l2.8,2.2c-0.2,0.4-0.6,0.6-1.4,0.6h-7.2v6.3h3.4l1-1.4
	l2.8,2.1c-0.2,0.2-0.6,0.5-1.2,0.6v9c0,0.1-0.6,0.8-2.3,0.8v-2h-9.8v1.4c0,0-0.3,0.9-2.2,0.9V16.2l2.4,1.1h3.6V11h-8.1l-0.2-0.7h8.2
	V4c-2.5,0.3-5,0.6-7.4,0.7l-0.1-0.5c4.9-0.9,11-2.7,14.1-4.2l2.5,2.6c-0.1,0.1-0.3,0.2-0.6,0.2c-0.3,0-0.6-0.1-1-0.2
	c-1.4,0.3-3.2,0.7-5.1,1v6.7h4.3L329.5,8.2L329.5,8.2z M327.4,18h-9.8v7.7h9.8V18z"/>
</svg>
