<svg width="173" height="103" viewBox="0 0 173 103" fill="none" xmlns="http://www.w3.org/2000/svg">
<path d="M172.59 0.200195H0.109985V102.85H172.59V0.200195Z" fill="#E8D0A4"/>
<path d="M16.07 32.0195H152.67" stroke="#581804" stroke-width="0.25" stroke-miterlimit="10"/>
<path d="M21.52 12.8404C21.47 12.9804 21.35 13.0604 21.03 13.0304C20.4 13.9504 19.41 15.1004 18.33 16.1004C19.84 16.1004 21.71 16.1004 23.7 16.0704C23.2 15.4204 22.6 14.8304 21.96 14.4104L22.02 14.3104C25.3 14.7604 26.35 16.1904 26.35 17.2204C26.35 17.8504 25.96 18.3204 25.45 18.3204C25.25 18.3204 25.02 18.2604 24.81 18.0904C24.62 17.5804 24.36 17.0504 24.04 16.5504C22.34 16.9604 20.02 17.3704 16.67 17.9204C16.56 18.0704 16.42 18.1604 16.28 18.1904L15.47 16.0704L17.61 16.1104C18.22 14.7704 18.78 13.1304 19.1 11.9404L21.53 12.8504L21.52 12.8404ZM22.89 18.9704L23.59 18.0004L25.39 19.3704C25.29 19.5004 25.13 19.6404 24.83 19.7004V23.6304C24.83 23.6304 24.31 24.0404 23.03 24.0404V23.0304H18.69V23.4904C18.69 23.5404 18.45 24.1704 17 24.1704V18.2304L18.8 18.9704H22.89ZM18.69 22.8204H23.03V19.1704H18.69V22.8204Z" fill="#844E1A"/>
<path d="M30.78 14.33L30.97 14.37C30.67 16.2 30.13 19.53 30.13 20.44V20.58C30.15 21.28 30.63 21.75 30.63 22.85C30.63 23.95 29.93 24.12 29.61 24.12C29.32 24.12 29.01 23.95 28.92 23.44C29.03 22.85 29.07 22.26 29.07 21.76C29.07 20.52 28.86 20.42 28.25 20.35V20.11C28.62 20.11 28.75 20.1 28.75 20.1C28.92 20.11 28.96 20.11 29.08 19.84C29.22 19.49 29.26 19.41 29.9 17.28C29.76 17.5 29.51 17.64 29.26 17.64C29.05 17.64 28.82 17.54 28.64 17.29C28.68 16.62 28.45 15.78 28.1 15.27L28.2 15.21C29.59 15.59 30.04 16.25 30.06 16.77L30.79 14.34L30.78 14.33ZM28.63 12.05C30.18 12.41 30.68 13.09 30.68 13.65C30.68 14.14 30.3 14.52 29.87 14.52C29.66 14.52 29.44 14.42 29.25 14.19C29.19 13.5 28.92 12.64 28.54 12.12L28.64 12.06L28.63 12.05ZM38.44 16.54L38.55 16.49C39.38 16.9 39.66 17.39 39.66 17.76C39.66 18.11 39.42 18.35 39.16 18.35C39.02 18.35 38.87 18.29 38.77 18.12C38.78 17.66 38.64 17.02 38.45 16.61V18.52C38.44 18.57 38.14 18.75 37.66 18.76L38.61 19.44C38.55 19.52 38.43 19.62 38.23 19.66V20.71C38.23 20.71 38.04 20.84 37.8 20.92L39.1 21.92C39.02 22.02 38.89 22.1 38.67 22.13C38.41 23.83 37.85 24.17 36.34 24.17C36.34 23.36 36.16 23.02 34.77 22.76V22.61C35.35 22.65 36.31 22.67 36.54 22.67C36.96 22.67 37.06 22.67 37.21 21.74H32.83C32.77 21.97 32.7 22.2 32.64 22.39C32.46 22.47 32.29 22.52 32.08 22.52C31.84 22.52 31.56 22.46 31.19 22.33C31.45 21.51 31.79 20.32 31.94 19.67L33.45 20.4H36.75V19.34H31.61L31.55 19.13H36.64L37.15 18.41L37.42 18.6V17.14C37.18 17.67 36.86 18.19 36.52 18.51L36.33 18.41C36.48 17.97 36.63 17.26 36.71 16.58L37.42 16.79V16.1L36.98 16.24C36.92 16.41 36.81 16.48 36.69 16.51L36.32 15.67C36.22 15.71 36.09 15.72 35.92 15.72H34.04C34.04 15.82 34.02 15.93 33.97 16L34.99 16.45H35.17L35.52 15.98L36.52 16.71C36.47 16.77 36.35 16.85 36.21 16.89V18.27C36.21 18.27 35.94 18.56 35.26 18.56V17.98H34.84V18.44C34.84 18.52 34.54 18.75 34.07 18.75H33.92V17.7H33.91C33.87 17.96 33.68 18.14 33.48 18.14C33.36 18.14 33.23 18.08 33.13 17.92C33.15 17.55 33.06 17.02 32.9 16.7V18.54C32.9 18.59 32.59 18.78 32.09 18.78H31.92V17.41C31.59 17.92 31.18 18.43 30.81 18.75L30.63 18.63C30.86 18.14 31.11 17.34 31.28 16.57L31.91 16.81V16.08L31.52 16.21C31.46 16.38 31.34 16.45 31.22 16.47L30.83 15.41C31.01 15.41 31.26 15.41 31.56 15.4C31.68 15.21 31.79 14.99 31.9 14.77C31.83 14.81 31.76 14.82 31.69 14.82C31.57 14.82 31.45 14.78 31.34 14.65C31.29 14.27 31.09 13.78 30.85 13.5L30.95 13.41C31.18 13.45 31.35 13.51 31.51 13.58C31.66 13.13 31.83 12.54 31.99 11.99L33.25 12.53C33.19 12.67 33.1 12.75 32.81 12.72C32.5 13.07 32.16 13.46 31.83 13.76C32.06 13.93 32.15 14.12 32.15 14.3C32.35 13.92 32.54 13.54 32.69 13.24L33.51 13.73V13.68H35.25L35.75 12.96L36.27 13.36H36.28C36.54 13.39 36.76 13.44 36.93 13.51C37.07 13.06 37.23 12.5 37.36 11.96L38.67 12.51C38.62 12.65 38.52 12.71 38.24 12.7C37.94 13.03 37.6 13.39 37.28 13.69C37.51 13.86 37.6 14.06 37.6 14.24C37.6 14.29 37.59 14.34 37.58 14.39H37.59C37.79 13.98 37.99 13.58 38.15 13.25L39.4 13.98C39.35 14.07 39.28 14.11 39.16 14.11C39.09 14.11 39.02 14.1 38.92 14.07C38.54 14.44 37.98 14.95 37.47 15.39L38.66 15.35C38.59 15.13 38.49 14.93 38.4 14.77L38.51 14.69C39.39 14.95 39.69 15.37 39.69 15.7C39.69 15.99 39.45 16.22 39.2 16.22C39.07 16.22 38.94 16.16 38.82 16.02C38.81 15.9 38.78 15.78 38.76 15.65L38.44 15.76V16.55V16.54ZM35.54 14.85L36.27 15.39C36.46 15.39 36.73 15.39 37.07 15.38C37.2 15.12 37.37 14.84 37.51 14.56H37.5C37.42 14.66 37.3 14.73 37.15 14.73C37.04 14.73 36.92 14.69 36.81 14.58C36.76 14.35 36.66 14.08 36.51 13.84C36.43 13.87 36.32 13.87 36.19 13.87H33.79L33.92 13.95C33.87 14.03 33.8 14.07 33.68 14.07C33.61 14.07 33.54 14.06 33.44 14.03C33.07 14.43 32.52 14.94 32.01 15.39C32.34 15.39 32.71 15.38 33.08 15.36C33.02 15.14 32.94 14.94 32.84 14.78L32.96 14.7C33.6 14.93 33.91 15.23 34.01 15.49H35.09L35.54 14.86V14.85ZM37.12 21.51L37.54 20.97C37.25 21.05 37.12 21.05 36.74 21.05V20.59H33.12C33.06 20.83 32.98 21.18 32.88 21.51H37.12ZM33.91 17.49V16.04C33.83 16.14 33.7 16.21 33.57 16.21C33.44 16.21 33.3 16.15 33.18 15.99C33.18 15.89 33.17 15.76 33.14 15.64L32.9 15.73V16.6L33.01 16.54C33.63 16.85 33.87 17.21 33.9 17.49H33.91ZM36.48 12.74C36.4 12.88 36.23 12.91 35.96 12.91H33.89L33.83 12.7H35.08L35.56 12.05L36.49 12.74H36.48ZM35.09 14.57L35.54 13.94L36.43 14.61C36.36 14.75 36.19 14.78 35.92 14.78H33.9L33.84 14.58H35.09V14.57ZM35.26 16.62H34.84V17.73H35.26V16.62Z" fill="#844E1A"/>
<path d="M41.99 20.15C42.2 20.83 42.29 21.37 42.29 21.78C42.29 22.68 41.9 23.02 41.56 23.02C41.3 23.02 41.06 22.81 41.06 22.49C41.06 22.32 41.12 22.14 41.25 21.94C41.6 21.63 41.8 21.01 41.82 20.15H41.99ZM50.57 19.06L51.08 18.36L52.45 19.38C52.39 19.47 52.26 19.56 52.07 19.6V22.33C52.07 23.3 51.87 24.02 50.48 24.13C50.48 23 50.29 22.73 49.61 22.62V22.47H50.56C50.66 22.47 50.68 22.41 50.68 22.28V19.27H47.73V23.64C47.73 23.64 47.56 24.16 46.41 24.16V19.03C46.33 19.08 46.22 19.12 46.09 19.15C45.98 22.22 45.8 23.31 45.29 23.75C44.92 24.04 44.6 24.16 43.96 24.17C43.96 23.39 43.86 23.09 43.16 22.88V22.71H44.03C44.18 22.72 44.26 22.71 44.34 22.63C44.49 22.48 44.6 21.99 44.69 21C44.61 20.99 44.51 20.95 44.43 20.87C44.37 20.42 44.04 19.87 43.68 19.59L43.76 19.47C44.22 19.55 44.55 19.7 44.76 19.87L44.8 18.76H42.93V19.03C42.93 19.13 42.53 19.45 41.87 19.45H41.64V12.47L43.08 13.06H44.5L45.13 12.15L46.33 13.08C46.25 13.23 46.07 13.26 45.78 13.26H44.57V14.85H44.58L45.1 14.04L46.11 14.87C46.03 15.02 45.86 15.05 45.57 15.05H44.56V16.65H44.57L45.09 15.84L46.1 16.67C46.02 16.82 45.85 16.85 45.56 16.85H44.55V18.54H44.66L45.21 17.82L46.4 18.79V18.44L47.79 19.04H50.56L50.57 19.06ZM42.51 20.01C43.11 20.61 43.32 21.2 43.32 21.65C43.32 22.15 43.06 22.48 42.78 22.48C42.66 22.48 42.53 22.42 42.43 22.25C42.49 21.99 42.51 21.7 42.51 21.41C42.51 20.92 42.44 20.42 42.33 20.07L42.5 20.02L42.51 20.01ZM43.31 13.26H42.92V14.85H43.31V13.26ZM43.31 16.65V15.05H42.92V16.65H43.31ZM42.92 16.86V18.55H43.31V16.86H42.92ZM43.17 19.74C44.01 20.3 44.29 20.9 44.29 21.35C44.29 21.72 44.09 21.98 43.87 21.98C43.76 21.98 43.64 21.92 43.55 21.79C43.57 21.18 43.32 20.33 43.03 19.82L43.17 19.74ZM52.54 14.57C52.46 14.72 52.28 14.75 51.98 14.75H50.21C50.78 15.29 51.76 15.65 52.63 15.8V15.94C52.15 16.08 51.86 16.52 51.73 17.22C51.52 17.09 51.31 16.94 51.13 16.76V18.07C51.13 18.07 50.77 18.42 49.81 18.42V17.92H48.58V18.01C48.58 18.01 48.39 18.5 47.27 18.5V16.49C46.88 16.73 46.45 16.96 45.98 17.17L45.88 16.97C46.69 16.38 47.3 15.63 47.75 14.77H46.07L46.01 14.56H47.85C47.99 14.25 48.11 13.95 48.22 13.61C47.66 13.65 47.09 13.66 46.55 13.66L46.51 13.47C47.89 13.12 49.69 12.46 50.6 12L51.86 13.38C51.79 13.43 51.69 13.46 51.57 13.46C51.44 13.46 51.28 13.42 51.11 13.34C50.72 13.39 50.26 13.44 49.76 13.49C49.61 13.87 49.43 14.22 49.21 14.55H50.52L51.21 13.62L52.51 14.58L52.54 14.57ZM50.3 15.66C50.16 15.38 50.03 15.07 49.92 14.75H49.1C48.8 15.17 48.46 15.56 48.05 15.89L48.62 16.15H49.72L50.15 15.55L50.3 15.67V15.66ZM50.59 20.42C50.54 20.48 50.44 20.55 50.3 20.59V22.1C50.3 22.1 50.06 22.39 49.41 22.39V21.97H48.99V22.35C48.99 22.35 48.87 22.67 48.1 22.67V19.74L49.04 20.17H49.34L49.65 19.74L50.59 20.42ZM48.58 17.69H49.81V16.35H48.58V17.69ZM49 21.75H49.42V20.38H49V21.75Z" fill="#844E1A"/>
<path d="M57.76 12.54C57.72 12.71 57.62 12.81 57.28 12.83C57.03 13.73 56.74 14.57 56.41 15.36L57.01 15.59C56.96 15.71 56.87 15.8 56.63 15.83V23.67C56.62 23.79 55.96 24.13 55.37 24.13H55.08V17.93C54.79 18.37 54.5 18.76 54.19 19.12L54.05 19.03C54.67 17.37 55.31 14.49 55.62 11.96L57.76 12.52V12.54ZM65.72 14.92C65.62 15.06 65.45 15.1 65.15 15.1H65.05C64.9 17.16 64.61 19.04 63.91 20.64C64.4 21.37 65 21.98 65.73 22.47L65.68 22.6C64.88 22.79 64.43 23.29 64.22 24.12C63.74 23.57 63.37 22.88 63.09 22.1C62.54 22.88 61.83 23.57 60.91 24.14L60.84 23.99C61.72 23.06 62.29 21.93 62.68 20.66C62.42 19.5 62.28 18.19 62.19 16.76C61.93 17.18 61.64 17.55 61.33 17.89L61.82 18.3C61.74 18.44 61.56 18.48 61.26 18.48H60C59.98 18.68 59.86 18.77 59.52 18.79C59.48 19.15 59.45 19.49 59.39 19.85H59.66L60.22 19.12L61.61 20.21C61.54 20.33 61.4 20.4 61.18 20.45C61.14 22.63 61.05 23.43 60.61 23.78C60.25 24.05 59.94 24.15 59.29 24.16C59.29 23.33 59.18 23 58.49 22.8V22.63C58.68 22.64 59.12 22.64 59.3 22.64C59.44 22.64 59.5 22.63 59.56 22.58C59.7 22.41 59.75 21.72 59.77 20.04H59.34C59.03 21.68 58.34 23.2 56.84 24.11L56.74 23.94C57.8 22.65 58.04 20.48 58 18.46H57.04L56.98 18.26H58.48V16.39L60.4 16.58C60.38 16.72 60.29 16.8 60.03 16.84V18.16L60.6 17.29L61.11 17.71C61.26 17.26 61.41 16.74 61.53 16.15H57.15L57.1 15.94H58.59V14.01H57.48L57.42 13.8H58.59V11.97L60.51 12.16C60.49 12.3 60.4 12.38 60.14 12.42V13.69L60.68 12.81L61.8 13.83C61.7 13.97 61.54 14.01 61.24 14.01H60.15V15.94H60.2L60.83 14.92L61.65 15.68C61.88 14.52 62.04 13.21 62.13 11.97L64.28 12.47C64.24 12.64 64.15 12.74 63.82 12.76C63.63 13.53 63.39 14.25 63.13 14.9H63.8L64.48 13.77L65.72 14.92ZM63.05 15.1C62.86 15.57 62.65 16.01 62.41 16.42C62.55 17.38 62.77 18.24 63.06 19.01C63.27 17.79 63.37 16.49 63.43 15.11H63.05V15.1Z" fill="#844E1A"/>
<path d="M81.56 21.18V22.47C81.99 22.67 82.04 22.74 82.04 22.94C82.04 23.47 81.72 23.78 80.56 23.78H79.4C78.13 23.78 77.86 23.5 77.86 22.28V19.51H77.09C77.07 19.64 76.96 19.71 76.71 19.74C76.58 21.73 75.89 23.29 72.97 23.96L72.92 23.83C75.01 22.98 75.32 21.35 75.27 19.51H73.04L72.99 19.34H80.16L80.82 18.43L82.04 19.36C81.97 19.48 81.85 19.51 81.58 19.51H79.58C79.55 19.59 79.49 19.66 79.26 19.7V22.3C79.26 22.55 79.26 22.56 79.51 22.56H80.56C80.78 22.56 80.86 22.56 80.97 22.4C81.09 22.24 81.26 21.82 81.5 21.17H81.56V21.18ZM80.01 17.17C80.06 16.76 80.12 16.25 80.16 15.88H74.77C74.79 16.03 74.81 16.17 74.81 16.31C74.81 17.13 74.37 17.66 73.79 17.66C73.39 17.66 73.08 17.41 73.08 17C73.08 16.69 73.31 16.43 73.59 16.29C73.97 16.12 74.41 15.63 74.42 15.06H74.54C74.63 15.29 74.69 15.51 74.73 15.71H76.74V14L78.56 14.19C78.54 14.33 78.46 14.41 78.19 14.45V15.71H80.04L80.75 14.96L81.95 16.19C81.87 16.27 81.78 16.3 81.57 16.33C81.23 16.64 80.71 17.07 80.26 17.37L80.41 17.49C80.34 17.61 80.2 17.64 79.95 17.64H74.71L74.67 17.47H78.58L79.23 16.6L80.01 17.18V17.17Z" fill="#844E1A"/>
<path d="M92.13 20.7005C92.06 20.8205 91.94 20.8505 91.66 20.8505H88.25C89.02 22.0405 90.69 22.3305 92.34 22.4105V22.5305C91.81 22.7205 91.48 23.2205 91.35 23.9505C89.72 23.4405 88.63 22.6905 88.08 20.8505H88.02C87.67 22.3405 86.73 23.3704 83.25 23.9604L83.19 23.8105C85.42 22.9805 86.17 22.0405 86.44 20.8405H83.24L83.19 20.6705H86.48C86.57 20.1905 86.59 19.6605 86.61 19.0905L88.58 19.2305C88.58 19.3605 88.48 19.4504 88.2 19.4904C88.16 19.9204 88.12 20.3105 88.05 20.6805H90.09L90.81 19.6905L92.13 20.7005ZM83.22 18.7005H86.82V17.3705H84.06L84.01 17.2005H86.82V15.8505H83.62L83.57 15.6805H85.67C85.52 15.6305 85.39 15.5305 85.27 15.3705C85.29 14.9105 85.17 14.3805 84.91 14.0705L84.96 14.0204C86.29 14.1104 86.73 14.5605 86.73 14.9705C86.73 15.2905 86.47 15.5805 86.15 15.6905H88.39C88.54 15.1905 88.7 14.4705 88.78 13.9805L90.57 14.5705C90.53 14.6805 90.44 14.7505 90.19 14.7305C89.81 15.0305 89.2 15.4105 88.64 15.6905H89.92L90.61 14.7404L91.88 15.7104C91.81 15.8304 91.68 15.8604 91.42 15.8604H88.28V17.2104H89.52L90.17 16.3405L91.38 17.2305C91.31 17.3505 91.18 17.3805 90.92 17.3805H88.29V18.7104H90.19L90.9 17.7005L92.2 18.7305C92.12 18.8405 92 18.8805 91.72 18.8805H83.3L83.25 18.7104L83.22 18.7005Z" fill="#844E1A"/>
<path d="M101.17 18.4702L102.44 19.4202C102.36 19.5402 102.24 19.5702 101.97 19.5702H95.79V19.9302C95.79 20.0002 95.62 20.1902 95.32 20.3102L96.07 20.6202H99.63L100.17 19.8602L101.58 20.9402C101.5 21.0302 101.36 21.1502 101.12 21.2102V23.4702C101.12 23.4702 100.74 23.8102 99.75 23.8102V23.0402H96V23.4202C96 23.4202 95.81 23.9102 94.74 23.9102V20.4102H94.46V17.0702C94.07 17.3602 93.67 17.6102 93.24 17.8202L93.15 17.7302C93.99 16.8102 94.77 15.3202 95.17 13.9502L96.92 14.7202C96.87 14.8102 96.78 14.8802 96.62 14.8802C96.58 14.8802 96.54 14.8802 96.49 14.8702C96.32 15.1502 96.11 15.4202 95.88 15.7002H95.92L97.34 15.7102C97.4 15.2102 97.44 14.4902 97.46 14.0102L99.4 14.4502C99.37 14.5902 99.28 14.6502 99.02 14.6502C98.66 14.9602 98.09 15.3802 97.57 15.7102H99.82L100.5 14.8002L101.74 15.7302C101.67 15.8502 101.54 15.8802 101.28 15.8802H98.62V16.9202H99.56L100.17 16.1002L101.31 16.9402C101.23 17.0602 101.1 17.0902 100.85 17.0902H98.62V18.1402H99.61L100.22 17.3102L101.36 18.1602C101.29 18.2802 101.16 18.3102 100.91 18.3102H98.63V19.3902H100.49L101.19 18.4602L101.17 18.4702ZM97.29 15.8902H95.78V16.9302H97.29V15.8902ZM97.29 18.1502V17.1002H95.78V18.1502H97.29ZM95.78 18.3202V19.4002H97.29V18.3202H95.78ZM99.74 20.8002H95.99V22.8902H99.74V20.8002Z" fill="#844E1A"/>
<path d="M105.68 14.74L106.18 14.04L107.42 15.03C107.36 15.1 107.26 15.19 107.08 15.22V22.26C107.08 23.15 106.89 23.8 105.59 23.91C105.59 22.84 105.42 22.6 104.81 22.5V22.39H105.69C105.75 22.39 105.78 22.34 105.78 22.23V19.85H105.11C104.97 21.29 104.58 22.78 103.45 23.92L103.35 23.86C103.93 22.11 103.93 19.95 103.93 17.75V14.21L105.38 14.75H105.68V14.74ZM105.19 17.74C105.19 18.33 105.19 19 105.13 19.68H105.78V17.36H105.19V17.74ZM105.78 14.91H105.19V17.19H105.78V14.91ZM111.32 17.89L112.49 18.93C112.43 19.04 112.34 19.09 112.13 19.11C111.93 19.98 111.6 20.86 111.11 21.65C111.57 22.03 112.09 22.34 112.6 22.59L112.57 22.7C112.03 22.79 111.6 23.23 111.38 23.93C110.97 23.55 110.63 23.15 110.34 22.68C109.97 23.08 109.56 23.44 109.06 23.75L109 23.63C109.4 23.16 109.72 22.6 109.97 21.99C109.58 21.16 109.33 20.14 109.17 18.79H108.92V23.47C108.92 23.57 108.52 23.91 107.86 23.91H107.62V14.17L109.06 14.74H110.53L111.01 14.05L112.32 15.04C112.26 15.12 112.14 15.22 111.93 15.26V16.47C111.93 17.32 111.74 17.97 110.42 18.07C110.42 16.91 110.15 16.76 109.59 16.66V16.54H110.53C110.6 16.54 110.63 16.49 110.63 16.39V14.9H108.93V18.62H110.67L111.33 17.88L111.32 17.89ZM109.32 18.8C109.53 19.65 109.9 20.34 110.36 20.89C110.55 20.19 110.68 19.49 110.76 18.8H109.33H109.32Z" fill="#844E1A"/>
<path d="M120.92 15.2002L122.42 16.4202C122.32 16.5302 122.16 16.6702 121.88 16.7302V22.9202C121.88 22.9202 121.46 23.3402 120.43 23.3402V22.1802H115.74V22.8802C115.74 22.9302 115.53 23.5002 114.31 23.5002V15.4202L115.85 16.0702H120.31L120.93 15.2002H120.92ZM115.73 22.0202H120.42V16.2402H115.73V22.0202Z" fill="#844E1A"/>
<path d="M131.92 20.2905L133.03 21.3305C132.95 21.4505 132.82 21.4805 132.56 21.4805H131.24V23.5905C131.24 23.5905 131.02 23.9205 129.98 23.9205V21.4705H127.3V22.4905C127.3 22.4905 126.99 22.8105 126.11 22.8105V22.1205H125.54V23.0405C125.54 23.1305 125.18 23.4105 124.59 23.4105H124.38V20.2105C124.2 20.4805 123.99 20.7305 123.78 20.9705L123.65 20.8505C124.33 19.3105 124.64 17.2005 124.78 15.1905H123.71L123.67 15.0205H126.18L126.8 14.1705L127.72 14.8805L128.99 15.4105H129.19C129.24 15.0105 129.31 14.4305 129.34 14.0205L131.3 14.3505C131.27 14.5405 131.16 14.6205 130.86 14.6405C130.58 14.8505 130.13 15.1805 129.81 15.4105H131.06L131.52 14.7605L132.76 15.6905C132.7 15.7605 132.59 15.8505 132.41 15.8905V19.0205C132.41 19.0205 132.07 19.3505 131.15 19.3505V18.9305H128.92C128.92 19.1005 128.64 19.4605 127.71 19.4605V15.1605C127.64 15.1805 127.56 15.1805 127.46 15.1805H126.13C126 16.2705 125.78 17.2805 125.42 18.2105L125.65 18.3005H126L126.45 17.6805L127.64 18.5905C127.58 18.6605 127.47 18.7505 127.29 18.7805V21.3105H127.84C127.96 20.8405 128.12 20.0905 128.21 19.5605L129.91 19.9005C129.88 20.0805 129.76 20.1605 129.48 20.1605C129.21 20.4805 128.77 20.9705 128.46 21.3005H129.96V19.2505L131.55 19.4005C131.53 19.5205 131.47 19.6005 131.22 19.6405V21.3005H131.28L131.9 20.2805L131.92 20.2905ZM125.54 21.9605H126.11V18.4705H125.54V21.9605ZM129.48 15.5705H128.93V17.0505H129.48V15.5705ZM128.93 18.7705H129.48V17.2205H128.93V18.7705ZM131.16 15.5705H130.59V17.0505H131.16V15.5705ZM130.59 18.7705H131.16V17.2205H130.59V18.7705Z" fill="#844E1A"/>
<path d="M143.03 19.5103C142.96 19.6203 142.82 19.6603 142.56 19.6603H140.57C141.1 20.6803 142.13 21.4503 143.09 21.8303L143.07 21.9403C142.58 22.0803 142.23 22.5203 142.05 23.2403C141.2 22.4503 140.73 21.2603 140.43 19.7003V23.5103C140.43 23.6103 139.8 23.9203 139.29 23.9203H139.03V21.4303C138.38 22.1603 137.54 22.7603 136.56 23.2303L136.48 23.1003C137.43 22.2303 138.12 20.9003 138.48 19.6603H136.69L136.65 19.4903H139.02V17.7503H138.63V18.0003C138.63 18.0903 138.22 18.4003 137.54 18.4003H137.3V14.6903C137.24 14.7603 137.15 14.8003 136.95 14.8003C136.72 15.5103 136.46 16.1603 136.17 16.7603L136.56 16.9203C136.52 17.0103 136.44 17.0903 136.25 17.1203V23.5003C136.25 23.6103 135.67 23.9303 135.14 23.9303H134.88V18.8403C134.57 19.2403 134.23 19.5903 133.87 19.9003L133.76 19.8303C134.45 18.5203 135.15 16.1903 135.49 14.0303L137.3 14.5803V14.3603L138.73 14.9303H140.73L141.28 14.1603L142.59 15.1703C142.53 15.2503 142.45 15.3203 142.22 15.3603V18.0203C142.22 18.0803 141.79 18.3303 141.07 18.3303H140.82V17.7603H140.7C140.68 17.8603 140.62 17.9403 140.42 17.9703V19.5003H141.01L141.73 18.4803L143.03 19.5203V19.5103ZM138.64 17.5803H140.83V15.0803H138.64V17.5803Z" fill="#844E1A"/>
<path d="M152.75 15.11C152.71 15.16 152.65 15.19 152.58 15.19C152.53 15.19 152.48 15.19 152.43 15.16C152.18 15.28 151.67 15.49 151.19 15.62C151.35 15.85 151.54 16.06 151.76 16.27C151.96 15.93 152.19 15.48 152.28 15.26L153.32 16.2C153.29 16.25 153.24 16.27 153.17 16.27C153.12 16.27 153.06 16.26 153 16.23C152.8 16.31 152.42 16.43 152.04 16.52C152.4 16.81 152.83 17.08 153.34 17.3V17.42C152.81 17.54 152.51 17.85 152.45 18.53C152.16 18.31 151.91 18.05 151.69 17.76C151.61 17.8 151.5 17.81 151.34 17.81H148.71L148.67 17.67C148.29 18.03 147.85 18.36 147.34 18.62L147.28 18.47C147.78 18.01 148.18 17.42 148.48 16.77C148.33 16.76 148.17 16.69 148.04 16.52C148.04 16.41 148.04 16.29 148.02 16.19C147.94 16.28 147.82 16.3 147.59 16.3H143.94L143.9 16.13H146.5L147.03 15.35L148 16.12C147.94 15.88 147.84 15.64 147.69 15.49L147.76 15.43C148.29 15.47 148.64 15.59 148.84 15.73C148.92 15.48 148.98 15.23 149.02 14.98H147.75L147.7 14.81H148.95L149.52 14.2L150.52 15.08C150.46 15.18 150.37 15.22 150.16 15.24C149.87 16.11 149.38 16.95 148.67 17.63H150.24L150.77 16.87L151.42 17.39C150.79 16.36 150.5 15.09 150.38 14.23L150.53 14.19C150.62 14.59 150.78 15 151.04 15.41C151.28 15.02 151.55 14.48 151.66 14.22L152.74 15.09L152.75 15.11ZM146.61 19.7L147.83 20.61C147.77 20.68 147.67 20.77 147.48 20.8V23.16C147.48 23.16 147.18 23.52 146.26 23.52V22.74H145.57V23.44C145.57 23.44 145.4 23.92 144.36 23.92V19.79L145.61 20.33H146.17L146.61 19.71V19.7ZM146.59 16.74L147.57 17.53C147.5 17.64 147.36 17.68 147.13 17.68H144.43L144.38 17.51H146.07L146.59 16.74ZM144.42 19.04L144.37 18.87H146.06L146.58 18.1L147.56 18.89C147.49 19 147.35 19.04 147.12 19.04H144.42ZM147.56 14.85C147.49 14.96 147.36 15 147.12 15H144.47L144.42 14.83H146.03L146.57 14.04L147.57 14.85H147.56ZM145.57 22.57H146.26V20.49H145.57V22.57ZM151.36 23.24L152.01 22.31L153.21 23.26C153.13 23.37 153 23.41 152.74 23.41H147.54L147.5 23.24H150.52C150.6 22.6 150.67 21.69 150.68 21.08L152.33 21.43C152.3 21.55 152.21 21.62 151.96 21.63C151.66 22.09 151.18 22.73 150.72 23.24H151.36ZM152.35 20.72C152.35 20.81 151.7 21.07 151.28 21.07H151.05V20.63H149.32V20.68C149.32 20.68 149.12 21.16 148.06 21.16V18.19L149.37 18.74H150.96L151.42 18.08L152.71 19.03C152.65 19.1 152.55 19.19 152.36 19.23V20.71L152.35 20.72ZM148.75 21.13C149.76 21.54 150.1 22.05 150.1 22.44C150.1 22.86 149.74 23.17 149.38 23.17C149.16 23.17 148.94 23.06 148.79 22.79C148.82 22.62 148.84 22.44 148.84 22.25C148.84 21.87 148.77 21.47 148.66 21.18L148.75 21.14V21.13ZM149.31 20.47H151.04V18.92H149.31V20.47Z" fill="#844E1A"/>
<path d="M30.42 70.4794V68.6494H31.24V70.4794H32.09V71.2694H31.24V71.8594C31.54 72.2294 31.83 72.6194 32.13 73.0194C32.32 72.8294 32.5 72.6094 32.67 72.3594H32.24V68.8394H34.59V72.3594H33.95C34.19 72.5794 34.39 72.7894 34.55 72.9994L34.19 73.3694L34.69 73.5094C34.58 73.7094 34.47 73.8994 34.37 74.0794H37.68V74.7894H36.56C36.33 75.3094 36.08 75.7294 35.8 76.0594C36.34 76.2794 36.9 76.5294 37.5 76.8194L37 77.4894C36.43 77.1594 35.82 76.8794 35.17 76.6194C34.54 76.9994 33.5 77.2794 32.05 77.4894L31.77 76.6994C32.84 76.5994 33.66 76.4694 34.22 76.2594C33.62 76.0594 33 75.8694 32.34 75.6894C32.55 75.4194 32.77 75.1094 33 74.7894H31.91V74.0794H33.46C33.61 73.8394 33.76 73.5894 33.92 73.3194C33.77 73.1294 33.59 72.9194 33.37 72.6894L33.73 72.3494H32.85L33.22 72.6894C33 73.1094 32.73 73.4894 32.41 73.8194L32.13 73.4294L31.8 73.9294C31.58 73.5294 31.4 73.1694 31.23 72.8794V77.4594H30.41V73.2294C30.18 73.8994 29.92 74.5094 29.63 75.0194L29.31 74.0794C29.76 73.2894 30.12 72.3794 30.41 71.3594V71.2594H29.44V70.4694H30.41L30.42 70.4794ZM33.92 69.8494V69.3994H32.92V69.8494H33.92ZM33.92 70.8194V70.3294H32.92V70.8194H33.92ZM33.92 71.3094H32.92V71.7994H33.92V71.3094ZM33.95 74.7894C33.82 74.9894 33.7 75.1594 33.59 75.3194C34.06 75.4394 34.55 75.5894 35.06 75.7694C35.32 75.5294 35.56 75.1994 35.77 74.7894H33.95ZM37.44 68.8294V72.3494H36.9C37.17 72.6594 37.42 72.9494 37.62 73.2494L37.12 73.7794C36.93 73.4294 36.65 73.0594 36.3 72.6594L36.62 72.3494H35.72L36.02 72.6194C35.8 73.0594 35.55 73.4594 35.24 73.8194L34.77 73.1794C35.01 72.9494 35.23 72.6794 35.41 72.3494H34.99V68.8294H37.44ZM36.76 69.8494V69.3994H35.66V69.8494H36.76ZM36.76 70.8194V70.3294H35.66V70.8194H36.76ZM36.76 71.3094H35.66V71.7994H36.76V71.3094Z" fill="#40220F"/>
<path d="M41.56 71.7194C41.25 72.3694 40.95 72.8894 40.67 73.2694V77.4494H39.78V74.3194C39.52 74.5794 39.23 74.8294 38.92 75.0794L38.43 74.2294C38.9 73.9294 39.37 73.4994 39.81 72.9194C40.15 72.4794 40.49 71.9094 40.81 71.2194L41.56 71.7094V71.7194ZM40.64 69.4994V68.6494H41.46V69.4994H42.45V70.3594H41.46V71.1094H40.64V70.3594H38.5V69.4994H40.64ZM43.31 71.1894V73.3894C44.37 72.9194 45.26 72.3894 45.98 71.7994L46.51 72.5894C45.59 73.2894 44.52 73.8794 43.31 74.3594V76.1194C43.31 76.3194 43.41 76.4194 43.63 76.4194H45.41C45.57 76.4194 45.69 76.3694 45.77 76.2594C45.86 76.1394 45.92 75.6294 45.95 74.6994L46.81 74.9694C46.72 76.0794 46.59 76.7294 46.41 76.9194C46.25 77.1094 45.94 77.2194 45.52 77.2194H43.31C43.04 77.2194 42.82 77.1394 42.66 76.9994C42.5 76.8494 42.41 76.6394 42.41 76.3994V71.2294H43.3L43.31 71.1894ZM43.88 69.4994V68.6494H44.7V69.4994H46.81V70.3594H44.7V71.2994H43.88V70.3594H42.89V69.4994H43.88Z" fill="#40220F"/>
<path d="M55.86 75.9097V76.8097H47.69V75.9097H55.86ZM55.43 69.4297V70.3197H48.08V69.4297H55.43ZM54.93 72.5797V73.4697H48.55V72.5797H54.93Z" fill="#40220F"/>
<path d="M57.7 70.4794V68.6794H58.48V70.4794H59.19V71.2694H58.48V71.7894C58.81 72.2094 59.15 72.6794 59.47 73.1794L59.32 73.4094H60.09C60.09 73.1994 60.11 72.9694 60.11 72.7294C59.91 72.7594 59.71 72.7894 59.51 72.8094L59.37 72.1394C59.51 72.1394 59.64 72.1394 59.78 72.1094C59.98 71.8194 60.18 71.4794 60.38 71.0694C60.07 71.1394 59.74 71.1994 59.39 71.2694L59.25 70.6394C59.36 70.6394 59.48 70.6194 59.6 70.5994C59.89 70.0394 60.11 69.4494 60.25 68.7994L60.9 68.8794C60.75 69.4694 60.55 69.9994 60.3 70.4994C60.44 70.4794 60.56 70.4494 60.68 70.4194C60.79 70.1794 60.89 69.9294 61 69.6594L61.61 69.8794C61.23 70.7694 60.83 71.4994 60.45 72.0694C60.66 72.0494 60.87 72.0294 61.07 72.0094C61.02 71.8294 60.98 71.6394 60.92 71.4594L61.39 71.3394C61.59 71.8594 61.75 72.3394 61.86 72.7594L61.29 72.9894C61.26 72.8494 61.23 72.6994 61.21 72.5694C61.08 72.5894 60.95 72.6094 60.84 72.6294C60.84 72.9194 60.84 73.1794 60.82 73.4094H62C61.85 72.4094 61.76 70.8194 61.73 68.6494H62.44C62.49 70.8994 62.59 72.4894 62.7 73.4094H63.55C63.49 73.2194 63.41 73.0194 63.32 72.8194C63.16 72.8394 62.99 72.8594 62.83 72.8794L62.66 72.2094C62.81 72.2094 62.94 72.2094 63.07 72.2094C63.27 71.8994 63.48 71.5294 63.68 71.0894C63.37 71.1594 63.04 71.2194 62.69 71.2794L62.54 70.6494C62.65 70.6494 62.76 70.6294 62.87 70.6094C63.13 70.0494 63.32 69.4594 63.44 68.8094L64.08 68.8894C63.95 69.4794 63.78 70.0294 63.55 70.5294C63.7 70.5094 63.83 70.4894 63.96 70.4594C64.05 70.2594 64.13 70.0494 64.22 69.8294L64.82 70.0494C64.46 70.9094 64.11 71.6094 63.75 72.1594C63.96 72.1294 64.15 72.0894 64.32 72.0394C64.27 71.8694 64.23 71.6994 64.18 71.5394L64.65 71.4294C64.84 71.9294 65 72.3894 65.11 72.8094L64.54 73.0394C64.51 72.9094 64.49 72.7594 64.45 72.6094C64.3 72.6494 64.16 72.6894 63.99 72.7294C64.08 72.9394 64.16 73.1694 64.24 73.4194H65.08V74.1294H62.83C62.91 74.5494 63.01 74.9094 63.12 75.2094C63.32 74.9594 63.52 74.6694 63.72 74.3494L64.33 74.6894C64.06 75.1694 63.76 75.5894 63.44 75.9394C63.73 76.4394 63.98 76.6894 64.18 76.6894C64.23 76.6894 64.26 76.6494 64.28 76.5794C64.32 76.4994 64.35 76.0794 64.39 75.3294L65.1 75.7394C65 76.4694 64.89 76.9394 64.76 77.1794C64.63 77.3694 64.45 77.4694 64.21 77.4694C63.83 77.4694 63.42 77.1194 62.97 76.4294V76.4094C62.55 76.7694 61.98 77.0794 61.29 77.3494L60.91 76.7094C61.57 76.4594 62.11 76.1594 62.54 75.8094C62.57 75.7894 62.59 75.7594 62.62 75.7394C62.42 75.2894 62.26 74.7494 62.13 74.1294H60.77C60.75 74.2494 60.74 74.3594 60.73 74.4594C61.17 74.7594 61.57 75.0794 61.93 75.4494L61.5 76.1194C61.2 75.7694 60.9 75.4694 60.6 75.2194C60.48 75.7194 60.34 76.1194 60.16 76.4094C59.97 76.7494 59.69 77.0994 59.33 77.4794L58.79 76.7594C59.16 76.3994 59.45 76.0394 59.63 75.6894C59.78 75.4194 59.9 74.9694 60.01 74.3394C60.01 74.2694 60.03 74.2094 60.04 74.1394H59.15V73.6894L59 73.9094C58.79 73.4894 58.62 73.1294 58.47 72.8394V77.4794H57.69V73.3494C57.47 73.9794 57.22 74.5494 56.94 75.0394L56.62 74.0994C57.04 73.3494 57.4 72.4894 57.69 71.5094V71.2894H56.76V70.4994H57.69L57.7 70.4794Z" fill="#40220F"/>
<path d="M68.82 75.0198C68.2 75.7998 67.42 76.4998 66.5 77.1098L65.92 76.3198C66.77 75.8198 67.53 75.1998 68.2 74.4498L68.81 75.0198H68.82ZM73.81 69.5398C72.7 69.7798 71.36 69.9498 69.82 70.0498C69.58 70.4698 69.24 70.8998 68.78 71.3598C69.47 71.3298 70.15 71.2898 70.82 71.2398C71.18 70.8998 71.53 70.5498 71.88 70.1698L72.69 70.5798C71.52 71.7698 70.37 72.7598 69.24 73.5298C70.53 73.4898 71.61 73.4198 72.5 73.3198C72.3 72.9598 72.1 72.5998 71.88 72.2398L72.52 71.8298C73.19 72.8198 73.71 73.6598 74.09 74.3698L73.31 74.9398C73.18 74.6498 73.04 74.3498 72.87 74.0198C72.24 74.1098 71.48 74.1798 70.6 74.2398V76.4398C70.6 76.7998 70.52 77.0398 70.35 77.1898C70.2 77.3398 69.93 77.4198 69.53 77.4198H68.71L68.53 76.4398C68.83 76.4998 69.08 76.5198 69.28 76.5198C69.54 76.5198 69.67 76.4398 69.67 76.2898V74.2998C68.73 74.3598 67.67 74.4198 66.5 74.4498L66.28 73.5898C66.85 73.5898 67.4 73.5898 67.92 73.5898C68.63 73.1298 69.32 72.5998 69.99 72.0098C69.02 72.0998 67.95 72.1798 66.78 72.2598L66.61 71.4698C66.96 71.4698 67.29 71.4498 67.63 71.4298C68.12 71.0298 68.53 70.5898 68.85 70.1098C68.06 70.1498 67.23 70.1598 66.35 70.1598L66.1 69.3698C68.97 69.3698 71.4 69.1898 73.41 68.7998L73.8 69.5498L73.81 69.5398ZM74.09 76.3998L73.45 77.0698C72.94 76.4398 72.21 75.7598 71.27 75.0198L71.88 74.4198C72.75 75.0898 73.49 75.7498 74.09 76.4098V76.3998Z" fill="#40220F"/>
<path d="M77.19 68.8996C76.9 69.7996 76.57 70.6096 76.2 71.2996C76.46 71.2596 76.7 71.2196 76.95 71.1696C77.14 70.7496 77.34 70.2996 77.54 69.8096L78.25 70.0696C77.62 71.5396 76.98 72.7396 76.32 73.6796C76.79 73.6196 77.19 73.5496 77.52 73.4296C77.45 73.1596 77.37 72.8896 77.28 72.6196L77.93 72.3896C78.14 72.9796 78.33 73.6596 78.5 74.4196L77.79 74.6096C77.75 74.4496 77.73 74.2796 77.69 74.1196C77.1 74.3096 76.27 74.4596 75.19 74.5696L74.97 73.7396C75.17 73.7396 75.36 73.7396 75.54 73.7396C75.88 73.2396 76.22 72.6496 76.58 71.9496C76.11 72.0496 75.59 72.1496 75.05 72.2496L74.88 71.4596C75.04 71.4596 75.22 71.4296 75.39 71.4096C75.79 70.5796 76.15 69.6596 76.45 68.6496L77.2 68.9096L77.19 68.8996ZM75.9 74.9796C75.85 75.9296 75.75 76.7296 75.62 77.3796L74.87 77.1496C75.04 76.4496 75.16 75.6996 75.23 74.8996L75.91 74.9796H75.9ZM77.19 76.9696L76.44 77.0496C76.42 76.1496 76.38 75.4496 76.33 74.9496L76.97 74.8696C77.08 75.3896 77.15 76.0896 77.19 76.9696ZM78.39 76.3296L77.71 76.5196C77.62 75.9496 77.52 75.4096 77.39 74.8696L78 74.6796C78.14 75.1696 78.26 75.7196 78.38 76.3296H78.39ZM81.3 69.6996H83.24V70.4496H80.62C80.46 71.0996 80.21 71.7296 79.88 72.3096C80.68 72.2696 81.37 72.1796 81.92 72.0296C81.81 71.7996 81.68 71.5596 81.56 71.3096L82.17 70.8996C82.65 71.6896 83.04 72.3596 83.31 72.9196L82.56 73.4496C82.46 73.2096 82.35 72.9596 82.24 72.6996C82.06 72.7496 81.87 72.7896 81.66 72.8196V76.2196C81.66 76.3896 81.75 76.4796 81.94 76.4796H82.3C82.38 76.4796 82.45 76.4296 82.49 76.3196C82.53 76.1996 82.56 75.6896 82.58 74.7596L83.33 74.9896C83.28 76.0996 83.17 76.7496 83.05 76.9396C82.93 77.1296 82.72 77.2396 82.41 77.2396H81.66C81.41 77.2396 81.22 77.1696 81.09 77.0396C80.94 76.8896 80.88 76.6796 80.88 76.4496V72.9796C80.7 73.0096 80.52 73.0396 80.32 73.0596C80.27 74.2596 80.12 75.1496 79.89 75.7296C79.62 76.4096 79.16 76.9996 78.52 77.5096L77.99 76.7996C78.56 76.3796 78.94 75.9196 79.16 75.3996C79.36 74.9596 79.48 74.2096 79.53 73.1496C79.22 73.1896 78.89 73.2196 78.55 73.2396L78.34 72.3796C78.56 72.3796 78.78 72.3796 78.99 72.3796C79.34 71.7796 79.6 71.1396 79.78 70.4796H78.34V69.7296H80.42C80.29 69.4796 80.15 69.2196 79.97 68.9396L80.75 68.6396C80.93 68.9496 81.11 69.3096 81.27 69.7196L81.3 69.6996Z" fill="#40220F"/>
<path d="M88.8 76.3995L88.2 75.7495C87.63 76.2695 87.02 76.5295 86.37 76.5295C85.72 76.5295 85.21 76.3895 84.8 76.0795C84.32 75.7295 84.08 75.2495 84.08 74.6095C84.08 73.9395 84.53 73.2895 85.42 72.6495C84.96 72.1195 84.74 71.6696 84.74 71.2896C84.74 70.9096 84.89 70.5795 85.21 70.3395C85.48 70.1295 85.81 70.0195 86.2 70.0195C86.59 70.0195 86.92 70.1295 87.19 70.3195C87.51 70.5495 87.67 70.8596 87.67 71.2596C87.67 71.7696 87.34 72.2796 86.69 72.7896L88.07 74.3495C88.23 73.9295 88.33 73.2395 88.33 72.2695H89.19C89.19 73.4195 89.03 74.3395 88.7 75.0295L89.97 76.3995H88.79H88.8ZM86 73.2795C85.31 73.7395 84.96 74.1595 84.96 74.5595C84.96 74.9095 85.1 75.1795 85.38 75.3995C85.64 75.5995 85.95 75.6996 86.33 75.6996C86.8 75.6996 87.23 75.5195 87.62 75.1295L86 73.2896V73.2795ZM86.23 70.8395C85.83 70.8395 85.63 70.9896 85.63 71.2896C85.63 71.4596 85.79 71.7396 86.14 72.1396C86.6 71.8096 86.82 71.5296 86.82 71.2896C86.82 70.9896 86.62 70.8395 86.23 70.8395Z" fill="#40220F"/>
<path d="M91.53 70.4794V68.6494H92.35V70.4794H93.2V71.2694H92.35V71.8594C92.65 72.2294 92.94 72.6194 93.24 73.0194C93.43 72.8294 93.61 72.6094 93.78 72.3594H93.35V68.8394H95.7V72.3594H95.06C95.3 72.5794 95.5 72.7894 95.66 72.9994L95.3 73.3694L95.8 73.5094C95.69 73.7094 95.58 73.8994 95.48 74.0794H98.79V74.7894H97.67C97.44 75.3094 97.19 75.7294 96.91 76.0594C97.45 76.2794 98.01 76.5294 98.61 76.8194L98.11 77.4894C97.54 77.1594 96.93 76.8794 96.28 76.6194C95.65 76.9994 94.61 77.2794 93.16 77.4894L92.88 76.6994C93.95 76.5994 94.77 76.4694 95.33 76.2594C94.73 76.0594 94.11 75.8694 93.45 75.6894C93.66 75.4194 93.88 75.1094 94.11 74.7894H93.02V74.0794H94.57C94.72 73.8394 94.87 73.5894 95.03 73.3194C94.88 73.1294 94.7 72.9194 94.48 72.6894L94.84 72.3494H93.96L94.33 72.6894C94.11 73.1094 93.84 73.4894 93.52 73.8194L93.24 73.4294L92.91 73.9294C92.69 73.5294 92.51 73.1694 92.34 72.8794V77.4594H91.52V73.2294C91.29 73.8994 91.03 74.5094 90.74 75.0194L90.42 74.0794C90.87 73.2894 91.23 72.3794 91.52 71.3594V71.2594H90.55V70.4694H91.52L91.53 70.4794ZM95.03 69.8494V69.3994H94.03V69.8494H95.03ZM95.03 70.8194V70.3294H94.03V70.8194H95.03ZM95.03 71.3094H94.03V71.7994H95.03V71.3094ZM95.06 74.7894C94.93 74.9894 94.81 75.1594 94.7 75.3194C95.17 75.4394 95.66 75.5894 96.17 75.7694C96.43 75.5294 96.67 75.1994 96.88 74.7894H95.06ZM98.55 68.8294V72.3494H98.01C98.28 72.6594 98.53 72.9494 98.73 73.2494L98.23 73.7794C98.04 73.4294 97.76 73.0594 97.41 72.6594L97.73 72.3494H96.83L97.13 72.6194C96.91 73.0594 96.66 73.4594 96.35 73.8194L95.88 73.1794C96.12 72.9494 96.34 72.6794 96.52 72.3494H96.1V68.8294H98.55ZM97.87 69.8494V69.3994H96.77V69.8494H97.87ZM97.87 70.8194V70.3294H96.77V70.8194H97.87ZM97.87 71.3094H96.77V71.7994H97.87V71.3094Z" fill="#40220F"/>
<path d="M102.68 71.7194C102.37 72.3694 102.07 72.8894 101.79 73.2694V77.4494H100.9V74.3194C100.64 74.5794 100.35 74.8294 100.04 75.0794L99.55 74.2294C100.02 73.9294 100.49 73.4994 100.93 72.9194C101.27 72.4794 101.61 71.9094 101.93 71.2194L102.68 71.7094V71.7194ZM101.76 69.4994V68.6494H102.58V69.4994H103.57V70.3594H102.58V71.1094H101.76V70.3594H99.62V69.4994H101.76ZM104.43 71.1894V73.3894C105.49 72.9194 106.38 72.3894 107.1 71.7994L107.63 72.5894C106.71 73.2894 105.64 73.8794 104.43 74.3594V76.1194C104.43 76.3194 104.53 76.4194 104.75 76.4194H106.53C106.69 76.4194 106.81 76.3694 106.89 76.2594C106.98 76.1394 107.04 75.6294 107.07 74.6994L107.93 74.9694C107.84 76.0794 107.71 76.7294 107.53 76.9194C107.37 77.1094 107.06 77.2194 106.64 77.2194H104.43C104.16 77.2194 103.94 77.1394 103.78 76.9994C103.62 76.8494 103.53 76.6394 103.53 76.3994V71.2294H104.42L104.43 71.1894ZM105 69.4994V68.6494H105.82V69.4994H107.93V70.3594H105.82V71.2994H105V70.3594H104.01V69.4994H105Z" fill="#40220F"/>
<path d="M110.52 74.0797C110.19 75.3597 109.83 76.4697 109.42 77.4197L108.77 76.6697C109.12 75.9397 109.47 74.8897 109.85 73.5497L110.53 74.0797H110.52ZM110.59 72.1297L110.05 73.0297C109.65 72.5197 109.23 72.1197 108.8 71.8297L109.27 71.0697C109.74 71.3697 110.19 71.7197 110.59 72.1297ZM110.95 69.8797L110.41 70.7797C109.99 70.2797 109.56 69.8797 109.12 69.5797L109.59 68.8297C110.08 69.1297 110.53 69.4697 110.95 69.8797ZM112.73 71.2697L112.16 71.5297H116.33V73.0997H117.14V73.9297H116.33V75.5397H114.05V76.5997C114.05 76.8997 113.98 77.1097 113.83 77.2197C113.7 77.3497 113.47 77.4197 113.12 77.4197H112.19L112.05 76.5897C112.4 76.6397 112.68 76.6697 112.91 76.6697C113.12 76.6697 113.23 76.5997 113.23 76.4797V75.5397H111.19V74.7497H113.23V73.9197H110.59V73.0897H113.23V72.2997H111.19V71.5097H111.86C111.66 71.0297 111.45 70.5897 111.23 70.2097L112.05 69.9397C112.31 70.3497 112.52 70.7897 112.73 71.2597V71.2697ZM116.54 69.3997C115.21 69.6797 113.44 69.8097 111.23 69.8097L111.01 69.0597C113.03 69.0597 114.74 68.9397 116.15 68.6797L116.54 69.3997ZM114.54 71.1897L113.65 71.3097C113.48 70.8097 113.28 70.3797 113.04 69.9997L113.93 69.8797C114.16 70.2697 114.36 70.7197 114.53 71.1897H114.54ZM114.05 73.0997H115.51V72.3097H114.05V73.0997ZM114.05 74.7497H115.51V73.9197H114.05V74.7497ZM116.61 70.0297C116.38 70.5097 116.08 70.9697 115.72 71.4197L114.93 71.0097C115.3 70.5497 115.61 70.0997 115.82 69.6597L116.6 70.0297H116.61Z" fill="#40220F"/>
<path d="M120.95 70.6994V71.3794C120.67 72.5494 120.37 73.4494 120.06 74.0794C119.61 74.9094 119.07 75.6094 118.43 76.1794L117.89 75.4294C118.62 74.6994 119.13 74.0194 119.44 73.4094C119.7 72.9094 119.91 72.2894 120.06 71.5294H117.92V70.6994H120.95ZM122.56 68.6494V70.3794C122.76 70.8994 122.95 71.3494 123.13 71.7394C123.82 71.2194 124.55 70.5394 125.3 69.6994L125.9 70.1894C125.2 71.0694 124.4 71.8494 123.53 72.5194C123.68 72.7694 123.81 72.9794 123.95 73.1394C124.47 73.9094 125.21 74.6494 126.16 75.3594L125.77 76.2594C124.67 75.3494 123.86 74.4794 123.34 73.6594C123.08 73.2994 122.82 72.7994 122.56 72.1594V76.4794C122.56 76.8094 122.48 77.0394 122.31 77.1694C122.16 77.2994 121.89 77.3794 121.49 77.3794H120.46L120.28 76.4794C120.66 76.5294 120.99 76.5594 121.25 76.5594C121.51 76.5594 121.64 76.4794 121.64 76.3294V68.6494H122.56Z" fill="#40220F"/>
<path d="M130.68 68.9395V71.2295L131.36 71.2994C131.23 71.6094 131.11 71.8795 130.99 72.1295H133.22C133.07 71.9695 132.94 71.8094 132.79 71.6794L133.54 71.4195C133.8 71.6495 134.03 71.8795 134.22 72.1295H135.25V72.8795H132.9C133.17 73.1495 133.44 73.3495 133.68 73.4695C134.05 73.6995 134.57 73.9094 135.26 74.1194L134.9 74.9095C134.79 74.8695 134.7 74.8295 134.61 74.7895V77.3895H133.83V77.0794H132.27V77.3895H131.49V74.2794H133.53C133.31 74.1594 133.12 74.0394 132.97 73.9294C132.64 73.7094 132.3 73.3595 131.96 72.8895H130.53C130.4 73.0395 130.28 73.1795 130.16 73.2895C129.84 73.6295 129.38 73.9494 128.78 74.2794H130.77V77.3895H129.99V77.0794H128.59V77.3895H127.81V74.7595C127.68 74.8195 127.56 74.8695 127.45 74.9095L127.06 74.1194C128.05 73.7594 128.81 73.3794 129.36 72.9594C129.39 72.9394 129.41 72.9095 129.45 72.8795H127.06V72.1295H130.1C130.26 71.8995 130.4 71.6294 130.54 71.3394H127.71V68.9395H130.7H130.68ZM129.9 69.6895H128.48V70.5894H129.9V69.6895ZM129.97 76.3195V75.0194H128.57V76.3195H129.97ZM134.6 68.9395V71.3394H131.47V68.9395H134.6ZM133.82 69.6895H132.26V70.5894H133.82V69.6895ZM133.82 76.3195V75.0194H132.26V76.3195H133.82Z" fill="#40220F"/>
<path d="M63.75 84.0801V84.9401H60.83V86.1001H63.18V92.4101H62.32V91.8101H56.69V92.4101H55.83V86.1001H58.01V84.9401H55.3V84.0801H63.74H63.75ZM62.33 91.0201V89.7401H60.94C60.65 89.7401 60.42 89.6801 60.26 89.5501C60.09 89.4301 60 89.2101 60 88.9201V86.8901H58.86V87.0101C58.86 87.8201 58.76 88.4701 58.57 88.9901C58.38 89.5101 58.01 90.0401 57.48 90.5701L56.77 89.9001C57.24 89.5201 57.56 89.1001 57.76 88.6501C57.92 88.3001 58.02 87.7501 58.02 87.0101V86.8901H56.7V91.0201H62.33ZM60.01 84.9401H58.87V86.1001H60.01V84.9401ZM60.83 88.6201C60.83 88.8201 60.93 88.9201 61.15 88.9201H62.33V86.8901H60.83V88.6201Z" fill="#40220F"/>
<path d="M67.24 84.1999V85.0299H66.35V86.9799H67.16V87.8099H66.35V89.9899C66.69 89.8499 67.01 89.6899 67.31 89.5399V90.3999C66.53 90.8399 65.64 91.2399 64.64 91.5999L64.39 90.6999C64.8 90.5799 65.19 90.4399 65.57 90.2999V87.8099H64.64V86.9799H65.57V85.0299H64.57V84.1999H67.24ZM69.56 83.6699V87.1199C69.56 88.2899 69.41 89.2599 69.1 90.0299C68.81 90.7999 68.25 91.5699 67.42 92.3699L66.74 91.7699C67.51 91.1599 68.04 90.4799 68.35 89.7699C68.62 89.1899 68.76 88.3099 68.76 87.1199V83.6699H69.54H69.56ZM68.25 84.6899V85.3199C68.25 86.2399 68.2 87.0099 68.1 87.6099C68.01 88.1999 67.83 88.8199 67.56 89.4399L66.96 88.8699C67.17 88.3999 67.33 87.8899 67.42 87.3399C67.49 86.8999 67.54 86.2199 67.54 85.2999V84.6699H68.25V84.6899ZM72.74 84.2399V85.0699H71.71V87.4299H72.63V88.2599H71.71V91.3699H72.88V92.1599H69.53V91.3699H70.85V88.2599H69.92V87.4299H70.85V85.0699H69.78V84.2399H72.74Z" fill="#40220F"/>
<path d="M81.6 84.0195V84.8695H79.78V86.7896H81.99V87.6396H79.78V91.2795C79.78 91.6495 79.7 91.8995 79.53 92.0595C79.38 92.2095 79.11 92.2995 78.71 92.2995H77.29L77.07 91.2795C77.64 91.3395 78.1 91.3595 78.47 91.3595C78.73 91.3595 78.86 91.2896 78.86 91.1396V87.6495H78.04C77.69 88.4195 77.3 89.0595 76.85 89.5695C76.23 90.2595 75.34 90.9395 74.19 91.6295L73.65 90.6895C74.83 90.0595 75.66 89.4795 76.15 88.9395C76.5 88.5995 76.81 88.1695 77.08 87.6495H74.19C74.35 86.7995 74.47 86.0395 74.55 85.3595L75.54 85.4395C75.47 85.9695 75.4 86.4196 75.33 86.7896H78.86V84.8695H74.3V84.0195H81.6Z" fill="#40220F"/>
<path d="M87.42 84.1993H90.82V85.8093H89.96V84.8693H88.43V85.2393H89.64V85.8093H88.43V86.1893H90V86.7193H88.43V87.0893H90.89V87.7193H88.85C89.11 87.8993 89.33 88.0393 89.55 88.1093C89.92 88.2893 90.44 88.4693 91.1 88.6193L90.78 89.3293C90.43 89.2093 90.12 89.1093 89.86 88.9893V91.2393H88.29C89.15 91.3393 90.04 91.4793 90.96 91.6493L90.7 92.3693C89.76 92.1293 88.77 91.9593 87.74 91.8393L88.02 91.2393H85.62L85.99 91.7693C85.52 91.9293 85.09 92.0593 84.72 92.1293C84.29 92.2193 83.75 92.3093 83.1 92.4093L82.71 91.6893C83.35 91.6293 83.91 91.5593 84.41 91.4793C84.81 91.4093 85.18 91.3393 85.5 91.2393H83.85V89.0093C83.58 89.1293 83.29 89.2293 83 89.3293L82.61 88.6593C83.31 88.4693 83.87 88.2593 84.27 88.0393C84.45 87.9393 84.63 87.8393 84.79 87.7193H82.86V87.0893H85.21V86.7193H83.75V86.1893H85.21V85.8093H84.11V85.2393H85.21V84.8693H83.79V85.8093H82.93V84.1993H86.47C86.38 84.0293 86.28 83.8593 86.17 83.7093L87.1 83.5693C87.2 83.7593 87.3 83.9693 87.4 84.1993H87.42ZM84.63 88.9993H89.12V88.6593C89.12 88.6593 89.07 88.6293 89.06 88.6193H84.66L84.63 88.6393V88.9893V88.9993ZM84.63 89.4493V89.8193H89.12V89.4493H84.63ZM84.63 90.2793V90.6893H89.12V90.2793H84.63ZM88.32 88.0993C88.19 87.9893 88.07 87.8693 87.95 87.7293H85.79C85.66 87.8693 85.54 87.9993 85.42 88.0993H88.33H88.32ZM87.69 84.8793H86.02V85.2493H87.69V84.8793ZM87.69 85.8193H86.02V86.1993H87.69V85.8193ZM87.69 87.0993V86.7293H86.02V87.0993H87.69Z" fill="#40220F"/>
<path d="M95.85 86.06L96.32 86C96.41 86.17 96.5 86.37 96.59 86.59H100.02V87.22H97.63V87.79H99.74V89.62H97.56V90.35C98.39 90.19 99.09 90 99.67 89.81L100.06 90.38C99.34 90.64 98.51 90.85 97.56 91.02V91.46C97.56 91.6 97.65 91.68 97.85 91.68H99.13C99.24 91.68 99.31 91.65 99.37 91.6C99.42 91.54 99.47 91.28 99.49 90.81L100.24 91.04C100.18 91.66 100.08 92.03 99.93 92.14C99.8 92.25 99.57 92.31 99.25 92.31H97.57C97.33 92.31 97.14 92.24 97 92.13C96.85 92 96.79 91.83 96.79 91.63V89.6H94.61V90.17H96.4V90.77H94.61V91.44C95.31 91.39 95.94 91.32 96.5 91.21V91.89C95.89 92.03 94.82 92.17 93.3 92.3L93.19 91.51C93.42 91.51 93.65 91.49 93.86 91.48V89.59H93.19C93.17 89.95 93.13 90.3 93.07 90.65C92.94 91.27 92.74 91.88 92.47 92.48L91.76 91.81C92.02 91.35 92.19 90.87 92.28 90.37C92.35 89.85 92.4 89.36 92.4 88.92V86.56H95.79C95.74 86.46 95.67 86.36 95.62 86.26H95.11V85.36H93.15V86.26H92.4V84.79H95.86V86.02L95.85 86.06ZM96.03 83.79V84.46H92.28V83.79H96.03ZM94.71 87.24H93.21V87.81H94.71V87.24ZM94.71 89.01V88.44H93.21V89.01H94.71ZM94.53 86.24L93.89 86.39C93.82 86.16 93.74 85.93 93.64 85.71L94.21 85.53C94.33 85.74 94.44 85.97 94.53 86.24ZM96.88 87.25H95.46V87.82H96.88V87.25ZM95.46 89.02H96.88V88.45H95.46V89.02ZM100.1 83.81V84.48H96.36V83.81H100.1ZM99.92 86.32H99.17V85.42H97.24V86.32H96.49V84.85H99.91V86.32H99.92ZM97.64 89.02H99.04V88.45H97.64V89.02ZM98.64 86.28L97.99 86.43C97.92 86.18 97.82 85.94 97.71 85.71L98.28 85.53C98.41 85.75 98.53 86 98.64 86.28Z" fill="#40220F"/>
<path d="M109.14 84.1992V85.0992H105.07C104.78 85.9592 104.48 86.6392 104.17 87.1392C104.15 87.1792 104.13 87.1992 104.13 87.2092H108.54V92.4192H107.68V91.8492H103.94V92.4192H103.08V88.6492C102.66 89.1292 102.17 89.6092 101.62 90.0892L101.08 89.1592C101.95 88.4292 102.62 87.7192 103.11 87.0092C103.49 86.4992 103.84 85.8692 104.15 85.1092H101.16V84.2092H109.14V84.1992ZM107.68 90.9492V88.0992H103.94V90.9492H107.68Z" fill="#40220F"/>
<path d="M98.21 43.8596H98.49C101.43 43.8596 104.37 43.8796 107.31 43.8596C109.76 43.8396 111.67 45.6896 111.96 47.9096C112.31 50.5796 110.51 52.5996 108.45 53.0696C108.42 53.0696 108.38 53.0896 108.32 53.1196C109.54 54.7196 110.74 56.2996 111.96 57.9096C112 57.8496 112.03 57.7996 112.05 57.7596C113.97 53.3996 115.9 49.0496 117.82 44.6896C117.92 44.4496 118.02 44.2096 118.14 43.9796C118.17 43.9196 118.27 43.8496 118.33 43.8496C119.34 43.8496 120.34 43.8496 121.35 43.8496C121.48 43.8496 121.53 43.9096 121.57 44.0196C122.43 45.9896 123.3 47.9496 124.17 49.9196C125.43 52.7596 126.68 55.6096 127.94 58.4496C127.97 58.5196 128 58.5896 128.04 58.6896C127.95 58.6896 127.89 58.7096 127.82 58.7096C126.9 58.7096 125.98 58.7096 125.05 58.7096C124.89 58.7096 124.82 58.6596 124.76 58.5096C124.32 57.4596 123.87 56.4096 123.42 55.3496C123.36 55.2196 123.31 55.1596 123.15 55.1596C120.94 55.1596 118.74 55.1596 116.53 55.1596C116.37 55.1596 116.31 55.2196 116.26 55.3496C115.81 56.4096 115.36 57.4696 114.91 58.5296C114.86 58.6596 114.79 58.7096 114.65 58.7096C112.72 58.7096 110.8 58.7096 108.87 58.7296C108.74 58.7296 108.65 58.6896 108.57 58.5896C106.48 55.8696 104.38 53.1596 102.29 50.4496C102.23 50.3696 102.17 50.2896 102.08 50.1796C102.18 50.1796 102.24 50.1696 102.31 50.1696C103.96 50.1696 105.61 50.1496 107.25 50.1696C108.03 50.1796 108.75 49.5396 108.85 48.7196C108.96 47.9096 108.41 47.0896 107.63 46.8996C107.52 46.8696 107.41 46.8696 107.3 46.8696C105.37 46.8696 103.43 46.8696 101.5 46.8696C101.44 46.8696 101.38 46.8696 101.29 46.8696V58.6996H98.18V43.8796L98.21 43.8596ZM119.89 47.2196C119.89 47.2196 119.85 47.2196 119.84 47.2196C119.13 48.8696 118.42 50.5096 117.71 52.1796H122.06C121.33 50.5096 120.62 48.8596 119.9 47.2196H119.89Z" fill="#40220F"/>
<path d="M36.56 58.6901C36.56 58.2101 36.56 57.7601 36.56 57.3101C36.56 56.8601 36.56 56.4201 36.56 55.9701C36.56 55.7901 36.62 55.7301 36.79 55.7501C36.84 55.7501 36.9 55.7501 36.96 55.7501C39.68 55.7501 42.39 55.7301 45.11 55.7501C46.07 55.7501 46.68 55.0101 46.77 54.3001C46.88 53.4901 46.1 52.6701 45.2 52.6701C43.62 52.6701 42.04 52.6701 40.47 52.6701C39.54 52.6701 38.67 52.4501 37.89 51.9401C35.75 50.5301 35.29 47.5501 36.9 45.5201C37.79 44.3901 38.97 43.8301 40.41 43.8301C43.2 43.8301 46 43.8301 48.79 43.8301C48.86 43.8301 48.93 43.8301 49.02 43.8401V44.0601C49.02 44.9001 49.02 45.7401 49.02 46.5701C49.02 46.7501 48.97 46.8001 48.78 46.8001C46.05 46.8001 43.32 46.8001 40.59 46.8001C39.74 46.8001 39.1 47.4301 39.1 48.2401C39.1 49.0801 39.74 49.7201 40.59 49.7201C42.18 49.7201 43.77 49.7201 45.37 49.7201C46.49 49.7201 47.53 50.0201 48.4 50.7501C49.57 51.7201 50.03 52.9901 49.94 54.4901C49.88 55.5301 49.53 56.4701 48.84 57.2601C48.1 58.1001 47.16 58.5301 46.06 58.6501C45.76 58.6801 45.46 58.6801 45.16 58.6801C42.39 58.6801 39.63 58.6801 36.86 58.6801H36.56V58.6901Z" fill="#40220F"/>
<path d="M66.83 58.6598C66.74 58.6598 66.68 58.6698 66.62 58.6698C65.7 58.6698 64.78 58.6698 63.86 58.6698C63.69 58.6698 63.62 58.6098 63.56 58.4598C63.12 57.4098 62.66 56.3598 62.22 55.2998C62.16 55.1598 62.09 55.1198 61.94 55.1198C59.74 55.1198 57.54 55.1198 55.34 55.1198C55.19 55.1198 55.12 55.1698 55.07 55.2998C54.62 56.3498 54.17 57.3998 53.72 58.4498C53.66 58.5998 53.59 58.6598 53.42 58.6598C52.51 58.6598 51.6 58.6598 50.7 58.6598H50.44C50.63 58.2298 50.8 57.8398 50.98 57.4398C52.95 52.9798 54.93 48.5098 56.9 44.0498C56.98 43.8598 57.08 43.7998 57.28 43.7998C58.22 43.8098 59.17 43.7998 60.11 43.7998C60.25 43.7998 60.32 43.8398 60.37 43.9698C62.5 48.7798 64.63 53.5998 66.76 58.4098C66.79 58.4798 66.81 58.5498 66.85 58.6398L66.83 58.6598ZM58.63 47.1498C57.9 48.8598 57.2 50.5098 56.49 52.1698H60.81C60.08 50.4998 59.37 48.8498 58.64 47.1498H58.63Z" fill="#40220F"/>
<path d="M81.46 43.8799H84.56V44.1599C84.56 47.3199 84.56 50.4899 84.56 53.6499C84.56 54.5999 85.21 55.4699 86.11 55.6999C86.29 55.7499 86.48 55.7599 86.67 55.7699C87.89 55.7699 89.1 55.7699 90.32 55.7699C91.56 55.7699 92.49 54.8499 92.49 53.5999C92.49 50.4599 92.49 47.3299 92.49 44.1899V43.8799H95.6V44.1199C95.6 47.2299 95.6 50.3499 95.6 53.4599C95.6 55.9799 93.56 58.2999 91.06 58.6199C90.82 58.6499 90.57 58.6699 90.33 58.6699C89.07 58.6699 87.82 58.6799 86.56 58.6599C84.53 58.6199 83.09 57.6299 82.13 55.8899C81.67 55.0599 81.45 54.1799 81.46 53.2299C81.48 50.2199 81.46 47.2099 81.46 44.1999V43.8899V43.8799Z" fill="#40220F"/>
<path d="M80.76 58.6801H79.44C78.64 58.6801 77.85 58.6801 77.05 58.6801C76.9 58.6801 76.79 58.6401 76.69 58.5201C74.88 56.3801 73.06 54.2501 71.25 52.1201C71.18 52.0401 71.11 51.9601 71.01 51.8401V58.6801H67.9V43.8801H70.99V49.7001C70.99 49.7001 71.04 49.7301 71.06 49.7401C71.1 49.6801 71.13 49.6201 71.17 49.5701C72.81 47.7301 74.45 45.8901 76.08 44.0501C76.2 43.9201 76.32 43.8701 76.49 43.8701C77.64 43.8701 78.78 43.8701 79.93 43.8701H80.17C78.12 46.2201 76.1 48.5401 74.06 50.8801C76.28 53.4701 78.49 56.0501 80.75 58.6801H80.76Z" fill="#40220F"/>
</svg>
