<svg width="460" height="80" viewBox="0 0 460 80" fill="none" xmlns="http://www.w3.org/2000/svg">
<g clip-path="url(#clip0_515_232517)">
<path d="M460 80V0L0 0V80L460 80Z" fill="url(#paint0_linear_515_232517)"/>
<path d="M348.7 31.8906V49.8006" stroke="#703E1E" stroke-width="0.25" stroke-miterlimit="10"/>
<path d="M25 41.3096C26.45 38.7796 27.99 34.2996 28.87 30.1096L31.3 30.8596C31.22 31.1196 31.08 31.2896 30.54 31.2696C30.06 32.8096 29.48 34.3296 28.85 35.7296L29.61 36.0296C29.55 36.2196 29.37 36.3696 29.01 36.4396V49.5096C28.99 49.6396 28.33 50.0496 27.71 50.0496H27.43V38.4996C26.75 39.6596 26.03 40.6596 25.28 41.5196L25 41.3296V41.3096ZM39.27 40.1496C42.18 40.2596 43.12 41.4596 43.12 42.2696C43.12 42.7196 42.86 43.0596 42.46 43.0596C42.36 43.0596 42.26 43.0396 42.16 42.9996L43.91 44.3296C43.75 44.6296 43.53 44.7396 42.97 44.7396H39.8V47.8896C39.8 49.1296 39.54 49.9296 37.55 50.1196C37.55 48.9796 37.09 48.7496 35.62 48.5996V48.2996H37.85C38.15 48.2996 38.23 48.1896 38.23 47.9096V44.7396H30.36L30.24 44.2696H38.23V42.3596L40.58 42.5296C40.56 42.8096 40.44 42.9396 39.8 43.0196V44.2596H41.18L42.12 42.9696L41.98 42.9096C41.74 42.5196 41.38 42.0996 40.96 41.6896C38.71 42.0496 35.74 42.4396 31.73 42.9496C31.61 43.2296 31.39 43.3596 31.17 43.3996L30.47 41.4296C31.63 41.4496 33.66 41.4296 36.11 41.3396V39.4996H33.4V39.9096C33.4 39.9096 33.16 40.5096 31.81 40.5096V33.8296L33.52 34.6196H36.11V32.8596H30.81L30.69 32.3896H36.11V30.0996L38.6 30.3396C38.58 30.6796 38.34 30.8096 37.7 30.9196V32.3996H40.71L41.73 31.0096L43.66 32.4496C43.5 32.7696 43.26 32.8796 42.7 32.8796H37.7V34.6396H40.29L40.95 33.7196L42.84 35.1096C42.72 35.2596 42.42 35.4296 42.08 35.5196V39.6996C42.08 39.6996 41.58 40.0896 40.47 40.0896V39.5296H37.7V41.3296L40.41 41.2396C40.01 40.9196 39.59 40.6196 39.19 40.4296L39.25 40.1696L39.27 40.1496ZM32.2 45.0996C34.51 45.5096 35.25 46.4696 35.25 47.2196C35.25 47.7596 34.85 48.1596 34.41 48.1596C34.19 48.1596 33.95 48.0696 33.73 47.8396C33.51 46.9596 32.81 45.8896 32.08 45.2896L32.2 45.0996ZM36.13 35.0996H33.42V36.8096H36.13V35.0996ZM33.42 39.0196H36.13V37.2796H33.42V39.0196ZM40.49 35.0996H37.72V36.8096H40.49V35.0996ZM37.72 39.0196H40.49V37.2796H37.72V39.0196Z" fill="#F8F7F0"/>
<path d="M57.73 36.84C58.09 38.58 58.67 40.1 59.42 41.4C60.58 40.37 61.85 39 62.49 38.06L64.36 39.37C64.26 39.52 64.16 39.61 63.96 39.61C63.86 39.61 63.74 39.59 63.6 39.55C62.66 40.28 61.13 41.2 59.67 41.86C61.08 44.09 63.04 45.7 65.39 46.72L65.33 46.96C64.63 47.02 64.05 47.54 63.74 48.37C60.19 46.14 58.16 42.56 57.3 36.84H56.88C56.18 37.5 55.35 38.1 54.43 38.64C56.98 40.57 57.96 43.42 57.96 45.75C57.96 47.25 57.56 48.54 56.88 49.24C56.42 49.78 55.66 50.03 54.59 50.03C54.55 48.77 53.95 48.62 52.54 48.4V48.08C53.34 48.1 54.49 48.1 54.99 48.1C55.25 48.1 55.49 48.08 55.63 47.93C56.11 47.39 56.37 46.37 56.37 45.12C56.37 44.91 56.37 44.67 56.35 44.43C53.86 46.14 50.27 47.58 46.88 48.2L46.78 47.84C50.25 46.81 53.91 44.76 55.99 42.48C55.89 42.09 55.73 41.69 55.57 41.28C53.38 42.61 50.13 43.96 47.26 44.62L47.16 44.28C49.87 43.29 52.98 41.49 54.77 39.8C54.55 39.48 54.29 39.16 54.03 38.84C52.16 39.87 49.92 40.68 47.63 41.22L47.49 40.86C50.18 39.9 52.77 38.4 54.52 36.83H49.86L49.74 36.36H59.33L60.33 35.01L62.18 36.42C62.02 36.72 61.78 36.83 61.24 36.83H57.71L57.73 36.84ZM62.07 36.13C62.31 35.53 62.65 34.4 62.85 33.56H49.8C49.8 35.44 48.74 36.41 47.77 36.41C47.17 36.41 46.89 36.07 46.89 35.64C46.89 35.23 47.17 34.87 47.55 34.65C48.41 34.29 49.26 33.19 49.26 31.93L49.58 31.91C49.7 32.34 49.76 32.72 49.78 33.09H55.26V30L57.81 30.26C57.79 30.58 57.59 30.73 56.91 30.84V33.09H62.73L63.69 32.04L65.38 33.8C65.22 33.97 65 34.01 64.6 34.04C64.04 34.75 63.07 35.78 62.31 36.31L62.07 36.14V36.13Z" fill="#F8F7F0"/>
<path d="M82.71 39.6803H78.01C78.83 42.8703 81.2 46.1903 87.12 48.3103L87.08 48.5703C86.22 48.7003 85.67 49.0803 85.51 50.0703C79.99 47.4603 78.3 43.2403 77.64 39.6803H73.61C73.37 43.2403 72.41 47.2203 68.85 50.0503L68.59 49.8403C71.6 46.1803 72.06 41.6803 72.06 37.3303V31.5003L73.95 32.3103H82.52L83.22 31.3203L85.17 32.8003C85.03 32.9703 84.73 33.1603 84.33 33.2503V40.3603C84.33 40.4203 83.83 40.8703 82.72 40.8703V39.6703L82.71 39.6803ZM73.66 32.7803V37.3203C73.66 37.9203 73.66 38.5603 73.62 39.2003H82.71V32.7703H73.66V32.7803Z" fill="#F8F7F0"/>
<path d="M93.73 37.2204V38.6304C93.73 42.1604 93.57 46.8604 90.54 50.0704L90.26 49.8604C92.01 46.5604 92.15 42.4304 92.15 38.6604V32.5104L94 33.3204H99.26V30.1104L101.75 30.3504C101.71 30.6704 101.49 30.8204 100.83 30.9304V33.3304H105.85L106.89 31.8504L108.82 33.3704C108.66 33.6704 108.42 33.8004 107.84 33.8004H93.71V36.7604H96.96V34.4704L99.33 34.6804C99.29 34.9604 99.11 35.1304 98.53 35.1904V36.7504H102.97V34.4604L105.32 34.6704C105.3 34.9504 105.12 35.1004 104.56 35.1604V36.7504H105.89L106.85 35.3804L108.62 36.7904C108.48 37.1104 108.24 37.2204 107.68 37.2204H104.55V41.1804C104.55 41.2404 104.25 41.7404 102.96 41.7404V40.6704H98.52V41.3104C98.52 41.3104 98.24 41.8704 96.95 41.8704V37.2204H93.7H93.73ZM104.85 41.7604L106.44 43.3704C106.26 43.5604 106.04 43.6304 105.54 43.6504C104.66 44.9404 103.55 46.0104 102.19 46.8804C104.16 47.6104 106.45 48.0204 108.85 48.2104L108.83 48.4704C108.13 48.6404 107.67 49.2204 107.53 50.0604C104.9 49.6104 102.59 48.9004 100.69 47.7504C98.46 48.8604 95.77 49.5904 92.68 50.0204L92.58 49.6604C95.29 49.0804 97.7 48.2504 99.67 47.0504C98.39 46.0604 97.34 44.8204 96.58 43.2404H94.33L94.19 42.7704H103.76L104.84 41.7804L104.85 41.7604ZM97.08 43.2204C97.96 44.5304 99.25 45.5304 100.81 46.3104C102.01 45.4304 103 44.4004 103.74 43.2204H97.08ZM103 37.2204H98.56V40.1804H103V37.2204Z" fill="#F8F7F0"/>
<path d="M112.53 50.2504C113.23 49.8604 113.77 49.1604 113.94 48.1704C113.84 48.1904 113.74 48.2104 113.62 48.2104C112.9 48.2104 112.27 47.5704 112.27 46.6904C112.27 45.8104 112.95 45.1504 113.67 45.1504C114.51 45.1504 115.22 45.8604 115.22 46.9904C115.22 48.4704 114.28 50.1404 112.87 50.7004L112.53 50.2504Z" fill="#F8F7F0"/>
<path d="M124.96 43.5399C125.16 44.4999 125.24 45.2799 125.24 45.9399C125.24 47.7999 124.54 48.4899 124.02 48.4899C123.7 48.4899 123.44 48.2299 123.44 47.8699C123.44 47.6799 123.5 47.4599 123.64 47.2299C124.26 46.6099 124.6 45.2799 124.64 43.5399H124.96ZM129.86 40.7099L130.54 39.8299L132.17 41.1999C132.03 41.3699 131.79 41.4599 131.39 41.5399C131.23 46.3799 130.93 48.7399 130.15 49.4199C129.65 49.8299 129.13 49.9999 128.26 50.0199C128.26 49.0099 127.94 48.9099 126.65 48.6699L126.67 48.3099C127.19 48.3299 128.2 48.3699 128.6 48.3699C128.92 48.3699 129.04 48.3499 129.2 48.1999C129.5 47.8799 129.7 46.8299 129.86 44.9199C129.76 45.0499 129.64 45.1099 129.48 45.1099C129.36 45.1099 129.2 45.0499 129.06 44.9199C128.98 44.1899 128.42 43.2299 127.88 42.7299L128.04 42.5399C129.16 42.8999 129.71 43.4399 129.91 43.9499C129.97 43.1399 130.01 42.2099 130.03 41.1899H125.91V41.8799C125.91 41.9899 125.47 42.3699 124.77 42.3699H124.55V30.9499L126.14 31.6799H129.37L130.25 30.4799L131.94 31.7399C131.78 32.0399 131.52 32.1499 131 32.1499H128.73V34.6299H129.29L130.07 33.5399L131.56 34.6999C131.4 34.9999 131.16 35.1099 130.64 35.1099H128.73V37.6199H129.23L130.01 36.5299L131.5 37.6899C131.34 37.9899 131.1 38.1199 130.58 38.1199H128.73V40.7099H129.85H129.86ZM125.91 43.3899C126.71 44.4399 126.99 45.4499 126.99 46.1999C126.99 47.0799 126.63 47.6399 126.25 47.6399C126.09 47.6399 125.93 47.5299 125.79 47.3199C126.05 46.1599 125.91 44.5099 125.63 43.4899L125.91 43.3999V43.3899ZM127.4 32.1599H125.91V34.6399H127.4V32.1599ZM127.4 37.6199V35.1099H125.91V37.6199H127.4ZM125.91 38.1099V40.6999H127.4V38.1099H125.91ZM126.95 42.9899C128.21 43.9799 128.62 44.9799 128.62 45.6899C128.62 46.2499 128.34 46.6099 128.04 46.6099C127.9 46.6099 127.74 46.5199 127.6 46.3499C127.62 45.3399 127.18 43.9499 126.7 43.1199L126.94 42.9899H126.95ZM142.39 34.1899C142.25 34.4899 141.99 34.5999 141.45 34.5999H138.62C139.6 35.6499 141.21 36.4599 142.55 36.8499L142.53 37.0899C141.99 37.1799 141.61 37.5999 141.47 38.3299C140.97 38.0499 140.47 37.6899 140.01 37.2399C139.91 37.3299 139.77 37.4099 139.61 37.4299V40.1499C139.61 40.2099 139.23 40.5999 138.26 40.5999V39.8699H135.29V40.2299C135.29 40.2299 135.07 40.7199 133.93 40.7199V37.0299C133.21 37.6699 132.42 38.2699 131.5 38.7899L131.28 38.4299C132.66 37.3599 133.75 36.0699 134.55 34.5899H131.8L131.66 34.1199H134.81C135.09 33.5399 135.35 32.9199 135.57 32.2799C134.51 32.3899 133.44 32.4499 132.42 32.4699L132.34 32.0799C134.87 31.6699 138.06 30.8199 139.75 30.1699L141.2 31.7599C141.1 31.8199 140.98 31.8699 140.84 31.8699C140.66 31.8699 140.44 31.8099 140.18 31.6999C139.32 31.8499 138.27 31.9999 137.15 32.1299C136.91 32.8399 136.61 33.4999 136.25 34.1199H139.66L140.6 32.8599L142.37 34.1899H142.39ZM139.84 41.5399L140.46 40.6599L142.23 42.0099C142.11 42.1799 141.79 42.3299 141.43 42.4199V47.8999C141.43 49.0599 141.17 49.8899 139.44 50.0899C139.44 48.8499 138.96 48.6099 137.71 48.4999V48.1999H139.7C139.96 48.1999 140.02 48.1099 140.02 47.8599V42.0099H133.64V49.5299C133.64 49.5299 133.48 50.0699 132.26 50.0699V40.8399L133.73 41.5499H139.83L139.84 41.5399ZM139.42 36.6299C138.88 36.0299 138.42 35.3399 138.04 34.5899H135.99C135.59 35.2299 135.11 35.8299 134.59 36.3899L135.39 36.7499H138.14L138.64 36.0399L139.42 36.6199V36.6299ZM137.73 46.8499H135.88V47.6399C135.88 47.6399 135.68 48.0499 134.76 48.0499V42.8899L135.96 43.4699H137.59L138.05 42.8499L139.4 43.8599C139.3 43.9899 139.08 44.0999 138.84 44.1599V47.1599C138.84 47.1599 138.48 47.5899 137.72 47.5899V46.8599L137.73 46.8499ZM135.3 39.3699H138.27V37.2299H135.3V39.3699ZM137.73 43.9499H135.88V46.3499H137.73V43.9499Z" fill="#F8F7F0"/>
<path d="M145.18 41.1403C146.42 38.5703 147.69 34.1303 148.43 30.1103L150.76 30.7503C150.7 31.0303 150.54 31.1603 150.02 31.1803C149.58 32.7203 149.08 34.2603 148.51 35.7003L149.39 36.0603C149.33 36.2503 149.15 36.4003 148.79 36.4503V49.5403C148.77 49.6503 148.13 50.0303 147.55 50.0303H147.27V38.4203C146.71 39.5103 146.09 40.5003 145.46 41.3103L145.18 41.1403ZM155.42 42.1903L157.07 43.5203C156.95 43.6903 156.71 43.8003 156.33 43.8603C156.19 49.0403 155.91 49.8803 153.64 49.9403C153.64 48.9803 153.3 48.7603 152.23 48.5703V48.2303C152.65 48.2503 153.54 48.2703 153.88 48.2703C154.14 48.2703 154.28 48.2503 154.38 48.1403C154.68 47.8203 154.82 46.4503 154.92 43.5103H153.03C152.57 46.0803 151.63 48.5703 149.66 50.0403L149.44 49.7003C151.19 47.7303 151.75 44.2203 151.79 40.9203H149.92L149.8 40.4303H152.69V37.3903L154.96 37.6003C154.94 37.9003 154.76 38.0303 154.2 38.1103V40.4203H155.06L155.96 39.1603L157.65 40.4903C157.51 40.7903 157.25 40.9203 156.73 40.9203H154.02C153.92 41.0703 153.7 41.1303 153.32 41.1603C153.28 41.7803 153.2 42.4003 153.1 43.0503H154.73L155.41 42.1903H155.42ZM164.29 34.8403C164.13 35.1403 163.87 35.2503 163.35 35.2503H163.05C162.75 38.7803 162.19 41.9103 160.94 44.5503C161.8 46.1403 162.89 47.4903 164.31 48.4903L164.25 48.6803C163.51 48.8303 162.99 49.2603 162.76 50.0503C161.64 48.9403 160.81 47.5703 160.15 45.9803C159.17 47.5403 157.88 48.9203 156.12 50.0503L155.96 49.7303C157.63 48.2903 158.81 46.5603 159.65 44.5703C158.97 42.4703 158.59 40.0903 158.37 37.5603C157.95 38.4203 157.49 39.1703 156.99 39.8103L156.67 39.6203C157.01 38.8703 157.33 37.8803 157.61 36.7903C157.45 36.9803 157.23 37.0703 156.81 37.0703H150.01L149.89 36.6003H152.8V33.5603H150.51L150.39 33.0903H152.8V30.1303L155.09 30.3403C155.05 30.6403 154.87 30.7703 154.31 30.8503V33.0803H154.91L155.77 31.8203L157.38 33.1303C157.22 33.4503 156.98 33.5603 156.46 33.5603H154.31V36.6003H155.23L156.09 35.3103L157.66 36.6003C158.12 34.6503 158.48 32.3203 158.64 30.0703L161.01 30.5603C160.95 30.8403 160.81 30.9903 160.31 31.0303C160.07 32.3403 159.77 33.6003 159.41 34.7803H161.64L162.54 33.4103L164.27 34.8503L164.29 34.8403ZM159.27 35.2503C159.09 35.7903 158.91 36.3003 158.69 36.8103C158.99 39.0403 159.49 41.1403 160.2 42.9603C160.92 40.6703 161.28 38.0803 161.46 35.2503H159.27Z" fill="#F8F7F0"/>
<path d="M182.28 34.2597L183.97 35.9497C183.81 36.1397 183.61 36.2097 183.09 36.2297C180.64 39.9797 176.63 43.7497 172.01 46.2097C173.36 47.4497 175.3 47.6497 178.27 47.6497C179.94 47.6497 183.97 47.6497 185.72 47.6097V47.8897C185.12 48.0197 184.82 48.5997 184.78 49.2997H178.2C174.19 49.2997 172.14 48.5497 170.71 45.0797C170.15 46.2797 169.37 47.9297 168.92 48.8097C169.02 48.9397 169.06 49.0697 169.06 49.1997C169.06 49.3697 169 49.5197 168.9 49.6497L167.29 48.0197C168.13 47.2297 169.56 45.6897 170.4 44.6097L170.78 42.8997L171.82 43.1797L170.88 44.7197C171.14 45.1897 171.42 45.5997 171.72 45.9197C175.47 43.3697 179.15 39.4497 181.17 35.8097H168.5L168.36 35.3397H175.57V30.1797L178.12 30.4197C178.1 30.7597 177.88 30.9097 177.22 30.9997V35.3497H181.19L182.29 34.2797L182.28 34.2597Z" fill="#F8F7F0"/>
<path d="M194.09 46.8596C195.58 46.0696 197.12 44.5896 197.82 43.5396L199.83 44.6796C199.75 44.8496 199.57 44.9196 199.29 44.9196C199.17 44.9196 199.03 44.9196 198.87 44.8796C197.87 45.7396 196.08 46.6596 194.33 47.1496C195.49 47.7896 196.98 47.9196 199.47 47.9196C201.96 47.9196 205.05 47.8996 207.54 47.8096V48.1096C206.86 48.2596 206.46 48.7296 206.38 49.5496H199.48C195.73 49.5496 194.1 48.9896 192.68 46.3796C191.94 47.3896 190.79 48.7596 190.05 49.5096C190.09 49.7896 189.99 49.9196 189.83 50.0196L188.77 48.0096C189.45 47.7096 190.44 47.1296 191.42 46.5296V39.9096H188.95L188.87 39.3996H191.14L192.02 38.1596L193.91 39.8496C193.77 40.0196 193.47 40.1896 192.93 40.2796V45.9796C193.31 46.4496 193.71 46.7896 194.15 47.0696L194.07 46.8796L194.09 46.8596ZM189.41 30.7496C192.16 31.5896 193.04 32.9996 193.04 34.0096C193.04 34.6696 192.64 35.1696 192.16 35.1696C191.94 35.1696 191.7 35.0596 191.46 34.8296C191.26 33.4996 190.26 31.8496 189.25 30.9296L189.41 30.7596V30.7496ZM197.82 31.5896H193.95L193.81 31.1196H197.64L198.24 30.3296L199.91 31.5696C199.81 31.7196 199.55 31.8696 199.23 31.9296V34.2396C199.23 34.2396 198.79 34.7096 197.81 34.7096V34.0696H195.66V35.6296C195.66 35.9029 195.813 36.0396 196.12 36.0396H198.33C198.91 36.0396 199.03 36.0396 199.55 34.8596H199.71L199.75 35.9296C200.27 36.1196 200.37 36.1696 200.37 36.3996C200.37 36.9596 199.89 37.2796 198.46 37.2796H195.95C194.5 37.2796 194.3 36.9196 194.3 35.5896V32.8496L195.91 33.5796H197.82V31.5896ZM205.61 41.5696L207.46 42.9596C207.3 43.2796 207.08 43.3896 206.52 43.3896H193.97L193.85 42.8996H197.28V40.1796H194.75L194.63 39.7096H197.28V37.5896L199.43 37.7796C199.41 38.0196 199.27 38.1196 198.81 38.1896V39.7096H201.78V37.5896L203.95 37.7796C203.93 38.0196 203.79 38.1196 203.33 38.2096V39.7096H204.03L204.93 38.4896L206.64 39.7796C206.48 40.0796 206.26 40.1896 205.72 40.1896H203.33V42.9096H204.64L205.6 41.5796L205.61 41.5696ZM198.81 40.1796V42.8996H201.78V40.1796H198.81ZM204.73 31.5896H200.72L200.58 31.1196H204.55L205.13 30.3096L206.84 31.5996C206.74 31.7296 206.48 31.8796 206.16 31.9396V34.2496C206.16 34.2496 205.72 34.7196 204.73 34.7196V34.0796H202.46V35.6396C202.46 35.9129 202.627 36.0496 202.96 36.0496H205.35C205.87 36.0496 206.09 36.0496 206.59 34.7896H206.77V35.9496C207.33 36.1396 207.41 36.1896 207.41 36.4196C207.41 36.9796 206.93 37.3196 205.46 37.3196H202.79C201.32 37.3196 201.1 36.9296 201.1 35.6096V32.8696L202.71 33.5996H204.74V31.6096L204.73 31.5896ZM201.5 43.9296C205.51 44.4396 206.66 45.5996 206.66 46.3896C206.66 46.8596 206.24 47.2296 205.74 47.2296C205.48 47.2296 205.2 47.1196 204.96 46.8896C204.34 46.0496 203.13 45.0496 201.37 44.2496L201.49 43.9296H201.5Z" fill="#F8F7F0"/>
<path d="M364.58 36.4711L365.65 37.2111C365.58 37.3511 365.46 37.4111 365.16 37.4111H361.35V41.1211C361.35 41.1811 361.08 41.3811 360.65 41.3811H360.51V37.4011H356.29L356.23 37.1711H360.51V33.0211H356.89L356.83 32.8011H363.5L364.08 32.0811L365.15 32.8211C365.07 32.9711 364.95 33.0211 364.65 33.0211H361.35V37.1711H364.01L364.58 36.4611V36.4711ZM357.73 33.6311C358.89 34.4311 359.27 35.2711 359.27 35.8511C359.27 36.2911 359.04 36.6011 358.77 36.6011C358.65 36.6011 358.53 36.5311 358.41 36.4011C358.43 35.5511 358.04 34.4011 357.6 33.7111L357.73 33.6411V33.6311ZM364.65 33.9211C364.61 34.0411 364.52 34.1011 364.27 34.0911C363.76 35.0611 363.12 36.0611 362.49 36.7211L362.34 36.6411C362.69 35.8811 363.14 34.6311 363.44 33.5011L364.65 33.9111V33.9211Z" fill="#703E1E"/>
<path d="M377.23 32.8809C377.15 33.0209 377.03 33.0809 376.74 33.0809H373.02C372.69 33.7109 372.24 34.4709 371.89 34.9709H375.42L375.81 34.4609L376.78 35.2009C376.71 35.2809 376.59 35.3409 376.36 35.3809V41.0309C376.36 41.0809 376.06 41.2709 375.66 41.2709H375.52V40.6309H369.42V41.1109C369.42 41.1709 369.17 41.3709 368.75 41.3709H368.61V34.5909L369.54 34.9609H371.58C371.67 34.4509 371.79 33.6709 371.87 33.0709H367.86L367.8 32.8509H375.59L376.15 32.1309L377.22 32.8709L377.23 32.8809ZM369.42 35.2009V40.4209H370.92V35.2009H369.42ZM373.23 36.7609V35.2009H371.68V36.7609H373.23ZM373.23 38.5609V36.9809H371.68V38.5609H373.23ZM371.68 38.7909V40.4209H373.23V38.7909H371.68ZM375.51 35.2009H373.99V40.4209H375.51V35.2009Z" fill="#703E1E"/>
<path d="M382.95 32.6908L383.44 32.0508L384.33 32.7208C384.25 32.8608 384.13 32.9108 383.85 32.9108H382.59V34.7208H382.93L383.27 34.2908L384.17 34.9508C384.11 35.0308 383.95 35.1108 383.76 35.1508V40.7808C383.76 40.7808 383.56 41.0308 383.03 41.0308V40.4208H380.4V41.1008C380.4 41.1008 380.32 41.3808 379.7 41.3808V34.3708L380.46 34.7108H380.81V32.9008H379.32L379.26 32.6808H382.94L382.95 32.6908ZM383.03 37.3308C382.94 37.3508 382.83 37.3608 382.69 37.3608C382 37.3608 381.96 37.3608 381.96 36.5808V34.9508H381.42V35.3308C381.42 36.0408 381.36 37.1308 380.46 37.8808L380.4 37.8208V38.4908H383.03V37.3308ZM380.9 34.9508H380.4V37.6308C380.88 36.8608 380.9 35.9908 380.9 35.3208V34.9508ZM380.4 40.2008H383.03V38.7108H380.4V40.2008ZM381.96 34.7208V32.9108H381.42V34.7208H381.96ZM383.03 34.9508H382.49V36.7808C382.49 36.8474 382.5 36.8808 382.52 36.8808C382.7 36.8808 382.76 36.8808 382.9 36.6308H382.97L383.02 36.8708V34.9508H383.03ZM388.43 38.7808L388.41 40.3008C388.75 40.4208 388.81 40.4508 388.81 40.5708C388.81 40.8808 388.52 41.0708 387.59 41.0708H385.67C384.74 41.0708 384.55 40.8908 384.55 40.0608V35.8708L385.45 36.2408H387.38V32.9608H384.48L384.41 32.7408H387.26L387.62 32.2508L388.63 32.9908C388.56 33.0808 388.37 33.1708 388.13 33.2108V36.7908C388.13 36.7908 387.89 37.0208 387.37 37.0208V36.4508H385.32V40.0508C385.32 40.3408 385.33 40.3608 385.69 40.3608H387.52C387.71 40.3608 387.82 40.3608 387.91 40.2008C388 40.0408 388.14 39.5608 388.31 38.7608H388.41L388.43 38.7808Z" fill="#703E1E"/>
<path d="M399.34 34.6308L400.29 35.2408C400.21 35.3808 400.09 35.4408 399.8 35.4408H395.92C395.87 35.7508 395.81 36.0708 395.77 36.3208H397.89L398.24 35.8508L399.22 36.5508C399.15 36.6308 399 36.7108 398.78 36.7508V39.8508C398.78 39.8508 398.55 40.1108 397.98 40.1108V39.7108H394.21V39.8908C394.21 39.8908 394.11 40.1808 393.42 40.1808V35.9408L394.28 36.3108H395.12C395.13 36.0708 395.15 35.7508 395.17 35.4308H390.93L390.87 35.2008H395.18L395.21 34.3008H392.48V34.4908C392.48 34.4908 392.35 34.7608 391.68 34.7608V32.1508L392.55 32.5108H398.54L398.88 32.0508L399.87 32.7408C399.8 32.8208 399.64 32.9008 399.43 32.9508V34.4708C399.43 34.4708 399.19 34.6908 398.63 34.6908V34.2908H396.08L396.4 34.3208C396.38 34.4708 396.29 34.5508 396.04 34.5808C396.01 34.7608 395.98 34.9708 395.94 35.1908H398.83L399.32 34.6108L399.34 34.6308ZM398.73 40.5408L399.25 39.8708L400.22 40.5608C400.14 40.7008 400.02 40.7608 399.72 40.7608H392.36V41.1208C392.36 41.1208 392.23 41.3608 391.57 41.3608V36.2408L392.73 36.3408C392.72 36.4708 392.64 36.5408 392.36 36.5708V40.5308H398.73V40.5408ZM392.49 32.7508V34.0808H394.01V32.7508H392.49ZM397.99 36.5408H394.22V37.3608H397.99V36.5408ZM394.22 37.5808V38.4108H397.99V37.5808H394.22ZM394.22 39.4808H397.99V38.6308H394.22V39.4808ZM396.32 32.7408H394.75V34.0708H396.32V32.7408ZM398.65 32.7408H397.07V34.0708H398.65V32.7408Z" fill="#703E1E"/>
<path d="M410.76 35.4906C410.64 35.2806 410.49 35.0906 410.35 34.9406L410.43 34.8606C411.39 35.1306 411.69 35.5806 411.69 35.9206C411.69 36.1606 411.53 36.3506 411.33 36.3506C411.24 36.3506 411.14 36.3106 411.05 36.2206C411.03 36.0706 410.97 35.8906 410.89 35.7106C410.41 35.8306 409.77 35.9706 408.9 36.1506C408.88 36.1906 408.86 36.2206 408.83 36.2506C409.73 36.7906 410.81 37.2106 411.96 37.4706L411.94 37.6206C411.6 37.7306 411.39 38.0206 411.31 38.3306C409.52 37.6606 408.05 36.5906 407.23 35.2306C406.31 36.4506 404.5 37.8306 402.36 38.5206L402.3 38.3706C403.47 37.8206 404.59 37.0106 405.42 36.1506C405.38 36.1206 405.33 36.0906 405.29 36.0406C405.29 35.9406 405.25 35.8406 405.21 35.7306C404.72 35.8506 404.05 36.0106 403.17 36.2206C403.11 36.3506 403.02 36.4106 402.92 36.4206L402.54 35.5906C402.74 35.5906 403.04 35.5906 403.39 35.5806C403.6 35.1406 403.82 34.5906 403.95 34.1406L403.75 34.1606C403.68 34.2806 403.58 34.3506 403.48 34.3706L402.97 33.4106C403.53 33.4206 404.29 33.4206 404.94 33.4106C405.18 32.9306 405.43 32.3606 405.58 31.8906L406.74 32.3406C406.7 32.4206 406.63 32.4606 406.5 32.4606C406.46 32.4606 406.41 32.4606 406.36 32.4506C406.12 32.7406 405.75 33.1006 405.38 33.4006C406.51 33.4006 407.86 33.3706 409.3 33.3406C408.84 33.0506 408.36 32.7906 407.93 32.6306L407.95 32.4906C410.25 32.6306 411.01 33.5006 411.01 34.0006C411.01 34.2106 410.88 34.3506 410.68 34.3506C410.62 34.3506 410.55 34.3406 410.48 34.3106C410.29 34.0706 410 33.8206 409.67 33.5806C408.33 33.7406 406.55 33.9106 404.14 34.1306L405.01 34.4106C404.97 34.5206 404.86 34.5506 404.64 34.5306C404.43 34.8506 404.1 35.2406 403.76 35.5606C404.18 35.5606 404.67 35.5306 405.16 35.5106C405.06 35.3106 404.93 35.1206 404.8 34.9806L404.88 34.8906C405.54 35.0906 405.84 35.3706 405.94 35.6106C406.22 35.2706 406.45 34.9206 406.62 34.5906L407.88 34.9106C407.85 35.0406 407.74 35.0906 407.45 35.1106C407.74 35.4206 408.11 35.7306 408.51 36.0006L408.25 35.5106H408.85C409.04 35.0406 409.24 34.4706 409.37 34.0206L410.41 34.3506C410.37 34.4506 410.26 34.4906 410.04 34.4706C409.83 34.7806 409.52 35.1706 409.21 35.4906L410.83 35.4606L410.76 35.4906ZM410.58 39.1406C410.53 39.1906 410.47 39.2206 410.37 39.2206C410.31 39.2206 410.23 39.2106 410.14 39.1806C408.1 40.7906 406.01 41.2106 403.45 41.3906L403.41 41.2006C405.8 40.8306 407.85 40.2506 409.63 38.4906L410.58 39.1506V39.1406ZM408 37.0506C407.96 37.1106 407.9 37.1406 407.8 37.1406C407.75 37.1406 407.69 37.1306 407.61 37.1106C406.51 38.0206 405.11 38.6706 403.69 39.0706L403.59 38.8906C404.86 38.3506 406.15 37.5506 407.11 36.4806L408 37.0506ZM409.26 38.0506C409.22 38.1106 409.16 38.1406 409.07 38.1406C409.02 38.1406 408.95 38.1206 408.86 38.1006C407.41 39.1906 405.73 39.7806 403.94 40.1106L403.87 39.9306C405.51 39.4406 407.1 38.7106 408.37 37.4506L409.26 38.0506Z" fill="#703E1E"/>
<path d="M422.35 34.5209L423.34 35.2309C423.27 35.3709 423.15 35.4309 422.85 35.4309H419.69C419 35.9109 418.24 36.3609 417.44 36.7909L417.36 37.1309C418.76 36.8909 420.38 36.5009 421.27 36.1809L422.05 36.9609C422.05 36.9609 421.95 37.0209 421.87 37.0209C421.77 37.0209 421.65 36.9909 421.52 36.9309C420.42 37.1209 418.78 37.3009 417.31 37.3709C417.24 37.6709 417.16 38.0209 417.08 38.3409H420.94L421.3 37.9009L422.21 38.6009C422.14 38.6709 422.01 38.7309 421.81 38.7509C421.62 39.9009 421.26 40.8309 420.81 41.1409C420.51 41.3109 420.15 41.3809 419.63 41.3809C419.65 40.9209 419.48 40.7709 418.39 40.6209V40.4609C418.85 40.4909 419.68 40.5109 419.94 40.5209C420.13 40.5209 420.24 40.5109 420.34 40.4509C420.59 40.2709 420.85 39.5309 421.01 38.5709H417.02L416.85 39.2609C416.74 39.3109 416.62 39.3409 416.47 39.3409C416.34 39.3409 416.18 39.3209 415.97 39.2609C416.14 38.6609 416.33 37.9209 416.5 37.2609C415.66 37.6509 414.79 38.0009 413.89 38.2709L413.83 38.1109C414.78 37.7209 415.73 37.2309 416.63 36.6909C416.68 36.4809 416.73 36.2809 416.76 36.1109L417.26 36.3009C417.71 36.0309 418.13 35.7309 418.54 35.4309H414.03L413.97 35.2009H417.57V33.6709H414.96L414.9 33.4509H417.57V31.9609L418.79 32.0609C418.78 32.2009 418.68 32.2609 418.39 32.3109V33.4409H419.62L420.14 32.7809L420.96 33.3609C421.3 33.0209 421.62 32.6609 421.88 32.3309L422.85 33.1109C422.8 33.1609 422.75 33.2009 422.67 33.2009C422.6 33.2009 422.52 33.1809 422.42 33.1309C421.78 33.8109 420.97 34.5209 420.02 35.1909H421.82L422.35 34.5109V34.5209ZM418.39 35.2009H418.86C419.52 34.7009 420.12 34.1909 420.66 33.6709H418.39V35.2009Z" fill="#703E1E"/>
<path d="M433.82 32.1706L434.78 32.8806C434.71 32.9706 434.55 33.0506 434.34 33.0906V40.9706C434.34 40.9706 434.14 41.2506 433.54 41.2506V40.6806H426.8V41.0306C426.8 41.0306 426.74 41.3606 426.02 41.3606V32.2406L426.88 32.6306H433.44L433.81 32.1406L433.82 32.1706ZM426.81 40.4706H433.55V32.8806H426.81V40.4706ZM432.49 35.1606L433.3 35.7106C433.21 35.8506 433.1 35.9006 432.83 35.9006H427.2L427.13 35.6806H429.8V34.9406H428.82V35.0506C428.82 35.0506 428.68 35.2906 428.1 35.2906V33.3206L428.87 33.6506H431.46L431.75 33.2706L432.6 33.8706C432.55 33.9306 432.43 34.0106 432.27 34.0306V35.0306C432.27 35.0306 432.05 35.2406 431.54 35.2406V34.9406H430.53V35.6806H432.08L432.5 35.1606H432.49ZM431.83 36.5506L432.12 36.1706L432.95 36.7606C432.9 36.8306 432.77 36.9006 432.62 36.9206V39.8206C432.62 39.8206 432.41 40.0406 431.92 40.0406V39.6006H428.43V39.8506C428.43 39.8506 428.35 40.0906 427.74 40.0906V36.2206L428.49 36.5506H431.83ZM428.43 39.3706H431.92V36.7706H428.43V39.3706ZM428.81 34.7206H431.53V33.8806H428.81V34.7206ZM430.89 37.0906L431.58 37.5806C431.53 37.6306 431.42 37.6906 431.3 37.7206V38.8406C431.3 38.8406 431.13 39.0406 430.72 39.0406V38.7006H429.63V38.9006C429.63 38.9006 429.41 39.0806 429.15 39.0806H429.06V37.1106L429.68 37.3906H430.65L430.89 37.0906ZM429.63 38.4706H430.72V37.6206H429.63V38.4706Z" fill="#703E1E"/>
<path d="M290.6 50.0904C290.35 50.0504 290.11 50.0404 289.88 50.0404H288.45C288.22 50.0404 287.99 50.0604 287.73 50.0904C287.6 49.6804 287.43 49.1804 287.22 48.5904C287 48.0104 286.77 47.3904 286.5 46.7504C286.24 46.1104 285.97 45.4604 285.7 44.8104C285.43 44.1504 285.18 43.5304 284.94 42.9304C284.36 42.9104 283.78 42.9004 283.19 42.8904C282.6 42.8904 282 42.8804 281.41 42.8804C280.85 42.8804 280.3 42.8804 279.76 42.8904C279.22 42.8904 278.67 42.9104 278.11 42.9304C277.53 44.3304 277.01 45.6704 276.54 46.9404C276.07 48.2104 275.72 49.2604 275.49 50.0904C275.18 50.0504 274.85 50.0404 274.49 50.0404C274.13 50.0404 273.8 50.0604 273.49 50.0904C274.95 46.9404 276.37 43.8104 277.76 40.6904C279.15 37.5804 280.54 34.4104 281.94 31.1904H282.45C282.88 32.2304 283.35 33.3604 283.85 34.5804C284.35 35.7904 284.87 37.0204 285.39 38.2704C285.91 39.5104 286.43 40.7404 286.96 41.9704C287.48 43.1904 287.97 44.3304 288.43 45.3804C288.89 46.4304 289.3 47.3704 289.67 48.2004C290.04 49.0304 290.34 49.6604 290.57 50.0904H290.6ZM278.64 41.6904C279.11 41.6904 279.59 41.6904 280.1 41.7204C280.6 41.7404 281.09 41.7504 281.56 41.7504C282.06 41.7504 282.57 41.7504 283.07 41.7404C283.57 41.7304 284.08 41.7204 284.58 41.7004L281.58 34.8404L278.64 41.7004V41.6904Z" fill="#703E1E"/>
<path d="M296.45 32.5406C297.24 32.1106 298.2 31.8906 299.34 31.8906C300.04 31.8906 300.71 31.9806 301.34 32.1606C301.97 32.3406 302.51 32.6306 302.97 33.0206C303.43 33.4206 303.79 33.9106 304.06 34.5006C304.33 35.0906 304.46 35.8106 304.46 36.6606C304.46 37.2706 304.39 37.8406 304.24 38.3706C304.1 38.9006 303.88 39.4206 303.61 39.9206C303.33 40.4206 302.98 40.9306 302.56 41.4506C302.14 41.9606 301.64 42.5106 301.06 43.0806C300.72 43.4206 300.32 43.8206 299.87 44.2706C299.42 44.7206 298.97 45.1806 298.51 45.6606C298.05 46.1406 297.61 46.6106 297.2 47.0806C296.79 47.5506 296.43 47.9806 296.15 48.3806H298.71C300.01 48.3806 301.15 48.3606 302.15 48.3106C303.15 48.2706 304.03 48.2206 304.78 48.1606C304.69 48.5606 304.64 48.8906 304.64 49.1606C304.64 49.4106 304.68 49.7206 304.78 50.0806C303.81 50.0406 302.84 50.0306 301.89 50.0306H296.1C295.14 50.0306 294.17 50.0506 293.2 50.0806V49.7606C294.46 48.5206 295.55 47.4306 296.48 46.4806C297.41 45.5406 298.19 44.6806 298.84 43.9306C299.49 43.1706 300.01 42.4906 300.42 41.8806C300.82 41.2706 301.14 40.6906 301.38 40.1406C301.62 39.5906 301.77 39.0506 301.85 38.5206C301.93 37.9906 301.97 37.4206 301.97 36.8106C301.97 35.4806 301.67 34.4906 301.07 33.8506C300.47 33.2106 299.76 32.8906 298.95 32.8906C298.37 32.8906 297.88 32.9906 297.47 33.2006C297.06 33.4106 296.71 33.6606 296.44 33.9606C296.17 34.2606 295.96 34.5806 295.82 34.9206C295.68 35.2606 295.58 35.5706 295.52 35.8406L295.33 35.8906L294.39 34.5706C294.97 33.6506 295.65 32.9806 296.44 32.5506L296.45 32.5406Z" fill="#703E1E"/>
<path d="M359.53 46.3501C359.53 46.1101 359.51 45.8701 359.5 45.6201C359.55 45.6201 359.6 45.6301 359.64 45.6401C359.69 45.6401 359.73 45.6401 359.77 45.6401C359.81 45.6401 359.86 45.6401 359.91 45.6401C359.95 45.6401 360 45.6301 360.05 45.6201C360.04 45.8701 360.03 46.1101 360.02 46.3501C360.02 46.5901 360.01 46.8301 360.01 47.0801V48.0501C360.01 48.3001 360.01 48.5401 360.02 48.7801C360.02 49.0201 360.04 49.2601 360.05 49.4901C359.96 49.4901 359.87 49.4801 359.77 49.4801C359.67 49.4801 359.58 49.4801 359.49 49.4901C359.5 49.2601 359.51 49.0201 359.52 48.7801C359.52 48.5401 359.53 48.3001 359.53 48.0501V47.5401C359.33 47.5401 359.13 47.5401 358.94 47.5401C358.75 47.5401 358.55 47.5401 358.35 47.5401C358.15 47.5401 357.95 47.5401 357.76 47.5401C357.57 47.5401 357.37 47.5401 357.17 47.5401V48.0501C357.17 48.3001 357.17 48.5401 357.18 48.7801C357.18 49.0201 357.2 49.2601 357.21 49.4901C357.12 49.4901 357.03 49.4801 356.93 49.4801C356.83 49.4801 356.74 49.4801 356.65 49.4901C356.66 49.2601 356.67 49.0201 356.68 48.7801C356.68 48.5401 356.69 48.3001 356.69 48.0501V47.0801C356.69 46.8301 356.69 46.5901 356.68 46.3501C356.68 46.1101 356.66 45.8701 356.65 45.6201C356.7 45.6201 356.75 45.6301 356.79 45.6401C356.84 45.6401 356.88 45.6401 356.92 45.6401C356.96 45.6401 357.01 45.6401 357.06 45.6401C357.11 45.6401 357.15 45.6301 357.2 45.6201C357.19 45.8701 357.18 46.1101 357.17 46.3501C357.17 46.5901 357.16 46.8301 357.16 47.0801V47.2801C357.36 47.2801 357.56 47.2801 357.75 47.2901C357.94 47.2901 358.14 47.2901 358.34 47.2901C358.54 47.2901 358.74 47.2901 358.93 47.2901C359.12 47.2901 359.32 47.2901 359.52 47.2801V47.0801C359.52 46.8301 359.52 46.5901 359.51 46.3501H359.53Z" fill="#703E1E"/>
<path d="M361.93 48.1598C361.93 47.9098 361.97 47.6898 362.05 47.5098C362.13 47.3298 362.24 47.1898 362.37 47.0798C362.5 46.9698 362.65 46.8898 362.81 46.8398C362.97 46.7898 363.14 46.7598 363.3 46.7598C363.46 46.7598 363.63 46.7798 363.79 46.8398C363.95 46.8898 364.1 46.9698 364.23 47.0798C364.36 47.1898 364.47 47.3398 364.55 47.5098C364.63 47.6898 364.67 47.9098 364.67 48.1598C364.67 48.4098 364.63 48.6298 364.55 48.8098C364.47 48.9898 364.36 49.1298 364.23 49.2398C364.1 49.3498 363.95 49.4298 363.79 49.4698C363.63 49.5198 363.47 49.5398 363.3 49.5398C363.13 49.5398 362.98 49.5198 362.81 49.4698C362.65 49.4298 362.5 49.3498 362.37 49.2398C362.24 49.1298 362.13 48.9898 362.05 48.8098C361.97 48.6298 361.93 48.4198 361.93 48.1598ZM362.43 48.1598C362.43 48.3198 362.44 48.4698 362.47 48.6198C362.5 48.7698 362.55 48.8998 362.61 49.0098C362.68 49.1198 362.77 49.2198 362.88 49.2798C362.99 49.3498 363.13 49.3798 363.3 49.3798C363.47 49.3798 363.6 49.3498 363.72 49.2798C363.83 49.2098 363.92 49.1198 363.99 49.0098C364.06 48.8998 364.11 48.7698 364.13 48.6198C364.16 48.4698 364.17 48.3198 364.17 48.1598C364.17 47.9998 364.16 47.8498 364.13 47.6998C364.1 47.5498 364.05 47.4198 363.99 47.3098C363.92 47.1998 363.83 47.1098 363.72 47.0398C363.61 46.9698 363.47 46.9398 363.3 46.9398C363.13 46.9398 363 46.9698 362.88 47.0398C362.77 47.1098 362.68 47.1998 362.61 47.3098C362.54 47.4198 362.49 47.5498 362.47 47.6998C362.44 47.8498 362.43 47.9998 362.43 48.1598Z" fill="#703E1E"/>
<path d="M366.47 48.6298C366.47 48.4298 366.47 48.2598 366.47 48.1198C366.47 47.9798 366.47 47.8398 366.47 47.6998C366.47 47.5698 366.47 47.4298 366.47 47.2698C366.47 47.1098 366.47 46.9598 366.47 46.7998C366.56 46.8198 366.64 46.8298 366.71 46.8298C366.77 46.8298 366.85 46.8298 366.94 46.7998C366.92 47.0198 366.91 47.2698 366.9 47.5398C366.9 47.8098 366.89 48.0798 366.89 48.3598C366.89 48.5498 366.91 48.6998 366.94 48.8098C366.97 48.9098 367.02 48.9898 367.06 49.0398C367.11 49.0998 367.18 49.1498 367.26 49.1898C367.34 49.2298 367.44 49.2498 367.54 49.2498C367.7 49.2498 367.83 49.2198 367.93 49.1498C368.03 49.0798 368.11 48.9998 368.16 48.8898C368.19 48.8298 368.21 48.7698 368.22 48.7298C368.23 48.6798 368.25 48.6198 368.26 48.5498C368.26 48.4698 368.27 48.3698 368.28 48.2498C368.29 48.1298 368.28 47.9498 368.28 47.7298V47.2598C368.28 47.1798 368.28 47.0998 368.28 47.0198C368.28 46.9498 368.28 46.8698 368.28 46.8098C368.32 46.8098 368.36 46.8198 368.4 46.8298C368.44 46.8298 368.48 46.8298 368.52 46.8298C368.56 46.8298 368.6 46.8298 368.64 46.8298C368.68 46.8298 368.71 46.8198 368.75 46.8098C368.73 47.0998 368.72 47.3798 368.72 47.6598C368.72 47.9298 368.72 48.2198 368.72 48.5198C368.72 48.6898 368.72 48.8498 368.72 49.0198C368.72 49.1798 368.72 49.3398 368.74 49.4898C368.67 49.4898 368.59 49.4798 368.52 49.4798C368.45 49.4798 368.38 49.4798 368.3 49.4898C368.3 49.4598 368.3 49.4198 368.3 49.3798C368.3 49.3398 368.3 49.2998 368.3 49.2598V49.0198H368.29C368.19 49.1998 368.07 49.3298 367.91 49.4198C367.76 49.4998 367.59 49.5498 367.41 49.5498C367.12 49.5498 366.89 49.4698 366.72 49.3198C366.55 49.1598 366.47 48.9398 366.47 48.6498V48.6298Z" fill="#703E1E"/>
<path d="M370.84 49.08C370.84 49.08 370.93 49.17 370.98 49.21C371.03 49.25 371.1 49.28 371.17 49.31C371.24 49.34 371.31 49.35 371.39 49.35C371.46 49.35 371.53 49.34 371.6 49.32C371.67 49.3 371.72 49.27 371.77 49.22C371.82 49.18 371.86 49.13 371.89 49.06C371.92 49 371.94 48.92 371.94 48.84C371.94 48.72 371.91 48.63 371.84 48.57C371.77 48.51 371.69 48.46 371.6 48.42C371.5 48.38 371.4 48.35 371.28 48.32C371.16 48.29 371.06 48.25 370.96 48.19C370.86 48.14 370.78 48.06 370.72 47.97C370.65 47.88 370.62 47.76 370.62 47.6C370.62 47.48 370.64 47.36 370.68 47.26C370.72 47.16 370.78 47.07 370.86 46.99C370.94 46.91 371.04 46.86 371.15 46.81C371.27 46.77 371.4 46.75 371.55 46.75C371.69 46.75 371.81 46.77 371.9 46.81C372 46.85 372.09 46.88 372.17 46.91C372.14 46.97 372.11 47.04 372.09 47.12C372.06 47.2 372.05 47.27 372.04 47.31H371.97C371.94 47.22 371.88 47.14 371.8 47.07C371.72 47 371.61 46.96 371.48 46.96C371.42 46.96 371.37 46.96 371.31 46.99C371.25 47.01 371.2 47.04 371.16 47.07C371.12 47.11 371.08 47.16 371.05 47.22C371.02 47.28 371 47.35 371 47.43C371 47.55 371.03 47.64 371.1 47.71C371.17 47.78 371.25 47.83 371.34 47.86C371.44 47.9 371.54 47.93 371.66 47.96C371.78 47.99 371.88 48.03 371.98 48.08C372.08 48.13 372.16 48.2 372.22 48.29C372.29 48.38 372.32 48.5 372.32 48.66C372.32 48.77 372.3 48.88 372.25 48.98C372.2 49.08 372.14 49.18 372.05 49.26C371.96 49.34 371.86 49.41 371.73 49.46C371.61 49.51 371.47 49.53 371.31 49.53C371.14 49.53 370.99 49.51 370.88 49.48C370.76 49.45 370.67 49.41 370.59 49.36C370.61 49.31 370.64 49.24 370.66 49.16C370.68 49.08 370.7 49.01 370.7 48.95H370.77C370.77 48.95 370.82 49.03 370.86 49.07L370.84 49.08Z" fill="#703E1E"/>
<path d="M373.92 48.23C373.92 47.77 374.03 47.41 374.25 47.14C374.47 46.88 374.79 46.75 375.21 46.75C375.41 46.75 375.58 46.78 375.72 46.84C375.86 46.9 375.99 46.98 376.08 47.09C376.18 47.19 376.25 47.31 376.3 47.45C376.35 47.59 376.37 47.74 376.37 47.89C376.37 47.93 376.37 47.96 376.37 48C376.37 48.04 376.37 48.07 376.37 48.11C376.17 48.11 375.97 48.11 375.77 48.1C375.57 48.1 375.37 48.1 375.17 48.1C375.05 48.1 374.92 48.1 374.8 48.1C374.68 48.1 374.56 48.1 374.43 48.11C374.43 48.13 374.43 48.16 374.43 48.19V48.26C374.43 48.41 374.45 48.54 374.49 48.67C374.53 48.8 374.6 48.91 374.68 49C374.76 49.09 374.86 49.16 374.98 49.22C375.1 49.28 375.24 49.3 375.4 49.3C375.48 49.3 375.55 49.29 375.63 49.27C375.71 49.25 375.79 49.22 375.86 49.19C375.94 49.15 376.01 49.11 376.07 49.06C376.14 49.01 376.19 48.96 376.24 48.9L376.27 48.92L376.24 49.2C376.13 49.29 375.99 49.37 375.82 49.43C375.65 49.49 375.48 49.53 375.3 49.53C375.1 49.53 374.91 49.5 374.75 49.44C374.58 49.38 374.44 49.29 374.32 49.17C374.2 49.05 374.1 48.91 374.04 48.75C373.97 48.59 373.94 48.41 373.94 48.23H373.92ZM375.22 46.93C375.08 46.93 374.96 46.96 374.87 47.03C374.77 47.09 374.7 47.17 374.63 47.27C374.57 47.37 374.52 47.47 374.49 47.59C374.46 47.7 374.44 47.81 374.43 47.91C374.55 47.91 374.67 47.91 374.79 47.92C374.92 47.92 375.04 47.92 375.16 47.92C375.28 47.92 375.41 47.92 375.54 47.92C375.67 47.92 375.79 47.92 375.91 47.91C375.91 47.81 375.91 47.7 375.88 47.59C375.86 47.48 375.83 47.37 375.78 47.28C375.73 47.18 375.66 47.1 375.57 47.04C375.48 46.98 375.36 46.94 375.22 46.94V46.93Z" fill="#703E1E"/>
<path d="M378.18 46.45C378.18 46.3 378.18 46.15 378.18 46.01C378.18 45.86 378.18 45.72 378.17 45.59C378.17 45.46 378.16 45.34 378.15 45.25C378.25 45.27 378.34 45.28 378.4 45.28C378.46 45.28 378.55 45.28 378.65 45.25C378.65 45.34 378.64 45.46 378.63 45.59C378.63 45.72 378.62 45.86 378.62 46C378.62 46.14 378.62 46.29 378.62 46.44C378.62 46.59 378.62 46.72 378.62 46.85V47.28H378.63C378.73 47.12 378.86 46.99 379.01 46.91C379.16 46.82 379.33 46.78 379.53 46.78C379.64 46.78 379.74 46.79 379.85 46.83C379.96 46.86 380.05 46.91 380.14 46.98C380.23 47.05 380.3 47.15 380.35 47.28C380.4 47.41 380.43 47.57 380.43 47.76C380.43 47.92 380.43 48.09 380.42 48.26C380.42 48.43 380.41 48.61 380.41 48.8V49.17C380.41 49.23 380.41 49.29 380.41 49.35C380.41 49.41 380.41 49.46 380.41 49.52C380.33 49.52 380.26 49.51 380.17 49.51C380.08 49.51 380.01 49.51 379.94 49.52C379.94 49.33 379.96 49.12 379.97 48.92C379.97 48.71 379.98 48.5 379.98 48.28V47.94C379.98 47.66 379.93 47.45 379.82 47.3C379.71 47.16 379.56 47.08 379.37 47.08C379.11 47.08 378.92 47.16 378.79 47.32C378.67 47.48 378.61 47.71 378.61 48C378.61 48.1 378.61 48.23 378.61 48.37C378.61 48.51 378.61 48.65 378.61 48.79C378.61 48.93 378.61 49.07 378.62 49.2C378.62 49.33 378.63 49.44 378.64 49.52C378.55 49.52 378.47 49.51 378.39 49.51C378.31 49.51 378.22 49.51 378.14 49.52C378.14 49.43 378.15 49.33 378.16 49.19C378.16 49.06 378.17 48.92 378.17 48.77C378.17 48.62 378.17 48.48 378.17 48.33C378.17 48.18 378.17 48.04 378.17 47.91V46.89C378.17 46.76 378.17 46.62 378.17 46.47L378.18 46.45Z" fill="#703E1E"/>
<path d="M382.22 48.1598C382.22 47.9098 382.26 47.6898 382.34 47.5098C382.42 47.3298 382.53 47.1898 382.66 47.0798C382.79 46.9698 382.94 46.8898 383.1 46.8398C383.26 46.7898 383.43 46.7598 383.59 46.7598C383.75 46.7598 383.92 46.7798 384.08 46.8398C384.24 46.8898 384.39 46.9698 384.52 47.0798C384.65 47.1898 384.76 47.3398 384.84 47.5098C384.92 47.6898 384.96 47.9098 384.96 48.1598C384.96 48.4098 384.92 48.6298 384.84 48.8098C384.76 48.9898 384.65 49.1298 384.52 49.2398C384.39 49.3498 384.24 49.4298 384.08 49.4698C383.92 49.5198 383.76 49.5398 383.59 49.5398C383.42 49.5398 383.27 49.5198 383.1 49.4698C382.94 49.4298 382.79 49.3498 382.66 49.2398C382.53 49.1298 382.42 48.9898 382.34 48.8098C382.26 48.6298 382.22 48.4198 382.22 48.1598ZM382.72 48.1598C382.72 48.3198 382.73 48.4698 382.76 48.6198C382.79 48.7698 382.84 48.8998 382.9 49.0098C382.97 49.1198 383.06 49.2198 383.17 49.2798C383.28 49.3498 383.42 49.3798 383.59 49.3798C383.76 49.3798 383.89 49.3498 384.01 49.2798C384.12 49.2098 384.21 49.1198 384.28 49.0098C384.35 48.8998 384.4 48.7698 384.42 48.6198C384.45 48.4698 384.46 48.3198 384.46 48.1598C384.46 47.9998 384.45 47.8498 384.42 47.6998C384.39 47.5498 384.34 47.4198 384.28 47.3098C384.21 47.1998 384.12 47.1098 384.01 47.0398C383.9 46.9698 383.76 46.9398 383.59 46.9398C383.42 46.9398 383.29 46.9698 383.17 47.0398C383.06 47.1098 382.97 47.1998 382.9 47.3098C382.83 47.4198 382.78 47.5498 382.76 47.6998C382.73 47.8498 382.72 47.9998 382.72 48.1598Z" fill="#703E1E"/>
<path d="M386.9 46.45C386.9 46.3 386.9 46.15 386.9 46.01C386.9 45.86 386.9 45.72 386.89 45.59C386.89 45.46 386.88 45.34 386.87 45.25C386.98 45.27 387.06 45.28 387.12 45.28C387.18 45.28 387.27 45.28 387.37 45.25C387.37 45.34 387.36 45.46 387.35 45.59C387.35 45.72 387.34 45.86 387.34 46.01C387.34 46.16 387.34 46.3 387.34 46.45C387.34 46.6 387.34 46.74 387.34 46.87V47.89C387.34 48.02 387.34 48.16 387.34 48.31C387.34 48.46 387.34 48.61 387.34 48.75C387.34 48.9 387.34 49.03 387.35 49.17C387.35 49.3 387.36 49.41 387.37 49.5C387.28 49.5 387.2 49.49 387.12 49.49C387.04 49.49 386.95 49.49 386.87 49.5C386.87 49.41 386.88 49.31 386.89 49.17C386.89 49.04 386.9 48.9 386.9 48.75C386.9 48.6 386.9 48.46 386.9 48.31C386.9 48.16 386.9 48.02 386.9 47.89V46.87C386.9 46.74 386.9 46.6 386.9 46.45Z" fill="#703E1E"/>
<path d="M391.4 48.95C391.37 49.01 391.33 49.07 391.28 49.14C391.23 49.21 391.17 49.27 391.09 49.33C391.01 49.39 390.92 49.44 390.82 49.48C390.72 49.52 390.59 49.54 390.45 49.54C390.31 49.54 390.17 49.52 390.03 49.47C389.89 49.42 389.77 49.34 389.66 49.23C389.55 49.12 389.47 48.98 389.4 48.8C389.33 48.63 389.3 48.42 389.3 48.17C389.3 47.92 389.34 47.72 389.41 47.55C389.48 47.37 389.57 47.23 389.69 47.11C389.8 46.99 389.93 46.9 390.08 46.85C390.22 46.79 390.37 46.76 390.52 46.76C390.94 46.76 391.22 46.95 391.39 47.32H391.4V46.77C391.4 46.63 391.4 46.48 391.4 46.34C391.4 46.2 391.4 46.06 391.4 45.93C391.4 45.8 391.4 45.68 391.4 45.56C391.4 45.44 391.4 45.34 391.4 45.25C391.45 45.25 391.49 45.26 391.53 45.27C391.57 45.27 391.61 45.27 391.65 45.27C391.69 45.27 391.73 45.27 391.77 45.27C391.81 45.27 391.85 45.26 391.9 45.25C391.89 45.37 391.88 45.54 391.87 45.77C391.87 46 391.86 46.25 391.85 46.52C391.85 46.79 391.84 47.08 391.84 47.36C391.84 47.64 391.84 47.91 391.84 48.15C391.84 48.41 391.84 48.64 391.84 48.85C391.84 49.06 391.84 49.27 391.85 49.49C391.77 49.49 391.7 49.48 391.63 49.48C391.56 49.48 391.49 49.48 391.42 49.49L391.44 48.96H391.43L391.4 48.95ZM389.8 48.21C389.8 48.44 389.82 48.62 389.87 48.77C389.92 48.92 389.98 49.03 390.05 49.12C390.12 49.21 390.21 49.27 390.3 49.3C390.39 49.33 390.49 49.35 390.58 49.35C390.73 49.35 390.85 49.31 390.96 49.24C391.06 49.17 391.15 49.07 391.22 48.95C391.29 48.83 391.34 48.7 391.37 48.55C391.4 48.4 391.42 48.25 391.42 48.1C391.42 47.74 391.35 47.47 391.21 47.28C391.07 47.09 390.87 47 390.6 47C390.46 47 390.35 47.03 390.25 47.09C390.15 47.15 390.07 47.24 390 47.35C389.93 47.46 389.89 47.59 389.85 47.74C389.82 47.89 389.8 48.05 389.8 48.22V48.21Z" fill="#703E1E"/>
<path d="M397.24 47.0801C397.24 46.8301 397.24 46.5901 397.23 46.3501C397.23 46.1101 397.21 45.8701 397.2 45.6201C397.34 45.6201 397.48 45.6301 397.62 45.6401C397.76 45.6401 397.9 45.6401 398.04 45.6401C398.18 45.6401 398.32 45.6401 398.46 45.6301C398.6 45.6301 398.74 45.6201 398.88 45.6201C399.21 45.6201 399.49 45.6601 399.73 45.7501C399.96 45.8401 400.16 45.9601 400.31 46.1201C400.46 46.2801 400.57 46.4701 400.64 46.7001C400.71 46.9301 400.74 47.1901 400.74 47.4801C400.74 47.8601 400.68 48.1701 400.55 48.4301C400.42 48.6901 400.26 48.8901 400.05 49.0501C399.85 49.2101 399.63 49.3201 399.39 49.3801C399.15 49.4501 398.92 49.4801 398.7 49.4801C398.57 49.4801 398.45 49.4801 398.32 49.4801C398.2 49.4801 398.07 49.4801 397.94 49.4801H397.56C397.44 49.4801 397.31 49.4801 397.18 49.4901C397.19 49.2601 397.2 49.0201 397.21 48.7801C397.21 48.5401 397.22 48.3001 397.22 48.0501V47.0801H397.24ZM397.7 48.0501C397.7 48.4601 397.71 48.8501 397.73 49.2401C397.81 49.2601 397.92 49.2701 398.05 49.2801C398.18 49.2801 398.32 49.2901 398.47 49.2901C398.68 49.2901 398.88 49.2701 399.09 49.2201C399.3 49.1701 399.48 49.0801 399.64 48.9401C399.8 48.8101 399.94 48.6201 400.04 48.3901C400.14 48.1601 400.19 47.8501 400.19 47.4801C400.19 47.1501 400.15 46.8901 400.07 46.6801C399.99 46.4701 399.88 46.3001 399.74 46.1801C399.6 46.0601 399.43 45.9701 399.24 45.9301C399.05 45.8801 398.83 45.8601 398.6 45.8601C398.43 45.8601 398.27 45.8601 398.13 45.8801C397.98 45.8901 397.85 45.9001 397.74 45.9201C397.73 46.1001 397.72 46.2901 397.72 46.4801C397.72 46.6801 397.72 46.8801 397.72 47.0801V48.0501H397.7Z" fill="#703E1E"/>
<path d="M402.44 48.23C402.44 47.77 402.55 47.41 402.77 47.14C402.99 46.88 403.31 46.75 403.73 46.75C403.93 46.75 404.1 46.78 404.24 46.84C404.38 46.9 404.51 46.98 404.6 47.09C404.7 47.19 404.77 47.31 404.82 47.45C404.87 47.59 404.89 47.74 404.89 47.89C404.89 47.93 404.89 47.96 404.89 48C404.89 48.04 404.89 48.07 404.89 48.11C404.69 48.11 404.49 48.11 404.29 48.1C404.09 48.1 403.89 48.1 403.69 48.1C403.57 48.1 403.44 48.1 403.32 48.1C403.2 48.1 403.08 48.1 402.95 48.11C402.95 48.13 402.95 48.16 402.95 48.19V48.26C402.95 48.41 402.97 48.54 403.01 48.67C403.05 48.8 403.12 48.91 403.2 49C403.28 49.09 403.38 49.16 403.5 49.22C403.62 49.27 403.76 49.3 403.92 49.3C404 49.3 404.07 49.29 404.15 49.27C404.23 49.25 404.31 49.22 404.38 49.19C404.46 49.15 404.53 49.11 404.59 49.06C404.66 49.01 404.71 48.96 404.76 48.9L404.79 48.92L404.76 49.2C404.65 49.29 404.51 49.37 404.34 49.43C404.17 49.49 404 49.53 403.82 49.53C403.62 49.53 403.43 49.5 403.27 49.44C403.1 49.38 402.96 49.29 402.84 49.17C402.72 49.05 402.62 48.91 402.56 48.75C402.49 48.59 402.46 48.41 402.46 48.23H402.44ZM403.74 46.93C403.6 46.93 403.48 46.96 403.39 47.03C403.29 47.09 403.22 47.17 403.15 47.27C403.09 47.37 403.04 47.47 403.01 47.59C402.98 47.7 402.96 47.81 402.95 47.91C403.07 47.91 403.19 47.91 403.31 47.92C403.43 47.93 403.56 47.92 403.68 47.92C403.8 47.92 403.93 47.92 404.06 47.92C404.19 47.92 404.31 47.92 404.43 47.91C404.43 47.81 404.43 47.7 404.4 47.59C404.38 47.48 404.35 47.37 404.3 47.28C404.25 47.18 404.18 47.1 404.09 47.04C404 46.98 403.88 46.94 403.74 46.94V46.93Z" fill="#703E1E"/>
<path d="M406.48 48.1598C406.48 47.9198 406.52 47.7098 406.6 47.5298C406.68 47.3498 406.79 47.2098 406.92 47.0898C407.05 46.9798 407.21 46.8898 407.38 46.8398C407.55 46.7898 407.73 46.7598 407.91 46.7598C408.12 46.7598 408.3 46.7798 408.46 46.8398C408.62 46.8998 408.74 46.9498 408.81 47.0098C408.78 47.0698 408.76 47.1298 408.74 47.1898C408.72 47.2498 408.7 47.3198 408.69 47.3798H408.65C408.65 47.3798 408.59 47.2798 408.54 47.2298C408.49 47.1798 408.44 47.1298 408.38 47.0898C408.32 47.0498 408.25 47.0098 408.17 46.9798C408.1 46.9498 408.01 46.9398 407.92 46.9398C407.75 46.9398 407.61 46.9698 407.48 47.0298C407.36 47.0898 407.26 47.1798 407.18 47.2898C407.1 47.3998 407.05 47.5298 407.01 47.6798C406.97 47.8298 406.96 47.9898 406.96 48.1598C406.96 48.5498 407.04 48.8398 407.21 49.0298C407.37 49.2298 407.62 49.3298 407.94 49.3298C408.02 49.3298 408.09 49.3198 408.17 49.2998C408.25 49.2798 408.33 49.2498 408.4 49.2198C408.47 49.1798 408.55 49.1398 408.61 49.0898C408.68 49.0398 408.73 48.9898 408.78 48.9298L408.81 48.9498C408.79 49.0398 408.78 49.1298 408.78 49.2298C408.67 49.3198 408.53 49.3998 408.36 49.4598C408.19 49.5198 408.02 49.5598 407.84 49.5598C407.68 49.5598 407.52 49.5398 407.35 49.4898C407.18 49.4398 407.04 49.3598 406.91 49.2498C406.78 49.1398 406.67 48.9998 406.59 48.8198C406.51 48.6398 406.47 48.4298 406.47 48.1698L406.48 48.1598Z" fill="#703E1E"/>
<path d="M410.43 48.1598C410.43 47.9098 410.47 47.6898 410.55 47.5098C410.63 47.3298 410.74 47.1898 410.87 47.0798C411 46.9698 411.15 46.8898 411.31 46.8398C411.47 46.7898 411.64 46.7598 411.8 46.7598C411.96 46.7598 412.13 46.7798 412.29 46.8398C412.45 46.8898 412.6 46.9698 412.73 47.0798C412.86 47.1898 412.97 47.3398 413.05 47.5098C413.13 47.6898 413.17 47.9098 413.17 48.1598C413.17 48.4098 413.13 48.6298 413.05 48.8098C412.97 48.9898 412.86 49.1298 412.73 49.2398C412.6 49.3498 412.45 49.4298 412.29 49.4698C412.13 49.5198 411.97 49.5398 411.8 49.5398C411.63 49.5398 411.48 49.5198 411.31 49.4698C411.15 49.4298 411 49.3498 410.87 49.2398C410.74 49.1298 410.63 48.9898 410.55 48.8098C410.47 48.6298 410.43 48.4198 410.43 48.1598ZM410.93 48.1598C410.93 48.3198 410.94 48.4698 410.97 48.6198C411 48.7698 411.05 48.8998 411.11 49.0098C411.18 49.1198 411.27 49.2198 411.38 49.2798C411.49 49.3498 411.63 49.3798 411.8 49.3798C411.97 49.3798 412.1 49.3498 412.22 49.2798C412.33 49.2098 412.42 49.1198 412.49 49.0098C412.56 48.8998 412.61 48.7698 412.63 48.6198C412.66 48.4698 412.67 48.3198 412.67 48.1598C412.67 47.9998 412.66 47.8498 412.63 47.6998C412.6 47.5498 412.55 47.4198 412.49 47.3098C412.42 47.1998 412.33 47.1098 412.22 47.0398C412.11 46.9698 411.97 46.9398 411.8 46.9398C411.63 46.9398 411.5 46.9698 411.38 47.0398C411.27 47.1098 411.18 47.1998 411.11 47.3098C411.04 47.4198 410.99 47.5498 410.97 47.6998C410.94 47.8498 410.93 47.9998 410.93 48.1598Z" fill="#703E1E"/>
<path d="M416.15 47.2098C416.1 47.1898 416.04 47.1798 415.98 47.1798C415.89 47.1798 415.81 47.1998 415.74 47.2398C415.67 47.2798 415.61 47.3398 415.56 47.4098C415.51 47.4798 415.47 47.5598 415.45 47.6598C415.42 47.7598 415.41 47.8598 415.41 47.9698V48.5898C415.41 48.8398 415.41 49.0298 415.41 49.1698C415.41 49.2998 415.41 49.4098 415.43 49.4898C415.35 49.4898 415.28 49.4798 415.2 49.4798C415.12 49.4798 415.04 49.4798 414.96 49.4898C414.97 49.3598 414.98 49.1898 414.98 48.9698C414.98 48.7498 414.98 48.4798 414.98 48.1598V47.9798C414.98 47.8298 414.98 47.6598 414.98 47.4698C414.98 47.2798 414.98 47.0598 414.96 46.8098C415 46.8098 415.04 46.8198 415.08 46.8298C415.12 46.8298 415.16 46.8298 415.2 46.8298C415.23 46.8298 415.27 46.8298 415.31 46.8298C415.35 46.8298 415.39 46.8198 415.43 46.8098C415.41 46.9398 415.41 47.0498 415.4 47.1298C415.4 47.2098 415.4 47.2798 415.4 47.3598H415.41C415.63 46.9598 415.88 46.7598 416.15 46.7598C416.18 46.7598 416.21 46.7598 416.24 46.7598C416.27 46.7598 416.3 46.7698 416.33 46.7898C416.31 46.8298 416.3 46.8998 416.3 46.9998C416.3 47.0898 416.3 47.1798 416.3 47.2498L416.26 47.2798C416.26 47.2798 416.2 47.2398 416.15 47.2198V47.2098Z" fill="#703E1E"/>
<path d="M418.01 47.08C418.18 46.95 418.33 46.87 418.48 46.82C418.62 46.78 418.77 46.75 418.92 46.75C419.06 46.75 419.18 46.77 419.29 46.81C419.4 46.85 419.5 46.91 419.58 46.98C419.66 47.05 419.72 47.14 419.77 47.24C419.81 47.34 419.84 47.46 419.84 47.58C419.84 47.79 419.84 48.01 419.83 48.22C419.83 48.43 419.82 48.66 419.82 48.89C419.82 48.93 419.82 48.98 419.82 49.03C419.82 49.08 419.83 49.13 419.85 49.16C419.86 49.2 419.89 49.23 419.91 49.26C419.94 49.29 419.98 49.3 420.04 49.3C420.06 49.3 420.08 49.3 420.1 49.3C420.12 49.3 420.14 49.3 420.16 49.28V49.4C420.16 49.4 420.07 49.43 420.01 49.44C419.95 49.45 419.88 49.46 419.8 49.46C419.68 49.46 419.59 49.43 419.52 49.37C419.46 49.31 419.42 49.23 419.41 49.13C419.28 49.26 419.14 49.36 419.01 49.43C418.88 49.49 418.72 49.53 418.53 49.53C418.44 49.53 418.34 49.52 418.25 49.49C418.16 49.46 418.08 49.42 418.01 49.36C417.94 49.3 417.88 49.23 417.84 49.14C417.8 49.06 417.78 48.96 417.78 48.85C417.78 48.62 417.85 48.45 417.99 48.33C418.13 48.21 418.32 48.12 418.57 48.08C418.77 48.05 418.93 48.02 419.05 47.99C419.16 47.97 419.25 47.94 419.3 47.91C419.35 47.88 419.39 47.85 419.4 47.82C419.41 47.78 419.42 47.74 419.42 47.68C419.42 47.59 419.41 47.5 419.39 47.41C419.37 47.32 419.33 47.25 419.28 47.18C419.23 47.12 419.17 47.06 419.09 47.03C419.01 46.99 418.92 46.97 418.8 46.97C418.65 46.97 418.51 47 418.38 47.07C418.25 47.14 418.15 47.23 418.09 47.35H418.03V47.06L418.01 47.08ZM419.4 48.08C419.34 48.1 419.26 48.12 419.18 48.14C419.1 48.16 419.01 48.17 418.92 48.19C418.83 48.21 418.75 48.23 418.66 48.25C418.58 48.28 418.5 48.31 418.43 48.36C418.36 48.4 418.31 48.46 418.27 48.53C418.23 48.6 418.21 48.68 418.21 48.79C418.21 48.97 418.26 49.1 418.36 49.19C418.46 49.28 418.57 49.32 418.7 49.32C418.84 49.32 418.97 49.28 419.09 49.2C419.21 49.12 419.3 49.03 419.36 48.92L419.38 48.08H419.4Z" fill="#703E1E"/>
<path d="M422.46 46.0598C422.45 46.1998 422.44 46.3398 422.43 46.4798C422.43 46.6198 422.42 46.7498 422.41 46.8898C422.45 46.8898 422.53 46.8898 422.64 46.8898C422.75 46.8898 422.87 46.8898 423.01 46.8798C423.01 46.8898 423.01 46.9098 423.01 46.9398V47.0598C423.01 47.0598 423.01 47.0998 423.01 47.1198C422.96 47.1198 422.91 47.1198 422.86 47.1198C422.81 47.1198 422.75 47.1198 422.69 47.1198H422.41C422.41 47.1198 422.41 47.1998 422.4 47.2998C422.4 47.3998 422.39 47.5298 422.39 47.6698C422.39 47.8098 422.39 47.9598 422.39 48.1198C422.39 48.2798 422.39 48.4198 422.39 48.5398C422.39 48.6398 422.39 48.7498 422.39 48.8498C422.39 48.9498 422.41 49.0398 422.44 49.1198C422.47 49.1998 422.51 49.2698 422.57 49.3098C422.63 49.3598 422.72 49.3798 422.83 49.3798C422.86 49.3798 422.9 49.3798 422.95 49.3698C423 49.3698 423.04 49.3498 423.08 49.3398V49.4698C423.02 49.4798 422.95 49.4998 422.87 49.5098C422.79 49.5298 422.72 49.5398 422.65 49.5398C422.41 49.5398 422.24 49.4798 422.13 49.3698C422.02 49.2598 421.96 49.0798 421.96 48.8598C421.96 48.7598 421.96 48.6498 421.96 48.5298C421.96 48.4098 421.96 48.2798 421.97 48.1398C421.97 47.9998 421.98 47.8398 421.98 47.6698C421.98 47.4998 421.98 47.3098 421.98 47.0998H421.8C421.8 47.0998 421.74 47.0998 421.7 47.0998C421.67 47.0998 421.63 47.0998 421.59 47.0998C421.59 47.0798 421.59 47.0598 421.59 47.0398C421.59 47.0198 421.59 46.9998 421.59 46.9798C421.59 46.9598 421.59 46.9398 421.59 46.9198C421.59 46.8998 421.59 46.8798 421.59 46.8598C421.76 46.8698 421.88 46.8798 421.96 46.8798C421.96 46.8098 421.96 46.7098 421.96 46.5998C421.96 46.4898 421.96 46.3698 421.95 46.2498L422.42 46.0498H422.45L422.46 46.0598Z" fill="#703E1E"/>
<path d="M424.76 45.8298C424.76 45.7498 424.79 45.6798 424.84 45.6298C424.9 45.5698 424.96 45.5498 425.04 45.5498C425.12 45.5498 425.19 45.5798 425.24 45.6298C425.29 45.6798 425.32 45.7498 425.32 45.8298C425.32 45.9098 425.29 45.9798 425.24 46.0298C425.18 46.0898 425.12 46.1098 425.04 46.1098C424.96 46.1098 424.89 46.0798 424.84 46.0298C424.78 45.9698 424.76 45.9098 424.76 45.8298ZM424.84 47.8598C424.84 47.6898 424.84 47.5098 424.84 47.3298C424.84 47.1398 424.82 46.9698 424.8 46.8098C424.9 46.8298 424.99 46.8398 425.05 46.8398C425.11 46.8398 425.2 46.8398 425.3 46.8098C425.28 46.9698 425.27 47.1398 425.26 47.3298C425.26 47.5198 425.26 47.6898 425.26 47.8598V48.4398C425.26 48.6098 425.26 48.7898 425.26 48.9698C425.26 49.1598 425.28 49.3198 425.3 49.4698C425.21 49.4698 425.13 49.4598 425.05 49.4598C424.97 49.4598 424.88 49.4598 424.8 49.4698C424.82 49.3198 424.83 49.1498 424.84 48.9698C424.84 48.7798 424.84 48.6098 424.84 48.4398V47.8598Z" fill="#703E1E"/>
<path d="M427.21 48.1598C427.21 47.9098 427.25 47.6898 427.33 47.5098C427.41 47.3298 427.52 47.1898 427.65 47.0798C427.78 46.9698 427.93 46.8898 428.09 46.8398C428.25 46.7898 428.42 46.7598 428.58 46.7598C428.74 46.7598 428.91 46.7798 429.07 46.8398C429.23 46.8998 429.38 46.9698 429.51 47.0798C429.64 47.1898 429.75 47.3398 429.83 47.5098C429.91 47.6898 429.95 47.9098 429.95 48.1598C429.95 48.4098 429.91 48.6298 429.83 48.8098C429.75 48.9898 429.64 49.1298 429.51 49.2398C429.38 49.3498 429.23 49.4298 429.07 49.4698C428.91 49.5198 428.75 49.5398 428.58 49.5398C428.41 49.5398 428.26 49.5198 428.09 49.4698C427.93 49.4298 427.78 49.3498 427.65 49.2398C427.52 49.1298 427.41 48.9898 427.33 48.8098C427.25 48.6298 427.21 48.4198 427.21 48.1598ZM427.71 48.1598C427.71 48.3198 427.72 48.4698 427.75 48.6198C427.78 48.7698 427.83 48.8998 427.89 49.0098C427.96 49.1198 428.05 49.2198 428.16 49.2798C428.27 49.3498 428.41 49.3798 428.58 49.3798C428.75 49.3798 428.88 49.3498 429 49.2798C429.11 49.2098 429.2 49.1198 429.27 49.0098C429.34 48.8998 429.39 48.7698 429.41 48.6198C429.44 48.4698 429.45 48.3198 429.45 48.1598C429.45 47.9998 429.44 47.8498 429.41 47.6998C429.38 47.5498 429.33 47.4198 429.27 47.3098C429.2 47.1998 429.11 47.1098 429 47.0398C428.89 46.9698 428.75 46.9398 428.58 46.9398C428.41 46.9398 428.28 46.9698 428.16 47.0398C428.05 47.1098 427.96 47.1998 427.89 47.3098C427.82 47.4198 427.77 47.5498 427.75 47.6998C427.72 47.8498 427.71 47.9998 427.71 48.1598Z" fill="#703E1E"/>
<path d="M433.42 47.2595C433.31 47.1195 433.16 47.0395 432.97 47.0395C432.71 47.0395 432.52 47.1195 432.39 47.2795C432.27 47.4395 432.21 47.6695 432.21 47.9595V48.4395C432.21 48.6095 432.21 48.7895 432.21 48.9695C432.21 49.1595 432.23 49.3195 432.25 49.4695C432.16 49.4695 432.08 49.4595 432 49.4595C431.92 49.4595 431.83 49.4595 431.75 49.4695C431.77 49.3195 431.78 49.1495 431.79 48.9695C431.79 48.7795 431.79 48.6095 431.79 48.4395V47.8595C431.79 47.6895 431.79 47.5095 431.79 47.3295C431.79 47.1395 431.77 46.9695 431.75 46.8095C431.85 46.8295 431.94 46.8395 432 46.8395C432.03 46.8395 432.06 46.8395 432.1 46.8395C432.14 46.8395 432.18 46.8295 432.23 46.8195C432.22 46.9695 432.21 47.1195 432.21 47.2695H432.22C432.32 47.1095 432.45 46.9795 432.6 46.8995C432.75 46.8095 432.92 46.7695 433.12 46.7695C433.22 46.7695 433.33 46.7795 433.44 46.8195C433.55 46.8495 433.64 46.8995 433.73 46.9695C433.82 47.0395 433.89 47.1395 433.94 47.2695C433.99 47.3995 434.02 47.5595 434.02 47.7495C434.02 47.9095 434.02 48.0795 434.01 48.2495C434.01 48.4195 434 48.5995 434 48.7895V49.1595C434 49.2195 434 49.2795 434 49.3395C434 49.3995 434 49.4495 434 49.5095C433.92 49.5095 433.85 49.4995 433.76 49.4995C433.67 49.4995 433.6 49.4995 433.53 49.5095C433.53 49.3195 433.55 49.1095 433.56 48.9095C433.56 48.6995 433.57 48.4895 433.57 48.2695V47.9295C433.57 47.6495 433.52 47.4395 433.41 47.2895L433.42 47.2595Z" fill="#703E1E"/>
<path d="M309.89 41.7209C309.7 42.0909 309.56 42.4709 309.46 42.8509C309.36 43.2309 309.29 43.6309 309.25 44.0309C309.21 44.4409 309.2 44.8609 309.2 45.3109C309.2 45.7609 309.22 46.1909 309.25 46.5909C309.29 47.0009 309.36 47.3909 309.46 47.7709C309.57 48.1509 309.71 48.5209 309.9 48.8809C310.09 49.2409 310.32 49.6109 310.61 49.9809L310.37 50.1909C309.73 49.5009 309.25 48.7509 308.93 47.9109C308.61 47.0809 308.45 46.2109 308.45 45.3009C308.45 44.8709 308.49 44.4309 308.57 43.9909C308.65 43.5509 308.77 43.1209 308.94 42.7009C309.1 42.2809 309.3 41.8709 309.54 41.4809C309.78 41.0909 310.05 40.7209 310.37 40.3809L310.61 40.5909C310.31 40.9709 310.07 41.3409 309.88 41.7109L309.89 41.7209Z" fill="#703E1E"/>
<path d="M311.92 46.801C311.92 46.321 312.05 45.881 312.32 45.481C312.58 45.081 313.02 44.781 313.64 44.571V44.491C313.49 44.461 313.34 44.401 313.19 44.311C313.04 44.221 312.9 44.111 312.77 43.971C312.64 43.831 312.54 43.671 312.46 43.481C312.38 43.291 312.34 43.091 312.34 42.871C312.34 42.621 312.39 42.381 312.5 42.161C312.61 41.941 312.76 41.741 312.95 41.561C313.14 41.391 313.38 41.251 313.65 41.151C313.92 41.051 314.23 41.001 314.57 41.001C314.96 41.001 315.3 41.051 315.59 41.151C315.87 41.251 316.11 41.381 316.29 41.531C316.47 41.691 316.61 41.871 316.7 42.081C316.79 42.291 316.84 42.511 316.84 42.741C316.84 43.121 316.73 43.471 316.5 43.791C316.28 44.111 315.95 44.341 315.51 44.481V44.561C315.64 44.581 315.81 44.631 316.01 44.711C316.21 44.791 316.39 44.901 316.57 45.051C316.75 45.201 316.9 45.401 317.03 45.651C317.16 45.891 317.22 46.201 317.22 46.561C317.22 46.951 317.15 47.311 317.01 47.621C316.87 47.931 316.68 48.201 316.44 48.431C316.2 48.651 315.92 48.821 315.6 48.931C315.28 49.041 314.94 49.101 314.58 49.101C314.22 49.101 313.86 49.051 313.54 48.961C313.22 48.871 312.94 48.731 312.7 48.531C312.46 48.331 312.28 48.091 312.15 47.811C312.02 47.531 311.95 47.201 311.95 46.831L311.92 46.801ZM316.15 46.741C316.15 46.451 316.11 46.181 316.04 45.941C315.97 45.701 315.86 45.491 315.72 45.311C315.58 45.131 315.41 45.001 315.22 44.901C315.02 44.801 314.8 44.751 314.56 44.751C314.32 44.751 314.1 44.801 313.9 44.901C313.7 45.001 313.54 45.141 313.4 45.311C313.26 45.491 313.16 45.701 313.08 45.941C313 46.181 312.97 46.451 312.97 46.741C312.97 47.031 313.01 47.301 313.08 47.541C313.15 47.781 313.26 47.991 313.4 48.171C313.54 48.351 313.71 48.491 313.9 48.581C314.1 48.681 314.32 48.731 314.56 48.731C314.8 48.731 315.02 48.681 315.22 48.581C315.42 48.481 315.58 48.341 315.72 48.171C315.86 47.991 315.96 47.781 316.04 47.541C316.11 47.301 316.15 47.031 316.15 46.741ZM315.84 42.871C315.84 42.671 315.82 42.471 315.77 42.291C315.72 42.111 315.65 41.951 315.54 41.811C315.43 41.671 315.3 41.561 315.14 41.481C314.98 41.401 314.79 41.361 314.56 41.361C314.33 41.361 314.15 41.401 313.99 41.481C313.83 41.561 313.7 41.671 313.59 41.811C313.49 41.951 313.41 42.111 313.37 42.291C313.32 42.471 313.3 42.661 313.3 42.871C313.3 43.081 313.32 43.261 313.37 43.441C313.42 43.631 313.49 43.791 313.59 43.921C313.69 44.061 313.82 44.171 313.99 44.251C314.15 44.331 314.34 44.371 314.56 44.371C314.78 44.371 314.98 44.331 315.14 44.251C315.3 44.171 315.43 44.061 315.54 43.921C315.65 43.781 315.72 43.621 315.77 43.441C315.82 43.261 315.84 43.061 315.84 42.871Z" fill="#703E1E"/>
<path d="M321.75 44.6904V45.4204H318.81V44.6904H321.75Z" fill="#703E1E"/>
<path d="M323.47 42.5113C323.38 42.3513 323.27 42.2313 323.12 42.1313V42.0513C323.57 41.8713 324.03 41.6713 324.5 41.4513C324.97 41.2313 325.41 41.0213 325.82 40.8213L325.9 40.8813C325.87 41.4013 325.84 41.9113 325.83 42.4213C325.81 42.9313 325.81 43.4413 325.81 43.9613V45.9313C325.81 46.4513 325.81 46.9613 325.83 47.4613C325.85 47.9613 325.87 48.4513 325.9 48.9313C325.81 48.9113 325.71 48.9113 325.62 48.9113H325.06C324.97 48.9113 324.88 48.9113 324.78 48.9313C324.82 48.4413 324.84 47.9513 324.86 47.4513C324.87 46.9513 324.88 46.4513 324.88 45.9313V41.7313L323.47 42.5113Z" fill="#703E1E"/>
<path d="M329.29 41.2605C329.64 41.0705 330.06 40.9805 330.55 40.9805C330.86 40.9805 331.15 41.0205 331.42 41.1005C331.7 41.1805 331.93 41.3005 332.13 41.4805C332.33 41.6505 332.49 41.8705 332.61 42.1305C332.73 42.3905 332.79 42.7105 332.79 43.0705C332.79 43.3405 332.76 43.5905 332.7 43.8205C332.64 44.0505 332.54 44.2805 332.42 44.5005C332.3 44.7205 332.14 44.9405 331.96 45.1705C331.77 45.3905 331.56 45.6305 331.3 45.8805L330.78 46.4005C330.58 46.6005 330.38 46.8005 330.18 47.0105C329.98 47.2205 329.79 47.4305 329.61 47.6305C329.43 47.8405 329.28 48.0205 329.15 48.2005H330.27C330.84 48.2005 331.34 48.2005 331.78 48.1705C332.22 48.1505 332.6 48.1305 332.93 48.1105C332.89 48.2805 332.87 48.4305 332.87 48.5505C332.87 48.6605 332.89 48.7905 332.93 48.9505C332.5 48.9305 332.08 48.9305 331.67 48.9305H329.14C328.72 48.9305 328.3 48.9305 327.87 48.9505V48.8105C328.42 48.2705 328.9 47.7905 329.3 47.3705C329.71 46.9605 330.05 46.5805 330.33 46.2505C330.61 45.9205 330.84 45.6205 331.02 45.3505C331.2 45.0805 331.34 44.8305 331.44 44.5905C331.54 44.3505 331.61 44.1105 331.65 43.8805C331.69 43.6505 331.7 43.4005 331.7 43.1305C331.7 42.5505 331.57 42.1205 331.3 41.8405C331.04 41.5605 330.73 41.4205 330.37 41.4205C330.12 41.4205 329.9 41.4705 329.72 41.5605C329.54 41.6505 329.39 41.7605 329.27 41.8905C329.15 42.0205 329.06 42.1605 329 42.3105C328.94 42.4605 328.89 42.5905 328.87 42.7105L328.79 42.7305L328.38 42.1505C328.63 41.7505 328.93 41.4505 329.28 41.2605H329.29Z" fill="#703E1E"/>
<path d="M335.09 42.3513C335.07 41.8513 335.05 41.3413 335.03 40.8213C335.38 40.8413 335.74 40.8513 336.09 40.8613C336.44 40.8713 336.79 40.8813 337.15 40.8813C337.51 40.8813 337.86 40.8813 338.22 40.8613C338.58 40.8413 338.98 40.8313 339.4 40.8213C339.38 40.9413 339.36 41.0613 339.36 41.1713C339.36 41.2813 339.37 41.4113 339.4 41.5213C339.19 41.5013 338.93 41.4713 338.63 41.4613C338.33 41.4413 338.03 41.4213 337.71 41.4113C337.4 41.4013 337.1 41.3913 336.81 41.3813C336.52 41.3813 336.28 41.3713 336.1 41.3713C336.1 41.6513 336.09 41.9113 336.08 42.1613C336.08 42.4113 336.08 42.6613 336.08 42.9213C336.08 43.2013 336.08 43.4513 336.08 43.6813C336.08 43.9113 336.08 44.1513 336.08 44.4113C336.6 44.4113 337.11 44.4113 337.62 44.3913C338.13 44.3713 338.63 44.3413 339.13 44.3013C339.1 44.4213 339.08 44.5413 339.08 44.6513C339.08 44.7613 339.1 44.8913 339.13 45.0013C338.93 44.9813 338.71 44.9613 338.46 44.9513C338.21 44.9413 337.95 44.9313 337.69 44.9213C337.42 44.9213 337.15 44.9113 336.88 44.9113H336.09V45.9113C336.09 46.4313 336.09 46.9413 336.12 47.4513C336.14 47.9513 336.16 48.4513 336.19 48.9413C336.01 48.9213 335.82 48.9213 335.61 48.9213C335.4 48.9213 335.21 48.9213 335.03 48.9413C335.05 48.4513 335.08 47.9613 335.09 47.4513C335.11 46.9513 335.12 46.4313 335.12 45.9113V43.8813C335.12 43.3613 335.11 42.8513 335.09 42.3513Z" fill="#703E1E"/>
<path d="M341.48 48.8806C341.67 48.5206 341.81 48.1506 341.91 47.7706C342.01 47.3906 342.08 46.9906 342.12 46.5906C342.16 46.1806 342.18 45.7606 342.18 45.3106C342.18 44.8606 342.16 44.4306 342.12 44.0306C342.08 43.6206 342.01 43.2306 341.91 42.8506C341.81 42.4706 341.66 42.0906 341.48 41.7206C341.29 41.3506 341.06 40.9806 340.77 40.6006L341.01 40.3906C341.65 41.0706 342.13 41.8406 342.44 42.6906C342.76 43.5406 342.92 44.4106 342.92 45.3206C342.92 46.2306 342.76 47.0606 342.44 47.9106C342.12 48.7606 341.64 49.5306 341.01 50.2106L340.77 50.0006C341.06 49.6206 341.3 49.2506 341.48 48.9006V48.8806Z" fill="#703E1E"/>
</g>
<defs>
<linearGradient id="paint0_linear_515_232517" x1="482.89" y1="40.5496" x2="31.8794" y2="39.8894" gradientUnits="userSpaceOnUse">
<stop offset="0.27" stop-color="#9E2426" stop-opacity="0"/>
<stop offset="0.75" stop-color="#9E2426" stop-opacity="0.66"/>
<stop offset="0.99" stop-color="#9E2426"/>
</linearGradient>
<clipPath id="clip0_515_232517">
<rect width="460" height="80" fill="white"/>
</clipPath>
</defs>
</svg>
