<?xml version="1.0" encoding="utf-8"?>
<!-- Generator: Adobe Illustrator 27.0.0, SVG Export Plug-In . SVG Version: 6.00 Build 0)  -->
<svg version="1.1" id="圖層_1" xmlns="http://www.w3.org/2000/svg" xmlns:xlink="http://www.w3.org/1999/xlink" x="0px" y="0px"
	 viewBox="0 0 400 154" style="enable-background:new 0 0 400 154;" xml:space="preserve">
<style type="text/css">
	.st0{fill:#40220F;}
	.st1{fill:none;stroke:#D8B167;stroke-width:0.25;stroke-miterlimit:10;}
</style>
<path class="st0" d="M137.9,26.3h2c0.3-0.5,0.6-1,0.8-1.5l1.1,0.4c-0.2,0.4-0.5,0.8-0.7,1.1h3v1h-10.5v-1h3.1
	c-0.2-0.4-0.4-0.8-0.7-1.2l1.2-0.2C137.5,25.3,137.7,25.7,137.9,26.3L137.9,26.3z M138.6,34.5c0,0.4-0.1,0.7-0.3,0.9
	c-0.2,0.2-0.4,0.3-0.7,0.3h-1.2l-0.2-1.1l1,0.1c0.2,0,0.3-0.2,0.3-0.5v-0.9h-2.6v2.6h-1V28h4.6L138.6,34.5L138.6,34.5z M137.7,30.2
	V29h-2.6v1.2H137.7z M137.7,32.3v-1.2h-2.6v1.2H137.7z M140.8,28.3v5.4h-1.1v-5.4H140.8z M143.3,27.8v6.8c0,0.4-0.1,0.7-0.3,0.9
	c-0.2,0.2-0.5,0.3-1,0.3h-1.5l-0.2-1.2c0.6,0.1,1,0.1,1.4,0.1c0.3,0,0.4-0.1,0.4-0.3v-6.6L143.3,27.8L143.3,27.8z"/>
<path class="st0" d="M149.2,27.9c0.1-0.6,0.1-1.4,0.1-2.1v-0.8h1.2v0.8c0,0.8,0,1.5-0.1,2.1h4.7v1.2h-3.4c0.2,1.2,0.6,2.2,1.1,3
	c0.6,1,1.5,1.8,2.5,2.5l-0.7,1.2c-1.3-0.9-2.2-1.9-2.8-3.1c-0.6-1-1-2.2-1.3-3.6h-0.3c-0.2,0.8-0.4,1.5-0.7,2.2
	c-0.6,1.4-1.8,2.9-3.5,4.4l-1-0.9c1.6-1.2,2.8-2.5,3.4-3.9c0.2-0.5,0.5-1.1,0.6-1.8h-3.8v-1.2H149.2L149.2,27.9z"/>
<path class="st0" d="M160.3,25.3v0.8c-0.2,0.9-0.5,1.9-0.8,2.9c0.3,0.5,0.5,1,0.6,1.5c0.2,0.5,0.2,0.8,0.2,1.1
	c0,0.6-0.1,1.1-0.4,1.3c-0.2,0.3-0.8,0.5-1.6,0.5l-0.3-1.1c0.2,0,0.4,0,0.5,0c0.2,0,0.4,0,0.5-0.2c0.1-0.1,0.2-0.3,0.2-0.6
	c0-0.4-0.1-0.7-0.2-1c-0.1-0.4-0.3-0.9-0.7-1.5c0.4-1.1,0.7-2.1,0.8-2.8h-1.4v9.5h-1.1V25.3H160.3L160.3,25.3z M166.8,30.2v1h-2.1v3
	c0,0.2,0.1,0.4,0.4,0.4h0.4c0.1,0,0.2-0.1,0.3-0.2c0.1-0.1,0.1-0.7,0.1-1.7l1,0.3c-0.1,1.3-0.2,2-0.4,2.2c-0.2,0.2-0.4,0.4-0.9,0.4
	h-1c-0.3,0-0.6-0.1-0.7-0.3c-0.2-0.2-0.3-0.4-0.3-0.8v-3.4h-0.7c-0.1,1.1-0.2,2-0.6,2.7c-0.3,0.7-1,1.3-2.1,1.9l-0.7-0.9
	c0.9-0.4,1.5-0.9,1.8-1.3c0.3-0.5,0.6-1.3,0.6-2.4h-1.4v-1H166.8z M164.1,25.9h2.5v2.6H166v0.6h-5v-0.6h-0.7v-2.6h2.5
	c-0.2-0.3-0.3-0.6-0.5-0.9l1.2-0.2C163.7,25.1,163.9,25.5,164.1,25.9z M165.6,28.1V27h-4.2v1.1H165.6z"/>
<path class="st0" d="M170.1,26.2h1.4v1h-3.7v-1h1.4c-0.1-0.4-0.1-0.8-0.2-1.2l1.1-0.1C170,25.2,170.1,25.7,170.1,26.2L170.1,26.2z
	 M171.1,34.3c0.8-0.6,1.3-1.3,1.8-2h-1.2v-0.8h1.5v-0.9h-1.7v-0.9h1.7v-0.8h-1.4V28h1.4v-0.9h-1.6v-0.9h1.5
	c-0.2-0.4-0.4-0.8-0.6-1.2l1.1-0.1c0.2,0.4,0.4,0.9,0.6,1.4h1.1c0.2-0.4,0.4-0.9,0.5-1.4l1,0.1c-0.1,0.4-0.3,0.9-0.5,1.2h1.9v0.9
	h-2.3V28h1.7v1.6h0.7v0.9h-0.7v1.7H176c0.2,0.4,0.5,0.7,0.8,1c0.4,0.4,0.9,0.7,1.6,1.2l-0.7,0.9c-0.7-0.5-1.2-1.1-1.6-1.6
	c-0.1-0.1-0.2-0.2-0.2-0.3v2.4H175v-3.6h-0.8v3.6h-0.9v-2.6c-0.5,0.8-1,1.5-1.6,2l-0.5-0.8v0.4h-2v0.8h-1v-4.3h3L171.1,34.3
	L171.1,34.3z M171.1,28v0.9h-2.9V28H171.1z M171.1,29.7v0.9h-3v-0.9H171.1z M170.1,34v-1.5h-1V34H170.1z M175,27.1h-0.8V28h0.8V27.1
	z M174.1,29.6h0.8v-0.8h-0.8V29.6z M174.1,31.5h0.8v-0.9h-0.8V31.5z M175.9,29.6h0.8v-0.8h-0.8V29.6z M175.9,31.5h0.8v-0.9h-0.8
	V31.5z"/>
<path class="st0" d="M188.7,30.1h-2.6c0.2,0.5,0.4,0.9,0.7,1.2c0.5-0.2,1-0.6,1.5-1.1l0.7,0.7c-0.4,0.5-0.9,0.8-1.5,1.1
	c0.6,0.5,1.2,0.8,2.1,1.1l-0.6,1c-1.2-0.6-2.1-1.2-2.7-1.9c-0.6-0.6-0.9-1.3-1.2-2.2H184v2.6c0.5-0.1,1.1-0.3,1.7-0.5v1
	c-0.9,0.3-1.9,0.6-3,0.8c0,0,0,0,0,0c0.2,0.2,0.6,0.3,1.1,0.4c0.5,0.1,1.6,0.2,3.2,0.2c1.2,0,2.1,0,2.7-0.1l-0.1,1.1
	c-3.1,0-5,0-5.7-0.1c-0.6-0.1-1.1-0.3-1.5-0.5c-0.3-0.2-0.7-0.5-1.1-1.1c-0.3,0.6-0.8,1.2-1.3,1.9l-0.8-0.9c0.6-0.6,1-1.2,1.2-1.6
	c0.2-0.3,0.4-0.8,0.7-1.7h-1.6v-0.9c0.5-0.5,0.9-1.1,1.4-2h-1.7v-1h2.9v0.8c-0.4,0.7-0.8,1.3-1.4,2.1h1.4v0.7
	c-0.2,0.7-0.3,1.3-0.5,1.7c0.3,0.4,0.6,0.7,0.8,0.9l-0.1-0.9c0.2,0,0.4,0,0.7-0.1v-7.5h5.7L188.7,30.1L188.7,30.1z M181.9,26.5
	l-0.8,0.8c-0.3-0.5-0.7-1.1-1.2-1.6l0.7-0.7C181.1,25.5,181.5,26,181.9,26.5L181.9,26.5z M187.7,27.2v-0.8h-3.8v0.8H187.7z
	 M187.7,29.1v-1h-3.8v1H187.7z"/>
<path class="st0" d="M196.2,31.6c-0.2,0.2-0.5,0.5-0.9,0.8l-0.4-0.6c0.5-0.3,0.8-0.6,0.9-1.1h-0.7v-1.5h1.4v1.2
	C196.5,30.9,196.4,31.3,196.2,31.6z"/>
<path class="st0" d="M205.2,28.4c-0.3,0.7-0.6,1.3-1,1.8v5.6h-1v-4.5c-0.3,0.3-0.6,0.6-0.9,0.9l-0.3-1.2c0.5-0.4,0.9-0.8,1.3-1.3
	c0.4-0.4,0.7-1,1.1-1.7L205.2,28.4z M205.4,25.4c-0.4,0.6-0.8,1.1-1.2,1.4c-0.4,0.4-1,0.8-1.6,1.2l-0.5-1c0.5-0.2,1-0.5,1.4-1
	c0.3-0.3,0.7-0.7,1-1.2L205.4,25.4z M209.1,25.2c-0.5,0.8-1.1,1.4-1.6,1.9c0.9,0,1.6-0.1,2.2-0.2c0.3-0.3,0.6-0.7,0.9-1l0.9,0.6
	c-0.7,0.8-1.9,1.8-3.4,2.9c1.1,0,2-0.1,2.8-0.3c-0.1-0.3-0.3-0.6-0.4-0.8l0.7-0.5c0.6,1,1,1.8,1.4,2.4l-0.8,0.6
	c-0.1-0.3-0.2-0.6-0.4-0.9c-0.8,0.1-1.8,0.2-3,0.3c-0.2,0.4-0.3,0.7-0.5,0.9h3.7V32c-0.5,0.8-1,1.5-1.6,1.9c0.7,0.4,1.6,0.7,2.6,0.9
	l-0.6,1c-1.2-0.4-2.2-0.8-2.9-1.2c-0.9,0.5-2.1,0.9-3.6,1.2l-0.3-1c1.2-0.2,2.3-0.5,3.1-0.9c-0.5-0.4-1-0.9-1.4-1.5
	c-0.3,0.3-0.7,0.6-1.1,0.9l-0.8-0.7c0.7-0.5,1.2-0.9,1.7-1.4c0.2-0.3,0.4-0.6,0.6-1c-0.5,0-1.1,0.1-1.7,0.1l-0.3-1
	c0.5,0,0.9,0,1.3,0c0.7-0.5,1.4-1,2-1.5c-0.8,0.1-1.6,0.2-2.7,0.2l-0.3-1c0.3,0,0.5,0,0.8,0c0.6-0.6,1.2-1.3,1.8-2.3L209.1,25.2
	L209.1,25.2z M209,33.4c0.5-0.3,0.9-0.8,1.3-1.3h-2.7C208.1,32.6,208.5,33,209,33.4z"/>
<path class="st0" d="M219.2,24.9c-0.1,0.4-0.2,0.7-0.4,1.1h4.1v9.6h-1.1V35h-6.4v0.6h-1.1V26h3.3c0.2-0.4,0.3-0.8,0.4-1.2
	L219.2,24.9z M221.8,28.4v-1.4h-6.4v1.4H221.8z M221.8,31.1v-1.6h-6.4v1.6H221.8z M221.8,33.9v-1.7h-6.4v1.7H221.8z"/>
<path class="st0" d="M228,25c-0.1,0.3-0.2,0.5-0.2,0.8h2.8v0.8c-0.1,0.3-0.2,0.7-0.3,0.9h1.3c0.1-0.4,0.1-0.8,0.1-1.2V25h1v1.3
	c0,0.4,0,0.8-0.1,1.2h2.6v1h-2.4c0.2,0.6,0.4,1.1,0.8,1.5c0.5,0.6,1.1,1,1.8,1.4l-0.6,1c-0.9-0.6-1.6-1.2-2.1-1.9
	c-0.2-0.3-0.4-0.7-0.6-1.1c-0.1,0.3-0.2,0.5-0.4,0.8c-0.5,1-1.4,1.7-2.6,2.2l-0.5-0.9c1.2-0.5,2-1.2,2.4-2c0.2-0.3,0.3-0.6,0.4-1
	h-1.6c-0.2,0.5-0.5,0.9-0.8,1.2c-0.8,1-2,1.9-3.7,2.6l-0.4-1.1c0.8-0.2,1.4-0.5,2-1c-0.3-0.3-0.7-0.5-1-0.7l0.5-0.8
	c0.4,0.2,0.9,0.5,1.2,0.8c0.1-0.1,0.3-0.3,0.4-0.5c0.1-0.1,0.1-0.2,0.2-0.2c-0.5-0.3-0.9-0.5-1.4-0.7l0.5-0.8c0.5,0.2,1,0.4,1.4,0.6
	c0.2-0.4,0.4-0.9,0.6-1.4h-1.9c-0.2,0.4-0.3,0.8-0.5,1.1c-0.4,0.8-1,1.5-1.7,2.1l-0.6-0.9c0.6-0.6,1-1.2,1.4-1.9
	c0.3-0.5,0.6-1.3,0.8-2.2L228,25L228,25z M227.2,32.9c-0.4,1.1-0.9,2.1-1.4,2.9l-1-0.8c0.6-0.7,1.1-1.6,1.5-2.6L227.2,32.9z
	 M229.4,35.5l-1.2,0.1c-0.1-1-0.1-1.8-0.2-2.6l1-0.1C229.1,33.7,229.3,34.6,229.4,35.5L229.4,35.5z M232.2,35.5l-1.2,0.1
	c-0.1-1-0.3-1.9-0.4-2.6l1-0.1C231.8,33.7,232.1,34.6,232.2,35.5L232.2,35.5z M235.2,35.2l-1.1,0.5c-0.4-1.1-0.9-2-1.4-2.8l1.1-0.4
	C234.4,33.4,234.8,34.3,235.2,35.2L235.2,35.2z M234.8,26.8l-0.9,0.6c-0.2-0.4-0.5-0.9-0.9-1.4l0.7-0.5
	C234.1,26.1,234.5,26.5,234.8,26.8z"/>
<path class="st0" d="M239,25c-0.4,1.1-0.9,2.2-1.4,3.1c0.3,0,0.7-0.1,1.1-0.2c0.2-0.5,0.5-1.1,0.8-1.7l0.9,0.4
	c-0.8,1.9-1.7,3.4-2.5,4.5c0.5,0,1-0.1,1.3-0.2c-0.1-0.4-0.2-0.8-0.2-1.2l0.8-0.3c0.2,0.8,0.4,1.6,0.6,2.6l-0.9,0.2
	c0-0.2-0.1-0.4-0.1-0.5c-0.7,0.2-1.7,0.3-2.9,0.5l-0.3-1c0.2,0,0.4,0,0.6,0c0.5-0.6,0.9-1.4,1.4-2.2c-0.6,0.1-1.2,0.3-1.9,0.4
	l-0.2-1c0.2,0,0.3,0,0.5-0.1c0.6-1,1.1-2.2,1.6-3.5L239,25L239,25z M237.4,32.7c-0.1,1.2-0.2,2.2-0.4,3l-0.9-0.3
	c0.2-0.9,0.4-1.8,0.4-2.8L237.4,32.7z M238.9,35.3l-0.9,0.1c0-1.1-0.1-2-0.2-2.6l0.8-0.1C238.7,33.3,238.8,34.1,238.9,35.3z
	 M240.5,34.6l-0.9,0.2c-0.1-0.8-0.3-1.5-0.5-2.3l0.8-0.2C240.1,33,240.3,33.8,240.5,34.6z M242.7,24.9l-0.2,0.7h3.3l-0.9,3.6h1.7
	v0.9h-2.8v4.6c0,0.4-0.1,0.7-0.2,0.9c-0.2,0.2-0.4,0.3-0.9,0.3h-1l-0.2-1.1c0.4,0.1,0.7,0.1,0.9,0.1c0.3,0,0.4-0.1,0.4-0.3v-4.4
	h-2.7v-0.9h3.8l0.2-0.8h-3.4l1.1-3.7L242.7,24.9L242.7,24.9z M242.8,33.1c-0.5,0.6-1.1,1-1.9,1.4l-0.5-0.9c0.7-0.3,1.4-0.7,2-1.4
	L242.8,33.1L242.8,33.1z M242.6,31.4l-0.5,0.9c-0.5-0.5-1-0.9-1.6-1.2l0.5-0.7C241.6,30.6,242.1,31,242.6,31.4L242.6,31.4z
	 M244.6,26.4h-2.3l-0.3,1h2.4L244.6,26.4L244.6,26.4z M246.8,34.3l-0.8,0.6c-0.5-0.6-1.1-1.2-2-1.9l0.7-0.4
	C245.6,33.2,246.3,33.8,246.8,34.3z M246.6,31c-0.7,0.6-1.4,1.1-2.1,1.4l-0.4-0.9c0.8-0.2,1.4-0.6,2-1.1L246.6,31z"/>
<path class="st0" d="M248.9,27.9v-3h1.1v3h1.2v1.1H250v3.6c0.4-0.2,0.8-0.4,1.2-0.6v1.2c-1,0.5-2.1,1-3.3,1.3l-0.1-1.3
	c0.4,0,0.8-0.1,1.2-0.3v-4h-1.2v-1.1H248.9z M257.8,30.8c0,0.5-0.1,0.9-0.3,1.2c-0.2,0.3-0.7,0.4-1.5,0.4l-0.4-1.1h0.7
	c0.2,0,0.4,0,0.4-0.2c0-0.1,0.1-0.3,0.1-0.6v-2.2l-1.4,0.6v4.5h-1v-4.1l-1.2,0.5V34c0,0.3,0.1,0.4,0.4,0.4h3c0.2,0,0.4,0,0.5-0.1
	c0.1-0.1,0.2-0.6,0.2-1.4l1,0.3c-0.1,1.1-0.3,1.8-0.5,2c-0.2,0.2-0.6,0.3-1.1,0.3H253c-0.3,0-0.6-0.1-0.8-0.3
	c-0.2-0.2-0.3-0.5-0.3-0.8v-4.1l-0.9,0.4v-1.1l0.9-0.4v-3h1.1v2.5l1.2-0.5V25h1v2.8l2.5-1C257.8,29.5,257.8,30.8,257.8,30.8
	L257.8,30.8z"/>
<path class="st0" d="M264.6,31.6c-0.2,0.2-0.5,0.5-0.9,0.8l-0.4-0.6c0.5-0.3,0.8-0.6,0.9-1.1h-0.7v-1.5h1.4v1.2
	C264.9,30.9,264.8,31.3,264.6,31.6z"/>
<path class="st0" d="M136.8,56.4c-0.3,1-0.6,1.8-0.9,2.5v8h-1v-6.2c-0.3,0.4-0.6,0.8-0.9,1.2l-0.4-1.4c0.5-0.6,0.9-1.3,1.2-2
	c0.4-0.6,0.7-1.5,1.1-2.6L136.8,56.4z M138.2,57.3V56h1v1.2h2V56h1v1.3h1.5v1h-1.5v1.3h1.8v1h-7.7v-1h1.8v-1.3h-1.5v-1H138.2
	L138.2,57.3z M143.2,67h-1v-0.5h-3.9V67h-1v-5.5h5.9V67z M142.2,63.5v-1h-3.9v1H142.2z M142.2,65.5v-1.1h-3.9v1.1H142.2z
	 M141.2,59.6v-1.3h-2v1.3H141.2z"/>
<path class="st0" d="M155.1,66.9h-1v-0.4h-7.8v0.4h-1V56.3h9.8V66.9z M154.1,65.6v-8.3h-7.8v8.3H154.1z M153.3,60.6v2.2h-3.1
	c-0.1,0.1-0.1,0.1-0.1,0.2v2.3H149v-1.4c-0.6,0.4-1.3,0.8-2.1,1.1l-0.5-0.9c0.8-0.3,1.4-0.5,1.8-0.8c0.2-0.2,0.5-0.3,0.6-0.5h-1.6
	v-2.2H153.3L153.3,60.6z M149.6,58v-0.5h0.9V58h2.7v0.7h-2.7v0.6h3.2v0.8h-7.2v-0.8h3v-0.6h-2.5V58H149.6L149.6,58z M152.4,61.4
	h-4.1V62h4.1V61.4z M151.8,63.6c0.2-0.2,0.4-0.5,0.5-0.7l0.8,0.5c-0.1,0.2-0.3,0.4-0.5,0.6c0.4,0.2,0.8,0.4,1.1,0.6l-0.5,0.9
	c-1-0.7-2-1.2-3.1-1.6l0.4-0.7C151,63.3,151.4,63.5,151.8,63.6L151.8,63.6z"/>
<path class="st0" d="M158.2,58.3V56h1.1v2.3h1.6v1h-1.6v0.4c0.7,0.7,1.3,1.4,2,2.2l-0.6,1c-0.6-0.8-1-1.5-1.4-1.9V67h-1.1v-6
	c-0.1,0.2-0.1,0.3-0.1,0.4c-0.3,1.1-0.8,2-1.2,2.8l-0.4-1.3c0.6-1,1.2-2.2,1.6-3.6h-1.5v-1H158.2z M163.2,58.3V56h1.1v2.3h2.4v1
	h-1.9c0.2,0.8,0.5,1.6,0.9,2.3c0.3,0.7,0.9,1.6,1.5,2.4l-0.8,1c-0.6-1-1.1-2-1.5-3c-0.2-0.5-0.4-1-0.5-1.5V67h-1.1v-6.1
	c-0.6,1.7-1.3,3.1-2.1,4.3l-0.7-1.1c1-1.3,1.8-2.9,2.4-4.8h-1.6v-1H163.2z"/>
<path class="st0" d="M173.8,57.8h4v1c-0.9,1.5-1.7,2.6-2.6,3.4c-0.7,0.7-1.9,1.6-3.7,2.6c0.2,0.2,0.5,0.4,0.9,0.5
	c0.5,0.2,1.6,0.2,3.2,0.3c1.2,0,2,0,2.6-0.1l-0.2,1.3c-3.1,0-5-0.1-5.7-0.2c-0.6-0.1-1.1-0.4-1.5-0.7c-0.3-0.2-0.7-0.7-1-1.5
	c-0.3,0.8-0.7,1.6-1.3,2.4l-0.7-1.2c0.4-0.6,0.7-1.2,0.9-1.8c0.2-0.5,0.4-1.1,0.6-2h1.1c-0.1,0.4-0.2,0.8-0.2,1.1
	c0.1,0.3,0.3,0.6,0.4,0.8c1-0.5,2.1-1.1,3.1-1.9c0.7-0.5,1.5-1.5,2.6-3h-7.8v-1.1h3.8c-0.4-0.5-0.8-1.1-1.3-1.6l1.4-0.2
	C173,56.6,173.5,57.2,173.8,57.8L173.8,57.8z"/>
<path class="st0" d="M188.7,56.3v3.5h-3.9c0.1,0.2,0.1,0.4,0.2,0.5h4.6v0.9h-10.3v-0.9h4.6c-0.1-0.2-0.2-0.3-0.3-0.5h-3.4v-3.5
	H188.7z M182.6,65c-0.5,0.5-0.9,0.8-1.2,1c-0.4,0.2-0.9,0.5-1.6,0.8l-0.5-1c0.6-0.2,1.1-0.4,1.6-0.7c0.4-0.2,0.8-0.5,1.1-0.9
	L182.6,65L182.6,65z M188.6,61.7V64h-3.5v1.8c0,0.4-0.1,0.7-0.3,0.8c-0.2,0.2-0.5,0.3-0.9,0.3h-1.2l-0.2-1.1
	c0.5,0.1,0.8,0.1,1.1,0.1s0.4-0.1,0.4-0.3V64h-3.7v-2.3H188.6z M187.7,57.7v-0.6h-6.5v0.6H187.7z M187.7,58.4h-6.5V59h6.5V58.4z
	 M187.6,62.5h-6.4v0.6h6.4V62.5z M189.6,65.8l-0.4,1c-0.9-0.8-1.9-1.3-2.8-1.7l0.4-0.9C187.6,64.6,188.6,65.1,189.6,65.8L189.6,65.8
	z"/>
<path class="st0" d="M196.2,62.8c-0.2,0.2-0.5,0.5-0.9,0.8l-0.4-0.6c0.5-0.3,0.8-0.6,0.9-1.1h-0.7v-1.5h1.4v1.2
	C196.5,62.1,196.4,62.5,196.2,62.8z"/>
<path class="st0" d="M204.9,58.9v0.8c-0.4,0.7-0.8,1.3-1.4,2.1h1.4v0.7c-0.2,0.7-0.3,1.2-0.5,1.6c0.5,0.6,1.1,1,1.7,1.2
	c0.6,0.2,1.8,0.3,3.5,0.3c1.1,0,2,0,2.7-0.1l-0.3,1.2c-3.5,0-5.6-0.1-6.3-0.4c-0.7-0.2-1.3-0.7-1.8-1.3c-0.3,0.6-0.8,1.3-1.4,2
	l-0.8-0.9c0.6-0.6,1.1-1.2,1.3-1.6c0.2-0.3,0.4-0.8,0.7-1.7h-1.7v-0.9c0.5-0.5,0.9-1.1,1.4-2H202v-1L204.9,58.9L204.9,58.9z
	 M204.6,57.6l-0.7,0.8c-0.3-0.5-0.8-1-1.3-1.6l0.7-0.7C203.8,56.7,204.3,57.2,204.6,57.6z M207.7,56.3c-0.1,0.4-0.2,0.7-0.4,1h1V56
	h1v1.3h2.5v1h-2.5v1.2h3v1h-3v0.7h-1v-0.7h-3v-1h3v-1.2h-1.5c-0.2,0.4-0.5,0.7-0.7,1.1l-0.9-0.6c0.7-0.8,1.2-1.7,1.5-2.6L207.7,56.3
	L207.7,56.3z M211.7,61.5v3.2H206v-3.2H211.7z M210.6,62.4H207v1.3h3.6V62.4z"/>
<path class="st0" d="M219.2,56v2.9c0.4,1.8,0.9,3.2,1.7,4.3c0.6,0.9,1.6,1.9,3,2.9l-0.8,1.1c-1.1-0.8-2-1.6-2.6-2.3
	c-0.8-0.9-1.4-2-1.8-3.4c-0.4,1.4-0.9,2.5-1.5,3.2c-0.7,0.8-1.7,1.7-3.1,2.5l-0.7-1.1c1.7-1.1,2.9-2.3,3.6-3.6c0.6-1.2,1-2.4,1-3.6
	V56L219.2,56L219.2,56z"/>
<path class="st0" d="M231,57.7l-0.6,0.5h4.8v1.1h-1.7c-0.5,1.4-1.1,2.6-1.8,3.6c-0.2,0.4-0.5,0.7-0.8,1c1,0.7,2.4,1.4,4.3,2.1
	l-0.6,1.2c-1.9-0.8-3.4-1.6-4.5-2.5c-0.2,0.2-0.4,0.3-0.6,0.5c-1.1,0.7-2.5,1.4-4.1,1.9l-0.6-1.1c1.7-0.5,3-1,3.9-1.6
	c0.2-0.1,0.4-0.2,0.6-0.4c-1.1-1.1-1.9-2.7-2.5-4.7h-1.8v-1.1h4.9c-0.4-0.5-0.8-1-1.4-1.6l0.8-0.6C229.9,56.7,230.6,57.2,231,57.7
	L231,57.7z M230.1,63.1c0.3-0.3,0.6-0.7,0.9-1.2c0.5-0.7,0.9-1.7,1.3-2.7h-4.5C228.4,61,229.2,62.3,230.1,63.1L230.1,63.1z"/>
<path class="st0" d="M242.2,57.8h4v1c-0.9,1.5-1.7,2.6-2.6,3.4c-0.7,0.7-1.9,1.6-3.7,2.6c0.2,0.2,0.6,0.4,0.9,0.5
	c0.5,0.2,1.6,0.2,3.2,0.3c1.2,0,2.1,0,2.6-0.1l-0.2,1.3c-3.1,0-5-0.1-5.6-0.2c-0.6-0.1-1.1-0.4-1.5-0.7c-0.3-0.2-0.7-0.7-1-1.5
	c-0.3,0.8-0.7,1.6-1.3,2.4l-0.7-1.2c0.4-0.6,0.7-1.2,1-1.8c0.2-0.5,0.4-1.1,0.6-2h1.1c-0.1,0.4-0.2,0.8-0.2,1.1
	c0.1,0.3,0.3,0.6,0.4,0.8c1.1-0.5,2.1-1.1,3.1-1.9c0.7-0.5,1.5-1.5,2.6-3h-7.8v-1.1h3.8c-0.4-0.5-0.8-1.1-1.3-1.6L241,56
	C241.4,56.6,241.9,57.2,242.2,57.8L242.2,57.8z"/>
<path class="st0" d="M249.8,64.5c-0.4,0.8-0.9,1.5-1.4,2l-0.9-0.7c0.5-0.5,1-1.1,1.5-1.8L249.8,64.5L249.8,64.5z M253.2,56.8h4.2
	v0.9h-2l-0.4,0.8h2.8v0.8h-10.1v-0.8h2.8l-0.4-0.8h-1.9v-0.9h3.8c-0.1-0.2-0.3-0.4-0.4-0.7l1.2-0.2C253,56.3,253.1,56.5,253.2,56.8z
	 M256.7,59.9v3.7h-7.9v-3.7H256.7z M255.7,61.4v-0.7h-5.9v0.7H255.7z M255.7,62.1h-5.9v0.8h5.9V62.1z M251.4,64v1.5
	c0,0.2,0.1,0.3,0.4,0.3h2.2c0.2,0,0.3,0,0.4-0.1c0.1-0.1,0.2-0.4,0.2-1.1l1,0.3c-0.1,0.9-0.3,1.4-0.5,1.6c-0.2,0.2-0.5,0.2-1,0.2
	h-2.8c-0.3,0-0.6-0.1-0.7-0.2c-0.2-0.2-0.3-0.4-0.3-0.7V64L251.4,64L251.4,64z M253.9,58.5l0.4-0.8h-3.1l0.4,0.8H253.9z M254.1,65
	l-0.9,0.7c-0.2-0.4-0.6-0.9-1-1.5l0.8-0.5C253.4,64.2,253.8,64.6,254.1,65L254.1,65z M258,65.9l-0.9,0.7c-0.3-0.6-0.7-1.2-1.2-2
	l0.8-0.5C257.2,64.7,257.7,65.4,258,65.9z"/>
<path class="st0" d="M264.6,62.8c-0.2,0.2-0.5,0.5-0.9,0.8l-0.4-0.6c0.5-0.3,0.8-0.6,0.9-1.1h-0.7v-1.5h1.4v1.2
	C264.9,62.1,264.8,62.5,264.6,62.8z"/>
<path class="st0" d="M86.9,88.1v-0.9h1.1v0.9h4.5v1.1h-4.5V90h3.7v4.6h-2.6c0.5,0.5,0.9,0.9,1.3,1.2c0.6,0.4,1.4,0.8,2.4,1.1
	l-0.5,1.1c-1.2-0.6-2.1-1.1-2.7-1.6c-0.5-0.4-1-1-1.5-1.8h-0.1v3.7H87v-3.7h0c-0.3,0.6-0.7,1.1-1.2,1.5c-0.7,0.6-1.6,1.2-2.9,1.9
	l-0.6-1c1.3-0.6,2.2-1.1,2.7-1.5c0.3-0.2,0.6-0.5,0.8-0.9h-2.4V90h3.5v-0.7h-4.5v-1.1L86.9,88.1L86.9,88.1z M86.9,91.8V91h-2.5v0.8
	H86.9z M86.9,92.7h-2.5v0.8h2.5V92.7z M88.1,91.8h2.6V91h-2.6V91.8z M90.7,92.7h-2.6v0.8h2.6V92.7z"/>
<path class="st0" d="M99.6,88.4h4.6v1H93.8v-1h4.7c-0.2-0.3-0.3-0.6-0.6-0.9l1.1-0.2C99.2,87.6,99.4,88,99.6,88.4z M96.7,94.8
	c-0.6,1.1-1.3,2.1-2.1,2.9l-0.7-1c0.8-0.7,1.4-1.6,2-2.7L96.7,94.8L96.7,94.8z M103,90.2v3.5h-3.6v3.3c0,0.4-0.1,0.7-0.3,0.9
	c-0.2,0.2-0.5,0.3-1,0.3h-1.2l-0.2-1.2c0.4,0.1,0.8,0.1,1.1,0.1c0.3,0,0.5-0.1,0.5-0.3v-3.1h-3.4v-3.5H103L103,90.2z M101.9,91.2h-6
	v1.4h6V91.2z M103.7,96.8l-0.9,0.9c-0.5-0.8-1.1-1.7-2-2.7l0.8-0.8C102.4,95.1,103.1,96,103.7,96.8z"/>
<path class="st0" d="M110.9,90.1c-0.3,0.6-0.6,1.1-0.9,1.6h5.6v1.1h-1.8c-0.5,1.3-1.1,2.3-1.7,3c1,0.5,2,1,3.1,1.6l-0.7,0.9
	c-1-0.7-2.1-1.2-3.3-1.8c-1.1,0.7-2.9,1.3-5.4,1.7l-0.4-1.2c2.1-0.2,3.6-0.6,4.6-1.1c-1.1-0.4-2.2-0.8-3.5-1.2
	c0.5-0.6,0.9-1.3,1.4-2.1h-2.9v-1.1h3.6c0.4-0.6,0.8-1.2,1.1-1.9L110.9,90.1L110.9,90.1z M111,88.3h4.3V91h-1.1v-1.6h-7.7V91h-1.1
	v-2.7h4.4c-0.1-0.3-0.3-0.6-0.5-0.9l1.2-0.2C110.7,87.5,110.8,87.9,111,88.3z M109.3,92.7c-0.4,0.6-0.7,1.1-1,1.5
	c0.9,0.2,1.8,0.6,2.8,1c0.6-0.6,1.1-1.4,1.6-2.5H109.3z"/>
<path class="st0" d="M119.3,87.5c-0.4,1.2-0.8,2.2-1.3,3c0.3,0,0.6-0.1,0.9-0.1c0.3-0.6,0.5-1.2,0.8-1.8l0.9,0.3
	c-0.8,1.9-1.6,3.4-2.4,4.6c0.5-0.1,1-0.1,1.4-0.2c-0.1-0.4-0.2-0.8-0.2-1.2l0.8-0.2c0.2,0.8,0.4,1.6,0.5,2.6l-0.8,0.2
	c0-0.2-0.1-0.3-0.1-0.5c-0.7,0.2-1.7,0.3-2.9,0.4l-0.3-1c0.2,0,0.4,0,0.6,0c0.4-0.6,0.8-1.3,1.3-2.2c-0.6,0.1-1.2,0.2-1.9,0.2
	l-0.2-1c0.2,0,0.4,0,0.7,0c0.5-1,1-2.1,1.4-3.4L119.3,87.5L119.3,87.5z M117.8,95.2c-0.1,1.2-0.2,2.2-0.4,3l-0.9-0.3
	c0.2-0.9,0.4-1.8,0.5-2.8L117.8,95.2z M119.2,97.8l-0.9,0.1c0-1.2,0-2.1-0.1-2.7l0.8-0.1C119,95.8,119.1,96.7,119.2,97.8z
	 M120.7,97.1l-0.8,0.2c-0.1-0.8-0.2-1.5-0.4-2.3l0.8-0.2C120.4,95.5,120.5,96.3,120.7,97.1z M126.5,94.3V95
	c-0.5,0.7-1.1,1.2-1.9,1.7c0.6,0.2,1.4,0.4,2.3,0.6l-0.6,0.9c-1.2-0.3-2.1-0.6-2.8-0.9c-0.9,0.4-1.8,0.7-2.9,0.9l-0.4-0.8
	c0.9-0.1,1.8-0.3,2.5-0.6c-0.6-0.4-1-0.8-1.4-1.3l0.6-0.3h-1.1v-0.9L126.5,94.3L126.5,94.3z M126.8,91.4v2.5h-6.1v-2.5H126.8z
	 M126.4,87.6v3.3h-5.4v-3.3H126.4z M122.4,92.2h-0.8v0.9h0.8V92.2z M125.4,88.9v-0.6h-3.5v0.6H125.4z M125.4,89.6h-3.5v0.6h3.5V89.6
	z M123.8,96.3c0.5-0.3,1-0.7,1.4-1.2h-2.9C122.8,95.6,123.2,96,123.8,96.3z M124.1,92.2h-0.9v0.9h0.9V92.2z M125.8,92.2H125v0.9h0.8
	V92.2z"/>
<path class="st0" d="M137,87.6v6.6c0,1.4,0.1,2.2,0.2,2.3c0.1,0.2,0.1,0.3,0.2,0.3c0.1,0,0.2-0.4,0.4-1.4l0.8,0.5
	c-0.1,1-0.3,1.6-0.5,1.9c-0.2,0.2-0.3,0.3-0.6,0.3c-0.4,0-0.6-0.1-0.9-0.4c-0.4-0.5-0.6-1.6-0.6-3.5v-5.5h-6.2v4
	c0,0.9-0.1,1.8-0.2,2.8c-0.2,1-0.4,2-0.8,3l-0.9-0.8c0.3-0.8,0.6-1.6,0.7-2.4c0.1-0.9,0.1-1.7,0.1-2.4v-5L137,87.6L137,87.6z
	 M135.6,89.3v1h-2.3v1h2v3.7h-2v1.5c0.4-0.1,0.8-0.1,1.2-0.2c-0.1-0.3-0.3-0.5-0.4-0.7l0.8-0.3c0.4,0.7,0.8,1.4,1.1,2.2l-0.8,0.4
	c-0.1-0.2-0.2-0.5-0.3-0.7c-1.1,0.2-2.8,0.4-4.9,0.6l-0.3-1.1c1,0,1.8,0,2.6-0.1v-1.6h-2v-3.7h2v-1h-2.2v-1L135.6,89.3L135.6,89.3z
	 M132.3,92.2h-1V94h1V92.2z M134.4,92.2h-1.1V94h1.1V92.2z"/>
<path class="st0" d="M144.9,94c-0.2,0.2-0.5,0.5-0.9,0.8l-0.4-0.6c0.5-0.3,0.8-0.6,0.9-1.1h-0.7v-1.5h1.4v1.2
	C145.2,93.3,145.1,93.7,144.9,94z"/>
<path class="st0" d="M156.1,88.3c-0.6,0.3-1.2,0.5-2,0.6v1.6h2.1v1h-2.1v0.2c0.7,0.6,1.4,1.3,2,2.1l-0.7,1c-0.6-0.7-1-1.4-1.4-1.8
	v5.2h-1v-5.4c-0.5,1.3-1.1,2.4-1.9,3.3l-0.7-1c0.9-1,1.6-2.2,2.2-3.6h-2v-1h2.4v-1.4c-0.6,0.1-1.2,0.1-1.9,0.1l-0.3-1
	c1.9,0,3.4-0.3,4.7-0.8L156.1,88.3L156.1,88.3z M160.8,97.8h-1v-0.9h-2v1.1h-1V88h4V97.8z M159.8,95.9V89h-2v6.9H159.8z"/>
<path class="st0" d="M164.1,91.1h0.8c0.2-0.5,0.3-1.1,0.4-1.7l0.9,0.1c-0.1,0.6-0.3,1.1-0.5,1.6h1.1V92h-4.7v-0.9h1.1
	c-0.1-0.4-0.3-0.9-0.5-1.4l0.8-0.3C163.8,89.8,164,90.4,164.1,91.1L164.1,91.1z M165.1,88.1h1.7v1h-4.4v-1h1.6
	c-0.1-0.3-0.2-0.6-0.3-0.9l1.1-0.1C164.9,87.5,165,87.8,165.1,88.1L165.1,88.1z M166.5,98h-1v-0.7h-2v0.8h-1v-5.4h4.1L166.5,98
	L166.5,98z M165.5,94.6v-0.9h-2v0.9H165.5z M165.5,96.4v-1h-2v1H165.5z M169.4,97.1c-0.7,0.5-1.4,0.9-2.1,1.1l-0.4-1
	c0.7-0.2,1.4-0.5,2-0.8L169.4,97.1L169.4,97.1z M172.2,90.7v5.5h-5v-5.5H172.2z M172.1,87.6v2.6h-4.7v-2.6H172.1z M171.2,92.3v-0.7
	h-3.1v0.7H171.2z M171.2,93.8v-0.7h-3.1v0.7H171.2z M171.2,94.6h-3.1v0.8h3.1V94.6z M171.1,88.5h-2.8v0.8h2.8V88.5z M172.7,97.3
	l-0.6,0.9c-0.7-0.5-1.3-0.8-2-1.1l0.5-0.8C171.3,96.6,172,97,172.7,97.3L172.7,97.3z"/>
<path class="st0" d="M176.1,89.1h0.9v1c-0.3,0.8-0.7,1.5-1,2.1c0.4,0.3,0.8,0.6,1.3,1l-0.4,1.1c-0.3-0.4-0.7-0.7-1-0.9v4.9h-1v-4.4
	c-0.3,0.4-0.7,0.8-1,1.1l-0.3-1.3c0.6-0.5,1-1.1,1.3-1.5c0.3-0.4,0.7-1.1,1.1-2.1h-2.3v-1h1.5c-0.2-0.6-0.4-1.2-0.7-1.8l1-0.1
	C175.6,87.8,175.9,88.4,176.1,89.1L176.1,89.1z M183.5,90.9v4.3H181v0.7h3v0.9h-3v1.4h-1v-1.4h-3.1v-0.9h3.1v-0.7h-2.5v-4.3H183.5z
	 M180.2,87.6v2.8h-2.9v-2.8H180.2z M179.3,88.4h-1.2v1.1h1.2V88.4z M180,92.6v-0.9h-1.5v0.9H180z M180,93.4h-1.5v1h1.5V93.4z
	 M183.7,87.6v2.8h-2.9v-2.8H183.7z M181,92.6h1.5v-0.9H181V92.6z M182.5,93.4H181v1h1.5V93.4z M182.8,88.4h-1.1v1.1h1.1V88.4z"/>
<path class="st0" d="M190.6,87.2c1.4,0.9,3,1.7,4.8,2.4l-0.4,1.1c-0.1-0.1-0.2-0.1-0.3-0.2v3.1h-8.9v-3.1c-0.1,0.1-0.3,0.1-0.4,0.2
	l-0.4-1c1.6-0.6,3.2-1.4,4.7-2.4H190.6z M194.1,98.2H193v-0.4h-5.7v0.4h-1.1v-4.1h7.9L194.1,98.2L194.1,98.2z M194,90.3
	c-0.7-0.3-1.3-0.6-1.9-1v0.5h-4.1v-0.5c-0.6,0.4-1.2,0.7-1.8,1H194z M189.6,91.1h-2.9v1.6h1.4c-0.2-0.3-0.4-0.7-0.7-1.1l0.6-0.4
	c0.3,0.4,0.6,0.8,0.8,1.1l-0.6,0.5h1.3L189.6,91.1L189.6,91.1z M193,95.6V95h-5.7v0.7H193z M193,97v-0.7h-5.7V97H193z M191.6,89
	c-0.6-0.3-1.1-0.6-1.5-0.9c-0.5,0.4-1,0.7-1.5,0.9H191.6z M193.6,91.1h-3v1.6h1.4l-0.7-0.5c0.2-0.3,0.5-0.6,0.7-1l0.7,0.3
	c-0.2,0.5-0.4,0.9-0.6,1.2h1.4L193.6,91.1L193.6,91.1z"/>
<path class="st0" d="M201.5,88.4c-1,0.4-2.1,0.6-3.4,0.6v1.2h2.8v3.9h-2.9c-0.1,0.6-0.1,1.2-0.2,1.9c-0.2,0.8-0.4,1.6-0.8,2.3
	l-0.8-0.9c0.2-0.6,0.4-1.2,0.6-1.8c0.1-0.7,0.2-1.5,0.2-2.4v-5.1c1.6,0,2.9-0.2,3.9-0.8L201.5,88.4z M200,93.1v-1.8h-1.8v1.8H200z
	 M206.8,88.4c-1.2,0.4-2.5,0.6-4,0.7v2.1h4.1v1.1h-1.2v6.1h-1.1v-6.1h-1.8v1.4c0,0.8-0.2,1.7-0.4,2.5c-0.2,0.8-0.6,1.5-1.1,2.2
	l-0.8-0.9c0.4-0.5,0.7-1.1,0.9-1.7c0.2-0.6,0.3-1.3,0.3-2.2v-5.5c1.8,0,3.3-0.3,4.5-0.8L206.8,88.4L206.8,88.4z"/>
<path class="st0" d="M213.3,94c-0.2,0.2-0.5,0.5-0.9,0.8l-0.4-0.6c0.5-0.3,0.8-0.6,0.9-1.1h-0.7v-1.5h1.4v1.2
	C213.6,93.3,213.5,93.7,213.3,94z"/>
<path class="st0" d="M221.8,87.3v7.5c0.8-0.3,1.6-0.7,2.4-1.1l0.3,1.1c-1.3,0.8-3,1.5-4.9,2.1l-0.5-1.2c0.5-0.1,1-0.3,1.6-0.5v-8
	L221.8,87.3L221.8,87.3z M227.9,87.3c0,2.5-0.3,4.5-0.8,6c0.9,1.2,1.7,2.3,2.3,3.4l-0.9,1c-0.5-1-1.1-2-1.9-3.1
	c-0.6,1.2-1.8,2.4-3.4,3.5l-0.8-1c1.6-1,2.6-2,3.2-3.1c0.7-1.4,1.1-3.6,1.1-6.7L227.9,87.3L227.9,87.3z M225.4,91.7l-1.1,0.8
	c-0.4-1-0.9-2.2-1.6-3.5l0.9-0.6C224.4,89.7,225,90.8,225.4,91.7L225.4,91.7z"/>
<path class="st0" d="M233,95.6c-0.5,1-1,1.9-1.6,2.6l-0.9-0.7c0.6-0.7,1.2-1.4,1.7-2.3L233,95.6z M233.9,87.6
	c-0.2,0.3-0.3,0.5-0.5,0.7h7.1v1h-0.9v1.7h1.1v1h-1.1v1.8h1.2v1h-10.1v-1h1.4v-1.8h-1.3v-1h1.3v-1.4c-0.3,0.2-0.6,0.5-1,0.7l-0.5-1
	c0.5-0.2,0.9-0.6,1.4-1c0.3-0.3,0.7-0.8,1-1.3L233.9,87.6L233.9,87.6z M234.3,89.4h-1.2v1.7h1.2V89.4z M234.3,93.9v-1.8h-1.2v1.8
	H234.3z M235.2,97.9l-1.2,0.1c-0.1-0.9-0.2-1.7-0.2-2.4l1-0.1C235,96.2,235.1,97,235.2,97.9z M236.4,89.4h-1.2v1.7h1.2V89.4z
	 M236.4,93.9v-1.8h-1.2v1.8H236.4z M237.9,97.8l-1.2,0.1c-0.1-0.9-0.3-1.7-0.4-2.4l1-0.1C237.5,96.1,237.7,96.9,237.9,97.8
	L237.9,97.8z M238.6,89.4h-1.2v1.7h1.2V89.4z M238.6,93.9v-1.8h-1.2v1.8H238.6z M240.8,97.6l-1,0.7c-0.3-0.8-0.8-1.7-1.3-2.7
	l0.8-0.5C239.9,96.1,240.4,96.9,240.8,97.6L240.8,97.6z"/>
<path class="st0" d="M247.1,90.1v2.1h-3.8c0,0.1,0,0.2-0.1,0.2c-0.1,0.2-0.1,0.3-0.2,0.5h8.8v0.8h-1.1v2.8c0.6,0,1.1,0,1.6,0v0.7
	c-0.5,0-1.1,0-1.6,0v0.9h-1v-0.8c-2.3,0.1-4.8,0.1-7.5,0.2l-0.2-0.9c0.6,0,1.2,0,1.8,0v-2.9h-1v-0.4c-0.1,0.1-0.1,0.1-0.1,0.2
	l-0.8-0.7c0.3-0.2,0.4-0.4,0.5-0.6c0.1-0.2,0.1-0.4,0.1-0.6v-1.4H247.1L247.1,90.1z M244.4,87.8v-0.5h0.9v0.5h2.1v0.7h-2.1V89h1.7
	v0.7h-4.7V89h2v-0.5h-2.3v-0.7H244.4z M244.4,91.5v-0.7h-1v0.7H244.4z M249.7,94.3v-0.5h-4.9v0.5H249.7z M249.7,95.4v-0.5h-4.9v0.5
	H249.7z M249.7,96.6v-0.5h-4.9v0.6C246.4,96.7,248,96.7,249.7,96.6z M245.2,91.5h1v-0.7h-1V91.5z M251.3,88.6c0,0.2,0.1,0.3,0.3,0.3
	h0.6v0.8h-0.8c-0.3,0-0.6-0.1-0.7-0.2c-0.2-0.1-0.2-0.4-0.2-0.7v-0.5H249c0,0.4-0.1,0.7-0.2,0.8c-0.1,0.2-0.5,0.5-1,0.8l-0.6-0.6
	c0.4-0.3,0.7-0.5,0.8-0.7c0.1-0.1,0.1-0.6,0.1-1.2h3.2L251.3,88.6L251.3,88.6z M251.7,89.9v0.7c-0.2,0.5-0.5,0.9-0.8,1.1
	c0.4,0.1,0.9,0.2,1.5,0.3l-0.5,0.8c-0.8-0.2-1.5-0.3-1.9-0.5c-0.6,0.2-1.3,0.4-2.2,0.5l-0.5-0.8c0.6,0,1.2-0.1,1.6-0.2
	c-0.4-0.2-0.8-0.5-1.1-0.8l0.6-0.3h-0.7v-0.7H251.7z M249.9,91.4c0.3-0.2,0.6-0.4,0.8-0.8h-2.1C248.9,90.9,249.3,91.2,249.9,91.4z"
	/>
<path class="st0" d="M256.6,96.6h-2v0.9h-1v-9.4h3V96.6z M255.6,91.9v-2.8h-1v2.8H255.6z M255.6,95.5v-2.6h-1v2.6H255.6z M263,92.8
	h0.7v1h-2.8c0.2,0.6,0.6,1.2,0.9,1.7c0.4,0.6,1.1,1.2,1.9,1.8l-0.7,0.9c-0.7-0.6-1.2-1.1-1.6-1.6c-0.5-0.6-0.9-1.3-1.2-2.1
	c-0.1,0.2-0.2,0.5-0.3,0.7c-0.5,1-1.4,2-2.8,3.1l-0.9-0.8c1.3-0.8,2.2-1.7,2.7-2.6c0.2-0.3,0.3-0.6,0.4-1h-2.6v-1h0.5v-4h2.3v-1.5h1
	v1.5h2.3V92.8L263,92.8z M259.6,92.8c0-0.4,0.1-0.9,0.1-1.4v-1.6h-1.3v3H259.6z M260.7,91.4c0,0.5,0,1-0.1,1.4h1.4v-3h-1.3V91.4z"/>
<path class="st0" d="M266.9,95.7c-0.4,1-0.8,1.8-1.3,2.5l-1-0.8c0.5-0.6,1-1.3,1.4-2.2L266.9,95.7L266.9,95.7z M268.5,87.7v7.4h-3.3
	v-7.4H268.5z M267.6,90.8v-2.1h-1.4v2.1H267.6z M267.6,91.8h-1.4v2.3h1.4V91.8z M269.4,97.9l-1.2,0.1c-0.1-0.9-0.1-1.6-0.1-2.2
	l1-0.1C269.1,96.4,269.2,97.1,269.4,97.9L269.4,97.9z M274.7,87.6c0,1.7,0,2.7-0.1,3c-0.1,0.2-0.2,0.4-0.4,0.5
	c-0.2,0.1-0.6,0.2-1.2,0.2c-0.2,0-0.5,0-0.8-0.1l-0.2-1c0.3,0.1,0.6,0.1,0.9,0.1c0.3,0,0.5-0.1,0.5-0.2c0.1-0.1,0.1-0.7,0.1-1.5
	h-1.7c-0.1,0.7-0.3,1.3-0.7,1.7c-0.4,0.5-1,0.9-2,1.3l-0.6-1c0.8-0.3,1.3-0.6,1.7-0.9c0.3-0.3,0.5-0.7,0.6-1.2h-1.8v-0.9H274.7z
	 M274.5,91.8v3.3h-5.1v-3.3H274.5z M272.1,97.9l-1.2,0.1c-0.2-0.9-0.3-1.7-0.5-2.4l1-0.1C271.6,96.2,271.9,97.1,272.1,97.9
	L272.1,97.9z M273.4,92.7h-3v1.5h3V92.7z M275.1,97.7l-1,0.5c-0.3-1-0.7-1.8-1-2.5l1-0.3C274.5,96,274.8,96.8,275.1,97.7z"/>
<path class="st0" d="M280.5,90.2v-0.8h1.1v0.8h2.5v0.7c0.5-0.4,1-0.8,1.4-1.3l0.8,0.6c-0.6,0.6-1.2,1.2-1.8,1.7h2.1v0.9h-3.4
	c-0.2,0.1-0.4,0.3-0.6,0.4c-0.2,0.1-0.5,0.3-0.8,0.4h3.4v4.6h-1v-0.5H279v0.5h-1v-3.2c-0.5,0.1-0.9,0.3-1.4,0.4l-0.5-1
	c2-0.5,3.7-1,5-1.6h-5v-0.9h4.5v-0.7h-3.6v-0.9H280.5L280.5,90.2z M278.8,88v-0.8h1V88h1.2v0.9h-1.2v0.9h-1v-0.9h-2.6V88H278.8z
	 M284.2,95.2v-0.8h-4.5c-0.2,0.1-0.5,0.2-0.7,0.3v0.5L284.2,95.2L284.2,95.2z M284.2,96.9v-0.8H279v0.8H284.2z M282.9,88v-0.8h1V88
	h2.6v0.9h-2.6v0.9h-1v-0.9h-1.3V88H282.9z M283.8,91.1h-2.2v0.7h1.2C283.1,91.7,283.5,91.4,283.8,91.1z"/>
<path class="st0" d="M297.6,98.1h-1v-0.4h-7.8v0.4h-1V87.5h9.8V98.1z M296.6,96.8v-8.3h-7.8v8.3H296.6z M295.8,91.8V94h-3.1
	c-0.1,0.1-0.1,0.1-0.1,0.2v2.3h-0.9v-1.4c-0.6,0.4-1.3,0.8-2,1.1l-0.5-0.9c0.8-0.2,1.4-0.5,1.8-0.8c0.2-0.2,0.5-0.3,0.6-0.5h-1.6
	v-2.2H295.8z M292.1,89.2v-0.5h0.9v0.5h2.7V90H293v0.6h3.2v0.8h-7.2v-0.8h3V90h-2.5v-0.7H292.1L292.1,89.2z M294.9,92.6h-4.1v0.6
	h4.1V92.6z M294.3,94.8c0.2-0.2,0.4-0.5,0.5-0.7l0.8,0.5c-0.1,0.2-0.3,0.4-0.5,0.6c0.4,0.2,0.8,0.4,1.1,0.6l-0.5,0.8
	c-1-0.7-2-1.2-3.1-1.6l0.4-0.7C293.5,94.5,293.9,94.7,294.3,94.8L294.3,94.8z"/>
<path class="st0" d="M308.4,87.5V91h-3.9c0.1,0.2,0.1,0.4,0.2,0.5h4.6v0.9H299v-0.9h4.6c-0.1-0.2-0.2-0.3-0.3-0.5h-3.5v-3.5H308.4
	L308.4,87.5z M302.3,96.2c-0.5,0.5-0.9,0.8-1.2,1c-0.4,0.2-0.9,0.5-1.6,0.8l-0.5-1c0.6-0.2,1.1-0.4,1.6-0.7c0.4-0.2,0.8-0.5,1.1-0.9
	L302.3,96.2L302.3,96.2z M308.3,92.9v2.3h-3.5V97c0,0.4-0.1,0.7-0.3,0.8c-0.2,0.2-0.5,0.3-0.9,0.3h-1.2l-0.2-1.1
	c0.5,0.1,0.8,0.1,1.1,0.1c0.3,0,0.4-0.1,0.4-0.3v-1.6H300v-2.3H308.3z M307.4,88.9v-0.6h-6.5v0.6H307.4z M307.4,89.6h-6.5v0.6h6.5
	V89.6z M307.3,93.7H301v0.6h6.4V93.7z M309.3,97l-0.4,1c-0.9-0.8-1.9-1.3-2.8-1.7l0.4-0.9C307.3,95.8,308.3,96.3,309.3,97L309.3,97z
	"/>
<path class="st0" d="M315.9,94c-0.2,0.2-0.5,0.5-0.9,0.8l-0.4-0.6c0.5-0.3,0.8-0.6,0.9-1.1h-0.7v-1.5h1.4v1.2
	C316.2,93.3,316.1,93.7,315.9,94z"/>
<path class="st0" d="M85,118.5v7.5c0.8-0.3,1.6-0.7,2.4-1.1l0.3,1.1c-1.3,0.8-3,1.5-4.9,2.1l-0.5-1.2c0.5-0.1,1-0.3,1.6-0.5v-8
	L85,118.5L85,118.5z M91.1,118.5c0,2.5-0.3,4.5-0.8,6c0.9,1.2,1.7,2.3,2.3,3.4l-0.9,1c-0.5-1-1.1-2-1.9-3.1
	c-0.6,1.2-1.8,2.4-3.4,3.5l-0.8-1c1.6-1,2.6-2,3.2-3.1c0.7-1.4,1.1-3.6,1.1-6.7L91.1,118.5L91.1,118.5z M88.6,122.9l-1.1,0.8
	c-0.4-1-0.9-2.2-1.6-3.5l0.9-0.6C87.6,120.9,88.2,122,88.6,122.9L88.6,122.9z"/>
<path class="st0" d="M96,122.1c-0.3,2.4-0.7,4.4-1.2,6l-1.1-0.7c0.5-1.7,0.9-3.6,1.1-5.6L96,122.1L96,122.1z M97.9,121.4v6.4
	c0,0.3,0.1,0.4,0.4,0.4h2c0.1,0,0.2-0.1,0.3-0.3c0.1-0.2,0.1-1,0.2-2.5l1.1,0.3c-0.1,1.8-0.2,2.8-0.4,3.1c-0.2,0.3-0.5,0.5-1,0.5
	h-2.6c-0.3,0-0.6-0.1-0.8-0.3c-0.2-0.2-0.3-0.5-0.3-0.9v-6.7L97.9,121.4L97.9,121.4z M100.8,121.5l-1.1,0.8
	c-0.5-0.9-1.2-1.8-2.1-2.9l0.9-0.6C99.6,119.9,100.3,120.8,100.8,121.5L100.8,121.5z M104.1,127.1l-1.1,0.5c-0.4-2-0.9-3.8-1.5-5.4
	l1.1-0.4C103.1,123.5,103.6,125.3,104.1,127.1L104.1,127.1z"/>
<path class="st0" d="M107.2,119.2v-0.7h1v0.7h1.8v0.9h-1.8v0.6h1.7v0.8h-1.7v0.7h1.9v0.9h-4.9v-0.9h2.1v-0.7h-1.6v-0.8h1.6v-0.6
	h-1.9v-0.9H107.2z M109.8,128.4c0,0.3-0.1,0.5-0.3,0.7c-0.2,0.1-0.4,0.2-0.7,0.2h-1.3l-0.2-0.9l1.1,0.1c0.2,0,0.3-0.1,0.3-0.4v-0.7
	h-2.4v2h-1v-5.9h4.3L109.8,128.4L109.8,128.4z M108.8,125.1v-0.7h-2.4v0.7H108.8z M108.8,126.6v-0.6h-2.4v0.6H108.8z M114.9,122.2
	v1.8h0.7v0.9h-0.7v2h-2v1.4c0,0.4-0.1,0.6-0.2,0.8c-0.2,0.2-0.4,0.2-0.9,0.2h-1.1l-0.2-1c0.4,0.1,0.8,0.1,1,0.1s0.4-0.1,0.4-0.2V127
	h-1.6V126h1.6V125h-1.8V124h1.8v-0.9h-1.6v-0.9L114.9,122.2L114.9,122.2z M115.4,119.4c-1.2,0.3-2.9,0.5-4.9,0.5l-0.3-0.9
	c1.8,0,3.4-0.2,4.7-0.5L115.4,119.4z M111.8,121.8l-1,0.2c-0.1-0.5-0.3-1-0.5-1.5l0.9-0.3C111.5,120.7,111.7,121.2,111.8,121.8z
	 M113.6,121.7l-1,0.2c-0.2-0.6-0.4-1.1-0.6-1.6l0.9-0.3C113.2,120.5,113.4,121,113.6,121.7z M112.9,124h1.1v-0.9h-1.1V124z
	 M112.9,126.1h1.1V125h-1.1V126.1z M115.3,120.1c-0.1,0.7-0.3,1.4-0.5,2l-0.9-0.3c0.2-0.5,0.4-1.1,0.5-1.9L115.3,120.1L115.3,120.1z
	"/>
<path class="st0" d="M119.7,118.9c-0.3,0.9-0.5,1.7-0.8,2.3v8.1h-1v-6.2c-0.3,0.5-0.6,1-1,1.4l-0.4-1.3c0.5-0.7,0.9-1.3,1.2-2
	c0.3-0.6,0.7-1.6,1-2.8L119.7,118.9L119.7,118.9z M126.6,122.4l-3.7,0.4c0.1,0.8,0.2,1.3,0.2,1.8c0.3,1.1,0.6,1.9,1.1,2.5
	c0.5,0.7,0.9,1,1.2,1c0.1,0,0.2-0.1,0.2-0.2c0.1-0.1,0.2-0.8,0.2-1.9l1.1,0.7c-0.2,1.1-0.4,1.9-0.6,2.2c-0.2,0.3-0.5,0.4-0.9,0.4
	c-0.6,0-1.3-0.4-2-1.3c-0.6-0.7-1.1-1.8-1.5-3.2c-0.1-0.5-0.2-1.1-0.3-1.9l-2.4,0.3l-0.1-1.1l2.5-0.3c-0.1-1-0.1-2.1-0.1-3.4h1.1
	c0,1.3,0.1,2.4,0.2,3.3l3.7-0.4L126.6,122.4L126.6,122.4z M125.9,120.5l-1,0.7c-0.3-0.5-0.8-1.1-1.3-1.8l0.8-0.5
	C125,119.5,125.6,120,125.9,120.5L125.9,120.5z"/>
<path class="st0" d="M130.2,119.4v-1h1v1h1.5v0.9h-1.6c0,0.3-0.1,0.6-0.1,0.8h1.8v0.9h-1.7c0.5,0.4,1,0.8,1.5,1.2l-0.5,0.9
	c-0.5-0.6-1.1-1.1-1.6-1.4c-0.3,0.6-0.7,1.1-1.2,1.7h8.2v5.1h-1.1v-0.5h-6.1v0.5h-1.1v-4.8c-0.1,0.1-0.2,0.2-0.4,0.3l-0.8-0.8
	c0.8-0.6,1.5-1.3,1.8-2.1h-1.8v-0.9h2.2c0.1-0.2,0.1-0.5,0.1-0.8h-2.1v-0.9H130.2L130.2,119.4z M136.4,126.2v-0.8h-6.1v0.8H136.4z
	 M136.4,128v-0.9h-6.1v0.9H136.4z M135.2,119.4v-1h1v1h2v0.9h-2c0,0.3-0.1,0.6-0.1,0.8h2.3v0.9h-2c0.7,0.5,1.4,0.9,2,1.5l-0.5,0.9
	c-0.8-0.7-1.5-1.3-2.3-1.8c-0.4,0.6-1,1.1-1.8,1.7l-0.8-0.8c0.8-0.5,1.4-0.9,1.8-1.5h-1.5v-0.9h2c0.1-0.2,0.1-0.5,0.1-0.8h-2.1v-0.9
	L135.2,119.4L135.2,119.4z"/>
<path class="st0" d="M143.3,119.2c0.1-0.2,0.3-0.5,0.4-0.8l1,0c-0.1,0.3-0.2,0.5-0.3,0.8h5.5v1h-3.3c0.3,0.2,0.6,0.4,1,0.5
	c0.6,0.3,1.4,0.5,2.4,0.9l-0.7,0.9c-1.1-0.4-2-0.9-2.7-1.3c-0.5-0.3-0.9-0.6-1.2-1h-1.6c-0.1,0.1-0.1,0.2-0.2,0.2
	c-0.4,0.4-0.8,0.8-1.3,1.1c-0.1,0.1-0.2,0.1-0.2,0.1h1.7v-0.9h1v0.9h1.9v0.8c0.2-0.2,0.5-0.3,0.7-0.5l0.7,0.6
	c-0.3,0.3-0.7,0.6-1.1,0.9h2.8v0.9h-4.1c-0.3,0.2-0.5,0.3-0.8,0.4c-0.2,0.1-0.3,0.2-0.5,0.2h3.9v4.5h-1.1v-0.5h-4.7v0.5h-1.1V126
	c-0.5,0.2-1.1,0.3-1.7,0.5l-0.4-1c1.7-0.4,3.1-0.8,4.2-1.2h-4.1v-0.9h4.3v-0.8h-2.4v-0.6c-0.5,0.2-1,0.4-1.5,0.5l-0.5-0.9
	c1-0.2,1.7-0.4,2.3-0.7c0.3-0.2,0.7-0.4,1-0.6h-3.1v-1H143.3L143.3,119.2z M147.1,126.5v-0.7h-4.7v0.7H147.1z M147.1,128.1v-0.7
	h-4.7v0.7H147.1z M146.4,122.6h-1.7v0.8h0.6C145.7,123.1,146.1,122.9,146.4,122.6z"/>
<path class="st0" d="M153.3,119.4v-1h1.1v1h1.3v0.9h-1.3v0.9h3v-0.9h-1.2v-0.9h1.2v-1h1.1v1h2.6v0.9h-2.6v0.9h2v0.9h-1.2v1h1.5v0.9
	h-1.5v1.2h1.7v0.9h-4.6v1h4.2v0.9h-4.2v1.4h-1.1v-1.4h-4.2v-0.9h4.2v-1h-4.6v-0.9h1.8v-1.2H151v-0.9h1.6v-1h-1.4v-0.9h2.1v-0.9h-2.5
	v-0.9H153.3z M155.4,122.2h-1.7v1h1.7V122.2z M155.4,125.3v-1.2h-1.7v1.2H155.4z M158.3,122.2h-1.8v1h1.8V122.2z M156.5,125.3h1.8
	v-1.2h-1.8V125.3z"/>
<path class="st0" d="M167.7,125.2c-0.2,0.2-0.5,0.5-0.9,0.8l-0.4-0.6c0.5-0.3,0.8-0.6,0.9-1.1h-0.7v-1.5h1.4v1.2
	C168,124.5,167.9,124.9,167.7,125.2z"/>
<path class="st0" d="M179.4,119.1v1h-1.1v2.6h1.3v1h-1.3v5.7h-1.1v-5.7h-1.2c0,1.1-0.1,2-0.3,2.8c-0.2,0.9-0.6,1.9-1.2,2.8l-0.9-0.8
	c0.5-0.7,0.9-1.5,1.1-2.4c0.2-0.6,0.2-1.4,0.3-2.4h-1.5v-1h1.5V120h-1.3v-1L179.4,119.1L179.4,119.1z M177.3,120h-1.2v2.6h1.2V120z
	 M184,125.8c-1.5,1.6-2.9,2.8-4.4,3.6l-0.5-1.2c1.6-0.7,3-1.8,4.2-3.3L184,125.8L184,125.8z M183.8,122.5c-1.3,1.3-2.7,2.2-4,2.8
	l-0.5-1.1c1.5-0.5,2.7-1.4,3.8-2.5L183.8,122.5z M183.6,119.5c-1.2,1-2.4,1.7-3.7,2.2l-0.5-1.1c1.3-0.4,2.5-1,3.5-1.9L183.6,119.5z"
	/>
<path class="st0" d="M195,121.2h-3.2c0.1,1.7,0.3,3.1,0.6,4.1c0.5-0.8,1-1.9,1.5-3.2l1,0.4c-0.6,1.8-1.3,3.1-1.9,4
	c0.5,1.1,0.9,1.6,1.1,1.6c0.1,0,0.3-0.6,0.4-1.7l0.9,0.7c-0.3,1.1-0.5,1.8-0.7,2.1c-0.2,0.2-0.3,0.3-0.5,0.3c-0.5,0-1-0.3-1.5-0.9
	c-0.2-0.3-0.5-0.7-0.6-1c-0.7,0.7-1.6,1.3-2.7,1.9l-0.6-1c1.2-0.6,2.1-1.2,2.9-2c-0.2-0.4-0.3-0.8-0.4-1.3c-0.2-1-0.4-2.3-0.5-3.8
	h-3.8v1.5h3.1c0,2.2-0.1,3.5-0.3,4.1c-0.2,0.7-0.6,1-1.1,1h-1.5l-0.2-1.1c0.8,0.1,1.3,0.1,1.7,0.1c0.1,0,0.2-0.2,0.2-0.5
	c0-0.4,0.1-1.2,0.1-2.5h-2.1c0,0.9-0.1,1.7-0.2,2.6c-0.2,1.1-0.5,2.2-1,3.3l-0.9-0.8c0.4-0.9,0.7-1.8,0.9-2.7c0.1-1,0.2-1.9,0.2-2.7
	v-3.2h4.8c0-0.5,0-1.1,0-1.7h1.1c0,0.6,0,1.1,0,1.7h1.6c-0.3-0.3-0.7-0.6-1.1-1l0.7-0.7c0.5,0.4,1,0.7,1.3,1.1l-0.6,0.6h1.2
	L195,121.2L195,121.2z"/>
<path class="st0" d="M200.9,118.4v5.5c0,1.2-0.2,2.2-0.7,3c-0.4,0.8-1.3,1.6-2.6,2.4l-0.9-0.9c1.2-0.6,2-1.3,2.4-2
	c0.2-0.2,0.3-0.5,0.4-0.8c-0.9,0.3-1.9,0.6-3,0.8l-0.3-1.1c1.3-0.2,2.5-0.6,3.6-0.9c0-0.2,0-0.5,0-0.7v-0.3h-3.2v-1h3.2v-1.5h-3.3
	V120h3.3v-1.6L200.9,118.4L200.9,118.4z M203.4,118.4v1.6h3.2v1.1h-3.2v1.7h3v1h-3v1.8h3.3v1h-3.3v2.8h-1.1v-11L203.4,118.4
	L203.4,118.4z"/>
<path class="st0" d="M209.8,118.6v3.2h2.8v1.1h-2.8v4.5c1-0.3,1.9-0.6,2.9-1v1.1c-1.4,0.6-2.9,1.1-4.7,1.7l-0.3-1.3
	c0.3,0,0.6-0.1,0.9-0.2v-9.1H209.8L209.8,118.6z M214.4,118.6v4.2c1.1-0.7,2.1-1.6,2.8-2.5l0.7,1c-1,1.1-2.2,2-3.5,2.7v3.4
	c0,0.2,0.1,0.3,0.2,0.5c0.1,0.1,0.2,0.1,0.4,0.1h1.2c0.2,0,0.3-0.1,0.5-0.2c0.1-0.1,0.3-0.9,0.4-2.4l1.1,0.4
	c-0.2,1.6-0.3,2.5-0.5,2.8c-0.3,0.3-0.7,0.5-1.2,0.5h-1.8c-0.4,0-0.8-0.1-1-0.3c-0.3-0.3-0.4-0.7-0.4-1.1v-9.1L214.4,118.6
	L214.4,118.6z"/>
<path class="st0" d="M228.3,118.7v1.3h1.1v0.8h-1.1v1.4h-8v-0.8h7v-0.6h-8.1v-0.8h8.1v-0.5h-7v-0.8H228.3z M229,122.8v2.6h-1.4v0.7
	h1.9v1h-1.9v1.2c0,0.4-0.1,0.7-0.3,0.8c-0.2,0.2-0.5,0.3-0.9,0.3h-1.3l-0.2-1.1c0.5,0.1,1,0.1,1.3,0.1c0.3,0,0.4-0.1,0.4-0.3v-1H222
	c0.7,0.4,1.3,0.8,1.8,1.2l-0.8,0.8c-0.5-0.4-1.2-0.9-2-1.4l0.6-0.6h-2.4v-1h7.4v-0.7h-2.1v-2.6H229L229,122.8z M224,122.8v0.8h-1.7
	v1c0.6,0,1.2-0.1,1.8-0.2v0.8c-1.4,0.2-2.9,0.3-4.6,0.4l-0.1-0.9c0.6,0,1.2-0.1,1.9-0.1v-1.1h-1.7v-0.8L224,122.8L224,122.8z
	 M228,123.6h-2.6v1h2.6V123.6z"/>
<path class="st0" d="M236.2,118.4v1.6h1.2c0.4-0.4,0.7-0.9,1-1.5l1,0.4c-0.3,0.4-0.6,0.8-0.9,1.1h2.1v2.9h-1V121h-7.9v1.9h-1V120
	h2.2c-0.2-0.3-0.6-0.7-0.9-1.1l1-0.4c0.4,0.4,0.7,0.9,1,1.5h1.1v-1.6H236.2L236.2,118.4z M238.9,121.6v3h-2.7v0.8h3.7v2.1
	c0,0.4-0.1,0.7-0.3,0.9c-0.2,0.2-0.4,0.3-0.6,0.3h-1.2l-0.2-1l1,0.1c0.2,0,0.3-0.2,0.3-0.4v-0.9h-2.7v3h-1v-3h-2.6v2.2h-1v-3.2h3.7
	v-0.8h-2.7v-3L238.9,121.6L238.9,121.6z M237.9,122.6h-4.5v1.1h4.5V122.6z"/>
<path class="st0" d="M245.3,118.6c-0.1,0.6-0.3,1.2-0.6,1.7h1.6v2.5c0.3-0.6,0.6-1.1,0.8-1.7c0.2-0.7,0.4-1.6,0.6-2.7l1.1,0.2
	c-0.1,0.7-0.2,1.2-0.3,1.7h3.5c0,4.2-0.1,6.7-0.2,7.5c-0.1,0.6-0.3,1-0.6,1.2c-0.3,0.2-0.9,0.4-1.8,0.4c-0.2,0-0.5,0-0.9-0.1
	l-0.2-1.2c0.3,0.1,0.7,0.1,1,0.1c0.7,0,1.1-0.2,1.2-0.8c0.1-0.6,0.2-2.7,0.2-6.1h-2.7c0,0.1-0.1,0.2-0.1,0.2
	c-0.2,0.9-0.7,1.8-1.3,2.8l-0.5-0.7v4.9h-1V128h-2.1v0.9h-1v-8.5h1.4c0.2-0.6,0.4-1.2,0.6-1.9L245.3,118.6L245.3,118.6z
	 M245.4,123.7v-2.3h-2.1v2.3H245.4z M245.4,127v-2.4h-2.1v2.4H245.4z M250.1,125.8l-1.1,0.7c-0.3-0.9-0.8-1.9-1.3-3l0.9-0.6
	C249.2,124.1,249.8,125,250.1,125.8L250.1,125.8z"/>
<path class="st0" d="M262.1,121.1v1h-2.4c-0.3,0.3-0.6,0.5-0.9,0.7c0.4,0.5,0.7,1.1,0.9,1.6c0.8-0.4,1.6-1,2.4-1.7l0.8,0.8
	c-0.5,0.5-1,0.9-1.5,1.2c0.2,0.6,0.6,1.2,0.9,1.7c0.4,0.5,0.9,1,1.5,1.6l-0.7,1c-0.7-0.7-1.3-1.4-1.8-2.1c-0.3-0.5-0.6-1.1-0.8-1.7
	c-0.2,0.1-0.3,0.2-0.5,0.2c0.1,0.5,0.2,1,0.2,1.5c0,0.9-0.1,1.6-0.4,1.9c-0.3,0.4-1.1,0.6-2.4,0.6l-0.4-1.2c0,0.1,0.2,0.1,0.6,0.1
	c0.6,0,1-0.1,1.1-0.2c0.2-0.2,0.3-0.7,0.3-1.3c0-0.2,0-0.3,0-0.5c-0.6,0.5-1.2,0.9-1.7,1.2c-0.8,0.5-1.9,0.9-3.1,1.3l-0.6-1
	c1.2-0.3,2.3-0.8,3.3-1.3c0.7-0.4,1.4-0.8,2-1.4c0-0.1-0.1-0.2-0.1-0.3c0-0.1-0.1-0.2-0.1-0.3c-0.6,0.5-1.2,0.8-1.7,1
	c-0.7,0.4-1.7,0.7-2.8,1.1l-0.5-1c1.1-0.3,2.1-0.6,2.9-1c0.6-0.3,1.2-0.6,1.7-1c-0.1-0.1-0.2-0.3-0.3-0.5c-1,0.5-2.1,0.8-3.4,1.2
	l-0.6-1c1.4-0.3,2.5-0.6,3.3-0.9c0.3-0.1,0.7-0.3,1-0.4H255v-1L262.1,121.1L262.1,121.1z M259,119.3h4.5v2.4h-1v-1.4h-7.8v1.4h-1
	v-2.4h4.2c-0.1-0.2-0.3-0.5-0.4-0.7l1.2-0.2C258.8,118.7,258.9,119,259,119.3z"/>
<path class="st0" d="M269.5,123.9h-3.2v5.5h-1.1v-10.6h4.3V123.9z M268.4,120.8v-1.1h-2.2v1.1H268.4z M268.4,122.9v-1.3h-2.2v1.3
	H268.4z M274.7,118.8v9.3c0,0.4-0.1,0.7-0.3,0.9c-0.2,0.2-0.5,0.3-0.9,0.3h-1.3l-0.2-1.1l1.4,0.1c0.3,0,0.4-0.2,0.4-0.5v-3.8h-3.3
	v-5.1H274.7z M273.7,120.8v-1.1h-2.3v1.1H273.7z M273.7,121.7h-2.3v1.3h2.3V121.7z"/>
<path class="st0" d="M278.2,123.3c-0.1,0.2-0.1,0.3-0.2,0.5h1.4c-0.1-0.2-0.2-0.5-0.4-0.7l0.9-0.1c0.1,0.2,0.2,0.5,0.3,0.8h1.8v0.8
	h-1.7v0.7h1.6v0.7h-1.6v0.7h1.6v0.7h-1.6v0.7h1.3c0.5-0.5,0.9-1.2,1.2-1.8c0.3-0.8,0.5-1.8,0.5-2.9V122h1v1.4c0,0.9,0.2,1.8,0.5,2.7
	c0.4,1,0.9,1.9,1.6,2.6l-0.7,0.8c-0.6-0.7-1-1.2-1.2-1.7c-0.3-0.7-0.6-1.4-0.7-2.2c-0.2,0.8-0.4,1.4-0.7,2c-0.3,0.6-0.8,1.2-1.3,1.8
	l-0.5-0.5h-3.8v0.5h-0.9v-3.8c-0.1,0.1-0.3,0.3-0.4,0.4l-0.2-1c0.6-0.5,1-1.2,1.3-1.9L278.2,123.3L278.2,123.3z M277.4,119.2v-0.8
	h0.9v0.8h0.8v0.9h-0.8v0.6h0.7v2.2h-2.5v-2.2h1v-0.6h-1.2v-0.9H277.4z M278.1,121.4h-0.8v0.8h0.8V121.4z M279.5,124.5h-1.8v0.7h1.8
	V124.5z M279.5,125.9h-1.8v0.7h1.8V125.9z M279.5,128.1v-0.7h-1.8v0.7H279.5z M280.2,119.2v-0.8h0.9v0.8h1.2v0.9h-1.2v0.6h0.9v1.8
	c0.6-1.1,0.9-2.4,1.1-4l0.9,0.1c-0.1,0.5-0.1,1-0.2,1.5h2.6c-0.1,1.2-0.2,2-0.3,2.5c-0.1,0.6-0.3,1.1-0.6,1.7l-0.7-0.7
	c0.2-0.6,0.4-1.4,0.6-2.5h-1.8c-0.2,1-0.5,1.7-0.9,2.2l-0.7-0.5v0.1h-2.5v-2.2h0.8v-0.6h-0.7v-0.9H280.2L280.2,119.2z M281.1,121.4
	h-0.8v0.8h0.8V121.4z"/>
<path class="st0" d="M290.4,121.3v0.8c-0.3,0.7-0.8,1.4-1.3,2.2h1.2v0.7c-0.2,0.7-0.3,1.3-0.5,1.8c0.4,0.5,0.8,0.9,1.1,1
	c0.2,0.2,0.6,0.3,1.1,0.3c0.6,0.1,1.7,0.1,3.3,0.2c1.2,0,2.1,0,2.7-0.1l-0.1,1.1c-3.1,0-5.1-0.1-5.8-0.1c-0.6-0.1-1.1-0.3-1.5-0.5
	c-0.3-0.2-0.7-0.5-1.1-1c-0.3,0.6-0.7,1.2-1.2,1.9l-0.8-0.8c0.5-0.6,1-1.2,1.2-1.7c0.2-0.3,0.4-0.9,0.6-1.8h-1.4v-0.9
	c0.4-0.5,0.9-1.3,1.4-2.2h-1.7v-0.9H290.4L290.4,121.3z M290.2,120.1l-0.8,0.8c-0.3-0.5-0.8-1.1-1.4-1.6l0.7-0.7
	C289.4,119,289.9,119.5,290.2,120.1z M293.9,119.3c-0.6,0.3-1.2,0.6-1.8,0.9v4.8c0.5-0.2,1.1-0.5,1.6-0.8l0.2,0.9
	c-0.9,0.6-1.9,1.1-3.2,1.6l-0.4-1c0.2-0.1,0.5-0.2,0.8-0.2v-5.8c0.8-0.3,1.6-0.7,2.2-1.2L293.9,119.3L293.9,119.3z M297.6,125.2
	c0,0.4-0.1,0.7-0.3,0.9c-0.2,0.2-0.4,0.3-0.7,0.3h-1l-0.2-1.1l0.8,0.1c0.2,0,0.3-0.2,0.3-0.5v-4.9h-1.5v7.7h-1v-8.8h3.5L297.6,125.2
	L297.6,125.2z"/>
<path class="st0" d="M304.6,120.5c0-0.6,0-1.3,0-2h1.1c0,0.7,0,1.4,0,2h3.4v0.9h-3.4c0.1,2,0.4,3.4,0.9,4.4c0.7,1.5,1.1,2.2,1.4,2.2
	c0.2,0,0.4-0.8,0.6-2.3l0.9,0.7c-0.3,1.5-0.6,2.3-0.8,2.6c-0.2,0.2-0.3,0.4-0.5,0.4c-0.5,0-1-0.3-1.5-0.8c-0.6-0.8-1.2-1.9-1.6-3.4
	c-0.2-1-0.4-2.2-0.5-3.7H299v-0.9H304.6L304.6,120.5z M304.4,122.9v0.9h-2v3c0.8-0.2,1.6-0.4,2.4-0.8v1.1c-1.7,0.6-3.6,1.1-5.7,1.4
	l-0.1-1.1c0.7-0.1,1.5-0.2,2.3-0.3v-3.3h-1.8v-0.9L304.4,122.9L304.4,122.9z M308.4,119.7l-0.9,0.7c-0.3-0.4-0.7-0.8-1.2-1.4
	l0.8-0.5C307.6,118.9,308.1,119.3,308.4,119.7L308.4,119.7z"/>
<path class="st0" d="M316.6,125.1c-0.3,0.3-0.7,0.5-1.1,0.5s-0.8-0.2-1.1-0.5c-0.3-0.3-0.5-0.7-0.5-1.1s0.1-0.8,0.5-1.1
	c0.3-0.3,0.7-0.5,1.1-0.5s0.8,0.2,1.1,0.5c0.3,0.3,0.5,0.7,0.5,1.1C317.1,124.4,317,124.8,316.6,125.1z M316.1,123.4
	c-0.2-0.2-0.3-0.2-0.6-0.2c-0.2,0-0.4,0.1-0.6,0.2c-0.2,0.2-0.2,0.3-0.2,0.6s0.1,0.4,0.2,0.5c0.2,0.2,0.3,0.2,0.6,0.2
	c0.2,0,0.4-0.1,0.6-0.2c0.1-0.1,0.2-0.3,0.2-0.5S316.2,123.5,316.1,123.4z"/>
<path class="st1" d="M63.5,1.1H336"/>
<path class="st1" d="M63.5,153.4H336"/>
</svg>
