<svg width="173" height="103" viewBox="0 0 173 103" fill="none" xmlns="http://www.w3.org/2000/svg">
<path d="M172.59 0.129883H0.109985V102.78H172.59V0.129883Z" fill="#E8D0A4"/>
<path d="M16.07 31.9502H152.67" stroke="#581804" stroke-width="0.25" stroke-miterlimit="10"/>
<path d="M21.52 12.7701C21.47 12.9101 21.35 12.9901 21.03 12.9601C20.4 13.8801 19.41 15.0301 18.33 16.0301C19.84 16.0301 21.71 16.0301 23.7 16.0001C23.2 15.3501 22.6 14.7601 21.96 14.3401L22.02 14.2401C25.3 14.6901 26.35 16.1201 26.35 17.1501C26.35 17.7801 25.96 18.2501 25.45 18.2501C25.25 18.2501 25.02 18.1901 24.81 18.0201C24.62 17.5101 24.36 16.9801 24.04 16.4801C22.34 16.8901 20.02 17.3001 16.67 17.8501C16.56 18.0001 16.42 18.0901 16.28 18.1201L15.47 16.0001L17.61 16.0401C18.22 14.7001 18.78 13.0601 19.1 11.8701L21.53 12.7801L21.52 12.7701ZM22.89 18.9001L23.59 17.9301L25.39 19.3001C25.29 19.4301 25.13 19.5701 24.83 19.6301V23.5601C24.83 23.5601 24.31 23.9701 23.03 23.9701V22.9601H18.69V23.4201C18.69 23.4701 18.45 24.1001 17 24.1001V18.1601L18.8 18.9001H22.89ZM18.69 22.7501H23.03V19.1001H18.69V22.7501Z" fill="#844E1A"/>
<path d="M30.78 14.2702L30.97 14.3102C30.67 16.1402 30.13 19.4702 30.13 20.3802V20.5202C30.15 21.2202 30.63 21.6901 30.63 22.7901C30.63 23.8901 29.93 24.0602 29.61 24.0602C29.32 24.0602 29.01 23.8902 28.92 23.3802C29.03 22.7902 29.07 22.2001 29.07 21.7001C29.07 20.4601 28.86 20.3601 28.25 20.2901V20.0502C28.62 20.0502 28.75 20.0401 28.75 20.0401C28.92 20.0501 28.96 20.0502 29.08 19.7802C29.22 19.4302 29.26 19.3402 29.9 17.2202C29.76 17.4402 29.51 17.5802 29.26 17.5802C29.05 17.5802 28.82 17.4801 28.64 17.2301C28.68 16.5601 28.45 15.7202 28.1 15.2102L28.2 15.1501C29.59 15.5301 30.04 16.1902 30.06 16.7102L30.79 14.2802L30.78 14.2702ZM28.63 11.9902C30.18 12.3502 30.68 13.0301 30.68 13.5901C30.68 14.0801 30.3 14.4602 29.87 14.4602C29.66 14.4602 29.44 14.3602 29.25 14.1302C29.19 13.4402 28.92 12.5802 28.54 12.0602L28.64 12.0002L28.63 11.9902ZM38.44 16.4801L38.55 16.4301C39.38 16.8401 39.66 17.3301 39.66 17.7001C39.66 18.0501 39.42 18.2901 39.16 18.2901C39.02 18.2901 38.87 18.2302 38.77 18.0602C38.78 17.6002 38.64 16.9602 38.45 16.5502V18.4602C38.44 18.5102 38.14 18.6901 37.66 18.7001L38.61 19.3802C38.55 19.4602 38.43 19.5602 38.23 19.6002V20.6501C38.23 20.6501 38.04 20.7802 37.8 20.8602L39.1 21.8602C39.02 21.9602 38.89 22.0402 38.67 22.0602C38.41 23.7602 37.85 24.1002 36.34 24.1002C36.34 23.2902 36.16 22.9502 34.77 22.6902V22.5401C35.35 22.5801 36.31 22.6002 36.54 22.6002C36.96 22.6002 37.06 22.6002 37.21 21.6702H32.83C32.77 21.9002 32.7 22.1302 32.64 22.3202C32.46 22.4002 32.29 22.4501 32.08 22.4501C31.84 22.4501 31.56 22.3901 31.19 22.2601C31.45 21.4401 31.79 20.2502 31.94 19.6002L33.45 20.3302H36.75V19.2702H31.61L31.55 19.0702H36.64L37.15 18.3502L37.42 18.5401V17.0802C37.18 17.6002 36.86 18.1301 36.52 18.4501L36.33 18.3502C36.48 17.9102 36.63 17.2002 36.71 16.5202L37.42 16.7301V16.0401L36.98 16.1801C36.92 16.3501 36.81 16.4201 36.69 16.4501L36.32 15.6102C36.22 15.6502 36.09 15.6602 35.92 15.6602H34.04C34.04 15.7602 34.02 15.8702 33.97 15.9402L34.99 16.3902H35.17L35.52 15.9202L36.52 16.6501C36.47 16.7101 36.35 16.7902 36.21 16.8302V18.2102C36.21 18.2102 35.94 18.5002 35.26 18.5002V17.9202H34.84V18.3802C34.84 18.4602 34.54 18.6902 34.07 18.6902H33.92V17.6402H33.91C33.87 17.9002 33.68 18.0802 33.48 18.0802C33.36 18.0802 33.23 18.0202 33.13 17.8602C33.15 17.4902 33.06 16.9602 32.9 16.6402V18.4801C32.9 18.5301 32.59 18.7202 32.09 18.7202H31.92V17.3502C31.59 17.8602 31.18 18.3702 30.81 18.6902L30.63 18.5802C30.86 18.0902 31.11 17.2902 31.28 16.5202L31.91 16.7601V16.0302L31.52 16.1602C31.46 16.3302 31.34 16.4002 31.22 16.4202L30.83 15.3602C31.01 15.3602 31.26 15.3602 31.56 15.3502C31.68 15.1602 31.79 14.9402 31.9 14.7202C31.83 14.7602 31.76 14.7702 31.69 14.7702C31.57 14.7702 31.45 14.7302 31.34 14.6002C31.29 14.2202 31.09 13.7301 30.85 13.4501L30.95 13.3602C31.18 13.4002 31.35 13.4602 31.51 13.5302C31.66 13.0802 31.83 12.4902 31.99 11.9402L33.25 12.4801C33.19 12.6201 33.1 12.7002 32.81 12.6702C32.5 13.0202 32.16 13.4102 31.83 13.7102C32.06 13.8802 32.15 14.0702 32.15 14.2502C32.35 13.8702 32.54 13.4902 32.69 13.1902L33.51 13.6801V13.6302H35.25L35.75 12.9102L36.27 13.3102H36.28C36.54 13.3402 36.76 13.3902 36.93 13.4602C37.07 13.0102 37.23 12.4502 37.36 11.9102L38.67 12.4602C38.62 12.6002 38.52 12.6601 38.24 12.6501C37.94 12.9801 37.6 13.3402 37.28 13.6402C37.51 13.8102 37.6 14.0102 37.6 14.1902C37.6 14.2402 37.59 14.2901 37.58 14.3401H37.59C37.79 13.9301 37.99 13.5301 38.15 13.2001L39.4 13.9301C39.35 14.0201 39.28 14.0602 39.16 14.0602C39.09 14.0602 39.02 14.0502 38.92 14.0202C38.54 14.3902 37.98 14.9001 37.47 15.3401L38.66 15.3002C38.59 15.0802 38.49 14.8802 38.4 14.7202L38.51 14.6402C39.39 14.9002 39.69 15.3201 39.69 15.6501C39.69 15.9401 39.45 16.1702 39.2 16.1702C39.07 16.1702 38.94 16.1102 38.82 15.9702C38.81 15.8502 38.78 15.7302 38.76 15.6002L38.44 15.7102V16.5002V16.4801ZM35.54 14.7901L36.27 15.3302C36.46 15.3302 36.73 15.3302 37.07 15.3202C37.2 15.0602 37.37 14.7802 37.51 14.5002H37.5C37.42 14.6002 37.3 14.6702 37.15 14.6702C37.04 14.6702 36.92 14.6302 36.81 14.5202C36.76 14.2902 36.66 14.0202 36.51 13.7802C36.43 13.8102 36.32 13.8102 36.19 13.8102H33.79L33.92 13.8902C33.87 13.9702 33.8 14.0101 33.68 14.0101C33.61 14.0101 33.54 14.0002 33.44 13.9702C33.07 14.3702 32.52 14.8802 32.01 15.3302C32.34 15.3302 32.71 15.3202 33.08 15.3002C33.02 15.0802 32.94 14.8802 32.84 14.7202L32.96 14.6402C33.6 14.8702 33.91 15.1601 34.01 15.4301H35.09L35.54 14.8002V14.7901ZM37.12 21.4501L37.54 20.9102C37.25 20.9902 37.12 20.9902 36.74 20.9902V20.5302H33.12C33.06 20.7702 32.98 21.1201 32.88 21.4501H37.12ZM33.91 17.4301V15.9801C33.83 16.0801 33.7 16.1501 33.57 16.1501C33.44 16.1501 33.3 16.0901 33.18 15.9301C33.18 15.8301 33.17 15.7002 33.14 15.5802L32.9 15.6702V16.5401L33.01 16.4801C33.63 16.7901 33.87 17.1501 33.9 17.4301H33.91ZM36.48 12.6801C36.4 12.8201 36.23 12.8502 35.96 12.8502H33.89L33.83 12.6402H35.08L35.56 11.9902L36.49 12.6801H36.48ZM35.09 14.5101L35.54 13.8802L36.43 14.5502C36.36 14.6902 36.19 14.7202 35.92 14.7202H33.9L33.84 14.5101H35.09ZM35.26 16.5602H34.84V17.6702H35.26V16.5602Z" fill="#844E1A"/>
<path d="M50.32 13.3604L52.16 14.8604C52.04 15.0004 51.84 15.1704 51.49 15.2404V22.8604C51.49 22.8604 50.98 23.3703 49.7 23.3703V21.9503H43.93V22.8103C43.93 22.8703 43.67 23.5804 42.17 23.5804V13.6503L44.06 14.4404H49.55L50.31 13.3604H50.32ZM43.94 21.7504H49.71V14.6404H43.94V21.7504Z" fill="#844E1A"/>
<path d="M64.33 19.6204L65.7 20.9004C65.6 21.0404 65.44 21.0804 65.12 21.0804H63.5V23.6804C63.5 23.6804 63.23 24.0904 61.95 24.0904V21.0804H58.65V22.3304C58.65 22.3304 58.27 22.7304 57.19 22.7304V21.8804H56.49V23.0104C56.49 23.1304 56.05 23.4704 55.32 23.4704H55.06V19.5304C54.83 19.8604 54.58 20.1704 54.32 20.4604L54.17 20.3104C55 18.4204 55.38 15.8204 55.56 13.3504H54.24L54.19 13.1504H57.27L58.03 12.1004L59.16 12.9704L60.72 13.6204H60.97C61.03 13.1304 61.11 12.4204 61.16 11.9004L63.58 12.3104C63.54 12.5404 63.41 12.6404 63.04 12.6704C62.69 12.9304 62.15 13.3404 61.74 13.6204H63.28L63.85 12.8304L65.37 13.9704C65.3 14.0604 65.16 14.1604 64.94 14.2104V18.0604C64.94 18.0604 64.52 18.4704 63.39 18.4704V17.9604H60.64C60.64 18.1704 60.29 18.6104 59.15 18.6104V13.3204C59.07 13.3504 58.96 13.3504 58.84 13.3504H57.21C57.06 14.6904 56.78 15.9404 56.34 17.0804L56.63 17.2004H57.06L57.61 16.4304L59.07 17.5404C59 17.6304 58.86 17.7304 58.64 17.7704V20.8804H59.32C59.46 20.3004 59.67 19.3804 59.77 18.7304L61.86 19.1504C61.82 19.3704 61.68 19.4704 61.34 19.4704C61.01 19.8704 60.47 20.4704 60.09 20.8804H61.93V18.3604L63.88 18.5404C63.86 18.6904 63.78 18.7804 63.48 18.8304V20.8804H63.55L64.31 19.6304L64.33 19.6204ZM56.49 21.6804H57.19V17.3904H56.49V21.6804ZM61.33 13.8204H60.65V15.6404H61.33V13.8204ZM60.65 17.7504H61.33V15.8404H60.65V17.7504ZM63.4 13.8204H62.7V15.6404H63.4V13.8204ZM62.7 17.7504H63.4V15.8404H62.7V17.7504Z" fill="#844E1A"/>
<path d="M72.89 16.9897C73.45 16.1097 73.99 14.7697 74.23 13.9497L75.71 14.8397C75.66 14.9397 75.56 15.0197 75.33 14.9897C74.77 15.6697 73.91 16.5197 72.96 17.0997L72.89 16.9897ZM75.9 16.9997C75.9 16.9997 75.78 17.0197 75.7 17.0097C75.5 17.3697 75.25 17.7797 74.96 18.1997L75.43 18.3897C75.39 18.4797 75.3 18.5597 75.12 18.5897V23.4997C75.1 23.5897 74.59 23.8497 74.09 23.8497H73.86V19.5897C73.58 19.8897 73.28 20.1797 72.97 20.4397L72.89 20.3397C73.61 19.0797 74.23 17.1997 74.49 16.0297L76.05 16.8297H76.14C76.2 16.4797 76.26 15.9997 76.32 15.4997H75.61L75.56 15.3297H76.33L76.49 13.9297L77.99 14.1197C77.97 14.2897 77.84 14.3797 77.59 14.4097L77.46 15.3397H77.76L78.2 14.7197L79.43 15.5997C79.37 15.6797 79.24 15.7697 79.03 15.8097V16.6497L79.37 16.0697L80.2 16.8597C80.13 16.9697 80 17.0097 79.75 17.0097H75.87L75.9 16.9997ZM81.02 16.8497L82.18 17.8297C82.1 17.9397 81.96 17.9797 81.71 17.9797H81.35V22.2797C81.35 23.1297 81.15 23.7497 79.81 23.8497C79.81 22.8597 79.52 22.6297 78.82 22.5297V22.4197H79.96C80.05 22.4197 80.08 22.3697 80.08 22.2597V17.9797H79.48C79.43 18.0297 79.33 18.0897 79.19 18.1397V19.4297C79.19 19.4897 78.76 19.6497 78.41 19.6997H78.56C78.56 19.7997 78.5 19.8697 78.32 19.8997V20.5397L78.76 19.9197L79.63 20.5997C79.56 20.7197 79.43 20.7497 79.19 20.7497H78.33V21.9797H78.35L78.87 21.1597L79.83 21.9997C79.75 22.1097 79.62 22.1497 79.38 22.1497H78.34V23.5397C78.34 23.5397 78.1 23.8597 77.07 23.8597V22.1397H75.25L75.21 21.9697H75.81V20.7397H75.4L75.35 20.5697H77.06V19.5697L78.02 19.6497V19.3497H76.99V19.4397C76.99 19.4397 76.82 19.8797 75.82 19.8797V17.1697L77.03 17.6797H77.93L78.35 17.1097L79.31 17.8097H80.39L81.03 16.8497H81.02ZM77.05 21.9597V20.7297H76.67V21.9597H77.05ZM76.98 19.1797H78.01V17.8497H76.98V19.1797ZM77.46 15.4997L77.28 16.8297H77.88V15.4997H77.46ZM81.98 15.0397C81.9 15.1497 81.76 15.1897 81.52 15.1897H79.18L79.14 15.0197H80.2L80.83 14.1397L81.98 15.0497V15.0397Z" fill="#844E1A"/>
<path d="M85.6 15.6597L85.75 15.6997C85.4 17.2197 84.76 20.1597 84.76 20.8997V20.9597C84.78 21.5397 85.2 21.8897 85.2 22.7897C85.2 23.5597 84.71 23.8197 84.3 23.8197C84.06 23.8197 83.79 23.6997 83.7 23.2697C83.79 22.7797 83.83 22.2997 83.83 21.8997C83.83 20.9697 83.69 20.8097 83.13 20.7597V20.5697C83.45 20.5697 83.56 20.5597 83.56 20.5597C83.71 20.5697 83.74 20.5697 83.85 20.3497C84 20.0597 84.04 19.9897 84.68 18.2097C84.54 18.4197 84.32 18.5597 84.08 18.5597C83.89 18.5597 83.7 18.4797 83.54 18.2697C83.54 17.7397 83.34 17.0997 83.03 16.7197L83.1 16.6697C84.47 16.8897 84.86 17.4597 84.79 17.9297L85.61 15.6597H85.6ZM83.47 14.0497C84.83 14.2597 85.29 14.8097 85.29 15.2797C85.29 15.6897 84.94 16.0397 84.55 16.0397C84.36 16.0397 84.16 15.9597 84 15.7497C83.94 15.1897 83.72 14.5197 83.4 14.1097L83.47 14.0597V14.0497ZM85.17 20.8697C86.39 19.6597 87.3 17.6097 87.5 16.2097L89.37 16.6897C89.34 16.8297 89.23 16.8997 88.92 16.9297C89.64 18.0297 91.28 18.9097 92.36 19.3097V19.4697C91.78 19.6597 91.42 20.2797 91.32 20.8397C91.23 20.7897 91.15 20.7397 91.06 20.6597V23.4697C91.06 23.5297 90.63 23.7797 89.93 23.7797H89.68V22.9797H87.7V23.4697C87.7 23.5597 87.3 23.8697 86.63 23.8697H86.39V20.2097C86.02 20.4897 85.63 20.7497 85.23 20.9697L85.17 20.8797V20.8697ZM88.5 14.8697C88.46 14.9697 88.36 15.0497 88.13 15.0297C87.54 15.8297 86.62 16.7497 85.53 17.3197L85.46 17.2197C86.12 16.2997 86.66 14.8997 86.88 13.9697L88.5 14.8797V14.8697ZM89.6 20.0697L90 19.5197C89.48 18.7797 89.04 17.8897 88.79 17.0397C88.49 17.9797 87.8 18.9197 86.94 19.7297L87.8 20.0697H89.6ZM87.7 22.8197H89.68V20.2397H87.7V22.8197ZM89.21 14.1097C91.26 14.5397 91.92 15.4597 91.92 16.1397C91.92 16.5997 91.62 16.9397 91.24 16.9397C91.09 16.9397 90.92 16.8797 90.76 16.7397C90.46 15.8697 89.82 14.7997 89.14 14.1797L89.21 14.1097Z" fill="#844E1A"/>
<path d="M102.43 20.4296L102.25 22.4596C102.38 22.8596 102.45 23.1596 102.45 23.3796C102.45 23.8096 102.1 23.8596 101.94 23.8596C101.55 23.8596 101.18 23.5396 100.96 23.1896C100.29 22.2096 100.1 20.4896 100.04 18.0296C99.99 18.0896 99.89 18.1396 99.76 18.1796V20.3896C99.76 20.3896 99.47 20.6696 98.71 20.6696V20.1996H98.35V21.8696L98.99 21.8496C98.9 21.5396 98.78 21.2496 98.63 21.0196L98.71 20.9696C100 21.3996 100.42 22.0496 100.42 22.5696C100.42 23.0396 100.07 23.3996 99.69 23.3996C99.5 23.3996 99.29 23.3096 99.13 23.0796C99.15 22.8196 99.13 22.5196 99.07 22.2396C98.37 22.5196 97.43 22.8496 96.16 23.2596C96.09 23.3996 95.98 23.4796 95.86 23.4896L95.22 21.9096C95.59 21.9196 96.04 21.9096 97.15 21.8996V20.2096H96.81V20.5596C96.81 20.5596 96.66 20.9596 95.78 20.9596V17.3196L96.85 17.7896H97.14V16.8196C96.61 16.8596 96.06 16.8896 95.52 16.8996V17.7996C95.52 19.7496 95.41 22.2396 93.29 23.8396L93.2 23.7796C94.11 22.0296 94.16 19.7996 94.16 17.8196V14.3296L95.72 14.8896H99.88L100.45 14.0596L101.82 15.1996C101.75 15.2696 101.62 15.3596 101.39 15.4096C101.36 16.0996 101.34 16.8596 101.34 17.6096C101.34 21.2796 101.77 21.8196 101.84 21.8196C101.96 21.8196 102.29 20.6996 102.35 20.4496H102.4L102.43 20.4296ZM99 17.2596L100.04 18.0196C100.02 17.1296 100.02 16.1396 100.02 15.0396H95.53V16.6696C96.69 16.3096 98.06 15.6996 98.78 15.2696L100.01 16.5596C99.95 16.6096 99.87 16.6396 99.76 16.6396C99.64 16.6396 99.51 16.6096 99.34 16.5396C99.05 16.5896 98.71 16.6396 98.34 16.6996V17.7796H98.62L98.99 17.2596H99ZM96.81 20.0396H97.15V17.9496H96.81V20.0396ZM98.35 20.0396H98.71V17.9496H98.35V20.0396Z" fill="#844E1A"/>
<path d="M112.43 20.6792L112.29 22.5492C112.53 22.8992 112.64 23.1092 112.64 23.2892C112.64 23.4292 112.47 23.8692 112 23.8692C111.53 23.8692 110.74 23.4092 110.22 22.7292C109.53 23.2492 108.77 23.5592 107.92 23.7292L107.86 23.5892C108.57 23.2492 109.2 22.7092 109.75 21.9692C109.46 21.3692 109.26 20.6392 109.1 19.8292H108.36C108.36 20.1792 108.32 20.5192 108.28 20.8392C109.16 21.0392 109.46 21.4292 109.46 21.7792C109.46 22.1292 109.15 22.4292 108.82 22.4292C108.65 22.4292 108.47 22.3592 108.33 22.1592C108.33 22.0992 108.33 22.0392 108.33 21.9692C108.33 21.7292 108.28 21.4792 108.19 21.2592C107.98 22.3092 107.46 23.2092 106.24 23.8492L106.13 23.7092C107.05 22.5992 107.05 21.2992 107.06 19.8292H106.92C106.82 20.0692 106.62 20.2292 106.4 20.2292C106.25 20.2292 106.08 20.1492 105.95 19.9592C105.95 19.8692 105.97 19.7692 105.97 19.6792C105.97 19.2492 105.86 18.7592 105.7 18.3892V23.4792C105.7 23.5892 105.18 23.8592 104.69 23.8592H104.44V20.1192C104.16 20.5692 103.83 20.9892 103.45 21.3792L103.33 21.2392C103.88 20.0192 104.17 18.3592 104.32 16.7892H103.36L103.31 16.6192H104.43V13.9792L106.06 14.1492C106.04 14.2992 105.96 14.3792 105.68 14.4192V16.5292L106.11 15.7392L106.65 16.3192C106.58 16.0292 106.45 15.7292 106.28 15.5392L106.35 15.4792C106.58 15.5092 106.78 15.5492 106.93 15.5992C107 15.1392 107.08 14.5092 107.15 13.9592L108.58 14.4192C108.55 14.5592 108.45 14.6292 108.2 14.6292C107.89 14.9892 107.53 15.4092 107.21 15.7292C107.39 15.8192 107.52 15.9492 107.59 16.0692C107.66 15.8392 107.73 15.6092 107.78 15.3892L108.66 15.7592C108.63 15.1792 108.6 14.5692 108.58 13.9492L110.22 14.1292C110.22 14.2492 110.14 14.3392 109.84 14.3892L109.86 15.4292C110.01 15.4592 110.16 15.4892 110.28 15.5192C110.35 15.0892 110.43 14.4792 110.5 13.9492L111.98 14.4392C111.95 14.5792 111.84 14.6492 111.59 14.6492C111.27 14.9792 110.9 15.3592 110.57 15.6392C110.77 15.7292 110.91 15.8392 110.99 15.9592L111.21 15.2792L112.53 15.8792C112.48 15.9892 112.38 16.0692 112.13 16.0492C111.71 16.6092 111.24 17.2292 110.78 17.7292L111.57 17.6992C111.53 17.4692 111.46 17.2392 111.4 17.0792L111.5 17.0292C112.28 17.3992 112.54 17.8292 112.54 18.1692C112.54 18.5092 112.29 18.7492 112.02 18.7492C111.87 18.7492 111.71 18.6792 111.6 18.4892C111.62 18.3492 111.62 18.2092 111.6 18.0492L110.95 18.4592C111.46 18.5192 111.66 18.7192 111.67 18.9292L112.57 19.6892C112.5 19.7992 112.37 19.8392 112.12 19.8392H110.19C110.26 20.1492 110.34 20.4392 110.42 20.7092C110.55 20.4392 110.65 20.1492 110.76 19.8492L112.2 20.5992C112.15 20.6892 112.08 20.7492 111.94 20.7492C111.89 20.7492 111.84 20.7492 111.79 20.7392C111.56 21.1792 111.32 21.5492 111.05 21.8692C111.2 22.0392 111.49 22.2892 111.59 22.2892C111.65 22.2892 111.7 22.2492 111.74 22.1492C111.89 21.8492 112.17 21.1592 112.31 20.6792H112.37H112.43ZM105.72 16.7892V18.1492C106.18 18.3592 106.5 18.5892 106.71 18.8292L106.41 17.9492H107.04C107.16 17.6292 107.28 17.2392 107.41 16.8292C107.33 16.8792 107.25 16.8992 107.15 16.8992C107.04 16.8992 106.93 16.8592 106.82 16.7592C106.74 16.7792 106.66 16.7892 106.54 16.7892H105.73H105.72ZM109.08 19.6692C109.03 19.4292 109 19.1792 108.96 18.9292C108.89 18.9592 108.82 18.9692 108.75 18.9692C108.6 18.9692 108.43 18.8992 108.31 18.7092C108.31 18.5492 108.31 18.3892 108.29 18.2292C108 18.4292 107.6 18.6792 107.1 18.9692C107.06 19.0692 106.99 19.1392 106.93 19.1792C106.98 19.2892 107 19.4192 107 19.5292C107 19.5692 107 19.6192 107 19.6692H109.09H109.08ZM108.13 17.2492C108.42 17.3592 108.65 17.4892 108.83 17.6092C108.79 17.1792 108.76 16.7492 108.74 16.2892C108.31 16.8692 107.84 17.4692 107.39 17.9292C107.66 17.9292 107.95 17.9192 108.25 17.9092C108.2 17.6792 108.12 17.4592 108.04 17.2992L108.14 17.2492H108.13ZM110.74 16.8492C110.74 16.8492 110.64 16.8692 110.59 16.8692C110.45 16.8692 110.3 16.8092 110.17 16.6392C110.19 16.3092 110.08 15.9092 109.91 15.6392C109.93 16.3892 109.95 17.0992 110 17.7392H110.42L110.74 16.8392V16.8492ZM111.12 19.6692L111.26 19.4592C111.26 19.4592 111.19 19.4692 111.16 19.4692C111.01 19.4692 110.87 19.4092 110.74 19.2592C110.74 19.0692 110.69 18.8692 110.6 18.7092C110.54 18.8592 110.44 18.9292 110.33 18.9392L110.03 18.0892C110.08 18.6592 110.15 19.1892 110.23 19.6692H111.12Z" fill="#844E1A"/>
<path d="M113.55 18.6396H120.31L121.16 17.3896L122.71 18.6597C122.61 18.8197 122.47 18.8696 122.16 18.8696H113.61L113.55 18.6396Z" fill="#844E1A"/>
<path d="M128.75 14.6597C128.71 14.7697 128.61 14.8397 128.35 14.8197C127.84 15.5697 127.03 16.5097 126.15 17.3197C127.38 17.3197 128.9 17.3197 130.51 17.2997C130.1 16.7697 129.62 16.2897 129.1 15.9497L129.15 15.8697C131.82 16.2297 132.67 17.3997 132.67 18.2297C132.67 18.7397 132.35 19.1297 131.93 19.1297C131.77 19.1297 131.58 19.0797 131.41 18.9397C131.26 18.5197 131.04 18.0997 130.78 17.6897C129.4 18.0197 127.51 18.3597 124.79 18.7997C124.7 18.9197 124.59 18.9997 124.47 19.0197L123.81 17.2897L125.55 17.3197C126.04 16.2297 126.5 14.8997 126.76 13.9297L128.73 14.6697L128.75 14.6597ZM129.86 19.6397L130.43 18.8497L131.89 19.9597C131.81 20.0597 131.68 20.1797 131.44 20.2297V23.4197C131.44 23.4197 131.01 23.7497 129.98 23.7497V22.9297H126.45V23.3097C126.45 23.3097 126.26 23.8597 125.08 23.8597V19.0297L126.54 19.6297H129.87L129.86 19.6397ZM126.45 22.7697H129.98V19.7997H126.45V22.7697Z" fill="#844E1A"/>
<path d="M141.59 14.42L142.97 15.46C142.9 15.57 142.78 15.61 142.5 15.61H133.94L133.89 15.44H137.7V13.96L139.47 14.14C139.45 14.29 139.37 14.3599 139.1 14.3999V15.44H140.83L141.58 14.42H141.59ZM140.82 19.2899L141.33 18.56L142.69 19.6C142.63 19.68 142.52 19.78 142.31 19.82V22.32C142.31 23.11 142.16 23.68 140.67 23.86C140.67 23.43 140.61 23.12 140.49 22.92C140.38 22.75 140.24 22.65 139.95 22.57C139.73 22.66 139.44 22.75 139.2 22.75H138.98V22.17H137.8V22.44C137.8 22.44 137.61 22.92 136.55 22.92V19.84L137.85 20.38H138.89L139.34 19.74L140.61 20.67C140.55 20.75 140.45 20.84 140.26 20.88V22.42H140.81C140.89 22.42 140.92 22.39 140.92 22.28V19.47H135.91V23.31C135.91 23.31 135.72 23.86 134.54 23.86V18.7L136.02 19.3H140.83L140.82 19.2899ZM140.82 18.5099C140.82 18.5799 140.09 18.8 139.66 18.8H139.42V18.32H137.32C137.32 18.32 137.12 18.85 135.95 18.85V15.97L137.38 16.56H139.32L139.82 15.85L141.19 16.8699C141.13 16.9399 141.02 17.05 140.81 17.09V18.5L140.82 18.5099ZM137.32 18.16H139.42V16.7299H137.32V18.16ZM137.79 22H138.97V20.5399H137.79V22Z" fill="#844E1A"/>
<path d="M144.84 19.1497C145.46 19.2597 145.99 19.4097 146.44 19.5897C146.59 19.0897 146.71 18.5897 146.8 18.1297L148.52 18.7797C148.48 18.8897 148.39 18.9797 148.14 18.9797C147.99 19.3897 147.8 19.8097 147.59 20.2297C148.23 20.7297 148.48 21.2997 148.48 21.7697C148.48 22.3097 148.14 22.7197 147.72 22.7197C147.55 22.7197 147.35 22.6597 147.17 22.5097C147.07 22.1897 146.94 21.8697 146.77 21.5397C146.1 22.4597 145.22 23.2797 144.06 23.8397L143.99 23.7397C144.94 22.8697 145.63 21.6997 146.11 20.4997C145.73 19.9997 145.28 19.5597 144.78 19.2397L144.84 19.1597V19.1497ZM144.01 19.0597C144.58 18.2997 145.02 17.1197 145.19 16.3097L146.62 17.0897C146.58 17.1897 146.49 17.2597 146.26 17.2397C145.77 17.9397 145 18.7197 144.08 19.1897L144 19.0697L144.01 19.0597ZM153.32 16.4297C153.24 16.5397 153.1 16.5797 152.85 16.5797H152.66C152.48 18.2697 152.14 19.7397 151.45 20.9697C151.97 21.5997 152.61 22.1197 153.39 22.5197L153.35 22.6197C152.69 22.7797 152.32 23.1797 152.16 23.8497C151.56 23.3497 151.1 22.7197 150.75 21.9597C150.07 22.7597 149.16 23.4097 147.93 23.8697L147.88 23.7597C149.04 22.9897 149.8 21.9897 150.3 20.7697C150.05 19.9197 149.87 18.9597 149.77 17.9197C149.47 18.4497 149.13 18.9297 148.74 19.3197L148.62 19.2597C148.9 18.4497 149.14 17.2197 149.3 15.9097C149.21 15.9797 149.09 15.9997 148.87 15.9997H144.06L144.02 15.8297H145.9V13.9697L147.63 14.1497C147.61 14.2997 147.52 14.3697 147.25 14.4097V15.8397H147.48L148.13 14.8997L149.3 15.8297C149.37 15.2197 149.42 14.5797 149.44 13.9697L151.3 14.3397C151.27 14.4897 151.19 14.5697 150.92 14.5997C150.77 15.2397 150.61 15.8497 150.42 16.4097H151.43L152.1 15.4397L153.32 16.4297ZM147.09 16.4697C148.55 16.5297 149.03 17.0897 149.03 17.5797C149.03 17.9897 148.7 18.3497 148.32 18.3497C148.15 18.3497 147.97 18.2797 147.81 18.1097C147.73 17.5397 147.44 16.8897 147.04 16.5297L147.09 16.4697ZM150.37 16.5697C150.24 16.9197 150.1 17.2597 149.94 17.5697C150.1 18.3797 150.34 19.0897 150.65 19.7197C150.91 18.7697 151.06 17.7197 151.14 16.5697H150.37Z" fill="#844E1A"/>
<path d="M60.29 80.0998C59.71 81.2698 59.1 82.2298 58.49 82.9698C58.67 82.9898 58.83 82.9897 58.94 82.9897C60.31 82.9897 61.67 82.8698 63.03 82.6398C62.69 82.1598 62.32 81.6797 61.9 81.1797L62.55 80.5497C63.41 81.5597 64.13 82.5597 64.72 83.5497L64.04 84.2598C63.89 83.9898 63.73 83.7098 63.57 83.4398C61.76 83.7298 59.56 83.8798 56.95 83.8798L56.78 82.8297C57.09 82.8697 57.37 82.8898 57.63 82.9098C58.21 82.1498 58.83 81.1098 59.45 79.7598L60.3 80.0998H60.29ZM64 88.6398H63.11V88.0398H58.26V88.6097H57.37V84.5598H64V88.6398ZM63.11 87.2198V85.3898H58.26V87.2198H63.11Z" fill="#40220F"/>
<path d="M67.6301 82.1296V82.7596C67.3701 83.2996 67.06 83.8596 66.67 84.4496H67.66V84.9796C67.54 85.6096 67.42 86.0996 67.29 86.4496C67.66 86.8896 67.97 87.1696 68.19 87.2796C68.39 87.3996 68.6801 87.4896 69.0701 87.5596C69.5301 87.6296 70.42 87.6696 71.75 87.6796C72.72 87.6796 73.44 87.6596 73.92 87.5996L73.81 88.4596C71.25 88.4596 69.69 88.4196 69.12 88.3496C68.61 88.2696 68.2 88.1496 67.9 87.9896C67.63 87.8596 67.32 87.5896 66.98 87.1496C66.76 87.6096 66.48 88.0896 66.11 88.6096L65.54 87.9696C65.94 87.4696 66.22 87.0196 66.4 86.6296C66.54 86.3996 66.69 85.9196 66.87 85.1896H65.75V84.4796C66.06 84.0796 66.38 83.5596 66.72 82.9096H65.61V82.1196H67.61L67.6301 82.1296ZM67.5201 81.2296L66.95 81.8396C66.7 81.4196 66.36 80.9496 65.92 80.4496L66.45 79.9196C66.87 80.3596 67.2301 80.7996 67.5201 81.2296ZM70.4901 80.5596V79.8096H71.3V80.5596H73.58V81.2696H71.3V81.8596H73.87V82.5396H72.7L72.48 83.2496H73.68V83.9996H71.26V84.5296H73.5701V85.1996H71.26V85.7696H73.79V86.4396H71.26V87.3796H70.44V86.4396H67.87V85.7696H70.44V85.1996H68.12V84.5296H70.44V83.9996H67.94V83.2496H69.25L69.0701 82.5396H68.0201V81.8596H70.48V81.2696H68.2V80.5596H70.48H70.4901ZM71.6301 83.2596L71.8501 82.5496H69.92L70.1001 83.2596H71.62H71.6301Z" fill="#40220F"/>
<path d="M77.36 86.9099C77.89 86.5299 78.28 86.0799 78.54 85.5699C78.65 85.3399 78.74 85.0699 78.81 84.7499H77.53V83.9599H78.94C78.96 83.7699 78.97 83.5799 78.99 83.3699H77.76V82.6199H82.92V83.3699H79.74C79.74 83.5799 79.72 83.7799 79.7 83.9599H83.09V84.7499H79.58C79.54 84.9399 79.5 85.1199 79.45 85.2799H82.63V85.9499C82.28 86.5299 81.9 86.9799 81.48 87.3199C81.92 87.4899 82.48 87.6599 83.16 87.8299L82.73 88.6199C81.88 88.3699 81.2 88.1099 80.68 87.8399C80.11 88.1299 79.37 88.3899 78.46 88.6199L78.17 87.8599C78.86 87.7399 79.46 87.5899 79.97 87.3799C79.6 87.0799 79.29 86.6999 79.06 86.2399C78.77 86.7699 78.33 87.2599 77.76 87.7199L77.37 87.0899V87.2699H75.73V88.0599H74.95V80.5299H77.38V86.9199L77.36 86.9099ZM76.58 83.4099V81.3099H75.72V83.4099H76.58ZM76.58 86.4799V84.1999H75.72V86.4799H76.58ZM83.03 80.5999C81.75 80.8999 80.05 81.0399 77.93 81.0399L77.72 80.2899C79.65 80.2899 81.29 80.1599 82.64 79.8799L83.03 80.5999ZM79.43 82.3199L78.64 82.5099C78.51 82.1299 78.36 81.7499 78.17 81.3899L78.89 81.1599C79.08 81.5099 79.25 81.8899 79.42 82.3199H79.43ZM80.72 86.9799C80.72 86.9799 80.76 86.9599 80.77 86.9399C81.12 86.7299 81.43 86.4099 81.7 85.9899H79.71C79.98 86.4299 80.32 86.7699 80.71 86.9799H80.72ZM81.04 82.2799L80.26 82.4699C80.12 82.0899 79.96 81.7099 79.76 81.3499L80.47 81.1199C80.69 81.4699 80.88 81.8499 81.05 82.2799H81.04ZM82.82 81.1199C82.62 81.6299 82.37 82.0899 82.07 82.5099L81.29 82.2099C81.58 81.8699 81.83 81.4499 82.04 80.9299L82.82 81.1099V81.1199Z" fill="#40220F"/>
<path d="M91.11 80.0996V85.3496C91.11 86.4596 91.16 87.0896 91.25 87.2196C91.3 87.3696 91.36 87.4396 91.41 87.4396C91.5 87.4396 91.6 87.0796 91.73 86.3496L92.33 86.7296C92.21 87.5196 92.07 88.0196 91.91 88.2496C91.78 88.4096 91.64 88.4996 91.47 88.4996C91.18 88.4996 90.95 88.3796 90.77 88.1596C90.46 87.7796 90.3 86.8496 90.3 85.3496V80.9296H85.31V84.1196C85.31 84.8196 85.25 85.5596 85.15 86.3296C85.02 87.1396 84.81 87.9096 84.52 88.6896L83.81 88.0196C84.07 87.4096 84.26 86.7496 84.37 86.0696C84.44 85.3696 84.49 84.7196 84.49 84.1196V80.1096H91.11V80.0996ZM90.01 81.4796V82.2696H88.19V83.0596H89.8V85.9896H88.19V87.1696C88.55 87.1296 88.87 87.0796 89.15 87.0296C89.04 86.8196 88.94 86.6296 88.83 86.4396L89.51 86.2196C89.85 86.7796 90.14 87.3796 90.39 88.0096L89.71 88.3096C89.64 88.1196 89.56 87.9296 89.48 87.7496C88.58 87.9396 87.26 88.0896 85.54 88.1996L85.29 87.2996C86.06 87.2996 86.74 87.2796 87.35 87.2396V85.9796H85.78V83.0496H87.35V82.2596H85.61V81.4696H89.99L90.01 81.4796ZM87.37 83.8096H86.55V85.2296H87.37V83.8096ZM89.05 83.8096H88.19V85.2296H89.05V83.8096Z" fill="#40220F"/>
<path d="M93.92 81.6396V79.8396H94.7V81.6396H95.41V82.4296H94.7V82.9496C95.03 83.3696 95.37 83.8396 95.69 84.3396L95.54 84.5696H96.31C96.31 84.3596 96.33 84.1296 96.33 83.8896C96.13 83.9196 95.93 83.9496 95.73 83.9696L95.59 83.2996C95.73 83.2996 95.86 83.2996 96 83.2696C96.2 82.9796 96.4 82.6396 96.6 82.2296C96.29 82.2996 95.96 82.3596 95.61 82.4296L95.47 81.7996C95.58 81.7996 95.7 81.7796 95.82 81.7596C96.11 81.1996 96.33 80.6096 96.47 79.9596L97.12 80.0396C96.97 80.6296 96.77 81.1596 96.52 81.6596C96.66 81.6396 96.78 81.6096 96.9 81.5796C97.01 81.3396 97.11 81.0896 97.22 80.8196L97.83 81.0396C97.45 81.9296 97.05 82.6596 96.67 83.2296C96.88 83.2096 97.09 83.1896 97.29 83.1696C97.24 82.9896 97.2 82.7996 97.14 82.6196L97.61 82.4996C97.81 83.0196 97.97 83.4996 98.08 83.9196L97.51 84.1496C97.48 84.0096 97.46 83.8596 97.43 83.7296C97.3 83.7496 97.17 83.7696 97.06 83.7896C97.06 84.0796 97.06 84.3396 97.04 84.5696H98.22C98.07 83.5696 97.98 81.9796 97.95 79.8096H98.66C98.71 82.0596 98.81 83.6496 98.92 84.5696H99.77C99.71 84.3796 99.63 84.1796 99.54 83.9796C99.38 83.9996 99.21 84.0196 99.05 84.0396L98.88 83.3696C99.03 83.3696 99.16 83.3696 99.29 83.3696C99.49 83.0596 99.7 82.6896 99.9 82.2496C99.59 82.3196 99.26 82.3796 98.91 82.4396L98.76 81.8096C98.87 81.8096 98.98 81.7896 99.09 81.7696C99.35 81.2096 99.54 80.6196 99.66 79.9696L100.3 80.0496C100.17 80.6396 100 81.1896 99.77 81.6896C99.92 81.6696 100.05 81.6496 100.18 81.6196C100.27 81.4196 100.35 81.2096 100.44 80.9896L101.04 81.2096C100.68 82.0696 100.33 82.7696 99.97 83.3196C100.18 83.2896 100.37 83.2496 100.54 83.1996C100.49 83.0296 100.45 82.8596 100.4 82.6996L100.87 82.5896C101.06 83.0896 101.22 83.5496 101.33 83.9696L100.76 84.1996C100.73 84.0696 100.71 83.9196 100.67 83.7696C100.52 83.8096 100.38 83.8496 100.21 83.8896C100.3 84.0996 100.38 84.3296 100.46 84.5796H101.3V85.2896H99.05C99.13 85.7096 99.23 86.0696 99.34 86.3696C99.54 86.1196 99.74 85.8296 99.94 85.5096L100.55 85.8496C100.28 86.3296 99.98 86.7496 99.66 87.0996C99.95 87.5996 100.2 87.8496 100.4 87.8496C100.45 87.8496 100.48 87.8096 100.5 87.7396C100.54 87.6596 100.57 87.2396 100.61 86.4896L101.32 86.8996C101.22 87.6296 101.11 88.0996 100.98 88.3396C100.85 88.5296 100.67 88.6296 100.43 88.6296C100.05 88.6296 99.64 88.2796 99.19 87.5896V87.5696C98.77 87.9296 98.2 88.2396 97.51 88.5096L97.13 87.8696C97.79 87.6196 98.33 87.3196 98.76 86.9696C98.79 86.9496 98.81 86.9196 98.84 86.8996C98.64 86.4496 98.47 85.9096 98.35 85.2896H96.99C96.97 85.4096 96.96 85.5196 96.95 85.6196C97.39 85.9196 97.79 86.2396 98.15 86.6096L97.72 87.2796C97.42 86.9296 97.12 86.6296 96.82 86.3796C96.7 86.8796 96.56 87.2796 96.38 87.5696C96.19 87.9096 95.91 88.2596 95.55 88.6396L95.01 87.9196C95.38 87.5596 95.67 87.1996 95.85 86.8496C96 86.5796 96.12 86.1296 96.23 85.4996C96.23 85.4296 96.25 85.3696 96.26 85.2996H95.37V84.8496L95.22 85.0696C95.01 84.6496 94.84 84.2896 94.69 83.9996V88.6396H93.91V84.5096C93.69 85.1396 93.44 85.7096 93.16 86.1996L92.84 85.2596C93.26 84.5096 93.62 83.6496 93.91 82.6696V82.4496H92.98V81.6596H93.91L93.92 81.6396Z" fill="#40220F"/>
<path d="M105.04 86.18C104.42 86.96 103.64 87.66 102.72 88.27L102.14 87.48C102.99 86.98 103.75 86.36 104.42 85.61L105.03 86.18H105.04ZM110.03 80.7C108.92 80.94 107.58 81.11 106.04 81.21C105.8 81.63 105.46 82.06 105 82.52C105.69 82.49 106.37 82.45 107.04 82.4C107.4 82.06 107.75 81.71 108.1 81.33L108.91 81.74C107.74 82.93 106.59 83.92 105.46 84.69C106.75 84.65 107.83 84.58 108.72 84.48C108.52 84.12 108.32 83.76 108.1 83.4L108.74 82.99C109.41 83.98 109.93 84.82 110.31 85.53L109.53 86.1C109.4 85.81 109.26 85.51 109.09 85.18C108.46 85.27 107.7 85.34 106.82 85.4V87.6C106.82 87.96 106.74 88.2 106.57 88.35C106.42 88.5 106.15 88.58 105.75 88.58H104.93L104.75 87.6C105.05 87.66 105.3 87.68 105.5 87.68C105.76 87.68 105.89 87.6 105.89 87.45V85.46C104.95 85.52 103.89 85.58 102.72 85.61L102.5 84.75C103.08 84.75 103.62 84.75 104.14 84.75C104.85 84.29 105.54 83.76 106.21 83.17C105.24 83.26 104.17 83.34 103 83.42L102.83 82.63C103.18 82.63 103.51 82.61 103.85 82.59C104.34 82.19 104.75 81.75 105.07 81.27C104.28 81.31 103.45 81.32 102.57 81.32L102.32 80.53C105.19 80.53 107.62 80.35 109.63 79.96L110.02 80.71L110.03 80.7ZM110.31 87.56L109.67 88.23C109.16 87.6 108.43 86.92 107.49 86.18L108.1 85.58C108.97 86.25 109.71 86.91 110.31 87.57V87.56Z" fill="#40220F"/>
<path d="M113.41 80.0696C113.12 80.9696 112.79 81.7796 112.42 82.4696C112.68 82.4296 112.92 82.3896 113.17 82.3396C113.36 81.9196 113.56 81.4696 113.76 80.9796L114.47 81.2396C113.84 82.7096 113.2 83.9096 112.54 84.8496C113.01 84.7896 113.41 84.7196 113.74 84.5996C113.67 84.3296 113.59 84.0596 113.5 83.7896L114.15 83.5596C114.36 84.1496 114.55 84.8296 114.72 85.5896L114.01 85.7796C113.97 85.6196 113.95 85.4496 113.91 85.2896C113.32 85.4796 112.49 85.6296 111.41 85.7396L111.19 84.9096C111.39 84.9096 111.58 84.9096 111.76 84.9096C112.1 84.4096 112.44 83.8196 112.8 83.1196C112.33 83.2196 111.81 83.3196 111.27 83.4196L111.1 82.6296C111.26 82.6296 111.44 82.5996 111.61 82.5796C112.01 81.7496 112.37 80.8296 112.67 79.8196L113.42 80.0796L113.41 80.0696ZM112.12 86.1496C112.07 87.0996 111.97 87.8996 111.84 88.5496L111.09 88.3196C111.26 87.6196 111.38 86.8696 111.45 86.0696L112.13 86.1496H112.12ZM113.41 88.1396L112.66 88.2196C112.64 87.3196 112.6 86.6196 112.55 86.1196L113.19 86.0396C113.3 86.5596 113.37 87.2596 113.41 88.1396ZM114.61 87.4996L113.93 87.6896C113.84 87.1196 113.74 86.5796 113.61 86.0396L114.22 85.8496C114.36 86.3396 114.48 86.8896 114.6 87.4996H114.61ZM117.52 80.8696H119.46V81.6196H116.84C116.68 82.2696 116.43 82.8996 116.1 83.4796C116.9 83.4396 117.59 83.3496 118.14 83.1996C118.03 82.9696 117.9 82.7296 117.78 82.4796L118.39 82.0696C118.87 82.8596 119.26 83.5296 119.53 84.0896L118.78 84.6196C118.68 84.3796 118.57 84.1296 118.46 83.8696C118.28 83.9196 118.09 83.9596 117.88 83.9896V87.3896C117.88 87.5596 117.97 87.6496 118.16 87.6496H118.52C118.6 87.6496 118.67 87.5996 118.71 87.4896C118.75 87.3696 118.78 86.8596 118.8 85.9296L119.55 86.1596C119.5 87.2696 119.39 87.9196 119.27 88.1096C119.15 88.2996 118.94 88.4096 118.63 88.4096H117.88C117.63 88.4096 117.44 88.3396 117.31 88.2096C117.16 88.0596 117.1 87.8496 117.1 87.6196V84.1496C116.92 84.1796 116.74 84.2096 116.54 84.2296C116.49 85.4296 116.34 86.3196 116.11 86.8996C115.84 87.5796 115.38 88.1696 114.74 88.6796L114.21 87.9696C114.78 87.5496 115.16 87.0896 115.38 86.5696C115.58 86.1296 115.7 85.3796 115.75 84.3196C115.44 84.3596 115.11 84.3896 114.77 84.4096L114.56 83.5496C114.78 83.5496 115 83.5496 115.21 83.5496C115.56 82.9496 115.82 82.3096 116 81.6496H114.56V80.8996H116.64C116.51 80.6496 116.37 80.3896 116.19 80.1096L116.97 79.8096C117.15 80.1196 117.33 80.4796 117.49 80.8896L117.52 80.8696Z" fill="#40220F"/>
<path d="M125.58 68.2497H122.08V61.6197C122.01 61.5997 121.94 61.5697 121.87 61.5497C120.92 62.8997 119.98 64.2597 119 65.6597C119.76 65.7797 120.71 65.6597 120.98 66.0397C121.33 66.5197 121.14 67.3998 121.19 68.2298C119.45 68.2298 117.83 68.3597 116.24 68.1897C114.97 68.0597 114.43 66.3297 115.24 65.1297C116.43 63.3597 117.71 61.6397 118.94 59.8997C119.44 59.1997 119.92 58.4797 120.43 57.7897C121.1 56.8697 121.98 56.2598 123.15 56.4498C124.28 56.6398 125.08 57.3097 125.38 58.4697C125.4 58.5497 125.5 58.6197 125.56 58.6897V68.2497H125.58Z" fill="#40220F"/>
<path d="M74.93 68.2202H44.7C49.76 59.9402 54.76 51.7502 59.84 43.4102C64.89 51.7202 69.87 59.9202 74.92 68.2202H74.93ZM61.94 53.6801C57.73 53.6801 52.69 57.7702 51.61 62.0702C51.06 64.2702 52.16 66.0802 54.35 66.6002C56.5 67.1202 58.32 66.2401 60.1 65.2401C60.59 64.9601 60.93 64.8301 61.5 65.0901C62.79 65.6701 64.45 65.2202 65.36 64.1702C66.31 63.0702 66.53 61.4902 65.78 60.2302C65.45 59.6702 65.44 59.2001 65.61 58.6101C66.41 55.7901 64.84 53.6801 61.95 53.6801H61.94Z" fill="#40220F"/>
<path d="M98.54 60.8502V63.3002H93.04V65.7602H99.42C99.42 66.2602 99.39 66.6602 99.42 67.0602C99.51 67.9702 99.1 68.2902 98.21 68.2702C95.89 68.2302 93.58 68.2702 91.26 68.2502C90.05 68.2502 89.48 67.6902 89.47 66.4802C89.45 63.4702 89.45 60.4602 89.49 57.4402C89.49 57.1602 89.8 56.6502 89.98 56.6502C93.08 56.6002 96.19 56.6102 99.35 56.6102V59.0802H93.04V60.8502H98.53H98.54Z" fill="#40220F"/>
<path d="M81.8 68.22H78.58C78.51 68.14 78.43 68.08 78.43 68.03C78.42 64.92 78.37 61.8101 78.43 58.7001C78.45 57.6201 79.33 56.74 80.43 56.47C81.6 56.19 82.5501 56.66 83.2301 57.59C84.3601 59.12 85.43 60.6801 86.53 62.2301C87.21 63.1901 87.89 64.14 88.56 65.11C89.03 65.78 89.16 66.49 88.74 67.24C88.33 67.98 87.71 68.29 86.87 68.27C85.56 68.24 84.25 68.27 82.86 68.27V65.8201H84.9801C83.9101 64.2701 82.95 62.89 81.81 61.25V68.22H81.8Z" fill="#40220F"/>
<path d="M117.05 56.71V59.06H113.74V60.99C113.74 63.06 113.73 65.14 113.74 67.21C113.74 67.95 113.47 68.3 112.7 68.26C111.98 68.23 111.26 68.26 110.38 68.26V59.15H106.92V56.72H117.04L117.05 56.71Z" fill="#40220F"/>
<path d="M100.43 56.6302C101.38 56.6302 102.28 56.5702 103.16 56.6702C103.39 56.6902 103.74 57.1901 103.75 57.4701C103.8 59.8201 103.78 62.1801 103.78 64.5301V65.7801C105.37 65.7801 106.88 65.8101 108.38 65.7701C109.12 65.7501 109.48 65.9301 109.4 66.7401C109.32 67.4401 109.59 68.2801 108.41 68.2701C106.23 68.2501 104.05 68.2701 101.87 68.2701C101.13 68.2701 100.47 67.9602 100.46 67.2002C100.4 63.7202 100.44 60.2302 100.44 56.6402L100.43 56.6302Z" fill="#40220F"/>
<path d="M64.29 58.7C62.7 58.24 61.25 58.29 60.14 59.54C58.96 60.86 59.02 62.35 59.87 63.93C58.18 64.84 56.6 65.85 54.62 65.35C53.04 64.96 52.37 63.76 52.77 62.21C53.63 58.82 58.32 54.99 61.76 54.88C62.72 54.85 63.64 54.97 64.19 55.91C64.72 56.81 64.65 57.72 64.29 58.69V58.7Z" fill="#40220F"/>
</svg>
