<?xml version="1.0" encoding="utf-8"?>
<!-- Generator: Adobe Illustrator 27.0.0, SVG Export Plug-In . SVG Version: 6.00 Build 0)  -->
<svg version="1.1" id="圖層_1" xmlns="http://www.w3.org/2000/svg" xmlns:xlink="http://www.w3.org/1999/xlink" x="0px" y="0px"
	 viewBox="0 0 400 249" style="enable-background:new 0 0 400 249;" xml:space="preserve">
<style type="text/css">
	.st0{fill:#40220F;}
	.st1{fill:none;stroke:#D8B167;stroke-width:0.25;stroke-miterlimit:10;}
</style>
<path class="st0" d="M109.5,35.5h-1v-0.4h-7.9v0.4h-1V24.9h9.8V35.5z M108.5,34.3v-8.5h-7.9v8.5H108.5z M107.7,26.3v1.9h-2.6v0.5
	h3.3v0.7h-7.5v-0.7h3.2v-0.5h-2.5v-1.9H107.7L107.7,26.3z M107.7,29.9v3.9h-6.2v-3.9H107.7z M106.8,30.6h-4.3v2.5h4.3V30.6z
	 M106.7,26.9h-4.2v0.6h4.2V26.9z M106.1,31v1.6h-2.9V31H106.1z M105.3,31.5h-1.4v0.6h1.4V31.5z"/>
<path class="st0" d="M113.1,32.4c-0.3,1.1-0.7,2.2-1.4,3.3l-1-0.9c0.6-0.9,1.1-1.8,1.3-2.7c0.2-1,0.3-1.9,0.3-2.7v-4.1h8.2v4.7H117
	c0.3,1,0.7,1.8,1.3,2.5c0.7,0.9,1.7,1.6,3,2.1l-0.7,1.2c-1.5-0.8-2.6-1.7-3.3-2.7c-0.7-0.9-1.2-1.9-1.5-3.1h-2.5
	C113.4,30.7,113.3,31.5,113.1,32.4L113.1,32.4z M113.4,26.3v2.4h6v-2.4H113.4z"/>
<path class="st0" d="M126.9,29.5h-3.3v6.2h-1V25h4.4V29.5z M125.9,26.7v-0.8h-2.3v0.8H125.9z M125.9,28.5v-0.9h-2.3v0.9H125.9z
	 M129.7,30v4.5H125V30H129.7z M128.7,31.8V31H126v0.8H128.7z M128.7,32.7H126v1h2.6V32.7z M132.2,25v9.5c0,0.4-0.1,0.7-0.3,0.9
	c-0.2,0.2-0.5,0.3-1,0.3h-0.8l-0.2-1.1l0.9,0c0.3,0,0.4-0.2,0.4-0.5v-4.6h-3.4V25H132.2z M131.2,26.8v-0.8h-2.4v0.8H131.2z
	 M131.2,27.6h-2.4v0.9h2.4V27.6z"/>
<path class="st0" d="M139.2,31.4c-0.2,0.2-0.5,0.5-0.9,0.8l-0.4-0.6c0.5-0.3,0.8-0.6,0.9-1.1h-0.7v-1.5h1.4v1.2
	C139.5,30.7,139.4,31.1,139.2,31.4z"/>
<path class="st0" d="M147.9,27.5v0.8c-0.4,0.7-0.8,1.3-1.4,2.1h1.4v0.7c-0.2,0.7-0.3,1.3-0.5,1.8c0.4,0.5,0.8,0.9,1,1
	c0.2,0.2,0.6,0.3,1.1,0.4c0.5,0.1,1.6,0.2,3.2,0.2c1.2,0,2.1,0,2.7-0.1l-0.1,1.1c-3.1,0-5-0.1-5.7-0.1c-0.6-0.1-1.1-0.2-1.5-0.5
	c-0.3-0.2-0.7-0.5-1.1-1.1c-0.3,0.6-0.7,1.1-1.2,1.8l-0.8-0.9c0.6-0.6,1-1.2,1.2-1.6c0.2-0.3,0.4-0.8,0.7-1.7h-1.6v-0.9
	c0.5-0.5,1-1.2,1.5-2h-1.7v-0.9L147.9,27.5L147.9,27.5z M147.6,26.4l-0.8,0.8c-0.3-0.5-0.7-1.1-1.2-1.8l0.7-0.7
	C146.9,25.3,147.3,25.9,147.6,26.4L147.6,26.4z M154.7,25.5c-0.8,0.2-1.7,0.4-2.7,0.5v0.8h3v0.9h-2c0.2,0.2,0.5,0.4,0.7,0.6
	c0.4,0.3,0.9,0.6,1.6,0.9l-0.7,0.9c-0.8-0.4-1.4-0.9-1.8-1.3c-0.3-0.3-0.6-0.6-0.8-1v1.6h-1v-1.7h-0.1c-0.2,0.4-0.4,0.6-0.6,0.9
	c-0.4,0.5-1.1,1-2.1,1.6l-0.5-0.9c0.7-0.3,1.2-0.6,1.6-1c0.2-0.2,0.4-0.3,0.6-0.5h-1.7v-0.9h2.8V26c-0.8,0.1-1.6,0.1-2.5,0.1
	l-0.3-0.9c2.4,0,4.4-0.2,6-0.5L154.7,25.5L154.7,25.5z M153.9,29.7c-0.1,0.4-0.2,0.8-0.3,1.2h1.1c-0.1,1.1-0.2,1.9-0.3,2.2
	c-0.1,0.3-0.2,0.4-0.3,0.5c-0.2,0.2-0.5,0.2-0.9,0.2h-1.4l-0.3-1.1c0.5,0.1,1,0.1,1.4,0.1c0.2,0,0.4,0,0.4-0.1
	c0.1,0,0.1-0.2,0.2-0.4c0.1-0.2,0.1-0.4,0.1-0.7h-1.4c0.1-0.4,0.2-0.8,0.3-1.2H151c-0.1,0.7-0.3,1.2-0.5,1.7c-0.4,0.7-1,1.2-1.8,1.6
	l-0.5-1c0.5-0.2,0.9-0.5,1.2-1c0.2-0.3,0.3-0.7,0.4-1.2H149v-0.9L153.9,29.7L153.9,29.7z"/>
<path class="st0" d="M159.4,27.5v0.8c-0.4,0.7-0.8,1.3-1.4,2.1h1.4V31c-0.2,0.8-0.3,1.4-0.5,1.8c0.4,0.5,0.8,0.9,1,1
	c0.2,0.2,0.6,0.3,1.1,0.4c0.5,0.1,1.6,0.2,3.2,0.2c1.2,0,2.1,0,2.7-0.1l-0.1,1.1c-3.1,0-5,0-5.7-0.1c-0.6-0.1-1.1-0.3-1.5-0.5
	c-0.3-0.2-0.7-0.5-1.1-1c-0.3,0.6-0.8,1.2-1.3,1.8l-0.8-0.9c0.6-0.6,1-1.2,1.3-1.6c0.2-0.3,0.4-0.9,0.7-1.8h-1.6v-0.9
	c0.5-0.5,0.9-1.1,1.4-2h-1.7v-0.9L159.4,27.5L159.4,27.5z M159,26.4l-0.8,0.8c-0.3-0.6-0.8-1.2-1.4-1.8l0.7-0.7
	C158.2,25.3,158.7,25.8,159,26.4z M165.9,28.6h0.5V33c0,0.4-0.1,0.6-0.3,0.8c-0.2,0.2-0.4,0.2-0.7,0.2h-1.1l-0.2-1l0.9,0
	c0.2,0,0.3-0.2,0.3-0.4v-3.2h-4.6v4.3h-1v-5.2h0.6V25h5.5V28.6L165.9,28.6z M162.2,28.6v-1.7h2.6v-0.9h-3.6v2.7L162.2,28.6
	L162.2,28.6z M164.6,30.1v2.7h-3v-2.7H164.6z M163.6,30.9h-1.1V32h1.1V30.9z M164.9,28.6v-0.9h-1.7v0.9H164.9z"/>
<path class="st0" d="M178,25.3v1.1h-3.5c-0.2,0.5-0.5,1-0.8,1.4v7.8h-1.2v-6.2c-0.1,0.1-0.2,0.2-0.2,0.3c-1,1.1-2.2,2.1-3.7,2.9
	l-0.7-0.9c1.4-0.8,2.6-1.7,3.5-2.7c0.6-0.6,1.2-1.5,1.8-2.6h-5.2v-1.1L178,25.3L178,25.3z M178,31.7l-0.8,0.9c-0.7-1-1.6-2-2.8-3.1
	l0.8-0.8C176.3,29.6,177.2,30.7,178,31.7L178,31.7z"/>
<path class="st0" d="M189.1,34.3c0,0.4-0.1,0.7-0.3,0.9c-0.2,0.2-0.4,0.3-0.7,0.3h-1.7l-0.2-1.2l1.4,0.1c0.2,0,0.4-0.2,0.4-0.5v-7.8
	h-7v9.5h-1.1V25h9.3L189.1,34.3L189.1,34.3z M187.4,27.3v1h-5.8v-1H187.4z M187,29.3v3.9h-5.1v-3.9H187z M185.9,30.4h-3v1.8h3V30.4z
	"/>
<path class="st0" d="M192.9,32.4c-0.3,1.1-0.7,2.2-1.4,3.3l-1-0.9c0.6-0.9,1.1-1.8,1.3-2.7c0.2-1,0.3-1.9,0.3-2.7v-4.1h8.2v4.7h-3.4
	c0.3,1,0.7,1.8,1.3,2.5c0.7,0.9,1.7,1.6,3,2.1l-0.7,1.2c-1.5-0.8-2.6-1.7-3.3-2.7c-0.7-0.9-1.2-1.9-1.5-3.1h-2.5
	C193.2,30.7,193.1,31.5,192.9,32.4L192.9,32.4z M193.2,26.3v2.4h6v-2.4H193.2z"/>
<path class="st0" d="M208.3,25.5h4.1v0.9h-2.1v1h1.9v0.9h-1.9v1.9h-4.8v-1.9h-1.8v1.3c0,0.9-0.1,1.8-0.2,2.7c-0.2,1-0.4,1.9-0.8,2.8
	l-0.9-0.8c0.3-0.7,0.5-1.5,0.6-2.3c0.1-0.8,0.2-1.6,0.2-2.3v-4.2h4.4c-0.1-0.2-0.3-0.5-0.5-0.7l1.2-0.2
	C208,24.9,208.2,25.2,208.3,25.5L208.3,25.5z M211.4,30.9v0.8c-0.6,0.8-1.4,1.4-2.3,2c0.9,0.4,2,0.7,3.6,1.1l-0.8,0.9
	c-1.4-0.4-2.5-0.8-3.4-1.2c-0.2-0.1-0.3-0.2-0.5-0.2c-1.1,0.5-2.4,1-3.8,1.2l-0.5-1.1c1.2-0.2,2.3-0.4,3.2-0.8
	c-0.6-0.4-1.1-0.8-1.6-1.3l0.7-0.5h-1.6v-0.9H211.4L211.4,30.9z M205.6,26.5h-1.8v1h1.8V26.5z M208,33.1c0.7-0.4,1.3-0.8,1.8-1.4
	h-3.7C206.6,32.2,207.3,32.7,208,33.1L208,33.1z M209.3,26.5h-2.7v1h2.7V26.5z M206.6,29.4h2.7v-1h-2.7V29.4z"/>
<path class="st0" d="M219.6,26l-0.4,0.4h4.5v1.1h-6.3v0.9c0,0.3,0,0.5,0,0.7h5.1c0,3.3-0.3,5.2-0.8,5.7c-0.3,0.4-1.2,0.6-2.8,0.6
	l-0.2-1.2c0.4,0.1,0.7,0.1,0.9,0.1c0.5,0,0.9-0.1,1.2-0.4c0.2-0.3,0.4-1.5,0.5-3.7h-4c-0.1,0.8-0.3,1.5-0.5,2.2
	c-0.4,1.1-1.1,2.1-2.2,3.2l-0.9-0.8c1-0.8,1.7-1.8,2.1-2.7c0.3-0.8,0.5-2,0.5-3.6v-0.9h-2.8v-1.1h4.9c-0.4-0.3-0.8-0.7-1.3-1.1
	l0.8-0.7C218.6,25.1,219.2,25.5,219.6,26z"/>
<path class="st0" d="M230.5,24.7c0.7,0.6,1.4,1.1,2.2,1.5c0.5,0.3,1.4,0.6,2.7,1l-0.7,1.1c-0.6-0.2-1.3-0.4-1.9-0.7
	c-0.3-0.1-0.6-0.3-0.8-0.5v0.6h-4.1v-0.6c-0.7,0.4-1.6,0.8-2.7,1.3l-0.6-1.1c1.3-0.4,2.3-0.8,3-1.2c0.6-0.3,1.2-0.8,1.8-1.3
	L230.5,24.7L230.5,24.7z M234.2,34.4h1v1h-10.3v-1h1v-2.6h8.4V34.4z M233.7,28.3V31h-7.3v-2.8H233.7z M228.3,34.4v-1.6h-1.4v1.6
	H228.3z M232.6,29.2h-5.2v0.9h5.2V29.2z M231.4,26.7c-0.5-0.3-1-0.7-1.5-1.2c-0.5,0.4-1,0.8-1.5,1.2H231.4z M230.7,34.4v-1.6h-1.5
	v1.6H230.7z M233.2,34.4v-1.6h-1.5v1.6H233.2z"/>
<path class="st0" d="M245.4,25.2v1c-0.6,0.7-1.7,1.6-3.2,2.7v0.8h4.3v1.1h-4.3v3.7c0,0.3-0.1,0.6-0.2,0.8c-0.2,0.2-0.5,0.3-0.8,0.3
	H239l-0.1-1.2c0.7,0.1,1.3,0.1,1.7,0.1c0.2,0,0.3-0.1,0.3-0.4v-3.3h-4.6v-1.1h4.6v-1.5c1.1-0.6,2.1-1.2,2.9-1.9h-6.4v-1.1
	L245.4,25.2L245.4,25.2z"/>
<path class="st0" d="M249.2,26.9v-2.2h1v2.2h1.2v1h-1.2v0.4c0.4,0.6,0.9,1.3,1.3,2l-0.6,0.9c-0.3-0.6-0.5-1.1-0.7-1.6v6h-1v-5.5
	c-0.3,0.9-0.7,1.8-1.2,2.5l-0.4-1.3c0.7-1,1.2-2.1,1.6-3.4h-1.5v-1H249.2L249.2,26.9z M258.1,26.1h-5.4v8.1h5.4v1h-5.4v0.5h-1V25
	h6.4L258.1,26.1L258.1,26.1z M257.7,27v0.9h-1.8v1.5h1.6v0.9h-1.6v1.8h1.9v1H253v-1h1.9v-1.8h-1.6v-0.9h1.6v-1.5h-1.8V27H257.7z"/>
<path class="st0" d="M267.7,34.7h1.6v0.7h-10.2v-0.7h1.5v-3h7V34.7z M269.2,32.7h-1v-1.3h-7.9v1.3h-1v-2h10L269.2,32.7L269.2,32.7z
	 M264,27.8v2.6h-4.6v-2.6H264z M268,24.9v2.5h-7.7v-2.5H268z M261.2,28.8v-0.4h-0.9v0.4H261.2z M261.2,29.3h-0.9v0.5h0.9V29.3z
	 M263.7,25.9v-0.4h-2.4v0.4H263.7z M263.7,26.5h-2.4v0.4h2.4V26.5z M266.7,32.8v-0.4h-5.1v0.4H266.7z M266.7,33.8v-0.4h-5.1v0.4
	H266.7z M266.7,34.7v-0.4h-5.1v0.4H266.7z M263.1,28.7v-0.4h-1v0.4H263.1z M263.1,29.3h-1v0.5h1V29.3z M269,27.8v2.6h-4.6v-2.6H269z
	 M267,25.9v-0.4h-2.4v0.4H267z M267,26.4h-2.4v0.4h2.4V26.4z M266.3,28.7v-0.4h-1v0.4H266.3z M266.3,29.3h-1v0.5h1V29.3z
	 M268.1,28.7v-0.4h-1v0.4H268.1z M268.1,29.3h-1v0.5h1V29.3z"/>
<path class="st0" d="M276.4,31.8c-0.2-0.4-0.6-0.8-1-1.4c-0.3-0.3-0.7-0.7-1.3-1.2l0.7-0.6c0.4,0.3,0.8,0.7,1.3,1.2
	c0.3,0.3,0.7,0.8,1.1,1.4L276.4,31.8L276.4,31.8z"/>
<path class="st0" d="M285,28.2c-0.3,0.7-0.7,1.3-1,1.8v5.6h-1v-4.4c-0.3,0.3-0.6,0.6-0.9,0.8l-0.3-1.2c0.5-0.4,0.9-0.8,1.3-1.3
	c0.4-0.4,0.8-1,1.1-1.7L285,28.2L285,28.2z M285.1,25.2c-0.4,0.6-0.8,1.1-1.1,1.4c-0.4,0.4-1,0.8-1.6,1.2l-0.5-1
	c0.5-0.2,1-0.5,1.4-1c0.3-0.3,0.7-0.7,1-1.2L285.1,25.2L285.1,25.2z M287.8,25.6v-0.8h1.1v0.8h2.9v1.9h0.7v1h-0.7v2h-2.9v0.8h2.9v1
	h-2.9v1h3.3v1h-3.3v1.5h-1.1v-1.5h-3v-1h3v-1h-2.6v-1h2.6v-0.8h-2.2v-0.9h2.2v-1h-2.8v-1h2.8v-0.9h-2.2v-0.9L287.8,25.6L287.8,25.6z
	 M288.9,27.4h1.8v-0.9h-1.8V27.4z M288.9,29.4h1.8v-1h-1.8V29.4z"/>
<path class="st0" d="M298.7,25.7c-0.6,0.1-1.3,0.2-2.1,0.2v0.8h2.3v0.9h-2.3v0.6h2.2V32h-2.2v0.7h2v0.8h-2v0.9
	c0.7-0.1,1.4-0.1,2-0.2v0.4c0.7-1.1,1.2-2.2,1.5-3.4c0.2-0.8,0.3-1.9,0.4-3.3h-1.2v-1h1.2v-2.2h1v2.2h2c0,4.1,0,6.5-0.1,7.2
	c-0.1,0.6-0.2,1-0.4,1.2c-0.2,0.2-0.6,0.3-1.1,0.3c-0.2,0-0.5,0-0.8-0.1l-0.2-1.2c0.3,0.1,0.7,0.1,1,0.1c0.3,0,0.5-0.2,0.5-0.7
	c0.1-0.6,0.1-2.5,0.1-5.9h-1.1c-0.1,1.4-0.2,2.6-0.4,3.6c-0.3,1.3-0.8,2.7-1.7,4.1l-0.7-0.6V35c-1,0.2-2.8,0.4-5.3,0.5l-0.1-1
	c0.9,0,1.7,0,2.5-0.1v-1h-2v-0.8h2V32h-2.1v-3.7h2.1v-0.6h-2.6v-0.9h2.6V26c-0.6,0-1.3,0-2,0l-0.3-0.9c1.9,0,3.5-0.1,4.9-0.3
	L298.7,25.7L298.7,25.7z M295.7,29.8V29h-1.1v0.8H295.7z M295.7,30.5h-1.1v0.7h1.1V30.5z M296.6,29.8h1.2V29h-1.2V29.8z M297.9,30.5
	h-1.2v0.7h1.2V30.5z"/>
<path class="st0" d="M124.5,57.1h1.3v1h-3.6v-1h1.2c-0.1-0.4-0.1-0.8-0.2-1.2l1.1-0.1C124.4,56.2,124.4,56.7,124.5,57.1L124.5,57.1z
	 M125.5,58.9v1h-3v-1H125.5z M125.5,60.7v0.9h-3.1v-0.9H125.5z M125.6,66h-2v0.8h-1v-4.2h3.1V66z M124.5,65v-1.5h-1V65H124.5z
	 M129.1,57.9v1.9h-0.8v0.6h1.7v-0.6h-0.6v-1.9h2.8v1.9H131v0.6h1.5v0.8H131v0.6h1.3v0.7H131V63h1.6v0.8h-2.6c0.2,0.4,0.5,0.8,0.7,1
	c0.1-0.1,0.2-0.2,0.4-0.3c0.1-0.2,0.3-0.4,0.5-0.6l0.7,0.5c-0.2,0.3-0.4,0.6-0.6,0.7c-0.1,0.1-0.2,0.2-0.3,0.3
	c0.3,0.2,0.8,0.4,1.3,0.7l-0.5,0.8c-0.9-0.4-1.5-0.8-1.9-1.2c-0.4-0.4-0.8-1-1.2-1.8c-0.2,0.2-0.5,0.4-0.7,0.6v1.1
	c0.5-0.1,1-0.2,1.4-0.3v0.9c-0.9,0.2-2,0.5-3.1,0.7l-0.3-0.9c0.3-0.1,0.7-0.1,1-0.2V65c-0.4,0.2-0.8,0.3-1.4,0.5l-0.4-0.9
	c0.7-0.2,1.3-0.4,1.7-0.6c0.1-0.1,0.3-0.1,0.4-0.2h-2V63h1.6v-0.6h-1.2v-0.7h1.2v-0.6h-1.3v-0.8h1.3v-0.6h-1.1v-1.9H129.1
	L129.1,57.9z M129.8,56.6h2.8v0.8h-6.6v-0.8h2.8c-0.1-0.2-0.2-0.4-0.3-0.6l1.1-0.1C129.6,56.1,129.7,56.3,129.8,56.6z M128.2,58.5
	h-1.1v0.7h1.1V58.5z M130.1,61.1h-1.7v0.6h1.7V61.1z M130.1,62.4h-1.7V63h1.7V62.4z M131.4,58.5h-1.1v0.7h1.1V58.5z"/>
<path class="st0" d="M139.5,56.7v-0.8h1v0.8h2.7v1.7h0.6v0.9h-0.6v1.8h-2.7v0.8h2.8v0.8h-2.8v0.8h3.3v0.9h-3.3v1c0.2,0,0.3,0,0.5,0
	c1.3,0,2.3,0,3-0.1l-0.2,1.2c-3.5,0-5.7-0.1-6.5-0.2c-0.7-0.2-1.3-0.5-1.7-0.9c-0.1,0-0.1-0.1-0.1-0.1c-0.4,0.5-0.9,1-1.5,1.5
	l-0.6-1.1c0.6-0.4,1.1-0.9,1.4-1.4c-0.3-0.6-0.7-1.4-1.1-2.5l0.9-0.3c0.3,0.7,0.5,1.2,0.7,1.7c0,0,0-0.1,0.1-0.2
	c0.1-0.5,0.2-1.2,0.3-2.2h-1.9v-0.7c0.7-0.9,1.3-1.8,1.9-2.8h-2.1v-0.9h3.2v1c-0.6,1.1-1.2,2-1.7,2.6h1.7c0,1.3-0.2,2.4-0.4,3.2
	c-0.1,0.4-0.2,0.7-0.4,1c0.3,0.3,0.7,0.6,1.2,0.7c0.4,0.1,1.2,0.2,2.2,0.3v-1h-2.7v-0.9h2.7v-0.8h-2.2v-0.8h2.2v-0.8h-2.1v-0.8h2.1
	v-0.9h-2.7v-0.9h2.7v-0.9h-2.1v-0.8L139.5,56.7L139.5,56.7z M140.6,58.4h1.7v-0.9h-1.7V58.4z M140.6,60.2h1.7v-0.9h-1.7V60.2z"/>
<path class="st0" d="M147.7,56c-0.1,0.2-0.2,0.5-0.3,0.7h2.9v0.9c0.5-0.6,0.9-1.2,1.1-1.8l1,0.2c-0.1,0.2-0.2,0.5-0.3,0.7h3.4v1
	h-1.9c0.1,0.3,0.2,0.6,0.3,0.9l-1.1,0.1c-0.1-0.4-0.2-0.7-0.2-1h-1.1c-0.2,0.4-0.5,0.7-0.8,1l-0.9-0.6c0.2-0.1,0.3-0.3,0.4-0.4h-1.5
	c0.1,0.3,0.2,0.5,0.3,0.8l-1.1,0.1c-0.1-0.3-0.2-0.7-0.2-0.9h-0.8c-0.3,0.4-0.6,0.8-0.9,1.1l-0.9-0.6c0.8-0.7,1.4-1.5,1.8-2.3
	L147.7,56L147.7,56z M149.8,62.8v-0.6l-0.4-0.4c0.6-0.2,1-0.4,1.2-0.6c-0.3-0.1-0.6-0.3-0.9-0.4l0.5-0.8c0.3,0.1,0.6,0.2,0.9,0.4
	c0-0.1,0-0.2,0-0.4v-0.4h-1.2v-0.8h4.1v2.3c0,0.2,0.1,0.3,0.3,0.3h0.1c0.1,0,0.2,0,0.2-0.1c0.1-0.1,0.1-0.4,0.1-1l0.8,0.3
	c-0.1,0.8-0.2,1.3-0.3,1.5c-0.1,0.2-0.4,0.2-0.8,0.2H154c-0.3,0-0.5-0.1-0.7-0.2c-0.2-0.2-0.2-0.4-0.2-0.7v-1.8H152v0.4
	c0,0.3,0,0.5-0.1,0.7c0.4,0.2,0.7,0.4,1,0.5l-0.5,0.9c-0.3-0.2-0.7-0.4-1-0.6c-0.2,0.2-0.5,0.4-0.8,0.6h0.2v0.6h4.7v1h-3.6
	c0.4,0.4,0.8,0.6,1.1,0.8c0.6,0.3,1.3,0.6,2.4,0.9l-0.4,1c-1.2-0.5-2.1-0.9-2.7-1.3c-0.5-0.3-0.9-0.7-1.4-1.3v3.1h-1v-3.1h0
	c-0.3,0.5-0.7,0.8-1.2,1.2c-0.7,0.5-1.7,1-3,1.5l-0.6-1c1.4-0.4,2.3-0.8,2.9-1.2c0.3-0.2,0.5-0.3,0.8-0.6h-3.7v-1L149.8,62.8
	L149.8,62.8z M149.5,59v1h-1.5v1c0.5-0.1,1-0.2,1.5-0.3v0.9c-1.2,0.3-2.6,0.6-4.2,0.9l-0.2-1.1c0.6-0.1,1.2-0.1,1.9-0.2V60h-1.5v-1
	L149.5,59L149.5,59z"/>
<path class="st0" d="M162.3,56.6h4.3v0.9h-1.7c-0.5,0.4-1,0.8-1.5,1.1c0.8,0.2,1.6,0.5,2.4,0.7l-0.5,0.7h1.4v0.9h-3.5v1h3.1v1h-3.1
	v0.8h2.8v0.9h-2.8v0.8h3.7v1H158v-1h4v-0.8h-2.6v-0.8c-0.1,0.2-0.3,0.4-0.4,0.5l-0.8-0.8c0.3-0.4,0.6-0.8,0.8-1.2
	c0.2-0.4,0.3-0.9,0.5-1.4l0.9,0.4c-0.1,0.2-0.1,0.4-0.2,0.5h1.7v-1h-3.9v1.5c0,0.7-0.1,1.4-0.2,2.1c-0.1,0.8-0.4,1.5-0.7,2.2
	l-0.9-0.8c0.3-0.6,0.5-1.1,0.6-1.7c0.1-0.6,0.1-1.2,0.1-1.7V60h1l-0.4-0.6c1.2-0.2,2.2-0.5,3-0.7c-0.9-0.2-1.8-0.4-2.7-0.6l0.4-0.6
	h-1.5v-0.9h4.3c-0.2-0.2-0.3-0.5-0.5-0.7l1.1-0.2C161.9,55.9,162.1,56.2,162.3,56.6L162.3,56.6z M162.1,58.2c0,0,0.1,0,0.2-0.1
	c0.5-0.2,1-0.4,1.4-0.7h-4.8C159.9,57.7,161,57.9,162.1,58.2z M162,62.8h-2.1c0,0.1-0.1,0.2-0.1,0.2c-0.1,0.2-0.2,0.4-0.4,0.6h2.5
	L162,62.8L162,62.8z M164.8,60c-0.9-0.3-1.8-0.6-2.7-0.9c-0.7,0.3-1.6,0.6-2.6,0.9H164.8L164.8,60z"/>
<path class="st0" d="M170.8,56.5c-0.2,0.6-0.3,1-0.5,1.4h2.4v-2.1h1.1V58h4.2v1.1h-4.2v2.5h3.6v1h-3.6v2.8h4.4v1.1H168v-1.1h4.8
	v-2.8h-3.6v-1h3.6v-2.5h-2.8c0,0,0,0,0,0.1c-0.2,0.6-0.7,1.3-1.3,2.1l-0.9-0.8c0.6-0.7,1-1.3,1.3-2c0.3-0.7,0.6-1.4,0.8-2.4
	L170.8,56.5L170.8,56.5z"/>
<path class="st0" d="M180.5,58.1V56h0.9v2.2h1v1h-1v0.4c0.4,0.5,0.8,1.1,1.2,1.8l-0.6,0.9c-0.2-0.5-0.4-1-0.6-1.3v5.9h-0.9v-5.5
	c-0.3,0.8-0.6,1.6-0.9,2.2l-0.4-1.2c0.5-0.9,0.9-2,1.3-3.2h-1.1v-1H180.5z M189.7,65.5v1h-7.4v-1H189.7z M189.5,56.3v1h-2.8
	c-0.2,0.4-0.4,0.8-0.7,1.3h0.5c-0.1,3.5-0.1,5.2-0.1,5.2c0,0.5-0.1,0.8-0.3,1.1c-0.2,0.3-0.4,0.4-0.8,0.4c-0.2,0-0.5,0-0.8-0.1
	l-0.4-1c0.2,0.1,0.6,0.1,1,0.1c0.1,0,0.2-0.1,0.2-0.2c0.1-0.1,0.1-0.2,0.1-0.4c0,0,0-1.4,0.1-4.3H185v-0.9c0.3-0.4,0.5-0.8,0.7-1.3
	h-3.1v-1H189.5L189.5,56.3z M184.9,58.6v5.1h-2.3v-5.1H184.9z M184.1,59.4h-0.7v3.4h0.7V59.4z M189.4,58.4c0,1.6-0.2,2.8-0.6,3.7
	c-0.1,0.2-0.2,0.4-0.3,0.6c0.3,0.5,0.7,0.9,1.1,1.2l-0.5,0.8c-0.4-0.4-0.8-0.7-1.1-1.2c-0.3,0.4-0.6,0.8-1,1.2l-0.5-0.9
	c0.4-0.4,0.7-0.8,1-1.2c-0.3-0.7-0.6-1.5-0.8-2.5l0.8-0.5c0.1,0.7,0.3,1.4,0.5,1.9c0,0,0-0.1,0-0.1c0.2-0.6,0.4-1.3,0.4-2.3h-1.7
	v-0.9H189.4z"/>
<path class="st0" d="M199.8,63.5h1.2v1h-3.3c1,0.4,2,0.9,2.8,1.4l-0.7,1.1c-1-0.7-2-1.3-3-1.7l0.5-0.8H194l0.7,0.5
	c-0.5,0.5-1,0.8-1.4,1.1c-0.5,0.3-1.2,0.6-2,0.9l-0.6-1.1c0.6-0.1,1.2-0.4,1.8-0.7c0.4-0.2,0.7-0.4,1.1-0.7h-2.9v-1h1.2v-7.2h7.9
	V63.5z M198.7,58.1v-0.8H193v0.8H198.7z M198.7,59.9V59H193v0.9H198.7z M198.7,61.6v-0.8H193v0.8H198.7z M198.7,63.5v-1H193v1H198.7
	z"/>
<path class="st0" d="M204.7,57.2h1.7v1h-4.5v-1h1.7c-0.2-0.4-0.4-0.8-0.6-1.2l1.1-0.1C204.3,56.2,204.5,56.7,204.7,57.2L204.7,57.2z
	 M203.3,66.8h-1v-4.3h3.6v4.2h-1v-0.7h-1.6L203.3,66.8L203.3,66.8z M205.8,60.7v0.9h-3.5v-0.9H205.8z M205.8,59v0.9h-3.5V59H205.8z
	 M204.9,63.5h-1.6V65h1.6V63.5z M208.8,57.1v-1.3h1v1.3h2.2v1h-2.2v1.3h2.5v1h-1.1v1.2h1.1v1h-1.1v3.1c0,0.4-0.1,0.7-0.3,0.9
	c-0.2,0.2-0.5,0.3-0.9,0.3h-1.4l-0.2-1.2c0.5,0.1,1,0.1,1.3,0.1c0.3,0,0.4-0.1,0.4-0.3v-2.9h-4v-1h4v-1.2h-4.1v-1h2.6v-1.3h-2.2v-1
	L208.8,57.1L208.8,57.1z M209.1,64.6l-1,0.8c-0.3-0.5-0.7-1.1-1.2-1.8l0.8-0.6C208.3,63.6,208.7,64.2,209.1,64.6L209.1,64.6z"/>
<path class="st0" d="M215.6,64.4c-0.4,0.8-0.9,1.5-1.4,2.1l-0.9-0.7c0.5-0.5,1-1.1,1.5-1.8L215.6,64.4L215.6,64.4z M219,56.7h4.2
	v0.9h-2l-0.4,0.8h2.8v0.8h-10.1v-0.8h2.8l-0.4-0.8h-1.9v-0.9h3.8c-0.1-0.2-0.3-0.4-0.4-0.7l1.2-0.2C218.8,56.1,218.9,56.4,219,56.7z
	 M222.5,59.8v3.7h-7.9v-3.7H222.5z M221.5,61.2v-0.7h-5.9v0.7H221.5z M221.5,61.9h-5.9v0.8h5.9V61.9z M217.2,63.8v1.5
	c0,0.2,0.1,0.3,0.4,0.3h2.2c0.2,0,0.3,0,0.4-0.1c0.1-0.1,0.2-0.4,0.2-1.1l1,0.3c-0.1,0.9-0.3,1.4-0.5,1.6c-0.2,0.2-0.5,0.2-1,0.2
	h-2.8c-0.3,0-0.6-0.1-0.7-0.2c-0.2-0.2-0.3-0.4-0.3-0.7v-1.8L217.2,63.8L217.2,63.8z M219.8,58.4l0.4-0.8h-3.1l0.4,0.8H219.8z
	 M219.9,64.8l-0.9,0.7c-0.2-0.4-0.6-0.9-1-1.4l0.8-0.5C219.2,64,219.6,64.5,219.9,64.8L219.9,64.8z M223.8,65.7l-0.9,0.7
	c-0.3-0.6-0.7-1.2-1.2-2l0.8-0.5C223,64.6,223.5,65.2,223.8,65.7z"/>
<path class="st0" d="M228.2,56c-0.1,0.6-0.3,1.2-0.6,1.7h1.6v2.5c0.3-0.6,0.6-1.2,0.8-1.7c0.2-0.7,0.4-1.6,0.6-2.7l1.1,0.2
	c-0.1,0.6-0.2,1.2-0.3,1.7h3.5c0,4.2-0.1,6.7-0.2,7.5c-0.1,0.6-0.3,1-0.6,1.2c-0.3,0.2-0.9,0.4-1.8,0.4c-0.2,0-0.5,0-0.9,0l-0.2-1.2
	c0.3,0.1,0.7,0.1,1,0.1c0.7,0,1.1-0.2,1.2-0.8c0.1-0.6,0.2-2.6,0.2-6.1h-2.7c0,0.1-0.1,0.2-0.1,0.2c-0.2,0.9-0.7,1.8-1.3,2.8
	l-0.5-0.7v4.9h-1v-0.6h-2.1v0.9h-1v-8.5h1.4c0.2-0.6,0.4-1.2,0.6-1.9L228.2,56L228.2,56z M228.3,61.1v-2.3h-2.1v2.3H228.3z
	 M228.3,64.4V62h-2.1v2.4H228.3z M233,63.2l-1.1,0.7c-0.3-0.9-0.8-1.9-1.3-3l0.9-0.6C232.1,61.5,232.6,62.4,233,63.2L233,63.2z"/>
<path class="st0" d="M242.1,55.8v4.3h4.4v1h-3.2v4.1c0,0.2,0.1,0.4,0.4,0.4h1.4c0.2,0,0.3-0.1,0.4-0.2c0.1-0.1,0.1-0.8,0.2-2
	l1.1,0.3c-0.1,1.4-0.3,2.2-0.5,2.5c-0.2,0.2-0.5,0.4-1,0.4h-2c-0.3,0-0.6-0.1-0.8-0.3c-0.2-0.2-0.3-0.5-0.3-0.8v-4.4h-1.6
	c-0.1,1.5-0.4,2.6-0.9,3.4c-0.5,0.9-1.4,1.6-2.7,2.3l-0.8-1c1.2-0.5,2-1.1,2.4-1.8c0.4-0.6,0.7-1.5,0.8-2.9h-3v-1h4.5v-4.4
	L242.1,55.8L242.1,55.8z M239.7,59.1l-1.2,0.5c-0.4-1-0.8-1.9-1.2-2.7l1.1-0.4C238.9,57.4,239.3,58.2,239.7,59.1L239.7,59.1z
	 M245.5,57c-0.3,0.9-0.8,1.8-1.3,2.7l-1.1-0.6c0.5-0.9,1-1.8,1.3-2.7L245.5,57L245.5,57z"/>
<path class="st0" d="M249.6,64.4c-0.3,0.8-0.7,1.5-1.2,2.1l-0.8-0.6c0.5-0.5,0.9-1.1,1.2-1.8L249.6,64.4L249.6,64.4z M253.4,56v3.3
	H251l0.3,0.7h2.5v0.9h-6.1V60h2.6l-0.3-0.7h-1.9V56H253.4z M253.3,61.4v2.2h-2.1v2.1c0,0.4-0.1,0.7-0.3,0.8
	c-0.2,0.2-0.4,0.3-0.9,0.3h-0.7l-0.2-1.1c0.3,0.1,0.5,0.1,0.7,0.1c0.3,0,0.4-0.1,0.4-0.3v-1.9h-2.1v-2.2H253.3L253.3,61.4z
	 M252.5,57.4v-0.5H249v0.5H252.5z M252.5,58.1H249v0.6h3.4V58.1z M252.3,62.2h-3.2v0.7h3.2V62.2z M253.4,65.9l-0.8,0.6
	c-0.2-0.6-0.6-1.2-1-2l0.7-0.5C252.8,64.8,253.2,65.4,253.4,65.9L253.4,65.9z M258.1,63.4c-1.3,1.5-2.6,2.7-3.9,3.4l-0.5-1.2
	c1.4-0.7,2.7-1.6,3.7-3L258.1,63.4L258.1,63.4z M258,59.9c-1.2,1.3-2.4,2.3-3.7,2.9l-0.5-1.1c1.3-0.5,2.5-1.4,3.5-2.6L258,59.9
	L258,59.9z M257.8,56.8c-1.1,1.1-2.2,1.8-3.3,2.3l-0.5-1.1c1.2-0.4,2.2-1.1,3.1-2.1L257.8,56.8z"/>
<path class="st0" d="M260.9,60c0,1.1-0.1,2.1-0.2,3.3c-0.2,1.2-0.4,2.4-0.8,3.5l-0.9-0.8c0.3-0.9,0.6-1.9,0.7-3
	c0.1-1.1,0.2-2.1,0.2-3v-3.8h9.3v2.5h-1.4l-0.5,0.8h2v2.8h-7.8v-2.8h1.9l-0.5-0.8h-1.9V60L260.9,60z M260.9,57v0.8h7.2V57H260.9z
	 M268.7,66.8h-1v-0.4h-4.9v0.4h-1v-3.9h6.9L268.7,66.8L268.7,66.8z M264.8,60.3h-2.4v1.4h2.4V60.3z M267.7,64.3v-0.7h-4.9v0.7H267.7
	z M267.7,65.7V65h-4.9v0.7H267.7z M264.2,61.3l-0.7,0.3c-0.2-0.4-0.3-0.7-0.5-1l0.7-0.2C263.9,60.7,264,61,264.2,61.3z M266.1,59.6
	l0.5-0.8h-2.9l0.5,0.8H266.1z M268.2,60.3h-2.5v1.5h2.5V60.3z M267.6,60.7c-0.2,0.3-0.4,0.7-0.6,1l-0.7-0.4c0.2-0.3,0.5-0.6,0.6-1
	L267.6,60.7z"/>
<path class="st0" d="M273.9,62.2l-0.4,0.1l0.5,0.3c-0.1,0.1-0.1,0.2-0.2,0.3h6.3v0.9h-1.4c-0.5,0.7-1.1,1.2-1.6,1.6
	c0.9,0.2,2.1,0.3,3.8,0.4l-0.3,1.1c-2.1-0.2-3.7-0.5-4.7-0.8c-1.3,0.5-2.9,0.8-4.9,0.8l-0.6-0.9c1.9,0,3.4-0.1,4.4-0.4
	c-0.7-0.4-1.3-0.9-1.9-1.5c-0.1,0.1-0.1,0.1-0.2,0.2c-0.4,0.4-1,0.7-1.7,0.9l-0.5-0.8c0.6-0.2,1.2-0.5,1.6-0.8
	c0.3-0.2,0.7-0.6,1.1-1.2c-0.1-0.5-0.2-0.9-0.2-1.3l0.7-0.2C273.6,61.1,273.8,61.6,273.9,62.2L273.9,62.2z M272.8,56.3
	c-0.3,0.7-0.5,1.2-0.8,1.6c0.2,0,0.5,0,0.7,0c0.2-0.2,0.3-0.5,0.5-0.7l0.7,0.4c-0.5,0.9-1,1.6-1.5,2.2c0.3,0,0.6-0.1,0.8-0.1
	c-0.1-0.2-0.1-0.4-0.2-0.6l0.7-0.2c0.2,0.5,0.3,1,0.4,1.6l-0.7,0.2c0-0.1-0.1-0.2-0.1-0.4c-0.6,0.2-1.5,0.3-2.5,0.4l-0.2-0.8
	c0.2,0,0.4,0,0.6,0c0.3-0.3,0.6-0.7,0.9-1.1c-0.4,0-0.8,0.1-1.3,0.1l-0.2-0.8c0.1,0,0.3,0,0.5,0c0.3-0.5,0.6-1.2,0.9-2L272.8,56.3
	L272.8,56.3z M271.6,60.9c-0.1,0.6-0.2,1.2-0.3,1.7l-0.8-0.3c0.2-0.5,0.3-1.1,0.4-1.6L271.6,60.9z M272.7,62.4l-0.9,0.1
	c0-0.7,0-1.2,0.1-1.6l0.7-0.1C272.7,61.2,272.7,61.7,272.7,62.4L272.7,62.4z M275.9,65c0.7-0.4,1.2-0.8,1.7-1.2h-3.8
	C274.4,64.3,275.1,64.7,275.9,65z M276.1,56.6h1.2v0.7h-3.4v-0.7h1.3c-0.1-0.2-0.2-0.5-0.3-0.7l0.9-0.1
	C275.9,56.1,276,56.3,276.1,56.6z M277,57.8v0.7h-2.9v-0.7H277z M277,58.9v0.7h-2.9v-0.7H277z M277.1,60.1v1.9
	c0.2-0.5,0.4-1,0.4-1.5l0.8,0.2c-0.1,0.7-0.3,1.3-0.5,1.9l-0.8-0.3c0,0,0.1-0.1,0.1-0.1h-2.8v-2.1L277.1,60.1L277.1,60.1z
	 M276.2,60.8H275v0.7h1.2V60.8z M279.3,56.2c-0.3,0.6-0.6,1.1-0.9,1.5c0.3,0,0.6,0,0.9-0.1c0.2-0.2,0.3-0.4,0.5-0.7l0.7,0.4
	c-0.6,0.9-1.2,1.6-1.8,2.2c0.4,0,0.8-0.1,1.1-0.1c-0.1-0.2-0.2-0.4-0.2-0.6l0.7-0.2c0.2,0.5,0.4,1,0.6,1.6l-0.7,0.2
	c0-0.1-0.1-0.2-0.1-0.3c-0.7,0.1-1.6,0.2-2.8,0.3l-0.2-0.8h0.6c0.4-0.4,0.7-0.7,1.1-1.2c-0.4,0-0.9,0.1-1.5,0.1l-0.1-0.8
	c0.1,0,0.2,0,0.4,0c0.3-0.5,0.6-1.1,1-1.9L279.3,56.2z M279.4,62.3l-0.8,0.1v-1.7l0.7,0C279.4,61.1,279.4,61.6,279.4,62.3
	L279.4,62.3z M280.8,62.1l-0.8,0.2c-0.1-0.5-0.3-1.1-0.5-1.6l0.7-0.2C280.5,61,280.7,61.5,280.8,62.1L280.8,62.1z"/>
<path class="st0" d="M113.3,91.5l-0.7,1.1c-0.6-0.6-1.3-1.1-1.9-1.4l0.6-0.9C112.1,90.6,112.7,91,113.3,91.5z M113.8,93.9
	c-0.6,1.6-1.3,2.9-2,4.1l-0.8-1c0.6-0.9,1.3-2.2,2-3.8L113.8,93.9L113.8,93.9z M113.6,88.3l-0.7,1.1c-0.6-0.5-1.2-0.9-1.8-1.2
	l0.6-0.9C112.3,87.6,113,87.9,113.6,88.3z M120.9,88.1c-0.8,0.3-1.8,0.5-2.9,0.6v1.7h3.3v1H118v1.7h2.7V98h-1.1v-0.8h-4.3V98h-1.1
	v-4.8h2.6v-1.7h-3.3v-1h3.3v-1.6c-0.8,0.1-1.6,0.1-2.5,0.1l-0.3-0.9c2.5,0,4.6-0.2,6.3-0.8L120.9,88.1L120.9,88.1z M119.6,96.3v-2.1
	h-4.3v2.1H119.6z"/>
<path class="st0" d="M124.4,93.5c-0.4,1.8-0.8,3.3-1.3,4.5l-0.9-0.8c0.4-1.1,0.8-2.5,1.2-4.2L124.4,93.5L124.4,93.5z M124.3,91.2
	l-0.7,1.1c-0.5-0.6-0.9-1-1.4-1.4l0.6-0.9C123.4,90.4,123.9,90.8,124.3,91.2L124.3,91.2z M124.5,88.4l-0.8,0.8
	c-0.3-0.4-0.8-0.8-1.4-1.3l0.8-0.8C123.6,87.7,124.1,88,124.5,88.4z M128.8,87.5c0.1,0.3,0.2,0.7,0.3,0.9c0.1-0.1,0.3-0.2,0.4-0.3
	c0.2-0.2,0.4-0.4,0.5-0.7l0.8,0.5c-0.2,0.4-0.4,0.7-0.6,0.9c-0.1,0.1-0.3,0.3-0.4,0.4c0.1,0.1,0.1,0.1,0.2,0.2
	c0.1,0.1,0.2,0.2,0.4,0.2c0.2-0.1,0.3-0.3,0.5-0.6c0.2-0.2,0.3-0.6,0.5-0.9l0.8,0.5c-0.2,0.5-0.4,0.8-0.6,1.1
	c-0.1,0.1-0.2,0.3-0.3,0.4c0.4,0.2,0.9,0.4,1.5,0.6l-0.6,0.9c-0.4-0.1-0.7-0.3-1-0.4v1.2c0,0.2,0.1,0.3,0.3,0.3h0.9v0.8h-1.1
	c-0.3,0-0.6-0.1-0.8-0.2c-0.2-0.1-0.2-0.4-0.2-0.8v-0.7h-0.9c0,0.5-0.1,0.8-0.2,1c-0.1,0.3-0.4,0.6-0.8,1l-0.7-0.6
	c0.4-0.3,0.6-0.6,0.7-0.8c0.1-0.2,0.1-0.7,0.1-1.4h2.3c-0.6-0.3-1.1-0.6-1.4-0.9c-0.5-0.4-0.9-0.8-1.1-1.3c-0.3,0.4-0.6,0.8-0.9,1
	c-0.4,0.4-1.1,0.7-2.1,1.1h2.2v2.7h-1.6l-0.1,1h1.8c-0.1,1.7-0.2,2.7-0.3,3c-0.2,0.3-0.6,0.4-1.1,0.4c-0.6,0-1.1,0-1.3-0.1l-0.3-1.1
	c0.5,0.1,1.1,0.1,1.6,0.1c0.2,0,0.3-0.1,0.4-0.3c0.1-0.1,0.1-0.5,0.1-1.3h-1.9l0.3-2.7h1.6v-1h-1.7v-0.7c-0.1,0.1-0.2,0.1-0.4,0.1
	l-0.5-0.9c0.5-0.1,0.9-0.2,1.3-0.4c-0.2-0.1-0.4-0.3-0.7-0.5l0.7-0.5c0.4,0.2,0.7,0.4,1,0.5c0.1,0,0.1-0.1,0.2-0.1
	c0.3-0.2,0.6-0.4,0.9-0.7h-2.1v-1L128.8,87.5L128.8,87.5z M131.6,93.7v0.8c-0.3,0.8-0.7,1.4-1.1,1.9c0.5,0.3,1.2,0.6,2.1,0.9
	l-0.7,0.8c-0.8-0.3-1.5-0.7-2-1c0,0-0.1-0.1-0.1-0.1c-0.5,0.4-1,0.7-1.6,1l-0.6-0.8c0.5-0.3,1-0.5,1.4-0.8c-0.4-0.3-0.7-0.7-1-1.1
	l0.7-0.5c0.3,0.4,0.6,0.7,1,1c0,0,0,0,0,0c0.3-0.3,0.6-0.7,0.8-1.1H128v-0.9L131.6,93.7L131.6,93.7z"/>
<path class="st0" d="M139.6,88.8h4v1c-0.9,1.5-1.7,2.6-2.6,3.4c-0.7,0.7-2,1.6-3.7,2.6c0.2,0.2,0.6,0.4,0.9,0.5
	c0.5,0.2,1.6,0.2,3.2,0.3c1.2,0,2.1,0,2.6-0.1l-0.2,1.3c-3.1,0-5-0.1-5.6-0.2c-0.6-0.1-1.1-0.4-1.5-0.7c-0.3-0.2-0.6-0.7-1-1.5
	c-0.3,0.8-0.7,1.6-1.3,2.4l-0.7-1.2c0.4-0.6,0.7-1.2,0.9-1.8c0.2-0.5,0.4-1.1,0.6-2h1.1c-0.1,0.4-0.2,0.8-0.2,1.1
	c0.1,0.3,0.3,0.6,0.4,0.8c1.1-0.5,2.1-1.2,3.1-1.9c0.6-0.5,1.5-1.5,2.6-3h-7.8v-1.1h3.8c-0.4-0.6-0.8-1.1-1.3-1.6l1.4-0.2
	C138.8,87.6,139.3,88.2,139.6,88.8L139.6,88.8z"/>
<path class="st0" d="M149.6,89.3V87h1.1v2.3h4V95h-4v3h-1.1v-3h-4v-5.7H149.6z M149.6,90.4h-2.8v3.5h2.8V90.4z M153.6,90.4h-2.9v3.5
	h2.9V90.4z"/>
<path class="st0" d="M162,93.8c-0.2,0.2-0.5,0.5-0.9,0.8l-0.4-0.6c0.5-0.3,0.8-0.6,0.9-1.1h-0.7v-1.5h1.4v1.2
	C162.3,93.1,162.2,93.5,162,93.8z"/>
<path class="st0" d="M169.8,87.9V87h0.9v0.9h1.9v1h-1.9v0.7h1.7v5h-1.7v0.8h2v0.9h-2V98h-0.9v-1.6h-1.9v-0.9h1.9v-0.8h-1.6v-5h1.6
	v-0.7H168v-1H169.8z M169.8,91.7v-1.2h-0.8v1.2H169.8z M169.8,92.5h-0.8v1.3h0.8V92.5z M170.7,91.7h0.8v-1.2h-0.8V91.7z M171.5,92.5
	h-0.8v1.3h0.8V92.5z M174.9,88.3V87h1v1.3h0.9c-0.2-0.3-0.4-0.5-0.6-0.8l0.7-0.4c0.3,0.3,0.6,0.6,0.8,0.8l-0.6,0.4h1.1v1h-2.3v0.9
	h2.1v6.6c0,0.4-0.1,0.6-0.3,0.8c-0.2,0.2-0.4,0.2-0.6,0.2h-0.8l-0.2-1l0.6,0.1c0.2,0,0.3-0.2,0.3-0.4v-1.1h-1.2v2.5h-1v-2.5h-1.1V98
	h-0.9v-7.9h2v-0.9h-2.1v-1H174.9z M174.9,92.3v-1.2h-1.1v1.2H174.9z M174.9,94.5v-1.3h-1.1v1.3H174.9z M175.9,92.3h1.2v-1.2h-1.2
	V92.3z M175.9,94.5h1.2v-1.3h-1.2V94.5z"/>
<path class="st0" d="M181.9,87.2v7.5c0.8-0.3,1.6-0.7,2.4-1.1l0.3,1.1c-1.3,0.8-2.9,1.5-4.9,2.1l-0.5-1.2c0.5-0.1,1-0.3,1.6-0.5v-8
	H181.9z M188,87.2c0,2.5-0.3,4.5-0.8,6c0.9,1.2,1.7,2.3,2.3,3.4l-0.9,1c-0.5-1-1.1-2-1.9-3.1c-0.6,1.2-1.8,2.4-3.4,3.5l-0.8-1
	c1.6-1,2.6-2,3.2-3.1c0.7-1.4,1.1-3.6,1.1-6.7L188,87.2L188,87.2z M185.5,91.6l-1.1,0.8c-0.4-1-0.9-2.2-1.6-3.5l0.9-0.6
	C184.5,89.6,185.1,90.6,185.5,91.6L185.5,91.6z"/>
<path class="st0" d="M193.3,91.3l-0.7,1.1c-0.6-0.6-1.3-1.1-2-1.4l0.6-0.9C191.9,90.4,192.6,90.8,193.3,91.3z M193.2,93.3
	c-0.5,1.9-1.1,3.4-1.8,4.6l-0.8-0.8c0.6-1.1,1.1-2.5,1.7-4.3L193.2,93.3L193.2,93.3z M193.6,88.4l-0.7,1.1c-0.6-0.6-1.2-1.1-1.8-1.4
	l0.6-0.9C192.3,87.6,193,88,193.6,88.4L193.6,88.4z M196.5,92.8v-1.1h1v1.1h3.4v1h-2.5c0.2,0.4,0.5,0.9,0.9,1.2
	c0.4,0.4,0.9,0.9,1.7,1.4l-0.7,1c-0.8-0.6-1.4-1.3-1.8-1.9c-0.4-0.5-0.7-1-0.9-1.7h0v4.3h-1v-4c-0.2,0.5-0.4,1-0.7,1.3
	c-0.5,0.7-1.1,1.3-2,2l-0.6-1c0.9-0.6,1.5-1.2,1.8-1.7c0.2-0.3,0.4-0.7,0.6-1.1h-2.2v-1H196.5L196.5,92.8z M200.8,89.8h-1.1v-1.5h-5
	v1.5h-1.1v-2.5h7.2V89.8z M196.7,88.9c0,0.9-0.2,1.6-0.6,2.1c-0.3,0.5-0.9,0.9-1.6,1.3l-0.6-1c0.6-0.2,1.1-0.5,1.3-0.9
	c0.3-0.3,0.5-0.9,0.5-1.6L196.7,88.9L196.7,88.9z M198.8,88.9v1.6c0,0.2,0.1,0.3,0.4,0.3h1.5v0.9h-1.8c-0.4,0-0.6-0.1-0.8-0.2
	c-0.2-0.1-0.3-0.4-0.3-0.7v-2L198.8,88.9L198.8,88.9z"/>
<path class="st0" d="M206.5,87.2c-0.1,0.2-0.2,0.5-0.4,0.7h4.3v0.8c-0.6,0.7-1.2,1.2-1.9,1.7h3.1v3.8h-7.4v1.6
	c0,0.3,0.1,0.6,0.2,0.7c0.2,0.1,0.4,0.2,0.8,0.2h5c0.4,0,0.6-0.1,0.8-0.2c0.2-0.1,0.3-0.7,0.3-1.6l1,0.3c0,0.5-0.1,0.9-0.1,1.4
	c-0.1,0.4-0.3,0.7-0.5,0.8c-0.3,0.2-0.7,0.3-1.3,0.3h-5.6c-0.6,0-1-0.1-1.2-0.4c-0.3-0.3-0.4-0.8-0.4-1.5v-5.1
	c-0.2,0.1-0.4,0.2-0.6,0.3l-0.7-0.9c0.9-0.4,1.6-0.9,2.2-1.4c0.5-0.4,0.9-0.9,1.3-1.6L206.5,87.2z M206.9,90.4
	c0.6-0.4,1.3-0.9,2-1.5h-3.4c-0.2,0.2-0.3,0.3-0.4,0.5c-0.4,0.4-0.8,0.7-1.3,1H206.9L206.9,90.4z M204.3,93.2h2.5v-1.8h-2.5V93.2z
	 M207.9,93.2h2.7v-1.8h-2.7V93.2z"/>
<path class="st0" d="M216.4,87.3c-0.1,0.4-0.2,0.8-0.3,1.1h2.7v1c-0.1,1.4-0.4,2.6-0.7,3.7c-0.3,0.9-0.7,1.7-1.2,2.4
	c-0.5,0.8-1.4,1.6-2.6,2.4l-0.8-1c1.3-0.9,2.3-1.8,2.9-2.8c-0.4-0.7-1-1.3-1.6-2.1l0.8-0.7c0.5,0.6,1,1.1,1.4,1.7
	c0.3-0.9,0.6-2.1,0.7-3.6h-1.9c-0.1,0.3-0.2,0.6-0.4,0.9c-0.4,0.9-0.9,1.7-1.5,2.4l-0.7-0.9c0.5-0.7,0.9-1.4,1.3-2.2
	c0.3-0.6,0.5-1.4,0.8-2.6L216.4,87.3L216.4,87.3z M220.7,87v3.9c1,0.6,2.1,1.2,3.2,1.9l-0.7,1c-1-0.8-1.9-1.4-2.5-1.8V98h-1.1V87
	H220.7z"/>
<path class="st0" d="M227.9,87.1c0.7,0.7,1.3,1.4,1.8,2.1l-0.7,0.7c-0.6-0.8-1.1-1.4-1.5-1.8c-0.7,0.8-1.6,1.7-2.6,2.5l-0.3-1
	c0.9-0.7,1.7-1.5,2.4-2.5H227.9L227.9,87.1z M228.1,90.2h1.3v4.3h-2.9v1.9c0.6-0.1,1.2-0.3,1.8-0.4c-0.2-0.4-0.4-0.7-0.6-1l0.9-0.3
	c0.5,0.8,0.9,1.6,1.2,2.4l-0.9,0.4c-0.1-0.2-0.2-0.5-0.3-0.7c-1,0.3-2.2,0.7-3.5,1l-0.2-1.1c0.2,0,0.4-0.1,0.6-0.1v-6.5h1.7
	c-0.1-0.4-0.2-0.7-0.4-1l1-0.1C227.8,89.4,227.9,89.7,228.1,90.2L228.1,90.2z M228.3,91.9V91h-1.9v0.9H228.3z M228.3,93.7v-1h-1.9v1
	H228.3z M231.9,87.4c-0.1,0.4-0.2,0.7-0.3,1h3.7v1h-2.2v1.4h1.9V96c0,0.4-0.1,0.7-0.3,0.9c-0.2,0.2-0.4,0.3-0.7,0.3h-0.6l-0.2-1.1
	l0.4,0.1c0.2,0,0.3-0.2,0.3-0.5v-3.8h-0.9V98h-1v-6.2h-0.9v5.3h-1v-6.4h1.9v-1.4h-1c-0.2,0.4-0.5,0.8-0.9,1.3l-0.8-0.8
	c0.4-0.4,0.7-0.9,1-1.3c0.2-0.4,0.4-0.9,0.6-1.5L231.9,87.4L231.9,87.4z"/>
<path class="st0" d="M242.2,94.2c-0.2-0.4-0.6-0.8-1-1.4c-0.3-0.3-0.7-0.7-1.3-1.2l0.7-0.6c0.4,0.3,0.8,0.7,1.3,1.2
	c0.3,0.3,0.7,0.8,1.1,1.4L242.2,94.2L242.2,94.2z"/>
<path class="st0" d="M249.3,89.3V87h1v2.3h1.2v0.5c0.4-0.4,0.7-0.8,1-1.2c0.2-0.4,0.5-0.9,0.7-1.6l1.1,0.1c-0.1,0.3-0.2,0.6-0.3,0.9
	h3.4v0.8c-0.6,1-1.2,1.8-1.8,2.4c0.7,0.4,1.6,0.8,2.7,1l-0.6,0.9c-1.2-0.4-2.2-0.8-2.8-1.3c-0.7,0.5-1.7,1-2.9,1.4l-0.4-0.8
	l-0.3,0.5c-0.3-0.5-0.6-0.9-0.8-1.3V98h-1v-5.6c-0.4,1-0.8,1.8-1.3,2.6l-0.4-1.2c0.7-1,1.2-2.2,1.7-3.5v0h-1.6v-1L249.3,89.3
	L249.3,89.3z M253.8,91.3c-0.4-0.4-0.8-0.8-1.1-1.2c-0.2,0.3-0.5,0.6-0.8,0.8l-0.4-0.6v0.1h-1.2v0.3c0.5,0.5,0.9,1,1.4,1.6l-0.1,0.2
	C252.4,92,253.2,91.7,253.8,91.3L253.8,91.3z M257.2,98h-1.1v-0.7h-2.9V98h-1.1v-4.6h5.1V98z M256.2,96.4v-2h-2.9v2H256.2z
	 M254.6,90.7c0.4-0.4,0.9-1,1.4-1.7h-2.6c-0.1,0.1-0.1,0.1-0.1,0.2C253.7,89.8,254.1,90.3,254.6,90.7z"/>
<path class="st0" d="M260.2,89.3v-2.2h1v2.2h0.9v1h-0.9v0.3c0.3,0.5,0.7,0.9,1,1.4h0.2v-4.7h6.5V92h0.6v1h-0.6v3.7
	c0,0.4-0.1,0.7-0.3,0.9c-0.2,0.2-0.4,0.3-0.6,0.3h-1l-0.1-0.5h-0.7v-4.4h-0.9v4.5h-0.9v-4.5h-0.9v5h-1v-5h-0.3v-0.4l-0.3,0.5
	c-0.3-0.5-0.5-1-0.7-1.3V98h-1v-5.6c-0.2,0.9-0.5,1.6-0.8,2.3l-0.4-1.2c0.5-0.9,0.8-2,1.1-3.2h-0.9v-1H260.2L260.2,89.3z M264.3,92
	v-3.7h-0.9V92H264.3z M266.1,92v-3.7h-0.9V92H266.1z M267,92h0.9v-3.7H267V92z M267,93.1v3.7l0.6,0.1c0.2,0,0.3-0.2,0.3-0.5v-3.3
	L267,93.1L267,93.1z"/>
<path class="st0" d="M273,87.1c0.6,0.6,1.2,1.3,1.6,2v-0.8h2.4V87h1v1.2h1.2c-0.2-0.2-0.4-0.5-0.6-0.8l0.7-0.4
	c0.4,0.3,0.6,0.6,0.8,0.8l-0.5,0.4h1.1v1h-2.8v0.9h2.5v6.6c0,0.4-0.1,0.7-0.3,0.9c-0.1,0.2-0.4,0.3-0.6,0.3h-1l-0.2-1l0.8,0.1
	c0.2,0,0.3-0.2,0.3-0.4v-1.2H278v2.6h-1v-2.6h-1.4V98h-0.9v-7.9h2.3v-0.9h-2.4v-0.1l-0.7,0.7c-0.5-0.8-1-1.4-1.3-1.8
	c-0.4,0.7-0.8,1.3-1.3,1.9h2.7v1H273v1h1.3v1H273v3.4c0.4-0.1,0.9-0.3,1.4-0.4v1c-1.1,0.4-2.4,0.7-3.8,1l-0.1-1.1
	c0.5,0,1.1-0.1,1.6-0.2v-3.7h-1.6v-1h1.6v-1h-1v-0.6c-0.1,0.1-0.2,0.3-0.3,0.4l-0.3-1.1c0.6-0.7,1.2-1.6,1.8-2.6L273,87.1L273,87.1z
	 M271.7,95.9l-0.9,0.1c0-1-0.1-1.8-0.3-2.3l0.8-0.1C271.5,94.1,271.6,94.9,271.7,95.9L271.7,95.9z M274.4,93.7
	c-0.1,0.8-0.2,1.4-0.3,1.9l-0.8-0.2c0.2-0.5,0.3-1.2,0.4-1.8L274.4,93.7z M277.1,92.3v-1.2h-1.4v1.2H277.1z M277.1,94.5v-1.4h-1.4
	v1.4H277.1z M278.1,92.3h1.5v-1.2h-1.5V92.3z M278.1,94.5h1.5v-1.4h-1.5V94.5z"/>
<path class="st0" d="M285.6,87.5v0.8c-0.3,0.9-0.6,1.9-0.9,2.9c0.3,0.5,0.5,1,0.6,1.5c0.1,0.5,0.2,0.8,0.2,1.2
	c0,0.6-0.1,1.1-0.4,1.3c-0.2,0.3-0.8,0.5-1.6,0.5l-0.3-1.1c0.2,0,0.4,0,0.5,0c0.2,0,0.4,0,0.5-0.2c0.1-0.1,0.2-0.3,0.2-0.6
	c0-0.4-0.1-0.7-0.2-1c-0.1-0.4-0.4-0.9-0.7-1.5c0.4-1.1,0.7-2.1,0.9-2.9h-1.3V98h-1.1V87.5H285.6L285.6,87.5z M288.3,88V87h1V88h2.8
	v0.9h-2.8v0.7h2.5v4.6h-1.7c0.2,0.4,0.5,0.8,0.8,1.2c0.3,0.4,0.8,0.8,1.5,1.3l-0.7,0.9c-0.7-0.6-1.3-1.2-1.7-1.8
	c-0.3-0.4-0.6-0.8-0.8-1.4v3.6h-1v-3.8h0c-0.3,0.6-0.6,1.2-0.9,1.6c-0.5,0.6-1.2,1.2-2.2,1.8l-0.5-0.9c0.9-0.5,1.6-1.1,2-1.5
	c0.2-0.3,0.5-0.6,0.6-1h-1.5v-4.6h2.5v-0.7h-2.6V88H288.3L288.3,88z M288.3,91.5v-0.9h-1.6v0.9H288.3z M288.3,92.3h-1.6v1h1.6V92.3z
	 M289.3,91.5h1.6v-0.9h-1.6V91.5z M290.9,92.3h-1.6v1h1.6V92.3z"/>
<path class="st0" d="M147.3,119.5h1.3v1H145v-1h1.2c-0.1-0.4-0.1-0.8-0.2-1.2l1.1-0.1C147.2,118.6,147.2,119.1,147.3,119.5
	L147.3,119.5z M148.3,121.3v0.9h-3v-0.9H148.3z M148.3,123.1v0.9h-3.1v-0.9H148.3z M148.4,128.4h-2v0.8h-1V125h3.1V128.4z
	 M147.3,127.4V126h-1v1.4H147.3z M151.9,120.3v1.9h-0.8v0.6h1.7v-0.6h-0.6v-1.9h2.8v1.9h-1.2v0.6h1.5v0.8h-1.5v0.6h1.3v0.7h-1.3v0.6
	h1.6v0.8h-2.6c0.2,0.4,0.5,0.8,0.7,1c0.1-0.1,0.2-0.2,0.3-0.3c0.2-0.2,0.3-0.4,0.5-0.6l0.7,0.5c-0.2,0.3-0.4,0.6-0.6,0.7
	c-0.1,0.1-0.2,0.2-0.3,0.3c0.3,0.2,0.8,0.4,1.3,0.7l-0.5,0.8c-0.9-0.4-1.5-0.8-1.9-1.2c-0.4-0.4-0.8-1-1.2-1.8
	c-0.2,0.2-0.5,0.4-0.7,0.6v1.1c0.5-0.1,1-0.2,1.4-0.3v0.9c-0.9,0.2-1.9,0.5-3.1,0.7l-0.3-0.9c0.3-0.1,0.7-0.1,1-0.2v-0.8
	c-0.4,0.2-0.8,0.3-1.4,0.5l-0.4-0.9c0.7-0.2,1.3-0.4,1.7-0.6c0.1-0.1,0.2-0.1,0.4-0.2h-2v-0.8h1.6v-0.6h-1.2V124h1.2v-0.6h-1.3v-0.8
	h1.3v-0.6h-1.1v-1.9H151.9L151.9,120.3z M152.6,119h2.8v0.8h-6.6V119h2.8c-0.1-0.2-0.2-0.4-0.3-0.6l1.1-0.1
	C152.4,118.5,152.5,118.7,152.6,119z M151,120.9H150v0.7h1.1V120.9z M152.9,123.5h-1.7v0.6h1.7V123.5z M152.9,124.8h-1.7v0.6h1.7
	V124.8z M154.2,120.9h-1.1v0.7h1.1V120.9z"/>
<path class="st0" d="M162.2,118.2v4.3h4.4v1h-3.2v4.1c0,0.2,0.1,0.4,0.4,0.4h1.4c0.2,0,0.3-0.1,0.3-0.2c0.1-0.1,0.2-0.8,0.2-1.9
	l1.1,0.3c-0.1,1.4-0.3,2.2-0.5,2.5c-0.2,0.2-0.5,0.4-1,0.4h-2c-0.3,0-0.6-0.1-0.8-0.3c-0.2-0.2-0.3-0.5-0.3-0.8v-4.4h-1.6
	c-0.1,1.5-0.4,2.7-0.9,3.4c-0.5,0.9-1.4,1.6-2.7,2.3l-0.8-1c1.2-0.5,2-1.1,2.4-1.8c0.4-0.6,0.7-1.5,0.8-2.9h-3v-1h4.5v-4.3
	L162.2,118.2L162.2,118.2z M159.9,121.5l-1.2,0.5c-0.4-1-0.8-1.9-1.2-2.7l1.1-0.4C159.1,119.8,159.5,120.6,159.9,121.5L159.9,121.5z
	 M165.7,119.4c-0.3,0.9-0.8,1.8-1.3,2.7l-1.1-0.6c0.5-0.9,1-1.8,1.3-2.7L165.7,119.4L165.7,119.4z"/>
<path class="st0" d="M169.8,126.8c-0.3,0.8-0.7,1.5-1.2,2.1l-0.8-0.6c0.5-0.5,0.9-1.1,1.2-1.8L169.8,126.8L169.8,126.8z
	 M173.6,118.4v3.3h-2.4l0.3,0.7h2.5v0.9h-6.1v-0.9h2.6l-0.3-0.7h-1.9v-3.3H173.6z M173.5,123.8v2.2h-2.1v2.1c0,0.4-0.1,0.7-0.3,0.8
	c-0.2,0.2-0.4,0.3-0.9,0.3h-0.7l-0.2-1.1c0.3,0.1,0.5,0.1,0.7,0.1c0.3,0,0.4-0.1,0.4-0.3v-1.9h-2.1v-2.2H173.5L173.5,123.8z
	 M172.7,119.8v-0.6h-3.4v0.6H172.7z M172.7,120.5h-3.4v0.6h3.4V120.5z M172.5,124.6h-3.2v0.7h3.2V124.6z M173.6,128.3l-0.8,0.6
	c-0.2-0.6-0.6-1.2-1-2l0.7-0.5C173,127.2,173.4,127.8,173.6,128.3L173.6,128.3z M178.3,125.8c-1.3,1.5-2.6,2.6-3.9,3.4l-0.5-1.2
	c1.4-0.6,2.7-1.7,3.7-3L178.3,125.8L178.3,125.8z M178.2,122.2c-1.2,1.3-2.4,2.3-3.7,2.9l-0.5-1.1c1.3-0.5,2.5-1.4,3.5-2.6
	L178.2,122.2L178.2,122.2z M178,119.2c-1.1,1.1-2.2,1.8-3.3,2.3l-0.5-1.1c1.2-0.4,2.2-1.1,3.1-2.1L178,119.2z"/>
<path class="st0" d="M189.5,118.7v1.1h-4.6v0.9h3.7v4.8h-3.9c-0.1,0.7-0.4,1.2-0.6,1.7c0.3,0.1,0.7,0.3,1,0.4
	c0.9,0.3,2.5,0.5,4.6,0.6l-0.3,1.1c-2-0.1-3.5-0.4-4.6-0.7c-0.5-0.1-0.9-0.3-1.4-0.5c-0.8,0.7-2,1.1-3.7,1.3l-0.5-1.1
	c1.4-0.1,2.5-0.3,3.2-0.8c-0.6-0.3-1.2-0.7-1.7-1.1l0.8-0.6c0.6,0.4,1.1,0.7,1.7,1c0.2-0.3,0.4-0.8,0.6-1.2h-3.4v-4.8h3.7v-0.9h-4.5
	v-1.1H189.5L189.5,118.7z M183.9,122.6v-0.9h-2.6v0.9H183.9z M183.9,123.6h-2.6v1h2.6C183.9,124.2,183.9,123.9,183.9,123.6z
	 M187.5,123.6h-2.6c0,0.4,0,0.7-0.1,1h2.6L187.5,123.6L187.5,123.6z M184.9,122.6h2.6v-0.9h-2.6V122.6z"/>
<path class="st0" d="M192.8,124.7c-0.4,1.8-0.9,3.3-1.4,4.5l-0.8-0.8c0.5-1.1,0.9-2.5,1.3-4.2L192.8,124.7L192.8,124.7z
	 M192.9,122.3l-0.7,1.1c-0.5-0.5-1-1-1.5-1.3l0.6-0.9C191.9,121.5,192.4,121.9,192.9,122.3z M193.1,119.7l-0.8,0.9
	c-0.3-0.4-0.9-0.8-1.5-1.3l0.8-0.8C192.2,118.9,192.7,119.3,193.1,119.7z M200.7,123.6h-6.5v0.9c0,0.3,0,0.6,0,0.8h6.8v0.9h-3.1
	c0.2,0.3,0.3,0.5,0.5,0.7c0.2-0.1,0.5-0.1,0.7-0.2c0.2-0.1,0.5-0.2,0.8-0.4l0.8,0.5c-0.3,0.2-0.6,0.4-0.9,0.6
	c-0.2,0.1-0.3,0.2-0.6,0.2c0.5,0.3,1,0.5,1.8,0.7l-0.4,0.9c-1-0.3-1.8-0.7-2.4-1.3c-0.5-0.4-0.9-1.1-1.3-1.8h-0.9v1.8
	c0.5-0.1,1-0.2,1.5-0.3v0.9c-1,0.2-2.1,0.5-3.3,0.6l-0.1-1c0.3,0,0.7-0.1,1-0.1v-1.9h-0.9c0,0.2-0.1,0.4-0.1,0.6
	c-0.2,0.8-0.5,1.6-0.9,2.5l-0.8-0.8c0.4-0.6,0.7-1.3,0.8-2c0.1-0.7,0.2-1.4,0.2-2v-1.7h7.4V123.6z M195.4,118.9v-0.7h0.9v0.7h1.1
	v-0.7h0.9v0.7h2.1v3.5h-7.1v-3.5H195.4L195.4,118.9z M195.4,120.2v-0.6h-1.1v0.6H195.4z M195.4,120.9h-1.1v0.7h1.1V120.9z
	 M200.3,124.1v0.7h-5.6v-0.7H200.3z M196.3,120.2h1.1v-0.6h-1.1V120.2z M197.4,120.9h-1.1v0.7h1.1V120.9z M198.3,120.2h1.2v-0.6
	h-1.2V120.2z M199.5,120.9h-1.2v0.7h1.2V120.9z"/>
<path class="st0" d="M208,125.4c-0.2-0.4-0.6-0.8-1-1.4c-0.3-0.3-0.7-0.7-1.3-1.2l0.7-0.6c0.4,0.3,0.8,0.7,1.3,1.2
	c0.3,0.3,0.7,0.8,1.1,1.4L208,125.4L208,125.4z"/>
<path class="st0" d="M223.7,127.7v1.1h-10.1v-1.1H223.7z M223.5,120.6v1.1h-9.6v-1.1H223.5z M217.7,127l-1.2,0.3
	c-0.3-1.7-0.6-3.3-1.1-4.9l1.1-0.4C216.9,123.5,217.3,125.1,217.7,127z M219.5,119.7l-0.8,0.8c-0.4-0.5-1.1-1-1.9-1.6l0.7-0.7
	C218.4,118.7,219,119.2,219.5,119.7L219.5,119.7z M221.9,122.4c-0.3,1.8-0.8,3.5-1.3,5l-1.1-0.4c0.5-1.2,0.9-2.8,1.3-4.8
	L221.9,122.4L221.9,122.4z"/>
<path class="st0" d="M235.1,118.8v1h-4.5c-0.1,0.4-0.3,0.8-0.5,1.1h4.5v8.3h-1.1v-0.7h-7.1v0.7h-1.1V121h3.6
	c0.2-0.4,0.4-0.7,0.5-1.1h-4.5v-1H235.1L235.1,118.8z M227.8,127.6V122h-1.3v5.6H227.8z M231.2,123.2V122h-2.4v1.2H231.2z
	 M231.2,125.3v-1.3h-2.4v1.3H231.2z M231.2,127.6v-1.3h-2.4v1.3H231.2z M233.5,127.6V122h-1.3v5.6H233.5z"/>
<path class="st0" d="M246.5,118.7v1.1h-4.6v0.9h3.7v4.8h-3.9c-0.2,0.7-0.4,1.2-0.7,1.7c0.3,0.1,0.7,0.3,1,0.4
	c0.9,0.3,2.5,0.5,4.6,0.6l-0.3,1.1c-2-0.1-3.5-0.4-4.6-0.7c-0.5-0.1-0.9-0.3-1.4-0.5c-0.8,0.7-2,1.1-3.7,1.3l-0.5-1.1
	c1.4-0.1,2.5-0.3,3.2-0.8c-0.6-0.3-1.2-0.7-1.7-1.1l0.8-0.6c0.6,0.4,1.1,0.7,1.7,1c0.2-0.3,0.4-0.8,0.6-1.2h-3.4v-4.8h3.7v-0.9h-4.5
	v-1.1H246.5L246.5,118.7z M240.9,122.6v-0.9h-2.6v0.9H240.9z M240.9,123.6h-2.6v1h2.6C240.9,124.2,240.9,123.9,240.9,123.6z
	 M244.5,123.6h-2.6c0,0.4,0,0.7-0.1,1h2.6L244.5,123.6L244.5,123.6z M241.9,122.6h2.6v-0.9h-2.6V122.6z"/>
<path class="st0" d="M249.5,122.2c-0.2,0.5-0.4,1-0.6,1.4c0.2,0,0.4-0.1,0.5-0.1c0.1-0.3,0.3-0.6,0.4-0.9l0.7,0.3
	c-0.5,1.1-1,2-1.6,2.7c0.3,0,0.6,0,0.9-0.1c-0.1-0.2-0.1-0.3-0.1-0.5l0.6-0.2c0.1,0.3,0.2,0.5,0.3,0.8h0c0.3-0.3,0.5-0.7,0.8-1.2
	c-0.3,0.1-0.6,0.1-1,0.2l-0.2-0.8c0.1,0,0.2,0,0.3,0c0.3-0.5,0.6-1.1,0.8-1.8l0.7,0.2c-0.2,0.5-0.5,1-0.7,1.4c0.2,0,0.4-0.1,0.6-0.1
	c0.2-0.3,0.3-0.6,0.5-0.9l0.7,0.3c-0.6,1.1-1.1,1.9-1.7,2.6c0.4,0,0.7-0.1,1-0.1c0-0.2-0.1-0.4-0.1-0.6l0.6-0.2
	c0.2,0.6,0.4,1.2,0.5,1.6l-0.8,0.3c0-0.2-0.1-0.4-0.1-0.5c-0.4,0.1-1,0.2-1.7,0.3c0,0.1,0,0.1,0,0.2l-0.8,0.3
	c-0.1-0.2-0.1-0.4-0.1-0.6c-0.5,0.1-1.2,0.2-2.1,0.2l-0.2-0.8c0.2,0,0.4,0,0.5,0c0.2-0.3,0.5-0.7,0.8-1.2c-0.3,0.1-0.6,0.1-1,0.2
	l-0.2-0.8c0.1,0,0.2,0,0.2,0c0.2-0.5,0.5-1.1,0.7-1.8L249.5,122.2L249.5,122.2z M248.9,126.8c-0.1,0.8-0.2,1.5-0.4,2.2l-0.8-0.3
	c0.2-0.7,0.4-1.4,0.5-2.2L248.9,126.8L248.9,126.8z M252.8,118.6v3.3H248v-3.3H252.8z M251.9,119.9v-0.5h-2.9v0.5H251.9z
	 M251.9,120.5h-2.9v0.5h2.9V120.5z M250.2,128.9l-0.8,0.1c0-0.9,0-1.6,0-2.1l0.7-0.1C250.2,127.4,250.2,128,250.2,128.9L250.2,128.9
	z M251.7,128.7l-0.8,0c-0.1-0.7-0.1-1.4-0.2-1.9l0.7-0.1C251.5,127.4,251.6,128,251.7,128.7L251.7,128.7z M253,127.9l-0.8,0.3
	c-0.1-0.5-0.2-1.1-0.3-1.6l0.7-0.2C252.7,127,252.9,127.5,253,127.9L253,127.9z M255.3,127.6c-0.5,0.6-1.2,1.2-1.9,1.7l-0.6-0.8
	c0.7-0.4,1.3-0.9,1.9-1.4L255.3,127.6z M258,118.6v0.9h-1.8c-0.1,0.4-0.1,0.7-0.2,1h1.8v6.4h-4.2v-6.4h1.4c0.1-0.3,0.2-0.7,0.3-1
	h-1.9v-0.9H258L258,118.6z M256.8,122.4v-0.8h-2.4v0.8H256.8z M256.8,124.1v-0.9h-2.4v0.9H256.8z M256.8,125h-2.4v1h2.4V125z
	 M258.1,128.4l-0.7,0.8c-0.4-0.5-0.9-1-1.6-1.5l0.7-0.7C257.1,127.5,257.6,128,258.1,128.4z"/>
<path class="st0" d="M113.1,150.8l-0.8,0.8c-0.3-0.4-0.8-0.8-1.4-1.3l0.8-0.8C112.2,150,112.7,150.4,113.1,150.8z M113,153.6
	l-0.7,1.1c-0.5-0.6-1-1.1-1.5-1.5l0.6-0.9C112,152.7,112.5,153.1,113,153.6z M113.1,155.9c-0.4,1.8-0.8,3.3-1.3,4.5l-0.9-0.9
	c0.4-1.1,0.8-2.5,1.2-4.2L113.1,155.9L113.1,155.9z M115.6,158.4c-0.6,0.6-1.4,1.1-2.3,1.5l-0.6-0.9c0.8-0.3,1.6-0.7,2.3-1.2
	L115.6,158.4z M114.7,150v-0.6h1v0.6h1.4v0.8h-1.4v0.6h1.2v0.8h-1.2v0.6c0.5,0,0.9-0.1,1.3-0.2v0.8c-0.3,0.1-0.8,0.1-1.3,0.2v0.7h-1
	v-0.6c-0.4,0.1-0.9,0.1-1.3,0.1l-0.1-0.9c0.5,0,1,0,1.5-0.1v-0.7h-1.3v-0.8h1.3v-0.6h-1.5V150L114.7,150L114.7,150z M117.4,154.2
	c-0.5,0.4-1,0.7-1.4,0.9c0.7,0,1.4-0.1,1.9-0.1c0.3-0.2,0.5-0.4,0.8-0.7l0.8,0.6c-0.9,0.7-1.7,1.3-2.4,1.6c-0.2,0.1-0.5,0.2-0.8,0.4
	c0.9,0,1.9-0.1,2.8-0.3c-0.2-0.2-0.4-0.4-0.5-0.7l0.7-0.5c0.8,0.8,1.4,1.5,1.8,2.1l-0.9,0.6c-0.2-0.3-0.3-0.5-0.6-0.8
	c-0.7,0.1-1.4,0.2-2.1,0.2v1.7c0,0.4-0.1,0.7-0.3,0.8c-0.2,0.2-0.5,0.3-0.9,0.3h-0.9l-0.2-1.1c0.3,0.1,0.6,0.1,0.8,0.1
	c0.3,0,0.4-0.1,0.4-0.3v-1.4c-1,0.1-2,0.1-3.1,0.1l-0.2-1c0.5,0.1,0.9,0.1,1.2,0.1c0.7-0.2,1.3-0.5,1.8-0.8c0.1-0.1,0.3-0.2,0.4-0.3
	c-0.8,0.1-1.9,0.2-3.3,0.2l-0.1-0.8c0.4,0,0.8,0,1.2,0c0.6-0.3,1.1-0.8,1.7-1.3L117.4,154.2L117.4,154.2z M121,150
	c-0.1,2.1-0.2,3.3-0.5,3.6c-0.2,0.4-0.7,0.6-1.3,0.6H119l-0.2-0.9h0.4c0.4,0,0.7-0.2,0.7-0.5c0.1-0.4,0.2-1,0.2-1.9h-0.9
	c-0.3,1.6-0.7,2.7-1.3,3.4l-0.9-0.6c0.6-0.7,1-1.7,1.2-2.8h-1V150L121,150L121,150z M121.2,159l-0.6,0.9c-0.7-0.6-1.4-1-2.2-1.3
	l0.5-0.8C119.7,158.1,120.5,158.6,121.2,159L121.2,159z"/>
<path class="st0" d="M128,149.6c-0.1,0.6-0.3,1.2-0.5,1.7h4.3v9.2h-1.1v-0.9h-6.4v0.9h-1.1v-9.2h3.2c0.2-0.6,0.3-1.2,0.4-1.9
	L128,149.6L128,149.6z M130.7,154.9v-2.5h-6.4v2.5H130.7z M130.7,158.6v-2.7h-6.4v2.7H130.7z"/>
<path class="st0" d="M135.2,151.7v-2.2h1v2.2h1.2v1h-1.2v0.4c0.4,0.6,0.9,1.3,1.3,2l-0.6,0.9c-0.3-0.6-0.5-1.2-0.7-1.6v6h-1v-5.5
	c-0.3,0.9-0.7,1.8-1.2,2.4l-0.4-1.3c0.7-1,1.2-2.1,1.6-3.4h-1.5v-1H135.2L135.2,151.7z M144.1,150.9h-5.4v8.1h5.4v1h-5.4v0.6h-1
	v-10.6h6.4L144.1,150.9L144.1,150.9z M143.7,151.8v0.9h-1.8v1.5h1.7v0.9h-1.7v1.8h1.9v0.9H139V157h1.9v-1.8h-1.6v-0.9h1.6v-1.5h-1.8
	v-0.9H143.7z"/>
<path class="st0" d="M149.7,155.6v-0.9h1.1v0.9h4.5v1h-3.5c0.5,0.6,0.9,1,1.4,1.3c0.6,0.4,1.4,0.8,2.4,1.2l-0.5,1.1
	c-1.3-0.6-2.2-1.2-2.8-1.7c-0.5-0.4-1-1-1.5-1.9v3.8h-1.1v-3.8c-0.3,0.6-0.7,1.1-1.2,1.5c-0.7,0.6-1.7,1.3-3,1.9l-0.6-1
	c1.3-0.6,2.2-1.1,2.8-1.6c0.3-0.2,0.6-0.6,0.9-0.9h-3.4v-1L149.7,155.6L149.7,155.6z M146.8,150.5v-1.1h1v1.1h2
	c0,2.4-0.2,3.7-0.5,4.1c-0.2,0.3-0.8,0.4-1.9,0.4l-0.2-1.2c0.3,0.1,0.6,0.1,0.8,0.1s0.4-0.1,0.5-0.2c0.1-0.2,0.2-0.9,0.2-2.2h-1.1
	c-0.1,0.8-0.3,1.4-0.5,2c-0.4,0.7-0.9,1.2-1.7,1.6l-0.5-0.9c0.7-0.4,1.2-0.8,1.4-1.4c0.2-0.4,0.3-0.8,0.3-1.3H145v-1H146.8
	L146.8,150.5z M154.9,150.4v4.3h-4.4v-4.3H154.9z M153.9,151.4h-2.3v2.2h2.3V151.4z"/>
<path class="st0" d="M159.8,150.6c-0.4,0.2-1,0.4-1.9,0.7v0.9h1.7v1h-1.6l0,1.4h1.5v0.9H158l0,1.3h2.1v-3.2h1v3.2h1v-3.7h-2v-3.7h1
	v0.8h2v0.9h-2v1h2v4.6h2.2v-1.3h-1.7v-1h1.7l0-1.4h-1.7v-1h1.7l0-1.2h-1.7v-1h2.8l-0.1,6.8h0.6v1h-10.5v-1h0.7l-0.1-6.5
	c0.8-0.1,1.6-0.4,2.5-0.9L159.8,150.6L159.8,150.6z M160.6,158.8c-0.9,0.6-2.1,1.2-3.4,1.7l-0.7-1c1.2-0.4,2.4-0.9,3.4-1.4
	L160.6,158.8z M166.7,159.5l-0.7,1.1c-1.1-0.7-2.2-1.2-3.3-1.6l0.6-0.9C164.6,158.4,165.7,158.9,166.7,159.5L166.7,159.5z"/>
<path class="st0" d="M170.5,153.7l-0.7,1.1c-0.7-0.6-1.3-1.1-2-1.4l0.6-0.9C169.1,152.8,169.9,153.2,170.5,153.7z M170.4,155.7
	c-0.5,1.8-1.1,3.4-1.8,4.6l-0.8-0.8c0.6-1.1,1.1-2.6,1.6-4.3L170.4,155.7L170.4,155.7z M170.8,150.8l-0.7,1.1
	c-0.6-0.6-1.2-1.1-1.8-1.4l0.6-0.9C169.5,150,170.2,150.4,170.8,150.8L170.8,150.8z M173.7,155.1V154h1v1.1h3.4v1h-2.5
	c0.2,0.4,0.5,0.8,0.9,1.2c0.4,0.4,0.9,0.9,1.7,1.4l-0.7,1c-0.8-0.6-1.4-1.3-1.8-1.9c-0.4-0.5-0.7-1-0.9-1.7h0v4.3h-1v-4
	c-0.2,0.5-0.4,1-0.7,1.3c-0.5,0.7-1.1,1.3-2,2l-0.6-1c0.9-0.6,1.5-1.2,1.8-1.7c0.2-0.3,0.4-0.6,0.6-1.1h-2.2v-1L173.7,155.1
	L173.7,155.1z M178,152.2h-1.1v-1.4h-5v1.4h-1.1v-2.5h7.2V152.2z M173.9,151.3c0,0.9-0.2,1.6-0.6,2.1c-0.3,0.5-0.9,0.9-1.6,1.3
	l-0.6-1c0.6-0.2,1-0.5,1.3-0.9c0.3-0.3,0.5-0.9,0.5-1.6H173.9z M176,151.3v1.6c0,0.2,0.1,0.3,0.4,0.3h1.5v0.9h-1.8
	c-0.4,0-0.6-0.1-0.8-0.2c-0.2-0.1-0.3-0.4-0.3-0.7v-2L176,151.3L176,151.3z"/>
<path class="st0" d="M189.5,158.9v1.1h-10.1v-1.1H189.5z M189.3,151.8v1.1h-9.6v-1.1H189.3z M183.5,158.2l-1.2,0.3
	c-0.3-1.7-0.6-3.3-1.1-4.9l1.1-0.4C182.7,154.7,183.1,156.3,183.5,158.2z M185.3,150.9l-0.8,0.8c-0.4-0.5-1.1-1-1.9-1.5l0.7-0.7
	C184.2,149.9,184.8,150.4,185.3,150.9L185.3,150.9z M187.7,153.6c-0.3,1.8-0.8,3.5-1.3,5l-1.1-0.4c0.5-1.2,0.9-2.8,1.3-4.8
	L187.7,153.6L187.7,153.6z"/>
<path class="st0" d="M200.9,150v1h-4.5c-0.1,0.4-0.3,0.8-0.5,1.1h4.5v8.2h-1.1v-0.7h-7.1v0.7h-1.1v-8.2h3.6c0.2-0.4,0.4-0.7,0.5-1.1
	h-4.5v-1H200.9L200.9,150z M193.6,158.8v-5.6h-1.3v5.6H193.6z M197,154.4v-1.2h-2.4v1.2H197z M197,156.5v-1.3h-2.4v1.3H197z
	 M197,158.8v-1.3h-2.4v1.3H197z M199.3,158.8v-5.6H198v5.6H199.3z"/>
<path class="st0" d="M208,156.6c-0.2-0.4-0.6-0.8-1-1.4c-0.3-0.3-0.7-0.7-1.3-1.2l0.7-0.6c0.4,0.3,0.8,0.7,1.3,1.2
	c0.3,0.3,0.7,0.8,1.1,1.4L208,156.6L208,156.6z"/>
<path class="st0" d="M223,159.1c0,0.4-0.1,0.7-0.3,0.9c-0.2,0.2-0.4,0.3-0.7,0.3h-1.9l-0.2-1.2l1.7,0.1c0.2,0,0.4-0.2,0.4-0.5v-1.6
	l-0.7,0.8c-0.7-0.6-1.2-1.3-1.6-1.9c-0.4-0.6-0.7-1.2-1-2c-0.2,0.5-0.4,0.9-0.6,1.2c-0.5,0.9-1.3,1.9-2.3,2.8l-0.4-0.8v3h-1.1v-8.6
	h3.9v-1.2h-2.4v-0.9h3.6v2.1h3.8V159.1L223,159.1z M217.3,154.6c0.3-0.5,0.5-1.1,0.8-1.8h-2.7v4.1
	C216.2,156.1,216.9,155.3,217.3,154.6L217.3,154.6z M220.2,154.8c0.4,0.7,1,1.4,1.7,2v-4h-2.7C219.5,153.6,219.8,154.2,220.2,154.8
	L220.2,154.8z"/>
<path class="st0" d="M227.5,153.7l-0.7,1.1c-0.7-0.6-1.3-1.1-2-1.4l0.6-0.9C226.1,152.8,226.9,153.2,227.5,153.7z M227.4,155.7
	c-0.5,1.8-1.1,3.4-1.8,4.6l-0.8-0.8c0.6-1.1,1.1-2.6,1.6-4.3L227.4,155.7L227.4,155.7z M227.8,150.8l-0.7,1.1
	c-0.6-0.6-1.2-1.1-1.8-1.4l0.6-0.9C226.5,150,227.2,150.4,227.8,150.8L227.8,150.8z M230.7,155.1V154h1v1.1h3.4v1h-2.5
	c0.2,0.4,0.5,0.8,0.9,1.2c0.4,0.4,1,0.9,1.7,1.4l-0.7,1c-0.8-0.6-1.4-1.3-1.8-1.9c-0.4-0.5-0.7-1-0.9-1.7h0v4.3h-1v-4
	c-0.2,0.5-0.4,1-0.7,1.3c-0.5,0.7-1.1,1.3-2,2l-0.6-1c0.9-0.6,1.5-1.2,1.8-1.7c0.2-0.3,0.4-0.6,0.6-1.1h-2.2v-1L230.7,155.1
	L230.7,155.1z M235,152.2h-1.1v-1.4h-5v1.4h-1.1v-2.5h7.2V152.2z M230.9,151.3c0,0.9-0.2,1.6-0.6,2.1c-0.3,0.5-0.9,0.9-1.6,1.3
	l-0.6-1c0.6-0.2,1-0.5,1.3-0.9c0.3-0.3,0.5-0.9,0.5-1.6H230.9z M233,151.3v1.6c0,0.2,0.1,0.3,0.4,0.3h1.5v0.9h-1.8
	c-0.4,0-0.6-0.1-0.8-0.2c-0.2-0.1-0.3-0.4-0.3-0.7v-2L233,151.3L233,151.3z"/>
<path class="st0" d="M242,150.4h4.3v2.1h-1.1v-1.2H243v0.6c0,0.2,0.1,0.3,0.4,0.3h1.8v0.8h-2c-0.3,0-0.6-0.1-0.8-0.2
	c-0.2-0.1-0.3-0.4-0.3-0.7v-0.9h-1.4l0.4,0.3c-0.3,0.5-0.6,0.8-1,1.1c-0.4,0.3-1,0.5-1.8,0.7l-0.5-1c0.8-0.1,1.4-0.3,1.7-0.5
	c0.2-0.1,0.5-0.3,0.7-0.6h-2.5v1.2h-1.1v-2.2h4.4c-0.1-0.3-0.2-0.5-0.4-0.8l1.2-0.2C241.8,149.7,241.9,150,242,150.4L242,150.4z
	 M241.8,152.7c-0.1,0.4-0.3,0.7-0.6,1h4.5v6.8h-1v-0.5h-6.4v0.5h-1v-6.8h2.9c0.2-0.3,0.4-0.7,0.6-1.1L241.8,152.7L241.8,152.7z
	 M240.6,159l-0.4-0.5c0.6-0.4,1.2-0.8,1.6-1.1c-0.2-0.2-0.5-0.3-0.8-0.5c-0.4,0.4-0.9,0.8-1.5,1.2l-0.6-0.8c0.6-0.3,1-0.6,1.3-0.9
	c-0.4-0.2-0.8-0.4-1.2-0.6l0.6-0.6c0.4,0.2,0.8,0.4,1.1,0.6c0.2-0.3,0.3-0.6,0.5-0.9l0.9,0.1c-0.2,0.5-0.4,0.9-0.6,1.2
	c0.3,0.2,0.6,0.4,0.9,0.5c0.4-0.5,0.6-1,0.9-1.8l0.9,0.1c-0.3,0.9-0.7,1.6-1.1,2.1c0.4,0.3,0.8,0.5,1.1,0.8l-0.7,0.7
	c-0.3-0.2-0.6-0.5-1-0.8c-0.3,0.4-0.8,0.7-1.2,1.1h3.4v-4.4h-6.4v4.4L240.6,159L240.6,159z"/>
<path class="st0" d="M251,150.6c-0.4,0.2-1,0.4-1.9,0.7v0.9h1.7v1h-1.6l0,1.4h1.5v0.9h-1.5l0,1.3h2.1v-3.2h1v3.2h1v-3.7h-2v-3.7h1
	v0.8h2v0.9h-2v1h2v4.6h2.2v-1.3h-1.7v-1h1.7l0-1.4h-1.7v-1h1.7l0-1.2h-1.7v-1h2.8l-0.1,6.8h0.6v1h-10.5v-1h0.7l-0.1-6.5
	c0.8-0.1,1.6-0.4,2.5-0.9L251,150.6L251,150.6z M251.8,158.8c-0.9,0.6-2.1,1.2-3.4,1.7l-0.7-1c1.2-0.4,2.4-0.9,3.4-1.4L251.8,158.8z
	 M257.9,159.5l-0.7,1.1c-1.1-0.7-2.2-1.2-3.3-1.6l0.6-0.9C255.7,158.4,256.9,158.9,257.9,159.5L257.9,159.5z"/>
<path class="st0" d="M262,149.7c-0.1,0.4-0.2,0.8-0.3,1.1h2.7v1c-0.1,1.4-0.4,2.6-0.7,3.7c-0.3,0.9-0.7,1.7-1.2,2.4
	c-0.5,0.8-1.4,1.6-2.6,2.4l-0.8-1c1.3-0.9,2.3-1.8,2.9-2.8c-0.4-0.7-1-1.4-1.6-2.1l0.8-0.7c0.5,0.6,1,1.1,1.4,1.7
	c0.3-0.9,0.6-2.1,0.7-3.6h-1.9c-0.1,0.3-0.2,0.6-0.4,0.9c-0.4,0.9-0.9,1.7-1.5,2.4l-0.7-0.9c0.5-0.7,0.9-1.4,1.3-2.2
	c0.3-0.6,0.5-1.4,0.8-2.6L262,149.7L262,149.7z M266.3,149.4v3.9c1,0.6,2.1,1.2,3.2,1.9l-0.7,1c-1-0.8-1.8-1.4-2.5-1.8v5.9h-1.1v-11
	H266.3z"/>
<path class="st0" d="M271.8,151.6v-2.2h1v2.2h1.2v1h-1.2v2.2c0.4-0.2,0.8-0.4,1.1-0.7v1.2c-0.4,0.2-0.7,0.5-1.1,0.7v3.2
	c0,0.4-0.1,0.7-0.3,0.9c-0.2,0.2-0.5,0.3-0.9,0.3h-0.9l-0.2-1.2c0.3,0.1,0.6,0.1,0.8,0.1c0.3,0,0.4-0.1,0.4-0.3v-2.5
	c-0.4,0.2-0.9,0.3-1.3,0.5l-0.1-1.2c0.5-0.1,0.9-0.2,1.4-0.4v-2.7h-1.4v-1L271.8,151.6L271.8,151.6z M276.6,149.7
	c-0.2,0.7-0.4,1.3-0.7,1.8h4.7v1h-2.1v1.3h1.7v0.9h-1.7v1.4h1.8v0.9h-1.8v1.4h2.2v1h-5v0.9h-1V154c-0.1,0.2-0.2,0.3-0.3,0.5
	l-0.7-0.9c0.8-1.2,1.4-2.5,1.9-4L276.6,149.7L276.6,149.7z M277.5,152.5h-1.8v1.3h1.8V152.5z M277.5,154.8h-1.8v1.4h1.8V154.8z
	 M277.5,158.6v-1.4h-1.8v1.4H277.5z M278.8,151.1l-0.9,0.4c-0.2-0.6-0.5-1.2-0.8-1.7l0.9-0.3C278.3,149.9,278.6,150.5,278.8,151.1z"
	/>
<path class="st0" d="M283.1,151.7v-2.2h1v2.2h1v1h-1v1c0.4,0.5,0.8,1.1,1.2,1.7l-0.6,0.9c-0.2-0.5-0.5-0.9-0.7-1.3v5.3h-1v-5.3
	c-0.3,0.9-0.6,1.7-1,2.4l-0.4-1.2c0.6-1,1-2.2,1.4-3.6h-1.3v-1L283.1,151.7L283.1,151.7z M288.1,156v-0.8h0.9v0.8h3.2v1h-2.3
	c0.2,0.3,0.5,0.6,0.8,0.9c0.4,0.4,0.9,0.7,1.6,1.1l-0.6,0.9c-0.7-0.5-1.3-1.1-1.8-1.6c-0.3-0.4-0.6-0.8-0.9-1.3H289v3.5h-0.9V157
	c-0.2,0.5-0.5,0.9-0.8,1.2c-0.5,0.5-1.1,1.1-2,1.6l-0.5-0.9c0.9-0.5,1.5-0.9,1.8-1.3c0.2-0.2,0.4-0.4,0.5-0.7h-1.9v-1L288.1,156
	L288.1,156z M287.2,154c-0.5,0.5-1,0.9-1.7,1.3l-0.4-0.9c0.6-0.3,1.2-0.7,1.8-1.3L287.2,154L287.2,154z M286.9,152.3l-0.5,0.8
	c-0.4-0.4-0.8-0.7-1.2-0.9l0.4-0.7C286.1,151.7,286.5,152,286.9,152.3L286.9,152.3z M287.1,150.5l-0.5,0.8c-0.4-0.4-0.9-0.7-1.3-1
	l0.4-0.7C286.2,149.9,286.6,150.2,287.1,150.5z M288.4,151.4c-0.2,0.7-0.4,1.4-0.7,1.9l-0.7-0.5c0.3-0.5,0.5-1,0.7-1.6L288.4,151.4
	L288.4,151.4z M291.3,149.7c0,0.7,0,1.2,0,1.7l0.5-0.2c0.3,0.8,0.5,1.6,0.6,2.3l-0.8,0.3c-0.1-0.6-0.2-1.3-0.4-1.9
	c-0.1,1.3-0.1,2-0.2,2.2c-0.1,0.4-0.2,0.6-0.3,0.7c-0.1,0.2-0.3,0.3-0.7,0.3c-0.3,0-0.6,0-0.8-0.1l-0.1-1c0.5,0.1,0.7,0.1,0.8,0.1
	c0.1,0,0.2-0.1,0.3-0.3c0.1-0.1,0.1-1.2,0.2-3.3h-0.8c0,1.2-0.2,2.1-0.4,2.8c-0.2,0.7-0.7,1.4-1.5,2l-0.6-0.8c0.6-0.4,1-0.9,1.2-1.4
	c0.2-0.6,0.4-1.4,0.4-2.6h-1.4v-0.9L291.3,149.7L291.3,149.7z"/>
<path class="st0" d="M137.5,181.7c-1.2,0.2-2.6,0.4-4.2,0.5c-0.1,0.3-0.2,0.5-0.2,0.7h4.7v0.8h-5.1c-0.1,0.2-0.2,0.5-0.3,0.7h5.8
	v0.9h-6.3c0,0.1-0.1,0.1-0.1,0.2c-0.1,0.2-0.2,0.3-0.3,0.5h5.7v5.7h-1v-0.4h-5.2v0.4h-1v-4c-0.5,0.5-1,0.9-1.6,1.4l-0.6-1
	c1.2-1,2.1-1.8,2.8-2.7h-2.6v-0.9h3.2c0.1-0.2,0.2-0.4,0.4-0.7h-3v-0.8h3.4c0.1-0.2,0.2-0.4,0.3-0.7c-1,0-2.1,0.1-3.3,0.1l-0.3-0.9
	c3.3,0,6-0.2,8.3-0.6L137.5,181.7L137.5,181.7z M136.2,187.5v-0.6H131v0.6H136.2z M136.2,188.9v-0.7H131v0.7H136.2z M136.2,190.4
	v-0.7H131v0.7H136.2z"/>
<path class="st0" d="M142.5,180.9c-0.3,0.9-0.6,1.7-0.8,2.4v8.2h-1v-6.3c-0.3,0.5-0.6,0.9-1,1.4l-0.4-1.3c0.5-0.7,0.9-1.3,1.2-2
	c0.4-0.6,0.7-1.5,1.1-2.7L142.5,180.9z M144.3,181.1v6.6c0.7-0.3,1.3-0.6,1.9-0.9v1.2c-1.1,0.6-2.4,1.2-3.9,1.7l-0.3-1.2
	c0.4-0.1,0.9-0.3,1.3-0.4v-7.1L144.3,181.1L144.3,181.1z M148.8,180.9v2.5c0,1.6-0.3,2.9-0.7,4.1c0.7,1.1,1.3,2.1,1.8,3.2l-0.8,0.9
	c-0.4-0.9-0.9-1.9-1.5-2.9c0,0,0,0,0,0c-0.8,1.2-2,2.2-3.6,2.8l-0.6-1c1.7-0.7,2.8-1.6,3.4-2.7c0.6-1.1,1-2.6,1-4.4v-2.5
	L148.8,180.9L148.8,180.9z M147.2,184.6l-1,0.7c-0.2-0.9-0.6-1.9-1-3.1l0.8-0.6C146.5,182.8,146.9,183.8,147.2,184.6L147.2,184.6z"
	/>
<path class="st0" d="M154.9,181.4v1.1h-1.6v2.4h1.3v1.1h-1.3v2.7c0.5-0.2,1-0.4,1.5-0.6v1.2c-1.2,0.5-2.5,1-3.9,1.4l-0.3-1.2
	c0.6-0.1,1.1-0.3,1.7-0.5v-3h-1.4v-1.1h1.4v-2.4h-1.5v-1.1H154.9L154.9,181.4z M160.6,181.1v6.7h-1.3v2.4c0,0.2,0.1,0.3,0.4,0.3h0.3
	c0.1,0,0.2-0.1,0.3-0.2s0.1-0.7,0.1-1.6l1,0.3c-0.1,1.2-0.2,1.9-0.4,2.1c-0.2,0.2-0.4,0.3-0.8,0.3h-0.8c-0.3,0-0.6-0.1-0.8-0.2
	c-0.2-0.2-0.3-0.4-0.3-0.7v-2.6h-0.9c-0.1,1-0.3,1.8-0.6,2.2c-0.4,0.6-1,1.1-1.9,1.6l-0.7-0.9c0.8-0.3,1.3-0.7,1.6-1.1
	c0.2-0.4,0.4-0.9,0.5-1.8h-1v-6.7L160.6,181.1L160.6,181.1z M159.6,183V182h-3.3v0.9H159.6z M159.6,184.9v-1h-3.3v1H159.6z
	 M159.6,185.8h-3.3v1h3.3V185.8z"/>
<path class="st0" d="M165.3,181.1c-0.3,0.9-0.5,1.7-0.8,2.3v8.1h-1v-6.2c-0.3,0.5-0.6,1-1,1.4l-0.4-1.3c0.5-0.7,0.9-1.3,1.2-2
	c0.3-0.6,0.7-1.6,1-2.8L165.3,181.1L165.3,181.1z M172.2,184.6l-3.7,0.4c0.1,0.8,0.2,1.3,0.2,1.8c0.3,1.1,0.6,1.9,1.1,2.5
	c0.5,0.7,0.9,1,1.2,1c0.1,0,0.2-0.1,0.2-0.2c0.1-0.1,0.2-0.8,0.2-1.9l1.1,0.7c-0.2,1.1-0.4,1.9-0.6,2.2c-0.2,0.3-0.5,0.4-0.9,0.4
	c-0.6,0-1.3-0.4-2-1.3c-0.6-0.7-1.1-1.8-1.5-3.2c-0.1-0.5-0.2-1.1-0.3-1.9l-2.4,0.3l-0.1-1.1l2.5-0.3c-0.1-1-0.1-2.1-0.2-3.4h1.1
	c0,1.3,0.1,2.4,0.2,3.3l3.7-0.4L172.2,184.6L172.2,184.6z M171.5,182.7l-1,0.7c-0.3-0.5-0.8-1.1-1.3-1.8l0.8-0.5
	C170.6,181.7,171.1,182.2,171.5,182.7L171.5,182.7z"/>
<path class="st0" d="M176.2,180.8c-0.1,0.2-0.2,0.4-0.3,0.5h2.8v0.9h-1.5c0.1,0.3,0.2,0.6,0.3,0.9l-1.1,0.1c-0.1-0.4-0.1-0.7-0.2-1
	h-0.9c-0.3,0.4-0.7,0.8-1,1.1l-0.9-0.6c0.8-0.6,1.4-1.3,1.8-2.1L176.2,180.8L176.2,180.8z M178.7,186.9h-3.4v4.8h-1v-8.3h4.4V186.9z
	 M177.8,184.8v-0.6h-2.4v0.6H177.8z M177.8,186.1v-0.6h-2.4v0.6H177.8z M183.5,183.3v7.1c0,0.4-0.1,0.7-0.3,0.9
	c-0.2,0.2-0.5,0.3-0.8,0.3h-1.1l-0.2-0.8h-4.7v-3.5h4.9v3.2l0.8,0c0.3,0,0.4-0.2,0.4-0.5v-3.2h-3.4v-3.6H183.5L183.5,183.3z
	 M180.4,188.8v-0.6h-3v0.6H180.4z M180.4,189.5h-3v0.6h3V189.5z M180.9,180.8c-0.1,0.2-0.2,0.4-0.2,0.5h3.3v0.9h-2.1
	c0.1,0.3,0.3,0.6,0.4,0.9l-1.1,0.1c-0.1-0.4-0.2-0.7-0.3-1h-0.7c-0.2,0.4-0.5,0.8-0.8,1.1l-0.9-0.6c0.7-0.6,1.1-1.3,1.4-2.1
	L180.9,180.8L180.9,180.8z M182.5,184.8v-0.6h-2.4v0.6H182.5z M182.5,185.4h-2.4v0.6h2.4V185.4z"/>
<path class="st0" d="M188.2,180.9c-0.5,1.1-1,2.1-1.5,3c0.5-0.1,0.9-0.1,1.3-0.2c0.2-0.4,0.5-0.9,0.7-1.4l1,0.4
	c-0.9,1.7-1.9,3.2-2.8,4.2c0.7-0.1,1.4-0.2,1.9-0.3c-0.1-0.4-0.2-0.9-0.4-1.3l0.8-0.3c0.3,0.8,0.6,1.8,0.8,2.8l-0.9,0.2
	c-0.1-0.2-0.1-0.4-0.1-0.6c-0.9,0.2-2.2,0.4-3.8,0.6l-0.3-1c0.3,0,0.6,0,0.8,0c0.6-0.6,1.1-1.4,1.7-2.3c-0.7,0.1-1.5,0.2-2.4,0.3
	l-0.2-1c0.2,0,0.5,0,0.7-0.1c0.6-1,1.1-2.1,1.6-3.4L188.2,180.9L188.2,180.9z M186.3,188.5c-0.1,1.2-0.2,2.2-0.4,3l-1-0.3
	c0.3-0.9,0.5-1.8,0.6-2.8L186.3,188.5L186.3,188.5z M188.1,191l-1,0.1c0-1.1-0.1-2-0.2-2.6l0.8-0.1C187.9,189,188,189.9,188.1,191z
	 M189.9,190.3l-0.9,0.3c-0.1-0.8-0.3-1.5-0.4-2.2l0.8-0.2C189.5,189,189.7,189.7,189.9,190.3L189.9,190.3z M192,180.8
	c-0.1,0.7-0.3,1.2-0.5,1.7h3.4c0,4.2-0.1,6.6-0.2,7.4c-0.1,0.6-0.3,1-0.7,1.2c-0.4,0.2-1,0.4-2,0.4c-0.2,0-0.5,0-0.8-0.1l-0.2-1.1
	c0.3,0.1,0.7,0.1,1,0.1c0.9,0,1.4-0.2,1.5-0.8c0.2-0.6,0.3-2.6,0.3-6.1H191c-0.3,0.6-0.7,1.1-1.2,1.6l-0.6-0.9
	c0.5-0.5,0.8-1,1.1-1.6c0.2-0.4,0.5-1.1,0.7-2L192,180.8L192,180.8z M192.6,187.7l-1,0.7c-0.3-0.8-0.7-1.8-1.3-2.9l0.8-0.5
	C191.8,186.1,192.3,187,192.6,187.7z"/>
<path class="st0" d="M201.9,187.4c-0.2,0.2-0.5,0.5-0.9,0.8l-0.4-0.6c0.5-0.3,0.8-0.6,0.9-1.1h-0.7v-1.4h1.4v1.2
	C202.2,186.7,202.1,187.1,201.9,187.4z"/>
<path class="st0" d="M216.6,182.6l-0.1,1.2h1.6v0.7h-1.7l-0.1,1.2h-7.3l0.1-1.2h-1.6v-0.7h1.6l0.1-1.2H216.6L216.6,182.6z
	 M213.6,181.2h4.3v2.1h-1v-1.2H209v1.2h-1v-2.1h4.5c-0.1-0.2-0.3-0.4-0.4-0.6l1.1-0.1C213.3,180.8,213.4,181,213.6,181.2
	L213.6,181.2z M216.9,186.1v4h-2.2c1,0.2,1.9,0.4,3,0.7l-0.3,0.9c-1.1-0.4-2.3-0.7-3.6-0.9l0.3-0.7h-2.3l0.3,0.4
	c-0.6,0.3-1.1,0.5-1.5,0.7c-0.5,0.2-1.2,0.3-1.9,0.5l-0.5-0.9c0.8-0.1,1.4-0.3,2-0.4c0.2-0.1,0.5-0.1,0.7-0.2h-1.9v-4L216.9,186.1
	L216.9,186.1z M215.9,187.2v-0.4h-6.1v0.4H215.9z M215.9,188.4v-0.5h-6.1v0.5H215.9z M215.9,189h-6.1v0.4h6.1V189z M212.3,184.9
	l0-0.5h-2.1l0,0.5H212.3z M212.4,183.8l0-0.5h-2.1l0,0.5H212.4z M213.2,184.9h2.3l0-0.5h-2.3L213.2,184.9z M213.3,183.8h2.3l0-0.5
	h-2.3L213.3,183.8z"/>
<path class="st0" d="M221.6,189.4c-0.5,0.9-1,1.6-1.6,2.3L219,191c0.6-0.6,1.2-1.2,1.7-2L221.6,189.4z M224.5,180.9v7.9h-4.9v-7.9
	H224.5z M223.4,183.2V182h-2.7v1.2H223.4z M223.4,185.5v-1.3h-2.7v1.3H223.4z M223.4,186.5h-2.7v1.3h2.7V186.5z M225.3,191l-1,0.7
	c-0.4-0.6-0.9-1.4-1.6-2.2l0.8-0.5C224.2,189.8,224.8,190.4,225.3,191L225.3,191z M226.8,181.4v7.6h-1.1v-7.6H226.8z M229.2,180.6
	v9.7c0,0.4-0.1,0.7-0.3,0.9c-0.2,0.2-0.5,0.3-1,0.3h-1.8l-0.2-1.1c0.7,0.1,1.2,0.1,1.7,0.1c0.3,0,0.5-0.1,0.5-0.3v-9.5L229.2,180.6
	L229.2,180.6z"/>
<path class="st0" d="M234.7,183.7c0.1-0.7,0.1-1.4,0.1-2.2v-0.8h1.2v0.8c0,0.8-0.1,1.5-0.1,2.2h4.7v1.2h-3.4c0.2,1.2,0.6,2.2,1.1,3
	c0.6,1,1.5,1.8,2.5,2.5l-0.7,1.2c-1.3-0.9-2.2-1.9-2.8-3.1c-0.6-1-1-2.2-1.3-3.6h-0.3c-0.2,0.8-0.4,1.5-0.7,2.2
	c-0.6,1.4-1.8,2.9-3.5,4.4l-1-0.9c1.6-1.2,2.8-2.5,3.4-3.9c0.2-0.5,0.5-1.1,0.6-1.8h-3.8v-1.2H234.7L234.7,183.7z"/>
<path class="st0" d="M246.1,181.6v1h-1.4v5.8c0.7-0.2,1.3-0.4,2-0.7v1c-1.2,0.5-2.7,0.9-4.4,1.4l-0.3-1.2c0.5-0.1,1.1-0.2,1.6-0.3
	v-6.1h-1.5v-1L246.1,181.6L246.1,181.6z M252.3,181.2v1H249c-0.2,0.9-0.6,1.9-1,2.9h3.8c-0.1,2.4-0.2,4-0.3,4.7
	c-0.1,0.6-0.3,1-0.6,1.3c-0.2,0.2-0.6,0.4-1.3,0.4c-1,0-1.6,0-1.9-0.1l-0.4-1.2c1,0.1,1.7,0.1,2.2,0.1c0.4,0,0.6-0.1,0.8-0.4
	c0.2-0.3,0.3-1.6,0.4-3.8h-4v-1c0.4-1,0.8-2,1.1-2.9h-1.6v-1L252.3,181.2L252.3,181.2z"/>
<path class="st0" d="M260,181.4v-0.7h1.1v0.7h2.6v0.9h-2.6v0.6h0.2v0.6h1.1c-0.2-0.2-0.4-0.4-0.6-0.7l0.6-0.4
	c0.4,0.3,0.7,0.5,0.9,0.7l-0.5,0.3h0.8v1h-2.3c0,1.3,0.1,2.4,0.3,3.2c0.3-0.7,0.6-1.6,0.9-2.6l0.8,0.5c-0.4,1.4-0.8,2.5-1.2,3.2
	c-0.1,0.1-0.1,0.2-0.2,0.3c0.3,0.9,0.5,1.3,0.6,1.3c0.1,0,0.3-0.5,0.4-1.6l0.8,0.6c-0.2,1.1-0.5,1.7-0.7,2c-0.1,0.2-0.3,0.3-0.5,0.3
	c-0.3,0-0.6-0.2-1-0.7c-0.1-0.2-0.2-0.4-0.4-0.7c-0.3,0.5-0.6,0.9-0.9,1.3l-0.5-0.8h-2.4v0.5h-0.8v-6.2h3.2v0.9h-0.8v0.7h0.8v2.3
	h-0.8v1h1v0.3c0.2-0.3,0.5-0.7,0.7-1.1c-0.1-0.3-0.2-0.6-0.2-0.9c-0.2-0.9-0.3-2.2-0.3-3.7h-3.9v1.8c0,0.8-0.1,1.7-0.2,2.6
	c-0.1,0.9-0.4,1.9-0.7,2.8l-0.9-0.8c0.3-0.7,0.5-1.5,0.6-2.3c0.1-0.4,0.1-0.8,0.1-1.1h-0.7c0,0.8-0.1,1.3-0.1,1.6
	c-0.1,0.6-0.3,1.1-0.6,1.7l-0.7-0.6c0.2-0.4,0.4-0.8,0.5-1.2c0.1-0.3,0.1-0.8,0.1-1.5h-0.6v-0.9h2.2V186h-1.8v-2.9h0.9v1.9h0.9v-1.6
	h4.9v-0.5H260v-0.8h-1.3v-0.9H260L260,181.4z M255.9,181.4v-0.7h1.1v0.7h1.3v0.9H257v0.9h-1.1v-0.9h-2.5v-0.9H255.9z M258.5,185.9
	h-0.8v0.7h0.8V185.9z M259.3,188.2v-0.7h-1.7v0.7H259.3z M258.5,189h-0.8v1h0.8V189z"/>
<path class="st0" d="M274.6,181.7v1.1h-4.1v7.1h4.5v1.1h-10.2v-1.1h4.5v-7.1h-4.1v-1.1H274.6z"/>
<path class="st0" d="M109.5,214.6h-3.2c0.1,1.7,0.3,3.1,0.6,4.1c0.5-0.8,1-1.9,1.5-3.2l1,0.4c-0.6,1.8-1.3,3.1-1.9,4
	c0.5,1.1,0.9,1.6,1.1,1.6c0.1,0,0.3-0.6,0.4-1.7l0.9,0.6c-0.3,1.1-0.5,1.8-0.7,2.1c-0.2,0.2-0.3,0.3-0.5,0.3c-0.5,0-1-0.3-1.5-0.9
	c-0.2-0.3-0.5-0.7-0.6-1c-0.7,0.7-1.6,1.3-2.7,1.9l-0.6-1c1.2-0.6,2.1-1.2,2.9-2c-0.2-0.4-0.3-0.8-0.4-1.3c-0.2-1-0.4-2.3-0.5-3.8
	h-3.8v1.4h3.1c0,2.2-0.1,3.5-0.3,4.1c-0.2,0.7-0.5,1-1.1,1h-1.5l-0.2-1.1c0.8,0.1,1.3,0.1,1.7,0.1c0.1,0,0.2-0.2,0.2-0.5
	c0-0.4,0.1-1.2,0.1-2.5h-2.1c0,0.9-0.1,1.7-0.2,2.6c-0.2,1.1-0.5,2.2-1,3.3l-0.9-0.8c0.4-0.9,0.7-1.8,0.9-2.8c0.1-1,0.2-1.9,0.2-2.7
	v-3.2h4.8c0-0.5,0-1.1,0-1.7h1.1c0,0.6,0,1.1,0,1.7h1.6c-0.3-0.3-0.7-0.6-1.1-1l0.7-0.7c0.5,0.4,1,0.7,1.3,1.1l-0.6,0.6h1.2
	L109.5,214.6L109.5,214.6z"/>
<path class="st0" d="M112.7,218.6c-0.2,1.1-0.5,2.1-0.9,2.9l-1-0.4c0.3-0.7,0.6-1.7,0.9-2.8L112.7,218.6z M114.2,213h2v1h-5.3v-1
	h2.2c-0.2-0.3-0.3-0.7-0.5-1l1.1-0.1C113.9,212.3,114.1,212.6,114.2,213L114.2,213z M115.8,214.8v3.2h-1.6v3.6
	c0,0.4-0.1,0.7-0.3,0.9c-0.2,0.2-0.5,0.3-0.9,0.3h-0.7l-0.2-1.1c0.2,0.1,0.4,0.1,0.6,0.1c0.3,0,0.4-0.1,0.4-0.3v-3.4h-1.8v-3.2
	L115.8,214.8L115.8,214.8z M114.7,215.7h-2.4v1.3h2.4V215.7z M116.1,220.4l-1,0.4c-0.1-0.7-0.2-1.4-0.4-2.2l0.8-0.2
	C115.7,219.2,115.9,219.9,116.1,220.4z M117.4,214.6v-2.7h1v2.7h2.7v1h-2.8c-0.1,1.4-0.2,2.5-0.5,3.5c-0.3,1.2-1,2.5-1.9,3.8
	l-0.8-0.8c0.8-1,1.5-2.1,1.8-3.3c0.2-0.7,0.4-1.8,0.4-3.1H116v-1L117.4,214.6L117.4,214.6z M119.5,216.8v4.4c0,0.2,0.1,0.3,0.3,0.3
	c0.3,0,0.4-0.1,0.4-0.4v-1.8l0.9,0.4c0,1.3-0.1,2.2-0.3,2.5c-0.2,0.2-0.5,0.4-1,0.4c-0.5,0-0.8-0.1-1-0.3c-0.2-0.2-0.3-0.4-0.3-0.8
	v-4.8L119.5,216.8L119.5,216.8z M121,213.7l-0.9,0.7c-0.3-0.5-0.7-1-1.1-1.6l0.8-0.5C120.3,212.8,120.7,213.3,121,213.7L121,213.7z"
	/>
<path class="st0" d="M128.1,212c-0.1,0.2-0.1,0.5-0.2,0.7h4.4v0.9h-4.6c-0.1,0.2-0.1,0.4-0.2,0.6h3.7v5.7h1.2v0.9h-10.2v-0.9h1.3
	v-5.7h2.8c0.1-0.2,0.1-0.4,0.2-0.6h-4.1v-0.9h4.3c0.1-0.3,0.1-0.6,0.1-0.8L128.1,212L128.1,212z M126.6,221.6
	c-1.3,0.6-2.5,1-3.8,1.3l-0.4-1c1.4-0.2,2.6-0.5,3.6-1L126.6,221.6L126.6,221.6z M130.3,215.6V215h-5.6v0.6H130.3z M130.3,217v-0.6
	h-5.6v0.6H130.3z M130.3,218.4v-0.7h-5.6v0.7H130.3z M130.3,219.8v-0.7h-5.6v0.7H130.3z M132.7,221.9l-0.6,0.9
	c-1.2-0.5-2.4-0.9-3.7-1.2l0.5-0.8C130.3,221.2,131.5,221.5,132.7,221.9z"/>
<path class="st0" d="M143.8,212.3v1.1h-3.9v3.2h3.4v1.1h-3.4v3.6h4.2v1.1h-10.5v-1.1h1.9v-6.1h1.2v6.1h2.1v-7.9h-4.6v-1.1H143.8z"/>
<path class="st0" d="M155.2,212.5v1.1h-3.5c-0.2,0.5-0.5,1-0.8,1.4v7.8h-1.2v-6.2c-0.1,0.1-0.2,0.2-0.2,0.3c-1,1.1-2.2,2.1-3.7,2.9
	l-0.7-0.9c1.4-0.8,2.6-1.7,3.5-2.7c0.6-0.6,1.2-1.5,1.8-2.6h-5.2v-1.1L155.2,212.5L155.2,212.5z M155.2,218.9l-0.8,0.9
	c-0.7-1-1.6-2-2.8-3.1l0.8-0.8C153.5,216.8,154.4,217.9,155.2,218.9L155.2,218.9z"/>
<path class="st0" d="M165.9,217.1h-2.6c0.2,0.5,0.4,0.9,0.7,1.2c0.5-0.2,1-0.6,1.5-1.2l0.7,0.7c-0.4,0.5-0.9,0.8-1.5,1.1
	c0.6,0.5,1.2,0.8,2.1,1.1l-0.6,1c-1.2-0.6-2.1-1.2-2.7-1.9c-0.6-0.6-0.9-1.3-1.2-2.2h-1.1v2.6c0.5-0.1,1.1-0.3,1.7-0.5v1
	c-0.9,0.3-1.9,0.6-3,0.8c0,0,0,0,0,0c0.2,0.2,0.6,0.3,1.1,0.4c0.6,0.1,1.6,0.2,3.2,0.2c1.2,0,2.1,0,2.7-0.1l-0.1,1.1
	c-3.1,0-5-0.1-5.7-0.1c-0.6-0.1-1.1-0.3-1.5-0.5c-0.3-0.2-0.7-0.5-1.1-1.1c-0.3,0.6-0.8,1.2-1.3,1.9l-0.8-0.8c0.6-0.6,1-1.2,1.2-1.6
	c0.2-0.3,0.4-0.9,0.7-1.7h-1.6v-0.9c0.5-0.5,0.9-1.1,1.4-2h-1.7v-1h2.9v0.8c-0.4,0.7-0.8,1.3-1.4,2.1h1.4v0.7
	c-0.1,0.7-0.3,1.2-0.5,1.7c0.3,0.4,0.6,0.7,0.8,0.9l-0.1-0.9c0.2,0,0.4,0,0.7-0.1v-7.5h5.7L165.9,217.1L165.9,217.1z M159.1,213.5
	l-0.8,0.8c-0.3-0.5-0.7-1.1-1.2-1.6l0.7-0.7C158.3,212.5,158.7,213,159.1,213.5L159.1,213.5z M164.9,214.2v-0.8h-3.8v0.8H164.9z
	 M164.9,216.1v-1h-3.8v1H164.9z"/>
<path class="st0" d="M170.3,216l-0.7,1.1c-0.6-0.6-1.3-1-1.9-1.4l0.6-0.9C169,215.2,169.7,215.6,170.3,216z M170.4,218.4
	c-0.5,1.7-1,3.2-1.6,4.4l-0.9-1c0.5-1,1.1-2.4,1.6-4.1L170.4,218.4L170.4,218.4z M170.5,213l-0.7,1.1c-0.6-0.5-1.1-0.9-1.7-1.2
	l0.6-0.9C169.4,212.3,170,212.6,170.5,213L170.5,213z M172.4,217.4c-0.1,1.6-0.2,2.8-0.5,3.5c-0.3,0.8-0.8,1.4-1.5,2l-0.7-0.9
	c0.6-0.5,1-1,1.3-1.6c0.2-0.5,0.4-1.5,0.4-3H172.4L172.4,217.4z M174.9,213.1h3.3v1h-4.4c-0.2,0.6-0.6,1.3-1,1.9
	c1.4-0.1,2.6-0.1,3.5-0.2c-0.2-0.3-0.4-0.6-0.6-0.8l0.7-0.7c0.6,0.8,1.2,1.6,1.6,2.4l-0.8,0.8c-0.1-0.3-0.3-0.5-0.4-0.8
	c-1.3,0.2-3.3,0.4-5.9,0.5l-0.3-1.1h0.9c0.5-0.6,0.8-1.2,1.1-1.9h-2v-1h3.2c-0.2-0.3-0.5-0.5-0.8-0.8l1-0.4
	C174.4,212.2,174.7,212.6,174.9,213.1L174.9,213.1z M174.4,217.4v5.4h-1v-5.4H174.4z M176.5,217.4v4.1c0,0.2,0.1,0.3,0.3,0.3
	c0.3,0,0.5-0.1,0.5-0.4v-1.9l0.9,0.4c0,1.3-0.1,2.1-0.3,2.5c-0.2,0.2-0.6,0.4-1.1,0.4c-0.5,0-0.8-0.1-1-0.2
	c-0.2-0.2-0.3-0.4-0.3-0.7v-4.4L176.5,217.4L176.5,217.4z"/>
<path class="st0" d="M182.6,215.3c-0.3,0.5-0.6,0.9-0.8,1.3v6.2h-1v-4.9c-0.3,0.3-0.6,0.7-0.9,1l-0.7-1c1-0.9,1.9-2,2.8-3.3
	L182.6,215.3z M182.5,212.4c-0.7,1-1.6,1.8-2.6,2.6l-0.7-0.9c0.9-0.6,1.8-1.4,2.5-2.3L182.5,212.4z M189.6,215.6v1H188v5
	c0,0.4-0.1,0.7-0.3,0.9c-0.2,0.2-0.5,0.3-1,0.3h-1.9l-0.2-1.1c0.7,0.1,1.3,0.1,1.8,0.1c0.3,0,0.4-0.1,0.4-0.3v-4.8h-4v-1
	L189.6,215.6L189.6,215.6z M189.1,212.4v1.1h-5.6v-1.1H189.1z"/>
<path class="st0" d="M196.6,219c-0.2-0.4-0.6-0.8-1-1.4c-0.3-0.3-0.7-0.7-1.3-1.2l0.7-0.6c0.4,0.3,0.8,0.7,1.3,1.2
	c0.3,0.3,0.7,0.8,1.1,1.4L196.6,219L196.6,219z"/>
<path class="st0" d="M208.1,212.3v1.1h-2.5c-0.1,0.4-0.3,0.9-0.5,1.3h2.6v6.8c0,0.4-0.1,0.7-0.3,0.9c-0.2,0.2-0.4,0.3-0.6,0.3h-0.7
	l-0.1-0.6h-0.7v-6.3h-0.6v6.3h-0.9v-6.3h-0.5v7.1h-1v-8.1h1.8c0.2-0.4,0.4-0.8,0.5-1.3H202v-1.1H208.1L208.1,212.3z M206.1,221.6
	l0.3,0c0.2,0,0.3-0.2,0.3-0.4v-5.5h-0.6V221.6L206.1,221.6z M210.4,214.2v-2.3h1.1v2.3h1v1.1h-1v6.4c0,0.4-0.1,0.7-0.3,0.9
	c-0.2,0.2-0.5,0.3-0.9,0.3h-1.5l-0.2-1.1c0.6,0.1,1,0.1,1.4,0.1c0.3,0,0.4-0.1,0.4-0.3v-6.2h-2.5v-1.1H210.4z M210,219.2l-1,0.5
	c-0.3-1.2-0.7-2.2-1.1-3.2l1-0.3C209.4,217.1,209.7,218.2,210,219.2L210,219.2z"/>
<path class="st0" d="M223,212.9c-1.2,0.2-2.6,0.4-4.2,0.5c-0.1,0.3-0.2,0.5-0.2,0.7h4.7v0.8h-5.1c-0.1,0.2-0.2,0.5-0.3,0.7h5.8v0.9
	h-6.3c0,0.1-0.1,0.1-0.1,0.2c-0.1,0.2-0.2,0.3-0.3,0.5h5.7v5.7h-1v-0.4h-5.2v0.4h-1v-4c-0.5,0.5-1,0.9-1.6,1.4l-0.6-1
	c1.2-1,2.1-1.8,2.8-2.7h-2.6v-0.9h3.2c0.1-0.2,0.2-0.4,0.4-0.7h-3v-0.8h3.4c0.1-0.2,0.2-0.4,0.3-0.7c-1,0.1-2.1,0.1-3.3,0.1
	l-0.3-0.9c3.3,0,6-0.2,8.3-0.6L223,212.9L223,212.9z M221.7,218.7v-0.6h-5.2v0.6H221.7z M221.7,220.1v-0.7h-5.2v0.7H221.7z
	 M221.7,221.6v-0.7h-5.2v0.7H221.7z"/>
<path class="st0" d="M235.1,212.3v1.1h-4.4c-0.1,0.6-0.2,1.1-0.4,1.6h4v7.9h-1.1v-0.8h-6.5v0.8h-1.1V215h3.4c0.2-0.5,0.3-1,0.4-1.6
	H225v-1.1H235.1z M233.3,217.9V216h-6.5v1.9H233.3z M233.3,221.1v-2.2h-6.5v2.2H233.3z"/>
<path class="st0" d="M239.8,212.4c-0.2,0.3-0.3,0.6-0.4,0.8h7v1h-3.7v1.7h3.3v1h-3.3v2.4h3.8v1h-3.8v2.5h-1.1v-2.5h-5.4v-1h1.7v-3.4
	h3.7v-1.7h-2.9c-0.1,0.1-0.2,0.2-0.2,0.3c-0.5,0.6-1.1,1.2-1.8,1.8l-0.6-1.1c0.5-0.3,1.1-0.8,1.6-1.5c0.4-0.5,0.8-1.1,1.2-1.9
	L239.8,212.4L239.8,212.4z M241.7,216.9h-2.6v2.4h2.6V216.9z"/>
<path class="st0" d="M251,212c-0.1,0.6-0.3,1.2-0.6,1.7h1.6v2.5c0.3-0.6,0.6-1.1,0.8-1.7c0.2-0.7,0.4-1.6,0.6-2.7l1.1,0.2
	c-0.1,0.7-0.2,1.2-0.3,1.7h3.5c0,4.2-0.1,6.7-0.2,7.5c-0.1,0.6-0.3,1-0.6,1.2c-0.3,0.2-0.9,0.4-1.8,0.4c-0.2,0-0.5,0-0.8-0.1
	l-0.2-1.2c0.3,0.1,0.7,0.1,1,0.1c0.7,0,1.1-0.2,1.2-0.8c0.1-0.6,0.2-2.7,0.2-6.1h-2.7c0,0.1-0.1,0.2-0.1,0.2
	c-0.2,0.9-0.7,1.8-1.3,2.8l-0.5-0.7v4.9h-1v-0.6H249v0.9h-1v-8.5h1.4c0.2-0.6,0.4-1.2,0.6-1.9L251,212L251,212z M251.1,217.1v-2.3
	H249v2.3H251.1z M251.1,220.4V218H249v2.4H251.1z M255.8,219.2l-1.1,0.7c-0.3-0.9-0.8-1.9-1.3-3l0.9-0.6
	C254.9,217.5,255.4,218.4,255.8,219.2L255.8,219.2z"/>
<path class="st0" d="M262,212.3c0,0.1,0,0.2-0.1,0.2h2.9v-0.7h1v0.7h3.3v0.9h-3.3v0.6h2.7v3.4c0.3,0.5,0.6,1,0.8,1.4l-0.8,0.6
	c-0.1-0.2-0.2-0.4-0.2-0.6c-0.1,0-0.3,0-0.4,0v0.7h1.5v0.9h-1.5v1.3c0,0.4-0.1,0.7-0.3,0.8c-0.2,0.2-0.5,0.3-0.9,0.3h-1.1l-0.2-1.1
	c0.4,0.1,0.7,0.1,1,0.1c0.3,0,0.4-0.1,0.4-0.3v-1.1h-3.2c0.5,0.5,0.8,0.9,1.1,1.3l-1,0.7c-0.3-0.5-0.7-1-1.1-1.6l0.5-0.3h-1.5v-0.9
	h5.2v-0.7c-1.5,0.1-3.1,0.2-4.9,0.2l-0.2-0.9c1.1,0,2.1,0,3.2-0.1v-0.6h-2.7V214h2.7v-0.6h-2.9v-0.7c-0.2,0.7-0.5,1.4-0.7,1.9v8.1
	h-1v-6.3c-0.3,0.5-0.6,0.9-0.9,1.3l-0.3-1.3c0.4-0.6,0.8-1.3,1.2-2c0.3-0.6,0.7-1.5,1-2.6L262,212.3L262,212.3z M264.8,215.4v-0.6
	h-1.7v0.6H264.8z M264.8,216.1h-1.7v0.6h1.7V216.1z M265.9,215.4h1.7v-0.6h-1.7V215.4z M267.6,216.1h-1.7v0.6h1.7V216.1z M265.9,218
	c0.7,0,1.4-0.1,2-0.1c-0.1-0.1-0.1-0.2-0.1-0.3l0.4-0.2h-2.3L265.9,218L265.9,218z"/>
<path class="st0" d="M279.2,214.5v1h-2.4c-0.3,0.3-0.6,0.5-0.9,0.7c0.4,0.5,0.7,1.1,0.9,1.6c0.8-0.4,1.6-1,2.4-1.7l0.8,0.8
	c-0.5,0.5-1,0.9-1.5,1.2c0.2,0.6,0.6,1.2,0.9,1.7c0.4,0.5,0.9,1,1.5,1.6l-0.7,1c-0.7-0.7-1.3-1.4-1.8-2.1c-0.3-0.5-0.6-1.1-0.8-1.7
	c-0.2,0.1-0.3,0.2-0.5,0.2c0.1,0.5,0.2,1,0.2,1.5c0,0.9-0.1,1.6-0.4,1.9c-0.3,0.4-1.1,0.6-2.4,0.6l-0.4-1.2c0,0.1,0.2,0.1,0.6,0.1
	c0.6,0,1-0.1,1.1-0.2c0.2-0.2,0.3-0.7,0.3-1.3c0-0.2,0-0.4,0-0.5c-0.6,0.5-1.2,0.9-1.7,1.2c-0.8,0.5-1.9,0.9-3.1,1.3l-0.6-1
	c1.2-0.3,2.3-0.8,3.3-1.3c0.7-0.4,1.4-0.8,2-1.4c0-0.1-0.1-0.2-0.1-0.3c0-0.1-0.1-0.2-0.1-0.3c-0.6,0.5-1.2,0.8-1.7,1
	c-0.7,0.4-1.7,0.7-2.8,1.1l-0.5-1c1.1-0.3,2.1-0.6,2.9-1c0.6-0.3,1.2-0.6,1.7-1c-0.1-0.1-0.2-0.3-0.3-0.5c-1,0.5-2.1,0.8-3.4,1.1
	l-0.6-1c1.4-0.3,2.5-0.6,3.3-0.9c0.3-0.1,0.7-0.3,1-0.4h-3.2v-1L279.2,214.5L279.2,214.5z M276.1,212.7h4.5v2.4h-1v-1.4h-7.8v1.4h-1
	v-2.4h4.2c-0.1-0.2-0.3-0.5-0.4-0.7l1.2-0.2C275.9,212.1,276,212.4,276.1,212.7z"/>
<path class="st0" d="M286.3,212.2c-0.1,0.4-0.3,0.7-0.4,1h3.6v0.9c-0.5,1.5-1,2.7-1.6,3.7c0.4,0.8,0.9,1.4,1.5,2
	c0.6,0.7,1.6,1.3,2.9,2l-0.9,1.1c-1-0.6-1.8-1.2-2.4-1.7c-0.7-0.7-1.3-1.4-1.8-2.3c-0.1,0.1-0.1,0.1-0.1,0.2
	c-1.2,1.5-2.6,2.8-4.4,3.8l-0.8-1c2.1-1.4,3.6-2.6,4.4-3.8c0.8-1,1.4-2.2,1.8-3.7h-2.8c-0.2,0.3-0.3,0.6-0.4,0.7
	c-0.4,0.7-1,1.4-2,2.3l-0.9-0.8c0.8-0.7,1.5-1.5,2-2.2c0.5-0.7,0.9-1.6,1.2-2.7L286.3,212.2L286.3,212.2z"/>
<path class="st0" d="M296.1,214.7v0.8c-0.4,0.7-0.8,1.3-1.4,2.1h1.4v0.7c-0.2,0.8-0.3,1.4-0.5,1.8c0.4,0.5,0.8,0.9,1,1
	c0.2,0.2,0.6,0.3,1.1,0.3c0.5,0.1,1.6,0.1,3.3,0.2c1.2,0,2.1,0,2.7-0.1l-0.1,1.1c-3.1,0-5.1-0.1-5.8-0.1c-0.6-0.1-1.1-0.2-1.5-0.4
	c-0.3-0.2-0.7-0.5-1.1-1c-0.3,0.6-0.7,1.1-1.2,1.8l-0.8-0.8c0.6-0.6,1-1.2,1.2-1.6c0.2-0.3,0.4-0.9,0.7-1.7h-1.6v-0.9
	c0.5-0.5,1-1.2,1.5-2h-1.7v-0.9H296.1z M295.8,213.6l-0.7,0.7c-0.3-0.5-0.8-1.1-1.3-1.8l0.7-0.7
	C294.9,212.5,295.4,213.1,295.8,213.6L295.8,213.6z M303.1,215.6v2.5h-3c-0.2,0.2-0.3,0.3-0.5,0.5v2.6h-1v-1.8
	c-0.5,0.3-1.1,0.7-1.8,1l-0.5-0.9c0.6-0.2,1.2-0.5,1.8-0.9c0.2-0.1,0.4-0.3,0.6-0.5h-1.7v-2.5L303.1,215.6L303.1,215.6z
	 M299.5,212.6v-0.7h1v0.7h2.6v0.9h-2.6v0.7h3v0.9h-7v-0.9h3v-0.7h-2.6v-0.9H299.5L299.5,212.6z M302.1,216.5h-4.2v0.7h4.2V216.5z
	 M301.3,219.3c0.4-0.4,0.7-0.7,0.9-1l0.8,0.5c-0.2,0.3-0.5,0.6-0.9,0.9c0.4,0.2,0.8,0.5,1.2,0.7l-0.5,0.9c-1-0.7-2-1.3-3-1.7
	l0.5-0.7C300.6,219,301,219.1,301.3,219.3L301.3,219.3z"/>
<path class="st1" d="M63.5,0.9H336"/>
<path class="st1" d="M63.5,247.9H336"/>
</svg>
