<?xml version="1.0" encoding="utf-8"?>
<!-- Generator: Adobe Illustrator 27.0.0, SVG Export Plug-In . SVG Version: 6.00 Build 0)  -->
<svg version="1.1" id="圖層_1" xmlns="http://www.w3.org/2000/svg" xmlns:xlink="http://www.w3.org/1999/xlink" x="0px" y="0px"
	 viewBox="0 0 400 25" style="enable-background:new 0 0 400 25;" xml:space="preserve">
<style type="text/css">
	.st0{fill:#D8B167;}
</style>
<path class="st0" d="M131,3.6c0-0.4,0-0.7,0-1c0-0.3,0-0.7,0-1c0.1,0,0.3,0,0.4,0c0.1,0,0.3,0,0.4,0c0.1,0,0.3,0,0.4,0
	c0.1,0,0.3,0,0.4,0c0.2,0,0.4,0,0.6,0c0.2,0,0.4,0.1,0.5,0.2c0.1,0.1,0.3,0.2,0.4,0.4s0.1,0.3,0.1,0.6c0,0.4-0.1,0.7-0.4,0.9
	c-0.2,0.2-0.6,0.4-1,0.5v0c0.5,0,0.8,0.1,1.1,0.3c0.3,0.2,0.4,0.5,0.4,1c0,0.3-0.1,0.6-0.2,0.8c-0.1,0.2-0.3,0.4-0.5,0.5
	c-0.2,0.1-0.4,0.2-0.6,0.3C133,7,132.8,7,132.5,7c-0.1,0-0.3,0-0.4,0s-0.3,0-0.4,0h-0.4c-0.1,0-0.3,0-0.4,0c0-0.3,0-0.7,0-1
	c0-0.3,0-0.7,0-1L131,3.6L131,3.6z M132.1,4c0.2,0,0.4,0,0.6-0.1c0.2,0,0.4-0.1,0.5-0.2c0.1-0.1,0.3-0.2,0.3-0.4
	c0.1-0.2,0.1-0.3,0.1-0.6s0-0.4-0.1-0.5c-0.1-0.1-0.2-0.2-0.3-0.3c-0.1-0.1-0.3-0.1-0.4-0.1c-0.2,0-0.3,0-0.5,0c-0.1,0-0.3,0-0.4,0
	c-0.1,0-0.2,0-0.3,0c0,0.3,0,0.5,0,0.8s0,0.5,0,0.8V4H132.1z M131.7,5.1c0,0.3,0,0.5,0,0.8c0,0.3,0,0.5,0,0.8c0.1,0,0.2,0,0.4,0
	c0.1,0,0.3,0,0.4,0c0.2,0,0.3,0,0.5-0.1c0.2-0.1,0.3-0.2,0.4-0.3c0.1-0.1,0.2-0.3,0.3-0.4c0.1-0.2,0.1-0.4,0.1-0.6
	c0-0.2,0-0.4-0.1-0.6c-0.1-0.1-0.2-0.3-0.4-0.3c-0.1-0.1-0.3-0.1-0.6-0.2c-0.2,0-0.5,0-0.7,0h-0.4L131.7,5.1L131.7,5.1z"/>
<path class="st0" d="M135.4,5.2c0-0.7,0.2-1.2,0.5-1.5s0.8-0.6,1.4-0.6c0.3,0,0.5,0,0.7,0.1c0.2,0.1,0.4,0.2,0.5,0.4
	c0.1,0.1,0.2,0.3,0.3,0.5c0.1,0.2,0.1,0.4,0.1,0.6c0,0.1,0,0.1,0,0.2c0,0.1,0,0.1,0,0.2c-0.3,0-0.6,0-0.9,0c-0.3,0-0.6,0-0.9,0
	c-0.2,0-0.3,0-0.5,0c-0.2,0-0.4,0-0.5,0c0,0,0,0.1,0,0.1v0.1c0,0.2,0,0.4,0.1,0.6c0.1,0.2,0.1,0.3,0.3,0.5c0.1,0.1,0.3,0.2,0.4,0.3
	s0.4,0.1,0.6,0.1c0.1,0,0.2,0,0.3,0s0.2-0.1,0.3-0.1c0.1-0.1,0.2-0.1,0.3-0.2c0.1-0.1,0.2-0.1,0.2-0.2l0,0l-0.1,0.4
	c-0.2,0.1-0.4,0.2-0.6,0.3c-0.2,0.1-0.5,0.1-0.7,0.1c-0.3,0-0.6,0-0.8-0.1c-0.2-0.1-0.4-0.2-0.6-0.4c-0.2-0.2-0.3-0.4-0.4-0.6
	S135.4,5.5,135.4,5.2L135.4,5.2z M137.3,3.4c-0.2,0-0.4,0-0.5,0.1c-0.1,0.1-0.2,0.2-0.3,0.3c-0.1,0.1-0.1,0.3-0.2,0.5
	c-0.1,0.2-0.1,0.3-0.1,0.5c0.2,0,0.3,0,0.5,0c0.2,0,0.4,0,0.5,0s0.3,0,0.5,0c0.2,0,0.4,0,0.5,0c0-0.1,0-0.3,0-0.5
	c0-0.2-0.1-0.3-0.1-0.5c-0.1-0.1-0.2-0.2-0.3-0.3C137.7,3.4,137.5,3.4,137.3,3.4L137.3,3.4z"/>
<path class="st0" d="M139.8,3.6c0.2-0.2,0.5-0.3,0.7-0.4c0.2-0.1,0.4-0.1,0.6-0.1c0.2,0,0.4,0,0.5,0.1c0.2,0.1,0.3,0.1,0.4,0.2
	c0.1,0.1,0.2,0.2,0.3,0.4c0.1,0.2,0.1,0.3,0.1,0.5c0,0.3,0,0.6,0,0.9c0,0.3,0,0.6,0,1c0,0.1,0,0.1,0,0.2s0,0.1,0,0.2
	c0,0.1,0.1,0.1,0.1,0.1c0,0,0.1,0.1,0.2,0.1c0,0,0.1,0,0.1,0s0.1,0,0.1,0v0.2c-0.1,0-0.1,0.1-0.2,0.1c-0.1,0-0.2,0-0.3,0
	c-0.2,0-0.3,0-0.4-0.1c-0.1-0.1-0.1-0.2-0.2-0.3c-0.2,0.2-0.4,0.3-0.6,0.4c-0.2,0.1-0.4,0.1-0.7,0.1c-0.1,0-0.3,0-0.4-0.1
	s-0.2-0.1-0.3-0.2c-0.1-0.1-0.2-0.2-0.2-0.3c-0.1-0.1-0.1-0.3-0.1-0.4c0-0.3,0.1-0.6,0.3-0.7c0.2-0.2,0.5-0.3,0.8-0.4
	c0.3,0,0.5-0.1,0.7-0.1c0.2,0,0.3-0.1,0.4-0.1c0.1,0,0.1-0.1,0.1-0.1c0-0.1,0-0.1,0-0.2c0-0.1,0-0.3-0.1-0.4c0-0.1-0.1-0.2-0.1-0.3
	c-0.1-0.1-0.2-0.2-0.3-0.2s-0.2-0.1-0.4-0.1c-0.2,0-0.4,0-0.6,0.1c-0.2,0.1-0.3,0.2-0.4,0.4h-0.1L139.8,3.6L139.8,3.6z M141.8,5
	c-0.1,0-0.2,0.1-0.3,0.1s-0.2,0-0.4,0.1c-0.1,0-0.2,0.1-0.4,0.1s-0.2,0.1-0.3,0.1c-0.1,0.1-0.2,0.1-0.2,0.2
	c-0.1,0.1-0.1,0.2-0.1,0.4c0,0.2,0.1,0.4,0.2,0.6c0.1,0.1,0.3,0.2,0.5,0.2c0.2,0,0.4-0.1,0.6-0.2s0.3-0.2,0.4-0.4L141.8,5L141.8,5z"
	/>
<path class="st0" d="M143.8,5.8c0-0.3,0-0.5,0-0.7c0-0.2,0-0.4,0-0.6c0-0.2,0-0.4,0-0.6s0-0.4,0-0.7c0.1,0,0.2,0,0.3,0
	c0.1,0,0.2,0,0.3,0c0,0.3-0.1,0.7-0.1,1c0,0.4,0,0.8,0,1.2c0,0.3,0,0.5,0.1,0.6c0.1,0.2,0.1,0.3,0.2,0.3c0.1,0.1,0.2,0.2,0.3,0.2
	c0.1,0.1,0.2,0.1,0.4,0.1c0.2,0,0.4-0.1,0.6-0.2c0.1-0.1,0.3-0.2,0.3-0.4c0-0.1,0.1-0.2,0.1-0.2s0-0.1,0.1-0.3c0-0.1,0-0.3,0-0.4
	s0-0.4,0-0.7V3.9c0-0.1,0-0.2,0-0.3c0-0.1,0-0.2,0-0.3c0.1,0,0.1,0,0.2,0c0.1,0,0.1,0,0.2,0s0.1,0,0.2,0c0.1,0,0.1,0,0.2,0
	c0,0.4,0,0.8-0.1,1.2c0,0.4,0,0.8,0,1.2c0,0.2,0,0.5,0,0.7s0,0.5,0,0.7c-0.1,0-0.2,0-0.3,0c-0.1,0-0.2,0-0.3,0c0,0,0-0.1,0-0.2
	c0-0.1,0-0.1,0-0.2V6.3h0c-0.1,0.3-0.3,0.4-0.5,0.6s-0.5,0.2-0.7,0.2c-0.4,0-0.7-0.1-1-0.3C143.9,6.5,143.8,6.2,143.8,5.8L143.8,5.8
	z"/>
<path class="st0" d="M148.9,2.2c0,0.2,0,0.4,0,0.6c0,0.2,0,0.4,0,0.6c0.1,0,0.2,0,0.3,0c0.2,0,0.3,0,0.5,0c0,0,0,0,0,0.1v0.2
	c0,0,0,0.1,0,0.1c-0.1,0-0.1,0-0.2,0c-0.1,0-0.1,0-0.2,0h-0.4c0,0,0,0.1,0,0.3c0,0.2,0,0.3,0,0.5c0,0.2,0,0.4,0,0.6
	c0,0.2,0,0.4,0,0.6c0,0.2,0,0.3,0,0.4c0,0.1,0,0.3,0.1,0.4c0,0.1,0.1,0.2,0.2,0.3c0.1,0.1,0.2,0.1,0.4,0.1c0,0,0.1,0,0.2,0
	c0.1,0,0.1,0,0.2,0V7c-0.1,0-0.2,0-0.3,0.1s-0.2,0-0.3,0c-0.3,0-0.6-0.1-0.7-0.2s-0.2-0.4-0.2-0.7c0-0.1,0-0.3,0-0.5s0-0.4,0-0.6
	c0-0.2,0-0.4,0-0.7c0-0.2,0-0.5,0-0.8H148c0,0-0.1,0-0.1,0c0,0-0.1,0-0.1,0c0,0,0-0.1,0-0.1c0,0,0-0.1,0-0.1c0,0,0-0.1,0-0.1
	s0,0,0-0.1c0.2,0,0.4,0,0.5,0c0-0.1,0-0.2,0-0.4c0-0.2,0-0.3,0-0.5L148.9,2.2L148.9,2.2L148.9,2.2z"/>
<path class="st0" d="M151.6,7c-0.1-0.1-0.1-0.3-0.2-0.6c-0.1-0.2-0.2-0.5-0.3-0.7c-0.1-0.2-0.2-0.5-0.3-0.8
	c-0.1-0.3-0.2-0.5-0.3-0.7c-0.1-0.2-0.2-0.4-0.3-0.6c-0.1-0.2-0.1-0.3-0.2-0.4c0.1,0,0.1,0,0.2,0c0.1,0,0.1,0,0.2,0s0.1,0,0.2,0
	c0.1,0,0.1,0,0.2,0c0.2,0.5,0.4,1,0.6,1.5s0.4,1,0.6,1.5c0.2-0.5,0.4-1,0.6-1.5s0.4-1.1,0.6-1.6c0.1,0,0.2,0,0.3,0
	c0.1,0,0.2,0,0.3,0c0,0.1-0.1,0.2-0.2,0.4s-0.2,0.4-0.3,0.6c-0.1,0.2-0.2,0.5-0.4,0.8c-0.1,0.3-0.3,0.6-0.4,0.9
	c-0.1,0.3-0.3,0.6-0.4,0.9c-0.1,0.3-0.3,0.6-0.4,0.9c-0.1,0.3-0.2,0.5-0.3,0.8c-0.1,0.2-0.2,0.4-0.2,0.5c-0.1,0-0.2,0-0.3,0
	c-0.1,0-0.2,0-0.3,0C150.9,8.4,151.3,7.7,151.6,7L151.6,7z"/>
<path class="st0" d="M156.9,2.7c0-0.2,0-0.4,0-0.6c0-0.2,0-0.4,0-0.6c0-0.2,0-0.4,0-0.5c0.2,0,0.3,0,0.4,0c0.1,0,0.2,0,0.4,0
	c0,0.1,0,0.3,0,0.5c0,0.2,0,0.4,0,0.6c0,0.2,0,0.4,0,0.6c0,0.2,0,0.4,0,0.6v1.4c0,0.2,0,0.4,0,0.6c0,0.2,0,0.4,0,0.6
	c0,0.2,0,0.4,0,0.6c0,0.2,0,0.3,0,0.5c-0.1,0-0.2,0-0.4,0c-0.1,0-0.2,0-0.4,0c0-0.1,0-0.3,0-0.5c0-0.2,0-0.4,0-0.6
	c0-0.2,0-0.4,0-0.6c0-0.2,0-0.4,0-0.6V3.3C156.9,3.1,156.9,2.9,156.9,2.7z"/>
<path class="st0" d="M159,1.8c0-0.1,0-0.2,0.1-0.3c0.1-0.1,0.2-0.1,0.3-0.1s0.2,0,0.3,0.1c0.1,0.1,0.1,0.2,0.1,0.3s0,0.2-0.1,0.3
	c-0.1,0.1-0.2,0.1-0.3,0.1s-0.2,0-0.3-0.1C159,2,159,1.9,159,1.8z M159.1,4.7c0-0.2,0-0.5,0-0.8c0-0.3,0-0.5-0.1-0.7
	c0.1,0,0.3,0,0.4,0s0.2,0,0.4,0c0,0.2,0,0.5-0.1,0.7c0,0.3,0,0.5,0,0.8v0.8c0,0.2,0,0.5,0,0.8c0,0.3,0,0.5,0.1,0.7
	c-0.1,0-0.2,0-0.4,0s-0.2,0-0.4,0c0-0.2,0-0.5,0.1-0.7c0-0.3,0-0.5,0-0.8V4.7z"/>
<path class="st0" d="M160.8,5.2c0-0.7,0.2-1.2,0.5-1.5s0.8-0.6,1.4-0.6c0.3,0,0.5,0,0.7,0.1c0.2,0.1,0.4,0.2,0.5,0.4
	c0.1,0.1,0.2,0.3,0.3,0.5c0.1,0.2,0.1,0.4,0.1,0.6c0,0.1,0,0.1,0,0.2c0,0.1,0,0.1,0,0.2c-0.3,0-0.6,0-0.9,0c-0.3,0-0.6,0-0.9,0
	c-0.2,0-0.4,0-0.5,0s-0.4,0-0.5,0c0,0,0,0.1,0,0.1v0.1c0,0.2,0,0.4,0.1,0.6c0.1,0.2,0.2,0.3,0.3,0.5s0.3,0.2,0.4,0.3
	c0.2,0.1,0.4,0.1,0.6,0.1c0.1,0,0.2,0,0.3,0c0.1,0,0.2-0.1,0.3-0.1c0.1-0.1,0.2-0.1,0.3-0.2c0.1-0.1,0.2-0.1,0.2-0.2l0,0l0,0.4
	c-0.2,0.1-0.4,0.2-0.6,0.3c-0.2,0.1-0.5,0.1-0.7,0.1c-0.3,0-0.6,0-0.8-0.1c-0.2-0.1-0.4-0.2-0.6-0.4c-0.2-0.2-0.3-0.4-0.4-0.6
	S160.8,5.5,160.8,5.2L160.8,5.2z M162.6,3.4c-0.2,0-0.4,0-0.5,0.1c-0.1,0.1-0.2,0.2-0.3,0.3c-0.1,0.1-0.2,0.3-0.2,0.5
	c0,0.2-0.1,0.3-0.1,0.5c0.2,0,0.3,0,0.5,0c0.2,0,0.4,0,0.5,0s0.3,0,0.5,0c0.2,0,0.4,0,0.5,0c0-0.1,0-0.3,0-0.5
	c0-0.2-0.1-0.3-0.1-0.5c-0.1-0.1-0.2-0.2-0.3-0.3C163,3.4,162.8,3.4,162.6,3.4L162.6,3.4z"/>
<path class="st0" d="M165.2,6.4c0.1,0.1,0.1,0.1,0.2,0.2c0.1,0.1,0.2,0.1,0.3,0.1s0.2,0.1,0.3,0.1c0.1,0,0.2,0,0.3,0
	c0.1,0,0.2-0.1,0.2-0.1c0.1-0.1,0.1-0.1,0.2-0.2c0-0.1,0.1-0.2,0.1-0.3c0-0.2-0.1-0.3-0.1-0.4s-0.2-0.2-0.3-0.2
	c-0.1-0.1-0.3-0.1-0.5-0.2s-0.3-0.1-0.5-0.2c-0.1-0.1-0.2-0.2-0.3-0.3c-0.1-0.1-0.1-0.3-0.1-0.5c0-0.2,0-0.3,0.1-0.5
	c0.1-0.2,0.1-0.3,0.3-0.4c0.1-0.1,0.2-0.2,0.4-0.2c0.2-0.1,0.4-0.1,0.6-0.1c0.2,0,0.4,0,0.5,0.1s0.3,0.1,0.4,0.1
	c0,0.1-0.1,0.2-0.1,0.3c0,0.1-0.1,0.2-0.1,0.3h-0.1c0-0.1-0.1-0.2-0.2-0.3c-0.1-0.1-0.3-0.1-0.5-0.1c-0.1,0-0.2,0-0.2,0
	c-0.1,0-0.1,0.1-0.2,0.1c-0.1,0.1-0.1,0.1-0.2,0.2c0,0.1-0.1,0.2-0.1,0.3c0,0.2,0.1,0.3,0.1,0.4c0.1,0.1,0.2,0.2,0.3,0.2
	s0.3,0.1,0.5,0.1c0.2,0,0.3,0.1,0.5,0.2s0.2,0.2,0.4,0.3c0.1,0.1,0.1,0.3,0.1,0.5c0,0.2,0,0.3-0.1,0.5c-0.1,0.2-0.2,0.3-0.3,0.4
	c-0.1,0.1-0.3,0.2-0.4,0.3c-0.2,0.1-0.4,0.1-0.6,0.1c-0.2,0-0.4,0-0.6-0.1c-0.2,0-0.3-0.1-0.4-0.2c0-0.1,0.1-0.2,0.1-0.3
	c0-0.1,0.1-0.2,0.1-0.3h0.1C165.1,6.3,165.1,6.4,165.2,6.4L165.2,6.4z"/>
<path class="st0" d="M170.5,1.8c0-0.1,0-0.2,0.1-0.3c0.1-0.1,0.2-0.1,0.3-0.1s0.2,0,0.3,0.1c0.1,0.1,0.1,0.2,0.1,0.3s0,0.2-0.1,0.3
	s-0.2,0.1-0.3,0.1s-0.2,0-0.3-0.1S170.5,1.9,170.5,1.8z M170.6,4.7c0-0.2,0-0.5,0-0.8c0-0.3,0-0.5-0.1-0.7c0.2,0,0.3,0,0.4,0
	c0.1,0,0.2,0,0.4,0c0,0.2,0,0.5-0.1,0.7c0,0.3,0,0.5,0,0.8v0.8c0,0.2,0,0.5,0,0.8c0,0.3,0,0.5,0.1,0.7c-0.1,0-0.2,0-0.4,0
	c-0.1,0-0.2,0-0.4,0c0-0.2,0-0.5,0.1-0.7c0-0.3,0-0.5,0-0.8V4.7z"/>
<path class="st0" d="M175,3.9c-0.2-0.2-0.4-0.3-0.6-0.3c-0.4,0-0.6,0.1-0.8,0.3c-0.2,0.2-0.3,0.5-0.3,1v0.7c0,0.2,0,0.5,0,0.8
	c0,0.3,0,0.5,0.1,0.7c-0.1,0-0.2,0-0.4,0c-0.1,0-0.2,0-0.4,0c0-0.2,0-0.4,0-0.7c0-0.3,0-0.5,0-0.8V4.7c0-0.2,0-0.5,0-0.8
	c0-0.3,0-0.5,0-0.7c0.1,0,0.3,0,0.4,0c0,0,0.1,0,0.1,0c0,0,0.1,0,0.2,0c0,0.2,0,0.4,0,0.6h0c0.2-0.2,0.3-0.4,0.5-0.5
	c0.2-0.1,0.5-0.2,0.7-0.2c0.2,0,0.3,0,0.5,0.1c0.1,0,0.3,0.1,0.4,0.2c0.1,0.1,0.2,0.2,0.3,0.4c0.1,0.2,0.1,0.4,0.1,0.7
	c0,0.2,0,0.5,0,0.7c0,0.2,0,0.5,0,0.8v0.5c0,0.1,0,0.2,0,0.2s0,0.2,0,0.2c-0.1,0-0.2,0-0.3,0s-0.2,0-0.3,0c0-0.3,0-0.6,0-0.9
	c0-0.3,0-0.6,0-0.9V4.7C175.3,4.3,175.2,4,175,3.9L175,3.9z"/>
<path class="st0" d="M180.1,2.2c0,0.2,0,0.4,0,0.6c0,0.2,0,0.4,0,0.6c0.1,0,0.2,0,0.3,0s0.3,0,0.5,0c0,0,0,0,0,0.1v0.2
	c0,0,0,0.1,0,0.1c-0.1,0-0.1,0-0.2,0c-0.1,0-0.2,0-0.2,0H180c0,0,0,0.1,0,0.3c0,0.2,0,0.3,0,0.5c0,0.2,0,0.4,0,0.6
	c0,0.2,0,0.4,0,0.6c0,0.2,0,0.3,0,0.4c0,0.1,0,0.3,0.1,0.4c0,0.1,0.1,0.2,0.2,0.3c0.1,0.1,0.2,0.1,0.4,0.1c0,0,0.1,0,0.2,0
	c0.1,0,0.1,0,0.2,0V7c-0.1,0-0.2,0-0.3,0.1s-0.2,0-0.3,0c-0.3,0-0.6-0.1-0.7-0.2c-0.2-0.2-0.2-0.4-0.2-0.7c0-0.1,0-0.3,0-0.5
	s0-0.4,0-0.6c0-0.2,0-0.4,0-0.7c0-0.2,0-0.5,0-0.8h-0.3c0,0-0.1,0-0.1,0s-0.1,0-0.1,0c0,0,0-0.1,0-0.1c0,0,0-0.1,0-0.1
	c0,0,0-0.1,0-0.1s0,0,0-0.1c0.2,0,0.4,0,0.5,0c0-0.1,0-0.2,0-0.4c0-0.2,0-0.3,0-0.5L180.1,2.2L180.1,2.2L180.1,2.2z"/>
<path class="st0" d="M181.6,2.7c0-0.2,0-0.4,0-0.6c0-0.2,0-0.4,0-0.6c0-0.2,0-0.4,0-0.5c0.1,0,0.3,0,0.4,0c0.1,0,0.2,0,0.4,0
	c0,0.1,0,0.3,0,0.5c0,0.2,0,0.4,0,0.6c0,0.2,0,0.4,0,0.6c0,0.2,0,0.4,0,0.6v0.6h0c0.1-0.2,0.3-0.4,0.5-0.5c0.2-0.1,0.5-0.2,0.7-0.2
	c0.1,0,0.3,0,0.4,0.1c0.2,0,0.3,0.1,0.4,0.2c0.1,0.1,0.2,0.3,0.3,0.4c0.1,0.2,0.1,0.4,0.1,0.7c0,0.2,0,0.5,0,0.7c0,0.2,0,0.5,0,0.8
	v0.5c0,0.1,0,0.2,0,0.2s0,0.2,0,0.2c-0.1,0-0.2,0-0.3,0s-0.2,0-0.3,0c0-0.3,0-0.6,0-0.9c0-0.3,0-0.6,0-0.9V4.8
	c0-0.4-0.1-0.7-0.2-0.9s-0.4-0.3-0.6-0.3c-0.4,0-0.7,0.1-0.8,0.3c-0.2,0.2-0.3,0.5-0.3,1c0,0.2,0,0.3,0,0.5s0,0.4,0,0.6
	c0,0.2,0,0.4,0,0.6c0,0.2,0,0.3,0,0.5c-0.1,0-0.2,0-0.4,0c-0.1,0-0.2,0-0.4,0c0-0.1,0-0.3,0-0.5c0-0.2,0-0.4,0-0.6s0-0.4,0-0.6
	c0-0.2,0-0.4,0-0.6V3.3C181.6,3.1,181.6,2.9,181.6,2.7L181.6,2.7z"/>
<path class="st0" d="M185.7,5.2c0-0.7,0.2-1.2,0.5-1.5s0.8-0.6,1.4-0.6c0.3,0,0.5,0,0.7,0.1c0.2,0.1,0.4,0.2,0.5,0.4
	c0.1,0.1,0.2,0.3,0.3,0.5c0.1,0.2,0.1,0.4,0.1,0.6c0,0.1,0,0.1,0,0.2c0,0.1,0,0.1,0,0.2c-0.3,0-0.6,0-0.9,0c-0.3,0-0.6,0-0.9,0
	c-0.2,0-0.3,0-0.5,0c-0.2,0-0.3,0-0.5,0c0,0,0,0.1,0,0.1v0.1c0,0.2,0,0.4,0.1,0.6c0.1,0.2,0.1,0.3,0.3,0.5c0.1,0.1,0.3,0.2,0.4,0.3
	s0.4,0.1,0.6,0.1c0.1,0,0.2,0,0.3,0c0.1,0,0.2-0.1,0.3-0.1c0.1-0.1,0.2-0.1,0.3-0.2c0.1-0.1,0.2-0.1,0.2-0.2l0,0L189,6.6
	c-0.2,0.1-0.4,0.2-0.6,0.3c-0.2,0.1-0.5,0.1-0.7,0.1c-0.3,0-0.6,0-0.8-0.1c-0.2-0.1-0.4-0.2-0.6-0.4c-0.2-0.2-0.3-0.4-0.4-0.6
	S185.7,5.5,185.7,5.2L185.7,5.2z M187.5,3.4c-0.2,0-0.4,0-0.5,0.1c-0.1,0.1-0.2,0.2-0.3,0.3c-0.1,0.1-0.1,0.3-0.2,0.5
	c-0.1,0.2-0.1,0.3-0.1,0.5c0.2,0,0.3,0,0.5,0c0.2,0,0.4,0,0.5,0s0.3,0,0.5,0c0.2,0,0.4,0,0.5,0c0-0.1,0-0.3,0-0.5
	c0-0.2-0.1-0.3-0.1-0.5c-0.1-0.1-0.2-0.2-0.3-0.3C187.9,3.4,187.7,3.4,187.5,3.4L187.5,3.4z"/>
<path class="st0" d="M192,5.1c0-0.3,0.1-0.6,0.2-0.9s0.3-0.5,0.5-0.6c0.2-0.2,0.4-0.3,0.6-0.4c0.2-0.1,0.5-0.1,0.8-0.1
	c0.3,0,0.6,0,0.8,0.1c0.2,0.1,0.4,0.2,0.5,0.2c0,0.1-0.1,0.2-0.1,0.2c0,0.1-0.1,0.2-0.1,0.3h-0.1c0-0.1-0.1-0.1-0.2-0.2
	s-0.1-0.1-0.2-0.2c-0.1-0.1-0.2-0.1-0.3-0.1c-0.1,0-0.2-0.1-0.4-0.1c-0.2,0-0.4,0-0.6,0.1c-0.2,0.1-0.3,0.2-0.4,0.4
	c-0.1,0.2-0.2,0.3-0.2,0.5s-0.1,0.4-0.1,0.7c0,0.6,0.1,1,0.4,1.2c0.2,0.3,0.6,0.4,1,0.4c0.1,0,0.2,0,0.3,0c0.1,0,0.2-0.1,0.3-0.1
	c0.1,0,0.2-0.1,0.3-0.2c0.1-0.1,0.2-0.1,0.2-0.2l0,0c0,0.1,0,0.3,0,0.4c-0.2,0.1-0.4,0.2-0.6,0.3c-0.2,0.1-0.5,0.1-0.7,0.1
	c-0.2,0-0.5,0-0.7-0.1c-0.2-0.1-0.4-0.2-0.6-0.3s-0.3-0.4-0.4-0.6S192,5.5,192,5.1L192,5.1z"/>
<path class="st0" d="M195.9,5.1c0-0.4,0.1-0.7,0.2-0.9s0.3-0.5,0.4-0.6c0.2-0.2,0.4-0.3,0.6-0.3c0.2-0.1,0.5-0.1,0.7-0.1
	c0.2,0,0.5,0,0.7,0.1s0.4,0.2,0.6,0.3c0.2,0.2,0.3,0.4,0.4,0.6c0.1,0.3,0.2,0.6,0.2,0.9s-0.1,0.7-0.2,0.9c-0.1,0.2-0.3,0.5-0.4,0.6
	c-0.2,0.2-0.4,0.3-0.6,0.3s-0.5,0.1-0.7,0.1c-0.2,0-0.5,0-0.7-0.1c-0.2-0.1-0.4-0.2-0.6-0.3s-0.3-0.4-0.4-0.6
	C196,5.8,195.9,5.5,195.9,5.1z M196.6,5.1c0,0.2,0,0.4,0.1,0.6s0.1,0.4,0.2,0.6c0.1,0.2,0.2,0.3,0.4,0.4s0.4,0.1,0.6,0.1
	c0.2,0,0.4,0,0.6-0.1c0.2-0.1,0.3-0.2,0.4-0.4c0.1-0.2,0.2-0.3,0.2-0.6c0-0.2,0.1-0.4,0.1-0.6s0-0.4-0.1-0.7c0-0.2-0.1-0.4-0.2-0.6
	c-0.1-0.2-0.2-0.3-0.4-0.4c-0.2-0.1-0.4-0.1-0.6-0.1c-0.2,0-0.4,0-0.6,0.1c-0.2,0.1-0.3,0.2-0.4,0.4c-0.1,0.2-0.2,0.3-0.2,0.6
	S196.6,4.9,196.6,5.1z"/>
<path class="st0" d="M200.7,4c0-0.3,0-0.5-0.1-0.7c0.2,0,0.3,0,0.4,0c0,0,0.1,0,0.1,0c0.1,0,0.1,0,0.2,0c0,0.2,0,0.4,0,0.6h0
	c0.3-0.5,0.7-0.7,1.2-0.7c0.1,0,0.3,0,0.4,0.1s0.2,0.1,0.4,0.2c0.1,0.1,0.2,0.1,0.3,0.2c0.1,0.1,0.1,0.2,0.2,0.3h0
	c0.1-0.3,0.3-0.5,0.5-0.6c0.2-0.1,0.5-0.2,0.8-0.2c0.2,0,0.3,0,0.5,0.1c0.2,0,0.3,0.1,0.4,0.2c0.1,0.1,0.2,0.2,0.3,0.4
	c0.1,0.2,0.1,0.3,0.1,0.6c0,0.1,0,0.2,0,0.3c0,0.1,0,0.2,0,0.4c0,0.1,0,0.3,0,0.5c0,0.2,0,0.4,0,0.6c0,0.1,0,0.3,0,0.4
	c0,0.1,0,0.3,0,0.4c-0.1,0-0.1,0-0.2,0h-0.3c-0.1,0-0.1,0-0.2,0c0-0.1,0-0.4,0-0.8c0-0.4,0-1,0-1.7c0-0.1,0-0.3,0-0.4
	c0-0.1-0.1-0.2-0.1-0.3c-0.1-0.1-0.1-0.1-0.3-0.2c-0.1-0.1-0.2-0.1-0.4-0.1c-0.2,0-0.4,0-0.5,0.1c-0.1,0.1-0.2,0.2-0.3,0.3
	c0,0.1-0.1,0.1-0.1,0.2c0,0.1,0,0.1-0.1,0.3c0,0.1,0,0.3,0,0.5c0,0.2,0,0.5,0,0.9c0,0.2,0,0.4,0,0.6c0,0.2,0,0.4,0,0.6
	c-0.1,0-0.2,0-0.3,0s-0.2,0-0.3,0c0-0.3,0-0.6,0.1-0.9c0-0.3,0-0.6,0-0.9c0-0.2,0-0.4,0-0.6c0-0.1,0-0.2,0-0.3c0-0.1,0-0.2,0-0.2
	c0,0,0-0.1-0.1-0.2c-0.1-0.1-0.2-0.2-0.3-0.3c-0.1-0.1-0.2-0.1-0.4-0.1c-0.4,0-0.6,0.1-0.8,0.3c-0.2,0.2-0.2,0.5-0.2,1v0.7
	c0,0.2,0,0.5,0,0.8c0,0.3,0,0.5,0,0.7c-0.1,0-0.2,0-0.4,0c-0.1,0-0.2,0-0.4,0c0-0.2,0-0.4,0.1-0.7c0-0.3,0-0.5,0-0.8V4.7
	C200.7,4.4,200.7,4.2,200.7,4L200.7,4z"/>
<path class="st0" d="M210.8,5c0,0.3-0.1,0.6-0.1,0.9c-0.1,0.3-0.2,0.5-0.4,0.7S210,6.9,209.7,7c-0.2,0.1-0.5,0.1-0.7,0.1
	c-0.3,0-0.5,0-0.7-0.2c-0.2-0.1-0.4-0.2-0.5-0.4c-0.2,0.2-0.4,0.3-0.5,0.5h-0.1c0-0.1,0-0.3,0-0.5c0-0.2,0-0.4,0-0.6
	c0-0.2,0-0.4,0-0.6c0-0.2,0-0.4,0-0.6V3.3c0-0.2,0-0.4,0-0.6s0-0.4,0-0.6c0-0.2,0-0.4,0-0.6c0-0.2,0-0.4,0-0.5c0.1,0,0.3,0,0.4,0
	c0.1,0,0.1,0,0.2,0c0.1,0,0.1,0,0.2,0c0,0.1,0,0.3,0,0.5c0,0.2,0,0.5,0,0.8s0,0.6,0,0.9c0,0.3,0,0.6,0,0.8h0
	c0.2-0.3,0.4-0.5,0.6-0.6c0.2-0.1,0.5-0.2,0.8-0.2c0.3,0,0.5,0,0.7,0.2c0.2,0.1,0.4,0.2,0.5,0.4c0.1,0.2,0.2,0.4,0.3,0.6
	S210.8,4.8,210.8,5L210.8,5z M210.1,5c0-0.2,0-0.5-0.1-0.6c-0.1-0.2-0.1-0.4-0.2-0.5s-0.2-0.2-0.3-0.3c-0.1-0.1-0.3-0.1-0.4-0.1
	c-0.2,0-0.3,0-0.5,0.1c-0.2,0.1-0.3,0.2-0.4,0.3c-0.1,0.1-0.2,0.3-0.3,0.6c-0.1,0.2-0.1,0.5-0.1,0.8c0,1.1,0.4,1.6,1.2,1.6
	c0.2,0,0.3,0,0.5-0.1s0.3-0.2,0.4-0.4s0.2-0.4,0.2-0.6C210.1,5.5,210.1,5.3,210.1,5z"/>
<path class="st0" d="M211.9,1.8c0-0.1,0-0.2,0.1-0.3c0.1-0.1,0.2-0.1,0.3-0.1s0.2,0,0.3,0.1c0.1,0.1,0.1,0.2,0.1,0.3s0,0.2-0.1,0.3
	c-0.1,0.1-0.2,0.1-0.3,0.1s-0.2,0-0.3-0.1C211.9,2,211.9,1.9,211.9,1.8z M212,4.7c0-0.2,0-0.5,0-0.8c0-0.3,0-0.5,0-0.7
	c0.1,0,0.3,0,0.4,0c0.1,0,0.2,0,0.4,0c0,0.2,0,0.5-0.1,0.7c0,0.3,0,0.5,0,0.8v0.8c0,0.2,0,0.5,0,0.8c0,0.3,0,0.5,0.1,0.7
	c-0.1,0-0.2,0-0.4,0c-0.1,0-0.2,0-0.4,0c0-0.2,0-0.5,0-0.7c0-0.3,0-0.5,0-0.8V4.7z"/>
<path class="st0" d="M216.4,3.9c-0.1-0.2-0.4-0.3-0.6-0.3c-0.4,0-0.7,0.1-0.8,0.3c-0.2,0.2-0.3,0.5-0.3,1v0.7c0,0.2,0,0.5,0,0.8
	c0,0.3,0,0.5,0,0.7c-0.1,0-0.2,0-0.4,0s-0.2,0-0.4,0c0-0.2,0-0.4,0.1-0.7c0-0.3,0-0.5,0-0.8V4.7c0-0.2,0-0.5,0-0.8
	c0-0.3,0-0.5-0.1-0.7c0.2,0,0.3,0,0.4,0c0,0,0.1,0,0.1,0c0.1,0,0.1,0,0.2,0c0,0.2,0,0.4,0,0.6h0c0.2-0.2,0.3-0.4,0.5-0.5
	c0.2-0.1,0.5-0.2,0.7-0.2c0.1,0,0.3,0,0.4,0.1c0.2,0,0.3,0.1,0.4,0.2c0.1,0.1,0.2,0.2,0.3,0.4c0.1,0.2,0.1,0.4,0.1,0.7
	c0,0.2,0,0.5,0,0.7c0,0.2,0,0.5,0,0.8v0.5c0,0.1,0,0.2,0,0.2s0,0.2,0,0.2c-0.1,0-0.2,0-0.3,0s-0.2,0-0.3,0c0-0.3,0-0.6,0-0.9
	c0-0.3,0-0.6,0-0.9V4.7C216.6,4.3,216.5,4,216.4,3.9L216.4,3.9z"/>
<path class="st0" d="M218.5,3.6c0.2-0.2,0.5-0.3,0.7-0.4c0.2-0.1,0.4-0.1,0.6-0.1c0.2,0,0.4,0,0.5,0.1c0.2,0.1,0.3,0.1,0.4,0.2
	c0.1,0.1,0.2,0.2,0.3,0.4c0.1,0.2,0.1,0.3,0.1,0.5c0,0.3,0,0.6,0,0.9c0,0.3,0,0.6,0,1c0,0.1,0,0.1,0,0.2s0,0.1,0,0.2
	c0,0.1,0.1,0.1,0.1,0.1c0,0,0.1,0.1,0.2,0.1c0,0,0,0,0.1,0c0,0,0.1,0,0.1,0v0.2c-0.1,0-0.1,0.1-0.2,0.1c-0.1,0-0.2,0-0.3,0
	c-0.2,0-0.3,0-0.4-0.1c-0.1-0.1-0.1-0.2-0.2-0.3c-0.2,0.2-0.4,0.3-0.6,0.4c-0.2,0.1-0.4,0.1-0.7,0.1c-0.1,0-0.3,0-0.4-0.1
	s-0.2-0.1-0.3-0.2c-0.1-0.1-0.2-0.2-0.2-0.3c-0.1-0.1-0.1-0.3-0.1-0.4c0-0.3,0.1-0.6,0.3-0.7c0.2-0.2,0.5-0.3,0.8-0.4
	c0.3,0,0.5-0.1,0.7-0.1c0.2,0,0.3-0.1,0.4-0.1c0.1,0,0.1-0.1,0.1-0.1c0-0.1,0-0.1,0-0.2c0-0.1,0-0.3-0.1-0.4c0-0.1-0.1-0.2-0.1-0.3
	c-0.1-0.1-0.2-0.2-0.3-0.2s-0.2-0.1-0.4-0.1c-0.2,0-0.4,0-0.6,0.1c-0.2,0.1-0.3,0.2-0.4,0.4h-0.1L218.5,3.6L218.5,3.6z M220.5,5
	c-0.1,0-0.2,0.1-0.3,0.1s-0.2,0-0.4,0.1c-0.1,0-0.2,0.1-0.4,0.1s-0.2,0.1-0.3,0.1c-0.1,0.1-0.2,0.1-0.2,0.2
	c-0.1,0.1-0.1,0.2-0.1,0.4c0,0.2,0.1,0.4,0.2,0.6c0.1,0.1,0.3,0.2,0.5,0.2c0.2,0,0.4-0.1,0.6-0.2s0.3-0.2,0.4-0.4L220.5,5L220.5,5z"
	/>
<path class="st0" d="M223.2,2.2c0,0.2,0,0.4,0,0.6c0,0.2,0,0.4,0,0.6c0.1,0,0.2,0,0.3,0c0.2,0,0.3,0,0.5,0c0,0,0,0,0,0.1v0.2
	c0,0,0,0.1,0,0.1c-0.1,0-0.1,0-0.2,0c-0.1,0-0.2,0-0.2,0h-0.4c0,0,0,0.1,0,0.3c0,0.2,0,0.3,0,0.5c0,0.2,0,0.4,0,0.6
	c0,0.2,0,0.4,0,0.6c0,0.2,0,0.3,0,0.4c0,0.1,0,0.3,0.1,0.4c0,0.1,0.1,0.2,0.2,0.3s0.2,0.1,0.4,0.1c0,0,0.1,0,0.2,0
	c0.1,0,0.1,0,0.2,0V7c-0.1,0-0.2,0-0.3,0.1c-0.1,0-0.2,0-0.3,0c-0.3,0-0.6-0.1-0.7-0.2c-0.2-0.2-0.2-0.4-0.2-0.7c0-0.1,0-0.3,0-0.5
	s0-0.4,0-0.6c0-0.2,0-0.4,0-0.7c0-0.2,0-0.5,0-0.8h-0.3c0,0-0.1,0-0.1,0c-0.1,0-0.1,0-0.1,0c0,0,0-0.1,0-0.1c0,0,0-0.1,0-0.1
	c0,0,0-0.1,0-0.1s0,0,0-0.1c0.2,0,0.4,0,0.5,0c0-0.1,0-0.2,0-0.4c0-0.2,0-0.3,0-0.5L223.2,2.2L223.2,2.2L223.2,2.2z"/>
<path class="st0" d="M224.8,1.8c0-0.1,0-0.2,0.1-0.3c0.1-0.1,0.2-0.1,0.3-0.1c0.1,0,0.2,0,0.3,0.1c0.1,0.1,0.1,0.2,0.1,0.3
	s0,0.2-0.1,0.3s-0.2,0.1-0.3,0.1c-0.1,0-0.2,0-0.3-0.1S224.8,1.9,224.8,1.8z M224.9,4.7c0-0.2,0-0.5,0-0.8c0-0.3,0-0.5,0-0.7
	c0.1,0,0.3,0,0.4,0c0.1,0,0.2,0,0.4,0c0,0.2,0,0.5-0.1,0.7c0,0.3,0,0.5,0,0.8v0.8c0,0.2,0,0.5,0,0.8c0,0.3,0,0.5,0.1,0.7
	c-0.1,0-0.2,0-0.4,0c-0.1,0-0.2,0-0.4,0c0-0.2,0-0.5,0-0.7c0-0.3,0-0.5,0-0.8V4.7z"/>
<path class="st0" d="M226.6,5.1c0-0.4,0.1-0.7,0.2-0.9c0.1-0.2,0.3-0.5,0.4-0.6c0.2-0.2,0.4-0.3,0.6-0.3c0.2-0.1,0.5-0.1,0.7-0.1
	c0.2,0,0.5,0,0.7,0.1c0.2,0.1,0.4,0.2,0.6,0.3c0.2,0.2,0.3,0.4,0.4,0.6c0.1,0.2,0.2,0.6,0.2,0.9s-0.1,0.7-0.2,0.9s-0.3,0.5-0.4,0.6
	c-0.2,0.2-0.4,0.3-0.6,0.3c-0.2,0.1-0.5,0.1-0.7,0.1s-0.5,0-0.7-0.1c-0.2-0.1-0.4-0.2-0.6-0.3s-0.3-0.4-0.4-0.6
	C226.6,5.8,226.6,5.5,226.6,5.1z M227.3,5.1c0,0.2,0,0.4,0.1,0.6c0,0.2,0.1,0.4,0.2,0.6c0.1,0.2,0.2,0.3,0.4,0.4s0.4,0.1,0.6,0.1
	c0.2,0,0.4,0,0.6-0.1c0.2-0.1,0.3-0.2,0.4-0.4c0.1-0.2,0.2-0.3,0.2-0.6s0.1-0.4,0.1-0.6s0-0.4-0.1-0.7s-0.1-0.4-0.2-0.6
	c-0.1-0.2-0.2-0.3-0.4-0.4c-0.2-0.1-0.4-0.1-0.6-0.1c-0.2,0-0.4,0-0.6,0.1c-0.2,0.1-0.3,0.2-0.4,0.4c-0.1,0.2-0.2,0.3-0.2,0.6
	C227.3,4.7,227.3,4.9,227.3,5.1z"/>
<path class="st0" d="M233.7,3.9c-0.1-0.2-0.4-0.3-0.6-0.3c-0.4,0-0.7,0.1-0.8,0.3c-0.2,0.2-0.3,0.5-0.3,1v0.7c0,0.2,0,0.5,0,0.8
	c0,0.3,0,0.5,0.1,0.7c-0.1,0-0.2,0-0.4,0s-0.2,0-0.4,0c0-0.2,0-0.4,0.1-0.7c0-0.3,0-0.5,0-0.8V4.7c0-0.2,0-0.5,0-0.8
	c0-0.3,0-0.5-0.1-0.7c0.2,0,0.3,0,0.4,0c0,0,0.1,0,0.1,0c0.1,0,0.1,0,0.2,0c0,0.2,0,0.4,0,0.6h0c0.1-0.2,0.3-0.4,0.5-0.5
	c0.2-0.1,0.5-0.2,0.7-0.2c0.1,0,0.3,0,0.4,0.1c0.2,0,0.3,0.1,0.4,0.2c0.1,0.1,0.2,0.2,0.3,0.4c0.1,0.2,0.1,0.4,0.1,0.7
	c0,0.2,0,0.5,0,0.7c0,0.2,0,0.5,0,0.8v0.5c0,0.1,0,0.2,0,0.2s0,0.2,0,0.2c-0.1,0-0.2,0-0.3,0c-0.1,0-0.2,0-0.3,0c0-0.3,0-0.6,0-0.9
	c0-0.3,0-0.6,0-0.9V4.7C234,4.3,233.9,4,233.7,3.9L233.7,3.9z"/>
<path class="st0" d="M237.7,5.1c0-0.4,0.1-0.7,0.2-0.9c0.1-0.2,0.3-0.5,0.4-0.6c0.2-0.2,0.4-0.3,0.6-0.3c0.2-0.1,0.5-0.1,0.7-0.1
	c0.2,0,0.5,0,0.7,0.1c0.2,0.1,0.4,0.2,0.6,0.3c0.2,0.2,0.3,0.4,0.4,0.6c0.1,0.2,0.2,0.6,0.2,0.9s-0.1,0.7-0.2,0.9s-0.3,0.5-0.4,0.6
	c-0.2,0.2-0.4,0.3-0.6,0.3c-0.2,0.1-0.5,0.1-0.7,0.1c-0.2,0-0.5,0-0.7-0.1c-0.2-0.1-0.4-0.2-0.6-0.3c-0.2-0.2-0.3-0.4-0.4-0.6
	C237.8,5.8,237.7,5.5,237.7,5.1z M238.4,5.1c0,0.2,0,0.4,0.1,0.6s0.1,0.4,0.2,0.6c0.1,0.2,0.2,0.3,0.4,0.4c0.2,0.1,0.4,0.1,0.6,0.1
	s0.4,0,0.6-0.1c0.2-0.1,0.3-0.2,0.4-0.4c0.1-0.2,0.2-0.3,0.2-0.6s0.1-0.4,0.1-0.6s0-0.4-0.1-0.7s-0.1-0.4-0.2-0.6
	c-0.1-0.2-0.2-0.3-0.4-0.4c-0.2-0.1-0.4-0.1-0.6-0.1s-0.4,0-0.6,0.1c-0.2,0.1-0.3,0.2-0.4,0.4c-0.1,0.2-0.2,0.3-0.2,0.6
	S238.4,4.9,238.4,5.1z"/>
<path class="st0" d="M243.7,1.5c-0.1,0-0.2,0-0.3,0.1c-0.1,0-0.1,0.1-0.2,0.2c0,0.1-0.1,0.2-0.1,0.2c0,0.1,0,0.2,0,0.3
	c0,0.1,0,0.2,0,0.4c0,0.2,0,0.4,0.1,0.5c0.1,0,0.3,0,0.4,0c0.1,0,0.3,0,0.4,0c0,0,0,0.1,0,0.1c0,0,0,0,0,0.1s0,0.1,0,0.1s0,0,0,0.1
	c-0.1,0-0.3,0-0.4,0c-0.1,0-0.3,0-0.4,0c0,0.6,0,1.2,0,1.7s0,1.2,0,1.7c-0.1,0-0.1,0-0.2,0h-0.2c-0.1,0-0.2,0-0.3,0
	c0-0.6,0.1-1.2,0.1-1.7c0-0.6,0-1.1,0-1.7c-0.1,0-0.2,0-0.3,0s-0.2,0-0.3,0c0,0,0,0,0-0.1c0,0,0-0.1,0-0.1s0,0,0-0.1
	c0,0,0-0.1,0-0.1c0.1,0,0.2,0,0.3,0s0.2,0,0.3,0c0-0.1,0-0.3,0.1-0.5c0-0.2,0.1-0.4,0.1-0.5s0.1-0.3,0.2-0.5
	c0.1-0.2,0.2-0.3,0.3-0.4c0.1-0.1,0.2-0.2,0.4-0.3c0.1-0.1,0.3-0.1,0.5-0.1c0.1,0,0.1,0,0.2,0c0,0.1,0,0.2,0,0.3c0,0.1,0,0.2,0,0.3
	l-0.1,0C244,1.6,243.9,1.5,243.7,1.5L243.7,1.5z"/>
<path class="st0" d="M249.3,3.9c-0.1-0.2-0.4-0.3-0.6-0.3c-0.4,0-0.7,0.1-0.8,0.3c-0.2,0.2-0.3,0.5-0.3,1v0.7c0,0.2,0,0.5,0,0.8
	c0,0.3,0,0.5,0,0.7c-0.1,0-0.2,0-0.4,0c-0.1,0-0.2,0-0.4,0c0-0.2,0-0.4,0.1-0.7c0-0.3,0-0.5,0-0.8V4.7c0-0.2,0-0.5,0-0.8
	c0-0.3,0-0.5-0.1-0.7c0.2,0,0.3,0,0.4,0c0,0,0.1,0,0.1,0c0.1,0,0.1,0,0.2,0c0,0.2,0,0.4,0,0.6h0c0.2-0.2,0.3-0.4,0.5-0.5
	c0.2-0.1,0.5-0.2,0.7-0.2c0.2,0,0.3,0,0.4,0.1c0.1,0,0.3,0.1,0.4,0.2c0.1,0.1,0.2,0.2,0.3,0.4c0.1,0.2,0.1,0.4,0.1,0.7
	c0,0.2,0,0.5,0,0.7c0,0.2,0,0.5,0,0.8v0.5c0,0.1,0,0.2,0,0.2s0,0.2,0,0.2c-0.1,0-0.2,0-0.3,0c-0.1,0-0.2,0-0.3,0c0-0.3,0-0.6,0-0.9
	c0-0.3,0-0.6,0-0.9V4.7C249.5,4.3,249.4,4,249.3,3.9L249.3,3.9z"/>
<path class="st0" d="M251.5,3.6c0.2-0.2,0.5-0.3,0.7-0.4c0.2-0.1,0.4-0.1,0.6-0.1c0.2,0,0.4,0,0.5,0.1c0.2,0.1,0.3,0.1,0.4,0.2
	c0.1,0.1,0.2,0.2,0.3,0.4C254,4,254,4.1,254,4.3c0,0.3,0,0.6,0,0.9c0,0.3,0,0.6,0,1c0,0.1,0,0.1,0,0.2s0,0.1,0,0.2
	c0,0.1,0,0.1,0.1,0.1c0,0,0.1,0.1,0.2,0.1c0,0,0.1,0,0.1,0s0.1,0,0.1,0v0.2c-0.1,0-0.1,0.1-0.2,0.1c-0.1,0-0.2,0-0.3,0
	c-0.2,0-0.3,0-0.4-0.1c-0.1-0.1-0.1-0.2-0.2-0.3c-0.2,0.2-0.4,0.3-0.6,0.4c-0.2,0.1-0.4,0.1-0.7,0.1c-0.1,0-0.3,0-0.4-0.1
	c-0.1,0-0.2-0.1-0.3-0.2c-0.1-0.1-0.2-0.2-0.2-0.3c-0.1-0.1-0.1-0.3-0.1-0.4c0-0.3,0.1-0.6,0.3-0.7c0.2-0.2,0.5-0.3,0.8-0.4
	c0.3,0,0.5-0.1,0.7-0.1c0.2,0,0.3-0.1,0.4-0.1c0.1,0,0.1-0.1,0.1-0.1c0-0.1,0-0.1,0-0.2c0-0.1,0-0.3-0.1-0.4c0-0.1-0.1-0.2-0.1-0.3
	c-0.1-0.1-0.2-0.2-0.3-0.2s-0.2-0.1-0.4-0.1c-0.2,0-0.4,0-0.6,0.1c-0.2,0.1-0.3,0.2-0.4,0.4h-0.1L251.5,3.6L251.5,3.6z M253.4,5
	c-0.1,0-0.2,0.1-0.3,0.1s-0.2,0-0.4,0.1c-0.1,0-0.2,0.1-0.4,0.1s-0.2,0.1-0.3,0.1c-0.1,0.1-0.2,0.1-0.2,0.2
	c-0.1,0.1-0.1,0.2-0.1,0.4c0,0.2,0.1,0.4,0.2,0.6c0.1,0.1,0.3,0.2,0.5,0.2c0.2,0,0.4-0.1,0.6-0.2c0.2-0.1,0.3-0.2,0.4-0.4L253.4,5
	L253.4,5z"/>
<path class="st0" d="M256.1,2.2c0,0.2,0,0.4,0,0.6c0,0.2,0,0.4,0,0.6c0.1,0,0.2,0,0.3,0s0.3,0,0.5,0c0,0,0,0,0,0.1v0.2
	c0,0,0,0.1,0,0.1c-0.1,0-0.1,0-0.2,0c-0.1,0-0.1,0-0.2,0H256c0,0,0,0.1,0,0.3c0,0.2,0,0.3,0,0.5c0,0.2,0,0.4,0,0.6
	c0,0.2,0,0.4,0,0.6c0,0.2,0,0.3,0,0.4c0,0.1,0,0.3,0.1,0.4c0,0.1,0.1,0.2,0.2,0.3c0.1,0.1,0.2,0.1,0.4,0.1c0,0,0.1,0,0.2,0
	c0.1,0,0.1,0,0.2,0V7c-0.1,0-0.2,0-0.3,0.1c-0.1,0-0.2,0-0.3,0c-0.3,0-0.6-0.1-0.7-0.2c-0.2-0.2-0.2-0.4-0.2-0.7c0-0.1,0-0.3,0-0.5
	s0-0.4,0-0.6c0-0.2,0-0.4,0-0.7c0-0.2,0-0.5,0-0.8h-0.3c0,0-0.1,0-0.1,0c-0.1,0-0.1,0-0.2,0c0,0,0-0.1,0-0.1c0,0,0-0.1,0-0.1
	c0,0,0-0.1,0-0.1s0,0,0-0.1c0.2,0,0.4,0,0.5,0c0-0.1,0-0.2,0-0.4c0-0.2,0-0.3,0-0.5L256.1,2.2L256.1,2.2L256.1,2.2z"/>
<path class="st0" d="M257.6,5.8c0-0.3,0-0.5,0-0.7c0-0.2,0-0.4,0-0.6c0-0.2,0-0.4,0-0.6s0-0.4,0-0.7c0.1,0,0.2,0,0.3,0s0.2,0,0.3,0
	c0,0.3,0,0.7-0.1,1c0,0.4,0,0.8,0,1.2c0,0.3,0,0.5,0.1,0.6s0.1,0.3,0.2,0.3c0.1,0.1,0.2,0.2,0.3,0.2c0.1,0.1,0.2,0.1,0.4,0.1
	c0.2,0,0.4-0.1,0.6-0.2c0.1-0.1,0.3-0.2,0.3-0.4c0-0.1,0.1-0.2,0.1-0.2c0-0.1,0-0.1,0-0.3c0-0.1,0-0.3,0-0.4s0-0.4,0-0.7V3.9
	c0-0.1,0-0.2,0-0.3c0-0.1,0-0.2,0-0.3c0.1,0,0.1,0,0.2,0c0,0,0.1,0,0.2,0s0.1,0,0.2,0c0,0,0.1,0,0.2,0c0,0.4,0,0.8-0.1,1.2
	c0,0.4,0,0.8,0,1.2c0,0.2,0,0.5,0,0.7s0,0.5,0,0.7c-0.1,0-0.2,0-0.3,0c-0.1,0-0.2,0-0.3,0c0,0,0-0.1,0-0.2c0-0.1,0-0.1,0-0.2V6.3h0
	c-0.1,0.3-0.3,0.4-0.5,0.6s-0.5,0.2-0.7,0.2c-0.4,0-0.7-0.1-1-0.3C257.7,6.5,257.6,6.2,257.6,5.8L257.6,5.8z"/>
<path class="st0" d="M263.7,3.8c-0.1,0-0.2,0-0.2,0c-0.1,0-0.2,0-0.3,0.1C263,3.9,263,4,262.9,4.1s-0.1,0.2-0.2,0.4
	c0,0.1-0.1,0.3-0.1,0.4v0.9c0,0.4,0,0.6,0,0.8s0,0.3,0,0.5c-0.1,0-0.2,0-0.3,0c-0.1,0-0.2,0-0.3,0c0-0.2,0-0.4,0-0.7s0-0.7,0-1.1
	V4.9c0-0.2,0-0.5,0-0.7s0-0.6,0-0.9c0.1,0,0.1,0,0.2,0c0,0,0.1,0,0.2,0c0,0,0.1,0,0.1,0c0.1,0,0.1,0,0.2,0c0,0.2,0,0.3,0,0.5
	c0,0.1,0,0.2,0,0.3h0c0.3-0.6,0.7-0.9,1.1-0.9c0,0,0.1,0,0.1,0c0,0,0.1,0,0.1,0c0,0.1,0,0.2,0,0.3c0,0.1,0,0.2,0,0.4l-0.1,0
	C263.9,3.9,263.8,3.8,263.7,3.8L263.7,3.8z"/>
<path class="st0" d="M264.7,3.6c0.2-0.2,0.5-0.3,0.7-0.4c0.2-0.1,0.4-0.1,0.6-0.1c0.2,0,0.4,0,0.5,0.1c0.2,0.1,0.3,0.1,0.4,0.2
	c0.1,0.1,0.2,0.2,0.3,0.4c0.1,0.2,0.1,0.3,0.1,0.5c0,0.3,0,0.6,0,0.9c0,0.3,0,0.6,0,1c0,0.1,0,0.1,0,0.2s0,0.1,0,0.2
	c0,0.1,0.1,0.1,0.1,0.1c0,0,0.1,0.1,0.2,0.1c0,0,0.1,0,0.1,0s0.1,0,0.1,0v0.2c-0.1,0-0.1,0.1-0.2,0.1c-0.1,0-0.2,0-0.3,0
	c-0.2,0-0.3,0-0.4-0.1c-0.1-0.1-0.1-0.2-0.2-0.3c-0.2,0.2-0.4,0.3-0.6,0.4c-0.2,0.1-0.4,0.1-0.7,0.1c-0.1,0-0.3,0-0.4-0.1
	s-0.2-0.1-0.3-0.2c-0.1-0.1-0.2-0.2-0.2-0.3c-0.1-0.1-0.1-0.3-0.1-0.4c0-0.3,0.1-0.6,0.3-0.7c0.2-0.2,0.5-0.3,0.8-0.4
	c0.3,0,0.5-0.1,0.7-0.1c0.2,0,0.3-0.1,0.4-0.1c0.1,0,0.1-0.1,0.1-0.1c0-0.1,0-0.1,0-0.2c0-0.1,0-0.3-0.1-0.4c0-0.1-0.1-0.2-0.1-0.3
	c-0.1-0.1-0.2-0.2-0.3-0.2s-0.2-0.1-0.4-0.1c-0.2,0-0.4,0-0.6,0.1c-0.2,0.1-0.3,0.2-0.4,0.4h-0.1L264.7,3.6L264.7,3.6z M266.7,5
	c-0.1,0-0.2,0.1-0.3,0.1s-0.2,0-0.4,0.1c-0.1,0-0.2,0.1-0.4,0.1s-0.2,0.1-0.3,0.1c-0.1,0.1-0.2,0.1-0.2,0.2C265,5.7,265,5.9,265,6
	c0,0.2,0.1,0.4,0.2,0.6c0.1,0.1,0.3,0.2,0.5,0.2c0.2,0,0.4-0.1,0.6-0.2s0.3-0.2,0.4-0.4L266.7,5L266.7,5z"/>
<path class="st0" d="M268.8,2.7c0-0.2,0-0.4,0-0.6c0-0.2,0-0.4,0-0.6c0-0.2,0-0.4,0-0.5c0.1,0,0.3,0,0.4,0c0.1,0,0.2,0,0.4,0
	c0,0.1,0,0.3,0,0.5c0,0.2,0,0.4,0,0.6s0,0.4,0,0.6c0,0.2,0,0.4,0,0.6v1.4c0,0.2,0,0.4,0,0.6c0,0.2,0,0.4,0,0.6s0,0.4,0,0.6
	c0,0.2,0,0.3,0,0.5c-0.1,0-0.2,0-0.4,0s-0.2,0-0.4,0c0-0.1,0-0.3,0-0.5c0-0.2,0-0.4,0-0.6c0-0.2,0-0.4,0-0.6c0-0.2,0-0.4,0-0.6V3.3
	C268.8,3.1,268.8,2.9,268.8,2.7z"/>
<path class="st0" d="M143.3,17.9c0-0.2,0-0.4,0-0.6c0-0.2,0-0.4,0-0.6c0-0.2,0-0.4,0-0.5c0.2,0,0.3,0,0.4,0s0.2,0,0.4,0
	c0,0.1,0,0.3,0,0.5c0,0.2,0,0.4,0,0.6c0,0.2,0,0.4,0,0.6c0,0.2,0,0.4,0,0.6v1.4c0,0.2,0,0.4,0,0.6c0,0.2,0,0.4,0,0.6
	c0,0.2,0,0.4,0,0.6c0,0.2,0,0.3,0,0.5c-0.1,0-0.2,0-0.4,0s-0.2,0-0.4,0c0-0.1,0-0.3,0-0.5c0-0.2,0-0.4,0-0.6c0-0.2,0-0.4,0-0.6
	c0-0.2,0-0.4,0-0.6v-1.4C143.3,18.3,143.3,18.1,143.3,17.9z"/>
<path class="st0" d="M145.4,18.8c0.2-0.2,0.5-0.3,0.7-0.4c0.2-0.1,0.4-0.1,0.6-0.1c0.2,0,0.4,0,0.5,0.1c0.2,0.1,0.3,0.1,0.4,0.2
	c0.1,0.1,0.2,0.2,0.3,0.4s0.1,0.3,0.1,0.5c0,0.3,0,0.6,0,0.9c0,0.3,0,0.6,0,1c0,0.1,0,0.1,0,0.2c0,0.1,0,0.1,0,0.2
	c0,0.1,0.1,0.1,0.1,0.1c0,0,0.1,0.1,0.2,0.1c0,0,0.1,0,0.1,0c0,0,0.1,0,0.1,0v0.2c-0.1,0-0.1,0-0.2,0.1c-0.1,0-0.2,0-0.3,0
	c-0.2,0-0.3,0-0.4-0.1s-0.1-0.2-0.2-0.3c-0.2,0.2-0.4,0.3-0.6,0.4c-0.2,0.1-0.4,0.1-0.7,0.1c-0.1,0-0.3,0-0.4-0.1
	c-0.1,0-0.2-0.1-0.3-0.2c-0.1-0.1-0.2-0.2-0.2-0.3c-0.1-0.1-0.1-0.3-0.1-0.4c0-0.3,0.1-0.6,0.3-0.7c0.2-0.2,0.5-0.3,0.8-0.3
	c0.3-0.1,0.5-0.1,0.7-0.1c0.2,0,0.3-0.1,0.4-0.1c0.1,0,0.1-0.1,0.1-0.1c0-0.1,0-0.1,0-0.2c0-0.1,0-0.3-0.1-0.4
	c0-0.1-0.1-0.2-0.2-0.3c-0.1-0.1-0.2-0.2-0.3-0.2c-0.1-0.1-0.2-0.1-0.4-0.1c-0.2,0-0.4,0.1-0.6,0.1c-0.2,0.1-0.3,0.2-0.4,0.4h-0.1
	L145.4,18.8L145.4,18.8z M147.3,20.2c-0.1,0-0.2,0.1-0.3,0.1c-0.1,0-0.2,0-0.4,0.1c-0.1,0-0.2,0-0.4,0.1c-0.1,0-0.2,0.1-0.3,0.1
	c-0.1,0.1-0.2,0.1-0.2,0.2c-0.1,0.1-0.1,0.2-0.1,0.4c0,0.2,0.1,0.4,0.2,0.6c0.1,0.1,0.3,0.2,0.5,0.2c0.2,0,0.4-0.1,0.6-0.2
	c0.2-0.1,0.3-0.2,0.4-0.4L147.3,20.2L147.3,20.2z"/>
<path class="st0" d="M151.7,19.1c-0.2-0.2-0.4-0.3-0.6-0.3c-0.4,0-0.7,0.1-0.8,0.3c-0.2,0.2-0.3,0.6-0.3,1v0.7c0,0.2,0,0.5,0,0.8
	c0,0.3,0,0.5,0.1,0.7c-0.1,0-0.2,0-0.4,0s-0.2,0-0.4,0c0-0.2,0-0.5,0.1-0.7c0-0.3,0-0.5,0-0.8v-0.8c0-0.2,0-0.5,0-0.8
	c0-0.3,0-0.5-0.1-0.7c0.1,0,0.3,0,0.4,0c0,0,0.1,0,0.1,0s0.1,0,0.2,0c0,0.2,0,0.4,0,0.6h0c0.2-0.2,0.3-0.4,0.5-0.5
	c0.2-0.1,0.5-0.2,0.7-0.2c0.1,0,0.3,0,0.4,0.1c0.1,0,0.3,0.1,0.4,0.2c0.1,0.1,0.2,0.2,0.3,0.4c0.1,0.2,0.1,0.4,0.1,0.7
	c0,0.2,0,0.5,0,0.7c0,0.2,0,0.5,0,0.8v0.5c0,0.1,0,0.2,0,0.2s0,0.2,0,0.2c-0.1,0-0.2,0-0.3,0c-0.1,0-0.2,0-0.3,0c0-0.3,0-0.6,0-0.9
	c0-0.3,0-0.6,0-0.9V20C151.9,19.6,151.8,19.3,151.7,19.1L151.7,19.1z"/>
<path class="st0" d="M156.4,21.5c0,0.1-0.1,0.2-0.2,0.3c-0.1,0.1-0.2,0.2-0.3,0.3s-0.2,0.1-0.4,0.2c-0.2,0-0.3,0.1-0.5,0.1
	c-0.2,0-0.4,0-0.6-0.1c-0.2-0.1-0.4-0.2-0.5-0.3s-0.3-0.4-0.4-0.6c-0.1-0.2-0.1-0.5-0.1-0.9c0-0.3,0.1-0.6,0.2-0.9
	c0.1-0.2,0.2-0.5,0.4-0.6c0.2-0.2,0.4-0.3,0.6-0.4c0.2-0.1,0.4-0.1,0.6-0.1c0.6,0,1,0.3,1.2,0.8h0v-0.8c0-0.2,0-0.4,0-0.6
	c0-0.2,0-0.4,0-0.6s0-0.4,0-0.5s0-0.3,0-0.4c0.1,0,0.1,0,0.2,0c0,0,0.1,0,0.2,0s0.1,0,0.2,0c0.1,0,0.1,0,0.2,0c0,0.2,0,0.4,0,0.7
	c0,0.3,0,0.7,0,1.1c0,0.4,0,0.8,0,1.2c0,0.4,0,0.8,0,1.1c0,0.4,0,0.7,0,1c0,0.3,0,0.6,0,0.9c-0.1,0-0.2,0-0.3,0c-0.1,0-0.2,0-0.3,0
	L156.4,21.5L156.4,21.5L156.4,21.5z M154.2,20.4c0,0.3,0,0.6,0.1,0.8c0.1,0.2,0.1,0.4,0.3,0.5c0.1,0.1,0.2,0.2,0.4,0.3
	c0.1,0.1,0.3,0.1,0.4,0.1c0.2,0,0.4-0.1,0.5-0.2c0.1-0.1,0.3-0.2,0.4-0.4s0.2-0.4,0.2-0.6c0-0.2,0.1-0.4,0.1-0.6
	c0-0.5-0.1-0.9-0.3-1.2c-0.2-0.3-0.5-0.4-0.9-0.4c-0.2,0-0.4,0-0.5,0.1s-0.3,0.2-0.4,0.4c-0.1,0.2-0.2,0.3-0.2,0.5
	C154.2,19.9,154.2,20.2,154.2,20.4L154.2,20.4z"/>
<path class="st0" d="M158.3,21.6c0.1,0.1,0.1,0.1,0.2,0.2c0.1,0.1,0.2,0.1,0.3,0.1c0.1,0,0.2,0.1,0.3,0.1c0.1,0,0.2,0,0.3,0
	c0.1,0,0.2-0.1,0.2-0.1c0.1-0.1,0.1-0.1,0.2-0.2s0.1-0.2,0.1-0.3c0-0.2-0.1-0.3-0.1-0.4s-0.2-0.2-0.3-0.2c-0.1-0.1-0.3-0.1-0.5-0.2
	c-0.2,0-0.3-0.1-0.5-0.2c-0.1-0.1-0.2-0.2-0.3-0.3c-0.1-0.1-0.1-0.3-0.1-0.5c0-0.2,0-0.3,0.1-0.5c0.1-0.1,0.1-0.3,0.3-0.4
	c0.1-0.1,0.2-0.2,0.4-0.2c0.2-0.1,0.4-0.1,0.6-0.1c0.2,0,0.4,0,0.5,0.1c0.1,0,0.3,0.1,0.4,0.1c0,0.1-0.1,0.2-0.1,0.3
	c0,0.1-0.1,0.2-0.1,0.3h-0.1c0-0.1-0.1-0.2-0.2-0.3c-0.1-0.1-0.3-0.1-0.5-0.1c-0.1,0-0.2,0-0.2,0c-0.1,0-0.1,0.1-0.2,0.1
	c-0.1,0-0.1,0.1-0.2,0.2c0,0.1-0.1,0.2-0.1,0.3c0,0.2,0.1,0.3,0.1,0.4c0.1,0.1,0.2,0.2,0.3,0.2s0.3,0.1,0.5,0.1
	c0.2,0,0.3,0.1,0.5,0.2s0.2,0.2,0.4,0.3c0.1,0.1,0.1,0.3,0.1,0.5c0,0.1,0,0.3-0.1,0.5c-0.1,0.1-0.2,0.3-0.3,0.4
	c-0.1,0.1-0.3,0.2-0.4,0.3c-0.2,0.1-0.4,0.1-0.6,0.1c-0.2,0-0.4,0-0.6-0.1c-0.2,0-0.3-0.1-0.4-0.2c0-0.1,0.1-0.2,0.1-0.3
	c0-0.1,0.1-0.2,0.1-0.3h0.1C158.2,21.5,158.2,21.6,158.3,21.6L158.3,21.6z"/>
<path class="st0" d="M161,20.3c0-0.3,0.1-0.6,0.2-0.9c0.1-0.2,0.3-0.5,0.5-0.6s0.4-0.3,0.6-0.4c0.2-0.1,0.5-0.1,0.8-0.1
	c0.3,0,0.6,0,0.8,0.1c0.2,0.1,0.4,0.1,0.5,0.2c0,0.1-0.1,0.2-0.1,0.2s-0.1,0.2-0.1,0.3h-0.1c0-0.1-0.1-0.1-0.2-0.2
	c-0.1-0.1-0.1-0.1-0.2-0.2c-0.1-0.1-0.2-0.1-0.3-0.1c-0.1,0-0.2-0.1-0.4-0.1c-0.2,0-0.4,0-0.6,0.1s-0.3,0.2-0.4,0.4
	c-0.1,0.2-0.2,0.3-0.2,0.6c-0.1,0.2-0.1,0.4-0.1,0.7c0,0.5,0.1,1,0.4,1.2c0.2,0.3,0.6,0.4,1,0.4c0.1,0,0.2,0,0.3,0
	c0.1,0,0.2-0.1,0.3-0.1c0.1-0.1,0.2-0.1,0.3-0.2c0.1-0.1,0.2-0.1,0.2-0.2l0,0c0,0.1,0,0.3-0.1,0.4c-0.2,0.1-0.4,0.2-0.6,0.3
	s-0.5,0.1-0.7,0.1c-0.2,0-0.5,0-0.7-0.1s-0.4-0.2-0.6-0.3s-0.3-0.4-0.4-0.6S161,20.7,161,20.3L161,20.3z"/>
<path class="st0" d="M165.4,18.8c0.2-0.2,0.5-0.3,0.7-0.4c0.2-0.1,0.4-0.1,0.6-0.1c0.2,0,0.4,0,0.5,0.1c0.2,0.1,0.3,0.1,0.4,0.2
	c0.1,0.1,0.2,0.2,0.3,0.4s0.1,0.3,0.1,0.5c0,0.3,0,0.6,0,0.9c0,0.3,0,0.6,0,1c0,0.1,0,0.1,0,0.2c0,0.1,0,0.1,0,0.2
	c0,0.1,0.1,0.1,0.1,0.1c0,0,0.1,0.1,0.2,0.1c0,0,0.1,0,0.1,0s0.1,0,0.1,0v0.2c-0.1,0-0.1,0-0.2,0.1c-0.1,0-0.2,0-0.3,0
	c-0.2,0-0.3,0-0.4-0.1c-0.1-0.1-0.1-0.2-0.2-0.3c-0.2,0.2-0.4,0.3-0.6,0.4s-0.4,0.1-0.7,0.1c-0.1,0-0.3,0-0.4-0.1
	c-0.1,0-0.2-0.1-0.3-0.2c-0.1-0.1-0.2-0.2-0.2-0.3c-0.1-0.1-0.1-0.3-0.1-0.4c0-0.3,0.1-0.6,0.3-0.7c0.2-0.2,0.5-0.3,0.8-0.3
	c0.3-0.1,0.5-0.1,0.7-0.1c0.2,0,0.3-0.1,0.4-0.1c0.1,0,0.1-0.1,0.1-0.1c0-0.1,0-0.1,0-0.2c0-0.1,0-0.3-0.1-0.4
	c0-0.1-0.1-0.2-0.1-0.3c-0.1-0.1-0.2-0.2-0.3-0.2c-0.1-0.1-0.2-0.1-0.4-0.1c-0.2,0-0.4,0.1-0.6,0.1c-0.2,0.1-0.3,0.2-0.4,0.4h-0.1
	L165.4,18.8L165.4,18.8z M167.4,20.2c-0.1,0-0.2,0.1-0.3,0.1s-0.2,0-0.4,0.1c-0.1,0-0.2,0-0.4,0.1c-0.1,0-0.2,0.1-0.3,0.1
	c-0.1,0.1-0.2,0.1-0.2,0.2c-0.1,0.1-0.1,0.2-0.1,0.4c0,0.2,0.1,0.4,0.2,0.6c0.1,0.1,0.3,0.2,0.5,0.2c0.2,0,0.4-0.1,0.6-0.2
	c0.2-0.1,0.3-0.2,0.4-0.4L167.4,20.2L167.4,20.2z"/>
<path class="st0" d="M169.2,20.8c0-0.2,0-0.4,0-0.6c0-0.2,0-0.4,0-0.6c0-0.2,0-0.4,0-0.6c0-0.2,0-0.4,0-0.5c0.2,0,0.3,0,0.4,0
	s0.2,0,0.4,0c0,0.1,0,0.3-0.1,0.4c0,0.1,0,0.3,0,0.4h0c0-0.1,0.1-0.2,0.2-0.3c0.1-0.1,0.2-0.2,0.3-0.3s0.2-0.2,0.4-0.2
	c0.2-0.1,0.3-0.1,0.5-0.1s0.4,0,0.6,0.1s0.4,0.2,0.5,0.4c0.1,0.2,0.3,0.4,0.4,0.6c0.1,0.2,0.1,0.5,0.1,0.9s-0.1,0.6-0.2,0.9
	c-0.1,0.2-0.2,0.5-0.4,0.6c-0.2,0.2-0.4,0.3-0.6,0.4c-0.2,0.1-0.4,0.1-0.6,0.1c-0.6,0-1-0.2-1.3-0.8h0V22c0,0.2,0,0.4,0,0.6
	c0,0.2,0,0.4,0,0.6c0,0.2,0,0.4,0,0.6c0,0.2,0,0.4,0,0.5c-0.2,0-0.3,0-0.4,0c-0.1,0-0.2,0-0.4,0c0-0.1,0-0.3,0-0.5
	c0-0.2,0-0.4,0-0.6c0-0.2,0-0.4,0-0.6c0-0.2,0-0.4,0-0.6L169.2,20.8L169.2,20.8z M172.1,20.3c0-0.3,0-0.6-0.1-0.8
	c-0.1-0.2-0.2-0.4-0.3-0.5c-0.1-0.1-0.2-0.2-0.4-0.3c-0.1,0-0.3-0.1-0.4-0.1c-0.2,0-0.4,0.1-0.6,0.1c-0.1,0.1-0.3,0.2-0.4,0.4
	c-0.1,0.1-0.2,0.3-0.2,0.5c0,0.2-0.1,0.4-0.1,0.6c0,1.1,0.4,1.7,1.2,1.7c0.2,0,0.4,0,0.5-0.1c0.1-0.1,0.3-0.2,0.4-0.4
	s0.2-0.3,0.2-0.5C172.1,20.8,172.1,20.5,172.1,20.3z"/>
<path class="st0" d="M173.4,20.4c0-0.7,0.2-1.2,0.5-1.5c0.3-0.4,0.8-0.6,1.4-0.6c0.3,0,0.5,0,0.7,0.1c0.2,0.1,0.4,0.2,0.5,0.4
	c0.1,0.1,0.2,0.3,0.3,0.5c0.1,0.2,0.1,0.4,0.1,0.6c0,0,0,0.1,0,0.2c0,0,0,0.1,0,0.2c-0.3,0-0.6,0-0.9,0c-0.3,0-0.6,0-0.9,0
	c-0.2,0-0.3,0-0.5,0c-0.2,0-0.3,0-0.5,0c0,0,0,0.1,0,0.1v0.1c0,0.2,0,0.4,0.1,0.6s0.1,0.3,0.3,0.5c0.1,0.1,0.3,0.2,0.4,0.3
	s0.4,0.1,0.6,0.1c0.1,0,0.2,0,0.3,0c0.1,0,0.2-0.1,0.3-0.1c0.1,0,0.2-0.1,0.3-0.2c0.1-0.1,0.2-0.1,0.2-0.2l0,0l-0.1,0.4
	c-0.2,0.1-0.4,0.2-0.6,0.3c-0.2,0.1-0.5,0.1-0.7,0.1c-0.3,0-0.6,0-0.8-0.1c-0.2-0.1-0.4-0.2-0.6-0.4c-0.2-0.2-0.3-0.4-0.4-0.6
	C173.5,21,173.4,20.7,173.4,20.4L173.4,20.4z M175.3,18.6c-0.2,0-0.4,0-0.5,0.1c-0.1,0.1-0.2,0.2-0.3,0.3c-0.1,0.1-0.1,0.3-0.2,0.4
	s-0.1,0.3-0.1,0.5c0.2,0,0.3,0,0.5,0c0.2,0,0.3,0,0.5,0c0.2,0,0.4,0,0.5,0c0.2,0,0.4,0,0.5,0c0-0.1,0-0.3,0-0.5
	c0-0.2-0.1-0.3-0.1-0.4c-0.1-0.1-0.2-0.2-0.3-0.3C175.6,18.6,175.5,18.6,175.3,18.6L175.3,18.6z"/>
<path class="st0" d="M180,18.8c0.2-0.2,0.5-0.3,0.7-0.4c0.2-0.1,0.4-0.1,0.6-0.1c0.2,0,0.4,0,0.5,0.1c0.2,0.1,0.3,0.1,0.4,0.2
	c0.1,0.1,0.2,0.2,0.3,0.4s0.1,0.3,0.1,0.5c0,0.3,0,0.6,0,0.9c0,0.3,0,0.6,0,1c0,0.1,0,0.1,0,0.2c0,0.1,0,0.1,0,0.2
	c0,0.1,0,0.1,0.1,0.1c0,0,0.1,0.1,0.2,0.1c0,0,0.1,0,0.1,0c0,0,0.1,0,0.1,0v0.2c-0.1,0-0.1,0-0.2,0.1c-0.1,0-0.2,0-0.3,0
	c-0.2,0-0.3,0-0.4-0.1s-0.1-0.2-0.2-0.3c-0.2,0.2-0.4,0.3-0.6,0.4c-0.2,0.1-0.4,0.1-0.7,0.1c-0.1,0-0.3,0-0.4-0.1
	c-0.1,0-0.2-0.1-0.3-0.2c-0.1-0.1-0.2-0.2-0.2-0.3c-0.1-0.1-0.1-0.3-0.1-0.4c0-0.3,0.1-0.6,0.3-0.7c0.2-0.2,0.5-0.3,0.8-0.3
	c0.3-0.1,0.5-0.1,0.7-0.1c0.2,0,0.3-0.1,0.4-0.1c0.1,0,0.1-0.1,0.1-0.1c0-0.1,0-0.1,0-0.2c0-0.1,0-0.3-0.1-0.4
	c0-0.1-0.1-0.2-0.2-0.3c-0.1-0.1-0.2-0.2-0.3-0.2c-0.1-0.1-0.2-0.1-0.4-0.1c-0.2,0-0.4,0.1-0.6,0.1s-0.3,0.2-0.4,0.4H180L180,18.8
	L180,18.8z M182,20.2c-0.1,0-0.2,0.1-0.3,0.1c-0.1,0-0.2,0-0.4,0.1c-0.1,0-0.2,0-0.4,0.1c-0.1,0-0.2,0.1-0.3,0.1
	c-0.1,0.1-0.2,0.1-0.2,0.2c-0.1,0.1-0.1,0.2-0.1,0.4c0,0.2,0.1,0.4,0.2,0.6c0.1,0.1,0.3,0.2,0.5,0.2c0.2,0,0.4-0.1,0.6-0.2
	c0.2-0.1,0.3-0.2,0.4-0.4L182,20.2L182,20.2z"/>
<path class="st0" d="M186.3,19.1c-0.1-0.2-0.4-0.3-0.6-0.3c-0.4,0-0.6,0.1-0.8,0.3c-0.2,0.2-0.3,0.6-0.3,1v0.7c0,0.2,0,0.5,0,0.8
	c0,0.3,0,0.5,0,0.7c-0.1,0-0.2,0-0.4,0c-0.1,0-0.2,0-0.4,0c0-0.2,0-0.5,0.1-0.7c0-0.3,0-0.5,0-0.8v-0.8c0-0.2,0-0.5,0-0.8
	c0-0.3,0-0.5-0.1-0.7c0.2,0,0.3,0,0.4,0c0,0,0.1,0,0.1,0c0.1,0,0.1,0,0.2,0c0,0.2,0,0.4,0,0.6h0c0.2-0.2,0.3-0.4,0.5-0.5
	c0.2-0.1,0.5-0.2,0.7-0.2c0.2,0,0.3,0,0.4,0.1c0.2,0,0.3,0.1,0.4,0.2s0.2,0.2,0.3,0.4c0.1,0.2,0.1,0.4,0.1,0.7c0,0.2,0,0.5,0,0.7
	c0,0.2,0,0.5,0,0.8v0.5c0,0.1,0,0.2,0,0.2s0,0.2,0,0.2c-0.1,0-0.2,0-0.3,0c-0.1,0-0.2,0-0.3,0c0-0.3,0-0.6,0-0.9c0-0.3,0-0.6,0-0.9
	V20C186.6,19.6,186.5,19.3,186.3,19.1L186.3,19.1z"/>
<path class="st0" d="M191.1,21.5c0,0.1-0.1,0.2-0.2,0.3c-0.1,0.1-0.2,0.2-0.3,0.3c-0.1,0.1-0.2,0.1-0.4,0.2c-0.2,0-0.3,0.1-0.5,0.1
	s-0.4,0-0.6-0.1c-0.2-0.1-0.4-0.2-0.5-0.3c-0.1-0.2-0.3-0.4-0.4-0.6c-0.1-0.2-0.1-0.5-0.1-0.9c0-0.3,0.1-0.6,0.2-0.9
	c0.1-0.2,0.2-0.5,0.4-0.6c0.2-0.2,0.4-0.3,0.6-0.4c0.2-0.1,0.4-0.1,0.6-0.1c0.6,0,1,0.3,1.2,0.8h0v-0.8c0-0.2,0-0.4,0-0.6
	c0-0.2,0-0.4,0-0.6s0-0.4,0-0.5s0-0.3,0-0.4c0.1,0,0.1,0,0.2,0c0.1,0,0.1,0,0.2,0c0.1,0,0.1,0,0.2,0c0.1,0,0.1,0,0.2,0
	c0,0.2,0,0.4,0,0.7c0,0.3,0,0.7,0,1.1c0,0.4,0,0.8,0,1.2c0,0.4,0,0.8,0,1.1c0,0.4,0,0.7,0,1c0,0.3,0,0.6,0,0.9c-0.1,0-0.2,0-0.3,0
	s-0.2,0-0.3,0L191.1,21.5L191.1,21.5L191.1,21.5z M188.9,20.4c0,0.3,0,0.6,0.1,0.8c0.1,0.2,0.2,0.4,0.3,0.5c0.1,0.1,0.2,0.2,0.4,0.3
	c0.1,0.1,0.3,0.1,0.4,0.1c0.2,0,0.4-0.1,0.5-0.2c0.1-0.1,0.3-0.2,0.4-0.4c0.1-0.2,0.2-0.4,0.2-0.6c0.1-0.2,0.1-0.4,0.1-0.6
	c0-0.5-0.1-0.9-0.3-1.2s-0.5-0.4-0.9-0.4c-0.2,0-0.4,0-0.5,0.1s-0.3,0.2-0.4,0.4s-0.2,0.3-0.2,0.5C188.9,19.9,188.9,20.2,188.9,20.4
	L188.9,20.4z"/>
<path class="st0" d="M195.2,18.8c0.2-0.2,0.5-0.3,0.7-0.4c0.2-0.1,0.4-0.1,0.6-0.1c0.2,0,0.4,0,0.5,0.1c0.2,0.1,0.3,0.1,0.4,0.2
	c0.1,0.1,0.2,0.2,0.3,0.4s0.1,0.3,0.1,0.5c0,0.3,0,0.6,0,0.9c0,0.3,0,0.6,0,1c0,0.1,0,0.1,0,0.2c0,0.1,0,0.1,0,0.2
	c0,0.1,0.1,0.1,0.1,0.1c0,0,0.1,0.1,0.2,0.1c0,0,0.1,0,0.1,0s0.1,0,0.1,0v0.2c-0.1,0-0.1,0-0.2,0.1c-0.1,0-0.2,0-0.3,0
	c-0.2,0-0.3,0-0.4-0.1s-0.1-0.2-0.2-0.3c-0.2,0.2-0.4,0.3-0.6,0.4c-0.2,0.1-0.4,0.1-0.7,0.1c-0.1,0-0.3,0-0.4-0.1
	c-0.1,0-0.2-0.1-0.3-0.2c-0.1-0.1-0.2-0.2-0.2-0.3c-0.1-0.1-0.1-0.3-0.1-0.4c0-0.3,0.1-0.6,0.3-0.7c0.2-0.2,0.5-0.3,0.8-0.3
	c0.3-0.1,0.5-0.1,0.7-0.1c0.2,0,0.3-0.1,0.4-0.1c0.1,0,0.1-0.1,0.1-0.1c0-0.1,0-0.1,0-0.2c0-0.1,0-0.3-0.1-0.4
	c0-0.1-0.1-0.2-0.2-0.3c-0.1-0.1-0.2-0.2-0.3-0.2c-0.1-0.1-0.2-0.1-0.4-0.1c-0.2,0-0.4,0.1-0.6,0.1c-0.2,0.1-0.3,0.2-0.4,0.4h-0.1
	L195.2,18.8L195.2,18.8z M197.1,20.2c-0.1,0-0.2,0.1-0.3,0.1s-0.2,0-0.4,0.1c-0.1,0-0.2,0-0.4,0.1c-0.1,0-0.2,0.1-0.3,0.1
	s-0.2,0.1-0.2,0.2c-0.1,0.1-0.1,0.2-0.1,0.4c0,0.2,0.1,0.4,0.2,0.6c0.1,0.1,0.3,0.2,0.5,0.2c0.2,0,0.4-0.1,0.6-0.2
	c0.2-0.1,0.3-0.2,0.4-0.4L197.1,20.2L197.1,20.2z"/>
<path class="st0" d="M200.8,19c-0.1,0-0.2,0-0.2,0c-0.1,0-0.2,0-0.3,0.1s-0.2,0.1-0.3,0.2c-0.1,0.1-0.1,0.2-0.2,0.4
	c0,0.1-0.1,0.3-0.1,0.4v0.9c0,0.4,0,0.6,0,0.8s0,0.3,0,0.5c-0.1,0-0.2,0-0.3,0c-0.1,0-0.2,0-0.3,0c0-0.2,0-0.4,0-0.7
	c0-0.3,0-0.7,0-1.1v-0.3c0-0.2,0-0.4,0-0.7s0-0.6,0-0.9c0.1,0,0.1,0,0.2,0c0.1,0,0.1,0,0.2,0c0.1,0,0.1,0,0.2,0c0,0,0.1,0,0.2,0
	c0,0.2,0,0.3,0,0.5c0,0.1,0,0.2,0,0.3h0c0.3-0.6,0.7-0.9,1.1-0.9c0.1,0,0.1,0,0.1,0s0.1,0,0.1,0c0,0.1,0,0.2,0,0.3
	c0,0.1,0,0.2,0,0.4l-0.1,0C200.9,19.1,200.8,19,200.8,19L200.8,19z"/>
<path class="st0" d="M202.5,17.3c0,0.2,0,0.4,0,0.6c0,0.2,0,0.4,0,0.6c0.1,0,0.2,0,0.3,0c0.2,0,0.3,0,0.5,0c0,0,0,0,0,0.1v0.2
	c0,0,0,0.1,0,0.1c-0.1,0-0.1,0-0.2,0c-0.1,0-0.2,0-0.2,0h-0.4c0,0,0,0.1,0,0.3c0,0.1,0,0.3,0,0.5c0,0.2,0,0.4,0,0.6
	c0,0.2,0,0.4,0,0.6c0,0.1,0,0.3,0,0.4c0,0.1,0,0.3,0.1,0.4c0,0.1,0.1,0.2,0.2,0.3c0.1,0.1,0.2,0.1,0.4,0.1c0,0,0.1,0,0.2,0
	c0.1,0,0.1,0,0.2,0v0.2c-0.1,0-0.2,0-0.3,0.1c-0.1,0-0.2,0-0.3,0c-0.3,0-0.6-0.1-0.7-0.2c-0.2-0.2-0.2-0.4-0.2-0.7
	c0-0.1,0-0.3,0-0.5s0-0.4,0-0.6c0-0.2,0-0.4,0-0.7c0-0.2,0-0.5,0-0.8h-0.3c0,0-0.1,0-0.1,0c-0.1,0-0.1,0-0.1,0c0,0,0-0.1,0-0.1
	c0,0,0-0.1,0-0.1s0,0,0-0.1s0,0,0-0.1c0.2,0,0.4,0,0.5,0c0-0.1,0-0.2,0-0.4c0-0.2,0-0.3,0-0.5L202.5,17.3L202.5,17.3L202.5,17.3z"/>
<path class="st0" d="M204.1,17c0-0.1,0-0.2,0.1-0.3c0.1-0.1,0.2-0.1,0.3-0.1c0.1,0,0.2,0,0.3,0.1c0.1,0.1,0.1,0.2,0.1,0.3
	s0,0.2-0.1,0.3c-0.1,0.1-0.2,0.1-0.3,0.1c-0.1,0-0.2,0-0.3-0.1C204.1,17.2,204.1,17.1,204.1,17z M204.2,19.9c0-0.2,0-0.5,0-0.8
	c0-0.3,0-0.5,0-0.7c0.1,0,0.3,0,0.4,0c0.1,0,0.2,0,0.4,0c0,0.2,0,0.5-0.1,0.7c0,0.3,0,0.5,0,0.8v0.8c0,0.2,0,0.5,0,0.8
	c0,0.3,0,0.5,0.1,0.7c-0.1,0-0.2,0-0.4,0c-0.1,0-0.2,0-0.4,0c0-0.2,0-0.5,0-0.7c0-0.3,0-0.5,0-0.8V19.9z"/>
<path class="st0" d="M206.3,21.6c0.1,0.1,0.1,0.1,0.2,0.2c0.1,0.1,0.2,0.1,0.3,0.1c0.1,0,0.2,0.1,0.3,0.1c0.1,0,0.2,0,0.3,0
	c0.1,0,0.2-0.1,0.2-0.1c0.1-0.1,0.1-0.1,0.2-0.2c0-0.1,0.1-0.2,0.1-0.3c0-0.2-0.1-0.3-0.1-0.4s-0.2-0.2-0.4-0.2
	c-0.1-0.1-0.3-0.1-0.5-0.2c-0.2,0-0.3-0.1-0.5-0.2s-0.2-0.2-0.3-0.3c-0.1-0.1-0.1-0.3-0.1-0.5c0-0.2,0-0.3,0.1-0.5
	c0.1-0.1,0.1-0.3,0.3-0.4c0.1-0.1,0.2-0.2,0.4-0.2c0.2-0.1,0.4-0.1,0.6-0.1c0.2,0,0.4,0,0.5,0.1c0.1,0,0.3,0.1,0.4,0.1
	c0,0.1-0.1,0.2-0.1,0.3c0,0.1-0.1,0.2-0.1,0.3h-0.1c0-0.1-0.1-0.2-0.2-0.3s-0.3-0.1-0.5-0.1c-0.1,0-0.2,0-0.2,0s-0.2,0.1-0.2,0.1
	c-0.1,0-0.1,0.1-0.2,0.2c0,0.1-0.1,0.2-0.1,0.3c0,0.2,0,0.3,0.1,0.4c0.1,0.1,0.2,0.2,0.4,0.2s0.3,0.1,0.5,0.1c0.2,0,0.3,0.1,0.5,0.2
	s0.2,0.2,0.3,0.3c0.1,0.1,0.1,0.3,0.1,0.5c0,0.1,0,0.3-0.1,0.5s-0.2,0.3-0.3,0.4c-0.1,0.1-0.3,0.2-0.4,0.3c-0.2,0.1-0.4,0.1-0.6,0.1
	c-0.2,0-0.5,0-0.6-0.1c-0.2,0-0.3-0.1-0.4-0.2c0-0.1,0.1-0.2,0.1-0.3c0-0.1,0.1-0.2,0.1-0.3h0.1C206.2,21.5,206.2,21.6,206.3,21.6
	L206.3,21.6z"/>
<path class="st0" d="M210,17.3c0,0.2,0,0.4,0,0.6c0,0.2,0,0.4,0,0.6c0.1,0,0.2,0,0.3,0s0.3,0,0.5,0c0,0,0,0,0,0.1v0.2
	c0,0,0,0.1,0,0.1c-0.1,0-0.1,0-0.2,0c-0.1,0-0.2,0-0.2,0H210c0,0,0,0.1,0,0.3c0,0.1,0,0.3,0,0.5c0,0.2,0,0.4,0,0.6
	c0,0.2,0,0.4,0,0.6c0,0.1,0,0.3,0,0.4c0,0.1,0,0.3,0.1,0.4c0,0.1,0.1,0.2,0.2,0.3c0.1,0.1,0.2,0.1,0.4,0.1c0,0,0.1,0,0.2,0
	c0.1,0,0.1,0,0.2,0v0.2c-0.1,0-0.2,0-0.3,0.1s-0.2,0-0.3,0c-0.3,0-0.6-0.1-0.7-0.2c-0.2-0.2-0.2-0.4-0.2-0.7c0-0.1,0-0.3,0-0.5
	s0-0.4,0-0.6c0-0.2,0-0.4,0-0.7c0-0.2,0-0.5,0-0.8h-0.3c0,0-0.1,0-0.1,0c-0.1,0-0.1,0-0.2,0c0,0,0-0.1,0-0.1c0,0,0-0.1,0-0.1
	s0,0,0-0.1s0,0,0-0.1c0.2,0,0.4,0,0.5,0c0-0.1,0-0.2,0-0.4c0-0.2,0-0.3,0-0.5L210,17.3L210,17.3L210,17.3z"/>
<path class="st0" d="M211.6,17c0-0.1,0-0.2,0.1-0.3s0.2-0.1,0.3-0.1c0.1,0,0.2,0,0.3,0.1s0.1,0.2,0.1,0.3s0,0.2-0.1,0.3
	s-0.2,0.1-0.3,0.1c-0.1,0-0.2,0-0.3-0.1S211.6,17.1,211.6,17z M211.7,19.9c0-0.2,0-0.5,0-0.8c0-0.3,0-0.5-0.1-0.7c0.2,0,0.3,0,0.4,0
	c0.1,0,0.2,0,0.4,0c0,0.2,0,0.5,0,0.7c0,0.3,0,0.5,0,0.8v0.8c0,0.2,0,0.5,0,0.8c0,0.3,0,0.5,0,0.7c-0.1,0-0.2,0-0.4,0
	c-0.1,0-0.2,0-0.4,0c0-0.2,0-0.5,0.1-0.7c0-0.3,0-0.5,0-0.8V19.9z"/>
<path class="st0" d="M213.5,20.3c0-0.3,0.1-0.6,0.2-0.9s0.3-0.5,0.5-0.6s0.4-0.3,0.6-0.4c0.2-0.1,0.5-0.1,0.8-0.1
	c0.3,0,0.6,0,0.8,0.1c0.2,0.1,0.4,0.1,0.5,0.2c0,0.1-0.1,0.2-0.1,0.2s0,0.2-0.1,0.3h-0.1c0-0.1-0.1-0.1-0.2-0.2
	c-0.1-0.1-0.1-0.1-0.2-0.2s-0.2-0.1-0.3-0.1c-0.1,0-0.2-0.1-0.3-0.1c-0.2,0-0.4,0-0.6,0.1c-0.2,0.1-0.3,0.2-0.4,0.4
	c-0.1,0.2-0.2,0.3-0.2,0.6c0,0.2-0.1,0.4-0.1,0.7c0,0.5,0.1,1,0.4,1.2c0.2,0.3,0.6,0.4,1,0.4c0.1,0,0.2,0,0.3,0
	c0.1,0,0.2-0.1,0.3-0.1c0.1-0.1,0.2-0.1,0.3-0.2s0.2-0.1,0.2-0.2l0,0c0,0.1,0,0.3,0,0.4c-0.2,0.1-0.4,0.2-0.6,0.3
	c-0.2,0.1-0.5,0.1-0.7,0.1c-0.2,0-0.5,0-0.7-0.1c-0.2-0.1-0.4-0.2-0.6-0.3s-0.3-0.4-0.5-0.6C213.5,21,213.5,20.7,213.5,20.3
	L213.5,20.3z"/>
<path class="st0" d="M219.6,20.4c0-0.7,0.2-1.2,0.5-1.5c0.3-0.4,0.8-0.6,1.4-0.6c0.3,0,0.5,0,0.7,0.1c0.2,0.1,0.4,0.2,0.5,0.4
	c0.1,0.1,0.2,0.3,0.3,0.5c0.1,0.2,0.1,0.4,0.1,0.6c0,0,0,0.1,0,0.2c0,0,0,0.1,0,0.2c-0.3,0-0.6,0-0.9,0c-0.3,0-0.6,0-0.9,0
	c-0.2,0-0.4,0-0.5,0s-0.3,0-0.5,0c0,0,0,0.1,0,0.1v0.1c0,0.2,0,0.4,0.1,0.6s0.2,0.3,0.3,0.5c0.1,0.1,0.3,0.2,0.4,0.3
	c0.2,0.1,0.4,0.1,0.6,0.1c0.1,0,0.2,0,0.3,0c0.1,0,0.2-0.1,0.3-0.1c0.1,0,0.2-0.1,0.3-0.2c0.1-0.1,0.2-0.1,0.2-0.2l0,0l0,0.4
	c-0.2,0.1-0.4,0.2-0.6,0.3c-0.2,0.1-0.5,0.1-0.7,0.1c-0.3,0-0.6,0-0.8-0.1c-0.2-0.1-0.4-0.2-0.6-0.4c-0.2-0.2-0.3-0.4-0.4-0.6
	C219.7,21,219.6,20.7,219.6,20.4L219.6,20.4z M221.5,18.6c-0.2,0-0.4,0-0.5,0.1c-0.1,0.1-0.2,0.2-0.3,0.3c-0.1,0.1-0.1,0.3-0.2,0.4
	c0,0.2-0.1,0.3-0.1,0.5c0.2,0,0.3,0,0.5,0c0.2,0,0.4,0,0.5,0s0.4,0,0.5,0c0.2,0,0.4,0,0.5,0c0-0.1,0-0.3,0-0.5
	c0-0.2-0.1-0.3-0.1-0.4c-0.1-0.1-0.2-0.2-0.3-0.3C221.9,18.6,221.7,18.6,221.5,18.6L221.5,18.6z"/>
<path class="st0" d="M225.4,19.9c0.2-0.3,0.4-0.5,0.6-0.8c0.2-0.2,0.4-0.5,0.5-0.8c0.1,0,0.1,0,0.1,0c0,0,0.1,0,0.1,0
	c0.1,0,0.2,0,0.3,0c-0.3,0.3-0.5,0.6-0.8,0.9c-0.2,0.3-0.5,0.6-0.7,0.9c0.2,0.4,0.5,0.7,0.8,1c0.3,0.3,0.5,0.7,0.8,1
	c-0.1,0-0.1,0-0.2,0h-0.4c-0.1,0-0.1,0-0.2,0c-0.2-0.3-0.4-0.5-0.5-0.8c-0.2-0.3-0.4-0.5-0.6-0.8c-0.2,0.3-0.4,0.5-0.6,0.8
	c-0.2,0.3-0.4,0.5-0.6,0.8c-0.1,0-0.2,0-0.3,0c-0.1,0-0.2,0-0.3,0c0.3-0.3,0.5-0.6,0.8-0.9c0.2-0.3,0.5-0.6,0.7-0.9
	c-0.2-0.3-0.5-0.6-0.7-1c-0.2-0.3-0.5-0.6-0.8-1c0.1,0,0.1,0,0.2,0c0.1,0,0.1,0,0.2,0c0.1,0,0.1,0,0.2,0c0.1,0,0.1,0,0.2,0
	c0.2,0.3,0.3,0.5,0.5,0.8S225.2,19.7,225.4,19.9L225.4,19.9z"/>
<path class="st0" d="M227.9,20.8c0-0.2,0-0.4,0-0.6c0-0.2,0-0.4,0-0.6c0-0.2,0-0.4,0-0.6c0-0.2,0-0.4,0-0.5c0.1,0,0.3,0,0.4,0
	c0.1,0,0.2,0,0.4,0c0,0.1,0,0.3,0,0.4c0,0.1,0,0.3,0,0.4h0c0-0.1,0.1-0.2,0.2-0.3c0.1-0.1,0.2-0.2,0.3-0.3s0.2-0.2,0.4-0.2
	c0.1-0.1,0.3-0.1,0.5-0.1c0.2,0,0.4,0,0.6,0.1c0.2,0.1,0.4,0.2,0.5,0.4c0.1,0.2,0.3,0.4,0.4,0.6c0.1,0.2,0.1,0.5,0.1,0.9
	s0,0.6-0.1,0.9s-0.2,0.5-0.4,0.6c-0.2,0.2-0.4,0.3-0.6,0.4c-0.2,0.1-0.4,0.1-0.6,0.1c-0.6,0-1-0.2-1.3-0.8h0V22c0,0.2,0,0.4,0,0.6
	c0,0.2,0,0.4,0,0.6c0,0.2,0,0.4,0,0.6c0,0.2,0,0.4,0,0.5c-0.2,0-0.3,0-0.4,0s-0.2,0-0.4,0c0-0.1,0-0.3,0-0.5c0-0.2,0-0.4,0-0.6
	c0-0.2,0-0.4,0-0.6c0-0.2,0-0.4,0-0.6L227.9,20.8L227.9,20.8z M230.8,20.3c0-0.3,0-0.6-0.1-0.8c-0.1-0.2-0.1-0.4-0.3-0.5
	c-0.1-0.1-0.2-0.2-0.4-0.3c-0.1,0-0.3-0.1-0.4-0.1c-0.2,0-0.4,0.1-0.5,0.1s-0.3,0.2-0.4,0.4c-0.1,0.1-0.2,0.3-0.2,0.5
	c0,0.2-0.1,0.4-0.1,0.6c0,1.1,0.4,1.7,1.2,1.7c0.2,0,0.4,0,0.5-0.1c0.1-0.1,0.3-0.2,0.4-0.4s0.2-0.3,0.2-0.5
	C230.8,20.8,230.8,20.5,230.8,20.3z"/>
<path class="st0" d="M234.1,19c-0.1,0-0.2,0-0.2,0c-0.1,0-0.2,0-0.3,0.1c-0.1,0.1-0.2,0.1-0.3,0.2c-0.1,0.1-0.1,0.2-0.2,0.4
	c0,0.1-0.1,0.3-0.1,0.4v0.9c0,0.4,0,0.6,0,0.8s0,0.3,0,0.5c-0.1,0-0.2,0-0.3,0c-0.1,0-0.2,0-0.3,0c0-0.2,0-0.4,0-0.7
	c0-0.3,0-0.7,0-1.1v-0.3c0-0.2,0-0.4,0-0.7s0-0.6,0-0.9c0.1,0,0.1,0,0.2,0c0.1,0,0.1,0,0.2,0c0.1,0,0.1,0,0.1,0c0.1,0,0.1,0,0.2,0
	c0,0.2,0,0.3,0,0.5c0,0.1,0,0.2,0,0.3h0c0.3-0.6,0.7-0.9,1.1-0.9c0.1,0,0.1,0,0.1,0c0,0,0.1,0,0.1,0c0,0.1,0,0.2-0.1,0.3
	c0,0.1,0,0.2,0,0.4l-0.1,0C234.2,19.1,234.2,19,234.1,19L234.1,19z"/>
<path class="st0" d="M234.8,20.4c0-0.7,0.2-1.2,0.5-1.5c0.3-0.4,0.8-0.6,1.4-0.6c0.3,0,0.5,0,0.7,0.1c0.2,0.1,0.4,0.2,0.5,0.4
	c0.1,0.1,0.2,0.3,0.3,0.5c0.1,0.2,0.1,0.4,0.1,0.6c0,0,0,0.1,0,0.2c0,0,0,0.1,0,0.2c-0.3,0-0.6,0-0.9,0c-0.3,0-0.6,0-0.9,0
	c-0.2,0-0.3,0-0.5,0s-0.4,0-0.5,0c0,0,0,0.1,0,0.1v0.1c0,0.2,0,0.4,0.1,0.6s0.1,0.3,0.3,0.5c0.1,0.1,0.3,0.2,0.4,0.3
	c0.2,0.1,0.4,0.1,0.6,0.1c0.1,0,0.2,0,0.3,0c0.1,0,0.2-0.1,0.3-0.1c0.1,0,0.2-0.1,0.3-0.2c0.1-0.1,0.2-0.1,0.2-0.2l0,0l-0.1,0.4
	c-0.2,0.1-0.4,0.2-0.6,0.3c-0.2,0.1-0.5,0.1-0.7,0.1c-0.3,0-0.5,0-0.8-0.1s-0.4-0.2-0.6-0.4c-0.2-0.2-0.3-0.4-0.4-0.6
	S234.8,20.7,234.8,20.4L234.8,20.4z M236.6,18.6c-0.2,0-0.4,0-0.5,0.1c-0.1,0.1-0.2,0.2-0.3,0.3c-0.1,0.1-0.1,0.3-0.2,0.4
	c-0.1,0.2-0.1,0.3-0.1,0.5c0.2,0,0.3,0,0.5,0c0.2,0,0.3,0,0.5,0s0.4,0,0.5,0c0.2,0,0.4,0,0.5,0c0-0.1,0-0.3,0-0.5
	c0-0.2-0.1-0.3-0.1-0.4c-0.1-0.1-0.2-0.2-0.3-0.3S236.8,18.6,236.6,18.6L236.6,18.6z"/>
<path class="st0" d="M239.2,21.6c0.1,0.1,0.1,0.1,0.2,0.2c0.1,0.1,0.2,0.1,0.3,0.1c0.1,0,0.2,0.1,0.3,0.1c0.1,0,0.2,0,0.3,0
	c0.1,0,0.2-0.1,0.2-0.1s0.1-0.1,0.2-0.2s0.1-0.2,0.1-0.3c0-0.2-0.1-0.3-0.1-0.4s-0.2-0.2-0.4-0.2c-0.1-0.1-0.3-0.1-0.5-0.2
	c-0.2,0-0.3-0.1-0.5-0.2c-0.1-0.1-0.2-0.2-0.4-0.3c-0.1-0.1-0.1-0.3-0.1-0.5c0-0.2,0-0.3,0.1-0.5c0.1-0.1,0.1-0.3,0.3-0.4
	c0.1-0.1,0.2-0.2,0.4-0.2c0.2-0.1,0.3-0.1,0.6-0.1c0.2,0,0.4,0,0.5,0.1c0.1,0,0.3,0.1,0.4,0.1c0,0.1-0.1,0.2-0.1,0.3
	c0,0.1-0.1,0.2-0.1,0.3h-0.1c0-0.1-0.1-0.2-0.2-0.3c-0.1-0.1-0.3-0.1-0.5-0.1c-0.1,0-0.2,0-0.2,0c-0.1,0-0.2,0.1-0.2,0.1
	c-0.1,0-0.1,0.1-0.2,0.2c0,0.1-0.1,0.2-0.1,0.3c0,0.2,0,0.3,0.1,0.4c0.1,0.1,0.2,0.2,0.4,0.2c0.1,0,0.3,0.1,0.5,0.1
	c0.2,0,0.3,0.1,0.5,0.2c0.1,0.1,0.2,0.2,0.3,0.3c0.1,0.1,0.1,0.3,0.1,0.5c0,0.1,0,0.3-0.1,0.5c-0.1,0.1-0.2,0.3-0.3,0.4
	c-0.1,0.1-0.3,0.2-0.4,0.3c-0.2,0.1-0.4,0.1-0.6,0.1c-0.2,0-0.4,0-0.6-0.1c-0.2,0-0.3-0.1-0.4-0.2c0-0.1,0.1-0.2,0.1-0.3
	c0-0.1,0.1-0.2,0.1-0.3h0.1C239.1,21.5,239.1,21.6,239.2,21.6L239.2,21.6z"/>
<path class="st0" d="M242.3,21.6c0.1,0.1,0.1,0.1,0.2,0.2c0.1,0.1,0.2,0.1,0.3,0.1c0.1,0,0.2,0.1,0.3,0.1c0.1,0,0.2,0,0.3,0
	c0.1,0,0.2-0.1,0.2-0.1s0.1-0.1,0.2-0.2s0.1-0.2,0.1-0.3c0-0.2,0-0.3-0.1-0.4c-0.1-0.1-0.2-0.2-0.3-0.2c-0.1-0.1-0.3-0.1-0.5-0.2
	c-0.2,0-0.3-0.1-0.5-0.2c-0.1-0.1-0.2-0.2-0.3-0.3c-0.1-0.1-0.1-0.3-0.1-0.5c0-0.2,0-0.3,0.1-0.5c0.1-0.1,0.1-0.3,0.3-0.4
	c0.1-0.1,0.2-0.2,0.4-0.2c0.2-0.1,0.4-0.1,0.6-0.1c0.2,0,0.4,0,0.5,0.1c0.1,0,0.3,0.1,0.4,0.1c0,0.1-0.1,0.2-0.1,0.3
	c0,0.1-0.1,0.2-0.1,0.3h-0.1c0-0.1-0.1-0.2-0.2-0.3s-0.3-0.1-0.5-0.1c-0.1,0-0.2,0-0.2,0c-0.1,0-0.1,0.1-0.2,0.1
	c-0.1,0-0.1,0.1-0.2,0.2c0,0.1-0.1,0.2-0.1,0.3c0,0.2,0.1,0.3,0.1,0.4c0.1,0.1,0.2,0.2,0.4,0.2c0.1,0,0.3,0.1,0.5,0.1
	c0.2,0,0.3,0.1,0.5,0.2c0.1,0.1,0.2,0.2,0.4,0.3c0.1,0.1,0.1,0.3,0.1,0.5c0,0.1,0,0.3-0.1,0.5c-0.1,0.1-0.2,0.3-0.3,0.4
	c-0.1,0.1-0.3,0.2-0.4,0.3c-0.2,0.1-0.4,0.1-0.6,0.1c-0.2,0-0.4,0-0.6-0.1c-0.2,0-0.3-0.1-0.4-0.2c0-0.1,0.1-0.2,0.1-0.3
	c0-0.1,0-0.2,0-0.3h0.1C242.2,21.5,242.2,21.6,242.3,21.6L242.3,21.6z"/>
<path class="st0" d="M245.4,17c0-0.1,0-0.2,0.1-0.3s0.2-0.1,0.3-0.1c0.1,0,0.2,0,0.3,0.1s0.1,0.2,0.1,0.3s0,0.2-0.1,0.3
	s-0.2,0.1-0.3,0.1c-0.1,0-0.2,0-0.3-0.1S245.4,17.1,245.4,17z M245.5,19.9c0-0.2,0-0.5,0-0.8c0-0.3,0-0.5-0.1-0.7c0.2,0,0.3,0,0.4,0
	s0.2,0,0.4,0c0,0.2,0,0.5,0,0.7c0,0.3,0,0.5,0,0.8v0.8c0,0.2,0,0.5,0,0.8c0,0.3,0,0.5,0,0.7c-0.1,0-0.2,0-0.4,0c-0.1,0-0.2,0-0.4,0
	c0-0.2,0-0.5,0.1-0.7c0-0.3,0-0.5,0-0.8V19.9z"/>
<path class="st0" d="M247.2,20.3c0-0.4,0.1-0.7,0.2-0.9c0.1-0.2,0.3-0.5,0.4-0.6c0.2-0.2,0.4-0.3,0.6-0.3c0.2-0.1,0.5-0.1,0.7-0.1
	c0.2,0,0.5,0,0.7,0.1c0.2,0.1,0.4,0.2,0.6,0.3c0.2,0.2,0.3,0.4,0.4,0.6c0.1,0.2,0.2,0.6,0.2,0.9c0,0.4-0.1,0.7-0.2,0.9
	s-0.3,0.5-0.4,0.6c-0.2,0.2-0.4,0.3-0.6,0.3c-0.2,0.1-0.5,0.1-0.7,0.1c-0.2,0-0.5,0-0.7-0.1c-0.2-0.1-0.4-0.2-0.6-0.3
	c-0.2-0.2-0.3-0.4-0.4-0.6C247.3,21,247.2,20.7,247.2,20.3z M247.9,20.3c0,0.2,0,0.4,0.1,0.7c0,0.2,0.1,0.4,0.2,0.6
	c0.1,0.2,0.2,0.3,0.4,0.4c0.2,0.1,0.4,0.1,0.6,0.1s0.4-0.1,0.6-0.1c0.2-0.1,0.3-0.2,0.4-0.4c0.1-0.2,0.2-0.4,0.2-0.6
	c0-0.2,0.1-0.4,0.1-0.7s0-0.4-0.1-0.6s-0.1-0.4-0.2-0.6c-0.1-0.2-0.2-0.3-0.4-0.4c-0.2-0.1-0.4-0.1-0.6-0.1s-0.4,0.1-0.6,0.1
	c-0.2,0.1-0.3,0.2-0.4,0.4c-0.1,0.2-0.2,0.4-0.2,0.6S247.9,20.1,247.9,20.3z"/>
<path class="st0" d="M254.4,19.1c-0.2-0.2-0.4-0.3-0.6-0.3c-0.4,0-0.6,0.1-0.8,0.3c-0.2,0.2-0.3,0.6-0.3,1v0.7c0,0.2,0,0.5,0,0.8
	c0,0.3,0,0.5,0.1,0.7c-0.1,0-0.2,0-0.4,0s-0.2,0-0.4,0c0-0.2,0-0.5,0-0.7c0-0.3,0-0.5,0-0.8v-0.8c0-0.2,0-0.5,0-0.8
	c0-0.3,0-0.5,0-0.7c0.1,0,0.3,0,0.4,0c0,0,0.1,0,0.1,0c0,0,0.1,0,0.2,0c0,0.2,0,0.4,0,0.6h0c0.1-0.2,0.3-0.4,0.5-0.5
	c0.2-0.1,0.5-0.2,0.7-0.2c0.1,0,0.3,0,0.4,0.1c0.2,0,0.3,0.1,0.4,0.2c0.1,0.1,0.2,0.2,0.3,0.4c0.1,0.2,0.1,0.4,0.1,0.7
	c0,0.2,0,0.5,0,0.7c0,0.2,0,0.5,0,0.8v0.5c0,0.1,0,0.2,0,0.2s0,0.2,0,0.2c-0.1,0-0.2,0-0.3,0s-0.2,0-0.3,0c0-0.3,0-0.6,0-0.9
	c0-0.3,0-0.6,0-0.9V20C254.6,19.6,254.5,19.3,254.4,19.1L254.4,19.1z"/>
<path class="st0" d="M256.5,21.8c0-0.1,0-0.2,0.1-0.3s0.2-0.1,0.3-0.1s0.2,0,0.3,0.1c0.1,0.1,0.1,0.2,0.1,0.3c0,0.1,0,0.2-0.1,0.3
	c-0.1,0.1-0.2,0.1-0.3,0.1s-0.2,0-0.3-0.1S256.5,22,256.5,21.8z"/>
</svg>
