<?xml version="1.0" encoding="utf-8"?>
<!-- Generator: Adobe Illustrator 27.0.0, SVG Export Plug-In . SVG Version: 6.00 Build 0)  -->
<svg version="1.1" id="圖層_1" xmlns="http://www.w3.org/2000/svg" xmlns:xlink="http://www.w3.org/1999/xlink" x="0px" y="0px"
	 viewBox="0 0 173 103" style="enable-background:new 0 0 173 103;" xml:space="preserve">
<style type="text/css">
	.st0{fill:#E8D0A4;}
	.st1{fill:none;stroke:#571704;stroke-width:0.25;stroke-miterlimit:10;}
	.st2{fill:#834E1A;}
	.st3{fill:#40210F;}
</style>
<g>
	<rect x="0.1" y="0.1" class="st0" width="172.5" height="102.6"/>
	<line class="st1" x1="19.1" y1="31.9" x2="155.7" y2="31.9"/>
	<g>
		<g>
			<g>
				<path class="st2" d="M26.4,12.4l1.7,1.4c-0.1,0.1-0.2,0.2-0.5,0.3v9.2c0,0-0.5,0.6-1.8,0.6v-1.3h-4.6v0.7c0,0.3-0.7,0.8-1.5,0.8
					h-0.3V12.6l1.9,0.8h4.4L26.4,12.4z M25.8,13.6h-4.6v4.1h4.6V13.6z M21.2,22.3h4.6v-4.3h-4.6V22.3z"/>
				<path class="st2" d="M41.8,15.1c-0.1,0.1-0.2,0.2-0.6,0.2h-4c1,2.2,2.9,3.8,4.7,4.6l0,0.1c-0.7,0.2-1.2,0.8-1.5,1.7
					c-1.8-1.3-2.8-3.4-3.4-6.4H37v5.5l0.7-1.2l1.4,1.3c-0.1,0.1-0.3,0.2-0.6,0.2H37v2.4c0,0.2-0.7,0.5-1.4,0.5h-0.3v-2.9h-2.1l0-0.2
					h2.1v-3.1c-1.1,1.7-2.7,3.1-4.7,4.1l-0.1-0.2c1.8-1.6,3.2-4.1,3.7-6.4h-3.6l-0.1-0.2h4.7v-3.3l2.3,0.2c0,0.2-0.1,0.4-0.5,0.4
					v2.6h2.2l0.9-1.4L41.8,15.1z"/>
				<path class="st2" d="M53,12.4l1.6,1.2c-0.1,0.1-0.2,0.2-0.5,0.3v3.5c0,0-0.5,0.4-1.6,0.4v-1h-1.3v0.7c0,0-0.2,0.6-1.6,0.6v-2.6
					c-0.1,0.1-0.2,0.1-0.5,0.1h-1.7c-0.1,0.3-0.1,0.5-0.2,0.8c1.5,0.1,2,0.7,2,1.2c0,0.5-0.4,0.9-0.8,0.9c-0.2,0-0.3-0.1-0.5-0.2
					c-0.1-0.5-0.5-1.1-0.8-1.5c-0.3,0.6-0.7,1-1.4,1.5l1.7,0.7H51l0.6-0.9l1.7,1.3c-0.1,0.1-0.2,0.2-0.5,0.3v3.9
					c0,0-0.5,0.4-1.7,0.4V23h-4v0.3c0,0-0.2,0.7-1.7,0.7v-5.7c-0.4,0.3-1,0.5-1.6,0.7l-0.1-0.2c1.5-0.9,2-2,2.2-3.2h-2.3l0-0.2h2.3
					c0.1-0.6,0.1-1.2,0.1-1.8h-0.1c-0.5,0.7-1,1.3-1.6,1.6l-0.1-0.1c0.4-0.7,0.7-2,0.8-3.3l1.9,0.6c0,0.2-0.2,0.3-0.5,0.3
					c-0.1,0.3-0.2,0.5-0.4,0.8h1.3l0.7-1.1l1.4,1.1c-0.1,0.1-0.3,0.2-0.6,0.2h-1.2c0,0.7-0.1,1.3-0.2,1.8h0.2l0.7-1.1l1.2,1v-2.8
					l1.7,0.7h1.2L53,12.4z M51.2,19.1h-4v1.7h4V19.1z M47.1,22.8h4V21h-4V22.8z M51.2,16.6h1.3v-3.2h-1.3V16.6z"/>
				<path class="st2" d="M58.6,21.1c0.1,0.4,0.2,0.8,0.2,1.1c0,1-0.6,1.6-1.3,1.6c-0.5,0-1-0.3-1-0.9c0-0.5,0.4-0.8,0.8-0.9
					c0.5-0.1,1.1-0.4,1.2-0.8H58.6z M57.7,16.5c-0.1,0.2-0.2,0.3-0.3,0.3l-0.8-1.5c0.4,0,1.1,0,2-0.1v-0.7h-1.4l-0.1-0.2h1.4v-0.9
					h-1.7l-0.1-0.2h1.7v-1.3l2,0.2c0,0.2-0.1,0.2-0.4,0.3v0.9h0l0.6-0.8l1.2,0.9l0,0h1.6v-1.3l2,0.2c0,0.2-0.1,0.3-0.4,0.3v0.9h0.4
					l0.6-0.9l1.2,0.9c-0.1,0.2-0.2,0.2-0.5,0.2h-1.7v0.9h0.2l0.6-0.8l1.1,0.8c-0.1,0.2-0.2,0.2-0.5,0.2h-1.4v1h0.6l0.6-0.9l1.2,0.9
					c-0.1,0.2-0.2,0.2-0.5,0.2h-1.9v0.6c0,0,0,0.1-0.1,0.1l1.3,1c-0.1,0.1-0.2,0.2-0.4,0.2v2.5c0,0-0.4,0.5-1.7,0.5v-0.6h-6.7
					l-0.1-0.2h6.7v-1.2h-6.2l-0.1-0.2h6.3v-1.2h-6.6L57.7,17h6.5l0.3-0.4c-0.4,0.1-0.5,0.1-0.9,0.1v-1H62l-0.1-0.2h1.7v-1h-1.2
					l-0.1-0.2h1.3v-0.9h-1.5l0-0.2c-0.1,0.2-0.2,0.2-0.5,0.2h-1.3v0.9h0l0.6-0.8l1.1,0.8c-0.1,0.2-0.2,0.2-0.5,0.2h-1.2v0.6l1.7-0.1
					l0,0.2c-0.5,0.2-1,0.3-1.7,0.5v0.6c0,0-0.3,0.4-1.6,0.4v-0.6L57.7,16.5z M64.5,21.5l0,0.9c0.5,0.2,0.6,0.3,0.6,0.5
					c0,0.6-0.4,0.9-1.9,0.9h-2c-1.5,0-1.8-0.3-1.8-1.6v-1.4l1.9,0.1c-0.2-0.2-0.3-0.5-0.5-0.6l0.1-0.1c0.2,0,0.3,0,0.5,0
					c1.4,0,1.9,0.5,1.9,1c0,0.5-0.4,0.9-0.9,0.9c-0.2,0-0.4-0.1-0.6-0.2c-0.1-0.3-0.2-0.6-0.4-0.9c0,0.1-0.1,0.2-0.4,0.2v1
					c0,0.2,0,0.2,0.4,0.2h1.8C63.7,22.5,63.9,22.5,64.5,21.5L64.5,21.5z M64.6,20.9c2.3,0.1,3,1,3,1.7c0,0.6-0.4,1-0.9,1
					c-0.2,0-0.4-0.1-0.6-0.3C65.9,22.6,65.3,21.6,64.6,20.9L64.6,20.9z"/>
			</g>
		</g>
		<g>
			<g>
				<path class="st2" d="M83.5,18.2l1.4,1.2c-0.1,0.1-0.2,0.2-0.5,0.2c-1.7,2.6-3.8,3.8-8.1,4.2l0-0.1c3.1-0.8,5.2-2.2,6.5-4.5h-1.8
					c-0.4,0.3-0.9,0.6-1.4,0.9c1,0,1.4,0.5,1.4,0.9c0,0.4-0.3,0.8-0.7,0.8c-0.2,0-0.3-0.1-0.5-0.2c-0.1-0.4-0.3-0.9-0.6-1.2
					c-0.7,0.3-1.5,0.6-2.3,0.8l0-0.1c1.1-0.6,2.2-1.5,2.9-2.4c-0.9,0.3-2,0.5-3.2,0.6l0-0.1c2.6-0.8,4.6-2,5.8-3.8H80
					c-0.4,0.3-0.8,0.5-1.3,0.8v0c0.1,0,0.3,0,0.4,0c0.8,0,1.1,0.3,1.1,0.7c0,0.4-0.3,0.7-0.7,0.7c-0.1,0-0.3,0-0.4-0.1
					c-0.2-0.4-0.4-0.8-0.8-1.1c-0.6,0.3-1.3,0.5-2,0.7l0-0.1c1.3-0.7,2.5-2.1,3.1-3.2l2,0.5c0,0.1-0.2,0.2-0.5,0.2
					c-0.2,0.2-0.4,0.4-0.7,0.6h1.9l0.8-0.8l1.4,1.2c-0.1,0.1-0.2,0.2-0.5,0.2c-0.6,0.8-1.4,1.4-2.2,2l0.9,0.2
					c-0.1,0.1-0.2,0.2-0.5,0.2c-0.2,0.2-0.5,0.5-0.8,0.7h1.6L83.5,18.2z"/>
				<path class="st2" d="M94.6,20.4l0,1.7c0.4,0.2,0.5,0.3,0.5,0.5c0,0.6-0.3,0.9-1.5,0.9h-1.1c-1.3,0-1.6-0.3-1.6-1.6V18H90
					c0,0.2-0.1,0.2-0.4,0.3c-0.2,2.4-0.9,4.5-3.7,5.5l-0.1-0.1c2-1.2,2.3-3.4,2.3-5.6h-2.2l0-0.2h7.1l0.7-1.1l1.4,1.1
					C95,18,94.9,18,94.6,18h-2c0,0.1-0.1,0.2-0.3,0.2v3.7c0,0.3,0,0.3,0.3,0.3h1c0.2,0,0.3,0,0.4-0.2C94.1,21.8,94.3,21.2,94.6,20.4
					L94.6,20.4z M94,15c-0.1,0.1-0.2,0.1-0.5,0.1H87l0-0.2h4.9l0.7-1L94,15z"/>
				<path class="st2" d="M100.3,19.8l0,0.1c-0.7,0.5-1.9,1.2-3.6,2.1c-0.1,0.1-0.2,0.2-0.3,0.3l-0.6-1.7c0.3,0,0.9-0.1,1.5-0.2v-4.5
					h-1.5l0-0.2h2.7l0.6-1l1.2,1c-0.1,0.1-0.2,0.1-0.5,0.1h-1.1v4.3L100.3,19.8z M103.7,16l1.3,1.1c-0.1,0.1-0.2,0.2-0.4,0.2
					c-0.1,3.9-0.3,5.4-0.8,5.9c-0.4,0.4-0.8,0.5-1.5,0.5c0-0.8-0.1-1.2-1.1-1.5v-0.1c0.4,0,1,0,1.2,0c0.2,0,0.2,0,0.3-0.1
					c0.3-0.3,0.5-1.9,0.5-5.2h-0.9c-0.1,3-0.8,5.3-4.5,6.8l-0.1-0.1c2.6-1.8,3.1-3.9,3.2-6.7h-1.4l0-0.2h1.4c0-0.3,0-2.4,0-2.9
					l1.8,0.2c0,0.1-0.1,0.2-0.4,0.3c0,0.9,0,1.7,0,2.4h0.8L103.7,16z"/>
				<path class="st2" d="M109,14.4c0,0.1-0.1,0.2-0.4,0.2c-0.3,0.4-0.8,1-1.3,1.6c0.5,0,1.1,0,1.8,0c-0.2-0.3-0.4-0.6-0.6-0.8
					l0.1-0.1c1.7,0.2,2.2,0.9,2.2,1.5c0,0.5-0.3,0.8-0.7,0.8c-0.2,0-0.4-0.1-0.5-0.2c0-0.3-0.1-0.6-0.3-0.9c-0.6,0.3-1.5,0.6-2.6,1
					c0,0,0,0.1-0.1,0.1l1.1,0.5h1l0.5-0.7l1.3,1c-0.1,0.1-0.2,0.2-0.4,0.2v3.6c0,0.9-0.1,1.5-1.5,1.7c0-1.1-0.2-1.3-0.7-1.5v-0.1
					h0.8c0.1,0,0.1,0,0.1-0.1v-1h-1.2v2.2c0,0-0.2,0.5-1.3,0.5v-6.1h0l-0.6-1.5h1c0.1-0.7,0.3-1.6,0.3-2.3L109,14.4z M108.8,18.2
					h-1.2v1.3h1.2V18.2z M107.7,20.9h1.2v-1.3h-1.2V20.9z M114.5,17.3c0.4,0.2,0.5,0.3,0.5,0.5c0,0.5-0.4,0.8-1.4,0.8h-1
					c-1.2,0-1.5-0.3-1.5-1.5v-3.2l1.7,0.1c0,0.1-0.1,0.2-0.3,0.2v1.4c0.5-0.4,1.1-0.9,1.4-1.3l1.3,1.1c-0.1,0.1-0.2,0.1-0.3,0.1
					c-0.1,0-0.2,0-0.3-0.1c-0.5,0.1-1.3,0.3-2,0.4v1.1c0,0.2,0,0.3,0.2,0.3h0.9c0.3,0,0.4,0,0.9-1h0.1L114.5,17.3z M114.5,21.4l0,1
					c0.4,0.2,0.5,0.3,0.5,0.5c0,0.5-0.4,0.8-1.4,0.8h-1.1c-1.2,0-1.5-0.3-1.5-1.5v-3.3l1.7,0.1c0,0.1-0.1,0.2-0.3,0.2v1.3
					c0.5-0.4,1.1-1,1.4-1.3l1.4,1.1c-0.1,0.1-0.2,0.1-0.3,0.1c-0.1,0-0.2,0-0.3,0c-0.5,0.2-1.4,0.4-2.1,0.5v1.3c0,0.3,0,0.3,0.2,0.3
					h1c0.2,0,0.3,0,0.4-0.1C114.1,22.2,114.3,21.9,114.5,21.4L114.5,21.4z"/>
				<path class="st2" d="M118.3,14.7l0.6-0.8l1.3,1c-0.1,0.1-0.2,0.2-0.4,0.2v5.7c0,0.1-0.4,0.4-1.1,0.4h-0.2v-0.6h-0.8v0.3
					c0,0.1-0.2,0.2-0.4,0.3l1.2,0.6c0,0.1-0.1,0.2-0.4,0.2c-0.5,0.7-1.2,1.4-2.1,1.9l-0.1-0.1c0.5-0.7,0.9-1.7,1-2.4
					c-0.2,0-0.2,0-0.5,0v-7.1l1.4,0.5H118.3z M118.3,14.9h-0.8v1.7h0.8V14.9z M118.3,16.7h-0.8v1.7h0.8V16.7z M117.5,20.4h0.8v-1.7
					h-0.8V20.4z M118.1,21.2c1.4,0.2,1.9,0.8,1.9,1.3c0,0.4-0.4,0.8-0.8,0.8c-0.2,0-0.4-0.1-0.6-0.3
					C118.6,22.4,118.4,21.6,118.1,21.2L118.1,21.2z M125.1,16.6c-0.1,0.1-0.2,0.1-0.5,0.1h-1.7v2.5h0.1l0.6-0.8l1.3,1
					c-0.1,0.1-0.2,0.2-0.4,0.2v3.7c0,0.1-0.4,0.3-1.1,0.3h-0.2v-0.9h-1.7v0.6c0,0.1-0.4,0.4-1,0.4h-0.2v-5.1l1.4,0.6h0v-5.3l1.8,0.2
					c0,0.1-0.1,0.2-0.4,0.3v2.2h0.4l0.6-1.1L125.1,16.6z M123.1,19.4h-1.7v3.3h1.7V19.4z"/>
				<path class="st2" d="M127.3,18.1c0.4,0.9,0.6,1.6,0.6,2.2c0,0.9-0.4,1.8-1.2,1.8c-0.4,0-0.8-0.3-0.8-0.7c0-0.3,0.1-0.5,0.4-0.7
					C126.7,20.3,127.2,19.3,127.3,18.1L127.3,18.1z M128.2,14.4c0.3,0,0.7-0.1,1-0.1c1.8,0,2.4,0.8,2.4,1.4c0,0.5-0.3,0.9-0.8,0.9
					c-0.1,0-0.3,0-0.4-0.1c-0.3-0.6-1-1.5-2.1-2L128.2,14.4z M128.5,17.1l1.7,0.1c0,0.1-0.1,0.2-0.3,0.3v4.5c0,0.3,0,0.3,0.3,0.3
					h1.2c0.2,0,0.3,0,0.4-0.2c0.1-0.2,0.3-0.7,0.6-1.4h0.1v1.5c0.5,0.2,0.5,0.3,0.5,0.5c0,0.6-0.3,0.9-1.6,0.9h-1.2
					c-1.4,0-1.6-0.3-1.6-1.7V17.1z M132.3,17.8c1.9,0.9,2.6,2.1,2.6,3c0,0.8-0.5,1.3-1,1.3c-0.2,0-0.5-0.1-0.7-0.5
					c0-0.2,0-0.4,0-0.6C133.3,20.1,133,18.8,132.3,17.8L132.3,17.8z"/>
				<path class="st2" d="M142.8,15.8l1.3,1.2c-0.1,0.1-0.2,0.2-0.4,0.2c-1.2,1.8-3.1,3.3-5.4,4.3c0.7,0.5,1.8,0.6,3.4,0.6
					c0.7,0,2.4,0,3.2,0v0.1c-0.5,0.1-0.7,0.7-0.7,1.3h-2.5c-2.2,0-3.3-0.5-4-2.3c-0.3,0.6-0.6,1.5-0.9,2c0,0.1,0.1,0.1,0.1,0.2
					c0,0.1,0,0.2-0.1,0.2l-0.9-1c0.4-0.4,1.2-1.1,1.6-1.6l0.1-0.9l0.6,0.1l-0.5,0.7c0.1,0.2,0.2,0.3,0.4,0.4
					c1.6-1.1,3.1-2.9,3.9-4.6h-5.5l0-0.2h3.1V14l1.8,0.2c0,0.1-0.1,0.2-0.4,0.3v2.2h1L142.8,15.8z"/>
				<path class="st2" d="M148.6,18.7c-0.1,0.1-0.2,0.2-0.5,0.2v2.5c0.7,0.7,1.3,0.7,3.1,0.7c1,0,2.5,0,3.7,0v0.1
					c-0.5,0.1-0.8,0.6-0.9,1.3h-2.8c-1.8,0-2.6-0.3-3.2-1.9c-0.4,0.6-1.1,1.5-1.5,1.9c0,0.1-0.1,0.2-0.2,0.3l-0.7-1.6
					c0.3-0.1,0.7-0.2,1.2-0.4v-3.1h-1.1l0-0.2h1l0.6-0.9L148.6,18.7z M145.9,14.2c1.6,0.2,2.1,0.8,2.1,1.4c0,0.5-0.4,0.9-0.8,0.9
					c-0.2,0-0.4-0.1-0.6-0.3C146.6,15.5,146.3,14.7,145.9,14.2L145.9,14.2z M148.4,16l0-0.2h1.7c-0.2,0-0.3-0.1-0.5-0.3
					c0-0.5-0.1-1.1-0.4-1.5l0.1-0.1c1.3,0.2,1.7,0.7,1.7,1.2c0,0.4-0.3,0.7-0.7,0.8h1.5c0.1-0.6,0.2-1.4,0.2-1.9l1.9,0.5
					c0,0.1-0.1,0.2-0.4,0.2c-0.4,0.4-1,0.9-1.5,1.3h0.9l0.7-1l1.2,1c-0.1,0.1-0.2,0.1-0.5,0.1h-2.2c-0.3,0.4-0.7,0.9-1,1.2h1.2
					l0.5-0.7l1.3,1c0,0.1-0.2,0.2-0.3,0.2v3.8c0,0-0.4,0.4-1.4,0.4v-0.7h-1.9v0.2c0,0-0.2,0.6-1.4,0.6v-5.4l1.4,0.6h0.1
					c0-0.4,0-0.9,0-1.2H148.4z M152.4,17.3h-1.9v1.1h1.9V17.3z M150.5,18.6v1.1h1.9v-1.1H150.5z M150.5,21h1.9v-1.1h-1.9V21z"/>
			</g>
		</g>
	</g>
	<g>
		<g>
			<g>
				<path class="st3" d="M61.2,88.8c-0.4,0.4-0.9,0.7-1.6,0.7c-0.7,0-1.3-0.2-1.6-0.7c-0.4-0.4-0.6-1-0.6-1.7v-4h0.9v4.1
					c0,0.4,0.1,0.8,0.4,1c0.2,0.3,0.6,0.4,1,0.4c0.4,0,0.7-0.1,1-0.4c0.2-0.3,0.4-0.6,0.4-1V83h0.9v4C61.8,87.8,61.6,88.3,61.2,88.8
					z"/>
				<path class="st3" d="M64.4,89.4c-0.6,0-1.1-0.2-1.4-0.6c-0.3-0.4-0.5-0.9-0.5-1.6h0.9c0,0.5,0.1,0.8,0.3,1
					c0.2,0.2,0.5,0.3,0.9,0.3c0.3,0,0.6-0.1,0.8-0.2c0.2-0.2,0.3-0.4,0.3-0.7c0-0.3-0.2-0.5-0.5-0.7c-0.3-0.1-0.6-0.2-0.9-0.4
					c-0.5-0.2-0.9-0.4-1.1-0.6c-0.4-0.3-0.6-0.7-0.6-1.2c0-0.6,0.2-1,0.6-1.3c0.4-0.3,0.8-0.5,1.4-0.5c0.6,0,1.1,0.2,1.4,0.4
					c0.4,0.3,0.6,0.8,0.6,1.4h-0.9c0-0.7-0.4-1-1-1c-0.3,0-0.5,0.1-0.7,0.2c-0.2,0.2-0.3,0.4-0.3,0.6c0,0.3,0.1,0.5,0.4,0.7
					c0.1,0,0.3,0.2,0.7,0.3c0.7,0.3,1.1,0.5,1.3,0.6c0.4,0.3,0.7,0.7,0.7,1.3C66.7,88.8,66,89.4,64.4,89.4z"/>
				<path class="st3" d="M71,88.8c-0.4,0.3-0.8,0.5-1.4,0.5h-2.2V83h2.1c0.5,0,0.9,0.2,1.3,0.5c0.4,0.3,0.5,0.7,0.5,1.3
					c0,0.5-0.2,0.9-0.6,1.2c0.6,0.3,0.8,0.8,0.8,1.5C71.6,88.1,71.4,88.5,71,88.8z M69.4,83.9h-1v1.7h1c0.3,0,0.5-0.1,0.7-0.2
					c0.2-0.1,0.3-0.4,0.3-0.6C70.4,84.2,70.1,83.9,69.4,83.9z M70.1,86.7c-0.2-0.1-0.6-0.1-1-0.1h-0.8v1.9h1.1c0.8,0,1.2-0.3,1.2-1
					C70.6,87.1,70.5,86.8,70.1,86.7z"/>
				<path class="st3" d="M82.6,83.9v0.8h-1c0.7,0.6,1.2,1.3,1.7,1.9l-0.6,0.6c-0.2-0.2-0.3-0.5-0.5-0.7c-0.6,0.1-1.3,0.1-2.2,0.2
					v0.9h3.3v0.8h-3.3v0.9h3.7V90h-8.1v-0.8h3.6v-0.9h-3.2v-0.8h3.2v-0.8c-0.9,0-1.9,0.1-2.9,0.1L75.9,86c0.4,0,0.8,0,1.2,0
					c0.4-0.4,0.7-0.8,0.9-1.2h-1.6v-0.8H82.6z M80.1,82.4h3.5v2h-0.9v-1.1h-6.4v1.1h-0.9v-2h3.7c-0.1-0.2-0.2-0.5-0.3-0.7l0.9-0.1
					C79.9,81.8,80,82.1,80.1,82.4z M80.9,85.1l0.4-0.4H79c-0.2,0.4-0.5,0.8-0.8,1.2c1.3,0,2.4-0.1,3.3-0.2
					C81.3,85.6,81.1,85.4,80.9,85.1z"/>
				<path class="st3" d="M92.2,89.3c0,0.3-0.1,0.6-0.2,0.7c-0.1,0.2-0.3,0.2-0.6,0.2h-1.5l-0.2-0.9l1.4,0.1c0.2,0,0.3-0.2,0.3-0.4
					v-1.3l-0.5,0.7c-0.5-0.5-0.9-1-1.3-1.5c-0.3-0.5-0.6-1-0.8-1.6c-0.1,0.4-0.3,0.7-0.5,1c-0.4,0.7-1,1.5-1.8,2.3L86,87.9v2.4h-0.9
					v-6.9h3.1v-0.9h-2v-0.7h2.8v1.7h3V89.3z M87.5,85.7c0.2-0.4,0.4-0.9,0.6-1.5H86v3.3C86.7,86.9,87.2,86.3,87.5,85.7z M89.9,85.9
					c0.3,0.5,0.8,1.1,1.4,1.6v-3.2h-2.1C89.3,84.9,89.6,85.4,89.9,85.9z"/>
				<path class="st3" d="M94.7,83.3v-1.7h0.8v1.7h0.9v0.8h-0.9v1.8c0.3-0.2,0.6-0.4,0.8-0.6v0.9c-0.3,0.2-0.6,0.4-0.8,0.5v2.5
					c0,0.3-0.1,0.6-0.2,0.7c-0.1,0.1-0.4,0.2-0.7,0.2h-0.6l-0.2-0.9c0.2,0.1,0.4,0.1,0.6,0.1c0.2,0,0.3-0.1,0.3-0.2v-2
					c-0.3,0.1-0.6,0.3-1,0.4l-0.1-1c0.3-0.1,0.7-0.2,1.1-0.3v-2.2h-1v-0.8H94.7z M101.6,82.4c-0.6,0.2-1.4,0.3-2.2,0.3v0.8h2.4v0.8
					h-2.4v4.8h1.3v-1.4h-1v-0.7h1v-1h-1v-0.8h1.8v5.1h-0.8v-0.5h-3.5v0.5h-0.8v-4.9c0.5-0.2,1-0.4,1.4-0.7l0.5,0.7
					c-0.4,0.2-0.7,0.4-1.1,0.5v1h1v0.7h-1v1.4h1.4v-4.8h-2.1v-0.8h2.1v-0.8c-0.6,0-1.2,0-1.8,0l-0.2-0.8c1.9,0,3.4-0.1,4.7-0.4
					L101.6,82.4z"/>
				<path class="st3" d="M107.8,82.5h3.3v0.8h-6.9v2.6c0,0.7-0.1,1.4-0.1,2.1c-0.1,0.8-0.3,1.5-0.6,2.2l-0.7-0.7
					c0.3-0.6,0.4-1.2,0.5-1.8c0.1-0.7,0.1-1.3,0.1-1.8v-3.4h3.5c-0.2-0.3-0.4-0.5-0.6-0.8l1-0.1C107.5,81.8,107.6,82.1,107.8,82.5z
					 M107.2,87.5v-4h0.8v4h2.7v0.8H108v1h3.1v0.8h-7v-0.8h3.1v-1h-2.6v-0.8H107.2z M106.2,83.9c-0.1,0.3-0.1,0.7-0.2,0.9
					c0.4,0.4,0.7,0.8,1,1.3l-0.5,0.8c-0.3-0.5-0.5-0.9-0.8-1.3c-0.2,0.5-0.5,1-0.9,1.5l-0.6-0.8c0.3-0.4,0.6-0.8,0.7-1.2
					c0.2-0.4,0.3-0.8,0.4-1.4L106.2,83.9z M110,83.8c-0.1,0.4-0.2,0.8-0.2,1.1c0.4,0.4,0.9,0.9,1.3,1.4l-0.5,0.7
					c-0.4-0.6-0.8-1.1-1.1-1.4c-0.2,0.5-0.5,1-0.9,1.6l-0.5-0.7c0.3-0.4,0.6-0.8,0.7-1.3c0.2-0.4,0.3-0.9,0.4-1.6L110,83.8z"/>
			</g>
		</g>
		<g>
			<g>
				<path class="st3" d="M47.2,56.5c0.4,0.1,0.7,0.1,1.1,0.2c2.3,0.6,3.4,2.5,3.6,4c0.3,1.8-0.2,3.4-1.6,4.6
					c-0.7,0.6-1.6,0.9-2.6,1.1c-1.2,0.2-2.5,0.1-3.7,0.1c-0.1,0-0.2,0-0.3,0c0,1.5,0,2.9,0,4.4c-0.1,0-0.1,0-0.2,0
					c-1.4,0-2.7,0-4.1,0c0,0-0.1,0-0.1,0c0-4.8,0-9.5,0-14.3C41.9,56.5,44.5,56.5,47.2,56.5z M43.6,63c0,0,0.1,0,0.1,0
					c0.7,0,1.4,0,2.1,0c0.2,0,0.5,0,0.7-0.1c0.7-0.1,1.1-0.7,1.1-1.4c0.1-0.9-0.6-1.6-1.5-1.6c-0.8,0-1.5,0-2.3,0
					c-0.1,0-0.1,0-0.2,0C43.6,61,43.6,62,43.6,63C43.6,63,43.6,63,43.6,63z"/>
				<path class="st3" d="M124,56.5c0,0.9,0,1.8,0,2.7c-1.3,0-2.5,0-3.8,0c0-0.9,0-1.8,0-2.7C121.4,56.5,122.7,56.5,124,56.5z"/>
				<path class="st3" d="M67.1,70.8c-1.3,0-2.6,0-3.9,0c0-3.4,0-6.8,0-10.2c1.2,0,2.4,0,3.7,0c0,0.3,0.1,0.7,0.1,1.1
					c0.1-0.1,0.1-0.1,0.2-0.1c0.7-0.6,1.5-1.1,2.5-1.2c1.5-0.2,2.8,0.1,3.8,1.4c0.5,0.7,0.7,1.5,0.7,2.4c0,2.2,0,4.4,0,6.6
					c0,0,0,0.1,0,0.1c-1.3,0-2.7,0-4.1,0c0-0.1,0-0.2,0-0.2c0-1.8,0-3.7,0-5.5c0-0.2,0-0.3,0-0.5c-0.2-1.1-1.5-1.3-2.2-0.8
					c-0.4,0.3-0.7,0.8-0.7,1.3c0,0.6,0,1.2,0,1.8c0,1.2,0,2.5,0,3.7C67.1,70.6,67.1,70.7,67.1,70.8z"/>
				<path class="st3" d="M115.3,70.8c0-0.1,0-0.2,0-0.2c0-1.8,0-3.7,0-5.5c0-0.2,0-0.3,0-0.5c-0.2-1-1.2-1.3-1.9-1
					c-0.6,0.3-0.9,0.7-1,1.3c0,0.3,0,0.7,0,1c0,1.5,0,3.1,0,4.6c0,0.1,0,0.1,0,0.2c-1.3,0-2.6,0-3.9,0c0-3.4,0-6.8,0-10.2
					c1.2,0,2.4,0,3.7,0c0,0.3,0.1,0.7,0.1,1.1c0.1-0.1,0.1-0.1,0.2-0.1c0.7-0.6,1.5-1.1,2.5-1.2c1.5-0.2,2.8,0.1,3.8,1.4
					c0.5,0.7,0.7,1.5,0.7,2.4c0,2.2,0,4.4,0,6.6c0,0,0,0.1,0,0.1C118,70.8,116.6,70.8,115.3,70.8z"/>
				<path class="st3" d="M55.6,64.1c-0.3,0-0.6,0-0.9,0c-0.8,0-1.6,0-2.3-0.1c-0.2,0-0.2-0.1-0.2-0.2c-0.1-1.2,0.4-2.1,1.4-2.7
					c0.6-0.4,1.3-0.6,2-0.7c1.4-0.2,2.9-0.2,4.3,0.2c0.4,0.1,0.8,0.3,1.1,0.5c0.8,0.4,1.1,1.2,1.3,2c0.1,0.4,0.1,0.8,0.1,1.2
					c0,1.6,0.1,3.2,0.1,4.7c0,0.3,0,0.7,0.1,1c0,0.2,0.1,0.5,0.2,0.7c0,0-0.1,0-0.2,0c-1.1,0-2.2,0-3.3,0c-0.2,0-0.3-0.1-0.4-0.3
					c-0.1-0.2-0.2-0.4-0.2-0.7c0,0,0-0.1,0-0.1c-0.2,0.2-0.3,0.3-0.5,0.5c-0.7,0.6-1.6,0.8-2.5,0.9c-0.6,0-1.2-0.1-1.8-0.2
					c-1.4-0.4-2.1-1.7-2-3.1c0.1-1.3,0.9-2.1,2.1-2.5c1-0.3,2-0.5,2.9-0.6c0.4-0.1,0.7-0.2,1.1-0.3c0.4-0.1,0.6-0.4,0.6-0.7
					c0-0.3-0.3-0.7-0.6-0.8c-0.5-0.2-1-0.2-1.4,0c-0.5,0.2-0.6,0.6-0.7,1C55.6,64,55.6,64,55.6,64.1z M58.5,66.2
					c-0.3,0.1-0.5,0.2-0.8,0.3c-0.3,0.1-0.5,0.2-0.8,0.2c-0.3,0.1-0.7,0.2-1,0.3c-0.3,0.1-0.5,0.3-0.6,0.6c-0.1,0.4,0.2,0.9,0.6,1.1
					c0.3,0.1,0.6,0.1,1,0c0.7-0.1,1.3-0.5,1.5-1.2C58.5,67.1,58.5,66.7,58.5,66.2z"/>
				<path class="st3" d="M78.6,64.1c-0.3,0-0.7,0-1,0c-0.7,0-1.5,0-2.2-0.1c-0.2,0-0.2-0.1-0.2-0.2c-0.1-0.8,0.2-1.5,0.7-2.1
					c0.5-0.7,1.3-1,2.1-1.2c1.6-0.4,3.3-0.3,4.9,0.1c0.7,0.2,1.3,0.5,1.8,1.1c0.4,0.5,0.5,1.1,0.6,1.7c0.1,0.4,0.1,0.8,0.1,1.1
					c0,1.6,0.1,3.2,0.1,4.8c0,0.5,0,1,0.3,1.4c-0.1,0-0.2,0-0.2,0c-1.1,0-2.2,0-3.4,0c-0.2,0-0.3-0.1-0.3-0.2
					c-0.1-0.2-0.2-0.4-0.2-0.6c0-0.1,0-0.1-0.1-0.2c0,0,0,0-0.1,0c-1,1.1-2.3,1.4-3.7,1.3c-0.7-0.1-1.4-0.2-2-0.7
					c-1.3-1-1.5-3-0.5-4.2c0.5-0.6,1.1-0.9,1.8-1c0.9-0.2,1.8-0.4,2.7-0.6c0.3-0.1,0.6-0.1,0.9-0.2c0.4-0.1,0.6-0.4,0.6-0.7
					c0-0.3-0.3-0.7-0.6-0.8c-0.5-0.2-1-0.2-1.5,0c-0.4,0.2-0.6,0.6-0.7,1C78.6,64,78.6,64,78.6,64.1z M81.4,66.2
					c-0.8,0.3-1.6,0.5-2.3,0.8c-0.2,0.1-0.4,0.1-0.5,0.3c-0.4,0.3-0.4,0.7-0.2,1.1c0.1,0.2,0.3,0.3,0.6,0.4c0.3,0.1,0.6,0.1,0.9,0
					C81.2,68.5,81.6,67.6,81.4,66.2z"/>
				<path class="st3" d="M102.1,71.1c-1.1,0-2.2-0.2-3.2-0.9c-1.4-0.9-2.2-2.3-2.4-4c-0.1-1.2,0-2.3,0.6-3.3
					c0.9-1.5,2.2-2.3,3.9-2.6c1.2-0.2,2.3-0.1,3.4,0.3c1.7,0.7,2.9,1.9,3.3,3.8c0.4,2.1-0.3,4.6-2.6,5.9
					C104.2,71,103.2,71.1,102.1,71.1z M103.9,65.6c0-0.1,0-0.4,0-0.6c-0.1-0.5-0.2-1-0.5-1.4c-0.6-0.9-1.9-0.9-2.5,0
					c-0.2,0.3-0.3,0.7-0.4,1.1c-0.2,1-0.1,1.9,0.2,2.9c0.3,0.6,0.7,0.9,1.4,1c0.6,0,1.2-0.4,1.4-1C103.8,67,103.9,66.4,103.9,65.6z"
					/>
				<path class="st3" d="M85.8,67.4c1.3,0,2.5,0,3.8,0c0,0.1,0,0.3,0.1,0.4c0.1,0.5,0.5,0.9,1.2,1c0.3,0,0.6,0,0.8,0
					c0.2,0,0.4-0.2,0.6-0.3c0.4-0.4,0.2-1-0.3-1.2c-0.5-0.1-0.9-0.2-1.4-0.3c-0.9-0.2-1.8-0.3-2.7-0.6c-2-0.8-2.5-3.5-0.8-4.9
					c0.8-0.6,1.7-1,2.7-1.1c1.2-0.2,2.5-0.1,3.7,0.2c0.4,0.1,0.9,0.3,1.3,0.5c0.7,0.4,1.1,1.1,1.2,1.9c0,0.2,0,0.4,0.1,0.6
					c-1.2,0-2.4,0-3.6,0c0-0.1,0-0.2-0.1-0.3c-0.1-0.4-0.5-0.6-0.9-0.7c-0.3-0.1-0.7-0.1-1,0.1c-0.2,0.1-0.3,0.2-0.5,0.4
					c-0.2,0.3-0.1,0.6,0.2,0.7c0.3,0.1,0.7,0.2,1.1,0.2c1,0.2,2,0.4,2.9,0.7c0.6,0.2,1.1,0.5,1.5,0.9c0.8,0.9,1,2,0.5,3.2
					c-0.3,0.9-1.1,1.5-1.9,1.9c-1.1,0.5-2.2,0.6-3.3,0.5c-0.9,0-1.8-0.2-2.7-0.5c-1.1-0.4-1.8-1.1-2.2-2.2
					C85.8,68.1,85.8,67.7,85.8,67.4z"/>
				<path class="st3" d="M135.1,64.4c-0.1,0-0.2,0-0.2,0c-1,0-2.1,0-3.1,0c-0.1,0-0.2,0-0.2-0.2c-0.2-0.9-1.1-1.4-1.9-1.2
					c-0.5,0.2-0.9,0.5-1.1,1c-0.3,1-0.3,2,0,3c0.1,0.3,0.3,0.6,0.5,0.8c0.4,0.4,1,0.6,1.5,0.4c0.6-0.2,0.8-0.7,0.9-1.2
					c0-0.2,0-0.3,0.1-0.5c1.2,0,2.4,0,3.7,0c0,0.6,0,1.1-0.2,1.6c-0.5,1.2-1.4,2-2.5,2.5c-1.8,0.7-3.6,0.7-5.3-0.3
					c-1.4-0.8-2.3-2-2.6-3.6c-0.4-2,0.2-3.8,1.8-5.2c0.7-0.6,1.6-1,2.6-1.1c1.3-0.2,2.5-0.1,3.7,0.4c1.2,0.6,2.1,1.5,2.4,2.8
					C135.1,63.9,135.1,64.1,135.1,64.4z"/>
				<path class="st3" d="M123.9,70.8c-1.3,0-2.5,0-3.8,0c0-3.4,0-6.8,0-10.2c1.3,0,2.5,0,3.8,0C123.9,64,123.9,67.4,123.9,70.8z"/>
			</g>
		</g>
	</g>
</g>
</svg>
