<svg width="5" height="581" viewBox="0 0 5 581" fill="none" xmlns="http://www.w3.org/2000/svg">
<path d="M4.70001 510.5V509.2H0.100006V508.7H4.70001V507.4H4.80001V510.6H4.70001V510.5Z" fill="#C9A063"/>
<path d="M0.100006 514.3V513.8H2.60001V511.4H0.100006V510.9H4.80001V511.4H2.80001V513.8H4.90001V514.3H0.100006Z" fill="#C9A063"/>
<path d="M0.100006 518.2V515.8H4.80001V518.1H4.70001V516.3H2.80001V517.9H2.60001V516.3H0.200006V518.2H0.100006Z" fill="#C9A063"/>
<path d="M4.8 524.8L0 522.8L4.8 520.8V521.4L0.9 523L4.8 524.6V524.8Z" fill="#C9A063"/>
<path d="M2.5 530.6C1.8 530.6 1.2 530.4 0.8 529.9C0.3 529.4 0 528.8 0 528C0 527.3 0.2 526.6 0.7 526.2C1.2 525.7 1.7 525.5 2.4 525.5C3.1 525.5 3.7 525.7 4.1 526.2C4.6 526.7 4.8 527.3 4.8 528C4.8 528.7 4.6 529.4 4.1 529.8C3.7 530.3 3.1 530.6 2.5 530.6ZM2.5 530C3.2 530 3.7 529.8 4.1 529.5C4.6 529.1 4.8 528.6 4.8 528C4.8 527.4 4.6 526.9 4.1 526.5C3.7 526.1 3.1 526 2.5 526C1.8 526 1.3 526.2 0.9 526.5C0.4 526.9 0.2 527.4 0.2 528C0.2 528.6 0.4 529.1 0.9 529.5C1.3 529.8 1.8 530 2.5 530Z" fill="#C9A063"/>
<path d="M0.100006 532.2V531.7H4.80001V532.2H0.100006Z" fill="#C9A063"/>
<path d="M0.7 537.4C0.3 537 0 536.5 0 535.9C0 535.3 0.2 534.7 0.7 534.3C1.2 533.8 1.7 533.6 2.4 533.6C3.1 533.6 3.6 533.8 4.1 534.2C4.6 534.6 4.8 535.1 4.8 535.8C4.8 536.4 4.6 536.9 4.3 537.3L4.2 537C4.6 536.6 4.7 536.2 4.7 535.7C4.7 535.2 4.5 534.8 4 534.5C3.6 534.2 3 534.1 2.4 534.1C1.8 534.1 1.2 534.3 0.8 534.6C0.4 534.9 0.1 535.4 0.1 535.9C0.1 536.5 0.3 536.9 0.8 537.2L0.7 537.4Z" fill="#C9A063"/>
<path d="M0.100006 540.9V538.5H4.80001V540.8H4.70001V539H2.80001V540.6H2.60001V539H0.200006V540.9H0.100006Z" fill="#C9A063"/>
<path d="M4.70001 546.6V545.3H0.100006V544.8H4.70001V543.5H4.80001V546.7H4.70001V546.6Z" fill="#C9A063"/>
<path d="M0.100006 550.5V550H2.60001V547.6H0.100006V547.1H4.80001V547.6H2.80001V550H4.90001V550.5H0.100006Z" fill="#C9A063"/>
<path d="M0.100006 554.4V552H4.80001V554.3H4.70001V552.5H2.80001V554.1H2.60001V552.5H0.200006V554.4H0.100006Z" fill="#C9A063"/>
<path d="M4.8 562.6L0 561.1L3.9 559.7L0 558.4L4.8 556.9V557.4L1.1 558.6L4.9 559.9L1 561.3L4.8 562.5V562.6Z" fill="#C9A063"/>
<path d="M2.50001 568.2C1.80001 568.2 1.20001 568 0.800006 567.5C0.300006 567 0.100006 566.4 0.100006 565.7C0.100006 565 0.300006 564.3 0.800006 563.9C1.30001 563.4 1.80001 563.2 2.50001 563.2C3.20001 563.2 3.80001 563.4 4.20001 563.9C4.70001 564.4 4.90001 565 4.90001 565.7C4.90001 566.4 4.70001 567.1 4.20001 567.5C3.70001 568 3.10001 568.2 2.50001 568.2ZM2.50001 567.7C3.20001 567.7 3.70001 567.5 4.10001 567.2C4.60001 566.8 4.80001 566.3 4.80001 565.7C4.80001 565.1 4.60001 564.6 4.10001 564.2C3.70001 563.8 3.10001 563.7 2.50001 563.7C1.80001 563.7 1.30001 563.9 0.900006 564.2C0.400006 564.6 0.200006 565.1 0.200006 565.7C0.200006 566.3 0.400006 566.8 0.900006 567.2C1.30001 567.5 1.80001 567.7 2.50001 567.7Z" fill="#C9A063"/>
<path d="M0.100006 572.4V571.9L2.70001 570.3C2.70001 570.4 2.70001 570.5 2.70001 570.5C2.70001 571.2 3.00001 571.6 3.70001 571.6C4.40001 571.6 4.70001 571.1 4.70001 570.2V569.9H0.100006V569.4H4.80001C4.80001 569.5 4.80001 569.8 4.80001 570.3C4.80001 571.5 4.40001 572.1 3.60001 572.1C3.30001 572.1 3.00001 572 2.80001 571.8C2.60001 571.6 2.50001 571.3 2.40001 570.9L0.100006 572.4Z" fill="#C9A063"/>
<path d="M0.100006 575.8V573.4H4.80001V573.9H0.200006V575.8H0.100006Z" fill="#C9A063"/>
<path d="M2.50001 580.7C1.60001 580.7 1.00001 580.4 0.600012 579.7C0.300012 579.2 0.200012 578.7 0.200012 578.1V576.8H4.90001V578.1C4.90001 578.7 4.80001 579.2 4.50001 579.7C4.00001 580.3 3.30001 580.7 2.50001 580.7ZM2.50001 580.2C3.30001 580.2 3.90001 579.9 4.30001 579.3C4.60001 578.9 4.70001 578.4 4.70001 577.8V577.3H0.200012V577.8C0.200012 578.5 0.300012 579 0.600012 579.4C1.00001 579.9 1.60001 580.2 2.50001 580.2Z" fill="#C9A063"/>
<path d="M0.600006 0.200195V502.8" stroke="#C9A063" stroke-width="0.35" stroke-miterlimit="10"/>
</svg>
