<?xml version="1.0" encoding="utf-8"?>
<!-- Generator: Adobe Illustrator 27.0.0, SVG Export Plug-In . SVG Version: 6.00 Build 0)  -->
<svg version="1.1" id="圖層_1" xmlns="http://www.w3.org/2000/svg" xmlns:xlink="http://www.w3.org/1999/xlink" x="0px" y="0px"
	 viewBox="0 0 400 15" style="enable-background:new 0 0 400 15;" xml:space="preserve">
<style type="text/css">
	.st0{fill:#FFFFFF;}
</style>
<path class="st0" d="M135.7,2.9h-4.9c0,0.1,0,0.2,0,0.3c0,0.8-0.4,1.5-1.2,1.5c-0.4,0-0.7-0.2-0.7-0.6c0-0.3,0.2-0.5,0.5-0.7
	c0.5-0.2,0.9-0.8,0.8-1.5l0.3,0c0.1,0.2,0.1,0.4,0.2,0.6h4.9V1.3h-5.2L130.5,1h9.7l0.8-1l1.5,1c-0.1,0.2-0.3,0.3-0.8,0.3H137v1.2
	h5.1l0.7-0.7L144,3c-0.1,0.1-0.3,0.2-0.6,0.2c-0.3,0.4-0.9,0.9-1.4,1.2l-0.2-0.1c0.1-0.3,0.3-1,0.3-1.5H137v3.3
	c0,0.1-0.4,0.3-1.1,0.3h-0.2L135.7,2.9L135.7,2.9z M136,12.9c-0.1,0.2-0.3,0.3-0.7,0.3h-3.9v1.2c0,0-0.1,0.5-1.2,0.5V6.4l1.3,0.6
	h2.5l0.5-0.6l1.4,1c-0.1,0.1-0.3,0.2-0.6,0.3v1.8c0,0-0.4,0.4-1.2,0.4V9.3h-2.7v1.5h2.4l0.6-0.8l1.2,0.9c-0.1,0.2-0.3,0.3-0.7,0.3
	h-3.6v1.6h2.6l0.7-0.9L136,12.9z M131,5.7l-0.1-0.4h2.5l0.5-0.6l1.1,0.7c-0.1,0.2-0.3,0.3-0.7,0.3L131,5.7L131,5.7z M133.8,3.3
	l1.1,0.7c-0.1,0.2-0.3,0.3-0.7,0.3h-3L131.1,4h2.1L133.8,3.3L133.8,3.3z M134.1,7.4h-2.7v1.6h2.7V7.4z M141.8,9.8l1.2,1.1
	c-0.1,0.1-0.3,0.2-0.7,0.2c-0.5,0.7-1.1,1.2-1.8,1.7c1,0.4,2.1,0.6,3.3,0.7l0,0.2c-0.5,0.1-0.8,0.5-0.9,1.1
	c-1.3-0.3-2.5-0.8-3.4-1.4c-1.3,0.6-2.8,1.1-4.5,1.4l-0.1-0.3c1.5-0.4,2.8-0.9,3.9-1.6c-0.6-0.6-1.2-1.2-1.6-2.1h-1l-0.1-0.4h4.8
	L141.8,9.8L141.8,9.8z M142.4,9.4c0,0.1-0.6,0.4-1,0.4h-0.2V9.3h-4.5l-0.1-0.4h4.6V7.3h-4.4L136.7,7h4.4l0.5-0.7l1.5,1
	c-0.1,0.1-0.3,0.2-0.6,0.3L142.4,9.4L142.4,9.4z M137.8,5.7l-0.1-0.4h2.6l0.6-0.7l1.2,0.8c-0.1,0.2-0.3,0.3-0.7,0.3L137.8,5.7
	L137.8,5.7z M137.7,10.8c0.5,0.6,1.1,1.2,1.9,1.6c0.6-0.4,1-1,1.4-1.6H137.7z M140.6,3.3l1.1,0.7c-0.1,0.2-0.3,0.3-0.7,0.3h-3.1
	L137.8,4h2.2L140.6,3.3L140.6,3.3z"/>
<path class="st0" d="M148.5,1.3c0.2-0.4,0.6-0.7,1-0.7c0.9,0,1.8,0.6,1.8,1.1c0,0.3-0.3,0.4-0.5,1.1c-0.1,0.6-0.3,1.2-0.5,1.8
	c0.4-0.1,1-0.2,1.6-0.2c2.2,0,2.7,1.3,2.7,3.5c0,2.3-0.8,6-2.8,6c-0.4,0-0.6-0.3-0.7-0.8c-0.1-0.4-1-1.1-1.9-1.9l0.2-0.3
	c1.1,0.7,2,1.2,2.5,1.2c0.9,0,1.6-2.7,1.6-4.6c0-1.7-0.2-2.6-1.6-2.6c-0.4,0-1.3,0.1-1.8,0.3c-0.7,2.5-1.9,5.5-2.8,7.3
	c-0.3,0.6-0.6,1-1,1c-0.4,0-0.6-0.3-0.6-1c0-0.4,0.5-0.9,0.7-1.2c0.7-0.9,2-3.8,2.6-5.9c-0.3,0.1-1,0.3-1.4,0.5
	c-0.2,0.1-0.4,0.4-0.7,0.4c-0.8,0-1.3-0.9-1.3-1.5c0-0.4,0.3-0.7,0.5-0.8l0.1,0c-0.1,0.4,0.2,0.9,0.8,0.9c0.6,0,1.4-0.2,2.2-0.3
	c0.1-0.5,0.3-1.2,0.4-1.7c0.1-0.4,0.1-0.8,0.1-1c0-0.5-0.2-0.8-0.8-0.8C148.8,1.3,148.7,1.4,148.5,1.3L148.5,1.3L148.5,1.3z
	 M155.2,1c1.8,0.6,2.5,1.4,2.5,1.9c0,0.3-0.2,0.5-0.5,0.5c-0.3,0-0.4-0.2-0.5-0.5c-0.2-0.5-0.8-1.3-1.6-1.8L155.2,1z M155.4,3.5
	c2.8,0.7,4,2.9,3.9,4.6c0,0.8-0.3,1.3-0.8,1.3c-0.3,0-0.7-0.1-0.7-0.8c0-2-0.5-3.9-2.7-4.9L155.4,3.5L155.4,3.5z M157,0
	c1.8,0.6,2.5,1.4,2.5,1.9c0,0.3-0.2,0.5-0.4,0.5c-0.3,0-0.4-0.1-0.5-0.4c-0.2-0.5-0.8-1.3-1.7-1.8L157,0z"/>
<path class="st0" d="M166.1,5.3h-3.1v9c0,0-0.1,0.5-1.3,0.5V0.4l1.3,0.6h2.8l0.5-0.7l1.4,1c-0.1,0.1-0.3,0.2-0.6,0.3v4
	c0,0-0.3,0.4-1.2,0.4V5.3z M166.1,1.4h-3.1v1.6h3.1V1.4z M163.1,4.9h3.1V3.3h-3.1V4.9z M174,0.2l1.6,1.1c-0.1,0.1-0.4,0.3-0.7,0.3
	V13c0,1-0.2,1.6-1.7,1.8c0-1.1-0.4-1.2-1.4-1.3v0c-0.2,0.1-0.4,0.3-0.4,0.7c-1.8-0.8-2.5-2.3-2.8-3.5h-0.1c-0.4,1.5-1.4,2.7-4.3,3.5
	l-0.2-0.3c2.2-0.9,3-2,3.3-3.3h-3.1l-0.1-0.4h3.3c0.1-0.5,0.1-1.1,0.1-1.7h-3l-0.1-0.4h4.4c0.3-0.6,0.7-1.5,0.9-2.2l1.6,0.6
	c-0.1,0.2-0.3,0.2-0.6,0.2c-0.4,0.4-0.9,1-1.4,1.4h1.2l0.6-0.8l1.2,0.8c-0.1,0.2-0.3,0.3-0.7,0.3h-2.8c0,0.6-0.1,1.2-0.2,1.7h2.1
	l0.7-0.8l1.3,0.9c-0.1,0.2-0.3,0.3-0.7,0.3h-2.9c0.4,1,1.4,1.9,3.3,2.5l0,0.1h1.1c0.2,0,0.2-0.1,0.2-0.2V5.3h-3.2v0.3
	c0,0-0.2,0.4-1.2,0.4V0.5l1.3,0.6h3L174,0.2L174,0.2z M165.6,6.1c1.3,0.4,1.8,1,1.8,1.4c0,0.4-0.3,0.7-0.6,0.7
	c-0.2,0-0.3-0.1-0.5-0.2c-0.1-0.6-0.4-1.3-0.9-1.7L165.6,6.1L165.6,6.1z M173.6,1.4h-3.2v1.6h3.2V1.4z M170.4,4.9h3.2V3.3h-3.2V4.9z
	"/>
<path class="st0" d="M194.5,12l1.7,1.2c-0.1,0.2-0.3,0.3-0.8,0.3h-11.7v0.8c0,0.1-0.4,0.4-1.1,0.4h-0.2v-14l1.5,0.6h9.2l0.9-1.1
	l1.6,1.1c-0.1,0.2-0.3,0.3-0.8,0.3h-11.1v11.4h9.9L194.5,12L194.5,12z M193.4,3.1c-0.1,0.1-0.2,0.2-0.4,0.2c-0.1,0-0.1,0-0.2,0
	c-0.7,1.4-1.4,2.6-2.3,3.7c2.3,1.5,3.1,2.9,3.1,3.7c0,0.4-0.2,0.7-0.5,0.7c-0.2,0-0.4-0.1-0.5-0.2c-0.5-0.9-1.4-2-2.8-3.2
	c-1.6,1.9-3.5,3.4-5.5,4.4l-0.2-0.2c1.6-1.1,3.3-2.8,4.8-4.9c-1.2-0.9-2.7-1.9-4.3-2.7l0.1-0.2c2,0.7,3.6,1.4,4.8,2.1
	c0.8-1.2,1.5-2.6,2.1-4.1L193.4,3.1L193.4,3.1z"/>
<path class="st0" d="M210.6,6.5l1.6,1.1c-0.1,0.2-0.3,0.3-0.8,0.3H206c0.6,2.3,1.9,4.3,4.3,5.2c0.1,0.1,0.2,0.1,0.3,0.1
	c0.1,0,0.2-0.1,0.3-0.2c0.2-0.3,0.5-1,0.7-1.6l0.2,0l-0.2,2c0.4,0.4,0.6,0.6,0.6,0.8c0,0,0,0.6-0.8,0.6c-0.4,0-1-0.2-1.5-0.4
	c-3-1.3-4.5-3.6-5.1-6.4h-4.3v4.8c1.6-0.2,3.5-0.3,5.5-0.6l0,0.3c-1.6,0.5-4,1.1-7.4,1.9c-0.1,0.2-0.2,0.3-0.4,0.4l-0.9-1.7
	c0.5,0,1-0.1,1.8-0.1V0.4l1.5,0.6h8.1l0.6-0.7l1.6,1.1c-0.1,0.1-0.3,0.3-0.7,0.3v3.4c0,0-0.3,0.4-1.3,0.4V4.7h-2.8
	c-0.1,0.1-0.2,0.1-0.5,0.1c0,0.9,0.1,1.9,0.3,2.8h3.8L210.6,6.5z M209,1.3h-8.5v3h8.5V1.3z M200.5,7.6h4.2c-0.2-0.9-0.3-1.9-0.3-2.9
	h-3.9V7.6z"/>
<path class="st0" d="M217,1.5c0.1-0.3,0.4-0.6,0.9-0.6c0.9,0,2.1,0.4,2.1,1.1c0,0.2-0.1,0.3-0.2,0.5c-0.2,0.3-0.4,2.6-0.4,3.3
	c1.5-0.4,4.1-1,4.9-1.3c0.3-0.1,0.4-0.2,0.6-0.3c0.2-0.2,0.3-0.5,0.5-0.5c0.4,0,1.8,1,1.8,1.3c0,0.2-0.2,0.3-0.5,0.4
	c-0.2,0.1-0.3,0.1-0.4,0.3c-0.6,0.9-1.9,2.6-3.3,3.6l-0.3-0.2c1.3-1.6,2.1-3.7,2.1-3.9c0-0.1,0-0.1-0.1-0.1c-0.1,0-2.8,0.7-5.3,1.6
	c0,0.9-0.1,1.7-0.1,2.6c0,2.9,0.3,3.2,2.5,3.2c1.2,0,2.5-0.1,3.2-0.5c0.8,0.2,1.6,0.4,1.6,0.9c0,0.5-0.7,0.6-1.6,0.7
	c-0.8,0.1-2.7,0.1-3.5,0.1c-2.6,0-3.4-1-3.4-3.9c0-0.7,0-1.7,0-2.6c-1.4,0.5-1.8,0.6-2.1,0.9c-0.1,0.1-0.3,0.3-0.6,0.3
	c-0.6,0-1.7-0.9-1.7-1.7c0-0.4,0.2-0.8,0.3-0.8c0.1,0.8,0.9,0.9,1.2,0.9c0.6,0,1.2-0.2,2.8-0.6c0-0.6,0.1-2.9,0.1-3.2
	C218.2,2,218.2,1.5,217,1.5L217,1.5L217,1.5z"/>
<path class="st0" d="M229.7,2c2,0.2,4.6,1.1,4.6,2.6c0,0.4-0.3,0.7-0.8,0.7c-0.3,0-0.7-0.4-0.9-0.7c-0.5-0.7-1.6-1.8-3.1-2.3
	L229.7,2z M242.1,3.2c-2,4.6-5.5,7.6-9.4,9.5c-0.8,0.4-0.7,0.8-1.1,0.8c-0.7,0-1.9-1.1-1.9-2c0-0.3,0.2-0.6,0.4-0.8
	c0.1,0.6,0.6,1,1.1,1c1.2,0,7.5-3.3,10.5-8.7L242.1,3.2L242.1,3.2z"/>
<path class="st0" d="M243.7,8c3-2.5,4.5-5.8,4.5-6.5c0-0.4-0.6-0.6-1-0.6c0.1-0.3,0.3-0.5,0.8-0.5c0.7,0,2.1,0.6,2.1,1.1
	c0,0.2-0.2,0.3-0.3,0.4c-0.1,0.1-0.3,0.2-0.4,0.6c-0.1,0.3-0.2,0.5-0.4,0.8c0.1,0,0.3,0,0.4,0c0.5,0,2.3-0.1,3.2-0.2
	c0.3,0,0.4-0.1,0.6-0.3c0.1-0.1,0.4-0.3,0.5-0.3c0.4,0,1.5,1,1.5,1.3c0,0.2-0.2,0.3-0.4,0.4c-0.2,0.1-0.4,0.2-0.5,0.4
	c-0.4,1.1-1.3,2.7-1.9,3.6c0.6,0.4,1.7,1.1,1.7,1.9c0,0.4-0.3,0.7-0.7,0.7c-0.4,0-0.7-0.4-0.9-0.7c-0.2-0.3-0.6-0.5-0.9-0.7
	c-1.4,1.8-4,3.8-7.2,4.9l-0.2-0.3c2.7-1.2,5.1-3.4,6.4-5.3c-0.8-0.5-1.9-1.1-3.4-1.6l0.1-0.3c1.5,0.2,3,0.6,3.8,1
	c1.3-2,1.9-3.8,1.9-3.9c0-0.1,0-0.1-0.1-0.1c-0.6,0-3.3,0.5-3.7,0.5c-0.2,0-0.5-0.1-0.7-0.2c-1.1,1.6-2.4,3.1-4.6,4.4L243.7,8
	L243.7,8z"/>
<path class="st0" d="M267.3,6.7c1.1,0,1.7-0.1,1.9-0.1c0.8,0,1.9,0.3,1.9,0.7c0,0.3-0.4,0.5-1,0.5c-0.6,0-3.4-0.1-4.1-0.1
	c-1.8,0-5.7,0-6.5,0.3c-0.2,0.1-0.4,0.2-0.7,0.2c-0.6,0-1.8-1.1-1.8-1.7c0-0.4,0.1-0.6,0.3-0.9l0.1,0c0.2,0.9,0.9,1,2.5,1L267.3,6.7
	L267.3,6.7z"/>
</svg>
