<svg width="173" height="103" viewBox="0 0 173 103" fill="none" xmlns="http://www.w3.org/2000/svg">
<path d="M172.48 0H0V102.65H172.48V0Z" fill="#E8D0A4"/>
<path d="M18.96 31.8203H155.56" stroke="#581804" stroke-width="0.25" stroke-miterlimit="10"/>
<path d="M64.08 89.8196H63.19V89.1096H58.66V89.7896H57.77V81.3096H64.08V89.8096V89.8196ZM63.19 84.6496V82.2496H58.66V84.6496H63.19ZM63.19 88.2096V85.5896H58.66V88.2096H63.19Z" fill="#40220F"/>
<path d="M69.54 82.55V81H70.46V82.55H74.03V83.48H71.31C71.62 84.17 71.99 84.81 72.43 85.41C72.89 86.02 73.52 86.68 74.35 87.39L73.75 88.21C72.87 87.41 72.16 86.61 71.63 85.79C71.18 85.15 70.8 84.38 70.49 83.49H70.46V87.28H72.53V88.18H70.46V89.86H69.54V88.18H67.58V87.28H69.54V83.49H69.5C69.23 84.33 68.94 84.99 68.67 85.47C68.2 86.4 67.41 87.38 66.32 88.41L65.83 87.51C66.61 86.78 67.24 86.07 67.67 85.37C68.02 84.87 68.33 84.25 68.61 83.5H66.07V82.57H69.53L69.54 82.55Z" fill="#40220F"/>
<path d="M83.26 88.2495V89.1495H75.09V88.2495H83.26ZM82.83 81.7695V82.6595H75.48V81.7695H82.83ZM82.33 84.9195V85.8095H75.95V84.9195H82.33Z" fill="#40220F"/>
<path d="M84.92 83.2997V81.0397H85.78V83.2997H86.71V84.1297H85.78V89.7497H84.92V84.1297H84.07V83.2997H84.92ZM87.15 85.4697C87.15 85.2497 87.17 85.0097 87.18 84.7597H87.96C87.96 85.0197 87.94 85.2597 87.93 85.4697H89.17C89.15 87.6897 89.04 88.9397 88.84 89.2597C88.72 89.5297 88.33 89.6697 87.67 89.6697L87.5 88.7697C87.76 88.8297 87.97 88.8497 88.14 88.8497C88.23 88.8497 88.29 88.7697 88.34 88.5997C88.38 88.4297 88.4 87.6497 88.42 86.2597H87.87C87.8 86.9497 87.71 87.4997 87.59 87.8897C87.36 88.5897 86.99 89.1997 86.46 89.7097L85.93 88.9997C86.38 88.5697 86.69 88.0897 86.86 87.5497C86.96 87.2497 87.04 86.8197 87.1 86.2497H86.29V85.4597H87.16L87.15 85.4697ZM89.01 81.8297C89.01 81.7197 89.03 81.6097 89.03 81.4897V80.9697H89.88V81.4897C89.88 81.6097 89.88 81.7197 89.86 81.8297H92.23C92.17 83.1897 92.05 83.9997 91.87 84.2297C91.69 84.4597 91.28 84.5797 90.66 84.5797C90.19 84.5797 89.87 84.5797 89.67 84.5397L89.49 83.7497C89.87 83.7997 90.27 83.8197 90.67 83.8197C90.96 83.8197 91.14 83.7597 91.22 83.6297C91.29 83.5397 91.34 83.2097 91.36 82.6197H89.72C89.61 82.9897 89.44 83.3097 89.22 83.5797C88.82 84.0597 88.16 84.4297 87.26 84.6797L86.8 83.8897C87.66 83.6597 88.24 83.3597 88.55 82.9997C88.65 82.8797 88.73 82.7497 88.8 82.6197H87.05V81.8297H89.03H89.01ZM90.21 85.4697C90.21 85.2397 90.23 84.9897 90.24 84.7197H91.02C91.02 84.9897 91 85.2397 90.99 85.4697H92.41C92.39 87.6897 92.26 88.9397 92.04 89.2597C91.91 89.5297 91.47 89.6697 90.74 89.6697L90.6 88.8097C90.84 88.8597 91.04 88.8897 91.2 88.8897C91.33 88.8897 91.44 88.7997 91.51 88.6297C91.56 88.4597 91.61 87.6697 91.63 86.2597H90.94C90.89 86.9397 90.79 87.4797 90.68 87.8797C90.47 88.5797 90.12 89.1897 89.63 89.7097L89.09 88.9997C89.51 88.5697 89.79 88.0797 89.95 87.5397C90.04 87.2397 90.1 86.8097 90.16 86.2497H89.38V85.4597H90.2L90.21 85.4697Z" fill="#40220F"/>
<path d="M95.65 81.0898C96.21 81.5798 96.71 82.0898 97.15 82.6298L96.55 83.2398C96.06 82.6298 95.66 82.1598 95.34 81.8498C95.01 82.3598 94.66 82.8498 94.25 83.3198H96.51V84.1098H95.62V84.8998H96.87V85.6898H95.62V88.4698C96.03 88.3998 96.45 88.3299 96.87 88.2299V89.0598C95.85 89.2798 94.71 89.4498 93.45 89.5898L93.34 88.7299C93.82 88.7099 94.33 88.6598 94.84 88.5998V85.6998H93.42V84.9099H94.84V84.1199H93.99V83.6498C93.84 83.8098 93.71 83.9699 93.56 84.1199L93.27 83.1398C93.87 82.5798 94.42 81.9098 94.91 81.1098H95.66L95.65 81.0898ZM94.44 88.0698L93.66 88.1498C93.64 87.3398 93.57 86.7198 93.45 86.2698L94.13 86.1998C94.29 86.6598 94.39 87.2798 94.45 88.0698H94.44ZM96.87 86.1998C96.82 86.8498 96.72 87.3998 96.59 87.8398L95.88 87.6199C96.05 87.1599 96.17 86.6599 96.24 86.1199L96.88 86.1998H96.87ZM101.25 81.2898V84.5499H99.59C99.55 84.9899 99.52 85.4098 99.46 85.8198H101.36V89.8298H100.58V89.1998H97.98V89.8298H97.2V85.8198H98.62C98.68 85.4198 98.74 84.9899 98.77 84.5499H97.3V81.2898H101.25ZM100.57 88.4498V86.5798H97.97V88.4498H100.57ZM100.47 82.0398H98.08V83.8098H100.47V82.0398Z" fill="#40220F"/>
<path d="M107.03 81.7293H110.51V83.4493H109.65V82.5193H107.8V83.0393C107.8 83.1893 107.89 83.2693 108.08 83.2693H109.51V83.9393H107.9C107.63 83.9393 107.42 83.8893 107.27 83.7893C107.12 83.6793 107.04 83.5093 107.04 83.2693V82.5193H105.88L106.22 82.7393C105.98 83.1193 105.72 83.4193 105.41 83.6293C105.09 83.8393 104.62 84.0193 103.98 84.1693L103.55 83.3793C104.21 83.2593 104.65 83.1393 104.89 82.9993C105.08 82.8993 105.26 82.7493 105.44 82.5193H103.45V83.4493H102.59V81.7293H106.1C106.01 81.5193 105.9 81.3193 105.79 81.1293L106.72 80.9893C106.83 81.2093 106.93 81.4593 107.02 81.7393L107.03 81.7293ZM106.84 83.5993C106.73 83.8893 106.58 84.1493 106.4 84.3893H109.98V89.7893H109.16V89.3793H104.06V89.7893H103.24V84.3893H105.54C105.74 84.1093 105.89 83.8093 105.99 83.4893L106.85 83.5993H106.84ZM105.88 88.6593L105.55 88.2493C106.06 87.9393 106.48 87.6493 106.81 87.3393C106.61 87.2093 106.4 87.0693 106.18 86.9393C105.89 87.2693 105.5 87.5893 104.98 87.9193L104.48 87.2893C104.92 87.0393 105.27 86.7993 105.54 86.5693C105.23 86.3993 104.92 86.2193 104.59 86.0493L105.08 85.5593C105.39 85.7293 105.7 85.8993 105.99 86.0493C106.14 85.8393 106.25 85.5893 106.36 85.2993L107.07 85.4193C106.91 85.8093 106.75 86.1393 106.59 86.3993C106.83 86.5493 107.06 86.6893 107.29 86.8193C107.57 86.4593 107.81 85.9893 108 85.4193L108.75 85.5293C108.48 86.2593 108.19 86.8293 107.9 87.2293C108.21 87.4393 108.51 87.6493 108.79 87.8493L108.25 88.4193C108 88.2193 107.74 88.0093 107.45 87.7993C107.18 88.0993 106.84 88.3993 106.46 88.6793H109.15V85.1193H104.05V88.6793H105.87L105.88 88.6593Z" fill="#40220F"/>
<path d="M79.66 66.97C81.12 66.35 82.63 65.8 83.81 64.65C84.68 63.81 85.35 62.83 85.49 61.64C85.69 59.99 85.77 58.32 85.88 56.66C85.91 56.15 85.88 55.63 85.88 55.06H88.1V58.84C89.18 58.41 90 57.84 90.73 57.13C92.04 55.87 92.99 54.41 93.47 52.65C93.72 51.76 93.58 51.59 92.65 51.59C88.58 51.59 84.51 51.59 80.45 51.59H79.61V49.84C79.96 49.82 80.32 49.77 80.67 49.77C85.18 49.76 89.7 49.76 94.21 49.75C94.32 49.75 94.43 49.75 94.55 49.75C95.77 49.79 95.94 49.95 95.9 51.17C95.83 53.51 94.86 55.51 93.43 57.28C92.09 58.95 90.41 60.2 88.37 60.96C88.08 61.07 87.78 61.45 87.7 61.75C86.99 64.56 85.42 66.62 82.67 67.67C81.69 68.05 80.7 68.41 79.63 68.81V66.97H79.66Z" fill="#40220F"/>
<path d="M105.98 49.7501V50.6201C105.98 55.4901 105.98 60.3601 105.98 65.2301C105.98 66.2801 105.96 66.4301 107.12 66.0201C108.59 65.5101 109.62 64.4401 110.42 63.1401C111.59 61.2401 111.92 59.1301 112.04 56.9601C112.04 56.8301 112.07 56.7001 112.08 56.5101H114C114 57.1401 114.05 57.8101 114 58.4601C113.83 60.2801 113.47 62.0701 112.66 63.7101C111.4 66.2601 109.38 67.9101 106.55 68.4801C106.11 68.5701 105.68 68.6701 105.24 68.7001C104.26 68.7701 103.8 68.3101 103.79 67.3401C103.79 66.9601 103.79 66.5801 103.79 66.2001C103.79 60.9701 103.8 55.7401 103.78 50.5101C103.78 49.8901 103.96 49.6601 104.57 49.7201C105.01 49.7601 105.46 49.7201 106.01 49.7201L105.98 49.7501Z" fill="#40220F"/>
<path d="M73.02 57.3301V55.5201C73.62 55.5201 74.24 55.5201 74.85 55.5201C75.26 55.5201 75.48 55.3601 75.48 54.9301C75.47 54.2201 75.45 53.5001 75.45 52.7901C75.45 52.4101 75.31 52.2101 74.9 52.2201C74.03 52.2301 73.16 52.2401 72.29 52.2201C71.8 52.2001 71.71 52.5301 71.61 52.8801C71.34 53.8001 70.95 54.6401 70.29 55.3701C69.43 56.3201 68.33 56.7801 67.13 57.0901C66.67 57.2101 66.2 57.3001 65.68 57.4201V55.8901C66.54 55.4901 67.4 55.1101 68.23 54.6701C69.01 54.2601 69.33 53.4801 69.61 52.7001C69.76 52.2801 69.46 52.2301 69.13 52.2301C68.01 52.2301 66.9 52.2301 65.78 52.2301H65.08V50.4101C66.34 50.4101 67.59 50.4101 68.83 50.4101C69.57 50.4101 69.9467 50.0268 69.96 49.2601C69.96 49.1501 69.97 49.0401 69.99 48.8701H72.15C72.15 49.0901 72.16 49.3101 72.15 49.5301C72.08 50.3801 72.1 50.4101 72.92 50.4101C74.01 50.4101 75.11 50.4101 76.2 50.4101C76.94 50.4101 77.26 50.7201 77.26 51.4701C77.27 53.0301 77.28 54.6001 77.26 56.1601C77.25 56.9801 76.88 57.3201 76.07 57.3301C75.09 57.3301 74.11 57.3301 73.03 57.3301H73.02Z" fill="#40220F"/>
<path d="M63.14 68.7096H61.15C61.14 68.4896 61.12 68.2696 61.12 68.0596C61.12 64.1496 61.12 60.2396 61.12 56.3296C61.12 55.4363 60.6533 54.9596 59.72 54.8996C59.72 54.5796 59.74 54.2496 59.72 53.9296C59.67 53.3696 59.79 53.0196 60.47 53.1096C60.96 53.1796 61.13 52.8996 61.12 52.4196C61.1 51.2396 61.12 50.0596 61.12 48.8496H63.16C63.16 49.9096 63.16 50.9696 63.16 52.0396C63.16 53.0896 63.16 53.1096 64.2 53.1196C64.64 53.1196 64.81 53.2596 64.78 53.6996C64.75 54.0796 64.78 54.4496 64.78 54.8996C64.53 54.9196 64.31 54.9396 64.1 54.9396C63.48 54.9529 63.17 55.2763 63.17 55.9096C63.17 60.1496 63.17 64.3896 63.17 68.7096H63.14Z" fill="#40220F"/>
<path d="M95.37 68.8003C95.37 68.0303 95.34 67.4103 95.39 66.7903C95.41 66.6003 95.6 66.3703 95.78 66.2603C97.46 65.1403 98.36 63.4903 98.47 61.5803C98.68 57.8403 98.66 54.0903 98.74 50.3503C98.74 50.2003 98.74 50.0403 98.74 49.8203H101.01C101.01 50.7203 101.01 51.5903 101.01 52.4503C101.01 54.5003 101.07 56.5603 101.01 58.6103C100.96 60.2903 100.93 61.9803 100.38 63.6203C99.64 65.8503 98.24 67.4603 96.12 68.4503C96.02 68.5003 95.91 68.5303 95.81 68.5803C95.72 68.6203 95.62 68.6803 95.38 68.8003H95.37Z" fill="#40220F"/>
<path d="M63.9 68.6898C63.9 68.2098 63.89 67.7398 63.9 67.2898C63.9 67.1598 63.98 66.9698 64.08 66.8998C64.97 66.2898 65.24 65.3298 65.42 64.3898C65.6 63.4298 65.56 62.4398 65.64 61.4598C65.68 60.9898 65.47 60.8098 65.01 60.8398C64.66 60.8598 64.31 60.8398 63.92 60.8398C63.92 60.2298 63.92 59.6798 63.92 59.1298C64.45 58.6998 65.59 59.5698 65.69 58.2598H67.22C67.22 58.8698 67.58 58.9498 68.1 58.9198C68.63 58.8898 69.19 58.8998 69.68 59.0598C69.98 59.1598 70.36 59.5798 70.37 59.8598C70.42 62.4298 70.41 64.9898 70.39 67.5598C70.39 68.1598 69.85 68.6898 69.24 68.7198C68.53 68.7498 67.81 68.7198 67.05 68.7198V66.9598C67.19 66.9398 67.29 66.9098 67.4 66.9098C68.72 66.9198 68.58 66.9398 68.59 65.6298C68.59 64.3398 68.59 63.0398 68.59 61.7498C68.59 61.2998 68.73 60.7998 67.94 60.8098C67.16 60.8098 67.26 61.2998 67.21 61.7898C67.11 62.8498 67.03 63.9198 66.84 64.9598C66.53 66.6798 65.62 67.9698 63.88 68.6698L63.9 68.6898Z" fill="#40220F"/>
<path d="M71.18 68.6803C71.19 67.8603 71.02 67.1103 71.8 66.4203C72.47 65.8303 72.75 64.9103 72.78 63.9503C72.8 63.1803 72.91 62.4103 72.99 61.6303C73.05 61.0203 72.82 60.7503 72.2 60.8203C71.89 60.8503 71.58 60.8203 71.23 60.8203V59.1003C71.81 58.7503 72.86 59.4403 73.08 58.2203C73.44 58.2203 73.82 58.2103 74.19 58.2203C74.31 58.2203 74.52 58.2803 74.53 58.3503C74.68 59.0303 75.2 58.8703 75.65 58.8803C78.06 58.9403 77.68 59.1903 77.7 60.9403C77.72 63.0403 77.7 65.1403 77.7 67.2403C77.69 68.4003 77.36 68.7103 76.21 68.7103C75.63 68.7103 75.06 68.7103 74.44 68.7103V66.9703C74.55 66.9503 74.65 66.9003 74.75 66.9103C75.9 66.9103 75.95 67.0503 75.94 65.6803C75.94 64.3003 75.92 62.9103 75.94 61.5303C75.94 61.0303 75.8 60.8003 75.25 60.8103C74.71 60.8103 74.57 61.0703 74.53 61.5503C74.44 62.6403 74.38 63.7303 74.18 64.8003C73.86 66.5603 72.97 67.9503 71.18 68.6703V68.6803Z" fill="#40220F"/>
<path d="M41.61 68.2798C41.57 68.1998 41.56 68.1798 41.56 68.1598C41.4333 66.9665 41.9667 66.3698 43.16 66.3698C48.03 66.3698 52.9 66.3698 57.77 66.3698C59.3 66.3698 58.96 66.2698 58.99 67.6298C58.99 67.8298 58.99 68.0298 58.99 68.2798H41.61Z" fill="#40220F"/>
<path d="M130.23 68.5697C128.24 68.1497 126.36 67.7697 124.49 67.3697C121.8 66.7897 119.08 67.0097 116.36 66.9797C115.68 66.9797 115.42 66.7897 115.5 66.1097C115.55 65.6997 115.5 65.2697 115.5 64.8497C117.54 64.8497 119.52 64.7897 121.5 64.8697C122.89 64.9297 124.3 65.0797 125.66 65.3497C127.04 65.6197 128.4 66.0697 129.75 66.4997C129.96 66.5697 130.17 66.9097 130.21 67.1597C130.28 67.6597 130.23 68.1697 130.23 68.5697Z" fill="#40220F"/>
<path d="M42.56 50.0498H57.9V51.9598H42.56V50.0498Z" fill="#40220F"/>
<path d="M129.38 53.6505C128.32 53.3405 127.3 52.9705 126.25 52.7405C124.39 52.3205 122.53 51.9105 120.59 51.9605C119.26 51.9905 117.92 51.8805 116.58 51.8605C116.19 51.8605 116 51.7205 116.02 51.3105C116.04 50.8705 116.02 50.4205 116.02 49.9405C116.16 49.9105 116.29 49.8505 116.41 49.8605C119.1 49.9605 121.81 49.9505 124.48 50.2305C125.99 50.3905 127.45 51.0305 128.92 51.5005C129.12 51.5605 129.32 51.9005 129.35 52.1305C129.42 52.6305 129.37 53.1405 129.37 53.6405L129.38 53.6505Z" fill="#40220F"/>
<path d="M57.35 58.1996V59.9896H43.08C43.08 59.5296 43.05 59.0396 43.1 58.5696C43.11 58.4396 43.33 58.2896 43.48 58.2196C43.61 58.1596 43.79 58.1996 43.94 58.1996C48.16 58.1996 52.38 58.1996 56.59 58.1996H57.34H57.35Z" fill="#40220F"/>
<path d="M128.91 60.1596C126.79 59.6596 124.81 59.0596 122.79 58.7696C120.75 58.4796 118.67 58.4996 116.58 58.3896V56.3896C118.4 56.4796 120.18 56.5196 121.94 56.6796C123.33 56.7996 124.71 57.0196 126.07 57.2996C126.9 57.4696 127.71 57.8196 128.49 58.1596C128.69 58.2396 128.85 58.5897 128.88 58.8297C128.94 59.2997 128.9 59.7797 128.9 60.1497L128.91 60.1596Z" fill="#40220F"/>
<path d="M26.3 12.3594L27.98 13.7194C27.91 13.8194 27.75 13.9394 27.52 13.9894V23.1694C27.52 23.1694 27.07 23.7194 25.73 23.7194V22.3994H21.14V23.0994C21.14 23.3594 20.45 23.8694 19.65 23.8694H19.39V12.5394L21.25 13.3294H25.62L26.31 12.3594H26.3ZM25.73 13.5494H21.14V17.6694H25.73V13.5494ZM21.14 22.1894H25.73V17.8794H21.14V22.1894Z" fill="#844E1A"/>
<path d="M41.73 15.0698C41.63 15.2098 41.48 15.2498 41.14 15.2498H37.15C38.1 17.4798 40.02 19.0798 41.88 19.8598L41.84 19.9998C41.16 20.1498 40.6 20.7598 40.35 21.6598C38.59 20.3298 37.58 18.2298 36.98 15.2498H36.92V20.7298L37.67 19.4998L39.1 20.8298C39.02 20.9698 38.84 21.0098 38.52 21.0098H36.93V23.4298C36.93 23.5798 36.22 23.9398 35.49 23.9398H35.16V21.0098H33.07L33.02 20.7998H35.16V17.6798C34.09 19.4098 32.51 20.8198 30.42 21.8098L30.31 21.6598C32.14 20.0898 33.46 17.5798 34.05 15.2498H30.49L30.43 15.0498H35.16V11.7998L37.48 12.0298C37.46 12.2598 37.35 12.3898 36.93 12.4398V15.0498H39.14L40.07 13.6498L41.74 15.0698H41.73Z" fill="#844E1A"/>
<path d="M53.46 15.5498L54.75 16.5998C54.67 16.7498 54.5 16.7798 54.19 16.7798H48.43C48.33 16.8198 48.19 16.8298 48.03 16.8298H46.55V18.0698C47.91 18.5898 48.36 19.2998 48.36 19.8498C48.36 20.3998 47.96 20.7698 47.53 20.7698C47.3 20.7698 47.07 20.6498 46.89 20.3898C46.94 19.7398 46.81 18.9298 46.56 18.3498V23.4698C46.56 23.6098 45.89 23.9398 45.27 23.9398H44.95V20.2098C44.53 20.8398 44.06 21.4098 43.51 21.9398L43.37 21.7698C44.01 20.4298 44.41 18.5298 44.62 16.8198H43.41L43.36 16.6198H44.95V11.7898L47.02 11.9998C47 12.1898 46.9 12.2898 46.56 12.3498V16.6298H46.67L47.35 15.5898L48.5 16.5798H50.43V15.2198H48.68L48.62 15.0098H50.43V13.6898H48.36V13.6298C47.9 14.3898 47.37 15.2398 46.91 15.8198L46.73 15.7398C46.83 14.9798 46.96 13.7298 47.06 12.7098L48.88 13.2298C48.84 13.3698 48.76 13.4498 48.56 13.4698L50.43 13.4798V11.7598L52.51 11.9798C52.49 12.1498 52.38 12.2498 52.03 12.2998V13.4798H52.57L53.27 12.4198L54.56 13.5098C54.48 13.6498 54.31 13.6898 54 13.6898H52.04V15.0098H52.27L52.92 14.0798L54.13 15.0398C54.05 15.1898 53.88 15.2198 53.58 15.2198H52.03V16.5798H52.78L53.47 15.5598L53.46 15.5498ZM43.55 12.7298C44.48 13.4498 44.8 14.1798 44.8 14.7398C44.8 15.3698 44.41 15.7898 44.01 15.7898C43.8 15.7898 43.58 15.6698 43.43 15.3898C43.53 15.0098 43.56 14.5698 43.56 14.1398C43.56 13.6398 43.5 13.1498 43.41 12.7798L43.55 12.7298ZM52.19 17.8998L52.8 17.0398L54.41 18.2698C54.34 18.3698 54.18 18.4898 53.93 18.5398V22.0998C53.93 23.0898 53.79 23.7998 52.17 23.9898C52.17 22.8398 52.03 22.4898 51.35 22.3598V22.2098H52.22C52.29 22.2098 52.32 22.1698 52.32 22.0398V21.0698H50.17V23.3598C50.17 23.3598 49.96 23.9698 48.67 23.9698V17.2098L50.24 17.8898H52.2L52.19 17.8998ZM52.31 18.0998H50.16V19.3798H52.31V18.0998ZM50.16 20.8698H52.31V19.5898H50.16V20.8698Z" fill="#844E1A"/>
<path d="M65.93 21.18L67.7 22.58C67.6 22.72 67.45 22.76 67.09 22.76H56.46L56.4 22.56H61.05V14.06H57.23L57.17 13.86H64.26L65.22 12.5L66.98 13.88C66.88 14.02 66.72 14.06 66.38 14.06H62.88V22.55H64.92L65.91 21.18H65.93Z" fill="#844E1A"/>
<path d="M83.3 21.5898L84.62 22.5998C84.55 22.7098 84.42 22.7398 84.16 22.7398H77.75V23.2298C77.75 23.3398 77.33 23.6898 76.63 23.6898H76.38V14.6698L77.89 15.2598H82.29L82.99 14.2998L84.25 15.2798C84.18 15.3898 84.05 15.4198 83.79 15.4198H77.76V22.5798H82.59L83.31 21.5898H83.3ZM82.17 21.8198C82.17 21.8898 81.79 22.1398 81.13 22.1398H80.9V18.4998H79.77C79.77 19.6498 79.56 21.2698 77.9 22.2298L77.83 22.1198C78.49 20.9798 78.52 19.5298 78.52 18.3398V16.3798L79.79 16.7698C80.61 16.4098 81.47 15.9498 81.96 15.6098L83.18 16.8798C83.12 16.9298 83.04 16.9598 82.93 16.9598C82.82 16.9598 82.69 16.9298 82.53 16.8598C81.82 16.9998 80.77 17.0998 79.78 17.1398V18.3398H82.19L82.82 17.4898L83.99 18.3598C83.92 18.4798 83.79 18.4998 83.54 18.4998H82.18V21.8198H82.17Z" fill="#844E1A"/>
<path d="M87.41 18.1798C87.8 19.0298 87.96 19.7298 87.96 20.3098C87.96 21.1598 87.57 22.0598 86.77 22.0598C86.34 22.0598 86.05 21.7698 86.05 21.3698C86.05 21.1098 86.19 20.8598 86.39 20.6798C86.87 20.3198 87.36 19.3398 87.32 18.1898H87.41V18.1798ZM88.31 14.6098C88.64 14.5698 88.95 14.5498 89.23 14.5498C90.92 14.5498 91.51 15.2798 91.51 15.8998C91.51 16.3698 91.18 16.7798 90.73 16.7798C90.61 16.7798 90.48 16.7498 90.34 16.6798C90.1 16.1198 89.41 15.2598 88.31 14.7098V14.6098ZM88.56 17.1998L90.23 17.3298C90.23 17.4498 90.17 17.5298 89.9 17.5798V21.8698C89.9 22.1798 89.93 22.1998 90.19 22.1998H91.32C91.51 22.1998 91.61 22.1998 91.72 22.0298C91.84 21.8598 92.02 21.3698 92.26 20.6898H92.32V22.0998C92.76 22.2998 92.81 22.3898 92.81 22.5798C92.81 23.1398 92.48 23.4398 91.31 23.4398H90.13C88.83 23.4398 88.55 23.1398 88.55 21.8398V17.1998H88.56ZM92.3 17.8998C94.17 18.7798 94.78 19.9398 94.78 20.8198C94.78 21.5698 94.33 22.1098 93.86 22.1098C93.63 22.1098 93.38 21.9798 93.17 21.6698C93.19 21.4998 93.2 21.3198 93.2 21.1198C93.2 20.1398 92.97 18.8998 92.23 17.9698L92.29 17.8998H92.3Z" fill="#844E1A"/>
<path d="M102.87 16.05L104.08 17.21C104.02 17.33 103.92 17.37 103.68 17.39C102.5 19.13 100.73 20.57 98.53 21.48C99.22 21.96 100.21 22.04 101.83 22.04C102.51 22.04 104.16 22.04 104.9 22.02V22.13C104.45 22.25 104.25 22.78 104.25 23.34H101.81C99.67 23.34 98.63 22.89 98.01 21.09C97.77 21.68 97.41 22.56 97.18 23C97.23 23.07 97.24 23.13 97.24 23.19C97.24 23.28 97.2 23.35 97.15 23.41L96.29 22.44C96.7 22.1 97.41 21.41 97.82 20.94L97.94 20.12L98.5 20.26L98.04 20.98C98.15 21.14 98.27 21.27 98.41 21.38C99.95 20.29 101.37 18.6 102.15 16.99H96.83L96.78 16.83H99.76V14.25L101.51 14.43C101.49 14.56 101.42 14.64 101.16 14.68V16.83H102.1L102.88 16.05H102.87Z" fill="#844E1A"/>
<path d="M113.73 18.9004L115.06 19.9004C115 20.0104 114.87 20.0404 114.6 20.0404H111.31V21.9404C111.31 22.8504 111.1 23.5304 109.48 23.6904C109.48 22.6504 109.06 22.3804 108.08 22.2504V22.1204H109.74C109.87 22.1204 109.92 22.0604 109.92 21.9404V20.0404H106.25L106.2 19.8804H109.92V17.8504H106.86L106.81 17.6904H109.91V15.9704C108.87 16.0504 107.79 16.0904 106.8 16.0704L106.78 15.9304C108.87 15.5904 111.44 14.8404 112.75 14.1904L114.03 15.5204C113.97 15.5704 113.89 15.6004 113.77 15.6004C113.66 15.6004 113.52 15.5704 113.34 15.5004C112.84 15.6104 112.25 15.7104 111.63 15.7904C111.58 15.8504 111.5 15.9004 111.3 15.9304V17.6904H112.42L113.14 16.7304L114.45 17.7104C114.38 17.8204 114.25 17.8504 113.99 17.8504H111.3V19.8804H112.99L113.71 18.9004H113.73Z" fill="#844E1A"/>
<path d="M116.27 18.8299C117.88 17.6999 119.12 15.6399 119.41 14.1699L121.44 14.7299C121.4 14.8799 121.27 14.9399 120.93 14.9799C121.87 16.0199 123.94 16.8199 125.25 17.1399V17.3099C124.64 17.4999 124.25 18.1999 124.15 18.7799C122.78 18.1899 121.4 16.6099 120.79 15.0999C120.15 16.5999 118.33 18.1199 116.33 18.9299L116.27 18.8299ZM123.11 23.0399L123.8 22.0699L125.06 23.0599C124.99 23.1699 124.86 23.1999 124.6 23.1999H116.74L116.69 23.0399H120.01V20.8199H117.63L117.58 20.6599H120.01V18.5799H118.03L117.99 18.4199H121.58L122.19 17.5699L123.33 18.4399C123.26 18.5599 123.13 18.5799 122.88 18.5799H121.42V20.6599H122.33L122.99 19.7599L124.21 20.6799C124.14 20.7899 124.01 20.8199 123.76 20.8199H121.42V23.0399H123.09H123.11Z" fill="#844E1A"/>
<path d="M134.18 16.9102L135.39 17.9402C135.32 18.0502 135.18 18.0802 134.93 18.0802H134.48V23.3102C134.48 23.3902 134.08 23.6802 133.4 23.6802H133.16V18.0802H132.5V18.4402C132.5 20.2502 132.33 22.3702 130.01 23.6702L129.93 23.5702C131.1 22.1002 131.21 20.2302 131.21 18.4002V18.0602C131.14 18.1402 131.01 18.1602 130.8 18.1602H129.62C129.62 18.2402 129.55 18.3002 129.39 18.3302V19.5502H129.67L130.18 18.7602L131.11 19.5702C131.04 19.6802 130.91 19.7102 130.67 19.7102H129.39V20.3302C130.52 20.5402 130.9 21.0102 130.9 21.4202C130.9 21.7802 130.58 22.0902 130.25 22.0902C130.08 22.0902 129.91 22.0102 129.76 21.8202C129.76 21.3602 129.62 20.8102 129.38 20.4502V23.3102C129.38 23.4202 128.8 23.6902 128.36 23.6902H128.11V21.6302C127.65 22.1402 127.11 22.5802 126.51 22.9502L126.43 22.8202C127.09 21.9902 127.59 20.8002 127.87 19.7102H126.6L126.56 19.5502H128.11V18.1602H126.5L126.46 18.0002H129.05C129.16 17.3602 129.26 16.4802 129.31 15.8602L130.85 16.2302C130.82 16.3502 130.74 16.4102 130.5 16.4102C130.2 16.8702 129.71 17.5102 129.24 18.0002H129.74L130.26 17.2802L131.2 18.0002V15.0002L132.54 15.4402C133.1 15.0502 133.66 14.5402 133.97 14.1702L135.32 15.3202C135.26 15.3802 135.16 15.4202 135.03 15.4202C134.94 15.4202 134.83 15.4002 134.7 15.3602C134.16 15.5502 133.32 15.7202 132.5 15.8202V17.9202H133.52L134.18 16.9102ZM126.65 15.8202L126.61 15.6602H128.1V14.1602L129.76 14.3302C129.74 14.4702 129.66 14.5402 129.4 14.5802V15.6602H129.55L130.07 14.8702L131.03 15.6802C130.97 15.7902 130.83 15.8202 130.59 15.8202H126.65ZM127.32 15.9002C128.22 16.3502 128.53 16.8602 128.53 17.2702C128.53 17.6802 128.2 17.9902 127.88 17.9902C127.68 17.9902 127.49 17.8902 127.36 17.6502C127.4 17.4702 127.41 17.2802 127.41 17.0802C127.41 16.6702 127.34 16.2402 127.23 15.9402L127.32 15.9002Z" fill="#844E1A"/>
<path d="M139.15 18.5097C139.64 18.4397 140.15 18.3497 140.66 18.2597V18.3497C140.3 18.6097 139.8 18.9297 139.15 19.2997V21.9697C139.15 22.8497 138.95 23.5097 137.59 23.6397C137.59 22.6697 137.38 22.3797 136.63 22.2597V22.1297H137.73C137.82 22.1297 137.85 22.0797 137.85 21.9797V20.0097C137.67 20.1097 137.49 20.1997 137.29 20.2997C137.23 20.4297 137.12 20.5397 136.99 20.5697L136.52 18.8897C136.8 18.8597 137.27 18.7997 137.85 18.7097V16.6397H136.62L136.58 16.4797H137.84V14.1797L139.5 14.3297C139.5 14.4597 139.44 14.5497 139.14 14.5897V16.4297L139.65 15.4997L140.61 16.4997C140.55 16.6097 140.41 16.6397 140.16 16.6397H139.14V18.5097H139.15ZM144.34 14.4897L145.57 15.5297C145.5 15.6397 145.37 15.6697 145.11 15.6697H143.71V21.9497C143.71 22.8797 143.46 23.5597 141.89 23.6697C141.89 22.4997 141.35 22.3097 140.5 22.1797V22.0697H142.17C142.28 22.0697 142.33 22.0197 142.33 21.9297V15.6697H140.21L140.17 15.5097H143.66L144.35 14.4897H144.34Z" fill="#844E1A"/>
<path d="M149.6 18.8299C149.52 18.9299 149.38 19.0099 149.11 19.0599V21.4399C149.74 22.0799 150.33 22.1599 152.06 22.1599C153.06 22.1599 154.43 22.1599 155.58 22.1199V22.2299C155.09 22.3699 154.8 22.7999 154.74 23.4499H152.06C150.29 23.4499 149.61 23.1299 149 21.5799C148.59 22.1999 147.98 22.9899 147.58 23.4299C147.58 23.5699 147.51 23.6399 147.41 23.6899L146.74 22.1299C147.04 22.0499 147.43 21.9099 147.85 21.7599V18.7799H146.77L146.74 18.5899H147.7L148.3 17.7299L149.59 18.8299H149.6ZM147.04 14.4899C148.55 14.6699 149.06 15.2799 149.06 15.7999C149.06 16.2499 148.7 16.6299 148.29 16.6299C148.1 16.6299 147.9 16.5399 147.72 16.3399C147.66 15.7099 147.4 14.9799 146.99 14.5399L147.05 14.4899H147.04ZM151.74 17.8499V16.0799H151.07C150.7 16.7299 150.24 17.2499 149.72 17.6299L149.61 17.5599C149.93 16.8199 150.18 15.5199 150.28 14.3099L151.74 14.7099V14.1699L153.44 14.3499C153.42 14.4799 153.35 14.5599 153.09 14.5999V15.9199H153.45L154.08 15.0199L155.23 15.9399C155.16 16.0499 155.03 16.0799 154.78 16.0799H153.08V17.8499H153.77L154.41 16.9299L155.59 17.8699C155.53 17.9799 155.4 18.0099 155.14 18.0099H149.3L149.26 17.8499H151.72H151.74ZM154.69 21.4899C154.69 21.5699 154.04 21.8499 153.6 21.8499H153.37V21.1999H151.47V21.4399C151.47 21.4399 151.26 21.9499 150.17 21.9499V18.3799L151.53 18.9399H153.29L153.77 18.2599L155.07 19.2299C155.01 19.3099 154.89 19.3999 154.7 19.4499V21.4899H154.69ZM151.74 14.9799C151.74 14.9799 151.65 14.9999 151.59 14.9999C151.46 15.3299 151.32 15.6399 151.16 15.9199H151.74V14.9799ZM151.46 21.0399H153.36V19.0999H151.46V21.0399Z" fill="#844E1A"/>
</svg>
