<?xml version="1.0" encoding="utf-8"?>
<!-- Generator: Adobe Illustrator 27.0.0, SVG Export Plug-In . SVG Version: 6.00 Build 0)  -->
<svg version="1.1" id="圖層_1" xmlns="http://www.w3.org/2000/svg" xmlns:xlink="http://www.w3.org/1999/xlink" x="0px" y="0px"
	 viewBox="0 0 400 79" style="enable-background:new 0 0 400 79;" xml:space="preserve">
<style type="text/css">
	.st0{fill:#40220F;}
</style>
<path class="st0" d="M57.5,2.4l2.8,2.2c-0.2,0.2-0.7,0.5-1.2,0.6v22.2c0,0-0.6,0.9-2.4,0.9v-2.6H43.4v2.1c0,0-0.2,1-2.3,1V2.7
	l2.5,1.2h12.8L57.5,2.4L57.5,2.4z M56.7,4.6H43.4v9.7h13.3V4.6z M43.4,25h13.3V14.9H43.4V25z"/>
<path class="st0" d="M93.4,8.1c-0.2,0.4-0.5,0.6-1.4,0.6H82c2.5,5.5,7.3,10.2,11.9,12.4l-0.1,0.3c-1,0.1-1.8,1-2.2,2.2
	c-4.4-3-8.1-8.2-10.2-14.8v12.9h2.1l1.5-2.2l2.7,2.2c-0.2,0.5-0.6,0.6-1.4,0.6h-4.9v5.9c0,0.1-0.3,0.9-2.3,0.9v-6.8h-5.9l-0.2-0.7
	H79V11.2c-2.6,5.1-6.6,9.5-11.9,12.5l-0.3-0.5c4.7-3.6,8.5-9.2,10.5-14.6h-9.9L67.1,8H79V0.5l3.6,0.4c-0.1,0.5-0.3,0.7-1.3,0.8V8
	h7.5l1.6-2.3L93.4,8.1L93.4,8.1z"/>
<path class="st0" d="M118.2,18.7h-5.1c2.6,3.3,7.5,5.9,11.8,7l0,0.3c-0.9,0.2-1.7,1-2,2.2c-4.3-1.8-8.2-5.1-10.5-9.5h0v9.4
	c0,0.1-0.3,0.9-2.3,0.9v-8.7c-2.9,3.5-7.1,6.2-11.9,8l-0.3-0.5c4.2-2.3,8-5.7,10.3-9.1h-3.8v0.9c0,0.1-0.4,0.9-2.3,0.9V7.9l2.5,1.2
	h5.5V5.6H98.2l-0.2-0.7h12V0.5l3.5,0.3c-0.1,0.4-0.3,0.7-1.2,0.8v3.3h7.4l1.6-2.3l3,2.4c-0.2,0.4-0.5,0.6-1.4,0.6h-10.7V9h5.6l1-1.4
	l2.9,2.1c-0.2,0.2-0.6,0.5-1.2,0.6v9.2c0,0-0.7,0.8-2.4,0.8L118.2,18.7L118.2,18.7z M110,9.7h-5.7v3.8h5.7V9.7z M104.3,18h5.7v-3.8
	h-5.7V18z M118.2,9.7h-5.9v3.8h5.9V9.7z M112.4,18h5.9v-3.8h-5.9V18z"/>
<path class="st0" d="M128.9,27.5c2.7-2,5.6-5.1,6.9-7.5l2.8,1.7c-0.1,0.2-0.3,0.3-0.6,0.3c-0.1,0-0.3,0-0.5-0.1
	c-1.8,2.1-5.1,4.5-8.4,5.9L128.9,27.5z M152.5,2.9l3,2.3c-0.2,0.4-0.6,0.6-1.4,0.6h-24.9l-0.2-0.7H141V0.4l3.6,0.4
	c-0.1,0.5-0.3,0.7-1.3,0.8v3.6h7.5L152.5,2.9L152.5,2.9z M148.3,17.6h-4.9v8.2c0,1.8-0.5,3-3.6,3.3c0-2.1-1.2-2.3-3.4-2.5v-0.4h4.1
	c0.5,0,0.6-0.1,0.6-0.5v-8.2h-4.8v0.8c0,0.1-0.4,0.9-2.3,0.9V8.4l2.5,1.2h11.6l1-1.5l2.8,2.2c-0.2,0.2-0.6,0.5-1.2,0.6v7.3
	c0,0.1-0.7,0.8-2.4,0.8L148.3,17.6L148.3,17.6z M136.3,16.9h12v-6.6h-12V16.9z M146.4,20.2c6.2,1.8,8,4.6,8,6.3
	c0,0.8-0.4,1.3-1.1,1.3c-0.3,0-0.6-0.1-0.9-0.3c-1.1-2.3-4-5.3-6.3-7L146.4,20.2L146.4,20.2z"/>
<path class="st0" d="M169.9,3.5l2,1.6c0.6-1.1,1.1-2.3,1.5-3.3l3,1.4c-0.1,0.2-0.3,0.4-0.7,0.4c-0.1,0-0.3,0-0.4,0
	c-1.2,2.5-2.9,5.2-4.9,7.8h2l1.3-1.9l2.6,2c-0.2,0.4-0.6,0.6-1.3,0.6h-5.1c-1.2,1.5-2.6,2.9-4.1,4.2l0.1,0h5l1-1.4l2.7,2.1
	c-0.2,0.2-0.6,0.5-1.2,0.6v9.9c0,0.1-0.6,0.7-2.2,0.7v-1.8h-5.4v1.9c0,0.2-0.7,0.7-1.8,0.7h-0.3V18c-1,0.8-2.1,1.5-3.2,2.1l-0.3-0.4
	c1.2-0.9,2.4-1.9,3.5-2.9v-1.5l1.1,0.5c1.1-1.2,2.2-2.4,3.2-3.7h-7.5l-0.2-0.7h5.6V6h-4l-0.2-0.7h4.1V0.6l3.5,0.3
	c0,0.5-0.3,0.7-1.3,0.8v3.6h1L169.9,3.5L169.9,3.5z M170.8,16.9h-5.4v4h5.4V16.9z M165.4,25.7h5.4v-4.1h-5.4V25.7z M167.6,11.3h0.4
	c1.3-1.7,2.4-3.5,3.3-5.3c-0.1,0-0.3,0-0.4,0h-3.3V11.3z M184.4,1.6l2.4,2.7c-0.2,0.3-0.6,0.4-1.3,0.4c-1,2-3,5.6-4.2,7.6
	c3.6,2.5,5.2,5,5.2,7.5v0.1c0,3-1.2,4.7-4.5,5c0-1.7-0.7-1.9-2.2-2.1v-0.5h2.8c1.4,0,1.6-1.5,1.6-2.6c0-2.4-1-4.9-3.5-7.3
	c0.7-2.1,1.8-6,2.5-8.6h-4.5v24.6c0,0.2-0.7,0.8-1.9,0.8h-0.4V2l2.6,1.1h4.1L184.4,1.6L184.4,1.6z"/>
<path class="st0" d="M235.3,10.5l3,2.3c-0.2,0.4-0.5,0.6-1.4,0.6h-10.7v14.8c0,0.2-0.8,0.8-2,0.8h-0.4V13.4h-11.8l-0.2-0.7h12v-8
	c-3.4,0.4-6.9,0.8-10.3,0.9L213.5,5c6.6-0.9,14.9-2.8,19.3-4.4l2.4,2.5c-0.1,0.1-0.3,0.2-0.6,0.2c-0.3,0-0.6-0.1-1-0.3
	c-2.1,0.4-4.6,0.9-7.3,1.3v8.4h7.5L235.3,10.5L235.3,10.5z"/>
<path class="st0" d="M242.7,16.7c2.4-3.6,5-10,6.6-16.2l3.5,1.2c-0.1,0.3-0.4,0.5-1.1,0.5c-0.8,2.2-1.7,4.3-2.6,6.2l1.3,0.5
	c-0.1,0.3-0.4,0.5-0.9,0.6v18.6c0,0.2-1,0.8-1.8,0.8h-0.5V11.9c-1.2,2-2.6,3.7-4,5.1L242.7,16.7L242.7,16.7z M268.9,21.3l-0.5,4.8
	c0.6,1,0.9,1.5,0.9,2c0,0.4-0.5,1-1.2,1c-1,0-2.2-0.7-3.1-1.5c-4.4-3.6-6.6-9.4-7.5-16.2l-6.6,0.8l-0.3-0.7l6.7-0.8
	c-0.4-3.1-0.5-6.4-0.5-9.8l3.6,0.4c0,0.4-0.3,0.6-1.1,0.7c-0.1,2.9,0.1,5.7,0.4,8.4l5.3-0.6l1.3-2.2l3,1.8c-0.2,0.5-0.6,0.7-1.2,0.8
	l-8.4,1c0.8,5.9,2.7,11.1,6.5,14c0.2,0.2,0.4,0.3,0.5,0.3c0.2,0,0.3-0.2,0.4-0.5c0.4-0.8,1-2.3,1.5-3.6L268.9,21.3L268.9,21.3z
	 M261.9,1.6c3.8,0.3,5,1.9,5,3.1c0,0.8-0.5,1.4-1.2,1.4c-0.3,0-0.6-0.1-0.9-0.4c-0.5-1.4-1.8-3.1-3.1-3.9L261.9,1.6L261.9,1.6z"/>
<path class="st0" d="M296.7,2.9l2.8,2.2c-0.2,0.3-0.6,0.5-1.2,0.6v21.5c0,0.1-0.6,0.9-2.3,0.9v-2.4h-17.7v1.6c0,0-0.2,1-2.2,1V3.2
	l2.5,1.2h17.2L296.7,2.9L296.7,2.9z M285.9,5.1h-7.6v9.6h7.6V5.1z M278.2,15.4v9.8h7.6v-9.8H278.2z M295.9,5.1h-7.8v9.6h7.8V5.1z
	 M288.1,25.1h7.8v-9.8h-7.8V25.1z"/>
<path class="st0" d="M316.9,6.2h-8.6c0,0.2,0,0.4,0,0.6c0,1.6-0.8,2.9-2.2,2.9c-0.8,0-1.2-0.5-1.2-1.1c0-0.6,0.4-1,1-1.3
	c0.9-0.4,1.6-1.6,1.5-2.9l0.5,0c0.1,0.4,0.2,0.8,0.3,1.1h8.7V3.3h-9.2l-0.2-0.7h17.3l1.4-1.9l2.7,1.9c-0.2,0.5-0.6,0.6-1.4,0.6h-8.5
	v2.3h9l1.2-1.4l2.3,2.3c-0.2,0.2-0.5,0.3-1.1,0.3c-0.6,0.8-1.6,1.8-2.5,2.4L327.9,9c0.2-0.6,0.5-1.9,0.6-2.8h-9.2v6.3
	c0,0.2-0.7,0.6-1.9,0.6h-0.4V6.2L316.9,6.2z M317.4,25.3c-0.2,0.4-0.6,0.6-1.3,0.6h-6.9v2.2c0,0-0.3,0.9-2.2,0.9V13l2.3,1.1h4.5
	l0.9-1.2l2.6,1.9c-0.1,0.2-0.5,0.4-1,0.5v3.4c0,0.1-0.7,0.7-2.2,0.7v-0.9h-4.9v2.9h4.3l1.1-1.5l2.2,1.6c-0.2,0.4-0.6,0.6-1.3,0.6
	h-6.4v3.1h4.6l1.2-1.6L317.4,25.3L317.4,25.3z M308.5,11.5l-0.2-0.7h4.4l1-1.2l2,1.3c-0.2,0.4-0.5,0.6-1.2,0.6L308.5,11.5
	L308.5,11.5z M313.5,7l1.9,1.3c-0.2,0.4-0.5,0.6-1.2,0.6H309l-0.2-0.7h3.8L313.5,7L313.5,7z M314.1,14.7h-4.9v3h4.9V14.7z
	 M327.8,19.5l2.1,2.1c-0.2,0.3-0.5,0.3-1.2,0.4c-0.8,1.3-1.9,2.4-3.1,3.3c1.8,0.7,3.8,1.1,5.9,1.4l0,0.3c-0.9,0.2-1.4,1-1.6,2.1
	c-2.4-0.6-4.4-1.4-6-2.6c-2.2,1.2-4.9,2.1-8,2.6l-0.1-0.6c2.7-0.7,5-1.7,7-3.1c-1.1-1.1-2.1-2.4-2.8-4H318l-0.2-0.7h8.6L327.8,19.5
	L327.8,19.5z M328.9,18.7c0,0.2-1.1,0.7-1.9,0.7h-0.3v-0.9h-8l-0.2-0.7h8.2v-3h-7.8l-0.2-0.7h7.7l0.9-1.3l2.6,2
	c-0.2,0.2-0.6,0.5-1.1,0.6V18.7L328.9,18.7z M320.7,11.5l-0.2-0.7h4.6l1-1.3l2.1,1.4c-0.2,0.4-0.5,0.6-1.3,0.6H320.7z M320.5,21.4
	c0.8,1.2,2,2.2,3.4,3c1-0.9,1.9-1.9,2.5-3H320.5L320.5,21.4z M325.6,7l2,1.3c-0.2,0.4-0.5,0.6-1.2,0.6h-5.5l-0.2-0.7h4L325.6,7
	L325.6,7z"/>
<path class="st0" d="M345.2,10h-5.5v18c0,0-0.2,1-2.2,1V1.4l2.4,1.2h5l0.9-1.3l2.6,2c-0.2,0.2-0.6,0.5-1.1,0.5v6.7
	c0,0.1-0.6,0.8-2.2,0.8L345.2,10L345.2,10z M345.2,3.3h-5.5v2.6h5.5V3.3z M339.8,9.3h5.5V6.6h-5.5V9.3z M347.3,17.7
	c-0.2-0.4-0.3-0.8-0.6-1.1l0.3-0.2c1.7,0.7,2.2,1.7,2.2,2.4c0,0.6-0.4,1.1-0.9,1.1c-0.3,0-0.5-0.1-0.7-0.4c0-0.3,0-0.7-0.1-1.1
	c-0.9,0.2-2.1,0.5-3.7,0.9c-0.2,0.4-0.4,0.6-0.7,0.6l-1-2.1c0.5,0,1.1,0,1.8,0c1.2-1.4,2.6-3.3,3.2-4.4l1.8,1.2
	c-0.1,0.1-0.2,0.2-0.4,0.2c-0.1,0-0.2,0-0.4-0.1c-0.7,0.8-2.1,2-3.4,3L347.3,17.7z M342.6,13.5c0.6,0.1,1.2,0.2,1.6,0.4
	c0.4-0.8,0.9-1.9,1.1-2.5l1.9,1c-0.1,0.2-0.2,0.3-0.7,0.2c-0.4,0.4-1.2,1.1-1.9,1.7c0.5,0.4,0.7,0.8,0.7,1.2c0,0.6-0.4,1-0.8,1
	c-0.2,0-0.4-0.1-0.6-0.3c-0.2-0.9-0.8-1.9-1.5-2.4L342.6,13.5L342.6,13.5z M346.4,23.6c0-0.3,0.1-0.6,0.1-0.9v-2.7l2.7,0.3
	c0,0.4-0.2,0.6-1,0.6v1.8c0,2.1-0.9,4.4-4.9,5.8l-0.3-0.4c2.1-1,2.9-2.4,3.3-3.8h-1.8v0.8c0,0-0.3,0.6-1.7,0.6v-5.4l2.6,0.2
	c-0.1,0.3-0.2,0.5-0.9,0.6v2.5L346.4,23.6L346.4,23.6z M349,13.5c0.7,0.1,1.2,0.2,1.7,0.5c0.5-0.9,1-2,1.2-2.7l1.9,1
	c-0.1,0.2-0.3,0.3-0.6,0.2c-0.4,0.5-1.2,1.2-2,1.7c0.5,0.4,0.6,0.8,0.6,1.2c0,0.6-0.3,1-0.8,1c-0.2,0-0.4-0.1-0.6-0.3
	c-0.2-0.8-0.8-1.9-1.5-2.4L349,13.5L349,13.5z M350.4,17.8c1.2-1.3,2.6-3.2,3.3-4.3l1.8,1.2c-0.1,0.2-0.2,0.2-0.4,0.2
	c-0.1,0-0.2,0-0.3-0.1c-0.7,0.8-2.2,2-3.4,2.9c0.9,0,1.9,0,2.8-0.1c-0.2-0.5-0.5-0.9-0.8-1.2l0.3-0.2c2,0.7,2.7,1.8,2.7,2.6
	c0,0.6-0.4,1.1-0.9,1.1c-0.2,0-0.5-0.1-0.7-0.4c0-0.4-0.1-0.8-0.3-1.2c-0.8,0.2-2,0.5-3.6,0.9c-0.1,0.4-0.4,0.6-0.6,0.6l-1-2.1
	L350.4,17.8L350.4,17.8z M356.4,20.5c0,0.3-0.2,0.5-0.8,0.6v3.7c0,0.1-0.3,0.6-1.7,0.6v-1.2h-2.2v3.4c0,0.1-0.3,0.7-1.8,0.7v-8.4
	l2.6,0.2c-0.1,0.4-0.2,0.5-0.9,0.6v2.9h2.2v-3.3L356.4,20.5z M359.3,1.1l2.8,2.2c-0.2,0.2-0.6,0.5-1.2,0.6v21.7c0,1.8-0.4,3.1-3,3.4
	c0-1.9-0.6-2.3-2.5-2.5v-0.4h2.8c0.3,0,0.4-0.1,0.4-0.5V10h-5.7v0.3c0,0-0.4,0.8-2.2,0.8V1.5l2.3,1.1h5.3L359.3,1.1z M358.6,3.3
	h-5.7v2.6h5.7V3.3z M352.8,9.3h5.7V6.6h-5.7V9.3z"/>
<path class="st0" d="M43.2,57.8v3.8c2.9,1.3,3.8,2.9,3.8,4c0,0.8-0.5,1.4-1,1.4c-0.3,0-0.6-0.2-0.9-0.5c-0.2-1.3-1-3.1-1.9-4.3v15.2
	c0,0.1-0.3,0.8-2.2,0.8V64.8c-1,2.3-2.3,4.4-3.9,6.2l-0.4-0.4c2.1-3.6,3.4-8.2,4.1-12.9H37l-0.1-0.7H41v-7.3l3.4,0.3
	c0,0.5-0.3,0.7-1.2,0.8v6.2h0.7l1.3-1.9l2.4,2c-0.3-0.7-0.6-1.4-1-2l0.3-0.2c2.7,1.5,3.6,3.3,3.6,4.6c0,1.2-0.7,2-1.4,2
	c-0.3,0-0.7-0.2-1-0.6c0-0.3,0.1-0.5,0.1-0.8c0-1-0.2-2-0.5-3c-0.2,0.4-0.6,0.6-1.3,0.6L43.2,57.8L43.2,57.8z M45.1,68
	c1-0.4,3.3-1.6,5.7-2.8c0-0.5,0-1,0-1.6v-14l3.3,0.3c-0.1,0.5-0.3,0.7-1.2,0.8v12.8c0,6.5-1.8,11.5-8.1,14.7l-0.3-0.4
	c4.2-2.8,5.8-6.7,6.2-11.6c-0.9,1-2,2.3-3.3,3.7c0,0.4-0.2,0.7-0.5,0.9L45.1,68L45.1,68z M62.6,71.5l0,3.8c0.8,0.4,1,0.5,1,0.9
	c0,1-0.7,1.5-2.9,1.5h-2.7c-2.3,0-2.7-0.8-2.7-3.6V49.8l3.4,0.3c-0.1,0.5-0.3,0.7-1.2,0.8v13.8c3.9,1,5.1,2.9,5.1,4.3
	c0,0.9-0.5,1.5-1.1,1.5c-0.3,0-0.6-0.1-0.9-0.4c-0.3-1.7-1.7-3.6-3.1-4.7v8.8c0,1.2,0,1.3,0.6,1.3h2.5c0.3,0,0.5,0,0.8-0.3
	c0.2-0.3,0.6-2.1,0.9-3.6L62.6,71.5L62.6,71.5z M63.2,56.3c-0.1,0.2-0.2,0.3-0.5,0.3c-0.1,0-0.2,0-0.3,0c-0.9,1.3-2.7,3.5-4.2,5.1
	l-0.3-0.2c0.8-2,1.9-5.3,2.3-6.9L63.2,56.3L63.2,56.3z"/>
<path class="st0" d="M91.3,50.4l2.7,2.1c-0.2,0.3-0.6,0.5-1.2,0.6V77c0,0.1-0.6,0.9-2.2,0.9v-1.7H71.6v1.1c0,0.1-0.2,1-2.2,1V50.7
	l2.4,1.2h18.4L91.3,50.4z M71.6,75.5h18.9v-23H71.6V75.5z M87.3,57.6l2.3,1.7c-0.2,0.5-0.6,0.6-1.3,0.6H72.8l-0.2-0.7H80v-2.5h-5.5
	l-0.2-0.7H80v-2.7l3.1,0.3c0,0.4-0.3,0.5-1,0.6v1.7h2.7l1.2-1.6l2.2,1.7c-0.2,0.4-0.6,0.6-1.3,0.6h-4.8v2.5h4L87.3,57.6z M87.2,66.3
	L87.2,66.3l1.9,1.7c-0.1,0.1-0.2,0.2-0.4,0.2c-0.1,0-0.3,0-0.5-0.1c-0.6,0.4-1.7,1.1-2.5,1.6c0.8,0.3,3,1.3,3,2.9
	c0,0.5-0.3,0.9-0.7,0.9c-0.3,0-0.6-0.1-0.9-0.4c-0.9-1.3-2.9-2.9-5-3.8v4.7c0,0.2-0.7,0.7-1.8,0.7H80v-5.8c-1.8,2-4.2,3.6-6.9,4.8
	l-0.3-0.5c2.7-1.7,4.9-4,6.4-6.5H77v0.6c0,0.1-0.3,0.7-2,0.7V61l2.1,1h7.8l0.8-1.1l2.4,1.7c-0.1,0.2-0.5,0.4-0.9,0.5L87.2,66.3
	L87.2,66.3z M77,65.8h8.2v-3.1H77V65.8z M82.1,66.5v2.2c1,0.2,2,0.4,2.9,0.7c0.5-0.6,1-1.3,1.5-2.1c-0.5,0.2-0.9,0.2-1.4,0.2v-1.1
	H82.1L82.1,66.5z"/>
<path class="st0" d="M122.4,52.8l3,2.3c-0.2,0.4-0.5,0.6-1.4,0.6h-9.7c-0.1,0.4-0.3,0.6-1,0.7v4.3h6.3l1-1.4l2.8,2.2
	c-0.2,0.2-0.6,0.5-1.2,0.6v9.4c0,1.7-0.3,2.8-3.4,3.1c0-1.7-0.9-2.1-3-2.4v-0.4h3.6c0.4,0,0.6-0.1,0.6-0.5v-10h-6.6v15.9
	c0,0.1-0.4,1-2.4,1V61.4h-6.6v12.3c0,0.1-0.3,0.9-2.3,0.9v-15l2.5,1.2h6.4v-5H99.1l-0.2-0.7h12v-5.2l3.7,0.3c0,0.5-0.3,0.7-1.3,0.8
	v4.1h7.5L122.4,52.8L122.4,52.8z"/>
<path class="st0" d="M156.6,56.8c-0.2,0.4-0.6,0.6-1.4,0.6h-0.7c-0.7,5.3-2.1,9.7-4.5,13.2c1.7,2.2,3.9,4,6.7,5.2l-0.1,0.3
	c-1.2,0.2-1.9,1-2.2,2.2c-2.5-1.5-4.4-3.5-5.8-6c-2.3,2.6-5.4,4.6-9.5,6l-0.1-0.5c4-1.8,6.8-4.2,8.8-7.2c-1.3-2.8-2.1-6.1-2.7-9.7
	c-0.8,1.7-1.8,3.2-3,4.4l-0.4-0.3c0.4-0.7,0.8-1.6,1.2-2.6c-0.2,0-0.4,0.1-0.7,0.1h-3.8v9c2-0.3,4.1-0.7,6.3-1l0.1,0.5
	c-3,1.1-7.1,2.6-12.9,4.3c-0.2,0.4-0.5,0.6-0.7,0.7l-1.3-3.2l1.7-0.2V58.5l3,0.3c0,0.4-0.3,0.5-1,0.6v12.8l2.7-0.4V53.5h-5.9
	l-0.2-0.7h10.1l1.5-2l2.7,2c-0.2,0.4-0.6,0.6-1.3,0.6h-4.7v8.4h1.4l1.3-2l2.1,1.8c1.2-3.3,2-7.6,2.4-11.9l3.6,0.7
	c-0.1,0.4-0.3,0.6-1,0.7c-0.4,2-0.8,3.8-1.4,5.6h5.6l1.5-2.1L156.6,56.8L156.6,56.8z M146.4,57.4c-0.3,0.9-0.7,1.8-1,2.6
	c0.7,3.3,1.7,6.3,3.3,8.8c1.7-3.2,2.6-7,3.2-11.5H146.4L146.4,57.4z"/>
<path class="st0" d="M165.3,62c0.5,1.7,0.7,3.2,0.7,4.6c0,4.1-1.9,6.8-3.8,6.8c-0.9,0-1.1-0.6-1.1-1.1c0-0.5,0.3-1,0.7-1.4
	c1.7-1.3,3.2-4.8,3.1-8.8L165.3,62z M168.3,50.8c7.5,0.1,9.9,2.9,9.9,4.6c0,0.7-0.5,1.2-1.1,1.2c-0.2,0-0.4,0-0.6-0.1
	c-1.1-1.7-4-4-8.2-5.2L168.3,50.8z M168.9,58.6l3.4,0.3c-0.1,0.4-0.2,0.6-1.1,0.8v14.4c0,1,0.1,1.1,1.2,1.1h5.6
	c0.5,0,0.8-0.1,1.1-0.5c0.3-0.5,0.7-2.3,1.2-4.5h0.3l0,4.7c1,0.4,1.1,0.5,1.1,0.9c0,1-0.8,1.6-3.7,1.6h-5.6c-2.8,0-3.5-0.6-3.5-3.3
	L168.9,58.6L168.9,58.6z M181.1,60.8c4.9,3,6.4,6.8,6.4,9.4c0,1.8-0.7,3.1-1.6,3.1c-0.3,0-0.7-0.2-1-0.7c0.1-3.1-0.9-8.1-4.1-11.4
	L181.1,60.8z"/>
<path class="st0" d="M212.7,77.7c11.2-7.8,11-17.9,11-27.2l3.7,0.4c0,0.4-0.3,0.6-1.2,0.7c0.7,9.5,3.5,18.4,12.9,24.2l-0.1,0.4
	c-1.2,0.1-2,0.8-2.4,2.1c-7.2-5.5-9.7-13.6-10.6-21.8h0c-0.5,7.8-2.4,15.9-13.1,21.8L212.7,77.7z"/>
<path class="st0" d="M270.2,56.5c-0.2,0.4-0.6,0.6-1.4,0.6h-3.5c-1.4,5.1-3.5,9.5-6.7,13c3.2,2.7,7.2,4.6,11.7,5.7l-0.1,0.4
	c-1.2,0.1-2.1,0.9-2.6,2.1c-4.2-1.5-7.8-3.6-10.7-6.6c-3.3,2.9-7.5,5.2-13,6.6l-0.1-0.5c5-1.7,9-4.2,11.9-7.5
	c-2.7-3.4-4.7-7.7-5.8-13.2H244l-0.2-0.7h11.9v-6.7l3.6,0.4c0,0.5-0.3,0.7-1.3,0.8v5.5h7.5l1.6-2.3L270.2,56.5L270.2,56.5z
	 M250.5,57.1c1.2,4.8,3.5,8.7,6.5,11.7c2.6-3.3,4.3-7.2,5.4-11.7H250.5z"/>
<path class="st0" d="M280.7,63.8c0.5,0.2,1,0.3,1.4,0.5c0.5-0.9,1.2-2,1.8-3.1l2,1.2c-0.1,0.2-0.3,0.3-0.5,0.3c-0.1,0-0.3,0-0.5-0.1
	c-0.6,0.7-1.4,1.4-2,2c1.7,0.9,2.3,2.1,2.3,2.9c0,0.8-0.5,1.3-1.1,1.3c-0.3,0-0.6-0.1-0.9-0.4c-0.3-1.3-1.4-3.1-2.5-4.2v13.1
	c0,0.2-0.7,0.8-1.8,0.8h-0.3v-12c-1.1,1.2-2.4,2.4-3.8,3.4l-0.3-0.5c3.4-3.2,6-8.1,7.4-12.5H275l-0.2-0.7h3.8v-6.2L282,50
	c0,0.5-0.3,0.7-1.3,0.8v5h1l1.3-1.4l2.2,2.1c-0.2,0.3-0.5,0.4-1.2,0.4c-0.8,2.1-2,4.4-3.5,6.5V63.8L280.7,63.8z M298.8,74.4l2.6,2.1
	c-0.2,0.4-0.5,0.6-1.3,0.6h-16l-0.2-0.7h8v-6.1h-5.8l-0.2-0.7h6v-5.2h-3.5v1.1c0,0.2-0.7,0.7-1.8,0.7h-0.4V50.7l2.5,1.1h8.6l1-1.4
	l2.5,2.1c-0.2,0.2-0.5,0.4-1.1,0.5v12.4c0,0.2-0.8,0.7-1.9,0.7h-0.4v-1.6h-3.5v5.2h2.7l1.3-1.9l2.5,2c-0.2,0.4-0.6,0.6-1.3,0.6h-5.2
	v6.1h3.3L298.8,74.4L298.8,74.4z M291.9,52.4h-3.5v5.5h3.5V52.4z M288.4,63.7h3.5v-5.2h-3.5V63.7z M297.5,52.4h-3.5v5.5h3.5V52.4z
	 M294.1,63.7h3.5v-5.2h-3.5V63.7z"/>
<path class="st0" d="M317.8,55.4h-8.6c0,0.2,0,0.4,0,0.6c0,1.6-0.8,2.9-2.2,2.9c-0.8,0-1.2-0.5-1.2-1.1c0-0.6,0.4-1,1-1.2
	c0.9-0.4,1.6-1.6,1.5-2.9l0.5,0c0.1,0.4,0.2,0.8,0.3,1.1h8.7v-2.3h-9.2l-0.2-0.7h17.3l1.4-1.9l2.7,1.9c-0.2,0.5-0.6,0.6-1.4,0.6
	h-8.4v2.3h9l1.2-1.4l2.3,2.3c-0.2,0.2-0.5,0.3-1.1,0.3c-0.6,0.8-1.6,1.8-2.5,2.4l-0.4-0.2c0.2-0.6,0.5-1.9,0.6-2.8h-9.2v6.3
	c0,0.2-0.7,0.6-1.9,0.6h-0.4V55.4L317.8,55.4z M318.2,74.5c-0.2,0.4-0.6,0.6-1.3,0.6H310v2.2c0,0-0.3,0.9-2.2,0.9v-16l2.3,1.1h4.5
	l0.9-1.2l2.6,1.9c-0.1,0.2-0.5,0.4-1,0.5v3.4c0,0.1-0.7,0.7-2.2,0.7v-0.9H310v2.9h4.3l1.1-1.5l2.2,1.6c-0.2,0.4-0.6,0.6-1.3,0.6H310
	v3.1h4.6l1.2-1.7L318.2,74.5L318.2,74.5z M309.3,60.7l-0.2-0.7h4.4l1-1.2l2,1.4c-0.2,0.4-0.5,0.6-1.2,0.6L309.3,60.7L309.3,60.7z
	 M314.4,56.2l1.9,1.3c-0.2,0.4-0.5,0.6-1.2,0.6h-5.3l-0.2-0.7h3.8L314.4,56.2L314.4,56.2z M314.9,64H310v3h4.9V64z M328.6,68.7
	l2.1,2.1c-0.2,0.3-0.5,0.3-1.2,0.4c-0.8,1.3-1.9,2.4-3.1,3.3c1.8,0.7,3.8,1.1,5.9,1.4l0,0.3c-0.8,0.2-1.4,1-1.6,2.1
	c-2.4-0.6-4.4-1.4-6-2.6c-2.2,1.2-4.9,2.1-8,2.6l-0.1-0.6c2.7-0.7,5-1.7,7-3.1c-1.1-1.1-2.1-2.4-2.8-4h-1.8l-0.2-0.7h8.6L328.6,68.7
	L328.6,68.7z M329.7,67.9c0,0.2-1.1,0.7-1.9,0.7h-0.3v-0.9h-8l-0.2-0.7h8.2v-3h-7.8l-0.2-0.7h7.7l0.9-1.3l2.6,2
	c-0.2,0.2-0.6,0.5-1.1,0.6V67.9L329.7,67.9z M321.5,60.7l-0.2-0.7h4.6l1-1.3l2.1,1.4c-0.2,0.4-0.5,0.6-1.3,0.6H321.5z M321.4,70.6
	c0.8,1.2,2,2.2,3.4,3c1-0.9,1.9-1.9,2.5-3H321.4L321.4,70.6z M326.4,56.2l2,1.3c-0.2,0.4-0.5,0.6-1.2,0.6h-5.5l-0.2-0.7h4
	L326.4,56.2L326.4,56.2z"/>
<path class="st0" d="M350.9,75.2c-0.2,0.5-0.5,0.6-1.3,0.6h-8.7v1.7c0,0.2-0.7,0.7-1.7,0.7h-0.3v-9.3c-0.6,0.8-1.2,1.5-1.9,2.1
	l-0.4-0.3c1.3-1.9,2.6-5.2,3.4-8.5l2.8,1c-0.1,0.3-0.3,0.5-1,0.5c-0.2,0.6-0.5,1.2-0.8,1.8l0.3,0.2h2.7c0.1-0.9,0.3-2.2,0.4-3.1
	l3.1,0.8c-0.1,0.3-0.4,0.5-1,0.5c-0.4,0.6-1,1.3-1.6,1.9h2.5l1.1-1.5l2.2,1.6c-0.2,0.4-0.5,0.6-1.3,0.6h-3.7v2.4h1.1l1-1.4l2,1.5
	c-0.2,0.4-0.5,0.6-1.3,0.6h-2.9v2.5h1.1l1-1.4l2.1,1.5c-0.2,0.4-0.5,0.6-1.3,0.6h-2.9v2.6h1.9l1.2-1.6L350.9,75.2L350.9,75.2z
	 M340.2,53.4h-3.2l-0.1-0.7h3.4v-2.9l3,0.2c0,0.4-0.2,0.6-0.9,0.7v2h3.1v-2.9l3,0.2c0,0.4-0.2,0.6-1,0.7v2h1.2l1-1.5l2.1,1.7
	c-0.2,0.3-0.5,0.6-1.2,0.6h-3.2v1.5c0,0.2-0.5,0.6-1.6,0.6h-0.4v-2.1h-3.1V55c0,0.2-0.5,0.6-2,0.6V53.4z M343.2,61.6
	c0,0.2-0.9,0.6-1.5,0.6h-0.3V61h-1.9V62c0,0.2-0.6,0.6-1.5,0.6h-0.3v-6.9l2.1,1h1.3l0.8-1l2.2,1.6c-0.1,0.2-0.5,0.4-1,0.5
	L343.2,61.6L343.2,61.6z M339.5,60.4h1.9v-3h-1.9V60.4z M343.5,66.2h-2.7v2.4h2.7V66.2z M343.5,71.9v-2.5h-2.7v2.5H343.5z
	 M343.5,75.2v-2.6h-2.7v2.6H343.5z M350.2,61.5c0,0.2-0.9,0.6-1.5,0.6h-0.3V61h-2v0.6c0,0.1-0.6,0.6-1.5,0.6h-0.3v-6.6l2.1,1h1.5
	l0.8-1l2.2,1.7c-0.1,0.2-0.5,0.4-1,0.5L350.2,61.5L350.2,61.5z M346.4,60.4h2v-3h-2V60.4z M362.6,71.8l0,3.8
	c0.8,0.3,0.9,0.4,0.9,0.8c0,0.9-0.7,1.3-2.2,1.3h-1.6c-2,0-2.2-0.4-2.2-2.9v-7.2h-3.6v0.7c0,0.1-0.1,0.2-0.3,0.3l3.1,0.5
	c-0.1,0.4-0.4,0.6-1.1,0.6c-0.6,3.4-2.2,6.8-6.4,8.5l-0.3-0.6c3.3-1.9,4.4-5.4,4.6-9c-0.6,0.4-1.1,0.4-1.7,0.4V50.9l2.4,1.1h5.4
	l1-1.4l2.6,2.1c-0.2,0.2-0.5,0.4-1.1,0.5v14.9c0,0.2-0.8,0.7-1.8,0.7h-0.3v-1.2h-0.3v7.3c0,0.7,0,0.8,0.3,0.8h1.2
	c0.1,0,0.3,0,0.5-0.3c0.2-0.4,0.6-2.1,0.9-3.5H362.6L362.6,71.8z M359.8,52.7h-6v4.2h6V52.7z M359.8,61.9v-4.3h-6v4.3H359.8z
	 M353.8,66.9h6v-4.3h-6V66.9z"/>
</svg>
