<?xml version="1.0" encoding="utf-8"?>
<!-- Generator: Adobe Illustrator 27.0.0, SVG Export Plug-In . SVG Version: 6.00 Build 0)  -->
<svg version="1.1" id="圖層_1" xmlns="http://www.w3.org/2000/svg" xmlns:xlink="http://www.w3.org/1999/xlink" x="0px" y="0px"
	 viewBox="0 0 400 25" style="enable-background:new 0 0 400 25;" xml:space="preserve">
<style type="text/css">
	.st0{fill:#D8B167;}
</style>
<path class="st0" d="M130.6,3.4c0-0.4,0-0.7,0-1c0-0.3,0-0.7,0-1c0.1,0,0.3,0,0.4,0c0.1,0,0.3,0,0.4,0c0.1,0,0.3,0,0.4,0
	c0.1,0,0.3,0,0.4,0c0.2,0,0.4,0,0.6,0.1c0.2,0,0.4,0.1,0.5,0.2c0.1,0.1,0.3,0.2,0.4,0.4s0.1,0.3,0.1,0.6c0,0.4-0.1,0.7-0.4,0.9
	c-0.2,0.2-0.6,0.4-1,0.5v0c0.5,0,0.9,0.1,1.1,0.3c0.3,0.2,0.4,0.5,0.4,1c0,0.3-0.1,0.6-0.2,0.8c-0.1,0.2-0.3,0.4-0.5,0.5
	s-0.4,0.2-0.6,0.3c-0.2,0.1-0.5,0.1-0.7,0.1c-0.1,0-0.3,0-0.4,0c-0.1,0-0.3,0-0.4,0h-0.4c-0.1,0-0.3,0-0.4,0c0-0.3,0-0.7,0-1
	c0-0.3,0-0.7,0-1L130.6,3.4L130.6,3.4z M131.7,3.8c0.2,0,0.4,0,0.6-0.1c0.2,0,0.4-0.1,0.5-0.2s0.3-0.2,0.3-0.4
	c0.1-0.2,0.1-0.3,0.1-0.6s0-0.4-0.1-0.5c-0.1-0.1-0.2-0.2-0.3-0.3c-0.1-0.1-0.3-0.1-0.4-0.1c-0.2,0-0.3,0-0.5,0c-0.1,0-0.3,0-0.3,0
	c-0.1,0-0.2,0-0.3,0c0,0.3,0,0.5,0,0.8s0,0.5,0,0.8v0.6H131.7z M131.3,4.9c0,0.3,0,0.5,0,0.8c0,0.3,0,0.5,0,0.8c0.1,0,0.2,0,0.4,0
	c0.1,0,0.3,0,0.4,0c0.2,0,0.3,0,0.5-0.1s0.3-0.2,0.4-0.3c0.1-0.1,0.2-0.3,0.3-0.4c0.1-0.2,0.1-0.4,0.1-0.6c0-0.2,0-0.4-0.1-0.6
	c-0.1-0.2-0.2-0.3-0.4-0.3c-0.1-0.1-0.3-0.1-0.6-0.2c-0.2,0-0.5,0-0.7,0h-0.4L131.3,4.9L131.3,4.9z"/>
<path class="st0" d="M135,5.1c0-0.7,0.2-1.2,0.5-1.5s0.8-0.6,1.4-0.6c0.3,0,0.5,0,0.7,0.1c0.2,0.1,0.4,0.2,0.5,0.3
	c0.1,0.2,0.2,0.3,0.3,0.5c0.1,0.2,0.1,0.4,0.1,0.6c0,0,0,0.1,0,0.2s0,0.1,0,0.2c-0.3,0-0.6,0-0.9,0c-0.3,0-0.6,0-0.9,0
	c-0.2,0-0.3,0-0.5,0s-0.4,0-0.5,0c0,0,0,0.1,0,0.1v0.1c0,0.2,0,0.4,0.1,0.6s0.1,0.3,0.3,0.5c0.1,0.1,0.3,0.2,0.4,0.3
	c0.2,0.1,0.4,0.1,0.6,0.1c0.1,0,0.2,0,0.3,0c0.1,0,0.2-0.1,0.3-0.1c0.1,0,0.2-0.1,0.3-0.2c0.1-0.1,0.2-0.1,0.2-0.2l0,0l-0.1,0.4
	c-0.2,0.1-0.4,0.2-0.6,0.3c-0.2,0.1-0.5,0.1-0.7,0.1c-0.3,0-0.6,0-0.8-0.1c-0.2-0.1-0.4-0.2-0.6-0.4c-0.2-0.2-0.3-0.4-0.4-0.6
	S135,5.3,135,5.1L135,5.1z M136.8,3.2c-0.2,0-0.4,0-0.5,0.1c-0.1,0.1-0.2,0.2-0.3,0.3c-0.1,0.1-0.1,0.3-0.2,0.5
	c-0.1,0.2-0.1,0.3-0.1,0.5c0.2,0,0.3,0,0.5,0c0.2,0,0.4,0,0.5,0s0.4,0,0.5,0c0.2,0,0.4,0,0.5,0c0-0.1,0-0.3,0-0.5
	c0-0.2-0.1-0.3-0.1-0.5c-0.1-0.1-0.2-0.2-0.3-0.3C137.2,3.3,137,3.2,136.8,3.2L136.8,3.2z"/>
<path class="st0" d="M139.4,3.4c0.2-0.2,0.5-0.3,0.7-0.4c0.2-0.1,0.4-0.1,0.6-0.1c0.2,0,0.4,0,0.5,0.1c0.2,0.1,0.3,0.1,0.4,0.2
	c0.1,0.1,0.2,0.2,0.3,0.4c0.1,0.1,0.1,0.3,0.1,0.5c0,0.3,0,0.6,0,0.9c0,0.3,0,0.6,0,1c0,0.1,0,0.1,0,0.2c0,0.1,0,0.1,0,0.2
	c0,0.1,0.1,0.1,0.1,0.1c0,0,0.1,0.1,0.2,0.1c0,0,0.1,0,0.1,0s0.1,0,0.1,0v0.2c-0.1,0-0.1,0.1-0.2,0.1c-0.1,0-0.2,0-0.3,0
	c-0.2,0-0.3,0-0.4-0.1c-0.1-0.1-0.1-0.2-0.2-0.3c-0.2,0.2-0.4,0.3-0.6,0.4c-0.2,0.1-0.4,0.1-0.7,0.1c-0.1,0-0.3,0-0.4-0.1
	c-0.1,0-0.2-0.1-0.3-0.2c-0.1-0.1-0.2-0.2-0.2-0.3S139,6.1,139,6c0-0.3,0.1-0.6,0.3-0.7c0.2-0.2,0.5-0.3,0.8-0.3
	c0.3,0,0.5-0.1,0.7-0.1c0.2,0,0.3-0.1,0.4-0.1s0.1-0.1,0.1-0.1c0,0,0-0.1,0-0.2c0-0.1,0-0.3-0.1-0.4s-0.1-0.2-0.1-0.3
	c-0.1-0.1-0.2-0.2-0.3-0.2c-0.1-0.1-0.2-0.1-0.4-0.1c-0.2,0-0.4,0.1-0.6,0.1c-0.2,0.1-0.3,0.2-0.4,0.4h-0.1L139.4,3.4L139.4,3.4z
	 M141.4,4.8c-0.1,0-0.2,0.1-0.3,0.1s-0.2,0-0.4,0.1c-0.1,0-0.2,0.1-0.4,0.1s-0.2,0.1-0.3,0.2c-0.1,0.1-0.2,0.1-0.2,0.2
	c-0.1,0.1-0.1,0.2-0.1,0.4c0,0.2,0.1,0.4,0.2,0.6c0.1,0.1,0.3,0.2,0.5,0.2c0.2,0,0.4-0.1,0.6-0.2s0.3-0.2,0.4-0.4L141.4,4.8
	L141.4,4.8z"/>
<path class="st0" d="M143.3,5.6c0-0.3,0-0.5,0-0.7c0-0.2,0-0.4,0-0.6c0-0.2,0-0.4,0-0.6c0-0.2,0-0.4,0-0.7c0.1,0,0.2,0,0.3,0
	c0.1,0,0.2,0,0.3,0c0,0.3-0.1,0.7-0.1,1c0,0.4,0,0.8,0,1.2c0,0.3,0,0.5,0.1,0.6s0.1,0.3,0.2,0.3c0.1,0.1,0.2,0.2,0.3,0.2
	c0.1,0.1,0.2,0.1,0.4,0.1c0.2,0,0.4,0,0.6-0.1c0.2-0.1,0.3-0.2,0.3-0.4c0-0.1,0.1-0.2,0.1-0.2c0-0.1,0-0.2,0.1-0.3
	c0-0.1,0-0.2,0-0.4c0-0.2,0-0.4,0-0.7V3.7c0-0.1,0-0.2,0-0.3c0-0.1,0-0.2,0-0.3c0.1,0,0.1,0,0.2,0c0.1,0,0.1,0,0.2,0s0.1,0,0.2,0
	c0.1,0,0.1,0,0.2,0c0,0.4,0,0.8-0.1,1.2c0,0.4,0,0.8,0,1.2c0,0.2,0,0.5,0,0.7s0,0.4,0,0.7c-0.1,0-0.2,0-0.3,0c-0.1,0-0.2,0-0.3,0
	c0,0,0-0.1,0-0.2c0,0,0-0.1,0-0.2V6.2h0c-0.1,0.3-0.3,0.4-0.5,0.6c-0.2,0.1-0.5,0.2-0.7,0.2c-0.4,0-0.7-0.1-1-0.3
	C143.4,6.4,143.3,6,143.3,5.6L143.3,5.6z"/>
<path class="st0" d="M148.5,2c0,0.2,0,0.4,0,0.6c0,0.2,0,0.4,0,0.6c0.1,0,0.2,0,0.3,0c0.2,0,0.3,0,0.5,0c0,0,0,0,0,0.1v0.2
	c0,0,0,0.1,0,0.1c-0.1,0-0.1,0-0.2,0c-0.1,0-0.1,0-0.2,0h-0.4c0,0,0,0.1,0,0.3c0,0.2,0,0.3,0,0.5c0,0.2,0,0.4,0,0.6
	c0,0.2,0,0.4,0,0.6c0,0.1,0,0.3,0,0.4c0,0.1,0,0.3,0.1,0.4c0,0.1,0.1,0.2,0.2,0.3c0.1,0.1,0.2,0.1,0.4,0.1c0,0,0.1,0,0.2,0
	c0.1,0,0.1,0,0.2,0v0.2c-0.1,0-0.2,0-0.3,0.1s-0.2,0-0.3,0c-0.3,0-0.6-0.1-0.7-0.2c-0.2-0.2-0.2-0.4-0.2-0.7c0-0.1,0-0.3,0-0.5
	s0-0.4,0-0.6c0-0.2,0-0.4,0-0.7c0-0.2,0-0.5,0-0.8h-0.3c0,0-0.1,0-0.1,0c0,0-0.1,0-0.1,0c0,0,0-0.1,0-0.1c0,0,0-0.1,0-0.1
	s0-0.1,0-0.1s0,0,0-0.1c0.2,0,0.4,0,0.5,0c0-0.1,0-0.2,0-0.4c0-0.2,0-0.3,0-0.5L148.5,2L148.5,2L148.5,2z"/>
<path class="st0" d="M151.2,6.8c-0.1-0.1-0.1-0.3-0.2-0.6c-0.1-0.2-0.2-0.5-0.3-0.7s-0.2-0.5-0.3-0.8c-0.1-0.3-0.2-0.5-0.3-0.7
	c-0.1-0.2-0.2-0.4-0.3-0.6c-0.1-0.2-0.1-0.3-0.2-0.4c0.1,0,0.1,0,0.2,0c0.1,0,0.1,0,0.2,0s0.1,0,0.2,0c0.1,0,0.1,0,0.2,0
	c0.2,0.5,0.3,1,0.5,1.5c0.2,0.5,0.4,1,0.6,1.5c0.2-0.5,0.4-1,0.6-1.5c0.2-0.5,0.4-1.1,0.6-1.6c0.1,0,0.2,0,0.3,0c0.1,0,0.2,0,0.3,0
	c0,0.1-0.1,0.2-0.2,0.4c-0.1,0.2-0.2,0.4-0.3,0.6c-0.1,0.2-0.2,0.5-0.4,0.8c-0.1,0.3-0.3,0.6-0.4,0.9c-0.1,0.3-0.3,0.6-0.4,0.9
	s-0.3,0.6-0.4,0.9c-0.1,0.3-0.2,0.5-0.3,0.8c-0.1,0.2-0.2,0.4-0.2,0.5c-0.1,0-0.2,0-0.3,0c-0.1,0-0.2,0-0.3,0
	C150.5,8.2,150.8,7.5,151.2,6.8L151.2,6.8z"/>
<path class="st0" d="M156.4,2.5c0-0.2,0-0.4,0-0.6c0-0.2,0-0.4,0-0.6c0-0.2,0-0.4,0-0.5c0.1,0,0.3,0,0.4,0s0.2,0,0.4,0
	c0,0.1,0,0.3,0,0.5c0,0.2,0,0.4,0,0.6c0,0.2,0,0.4,0,0.6c0,0.2,0,0.4,0,0.6v1.4c0,0.2,0,0.4,0,0.6s0,0.4,0,0.6c0,0.2,0,0.4,0,0.6
	c0,0.2,0,0.3,0,0.5c-0.1,0-0.2,0-0.4,0s-0.2,0-0.4,0c0-0.1,0-0.3,0-0.5c0-0.2,0-0.4,0-0.6c0-0.2,0-0.4,0-0.6c0-0.2,0-0.4,0-0.6V3.1
	C156.4,2.9,156.4,2.7,156.4,2.5z"/>
<path class="st0" d="M158.5,1.6c0-0.1,0-0.2,0.1-0.3c0.1-0.1,0.2-0.1,0.3-0.1s0.2,0,0.3,0.1c0.1,0.1,0.1,0.2,0.1,0.3s0,0.2-0.1,0.3
	s-0.2,0.1-0.3,0.1s-0.2,0-0.3-0.1S158.5,1.8,158.5,1.6z M158.6,4.5c0-0.2,0-0.5,0-0.8c0-0.3,0-0.5-0.1-0.7c0.2,0,0.3,0,0.4,0
	c0.1,0,0.2,0,0.4,0c0,0.2,0,0.5-0.1,0.7c0,0.3,0,0.5,0,0.8v0.8c0,0.2,0,0.5,0,0.8c0,0.3,0,0.5,0.1,0.7c-0.1,0-0.2,0-0.4,0
	c-0.1,0-0.2,0-0.4,0c0-0.2,0-0.4,0.1-0.7c0-0.3,0-0.5,0-0.8V4.5z"/>
<path class="st0" d="M160.3,5.1c0-0.7,0.2-1.2,0.5-1.5c0.3-0.4,0.8-0.6,1.4-0.6c0.3,0,0.5,0,0.7,0.1c0.2,0.1,0.4,0.2,0.5,0.3
	c0.1,0.2,0.2,0.3,0.3,0.5c0.1,0.2,0.1,0.4,0.1,0.6c0,0,0,0.1,0,0.2s0,0.1,0,0.2c-0.3,0-0.6,0-0.9,0c-0.3,0-0.6,0-0.9,0
	c-0.2,0-0.4,0-0.5,0s-0.3,0-0.5,0c0,0,0,0.1,0,0.1v0.1c0,0.2,0,0.4,0.1,0.6s0.1,0.3,0.3,0.5c0.1,0.1,0.3,0.2,0.4,0.3
	c0.2,0.1,0.4,0.1,0.6,0.1c0.1,0,0.2,0,0.3,0c0.1,0,0.2-0.1,0.3-0.1c0.1,0,0.2-0.1,0.3-0.2c0.1-0.1,0.2-0.1,0.2-0.2l0,0l-0.1,0.4
	c-0.2,0.1-0.4,0.2-0.6,0.3c-0.2,0.1-0.5,0.1-0.7,0.1c-0.3,0-0.6,0-0.8-0.1c-0.2-0.1-0.4-0.2-0.6-0.4c-0.2-0.2-0.3-0.4-0.4-0.6
	S160.3,5.3,160.3,5.1L160.3,5.1z M162.2,3.2c-0.2,0-0.4,0-0.5,0.1c-0.1,0.1-0.2,0.2-0.3,0.3c-0.1,0.1-0.1,0.3-0.2,0.5
	c-0.1,0.2-0.1,0.3-0.1,0.5c0.2,0,0.3,0,0.5,0c0.2,0,0.3,0,0.5,0c0.2,0,0.4,0,0.5,0s0.4,0,0.5,0c0-0.1,0-0.3,0-0.5
	c0-0.2-0.1-0.3-0.1-0.5c-0.1-0.1-0.2-0.2-0.3-0.3C162.6,3.3,162.4,3.2,162.2,3.2L162.2,3.2z"/>
<path class="st0" d="M164.8,6.3c0.1,0.1,0.1,0.1,0.2,0.2c0.1,0.1,0.2,0.1,0.3,0.1c0.1,0,0.2,0.1,0.3,0.1c0.1,0,0.2,0,0.3,0
	c0.1,0,0.2-0.1,0.2-0.1c0.1-0.1,0.1-0.1,0.2-0.2c0-0.1,0.1-0.2,0.1-0.3c0-0.2-0.1-0.3-0.1-0.4c-0.1-0.1-0.2-0.2-0.4-0.2
	s-0.3-0.1-0.5-0.2c-0.2,0-0.3-0.1-0.5-0.2s-0.2-0.2-0.3-0.3c-0.1-0.1-0.1-0.3-0.1-0.5c0-0.2,0-0.3,0.1-0.5c0.1-0.2,0.1-0.3,0.3-0.4
	c0.1-0.1,0.2-0.2,0.4-0.2c0.2-0.1,0.4-0.1,0.6-0.1c0.2,0,0.4,0,0.5,0.1s0.3,0.1,0.4,0.1c0,0.1-0.1,0.2-0.1,0.3
	c0,0.1-0.1,0.2-0.1,0.3h-0.1c0-0.1-0.1-0.2-0.2-0.3c-0.1-0.1-0.3-0.1-0.5-0.1c-0.1,0-0.2,0-0.2,0c-0.1,0-0.1,0.1-0.2,0.1
	c-0.1,0-0.1,0.1-0.2,0.2c0,0.1-0.1,0.2-0.1,0.3c0,0.2,0.1,0.3,0.1,0.4s0.2,0.2,0.4,0.2c0.1,0,0.3,0.1,0.5,0.1c0.2,0,0.3,0.1,0.5,0.2
	s0.2,0.2,0.3,0.3c0.1,0.1,0.1,0.3,0.1,0.5c0,0.2,0,0.3-0.1,0.5s-0.2,0.3-0.3,0.4c-0.1,0.1-0.3,0.2-0.4,0.3c-0.2,0.1-0.4,0.1-0.6,0.1
	c-0.2,0-0.5,0-0.6-0.1c-0.2-0.1-0.3-0.1-0.4-0.2c0-0.1,0.1-0.2,0.1-0.3c0-0.1,0.1-0.2,0.1-0.3h0.1C164.6,6.2,164.7,6.2,164.8,6.3
	L164.8,6.3z"/>
<path class="st0" d="M170.1,1.6c0-0.1,0-0.2,0.1-0.3c0.1-0.1,0.2-0.1,0.3-0.1s0.2,0,0.3,0.1c0.1,0.1,0.1,0.2,0.1,0.3s0,0.2-0.1,0.3
	s-0.2,0.1-0.3,0.1s-0.2,0-0.3-0.1C170.1,1.9,170.1,1.8,170.1,1.6z M170.2,4.5c0-0.2,0-0.5,0-0.8c0-0.3,0-0.5-0.1-0.7
	c0.1,0,0.3,0,0.4,0s0.2,0,0.4,0c0,0.2,0,0.5-0.1,0.7c0,0.3,0,0.5,0,0.8v0.8c0,0.2,0,0.5,0,0.8c0,0.3,0,0.5,0.1,0.7
	c-0.1,0-0.2,0-0.4,0s-0.2,0-0.4,0c0-0.2,0-0.4,0.1-0.7c0-0.3,0-0.5,0-0.8V4.5z"/>
<path class="st0" d="M174.6,3.7c-0.1-0.2-0.4-0.3-0.6-0.3c-0.4,0-0.6,0.1-0.8,0.3c-0.2,0.2-0.3,0.6-0.3,1v0.7c0,0.2,0,0.5,0,0.8
	c0,0.3,0,0.5,0,0.7c-0.1,0-0.2,0-0.4,0c-0.1,0-0.2,0-0.4,0c0-0.2,0-0.4,0.1-0.7c0-0.3,0-0.5,0-0.8V4.5c0-0.2,0-0.5,0-0.8
	c0-0.3,0-0.5-0.1-0.7c0.2,0,0.3,0,0.4,0c0,0,0.1,0,0.1,0c0.1,0,0.1,0,0.2,0c0,0.2,0,0.4,0,0.6h0c0.1-0.2,0.3-0.4,0.5-0.5
	c0.2-0.1,0.5-0.2,0.7-0.2c0.2,0,0.3,0,0.4,0.1c0.2,0,0.3,0.1,0.4,0.2c0.1,0.1,0.2,0.2,0.3,0.4c0.1,0.2,0.1,0.4,0.1,0.7
	c0,0.2,0,0.5,0,0.7c0,0.2,0,0.5,0,0.8v0.5c0,0.1,0,0.2,0,0.2s0,0.2,0,0.2c-0.1,0-0.2,0-0.3,0c-0.1,0-0.2,0-0.3,0c0-0.3,0-0.6,0-0.9
	c0-0.3,0-0.6,0-0.9V4.6C174.8,4.2,174.7,3.9,174.6,3.7L174.6,3.7z"/>
<path class="st0" d="M179.6,2c0,0.2,0,0.4,0,0.6c0,0.2,0,0.4,0,0.6c0.1,0,0.2,0,0.3,0s0.3,0,0.5,0c0,0,0,0,0,0.1v0.2
	c0,0,0,0.1,0,0.1c-0.1,0-0.1,0-0.2,0c-0.1,0-0.1,0-0.2,0h-0.4c0,0,0,0.1,0,0.3c0,0.2,0,0.3,0,0.5c0,0.2,0,0.4,0,0.6
	c0,0.2,0,0.4,0,0.6c0,0.1,0,0.3,0,0.4c0,0.1,0,0.3,0.1,0.4c0,0.1,0.1,0.2,0.2,0.3c0.1,0.1,0.2,0.1,0.4,0.1c0,0,0.1,0,0.2,0
	c0.1,0,0.1,0,0.2,0v0.2c-0.1,0-0.2,0-0.3,0.1c-0.1,0-0.2,0-0.3,0c-0.3,0-0.6-0.1-0.7-0.2c-0.2-0.2-0.2-0.4-0.2-0.7
	c0-0.1,0-0.3,0-0.5s0-0.4,0-0.6c0-0.2,0-0.4,0-0.7c0-0.2,0-0.5,0-0.8h-0.3c0,0-0.1,0-0.1,0s-0.1,0-0.2,0c0,0,0-0.1,0-0.1
	c0,0,0-0.1,0-0.1s0-0.1,0-0.1s0,0,0-0.1c0.2,0,0.4,0,0.5,0c0-0.1,0-0.2,0-0.4c0-0.2,0-0.3,0-0.5L179.6,2L179.6,2L179.6,2z"/>
<path class="st0" d="M181.2,2.5c0-0.2,0-0.4,0-0.6s0-0.4,0-0.6c0-0.2,0-0.4,0-0.5c0.2,0,0.3,0,0.4,0c0.1,0,0.2,0,0.4,0
	c0,0.1,0,0.3,0,0.5c0,0.2,0,0.4,0,0.6c0,0.2,0,0.4,0,0.6c0,0.2,0,0.4,0,0.6v0.6h0c0.1-0.2,0.3-0.4,0.5-0.5c0.2-0.1,0.5-0.2,0.7-0.2
	c0.1,0,0.3,0,0.4,0.1s0.3,0.1,0.4,0.2s0.2,0.3,0.3,0.4c0.1,0.2,0.1,0.4,0.1,0.7c0,0.2,0,0.5,0,0.7c0,0.2,0,0.5,0,0.8v0.5
	c0,0.1,0,0.2,0,0.2s0,0.2,0,0.2c-0.1,0-0.2,0-0.3,0c-0.1,0-0.2,0-0.3,0c0-0.3,0-0.6,0-0.9c0-0.3,0-0.6,0-0.9V4.6
	c0-0.4-0.1-0.7-0.2-0.9c-0.2-0.2-0.4-0.3-0.6-0.3c-0.4,0-0.7,0.1-0.8,0.3s-0.3,0.5-0.3,1c0,0.2,0,0.3,0,0.5c0,0.2,0,0.4,0,0.6
	c0,0.2,0,0.4,0,0.6c0,0.2,0,0.3,0,0.5c-0.1,0-0.2,0-0.4,0s-0.2,0-0.4,0c0-0.1,0-0.3,0-0.5c0-0.2,0-0.4,0-0.6c0-0.2,0-0.4,0-0.6
	c0-0.2,0-0.4,0-0.6V3.1C181.2,2.9,181.2,2.7,181.2,2.5L181.2,2.5z"/>
<path class="st0" d="M185.2,5.1c0-0.7,0.2-1.2,0.5-1.5c0.3-0.4,0.8-0.6,1.4-0.6c0.3,0,0.5,0,0.7,0.1c0.2,0.1,0.4,0.2,0.5,0.3
	c0.1,0.2,0.2,0.3,0.3,0.5c0.1,0.2,0.1,0.4,0.1,0.6c0,0,0,0.1,0,0.2s0,0.1,0,0.2c-0.3,0-0.6,0-0.9,0c-0.3,0-0.6,0-0.9,0
	c-0.2,0-0.4,0-0.5,0s-0.3,0-0.5,0c0,0,0,0.1,0,0.1v0.1c0,0.2,0,0.4,0.1,0.6s0.1,0.3,0.3,0.5c0.1,0.1,0.3,0.2,0.4,0.3
	c0.2,0.1,0.4,0.1,0.6,0.1c0.1,0,0.2,0,0.3,0c0.1,0,0.2-0.1,0.3-0.1c0.1,0,0.2-0.1,0.3-0.2c0.1-0.1,0.2-0.1,0.2-0.2l0,0l-0.1,0.4
	c-0.2,0.1-0.4,0.2-0.6,0.3c-0.2,0.1-0.5,0.1-0.7,0.1c-0.3,0-0.6,0-0.8-0.1c-0.2-0.1-0.4-0.2-0.6-0.4s-0.3-0.4-0.4-0.6
	S185.2,5.3,185.2,5.1L185.2,5.1z M187.1,3.2c-0.2,0-0.4,0-0.5,0.1c-0.1,0.1-0.2,0.2-0.3,0.3c-0.1,0.1-0.1,0.3-0.2,0.5
	C186,4.3,186,4.5,186,4.6c0.2,0,0.3,0,0.5,0c0.2,0,0.3,0,0.5,0s0.4,0,0.5,0c0.2,0,0.4,0,0.5,0c0-0.1,0-0.3,0-0.5
	c0-0.2-0.1-0.3-0.1-0.5c-0.1-0.1-0.2-0.2-0.3-0.3C187.5,3.3,187.3,3.2,187.1,3.2L187.1,3.2z"/>
<path class="st0" d="M191.5,5c0-0.3,0.1-0.7,0.2-0.9c0.1-0.2,0.3-0.5,0.5-0.6c0.2-0.2,0.4-0.3,0.6-0.4c0.2-0.1,0.5-0.1,0.8-0.1
	c0.3,0,0.6,0,0.8,0.1c0.2,0.1,0.4,0.1,0.5,0.2c0,0.1-0.1,0.2-0.1,0.2c0,0.1-0.1,0.2-0.1,0.3h-0.1c0-0.1-0.1-0.1-0.2-0.2
	c-0.1-0.1-0.1-0.1-0.2-0.2c-0.1-0.1-0.2-0.1-0.3-0.2c-0.1,0-0.2-0.1-0.4-0.1c-0.2,0-0.4,0-0.6,0.1c-0.2,0.1-0.3,0.2-0.4,0.4
	c-0.1,0.1-0.2,0.3-0.2,0.5c-0.1,0.2-0.1,0.4-0.1,0.7c0,0.5,0.1,1,0.4,1.2c0.2,0.3,0.6,0.4,1,0.4c0.1,0,0.2,0,0.3,0
	c0.1,0,0.2-0.1,0.3-0.1c0.1-0.1,0.2-0.1,0.3-0.2c0.1-0.1,0.2-0.1,0.2-0.2l0,0c0,0.1,0,0.3-0.1,0.4c-0.2,0.1-0.4,0.2-0.6,0.3
	c-0.2,0.1-0.5,0.1-0.7,0.1c-0.2,0-0.5,0-0.7-0.1c-0.2-0.1-0.4-0.2-0.6-0.3s-0.3-0.4-0.4-0.6S191.5,5.3,191.5,5L191.5,5z"/>
<path class="st0" d="M195.5,4.9c0-0.4,0.1-0.7,0.2-0.9c0.1-0.3,0.3-0.5,0.5-0.6c0.2-0.2,0.4-0.3,0.6-0.3c0.2-0.1,0.5-0.1,0.7-0.1
	s0.5,0,0.7,0.1c0.2,0.1,0.4,0.2,0.6,0.3c0.2,0.2,0.3,0.4,0.5,0.6c0.1,0.2,0.2,0.6,0.2,0.9c0,0.4-0.1,0.7-0.2,0.9
	c-0.1,0.2-0.3,0.5-0.5,0.6c-0.2,0.2-0.4,0.3-0.6,0.3c-0.2,0.1-0.5,0.1-0.7,0.1s-0.5,0-0.7-0.1c-0.2-0.1-0.4-0.2-0.6-0.3
	c-0.2-0.2-0.3-0.4-0.5-0.6C195.5,5.6,195.5,5.3,195.5,4.9z M196.2,4.9c0,0.2,0,0.4,0.1,0.7c0,0.2,0.1,0.4,0.2,0.6
	c0.1,0.2,0.2,0.3,0.4,0.4c0.2,0.1,0.4,0.1,0.6,0.1c0.2,0,0.4-0.1,0.6-0.1c0.2-0.1,0.3-0.2,0.4-0.4c0.1-0.2,0.2-0.3,0.2-0.6
	c0-0.2,0.1-0.4,0.1-0.7s0-0.4-0.1-0.7c0-0.2-0.1-0.4-0.2-0.6c-0.1-0.2-0.2-0.3-0.4-0.4c-0.2-0.1-0.4-0.1-0.6-0.1
	c-0.2,0-0.4,0.1-0.6,0.1c-0.2,0.1-0.3,0.2-0.4,0.4c-0.1,0.2-0.2,0.4-0.2,0.6C196.2,4.5,196.2,4.7,196.2,4.9z"/>
<path class="st0" d="M200.2,3.8c0-0.3,0-0.5-0.1-0.7c0.2,0,0.3,0,0.4,0c0,0,0.1,0,0.1,0c0.1,0,0.1,0,0.2,0c0,0.2,0,0.4,0,0.6h0
	c0.3-0.5,0.7-0.7,1.2-0.7c0.1,0,0.3,0,0.4,0.1s0.2,0.1,0.4,0.2c0.1,0.1,0.2,0.1,0.3,0.2c0.1,0.1,0.1,0.2,0.1,0.3h0
	c0.1-0.3,0.3-0.4,0.5-0.6C204,3,204.2,3,204.5,3c0.2,0,0.3,0,0.5,0.1s0.3,0.1,0.4,0.2s0.2,0.2,0.3,0.4c0.1,0.2,0.1,0.3,0.1,0.6
	c0,0.1,0,0.2,0,0.3s0,0.2,0,0.4c0,0.1,0,0.3,0,0.5c0,0.2,0,0.4,0,0.6c0,0.1,0,0.3,0,0.4c0,0.1,0,0.3,0,0.4c-0.1,0-0.1,0-0.2,0h-0.3
	c-0.1,0-0.1,0-0.2,0c0-0.1,0-0.4,0.1-0.8c0-0.4,0-1,0-1.7c0-0.1,0-0.3,0-0.4c0-0.1-0.1-0.2-0.1-0.3c-0.1-0.1-0.2-0.2-0.3-0.2
	c-0.1-0.1-0.2-0.1-0.4-0.1c-0.2,0-0.4,0-0.5,0.1c-0.1,0.1-0.2,0.2-0.3,0.3c0,0.1-0.1,0.1-0.1,0.2c0,0.1,0,0.1-0.1,0.3
	c0,0.1,0,0.3,0,0.5c0,0.2,0,0.5,0,0.9c0,0.2,0,0.4,0,0.6c0,0.2,0,0.4,0,0.6c-0.1,0-0.2,0-0.4,0c-0.1,0-0.2,0-0.3,0
	c0-0.3,0.1-0.6,0.1-0.9c0-0.3,0-0.6,0-0.9c0-0.2,0-0.4,0-0.6s0-0.2,0-0.3c0-0.1,0-0.1,0-0.2c0,0,0-0.1-0.1-0.2
	c-0.1-0.1-0.1-0.2-0.3-0.3c-0.1-0.1-0.2-0.1-0.4-0.1c-0.4,0-0.6,0.1-0.8,0.3c-0.2,0.2-0.2,0.5-0.2,1v0.7c0,0.2,0,0.5,0,0.8
	c0,0.3,0,0.5,0.1,0.7c-0.1,0-0.2,0-0.4,0c-0.1,0-0.2,0-0.4,0c0-0.2,0-0.5,0-0.7c0-0.3,0-0.5,0-0.8V4.5C200.3,4.3,200.3,4,200.2,3.8
	L200.2,3.8z"/>
<path class="st0" d="M210.4,4.8c0,0.3-0.1,0.6-0.1,0.9c-0.1,0.3-0.2,0.5-0.4,0.7c-0.2,0.2-0.3,0.3-0.6,0.4c-0.2,0.1-0.5,0.1-0.7,0.1
	c-0.3,0-0.5-0.1-0.7-0.2c-0.2-0.1-0.4-0.2-0.5-0.4c-0.2,0.2-0.4,0.3-0.5,0.5h-0.1c0-0.1,0-0.3,0-0.5c0-0.2,0-0.4,0-0.6
	c0-0.2,0-0.4,0-0.6c0-0.2,0-0.4,0-0.6V3.1c0-0.2,0-0.4,0-0.6s0-0.4,0-0.6s0-0.4,0-0.6c0-0.2,0-0.4,0-0.5c0.1,0,0.3,0,0.4,0
	c0.1,0,0.1,0,0.2,0c0.1,0,0.1,0,0.2,0c0,0.1,0,0.3,0,0.5c0,0.2,0,0.5,0,0.8c0,0.3,0,0.6,0,0.9c0,0.3,0,0.6,0,0.8h0
	c0.2-0.3,0.4-0.5,0.6-0.6c0.2-0.1,0.5-0.2,0.8-0.2s0.5,0,0.7,0.2c0.2,0.1,0.4,0.2,0.5,0.4s0.2,0.4,0.3,0.6
	C210.4,4.4,210.4,4.6,210.4,4.8L210.4,4.8z M209.7,4.8c0-0.2,0-0.5-0.1-0.6s-0.1-0.4-0.2-0.5c-0.1-0.1-0.2-0.2-0.3-0.3
	c-0.1-0.1-0.3-0.1-0.4-0.1c-0.2,0-0.3,0-0.5,0.1c-0.1,0.1-0.3,0.2-0.4,0.3c-0.1,0.1-0.2,0.3-0.3,0.6c-0.1,0.2-0.1,0.5-0.1,0.8
	c0,1.1,0.4,1.6,1.2,1.6c0.2,0,0.3,0,0.5-0.1c0.1-0.1,0.3-0.2,0.4-0.4s0.2-0.4,0.2-0.6S209.7,5.1,209.7,4.8z"/>
<path class="st0" d="M211.5,1.6c0-0.1,0-0.2,0.1-0.3c0.1-0.1,0.2-0.1,0.3-0.1c0.1,0,0.2,0,0.3,0.1c0.1,0.1,0.1,0.2,0.1,0.3
	s0,0.2-0.1,0.3s-0.2,0.1-0.3,0.1c-0.1,0-0.2,0-0.3-0.1S211.5,1.8,211.5,1.6z M211.6,4.5c0-0.2,0-0.5,0-0.8c0-0.3,0-0.5-0.1-0.7
	c0.2,0,0.3,0,0.4,0s0.2,0,0.4,0c0,0.2,0,0.5,0,0.7c0,0.3,0,0.5,0,0.8v0.8c0,0.2,0,0.5,0,0.8c0,0.3,0,0.5,0,0.7c-0.1,0-0.2,0-0.4,0
	c-0.1,0-0.2,0-0.4,0c0-0.2,0-0.4,0.1-0.7c0-0.3,0-0.5,0-0.8V4.5z"/>
<path class="st0" d="M216,3.7c-0.1-0.2-0.4-0.3-0.6-0.3c-0.4,0-0.6,0.1-0.8,0.3s-0.3,0.6-0.3,1v0.7c0,0.2,0,0.5,0,0.8
	c0,0.3,0,0.5,0.1,0.7c-0.1,0-0.2,0-0.4,0s-0.2,0-0.4,0c0-0.2,0-0.4,0.1-0.7c0-0.3,0-0.5,0-0.8V4.5c0-0.2,0-0.5,0-0.8
	c0-0.3,0-0.5-0.1-0.7c0.1,0,0.3,0,0.4,0c0,0,0.1,0,0.1,0c0.1,0,0.1,0,0.2,0c0,0.2,0,0.4,0,0.6h0c0.2-0.2,0.3-0.4,0.5-0.5
	C215,3,215.3,3,215.5,3c0.2,0,0.3,0,0.5,0.1s0.3,0.1,0.4,0.2c0.1,0.1,0.2,0.2,0.3,0.4c0.1,0.2,0.1,0.4,0.1,0.7c0,0.2,0,0.5,0,0.7
	c0,0.2,0,0.5,0,0.8v0.5c0,0.1,0,0.2,0,0.2s0,0.2,0,0.2c-0.1,0-0.2,0-0.3,0s-0.2,0-0.3,0c0-0.3,0-0.6,0-0.9c0-0.3,0-0.6,0-0.9V4.6
	C216.2,4.2,216.1,3.9,216,3.7L216,3.7z"/>
<path class="st0" d="M218.1,3.4c0.2-0.2,0.5-0.3,0.7-0.4C219,3,219.2,3,219.4,3c0.2,0,0.4,0,0.5,0.1c0.2,0.1,0.3,0.1,0.4,0.2
	c0.1,0.1,0.2,0.2,0.3,0.4c0.1,0.1,0.1,0.3,0.1,0.5c0,0.3,0,0.6,0,0.9c0,0.3,0,0.6,0,1c0,0.1,0,0.1,0,0.2c0,0.1,0,0.1,0,0.2
	c0,0.1,0.1,0.1,0.1,0.1c0,0,0.1,0.1,0.2,0.1c0,0,0.1,0,0.1,0s0.1,0,0.1,0v0.2c-0.1,0-0.1,0.1-0.2,0.1c-0.1,0-0.2,0-0.3,0
	c-0.2,0-0.3,0-0.4-0.1c-0.1-0.1-0.1-0.2-0.2-0.3c-0.2,0.2-0.4,0.3-0.6,0.4c-0.2,0.1-0.4,0.1-0.7,0.1c-0.1,0-0.3,0-0.4-0.1
	s-0.2-0.1-0.3-0.2c-0.1-0.1-0.2-0.2-0.2-0.3s-0.1-0.3-0.1-0.4c0-0.3,0.1-0.6,0.3-0.7c0.2-0.2,0.5-0.3,0.8-0.3c0.3,0,0.5-0.1,0.7-0.1
	c0.2,0,0.3-0.1,0.4-0.1c0.1,0,0.1-0.1,0.1-0.1c0,0,0-0.1,0-0.2c0-0.1,0-0.3,0-0.4s-0.1-0.2-0.2-0.3c-0.1-0.1-0.2-0.2-0.3-0.2
	c-0.1-0.1-0.2-0.1-0.4-0.1c-0.2,0-0.4,0.1-0.6,0.1c-0.2,0.1-0.3,0.2-0.4,0.4h-0.1L218.1,3.4L218.1,3.4z M220.1,4.8
	c-0.1,0-0.2,0.1-0.3,0.1c-0.1,0-0.2,0-0.4,0.1c-0.1,0-0.2,0.1-0.4,0.1c-0.1,0-0.2,0.1-0.3,0.2c-0.1,0.1-0.2,0.1-0.2,0.2
	c-0.1,0.1-0.1,0.2-0.1,0.4c0,0.2,0.1,0.4,0.2,0.6c0.1,0.1,0.3,0.2,0.5,0.2c0.2,0,0.4-0.1,0.6-0.2c0.2-0.1,0.3-0.2,0.4-0.4L220.1,4.8
	L220.1,4.8z"/>
<path class="st0" d="M222.8,2c0,0.2,0,0.4,0,0.6c0,0.2,0,0.4,0,0.6c0.1,0,0.2,0,0.3,0c0.2,0,0.3,0,0.5,0c0,0,0,0,0,0.1v0.2
	c0,0,0,0.1,0,0.1c-0.1,0-0.1,0-0.2,0c-0.1,0-0.1,0-0.2,0h-0.4c0,0,0,0.1,0,0.3c0,0.2,0,0.3,0,0.5c0,0.2,0,0.4,0,0.6
	c0,0.2,0,0.4,0,0.6c0,0.1,0,0.3,0,0.4c0,0.1,0,0.3,0.1,0.4c0,0.1,0.1,0.2,0.2,0.3c0.1,0.1,0.2,0.1,0.4,0.1c0,0,0.1,0,0.2,0
	c0.1,0,0.1,0,0.2,0v0.2c-0.1,0-0.2,0-0.3,0.1c-0.1,0-0.2,0-0.3,0c-0.3,0-0.6-0.1-0.7-0.2c-0.2-0.2-0.2-0.4-0.2-0.7
	c0-0.1,0-0.3,0-0.5s0-0.4,0-0.6c0-0.2,0-0.4,0-0.7c0-0.2,0-0.5,0-0.8h-0.3c0,0-0.1,0-0.1,0c0,0-0.1,0-0.1,0c0,0,0-0.1,0-0.1
	c0,0,0-0.1,0-0.1s0-0.1,0-0.1s0,0,0-0.1c0.2,0,0.4,0,0.5,0c0-0.1,0-0.2,0-0.4c0-0.2,0-0.3,0-0.5L222.8,2L222.8,2L222.8,2z"/>
<path class="st0" d="M224.3,1.6c0-0.1,0-0.2,0.1-0.3c0.1-0.1,0.2-0.1,0.3-0.1c0.1,0,0.2,0,0.3,0.1c0.1,0.1,0.1,0.2,0.1,0.3
	s0,0.2-0.1,0.3s-0.2,0.1-0.3,0.1c-0.1,0-0.2,0-0.3-0.1S224.3,1.8,224.3,1.6z M224.5,4.5c0-0.2,0-0.5,0-0.8c0-0.3,0-0.5,0-0.7
	c0.1,0,0.3,0,0.4,0c0.1,0,0.2,0,0.4,0c0,0.2,0,0.5-0.1,0.7c0,0.3,0,0.5,0,0.8v0.8c0,0.2,0,0.5,0,0.8c0,0.3,0,0.5,0.1,0.7
	c-0.1,0-0.2,0-0.4,0c-0.1,0-0.2,0-0.4,0c0-0.2,0-0.4,0-0.7c0-0.3,0-0.5,0-0.8V4.5z"/>
<path class="st0" d="M226.1,4.9c0-0.4,0.1-0.7,0.2-0.9s0.3-0.5,0.5-0.6c0.2-0.2,0.4-0.3,0.6-0.3c0.2-0.1,0.5-0.1,0.7-0.1
	s0.5,0,0.7,0.1c0.2,0.1,0.4,0.2,0.6,0.3c0.2,0.2,0.3,0.4,0.5,0.6c0.1,0.2,0.2,0.6,0.2,0.9c0,0.4-0.1,0.7-0.2,0.9
	c-0.1,0.2-0.3,0.5-0.5,0.6c-0.2,0.2-0.4,0.3-0.6,0.3c-0.2,0.1-0.5,0.1-0.7,0.1s-0.5,0-0.7-0.1c-0.2-0.1-0.4-0.2-0.6-0.3
	c-0.2-0.2-0.3-0.4-0.5-0.6C226.2,5.6,226.1,5.3,226.1,4.9z M226.8,4.9c0,0.2,0,0.4,0.1,0.7c0,0.2,0.1,0.4,0.2,0.6
	c0.1,0.2,0.2,0.3,0.4,0.4c0.2,0.1,0.4,0.1,0.6,0.1c0.2,0,0.4-0.1,0.6-0.1c0.2-0.1,0.3-0.2,0.4-0.4c0.1-0.2,0.2-0.3,0.2-0.6
	c0-0.2,0.1-0.4,0.1-0.7s0-0.4-0.1-0.7c0-0.2-0.1-0.4-0.2-0.6c-0.1-0.2-0.2-0.3-0.4-0.4c-0.2-0.1-0.4-0.1-0.6-0.1
	c-0.2,0-0.4,0.1-0.6,0.1c-0.2,0.1-0.3,0.2-0.4,0.4c-0.1,0.2-0.2,0.4-0.2,0.6C226.9,4.5,226.8,4.7,226.8,4.9z"/>
<path class="st0" d="M233.3,3.7c-0.2-0.2-0.4-0.3-0.6-0.3c-0.4,0-0.6,0.1-0.8,0.3c-0.2,0.2-0.3,0.6-0.3,1v0.7c0,0.2,0,0.5,0,0.8
	c0,0.3,0,0.5,0.1,0.7c-0.1,0-0.2,0-0.4,0s-0.2,0-0.4,0c0-0.2,0-0.4,0.1-0.7c0-0.3,0-0.5,0-0.8V4.5c0-0.2,0-0.5,0-0.8
	c0-0.3,0-0.5-0.1-0.7c0.2,0,0.3,0,0.4,0c0,0,0.1,0,0.1,0c0.1,0,0.1,0,0.2,0c0,0.2,0,0.4,0,0.6h0c0.1-0.2,0.3-0.4,0.5-0.5
	c0.2-0.1,0.5-0.2,0.7-0.2c0.1,0,0.3,0,0.4,0.1s0.3,0.1,0.4,0.2c0.1,0.1,0.2,0.2,0.3,0.4c0.1,0.2,0.1,0.4,0.1,0.7c0,0.2,0,0.5,0,0.7
	c0,0.2,0,0.5,0,0.8v0.5c0,0.1,0,0.2,0,0.2s0,0.2,0,0.2c-0.1,0-0.2,0-0.3,0c-0.1,0-0.2,0-0.3,0c0-0.3,0-0.6,0-0.9c0-0.3,0-0.6,0-0.9
	V4.6C233.5,4.2,233.4,3.9,233.3,3.7L233.3,3.7z"/>
<path class="st0" d="M237.3,4.9c0-0.4,0.1-0.7,0.2-0.9s0.3-0.5,0.4-0.6c0.2-0.2,0.4-0.3,0.6-0.3C238.8,3,239,3,239.2,3
	c0.2,0,0.5,0,0.7,0.1c0.2,0.1,0.4,0.2,0.6,0.3c0.2,0.2,0.3,0.4,0.5,0.6c0.1,0.2,0.2,0.6,0.2,0.9c0,0.4-0.1,0.7-0.2,0.9
	c-0.1,0.2-0.3,0.5-0.5,0.6c-0.2,0.2-0.4,0.3-0.6,0.3c-0.2,0.1-0.5,0.1-0.7,0.1c-0.2,0-0.5,0-0.7-0.1c-0.2-0.1-0.4-0.2-0.6-0.3
	c-0.2-0.2-0.3-0.4-0.4-0.6C237.3,5.6,237.3,5.3,237.3,4.9z M238,4.9c0,0.2,0,0.4,0.1,0.7s0.1,0.4,0.2,0.6c0.1,0.2,0.2,0.3,0.4,0.4
	c0.2,0.1,0.4,0.1,0.6,0.1s0.4-0.1,0.6-0.1c0.2-0.1,0.3-0.2,0.4-0.4c0.1-0.2,0.2-0.3,0.2-0.6c0-0.2,0.1-0.4,0.1-0.7s0-0.4-0.1-0.7
	c0-0.2-0.1-0.4-0.2-0.6c-0.1-0.2-0.2-0.3-0.4-0.4c-0.2-0.1-0.4-0.1-0.6-0.1s-0.4,0.1-0.6,0.1c-0.2,0.1-0.3,0.2-0.4,0.4
	c-0.1,0.2-0.2,0.4-0.2,0.6S238,4.7,238,4.9z"/>
<path class="st0" d="M243.3,1.4c-0.1,0-0.2,0-0.3,0.1c-0.1,0-0.1,0.1-0.2,0.2c-0.1,0.1-0.1,0.2-0.1,0.2c0,0.1,0,0.2,0,0.3
	s0,0.2,0,0.4c0,0.2,0,0.4,0.1,0.5c0.1,0,0.3,0,0.4,0c0.1,0,0.3,0,0.4,0c0,0,0,0.1,0,0.1c0,0,0,0,0,0.1c0,0,0,0,0,0.1s0,0.1,0,0.1
	c-0.1,0-0.3,0-0.4,0c-0.1,0-0.3,0-0.4,0c0,0.6,0,1.2,0,1.7s0,1.2,0,1.7c-0.1,0-0.1,0-0.2,0h-0.2c-0.1,0-0.2,0-0.3,0
	c0-0.6,0.1-1.2,0.1-1.7c0-0.6,0-1.1,0-1.7c-0.1,0-0.2,0-0.3,0s-0.2,0-0.3,0c0,0,0-0.1,0-0.1c0,0,0,0,0-0.1c0,0,0,0,0-0.1
	s0-0.1,0-0.1c0.1,0,0.2,0,0.3,0s0.2,0,0.3,0c0-0.2,0-0.3,0.1-0.5s0.1-0.4,0.1-0.5c0.1-0.2,0.1-0.3,0.2-0.5s0.2-0.3,0.3-0.4
	c0.1-0.1,0.2-0.2,0.4-0.3c0.2-0.1,0.3-0.1,0.5-0.1c0.1,0,0.1,0,0.2,0c0,0.1,0,0.2,0,0.3c0,0.1,0,0.2,0,0.3l-0.1,0
	C243.6,1.4,243.4,1.3,243.3,1.4L243.3,1.4z"/>
<path class="st0" d="M248.9,3.7c-0.1-0.2-0.4-0.3-0.6-0.3c-0.4,0-0.7,0.1-0.8,0.3c-0.2,0.2-0.3,0.6-0.3,1v0.7c0,0.2,0,0.5,0,0.8
	c0,0.3,0,0.5,0,0.7c-0.1,0-0.2,0-0.4,0s-0.2,0-0.4,0c0-0.2,0-0.4,0.1-0.7c0-0.3,0-0.5,0-0.8V4.5c0-0.2,0-0.5,0-0.8
	c0-0.3,0-0.5-0.1-0.7c0.2,0,0.3,0,0.4,0c0,0,0.1,0,0.1,0c0.1,0,0.1,0,0.2,0c0,0.2,0,0.4,0,0.6h0c0.2-0.2,0.3-0.4,0.5-0.5
	c0.2-0.1,0.5-0.2,0.7-0.2c0.2,0,0.3,0,0.4,0.1c0.2,0,0.3,0.1,0.4,0.2c0.1,0.1,0.2,0.2,0.3,0.4c0.1,0.2,0.1,0.4,0.1,0.7
	c0,0.2,0,0.5,0,0.7c0,0.2,0,0.5,0,0.8v0.5c0,0.1,0,0.2,0,0.2s0,0.2,0,0.2c-0.1,0-0.2,0-0.3,0s-0.2,0-0.3,0c0-0.3,0-0.6,0-0.9
	c0-0.3,0-0.6,0-0.9V4.6C249.1,4.2,249,3.9,248.9,3.7L248.9,3.7z"/>
<path class="st0" d="M251,3.4c0.2-0.2,0.5-0.3,0.7-0.4c0.2-0.1,0.4-0.1,0.6-0.1c0.2,0,0.4,0,0.5,0.1c0.2,0.1,0.3,0.1,0.4,0.2
	c0.1,0.1,0.2,0.2,0.3,0.4c0.1,0.1,0.1,0.3,0.1,0.5c0,0.3,0,0.6,0,0.9c0,0.3,0,0.6,0,1c0,0.1,0,0.1,0,0.2c0,0.1,0,0.1,0,0.2
	c0,0.1,0,0.1,0.1,0.1s0.1,0.1,0.2,0.1c0,0,0.1,0,0.1,0c0,0,0.1,0,0.1,0v0.2c-0.1,0-0.1,0.1-0.2,0.1c-0.1,0-0.2,0-0.3,0
	c-0.2,0-0.3,0-0.4-0.1C253,6.6,253,6.5,253,6.4c-0.2,0.2-0.4,0.3-0.6,0.4c-0.2,0.1-0.4,0.1-0.7,0.1c-0.1,0-0.3,0-0.4-0.1
	c-0.1,0-0.2-0.1-0.3-0.2c-0.1-0.1-0.2-0.2-0.2-0.3c-0.1-0.1-0.1-0.3-0.1-0.4c0-0.3,0.1-0.6,0.3-0.7c0.2-0.2,0.5-0.3,0.8-0.3
	c0.3,0,0.5-0.1,0.7-0.1c0.2,0,0.3-0.1,0.4-0.1c0.1,0,0.1-0.1,0.1-0.1c0,0,0-0.1,0-0.2c0-0.1,0-0.3-0.1-0.4s-0.1-0.2-0.1-0.3
	c-0.1-0.1-0.2-0.2-0.3-0.2c-0.1-0.1-0.2-0.1-0.4-0.1c-0.2,0-0.4,0.1-0.6,0.1c-0.2,0.1-0.3,0.2-0.4,0.4H251L251,3.4L251,3.4z
	 M253,4.8c-0.1,0-0.2,0.1-0.3,0.1c-0.1,0-0.2,0-0.4,0.1c-0.1,0-0.2,0.1-0.4,0.1c-0.1,0-0.2,0.1-0.3,0.2c-0.1,0.1-0.2,0.1-0.2,0.2
	c-0.1,0.1-0.1,0.2-0.1,0.4c0,0.2,0.1,0.4,0.2,0.6c0.1,0.1,0.3,0.2,0.5,0.2c0.2,0,0.4-0.1,0.6-0.2c0.2-0.1,0.3-0.2,0.4-0.4L253,4.8
	L253,4.8z"/>
<path class="st0" d="M255.7,2c0,0.2,0,0.4,0,0.6c0,0.2,0,0.4,0,0.6c0.1,0,0.2,0,0.3,0s0.3,0,0.5,0c0,0,0,0,0,0.1v0.2
	c0,0,0,0.1,0,0.1c-0.1,0-0.1,0-0.2,0c-0.1,0-0.1,0-0.2,0h-0.4c0,0,0,0.1,0,0.3c0,0.2,0,0.3,0,0.5c0,0.2,0,0.4,0,0.6
	c0,0.2,0,0.4,0,0.6c0,0.1,0,0.3,0,0.4c0,0.1,0,0.3,0.1,0.4c0,0.1,0.1,0.2,0.2,0.3c0.1,0.1,0.2,0.1,0.4,0.1c0,0,0.1,0,0.2,0
	c0.1,0,0.1,0,0.2,0v0.2c-0.1,0-0.2,0-0.3,0.1c-0.1,0-0.2,0-0.3,0c-0.3,0-0.6-0.1-0.7-0.2C255,6.5,255,6.3,255,5.9c0-0.1,0-0.3,0-0.5
	s0-0.4,0-0.6c0-0.2,0-0.4,0-0.7c0-0.2,0-0.5,0-0.8h-0.3c0,0-0.1,0-0.1,0c-0.1,0-0.1,0-0.2,0c0,0,0-0.1,0-0.1c0,0,0-0.1,0-0.1
	s0-0.1,0-0.1s0,0,0-0.1c0.2,0,0.4,0,0.5,0c0-0.1,0-0.2,0-0.4c0-0.2,0-0.3,0-0.5L255.7,2L255.7,2L255.7,2z"/>
<path class="st0" d="M257.2,5.6c0-0.3,0-0.5,0-0.7c0-0.2,0-0.4,0-0.6c0-0.2,0-0.4,0-0.6c0-0.2,0-0.4,0-0.7c0.1,0,0.2,0,0.3,0
	c0.1,0,0.2,0,0.3,0c0,0.3,0,0.7-0.1,1c0,0.4,0,0.8,0,1.2c0,0.3,0,0.5,0.1,0.6c0,0.2,0.1,0.3,0.2,0.3c0.1,0.1,0.2,0.2,0.3,0.2
	c0.1,0.1,0.2,0.1,0.4,0.1c0.2,0,0.4,0,0.6-0.1s0.3-0.2,0.3-0.4c0-0.1,0.1-0.2,0.1-0.2c0-0.1,0-0.2,0.1-0.3s0-0.2,0-0.4
	c0-0.2,0-0.4,0-0.7V3.7c0-0.1,0-0.2,0-0.3c0-0.1,0-0.2,0-0.3c0.1,0,0.1,0,0.2,0c0.1,0,0.1,0,0.2,0s0.1,0,0.2,0c0,0,0.1,0,0.2,0
	c0,0.4,0,0.8,0,1.2c0,0.4,0,0.8,0,1.2c0,0.2,0,0.5,0,0.7s0,0.4,0,0.7c-0.1,0-0.2,0-0.3,0c-0.1,0-0.2,0-0.3,0c0,0,0-0.1,0-0.2
	c0,0,0-0.1,0-0.2V6.2h0c-0.1,0.3-0.3,0.4-0.5,0.6c-0.2,0.1-0.5,0.2-0.7,0.2c-0.4,0-0.7-0.1-1-0.3C257.3,6.4,257.1,6,257.2,5.6
	L257.2,5.6z"/>
<path class="st0" d="M263.3,3.6c-0.1,0-0.2,0-0.2,0c-0.1,0-0.2,0-0.3,0.1c-0.1,0.1-0.2,0.1-0.3,0.2c-0.1,0.1-0.1,0.2-0.2,0.3
	c0,0.1-0.1,0.3-0.1,0.4v0.9c0,0.4,0,0.6,0,0.8s0,0.3,0,0.5c-0.1,0-0.2,0-0.3,0c-0.1,0-0.2,0-0.3,0c0-0.2,0-0.4,0-0.7s0-0.7,0-1.1
	V4.7c0-0.2,0-0.5,0-0.7s0-0.6,0-0.9c0.1,0,0.1,0,0.2,0c0,0,0.1,0,0.2,0c0,0,0.1,0,0.1,0c0.1,0,0.1,0,0.2,0c0,0.2,0,0.3,0,0.5
	c0,0.1,0,0.2,0,0.3h0c0.3-0.6,0.7-0.9,1.1-0.9c0.1,0,0.1,0,0.1,0c0,0,0.1,0,0.1,0c0,0.1,0,0.2,0,0.3c0,0.1,0,0.3,0,0.4l-0.1,0
	C263.4,3.7,263.4,3.6,263.3,3.6L263.3,3.6z"/>
<path class="st0" d="M264.3,3.4c0.2-0.2,0.5-0.3,0.7-0.4c0.2-0.1,0.4-0.1,0.6-0.1c0.2,0,0.4,0,0.5,0.1c0.2,0.1,0.3,0.1,0.4,0.2
	c0.1,0.1,0.2,0.2,0.3,0.4c0.1,0.1,0.1,0.3,0.1,0.5c0,0.3,0,0.6,0,0.9c0,0.3,0,0.6,0,1c0,0.1,0,0.1,0,0.2c0,0.1,0,0.1,0,0.2
	c0,0.1,0.1,0.1,0.1,0.1c0,0,0.1,0.1,0.2,0.1c0,0,0.1,0,0.1,0s0.1,0,0.1,0v0.2c-0.1,0-0.1,0.1-0.2,0.1c-0.1,0-0.2,0-0.3,0
	c-0.2,0-0.3,0-0.4-0.1c-0.1-0.1-0.1-0.2-0.2-0.3c-0.2,0.2-0.4,0.3-0.6,0.4c-0.2,0.1-0.4,0.1-0.7,0.1c-0.1,0-0.3,0-0.4-0.1
	s-0.2-0.1-0.3-0.2c-0.1-0.1-0.2-0.2-0.2-0.3s-0.1-0.3-0.1-0.4c0-0.3,0.1-0.6,0.3-0.7c0.2-0.2,0.5-0.3,0.8-0.3c0.3,0,0.5-0.1,0.7-0.1
	c0.2,0,0.3-0.1,0.4-0.1s0.1-0.1,0.1-0.1c0,0,0-0.1,0-0.2c0-0.1,0-0.3-0.1-0.4c0-0.1-0.1-0.2-0.1-0.3c-0.1-0.1-0.2-0.2-0.3-0.2
	c-0.1-0.1-0.2-0.1-0.4-0.1c-0.2,0-0.4,0.1-0.6,0.1c-0.2,0.1-0.3,0.2-0.4,0.4h-0.1L264.3,3.4L264.3,3.4z M266.2,4.8
	c-0.1,0-0.2,0.1-0.3,0.1s-0.2,0-0.4,0.1c-0.1,0-0.2,0.1-0.4,0.1s-0.2,0.1-0.3,0.2c-0.1,0.1-0.2,0.1-0.2,0.2
	c-0.1,0.1-0.1,0.2-0.1,0.4c0,0.2,0.1,0.4,0.2,0.6c0.1,0.1,0.3,0.2,0.5,0.2c0.2,0,0.4-0.1,0.6-0.2s0.3-0.2,0.4-0.4L266.2,4.8
	L266.2,4.8z"/>
<path class="st0" d="M268.4,2.5c0-0.2,0-0.4,0-0.6c0-0.2,0-0.4,0-0.6c0-0.2,0-0.4,0-0.5c0.1,0,0.3,0,0.4,0c0.1,0,0.2,0,0.4,0
	c0,0.1,0,0.3,0,0.5c0,0.2,0,0.4,0,0.6c0,0.2,0,0.4,0,0.6c0,0.2,0,0.4,0,0.6v1.4c0,0.2,0,0.4,0,0.6s0,0.4,0,0.6c0,0.2,0,0.4,0,0.6
	c0,0.2,0,0.3,0,0.5c-0.1,0-0.2,0-0.4,0s-0.2,0-0.4,0c0-0.1,0-0.3,0-0.5c0-0.2,0-0.4,0-0.6c0-0.2,0-0.4,0-0.6c0-0.2,0-0.4,0-0.6V3.1
	C268.4,2.9,268.4,2.7,268.4,2.5z"/>
<path class="st0" d="M142.8,17.7c0-0.2,0-0.4,0-0.6c0-0.2,0-0.4,0-0.6c0-0.2,0-0.4,0-0.5c0.2,0,0.3,0,0.4,0c0.1,0,0.2,0,0.4,0
	c0,0.1,0,0.3,0,0.5c0,0.2,0,0.4,0,0.6c0,0.2,0,0.4,0,0.6c0,0.2,0,0.4,0,0.6v1.5c0,0.2,0,0.4,0,0.6c0,0.2,0,0.4,0,0.6
	c0,0.2,0,0.4,0,0.6c0,0.2,0,0.3,0,0.5c-0.1,0-0.2,0-0.4,0c-0.1,0-0.2,0-0.4,0c0-0.1,0-0.3,0-0.5c0-0.2,0-0.4,0-0.6
	c0-0.2,0-0.4,0-0.6c0-0.2,0-0.4,0-0.6v-1.5C142.8,18.1,142.8,17.9,142.8,17.7z"/>
<path class="st0" d="M144.9,18.6c0.2-0.2,0.5-0.3,0.7-0.4c0.2-0.1,0.4-0.1,0.6-0.1c0.2,0,0.4,0,0.5,0.1c0.2,0.1,0.3,0.1,0.4,0.2
	s0.2,0.2,0.3,0.4c0.1,0.1,0.1,0.3,0.1,0.5c0,0.3,0,0.6,0,0.9c0,0.3,0,0.6,0,1c0,0.1,0,0.1,0,0.2s0,0.1,0,0.2c0,0.1,0.1,0.1,0.1,0.1
	c0,0,0.1,0.1,0.2,0.1c0,0,0.1,0,0.1,0s0.1,0,0.1,0v0.2c-0.1,0-0.1,0.1-0.2,0.1c-0.1,0-0.2,0-0.3,0c-0.2,0-0.3,0-0.4-0.1
	s-0.1-0.2-0.2-0.3c-0.2,0.2-0.4,0.3-0.6,0.4s-0.4,0.1-0.7,0.1c-0.1,0-0.3,0-0.4-0.1c-0.1,0-0.2-0.1-0.3-0.2
	c-0.1-0.1-0.2-0.2-0.2-0.3s-0.1-0.3-0.1-0.4c0-0.3,0.1-0.6,0.3-0.7c0.2-0.2,0.5-0.3,0.8-0.4c0.3,0,0.5-0.1,0.7-0.1
	c0.2,0,0.3-0.1,0.4-0.1c0.1,0,0.1-0.1,0.1-0.1c0,0,0-0.1,0-0.2c0-0.1,0-0.3-0.1-0.4c0-0.1-0.1-0.2-0.2-0.3c-0.1-0.1-0.2-0.2-0.3-0.2
	c-0.1-0.1-0.2-0.1-0.4-0.1c-0.2,0-0.4,0-0.6,0.1c-0.2,0.1-0.3,0.2-0.4,0.4h-0.1L144.9,18.6L144.9,18.6z M146.9,20
	c-0.1,0-0.2,0.1-0.3,0.1c-0.1,0-0.2,0-0.4,0.1c-0.1,0-0.2,0.1-0.4,0.1c-0.1,0-0.2,0.1-0.3,0.2c-0.1,0.1-0.2,0.1-0.2,0.2
	c-0.1,0.1-0.1,0.2-0.1,0.4c0,0.2,0.1,0.4,0.2,0.6c0.1,0.1,0.3,0.2,0.5,0.2c0.2,0,0.4-0.1,0.6-0.2s0.3-0.2,0.4-0.4L146.9,20L146.9,20
	z"/>
<path class="st0" d="M151.2,18.9c-0.1-0.2-0.4-0.3-0.6-0.3c-0.4,0-0.6,0.1-0.8,0.3s-0.3,0.5-0.3,1v0.7c0,0.2,0,0.5,0,0.8
	c0,0.3,0,0.5,0.1,0.7c-0.1,0-0.2,0-0.4,0c-0.1,0-0.2,0-0.4,0c0-0.2,0-0.4,0.1-0.7c0-0.3,0-0.5,0-0.8v-0.8c0-0.2,0-0.5,0-0.8
	c0-0.3,0-0.5-0.1-0.7c0.1,0,0.3,0,0.4,0c0,0,0.1,0,0.1,0c0.1,0,0.1,0,0.2,0c0,0.2,0,0.4,0,0.6h0c0.2-0.2,0.3-0.4,0.5-0.5
	c0.2-0.1,0.5-0.2,0.7-0.2c0.2,0,0.3,0,0.4,0.1c0.2,0,0.3,0.1,0.4,0.2c0.1,0.1,0.2,0.2,0.3,0.4c0.1,0.2,0.1,0.4,0.1,0.7
	c0,0.2,0,0.5,0,0.7c0,0.2,0,0.5,0,0.8v0.5c0,0.1,0,0.2,0,0.2s0,0.2,0,0.2c-0.1,0-0.2,0-0.3,0s-0.2,0-0.3,0c0-0.3,0-0.6,0-0.9
	c0-0.3,0-0.6,0-0.9v-0.5C151.4,19.4,151.4,19.1,151.2,18.9L151.2,18.9z"/>
<path class="st0" d="M156,21.3c0,0.1-0.1,0.2-0.2,0.3c-0.1,0.1-0.2,0.2-0.3,0.3s-0.2,0.1-0.4,0.2c-0.2,0-0.3,0.1-0.5,0.1
	s-0.4,0-0.6-0.1c-0.2-0.1-0.4-0.2-0.5-0.3c-0.2-0.2-0.3-0.4-0.4-0.6c-0.1-0.2-0.1-0.5-0.1-0.9s0.1-0.6,0.2-0.9
	c0.1-0.2,0.2-0.5,0.4-0.6c0.2-0.2,0.4-0.3,0.6-0.4c0.2-0.1,0.4-0.1,0.6-0.1c0.6,0,1,0.3,1.2,0.8h0v-0.8c0-0.2,0-0.4,0-0.6
	c0-0.2,0-0.4,0-0.6c0-0.2,0-0.4,0-0.5s0-0.3,0-0.4c0.1,0,0.1,0,0.2,0c0.1,0,0.1,0,0.2,0s0.1,0,0.2,0c0.1,0,0.1,0,0.2,0
	c0,0.2,0,0.4,0,0.7c0,0.3,0,0.7,0,1.1c0,0.4,0,0.8,0,1.2c0,0.4,0,0.8,0,1.1c0,0.4,0,0.7,0,1c0,0.3,0,0.6,0,0.9c-0.1,0-0.2,0-0.3,0
	s-0.2,0-0.3,0L156,21.3L156,21.3L156,21.3z M153.7,20.2c0,0.3,0,0.6,0.1,0.8c0.1,0.2,0.1,0.4,0.3,0.5c0.1,0.1,0.2,0.2,0.4,0.3
	c0.1,0,0.3,0.1,0.4,0.1c0.2,0,0.4,0,0.5-0.2c0.2-0.1,0.3-0.2,0.4-0.4c0.1-0.2,0.2-0.4,0.2-0.6c0.1-0.2,0.1-0.4,0.1-0.6
	c0-0.5-0.1-0.9-0.3-1.2c-0.2-0.3-0.5-0.4-0.9-0.4c-0.2,0-0.4,0-0.5,0.1s-0.3,0.2-0.4,0.4c-0.1,0.2-0.2,0.3-0.2,0.6
	C153.8,19.7,153.7,20,153.7,20.2L153.7,20.2z"/>
<path class="st0" d="M157.8,21.5c0.1,0.1,0.1,0.1,0.2,0.2c0.1,0.1,0.2,0.1,0.3,0.1c0.1,0,0.2,0.1,0.3,0.1c0.1,0,0.2,0,0.3-0.1
	c0.1,0,0.2-0.1,0.2-0.1c0.1-0.1,0.1-0.1,0.2-0.2c0-0.1,0.1-0.2,0.1-0.3c0-0.2-0.1-0.3-0.1-0.4s-0.2-0.2-0.4-0.2
	c-0.1-0.1-0.3-0.1-0.5-0.1c-0.2,0-0.3-0.1-0.5-0.2s-0.2-0.2-0.3-0.3c-0.1-0.1-0.1-0.3-0.1-0.5c0-0.2,0-0.3,0.1-0.5
	c0.1-0.1,0.1-0.3,0.3-0.4c0.1-0.1,0.2-0.2,0.4-0.2c0.2-0.1,0.4-0.1,0.6-0.1c0.2,0,0.4,0,0.5,0.1c0.1,0,0.3,0.1,0.4,0.1
	c0,0.1-0.1,0.2-0.1,0.3c0,0.1-0.1,0.2-0.1,0.3h-0.1c0-0.1-0.1-0.2-0.2-0.3c-0.1-0.1-0.3-0.1-0.5-0.1c-0.1,0-0.2,0-0.2,0
	c-0.1,0-0.1,0.1-0.2,0.1c-0.1,0-0.1,0.1-0.2,0.2c0,0.1-0.1,0.2-0.1,0.3c0,0.2,0.1,0.3,0.1,0.4c0.1,0.1,0.2,0.2,0.4,0.2
	c0.1,0,0.3,0.1,0.5,0.1c0.2,0,0.3,0.1,0.5,0.2s0.2,0.2,0.4,0.3c0.1,0.1,0.1,0.3,0.1,0.5c0,0.1,0,0.3-0.1,0.5
	c-0.1,0.1-0.2,0.3-0.3,0.4c-0.1,0.1-0.3,0.2-0.5,0.3c-0.2,0.1-0.4,0.1-0.6,0.1c-0.2,0-0.4,0-0.6-0.1c-0.2,0-0.3-0.1-0.4-0.2
	c0-0.1,0.1-0.2,0.1-0.3c0-0.1,0.1-0.2,0.1-0.3h0.1C157.7,21.4,157.8,21.4,157.8,21.5L157.8,21.5z"/>
<path class="st0" d="M160.6,20.2c0-0.4,0.1-0.6,0.2-0.9s0.3-0.5,0.5-0.6c0.2-0.2,0.4-0.3,0.7-0.4c0.2-0.1,0.5-0.1,0.8-0.1
	c0.3,0,0.6,0,0.8,0.1c0.2,0.1,0.4,0.1,0.5,0.2c0,0.1-0.1,0.2-0.1,0.2s-0.1,0.2-0.1,0.3h-0.1c0-0.1-0.1-0.1-0.2-0.2
	c-0.1-0.1-0.1-0.1-0.2-0.2c-0.1-0.1-0.2-0.1-0.3-0.1c-0.1,0-0.2-0.1-0.3-0.1c-0.2,0-0.4,0-0.6,0.1s-0.3,0.2-0.4,0.4
	c-0.1,0.1-0.2,0.3-0.2,0.5c-0.1,0.2-0.1,0.4-0.1,0.7c0,0.6,0.1,1,0.4,1.2c0.2,0.3,0.6,0.4,1,0.4c0.1,0,0.2,0,0.3,0
	c0.1,0,0.2-0.1,0.3-0.1c0.1,0,0.2-0.1,0.3-0.2s0.2-0.1,0.2-0.2l0,0c0,0.1,0,0.3,0,0.4c-0.2,0.1-0.4,0.2-0.6,0.3
	c-0.2,0.1-0.5,0.1-0.7,0.1c-0.2,0-0.5,0-0.7-0.1c-0.2-0.1-0.4-0.2-0.6-0.3s-0.3-0.4-0.5-0.6C160.6,20.8,160.6,20.5,160.6,20.2
	L160.6,20.2z"/>
<path class="st0" d="M164.9,18.6c0.2-0.2,0.5-0.3,0.7-0.4c0.2-0.1,0.4-0.1,0.6-0.1c0.2,0,0.4,0,0.5,0.1c0.2,0.1,0.3,0.1,0.4,0.2
	s0.2,0.2,0.3,0.4c0.1,0.1,0.1,0.3,0.1,0.5c0,0.3,0,0.6,0,0.9c0,0.3,0,0.6,0,1c0,0.1,0,0.1,0,0.2s0,0.1,0,0.2c0,0.1,0.1,0.1,0.1,0.1
	c0,0,0.1,0.1,0.2,0.1c0,0,0.1,0,0.1,0s0.1,0,0.1,0v0.2c-0.1,0-0.1,0.1-0.2,0.1c-0.1,0-0.2,0-0.3,0c-0.2,0-0.3,0-0.4-0.1
	s-0.1-0.2-0.2-0.3c-0.2,0.2-0.4,0.3-0.6,0.4c-0.2,0.1-0.4,0.1-0.7,0.1c-0.1,0-0.3,0-0.4-0.1c-0.1,0-0.2-0.1-0.3-0.2
	c-0.1-0.1-0.2-0.2-0.2-0.3s-0.1-0.3-0.1-0.4c0-0.3,0.1-0.6,0.3-0.7c0.2-0.2,0.5-0.3,0.8-0.4c0.3,0,0.5-0.1,0.7-0.1
	c0.2,0,0.3-0.1,0.4-0.1c0.1,0,0.1-0.1,0.1-0.1c0,0,0-0.1,0-0.2c0-0.1,0-0.3-0.1-0.4c0-0.1-0.1-0.2-0.2-0.3c-0.1-0.1-0.2-0.2-0.3-0.2
	c-0.1-0.1-0.2-0.1-0.4-0.1c-0.2,0-0.4,0-0.6,0.1c-0.2,0.1-0.3,0.2-0.4,0.4h-0.1L164.9,18.6L164.9,18.6z M166.9,20
	c-0.1,0-0.2,0.1-0.3,0.1c-0.1,0-0.2,0-0.4,0.1c-0.1,0-0.2,0.1-0.4,0.1c-0.1,0-0.2,0.1-0.3,0.2c-0.1,0.1-0.2,0.1-0.2,0.2
	c-0.1,0.1-0.1,0.2-0.1,0.4c0,0.2,0.1,0.4,0.2,0.6c0.1,0.1,0.3,0.2,0.5,0.2c0.2,0,0.4-0.1,0.6-0.2s0.3-0.2,0.4-0.4L166.9,20L166.9,20
	z"/>
<path class="st0" d="M168.8,20.6c0-0.2,0-0.4,0-0.6c0-0.2,0-0.4,0-0.6c0-0.2,0-0.4,0-0.6c0-0.2,0-0.4,0-0.5c0.1,0,0.3,0,0.4,0
	c0.1,0,0.2,0,0.4,0c0,0.1,0,0.3-0.1,0.4s0,0.3,0,0.4h0c0-0.1,0.1-0.2,0.2-0.3c0.1-0.1,0.2-0.2,0.3-0.3s0.2-0.2,0.4-0.2
	c0.1-0.1,0.3-0.1,0.5-0.1s0.4,0,0.6,0.1c0.2,0.1,0.4,0.2,0.5,0.4s0.3,0.4,0.4,0.6c0.1,0.2,0.1,0.5,0.1,0.9s-0.1,0.6-0.2,0.9
	c-0.1,0.2-0.2,0.5-0.4,0.6c-0.2,0.2-0.4,0.3-0.6,0.4c-0.2,0.1-0.4,0.1-0.6,0.1c-0.6,0-1-0.2-1.3-0.8h0v0.5c0,0.2,0,0.4,0,0.6
	c0,0.2,0,0.4,0,0.6c0,0.2,0,0.4,0,0.6c0,0.2,0,0.4,0,0.5c-0.1,0-0.3,0-0.4,0c-0.1,0-0.2,0-0.4,0c0-0.1,0-0.3,0-0.5
	c0-0.2,0-0.4,0-0.6c0-0.2,0-0.4,0-0.6c0-0.2,0-0.4,0-0.6L168.8,20.6L168.8,20.6z M171.7,20.1c0-0.3,0-0.6-0.1-0.8
	c-0.1-0.2-0.1-0.4-0.3-0.5c-0.1-0.1-0.2-0.2-0.4-0.3c-0.1-0.1-0.3-0.1-0.4-0.1c-0.2,0-0.4,0-0.6,0.1c-0.1,0.1-0.3,0.2-0.4,0.4
	c-0.1,0.1-0.2,0.3-0.2,0.5c0,0.2-0.1,0.4-0.1,0.6c0,1.1,0.4,1.7,1.2,1.7c0.2,0,0.4,0,0.5-0.1s0.3-0.2,0.4-0.4
	c0.1-0.2,0.2-0.3,0.2-0.5C171.6,20.6,171.7,20.4,171.7,20.1z"/>
<path class="st0" d="M173,20.3c0-0.7,0.2-1.2,0.5-1.5c0.3-0.4,0.8-0.6,1.4-0.6c0.3,0,0.5,0,0.7,0.1s0.4,0.2,0.5,0.4
	c0.1,0.1,0.2,0.3,0.3,0.5c0.1,0.2,0.1,0.4,0.1,0.6c0,0.1,0,0.1,0,0.2c0,0.1,0,0.1,0,0.2c-0.3,0-0.6,0-0.9,0c-0.3,0-0.6,0-0.9,0
	c-0.2,0-0.4,0-0.5,0s-0.3,0-0.5,0c0,0,0,0.1,0,0.1v0.1c0,0.2,0,0.4,0.1,0.6c0.1,0.2,0.1,0.3,0.3,0.5c0.1,0.1,0.3,0.2,0.4,0.3
	s0.4,0.1,0.6,0.1c0.1,0,0.2,0,0.3,0c0.1,0,0.2-0.1,0.3-0.1c0.1-0.1,0.2-0.1,0.3-0.2c0.1-0.1,0.2-0.1,0.2-0.2l0,0l-0.1,0.4
	c-0.2,0.1-0.4,0.2-0.6,0.3c-0.2,0.1-0.5,0.1-0.7,0.1c-0.3,0-0.6,0-0.8-0.1c-0.2-0.1-0.4-0.2-0.6-0.4c-0.2-0.2-0.3-0.4-0.4-0.6
	C173,20.8,173,20.5,173,20.3L173,20.3z M174.8,18.4c-0.2,0-0.4,0-0.5,0.1c-0.1,0.1-0.2,0.2-0.3,0.3s-0.1,0.3-0.2,0.4
	s-0.1,0.3-0.1,0.5c0.2,0,0.3,0,0.5,0c0.2,0,0.4,0,0.5,0s0.4,0,0.5,0c0.2,0,0.4,0,0.5,0c0-0.1,0-0.3,0-0.5c0-0.2-0.1-0.3-0.1-0.4
	c-0.1-0.1-0.2-0.3-0.3-0.3C175.2,18.5,175,18.4,174.8,18.4L174.8,18.4z"/>
<path class="st0" d="M179.6,18.6c0.2-0.2,0.5-0.3,0.7-0.4c0.2-0.1,0.4-0.1,0.6-0.1c0.2,0,0.4,0,0.5,0.1c0.2,0.1,0.3,0.1,0.4,0.2
	c0.1,0.1,0.2,0.2,0.3,0.4c0.1,0.1,0.1,0.3,0.1,0.5c0,0.3,0,0.6,0,0.9c0,0.3,0,0.6,0,1c0,0.1,0,0.1,0,0.2s0,0.1,0,0.2
	c0,0.1,0.1,0.1,0.1,0.1c0,0,0.1,0.1,0.2,0.1c0,0,0.1,0,0.1,0s0.1,0,0.1,0v0.2c-0.1,0-0.1,0.1-0.2,0.1c-0.1,0-0.2,0-0.3,0
	c-0.2,0-0.3,0-0.4-0.1c-0.1-0.1-0.1-0.2-0.2-0.3c-0.2,0.2-0.4,0.3-0.6,0.4c-0.2,0.1-0.4,0.1-0.7,0.1c-0.1,0-0.3,0-0.4-0.1
	c-0.1,0-0.2-0.1-0.3-0.2c-0.1-0.1-0.2-0.2-0.2-0.3c-0.1-0.1-0.1-0.3-0.1-0.4c0-0.3,0.1-0.6,0.3-0.7c0.2-0.2,0.5-0.3,0.8-0.4
	c0.3,0,0.5-0.1,0.7-0.1c0.2,0,0.3-0.1,0.4-0.1c0.1,0,0.1-0.1,0.1-0.1c0,0,0-0.1,0-0.2c0-0.1,0-0.3-0.1-0.4c0-0.1-0.1-0.2-0.1-0.3
	s-0.2-0.2-0.3-0.2c-0.1-0.1-0.2-0.1-0.4-0.1c-0.2,0-0.4,0-0.6,0.1s-0.3,0.2-0.4,0.4h-0.1L179.6,18.6L179.6,18.6z M181.6,20
	c-0.1,0-0.2,0.1-0.3,0.1c-0.1,0-0.2,0-0.4,0.1c-0.1,0-0.2,0.1-0.4,0.1c-0.1,0-0.2,0.1-0.3,0.2c-0.1,0.1-0.2,0.1-0.2,0.2
	c-0.1,0.1-0.1,0.2-0.1,0.4c0,0.2,0.1,0.4,0.2,0.6c0.1,0.1,0.3,0.2,0.5,0.2c0.2,0,0.4-0.1,0.6-0.2c0.2-0.1,0.3-0.2,0.4-0.4L181.6,20
	L181.6,20z"/>
<path class="st0" d="M185.9,18.9c-0.1-0.2-0.4-0.3-0.6-0.3c-0.4,0-0.6,0.1-0.8,0.3s-0.3,0.5-0.3,1v0.7c0,0.2,0,0.5,0,0.8
	c0,0.3,0,0.5,0.1,0.7c-0.1,0-0.2,0-0.4,0c-0.1,0-0.2,0-0.4,0c0-0.2,0-0.4,0.1-0.7c0-0.3,0-0.5,0-0.8v-0.8c0-0.2,0-0.5,0-0.8
	c0-0.3,0-0.5-0.1-0.7c0.1,0,0.3,0,0.4,0c0,0,0.1,0,0.1,0c0.1,0,0.1,0,0.2,0c0,0.2,0,0.4,0,0.6h0c0.2-0.2,0.3-0.4,0.5-0.5
	c0.2-0.1,0.5-0.2,0.7-0.2c0.2,0,0.3,0,0.4,0.1c0.2,0,0.3,0.1,0.4,0.2c0.1,0.1,0.2,0.2,0.3,0.4c0.1,0.2,0.1,0.4,0.1,0.7
	c0,0.2,0,0.5,0,0.7c0,0.2,0,0.5,0,0.8v0.5c0,0.1,0,0.2,0,0.2s0,0.2,0,0.2c-0.1,0-0.2,0-0.3,0s-0.2,0-0.3,0c0-0.3,0-0.6,0-0.9
	c0-0.3,0-0.6,0-0.9v-0.5C186.1,19.4,186,19.1,185.9,18.9L185.9,18.9z"/>
<path class="st0" d="M190.7,21.3c0,0.1-0.1,0.2-0.2,0.3c-0.1,0.1-0.2,0.2-0.3,0.3S190,22,189.8,22c-0.2,0-0.3,0.1-0.5,0.1
	s-0.4,0-0.6-0.1c-0.2-0.1-0.4-0.2-0.5-0.3c-0.2-0.2-0.3-0.4-0.4-0.6c-0.1-0.2-0.1-0.5-0.1-0.9s0.1-0.6,0.2-0.9
	c0.1-0.2,0.2-0.5,0.4-0.6c0.2-0.2,0.4-0.3,0.6-0.4c0.2-0.1,0.4-0.1,0.6-0.1c0.6,0,1,0.3,1.2,0.8h0v-0.8c0-0.2,0-0.4,0-0.6
	c0-0.2,0-0.4,0-0.6c0-0.2,0-0.4,0-0.5s0-0.3,0-0.4c0.1,0,0.1,0,0.2,0c0.1,0,0.1,0,0.2,0s0.1,0,0.2,0c0.1,0,0.1,0,0.2,0
	c0,0.2,0,0.4,0,0.7c0,0.3,0,0.7,0,1.1c0,0.4,0,0.8,0,1.2c0,0.4,0,0.8,0,1.1c0,0.4,0,0.7,0,1c0,0.3,0,0.6,0,0.9c-0.1,0-0.2,0-0.3,0
	c-0.1,0-0.2,0-0.3,0L190.7,21.3L190.7,21.3L190.7,21.3z M188.4,20.2c0,0.3,0,0.6,0.1,0.8c0.1,0.2,0.2,0.4,0.3,0.5
	c0.1,0.1,0.2,0.2,0.4,0.3c0.1,0,0.3,0.1,0.4,0.1c0.2,0,0.4,0,0.5-0.2c0.2-0.1,0.3-0.2,0.4-0.4c0.1-0.2,0.2-0.4,0.2-0.6
	c0-0.2,0.1-0.4,0.1-0.6c0-0.5-0.1-0.9-0.3-1.2c-0.2-0.3-0.5-0.4-0.9-0.4c-0.2,0-0.4,0-0.5,0.1s-0.3,0.2-0.4,0.4
	c-0.1,0.2-0.2,0.3-0.2,0.6C188.4,19.7,188.4,20,188.4,20.2L188.4,20.2z"/>
<path class="st0" d="M194.7,18.6c0.2-0.2,0.5-0.3,0.7-0.4c0.2-0.1,0.4-0.1,0.6-0.1c0.2,0,0.4,0,0.5,0.1c0.2,0.1,0.3,0.1,0.4,0.2
	c0.1,0.1,0.2,0.2,0.3,0.4c0.1,0.1,0.1,0.3,0.1,0.5c0,0.3,0,0.6,0,0.9c0,0.3,0,0.6,0,1c0,0.1,0,0.1,0,0.2s0,0.1,0,0.2
	c0,0.1,0,0.1,0.1,0.1c0,0,0.1,0.1,0.2,0.1c0,0,0.1,0,0.1,0s0.1,0,0.1,0v0.2c-0.1,0-0.1,0.1-0.2,0.1c-0.1,0-0.2,0-0.3,0
	c-0.2,0-0.3,0-0.4-0.1c-0.1-0.1-0.1-0.2-0.2-0.3c-0.2,0.2-0.4,0.3-0.6,0.4s-0.4,0.1-0.7,0.1c-0.1,0-0.3,0-0.4-0.1
	c-0.1,0-0.2-0.1-0.3-0.2c-0.1-0.1-0.2-0.2-0.2-0.3s-0.1-0.3-0.1-0.4c0-0.3,0.1-0.6,0.3-0.7c0.2-0.2,0.5-0.3,0.8-0.4
	c0.3,0,0.5-0.1,0.7-0.1c0.2,0,0.3-0.1,0.4-0.1c0.1,0,0.1-0.1,0.1-0.1c0,0,0-0.1,0-0.2c0-0.1,0-0.3-0.1-0.4c0-0.1-0.1-0.2-0.1-0.3
	s-0.2-0.2-0.3-0.2c-0.1-0.1-0.2-0.1-0.4-0.1c-0.2,0-0.4,0-0.6,0.1c-0.2,0.1-0.3,0.2-0.4,0.4h-0.1L194.7,18.6L194.7,18.6z M196.7,20
	c-0.1,0-0.2,0.1-0.3,0.1c-0.1,0-0.2,0-0.4,0.1c-0.1,0-0.2,0.1-0.4,0.1c-0.1,0-0.2,0.1-0.3,0.2c-0.1,0.1-0.2,0.1-0.2,0.2
	c-0.1,0.1-0.1,0.2-0.1,0.4c0,0.2,0.1,0.4,0.2,0.6c0.1,0.1,0.3,0.2,0.5,0.2c0.2,0,0.4-0.1,0.6-0.2c0.2-0.1,0.3-0.2,0.4-0.4L196.7,20
	L196.7,20z"/>
<path class="st0" d="M200.3,18.8c-0.1,0-0.2,0-0.2,0c-0.1,0-0.2,0-0.3,0.1c-0.1,0.1-0.2,0.1-0.3,0.2c-0.1,0.1-0.1,0.2-0.2,0.3
	c0,0.1-0.1,0.3-0.1,0.4v0.9c0,0.4,0,0.6,0,0.8c0,0.2,0,0.3,0,0.5c-0.1,0-0.2,0-0.3,0c-0.1,0-0.2,0-0.3,0c0-0.2,0-0.4,0-0.7
	s0-0.7,0-1.1v-0.3c0-0.2,0-0.5,0-0.7c0-0.3,0-0.6,0-0.9c0.1,0,0.1,0,0.2,0c0.1,0,0.1,0,0.2,0c0,0,0.1,0,0.1,0c0.1,0,0.1,0,0.2,0
	c0,0.2,0,0.3,0,0.5c0,0.1,0,0.2,0,0.3h0c0.3-0.6,0.7-0.9,1.1-0.9c0.1,0,0.1,0,0.1,0c0,0,0.1,0,0.1,0c0,0.1,0,0.2-0.1,0.3
	c0,0.1,0,0.2,0,0.4l-0.1,0C200.5,18.9,200.4,18.8,200.3,18.8L200.3,18.8z"/>
<path class="st0" d="M202,17.2c0,0.2,0,0.4,0,0.6c0,0.2,0,0.4,0,0.6c0.1,0,0.2,0,0.3,0s0.3,0,0.5,0c0,0,0,0.1,0,0.1v0.2
	c0,0,0,0.1,0,0.1c-0.1,0-0.1,0-0.2,0c-0.1,0-0.2,0-0.2,0H202c0,0,0,0.1,0,0.3c0,0.1,0,0.3,0,0.5c0,0.2,0,0.4,0,0.6
	c0,0.2,0,0.4,0,0.6c0,0.1,0,0.3,0,0.4c0,0.1,0,0.3,0.1,0.4c0,0.1,0.1,0.2,0.2,0.3c0.1,0.1,0.2,0.1,0.4,0.1c0,0,0.1,0,0.2,0
	c0.1,0,0.1,0,0.2,0V22c-0.1,0-0.2,0-0.3,0.1c-0.1,0-0.2,0-0.3,0c-0.3,0-0.6-0.1-0.7-0.2c-0.2-0.2-0.2-0.4-0.2-0.7c0-0.1,0-0.3,0-0.5
	s0-0.3,0-0.5c0-0.2,0-0.4,0-0.7c0-0.2,0-0.5,0-0.8h-0.3c0,0-0.1,0-0.1,0s-0.1,0-0.2,0c0,0,0-0.1,0-0.1c0,0,0-0.1,0-0.1
	c0,0,0,0,0-0.1s0-0.1,0-0.1c0.2,0,0.4,0,0.5,0c0-0.1,0-0.2,0-0.4c0-0.2,0-0.3,0-0.5L202,17.2L202,17.2L202,17.2z"/>
<path class="st0" d="M203.6,16.8c0-0.1,0-0.2,0.1-0.3c0.1-0.1,0.2-0.1,0.3-0.1s0.2,0,0.3,0.1c0.1,0.1,0.1,0.2,0.1,0.3s0,0.2-0.1,0.3
	c-0.1,0.1-0.2,0.1-0.3,0.1s-0.2,0-0.3-0.1C203.7,17.1,203.6,17,203.6,16.8z M203.7,19.7c0-0.2,0-0.5,0-0.8c0-0.3,0-0.5-0.1-0.7
	c0.2,0,0.3,0,0.4,0s0.2,0,0.4,0c0,0.2,0,0.5-0.1,0.7c0,0.3,0,0.5,0,0.8v0.8c0,0.2,0,0.5,0,0.8c0,0.3,0,0.5,0.1,0.7
	c-0.1,0-0.2,0-0.4,0s-0.2,0-0.4,0c0-0.2,0-0.5,0.1-0.7c0-0.3,0-0.5,0-0.8V19.7z"/>
<path class="st0" d="M205.8,21.5c0.1,0.1,0.1,0.1,0.2,0.2c0.1,0.1,0.2,0.1,0.3,0.1c0.1,0,0.2,0.1,0.3,0.1c0.1,0,0.2,0,0.3-0.1
	c0.1,0,0.2-0.1,0.2-0.1c0.1-0.1,0.1-0.1,0.2-0.2c0-0.1,0.1-0.2,0.1-0.3c0-0.2-0.1-0.3-0.1-0.4c-0.1-0.1-0.2-0.2-0.3-0.2
	c-0.1-0.1-0.3-0.1-0.5-0.1c-0.2,0-0.3-0.1-0.5-0.2s-0.2-0.2-0.4-0.3c-0.1-0.1-0.1-0.3-0.1-0.5c0-0.2,0-0.3,0.1-0.5
	c0.1-0.1,0.1-0.3,0.3-0.4c0.1-0.1,0.2-0.2,0.4-0.2c0.2-0.1,0.4-0.1,0.6-0.1c0.2,0,0.4,0,0.5,0.1c0.1,0,0.3,0.1,0.4,0.1
	c0,0.1-0.1,0.2-0.1,0.3c0,0.1-0.1,0.2-0.1,0.3h-0.1c0-0.1-0.1-0.2-0.2-0.3s-0.3-0.1-0.5-0.1c-0.1,0-0.2,0-0.2,0
	c-0.1,0-0.1,0.1-0.2,0.1s-0.1,0.1-0.2,0.2c0,0.1-0.1,0.2-0.1,0.3c0,0.2,0.1,0.3,0.1,0.4c0.1,0.1,0.2,0.2,0.3,0.2
	c0.1,0,0.3,0.1,0.5,0.1c0.2,0,0.3,0.1,0.5,0.2c0.1,0.1,0.2,0.2,0.4,0.3c0.1,0.1,0.1,0.3,0.1,0.5c0,0.1,0,0.3-0.1,0.5
	c-0.1,0.1-0.2,0.3-0.3,0.4c-0.1,0.1-0.3,0.2-0.5,0.3c-0.2,0.1-0.4,0.1-0.6,0.1c-0.2,0-0.4,0-0.6-0.1c-0.2,0-0.3-0.1-0.4-0.2
	c0-0.1,0.1-0.2,0.1-0.3c0-0.1,0.1-0.2,0.1-0.3h0.1C205.7,21.4,205.8,21.4,205.8,21.5L205.8,21.5z"/>
<path class="st0" d="M209.6,17.2c0,0.2,0,0.4,0,0.6c0,0.2,0,0.4,0,0.6c0.1,0,0.2,0,0.3,0s0.3,0,0.5,0c0,0,0,0.1,0,0.1v0.2
	c0,0,0,0.1,0,0.1c-0.1,0-0.1,0-0.2,0c-0.1,0-0.1,0-0.2,0h-0.4c0,0,0,0.1,0,0.3c0,0.1,0,0.3,0,0.5c0,0.2,0,0.4,0,0.6
	c0,0.2,0,0.4,0,0.6c0,0.1,0,0.3,0,0.4c0,0.1,0,0.3,0.1,0.4c0,0.1,0.1,0.2,0.2,0.3s0.2,0.1,0.4,0.1c0,0,0.1,0,0.2,0
	c0.1,0,0.1,0,0.2,0V22c-0.1,0-0.2,0-0.3,0.1c-0.1,0-0.2,0-0.3,0c-0.3,0-0.6-0.1-0.7-0.2s-0.2-0.4-0.2-0.7c0-0.1,0-0.3,0-0.5
	s0-0.3,0-0.5c0-0.2,0-0.4,0-0.7c0-0.2,0-0.5,0-0.8h-0.3c0,0-0.1,0-0.1,0c0,0-0.1,0-0.1,0c0,0,0-0.1,0-0.1c0,0,0-0.1,0-0.1
	c0,0,0,0,0-0.1s0-0.1,0-0.1c0.2,0,0.4,0,0.5,0c0-0.1,0-0.2,0-0.4c0-0.2,0-0.3,0-0.5L209.6,17.2L209.6,17.2L209.6,17.2z"/>
<path class="st0" d="M211.2,16.8c0-0.1,0-0.2,0.1-0.3c0.1-0.1,0.2-0.1,0.3-0.1s0.2,0,0.3,0.1c0.1,0.1,0.1,0.2,0.1,0.3s0,0.2-0.1,0.3
	c-0.1,0.1-0.2,0.1-0.3,0.1s-0.2,0-0.3-0.1C211.2,17.1,211.2,17,211.2,16.8z M211.3,19.7c0-0.2,0-0.5,0-0.8c0-0.3,0-0.5,0-0.7
	c0.1,0,0.3,0,0.4,0c0.1,0,0.2,0,0.4,0c0,0.2,0,0.5-0.1,0.7c0,0.3,0,0.5,0,0.8v0.8c0,0.2,0,0.5,0,0.8c0,0.3,0,0.5,0.1,0.7
	c-0.1,0-0.2,0-0.4,0c-0.1,0-0.2,0-0.4,0c0-0.2,0-0.5,0-0.7c0-0.3,0-0.5,0-0.8V19.7z"/>
<path class="st0" d="M213,20.2c0-0.4,0.1-0.6,0.2-0.9s0.3-0.5,0.5-0.6s0.4-0.3,0.7-0.4c0.2-0.1,0.5-0.1,0.8-0.1c0.3,0,0.6,0,0.8,0.1
	c0.2,0.1,0.4,0.1,0.5,0.2c0,0.1-0.1,0.2-0.1,0.2c0,0.1-0.1,0.2-0.1,0.3h-0.1c0-0.1-0.1-0.1-0.2-0.2c-0.1-0.1-0.1-0.1-0.2-0.2
	c-0.1-0.1-0.2-0.1-0.3-0.1c-0.1,0-0.2-0.1-0.4-0.1c-0.2,0-0.4,0-0.6,0.1s-0.3,0.2-0.4,0.4s-0.2,0.3-0.2,0.5
	c-0.1,0.2-0.1,0.4-0.1,0.7c0,0.6,0.1,1,0.4,1.2c0.2,0.3,0.6,0.4,1,0.4c0.1,0,0.2,0,0.3,0c0.1,0,0.2-0.1,0.3-0.1
	c0.1,0,0.2-0.1,0.3-0.2s0.2-0.1,0.2-0.2l0,0c0,0.1,0,0.3,0,0.4c-0.2,0.1-0.4,0.2-0.6,0.3s-0.5,0.1-0.7,0.1c-0.2,0-0.5,0-0.7-0.1
	c-0.2-0.1-0.4-0.2-0.6-0.3s-0.3-0.4-0.4-0.6S213,20.5,213,20.2L213,20.2z"/>
<path class="st0" d="M219.2,20.3c0-0.7,0.2-1.2,0.5-1.5c0.3-0.4,0.8-0.6,1.4-0.6c0.3,0,0.5,0,0.7,0.1c0.2,0.1,0.4,0.2,0.5,0.4
	c0.1,0.1,0.2,0.3,0.3,0.5s0.1,0.4,0.1,0.6c0,0.1,0,0.1,0,0.2c0,0.1,0,0.1,0,0.2c-0.3,0-0.6,0-0.9,0c-0.3,0-0.6,0-0.9,0
	c-0.2,0-0.3,0-0.5,0c-0.2,0-0.4,0-0.5,0c0,0,0,0.1,0,0.1v0.1c0,0.2,0,0.4,0.1,0.6c0.1,0.2,0.1,0.3,0.3,0.5c0.1,0.1,0.3,0.2,0.4,0.3
	c0.2,0.1,0.4,0.1,0.6,0.1c0.1,0,0.2,0,0.3,0c0.1,0,0.2-0.1,0.3-0.1c0.1-0.1,0.2-0.1,0.3-0.2c0.1-0.1,0.2-0.1,0.2-0.2l0,0l-0.1,0.4
	c-0.2,0.1-0.4,0.2-0.6,0.3c-0.2,0.1-0.5,0.1-0.7,0.1c-0.3,0-0.5,0-0.8-0.1s-0.4-0.2-0.6-0.4c-0.2-0.2-0.3-0.4-0.4-0.6
	S219.2,20.5,219.2,20.3L219.2,20.3z M221.1,18.4c-0.2,0-0.4,0-0.5,0.1c-0.1,0.1-0.2,0.2-0.3,0.3s-0.1,0.3-0.2,0.4
	c-0.1,0.2-0.1,0.3-0.1,0.5c0.2,0,0.3,0,0.5,0c0.2,0,0.3,0,0.5,0c0.2,0,0.4,0,0.5,0c0.2,0,0.4,0,0.5,0c0-0.1,0-0.3,0-0.5
	c0-0.2-0.1-0.3-0.1-0.4s-0.2-0.3-0.3-0.3S221.3,18.4,221.1,18.4L221.1,18.4z"/>
<path class="st0" d="M225,19.7c0.2-0.3,0.4-0.5,0.6-0.8c0.2-0.2,0.4-0.5,0.5-0.8c0,0,0.1,0,0.1,0c0.1,0,0.1,0,0.1,0
	c0.1,0,0.1,0,0.3,0c-0.3,0.3-0.5,0.6-0.8,0.9c-0.2,0.3-0.5,0.6-0.7,0.9c0.2,0.4,0.5,0.7,0.8,1c0.3,0.3,0.5,0.7,0.8,1
	c-0.1,0-0.2,0-0.2,0h-0.4c-0.1,0-0.1,0-0.2,0c-0.2-0.3-0.4-0.5-0.5-0.8c-0.2-0.3-0.4-0.5-0.6-0.8c-0.2,0.3-0.4,0.5-0.6,0.8
	c-0.2,0.3-0.4,0.5-0.6,0.8c-0.1,0-0.2,0-0.3,0c-0.1,0-0.2,0-0.3,0c0.3-0.3,0.5-0.6,0.8-0.9c0.2-0.3,0.5-0.6,0.7-0.9
	c-0.2-0.3-0.5-0.7-0.7-1s-0.5-0.6-0.8-1c0.1,0,0.2,0,0.2,0s0.1,0,0.2,0s0.1,0,0.2,0c0.1,0,0.1,0,0.2,0c0.1,0.3,0.3,0.5,0.5,0.8
	C224.6,19.2,224.8,19.5,225,19.7L225,19.7z"/>
<path class="st0" d="M227.4,20.6c0-0.2,0-0.4,0-0.6c0-0.2,0-0.4,0-0.6c0-0.2,0-0.4,0-0.6c0-0.2,0-0.4,0-0.5c0.2,0,0.3,0,0.4,0
	s0.2,0,0.4,0c0,0.1,0,0.3-0.1,0.4c0,0.1,0,0.3,0,0.4h0c0-0.1,0.1-0.2,0.2-0.3s0.2-0.2,0.3-0.3c0.1-0.1,0.2-0.2,0.4-0.2
	c0.2-0.1,0.3-0.1,0.5-0.1s0.4,0,0.6,0.1c0.2,0.1,0.4,0.2,0.5,0.4c0.1,0.2,0.3,0.4,0.4,0.6c0.1,0.2,0.1,0.5,0.1,0.9s-0.1,0.6-0.2,0.9
	c-0.1,0.2-0.2,0.5-0.4,0.6c-0.2,0.2-0.4,0.3-0.6,0.4c-0.2,0.1-0.4,0.1-0.6,0.1c-0.6,0-1-0.2-1.3-0.8h0v0.5c0,0.2,0,0.4,0,0.6
	c0,0.2,0,0.4,0,0.6c0,0.2,0,0.4,0,0.6c0,0.2,0,0.4,0,0.5c-0.2,0-0.3,0-0.4,0c-0.1,0-0.2,0-0.4,0c0-0.1,0-0.3,0-0.5
	c0-0.2,0-0.4,0-0.6c0-0.2,0-0.4,0-0.6c0-0.2,0-0.4,0-0.6L227.4,20.6L227.4,20.6z M230.3,20.1c0-0.3,0-0.6-0.1-0.8
	c-0.1-0.2-0.1-0.4-0.3-0.5c-0.1-0.1-0.2-0.2-0.4-0.3c-0.1-0.1-0.3-0.1-0.4-0.1c-0.2,0-0.4,0-0.6,0.1c-0.1,0.1-0.3,0.2-0.4,0.4
	c-0.1,0.1-0.2,0.3-0.2,0.5c0,0.2-0.1,0.4-0.1,0.6c0,1.1,0.4,1.7,1.2,1.7c0.2,0,0.4,0,0.5-0.1c0.1-0.1,0.3-0.2,0.4-0.4
	c0.1-0.2,0.2-0.3,0.2-0.5C230.3,20.6,230.3,20.4,230.3,20.1z"/>
<path class="st0" d="M233.7,18.8c-0.1,0-0.2,0-0.2,0c-0.1,0-0.2,0-0.3,0.1c-0.1,0.1-0.2,0.1-0.3,0.2c-0.1,0.1-0.1,0.2-0.2,0.3
	c0,0.1-0.1,0.3-0.1,0.4v0.9c0,0.4,0,0.6,0,0.8c0,0.2,0,0.3,0,0.5c-0.1,0-0.2,0-0.3,0c-0.1,0-0.2,0-0.3,0c0-0.2,0-0.4,0-0.7
	s0-0.7,0-1.1v-0.3c0-0.2,0-0.5,0-0.7c0-0.3,0-0.6,0-0.9c0.1,0,0.1,0,0.2,0c0.1,0,0.1,0,0.2,0c0.1,0,0.1,0,0.1,0c0.1,0,0.1,0,0.2,0
	c0,0.2,0,0.3,0,0.5c0,0.1,0,0.2,0,0.3h0c0.3-0.6,0.7-0.9,1.1-0.9c0.1,0,0.1,0,0.1,0s0.1,0,0.1,0c0,0.1,0,0.2-0.1,0.3
	c0,0.1,0,0.2,0,0.4l-0.1,0C233.8,18.9,233.7,18.8,233.7,18.8L233.7,18.8z"/>
<path class="st0" d="M234.3,20.3c0-0.7,0.2-1.2,0.5-1.5c0.3-0.4,0.8-0.6,1.4-0.6c0.3,0,0.5,0,0.7,0.1c0.2,0.1,0.4,0.2,0.5,0.4
	c0.1,0.1,0.2,0.3,0.3,0.5c0.1,0.2,0.1,0.4,0.1,0.6c0,0.1,0,0.1,0,0.2c0,0.1,0,0.1,0,0.2c-0.3,0-0.6,0-0.9,0c-0.3,0-0.6,0-0.9,0
	c-0.2,0-0.3,0-0.5,0c-0.2,0-0.4,0-0.5,0c0,0,0,0.1,0,0.1v0.1c0,0.2,0,0.4,0.1,0.6s0.1,0.3,0.3,0.5c0.1,0.1,0.3,0.2,0.4,0.3
	s0.4,0.1,0.6,0.1c0.1,0,0.2,0,0.3,0c0.1,0,0.2-0.1,0.3-0.1c0.1-0.1,0.2-0.1,0.3-0.2s0.2-0.1,0.2-0.2l0,0l-0.1,0.4
	c-0.2,0.1-0.4,0.2-0.6,0.3c-0.2,0.1-0.5,0.1-0.7,0.1c-0.3,0-0.5,0-0.8-0.1c-0.2-0.1-0.4-0.2-0.6-0.4c-0.2-0.2-0.3-0.4-0.4-0.6
	C234.4,20.8,234.3,20.5,234.3,20.3L234.3,20.3z M236.2,18.4c-0.2,0-0.4,0-0.5,0.1c-0.1,0.1-0.2,0.2-0.3,0.3
	c-0.1,0.1-0.2,0.3-0.2,0.4c-0.1,0.2-0.1,0.3-0.1,0.5c0.2,0,0.3,0,0.5,0c0.2,0,0.3,0,0.5,0c0.2,0,0.4,0,0.5,0c0.2,0,0.4,0,0.5,0
	c0-0.1,0-0.3,0-0.5c0-0.2-0.1-0.3-0.1-0.4c-0.1-0.1-0.2-0.3-0.3-0.3C236.6,18.5,236.4,18.4,236.2,18.4L236.2,18.4z"/>
<path class="st0" d="M238.7,21.5c0.1,0.1,0.1,0.1,0.2,0.2c0.1,0.1,0.2,0.1,0.3,0.1c0.1,0,0.2,0.1,0.3,0.1c0.1,0,0.2,0,0.3-0.1
	c0.1,0,0.2-0.1,0.2-0.1s0.1-0.1,0.2-0.2c0-0.1,0.1-0.2,0.1-0.3c0-0.2,0-0.3-0.1-0.4c-0.1-0.1-0.2-0.2-0.3-0.2
	c-0.1-0.1-0.3-0.1-0.5-0.1c-0.2,0-0.3-0.1-0.5-0.2c-0.1-0.1-0.2-0.2-0.4-0.3c-0.1-0.1-0.1-0.3-0.1-0.5c0-0.2,0-0.3,0.1-0.5
	c0.1-0.1,0.1-0.3,0.3-0.4c0.1-0.1,0.2-0.2,0.4-0.2c0.2-0.1,0.4-0.1,0.6-0.1c0.2,0,0.4,0,0.5,0.1c0.1,0,0.3,0.1,0.4,0.1
	c0,0.1-0.1,0.2-0.1,0.3c0,0.1-0.1,0.2-0.1,0.3h-0.1c0-0.1-0.1-0.2-0.2-0.3c-0.1-0.1-0.3-0.1-0.5-0.1c-0.1,0-0.2,0-0.2,0
	c-0.1,0-0.1,0.1-0.2,0.1c-0.1,0-0.1,0.1-0.2,0.2c0,0.1-0.1,0.2-0.1,0.3c0,0.2,0.1,0.3,0.1,0.4c0.1,0.1,0.2,0.2,0.3,0.2
	c0.1,0,0.3,0.1,0.5,0.1c0.2,0,0.3,0.1,0.5,0.2c0.1,0.1,0.2,0.2,0.4,0.3c0.1,0.1,0.1,0.3,0.1,0.5c0,0.1,0,0.3-0.1,0.5
	c-0.1,0.1-0.2,0.3-0.3,0.4c-0.1,0.1-0.3,0.2-0.5,0.3c-0.2,0.1-0.4,0.1-0.6,0.1c-0.2,0-0.4,0-0.6-0.1c-0.2,0-0.3-0.1-0.4-0.2
	c0-0.1,0.1-0.2,0.1-0.3c0-0.1,0.1-0.2,0.1-0.3h0.1C238.6,21.4,238.7,21.4,238.7,21.5L238.7,21.5z"/>
<path class="st0" d="M241.8,21.5c0.1,0.1,0.1,0.1,0.2,0.2c0.1,0.1,0.2,0.1,0.3,0.1c0.1,0,0.2,0.1,0.3,0.1c0.1,0,0.2,0,0.3-0.1
	c0.1,0,0.2-0.1,0.2-0.1s0.1-0.1,0.2-0.2c0-0.1,0.1-0.2,0.1-0.3c0-0.2-0.1-0.3-0.1-0.4s-0.2-0.2-0.4-0.2c-0.1-0.1-0.3-0.1-0.5-0.1
	c-0.2,0-0.3-0.1-0.5-0.2c-0.1-0.1-0.2-0.2-0.4-0.3c-0.1-0.1-0.1-0.3-0.1-0.5c0-0.2,0-0.3,0.1-0.5c0.1-0.1,0.1-0.3,0.3-0.4
	c0.1-0.1,0.2-0.2,0.4-0.2c0.2-0.1,0.3-0.1,0.6-0.1c0.2,0,0.4,0,0.5,0.1c0.1,0,0.3,0.1,0.4,0.1c0,0.1-0.1,0.2-0.1,0.3
	c0,0.1-0.1,0.2-0.1,0.3h-0.1c0-0.1-0.1-0.2-0.2-0.3c-0.1-0.1-0.3-0.1-0.5-0.1c-0.1,0-0.2,0-0.2,0c-0.1,0-0.2,0.1-0.2,0.1
	c-0.1,0-0.1,0.1-0.2,0.2c0,0.1-0.1,0.2-0.1,0.3c0,0.2,0,0.3,0.1,0.4c0.1,0.1,0.2,0.2,0.4,0.2c0.1,0,0.3,0.1,0.5,0.1
	c0.2,0,0.3,0.1,0.5,0.2s0.2,0.2,0.4,0.3c0.1,0.1,0.1,0.3,0.1,0.5c0,0.1,0,0.3-0.1,0.5c-0.1,0.1-0.2,0.3-0.3,0.4
	c-0.1,0.1-0.3,0.2-0.4,0.3c-0.2,0.1-0.4,0.1-0.6,0.1c-0.2,0-0.4,0-0.6-0.1c-0.2,0-0.3-0.1-0.4-0.2c0-0.1,0.1-0.2,0.1-0.3
	c0-0.1,0.1-0.2,0.1-0.3h0.1C241.7,21.4,241.8,21.4,241.8,21.5L241.8,21.5z"/>
<path class="st0" d="M245,16.8c0-0.1,0-0.2,0.1-0.3c0.1-0.1,0.2-0.1,0.3-0.1c0.1,0,0.2,0,0.3,0.1s0.1,0.2,0.1,0.3s0,0.2-0.1,0.3
	s-0.2,0.1-0.3,0.1c-0.1,0-0.2,0-0.3-0.1C245,17.1,245,17,245,16.8z M245.1,19.7c0-0.2,0-0.5,0-0.8c0-0.3,0-0.5-0.1-0.7
	c0.2,0,0.3,0,0.4,0s0.2,0,0.4,0c0,0.2,0,0.5,0,0.7c0,0.3,0,0.5,0,0.8v0.8c0,0.2,0,0.5,0,0.8c0,0.3,0,0.5,0,0.7c-0.1,0-0.2,0-0.4,0
	s-0.2,0-0.4,0c0-0.2,0-0.5,0.1-0.7c0-0.3,0-0.5,0-0.8V19.7z"/>
<path class="st0" d="M246.8,20.2c0-0.4,0.1-0.7,0.2-0.9s0.3-0.5,0.4-0.6c0.2-0.2,0.4-0.3,0.6-0.3c0.2-0.1,0.5-0.1,0.7-0.1
	c0.2,0,0.5,0,0.7,0.1c0.2,0.1,0.4,0.2,0.6,0.3c0.2,0.2,0.3,0.4,0.5,0.6c0.1,0.2,0.2,0.6,0.2,0.9c0,0.4-0.1,0.7-0.2,0.9
	c-0.1,0.2-0.3,0.5-0.5,0.6c-0.2,0.2-0.4,0.3-0.6,0.3c-0.2,0.1-0.5,0.1-0.7,0.1c-0.2,0-0.5,0-0.7-0.1c-0.2-0.1-0.4-0.2-0.6-0.3
	c-0.2-0.2-0.3-0.4-0.4-0.6C246.8,20.8,246.8,20.5,246.8,20.2z M247.5,20.2c0,0.2,0,0.4,0.1,0.6c0,0.2,0.1,0.4,0.2,0.6
	c0.1,0.2,0.2,0.3,0.4,0.4c0.2,0.1,0.4,0.1,0.6,0.1s0.4,0,0.6-0.1c0.2-0.1,0.3-0.2,0.4-0.4c0.1-0.2,0.2-0.4,0.2-0.6
	c0-0.2,0.1-0.4,0.1-0.6c0-0.2,0-0.4-0.1-0.6c0-0.2-0.1-0.4-0.2-0.6c-0.1-0.2-0.2-0.3-0.4-0.4c-0.2-0.1-0.4-0.1-0.6-0.1
	s-0.4,0-0.6,0.1c-0.2,0.1-0.3,0.2-0.4,0.4c-0.1,0.2-0.2,0.3-0.2,0.6C247.5,19.7,247.5,19.9,247.5,20.2z"/>
<path class="st0" d="M253.9,18.9c-0.2-0.2-0.4-0.3-0.6-0.3c-0.4,0-0.6,0.1-0.8,0.3c-0.2,0.2-0.3,0.5-0.3,1v0.7c0,0.2,0,0.5,0,0.8
	c0,0.3,0,0.5,0.1,0.7c-0.1,0-0.2,0-0.4,0s-0.2,0-0.4,0c0-0.2,0-0.4,0-0.7c0-0.3,0-0.5,0-0.8v-0.8c0-0.2,0-0.5,0-0.8
	c0-0.3,0-0.5,0-0.7c0.1,0,0.3,0,0.4,0c0,0,0.1,0,0.1,0c0,0,0.1,0,0.2,0c0,0.2,0,0.4,0,0.6h0c0.1-0.2,0.3-0.4,0.5-0.5
	c0.2-0.1,0.5-0.2,0.7-0.2c0.1,0,0.3,0,0.4,0.1c0.2,0,0.3,0.1,0.4,0.2c0.1,0.1,0.2,0.2,0.3,0.4c0.1,0.2,0.1,0.4,0.1,0.7
	c0,0.2,0,0.5,0,0.7c0,0.2,0,0.5,0,0.8v0.5c0,0.1,0,0.2,0,0.2s0,0.2,0,0.2c-0.1,0-0.2,0-0.3,0s-0.2,0-0.3,0c0-0.3,0-0.6,0-0.9
	c0-0.3,0-0.6,0-0.9v-0.5C254.1,19.4,254.1,19.1,253.9,18.9L253.9,18.9z"/>
<path class="st0" d="M256,21.7c0-0.1,0-0.2,0.1-0.3s0.2-0.1,0.3-0.1s0.2,0,0.3,0.1c0.1,0.1,0.1,0.2,0.1,0.3c0,0.1,0,0.2-0.1,0.3
	s-0.2,0.1-0.3,0.1s-0.2,0-0.3-0.1S256,21.8,256,21.7z"/>
</svg>
