<?xml version="1.0" encoding="utf-8"?>
<!-- Generator: Adobe Illustrator 27.0.0, SVG Export Plug-In . SVG Version: 6.00 Build 0)  -->
<svg version="1.1" id="圖層_1" xmlns="http://www.w3.org/2000/svg" xmlns:xlink="http://www.w3.org/1999/xlink" x="0px" y="0px"
	 viewBox="0 0 173 103" style="enable-background:new 0 0 173 103;" xml:space="preserve">
<style type="text/css">
	.st0{fill:#E8D0A4;}
	.st1{fill:none;stroke:#571704;stroke-width:0.25;stroke-miterlimit:10;}
	.st2{fill:#834E1A;}
	.st3{fill:#40210F;}
</style>
<g>
	<rect y="0.1" class="st0" width="172.5" height="102.6"/>
	<line class="st1" x1="19" y1="32" x2="155.6" y2="32"/>
	<g>
		<g>
			<g>
				<path class="st2" d="M26.3,12.5l1.7,1.4c-0.1,0.1-0.2,0.2-0.5,0.3v9.2c0,0-0.5,0.6-1.8,0.6v-1.3h-4.6v0.7c0,0.3-0.7,0.8-1.5,0.8
					h-0.3V12.7l1.9,0.8h4.4L26.3,12.5z M25.7,13.7h-4.6v4.1h4.6V13.7z M21.1,22.3h4.6V18h-4.6V22.3z"/>
				<path class="st2" d="M41.7,15.2c-0.1,0.1-0.2,0.2-0.6,0.2h-4c1,2.2,2.9,3.8,4.7,4.6l0,0.1c-0.7,0.2-1.2,0.8-1.5,1.7
					c-1.8-1.3-2.8-3.4-3.4-6.4h-0.1v5.5l0.7-1.2l1.4,1.3c-0.1,0.1-0.3,0.2-0.6,0.2h-1.6v2.4c0,0.2-0.7,0.5-1.4,0.5h-0.3v-2.9h-2.1
					l0-0.2h2.1v-3.1c-1.1,1.7-2.7,3.1-4.7,4.1l-0.1-0.2c1.8-1.6,3.2-4.1,3.7-6.4h-3.6l-0.1-0.2h4.7v-3.3l2.3,0.2
					c0,0.2-0.1,0.4-0.5,0.4v2.6h2.2l0.9-1.4L41.7,15.2z"/>
				<path class="st2" d="M52.3,17.4l0.8-1.2l1.5,1.2c-0.1,0.1-0.2,0.2-0.6,0.2h-2.6v4.3c0,1.2-0.3,2-2.2,2.2c0-1.3-0.5-1.7-1.7-1.8
					v-0.2h2c0.2,0,0.2-0.1,0.2-0.2v-4.3h-6.2l-0.1-0.2h6.3v-2.5l2.2,0.2c0,0.2-0.1,0.3-0.4,0.3v2H52.3z M53.2,13.1l1.4,1.5
					c-0.1,0.1-0.2,0.2-0.5,0.2c-0.5,0.5-1.3,1.1-2,1.4l-0.1-0.1c0.1-0.5,0.3-1.3,0.3-1.8h-7c0,0.2,0,0.4,0,0.6
					c0,0.8-0.4,1.5-1.1,1.5c-0.5,0-0.9-0.3-0.9-0.8c0-0.4,0.3-0.7,0.6-0.9c0.4-0.2,0.9-0.8,1-1.4h0.1c0.1,0.3,0.2,0.6,0.2,0.8h2.7
					v-2.1l2.2,0.2c0,0.2-0.1,0.3-0.5,0.3V14h2.5L53.2,13.1z M45.4,18.1c2,0.5,2.6,1.4,2.6,2.2c0,0.7-0.5,1.2-1.1,1.2
					c-0.3,0-0.6-0.1-0.8-0.5C46.1,20.1,45.8,18.9,45.4,18.1L45.4,18.1z"/>
				<path class="st2" d="M59.8,13.6l1.2,1c-0.1,0.1-0.2,0.2-0.5,0.2h-4.1l-0.1-0.2h2.8L59.8,13.6z M60.9,20
					c-0.1,0.1-0.2,0.2-0.4,0.2v2.9c0,0-0.4,0.4-1.5,0.4v-0.9h-0.7v0.9c0,0-0.2,0.6-1.5,0.6V19l1.5,0.7h0.6l0.5-0.8L60.9,20z
					 M60.6,13.4l0-0.2H62v-1.3l1.8,0.2c0,0.1-0.1,0.2-0.4,0.3v0.9h1v-1.3l1.8,0.2c0,0.1-0.1,0.2-0.3,0.3v0.9h0l0.6-0.9l1.2,0.9
					c-0.1,0.2-0.2,0.2-0.6,0.2H66V14c0,0.1-0.5,0.3-1,0.3l0.9,0.2c0,0.2-0.2,0.3-0.5,0.3c-0.3,0.2-0.7,0.4-1.1,0.6h1.4l0.6-0.9
					l1.2,0.9c-0.1,0.2-0.2,0.2-0.5,0.2h-1.8v1h0.4l0.6-0.8l1.1,0.8c-0.1,0.2-0.2,0.2-0.5,0.2h-1.6v1h0.4l0.6-0.8l1.1,0.8
					c-0.1,0.2-0.2,0.2-0.5,0.2h-1.6v1h0.7l0.7-0.9l1.3,0.9c-0.1,0.2-0.2,0.2-0.5,0.2h-4.5v0.1c0,0.1-0.4,0.5-1.2,0.5h-0.3V17
					c-0.3,0.3-0.6,0.6-0.9,0.8l0.2,0.1c-0.1,0.1-0.3,0.2-0.6,0.2h-3.1l-0.1-0.2h1.9l0.6-0.9l0.9,0.7c0.5-0.9,1.1-2.3,1.4-3.7L62,14
					v-0.6H60.6z M59.4,15.3l1.2,0.9c-0.1,0.1-0.3,0.2-0.6,0.2h-3.1l-0.1-0.2h1.9L59.4,15.3z M60.5,12.9c-0.1,0.1-0.3,0.2-0.6,0.2h-3
					l-0.1-0.2h1.7l0.7-1L60.5,12.9z M58.3,22.4H59v-2.6h-0.7V22.4z M65.9,19.3l1.4,1.3c-0.1,0.1-0.2,0.2-0.5,0.2
					c-0.3,0.5-0.7,0.9-1.1,1.2c0.7,0.1,1.4,0.2,2,0.2v0.2c-0.6,0.2-1,0.8-1.2,1.6c-0.9-0.2-1.8-0.6-2.5-1c-1.1,0.5-2.4,0.8-3.9,1
					l0-0.2c1.2-0.3,2.2-0.8,3.1-1.5c-0.6-0.5-1.1-1.2-1.4-2h-1l-0.1-0.2H65L65.9,19.3z M62.1,20.4c0.5,0.6,1.2,1,2,1.3
					c0.4-0.4,0.7-0.8,0.9-1.3H62.1z M64.5,13.4h-1V14c0,0.1-0.4,0.2-0.8,0.3l0.7,0.3c0,0.2-0.2,0.2-0.5,0.2l-0.3,0.5l0.2,0.1h0.8
					c0.1-0.4,0.1-0.9,0.2-1.3l0.6,0.1V13.4z M63.6,16.6v-1h-0.9v1H63.6z M63.6,17.9v-1h-0.9v1H63.6z M63.6,19.1v-1h-0.9v1H63.6z"/>
			</g>
		</g>
		<g>
			<g>
				<path class="st2" d="M84.4,19l0.7,0.6c-0.1,0.1-0.2,0.1-0.4,0.1H84v1c0,0-0.3,0.3-1.3,0.3v-0.4h-3l0-0.2h3v-0.8h-3.1
					c0,0.1,0,0.1,0,0.1c0,0.4-0.3,0.7-0.6,0.7c-0.2,0-0.4-0.1-0.5-0.3c0-0.1,0-0.3,0-0.4c0-0.4-0.1-0.8-0.2-1.1v4.7
					c0,0.1-0.4,0.4-1,0.4H77v-3.2c-0.3,0.5-0.7,1-1.2,1.4l-0.1-0.1c0.6-1.2,1-2.9,1.2-4.5h-1.1l0-0.2H77v-1.6
					c-0.4,0.1-0.8,0.1-1.2,0.2l0-0.1c0.8-0.5,1.8-1.3,2.3-1.8l1.5,1.4c-0.1,0.1-0.2,0.1-0.3,0.1c-0.1,0-0.2,0-0.4-0.1
					c-0.2,0-0.4,0.1-0.6,0.1v1.8l0.5-0.8l0.5,0.5c0.2-0.6,0.3-1.5,0.4-2.4l1.3,0.4c0.8-0.3,1.8-0.8,2.2-1.2l1.2,1.1
					c0,0.1-0.1,0.1-0.2,0.1c-0.1,0-0.1,0-0.2-0.1c-0.5,0.1-1.5,0.2-2.4,0.3v0c0.8,0.3,1.1,0.7,1.1,1c0,0.3-0.2,0.5-0.5,0.6h0.6
					l0.5-0.6l0.7,0.5c-0.1-0.5-0.4-1.1-0.7-1.5l0.1-0.1c1.3,0.2,1.7,0.7,1.7,1.2c0,0.4-0.3,0.7-0.6,0.7c-0.1,0-0.2,0-0.3-0.1
					C84,17,83.9,17,83.7,17h-1v0.9h0.8l0.5-0.7l1,0.7C84.8,18,84.7,18,84.5,18h-5.1l0-0.2h2.1V17h-1.5l0-0.2h1.9
					c-0.2-0.1-0.3-0.2-0.4-0.4c0.1-0.2,0.1-0.4,0.1-0.7c0-0.2,0-0.4-0.1-0.5l-0.3,0c-0.1,0-0.1,0-0.3,0c-0.4,0.7-0.9,1.4-1.4,1.8
					l0.2,0.2c-0.1,0.1-0.2,0.1-0.4,0.1h-0.9v1.1c0.8,0.3,1.2,0.7,1.3,1h3.2v-0.8h-3l0-0.2h3l0.4-0.6l1.2,0.8c0,0-0.1,0.1-0.2,0.1
					v0.6L84.4,19z M79.9,21.4c0.1,0.4,0.2,0.8,0.2,1.1c0,0.4-0.1,1.2-0.8,1.2c-0.3,0-0.6-0.2-0.6-0.6c0-0.3,0.2-0.5,0.4-0.6
					c0.3-0.2,0.7-0.6,0.7-1L79.9,21.4z M83.1,22.2l0,0.5c0.3,0.1,0.4,0.2,0.4,0.4c0,0.4-0.3,0.6-1.2,0.6h-0.8c-1,0-1.1-0.2-1.1-1.2
					v-1.2l1,0.1c-0.2-0.2-0.4-0.4-0.6-0.5l0-0.1c0.1,0,0.3,0,0.4,0c1.1,0,1.5,0.5,1.5,0.9c0,0.3-0.2,0.6-0.5,0.6
					c-0.1,0-0.2,0-0.3-0.1c-0.1-0.2-0.2-0.4-0.3-0.5l-0.1,0v0.9c0,0.2,0,0.2,0.2,0.2h0.6C82.6,22.8,82.7,22.8,83.1,22.2L83.1,22.2z
					 M83.3,21.3c1.3,0.3,1.7,1,1.7,1.5c0,0.4-0.3,0.8-0.6,0.8c-0.2,0-0.3-0.1-0.5-0.3C83.9,22.6,83.6,21.8,83.3,21.3L83.3,21.3z"/>
				<path class="st2" d="M93.2,17l0.6-0.7l1.1,0.7c-0.1,0.1-0.2,0.1-0.4,0.1H93c0,0.4,0,0.8-0.1,1.1c-0.1,0.1-0.1,0.1-0.2,0.1
					l1.1,0.8c0,0.1-0.1,0.1-0.3,0.2V22c0,0-0.4,0.3-1.4,0.3V22H89l1.2,1c0,0.1-0.1,0.1-0.3,0.1c-0.1,0-0.2,0-0.3-0.1
					c-0.9,0.4-2.2,0.8-3.6,0.8l0-0.1c1.1-0.4,2.3-1.1,2.9-1.7h-0.3c0,0-0.3,0.5-1.3,0.5v-4.1l0.3,0.1c0.1-0.4,0.1-0.8,0.2-1.2H86
					l0-0.2h1.8c0.1-0.6,0.1-1.1,0.2-1.5l1.3,0.5h2.6l0.5-0.6l0.9,0.7c0-0.3,0.1-0.6,0.1-0.8h-5.8c0,0.1,0,0.2,0,0.3
					c0,0.6-0.3,1.1-0.8,1.1c-0.3,0-0.7-0.2-0.7-0.6c0-0.3,0.2-0.6,0.5-0.7c0.3-0.1,0.6-0.4,0.6-0.8h0.1c0.1,0.2,0.1,0.4,0.2,0.6h2.3
					v-1.2l1.8,0.2c0,0.1-0.1,0.2-0.4,0.3v0.7h2.1l0.6-0.7l1.1,1.1c-0.1,0.1-0.2,0.1-0.4,0.1c-0.3,0.3-0.9,0.7-1.3,0.9l-0.1,0l0,0
					l0,0.5H93.2z M92,18.9l0.3-0.4c-0.1,0-0.1,0-0.2,0c-0.1,0-0.3,0-0.4,0l0-0.3h-3l0,0.2c-0.2,0.1-0.4,0.2-0.6,0.2
					c-0.1,0-0.2,0-0.3,0l0.9,0.4H92z M92.1,19.9v-0.8h-3.6v0.8H92.1z M88.6,20v0.8h3.6V20H88.6z M88.6,21.8h3.6V21h-3.6V21.8z
					 M89.6,18c0-0.2,0.1-0.5,0.1-0.8h-0.8c0,0.3-0.1,0.6-0.1,0.8H89.6z M89.7,17c0-0.3,0-0.6,0.1-0.8H89c0,0.2,0,0.5-0.1,0.8H89.7z
					 M90.8,22.3c2.9-0.1,3.7,0.5,3.7,1c0,0.3-0.4,0.6-0.8,0.6c-0.2,0-0.4-0.1-0.6-0.2c-0.4-0.4-1.2-0.9-2.3-1.2L90.8,22.3z
					 M90.9,17.2c0,0.3-0.1,0.6-0.1,0.8h1l0.1-0.8H90.9z M91.8,17c0-0.3,0-0.6,0-0.8H91c0,0.2,0,0.5-0.1,0.8H91.8z"/>
				<path class="st2" d="M103.9,15.3l1.1,1.1c-0.1,0.1-0.2,0.1-0.4,0.1c-0.3,0.3-0.8,0.7-1.3,0.9l-0.1-0.1l0-0.2c0,0-0.1,0-0.2,0h-2
					l0-0.2h1.2l0.5-0.6l0.7,0.5l0-0.8H101v2.5c0,0.1-0.4,0.3-1.1,0.3h-0.3v-2.7h-2.4c0,0.2,0.1,0.4,0.1,0.5c0,0.1,0,0.3,0,0.4h0.9
					l0.5-0.6l0.9,0.6c-0.1,0.1-0.2,0.1-0.4,0.1h-1.9l0,0c-0.1,0.2-0.3,0.5-0.7,0.5c-0.4,0-0.7-0.3-0.7-0.7c0-0.3,0.3-0.6,0.6-0.7
					c0.3-0.1,0.6-0.4,0.5-0.8l0.1,0c0.1,0.2,0.1,0.3,0.2,0.5h2.5v-1h-2.9l0-0.2h5.6l0.6-0.9l1.2,0.9c-0.1,0.1-0.2,0.1-0.5,0.1H101v1
					h2.4L103.9,15.3z M98.6,17.5l0.9,0.6c-0.1,0.1-0.2,0.1-0.4,0.1H97l0-0.2h1.2L98.6,17.5z M104.4,21.5l0,0.9
					c0.5,0.2,0.5,0.2,0.5,0.5c0,0.5-0.3,0.8-1.6,0.8h-2.1c-1.3,0-1.6-0.3-1.6-1.5v-0.4h-1.2v0.2c0,0-0.2,0.5-1.4,0.5v-3.8l1.4,0.6
					h3.7l0.5-0.7l1.4,1c-0.1,0.1-0.2,0.2-0.4,0.2v2.1c0,0-0.4,0.4-1.4,0.4v-0.5h-1.3v0.5c0,0.4,0,0.4,0.4,0.4h2.1
					C103.9,22.6,103.9,22.6,104.4,21.5L104.4,21.5z M99.6,19.4h-1.2v1h1.2V19.4z M98.3,21.5h1.2v-1h-1.2V21.5z M102.3,19.4h-1.3v1
					h1.3V19.4z M100.9,21.5h1.3v-1h-1.3V21.5z M102.9,17.5l1,0.7c-0.1,0.1-0.2,0.1-0.4,0.1h-2.3l0-0.2h1.3L102.9,17.5z"/>
				<path class="st2" d="M113.8,18.9l1.2,1c-0.1,0.1-0.2,0.2-0.3,0.2c0,2.1,0,2.8-1.6,2.8c0-0.7-0.1-1-0.6-1.2v1.8
					c0,0.1-0.4,0.4-1.1,0.4h-0.3v-2.2c-0.6,0.6-1.4,1.1-2.3,1.5l-0.1-0.1c1-0.8,1.7-2.1,2.1-3.3h-0.4c0,0.2-0.1,0.4-0.1,0.5
					c-0.2,0.1-0.4,0.2-0.6,0.2c-0.2,0-0.4,0-0.6-0.1l0-0.2c-0.1,0-0.1,0-0.2,0c-0.2,0-0.4-0.1-0.5-0.3c0-0.1,0-0.2,0-0.3
					c0-0.4-0.1-0.9-0.3-1.2v5.1c0,0.1-0.6,0.4-1.1,0.4h-0.3V20c-0.3,0.5-0.7,1-1.2,1.4l-0.1-0.1c0.7-1.2,1-2.9,1.2-4.5h-1.2l0-0.2
					h1.3V14l1.7,0.2c0,0.1-0.1,0.2-0.4,0.3v2.1l0.4-0.8l0.9,0.9c-0.1,0.1-0.2,0.1-0.5,0.1h-0.9v1.4l0,0c0.6,0.2,0.9,0.4,1.2,0.7
					c0.1-0.6,0.2-1.2,0.2-1.7l1.3,0.6h0.3v-1.7h-1.9l0-0.2h1.6v0c-0.2,0-0.3-0.1-0.5-0.3c0-0.6-0.2-1.2-0.5-1.6L110,14
					c1.3,0.2,1.7,0.7,1.7,1.2c0,0.4-0.3,0.7-0.7,0.7v0h1.1c0.2-0.6,0.3-1.4,0.4-2l1.8,0.6c0,0.1-0.1,0.2-0.4,0.2
					c-0.4,0.4-1,0.9-1.5,1.3h0.7l0.5-0.7l1.3,0.9c0,0.1-0.2,0.2-0.3,0.2v1.8c0,0-0.3,0.3-1.3,0.3V18h-0.7v1.6h0.8L113.8,18.9z
					 M110.7,18c0,0.4-0.1,1-0.2,1.6h0.7V18H110.7z M112.5,16.1v1.7h0.7v-1.7H112.5z M112.5,21.5h0.6c0.1,0,0.2,0,0.2,0
					c0.1-0.1,0.1-0.6,0.1-1.7h-0.9V21.5z"/>
				<path class="st2" d="M118.7,14l1.2,1.3c-0.1,0.1-0.2,0.1-0.4,0.2c-0.4,0.6-1.1,1.6-1.6,2.3c1.3,0.7,1.9,1.5,1.9,2.3
					c0,1-0.4,1.8-1.7,1.9c0-1-0.2-1.2-0.6-1.3v-0.1h0.6c0.3,0,0.4-0.4,0.4-0.6c0-0.7-0.2-1.5-0.7-2.2c0.1-0.7,0.3-2,0.4-2.8h-0.7
					v8.5c0,0.1-0.4,0.4-1.1,0.4h-0.2v-9.7l1.4,0.6h0.5L118.7,14z M124.9,16.1c-0.1,0.1-0.2,0.1-0.5,0.1h-2c0,0.1-0.1,0.2-0.4,0.2
					c0,0.6,0,1.2-0.1,1.9h0.9l0.5-0.7l1.3,1.1c-0.1,0.1-0.2,0.2-0.4,0.2c-0.1,2.9-0.3,4.1-0.8,4.5c-0.4,0.3-0.7,0.4-1.4,0.4
					c0-0.8-0.1-1.2-1-1.4v-0.1c0.3,0,0.9,0,1.1,0c0.1,0,0.2,0,0.3-0.1c0.3-0.2,0.4-1.4,0.4-3.7h-1c-0.2,1.9-0.8,3.8-3,5.3l-0.1-0.1
					c1.7-2.4,1.7-5,1.7-7.4h-1.2l0-0.2h2.1V14l1.8,0.2c0,0.1-0.1,0.2-0.4,0.3v1.7h0.5l0.6-0.9L124.9,16.1z"/>
				<path class="st2" d="M132.5,20.9c-1,0-1.2-0.2-1.3-0.9c-0.6,0.3-1.5,0.6-2.8,1.1c-0.1,0.1-0.2,0.2-0.3,0.2l-0.6-1.3
					c-0.2,1.4-0.6,2.8-1.9,3.8l-0.1-0.1c0.7-1.7,0.7-3.8,0.7-5.7v-3.4l1.5,0.6h1.9v-1.4l1.7,0.2c0,0.1-0.1,0.2-0.4,0.3v0.9h2
					l0.6-0.9l1.1,1c-0.1,0.1-0.2,0.1-0.5,0.1h-6.8v0.9h1v-0.8l1.5,0.2c0,0.1-0.1,0.2-0.3,0.2v0.5h1.1v-0.8l1.5,0.2
					c0,0.1-0.1,0.2-0.3,0.2v0.5h0.9l0.5-0.7l1.3,0.9c-0.1,0.1-0.2,0.2-0.4,0.2v0.9c0,0.1-0.4,0.2-0.7,0.3l1,0.8
					c0,0.1-0.1,0.1-0.2,0.1c0,0-0.1,0-0.2,0c-0.5,0.1-1.2,0.2-1.8,0.3v0.4c0,0.2,0,0.2,0.2,0.2h0.9c0.3,0,0.4,0,0.8-0.7h0.1l0,0.6
					c0.4,0.2,0.4,0.2,0.4,0.4c0,0.5-0.4,0.7-1.3,0.7H132.5z M133.1,23.3l0.6-0.8l1,0.8c-0.1,0.1-0.2,0.1-0.4,0.1h-7.5l0-0.2h3.2V22
					h-2.3l0-0.2h2.4v-1l1.6,0.2c0,0.1-0.1,0.2-0.3,0.2v0.6h0.9l0.6-0.8l1.1,0.8c-0.1,0.1-0.2,0.1-0.5,0.1h-2.1v1.3H133.1z
					 M127.6,17.9c0,0.7,0,1.4-0.1,2.1l0.7,0v-2.1H127.6z M128.6,16.6h-1v1.1h1V16.6z M131.2,17.9h-2.7v0l1.2,0.1
					c0,0.1-0.1,0.2-0.3,0.2v0.7h0.3l0.5-0.7l0.9,0.7V17.9z M129.5,19v0.8c0.5,0,1.1-0.1,1.7-0.1v-0.8c-0.1,0.1-0.2,0.1-0.4,0.1
					H129.5z M130.9,16.6h-1.1v1.1h1.1V16.6z M132.7,17.9c0,0.1-0.1,0.2-0.3,0.2V19c0.4-0.3,0.8-0.6,1-0.9c-0.1,0-0.3,0-0.4,0v-0.2
					h-1.6v0L132.7,17.9z M133.1,16.6h-1v1.1h1V16.6z"/>
				<path class="st2" d="M143.4,18.2l1.2,1.1c-0.1,0.1-0.2,0.1-0.4,0.2c-0.3,0.8-0.7,1.6-1.3,2.2c0.6,0.3,1.3,0.5,2,0.7l0,0.1
					c-0.6,0.1-1,0.6-1.1,1.3c-0.7-0.4-1.2-0.8-1.7-1.3c-0.8,0.6-1.7,1-2.9,1.3l0-0.1c1-0.4,1.8-1.1,2.4-1.8c-0.5-0.7-0.8-1.6-1-2.7
					h-0.3c0,0.1-0.1,0.1-0.2,0.1c-0.1,0-0.2,0-0.3,0h-1.2v0.9c1.3,0.2,1.7,0.7,1.7,1.2c0,0.4-0.3,0.8-0.7,0.8
					c-0.2,0-0.4-0.1-0.5-0.3c0-0.5-0.2-1.1-0.5-1.5v3.1c0,0-0.2,0.4-1.3,0.4v-2.5c-0.4,0.5-0.9,0.9-1.5,1.3l-0.1-0.1
					c0.7-0.9,1.1-2.1,1.3-3.2h-1.2l0-0.2h1.6v-1.7c-0.4,0.3-0.9,0.6-1.5,0.7l-0.1-0.1c0.7-0.5,1.3-1.3,1.8-2c-0.5-0.4-1-0.8-1.6-1.1
					l0-0.1c0.8,0.1,1.5,0.2,2,0.4c0.2-0.4,0.4-0.9,0.5-1.3l1.6,0.8c0,0.1-0.1,0.2-0.4,0.1c-0.2,0.3-0.4,0.6-0.6,0.9
					c0.6,0.4,0.8,0.9,0.8,1.3c0,0.4-0.3,0.7-0.6,0.7c-0.1,0-0.3,0-0.4-0.1l0-0.1c0,0.1-0.1,0.1-0.3,0.2v1.3h0.1l0.6-0.9l0.5,0.4l0,0
					c0.6-0.8,0.7-1.9,0.7-2.8v-1.6l1.5,0.5h0.4l0.5-0.7l1.2,1c-0.1,0.1-0.2,0.1-0.3,0.2v1.6c0,0.1,0,0.2,0.1,0.2
					c0.3,0,0.4,0,0.4-0.1c0.1-0.2,0.2-0.6,0.3-0.8h0.1l0,0.9c0.3,0.1,0.3,0.2,0.3,0.5c0,0.5-0.3,0.8-1,0.8h-0.5c-1,0-1-0.3-1-1.4V15
					h-0.7v0.9c0,0.8-0.2,2.1-1.9,2.8L140,19h2.8L143.4,18.2z M138.7,17.6c-0.2-0.3-0.4-0.6-0.6-0.9c-0.3,0.2-0.6,0.5-0.9,0.7
					L138.7,17.6z M140.6,19.1c0.3,0.9,0.8,1.5,1.4,2c0.4-0.6,0.6-1.3,0.8-2H140.6z"/>
				<path class="st2" d="M153.6,14.3l1.1,1c-0.1,0.1-0.2,0.1-0.4,0.1h-2v0.7c0,0-0.2,0.3-1.4,0.3v-1.1h-1.7v0.8c0,0-0.1,0.3-1.4,0.3
					v-1.1h-2.3l0-0.2h2.3V14l1.7,0.1c0,0.1-0.1,0.2-0.4,0.3v0.8h1.7V14l1.8,0.1c0,0.1-0.1,0.2-0.4,0.3v0.8h0.6L153.6,14.3z
					 M152.5,16.9l0.5-0.7l1.3,1c-0.1,0.1-0.2,0.2-0.4,0.2v6c0,0-0.4,0.4-1.4,0.4V23h-4.9v0.2c0,0.1-0.2,0.6-1.4,0.6v-7.6l1.5,0.6
					H152.5z M147.7,22.9h4.9v-5.8h-1.5l1,1.1c-0.1,0.1-0.1,0.1-0.2,0.1c-0.1,0-0.2,0-0.4-0.1c-0.2,0-0.5,0.1-0.8,0.1v1.1h0.3
					l0.5-0.7l1,0.8c-0.1,0.1-0.2,0.1-0.4,0.1h-1.3v0.6c1.3,0.1,1.7,0.6,1.7,1.1c0,0.4-0.3,0.7-0.6,0.7c-0.2,0-0.3-0.1-0.5-0.2
					c-0.1-0.5-0.3-1.1-0.6-1.4v1.8c0,0.1-0.4,0.3-1,0.3h-0.2V21c-0.5,0.5-1.1,0.9-1.7,1.2l-0.1-0.1c0.7-0.7,1.2-1.6,1.5-2.5h-1.4
					l0-0.2h1.8v-1c-0.5,0-1,0.1-1.5,0l0-0.2c1.1-0.3,2.4-0.8,3.1-1.2h-3.4V22.9z"/>
			</g>
		</g>
	</g>
	<g>
		<g>
			<g>
				<path class="st3" d="M58.3,76.5v0.7H55v0.4h3.7v2.1h-0.9v-1.4H55v1.9h-0.8v-1.9h-2.8v1.5h-0.9v-2.2h3.6v-0.4H51v-0.7H58.3z
					 M58.1,80.5v2.9l0.7,0.2c-0.1,0.7-0.3,1.1-0.5,1.2C58.2,85,57.9,85,57.4,85h-2.4c-0.3,0-0.5-0.1-0.6-0.2
					c-0.1-0.1-0.2-0.3-0.2-0.5v-0.6h-3v-3.1H58.1z M53.9,78.7v0.6h-2.1v-0.6H53.9z M53.9,79.6v0.6h-2.1v-0.6H53.9z M54.1,81.8v-0.6
					H52v0.6H54.1z M54.1,82.4H52V83h2.2V82.4z M54.9,81.8h2.4v-0.6h-2.4V81.8z M57.3,82.4h-2.4V83h2.4V82.4z M54.9,84.1
					c0,0.2,0.1,0.3,0.3,0.3h2c0.3,0,0.4,0,0.6-0.1c0.1-0.1,0.2-0.2,0.3-0.6h-3.1V84.1z M57.6,78.7v0.6h-2.2v-0.6H57.6z M57.6,79.6
					v0.6h-2.2v-0.6H57.6z"/>
				<path class="st3" d="M60.9,78.1v-1.8h0.8v1.8h0.8v0.8h-0.8v0.3c0.3,0.4,0.6,0.9,0.9,1.3l-0.5,0.7c-0.2-0.4-0.3-0.7-0.5-1v4.8
					h-0.8v-4.5c-0.3,0.8-0.6,1.5-1,2.1l-0.3-0.9c0.5-0.8,0.9-1.8,1.3-2.9h-1.2v-0.8H60.9z M67.6,77.8v2.5h-2.1v0.9h2.3
					c0,1.5,0,2.3-0.1,2.6c-0.1,0.2-0.1,0.3-0.3,0.4c-0.1,0.1-0.4,0.1-0.8,0.1c-0.2,0-0.4,0-0.7,0l-0.1-0.9c0.3,0,0.5,0.1,0.8,0.1
					c0.2,0,0.2,0,0.3-0.2c0-0.1,0-0.6,0.1-1.3h-1.5v3.1h-0.8v-2.9c-0.2,0.4-0.4,0.7-0.6,1c-0.4,0.5-1,1-1.7,1.5l-0.4-0.8
					c0.7-0.4,1.3-0.8,1.6-1.2c0.2-0.2,0.3-0.4,0.5-0.7h-1.4l0.3-2.5h1.8v-0.9h-1.9v-0.8H67.6z M64.6,77.5l-0.8,0.2
					c-0.2-0.4-0.4-0.8-0.6-1.2l0.7-0.2C64.1,76.7,64.4,77.1,64.6,77.5z M64.7,80.3h-1.1l-0.1,0.9h1.2V80.3z M65.5,79.5h1.3v-0.9
					h-1.3V79.5z M67,76.5c-0.2,0.5-0.4,0.9-0.6,1.2l-0.8-0.3c0.2-0.3,0.5-0.7,0.6-1.2L67,76.5z"/>
				<path class="st3" d="M73.4,84l-0.6-0.7c-0.6,0.5-1.2,0.8-1.8,0.8c-0.6,0-1.2-0.1-1.6-0.5c-0.5-0.3-0.7-0.8-0.7-1.5
					c0-0.7,0.4-1.3,1.3-2c-0.5-0.5-0.7-1-0.7-1.4c0-0.4,0.2-0.7,0.5-1c0.3-0.2,0.6-0.3,1-0.3c0.4,0,0.7,0.1,1,0.3
					c0.3,0.2,0.5,0.5,0.5,0.9c0,0.5-0.3,1-1,1.5l1.4,1.6c0.2-0.4,0.3-1.1,0.3-2.1h0.9c0,1.2-0.2,2.1-0.5,2.8l1.3,1.4H73.4z
					 M70.6,80.9c-0.7,0.5-1,0.9-1,1.3c0,0.3,0.1,0.6,0.4,0.8c0.3,0.2,0.6,0.3,0.9,0.3c0.5,0,0.9-0.2,1.3-0.6L70.6,80.9z M70.9,78.5
					c-0.4,0-0.6,0.2-0.6,0.5c0,0.2,0.2,0.5,0.5,0.9c0.5-0.3,0.7-0.6,0.7-0.9C71.4,78.6,71.2,78.5,70.9,78.5z"/>
				<path class="st3" d="M78.3,76.6v0.7c-0.1,0.4-0.2,0.7-0.3,1.1c0.6-0.3,1.1-0.6,1.4-0.9c0.3-0.3,0.6-0.6,0.9-1.1H81
					c0.4,0.5,0.7,0.9,1.1,1.2c0.3,0.2,0.7,0.5,1.4,0.8l-0.5,0.8c-0.2-0.1-0.4-0.2-0.6-0.3v0.6h-1.4v1h2.2v0.8h-2.2v2.7
					c0,0.3-0.1,0.6-0.2,0.7c-0.1,0.1-0.4,0.2-0.7,0.2h-0.7l-0.2-0.9c0.3,0.1,0.5,0.1,0.7,0.1c0.2,0,0.3-0.1,0.3-0.2v-2.6h-1.9v-0.8
					h1.9v-1H79v-0.7c-0.3,0.2-0.5,0.3-0.8,0.5l-0.3-0.6c-0.1,0.3-0.2,0.6-0.3,0.9c0.2,0.4,0.4,0.8,0.5,1.2c0.1,0.4,0.2,0.7,0.2,0.9
					c0,0.5-0.1,0.9-0.3,1.1c-0.2,0.3-0.6,0.4-1.3,0.4l-0.2-0.9c0.1,0,0.3,0,0.4,0c0.2,0,0.3,0,0.4-0.1c0.1-0.1,0.2-0.2,0.2-0.5
					c0-0.3,0-0.6-0.1-0.8c-0.1-0.3-0.3-0.7-0.5-1.2c0.3-0.9,0.5-1.7,0.7-2.3h-1.1v7.6h-0.8v-8.4H78.3z M79.7,82.1
					c-0.4,1-0.9,1.8-1.5,2.4l-0.6-0.6c0.5-0.6,1-1.3,1.4-2.2L79.7,82.1z M82.1,78.7c-0.5-0.3-1-0.8-1.5-1.5c-0.4,0.5-0.7,0.8-1,1.1
					c-0.1,0.1-0.3,0.2-0.4,0.3H82.1z M83.5,84l-0.8,0.6c-0.3-0.7-0.7-1.5-1.1-2.4l0.6-0.4C82.8,82.6,83.2,83.3,83.5,84z"/>
				<path class="st3" d="M89.1,76.9h3.4v0.7h-2.4v0.5h2.2v1.9h-2.3v0.7c0.8-0.1,1.5-0.2,2.1-0.5l0.2,0.6c-0.6,0.2-1.4,0.4-2.3,0.5
					v0.3c0,0.2,0.1,0.3,0.3,0.3h1.2c0.1,0,0.2,0,0.3-0.1c0.1,0,0.1-0.2,0.2-0.6l0.7,0.2c-0.1,0.5-0.2,0.8-0.3,0.9
					c-0.1,0.1-0.4,0.1-0.7,0.1h-1.6c-0.2,0-0.4-0.1-0.5-0.2c-0.1-0.1-0.2-0.3-0.2-0.5v-1.8h-2v0.5h1.8v0.6h-1.8v0.6
					c0.6-0.1,1.2-0.1,1.8-0.2v0.6c-0.9,0.2-1.9,0.3-3,0.5l-0.1-0.7c0.2,0,0.4,0,0.6,0v-1.8h-0.7v0.6c0,0.7-0.1,1.4-0.1,2.1
					c-0.1,0.8-0.3,1.5-0.6,2.3l-0.7-0.7c0.2-0.6,0.4-1.2,0.5-1.9c0.1-0.7,0.1-1.3,0.1-1.9v-3.8h3.4c-0.1-0.2-0.1-0.3-0.2-0.5
					l0.9-0.1C88.9,76.5,89,76.7,89.1,76.9z M88.5,83.1v-0.6h0.8v0.6h2.8v0.7h-2.8v0.6h3.2V85h-7.2v-0.7h3.1v-0.6H86v-0.7H88.5z
					 M87.1,77.6h-1.5v0.5h1.5V77.6z M87.1,79.4v-0.6h-1.5v0.6H87.1z M89.3,77.6h-1.4v0.5h1.4V77.6z M87.9,79.4h1.4v-0.6h-1.4V79.4z
					 M90.1,79.4h1.5v-0.6h-1.5V79.4z"/>
				<path class="st3" d="M94.8,81.5c0,0.6,0,1.1-0.1,1.4c-0.1,0.5-0.2,0.8-0.3,1.1c-0.1,0.2-0.3,0.4-0.5,0.7L93.3,84
					c0.2-0.2,0.4-0.4,0.5-0.6c0.1-0.2,0.2-0.4,0.2-0.8c0-0.3,0.1-0.7,0.1-1.1L94.8,81.5z M95.7,77.3c0.3-0.3,0.6-0.6,0.9-1l0.7,0.4
					c-0.3,0.4-0.6,0.8-0.9,1.1c0.3,0.3,0.7,0.5,0.9,0.8l-0.6,0.6c-0.3-0.3-0.6-0.6-0.9-0.8c-0.5,0.4-1.2,0.9-2,1.3l-0.4-0.7
					c0.6-0.2,1.2-0.6,1.8-1c-0.4-0.3-0.9-0.6-1.4-0.9l0.5-0.5C94.9,76.7,95.3,77,95.7,77.3z M95.1,80.4v-1.2h0.8v1.2h1.5v0.8h-1.5
					v3.9h-0.8v-3.9h-1.6v-0.8H95.1z M97.2,80l-0.6,0.3c-0.2-0.3-0.3-0.6-0.5-0.9l0.6-0.2C96.9,79.5,97.1,79.7,97.2,80z M97,81.4v1.5
					c0,0.2,0.1,0.3,0.2,0.3h0.5v0.7h-0.7c-0.2,0-0.4-0.1-0.6-0.2c-0.1-0.1-0.2-0.3-0.2-0.6v-1.7H97z M101.2,80.3V81
					c-0.2,1-0.6,1.8-1.2,2.5c0.4,0.3,1,0.5,1.7,0.8l-0.4,0.8c-0.8-0.3-1.4-0.7-1.9-1c-0.5,0.4-1.2,0.7-2,1L97,84.4
					c0.8-0.2,1.4-0.5,1.8-0.9c-0.4-0.5-0.7-1.2-0.9-2l0.7-0.2c0.2,0.8,0.5,1.3,0.9,1.7c0,0,0.1-0.1,0.1-0.1c0.4-0.5,0.7-1.1,0.9-1.8
					h-2.8v-0.8H101.2z M100.7,78.7c0,0.2,0.1,0.3,0.3,0.3h0.6v0.8h-0.8c-0.3,0-0.6-0.1-0.7-0.2c-0.2-0.1-0.2-0.4-0.2-0.7v-1.6h-1
					c0,0.7-0.1,1.2-0.1,1.5c-0.1,0.4-0.3,0.9-0.7,1.4l-0.6-0.6c0.3-0.5,0.5-0.9,0.6-1.1c0.1-0.3,0.1-0.9,0.1-2h2.7V78.7z"/>
				<path class="st3" d="M104.5,76.9v-0.7h0.9v0.7h1.1v0.8h-1.1v0.4h-0.9v-0.4h-2v-0.8H104.5z M110.5,85.1h-0.8v-0.3h-6v0.3h-0.8
					v-6.7h7.7V85.1z M109.6,84v-4.8h-6V84H109.6z M109,80c-0.6,0.1-1.2,0.2-2,0.3v0.5h2.3v0.7H107v0.1c0.7,0.3,1.5,0.6,2.3,1.1
					l-0.3,0.8c-0.7-0.5-1.3-0.8-2-1.1v1.4h-0.8v-2.2c-0.2,0.4-0.4,0.7-0.6,1c-0.3,0.4-0.8,0.8-1.5,1.3l-0.4-0.7
					c0.6-0.4,1.1-0.7,1.3-1c0.1-0.2,0.3-0.3,0.4-0.5h-1.6v-0.7h2.3v-0.5c-0.5,0-1.1,0-1.7,0l-0.2-0.7c1.7,0,3.1-0.1,4.3-0.3L109,80z
					 M107.9,76.9v-0.7h0.9v0.7h2v0.8h-2v0.4h-0.9v-0.4h-1v-0.8H107.9z"/>
				<path class="st3" d="M114.6,82.6c-0.6,0.8-1.4,1.5-2.3,2.1l-0.6-0.8c0.8-0.5,1.6-1.1,2.3-1.9L114.6,82.6z M119.6,77.2
					c-1.1,0.2-2.4,0.4-4,0.5c-0.2,0.4-0.6,0.9-1,1.3c0.7,0,1.4-0.1,2-0.1c0.4-0.3,0.7-0.7,1.1-1.1l0.8,0.4c-1.2,1.2-2.3,2.2-3.4,2.9
					c1.3,0,2.4-0.1,3.3-0.2c-0.2-0.4-0.4-0.7-0.6-1.1l0.6-0.4c0.7,1,1.2,1.8,1.6,2.5l-0.8,0.6c-0.1-0.3-0.3-0.6-0.4-0.9
					c-0.6,0.1-1.4,0.2-2.3,0.2v2.2c0,0.4-0.1,0.6-0.2,0.7c-0.1,0.2-0.4,0.2-0.8,0.2h-0.8l-0.2-1c0.3,0.1,0.5,0.1,0.7,0.1
					c0.3,0,0.4-0.1,0.4-0.2v-2c-0.9,0.1-2,0.1-3.2,0.2l-0.2-0.9c0.6,0,1.1,0,1.6,0c0.7-0.5,1.4-1,2.1-1.6c-1,0.1-2,0.2-3.2,0.2
					l-0.2-0.8c0.3,0,0.7,0,1,0c0.5-0.4,0.9-0.8,1.2-1.3c-0.8,0-1.6,0-2.5,0l-0.2-0.8c2.9,0,5.3-0.2,7.3-0.6L119.6,77.2z M119.8,84
					l-0.6,0.7c-0.5-0.6-1.2-1.3-2.2-2.1l0.6-0.6C118.5,82.7,119.2,83.4,119.8,84z"/>
				<path class="st3" d="M122.9,76.5c-0.3,0.9-0.6,1.7-1,2.4c0.3,0,0.5-0.1,0.7-0.1c0.2-0.4,0.4-0.9,0.6-1.4l0.7,0.3
					c-0.6,1.5-1.3,2.7-1.9,3.6c0.5-0.1,0.9-0.1,1.2-0.2c-0.1-0.3-0.2-0.5-0.2-0.8l0.6-0.2c0.2,0.6,0.4,1.3,0.6,2l-0.7,0.2
					c0-0.2-0.1-0.3-0.1-0.5c-0.6,0.2-1.4,0.3-2.5,0.5l-0.2-0.8c0.2,0,0.4,0,0.6,0c0.3-0.5,0.7-1.1,1-1.8c-0.5,0.1-1,0.2-1.5,0.3
					l-0.2-0.8c0.2,0,0.3,0,0.5,0c0.4-0.8,0.8-1.7,1.1-2.8L122.9,76.5z M121.6,82.6c-0.1,1-0.1,1.7-0.3,2.4l-0.7-0.2
					c0.2-0.7,0.3-1.4,0.4-2.2L121.6,82.6z M122.9,84.6l-0.7,0.1c0-0.9-0.1-1.6-0.1-2.1l0.6-0.1C122.8,83,122.9,83.7,122.9,84.6z
					 M124.1,84l-0.7,0.2c-0.1-0.6-0.2-1.1-0.3-1.7l0.6-0.2C123.9,82.8,124,83.3,124.1,84z M127.1,77.3h1.9v0.7h-2.6
					c-0.2,0.7-0.4,1.3-0.7,1.9c0.8,0,1.5-0.1,2-0.3c-0.1-0.2-0.2-0.5-0.4-0.7l0.6-0.4c0.5,0.8,0.9,1.5,1.1,2l-0.7,0.5
					c-0.1-0.2-0.2-0.5-0.3-0.7c-0.2,0-0.4,0.1-0.6,0.1v3.4c0,0.2,0.1,0.3,0.3,0.3h0.4c0.1,0,0.1,0,0.2-0.2c0-0.1,0.1-0.6,0.1-1.6
					l0.7,0.2c-0.1,1.1-0.2,1.8-0.3,1.9c-0.1,0.2-0.3,0.3-0.6,0.3h-0.7c-0.2,0-0.4-0.1-0.6-0.2c-0.1-0.2-0.2-0.4-0.2-0.6v-3.5
					c-0.2,0-0.4,0.1-0.6,0.1c-0.1,1.2-0.2,2.1-0.4,2.7c-0.3,0.7-0.7,1.3-1.4,1.8l-0.5-0.7c0.6-0.4,0.9-0.9,1.2-1.4
					c0.2-0.4,0.3-1.2,0.4-2.2c-0.3,0-0.6,0.1-1,0.1l-0.2-0.9c0.2,0,0.4,0,0.6,0c0.3-0.6,0.6-1.2,0.8-1.9h-1.4v-0.7h2.1
					c-0.1-0.2-0.3-0.5-0.4-0.8l0.8-0.3C126.7,76.5,126.9,76.9,127.1,77.3z"/>
			</g>
		</g>
		<g>
			<path class="st3" d="M111.1,48.1c3.6,0,7.1-0.1,10.6,0c1.9,0.1,3,1.5,3.1,3.5c0.2,2.5-0.2,3.3-2.4,4.7c2.5,0.8,2.9,2.7,2.8,4.9
				c-0.1,2.3-1.4,3.8-3.6,4c-2.1,0.2-4.2,0.2-6.3,0.2c-1.4,0-2.7,0-4.2,0C111.1,59.6,111.1,53.8,111.1,48.1z M115.4,61.4
				c1.3,0,2.6,0,3.8,0c0.9,0,1.2-0.7,1.2-1.5c0-0.7-0.1-1.5-0.9-1.6c-1.4-0.1-2.7,0-4.1,0C115.4,59.4,115.4,60.4,115.4,61.4z
				 M115.4,54.8c1.3,0,2.5,0.1,3.6,0c0.8-0.1,1.2-0.7,1.2-1.5c0-0.7-0.3-1.3-1.1-1.4c-1.2-0.1-2.5,0-3.8,0
				C115.4,52.9,115.4,53.8,115.4,54.8z"/>
			<path class="st3" d="M69.3,56.7c-0.1,1.3-0.1,2.6-0.3,3.9c-0.3,2.6-1.5,4.2-4.1,4.5c-2.3,0.3-4.7,0.2-7,0c-2.3-0.3-3.6-1.7-3.8-4
				c-0.2-2.9-0.2-5.8,0-8.7c0.1-2.3,1.4-3.8,3.8-4.1c2.3-0.3,4.7-0.3,7-0.1c2.6,0.3,3.8,1.9,4.1,4.5C69.1,54,69.2,55.4,69.3,56.7z
				 M64.9,56.7C64.9,56.7,64.9,56.7,64.9,56.7c0-0.3,0-0.6,0-0.9c0-3.5-1-4.4-4.5-3.9c-1.2,0.2-1.8,0.7-2,1.9
				c-0.2,1.2-0.2,2.5-0.2,3.8c0,3.4,1,4.3,4.4,3.9c1.3-0.2,2-0.8,2.1-2.1C64.8,58.5,64.8,57.6,64.9,56.7z"/>
			<path class="st3" d="M97.8,54.4c0-2.2,0-4.3,0-6.4c1.4,0,2.8,0,4.2,0c0,5.8,0,11.6,0,17.4c-1.4,0-2.7,0-4.2,0c0-2.1,0-4.2,0-6.4
				c-2.3,0-4.4,0-6.6,0c0,2.1,0,4.2,0,6.4c-1.5,0-2.8,0-4.3,0c0-5.8,0-11.6,0-17.4c1.3,0,2.7,0,4.2,0c0,2.1,0,4.2,0,6.4
				C93.4,54.4,95.5,54.4,97.8,54.4z"/>
			<path class="st3" d="M126.4,65.5c1.7-6,3.3-11.7,4.9-17.5c2.2,0,4.4,0,6.7,0c1.6,5.8,3.2,11.5,4.9,17.5c-1.5,0-2.9,0-4.2,0
				c-0.2,0-0.5-0.4-0.6-0.6c-0.3-0.8-0.3-2-0.9-2.4c-0.6-0.4-1.8-0.2-2.7-0.2c-2.4,0-2.5,0-3.1,2.4c-0.2,0.7-0.4,1-1.2,0.9
				C128.9,65.4,127.7,65.5,126.4,65.5z M136.4,58.9c-0.6-2.2-1.1-4.3-1.7-6.4c-0.1,0-0.1,0-0.2,0c-0.6,2.1-1.2,4.2-1.9,6.4
				C133.9,58.9,135.1,58.9,136.4,58.9z"/>
			<path class="st3" d="M84.2,53.5c-1.3,0-2.3,0-3.4,0c-0.3,0-0.6-0.4-0.7-0.7c-0.4-1.1-1.4-1.5-3.1-1.2c-0.9,0.2-1.3,0.7-1.3,1.8
				c0,0.8,0.4,1.3,1.3,1.3c1.3,0.1,2.6,0.2,3.9,0.4c2.2,0.3,3.3,1.4,3.5,3.6c0.1,1.1,0.1,2.3-0.1,3.4c-0.2,1.6-1.3,2.7-2.9,3.1
				c-2.4,0.6-4.9,0.5-7.3,0c-1.3-0.3-2.2-1.1-2.4-2.5c-0.2-0.9-0.2-1.9-0.3-2.9c1.5,0,2.9,0,4.2,0c0.5,1.9,1.7,2.6,3.6,1.9
				c0.8-0.3,0.9-0.9,0.9-1.6c0-0.8-0.4-1.3-1.2-1.4c-0.9-0.1-1.8-0.2-2.7-0.2c-0.5,0-1-0.1-1.5-0.2c-1.9-0.4-3-1.4-3.2-3.3
				c-0.1-1.1-0.1-2.3,0.1-3.5c0.3-1.8,1.5-3,3.3-3.2c2-0.2,4-0.2,6,0c1.9,0.2,2.8,1.2,3,3.2C84.1,52,84.1,52.7,84.2,53.5z"/>
			<path class="st3" d="M47.2,65.4c-1.5,0-2.9,0-4.3,0c0-4.3,0-8.6,0-13.1c-1.5,0-2.9,0-4.4,0c0-1.5,0-2.9,0-4.3c4.3,0,8.6,0,13,0
				c0,1.4,0,2.7,0,4.2c-1.4,0-2.7,0-4.3,0C47.2,56.7,47.2,61,47.2,65.4z"/>
			<path class="st3" d="M104.4,47.9c1.4,0,2.8,0,4.2,0c0,5.8,0,11.6,0,17.4c-1.4,0-2.8,0-4.2,0C104.4,59.6,104.4,53.8,104.4,47.9z"
				/>
		</g>
	</g>
</g>
</svg>
