<?xml version="1.0" encoding="utf-8"?>
<!-- Generator: Adobe Illustrator 27.0.0, SVG Export Plug-In . SVG Version: 6.00 Build 0)  -->
<svg version="1.1" id="圖層_1" xmlns="http://www.w3.org/2000/svg" xmlns:xlink="http://www.w3.org/1999/xlink" x="0px" y="0px"
	 viewBox="0 0 400 16" style="enable-background:new 0 0 400 16;" xml:space="preserve">
<style type="text/css">
	.st0{fill:#FFFFFF;}
</style>
<path class="st0" d="M110.8,2l1.6,1.2c-0.1,0.1-0.4,0.3-0.7,0.3v11.6c0,0-0.3,0.4-1.3,0.4v-1.4h-7.5v1.1c0,0-0.1,0.5-1.3,0.5V2.1
	l1.4,0.6h7.2L110.8,2L110.8,2z M110.4,3.1h-7.5v5h7.5V3.1z M102.9,13.8h7.5V8.5h-7.5V13.8z"/>
<path class="st0" d="M129.5,4.9c-0.1,0.2-0.3,0.3-0.8,0.3h-5.6c1.4,2.9,4.1,5.3,6.7,6.5l0,0.2c-0.6,0.1-1,0.5-1.2,1.1
	c-2.4-1.6-4.5-4.3-5.7-7.8V12h1.2l0.8-1.1l1.5,1.2c-0.1,0.2-0.3,0.3-0.8,0.3h-2.7v3.1c0,0-0.1,0.4-1.3,0.4v-3.6h-3.3L118,12h3.4V6.6
	c-1.4,2.7-3.7,5-6.7,6.6l-0.2-0.2c2.6-1.9,4.8-4.8,5.9-7.7h-5.6l-0.1-0.4h6.7V1l2,0.2c0,0.2-0.2,0.4-0.7,0.4v3.3h4.2l0.9-1.2
	L129.5,4.9L129.5,4.9z"/>
<path class="st0" d="M144.2,5.9l1.4,1c-0.1,0.2-0.3,0.3-0.8,0.3h-8.2v0c-0.1,0-0.2,0-0.4,0h-2v1.6c1.8,0.8,2.3,1.7,2.3,2.3
	c0,0.5-0.3,0.8-0.6,0.8c-0.2,0-0.4-0.1-0.5-0.3c-0.1-0.8-0.7-1.8-1.2-2.5v6.4c0,0-0.2,0.4-1.2,0.4v-5.7c-0.6,1.2-1.3,2.3-2.2,3.3
	l-0.2-0.2c1-1.7,1.7-3.9,2.1-6.1h-1.9l-0.1-0.3h2.4V1l1.8,0.2c0,0.2-0.2,0.3-0.6,0.4v5.3h0.6l0.7-1l1.3,0.9h3.3V5.3h-2.8l-0.1-0.3
	h2.9V3.4H137L136.9,3h3.3V1l2,0.2c0,0.2-0.2,0.4-0.7,0.4V3h1.7l0.7-1l1.4,1c-0.1,0.2-0.3,0.3-0.7,0.3h-3.1v1.5h1.2l0.7-0.9l1.4,1
	c-0.1,0.2-0.3,0.3-0.7,0.3h-2.5v1.6h1.9L144.2,5.9L144.2,5.9z M130.9,2.2c1.1,1,1.5,1.9,1.5,2.6c0,0.6-0.3,1-0.6,1
	c-0.2,0-0.3-0.1-0.5-0.3c0.1-1-0.2-2.4-0.6-3.2L130.9,2.2L130.9,2.2z M137.2,2.5c-0.1,0.2-0.2,0.3-0.6,0.3c-0.5,1-1.1,2.2-1.7,3.1
	l-0.3-0.1c0.2-1,0.5-2.5,0.7-3.7L137.2,2.5L137.2,2.5z M142.8,8.5l0.6-0.7l1.5,1.1c-0.1,0.1-0.3,0.3-0.7,0.3v5
	c0,0.9-0.1,1.4-1.7,1.6c0-0.9-0.4-1.1-1.3-1.2v-0.2h1.5c0.2,0,0.3-0.1,0.3-0.2v-1.5h-4.3v2.8c0,0-0.1,0.4-1.2,0.4V7.9l1.3,0.6H142.8
	L142.8,8.5z M143,8.9h-4.3v1.5h4.3V8.9z M138.7,12.3h4.3v-1.6h-4.3V12.3z"/>
<path class="st0" d="M159.9,12.9l1.7,1.2c-0.1,0.2-0.3,0.3-0.8,0.3h-14l-0.1-0.4h6.7V3.7h-5.5l-0.1-0.3h10.1l0.9-1.2l1.7,1.2
	c-0.1,0.2-0.3,0.3-0.8,0.3h-5v10.3h4.2L159.9,12.9z"/>
<path class="st0" d="M174.4,1.8C174.4,1.9,174.2,2,174,2c-0.1,0-0.1,0-0.2,0c-0.8,1.2-2.1,2.9-3.4,4.2c2.4,0,5.5-0.1,8.8-0.2
	c-0.8-0.9-1.8-1.7-2.8-2.3l0.1-0.2c4,1.1,5.2,2.9,5.2,4c0,0.5-0.3,0.8-0.6,0.8c-0.2,0-0.3-0.1-0.5-0.2c-0.2-0.6-0.6-1.2-1.1-1.8
	c-2.7,0.4-6.2,0.7-11.2,1.2c-0.1,0.2-0.3,0.3-0.4,0.3l-0.7-1.7c0.6,0,1.8,0,2.8,0c0.9-1.6,1.9-3.7,2.5-5.2L174.4,1.8L174.4,1.8z
	 M178,9.2l0.6-0.8l1.6,1.2c-0.1,0.1-0.4,0.3-0.7,0.4v5.4c0,0-0.4,0.4-1.3,0.4v-1h-7.6v0.7c0,0-0.2,0.5-1.3,0.5V8.6l1.4,0.6L178,9.2
	L178,9.2z M170.6,14.4h7.6V9.6h-7.6V14.4z"/>
<path class="st0" d="M183,5.2c1.7,0.4,2.2,1.1,2.2,1.7c0,0.4-0.3,0.7-0.6,0.7c-0.2,0-0.3-0.1-0.5-0.2c-0.1-0.7-0.7-1.5-1.2-2.1
	L183,5.2z M183.7,11.2c0.2,0,0.2,0,0.4-0.3c0.1-0.2,0.2-0.5,2.2-6.3l0.3,0.1c-0.4,1.8-1.3,5.1-1.4,5.9c-0.1,0.4-0.2,0.9-0.2,1.3v0.1
	c0,0.7,0.4,1.4,0.4,2.6c0,0.3,0,1.4-0.9,1.4c-0.3,0-0.5-0.3-0.6-0.8c0.1-0.6,0.1-1.2,0.1-1.8c0-1.6-0.3-1.7-1.1-1.7v-0.4
	C183.5,11.2,183.7,11.2,183.7,11.2L183.7,11.2L183.7,11.2z M183.5,1.2c1.8,0.3,2.4,1.1,2.4,1.7c0,0.4-0.3,0.7-0.6,0.7
	c-0.1,0-0.3-0.1-0.5-0.2c-0.2-0.7-0.8-1.5-1.4-2L183.5,1.2L183.5,1.2z M187.9,9.3V7.1c-0.1,0-0.1,0-0.2,0c-0.3,0.7-0.7,1.4-1.1,1.9
	l-0.3-0.1c0.3-0.5,0.5-1.5,0.7-2.4l1,0.3v-1L187.3,6c-0.1,0.2-0.2,0.3-0.4,0.3l-0.4-1c0.2,0,0.5,0,0.9,0c0.5-0.8,1.1-2,1.5-2.8
	l1,0.5v0h2.6l0.6-0.7l0.8,0.5l0.1-0.1c0.3,0,0.5,0.1,0.7,0.2c0.2-0.5,0.5-1.2,0.7-1.9l1.3,0.5c-0.1,0.2-0.2,0.2-0.5,0.2
	c-0.3,0.5-0.7,1-1.1,1.4c0.3,0.2,0.4,0.4,0.4,0.6c0,0.3-0.2,0.5-0.4,0.5c-0.1,0-0.2,0-0.3-0.1c-0.1-0.3-0.3-0.7-0.6-1
	c-0.1,0.1-0.3,0.2-0.6,0.2h-3.5l0-0.1c-0.1,0-0.2,0-0.4,0c-0.4,0.6-1.1,1.4-1.6,2c0.5,0,0.9,0,1.4-0.1c-0.1-0.2-0.2-0.5-0.4-0.6
	l0.2-0.1c0.9,0.4,1.2,0.9,1.2,1.2c0,0.3-0.2,0.5-0.5,0.5c-0.1,0-0.3-0.1-0.4-0.2c0-0.1,0-0.3-0.1-0.5l-0.6,0.1V9
	c0,0.1-0.3,0.3-0.8,0.3L187.9,9.3L187.9,9.3z M186.6,2.7c0.3,0.1,0.5,0.1,0.7,0.2c0.2-0.5,0.5-1.3,0.7-1.9l1.3,0.5
	c-0.1,0.2-0.2,0.2-0.5,0.2c-0.3,0.5-0.7,1-1.1,1.5c0.3,0.2,0.4,0.4,0.4,0.6c0,0.3-0.2,0.5-0.4,0.5c-0.1,0-0.2,0-0.3-0.1
	c-0.1-0.4-0.4-1-0.8-1.2L186.6,2.7L186.6,2.7z M195.4,12.8l0.5-0.6l1.3,1c-0.1,0.1-0.3,0.2-0.6,0.2c-0.6,2.4-1.5,2.5-2.9,2.5
	c0-0.6-0.2-0.9-1.9-1.1l0-0.3c0.7,0,2,0.1,2.4,0.1c0.3,0,0.5,0,0.6-0.1c0.2-0.1,0.5-0.7,0.7-1.4h-6.9c-0.1,0.3-0.2,0.5-0.3,0.7
	c-0.1,0.1-0.3,0.1-0.5,0.1c-0.2,0-0.4-0.1-0.7-0.1c0.3-1,0.8-2.3,1-3.1l1.3,0.6h5.6v-1.2h-7.6l-0.1-0.3h7.6l0.5-0.6l0.1,0.1V7
	c-0.1,0-0.2,0.1-0.4,0.1c-0.2,0.7-0.6,1.4-1,1.8l-0.3-0.1c0.2-0.6,0.5-1.5,0.6-2.3l1.1,0.3v-1L194.5,6c-0.1,0.2-0.2,0.3-0.4,0.3
	l-0.4-1.1h1.1c0.5-0.8,1.1-2,1.4-2.8l1.3,0.7c0,0.1-0.2,0.2-0.3,0.2c-0.1,0-0.2,0-0.3,0c-0.4,0.6-1.1,1.4-1.7,2c0.5,0,1,0,1.6,0
	c-0.1-0.3-0.3-0.5-0.4-0.7l0.2-0.1c1,0.4,1.3,0.9,1.3,1.3c0,0.3-0.2,0.5-0.5,0.5c-0.1,0-0.3-0.1-0.4-0.2c0-0.1,0-0.3-0.1-0.5
	l-0.7,0.1V9c0,0-0.2,0.3-0.8,0.3l1.2,0.8c-0.1,0.1-0.3,0.2-0.5,0.2v1.5c0,0-0.4,0.3-1.2,0.3v-0.5H189c-0.1,0.3-0.2,0.7-0.3,1.1
	L195.4,12.8L195.4,12.8z M189.1,6.5c0.8,0.5,1,0.9,1,1.3c0,0.3-0.2,0.5-0.5,0.5c-0.1,0-0.3-0.1-0.4-0.2c0-0.5-0.2-1.2-0.4-1.6
	L189.1,6.5L189.1,6.5z M193.7,1.8c-0.1,0.2-0.3,0.3-0.7,0.3h-2.7l-0.1-0.3h1.9l0.5-0.7L193.7,1.8L193.7,1.8z M192.6,3.4l1,0.7
	c-0.1,0.2-0.3,0.3-0.7,0.3h-2.5L190.3,4h1.8L192.6,3.4z M192.2,5.2l0.5-0.6l1,0.6c-0.1,0.2-0.3,0.3-0.7,0.3h-2.6l-0.1-0.4L192.2,5.2
	L192.2,5.2z M193.3,8.7c0,0.1-0.5,0.3-0.8,0.3h-0.1V8.4h-1.2v0.6c0,0.1-0.3,0.3-0.8,0.3h-0.1V5.9l1.1,0.5h0.9l0.4-0.5l1.1,0.8
	c-0.1,0.1-0.2,0.2-0.4,0.2V8.7L193.3,8.7z M191.3,8h1.2V6.7h-1.2V8z M196.7,6.5c1,0.5,1.3,1.1,1.3,1.6c0,0.4-0.2,0.6-0.5,0.6
	c-0.1,0-0.3-0.1-0.4-0.2c0-0.6-0.3-1.4-0.6-1.9L196.7,6.5L196.7,6.5z"/>
<path class="st0" d="M199.9,11c0.2,0.7,0.2,1.3,0.2,1.8c0,1.4-0.6,1.9-1,1.9c-0.3,0-0.5-0.2-0.5-0.5c0-0.1,0.1-0.3,0.2-0.5
	c0.5-0.5,0.8-1.4,0.8-2.8H199.9L199.9,11z M203.9,8.9l0.5-0.6l1.3,1c-0.1,0.1-0.3,0.2-0.6,0.2c-0.1,3.6-0.4,5.4-1,5.9
	c-0.4,0.3-0.8,0.4-1.5,0.4c0-0.8-0.3-0.8-1.3-1l0-0.3c0.4,0,1.2,0,1.6,0c0.3,0,0.4,0,0.5-0.1c0.2-0.2,0.4-1,0.5-2.4
	c-0.1,0.1-0.2,0.1-0.3,0.1c-0.1,0-0.2-0.1-0.3-0.1c-0.1-0.5-0.5-1.3-0.9-1.6l0.1-0.1c0.9,0.3,1.3,0.7,1.5,1c0-0.6,0.1-1.3,0.1-2.1
	h-3.3v0.5c0,0.1-0.4,0.4-0.9,0.4h-0.2V1.7l1.3,0.5h2.6l0.7-0.9l1.4,0.9c-0.1,0.2-0.3,0.3-0.8,0.3H203v1.8h0.4l0.6-0.8l1.2,0.9
	c-0.1,0.2-0.3,0.3-0.7,0.3H203v1.9h0.4l0.6-0.8l1.2,0.9c-0.1,0.2-0.3,0.3-0.7,0.3H203v1.9L203.9,8.9L203.9,8.9z M200.7,10.9
	c0.6,0.8,0.9,1.5,0.9,2.1c0,0.7-0.3,1.1-0.6,1.1c-0.1,0-0.3-0.1-0.4-0.2c0.2-0.9,0.1-2.1-0.1-2.9L200.7,10.9L200.7,10.9z M201.9,2.6
	h-1.2v1.9h1.2V2.6z M201.9,6.6V4.8h-1.2v1.9H201.9z M200.7,7v1.9h1.2V7H200.7z M201.6,10.6c1,0.7,1.3,1.5,1.3,2
	c0,0.4-0.2,0.7-0.5,0.7c-0.1,0-0.2-0.1-0.3-0.2c0-0.8-0.3-1.8-0.7-2.4L201.6,10.6z M213.9,4.1c-0.1,0.2-0.3,0.3-0.8,0.3h-2.3
	c0.8,0.8,2.1,1.4,3.1,1.7l0,0.2c-0.4,0.1-0.7,0.4-0.9,0.9c-0.4-0.2-0.8-0.5-1.2-0.8c-0.1,0.1-0.2,0.1-0.3,0.1v2c0,0-0.3,0.3-1.1,0.3
	V8.3h-2.4v0.3c0,0-0.2,0.4-1.1,0.4V6.2c-0.6,0.5-1.2,0.9-1.9,1.3L205,7.2c1.1-0.8,2-1.8,2.6-2.9h-2.2L205.3,4h2.5
	c0.2-0.4,0.4-0.9,0.6-1.4c-0.8,0.1-1.7,0.1-2.5,0.1l-0.1-0.3c2-0.3,4.6-0.9,5.9-1.4l1.2,1.2c-0.1,0-0.2,0.1-0.3,0.1
	c-0.1,0-0.3,0-0.5-0.1c-0.7,0.1-1.5,0.2-2.4,0.3c-0.2,0.5-0.4,1-0.7,1.5h2.7l0.8-0.9L213.9,4.1L213.9,4.1z M211.9,9.5l0.5-0.6l1.4,1
	c-0.1,0.1-0.4,0.2-0.6,0.3v4.1c0,0.9-0.2,1.5-1.6,1.6c0-0.9-0.4-1.1-1.4-1.2v-0.2h1.6c0.2,0,0.3-0.1,0.3-0.2V9.9h-5.1v5.6
	c0,0-0.1,0.4-1.1,0.4V9l1.2,0.5L211.9,9.5L211.9,9.5z M211.6,5.9c-0.4-0.5-0.8-1-1.1-1.5h-1.6c-0.3,0.5-0.7,0.9-1.1,1.3l0.6,0.3h2.2
	l0.4-0.5L211.6,5.9L211.6,5.9z M210.2,13.5h-1.5v0.6c0,0-0.2,0.3-0.9,0.3v-3.8l1,0.4h1.3l0.4-0.5l1.1,0.8c-0.1,0.1-0.3,0.2-0.5,0.2
	v2.2c0,0-0.3,0.3-0.9,0.3L210.2,13.5L210.2,13.5z M208.2,7.9h2.4V6.3h-2.4V7.9z M210.2,11.3h-1.5v1.8h1.5V11.3z"/>
<path class="st0" d="M214.7,9.2c1-1.9,2-5.2,2.6-8.2l1.9,0.5c-0.1,0.2-0.2,0.3-0.6,0.3c-0.4,1.2-0.8,2.3-1.2,3.4l0.7,0.3
	c0,0.1-0.2,0.3-0.5,0.3v9.8c0,0.1-0.5,0.4-1,0.4h-0.2V7.2c-0.4,0.8-0.9,1.6-1.4,2.2L214.7,9.2L214.7,9.2z M222.9,10l1.3,1
	c-0.1,0.1-0.3,0.2-0.6,0.2c-0.1,3.9-0.3,4.5-2.2,4.5c0-0.7-0.3-0.9-1.1-1v-0.2c0.3,0,1,0,1.3,0c0.2,0,0.3,0,0.4-0.1
	c0.2-0.2,0.3-1.3,0.4-3.5H221c-0.4,1.9-1.1,3.8-2.7,4.9l-0.2-0.3c1.4-1.5,1.8-4.1,1.9-6.6h-1.5l-0.1-0.4h2.3V6.4l1.8,0.2
	c0,0.2-0.2,0.3-0.6,0.4v1.7h0.7l0.7-0.9l1.4,1c-0.1,0.2-0.3,0.3-0.7,0.3h-2.2c-0.1,0.1-0.3,0.2-0.6,0.2c0,0.5-0.1,0.9-0.2,1.4h1.3
	L222.9,10L222.9,10z M230,4.5c-0.1,0.2-0.3,0.3-0.7,0.3h-0.2c-0.2,2.6-0.7,5-1.7,6.9c0.7,1.2,1.6,2.2,2.7,2.9l-0.1,0.1
	c-0.6,0.1-1,0.4-1.2,1c-0.9-0.8-1.6-1.9-2.1-3c-0.8,1.2-1.8,2.2-3.2,3l-0.1-0.2c1.3-1.1,2.3-2.4,3-3.9c-0.5-1.6-0.9-3.3-1-5.2
	c-0.3,0.6-0.7,1.2-1.1,1.7l-0.3-0.1c0.3-0.6,0.5-1.3,0.8-2.1c-0.1,0.1-0.3,0.2-0.6,0.2h-5.4l-0.1-0.3h2.3V3.6H219l-0.1-0.3h1.9V1
	l1.8,0.2c0,0.2-0.2,0.3-0.6,0.4v1.7h0.5l0.7-0.9l1.3,1c-0.1,0.2-0.3,0.3-0.7,0.3H222v2.3h0.7l0.7-1l1.3,1c0.4-1.5,0.6-3.2,0.8-4.9
	l1.9,0.4c0,0.2-0.2,0.3-0.6,0.3c-0.2,1-0.4,1.9-0.7,2.8h1.8l0.7-1L230,4.5L230,4.5z M226,4.8c-0.1,0.4-0.3,0.8-0.5,1.2
	c0.2,1.7,0.6,3.2,1.2,4.6c0.6-1.7,0.9-3.6,1-5.8H226z"/>
<path class="st0" d="M241.4,12.1c0,0-0.1,0.3-1,0.3V9.9c-0.1,0.3-0.3,0.4-0.5,0.4c-0.2,0-0.3-0.1-0.5-0.2c0-0.7-0.4-1.7-0.9-2.3v7.6
	c0,0-0.2,0.4-1.2,0.4V9c-0.5,1.1-1.1,2.2-1.9,3.2l-0.2-0.2c1-1.9,1.6-4.4,1.9-6.7h-1.8l-0.1-0.3h2.1V1l1.9,0.2
	c0,0.2-0.2,0.4-0.7,0.4v3.3h0.3l0.7-1l1.2,1c-0.1,0.2-0.3,0.3-0.7,0.3h-1.5v2.3c1.2,0.6,1.7,1.3,1.9,1.8V6.4l1,0.5h1l0.4-0.5
	l1.2,0.8c-0.1,0.1-0.3,0.2-0.5,0.3v4.1c0,0-0.3,0.3-1,0.3v-0.8h-1.2L241.4,12.1L241.4,12.1z M248,14.9l0.8-1l1.5,1
	c-0.1,0.2-0.3,0.3-0.8,0.3h-9.8l-0.1-0.3L248,14.9L248,14.9z M248.9,5.3l1.2,1.1c-0.1,0.1-0.3,0.2-0.6,0.2c-0.2,1.5-0.5,2.9-1.2,4.2
	c0.5,0.7,1.2,1.2,1.9,1.6l0,0.2c-0.5,0.1-0.9,0.4-1.1,1c-0.6-0.5-1.1-1.1-1.4-1.7c-0.5,0.7-1.2,1.4-2.1,1.9l-0.1-0.3
	c0.8-0.7,1.4-1.5,1.8-2.5c-0.5-1.2-0.8-2.8-1-4.7h-0.5c-0.1,4.7-0.3,6.7-0.9,7.3c-0.4,0.4-0.8,0.6-1.6,0.6c0-0.6-0.1-0.9-1.4-1.1
	c0-0.1,0-0.2,0-0.3c0.5,0,1.3,0.1,1.6,0.1c0.3,0,0.4,0,0.5-0.2c0.4-0.4,0.6-2.7,0.7-7.4h-1.3L243.3,6c-0.2,0.1-0.4,0.1-0.6,0.1
	c-0.2,0-0.4,0-0.7-0.1c0.3-1.1,0.7-2.5,0.9-3.4h-2.7L240,2.2h7.9l0.8-1l1.4,1c-0.1,0.2-0.3,0.3-0.8,0.3h-5.3
	c-0.2,0.7-0.4,1.6-0.6,2.4h1.1l0.6-0.7l1.4,1.1c-0.1,0.1-0.3,0.2-0.6,0.3V6h2.4L248.9,5.3L248.9,5.3z M242.6,7.2h-1.2v3.5h1.2V7.2z
	 M246.7,6.4c0.2,1.4,0.6,2.5,1.1,3.5c0.3-1.1,0.5-2.3,0.6-3.5H246.7z"/>
<path class="st0" d="M256.2,9.1l0.6-0.7l1.5,1.1c-0.1,0.1-0.4,0.3-0.7,0.3v5.4c0,0-0.3,0.4-1.3,0.4v-1.1h-3.1v0.9
	c0,0-0.1,0.4-1.3,0.4V8.5l1.3,0.6L256.2,9.1L256.2,9.1z M253.3,14.1h3.1V9.4h-3.1V14.1z M255.9,6.8v0.6c0,0-0.2,0.4-1.3,0.4V1.4
	l1.3,0.6h5.4l0.5-0.7l1.6,1.1c-0.1,0.1-0.4,0.3-0.7,0.3v4.7c0,0-0.4,0.4-1.3,0.4v-1L255.9,6.8L255.9,6.8z M261.5,2.3h-5.7v4.1h5.7
	V2.3z M264.5,8.3l1.5,1.1c-0.1,0.1-0.3,0.3-0.7,0.3v5.5c0,0-0.4,0.4-1.3,0.4v-1.2h-3.3v0.9c0,0-0.1,0.4-1.3,0.4V8.5l1.3,0.6h3.1
	L264.5,8.3L264.5,8.3z M260.8,14.1h3.3V9.4h-3.3V14.1z"/>
<path class="st0" d="M267.1,7.6c2.7-1,5.7-2.9,6.8-4.4l1.9,0.5c-0.1,0.2-0.2,0.3-0.7,0.3c1.7,1,4.3,1.8,7.1,2.2v0.2
	c-0.6,0.2-0.8,0.7-0.9,1.1c-0.6-0.2-1.1-0.3-1.7-0.5l1.2,0.8c-0.1,0.1-0.3,0.2-0.5,0.3v2.5c0,0-0.4,0.4-1.2,0.4v-0.5h-8.8
	c0,0.3,0,0.4-0.4,0.6l1.3,0.5h6.9l0.5-0.6l1.4,0.9c-0.1,0.1-0.3,0.2-0.5,0.2v3.3c0,0-0.4,0.4-1.3,0.4V15h-7.1v0.4
	c0,0-0.2,0.4-1.3,0.4V11c-0.2,0.1-0.4,0.1-0.8,0.1V7.2c-0.6,0.2-1.2,0.4-1.9,0.6L267.1,7.6L267.1,7.6z M271.3,2.9h-3.9l-0.1-0.4h4
	V0.9l1.9,0.1c0,0.2-0.1,0.3-0.6,0.4v1.1h4.2V0.9l1.9,0.1c0,0.2-0.1,0.3-0.6,0.4v1.1h1.9l0.8-1l1.5,1.1c-0.1,0.2-0.3,0.3-0.8,0.3H278
	v1c0,0.1-0.4,0.3-1.1,0.3h-0.2V2.9h-4.2v1c0,0-0.1,0.3-1.3,0.3L271.3,2.9L271.3,2.9z M278.9,7.5l0.5-0.6c-1.8-0.7-3.4-1.6-4.5-2.7
	c-1.2,0.9-3.2,2.1-5.4,2.9l1,0.4H278.9L278.9,7.5z M270.3,7.8v2.2h3.8V7.8H270.3z M271.3,8c1.2,0.4,1.6,1,1.6,1.4
	c0,0.3-0.3,0.6-0.5,0.6c-0.2,0-0.3-0.1-0.5-0.2c0-0.5-0.4-1.2-0.8-1.6L271.3,8z M278.2,11.9h-7.1v1.2h7.1V11.9z M271.1,14.7h7.1
	v-1.2h-7.1V14.7z M272.1,6.5L272,6.2h3.2l0.6-0.7l1.2,0.8c-0.1,0.2-0.3,0.3-0.7,0.3H272.1L272.1,6.5z M278.6,8.6
	c-0.1,0.1-0.2,0.2-0.4,0.2c-0.1,0-0.1,0-0.2,0c-0.3,0.4-0.8,0.9-1.2,1.3h2.3V7.8h-3.8V10h1.1c0.3-0.6,0.6-1.4,0.8-2L278.6,8.6
	L278.6,8.6z"/>
<path class="st0" d="M296.7,10.7l1.6,1.1c-0.1,0.2-0.3,0.3-0.8,0.3h-6.2v3.4c0,0-0.2,0.4-1.3,0.4v-3.8h-6.7l-0.1-0.4h6.8v-1.6
	l0.8,0.1c1.2-1,1.9-2.5,2.2-3.8l1.7,0.6c-0.1,0.2-0.2,0.3-0.6,0.2c-0.1,0.3-0.3,0.6-0.5,0.9c2,0.3,2.6,1.2,2.6,1.9
	c0,0.4-0.3,0.7-0.6,0.7c-0.1,0-0.3,0-0.5-0.2c-0.3-0.7-1-1.5-1.8-2.1c-0.5,0.7-1.2,1.3-2,1.8l0.4,0c0,0.2-0.2,0.3-0.6,0.4v1.1h4.6
	L296.7,10.7L296.7,10.7z M287.3,3.2h-3.9l-0.1-0.4h4V1l1.9,0.1c0,0.2-0.1,0.3-0.6,0.4v1.3h4.1V1l1.9,0.1c0,0.2-0.1,0.3-0.6,0.4v1.3
	h1.8l0.8-1.1l1.5,1.1c-0.1,0.2-0.3,0.3-0.8,0.3H294v1.2c0,0-0.1,0.4-1.3,0.4V3.1h-4.1v1.3c0,0-0.2,0.3-1.3,0.3L287.3,3.2L287.3,3.2z
	 M295.6,4.6l1.5,1.1C297,5.9,296.8,6,296.4,6h-11.8l-0.1-0.4h5.6V3.9l1.9,0.2c0,0.2-0.2,0.3-0.6,0.4v1.2h3.5L295.6,4.6L295.6,4.6z
	 M284.4,10.7c1.3-1.1,2.3-2.9,2.7-4.3l1.7,0.7c-0.1,0.2-0.2,0.3-0.6,0.2c-0.2,0.3-0.3,0.6-0.6,0.9c1.6,0.4,2.1,1.1,2.1,1.6
	c0,0.4-0.3,0.7-0.6,0.7c-0.2,0-0.3-0.1-0.5-0.2c-0.1-0.6-0.7-1.3-1.2-1.8c-0.7,0.9-1.7,1.8-2.9,2.4L284.4,10.7L284.4,10.7z"/>
</svg>
