<svg width="173" height="103" viewBox="0 0 173 103" fill="none" xmlns="http://www.w3.org/2000/svg">
<path d="M172.48 0.259766H0V102.91H172.48V0.259766Z" fill="#E8D0A4"/>
<path d="M18.96 32.0801H155.56" stroke="#581804" stroke-width="0.25" stroke-miterlimit="10"/>
<path d="M27.11 15.0596V15.4196C27.28 18.7096 27.95 20.8596 29.7 22.0396V22.1896C28.91 22.4196 28.44 23.1496 28.31 24.2296C27.46 23.0596 27.14 20.7296 27 17.9696H26.99C26.76 20.5096 26.1 22.6296 23.76 24.2096L23.63 24.0296C24.01 23.5396 24.32 23.0296 24.57 22.5096C24.5 22.5196 24.43 22.5196 24.34 22.5196H19.98V23.4696C19.98 23.5696 19.54 23.9596 18.81 23.9596H18.55V12.6896L20.14 13.3296H22.39L23.14 12.2796L24.53 13.3596C24.45 13.4996 24.27 13.5396 23.97 13.5396H19.97V22.3196H22.72L23.48 21.2596L24.69 22.1896C25.46 20.2996 25.5 18.1596 25.5 15.7996C25.1 16.6296 24.61 17.3496 24.02 17.9196L23.87 17.8296C24.35 16.5096 24.69 14.1796 24.76 12.0596L26.96 12.5196C26.92 12.6996 26.83 12.7996 26.51 12.8396C26.33 13.5696 26.13 14.2296 25.89 14.8596H27.57L28.34 14.0296L29.67 15.3996C29.57 15.5196 29.46 15.5496 29.21 15.5696C28.85 16.2896 28.26 17.4096 27.75 18.0496L27.63 17.9896C27.69 17.2496 27.71 15.8996 27.71 15.0696H27.08L27.11 15.0596ZM22.09 20.8596C22.08 20.9496 21.7 21.1396 21.45 21.1396H21.33V20.7196H21.03V21.1396C21.03 21.1996 20.79 21.4096 20.41 21.4096H20.29V17.8096L21.18 18.2196H21.25L21.54 17.8396L22.36 18.4596C22.32 18.5196 22.21 18.5896 22.09 18.6096V20.8596ZM22.88 14.2396L24.09 15.1396C24.03 15.2196 23.9 15.3196 23.71 15.3596V17.1296C23.71 17.1296 23.39 17.4396 22.54 17.4396V16.9696H21.98V17.1896C21.98 17.2796 21.61 17.5496 21.03 17.5496H20.83V14.3096L22.14 14.8596H22.45L22.88 14.2596V14.2396ZM21.04 20.5096H21.34V18.4196H21.04V20.5096ZM21.99 16.7496H22.55V15.0496H21.99V16.7496ZM24.31 20.8596C24.31 20.9496 23.91 21.1396 23.64 21.1396H23.51V20.7196H23.18V21.0296C23.18 21.0896 22.93 21.2996 22.54 21.2996H22.41V17.7996L23.34 18.2196H23.44L23.75 17.8096L24.63 18.4596C24.58 18.5196 24.46 18.5896 24.32 18.6296V20.8596H24.31ZM23.18 20.5096H23.51V18.4196H23.18V20.5096Z" fill="#844E1A"/>
<path d="M35.04 16.0992C35.19 16.6592 35.25 17.1492 35.25 17.5492C35.25 18.7892 34.63 19.2792 34.11 19.2792C33.81 19.2792 33.55 19.1292 33.46 18.8692L33.36 19.3992C33.29 19.8092 33.23 20.2592 33.23 20.5892V20.6692C33.25 21.3892 33.77 21.8092 33.77 22.9192C33.77 23.8692 33.16 24.1892 32.66 24.1892C32.36 24.1892 32.03 24.0392 31.92 23.5092C32.03 22.9092 32.07 22.3192 32.07 21.8192C32.07 20.6792 31.89 20.4792 31.21 20.4092V20.1792C31.6 20.1792 31.73 20.1692 31.73 20.1692C31.91 20.1792 31.96 20.1792 32.09 19.9092C32.28 19.5492 32.33 19.4592 33.11 17.2692C32.94 17.5292 32.67 17.7092 32.37 17.7092C32.13 17.7092 31.91 17.6092 31.7 17.3492C31.69 16.6992 31.45 15.9192 31.07 15.4392L31.15 15.3792C32.84 15.6492 33.32 16.3492 33.23 16.9292L34.24 14.1392L34.42 14.1892C34.18 15.2392 33.84 16.8692 33.6 18.0592L33.64 18.0092C34.19 17.6892 34.71 17.0392 34.88 16.0992H35.02H35.04ZM31.65 12.1592C33.33 12.4192 33.89 13.0892 33.89 13.6692C33.89 14.1692 33.46 14.5992 32.99 14.5992C32.75 14.5992 32.51 14.4992 32.31 14.2392C32.24 13.5492 31.96 12.7292 31.57 12.2192L31.65 12.1592ZM40.56 12.3492L42.44 12.5392C42.43 12.6792 42.36 12.7592 42.08 12.7992V23.6392C42.08 23.8092 41.41 24.1992 40.87 24.1992H40.56V19.0392C40.48 19.0692 40.39 19.0892 40.31 19.0892C40.08 19.0892 39.85 18.9592 39.67 18.6792C39.69 18.5292 39.69 18.3592 39.69 18.1892C39.69 17.5792 39.58 16.8792 39.4 16.3492V23.5092C39.4 23.6592 38.77 24.0292 38.26 24.0292H37.97V18.9992C37.9 19.0292 37.84 19.0392 37.77 19.0392C37.54 19.0392 37.33 18.9092 37.15 18.6292C37.19 18.4092 37.21 18.1792 37.21 17.9392C37.21 17.4192 37.13 16.8592 36.98 16.4192V17.2492C36.96 19.9992 36.34 22.6992 33.85 24.1792L33.74 24.0792C35.18 22.2492 35.48 19.7892 35.48 17.2592V12.3592L37.47 12.5292C37.46 12.7192 37.34 12.7992 36.98 12.8492V16.1692H37.02C37.42 16.3692 37.73 16.5992 37.97 16.8392V12.7292L39.76 12.9092C39.75 13.0492 39.68 13.1292 39.4 13.1692V16.0192C39.91 16.2792 40.28 16.5592 40.55 16.8292V12.3692L40.56 12.3492Z" fill="#844E1A"/>
<path d="M53.29 17.9995L55.05 19.3595C54.97 19.4795 54.81 19.5996 54.53 19.6696V23.6396C54.53 23.6396 54.07 24.1396 52.74 24.1396V23.1795H49.22V23.6996C49.22 23.8196 48.7 24.2296 47.82 24.2296H47.5V19.9796C46.54 20.4396 45.45 20.8395 44.27 21.1495L44.22 21.0195C45.95 20.2495 47.45 19.1795 48.66 17.8795C48.43 17.9195 48.17 17.8495 47.92 17.6195C47.84 17.0095 47.53 16.3496 47.09 15.9196C46.32 16.5996 45.44 17.1695 44.51 17.5595L44.43 17.4695C45.89 16.2795 47.18 14.0595 47.7 12.0195L50.06 12.5295C50.01 12.6695 49.92 12.7495 49.58 12.7495C49.39 13.1095 49.19 13.4695 48.95 13.8095H51.08L52.14 12.7596L53.75 14.3896C53.65 14.5396 53.54 14.5895 53.19 14.6295C52.24 16.3395 50.96 17.7895 49.3 18.9295L49.4 18.9695H52.63L53.31 18.0096L53.29 17.9995ZM48.8 13.9995C48.41 14.5595 47.94 15.0995 47.43 15.5895C49 15.6795 49.48 16.3795 49.42 16.9895C50.15 16.0695 50.74 15.0696 51.17 14.0096H48.8V13.9995ZM49.22 22.9595H52.74V19.1595H49.22V22.9595Z" fill="#844E1A"/>
<path d="M60.41 18.7396L61.02 17.8696L62.65 19.1096C62.58 19.2096 62.44 19.3296 62.19 19.3796V23.4796C62.19 23.4796 61.77 23.9696 60.54 23.9696V22.8696H59.35V23.5496C59.35 23.5496 59.11 24.1996 57.72 24.1996V18.0296L59.41 18.7496H60.42L60.41 18.7396ZM59.34 22.6596H60.53V18.9496H59.34V22.6596ZM61.36 16.7196V17.0496C61.36 17.0996 61.11 17.6996 59.71 17.6996V12.2596L61.44 12.9796H63.94L64.56 12.0996L66.23 13.3496C66.16 13.4496 66 13.5696 65.75 13.6296V17.1296C65.75 17.1296 65.31 17.6196 64.06 17.6196V16.7196H61.37H61.36ZM64.05 13.1896H61.36V16.5196H64.05V13.1896ZM66.62 17.8596L68.29 19.1096C68.22 19.2096 68.06 19.3296 67.81 19.3896V23.5996C67.81 23.5996 67.35 24.0096 66.12 24.0096V22.8596H64.72V23.5396C64.72 23.5396 64.48 24.1896 63.09 24.1896V18.0196L64.78 18.7396H66.01L66.63 17.8596H66.62ZM64.72 22.6596H66.12V18.9496H64.72V22.6596Z" fill="#844E1A"/>
<path d="M83.81 14.8298L84.95 15.9898C84.87 16.0798 84.78 16.0999 84.57 16.1299C84.24 16.4199 83.72 16.8099 83.27 17.0399L83.55 17.2599C83.47 17.3699 83.34 17.4099 83.08 17.4099H81.14C81.31 18.2799 81.62 18.9898 82.01 19.5598C82.49 18.9898 83 18.2599 83.25 17.7899L84.56 18.7698C84.52 18.8398 84.45 18.8899 84.34 18.8899C84.29 18.8899 84.24 18.8798 84.19 18.8698C83.67 19.1698 82.93 19.5399 82.21 19.8199C82.93 20.7599 83.88 21.3298 84.91 21.7698L84.88 21.8799C84.31 21.9699 83.85 22.4198 83.62 23.1198C82.16 21.9598 81.36 20.5399 81.02 17.5399C80.67 17.8699 80.24 18.1698 79.74 18.4398C80.98 19.3298 81.43 20.7298 81.43 21.8598C81.43 23.8098 80.38 23.9799 79.48 23.9799C79.46 22.9399 79.08 22.7798 78.42 22.6498V22.5498H79.61C79.75 22.5498 79.85 22.5299 79.9 22.4499C80 22.2799 80.07 21.9999 80.1 21.6599C78.91 22.2799 77.38 22.7399 75.85 22.8899L75.82 22.7498C77.47 22.2598 79.08 21.2199 79.99 20.0699L79.97 19.9499C78.9 20.4899 77.43 20.9699 76.09 21.1599L76.05 21.0498C77.34 20.5498 78.72 19.5798 79.48 18.6898L79.43 18.6098C78.49 19.0598 77.36 19.3899 76.17 19.5999L76.12 19.4499C77.39 18.9599 78.52 18.1798 79.23 17.4298H77.27L77.23 17.2599H81.68L82.35 16.3298L83.11 16.9199C83.17 16.5799 83.23 16.0999 83.26 15.7299H77.49C77.49 15.8299 77.51 15.9398 77.51 16.0298C77.51 16.7698 77.15 17.2798 76.58 17.2798C76.2 17.2798 75.85 17.0598 75.85 16.6098C75.85 16.2798 76.07 16.0199 76.36 15.8799C76.71 15.7499 77.14 15.3499 77.17 14.9099H77.29C77.37 15.1399 77.43 15.3598 77.46 15.5598H79.65V14.0898L81.47 14.2798C81.45 14.4198 81.37 14.4999 81.1 14.5399V15.5598H83.15L83.81 14.8398V14.8298Z" fill="#844E1A"/>
<path d="M88.96 15.4296L90.25 16.4296C90.18 16.5196 90.06 16.6096 89.86 16.6596V22.2396C89.86 22.2396 89.51 22.6196 88.55 22.6196V21.7396H87.51V22.4796C87.51 22.4796 87.34 23.0196 86.25 23.0196V15.5696L87.3 16.0396C87.37 15.4996 87.45 14.7096 87.49 14.1496L89.42 14.4596C89.39 14.6596 89.27 14.7396 88.98 14.7496C88.69 15.1496 88.2 15.7496 87.87 16.1396H88.45L88.95 15.4296H88.96ZM88.55 16.2996H87.51V18.7696H88.55V16.2996ZM87.51 21.5696H88.55V18.9396H87.51V21.5696ZM93.67 15.3996L95 16.5196C94.92 16.6196 94.79 16.6996 94.56 16.7396C94.48 21.0696 94.37 22.8196 93.78 23.3996C93.39 23.7996 92.98 23.9596 92.21 23.9696C92.23 23.1196 92.07 22.7196 90.94 22.4596V22.3496C91.4 22.3696 92.08 22.3796 92.35 22.3796C92.51 22.3796 92.59 22.3596 92.69 22.2696C93.05 21.9296 93.14 19.9696 93.21 16.3596H91.81C91.34 17.5296 90.74 18.4796 89.99 19.2096L89.87 19.1396C90.32 17.9896 90.73 15.9496 90.89 14.0996L92.73 14.5596C92.7 14.6896 92.61 14.7796 92.34 14.7996C92.2 15.2896 92.05 15.7596 91.88 16.1896H93.1L93.67 15.3996ZM90.89 18.3096C92.26 18.7196 92.73 19.3696 92.73 19.8996C92.73 20.3996 92.33 20.7896 91.92 20.7896C91.7 20.7896 91.47 20.6896 91.28 20.4296C91.28 20.3296 91.3 20.2196 91.3 20.1096C91.3 19.4896 91.14 18.8096 90.83 18.3596L90.9 18.3096H90.89Z" fill="#844E1A"/>
<path d="M103.65 17.4199L104.89 18.4199C104.82 18.5299 104.7 18.5699 104.42 18.5699H102.95C102.7 19.6899 102.38 20.5998 101.9 21.3398C103.6 21.8398 104.19 22.6598 104.19 23.2498C104.19 23.6798 103.89 23.9799 103.47 23.9799C103.34 23.9799 103.21 23.9499 103.06 23.8899C102.65 23.4499 101.95 22.8698 101.03 22.3098C99.99 23.1798 98.44 23.6998 95.99 23.9898L95.94 23.8698C97.82 23.3498 99.1 22.6898 99.97 21.7398C99.56 21.5298 99.13 21.3299 98.68 21.1699C98.58 21.3799 98.51 21.5699 98.43 21.7299C98.3 21.7999 98.13 21.8298 97.94 21.8298C97.64 21.8298 97.29 21.7599 96.94 21.5999C97.27 20.8999 97.78 19.7098 98.23 18.5798H95.75L95.7 18.4099H98.29C98.64 17.5099 98.95 16.6798 99.08 16.2098L100.89 16.5198C100.86 16.6798 100.75 16.7598 100.46 16.7698C100.32 17.1298 100.08 17.7398 99.81 18.3998H102.94L103.63 17.4199H103.65ZM102.83 17.4598C102.94 17.0798 103.04 16.4298 103.1 15.9598H97.41C97.44 16.1298 97.45 16.2699 97.45 16.4199C97.45 17.0499 97.16 17.6798 96.52 17.6798C96.14 17.6798 95.78 17.4598 95.78 16.9998C95.78 16.6798 96.01 16.4099 96.29 16.2599C96.63 16.0899 97.05 15.6299 97.06 15.1299H97.18C97.27 15.3699 97.33 15.5898 97.37 15.7998H99.56V14.0898L101.38 14.2798C101.36 14.4098 101.28 14.4999 101.01 14.5399V15.7998H103L103.68 15.0699L104.85 16.2599C104.77 16.3499 104.68 16.3799 104.47 16.3899C104.07 16.7699 103.41 17.2498 102.88 17.5198L102.81 17.4598H102.83ZM99.76 18.5598C99.44 19.3398 99.08 20.1899 98.79 20.8899C99.42 20.9099 99.98 20.9599 100.48 21.0399C100.91 20.3499 101.19 19.5398 101.36 18.5598H99.75H99.76Z" fill="#844E1A"/>
<path d="M107.23 18.2495C107.64 19.1295 107.8 19.8595 107.8 20.4695C107.8 21.3495 107.39 22.2895 106.56 22.2895C106.12 22.2895 105.81 21.9895 105.81 21.5695C105.81 21.2995 105.96 21.0395 106.17 20.8495C106.67 20.4695 107.18 19.4595 107.14 18.2595H107.24L107.23 18.2495ZM108.17 14.5395C108.52 14.4995 108.84 14.4795 109.13 14.4795C110.89 14.4795 111.5 15.2395 111.5 15.8895C111.5 16.3795 111.16 16.7995 110.69 16.7995C110.56 16.7995 110.43 16.7695 110.28 16.6995C110.03 16.1195 109.31 15.2195 108.16 14.6495V14.5495L108.17 14.5395ZM108.43 17.2395L110.17 17.3795C110.17 17.4995 110.1 17.5895 109.83 17.6395V22.0995C109.83 22.4195 109.86 22.4395 110.13 22.4395H111.31C111.5 22.4395 111.61 22.4395 111.73 22.2595C111.86 22.0795 112.04 21.5695 112.29 20.8695H112.35V22.3395C112.8 22.5495 112.86 22.6395 112.86 22.8395C112.86 23.4195 112.52 23.7295 111.3 23.7295H110.07C108.72 23.7295 108.43 23.4195 108.43 22.0695V17.2395ZM112.32 17.9695C114.26 18.8895 114.9 20.0895 114.9 21.0095C114.9 21.7895 114.44 22.3495 113.94 22.3495C113.7 22.3495 113.44 22.2195 113.22 21.8895C113.24 21.7095 113.25 21.5295 113.25 21.3195C113.25 20.2995 113.01 19.0095 112.24 18.0395L112.31 17.9695H112.32Z" fill="#844E1A"/>
<path d="M122.85 14.2598L124.22 15.3597C124.14 15.4497 124.02 15.5597 123.79 15.6097V22.2598C123.79 23.1898 123.57 23.8697 122.12 23.9897C122.12 22.7497 121.74 22.5898 121.1 22.4798V22.3698H122.27C122.36 22.3698 122.39 22.3198 122.39 22.2198V20.0698H120.92V23.4297C120.92 23.5197 120.51 23.8297 119.8 23.8297H119.55V20.0698H118.12C117.94 21.5098 117.39 22.9397 115.75 23.9597L115.67 23.8898C116.74 22.2998 116.83 20.2797 116.83 18.2997V14.4798L118.41 15.0497H122.29L122.85 14.2598ZM118.21 18.2898C118.21 18.8098 118.21 19.3497 118.14 19.8997H119.55V17.5898H118.21V18.2898ZM119.55 15.2198H118.21V17.4297H119.55V15.2198ZM122.39 15.2198H120.92V17.4297H122.39V15.2198ZM120.92 19.8997H122.39V17.5898H120.92V19.8997Z" fill="#844E1A"/>
<path d="M127.16 18.2495C127.57 19.1295 127.73 19.8595 127.73 20.4695C127.73 21.3495 127.32 22.2895 126.49 22.2895C126.05 22.2895 125.74 21.9895 125.74 21.5695C125.74 21.2995 125.89 21.0395 126.1 20.8495C126.6 20.4695 127.11 19.4595 127.07 18.2595H127.17L127.16 18.2495ZM128.1 14.5395C128.45 14.4995 128.77 14.4795 129.06 14.4795C130.82 14.4795 131.43 15.2395 131.43 15.8895C131.43 16.3795 131.09 16.7995 130.62 16.7995C130.49 16.7995 130.36 16.7695 130.21 16.6995C129.96 16.1195 129.24 15.2195 128.09 14.6495V14.5495L128.1 14.5395ZM128.36 17.2395L130.1 17.3795C130.1 17.4995 130.03 17.5895 129.76 17.6395V22.0995C129.76 22.4195 129.79 22.4395 130.06 22.4395H131.24C131.43 22.4395 131.54 22.4395 131.66 22.2595C131.79 22.0795 131.97 21.5695 132.22 20.8695H132.28V22.3395C132.73 22.5495 132.79 22.6395 132.79 22.8395C132.79 23.4195 132.45 23.7295 131.23 23.7295H130C128.65 23.7295 128.36 23.4195 128.36 22.0695V17.2395ZM132.25 17.9695C134.19 18.8895 134.83 20.0895 134.83 21.0095C134.83 21.7895 134.37 22.3495 133.87 22.3495C133.63 22.3495 133.37 22.2195 133.15 21.8895C133.17 21.7095 133.18 21.5295 133.18 21.3195C133.18 20.2995 132.94 19.0095 132.17 18.0395L132.24 17.9695H132.25Z" fill="#844E1A"/>
<path d="M138.95 15.4296L139.98 16.2296C139.91 16.3496 139.77 16.3796 139.53 16.3796H135.58L135.54 16.2096H138.41L138.95 15.4296ZM139.66 20.6596C139.61 20.7296 139.5 20.8296 139.32 20.8596V23.2096C139.32 23.2096 139 23.5696 138.05 23.5696V22.7896H137.28V23.4896C137.28 23.4896 137.09 23.9696 136.04 23.9696V19.8396L137.32 20.3796H137.96L138.42 19.7296L139.66 20.6596ZM138.41 16.8096L139.41 17.5896C139.33 17.7096 139.2 17.7396 138.96 17.7396H136.11L136.06 17.5696H137.89L138.42 16.8096H138.41ZM137.88 18.9296L138.41 18.1696L139.41 18.9496C139.33 19.0696 139.2 19.0996 138.96 19.0996H136.11L136.06 18.9296H137.89H137.88ZM139.41 14.8996C139.34 15.0096 139.2 15.0496 138.96 15.0496H136.15L136.1 14.8796H137.84L138.39 14.0996L139.41 14.8996ZM137.28 22.6196H138.05V20.5396H137.28V22.6196ZM143.11 18.1696L144.33 19.3096C144.27 19.4196 144.18 19.4696 143.94 19.4896C143.64 20.3196 143.21 21.0696 142.64 21.7296C143.31 22.0896 144.06 22.3396 144.83 22.5296V22.6396C144.24 22.7796 143.83 23.2496 143.64 23.9696C142.9 23.5996 142.27 23.1596 141.75 22.5696C140.98 23.1696 140.02 23.6596 138.85 23.9996L138.81 23.8796C139.82 23.3696 140.6 22.6696 141.21 21.8396C140.78 21.1396 140.47 20.2596 140.26 19.1096H139.77L139.72 18.9396H142.35L143.09 18.1696C142.25 18.1496 142.18 17.8196 142.18 16.7496V15.0496H141.37V15.6396C141.37 16.4596 141.18 17.8896 139.5 18.6496L139.44 18.5596C140.07 17.6696 140.11 16.4996 140.11 15.6496V14.3596L141.56 14.8896H142.07L142.57 14.1696L143.77 15.1196C143.71 15.1896 143.6 15.2396 143.44 15.2796V16.7996C143.44 16.9496 143.44 16.9596 143.53 16.9596H143.86C143.92 16.9596 143.97 16.9596 144.01 16.8796C144.11 16.7196 144.25 16.2896 144.34 16.0196H144.41L144.44 16.9296C144.72 17.0596 144.75 17.1596 144.75 17.3896C144.75 17.8596 144.47 18.1896 143.77 18.1896H143.1L143.11 18.1696ZM140.41 19.1096C140.69 19.9396 141.14 20.5796 141.7 21.0696C142.03 20.4696 142.27 19.8096 142.44 19.1096H140.41Z" fill="#844E1A"/>
<path d="M147.21 18.3196C146.77 18.8496 146.22 19.3096 145.59 19.6996L145.5 19.5496C146.2 18.6696 146.63 17.4196 146.86 16.1796H145.65L145.61 16.0096H147.2V14.0996L148.85 14.2596C148.83 14.3796 148.77 14.4596 148.52 14.4996V15.9596L149.06 15.0796L150.06 15.9896V14.3596L151.42 14.9396H152.53L153.04 14.2096L154.39 15.2396C154.32 15.3196 154.21 15.4196 154 15.4696V19.8696C154 19.8696 153.62 20.2296 152.62 20.2296V19.4796H151.36V19.7896C151.36 19.7896 151.18 20.3296 150.04 20.3296V18.1796C149.98 18.4996 149.67 18.7596 149.34 18.7596C149.16 18.7596 148.96 18.6796 148.81 18.4596C148.83 18.0296 148.71 17.5296 148.5 17.1896V20.0896C148.5 20.0896 148.25 20.4696 147.17 20.4696V18.3096L147.21 18.3196ZM147.28 21.0896C147.41 21.4696 147.46 21.7996 147.46 22.0896C147.46 22.9996 146.93 23.4496 146.38 23.4496C145.94 23.4496 145.58 23.1696 145.58 22.7496C145.58 22.3796 145.86 22.0996 146.18 21.9796C146.62 21.8996 147.12 21.5596 147.17 21.0796H147.29L147.28 21.0896ZM152.05 21.5596V22.6096C152.49 22.7896 152.55 22.8496 152.55 23.0396C152.55 23.5396 152.24 23.8296 150.98 23.8296H149.47C148.24 23.8296 147.94 23.5796 147.94 22.4896V20.9496L149.55 21.0496C149.38 20.7996 149.16 20.5696 148.94 20.4096L148.98 20.3396C149.16 20.3196 149.34 20.3096 149.49 20.3096C150.71 20.3096 151.13 20.8196 151.13 21.2796C151.13 21.6896 150.81 22.0596 150.42 22.0596C150.28 22.0596 150.13 22.0096 149.97 21.8796C149.88 21.6196 149.74 21.3496 149.57 21.0996C149.55 21.1696 149.48 21.2296 149.27 21.2696V22.4896C149.27 22.6363 149.367 22.7096 149.56 22.7096H150.98C151.25 22.7096 151.34 22.7096 151.45 22.5696C151.57 22.4396 151.73 22.1096 151.96 21.5596H152.02H152.05ZM150.08 16.1096C149.99 16.1696 149.87 16.1896 149.67 16.1896H148.54V17.0396C149.59 17.2196 150.01 17.6096 150.08 17.9796V16.1096ZM152.65 15.1096H151.39V16.3896H152.65V15.1096ZM151.39 17.8196H152.65V16.5596H151.39V17.8196ZM151.39 19.3296H152.65V17.9896H151.39V19.3296ZM152.12 20.9596C154.04 21.1296 154.66 21.9196 154.66 22.5596C154.66 23.0396 154.31 23.4296 153.89 23.4296C153.72 23.4296 153.53 23.3696 153.35 23.1996C153.17 22.4096 152.69 21.5296 152.07 21.0196L152.12 20.9596Z" fill="#844E1A"/>
<path d="M54.66 80.1104V80.9404H54.12V88.5904H53.26V86.7704C52.38 87.0204 51.4 87.2704 50.3 87.5004L50.09 86.5704C50.28 86.5504 50.47 86.5203 50.66 86.4803V80.9404H50.19V80.1104H54.65H54.66ZM53.26 82.1003V80.9404H51.52V82.1003H53.26ZM53.26 84.0904V82.8503H51.52V84.0904H53.26ZM53.26 85.9304V84.8404H51.52V86.3404C52.1 86.2304 52.69 86.1004 53.26 85.9404V85.9304ZM58.29 80.1504V80.8204C57.96 81.7504 57.61 82.6104 57.22 83.4004C57.68 84.0904 57.96 84.6203 58.08 84.9803C58.24 85.3803 58.33 85.7804 58.33 86.1404C58.33 86.6604 58.21 87.0403 57.97 87.2903C57.73 87.5503 57.14 87.6703 56.19 87.6703L55.93 86.7303C56.19 86.7903 56.45 86.8104 56.71 86.8104C56.97 86.8104 57.17 86.7504 57.29 86.6304C57.37 86.5504 57.42 86.3904 57.42 86.1404C57.42 85.9004 57.37 85.6004 57.25 85.2404C57.11 84.8804 56.8 84.2604 56.32 83.4004C56.74 82.5304 57.07 81.7203 57.32 80.9703H55.81V88.5804H54.96V80.1404H58.27L58.29 80.1504Z" fill="#40220F"/>
<path d="M62.74 79.8402C62.64 79.9602 62.54 80.0802 62.45 80.1902H65.88V80.7102C65.72 80.9502 65.57 81.1502 65.42 81.3102H67.05V84.1602H60.17V82.1902C60.01 82.3002 59.85 82.3902 59.7 82.4702L59.17 81.8002C60.41 81.1702 61.34 80.4702 61.98 79.7002L62.73 79.8402H62.74ZM61.07 84.5702C60.87 84.8802 60.65 85.1502 60.42 85.4002H66.62C66.39 85.1502 66.12 84.8902 65.81 84.6002L66.42 84.2302C66.93 84.6102 67.33 84.9402 67.62 85.2102L66.91 85.7402C66.86 85.6702 66.79 85.6102 66.74 85.5402V88.5902H65.92V88.2402H61.11V88.5902H60.29V85.5502C60.19 85.6502 60.1 85.7302 60.01 85.8102L59.29 85.2902C59.69 84.9802 60.07 84.6402 60.39 84.2302L61.07 84.5802V84.5702ZM63.17 82.4302V81.9002H60.96V82.4302H63.17ZM63.17 83.0002H60.96V83.5602H63.17V83.0002ZM65.92 86.5202V86.0302H61.11V86.5202H65.92ZM65.92 87.6002V87.1102H61.11V87.6002H65.92ZM64.54 81.3002C64.7 81.1602 64.87 80.9902 65.03 80.8102H61.85C61.67 80.9902 61.48 81.1602 61.32 81.3002H64.53H64.54ZM62.92 85.2002L61.95 85.2802C61.93 84.9402 61.9 84.6502 61.89 84.3802L62.67 84.2602C62.76 84.5502 62.85 84.8602 62.93 85.2002H62.92ZM64.95 85.2002L64.03 85.3202C64 84.9202 63.94 84.6102 63.85 84.3802L64.63 84.3002C64.79 84.5302 64.89 84.8302 64.95 85.2002ZM63.96 82.4302H66.28V81.9002H63.96V82.4302ZM66.28 83.0002H63.96V83.5602H66.28V83.0002Z" fill="#40220F"/>
<path d="M76.24 88.3901H75.38V87.6801H69.6V88.3901H68.74V80.29H76.23V88.3901H76.24ZM75.38 86.85V85.2801H74.03C73.71 85.2801 73.46 85.2101 73.29 85.0801C73.11 84.9601 73.03 84.7401 73.03 84.4601V81.1201H71.75V82.3201C71.75 83.1301 71.66 83.78 71.48 84.3C71.32 84.82 70.99 85.3501 70.5 85.8801L69.79 85.2101C70.2 84.8301 70.49 84.41 70.67 83.97C70.82 83.61 70.9 83.0601 70.9 82.3201V81.1201H69.61V86.86H75.39L75.38 86.85ZM73.88 84.1501C73.88 84.3501 73.98 84.4501 74.2 84.4501H75.38V81.11H73.88V84.1501Z" fill="#40220F"/>
<path d="M82.04 79.8C82.59 80.46 83.15 80.99 83.75 81.38C84.16 81.7 84.86 82.0601 85.86 82.4601L85.29 83.39C84.88 83.24 84.49 83.04 84.11 82.81V83.42H79.19V82.82C78.8 83.07 78.36 83.33 77.87 83.58L77.41 82.64C78.43 82.2 79.22 81.76 79.76 81.3C80.2 80.94 80.67 80.44 81.18 79.79H82.03L82.04 79.8ZM84.71 88.58H83.82V88.05H79.54V88.58H78.65V84.49H84.71V88.58ZM83.82 87.23V85.32H79.54V87.23H83.82ZM83.74 82.58C83.04 82.12 82.33 81.47 81.61 80.62C81.06 81.26 80.54 81.7901 80.04 82.2101C79.88 82.3401 79.72 82.46 79.56 82.57H83.74V82.58Z" fill="#40220F"/>
<path d="M94.73 83.4004V84.3004H86.78V83.4004H94.73Z" fill="#40220F"/>
<path d="M103.5 80.0303V80.7402H100.29V81.1503H103.97V83.2502H103.11V81.8602H100.29V83.8102H99.44V81.8602H96.66V83.3303H95.8V81.1503H99.44V80.7402H96.26V80.0303H103.5ZM103.39 84.0402V86.9402L104.14 87.1902C104.04 87.8502 103.88 88.2502 103.67 88.3602C103.47 88.4702 103.12 88.5402 102.61 88.5402H100.19C99.93 88.5402 99.73 88.4703 99.59 88.3403C99.44 88.2003 99.37 88.0102 99.37 87.7902V87.1503H96.38V84.0402H103.4H103.39ZM99.12 82.2402V82.8102H96.98V82.2402H99.12ZM99.12 83.1002V83.6702H96.98V83.1002H99.12ZM99.37 85.2803V84.7103H97.2V85.2803H99.37ZM99.37 85.8802H97.2V86.4802H99.37V85.8802ZM100.19 85.2803H102.57V84.7103H100.19V85.2803ZM102.57 85.8802H100.19V86.4802H102.57V85.8802ZM100.19 87.5703C100.19 87.7403 100.29 87.8303 100.51 87.8303H102.51C102.77 87.8303 102.96 87.8002 103.08 87.7502C103.2 87.6902 103.28 87.5003 103.34 87.1503H100.2V87.5602L100.19 87.5703ZM102.83 82.2003V82.7703H100.62V82.2003H102.83ZM102.83 83.1002V83.6702H100.62V83.1002H102.83Z" fill="#40220F"/>
<path d="M112.22 80.21V80.9999C111.72 81.5599 110.85 82.2699 109.62 83.1299V83.78H113.08V84.6699H109.62V87.64C109.62 87.91 109.56 88.12 109.44 88.27C109.28 88.44 109.06 88.5399 108.8 88.5399H107.09L107.02 87.5599C107.59 87.6199 108.05 87.64 108.41 87.64C108.57 87.64 108.66 87.54 108.66 87.34V84.6699H104.96V83.78H108.66V82.6099C109.55 82.1199 110.34 81.6099 111.01 81.0699H105.84V80.21H112.22Z" fill="#40220F"/>
<path d="M116.18 79.8405C116.74 80.3605 117.24 80.9006 117.68 81.4506L117.07 82.0505C116.61 81.4405 116.23 80.9805 115.93 80.6605C115.64 81.1705 115.31 81.6606 114.95 82.1306H117.21V82.8806H116.22V83.7106H117.46V84.4606H116.22V87.1605C116.62 87.0605 117.04 86.9405 117.46 86.7905V87.6205C116.47 87.9505 115.39 88.2105 114.18 88.4105L114.07 87.5505C114.53 87.5105 114.99 87.4405 115.47 87.3505V84.4805H114.11V83.7305H115.47V82.9006H114.54V82.6705C114.43 82.8005 114.32 82.9305 114.22 83.0405L113.94 82.1105C114.51 81.5005 115.04 80.7506 115.54 79.8506H116.19L116.18 79.8405ZM115.14 86.8206L114.43 87.0005C114.37 86.3605 114.28 85.7306 114.18 85.1306L114.82 84.9105C114.94 85.4705 115.05 86.1106 115.14 86.8206ZM117.36 85.0206C117.3 85.6706 117.2 86.2305 117.07 86.6705L116.39 86.4506C116.56 85.9906 116.68 85.4906 116.75 84.9506L117.36 85.0206ZM120.17 79.8105V82.1805H121.89V86.9805H120.87C121.39 87.2405 121.87 87.5405 122.32 87.8705L121.89 88.5906C121.35 88.1106 120.8 87.7306 120.25 87.4606L120.57 86.9805H119.16L119.58 87.3906C119.09 87.8306 118.47 88.2306 117.73 88.5906L117.23 87.9105C117.87 87.6605 118.45 87.3505 118.97 86.9805H117.73V82.1805H119.4V79.8105H120.18H120.17ZM119.1 81.4606L118.42 81.9506C118.21 81.5206 117.93 81.0206 117.56 80.4506L118.14 80.0806C118.54 80.6206 118.86 81.0806 119.1 81.4606ZM121.1 83.5206V82.9205H118.5V83.5206H121.1ZM121.1 84.8306V84.2006H118.5V84.8306H121.1ZM121.1 85.5005H118.5V86.2106H121.1V85.5005ZM121.99 80.3705C121.74 81.0005 121.46 81.5405 121.14 81.9805L120.49 81.4905C120.82 81.0905 121.11 80.6106 121.38 80.0706L121.98 80.3705H121.99Z" fill="#40220F"/>
<path d="M54.65 47.9501C56.66 47.9501 58.6 47.9401 60.54 47.9701C60.73 47.9701 60.96 48.2301 61.08 48.4201C62.75 51.2201 64.41 54.0301 66.07 56.8301C66.23 57.1101 66.41 57.3801 66.63 57.7401C67.16 56.8401 67.66 56.0201 68.15 55.1901C69.49 52.9201 70.82 50.6501 72.17 48.3901C72.28 48.2001 72.54 47.9701 72.73 47.9601C74.63 47.9301 76.53 47.9401 78.58 47.9401C78.36 48.3401 78.2 48.6501 78.01 48.9501C75.18 53.6501 72.34 58.3401 69.52 63.0401C69.37 63.3001 69.31 63.6501 69.31 63.9601C69.29 66.6601 69.31 69.3601 69.31 72.0701C69.31 72.3301 69.31 72.5801 69.31 72.9001H63.8C63.8 72.6201 63.8 72.3801 63.8 72.1501C63.8 69.8201 63.71 67.4801 63.83 65.1501C63.91 63.6901 63.4 62.5501 62.67 61.3701C59.99 57.0101 57.37 52.6201 54.73 48.2301C54.7 48.1801 54.7 48.1101 54.66 47.9401L54.65 47.9501Z" fill="#40220F"/>
<path d="M78.58 60.4204H73.65C73.57 57.9704 75.28 55.7604 77.92 54.9704C80.76 54.1204 83.63 54.1204 86.48 54.9404C88.86 55.6304 90.04 57.2204 90.05 59.7104C90.06 62.3704 90.05 65.0304 90.05 67.6904C90.05 69.4304 89.95 71.1904 90.64 72.9704H87.54C87.54 72.9704 87.45 72.9704 87.41 72.9704C86.85 72.9704 86.17 73.1404 85.76 72.8804C85.39 72.6404 85.33 71.9304 85.12 71.4004C83.23 73.1204 80.9 73.5304 78.41 73.4104C75.95 73.2904 73.9 71.9704 73.31 69.9104C72.7 67.7804 72.84 65.7304 74.61 64.1204C75.53 63.2904 76.7 62.9104 77.9 62.7104C79.56 62.4404 81.23 62.2104 82.89 61.9604C83.1 61.9304 83.31 61.8604 83.52 61.8004C84.58 61.4804 85.03 60.9404 85.01 60.0404C84.97 58.8304 84.44 58.0804 83.36 57.8804C82.69 57.7604 81.98 57.7304 81.3 57.7804C79.71 57.9004 78.78 58.7804 78.6 60.4204H78.58ZM85.04 64.3104C84.44 64.4904 83.99 64.6604 83.53 64.7604C83.05 64.8704 82.55 64.9004 82.06 65.0004C81.28 65.1604 80.49 65.2904 79.73 65.5204C78.65 65.8504 78.08 66.6104 78.04 67.6404C77.99 68.7204 78.39 69.4604 79.34 69.7904C79.86 69.9704 80.44 70.0204 80.99 70.0404C83.1 70.1204 84.56 69.0804 84.87 67.2004C85.02 66.2704 84.98 65.3104 85.03 64.3004L85.04 64.3104Z" fill="#40220F"/>
<path d="M116.5 65.1101H103.53C103.29 67.3501 104.58 69.4101 107.05 69.6001C108.93 69.7401 110.57 69.3201 111.61 67.5501C111.68 67.4301 111.88 67.3201 112.02 67.3201C113.33 67.3001 114.65 67.3101 116.16 67.3101C115.82 68.0601 115.58 68.7401 115.23 69.3601C113.93 71.6501 111.97 73.0001 109.34 73.3101C106.95 73.6001 104.63 73.4201 102.52 72.1201C100.17 70.6701 98.95 68.5001 98.52 65.8301C98.03 62.7401 98.59 59.8801 100.63 57.4401C102.56 55.1401 105.13 54.2401 108.07 54.3601C112.7 54.5401 115.54 57.7701 116.24 62.0401C116.4 63.0101 116.4 64.0101 116.49 65.1001L116.5 65.1101ZM111.36 61.9101C111.1 60.5201 110.74 59.2601 109.46 58.6201C107.94 57.8601 106.38 57.9501 104.98 58.9201C103.98 59.6101 103.49 60.6401 103.45 61.9101H111.37H111.36Z" fill="#40220F"/>
<path d="M92.12 47.9404C93.64 47.9404 95.1 47.9404 96.57 47.9404C96.72 47.9404 96.86 47.9704 97.04 47.9804V72.8704H92.12V47.9404Z" fill="#40220F"/>
<path d="M117.83 51.33C117.83 53.17 116.34 54.68 114.51 54.69C112.63 54.7 111.13 53.21 111.14 51.33C111.14 49.48 112.64 47.95 114.44 47.96C116.33 47.96 117.82 49.45 117.83 51.32V51.33ZM111.7 51.29C111.7 52.89 112.88 54.13 114.43 54.15C115.98 54.18 117.28 52.89 117.28 51.3C117.28 49.81 116 48.51 114.52 48.5C112.95 48.5 111.7 49.72 111.7 51.28V51.29Z" fill="#40220F"/>
<path d="M115.7 53.0499L114.83 51.4599H113.54V53.0499H113.3V49.6299H114.79C115.15 49.6299 115.43 49.7099 115.64 49.8699C115.85 50.0299 115.95 50.2599 115.95 50.5399C115.95 50.9899 115.66 51.2899 115.1 51.4299L115.98 53.0499H115.7ZM115.48 50.0599C115.32 49.9299 115.09 49.8599 114.79 49.8599H113.54V51.2299H114.79C115.08 51.2299 115.31 51.1599 115.48 51.0299C115.63 50.9099 115.7 50.7499 115.7 50.5399C115.7 50.3299 115.63 50.1799 115.48 50.0599Z" fill="#40220F"/>
</svg>
