<?xml version="1.0" encoding="utf-8"?>
<!-- Generator: Adobe Illustrator 27.0.0, SVG Export Plug-In . SVG Version: 6.00 Build 0)  -->
<svg version="1.1" id="圖層_1" xmlns="http://www.w3.org/2000/svg" xmlns:xlink="http://www.w3.org/1999/xlink" x="0px" y="0px"
	 viewBox="0 0 173 103" style="enable-background:new 0 0 173 103;" xml:space="preserve">
<style type="text/css">
	.st0{fill:#E8D0A4;}
	.st1{fill:none;stroke:#571704;stroke-width:0.25;stroke-miterlimit:10;}
	.st2{fill:#40210F;}
	.st3{fill:#834E1A;}
</style>
<g>
	<rect class="st0" width="172.5" height="102.6"/>
	<line class="st1" x1="19" y1="31.8" x2="155.6" y2="31.8"/>
	<g>
		<g>
			<path class="st2" d="M64.1,89.8h-0.9v-0.7h-4.5v0.7h-0.9v-8.5h6.3V89.8z M63.2,84.6v-2.4h-4.5v2.4H63.2z M63.2,88.2v-2.6h-4.5
				v2.6H63.2z"/>
			<path class="st2" d="M69.5,82.6V81h0.9v1.5H74v0.9h-2.7c0.3,0.7,0.7,1.3,1.1,1.9c0.5,0.6,1.1,1.3,1.9,2l-0.6,0.8
				c-0.9-0.8-1.6-1.6-2.1-2.4c-0.4-0.6-0.8-1.4-1.1-2.3h0v3.8h2.1v0.9h-2.1v1.7h-0.9v-1.7h-2v-0.9h2v-3.8h0c-0.3,0.8-0.6,1.5-0.8,2
				c-0.5,0.9-1.3,1.9-2.3,2.9l-0.5-0.9c0.8-0.7,1.4-1.4,1.8-2.1c0.3-0.5,0.7-1.1,0.9-1.9h-2.5v-0.9H69.5z"/>
			<path class="st2" d="M83.3,88.2v0.9h-8.2v-0.9H83.3z M82.8,81.8v0.9h-7.3v-0.9H82.8z M82.3,84.9v0.9h-6.4v-0.9H82.3z"/>
			<path class="st2" d="M84.9,83.3V81h0.9v2.3h0.9v0.8h-0.9v5.6h-0.9v-5.6h-0.8v-0.8H84.9z M87.1,85.5c0-0.2,0-0.5,0-0.7h0.8
				c0,0.3,0,0.5,0,0.7h1.2c0,2.2-0.1,3.5-0.3,3.8c-0.1,0.3-0.5,0.4-1.2,0.4l-0.2-0.9c0.3,0.1,0.5,0.1,0.6,0.1c0.1,0,0.2-0.1,0.2-0.2
				c0-0.2,0.1-1,0.1-2.3h-0.5c-0.1,0.7-0.2,1.2-0.3,1.6c-0.2,0.7-0.6,1.3-1.1,1.8L85.9,89c0.4-0.4,0.8-0.9,0.9-1.4
				c0.1-0.3,0.2-0.7,0.2-1.3h-0.8v-0.8H87.1z M89,81.8c0-0.1,0-0.2,0-0.3V81h0.8v0.5c0,0.1,0,0.2,0,0.3h2.4
				c-0.1,1.4-0.2,2.2-0.4,2.4c-0.2,0.2-0.6,0.3-1.2,0.3c-0.5,0-0.8,0-1,0l-0.2-0.8c0.4,0,0.8,0.1,1.2,0.1c0.3,0,0.5-0.1,0.5-0.2
				c0.1-0.1,0.1-0.4,0.1-1h-1.6c-0.1,0.4-0.3,0.7-0.5,1c-0.4,0.5-1.1,0.9-2,1.1l-0.5-0.8c0.9-0.2,1.4-0.5,1.8-0.9
				c0.1-0.1,0.2-0.2,0.2-0.4H87v-0.8H89z M90.2,85.5c0-0.2,0-0.5,0-0.7H91c0,0.3,0,0.5,0,0.7h1.4c0,2.2-0.1,3.5-0.4,3.8
				c-0.1,0.3-0.6,0.4-1.3,0.4l-0.1-0.9c0.2,0,0.4,0.1,0.6,0.1c0.1,0,0.2-0.1,0.3-0.3c0.1-0.2,0.1-1,0.1-2.4h-0.7
				c-0.1,0.7-0.1,1.2-0.3,1.6c-0.2,0.7-0.6,1.3-1,1.8L89.1,89c0.4-0.4,0.7-0.9,0.9-1.5c0.1-0.3,0.2-0.7,0.2-1.3h-0.8v-0.8H90.2z"/>
			<path class="st2" d="M95.6,81.1c0.6,0.5,1.1,1,1.5,1.5l-0.6,0.6c-0.5-0.6-0.9-1.1-1.2-1.4c-0.3,0.5-0.7,1-1.1,1.5h2.3v0.8h-0.9
				v0.8h1.3v0.8h-1.3v2.8c0.4-0.1,0.8-0.1,1.3-0.2V89c-1,0.2-2.2,0.4-3.4,0.5l-0.1-0.9c0.5,0,1-0.1,1.5-0.1v-2.9h-1.4v-0.8h1.4v-0.8
				H94v-0.5c-0.1,0.2-0.3,0.3-0.4,0.5l-0.3-1c0.6-0.6,1.1-1.2,1.6-2h0.4H95.6z M94.4,88.1l-0.8,0.1c0-0.8-0.1-1.4-0.2-1.9l0.7-0.1
				C94.3,86.7,94.4,87.3,94.4,88.1z M96.9,86.2c-0.1,0.7-0.1,1.2-0.3,1.6l-0.7-0.2c0.2-0.5,0.3-1,0.4-1.5L96.9,86.2z M101.2,81.3
				v3.3h-1.7c0,0.4-0.1,0.9-0.1,1.3h1.9v4h-0.8v-0.6H98v0.6h-0.8v-4h1.4c0.1-0.4,0.1-0.8,0.2-1.3h-1.5v-3.3H101.2z M100.6,88.4v-1.9
				H98v1.9H100.6z M100.5,82h-2.4v1.8h2.4V82z"/>
			<path class="st2" d="M107,81.7h3.5v1.7h-0.9v-0.9h-1.9V83c0,0.2,0.1,0.2,0.3,0.2h1.4v0.7h-1.6c-0.3,0-0.5,0-0.6-0.2
				c-0.2-0.1-0.2-0.3-0.2-0.5v-0.7h-1.2l0.3,0.2c-0.2,0.4-0.5,0.7-0.8,0.9c-0.3,0.2-0.8,0.4-1.4,0.5l-0.4-0.8
				c0.7-0.1,1.1-0.2,1.3-0.4c0.2-0.1,0.4-0.2,0.5-0.5h-2v0.9h-0.9v-1.7h3.5c-0.1-0.2-0.2-0.4-0.3-0.6l0.9-0.1
				C106.8,81.2,106.9,81.5,107,81.7z M106.8,83.6c-0.1,0.3-0.3,0.5-0.4,0.8h3.6v5.4h-0.8v-0.4h-5.1v0.4h-0.8v-5.4h2.3
				c0.2-0.3,0.3-0.6,0.4-0.9L106.8,83.6z M105.9,88.7l-0.3-0.4c0.5-0.3,0.9-0.6,1.3-0.9c-0.2-0.1-0.4-0.3-0.6-0.4
				c-0.3,0.3-0.7,0.7-1.2,1l-0.5-0.6c0.4-0.2,0.8-0.5,1.1-0.7c-0.3-0.2-0.6-0.3-0.9-0.5l0.5-0.5c0.3,0.2,0.6,0.3,0.9,0.5
				c0.1-0.2,0.3-0.5,0.4-0.7l0.7,0.1c-0.2,0.4-0.3,0.7-0.5,1c0.2,0.2,0.5,0.3,0.7,0.4c0.3-0.4,0.5-0.8,0.7-1.4l0.7,0.1
				c-0.3,0.7-0.6,1.3-0.8,1.7c0.3,0.2,0.6,0.4,0.9,0.6l-0.5,0.6c-0.2-0.2-0.5-0.4-0.8-0.6c-0.3,0.3-0.6,0.6-1,0.9h2.7v-3.6h-5.1v3.6
				H105.9z"/>
		</g>
	</g>
	<g>
		<g>
			<g>
				<path class="st3" d="M26.3,12.4l1.7,1.4c-0.1,0.1-0.2,0.2-0.5,0.3v9.2c0,0-0.5,0.6-1.8,0.6v-1.3h-4.6v0.7c0,0.3-0.7,0.8-1.5,0.8
					h-0.3V12.5l1.9,0.8h4.4L26.3,12.4z M25.7,13.5h-4.6v4.1h4.6V13.5z M21.1,22.2h4.6v-4.3h-4.6V22.2z"/>
				<path class="st3" d="M41.7,15.1c-0.1,0.1-0.2,0.2-0.6,0.2h-4c1,2.2,2.9,3.8,4.7,4.6l0,0.1c-0.7,0.2-1.2,0.8-1.5,1.7
					c-1.8-1.3-2.8-3.4-3.4-6.4h-0.1v5.5l0.7-1.2l1.4,1.3C39,21,38.8,21,38.5,21h-1.6v2.4c0,0.2-0.7,0.5-1.4,0.5h-0.3V21h-2.1l0-0.2
					h2.1v-3.1c-1.1,1.7-2.7,3.1-4.7,4.1l-0.1-0.2c1.8-1.6,3.2-4.1,3.7-6.4h-3.6L30.4,15h4.7v-3.3l2.3,0.2c0,0.2-0.1,0.4-0.5,0.4V15
					h2.2l0.9-1.4L41.7,15.1z"/>
				<path class="st3" d="M53.5,15.5l1.3,1c-0.1,0.2-0.2,0.2-0.6,0.2h-5.8c-0.1,0-0.2,0.1-0.4,0.1h-1.5v1.2c1.4,0.5,1.8,1.2,1.8,1.8
					c0,0.5-0.4,0.9-0.8,0.9c-0.2,0-0.5-0.1-0.6-0.4c0-0.7-0.1-1.5-0.3-2v5.1c0,0.1-0.7,0.5-1.3,0.5h-0.3v-3.7
					c-0.4,0.6-0.9,1.2-1.4,1.7l-0.1-0.2c0.6-1.3,1-3.2,1.2-5h-1.2l0-0.2h1.6v-4.8L47,12c0,0.2-0.1,0.3-0.5,0.3v4.3h0.1l0.7-1l1.2,1
					h1.9v-1.4h-1.7L48.6,15h1.8v-1.3h-2.1l0-0.1c-0.5,0.8-1,1.6-1.4,2.2l-0.2-0.1c0.1-0.8,0.2-2,0.3-3l1.8,0.5
					c0,0.1-0.1,0.2-0.3,0.2v0h1.9v-1.7l2.1,0.2c0,0.2-0.1,0.3-0.5,0.3v1.2h0.5l0.7-1.1l1.3,1.1c-0.1,0.1-0.2,0.2-0.6,0.2h-2V15h0.2
					l0.7-0.9l1.2,1c-0.1,0.2-0.2,0.2-0.5,0.2H52v1.4h0.7L53.5,15.5z M43.6,12.7c0.9,0.7,1.2,1.4,1.2,2c0,0.6-0.4,1-0.8,1
					c-0.2,0-0.4-0.1-0.6-0.4c0.1-0.4,0.1-0.8,0.1-1.3c0-0.5-0.1-1-0.2-1.4L43.6,12.7z M52.2,17.9l0.6-0.9l1.6,1.2
					c-0.1,0.1-0.2,0.2-0.5,0.3v3.6c0,1-0.1,1.7-1.8,1.9c0-1.2-0.1-1.5-0.8-1.6v-0.2h0.9c0.1,0,0.1,0,0.1-0.2v-1h-2.2v2.3
					c0,0-0.2,0.6-1.5,0.6v-6.8l1.6,0.7H52.2z M52.3,18.1h-2.2v1.3h2.2V18.1z M50.2,20.9h2.2v-1.3h-2.2V20.9z"/>
				<path class="st3" d="M65.9,21.2l1.8,1.4c-0.1,0.1-0.2,0.2-0.6,0.2H56.5l-0.1-0.2h4.7v-8.5h-3.8l-0.1-0.2h7.1l1-1.4l1.8,1.4
					c-0.1,0.1-0.3,0.2-0.6,0.2h-3.5v8.5h2L65.9,21.2z"/>
			</g>
		</g>
		<g>
			<g>
				<path class="st3" d="M83.3,21.6l1.3,1c-0.1,0.1-0.2,0.1-0.5,0.1h-6.4v0.5c0,0.1-0.4,0.5-1.1,0.5h-0.3v-9l1.5,0.6h4.4l0.7-1
					l1.3,1c-0.1,0.1-0.2,0.1-0.5,0.1h-6v7.2h4.8L83.3,21.6z M82.2,21.8c0,0.1-0.4,0.3-1,0.3h-0.2v-3.6h-1.1c0,1.1-0.2,2.8-1.9,3.7
					l-0.1-0.1c0.7-1.1,0.7-2.6,0.7-3.8v-2l1.3,0.4c0.8-0.4,1.7-0.8,2.2-1.2l1.2,1.3c-0.1,0-0.1,0.1-0.3,0.1c-0.1,0-0.2,0-0.4-0.1
					c-0.7,0.1-1.8,0.2-2.8,0.3v1.2h2.4l0.6-0.8l1.2,0.9c-0.1,0.1-0.2,0.1-0.4,0.1h-1.4V21.8z"/>
				<path class="st3" d="M87.4,18.2c0.4,0.8,0.5,1.5,0.5,2.1c0,0.8-0.4,1.7-1.2,1.7c-0.4,0-0.7-0.3-0.7-0.7c0-0.3,0.1-0.5,0.3-0.7
					C86.9,20.3,87.4,19.3,87.4,18.2L87.4,18.2z M88.3,14.6c0.3,0,0.6-0.1,0.9-0.1c1.7,0,2.3,0.7,2.3,1.3c0,0.5-0.3,0.9-0.8,0.9
					c-0.1,0-0.3,0-0.4-0.1c-0.2-0.6-0.9-1.4-2-2L88.3,14.6z M88.6,17.2l1.7,0.1c0,0.1-0.1,0.2-0.3,0.2v4.3c0,0.3,0,0.3,0.3,0.3h1.1
					c0.2,0,0.3,0,0.4-0.2c0.1-0.2,0.3-0.7,0.5-1.3h0.1v1.4c0.4,0.2,0.5,0.3,0.5,0.5c0,0.6-0.3,0.9-1.5,0.9h-1.2
					c-1.3,0-1.6-0.3-1.6-1.6V17.2z M92.3,17.9c1.9,0.9,2.5,2,2.5,2.9c0,0.7-0.4,1.3-0.9,1.3c-0.2,0-0.5-0.1-0.7-0.4
					c0-0.2,0-0.4,0-0.5C93.2,20.1,93,18.9,92.3,17.9L92.3,17.9z"/>
				<path class="st3" d="M102.9,16.1l1.2,1.2c-0.1,0.1-0.2,0.2-0.4,0.2c-1.2,1.7-2.9,3.2-5.1,4.1c0.7,0.5,1.7,0.6,3.3,0.6
					c0.7,0,2.3,0,3.1,0v0.1c-0.4,0.1-0.7,0.6-0.7,1.2h-2.4c-2.1,0-3.2-0.4-3.8-2.2c-0.2,0.6-0.6,1.5-0.8,1.9c0,0.1,0.1,0.1,0.1,0.2
					c0,0.1,0,0.2-0.1,0.2l-0.9-1c0.4-0.3,1.1-1,1.5-1.5l0.1-0.8l0.6,0.1L98,21c0.1,0.2,0.2,0.3,0.4,0.4c1.5-1.1,3-2.8,3.7-4.4h-5.3
					l0-0.2h3v-2.6l1.7,0.2c0,0.1-0.1,0.2-0.4,0.2v2.1h0.9L102.9,16.1z"/>
				<path class="st3" d="M113.7,18.9l1.3,1c-0.1,0.1-0.2,0.1-0.5,0.1h-3.3v1.9c0,0.9-0.2,1.6-1.8,1.7c0-1-0.4-1.3-1.4-1.4v-0.1h1.7
					c0.1,0,0.2-0.1,0.2-0.2V20h-3.7l0-0.2h3.7v-2h-3.1l0-0.2h3.1V16c-1,0.1-2.1,0.1-3.1,0.1l0-0.1c2.1-0.3,4.7-1.1,6-1.7l1.3,1.3
					c-0.1,0-0.1,0.1-0.3,0.1c-0.1,0-0.3,0-0.4-0.1c-0.5,0.1-1.1,0.2-1.7,0.3c0,0.1-0.1,0.1-0.3,0.1v1.8h1.1l0.7-1l1.3,1
					c-0.1,0.1-0.2,0.1-0.5,0.1h-2.7v2h1.7L113.7,18.9z"/>
				<path class="st3" d="M116.3,18.8c1.6-1.1,2.9-3.2,3.1-4.7l2,0.6c0,0.1-0.2,0.2-0.5,0.2c0.9,1,3,1.8,4.3,2.2l0,0.2
					c-0.6,0.2-1,0.9-1.1,1.5c-1.4-0.6-2.8-2.2-3.4-3.7c-0.6,1.5-2.5,3-4.5,3.8L116.3,18.8z M123.1,23l0.7-1l1.3,1
					c-0.1,0.1-0.2,0.1-0.5,0.1h-7.9l0-0.2h3.3v-2.2h-2.4l0-0.2h2.4v-2.1h-2l0-0.2h3.6l0.6-0.8l1.1,0.9c-0.1,0.1-0.2,0.1-0.4,0.1
					h-1.5v2.1h0.9l0.7-0.9l1.2,0.9c-0.1,0.1-0.2,0.1-0.4,0.1h-2.3V23H123.1z"/>
				<path class="st3" d="M134.2,16.9l1.2,1c-0.1,0.1-0.2,0.1-0.5,0.1h-0.4v5.2c0,0.1-0.4,0.4-1.1,0.4h-0.2v-5.6h-0.7v0.4
					c0,1.8-0.2,3.9-2.5,5.2l-0.1-0.1c1.2-1.5,1.3-3.3,1.3-5.2v-0.3c-0.1,0.1-0.2,0.1-0.4,0.1h-1.2c0,0.1-0.1,0.1-0.2,0.2v1.2h0.3
					l0.5-0.8l0.9,0.8c-0.1,0.1-0.2,0.1-0.4,0.1h-1.3v0.6l0,0c1.1,0.2,1.5,0.7,1.5,1.1c0,0.4-0.3,0.7-0.7,0.7c-0.2,0-0.3-0.1-0.5-0.3
					c0-0.5-0.1-1-0.4-1.4v2.9c0,0.1-0.6,0.4-1,0.4h-0.3v-2.1c-0.5,0.5-1,0.9-1.6,1.3l-0.1-0.1c0.7-0.8,1.2-2,1.4-3.1h-1.3l0-0.2h1.6
					v-1.4h-1.6l0-0.2h2.6c0.1-0.6,0.2-1.5,0.3-2.1l1.5,0.4c0,0.1-0.1,0.2-0.4,0.2c-0.3,0.5-0.8,1.1-1.3,1.6h0.5l0.5-0.7l0.9,0.7v-3
					l1.3,0.4c0.6-0.4,1.1-0.9,1.4-1.3l1.3,1.1c-0.1,0.1-0.2,0.1-0.3,0.1c-0.1,0-0.2,0-0.3-0.1c-0.5,0.2-1.4,0.4-2.2,0.5v2.1h1
					L134.2,16.9z M126.6,15.8l0-0.2h1.5v-1.5l1.7,0.2c0,0.1-0.1,0.2-0.4,0.2v1.1h0.1l0.5-0.8l1,0.8c-0.1,0.1-0.2,0.1-0.4,0.1H126.6z
					 M127.3,15.9c0.9,0.4,1.2,1,1.2,1.4c0,0.4-0.3,0.7-0.7,0.7c-0.2,0-0.4-0.1-0.5-0.3c0-0.2,0-0.4,0-0.6
					C127.4,16.7,127.3,16.2,127.3,15.9L127.3,15.9z"/>
				<path class="st3" d="M139.1,18.5c0.5-0.1,1-0.2,1.5-0.2l0,0.1c-0.4,0.3-0.9,0.6-1.5,0.9V22c0,0.9-0.2,1.5-1.6,1.7
					c0-1-0.2-1.3-1-1.4v-0.1h1.1c0.1,0,0.1,0,0.1-0.1v-2c-0.2,0.1-0.4,0.2-0.6,0.3c-0.1,0.1-0.2,0.2-0.3,0.3l-0.5-1.7
					c0.3,0,0.8-0.1,1.3-0.2v-2.1h-1.2l0-0.2h1.3v-2.3l1.7,0.1c0,0.1-0.1,0.2-0.4,0.3v1.8l0.5-0.9l1,1c-0.1,0.1-0.2,0.1-0.4,0.1h-1
					V18.5z M144.3,14.5l1.2,1c-0.1,0.1-0.2,0.1-0.5,0.1h-1.4v6.3c0,0.9-0.3,1.6-1.8,1.7c0-1.2-0.5-1.4-1.4-1.5v-0.1h1.7
					c0.1,0,0.2,0,0.2-0.1v-6.3h-2.1l0-0.2h3.5L144.3,14.5z"/>
				<path class="st3" d="M149.6,18.8c-0.1,0.1-0.2,0.2-0.5,0.2v2.4c0.6,0.6,1.2,0.7,2.9,0.7c1,0,2.4,0,3.5,0v0.1
					c-0.5,0.1-0.8,0.6-0.8,1.2h-2.7c-1.8,0-2.5-0.3-3.1-1.9c-0.4,0.6-1,1.4-1.4,1.8c0,0.1-0.1,0.2-0.2,0.3l-0.7-1.6
					c0.3-0.1,0.7-0.2,1.1-0.4v-3h-1.1l0-0.2h1l0.6-0.9L149.6,18.8z M147,14.5c1.5,0.2,2,0.8,2,1.3c0,0.4-0.4,0.8-0.8,0.8
					c-0.2,0-0.4-0.1-0.6-0.3C147.7,15.7,147.4,15,147,14.5L147,14.5z M151.7,17.9v-1.8h-0.7c-0.4,0.6-0.8,1.2-1.3,1.5l-0.1-0.1
					c0.3-0.7,0.6-2,0.7-3.2l1.5,0.4v-0.5l1.7,0.2c0,0.1-0.1,0.2-0.4,0.2v1.3h0.4l0.6-0.9l1.2,0.9c-0.1,0.1-0.2,0.1-0.4,0.1h-1.7v1.8
					h0.7l0.6-0.9l1.2,0.9c-0.1,0.1-0.2,0.1-0.4,0.1h-5.8l0-0.2H151.7z M154.7,21.5c0,0.1-0.7,0.4-1.1,0.4h-0.2v-0.6h-1.9v0.2
					c0,0-0.2,0.5-1.3,0.5v-3.6l1.4,0.6h1.8l0.5-0.7l1.3,1c-0.1,0.1-0.2,0.2-0.4,0.2V21.5z M151.7,15c0,0-0.1,0-0.1,0
					c-0.1,0.3-0.3,0.6-0.4,0.9h0.6V15z M151.5,21h1.9v-1.9h-1.9V21z"/>
			</g>
		</g>
	</g>
	<path class="st2" d="M79.7,67c1.5-0.6,3-1.2,4.2-2.3c0.9-0.8,1.5-1.8,1.7-3c0.2-1.7,0.3-3.3,0.4-5c0-0.5,0-1,0-1.6
		c0.7,0,1.4,0,2.2,0c0,1.2,0,2.5,0,3.8c1.1-0.4,1.9-1,2.6-1.7c1.3-1.3,2.3-2.7,2.7-4.5c0.2-0.9,0.1-1.1-0.8-1.1c-4.1,0-8.1,0-12.2,0
		c-0.3,0-0.5,0-0.8,0c0-0.6,0-1.2,0-1.8c0.4,0,0.7-0.1,1.1-0.1c4.5,0,9,0,13.5,0c0.1,0,0.2,0,0.3,0c1.2,0,1.4,0.2,1.4,1.4
		c-0.1,2.3-1,4.3-2.5,6.1c-1.3,1.7-3,2.9-5.1,3.7c-0.3,0.1-0.6,0.5-0.7,0.8c-0.7,2.8-2.3,4.9-5,5.9c-1,0.4-2,0.7-3,1.1
		C79.7,68.1,79.7,67.6,79.7,67z"/>
	<path class="st2" d="M106,49.8c0,0.4,0,0.6,0,0.9c0,4.9,0,9.7,0,14.6c0,1,0,1.2,1.1,0.8c1.5-0.5,2.5-1.6,3.3-2.9
		c1.2-1.9,1.5-4,1.6-6.2c0-0.1,0-0.3,0-0.4c0.6,0,1.2,0,1.9,0c0,0.6,0.1,1.3,0,2c-0.2,1.8-0.5,3.6-1.3,5.3c-1.3,2.5-3.3,4.2-6.1,4.8
		c-0.4,0.1-0.9,0.2-1.3,0.2c-1,0.1-1.4-0.4-1.4-1.4c0-0.4,0-0.8,0-1.1c0-5.2,0-10.5,0-15.7c0-0.6,0.2-0.8,0.8-0.8
		C105,49.8,105.4,49.8,106,49.8z"/>
	<path class="st2" d="M73,57.3c0-0.6,0-1.2,0-1.8c0.6,0,1.2,0,1.8,0c0.4,0,0.6-0.2,0.6-0.6c0-0.7,0-1.4,0-2.1c0-0.4-0.1-0.6-0.6-0.6
		c-0.9,0-1.7,0-2.6,0c-0.5,0-0.6,0.3-0.7,0.7c-0.3,0.9-0.7,1.8-1.3,2.5c-0.9,0.9-2,1.4-3.2,1.7c-0.5,0.1-0.9,0.2-1.5,0.3
		c0-0.6,0-1.1,0-1.5c0.9-0.4,1.7-0.8,2.6-1.2c0.8-0.4,1.1-1.2,1.4-2c0.2-0.4-0.2-0.5-0.5-0.5c-1.1,0-2.2,0-3.3,0c-0.2,0-0.4,0-0.7,0
		c0-0.6,0-1.2,0-1.8c1.3,0,2.5,0,3.8,0c1.1,0,1.1,0,1.1-1.1c0-0.1,0-0.2,0-0.4c0.7,0,1.4,0,2.2,0c0,0.2,0,0.4,0,0.7
		c-0.1,0.8-0.1,0.9,0.8,0.9c1.1,0,2.2,0,3.3,0c0.7,0,1.1,0.3,1.1,1.1c0,1.6,0,3.1,0,4.7c0,0.8-0.4,1.2-1.2,1.2
		C75.1,57.3,74.1,57.3,73,57.3z"/>
	<path class="st2" d="M63.1,68.7c-0.7,0-1.3,0-2,0c0-0.2,0-0.4,0-0.7c0-3.9,0-7.8,0-11.7c0-1.3,0-1.3-1.4-1.4c0-0.3,0-0.6,0-1
		c-0.1-0.6,0.1-0.9,0.8-0.8c0.5,0.1,0.7-0.2,0.7-0.7c0-1.2,0-2.4,0-3.6c0.7,0,1.3,0,2,0c0,1.1,0,2.1,0,3.2c0,1.1,0,1.1,1,1.1
		c0.4,0,0.6,0.1,0.6,0.6c0,0.4,0,0.8,0,1.2c-0.3,0-0.5,0-0.7,0c-0.9,0-0.9,0-0.9,1C63.1,60.1,63.1,64.4,63.1,68.7z"/>
	<path class="st2" d="M95.4,68.8c0-0.8,0-1.4,0-2c0-0.2,0.2-0.4,0.4-0.5c1.7-1.1,2.6-2.8,2.7-4.7c0.2-3.7,0.2-7.5,0.3-11.2
		c0-0.2,0-0.3,0-0.5c0.8,0,1.5,0,2.3,0c0,0.9,0,1.8,0,2.6c0,2.1,0.1,4.1,0,6.2c-0.1,1.7-0.1,3.4-0.6,5c-0.7,2.2-2.1,3.8-4.3,4.8
		c-0.1,0-0.2,0.1-0.3,0.1C95.7,68.6,95.6,68.7,95.4,68.8z"/>
	<path class="st2" d="M63.9,68.7c0-0.5,0-0.9,0-1.4c0-0.1,0.1-0.3,0.2-0.4c0.9-0.6,1.2-1.6,1.3-2.5c0.2-1,0.1-2,0.2-2.9
		c0-0.5-0.2-0.6-0.6-0.6c-0.4,0-0.7,0-1.1,0c0-0.6,0-1.2,0-1.7c0.5-0.4,1.7,0.4,1.8-0.9c0.5,0,1,0,1.5,0c0,0.6,0.4,0.7,0.9,0.7
		c0.5,0,1.1,0,1.6,0.1c0.3,0.1,0.7,0.5,0.7,0.8c0.1,2.6,0,5.1,0,7.7c0,0.6-0.5,1.1-1.2,1.2c-0.7,0-1.4,0-2.2,0c0-0.6,0-1.2,0-1.8
		c0.1,0,0.2-0.1,0.4-0.1c1.3,0,1.2,0,1.2-1.3c0-1.3,0-2.6,0-3.9c0-0.4,0.1-0.9-0.6-0.9c-0.8,0-0.7,0.5-0.7,1
		c-0.1,1.1-0.2,2.1-0.4,3.2C66.5,66.7,65.6,68,63.9,68.7z"/>
	<path class="st2" d="M71.2,68.7c0-0.8-0.2-1.6,0.6-2.3c0.7-0.6,1-1.5,1-2.5c0-0.8,0.1-1.5,0.2-2.3c0.1-0.6-0.2-0.9-0.8-0.8
		c-0.3,0-0.6,0-1,0c0-0.6,0-1.2,0-1.7c0.6-0.4,1.6,0.3,1.9-0.9c0.4,0,0.7,0,1.1,0c0.1,0,0.3,0.1,0.3,0.1c0.1,0.7,0.7,0.5,1.1,0.5
		c2.4,0.1,2,0.3,2,2.1c0,2.1,0,4.2,0,6.3c0,1.2-0.3,1.5-1.5,1.5c-0.6,0-1.2,0-1.8,0c0-0.6,0-1.2,0-1.7c0.1,0,0.2-0.1,0.3-0.1
		c1.2,0,1.2,0.1,1.2-1.2c0-1.4,0-2.8,0-4.2c0-0.5-0.1-0.7-0.7-0.7c-0.5,0-0.7,0.3-0.7,0.7c-0.1,1.1-0.2,2.2-0.4,3.3
		C73.9,66.6,73,68,71.2,68.7z"/>
	<path class="st2" d="M41.6,68.3c0-0.1,0-0.1-0.1-0.1c-0.2-1.8-0.2-1.8,1.6-1.8c4.9,0,9.7,0,14.6,0c1.5,0,1.2-0.1,1.2,1.3
		c0,0.2,0,0.4,0,0.7C53.2,68.3,47.4,68.3,41.6,68.3z"/>
	<path class="st2" d="M130.2,68.6c-2-0.4-3.9-0.8-5.7-1.2c-2.7-0.6-5.4-0.4-8.1-0.4c-0.7,0-0.9-0.2-0.9-0.9c0-0.4,0-0.8,0-1.3
		c2,0,4-0.1,6,0c1.4,0.1,2.8,0.2,4.2,0.5c1.4,0.3,2.7,0.7,4.1,1.1c0.2,0.1,0.4,0.4,0.5,0.7C130.3,67.7,130.2,68.2,130.2,68.6z"/>
	<path class="st2" d="M42.6,50c5.1,0,10.2,0,15.3,0c0,0.6,0,1.3,0,1.9c-5.1,0-10.2,0-15.3,0C42.6,51.3,42.6,50.7,42.6,50z"/>
	<path class="st2" d="M129.4,53.7c-1.1-0.3-2.1-0.7-3.1-0.9c-1.9-0.4-3.7-0.8-5.7-0.8c-1.3,0-2.7-0.1-4-0.1c-0.4,0-0.6-0.1-0.6-0.5
		c0-0.4,0-0.9,0-1.4c0.1,0,0.3-0.1,0.4-0.1c2.7,0.1,5.4,0.1,8.1,0.4c1.5,0.2,3,0.8,4.4,1.3c0.2,0.1,0.4,0.4,0.4,0.6
		C129.4,52.6,129.4,53.2,129.4,53.7z"/>
	<path class="st2" d="M57.4,58.2c0,0.6,0,1.2,0,1.8c-4.7,0-9.5,0-14.3,0c0-0.5,0-0.9,0-1.4c0-0.1,0.2-0.3,0.4-0.3
		c0.1-0.1,0.3,0,0.5,0c4.2,0,8.4,0,12.7,0C56.8,58.2,57,58.2,57.4,58.2z"/>
	<path class="st2" d="M128.9,60.2c-2.1-0.5-4.1-1.1-6.1-1.4c-2-0.3-4.1-0.3-6.2-0.4c0-0.6,0-1.2,0-2c1.8,0.1,3.6,0.1,5.4,0.3
		c1.4,0.1,2.8,0.3,4.1,0.6c0.8,0.2,1.6,0.5,2.4,0.9c0.2,0.1,0.4,0.4,0.4,0.7C129,59.3,128.9,59.8,128.9,60.2z"/>
</g>
</svg>
