<?xml version="1.0" encoding="utf-8"?>
<!-- Generator: Adobe Illustrator 27.0.0, SVG Export Plug-In . SVG Version: 6.00 Build 0)  -->
<svg version="1.1" id="圖層_1" xmlns="http://www.w3.org/2000/svg" xmlns:xlink="http://www.w3.org/1999/xlink" x="0px" y="0px"
	 viewBox="0 0 400 34" style="enable-background:new 0 0 400 34;" xml:space="preserve">
<style type="text/css">
	.st0{fill:#40220F;}
</style>
<g>
	<path class="st0" d="M63.6,3.2c-0.3,0.5-0.7,0.7-1.5,0.7h-1.6v29.2c0,0.2-0.8,0.8-2,0.8h-0.4v-8.4c-1.5,0.7-3.4,1.5-5.9,2.6
		c-0.2,0.5-0.5,0.7-0.9,0.8l-1.1-3.5l2-0.2V3.9h-1.8l-0.2-0.8H59L60.6,1L63.6,3.2L63.6,3.2z M58.1,10.1V3.9h-3.5v6.2H58.1z
		 M58.1,17.4v-6.6h-3.5v6.6H58.1z M54.6,18.2V25c1.1-0.1,2.3-0.3,3.5-0.5v-6.3H54.6z M82.1,13.7c-0.3,0.5-0.7,0.7-1.6,0.7h-4.8
		c0.2,2.7,0.4,5.3,0.8,7.6c0.8-1.9,1.5-3.8,1.9-5.8l3.4,1.1c-0.1,0.4-0.4,0.6-1.3,0.6c-0.7,2.4-1.8,4.8-3.2,7.1
		c1,3.1,2.2,4.6,2.3,4.6c0.3,0,1.2-2.7,1.7-4.6l0.3,0.1L81,30.7c0.5,1.1,0.8,1.9,0.8,2.4c0,0.7-0.7,0.9-1.1,0.9
		c-2.8,0-4.9-5.6-5.3-6.7c-2.2,2.6-5,4.8-8.6,6.3L66.7,33c3.5-1.9,6.2-4.7,8.2-7.9c-0.8-3.1-1.3-6.7-1.5-10.7H60.9l-0.2-0.8H68
		c0.4-1.9,0.7-4.6,0.9-6.5l3.5,0.8c-0.1,0.4-0.4,0.6-1.2,0.6c-0.6,1.5-1.5,3.5-2.5,5.2h4.5c-0.1-2.3-0.2-4.8-0.2-7.3
		c-0.3,0.1-0.6,0.2-1.1,0.2H61.8l-0.2-0.8h4.3V0.5l3.9,0.4c-0.1,0.5-0.4,0.8-1.4,0.9v3.9h1.4l1.3-2l2.1,1.7c0-1.6,0-3.2,0-4.9
		L76.8,1c0,0.5-0.3,0.7-1.3,0.8c0,1.9-0.1,3.7-0.1,5.6c0,2.1,0,4.2,0.1,6.2h1.9l1.6-2.2L82.1,13.7L82.1,13.7z M69.2,28H65v2.3
		c0,0-0.3,0.8-2.2,0.8V16.5l2.4,1.2h3.8l0.9-1.3l2.7,2c-0.2,0.2-0.6,0.5-1.1,0.6v9.7c0,0.1-0.7,0.8-2.2,0.8L69.2,28L69.2,28z
		 M63.5,7.1c1.9,1.5,2.5,3,2.5,4.1c0,1.2-0.7,2-1.5,2c-0.4,0-0.8-0.2-1.1-0.7c0.1-0.5,0.1-1,0.1-1.5c0-1.3-0.2-2.7-0.5-3.7L63.5,7.1
		z M69.2,18.5H65v3.9h4.2V18.5z M65,27.2h4.2v-4H65V27.2z M76.6,3.3C80.1,4,81.3,5.7,81.3,7c0,0.9-0.6,1.7-1.3,1.7
		c-0.3,0-0.7-0.1-1-0.5c-0.1-1.6-1.3-3.5-2.6-4.5L76.6,3.3L76.6,3.3z"/>
	<path class="st0" d="M87,33.3c13.1-9.2,13-21,13-32l4.4,0.4c0,0.5-0.3,0.8-1.4,0.9c0.8,11.2,4.1,21.6,15.2,28.4l-0.1,0.4
		c-1.4,0.1-2.4,0.9-2.8,2.5c-8.5-6.4-11.4-16-12.5-25.7h0c-0.6,9.2-2.8,18.7-15.4,25.6L87,33.3L87,33.3z"/>
	<path class="st0" d="M151,1.2l3.2,2.5c-0.2,0.3-0.8,0.6-1.4,0.8v28c0,0.1-0.7,1-2.6,1v-2h-22.3v1.3c0,0.1-0.2,1.2-2.6,1.2V1.5
		l2.8,1.4h21.7L151,1.2z M127.8,30.7h22.3v-27h-22.3V30.7z M142.1,17.6c4.6,0.4,6,1.7,6,2.7c0,0.5-0.4,0.9-0.8,1l2.3,1.7
		c-0.3,0.5-0.7,0.7-1.5,0.7h-4.2v2.7c0,1.9-0.4,3.1-3.4,3.4c0-1.7-0.5-1.9-2.9-2.2v-0.5h3.4c0.5,0,0.6-0.2,0.6-0.6v-2.7h-12.6
		l-0.2-0.8h12.8v-2l3.6,0.2c0,0.5-0.2,0.7-1.3,0.8v0.9h1.9l1.1-1.5c-0.3,0-0.6-0.2-0.8-0.4c-0.2-0.4-0.6-0.7-1-1.1
		c-3.2,0.4-7.7,0.8-13.7,1.3c-0.2,0.5-0.5,0.6-0.8,0.7l-1.3-2.6l8.6-0.1v-2.2h-4.2v0.4c0,0-0.4,0.8-2.3,0.8V9.1l2.5,1.2h4.1V8.2
		h-8.4l-0.2-0.8h8.6V4.7l3.6,0.4c0,0.5-0.4,0.7-1.3,0.8v1.5h4.9l1.3-1.8l2.6,1.9c-0.3,0.5-0.7,0.7-1.5,0.7h-7.3v2.2h4L145,9l2.7,2
		c-0.2,0.2-0.6,0.5-1.1,0.5v5.5c0,0.1-0.7,0.8-2.3,0.8v-0.8h-4.2v2.1l3.8-0.1c-0.5-0.3-1.2-0.7-2-0.9L142.1,17.6L142.1,17.6z
		 M132.6,23.7c3,0.4,3.9,1.7,3.9,2.7c0,0.8-0.5,1.4-1.2,1.4c-0.3,0-0.6-0.1-0.9-0.4c-0.2-1.1-1.1-2.6-2-3.2L132.6,23.7L132.6,23.7z
		 M137.7,11.1h-4.2v2.1h4.2V11.1z M133.5,16.2h4.2v-2.2h-4.2V16.2z M144.4,11.1h-4.2v2.1h4.2V11.1z M140.1,16.2h4.2v-2.2h-4.2V16.2z
		"/>
	<path class="st0" d="M181.7,9c0.4,3.2,1.1,6.2,2,8.7c1.7-1.8,3.8-4.5,4.6-5.9l2.7,2.6c-0.1,0.1-0.3,0.2-0.5,0.2
		c-0.2,0-0.3,0-0.5-0.1c-1.2,1-3.8,2.7-6,3.9c1.7,4.2,4.2,7.5,7.4,9.7l-0.1,0.4c-1.1,0-2.1,0.8-2.7,2c-4.7-4.6-6.8-11.3-7.6-21.1
		c-1.1,1.4-2.4,2.7-4,3.7c4,3.5,5.5,8.6,5.5,12.8c0,2.9-0.7,5.4-1.9,6.7c-0.8,0.9-2.1,1.4-3.9,1.4c-0.1-2.2-1.1-2.5-3.5-2.8v-0.5
		c1.4,0,3.4,0,4.2,0c0.5,0,0.9-0.1,1.1-0.4c0.8-1,1.3-3,1.3-5.4c0-0.4,0-0.8,0-1.1c-2.9,2.7-7.1,5.5-11.3,6.9l-0.2-0.5
		c4.1-2.2,8.3-6.1,11.1-9.8c-0.2-0.8-0.4-1.6-0.7-2.4c-2,1.7-4.8,3.4-7.4,4.4c-0.2,2.9-1.5,4.5-4.7,4.8c0-1.7-0.4-2.3-2.2-2.6V24
		h2.5c1.6,0,1.6-1.9,1.6-2.9c0-2.7-0.9-5.5-3.2-8.1c0.7-2.3,1.8-6.7,2.4-9.5h-4.1V33c0,0.2-0.8,0.9-2.1,0.9h-0.5V1.4l3,1.3h3.5
		l1.6-1.8l2.8,3.2c-0.3,0.3-0.7,0.4-1.5,0.4c-1,2.2-3.1,6.2-4.5,8.4c4.9,3.8,5.2,6.8,5.2,8.7c2.2-1.6,4.7-4.1,6.1-6.4
		c-0.3-0.6-0.7-1.1-1-1.7c-1.8,1.2-3.8,2.2-5.9,2.9l-0.3-0.6c3.1-1.8,5.8-4.3,7.6-7h-7.6l-0.2-0.8h11.3c0.9-2.3,2-5.5,2.8-7.7
		l4.2,1.7c-0.1,0.3-0.4,0.5-0.8,0.5c-0.1,0-0.3,0-0.5,0c-1.2,1.6-3.1,3.9-4.8,5.7h4.5l1.6-2.3l3,2.5c-0.3,0.5-0.7,0.7-1.6,0.7
		L181.7,9L181.7,9z M173.4,0.8c3.5,1.4,4.6,3.5,4.6,5c0,1.2-0.8,2.1-1.6,2.1c-0.4,0-0.9-0.2-1.2-0.7c0-2-0.9-4.6-2.1-6.2L173.4,0.8z
		"/>
	<path class="st0" d="M236.9,11.3l3,2.3c-0.3,0.5-0.7,0.7-1.6,0.7h-17.2v0c-0.2,0-0.5,0.1-0.8,0.1h-4.2v3.5c3.8,1.7,4.9,3.8,4.9,5.2
		c0,1-0.6,1.7-1.3,1.7c-0.3,0-0.7-0.2-1.1-0.6c-0.2-1.8-1.4-4.1-2.5-5.7V33c0,0.1-0.3,0.9-2.6,0.9V21.1c-1.2,2.7-2.8,5.2-4.6,7.4
		l-0.5-0.5c2.1-3.8,3.6-8.9,4.4-13.7h-4.1l-0.2-0.8h5V0.4l3.8,0.4c0,0.5-0.3,0.7-1.2,0.9v11.9h1.3l1.5-2.2l2.7,2.1h7V10h-5.9
		l-0.2-0.8h6.1V5.8h-6.8L221.7,5h7V0.4l4.1,0.4c-0.1,0.6-0.4,0.8-1.5,1V5h3.4l1.5-2.2l2.9,2.3c-0.3,0.5-0.7,0.7-1.5,0.7h-6.4v3.4
		h2.4l1.5-2.1l2.9,2.2c-0.3,0.5-0.7,0.7-1.5,0.7h-5.2v3.6h4.1L236.9,11.3L236.9,11.3z M209.2,3c2.3,2.2,3.1,4.3,3.1,5.8
		c0,1.4-0.7,2.2-1.4,2.2c-0.3,0-0.7-0.2-1-0.6c0.2-2.2-0.4-5.3-1.2-7.2L209.2,3L209.2,3z M222.3,3.8c-0.1,0.5-0.4,0.7-1.2,0.7
		c-1,2.3-2.3,5.1-3.5,6.9l-0.6-0.2c0.5-2.2,1.1-5.6,1.5-8.5L222.3,3.8L222.3,3.8z M234.1,17.3l1.2-1.6l3.2,2.5
		c-0.2,0.3-0.7,0.6-1.4,0.7v11.3c0,1.9-0.3,3.3-3.5,3.7c0-2.1-0.8-2.5-2.8-2.8v-0.5h3.1c0.4,0,0.5-0.1,0.5-0.5v-3.4h-9v6.2
		c0,0-0.3,1-2.5,1V16l2.7,1.3H234.1L234.1,17.3z M234.4,18.1h-9v3.4h9V18.1z M225.4,25.9h9v-3.6h-9V25.9z"/>
	<path class="st0" d="M272.8,27.2l3.6,2.8c-0.3,0.5-0.7,0.7-1.6,0.7h-29.4l-0.2-0.8h14.1V6.6h-11.6l-0.2-0.8h21.3l1.9-2.7l3.5,2.7
		c-0.3,0.5-0.7,0.7-1.6,0.7h-10.5v23.3h8.8L272.8,27.2L272.8,27.2z"/>
	<path class="st0" d="M309,27.3l3.6,2.7c-0.2,0.5-0.6,0.7-1.6,0.7h-23.6V33c0,0.2-0.9,1-2.3,1h-0.5V2.1l3.2,1.4h18l1.9-2.6l3.6,2.7
		c-0.3,0.5-0.7,0.7-1.6,0.7h-22.4V11H303l1.3-1.8l3.6,2.8c-0.3,0.3-0.9,0.7-1.7,0.8v11.7c0,0.1-0.8,0.8-2.8,0.8v-3h-16V30h19.7
		L309,27.3L309,27.3z M303.4,11.8h-16v9.7h16V11.8z"/>
	<path class="st0" d="M335.8,22l2.7,2c-0.2,0.2-0.6,0.5-1.2,0.6V31c0,0.1-0.7,0.8-2.1,0.8v-1.9h-2.4v1.4c0,0-0.3,0.8-2,0.8v-3.8
		c-2.5,1-5.8,2.2-10.3,3.8c-0.2,0.4-0.5,0.7-0.8,0.8l-1.4-3.5c1.1-0.1,3-0.4,5.3-0.7V17.4h-5l-0.2-0.8h5.2v-5.3h-3.5l-0.1-0.4
		c-0.5,0.5-1,1-1.5,1.5l-0.4-0.3c2.2-3,4.1-8.1,4.9-11.7l4.1,0.4c-0.1,0.4-0.4,0.7-1.2,0.8c4.2,1.8,5.6,3.8,5.6,5.2
		c0,1-0.6,1.6-1.4,1.6c-0.3,0-0.7-0.2-1-0.5c-0.4-1.7-1.6-4-3.3-5.9c-1.2,2.7-3.1,6-5.3,8.5h6.2l1.4-2l2.8,2.1l-0.1,0.2h15.4
		l1.4-1.5l2.5,2.6c-0.2,0.3-0.6,0.4-1.2,0.4c-0.7,0.6-1.9,1.6-2.7,2.1l-0.5-0.2c0.2-0.6,0.5-1.7,0.8-2.5H330l-0.1-0.5
		c-0.2,0.1-0.5,0.1-0.9,0.1h-3.2v5.3h1.3l1.5-2.1l2.8,2.2c-0.2,0.5-0.6,0.7-1.5,0.7h-4v10.8c1.5-0.2,3.2-0.5,4.9-0.8v-5.3l2.2,1.1h2
		L335.8,22L335.8,22z M319.4,19.3c2.1,2,2.9,4,2.9,5.4s-0.6,2.2-1.3,2.2c-0.3,0-0.6-0.2-0.9-0.6c0-0.3,0.1-0.7,0.1-1
		c0-1.9-0.5-4.2-1.1-5.8L319.4,19.3z M345.4,20.1l1.4-1.7l2.8,1.9c-0.3,0.5-0.7,0.7-1.6,0.7h-17l-0.1-0.6c-0.2,0.1-0.4,0.2-0.8,0.2
		c-0.8,2.1-1.8,4.6-2.9,6.2l-0.6-0.2c0.4-1.9,0.9-4.9,1.2-7.5l3.4,0.9c0,0.1,0,0.2-0.1,0.2L345.4,20.1L345.4,20.1z M330.7,5.1
		l-0.2-0.8h7V0.4l3.9,0.4c0,0.5-0.3,0.7-1.3,0.9v2.6h5.1l1.4-2.2l2.8,2.3c-0.3,0.5-0.6,0.7-1.5,0.7h-7.8V8h3.6l1.4-2.1l2.7,2.2
		c-0.3,0.5-0.7,0.7-1.5,0.7h-14.6L331.5,8h6V5.1L330.7,5.1L330.7,5.1z M331.2,17.2h6.4v-2.7h-5.1l-0.2-0.8h8.9l1.3-1.6l2.6,1.7
		c-0.3,0.5-0.6,0.7-1.5,0.7h-3.5v2.7h3.5l1.4-1.8l2.7,1.9c-0.3,0.5-0.6,0.7-1.5,0.7h-14.8L331.2,17.2L331.2,17.2z M332.7,29h2.4
		v-4.9h-2.4V29z M346.1,24.5l1.1-1.5l2.2,1.7c-0.3,0.5-0.7,0.7-1.5,0.7h-2v5.4c0,1.9-0.4,3.1-3.4,3.3c0-1.7-1-1.9-2.8-2.1v-0.5h3.2
		c0.5,0,0.6-0.2,0.6-0.6v-5.5h-5.2l-0.2-0.8h5.4v-3.4l3.8,0.3c0,0.4-0.3,0.7-1.3,0.8v2.2L346.1,24.5L346.1,24.5z M338.6,26
		c2.7,0.5,3.5,1.6,3.5,2.6c0,0.8-0.6,1.4-1.3,1.4c-0.3,0-0.7-0.1-1-0.5c0-1.1-0.6-2.5-1.4-3.1L338.6,26L338.6,26z"/>
</g>
</svg>
