<?xml version="1.0" encoding="utf-8"?>
<!-- Generator: Adobe Illustrator 27.0.0, SVG Export Plug-In . SVG Version: 6.00 Build 0)  -->
<svg version="1.1" id="圖層_1" xmlns="http://www.w3.org/2000/svg" xmlns:xlink="http://www.w3.org/1999/xlink" x="0px" y="0px"
	 viewBox="0 0 400 29" style="enable-background:new 0 0 400 29;" xml:space="preserve">
<style type="text/css">
	.st0{fill:#40220F;}
</style>
<path class="st0" d="M67.5,13.5c4.8-3.2,10-9,11.3-13.4L83,1c-0.1,0.4-0.5,0.5-1.2,0.6c3,3.7,8.3,7,13.1,9l0,0.5
	c-1.1,0.3-2,1.4-2.2,2.4c-4.7-2.6-9.1-7.1-11.3-11.6c-2.4,4.4-8.1,9.2-13.6,11.9L67.5,13.5L67.5,13.5z M89.5,26.8l1.5-2.1l2.9,2.2
	c-0.2,0.4-0.6,0.6-1.4,0.6H68.8l-0.2-0.7h11.2V20h-8.1l-0.2-0.7h8.3v-6.2h-7.5l-0.2-0.7h13.7l1.4-1.9l2.7,1.9
	c-0.2,0.5-0.6,0.6-1.4,0.6h-6.3v6.2H87l1.5-1.9l2.8,2c-0.2,0.5-0.5,0.6-1.3,0.6h-7.7v6.8H89.5L89.5,26.8z"/>
<path class="st0" d="M103.2,12.3c0.5,1.7,0.7,3.2,0.7,4.6c0,4.1-1.9,6.8-3.8,6.8c-0.8,0-1.1-0.6-1.1-1.1c0-0.5,0.3-1,0.7-1.4
	c1.7-1.4,3.2-4.8,3.1-8.8L103.2,12.3z M106.2,1.1c7.5,0.1,9.9,2.9,9.9,4.6c0,0.7-0.5,1.2-1.1,1.2c-0.2,0-0.4,0-0.6-0.1
	c-1.1-1.7-4-4-8.2-5.2L106.2,1.1z M106.8,8.9l3.4,0.3c-0.1,0.4-0.2,0.6-1.1,0.8v14.4c0,1,0.1,1.1,1.2,1.1h5.6c0.5,0,0.8-0.1,1.1-0.5
	c0.3-0.5,0.7-2.3,1.2-4.5h0.3l0,4.7c1,0.4,1.1,0.5,1.1,0.9c0,1-0.9,1.6-3.7,1.6h-5.6c-2.8,0-3.5-0.6-3.5-3.3L106.8,8.9L106.8,8.9z
	 M119,11.1c4.9,3,6.4,6.8,6.4,9.4c0,1.8-0.7,3.1-1.6,3.1c-0.3,0-0.7-0.2-1-0.7c0.1-3.1-0.8-8.1-4.1-11.4L119,11.1z"/>
<path class="st0" d="M129.6,16c2.3-3.6,4.7-9.9,6.1-15.9l3.5,1.1c-0.1,0.3-0.4,0.6-1.1,0.5c-0.7,2.2-1.6,4.4-2.6,6.4l1,0.4
	c-0.1,0.3-0.4,0.5-0.9,0.6v18.7c0,0.2-1,0.8-1.9,0.8h-0.4V12c-1,1.6-2.2,3.1-3.3,4.3L129.6,16L129.6,16z M156.5,15.8
	c-0.2,0.4-0.6,0.6-1.3,0.6h-6.6c1.8,3.5,5.1,6.5,8,7.9l-0.1,0.3c-0.9,0.2-1.6,0.9-1.9,2.1c-2.7-2.2-5.1-5.7-6.6-10v11.2
	c0,0-0.3,0.8-2.3,0.8v-9.6c-2.1,3.2-5.1,5.9-8.7,7.9l-0.3-0.5c3.4-2.5,6.1-6.2,7.7-10h-6.8l-0.2-0.7h8.3v-4.9h-3.5v0.9
	c0,0.1-0.7,0.7-1.9,0.7H140V1.1l2.6,1.1h8.8l1-1.4l2.6,2.1c-0.2,0.2-0.5,0.4-1.1,0.5v8.2c0,0.2-0.8,0.7-1.9,0.7h-0.4v-1.5H149
	c-0.1,0.2-0.4,0.3-0.9,0.3v4.5h4.2l1.5-2L156.5,15.8L156.5,15.8z M142.2,10.1h9.4V2.9h-9.4V10.1z"/>
<path class="st0" d="M184.1,1l2.8,2.2c-0.2,0.2-0.7,0.5-1.2,0.6v23.5c0,0.1-0.6,0.9-2.2,0.9v-2.2h-18.5v1.5c0,0.1-0.2,1-2.2,1V1.3
	l2.5,1.2h18L184.1,1z M164.9,25.4h18.5V3.2h-18.5V25.4z M180,7.5l2.6,2c-0.2,0.4-0.6,0.6-1.4,0.6h-6.1v4.8h2.3l0.9-1.2l2.5,1.9
	c-0.2,0.2-0.6,0.4-1.1,0.5v6.6c0,0.1-0.6,0.7-2.1,0.7v-1.5h-7.3v1c0,0-0.3,0.8-2.1,0.8v-9.8l2.2,1h2.3v-4.8h-6.9l-0.2-0.7h7v-5
	l3.4,0.3c0,0.5-0.3,0.7-1.2,0.8v3.8h3.6L180,7.5L180,7.5z M177.7,15.5h-7.3v5.7h7.3V15.5z"/>
<path class="st0" d="M236.2,23.2l3,2.3c-0.2,0.4-0.6,0.6-1.4,0.6h-20.9v1.6c0,0.2-0.7,0.9-2,0.9h-0.4V1.6l2.7,1.2h16.5l1.5-2.1
	l2.9,2.2c-0.3,0.4-0.6,0.6-1.4,0.6h-19.8v21.9h17.7L236.2,23.2L236.2,23.2z M230.8,23.6c0,0.2-0.7,0.7-1.8,0.7h-0.4V13.1h-5.8
	c0,3.5-0.5,8.2-4.3,11.3l-0.3-0.4c2.3-3.4,2.5-7.6,2.5-11.4V6.7l2.5,0.8c3.3-0.9,7-2.2,9.1-3.2l2.4,2.5c-0.1,0.1-0.3,0.2-0.5,0.2
	c-0.3,0-0.6-0.1-1-0.2c-2.6,0.6-6.6,1.3-10.2,1.6v4.1h10.3l1.4-2l2.7,2c-0.2,0.5-0.6,0.6-1.3,0.6h-5.1L230.8,23.6L230.8,23.6z"/>
<path class="st0" d="M248.1,12.3c0.5,1.7,0.7,3.2,0.7,4.6c0,4.1-1.9,6.8-3.8,6.8c-0.8,0-1.1-0.6-1.1-1.1c0-0.5,0.3-1,0.7-1.4
	c1.7-1.4,3.2-4.8,3.1-8.8L248.1,12.3z M251.1,1.1c7.5,0.1,9.9,2.9,9.9,4.6c0,0.7-0.5,1.2-1.1,1.2c-0.2,0-0.4,0-0.6-0.1
	c-1.1-1.7-4-4-8.2-5.2L251.1,1.1z M251.7,8.9l3.4,0.3c-0.1,0.4-0.2,0.6-1.1,0.8v14.4c0,1,0.1,1.1,1.2,1.1h5.6c0.5,0,0.8-0.1,1.1-0.5
	c0.3-0.5,0.7-2.3,1.2-4.5h0.3l0,4.7c1,0.4,1.1,0.5,1.1,0.9c0,1-0.9,1.6-3.7,1.6h-5.6c-2.9,0-3.5-0.6-3.5-3.3L251.7,8.9L251.7,8.9z
	 M263.9,11.1c4.9,3,6.4,6.8,6.4,9.4c0,1.8-0.7,3.1-1.6,3.1c-0.3,0-0.7-0.2-1-0.7c0.1-3.1-0.9-8.1-4.1-11.4L263.9,11.1z"/>
<path class="st0" d="M296.9,12.9l1.5-2.1l2.8,2.1c-0.2,0.4-0.6,0.6-1.4,0.6h-6.5v11.3c0,1.9-0.5,3.3-3.8,3.6c-0.1-1.9-1.1-2.3-4-2.5
	v-0.5h4.8c0.6,0,0.7-0.2,0.7-0.7V13.6H275l-0.2-0.7H291V7.1l3.5,0.3c0,0.4-0.2,0.6-1.2,0.8v4.7H296.9z M296.3,9.2
	c0.4-0.9,0.9-2.6,1.2-3.9H279c0,2.5-1.3,4.2-2.9,4.2c-0.9,0-1.2-0.5-1.2-1.1c0-0.6,0.4-1.1,0.9-1.4c1.2-0.6,2.4-2.2,2.4-4.1h0.5
	c0.2,0.6,0.3,1.2,0.3,1.7h7.8V0l3.6,0.3c0,0.5-0.3,0.7-1.3,0.8v3.5h8.2l1.4-1.5l2.5,2.5C301,5.9,300.7,6,300.1,6
	c-0.8,1.1-2.3,2.6-3.5,3.4L296.3,9.2L296.3,9.2z M279.4,15.5c4.1,1.5,5.4,3.8,5.4,5.4c0,1.1-0.6,1.9-1.4,1.9c-0.4,0-0.7-0.2-1.1-0.6
	c-0.2-2.1-1.6-4.9-3.1-6.4L279.4,15.5L279.4,15.5z"/>
<path class="st0" d="M314,4.3l2.4,1.8c-0.3,0.5-0.6,0.6-1.3,0.6h-9.3l-0.2-0.7h7.1L314,4.3L314,4.3z M312.9,8.4l2.2,1.7
	c-0.2,0.4-0.6,0.6-1.3,0.6h-6.9l-0.2-0.7h5L312.9,8.4z M315.2,14.1c-0.2,0.4-0.6,0.6-1.3,0.6h-6.9l-0.2-0.7h5l1.2-1.6L315.2,14.1z
	 M315.2,2.3c-0.2,0.5-0.6,0.6-1.3,0.6H307l-0.2-0.7h4.7l1.2-1.8L315.2,2.3L315.2,2.3z M315.8,18.7c-0.2,0.2-0.6,0.5-1.2,0.6v7.3
	c0,0.1-0.6,0.7-2.1,0.7v-1.9h-3.6v2.3c0,0-0.3,0.8-2.1,0.8V17l2.2,1.1h3.2l0.9-1.3L315.8,18.7L315.8,18.7z M308.9,24.8h3.6v-6h-3.6
	V24.8z M328.9,18.3l2.2,2.2c-0.2,0.3-0.5,0.4-1.2,0.4c-1.1,1.5-2.4,2.8-4.1,3.9c2,0.7,4.2,1.1,6.5,1.3v0.4c-0.9,0.2-1.5,1-1.8,2.1
	c-2.6-0.6-4.9-1.5-6.9-2.7c-2.6,1.2-5.6,2.1-9.1,2.6l-0.1-0.5c2.9-0.7,5.6-1.7,7.8-3c-1.5-1.2-2.8-2.8-3.7-4.7h-2.3l-0.2-0.7h11.4
	L328.9,18.3L328.9,18.3z M315.7,3.4l-0.2-0.7h4V0.1l3.1,0.2c-0.1,0.4-0.3,0.6-1,0.7v1.8h3.9V0.1l3.1,0.2c0,0.4-0.3,0.6-1,0.7v1.8
	h1.3l1.2-1.7l2.3,1.8c-0.2,0.5-0.5,0.6-1.3,0.6h-3.5v1.3c0,0-0.4,0.6-2.1,0.6l1.2,0.2c-0.1,0.4-0.4,0.6-1.1,0.6
	c-0.4,0.5-1.1,1.2-1.7,1.8h4.1l1.2-1.6l2.3,1.7c-0.2,0.5-0.6,0.6-1.3,0.6h-5v2.2h2.4l1.1-1.5l2.2,1.6c-0.2,0.4-0.6,0.6-1.3,0.6h-4.4
	v2.3h2.4l1.1-1.5l2.2,1.6c-0.2,0.4-0.6,0.6-1.3,0.6h-4.4v2.4h3.5l1.2-1.7l2.4,1.7c-0.2,0.5-0.6,0.6-1.3,0.6h-11.5v0.5
	c0,0.1-0.6,0.7-1.7,0.7h-0.3v-7.9c-0.7,0.9-1.5,1.7-2.3,2.4l-0.4-0.3c1.4-1.9,2.9-5.1,4-8.4l0.9,0.4V3.4L315.7,3.4L315.7,3.4z
	 M319.3,20.3c1.1,1.5,2.7,2.7,4.6,3.6c1.4-1,2.6-2.2,3.5-3.6H319.3z M323,10.9V8.7h-3.7v2.2H323z M323,13.9v-2.3h-3.7v2.3H323z
	 M323,16.9v-2.4h-3.7v2.4H323z M325.5,3.5h-3.9v1.3c0,0.2-0.5,0.4-1.2,0.6l0.9,0.4c-0.1,0.4-0.4,0.5-1,0.4c-0.3,0.6-0.6,1.2-0.9,1.7
	l0.3,0.1h3.2c0.2-0.9,0.4-2.2,0.6-3.1l2,0.4L325.5,3.5L325.5,3.5z"/>
</svg>
