<?xml version="1.0" encoding="utf-8"?>
<!-- Generator: Adobe Illustrator 27.0.0, SVG Export Plug-In . SVG Version: 6.00 Build 0)  -->
<svg version="1.1" id="圖層_1" xmlns="http://www.w3.org/2000/svg" xmlns:xlink="http://www.w3.org/1999/xlink" x="0px" y="0px"
	 viewBox="0 0 400 88" style="enable-background:new 0 0 400 88;" xml:space="preserve">
<style type="text/css">
	.st0{clip-path:url(#SVGID_00000160882862231877192100000007657126304637749156_);}
	.st1{fill:#F0DA5D;}
	.st2{fill:#FFFFFF;}
	.st3{fill:none;stroke:#FFFFFF;stroke-width:0.38;stroke-miterlimit:10;}
</style>
<g>
	<defs>
		<rect id="SVGID_1_" x="61.5" width="276.2" height="87.6"/>
	</defs>
	<clipPath id="SVGID_00000123398709282963124340000015919842252740760484_">
		<use xlink:href="#SVGID_1_"  style="overflow:visible;"/>
	</clipPath>
	<g style="clip-path:url(#SVGID_00000123398709282963124340000015919842252740760484_);">
		<path class="st1" d="M90,2.4c1,0.7,1.5,1.3,1.5,1.6c0,0.2-0.1,0.4-0.3,0.5c-0.3,0.2-0.7,0.5-0.9,0.7v19c0,1.8,0.1,3.6,0.1,5.5
			c0,0.6-0.8,0.9-2.3,1c-1.3,0-2-0.2-2.1-0.4v-1.6H66.2V30c0,0.5-0.8,0.8-2.1,0.8c-1.4,0-2.2-0.2-2.2-0.5c0.1-0.8,0.1-1.8,0.1-3V9.5
			c-0.1-3.1-0.1-5.7-0.1-8L65.9,3h19.8c1.3-1,2.2-1.5,2.5-1.5C88.5,1.5,89.1,1.8,90,2.4z M86,27.7V3.9H66.2v23.8L86,27.7L86,27.7z
			 M66.7,25c-0.1,0-0.2-0.1-0.4-0.4c3.3-1.9,5.4-3.8,6.4-5.6c0.1-0.1,0.2-0.3,0.2-0.4h-0.9v0.3c0,0.4-0.7,0.7-1.8,0.7
			c-1.2,0-1.8-0.1-1.9-0.4c0.1-0.6,0.1-1.5,0.1-2.6v-2.9c0-0.5-0.1-0.9-0.1-1.3l3,1.1h8.1c1.1-0.8,1.8-1.2,2.1-1.2
			c0.2,0,0.7,0.3,1.6,0.9c0.7,0.5,1,0.8,1,1c0,0.3-0.3,0.6-0.9,0.9v2.5c0,0.2,0,0.4,0,0.5c1.8,0.9,2.8,1.4,2.8,1.5
			c0,0.2-0.4,0.4-1.3,0.5c-0.9,0.4-2,0.8-3.2,0.9c2.3,0.8,3.6,1.8,3.8,2.8c-0.1,0.6-0.2,1-0.4,1.2c-0.3,0.6-0.8,0.9-1.6,0.9
			c-0.4,0-1.1-0.8-2-2.3c-0.8-1-1.9-1.9-3.2-2.8v3.1c0,0.6,0.1,1.2,0.1,1.8c0,0.8-0.8,1.1-2.5,1.1c-1.2,0-1.7-0.2-1.8-0.6
			c0-0.4,0-1.3,0-2.4v-2C72.1,23.3,69.7,24.2,66.7,25L66.7,25z M83.5,6.6c0.5,0.6,0.8,1,0.8,1.4c0,0.3-0.1,0.4-0.3,0.4h-6.2V11h3.6
			c1-1.6,1.7-2.4,2-2.4c0.2,0.1,0.7,0.6,1.5,1.5c0.6,0.6,0.8,1,0.8,1.4c0,0.3-0.1,0.4-0.3,0.4H72.4c-3,0-4.7,0.1-5.2,0.2
			c-0.3-0.5-0.6-0.9-0.8-1.4c1,0.3,3.2,0.4,6.6,0.4h0.7V8.4c-2.9,0-4.7,0.1-5.2,0.2c-0.3-0.5-0.6-0.9-0.8-1.4c1,0.2,2.9,0.4,5.9,0.4
			V5.6c0-0.6-0.1-1.1-0.2-1.3c3.5,0.3,5.2,0.7,5.2,1c0,0.2-0.1,0.3-0.3,0.4c-0.5,0.2-0.8,0.4-0.8,0.7v1.1h2.2c1-1.6,1.7-2.4,2-2.4
			C82.2,5.3,82.7,5.7,83.5,6.6L83.5,6.6z M79.5,17.6v-3.1h-7.5v3.1H79.5z M81.4,19.4h-0.1c-1,0-1.6-0.1-1.7-0.4v-0.4H78v1.8
			c1,0.2,1.9,0.4,2.6,0.7C80.9,20.6,81.2,20,81.4,19.4z"/>
		<path class="st1" d="M94.5,9.8c-0.3-0.5-0.5-0.9-0.7-1.4c0.9,0.2,2.7,0.4,5.4,0.4V5c0-1.6-0.1-2.8-0.2-3.9c3.3,0.3,5,0.7,5,1.2
			c0,0.2-0.1,0.4-0.2,0.5c-0.5,0.2-0.7,0.3-0.7,0.5v5.5h0.6c0.9-1.6,1.5-2.5,1.8-2.7c0.1,0,0.3,0,0.4,0.1c0.5,0.5,1,1,1.5,1.6
			c0.6,0.6,0.8,1.1,0.8,1.5c0,0.3-0.1,0.4-0.3,0.4h-4.8v2.7c3.4,1,5.3,2.2,5.6,3.6c0,0.9-0.2,1.6-0.5,1.9c-0.2,0.4-0.8,0.6-1.6,0.6
			c-1.4,0-2.1-0.8-2.1-2.4c0-1.2-0.5-2.1-1.4-3V21c0.1,4.3,0.1,7.2,0.2,8.8c-0.1,0.8-1.1,1.1-2.8,1.1c-0.9,0-1.4-0.3-1.4-0.7
			c0.1-1.4,0.1-4.5,0.1-9.3v-2.7c-1.4,2.5-3,4.5-4.7,6c-0.3,0-0.5-0.2-0.5-0.4c2.4-4.6,3.9-9.3,4.4-14.1C96.2,9.7,94.9,9.7,94.5,9.8
			L94.5,9.8z M109.2,10c-0.2-0.4-0.4-0.9-0.7-1.3c0.9,0.1,2.4,0.2,4.3,0.2V5.4c0-1.6-0.1-3-0.2-4.1c3.6,0.3,5.4,0.8,5.4,1.3
			c0,0.2-0.1,0.4-0.2,0.5c-0.5,0.2-0.8,0.4-0.8,0.6v5.2h2.3c0.9-0.9,1.5-1.5,1.8-2c0.3-0.3,0.6-0.5,0.9-0.8c0.3,0.2,0.8,0.6,1.6,1.4
			c0.8,0.8,1.4,1.4,1.6,1.7c0,0.3-0.1,0.4-0.3,0.4h-6.8c0.3,2.3,1.3,4.5,2.8,6.7c1.4,1.9,2.8,3,4.2,3.4c0,0.1-0.1,0.3-0.1,0.7
			c-0.6,0.2-1,0.5-1.2,1c-0.3,0.8-0.6,1.6-0.8,2.4c-0.2,0.6-0.4,0.9-0.6,0.9c-0.6,0-1.5-1.2-2.7-3.8c-1.2-2.9-2-6.6-2.5-11.3H117
			v10.6c0.1,4.6,0.1,7.8,0.2,9.4c-0.1,0.8-1.2,1.2-3.1,1.2c-1,0-1.5-0.3-1.5-0.8c0.1-1.6,0.1-4.9,0.1-10.1v-3.2
			c-2.1,3.8-4.5,6.7-7.2,8.8c-0.3,0-0.5-0.1-0.5-0.3c3.4-5.1,5.5-10.3,6.2-15.6C110.4,9.8,109.7,9.9,109.2,10L109.2,10z"/>
		<path class="st1" d="M130.3,14.1c-1,0-1.5-0.1-1.6-0.4c0-0.5,0.1-1.2,0.1-2.1v-3c0-0.5-0.1-1-0.1-1.4l2.8,1h1.4
			c0.5-0.3,0.8-0.5,1.1-0.7c-0.3,0.1-0.6,0.1-1,0.1c-0.9,0-1.4-0.2-1.4-0.5c0-0.8,0.1-1.4,0.1-2c-1.8,0.1-3,0.1-3.6,0.3
			c-0.2-0.5-0.5-1-0.7-1.6c1,0.2,2.3,0.3,4.3,0.3V3.9c0-1.2-0.1-2.1-0.1-2.7c3,0.3,4.6,0.7,4.6,0.9c0,0.2-0.1,0.4-0.3,0.4
			c-0.5,0.2-0.7,0.4-0.7,0.4v1.1h2.6V3.9c0-1.2-0.1-2.1-0.2-2.7c3.1,0.3,4.6,0.7,4.6,0.9c0,0.2-0.1,0.4-0.3,0.4
			c-0.5,0.2-0.7,0.4-0.7,0.5v1.1h0.3c0.3-0.4,0.8-0.9,1.5-1.5c0.1-0.1,0.2-0.2,0.4-0.2c0.1,0,0.3,0.1,0.6,0.3c1.2,1,1.8,1.6,1.9,1.9
			c0,0.3-0.1,0.4-0.4,0.4h-4.2v1.8c-0.1,0.5-0.8,0.7-2.1,0.7c-0.9,0-1.4-0.2-1.4-0.5c0-0.8,0.1-1.5,0.1-2h-2.6v1.8
			c-0.1,0.2-0.2,0.3-0.4,0.4c0.2,0.1,0.7,0.4,1.2,0.8c0.6,0.4,0.9,0.7,0.9,0.9c0,0.2-0.2,0.5-0.7,0.8v2.6c0,0.3,0,0.6,0.1,0.8
			c0,0.4-0.6,0.7-1.7,0.7c-0.8,0-1.3-0.1-1.4-0.3v-0.2h-1.3v0.1c0,0.3-0.3,0.4-0.7,0.5c2.5,0.9,3.8,1.4,3.9,1.6
			c0,0.4-0.4,0.6-1.1,0.6c-0.2,0.3-0.3,0.6-0.5,0.9h3.4c-0.1-0.2-0.1-0.3-0.1-0.5c-0.2-1-0.7-1.7-1.5-2.1c0.1-0.1,0.1-0.3,0.2-0.3
			c2.7,0,4.2,0.6,4.2,1.7c0,0.6-0.1,1-0.3,1.3h1.2c0.4-0.4,0.9-1,1.5-1.6c0.1-0.1,0.2-0.2,0.3-0.2c0.2,0.1,0.4,0.2,0.6,0.4
			c1.2,1,1.9,1.6,2.1,1.9c-0.1,0.4-0.2,0.5-0.5,0.5h-5.3v2.4h0.6c0.4-0.4,0.9-1,1.5-1.6c0.1-0.1,0.2-0.2,0.3-0.2
			c0.2,0.1,0.4,0.2,0.6,0.3c1.2,1,1.9,1.6,2.1,1.9c-0.1,0.4-0.2,0.5-0.5,0.5h-4.6V24h0.6c0.4-0.5,0.9-1,1.5-1.6
			c0.1-0.1,0.2-0.2,0.3-0.2c0.2,0.1,0.4,0.2,0.6,0.4c1.2,1,1.9,1.6,2.1,1.9c-0.1,0.4-0.2,0.5-0.5,0.5h-4.7v2.7h0.5
			c0.4-0.5,1-1.1,1.7-1.9c0.1-0.1,0.2-0.2,0.3-0.2c0.2,0.1,0.4,0.2,0.7,0.4c0.9,0.7,1.5,1.3,1.9,1.6c0.6-0.7,1.1-1.5,1.5-2.3
			c0.6-1.3,0.8-2.8,0.8-4.4c2.4,0.4,4,0.8,4.8,1v-2.2h-1.4v0.1c0,0.5-0.7,0.7-2,0.8c-1.3,0-2-0.1-2.1-0.5c0.1-0.7,0.1-1.6,0.1-2.8
			V6.8c-0.1-1.8-0.1-3.3-0.1-4.6l3.4,1.2h3.5c1.2-1.2,2-1.8,2.4-1.8c0.3,0,0.8,0.3,1.7,0.9c1,0.7,1.4,1.1,1.4,1.5
			c0,0.2-0.1,0.4-0.3,0.5c-0.3,0.2-0.6,0.4-0.8,0.7v10.5c0,1,0.1,2,0.1,3.1c0,0.5-0.8,0.9-2.2,0.9h-0.2l0,6.9
			c0.1,0.3,0.4,0.5,0.8,0.5c0.6,0,1-1.3,1.3-4c0.2,0,0.4,0,0.6,0c-0.1,0.8-0.1,1.8-0.1,3c0,0.5,0.2,1,0.6,1.4
			c0.3,0.3,0.6,0.6,0.6,0.9c0,0.6-0.3,1.1-0.9,1.4c-0.4,0.4-1.3,0.6-2.8,0.6c-0.7,0-1.2-0.1-1.7-0.1c-1.2,0-1.8-0.6-1.9-1.9l0-5.8
			c-0.7,0.1-1,0.3-1.1,0.4c-0.5,3.8-3.4,6.3-8.9,7.8c-0.1-0.1-0.1-0.3-0.2-0.5c0.8-0.6,1.6-1.2,2.2-1.8h-10.2v1.2
			c0,0.6-0.8,0.9-2.2,1c-1.2,0-1.7-0.1-1.7-0.4c0-0.6,0.1-2.1,0.1-4.4v-4.7c-0.6,0.4-1.2,0.8-1.8,1.1c-0.1-0.1-0.3-0.2-0.4-0.2
			c1.7-2.1,3-4.8,3.7-8C130.6,14.1,130.5,14.1,130.3,14.1L130.3,14.1z M133,12.4V9.2h-1.3v3.2H133z M135.5,18.1h-2.6v2.4h2.6V18.1z
			 M135.5,21.4h-2.6V24h2.6V21.4z M135.5,24.9h-2.6v1.2c0,0.5,0.1,0.9,0.1,1.5h2.5V24.9z M139.6,8.2h1.9c0.9-0.7,1.5-1,1.7-1
			c0.2,0,0.6,0.3,1.3,0.8c0.6,0.4,0.9,0.7,0.9,0.9c0,0.2-0.3,0.5-0.8,0.8v2.9c0,0.3,0,0.6,0.1,0.9c0,0.4-0.6,0.7-1.7,0.7
			c-0.8,0-1.3-0.1-1.4-0.3v-0.6h-1.4v0.3c0,0.4-0.6,0.6-1.5,0.6c-1,0-1.5-0.1-1.6-0.4c0-0.5,0.1-1.2,0.1-2.1V8.7
			c0-0.5-0.1-1-0.1-1.4L139.6,8.2z M141.5,12.3v-3h-1.4v3H141.5z M153.1,8.2V4.4h-3.3v3.8H153.1z M153.1,13.2v-4h-3.3v4H153.1z
			 M153.1,18.6v-4.4h-3.3v4.4H153.1z"/>
		<path class="st1" d="M167.1,5.4c3.3-1,5.9-2.3,7.9-3.9c2.7,1.9,4.1,2.9,4.1,3.2c0,0.2-0.1,0.2-0.3,0.2c-0.7,0-1.2,0-1.5,0
			c-1.2,0.3-2.4,0.6-3.8,0.8c0.1,3.1,0.2,5.5,0.3,7.5h0.1c0.5-0.6,1.2-1.4,2-2.3c0.1-0.1,0.3-0.2,0.4-0.2c0.2,0.1,0.5,0.3,0.8,0.4
			c1.6,1.3,2.5,2.1,2.8,2.5c-0.1,0.4-0.2,0.5-0.5,0.5h-5.5c0.1,1.7,0.2,2.9,0.4,3.8c0.9,3.8,1.7,5.7,2.3,5.8c0.5,0,1.3-1.1,2.2-3.2
			c0.1,0,0.2,0.1,0.5,0.3c-0.4,1.3-0.7,2.6-0.9,3.9c0,0.8,0.2,1.7,0.7,2.4c0.2,0.4,0.3,0.8,0.3,1.2c-0.1,0.7-0.6,1.1-1.7,1.3
			c-1,0-1.8-0.3-2.6-0.9c-1.2-1-2.3-3-3.4-5.8c-0.8-2-1.4-4.9-1.7-8.6h-3.2v8c1.4-0.1,2.6-0.2,3.6-0.3c0.1,0,0.1,0.2,0.2,0.4
			c-1.7,1.5-4.2,2.8-7.3,3.8c0,0.8-0.2,1.2-0.4,1.2c-0.2,0-0.5-0.4-1-1.2c-0.4-0.8-1-1.9-1.7-3.6c0.9,0,1.7,0,2.5-0.1l0-15.2
			c0-0.8-0.1-2-0.3-3.5C164.2,4.2,165.7,4.8,167.1,5.4L167.1,5.4z M172.3,27.4c0.8,0.8,1.4,1.4,1.7,1.8c0,0.2-0.1,0.4-0.3,0.4h-8.6
			c-1.7,0.1-2.9,0.2-3.7,0.3c-0.2-0.5-0.4-0.9-0.7-1.3c0.9,0.1,2.4,0.1,4.5,0.2h2.8c0.9-0.9,1.5-1.5,1.8-1.9
			c0.3-0.3,0.6-0.6,0.9-0.8C171,26.2,171.5,26.6,172.3,27.4L172.3,27.4z M166.8,6.2v7h3.1c-0.2-2.2-0.3-4.5-0.3-7.1
			C168.7,6.1,167.8,6.2,166.8,6.2L166.8,6.2z M183.4,3.1h2.9c1.2-0.8,2-1.4,2.5-1.5c1.5,0.6,2.7,1.5,3.4,2.7c0,0.4-0.4,0.6-1.2,0.8
			c-1.2,3.4-2.9,6.2-5,8.6c3.7,2.5,5.6,5.4,5.7,8.6c-0.1,3-1.7,4.9-4.8,5.6c-0.5,0-0.7-0.3-0.7-0.8c0-1-0.3-1.8-0.9-2.4
			c-0.3-0.3-0.8-0.5-1.2-0.6c0-0.2,0-0.4,0.1-0.6c0.5,0.2,1.2,0.3,2,0.3c1-0.1,1.5-1,1.5-2.5c0-3.1-0.8-5.7-2.5-7.5
			c0.6-2.3,1-5.5,1.3-9.7h-2.6V30c0,0.5-0.7,0.7-1.9,0.8c-1.3,0-2-0.2-2.1-0.5c0.1-0.7,0.1-1.6,0.1-2.8V9.7
			c-0.1-3.1-0.1-5.7-0.1-7.9L183.4,3.1z"/>
		<path class="st1" d="M216.1,7.9c0.7,0.6,1.1,1,1.1,1.2c0,0.2-0.2,0.4-0.6,0.6c-0.2,0.1-0.3,0.3-0.4,0.4c0,2.9-0.4,5-1.1,6.1
			c-0.7,0.9-1.7,1.4-3.1,1.4c-0.2,0-0.3-0.2-0.3-0.6c-0.1-0.6-0.2-1.1-0.4-1.6c-0.2-0.3-0.4-0.5-0.8-0.7c-1.1,2.1-2.8,3.3-5.1,3.8
			c-0.1-0.1-0.1-0.2-0.1-0.4c1.4-1.4,2.3-3.4,2.8-6.2c0.1-0.8,0.2-1.6,0.2-2.4c-0.8,0.1-1.4,0.1-2,0.2c-0.1-0.8-0.3-1.2-0.4-1.4
			c2,0.2,4.1,0.3,6.3,0.3h0.7c1-0.9,1.6-1.4,1.9-1.4C214.9,7.1,215.3,7.4,216.1,7.9L216.1,7.9z M221.5,1.7c1,0.4,1.4,0.8,1.4,1.5
			c0,0.8-0.3,1.3-0.8,1.6h6.9c0.5-0.6,1.3-1.5,2.3-2.6c0.2-0.2,0.4-0.3,0.6-0.3c0.2,0.1,0.4,0.2,0.8,0.5c1.9,1.6,2.9,2.5,3,2.9
			c0,0.3-0.1,0.4-0.4,0.4h-12.9c2.5,0.7,3.8,1.1,3.8,1.3c0,0.2-0.4,0.3-1.1,0.4c-0.2,0.3-0.4,0.6-0.6,0.8l2.9,0.8
			c1.5-0.7,2.8-1.7,4.1-3c2.2,1.7,3.3,2.7,3.3,3c0,0.2-0.1,0.3-0.3,0.3c-0.3,0-0.6,0-1-0.1c-0.9,0.2-1.9,0.3-2.9,0.3
			c0.4,0.9,1.1,1.8,2,2.5c1.5,1.1,2.6,1.7,3.2,1.7c-0.1,0.4-0.1,0.6-0.1,0.6c-0.4,0.1-0.8,0.3-1,0.7c-0.3,0.8-0.5,1.5-0.6,2.2
			c0,0.6-0.2,0.9-0.6,0.9c-1.1-0.2-2-1.4-2.8-3.6c-1.4,1.2-3.2,2.3-5.6,3.3c0,0.6-0.2,1-0.5,1c-0.2,0-0.4-0.4-0.6-1.2
			c-0.3-0.9-0.6-2-0.9-3.5c0.3,0.1,0.6,0.2,1.1,0.2v-3.5c0-0.9,0-1.6-0.1-2.2c-0.7,0.8-1.4,1.4-2.3,1.8c0.8,0.2,1.2,0.4,1.2,0.5
			c0,0.3-0.1,0.4-0.3,0.4c-0.6,0.2-0.8,0.4-0.8,0.5v5.9c-0.1,0.5-0.9,0.8-2.3,0.8c-1,0-1.5-0.2-1.5-0.5c0.1-2.1,0.1-3.8,0.1-5.1
			s-0.1-2.3-0.2-2.9c1.1,0.1,1.9,0.2,2.7,0.3c0.7-1.3,1.1-2.8,1.3-4.7h-10.1c-3.2,0.1-5.2,0.2-6,0.3c-0.2-0.5-0.5-1-0.7-1.6
			c1.3,0.3,3.6,0.4,6.7,0.4h6.9c-0.3-0.2-0.6-0.6-0.7-1c-0.5-1.1-1.4-1.8-2.9-2.1c0.1-0.1,0.1-0.2,0.2-0.4c0.8,0,1.2,0,1.5,0
			C218.8,1.2,220.4,1.4,221.5,1.7L221.5,1.7z M215.6,19c0,0.2-0.1,0.4-0.3,0.5c-0.5,0.2-0.8,0.3-1,0.5v0.4h12.5v-0.1
			c0-1.2-0.1-2.1-0.3-2.7c3.8,0.2,5.7,0.6,5.7,1.3c0,0.3-0.2,0.4-0.7,0.6c-0.4,0.2-0.6,0.4-0.6,0.6l0,4.3c0.1,0.8,0.1,2.7,0.1,5.7
			c-0.1,0.5-1.1,0.8-3,0.8c-1,0-1.4-0.2-1.4-0.5c0-2.1,0.1-3.7,0.1-4.7h-12.9c-1,2.8-3.6,4.5-7.6,5.2c-0.1-0.3-0.2-0.4-0.5-0.5
			c1.4-0.9,2.6-1.9,3.4-3.1c0.8-0.9,1.2-2.3,1.2-4l-0.1-4.1c0-0.7-0.1-1.2-0.2-1.6C213.7,18,215.6,18.5,215.6,19L215.6,19z
			 M211.1,12.8c-0.2,0.5-0.3,0.9-0.5,1.3c0.5,0.1,1.1,0.1,1.7,0.1c0.2,0,0.4-0.2,0.5-0.6c0.2-0.6,0.3-2,0.4-4.3h-1.5
			C211.6,10.7,211.4,11.8,211.1,12.8L211.1,12.8z M226.8,24.3l0-2.9h-12.5V23c0,0.6-0.1,1.2-0.2,1.7h12.7V24.3L226.8,24.3z
			 M220.5,7.6c0,0.8-0.2,1.3-0.6,1.7c-0.2,0.4-0.7,0.6-1.4,0.8c-0.6,0-1.1-0.6-1.4-1.6c-0.3-0.8-0.9-1.6-2-2.1
			c0.1,0,0.2-0.1,0.2-0.3C218.6,6.3,220.3,6.8,220.5,7.6z M230.6,13.7c-0.1-0.2-0.1-0.4-0.2-0.5c-0.3-1.3-0.4-2.5-0.5-3.6
			c-0.7,0.1-1.4,0.1-2.1,0.1v4.8C228.9,14.3,229.8,14.1,230.6,13.7z"/>
		<path class="st1" d="M257.8,3.9c0,0.1-0.1,0.2-0.3,0.2c-0.4,0-0.7-0.1-0.9-0.2c-1.4,0.5-3.9,0.8-7.3,0.9c0,0.6-0.1,1.2-0.2,1.8
			h4.3c0.4-0.5,1-1.1,1.7-1.8c0.1-0.1,0.2-0.2,0.3-0.2c0.2,0.1,0.4,0.2,0.6,0.4c1.3,1.1,2.1,1.8,2.3,2.1c-0.1,0.4-0.2,0.5-0.5,0.5
			H255v2.2c0,0.6,0.1,1.2,0.1,1.8c0,0.8-0.8,1.1-2.5,1.1c-1.1,0-1.7-0.2-1.7-0.6c0-0.4,0-1.3,0-2.5V7.5h-2.1v0.1
			c-0.4,3.3-2.2,5.5-5.5,6.7c-0.2-0.1-0.3-0.2-0.4-0.5c0.7-0.4,1.2-1.2,1.7-2.2c0.5-0.7,0.7-2.6,0.7-5.6c0-2-0.2-3.3-0.4-3.9
			l4.2,1.6c2.3-0.8,3.9-1.8,4.9-2.8C256.5,2.6,257.8,3.6,257.8,3.9L257.8,3.9z M258.2,28.4c0,0.3-0.1,0.4-0.4,0.4
			c-0.5-0.1-0.9-0.1-1.3-0.1c-2.5,1.3-6.7,1.9-12.6,2c0-0.2-0.1-0.4-0.1-0.6c4.4-0.9,7.7-2.4,9.7-4.6
			C256.6,27.1,258.2,28.1,258.2,28.4L258.2,28.4z M251.2,13.8h13c1.3-1.1,2.1-1.6,2.5-1.6c0.2,0,0.9,0.4,1.8,1.1
			c0.8,0.6,1.2,1,1.2,1.2c0,0.3-0.3,0.7-1,1.1v7.1c0,0.8,0,1.5,0,2.3c0,0.6-0.8,1-2.4,1c-1.2,0-1.8-0.1-1.9-0.4v-0.4h-13.1v0.5
			c0,0.5-0.8,0.8-2.1,0.8c-1.4,0-2.1-0.2-2.2-0.5c0.1-0.8,0.1-1.8,0.1-3v-7.4c-0.1-1.3-0.1-2.4-0.1-3.3L251.2,13.8L251.2,13.8z
			 M264.5,16.9v-2.2h-13.1v2.2H264.5z M264.5,20.5v-2.6h-13.1v2.6H264.5z M264.5,24.2v-2.7h-13.1v2.7H264.5z M272.1,3.8
			c0,0.1-0.1,0.2-0.3,0.2c-0.4,0-0.7-0.1-0.9-0.2c-1.5,0.5-4.2,0.8-8,0.9c0,0.6-0.1,1.2-0.2,1.8h6c0.4-0.5,1-1.1,1.7-1.8
			c0.1-0.1,0.2-0.2,0.3-0.2c0.2,0.1,0.4,0.2,0.7,0.4c1.3,1.1,2.1,1.8,2.3,2.1c-0.1,0.4-0.2,0.5-0.5,0.5h-4.6v1.6
			c0,0.6,0.1,1.2,0.1,1.8c0,0.8-0.8,1.1-2.5,1.1c-1.2,0-1.7-0.2-1.8-0.7c0-0.4,0-1.3,0-2.4V7.4h-1.9c-0.5,2.7-2.4,4.6-5.6,5.6
			c-0.2-0.1-0.3-0.2-0.4-0.4c0.7-0.4,1.3-1,1.8-1.9c0.5-0.6,0.8-2.3,0.8-5c0-1.8-0.2-2.9-0.5-3.4l3.9,1.5c2.7-0.8,4.7-1.8,5.9-2.9
			C270.9,2.5,272.1,3.5,272.1,3.8L272.1,3.8z M271.5,29c0,1.1-0.4,1.8-1.1,2c-0.2,0.1-0.4,0.2-0.8,0.2c-1.1,0-2-0.4-2.8-1.2
			c-2.2-1.8-4.7-2.8-7.5-3.1c0-0.3,0-0.5,0.1-0.5c1.3-0.1,3-0.2,5.1-0.3C269.2,26.2,271.5,27.2,271.5,29L271.5,29z"/>
		<path class="st1" d="M279.9,4.3c0.6-1,1.5-1.8,2.6-2.5c1.1-0.7,2.3-1.1,3.5-1.4c1.3-0.3,2.6-0.4,3.9-0.3s2.5,0.4,3.6,0.9
			c1.1,0.5,2,1.2,2.6,2.1c0.7,0.9,1,2.1,1,3.5c0,1.6-0.4,2.9-1.2,3.9c-0.8,1-1.9,1.8-3.3,2.4c1.5,0.4,2.7,1.2,3.6,2.2
			c0.9,1,1.5,2.2,1.8,3.4c0.3,1.3,0.2,2.6-0.1,4c-0.4,1.4-1,2.6-2,3.7c-1,1.1-2.3,2-3.9,2.8c-1.6,0.7-3.6,1.1-5.8,1.1
			c-0.5,0-1.1,0-1.8-0.1c-0.7-0.1-1.4-0.2-2.1-0.3s-1.3-0.4-1.9-0.7c-0.6-0.3-1-0.7-1.2-1.2c0-0.4,0.1-0.9,0.3-1.3
			c0.2-0.4,0.4-0.8,0.7-1c0.3-0.3,0.7-0.4,1.1-0.5s0.9,0,1.4,0.2c0.5,0.2,0.9,0.5,1.2,0.9c0.4,0.4,0.8,0.7,1.2,1.1
			c0.4,0.4,0.8,0.6,1.3,0.9c0.4,0.2,1,0.3,1.6,0.2c0.9-0.1,1.7-0.4,2.3-0.8c0.6-0.4,1.2-1.1,1.7-1.8c0.4-0.6,0.7-1.1,0.8-1.7
			c0.1-0.5,0.2-1.1,0.2-1.8c0-1.2-0.3-2.2-0.8-3.2c-0.5-1-1.2-1.8-2.1-2.4c-0.9-0.7-1.8-1.2-2.9-1.5c-1-0.4-2.1-0.5-3.1-0.5l0-1.2
			c1.5,0.1,2.7-0.1,3.7-0.3s1.7-0.7,2.3-1.2s0.9-1.1,1.1-1.7c0.2-0.7,0.2-1.3,0.1-2s-0.3-1.4-0.6-2s-0.7-1.3-1.2-1.8
			c-0.6-0.7-1.3-1.1-2.2-1.2c-0.9-0.1-1.8-0.1-2.8,0.1c-0.9,0.2-1.8,0.5-2.6,1c-0.8,0.4-1.3,0.9-1.7,1.3L279.9,4.3L279.9,4.3z"/>
		<path class="st1" d="M334.4,6.9c0.8,0.6,1.2,1,1.2,1.2c0,0.3-0.4,0.7-1.1,1.1v2.7c0,0.3,0,0.6,0,0.9c0,0.6-0.8,1-2.4,1
			c-1.2,0-1.8-0.1-1.9-0.4v-0.8h-16.9c-0.1,4-0.3,6.6-0.7,7.9c-0.5,2.1-1.2,3.9-2.1,5.2c-1.5,2.3-3,4-4.7,5
			c-0.2-0.2-0.3-0.4-0.4-0.5c2.3-3.3,3.5-9.9,3.5-19.8V5.8c0-1-0.1-1.9-0.2-2.7l5,1.7c6.6-0.9,11.9-2.1,15.9-3.6
			c3,2.1,4.5,3.3,4.5,3.6c0,0.2-0.2,0.4-0.4,0.4c-0.4,0-0.9-0.1-1.7-0.2c-2.5,0.4-8.7,0.6-18.9,0.6v1.7h16.7c1.3-1,2.1-1.5,2.5-1.5
			C332.8,5.8,333.5,6.2,334.4,6.9L334.4,6.9z M334.2,14.7c1.7,1.4,2.7,2.3,2.8,2.7c0,0.3-0.1,0.4-0.4,0.4h-13.2
			c0,1.2-0.2,2.3-0.4,3.3h6.2c1.2-1.2,2-1.9,2.3-1.9c0.4,0,1,0.3,1.8,0.8c1.2,0.8,1.8,1.4,1.8,1.7c0,0.3-0.2,0.4-0.5,0.6
			c-0.4,0.3-0.7,0.4-0.8,0.6c-0.5,3-1,4.9-1.5,5.7c-0.6,1.1-2.1,1.8-4.5,2c-0.5,0-0.8-0.4-1-1c-0.2-1.3-0.6-2.1-1.2-2.3
			c-0.6-0.2-1.3-0.5-2.1-0.8c0-0.2,0-0.4,0.1-0.5c1,0.1,2.2,0.2,3.4,0.2c1,0,1.5-0.2,1.8-0.8c0.5-1,0.8-2.1,1-3.5h-6.9
			c-0.1,0.4-0.2,0.7-0.3,1c-1.9,4.4-5.7,7-11.6,7.9c-0.1-0.2-0.1-0.4-0.2-0.6c3.8-1.9,6.4-4.9,7.7-8.8c0.3-1.2,0.6-2.4,0.7-3.6
			c-2.6,0.1-4.2,0.2-4.9,0.3c-0.2-0.5-0.4-1-0.6-1.6c1.3,0.3,3.5,0.4,6.7,0.4h3c-0.3-0.3-0.6-0.7-0.7-1.3c-0.3-1.3-1.1-2.1-2.2-2.5
			c0.1-0.1,0.1-0.2,0.2-0.4c0.8,0,1.2-0.1,1.5-0.1c1.5,0,2.8,0.2,3.6,0.7c0.8,0.4,1.2,1.1,1.2,1.9c0,0.8-0.3,1.4-0.9,1.7h4.7
			c0.5-0.6,1.2-1.4,2.1-2.4c0.2-0.2,0.4-0.3,0.5-0.3C333.6,14.2,333.9,14.4,334.2,14.7L334.2,14.7z M313.5,11.6h16.9V8.2h-16.9V11.6
			z"/>
		<path class="st2" d="M64.4,61.8h0.7v0.7c-0.2,0.5-0.4,0.9-0.7,1.3c0.4,0.3,0.7,0.7,0.9,1l-0.5,0.5c-0.2-0.2-0.3-0.5-0.5-0.7v3.4
			h-0.7v-3.1c-0.2,0.2-0.5,0.5-0.8,0.8l-0.2-0.8c0.4-0.4,0.7-0.7,0.9-1c0.2-0.2,0.5-0.7,0.7-1.3h-1.6v-0.7h1
			c-0.1-0.4-0.3-0.8-0.5-1.1l0.7-0.1C64.1,61,64.3,61.4,64.4,61.8L64.4,61.8z M69.5,64.9v1.6H69c-0.1,0.2-0.2,0.4-0.3,0.6h1.2v0.6
			H65v-0.6h1.4l-0.2-0.6h-0.6v-1.6H69.5L69.5,64.9z M69.9,64v0.5h-4.6V64H69.9z M66.6,61.1v-0.5h0.6v0.5h0.6v-0.5h0.6v0.5h1.2v2.5
			h-4.3v-2.5H66.6z M66.6,62.1v-0.5H66v0.5H66.6z M66.6,62.6H66v0.5h0.6V62.6z M68.8,65.5h-2.6v0.4h2.6V65.5z M68,67.1
			c0.1-0.2,0.2-0.4,0.3-0.6h-1.5l0.2,0.6H68L68,67.1z M67.2,62.1h0.6v-0.5h-0.6V62.1z M67.9,62.6h-0.6v0.5h0.6V62.6z M68.5,62.1h0.6
			v-0.5h-0.6V62.1z M69.1,62.6h-0.6v0.5h0.6V62.6z"/>
		<path class="st2" d="M76.6,61.9v0.6h-1.8v0.8c0.7-0.2,1.3-0.4,1.8-0.6l0.4,0.5c-0.8,0.3-1.5,0.5-2.1,0.7h2.4v2.9h-1.9
			c0.7,0.1,1.5,0.3,2.3,0.5l-0.2,0.6c-0.8-0.3-1.7-0.5-2.5-0.6l0.3-0.5h-1.7l0.3,0.5c-0.4,0.2-0.8,0.3-1.1,0.4
			c-0.4,0.1-0.8,0.2-1.4,0.3l-0.3-0.6c0.5-0.1,1-0.1,1.5-0.2c0.3-0.1,0.7-0.2,0.9-0.2h-1.6v-2.2c-0.2,0-0.5,0.1-0.7,0.1L70.6,64
			c1.3-0.2,2.4-0.4,3.4-0.6v-0.9h-2.1v-0.6L76.6,61.9L76.6,61.9z M74.7,61.1h3v1.6H77v-1h-5.5v1h-0.7v-1.6h3.1
			c-0.1-0.2-0.2-0.3-0.3-0.4l0.8-0.1C74.5,60.7,74.6,60.9,74.7,61.1L74.7,61.1z M73.7,63c-0.4,0.2-0.7,0.3-1,0.4
			c-0.3,0.1-0.8,0.2-1.3,0.3l-0.3-0.5c0.5-0.1,0.9-0.1,1.3-0.2c0.3-0.1,0.7-0.2,0.9-0.3L73.7,63L73.7,63z M72.4,64.7h4.1v-0.3h-4
			c0,0,0,0,0,0V64.7L72.4,64.7z M72.4,65.1v0.3h4.1v-0.3H72.4z M72.4,65.9v0.3h4.1v-0.3H72.4z"/>
		<path class="st2" d="M82.5,60.6c1,0.6,2.1,1.1,3.3,1.6l-0.3,0.7c-0.1,0-0.2-0.1-0.2-0.1v2h-6.1v-2c-0.1,0.1-0.2,0.1-0.3,0.1
			l-0.3-0.7c1.1-0.4,2.2-0.9,3.2-1.6H82.5L82.5,60.6z M84.9,67.8h-0.7v-0.2h-4v0.3h-0.7v-2.7h5.5V67.8L84.9,67.8z M84.8,62.6
			c-0.5-0.2-0.9-0.4-1.3-0.6v0.3h-2.8V62c-0.4,0.2-0.9,0.5-1.3,0.6L84.8,62.6L84.8,62.6z M81.8,63.2h-2v1.1h1
			c-0.1-0.2-0.3-0.5-0.5-0.7l0.4-0.3c0.2,0.3,0.4,0.5,0.6,0.7l-0.4,0.3h0.9L81.8,63.2L81.8,63.2z M84.1,66.1v-0.4h-4v0.4H84.1z
			 M84.1,67v-0.5h-4V67H84.1z M83.2,61.8c-0.4-0.2-0.8-0.4-1.1-0.6c-0.4,0.2-0.7,0.4-1,0.6H83.2z M84.6,63.2h-2.1v1.1h1L83,63.9
			c0.2-0.2,0.3-0.4,0.5-0.7l0.5,0.2c-0.1,0.3-0.3,0.6-0.4,0.8h1L84.6,63.2L84.6,63.2z"/>
		<path class="st2" d="M88.6,60.6c0.4,0.4,0.7,0.8,1,1.2l-0.5,0.4c-0.3-0.5-0.6-0.8-0.8-1c-0.5,0.6-1.1,1.1-1.8,1.6l-0.2-0.7
			c0.6-0.4,1.2-1,1.7-1.6L88.6,60.6L88.6,60.6z M88.7,62.7h0.8v2.9h-1.9v1.3c0.4-0.1,0.8-0.2,1.2-0.2c-0.1-0.2-0.3-0.5-0.4-0.7
			l0.6-0.2c0.3,0.5,0.6,1,0.9,1.6l-0.6,0.3c-0.1-0.2-0.1-0.3-0.2-0.5c-0.7,0.2-1.5,0.4-2.5,0.6L86.4,67c0.2,0,0.3,0,0.5-0.1v-4.3
			h1.2c-0.1-0.2-0.2-0.5-0.3-0.7l0.7-0.1C88.6,62.1,88.7,62.4,88.7,62.7L88.7,62.7z M88.8,63.8v-0.6h-1.2v0.6H88.8z M88.8,65v-0.7
			h-1.2V65H88.8z M92,61.3h1.6v1.6h-0.5v1.7h-2.4v0.6h2.7v2.7h-0.7v-0.5h-2.1v0.5H90v-5h-0.3v-1.6h1.6c-0.1-0.2-0.2-0.4-0.3-0.6
			l0.7-0.1C91.8,60.8,91.9,61,92,61.3L92,61.3z M92.9,62.5v-0.6h-2.5v0.6H92.9z M92.4,63.9v-0.7h-1.8v0.7H92.4z M92.7,66.7v-0.9
			h-2.1v0.9H92.7z"/>
		<path class="st2" d="M64.2,83.3c-0.4,1.1-0.9,2-1.6,2.8l-1.1-0.6c0.7-0.8,1.2-1.6,1.5-2.4L64.2,83.3z M63.3,76.4v5.3h5v0.9h-2.3
			v3.1c0,0.4-0.1,0.7-0.3,0.9c-0.2,0.2-0.6,0.3-1.2,0.3h-1l-0.3-1.1c0.4,0.1,0.7,0.1,0.9,0.1c0.4,0,0.6-0.1,0.6-0.3v-2.9h-2.7v-6.3
			L63.3,76.4L63.3,76.4z M68.1,75.7v5.5h-4v-5.5H68.1z M66.9,77.4v-0.8h-1.6v0.8H66.9z M66.9,78.9v-0.8h-1.6v0.8H66.9z M66.9,79.6
			h-1.6v0.8h1.6V79.6z M68.5,85c0.4-0.6,0.8-1.2,1-1.8l1.3,0.2c-0.4,1.2-1,2.2-1.7,3l-1.2-0.6c0.1-0.1,0.3-0.3,0.4-0.4l-0.8,0.3
			c-0.3-0.8-0.6-1.5-0.9-2.2l1.1-0.3C68,83.7,68.3,84.4,68.5,85L68.5,85z M75.3,76.5c-0.9,0.2-2.1,0.4-3.3,0.5c-0.2,0.7-0.6,1.3-1,2
			c0.6-0.1,1.2-0.1,1.8-0.2c0.3-0.4,0.5-0.7,0.8-1.1l1.1,0.6c-0.9,1.2-1.7,2-2.3,2.5c-0.3,0.2-0.6,0.5-1,0.7
			c0.9-0.1,1.7-0.1,2.4-0.2c-0.2-0.3-0.3-0.6-0.4-0.8l1.1-0.3c0.4,0.8,0.8,1.5,1.1,2.4l-1.1,0.4c-0.1-0.3-0.2-0.6-0.3-0.8
			c-0.4,0.1-0.9,0.1-1.4,0.2v3.6c0,0.4-0.1,0.7-0.4,0.9c-0.2,0.2-0.6,0.3-1.2,0.3h-1.1l-0.3-1.1c0.4,0.1,0.7,0.1,1,0.1
			c0.3,0,0.5-0.1,0.5-0.3v-3.2c-0.8,0.1-1.6,0.2-2.5,0.2l-0.2-1.1c0.4,0,0.7,0,1.1,0c0.7-0.4,1.3-0.8,1.7-1.3
			c0.2-0.2,0.3-0.3,0.5-0.5c-0.9,0.1-1.9,0.3-3,0.4l-0.2-1c0.3,0,0.5,0,0.8,0c0.4-0.6,0.8-1.3,1.1-2c-0.5,0-1.1,0-1.6,0l-0.4-0.9
			c2.4,0,4.4-0.2,6.1-0.5L75.3,76.5L75.3,76.5z M75.4,85.9l-1.2,0.4c-0.3-1.1-0.7-2.1-1.1-2.9l1.2-0.3C74.7,84,75.1,84.9,75.4,85.9z
			"/>
		<path class="st2" d="M85.2,76.6h5.5v1H79.6v3.6c0,0.2,0,0.5,0,0.7c1.1-1.2,2-2.5,2.6-4l1.4,0.2c-0.3,0.7-0.7,1.4-1,2V87h-1.4v-4.8
			c-0.3,0.4-0.6,0.7-0.9,1l-0.8-0.9c-0.1,0.5-0.1,1.1-0.3,1.6c-0.3,1-0.7,2-1.3,2.9L76.7,86c0.6-0.8,0.9-1.5,1.2-2.4
			c0.1-0.8,0.2-1.6,0.2-2.4v-4.7h5.6c-0.2-0.3-0.4-0.6-0.6-0.9l1.6-0.2C84.8,75.8,85,76.2,85.2,76.6L85.2,76.6z M87.8,79.8v-1.6h1.4
			v1.6h1.4v1h-1.4v5c0,0.4-0.1,0.7-0.4,0.9c-0.2,0.2-0.6,0.3-1.2,0.3h-2.1l-0.3-1.2c0.8,0.1,1.5,0.1,2,0.1c0.4,0,0.6-0.1,0.6-0.3
			v-4.8h-4.3v-1H87.8L87.8,79.8z M86.7,83.8l-1.3,0.7c-0.4-0.7-0.9-1.5-1.5-2.4l1.1-0.5C85.7,82.5,86.2,83.2,86.7,83.8L86.7,83.8z"
			/>
		<path class="st2" d="M97.4,76v2.1c0.6-0.3,1.2-0.7,1.6-1.1c0.4-0.3,0.8-0.8,1.1-1.5l1.4,0.2c-0.2,0.3-0.3,0.6-0.5,0.9h4v0.9
			c-0.8,1-1.6,1.8-2.4,2.4c0.8,0.4,1.9,0.8,3.3,1.2l-0.6,1c-1.6-0.5-2.9-1.1-3.8-1.6c-1,0.6-2.4,1.1-4.1,1.6L97.4,82v0.9h-1.6V85
			c0.6-0.1,1.2-0.3,1.8-0.5v1c-1.6,0.5-3.4,0.9-5.5,1.3l-0.4-1.1c0.3,0,0.5-0.1,0.8-0.1v-4.8h1.1v4.6c0.3-0.1,0.6-0.1,0.9-0.2V80
			h-1.9v-4L97.4,76L97.4,76z M96.1,77h-2.3V79h2.3V77z M96.8,81.1c1.5-0.3,2.7-0.8,3.6-1.2c-0.5-0.4-0.9-0.8-1.4-1.4
			c-0.4,0.2-0.7,0.5-1.1,0.7l-0.5-0.6V80h-1.6v1.7h1.5L96.8,81.1L96.8,81.1z M104.8,87.1h-1.4v-0.5h-3.8v0.5h-1.4v-4.9h6.5
			L104.8,87.1L104.8,87.1z M103.5,85.5v-2.1h-3.8v2.1H103.5z M101.5,79.3c0.6-0.4,1.2-0.9,1.8-1.6h-3.2c-0.1,0.1-0.1,0.1-0.2,0.2
			C100.5,78.5,101,78.9,101.5,79.3L101.5,79.3z"/>
		<path class="st2" d="M108.8,75.8c0.4-0.2,0.9-0.3,1.6-0.3c0.5,0,0.9,0.1,1.3,0.2c0.4,0.1,0.8,0.3,1.1,0.5s0.5,0.5,0.7,0.8
			c0.2,0.3,0.3,0.7,0.3,1.2c0,0.4-0.1,0.8-0.2,1.1c-0.2,0.3-0.3,0.6-0.6,0.9c-0.2,0.2-0.5,0.4-0.8,0.6c-0.3,0.1-0.5,0.3-0.8,0.3v0.1
			c0.3,0,0.6,0.1,1,0.2c0.3,0.1,0.7,0.2,1,0.4c0.3,0.2,0.5,0.5,0.7,0.8c0.2,0.3,0.3,0.8,0.3,1.3c0,0.5-0.1,1-0.3,1.5
			c-0.2,0.4-0.5,0.8-0.9,1.2c-0.4,0.3-0.9,0.6-1.4,0.8s-1.2,0.3-1.8,0.3c-0.6,0-1.1-0.1-1.6-0.2s-0.8-0.2-1.1-0.4
			c0.1-0.1,0.1-0.2,0.1-0.5c0-0.2,0.1-0.4,0.1-0.6l0.1-0.1c0.1,0.1,0.2,0.2,0.4,0.4c0.1,0.1,0.3,0.3,0.5,0.4
			c0.2,0.1,0.4,0.2,0.7,0.3c0.2,0.1,0.5,0.1,0.8,0.1c0.4,0,0.8-0.1,1.2-0.2c0.3-0.1,0.6-0.3,0.9-0.6c0.2-0.3,0.4-0.6,0.6-0.9
			c0.1-0.4,0.2-0.8,0.2-1.2c0-0.5-0.1-0.9-0.2-1.2c-0.1-0.3-0.3-0.6-0.5-0.8c-0.2-0.2-0.5-0.4-0.8-0.5c-0.3-0.1-0.6-0.1-1-0.1
			c-0.1,0-0.3,0-0.4,0c-0.2,0-0.3,0.1-0.4,0.1c0-0.1,0-0.1,0-0.2c0-0.1,0-0.1,0-0.2c0-0.1,0-0.1,0-0.2c0-0.1,0-0.1,0-0.2
			c0.2,0.1,0.5,0.1,0.8,0.1c0.4,0,0.8-0.1,1-0.3c0.3-0.2,0.5-0.4,0.6-0.7c0.2-0.3,0.2-0.6,0.3-0.9c0.1-0.3,0.1-0.6,0.1-0.9
			c0-0.4-0.1-0.7-0.2-1c-0.1-0.3-0.3-0.5-0.4-0.7c-0.2-0.2-0.4-0.3-0.6-0.4c-0.2-0.1-0.5-0.1-0.7-0.1c-0.5,0-0.9,0.1-1.3,0.4
			s-0.6,0.6-0.7,1l-0.1,0l-0.4-0.9C108.1,76.3,108.4,76,108.8,75.8L108.8,75.8z"/>
		<path class="st2" d="M116.3,81.5c0-0.8,0.1-1.6,0.2-2.4s0.4-1.4,0.7-1.9c0.3-0.5,0.8-1,1.3-1.3s1.2-0.5,1.9-0.5
			c0.8,0,1.5,0.2,2.1,0.5c0.5,0.3,1,0.8,1.3,1.3c0.3,0.6,0.5,1.2,0.6,1.9s0.2,1.5,0.2,2.4c0,0.8-0.1,1.6-0.2,2.3
			c-0.2,0.7-0.4,1.4-0.8,1.9c-0.3,0.6-0.8,1-1.3,1.3s-1.1,0.5-1.8,0.5c-0.9,0-1.5-0.2-2.1-0.5s-1-0.7-1.3-1.3
			c-0.3-0.6-0.5-1.2-0.6-1.9S116.3,82.4,116.3,81.5z M117.8,81.5c0,0.8,0,1.5,0.1,2.2c0.1,0.7,0.2,1.2,0.4,1.8
			c0.2,0.5,0.5,0.9,0.8,1.2c0.3,0.3,0.8,0.4,1.3,0.4s0.9-0.1,1.3-0.4c0.3-0.3,0.6-0.7,0.8-1.2c0.2-0.5,0.4-1.1,0.4-1.8
			c0.1-0.7,0.1-1.4,0.1-2.2c0-0.8,0-1.5-0.1-2.2c-0.1-0.7-0.2-1.2-0.4-1.8c-0.2-0.5-0.5-0.9-0.8-1.2c-0.3-0.3-0.8-0.4-1.3-0.4
			s-0.9,0.1-1.3,0.4c-0.3,0.3-0.6,0.6-0.8,1.1c-0.2,0.5-0.4,1.1-0.4,1.7C117.8,80,117.8,80.7,117.8,81.5z"/>
		<path class="st2" d="M126.3,84.2c0-0.7,0.2-1.4,0.6-2c0.4-0.6,1-1,2-1.4v-0.1c-0.2-0.1-0.5-0.1-0.7-0.3c-0.2-0.1-0.4-0.3-0.6-0.5
			c-0.2-0.2-0.3-0.5-0.5-0.7s-0.2-0.6-0.2-0.9c0-0.4,0.1-0.7,0.2-1.1c0.2-0.3,0.4-0.6,0.7-0.9c0.3-0.3,0.6-0.5,1-0.6
			c0.4-0.2,0.9-0.2,1.4-0.2c0.6,0,1.1,0.1,1.5,0.2c0.4,0.2,0.8,0.3,1,0.6c0.3,0.2,0.5,0.5,0.6,0.8c0.1,0.3,0.2,0.6,0.2,1
			c0,0.6-0.2,1.1-0.5,1.6c-0.3,0.5-0.8,0.8-1.5,1v0.1c0.2,0,0.5,0.1,0.7,0.2s0.6,0.3,0.8,0.5c0.3,0.2,0.5,0.5,0.7,0.9
			c0.2,0.4,0.3,0.8,0.3,1.4c0,0.6-0.1,1.1-0.3,1.6c-0.2,0.5-0.5,0.9-0.9,1.2c-0.4,0.3-0.8,0.6-1.2,0.8c-0.5,0.2-1,0.2-1.5,0.2
			s-1.1-0.1-1.5-0.2c-0.5-0.1-0.9-0.3-1.3-0.6c-0.4-0.3-0.6-0.7-0.8-1.1C126.4,85.2,126.3,84.7,126.3,84.2L126.3,84.2z M132.7,84.1
			c0-0.4-0.1-0.8-0.2-1.2s-0.3-0.7-0.5-0.9c-0.2-0.3-0.5-0.5-0.8-0.6c-0.3-0.1-0.6-0.2-1-0.2s-0.7,0.1-1,0.2
			c-0.3,0.2-0.5,0.4-0.8,0.6c-0.2,0.3-0.4,0.6-0.5,0.9c-0.1,0.4-0.2,0.8-0.2,1.2s0.1,0.8,0.2,1.2s0.3,0.7,0.5,0.9
			c0.2,0.3,0.5,0.5,0.8,0.6c0.3,0.2,0.6,0.2,1,0.2s0.7-0.1,1-0.2c0.3-0.1,0.5-0.3,0.8-0.6c0.2-0.3,0.4-0.6,0.5-0.9
			C132.6,84.9,132.7,84.5,132.7,84.1z M132.2,78.3c0-0.3,0-0.6-0.1-0.9c-0.1-0.3-0.2-0.5-0.3-0.7c-0.2-0.2-0.4-0.4-0.6-0.5
			c-0.2-0.1-0.5-0.2-0.9-0.2c-0.4,0-0.6,0.1-0.9,0.2c-0.2,0.1-0.4,0.3-0.6,0.5c-0.2,0.2-0.3,0.4-0.3,0.7c-0.1,0.3-0.1,0.6-0.1,0.9
			c0,0.3,0,0.6,0.1,0.9c0.1,0.3,0.2,0.5,0.3,0.7c0.1,0.2,0.3,0.4,0.6,0.5c0.2,0.1,0.5,0.2,0.9,0.2s0.6-0.1,0.9-0.2
			c0.2-0.1,0.4-0.3,0.6-0.5c0.2-0.2,0.3-0.4,0.3-0.7C132.2,78.9,132.2,78.6,132.2,78.3z"/>
		<path class="st2" d="M141.4,80.2v1h-2.9l-0.4,1.3h2.7c0,2.3-0.3,3.6-0.8,4c-0.3,0.3-1.2,0.4-2.8,0.4l-0.3-1.2
			c0.4,0.1,0.8,0.1,1.1,0.1c0.4,0,0.7-0.1,1-0.2c0.2-0.1,0.3-0.8,0.4-2.1h-2.9l0.8-2.3h-1.4v-1H141.4z M141.2,75.9v3.5h-4.8v-3.5
			H141.2z M140,76.8h-2.3v1.7h2.3V76.8z M146,75.5v0.7h2.9v0.9H146v0.8h3.7c-0.1,0.8-0.3,1.6-0.6,2.4l-1.3-0.3
			c0.1-0.3,0.3-0.7,0.4-1.1h-2.3v1l1.7-0.1l0.2,0.9l-1.9,0.1v0.2c0,0.3,0.2,0.4,0.5,0.4h2.5v0.9h-2.8c-0.4,0-0.8-0.1-1.1-0.2
			c-0.3-0.2-0.4-0.4-0.4-0.8v-0.5l-1.5,0.1c0,0.9-0.1,1.9-0.3,2.8c-0.2,1.1-0.6,2.2-1.2,3.3l-1.1-0.8c0.5-0.9,0.9-1.8,1.1-2.8
			c0.1-1,0.2-1.9,0.2-2.8v-2.8h2.7v-2.4L146,75.5L146,75.5z M145.3,82.9c0,1.2-0.1,1.9-0.3,2.3c-0.2,0.7-0.7,1.3-1.4,1.9l-1.1-0.7
			c0.6-0.4,1-0.9,1.2-1.3c0.2-0.5,0.3-1.2,0.4-2.2H145.3z M144.7,78.9h-1.5V80l1.5-0.1V78.9z M147.4,82.9v2.7c0,0.2,0.2,0.3,0.5,0.3
			h0.1c0.1,0,0.3-0.1,0.4-0.2c0.1-0.1,0.1-0.7,0.2-1.7l1.2,0.3c-0.1,1.2-0.3,1.9-0.5,2.1c-0.2,0.2-0.5,0.3-1.1,0.3h-0.8
			c-0.4,0-0.7-0.1-0.9-0.3c-0.2-0.2-0.3-0.4-0.3-0.7v-3L147.4,82.9L147.4,82.9z"/>
		<path class="st2" d="M192.2,60.3c0.6-0.6,1.3-1.1,2.2-1.6c0.9-0.5,2.1-0.8,3.6-0.8c1.1,0,2.1,0.1,3,0.4c0.9,0.2,1.7,0.6,2.4,1.1
			c0.7,0.5,1.2,1.2,1.7,2c0.4,0.8,0.6,1.7,0.6,2.8c0,1-0.2,1.9-0.5,2.7c-0.3,0.8-0.8,1.5-1.3,2.1c-0.5,0.6-1.2,1.1-1.8,1.4
			c-0.7,0.4-1.3,0.6-1.9,0.8v0.6c0.7,0.1,1.4,0.2,2.2,0.4c0.8,0.2,1.6,0.6,2.3,1c0.7,0.5,1.3,1.1,1.7,2c0.5,0.8,0.7,1.9,0.7,3.1
			c0,1.2-0.2,2.5-0.8,3.6s-1.2,2.1-2.1,2.8c-0.9,0.8-2,1.4-3.3,1.9c-1.3,0.5-2.7,0.7-4.2,0.7c-1.2,0-2.4-0.2-3.4-0.4
			c-1-0.3-1.9-0.6-2.6-0.9c0.1-0.3,0.2-0.7,0.3-1.1c0.1-0.4,0.1-0.9,0.1-1.3c0.3,0.3,0.6,0.6,1,1c0.4,0.3,0.8,0.6,1.3,0.9
			c0.5,0.3,1,0.5,1.6,0.7c0.6,0.2,1.2,0.3,1.8,0.3c1.1,0,2-0.2,2.9-0.6s1.6-0.9,2.2-1.6c0.6-0.7,1-1.4,1.4-2.4
			c0.3-0.9,0.5-1.9,0.5-3c0-1.2-0.2-2.3-0.5-3.1c-0.3-0.9-0.7-1.5-1.2-2.1s-1.2-0.9-1.9-1.1c-0.7-0.2-1.5-0.3-2.4-0.3
			c-0.3,0-0.6,0-0.9,0c-0.3,0-0.5,0.1-0.8,0.1c0-0.1,0-0.3,0-0.6c0-0.3,0-0.5,0-0.6c0.5,0.1,1,0.1,1.6,0.1c1,0,1.8-0.2,2.5-0.7
			c0.6-0.4,1.1-1,1.5-1.7c0.3-0.7,0.6-1.4,0.7-2.2c0.1-0.8,0.2-1.6,0.2-2.3c0-1-0.1-1.8-0.4-2.5s-0.6-1.3-1.1-1.7
			c-0.4-0.5-0.9-0.8-1.5-1c-0.5-0.2-1.1-0.3-1.7-0.3c-0.6,0-1.1,0.1-1.6,0.3c-0.5,0.2-1,0.5-1.4,0.8c-0.4,0.3-0.8,0.7-1.1,1.1
			c-0.3,0.4-0.5,0.9-0.7,1.3l0,0.1L192.2,60.3L192.2,60.3z M191.1,83.5C191.1,83.5,191,83.5,191.1,83.5l0.2-0.1c-0.1,0-0.1,0-0.1,0
			C191.2,83.5,191.2,83.5,191.1,83.5L191.1,83.5C191.1,83.6,191.1,83.5,191.1,83.5L191.1,83.5z"/>
		<path class="st2" d="M210.5,60.3c0.6-0.6,1.3-1.1,2.2-1.6c0.9-0.5,2.1-0.8,3.6-0.8c1.1,0,2,0.1,3,0.4c0.9,0.2,1.7,0.6,2.4,1.1
			c0.7,0.5,1.2,1.2,1.7,2c0.4,0.8,0.6,1.7,0.6,2.8c0,1-0.2,1.9-0.5,2.7c-0.4,0.8-0.8,1.5-1.4,2.1c-0.5,0.6-1.1,1.1-1.8,1.4
			c-0.7,0.4-1.3,0.6-1.9,0.8v0.6c0.7,0.1,1.4,0.2,2.2,0.4c0.8,0.2,1.6,0.6,2.3,1c0.7,0.5,1.3,1.1,1.7,2c0.5,0.8,0.7,1.9,0.7,3.1
			c0,1.2-0.2,2.5-0.8,3.6s-1.2,2.1-2.1,2.8c-0.9,0.8-2,1.4-3.3,1.9c-1.3,0.5-2.7,0.7-4.2,0.7c-1.2,0-2.4-0.2-3.4-0.4
			c-1-0.3-1.9-0.6-2.6-0.9c0.1-0.3,0.2-0.7,0.3-1.1c0.1-0.4,0.1-0.9,0.1-1.3c0.3,0.3,0.6,0.6,1,1c0.4,0.3,0.8,0.6,1.3,0.9
			c0.5,0.3,1,0.5,1.6,0.7c0.6,0.2,1.2,0.3,1.8,0.3c1.1,0,2-0.2,2.9-0.6s1.6-0.9,2.2-1.6c0.6-0.7,1-1.4,1.4-2.4
			c0.3-0.9,0.5-1.9,0.5-3c0-1.2-0.2-2.3-0.5-3.1c-0.3-0.9-0.7-1.5-1.2-2.1s-1.2-0.9-1.9-1.1c-0.7-0.2-1.5-0.3-2.4-0.3
			c-0.3,0-0.6,0-0.9,0c-0.3,0-0.5,0.1-0.8,0.1c0-0.1,0-0.3,0-0.6c0-0.3,0-0.5,0-0.6c0.5,0.1,1,0.1,1.6,0.1c1,0,1.8-0.2,2.5-0.7
			c0.6-0.4,1.1-1,1.5-1.7c0.3-0.7,0.6-1.4,0.7-2.2c0.1-0.8,0.2-1.6,0.2-2.3c0-1-0.1-1.8-0.4-2.5s-0.6-1.3-1.1-1.7
			c-0.4-0.5-0.9-0.8-1.5-1c-0.5-0.2-1.1-0.3-1.7-0.3c-0.6,0-1.1,0.1-1.6,0.3c-0.5,0.2-1,0.5-1.4,0.8c-0.4,0.3-0.8,0.7-1.1,1.1
			c-0.3,0.4-0.5,0.9-0.7,1.3l0,0.1L210.5,60.3L210.5,60.3z M209.4,83.5C209.4,83.5,209.3,83.5,209.4,83.5l0.2-0.1
			c-0.1,0-0.1,0-0.1,0C209.5,83.5,209.5,83.5,209.4,83.5L209.4,83.5C209.4,83.6,209.4,83.5,209.4,83.5L209.4,83.5z"/>
		<path class="st2" d="M229,61.9c0.8-1.4,1.9-2.5,3-3.1c1.2-0.6,2.6-1,4.3-1c1.1,0,2.1,0.1,3,0.4c0.9,0.3,1.7,0.7,2.4,1.3
			c0.7,0.6,1.2,1.4,1.6,2.3s0.6,2.1,0.6,3.4c0,1-0.1,1.9-0.3,2.7s-0.5,1.7-1,2.5s-1,1.6-1.6,2.4s-1.4,1.7-2.2,2.6v0
			c-0.2,0.2-0.4,0.4-0.6,0.7c-0.2,0.2-0.4,0.5-0.6,0.7c-1,1.1-2.2,2.3-3.4,3.6c-1.2,1.3-2.3,2.6-3.2,4h4.4c1.9,0,3.6,0,5.1-0.1
			s2.8-0.1,3.9-0.2c-0.1,0.4-0.1,0.9-0.1,1.4c0,0.5,0,0.9,0.1,1.4c-1.5-0.1-2.9-0.1-4.3-0.2c-1.4,0-2.8-0.1-4.3-0.1s-2.9,0-4.3,0.1
			c-1.4,0-2.9,0.1-4.3,0.2v-0.3c1.9-2,3.5-3.7,4.9-5.2c1.4-1.5,2.6-2.9,3.6-4.1c1-1.2,1.8-2.3,2.5-3.3c0.6-1,1.1-1.9,1.5-2.8
			c0.4-0.9,0.6-1.8,0.8-2.7c0.1-0.9,0.2-1.8,0.2-2.8c0-1.1-0.1-2.1-0.4-2.9c-0.3-0.8-0.6-1.5-1.1-2c-0.4-0.5-1-0.9-1.5-1.2
			c-0.6-0.3-1.2-0.4-1.9-0.4c-0.9,0-1.7,0.2-2.3,0.5c-0.6,0.3-1.2,0.7-1.6,1.2c-0.4,0.5-0.8,1-1,1.6c-0.2,0.6-0.4,1-0.5,1.5v0.1
			L229,61.9L229,61.9z"/>
		<path class="st2" d="M248.3,70h9.9v2.3h-9.9V70z"/>
		<path class="st2" d="M267.3,60.1c-0.8,0.5-1.6,1-2.5,1.5c-0.9,0.5-1.7,1-2.5,1.5c-0.1-0.2-0.3-0.4-0.5-0.7
			c-0.2-0.2-0.4-0.4-0.6-0.6c1.6-0.7,3.1-1.4,4.7-2.2c1.6-0.8,3.1-1.5,4.5-2.3l0.1,0c-0.1,1.9-0.2,3.8-0.2,5.7
			c-0.1,1.9-0.1,3.8-0.1,5.7v7.3c0,1.9,0,3.7,0.1,5.5c0,1.8,0.1,3.6,0.2,5.4c-0.3-0.1-0.6-0.1-0.9-0.1c-0.3,0-0.6,0-0.9,0
			s-0.6,0-0.9,0c-0.3,0-0.6,0.1-0.9,0.1c0.1-1.9,0.2-3.7,0.3-5.5c0-1.8,0.1-3.6,0.1-5.5L267.3,60.1L267.3,60.1z"/>
		<path class="st2" d="M278.8,86.9c-0.1-0.3-0.2-0.7-0.3-1s-0.3-0.7-0.4-1.1c1.2,1.1,2.5,1.6,4,1.6c1.5,0,2.8-0.5,3.9-1.4
			c1.1-0.9,2-2.2,2.7-3.7s1.2-3.2,1.5-5s0.5-3.7,0.5-5.6c-0.8,1.4-1.7,2.5-2.9,3.4c-1.1,0.9-2.5,1.3-4.1,1.3c-2.4,0-4.3-0.7-5.7-2.2
			c-1.4-1.5-2.1-3.5-2.1-6.2c0-1.3,0.2-2.5,0.6-3.6c0.4-1.1,1-2.1,1.8-2.9c0.8-0.8,1.7-1.5,2.8-1.9c1.1-0.5,2.4-0.7,3.7-0.7
			c1.2,0,2.3,0.2,3.5,0.7c1.1,0.4,2.1,1.2,2.9,2.1c0.8,1,1.5,2.3,2,3.8c0.5,1.6,0.7,3.5,0.7,5.7c0,2.4-0.3,4.6-0.8,6.7
			c-0.5,2.1-1.3,3.9-2.3,5.4c-1,1.5-2.3,2.8-3.8,3.7c-1.5,0.9-3.2,1.4-5.1,1.4c-0.6,0-1.2-0.1-1.8-0.2
			C279.5,87.1,279.1,87,278.8,86.9L278.8,86.9z M278,84.7C278,84.7,278,84.8,278,84.7l-0.1-0.1L278,84.7C278,84.7,278,84.7,278,84.7
			L278,84.7z M290.4,65.8c0-1-0.1-2-0.4-2.8c-0.3-0.9-0.7-1.6-1.2-2.2s-1.1-1.1-1.8-1.4c-0.7-0.3-1.5-0.5-2.3-0.5
			c-1.7,0-3.1,0.7-4.1,2.2s-1.6,3.4-1.6,5.9c0,2.5,0.5,4.4,1.4,5.6c0.9,1.1,2.2,1.7,3.9,1.7c1,0,1.8-0.2,2.6-0.7s1.4-1.1,1.9-1.9
			s0.9-1.7,1.2-2.7S290.4,66.9,290.4,65.8L290.4,65.8z"/>
		<path class="st2" d="M300.7,86.9c-0.1-0.3-0.2-0.7-0.3-1s-0.3-0.7-0.4-1.1c1.2,1.1,2.5,1.6,4,1.6c1.5,0,2.8-0.5,3.9-1.4
			c1.1-0.9,2-2.2,2.7-3.7s1.2-3.2,1.5-5s0.5-3.7,0.5-5.6c-0.8,1.4-1.7,2.5-2.9,3.4c-1.1,0.9-2.5,1.3-4.1,1.3c-2.4,0-4.3-0.7-5.7-2.2
			c-1.4-1.5-2.1-3.5-2.1-6.2c0-1.3,0.2-2.5,0.6-3.6c0.4-1.1,1-2.1,1.8-2.9c0.8-0.8,1.7-1.5,2.8-1.9c1.1-0.5,2.4-0.7,3.7-0.7
			c1.2,0,2.3,0.2,3.5,0.7c1.1,0.4,2.1,1.2,2.9,2.1c0.8,1,1.5,2.3,2,3.8c0.5,1.6,0.7,3.5,0.7,5.7c0,2.4-0.3,4.6-0.8,6.7
			c-0.5,2.1-1.3,3.9-2.3,5.4c-1,1.5-2.3,2.8-3.8,3.7c-1.5,0.9-3.2,1.4-5.1,1.4c-0.6,0-1.2-0.1-1.8-0.2S301,87,300.7,86.9L300.7,86.9
			z M300,84.7C300,84.7,300,84.8,300,84.7l-0.1-0.1L300,84.7C299.9,84.7,299.9,84.7,300,84.7L300,84.7z M312.4,65.8
			c0-1-0.1-2-0.4-2.8c-0.3-0.9-0.7-1.6-1.2-2.2s-1.1-1.1-1.8-1.4c-0.7-0.3-1.5-0.5-2.3-0.5c-1.7,0-3.1,0.7-4.1,2.2s-1.6,3.4-1.6,5.9
			c0,2.5,0.5,4.4,1.4,5.6c0.9,1.1,2.2,1.7,3.9,1.7c1,0,1.8-0.2,2.6-0.7s1.4-1.1,1.9-1.9c0.5-0.8,0.9-1.7,1.2-2.7
			S312.4,66.9,312.4,65.8L312.4,65.8z"/>
		<path class="st2" d="M322.6,86.9c-0.1-0.3-0.2-0.7-0.3-1c-0.1-0.4-0.3-0.7-0.4-1.1c1.2,1.1,2.5,1.6,4,1.6s2.8-0.5,3.9-1.4
			c1.1-0.9,2-2.2,2.7-3.7s1.2-3.2,1.5-5s0.5-3.7,0.5-5.6c-0.8,1.4-1.7,2.5-2.9,3.4c-1.1,0.9-2.5,1.3-4.1,1.3c-2.4,0-4.3-0.7-5.7-2.2
			c-1.4-1.5-2.1-3.5-2.1-6.2c0-1.3,0.2-2.5,0.6-3.6c0.4-1.1,1-2.1,1.8-2.9c0.8-0.8,1.7-1.5,2.8-1.9c1.1-0.5,2.3-0.7,3.7-0.7
			c1.2,0,2.4,0.2,3.4,0.7c1.1,0.4,2.1,1.2,2.9,2.1c0.8,1,1.5,2.3,2,3.8c0.5,1.6,0.7,3.5,0.7,5.7c0,2.4-0.3,4.6-0.8,6.7
			c-0.5,2.1-1.3,3.9-2.3,5.4c-1,1.5-2.3,2.8-3.8,3.7c-1.5,0.9-3.2,1.4-5.1,1.4c-0.6,0-1.2-0.1-1.8-0.2C323.4,87.1,323,87,322.6,86.9
			L322.6,86.9z M321.9,84.7C321.9,84.7,321.9,84.8,321.9,84.7l-0.1-0.1L321.9,84.7C321.9,84.7,321.9,84.7,321.9,84.7L321.9,84.7z
			 M334.3,65.8c0-1-0.1-2-0.4-2.8c-0.3-0.9-0.7-1.6-1.2-2.2s-1.1-1.1-1.8-1.4c-0.7-0.3-1.5-0.5-2.3-0.5c-1.7,0-3.1,0.7-4.1,2.2
			s-1.6,3.4-1.6,5.9c0,2.5,0.5,4.4,1.4,5.6c1,1.1,2.2,1.7,3.9,1.7c1,0,1.8-0.2,2.6-0.7s1.4-1.1,1.9-1.9c0.5-0.8,0.9-1.7,1.2-2.7
			S334.3,66.9,334.3,65.8L334.3,65.8z"/>
		<path class="st2" d="M159.3,72.9c0-1.2,0.1-2.4,0.3-3.5s0.5-2.1,1-2.9c0.5-0.8,1.1-1.5,1.8-2c0.7-0.5,1.6-0.7,2.7-0.7
			c1.2,0,2.2,0.2,2.9,0.7c0.8,0.5,1.3,1.1,1.8,2c0.4,0.8,0.7,1.8,0.9,2.9c0.2,1.1,0.2,2.3,0.2,3.5c0,1.2-0.1,2.3-0.3,3.4
			c-0.2,1.1-0.6,2.1-1.1,2.9c-0.5,0.8-1.1,1.5-1.8,2c-0.7,0.5-1.6,0.7-2.6,0.7c-1.2,0-2.2-0.2-2.9-0.7c-0.8-0.5-1.3-1.1-1.8-2
			c-0.4-0.8-0.7-1.8-0.9-2.9C159.4,75.4,159.3,74.2,159.3,72.9L159.3,72.9z M161.1,72.9c0,1.2,0.1,2.3,0.2,3.4
			c0.1,1,0.4,1.9,0.7,2.7c0.3,0.8,0.7,1.4,1.2,1.8s1.1,0.7,1.9,0.7s1.4-0.2,1.9-0.7c0.5-0.4,0.9-1,1.2-1.8c0.3-0.8,0.5-1.7,0.7-2.7
			c0.1-1,0.2-2.2,0.2-3.4s-0.1-2.3-0.2-3.4c-0.1-1-0.4-1.9-0.7-2.7c-0.3-0.8-0.7-1.3-1.2-1.8c-0.5-0.4-1.1-0.7-1.9-0.7
			s-1.4,0.2-1.9,0.6c-0.5,0.4-0.9,1-1.2,1.7c-0.3,0.7-0.5,1.6-0.7,2.7C161.2,70.5,161.1,71.6,161.1,72.9L161.1,72.9z"/>
		<path class="st2" d="M173.9,65.3c0.4-0.4,0.8-0.7,1.4-1c0.6-0.3,1.3-0.5,2.2-0.5c0.7,0,1.3,0.1,1.8,0.2c0.6,0.1,1.1,0.4,1.5,0.7
			s0.8,0.7,1,1.2c0.2,0.5,0.4,1.1,0.4,1.7c0,0.6-0.1,1.2-0.3,1.7c-0.2,0.5-0.5,0.9-0.8,1.3c-0.3,0.4-0.7,0.7-1.1,0.9
			c-0.4,0.2-0.8,0.4-1.2,0.5v0.4c0.4,0,0.9,0.1,1.4,0.2c0.5,0.1,1,0.3,1.4,0.6c0.4,0.3,0.8,0.7,1.1,1.2c0.3,0.5,0.4,1.1,0.4,1.9
			c0,0.8-0.1,1.5-0.5,2.2s-0.7,1.3-1.3,1.8c-0.5,0.5-1.2,0.9-2,1.2s-1.6,0.4-2.6,0.4c-0.8,0-1.5-0.1-2.1-0.3
			c-0.6-0.2-1.1-0.4-1.6-0.6c0.1-0.2,0.1-0.4,0.2-0.7c0-0.3,0.1-0.5,0.1-0.8c0.2,0.2,0.4,0.4,0.6,0.6c0.2,0.2,0.5,0.4,0.8,0.5
			c0.3,0.2,0.6,0.3,1,0.4c0.3,0.1,0.7,0.2,1.1,0.2c0.6,0,1.2-0.1,1.8-0.3c0.5-0.2,1-0.5,1.3-0.9c0.4-0.4,0.6-0.9,0.8-1.4
			c0.2-0.6,0.3-1.2,0.3-1.9c0-0.8-0.1-1.4-0.3-1.9c-0.2-0.5-0.4-1-0.8-1.3c-0.3-0.3-0.7-0.6-1.2-0.7c-0.4-0.1-0.9-0.2-1.5-0.2
			c-0.2,0-0.4,0-0.5,0c-0.2,0-0.3,0-0.5,0.1c0-0.1,0-0.2,0-0.4c0-0.2,0-0.3,0-0.4c0.3,0,0.6,0.1,1,0.1c0.6,0,1.1-0.1,1.5-0.4
			c0.4-0.3,0.7-0.6,0.9-1c0.2-0.4,0.4-0.9,0.4-1.4c0.1-0.5,0.1-1,0.1-1.4c0-0.6-0.1-1.1-0.2-1.5c-0.2-0.4-0.4-0.8-0.6-1.1
			c-0.3-0.3-0.6-0.5-0.9-0.6c-0.3-0.1-0.7-0.2-1-0.2s-0.7,0.1-1,0.2c-0.3,0.1-0.6,0.3-0.9,0.5c-0.3,0.2-0.5,0.4-0.7,0.7
			c-0.2,0.3-0.3,0.5-0.4,0.8l0,0.1L173.9,65.3L173.9,65.3z M173.2,79.6C173.2,79.6,173.2,79.6,173.2,79.6l0.1,0
			C173.3,79.6,173.3,79.6,173.2,79.6C173.3,79.6,173.3,79.6,173.2,79.6L173.2,79.6C173.3,79.7,173.2,79.6,173.2,79.6L173.2,79.6z"/>
		<path class="st3" d="M159.3,58.3H183"/>
		<path class="st3" d="M159.3,87H183"/>
	</g>
</g>
</svg>
